0, 0, Header, 0, 1, 96
1, 0, Start_track
1, 0, Tempo, 428571
1, 0, Note_on_c, 0, 78, 69
1, 0, Note_on_c, 0, 74, 69
1, 67, Note_on_c, 0, 78, 0
1, 67, Note_on_c, 0, 74, 0
1, 72, Note_on_c, 0, 79, 69
1, 72, Note_on_c, 0, 76, 69
1, 95, Note_on_c, 0, 79, 0
1, 95, Note_on_c, 0, 76, 0
1, 96, Note_on_c, 0, 81, 69
1, 96, Note_on_c, 0, 78, 69
1, 141, Note_on_c, 0, 81, 0
1, 141, Note_on_c, 0, 78, 0
1, 144, Note_on_c, 0, 79, 69
1, 144, Note_on_c, 0, 76, 69
1, 144, Note_on_c, 1, 57, 69
1, 189, Note_on_c, 0, 79, 0
1, 189, Note_on_c, 0, 76, 0
1, 189, Note_on_c, 1, 57, 0
1, 192, Note_on_c, 0, 78, 69
1, 192, Note_on_c, 0, 74, 69
1, 192, Note_on_c, 1, 59, 69
1, 286, Note_on_c, 0, 78, 0
1, 286, Note_on_c, 0, 74, 0
1, 286, Note_on_c, 1, 59, 0
1, 384, Note_on_c, 0, 76, 69
1, 384, Note_on_c, 1, 59, 69
1, 384, Note_on_c, 1, 55, 69
1, 407, Note_on_c, 0, 76, 0
1, 408, Note_on_c, 0, 75, 69
1, 431, Note_on_c, 0, 75, 0
1, 432, Note_on_c, 0, 76, 69
1, 455, Note_on_c, 0, 76, 0
1, 456, Note_on_c, 0, 78, 69
1, 479, Note_on_c, 0, 78, 0
1, 480, Note_on_c, 0, 79, 69
1, 503, Note_on_c, 0, 79, 0
1, 504, Note_on_c, 0, 81, 69
1, 527, Note_on_c, 0, 81, 0
1, 528, Note_on_c, 0, 83, 69
1, 551, Note_on_c, 0, 83, 0
1, 552, Note_on_c, 0, 79, 69
1, 561, Note_on_c, 1, 59, 0
1, 561, Note_on_c, 1, 55, 0
1, 575, Note_on_c, 0, 79, 0
1, 576, Note_on_c, 0, 81, 69
1, 576, Note_on_c, 1, 54, 64
1, 599, Note_on_c, 0, 81, 0
1, 600, Note_on_c, 0, 78, 69
1, 623, Note_on_c, 0, 78, 0
1, 624, Note_on_c, 0, 76, 69
1, 624, Note_on_c, 1, 62, 69
1, 647, Note_on_c, 0, 76, 0
1, 648, Note_on_c, 0, 74, 69
1, 665, Note_on_c, 1, 54, 0
1, 671, Note_on_c, 0, 74, 0
1, 672, Note_on_c, 0, 81, 69
1, 672, Note_on_c, 1, 52, 64
1, 687, Note_on_c, 0, 81, 0
1, 688, Note_on_c, 0, 79, 69
1, 703, Note_on_c, 0, 79, 0
1, 704, Note_on_c, 0, 81, 69
1, 713, Note_on_c, 1, 62, 0
1, 719, Note_on_c, 0, 81, 0
1, 720, Note_on_c, 0, 79, 69
1, 720, Note_on_c, 1, 61, 69
1, 735, Note_on_c, 0, 79, 0
1, 736, Note_on_c, 0, 78, 69
1, 751, Note_on_c, 0, 78, 0
1, 752, Note_on_c, 0, 79, 69
1, 761, Note_on_c, 1, 52, 0
1, 765, Note_on_c, 1, 61, 0
1, 767, Note_on_c, 0, 79, 0
1, 768, Note_on_c, 0, 78, 69
1, 768, Note_on_c, 1, 62, 69
1, 768, Note_on_c, 1, 50, 64
1, 857, Note_on_c, 0, 78, 0
1, 857, Note_on_c, 1, 62, 0
1, 857, Note_on_c, 1, 50, 0
1, 960, Note_on_c, 0, 66, 69
1, 960, Note_on_c, 0, 62, 69
1, 1027, Note_on_c, 0, 66, 0
1, 1027, Note_on_c, 0, 62, 0
1, 1032, Note_on_c, 0, 67, 69
1, 1032, Note_on_c, 0, 64, 69
1, 1055, Note_on_c, 0, 67, 0
1, 1055, Note_on_c, 0, 64, 0
1, 1056, Note_on_c, 0, 69, 69
1, 1056, Note_on_c, 0, 66, 69
1, 1101, Note_on_c, 0, 69, 0
1, 1101, Note_on_c, 0, 66, 0
1, 1104, Note_on_c, 0, 67, 69
1, 1104, Note_on_c, 0, 64, 69
1, 1104, Note_on_c, 1, 57, 69
1, 1149, Note_on_c, 0, 67, 0
1, 1149, Note_on_c, 0, 64, 0
1, 1149, Note_on_c, 1, 57, 0
1, 1152, Note_on_c, 0, 66, 69
1, 1152, Note_on_c, 0, 62, 69
1, 1152, Note_on_c, 1, 59, 69
1, 1246, Note_on_c, 0, 66, 0
1, 1246, Note_on_c, 0, 62, 0
1, 1246, Note_on_c, 1, 59, 0
1, 1344, Note_on_c, 0, 62, 69
1, 1344, Note_on_c, 1, 57, 69
1, 1344, Note_on_c, 1, 54, 69
1, 1367, Note_on_c, 0, 62, 0
1, 1368, Note_on_c, 0, 64, 69
1, 1391, Note_on_c, 0, 64, 0
1, 1392, Note_on_c, 0, 66, 69
1, 1415, Note_on_c, 0, 66, 0
1, 1416, Note_on_c, 0, 67, 69
1, 1439, Note_on_c, 0, 67, 0
1, 1440, Note_on_c, 0, 69, 69
1, 1463, Note_on_c, 0, 69, 0
1, 1464, Note_on_c, 0, 71, 69
1, 1487, Note_on_c, 0, 71, 0
1, 1488, Note_on_c, 0, 73, 69
1, 1511, Note_on_c, 0, 73, 0
1, 1512, Note_on_c, 0, 74, 69
1, 1521, Note_on_c, 1, 57, 0
1, 1521, Note_on_c, 1, 54, 0
1, 1535, Note_on_c, 0, 74, 0
1, 1536, Note_on_c, 0, 71, 69
1, 1536, Note_on_c, 1, 55, 69
1, 1559, Note_on_c, 0, 71, 0
1, 1560, Note_on_c, 0, 74, 69
1, 1581, Note_on_c, 1, 55, 0
1, 1583, Note_on_c, 0, 74, 0
1, 1584, Note_on_c, 0, 69, 69
1, 1584, Note_on_c, 1, 54, 69
1, 1607, Note_on_c, 0, 69, 0
1, 1608, Note_on_c, 0, 74, 69
1, 1629, Note_on_c, 1, 54, 0
1, 1631, Note_on_c, 0, 74, 0
1, 1632, Note_on_c, 0, 73, 69
1, 1632, Note_on_c, 1, 52, 69
1, 1655, Note_on_c, 0, 73, 0
1, 1656, Note_on_c, 0, 79, 69
1, 1677, Note_on_c, 1, 52, 0
1, 1679, Note_on_c, 0, 79, 0
1, 1680, Note_on_c, 0, 74, 69
1, 1680, Note_on_c, 1, 50, 69
1, 1703, Note_on_c, 0, 74, 0
1, 1704, Note_on_c, 0, 78, 69
1, 1725, Note_on_c, 1, 50, 0
1, 1727, Note_on_c, 0, 78, 0
1, 1728, Note_on_c, 0, 76, 69
1, 1728, Note_on_c, 0, 73, 69
1, 1728, Note_on_c, 1, 57, 69
1, 1773, Note_on_c, 1, 57, 0
1, 1776, Note_on_c, 1, 52, 69
1, 1817, Note_on_c, 0, 76, 0
1, 1817, Note_on_c, 0, 73, 0
1, 1821, Note_on_c, 1, 52, 0
1, 1824, Note_on_c, 1, 45, 69
1, 1913, Note_on_c, 1, 45, 0
1, 1920, Note_on_c, 0, 76, 69
1, 1920, Note_on_c, 0, 69, 69
1, 1920, Note_on_c, 1, 49, 69
1, 1943, Note_on_c, 1, 49, 0
1, 1944, Note_on_c, 1, 57, 69
1, 1967, Note_on_c, 1, 57, 0
1, 1968, Note_on_c, 1, 56, 69
1, 1987, Note_on_c, 0, 76, 0
1, 1991, Note_on_c, 1, 56, 0
1, 1992, Note_on_c, 0, 78, 69
1, 1992, Note_on_c, 1, 57, 69
1, 2015, Note_on_c, 0, 78, 0
1, 2015, Note_on_c, 1, 57, 0
1, 2016, Note_on_c, 0, 79, 70
1, 2016, Note_on_c, 1, 49, 70
1, 2039, Note_on_c, 1, 49, 0
1, 2040, Note_on_c, 1, 57, 70
1, 2053, Note_on_c, 0, 69, 0
1, 2061, Note_on_c, 0, 79, 0
1, 2063, Note_on_c, 1, 57, 0
1, 2064, Note_on_c, 0, 79, 70
1, 2064, Note_on_c, 0, 76, 70
1, 2064, Note_on_c, 1, 56, 70
1, 2087, Note_on_c, 1, 56, 0
1, 2088, Note_on_c, 1, 57, 70
1, 2109, Note_on_c, 0, 79, 0
1, 2109, Note_on_c, 0, 76, 0
1, 2111, Note_on_c, 1, 57, 0
1, 2112, Note_on_c, 0, 78, 71
1, 2112, Note_on_c, 0, 74, 71
1, 2112, Note_on_c, 1, 50, 71
1, 2135, Note_on_c, 1, 50, 0
1, 2136, Note_on_c, 1, 57, 71
1, 2157, Note_on_c, 0, 78, 0
1, 2157, Note_on_c, 0, 74, 0
1, 2159, Note_on_c, 1, 57, 0
1, 2160, Note_on_c, 1, 56, 71
1, 2183, Note_on_c, 1, 56, 0
1, 2184, Note_on_c, 1, 57, 72
1, 2207, Note_on_c, 1, 57, 0
1, 2208, Note_on_c, 1, 50, 72
1, 2231, Note_on_c, 1, 50, 0
1, 2232, Note_on_c, 1, 57, 72
1, 2255, Note_on_c, 1, 57, 0
1, 2256, Note_on_c, 1, 56, 72
1, 2279, Note_on_c, 1, 56, 0
1, 2280, Note_on_c, 1, 57, 73
1, 2303, Note_on_c, 1, 57, 0
1, 2304, Note_on_c, 0, 78, 73
1, 2304, Note_on_c, 0, 71, 73
1, 2304, Note_on_c, 1, 51, 73
1, 2327, Note_on_c, 1, 51, 0
1, 2328, Note_on_c, 1, 59, 73
1, 2351, Note_on_c, 1, 59, 0
1, 2352, Note_on_c, 1, 58, 74
1, 2371, Note_on_c, 0, 78, 0
1, 2375, Note_on_c, 1, 58, 0
1, 2376, Note_on_c, 0, 80, 74
1, 2376, Note_on_c, 1, 59, 74
1, 2399, Note_on_c, 0, 80, 0
1, 2399, Note_on_c, 1, 59, 0
1, 2400, Note_on_c, 0, 81, 74
1, 2400, Note_on_c, 1, 51, 74
1, 2423, Note_on_c, 1, 51, 0
1, 2424, Note_on_c, 1, 59, 74
1, 2437, Note_on_c, 0, 71, 0
1, 2445, Note_on_c, 0, 81, 0
1, 2447, Note_on_c, 1, 59, 0
1, 2448, Note_on_c, 0, 81, 74
1, 2448, Note_on_c, 0, 78, 74
1, 2448, Note_on_c, 1, 58, 75
1, 2471, Note_on_c, 1, 58, 0
1, 2472, Note_on_c, 1, 59, 75
1, 2493, Note_on_c, 0, 81, 0
1, 2493, Note_on_c, 0, 78, 0
1, 2495, Note_on_c, 1, 59, 0
1, 2496, Note_on_c, 0, 80, 75
1, 2496, Note_on_c, 0, 76, 75
1, 2496, Note_on_c, 1, 52, 75
1, 2519, Note_on_c, 1, 52, 0
1, 2520, Note_on_c, 1, 59, 76
1, 2541, Note_on_c, 0, 80, 0
1, 2541, Note_on_c, 0, 76, 0
1, 2543, Note_on_c, 1, 59, 0
1, 2544, Note_on_c, 1, 58, 76
1, 2567, Note_on_c, 1, 58, 0
1, 2568, Note_on_c, 1, 59, 76
1, 2591, Note_on_c, 1, 59, 0
1, 2592, Note_on_c, 1, 52, 76
1, 2615, Note_on_c, 1, 52, 0
1, 2616, Note_on_c, 1, 59, 76
1, 2639, Note_on_c, 1, 59, 0
1, 2640, Note_on_c, 1, 58, 76
1, 2663, Note_on_c, 1, 58, 0
1, 2664, Note_on_c, 1, 59, 76
1, 2687, Note_on_c, 1, 59, 0
1, 2688, Note_on_c, 1, 56, 76
1, 2688, Note_on_c, 1, 52, 76
1, 2712, Note_on_c, 0, 83, 76
1, 2733, Note_on_c, 1, 56, 0
1, 2733, Note_on_c, 1, 52, 0
1, 2735, Note_on_c, 0, 83, 0
1, 2736, Note_on_c, 0, 81, 76
1, 2759, Note_on_c, 0, 81, 0
1, 2760, Note_on_c, 0, 80, 76
1, 2783, Note_on_c, 0, 80, 0
1, 2784, Note_on_c, 0, 78, 76
1, 2807, Note_on_c, 0, 78, 0
1, 2808, Note_on_c, 0, 76, 76
1, 2831, Note_on_c, 0, 76, 0
1, 2832, Note_on_c, 0, 75, 76
1, 2855, Note_on_c, 0, 75, 0
1, 2856, Note_on_c, 0, 76, 76
1, 2879, Note_on_c, 0, 76, 0
1, 2880, Note_on_c, 1, 69, 76
1, 2880, Note_on_c, 1, 66, 76
1, 2904, Note_on_c, 0, 83, 76
1, 2925, Note_on_c, 1, 69, 0
1, 2925, Note_on_c, 1, 66, 0
1, 2927, Note_on_c, 0, 83, 0
1, 2928, Note_on_c, 0, 81, 76
1, 2951, Note_on_c, 0, 81, 0
1, 2952, Note_on_c, 0, 80, 76
1, 2975, Note_on_c, 0, 80, 0
1, 2976, Note_on_c, 0, 78, 76
1, 2999, Note_on_c, 0, 78, 0
1, 3000, Note_on_c, 0, 76, 76
1, 3023, Note_on_c, 0, 76, 0
1, 3024, Note_on_c, 0, 75, 76
1, 3047, Note_on_c, 0, 75, 0
1, 3048, Note_on_c, 0, 76, 76
1, 3071, Note_on_c, 0, 76, 0
1, 3072, Note_on_c, 1, 71, 76
1, 3072, Note_on_c, 1, 68, 76
1, 3096, Note_on_c, 0, 86, 76
1, 3119, Note_on_c, 0, 86, 0
1, 3120, Note_on_c, 0, 85, 76
1, 3143, Note_on_c, 0, 85, 0
1, 3144, Note_on_c, 0, 83, 76
1, 3167, Note_on_c, 0, 83, 0
1, 3168, Note_on_c, 0, 81, 76
1, 3191, Note_on_c, 0, 81, 0
1, 3192, Note_on_c, 0, 80, 76
1, 3215, Note_on_c, 0, 80, 0
1, 3216, Note_on_c, 0, 78, 76
1, 3239, Note_on_c, 0, 78, 0
1, 3240, Note_on_c, 0, 76, 76
1, 3249, Note_on_c, 1, 71, 0
1, 3249, Note_on_c, 1, 68, 0
1, 3263, Note_on_c, 0, 76, 0
1, 3264, Note_on_c, 0, 74, 76
1, 3288, Note_on_c, 1, 57, 76
1, 3311, Note_on_c, 1, 57, 0
1, 3312, Note_on_c, 1, 61, 76
1, 3335, Note_on_c, 1, 61, 0
1, 3336, Note_on_c, 1, 64, 76
1, 3359, Note_on_c, 1, 64, 0
1, 3360, Note_on_c, 0, 74, 0
1, 3360, Note_on_c, 0, 73, 76
1, 3360, Note_on_c, 1, 69, 76
1, 3405, Note_on_c, 1, 69, 0
1, 3408, Note_on_c, 1, 57, 76
1, 3449, Note_on_c, 0, 73, 0
1, 3453, Note_on_c, 1, 57, 0
1, 3456, Note_on_c, 1, 69, 76
1, 3456, Note_on_c, 1, 62, 64
1, 3480, Note_on_c, 0, 78, 76
1, 3503, Note_on_c, 0, 78, 0
1, 3504, Note_on_c, 0, 80, 76
1, 3527, Note_on_c, 0, 80, 0
1, 3528, Note_on_c, 0, 81, 76
1, 3545, Note_on_c, 1, 69, 0
1, 3545, Note_on_c, 1, 62, 0
1, 3551, Note_on_c, 0, 81, 0
1, 3552, Note_on_c, 1, 69, 76
1, 3552, Note_on_c, 1, 61, 64
1, 3576, Note_on_c, 0, 76, 76
1, 3599, Note_on_c, 0, 76, 0
1, 3600, Note_on_c, 0, 80, 76
1, 3623, Note_on_c, 0, 80, 0
1, 3624, Note_on_c, 0, 81, 76
1, 3641, Note_on_c, 1, 61, 0
1, 3647, Note_on_c, 0, 81, 0
1, 3648, Note_on_c, 0, 74, 76
1, 3648, Note_on_c, 1, 59, 64
1, 3671, Note_on_c, 0, 74, 0
1, 3672, Note_on_c, 0, 78, 76
1, 3693, Note_on_c, 1, 69, 0
1, 3695, Note_on_c, 0, 78, 0
1, 3696, Note_on_c, 0, 76, 76
1, 3696, Note_on_c, 1, 68, 76
1, 3719, Note_on_c, 0, 76, 0
1, 3720, Note_on_c, 0, 74, 76
1, 3737, Note_on_c, 1, 59, 0
1, 3741, Note_on_c, 1, 68, 0
1, 3743, Note_on_c, 0, 74, 0
1, 3744, Note_on_c, 0, 74, 76
1, 3744, Note_on_c, 1, 69, 76
1, 3744, Note_on_c, 1, 57, 64
1, 3767, Note_on_c, 0, 74, 0
1, 3768, Note_on_c, 0, 73, 76
1, 3789, Note_on_c, 1, 69, 0
1, 3789, Note_on_c, 1, 57, 0
1, 3791, Note_on_c, 0, 73, 0
1, 3792, Note_on_c, 0, 71, 76
1, 3815, Note_on_c, 0, 71, 0
1, 3816, Note_on_c, 0, 69, 76
1, 3839, Note_on_c, 0, 69, 0
1, 3840, Note_on_c, 1, 69, 61
1, 3840, Note_on_c, 1, 62, 61
1, 3864, Note_on_c, 0, 78, 61
1, 3887, Note_on_c, 0, 78, 0
1, 3888, Note_on_c, 0, 80, 61
1, 3911, Note_on_c, 0, 80, 0
1, 3912, Note_on_c, 0, 81, 61
1, 3929, Note_on_c, 1, 69, 0
1, 3929, Note_on_c, 1, 62, 0
1, 3935, Note_on_c, 0, 81, 0
1, 3936, Note_on_c, 1, 69, 61
1, 3936, Note_on_c, 1, 61, 61
1, 3960, Note_on_c, 0, 76, 61
1, 3983, Note_on_c, 0, 76, 0
1, 3984, Note_on_c, 0, 80, 61
1, 4007, Note_on_c, 0, 80, 0
1, 4008, Note_on_c, 0, 81, 61
1, 4025, Note_on_c, 1, 61, 0
1, 4031, Note_on_c, 0, 81, 0
1, 4032, Note_on_c, 0, 74, 61
1, 4032, Note_on_c, 1, 59, 61
1, 4055, Note_on_c, 0, 74, 0
1, 4056, Note_on_c, 0, 78, 61
1, 4077, Note_on_c, 1, 69, 0
1, 4079, Note_on_c, 0, 78, 0
1, 4080, Note_on_c, 0, 76, 61
1, 4080, Note_on_c, 1, 68, 61
1, 4103, Note_on_c, 0, 76, 0
1, 4104, Note_on_c, 0, 74, 61
1, 4121, Note_on_c, 1, 59, 0
1, 4125, Note_on_c, 1, 68, 0
1, 4127, Note_on_c, 0, 74, 0
1, 4128, Note_on_c, 0, 74, 61
1, 4128, Note_on_c, 1, 69, 61
1, 4128, Note_on_c, 1, 57, 61
1, 4151, Note_on_c, 0, 74, 0
1, 4152, Note_on_c, 0, 73, 68
1, 4173, Note_on_c, 1, 69, 0
1, 4173, Note_on_c, 1, 57, 0
1, 4175, Note_on_c, 0, 73, 0
1, 4176, Note_on_c, 0, 71, 75
1, 4199, Note_on_c, 0, 71, 0
1, 4200, Note_on_c, 0, 69, 82
1, 4223, Note_on_c, 0, 69, 0
1, 4224, Note_on_c, 1, 65, 89
1, 4224, Note_on_c, 1, 53, 89
1, 4248, Note_on_c, 0, 69, 89
1, 4271, Note_on_c, 0, 69, 0
1, 4272, Note_on_c, 0, 75, 89
1, 4295, Note_on_c, 0, 75, 0
1, 4296, Note_on_c, 0, 69, 89
1, 4319, Note_on_c, 0, 69, 0
1, 4320, Note_on_c, 0, 81, 89
1, 4343, Note_on_c, 0, 81, 0
1, 4344, Note_on_c, 0, 69, 89
1, 4367, Note_on_c, 0, 69, 0
1, 4368, Note_on_c, 0, 75, 89
1, 4391, Note_on_c, 0, 75, 0
1, 4392, Note_on_c, 0, 69, 89
1, 4401, Note_on_c, 1, 65, 0
1, 4401, Note_on_c, 1, 53, 0
1, 4415, Note_on_c, 0, 69, 0
1, 4416, Note_on_c, 1, 66, 89
1, 4416, Note_on_c, 1, 54, 89
1, 4440, Note_on_c, 0, 69, 89
1, 4463, Note_on_c, 0, 69, 0
1, 4464, Note_on_c, 0, 75, 89
1, 4487, Note_on_c, 0, 75, 0
1, 4488, Note_on_c, 0, 69, 89
1, 4511, Note_on_c, 0, 69, 0
1, 4512, Note_on_c, 0, 81, 89
1, 4535, Note_on_c, 0, 81, 0
1, 4536, Note_on_c, 0, 69, 89
1, 4559, Note_on_c, 0, 69, 0
1, 4560, Note_on_c, 0, 75, 89
1, 4583, Note_on_c, 0, 75, 0
1, 4584, Note_on_c, 0, 69, 89
1, 4593, Note_on_c, 1, 66, 0
1, 4593, Note_on_c, 1, 54, 0
1, 4607, Note_on_c, 0, 69, 0
1, 4608, Note_on_c, 1, 63, 89
1, 4608, Note_on_c, 1, 51, 89
1, 4632, Note_on_c, 0, 71, 89
1, 4655, Note_on_c, 0, 71, 0
1, 4656, Note_on_c, 0, 78, 89
1, 4679, Note_on_c, 0, 78, 0
1, 4680, Note_on_c, 0, 71, 89
1, 4703, Note_on_c, 0, 71, 0
1, 4704, Note_on_c, 0, 81, 89
1, 4727, Note_on_c, 0, 81, 0
1, 4728, Note_on_c, 0, 71, 89
1, 4751, Note_on_c, 0, 71, 0
1, 4752, Note_on_c, 0, 78, 89
1, 4775, Note_on_c, 0, 78, 0
1, 4776, Note_on_c, 0, 71, 89
1, 4785, Note_on_c, 1, 63, 0
1, 4785, Note_on_c, 1, 51, 0
1, 4799, Note_on_c, 0, 71, 0
1, 4800, Note_on_c, 1, 68, 89
1, 4800, Note_on_c, 1, 56, 89
1, 4824, Note_on_c, 0, 74, 89
1, 4847, Note_on_c, 0, 74, 0
1, 4848, Note_on_c, 0, 76, 89
1, 4871, Note_on_c, 0, 76, 0
1, 4872, Note_on_c, 0, 74, 89
1, 4895, Note_on_c, 0, 74, 0
1, 4896, Note_on_c, 0, 83, 89
1, 4919, Note_on_c, 0, 83, 0
1, 4920, Note_on_c, 0, 74, 89
1, 4943, Note_on_c, 0, 74, 0
1, 4944, Note_on_c, 0, 76, 89
1, 4967, Note_on_c, 0, 76, 0
1, 4968, Note_on_c, 0, 74, 89
1, 4977, Note_on_c, 1, 68, 0
1, 4977, Note_on_c, 1, 56, 0
1, 4991, Note_on_c, 0, 74, 0
1, 4992, Note_on_c, 1, 65, 89
1, 4992, Note_on_c, 1, 53, 89
1, 5016, Note_on_c, 0, 74, 89
1, 5039, Note_on_c, 0, 74, 0
1, 5040, Note_on_c, 0, 80, 89
1, 5063, Note_on_c, 0, 80, 0
1, 5064, Note_on_c, 0, 74, 89
1, 5087, Note_on_c, 0, 74, 0
1, 5088, Note_on_c, 0, 83, 89
1, 5111, Note_on_c, 0, 83, 0
1, 5112, Note_on_c, 0, 74, 89
1, 5135, Note_on_c, 0, 74, 0
1, 5136, Note_on_c, 0, 80, 89
1, 5159, Note_on_c, 0, 80, 0
1, 5160, Note_on_c, 0, 74, 89
1, 5169, Note_on_c, 1, 65, 0
1, 5169, Note_on_c, 1, 53, 0
1, 5183, Note_on_c, 0, 74, 0
1, 5184, Note_on_c, 1, 66, 89
1, 5184, Note_on_c, 1, 54, 89
1, 5208, Note_on_c, 0, 73, 89
1, 5231, Note_on_c, 0, 73, 0
1, 5232, Note_on_c, 0, 81, 89
1, 5255, Note_on_c, 0, 81, 0
1, 5256, Note_on_c, 0, 73, 89
1, 5273, Note_on_c, 1, 66, 0
1, 5273, Note_on_c, 1, 54, 0
1, 5279, Note_on_c, 0, 73, 0
1, 5280, Note_on_c, 1, 63, 89
1, 5280, Note_on_c, 1, 51, 89
1, 5304, Note_on_c, 0, 71, 89
1, 5327, Note_on_c, 0, 71, 0
1, 5328, Note_on_c, 0, 81, 89
1, 5351, Note_on_c, 0, 81, 0
1, 5352, Note_on_c, 0, 71, 89
1, 5369, Note_on_c, 1, 63, 0
1, 5369, Note_on_c, 1, 51, 0
1, 5375, Note_on_c, 0, 71, 0
1, 5376, Note_on_c, 1, 64, 89
1, 5376, Note_on_c, 1, 52, 89
1, 5400, Note_on_c, 0, 71, 89
1, 5423, Note_on_c, 0, 71, 0
1, 5424, Note_on_c, 0, 80, 89
1, 5447, Note_on_c, 0, 80, 0
1, 5448, Note_on_c, 0, 71, 89
1, 5465, Note_on_c, 1, 64, 0
1, 5465, Note_on_c, 1, 52, 0
1, 5471, Note_on_c, 0, 71, 0
1, 5472, Note_on_c, 1, 68, 89
1, 5472, Note_on_c, 1, 56, 89
1, 5496, Note_on_c, 0, 74, 89
1, 5519, Note_on_c, 0, 74, 0
1, 5520, Note_on_c, 0, 83, 89
1, 5543, Note_on_c, 0, 83, 0
1, 5544, Note_on_c, 0, 74, 89
1, 5561, Note_on_c, 1, 68, 0
1, 5561, Note_on_c, 1, 56, 0
1, 5567, Note_on_c, 0, 74, 0
1, 5568, Note_on_c, 1, 69, 89
1, 5568, Note_on_c, 1, 57, 89
1, 5592, Note_on_c, 0, 73, 89
1, 5615, Note_on_c, 0, 73, 0
1, 5616, Note_on_c, 0, 81, 89
1, 5639, Note_on_c, 0, 81, 0
1, 5640, Note_on_c, 0, 73, 89
1, 5657, Note_on_c, 1, 69, 0
1, 5657, Note_on_c, 1, 57, 0
1, 5663, Note_on_c, 0, 73, 0
1, 5664, Note_on_c, 1, 63, 89
1, 5664, Note_on_c, 1, 51, 89
1, 5688, Note_on_c, 0, 73, 89
1, 5711, Note_on_c, 0, 73, 0
1, 5712, Note_on_c, 0, 81, 89
1, 5735, Note_on_c, 0, 81, 0
1, 5736, Note_on_c, 0, 73, 89
1, 5753, Note_on_c, 1, 63, 0
1, 5753, Note_on_c, 1, 51, 0
1, 5759, Note_on_c, 0, 73, 0
1, 5760, Note_on_c, 0, 80, 89
1, 5760, Note_on_c, 0, 71, 89
1, 5760, Note_on_c, 1, 64, 89
1, 5760, Note_on_c, 1, 52, 89
1, 5849, Note_on_c, 0, 80, 0
1, 5849, Note_on_c, 0, 71, 0
1, 5849, Note_on_c, 1, 64, 0
1, 5849, Note_on_c, 1, 52, 0
1, 5952, Note_on_c, 0, 73, 69
1, 5952, Note_on_c, 0, 69, 69
1, 6019, Note_on_c, 0, 73, 0
1, 6019, Note_on_c, 0, 69, 0
1, 6024, Note_on_c, 0, 74, 69
1, 6024, Note_on_c, 0, 71, 69
1, 6047, Note_on_c, 0, 74, 0
1, 6047, Note_on_c, 0, 71, 0
1, 6048, Note_on_c, 0, 76, 69
1, 6048, Note_on_c, 0, 73, 69
1, 6093, Note_on_c, 0, 76, 0
1, 6093, Note_on_c, 0, 73, 0
1, 6096, Note_on_c, 0, 74, 69
1, 6096, Note_on_c, 0, 71, 69
1, 6096, Note_on_c, 1, 64, 69
1, 6141, Note_on_c, 0, 74, 0
1, 6141, Note_on_c, 0, 71, 0
1, 6141, Note_on_c, 1, 64, 0
1, 6144, Note_on_c, 0, 73, 69
1, 6144, Note_on_c, 0, 69, 69
1, 6144, Note_on_c, 1, 66, 69
1, 6238, Note_on_c, 0, 73, 0
1, 6238, Note_on_c, 0, 69, 0
1, 6238, Note_on_c, 1, 66, 0
1, 6336, Note_on_c, 0, 73, 61
1, 6336, Note_on_c, 0, 69, 61
1, 6403, Note_on_c, 0, 73, 0
1, 6403, Note_on_c, 0, 69, 0
1, 6408, Note_on_c, 0, 74, 61
1, 6408, Note_on_c, 0, 71, 61
1, 6431, Note_on_c, 0, 74, 0
1, 6431, Note_on_c, 0, 71, 0
1, 6432, Note_on_c, 0, 76, 61
1, 6432, Note_on_c, 0, 73, 61
1, 6477, Note_on_c, 0, 76, 0
1, 6477, Note_on_c, 0, 73, 0
1, 6480, Note_on_c, 0, 74, 61
1, 6480, Note_on_c, 0, 71, 61
1, 6480, Note_on_c, 1, 64, 61
1, 6525, Note_on_c, 0, 74, 0
1, 6525, Note_on_c, 0, 71, 0
1, 6525, Note_on_c, 1, 64, 0
1, 6528, Note_on_c, 0, 73, 61
1, 6528, Note_on_c, 0, 69, 61
1, 6528, Note_on_c, 1, 66, 61
1, 6622, Note_on_c, 0, 73, 0
1, 6622, Note_on_c, 0, 69, 0
1, 6622, Note_on_c, 1, 66, 0
1, 6720, Note_on_c, 0, 73, 69
1, 6720, Note_on_c, 0, 69, 69
1, 6787, Note_on_c, 0, 73, 0
1, 6787, Note_on_c, 0, 69, 0
1, 6792, Note_on_c, 0, 74, 69
1, 6792, Note_on_c, 0, 71, 69
1, 6815, Note_on_c, 0, 74, 0
1, 6815, Note_on_c, 0, 71, 0
1, 6816, Note_on_c, 0, 76, 69
1, 6816, Note_on_c, 0, 73, 69
1, 6861, Note_on_c, 0, 76, 0
1, 6861, Note_on_c, 0, 73, 0
1, 6864, Note_on_c, 0, 74, 69
1, 6864, Note_on_c, 0, 71, 69
1, 6864, Note_on_c, 1, 52, 69
1, 6909, Note_on_c, 0, 74, 0
1, 6909, Note_on_c, 0, 71, 0
1, 6909, Note_on_c, 1, 52, 0
1, 6912, Note_on_c, 0, 73, 69
1, 6912, Note_on_c, 0, 69, 69
1, 6912, Note_on_c, 1, 54, 61
1, 6957, Note_on_c, 0, 73, 0
1, 6957, Note_on_c, 0, 69, 0
1, 6957, Note_on_c, 1, 54, 0
1, 6960, Note_on_c, 0, 81, 70
1, 6960, Note_on_c, 1, 57, 69
1, 6960, Note_on_c, 1, 49, 61
1, 7005, Note_on_c, 0, 81, 0
1, 7005, Note_on_c, 1, 57, 0
1, 7005, Note_on_c, 1, 49, 0
1, 7008, Note_on_c, 0, 80, 72
1, 7008, Note_on_c, 1, 57, 69
1, 7008, Note_on_c, 1, 50, 61
1, 7031, Note_on_c, 0, 80, 0
1, 7032, Note_on_c, 0, 78, 72
1, 7055, Note_on_c, 0, 78, 0
1, 7056, Note_on_c, 0, 76, 73
1, 7079, Note_on_c, 0, 76, 0
1, 7080, Note_on_c, 0, 74, 74
1, 7097, Note_on_c, 1, 57, 0
1, 7097, Note_on_c, 1, 50, 0
1, 7103, Note_on_c, 0, 74, 0
1, 7104, Note_on_c, 0, 74, 75
1, 7104, Note_on_c, 1, 57, 69
1, 7104, Note_on_c, 1, 52, 69
1, 7127, Note_on_c, 0, 74, 0
1, 7128, Note_on_c, 0, 73, 76
1, 7151, Note_on_c, 0, 73, 0
1, 7152, Note_on_c, 0, 71, 75
1, 7175, Note_on_c, 0, 71, 0
1, 7176, Note_on_c, 0, 69, 74
1, 7193, Note_on_c, 1, 57, 0
1, 7193, Note_on_c, 1, 52, 0
1, 7199, Note_on_c, 0, 69, 0
1, 7200, Note_on_c, 0, 73, 73
1, 7200, Note_on_c, 1, 56, 69
1, 7200, Note_on_c, 1, 52, 69
1, 7215, Note_on_c, 0, 73, 0
1, 7216, Note_on_c, 0, 71, 72
1, 7231, Note_on_c, 0, 71, 0
1, 7232, Note_on_c, 0, 73, 72
1, 7247, Note_on_c, 0, 73, 0
1, 7248, Note_on_c, 0, 71, 71
1, 7263, Note_on_c, 0, 71, 0
1, 7264, Note_on_c, 0, 69, 71
1, 7279, Note_on_c, 0, 69, 0
1, 7280, Note_on_c, 0, 71, 70
1, 7289, Note_on_c, 1, 56, 0
1, 7289, Note_on_c, 1, 52, 0
1, 7295, Note_on_c, 0, 71, 0
1, 7296, Note_on_c, 0, 69, 69
1, 7296, Note_on_c, 1, 57, 69
1, 7296, Note_on_c, 1, 45, 69
1, 7385, Note_on_c, 0, 69, 0
1, 7385, Note_on_c, 1, 57, 0
1, 7385, Note_on_c, 1, 45, 0
1, 7392, Note_on_c, 0, 76, 76
1, 7415, Note_on_c, 0, 76, 0
1, 7416, Note_on_c, 0, 73, 76
1, 7439, Note_on_c, 0, 73, 0
1, 7440, Note_on_c, 0, 69, 76
1, 7440, Note_on_c, 1, 61, 76
1, 7463, Note_on_c, 0, 69, 0
1, 7464, Note_on_c, 0, 64, 76
1, 7485, Note_on_c, 1, 61, 0
1, 7487, Note_on_c, 0, 64, 0
1, 7488, Note_on_c, 0, 65, 76
1, 7488, Note_on_c, 1, 62, 76
1, 7533, Note_on_c, 1, 62, 0
1, 7536, Note_on_c, 0, 65, 0
1, 7536, Note_on_c, 0, 66, 76
1, 7536, Note_on_c, 1, 50, 76
1, 7581, Note_on_c, 0, 66, 0
1, 7581, Note_on_c, 1, 50, 0
1, 7584, Note_on_c, 0, 74, 76
1, 7607, Note_on_c, 0, 74, 0
1, 7608, Note_on_c, 0, 71, 76
1, 7631, Note_on_c, 0, 71, 0
1, 7632, Note_on_c, 0, 68, 76
1, 7632, Note_on_c, 1, 59, 76
1, 7632, Note_on_c, 1, 52, 76
1, 7655, Note_on_c, 0, 68, 0
1, 7656, Note_on_c, 0, 64, 76
1, 7677, Note_on_c, 1, 59, 0
1, 7677, Note_on_c, 1, 52, 0
1, 7679, Note_on_c, 0, 64, 0
1, 7680, Note_on_c, 0, 68, 76
1, 7680, Note_on_c, 1, 57, 76
1, 7725, Note_on_c, 1, 57, 0
1, 7728, Note_on_c, 0, 68, 0
1, 7728, Note_on_c, 0, 69, 76
1, 7728, Note_on_c, 1, 45, 76
1, 7773, Note_on_c, 0, 69, 0
1, 7773, Note_on_c, 1, 45, 0
1, 7776, Note_on_c, 0, 76, 69
1, 7799, Note_on_c, 0, 76, 0
1, 7800, Note_on_c, 0, 73, 69
1, 7823, Note_on_c, 0, 73, 0
1, 7824, Note_on_c, 0, 69, 69
1, 7824, Note_on_c, 1, 61, 69
1, 7847, Note_on_c, 0, 69, 0
1, 7848, Note_on_c, 0, 64, 69
1, 7869, Note_on_c, 1, 61, 0
1, 7871, Note_on_c, 0, 64, 0
1, 7872, Note_on_c, 0, 65, 69
1, 7872, Note_on_c, 1, 62, 69
1, 7917, Note_on_c, 1, 62, 0
1, 7920, Note_on_c, 0, 65, 0
1, 7920, Note_on_c, 0, 66, 69
1, 7920, Note_on_c, 1, 50, 69
1, 7965, Note_on_c, 0, 66, 0
1, 7965, Note_on_c, 1, 50, 0
1, 7968, Note_on_c, 0, 74, 69
1, 7991, Note_on_c, 0, 74, 0
1, 7992, Note_on_c, 0, 71, 69
1, 8015, Note_on_c, 0, 71, 0
1, 8016, Note_on_c, 0, 68, 69
1, 8016, Note_on_c, 1, 59, 69
1, 8016, Note_on_c, 1, 52, 69
1, 8039, Note_on_c, 0, 68, 0
1, 8040, Note_on_c, 0, 64, 69
1, 8061, Note_on_c, 1, 59, 0
1, 8061, Note_on_c, 1, 52, 0
1, 8063, Note_on_c, 0, 64, 0
1, 8064, Note_on_c, 0, 68, 69
1, 8064, Note_on_c, 1, 57, 69
1, 8109, Note_on_c, 1, 57, 0
1, 8112, Note_on_c, 0, 68, 0
1, 8112, Note_on_c, 0, 69, 65
1, 8112, Note_on_c, 1, 45, 65
1, 8157, Note_on_c, 0, 69, 0
1, 8157, Note_on_c, 1, 45, 0
1, 8256, Note_on_c, 0, 78, 69
1, 8256, Note_on_c, 0, 74, 69
1, 8323, Note_on_c, 0, 78, 0
1, 8323, Note_on_c, 0, 74, 0
1, 8328, Note_on_c, 0, 79, 69
1, 8328, Note_on_c, 0, 76, 69
1, 8351, Note_on_c, 0, 79, 0
1, 8351, Note_on_c, 0, 76, 0
1, 8352, Note_on_c, 0, 81, 69
1, 8352, Note_on_c, 0, 78, 69
1, 8397, Note_on_c, 0, 81, 0
1, 8397, Note_on_c, 0, 78, 0
1, 8400, Note_on_c, 0, 79, 69
1, 8400, Note_on_c, 0, 76, 69
1, 8400, Note_on_c, 1, 57, 69
1, 8445, Note_on_c, 0, 79, 0
1, 8445, Note_on_c, 0, 76, 0
1, 8445, Note_on_c, 1, 57, 0
1, 8448, Note_on_c, 0, 78, 69
1, 8448, Note_on_c, 0, 74, 69
1, 8448, Note_on_c, 1, 59, 69
1, 8542, Note_on_c, 0, 78, 0
1, 8542, Note_on_c, 0, 74, 0
1, 8542, Note_on_c, 1, 59, 0
1, 8640, Note_on_c, 0, 76, 69
1, 8640, Note_on_c, 1, 59, 69
1, 8640, Note_on_c, 1, 55, 69
1, 8663, Note_on_c, 0, 76, 0
1, 8664, Note_on_c, 0, 75, 69
1, 8687, Note_on_c, 0, 75, 0
1, 8688, Note_on_c, 0, 76, 69
1, 8711, Note_on_c, 0, 76, 0
1, 8712, Note_on_c, 0, 78, 69
1, 8735, Note_on_c, 0, 78, 0
1, 8736, Note_on_c, 0, 79, 69
1, 8759, Note_on_c, 0, 79, 0
1, 8760, Note_on_c, 0, 81, 69
1, 8783, Note_on_c, 0, 81, 0
1, 8784, Note_on_c, 0, 83, 69
1, 8807, Note_on_c, 0, 83, 0
1, 8808, Note_on_c, 0, 79, 69
1, 8817, Note_on_c, 1, 59, 0
1, 8817, Note_on_c, 1, 55, 0
1, 8831, Note_on_c, 0, 79, 0
1, 8832, Note_on_c, 0, 81, 69
1, 8832, Note_on_c, 1, 54, 64
1, 8855, Note_on_c, 0, 81, 0
1, 8856, Note_on_c, 0, 78, 69
1, 8879, Note_on_c, 0, 78, 0
1, 8880, Note_on_c, 0, 76, 69
1, 8880, Note_on_c, 1, 62, 69
1, 8903, Note_on_c, 0, 76, 0
1, 8904, Note_on_c, 0, 74, 69
1, 8921, Note_on_c, 1, 54, 0
1, 8927, Note_on_c, 0, 74, 0
1, 8928, Note_on_c, 0, 81, 69
1, 8928, Note_on_c, 1, 52, 64
1, 8943, Note_on_c, 0, 81, 0
1, 8944, Note_on_c, 0, 79, 69
1, 8959, Note_on_c, 0, 79, 0
1, 8960, Note_on_c, 0, 81, 69
1, 8969, Note_on_c, 1, 62, 0
1, 8975, Note_on_c, 0, 81, 0
1, 8976, Note_on_c, 0, 79, 69
1, 8976, Note_on_c, 1, 61, 69
1, 8991, Note_on_c, 0, 79, 0
1, 8992, Note_on_c, 0, 78, 69
1, 9007, Note_on_c, 0, 78, 0
1, 9008, Note_on_c, 0, 79, 69
1, 9017, Note_on_c, 1, 52, 0
1, 9021, Note_on_c, 1, 61, 0
1, 9023, Note_on_c, 0, 79, 0
1, 9024, Note_on_c, 0, 78, 69
1, 9024, Note_on_c, 1, 62, 69
1, 9024, Note_on_c, 1, 50, 64
1, 9113, Note_on_c, 0, 78, 0
1, 9113, Note_on_c, 1, 62, 0
1, 9113, Note_on_c, 1, 50, 0
1, 9216, Note_on_c, 0, 66, 69
1, 9216, Note_on_c, 0, 62, 69
1, 9283, Note_on_c, 0, 66, 0
1, 9283, Note_on_c, 0, 62, 0
1, 9288, Note_on_c, 0, 67, 69
1, 9288, Note_on_c, 0, 64, 69
1, 9311, Note_on_c, 0, 67, 0
1, 9311, Note_on_c, 0, 64, 0
1, 9312, Note_on_c, 0, 69, 69
1, 9312, Note_on_c, 0, 66, 69
1, 9357, Note_on_c, 0, 69, 0
1, 9357, Note_on_c, 0, 66, 0
1, 9360, Note_on_c, 0, 67, 69
1, 9360, Note_on_c, 0, 64, 69
1, 9360, Note_on_c, 1, 57, 69
1, 9405, Note_on_c, 0, 67, 0
1, 9405, Note_on_c, 0, 64, 0
1, 9405, Note_on_c, 1, 57, 0
1, 9408, Note_on_c, 0, 66, 69
1, 9408, Note_on_c, 0, 62, 69
1, 9408, Note_on_c, 1, 59, 69
1, 9502, Note_on_c, 0, 66, 0
1, 9502, Note_on_c, 0, 62, 0
1, 9502, Note_on_c, 1, 59, 0
1, 9600, Note_on_c, 0, 62, 69
1, 9600, Note_on_c, 1, 57, 69
1, 9600, Note_on_c, 1, 54, 69
1, 9623, Note_on_c, 0, 62, 0
1, 9624, Note_on_c, 0, 64, 69
1, 9647, Note_on_c, 0, 64, 0
1, 9648, Note_on_c, 0, 66, 69
1, 9671, Note_on_c, 0, 66, 0
1, 9672, Note_on_c, 0, 67, 69
1, 9695, Note_on_c, 0, 67, 0
1, 9696, Note_on_c, 0, 69, 69
1, 9719, Note_on_c, 0, 69, 0
1, 9720, Note_on_c, 0, 71, 69
1, 9743, Note_on_c, 0, 71, 0
1, 9744, Note_on_c, 0, 73, 69
1, 9767, Note_on_c, 0, 73, 0
1, 9768, Note_on_c, 0, 74, 69
1, 9777, Note_on_c, 1, 57, 0
1, 9777, Note_on_c, 1, 54, 0
1, 9791, Note_on_c, 0, 74, 0
1, 9792, Note_on_c, 0, 71, 69
1, 9792, Note_on_c, 1, 55, 69
1, 9815, Note_on_c, 0, 71, 0
1, 9816, Note_on_c, 0, 74, 69
1, 9837, Note_on_c, 1, 55, 0
1, 9839, Note_on_c, 0, 74, 0
1, 9840, Note_on_c, 0, 69, 69
1, 9840, Note_on_c, 1, 54, 69
1, 9863, Note_on_c, 0, 69, 0
1, 9864, Note_on_c, 0, 74, 69
1, 9885, Note_on_c, 1, 54, 0
1, 9887, Note_on_c, 0, 74, 0
1, 9888, Note_on_c, 0, 73, 69
1, 9888, Note_on_c, 1, 52, 69
1, 9911, Note_on_c, 0, 73, 0
1, 9912, Note_on_c, 0, 79, 69
1, 9933, Note_on_c, 1, 52, 0
1, 9935, Note_on_c, 0, 79, 0
1, 9936, Note_on_c, 0, 74, 69
1, 9936, Note_on_c, 1, 50, 69
1, 9959, Note_on_c, 0, 74, 0
1, 9960, Note_on_c, 0, 78, 69
1, 9981, Note_on_c, 1, 50, 0
1, 9983, Note_on_c, 0, 78, 0
1, 9984, Note_on_c, 0, 76, 69
1, 9984, Note_on_c, 0, 73, 69
1, 9984, Note_on_c, 1, 57, 69
1, 10029, Note_on_c, 1, 57, 0
1, 10032, Note_on_c, 1, 52, 69
1, 10073, Note_on_c, 0, 76, 0
1, 10073, Note_on_c, 0, 73, 0
1, 10077, Note_on_c, 1, 52, 0
1, 10080, Note_on_c, 1, 45, 69
1, 10169, Note_on_c, 1, 45, 0
1, 10176, Note_on_c, 0, 76, 69
1, 10176, Note_on_c, 0, 69, 69
1, 10176, Note_on_c, 1, 49, 69
1, 10199, Note_on_c, 1, 49, 0
1, 10200, Note_on_c, 1, 57, 69
1, 10223, Note_on_c, 1, 57, 0
1, 10224, Note_on_c, 1, 56, 69
1, 10243, Note_on_c, 0, 76, 0
1, 10247, Note_on_c, 1, 56, 0
1, 10248, Note_on_c, 0, 78, 69
1, 10248, Note_on_c, 1, 57, 69
1, 10271, Note_on_c, 0, 78, 0
1, 10271, Note_on_c, 1, 57, 0
1, 10272, Note_on_c, 0, 79, 70
1, 10272, Note_on_c, 1, 49, 70
1, 10295, Note_on_c, 1, 49, 0
1, 10296, Note_on_c, 1, 57, 70
1, 10309, Note_on_c, 0, 69, 0
1, 10317, Note_on_c, 0, 79, 0
1, 10319, Note_on_c, 1, 57, 0
1, 10320, Note_on_c, 0, 79, 70
1, 10320, Note_on_c, 0, 76, 70
1, 10320, Note_on_c, 1, 56, 70
1, 10343, Note_on_c, 1, 56, 0
1, 10344, Note_on_c, 1, 57, 70
1, 10365, Note_on_c, 0, 79, 0
1, 10365, Note_on_c, 0, 76, 0
1, 10367, Note_on_c, 1, 57, 0
1, 10368, Note_on_c, 0, 78, 71
1, 10368, Note_on_c, 0, 74, 71
1, 10368, Note_on_c, 1, 50, 71
1, 10391, Note_on_c, 1, 50, 0
1, 10392, Note_on_c, 1, 57, 71
1, 10413, Note_on_c, 0, 78, 0
1, 10413, Note_on_c, 0, 74, 0
1, 10415, Note_on_c, 1, 57, 0
1, 10416, Note_on_c, 1, 56, 71
1, 10439, Note_on_c, 1, 56, 0
1, 10440, Note_on_c, 1, 57, 72
1, 10463, Note_on_c, 1, 57, 0
1, 10464, Note_on_c, 1, 50, 72
1, 10487, Note_on_c, 1, 50, 0
1, 10488, Note_on_c, 1, 57, 72
1, 10511, Note_on_c, 1, 57, 0
1, 10512, Note_on_c, 1, 56, 72
1, 10535, Note_on_c, 1, 56, 0
1, 10536, Note_on_c, 1, 57, 73
1, 10559, Note_on_c, 1, 57, 0
1, 10560, Note_on_c, 0, 78, 73
1, 10560, Note_on_c, 0, 71, 73
1, 10560, Note_on_c, 1, 51, 73
1, 10583, Note_on_c, 1, 51, 0
1, 10584, Note_on_c, 1, 59, 73
1, 10607, Note_on_c, 1, 59, 0
1, 10608, Note_on_c, 1, 58, 74
1, 10627, Note_on_c, 0, 78, 0
1, 10631, Note_on_c, 1, 58, 0
1, 10632, Note_on_c, 0, 80, 74
1, 10632, Note_on_c, 1, 59, 74
1, 10655, Note_on_c, 0, 80, 0
1, 10655, Note_on_c, 1, 59, 0
1, 10656, Note_on_c, 0, 81, 74
1, 10656, Note_on_c, 1, 51, 74
1, 10679, Note_on_c, 1, 51, 0
1, 10680, Note_on_c, 1, 59, 74
1, 10693, Note_on_c, 0, 71, 0
1, 10701, Note_on_c, 0, 81, 0
1, 10703, Note_on_c, 1, 59, 0
1, 10704, Note_on_c, 0, 81, 74
1, 10704, Note_on_c, 0, 78, 74
1, 10704, Note_on_c, 1, 58, 75
1, 10727, Note_on_c, 1, 58, 0
1, 10728, Note_on_c, 1, 59, 75
1, 10749, Note_on_c, 0, 81, 0
1, 10749, Note_on_c, 0, 78, 0
1, 10751, Note_on_c, 1, 59, 0
1, 10752, Note_on_c, 0, 80, 75
1, 10752, Note_on_c, 0, 76, 75
1, 10752, Note_on_c, 1, 52, 75
1, 10775, Note_on_c, 1, 52, 0
1, 10776, Note_on_c, 1, 59, 76
1, 10797, Note_on_c, 0, 80, 0
1, 10797, Note_on_c, 0, 76, 0
1, 10799, Note_on_c, 1, 59, 0
1, 10800, Note_on_c, 1, 58, 76
1, 10823, Note_on_c, 1, 58, 0
1, 10824, Note_on_c, 1, 59, 76
1, 10847, Note_on_c, 1, 59, 0
1, 10848, Note_on_c, 1, 52, 76
1, 10871, Note_on_c, 1, 52, 0
1, 10872, Note_on_c, 1, 59, 76
1, 10895, Note_on_c, 1, 59, 0
1, 10896, Note_on_c, 1, 58, 76
1, 10919, Note_on_c, 1, 58, 0
1, 10920, Note_on_c, 1, 59, 76
1, 10943, Note_on_c, 1, 59, 0
1, 10944, Note_on_c, 1, 56, 76
1, 10944, Note_on_c, 1, 52, 76
1, 10968, Note_on_c, 0, 83, 76
1, 10989, Note_on_c, 1, 56, 0
1, 10989, Note_on_c, 1, 52, 0
1, 10991, Note_on_c, 0, 83, 0
1, 10992, Note_on_c, 0, 81, 76
1, 11015, Note_on_c, 0, 81, 0
1, 11016, Note_on_c, 0, 80, 76
1, 11039, Note_on_c, 0, 80, 0
1, 11040, Note_on_c, 0, 78, 76
1, 11063, Note_on_c, 0, 78, 0
1, 11064, Note_on_c, 0, 76, 76
1, 11087, Note_on_c, 0, 76, 0
1, 11088, Note_on_c, 0, 75, 76
1, 11111, Note_on_c, 0, 75, 0
1, 11112, Note_on_c, 0, 76, 76
1, 11135, Note_on_c, 0, 76, 0
1, 11136, Note_on_c, 1, 69, 76
1, 11136, Note_on_c, 1, 66, 76
1, 11160, Note_on_c, 0, 83, 76
1, 11181, Note_on_c, 1, 69, 0
1, 11181, Note_on_c, 1, 66, 0
1, 11183, Note_on_c, 0, 83, 0
1, 11184, Note_on_c, 0, 81, 76
1, 11207, Note_on_c, 0, 81, 0
1, 11208, Note_on_c, 0, 80, 76
1, 11231, Note_on_c, 0, 80, 0
1, 11232, Note_on_c, 0, 78, 76
1, 11255, Note_on_c, 0, 78, 0
1, 11256, Note_on_c, 0, 76, 76
1, 11279, Note_on_c, 0, 76, 0
1, 11280, Note_on_c, 0, 75, 76
1, 11303, Note_on_c, 0, 75, 0
1, 11304, Note_on_c, 0, 76, 76
1, 11327, Note_on_c, 0, 76, 0
1, 11328, Note_on_c, 1, 71, 76
1, 11328, Note_on_c, 1, 68, 76
1, 11352, Note_on_c, 0, 86, 76
1, 11375, Note_on_c, 0, 86, 0
1, 11376, Note_on_c, 0, 85, 76
1, 11399, Note_on_c, 0, 85, 0
1, 11400, Note_on_c, 0, 83, 76
1, 11423, Note_on_c, 0, 83, 0
1, 11424, Note_on_c, 0, 81, 76
1, 11447, Note_on_c, 0, 81, 0
1, 11448, Note_on_c, 0, 80, 76
1, 11471, Note_on_c, 0, 80, 0
1, 11472, Note_on_c, 0, 78, 76
1, 11495, Note_on_c, 0, 78, 0
1, 11496, Note_on_c, 0, 76, 76
1, 11505, Note_on_c, 1, 71, 0
1, 11505, Note_on_c, 1, 68, 0
1, 11519, Note_on_c, 0, 76, 0
1, 11520, Note_on_c, 0, 74, 76
1, 11544, Note_on_c, 1, 57, 76
1, 11567, Note_on_c, 1, 57, 0
1, 11568, Note_on_c, 1, 61, 76
1, 11591, Note_on_c, 1, 61, 0
1, 11592, Note_on_c, 1, 64, 76
1, 11615, Note_on_c, 1, 64, 0
1, 11616, Note_on_c, 0, 74, 0
1, 11616, Note_on_c, 0, 73, 76
1, 11616, Note_on_c, 1, 69, 76
1, 11661, Note_on_c, 1, 69, 0
1, 11664, Note_on_c, 1, 57, 76
1, 11705, Note_on_c, 0, 73, 0
1, 11709, Note_on_c, 1, 57, 0
1, 11712, Note_on_c, 1, 69, 76
1, 11712, Note_on_c, 1, 62, 64
1, 11736, Note_on_c, 0, 78, 76
1, 11759, Note_on_c, 0, 78, 0
1, 11760, Note_on_c, 0, 80, 76
1, 11783, Note_on_c, 0, 80, 0
1, 11784, Note_on_c, 0, 81, 76
1, 11801, Note_on_c, 1, 69, 0
1, 11801, Note_on_c, 1, 62, 0
1, 11807, Note_on_c, 0, 81, 0
1, 11808, Note_on_c, 1, 69, 76
1, 11808, Note_on_c, 1, 61, 64
1, 11832, Note_on_c, 0, 76, 76
1, 11855, Note_on_c, 0, 76, 0
1, 11856, Note_on_c, 0, 80, 76
1, 11879, Note_on_c, 0, 80, 0
1, 11880, Note_on_c, 0, 81, 76
1, 11897, Note_on_c, 1, 61, 0
1, 11903, Note_on_c, 0, 81, 0
1, 11904, Note_on_c, 0, 74, 76
1, 11904, Note_on_c, 1, 59, 64
1, 11927, Note_on_c, 0, 74, 0
1, 11928, Note_on_c, 0, 78, 76
1, 11949, Note_on_c, 1, 69, 0
1, 11951, Note_on_c, 0, 78, 0
1, 11952, Note_on_c, 0, 76, 76
1, 11952, Note_on_c, 1, 68, 76
1, 11975, Note_on_c, 0, 76, 0
1, 11976, Note_on_c, 0, 74, 76
1, 11993, Note_on_c, 1, 59, 0
1, 11997, Note_on_c, 1, 68, 0
1, 11999, Note_on_c, 0, 74, 0
1, 12000, Note_on_c, 0, 74, 76
1, 12000, Note_on_c, 1, 69, 76
1, 12000, Note_on_c, 1, 57, 64
1, 12023, Note_on_c, 0, 74, 0
1, 12024, Note_on_c, 0, 73, 76
1, 12045, Note_on_c, 1, 69, 0
1, 12045, Note_on_c, 1, 57, 0
1, 12047, Note_on_c, 0, 73, 0
1, 12048, Note_on_c, 0, 71, 76
1, 12071, Note_on_c, 0, 71, 0
1, 12072, Note_on_c, 0, 69, 76
1, 12095, Note_on_c, 0, 69, 0
1, 12096, Note_on_c, 1, 69, 61
1, 12096, Note_on_c, 1, 62, 61
1, 12120, Note_on_c, 0, 78, 61
1, 12143, Note_on_c, 0, 78, 0
1, 12144, Note_on_c, 0, 80, 61
1, 12167, Note_on_c, 0, 80, 0
1, 12168, Note_on_c, 0, 81, 61
1, 12185, Note_on_c, 1, 69, 0
1, 12185, Note_on_c, 1, 62, 0
1, 12191, Note_on_c, 0, 81, 0
1, 12192, Note_on_c, 1, 69, 61
1, 12192, Note_on_c, 1, 61, 61
1, 12216, Note_on_c, 0, 76, 61
1, 12239, Note_on_c, 0, 76, 0
1, 12240, Note_on_c, 0, 80, 61
1, 12263, Note_on_c, 0, 80, 0
1, 12264, Note_on_c, 0, 81, 61
1, 12281, Note_on_c, 1, 61, 0
1, 12287, Note_on_c, 0, 81, 0
1, 12288, Note_on_c, 0, 74, 61
1, 12288, Note_on_c, 1, 59, 61
1, 12311, Note_on_c, 0, 74, 0
1, 12312, Note_on_c, 0, 78, 61
1, 12333, Note_on_c, 1, 69, 0
1, 12335, Note_on_c, 0, 78, 0
1, 12336, Note_on_c, 0, 76, 61
1, 12336, Note_on_c, 1, 68, 61
1, 12359, Note_on_c, 0, 76, 0
1, 12360, Note_on_c, 0, 74, 61
1, 12377, Note_on_c, 1, 59, 0
1, 12381, Note_on_c, 1, 68, 0
1, 12383, Note_on_c, 0, 74, 0
1, 12384, Note_on_c, 0, 74, 61
1, 12384, Note_on_c, 1, 69, 61
1, 12384, Note_on_c, 1, 57, 61
1, 12407, Note_on_c, 0, 74, 0
1, 12408, Note_on_c, 0, 73, 68
1, 12429, Note_on_c, 1, 69, 0
1, 12429, Note_on_c, 1, 57, 0
1, 12431, Note_on_c, 0, 73, 0
1, 12432, Note_on_c, 0, 71, 75
1, 12455, Note_on_c, 0, 71, 0
1, 12456, Note_on_c, 0, 69, 82
1, 12479, Note_on_c, 0, 69, 0
1, 12480, Note_on_c, 1, 65, 89
1, 12480, Note_on_c, 1, 53, 89
1, 12504, Note_on_c, 0, 69, 89
1, 12527, Note_on_c, 0, 69, 0
1, 12528, Note_on_c, 0, 75, 89
1, 12551, Note_on_c, 0, 75, 0
1, 12552, Note_on_c, 0, 69, 89
1, 12575, Note_on_c, 0, 69, 0
1, 12576, Note_on_c, 0, 81, 89
1, 12599, Note_on_c, 0, 81, 0
1, 12600, Note_on_c, 0, 69, 89
1, 12623, Note_on_c, 0, 69, 0
1, 12624, Note_on_c, 0, 75, 89
1, 12647, Note_on_c, 0, 75, 0
1, 12648, Note_on_c, 0, 69, 89
1, 12657, Note_on_c, 1, 65, 0
1, 12657, Note_on_c, 1, 53, 0
1, 12671, Note_on_c, 0, 69, 0
1, 12672, Note_on_c, 1, 66, 89
1, 12672, Note_on_c, 1, 54, 89
1, 12696, Note_on_c, 0, 69, 89
1, 12719, Note_on_c, 0, 69, 0
1, 12720, Note_on_c, 0, 75, 89
1, 12743, Note_on_c, 0, 75, 0
1, 12744, Note_on_c, 0, 69, 89
1, 12767, Note_on_c, 0, 69, 0
1, 12768, Note_on_c, 0, 81, 89
1, 12791, Note_on_c, 0, 81, 0
1, 12792, Note_on_c, 0, 69, 89
1, 12815, Note_on_c, 0, 69, 0
1, 12816, Note_on_c, 0, 75, 89
1, 12839, Note_on_c, 0, 75, 0
1, 12840, Note_on_c, 0, 69, 89
1, 12849, Note_on_c, 1, 66, 0
1, 12849, Note_on_c, 1, 54, 0
1, 12863, Note_on_c, 0, 69, 0
1, 12864, Note_on_c, 1, 63, 89
1, 12864, Note_on_c, 1, 51, 89
1, 12888, Note_on_c, 0, 71, 89
1, 12911, Note_on_c, 0, 71, 0
1, 12912, Note_on_c, 0, 78, 89
1, 12935, Note_on_c, 0, 78, 0
1, 12936, Note_on_c, 0, 71, 89
1, 12959, Note_on_c, 0, 71, 0
1, 12960, Note_on_c, 0, 81, 89
1, 12983, Note_on_c, 0, 81, 0
1, 12984, Note_on_c, 0, 71, 89
1, 13007, Note_on_c, 0, 71, 0
1, 13008, Note_on_c, 0, 78, 89
1, 13031, Note_on_c, 0, 78, 0
1, 13032, Note_on_c, 0, 71, 89
1, 13041, Note_on_c, 1, 63, 0
1, 13041, Note_on_c, 1, 51, 0
1, 13055, Note_on_c, 0, 71, 0
1, 13056, Note_on_c, 1, 68, 89
1, 13056, Note_on_c, 1, 56, 89
1, 13080, Note_on_c, 0, 74, 89
1, 13103, Note_on_c, 0, 74, 0
1, 13104, Note_on_c, 0, 76, 89
1, 13127, Note_on_c, 0, 76, 0
1, 13128, Note_on_c, 0, 74, 89
1, 13151, Note_on_c, 0, 74, 0
1, 13152, Note_on_c, 0, 83, 89
1, 13175, Note_on_c, 0, 83, 0
1, 13176, Note_on_c, 0, 74, 89
1, 13199, Note_on_c, 0, 74, 0
1, 13200, Note_on_c, 0, 76, 89
1, 13223, Note_on_c, 0, 76, 0
1, 13224, Note_on_c, 0, 74, 89
1, 13233, Note_on_c, 1, 68, 0
1, 13233, Note_on_c, 1, 56, 0
1, 13247, Note_on_c, 0, 74, 0
1, 13248, Note_on_c, 1, 65, 89
1, 13248, Note_on_c, 1, 53, 89
1, 13272, Note_on_c, 0, 74, 89
1, 13295, Note_on_c, 0, 74, 0
1, 13296, Note_on_c, 0, 80, 89
1, 13319, Note_on_c, 0, 80, 0
1, 13320, Note_on_c, 0, 74, 89
1, 13343, Note_on_c, 0, 74, 0
1, 13344, Note_on_c, 0, 83, 89
1, 13367, Note_on_c, 0, 83, 0
1, 13368, Note_on_c, 0, 74, 89
1, 13391, Note_on_c, 0, 74, 0
1, 13392, Note_on_c, 0, 80, 89
1, 13415, Note_on_c, 0, 80, 0
1, 13416, Note_on_c, 0, 74, 89
1, 13425, Note_on_c, 1, 65, 0
1, 13425, Note_on_c, 1, 53, 0
1, 13439, Note_on_c, 0, 74, 0
1, 13440, Note_on_c, 1, 66, 89
1, 13440, Note_on_c, 1, 54, 89
1, 13464, Note_on_c, 0, 73, 89
1, 13487, Note_on_c, 0, 73, 0
1, 13488, Note_on_c, 0, 81, 89
1, 13511, Note_on_c, 0, 81, 0
1, 13512, Note_on_c, 0, 73, 89
1, 13529, Note_on_c, 1, 66, 0
1, 13529, Note_on_c, 1, 54, 0
1, 13535, Note_on_c, 0, 73, 0
1, 13536, Note_on_c, 1, 63, 89
1, 13536, Note_on_c, 1, 51, 89
1, 13560, Note_on_c, 0, 71, 89
1, 13583, Note_on_c, 0, 71, 0
1, 13584, Note_on_c, 0, 81, 89
1, 13607, Note_on_c, 0, 81, 0
1, 13608, Note_on_c, 0, 71, 89
1, 13625, Note_on_c, 1, 63, 0
1, 13625, Note_on_c, 1, 51, 0
1, 13631, Note_on_c, 0, 71, 0
1, 13632, Note_on_c, 1, 64, 89
1, 13632, Note_on_c, 1, 52, 89
1, 13656, Note_on_c, 0, 71, 89
1, 13679, Note_on_c, 0, 71, 0
1, 13680, Note_on_c, 0, 80, 89
1, 13703, Note_on_c, 0, 80, 0
1, 13704, Note_on_c, 0, 71, 89
1, 13721, Note_on_c, 1, 64, 0
1, 13721, Note_on_c, 1, 52, 0
1, 13727, Note_on_c, 0, 71, 0
1, 13728, Note_on_c, 1, 68, 89
1, 13728, Note_on_c, 1, 56, 89
1, 13752, Note_on_c, 0, 74, 89
1, 13775, Note_on_c, 0, 74, 0
1, 13776, Note_on_c, 0, 83, 89
1, 13799, Note_on_c, 0, 83, 0
1, 13800, Note_on_c, 0, 74, 89
1, 13817, Note_on_c, 1, 68, 0
1, 13817, Note_on_c, 1, 56, 0
1, 13823, Note_on_c, 0, 74, 0
1, 13824, Note_on_c, 1, 69, 89
1, 13824, Note_on_c, 1, 57, 89
1, 13848, Note_on_c, 0, 73, 89
1, 13871, Note_on_c, 0, 73, 0
1, 13872, Note_on_c, 0, 81, 89
1, 13895, Note_on_c, 0, 81, 0
1, 13896, Note_on_c, 0, 73, 89
1, 13913, Note_on_c, 1, 69, 0
1, 13913, Note_on_c, 1, 57, 0
1, 13919, Note_on_c, 0, 73, 0
1, 13920, Note_on_c, 1, 63, 89
1, 13920, Note_on_c, 1, 51, 89
1, 13944, Note_on_c, 0, 73, 89
1, 13967, Note_on_c, 0, 73, 0
1, 13968, Note_on_c, 0, 81, 89
1, 13991, Note_on_c, 0, 81, 0
1, 13992, Note_on_c, 0, 73, 89
1, 14009, Note_on_c, 1, 63, 0
1, 14009, Note_on_c, 1, 51, 0
1, 14015, Note_on_c, 0, 73, 0
1, 14016, Note_on_c, 0, 80, 89
1, 14016, Note_on_c, 0, 71, 89
1, 14016, Note_on_c, 1, 64, 89
1, 14016, Note_on_c, 1, 52, 89
1, 14105, Note_on_c, 0, 80, 0
1, 14105, Note_on_c, 0, 71, 0
1, 14105, Note_on_c, 1, 64, 0
1, 14105, Note_on_c, 1, 52, 0
1, 14208, Note_on_c, 0, 73, 69
1, 14208, Note_on_c, 0, 69, 69
1, 14275, Note_on_c, 0, 73, 0
1, 14275, Note_on_c, 0, 69, 0
1, 14280, Note_on_c, 0, 74, 69
1, 14280, Note_on_c, 0, 71, 69
1, 14303, Note_on_c, 0, 74, 0
1, 14303, Note_on_c, 0, 71, 0
1, 14304, Note_on_c, 0, 76, 69
1, 14304, Note_on_c, 0, 73, 69
1, 14349, Note_on_c, 0, 76, 0
1, 14349, Note_on_c, 0, 73, 0
1, 14352, Note_on_c, 0, 74, 69
1, 14352, Note_on_c, 0, 71, 69
1, 14352, Note_on_c, 1, 64, 69
1, 14397, Note_on_c, 0, 74, 0
1, 14397, Note_on_c, 0, 71, 0
1, 14397, Note_on_c, 1, 64, 0
1, 14400, Note_on_c, 0, 73, 69
1, 14400, Note_on_c, 0, 69, 69
1, 14400, Note_on_c, 1, 66, 69
1, 14494, Note_on_c, 0, 73, 0
1, 14494, Note_on_c, 0, 69, 0
1, 14494, Note_on_c, 1, 66, 0
1, 14592, Note_on_c, 0, 73, 61
1, 14592, Note_on_c, 0, 69, 61
1, 14659, Note_on_c, 0, 73, 0
1, 14659, Note_on_c, 0, 69, 0
1, 14664, Note_on_c, 0, 74, 61
1, 14664, Note_on_c, 0, 71, 61
1, 14687, Note_on_c, 0, 74, 0
1, 14687, Note_on_c, 0, 71, 0
1, 14688, Note_on_c, 0, 76, 61
1, 14688, Note_on_c, 0, 73, 61
1, 14733, Note_on_c, 0, 76, 0
1, 14733, Note_on_c, 0, 73, 0
1, 14736, Note_on_c, 0, 74, 61
1, 14736, Note_on_c, 0, 71, 61
1, 14736, Note_on_c, 1, 64, 61
1, 14781, Note_on_c, 0, 74, 0
1, 14781, Note_on_c, 0, 71, 0
1, 14781, Note_on_c, 1, 64, 0
1, 14784, Note_on_c, 0, 73, 61
1, 14784, Note_on_c, 0, 69, 61
1, 14784, Note_on_c, 1, 66, 61
1, 14878, Note_on_c, 0, 73, 0
1, 14878, Note_on_c, 0, 69, 0
1, 14878, Note_on_c, 1, 66, 0
1, 14976, Note_on_c, 0, 73, 69
1, 14976, Note_on_c, 0, 69, 69
1, 15043, Note_on_c, 0, 73, 0
1, 15043, Note_on_c, 0, 69, 0
1, 15048, Note_on_c, 0, 74, 69
1, 15048, Note_on_c, 0, 71, 69
1, 15071, Note_on_c, 0, 74, 0
1, 15071, Note_on_c, 0, 71, 0
1, 15072, Note_on_c, 0, 76, 69
1, 15072, Note_on_c, 0, 73, 69
1, 15117, Note_on_c, 0, 76, 0
1, 15117, Note_on_c, 0, 73, 0
1, 15120, Note_on_c, 0, 74, 69
1, 15120, Note_on_c, 0, 71, 69
1, 15120, Note_on_c, 1, 52, 69
1, 15165, Note_on_c, 0, 74, 0
1, 15165, Note_on_c, 0, 71, 0
1, 15165, Note_on_c, 1, 52, 0
1, 15168, Note_on_c, 0, 73, 69
1, 15168, Note_on_c, 0, 69, 69
1, 15168, Note_on_c, 1, 54, 61
1, 15213, Note_on_c, 0, 73, 0
1, 15213, Note_on_c, 0, 69, 0
1, 15213, Note_on_c, 1, 54, 0
1, 15216, Note_on_c, 0, 81, 70
1, 15216, Note_on_c, 1, 57, 69
1, 15216, Note_on_c, 1, 49, 61
1, 15261, Note_on_c, 0, 81, 0
1, 15261, Note_on_c, 1, 57, 0
1, 15261, Note_on_c, 1, 49, 0
1, 15264, Note_on_c, 0, 80, 72
1, 15264, Note_on_c, 1, 57, 69
1, 15264, Note_on_c, 1, 50, 61
1, 15287, Note_on_c, 0, 80, 0
1, 15288, Note_on_c, 0, 78, 72
1, 15311, Note_on_c, 0, 78, 0
1, 15312, Note_on_c, 0, 76, 73
1, 15335, Note_on_c, 0, 76, 0
1, 15336, Note_on_c, 0, 74, 74
1, 15353, Note_on_c, 1, 57, 0
1, 15353, Note_on_c, 1, 50, 0
1, 15359, Note_on_c, 0, 74, 0
1, 15360, Note_on_c, 0, 74, 75
1, 15360, Note_on_c, 1, 57, 69
1, 15360, Note_on_c, 1, 52, 69
1, 15383, Note_on_c, 0, 74, 0
1, 15384, Note_on_c, 0, 73, 76
1, 15407, Note_on_c, 0, 73, 0
1, 15408, Note_on_c, 0, 71, 75
1, 15431, Note_on_c, 0, 71, 0
1, 15432, Note_on_c, 0, 69, 74
1, 15449, Note_on_c, 1, 57, 0
1, 15449, Note_on_c, 1, 52, 0
1, 15455, Note_on_c, 0, 69, 0
1, 15456, Note_on_c, 0, 73, 73
1, 15456, Note_on_c, 1, 56, 69
1, 15456, Note_on_c, 1, 52, 69
1, 15471, Note_on_c, 0, 73, 0
1, 15472, Note_on_c, 0, 71, 72
1, 15487, Note_on_c, 0, 71, 0
1, 15488, Note_on_c, 0, 73, 72
1, 15503, Note_on_c, 0, 73, 0
1, 15504, Note_on_c, 0, 71, 71
1, 15519, Note_on_c, 0, 71, 0
1, 15520, Note_on_c, 0, 69, 71
1, 15535, Note_on_c, 0, 69, 0
1, 15536, Note_on_c, 0, 71, 70
1, 15545, Note_on_c, 1, 56, 0
1, 15545, Note_on_c, 1, 52, 0
1, 15551, Note_on_c, 0, 71, 0
1, 15552, Note_on_c, 0, 69, 69
1, 15552, Note_on_c, 1, 57, 69
1, 15552, Note_on_c, 1, 45, 69
1, 15641, Note_on_c, 0, 69, 0
1, 15641, Note_on_c, 1, 57, 0
1, 15641, Note_on_c, 1, 45, 0
1, 15648, Note_on_c, 0, 76, 76
1, 15671, Note_on_c, 0, 76, 0
1, 15672, Note_on_c, 0, 73, 76
1, 15695, Note_on_c, 0, 73, 0
1, 15696, Note_on_c, 0, 69, 76
1, 15696, Note_on_c, 1, 61, 76
1, 15719, Note_on_c, 0, 69, 0
1, 15720, Note_on_c, 0, 64, 76
1, 15741, Note_on_c, 1, 61, 0
1, 15743, Note_on_c, 0, 64, 0
1, 15744, Note_on_c, 0, 65, 76
1, 15744, Note_on_c, 1, 62, 76
1, 15789, Note_on_c, 1, 62, 0
1, 15792, Note_on_c, 0, 65, 0
1, 15792, Note_on_c, 0, 66, 76
1, 15792, Note_on_c, 1, 50, 76
1, 15837, Note_on_c, 0, 66, 0
1, 15837, Note_on_c, 1, 50, 0
1, 15840, Note_on_c, 0, 74, 76
1, 15863, Note_on_c, 0, 74, 0
1, 15864, Note_on_c, 0, 71, 76
1, 15887, Note_on_c, 0, 71, 0
1, 15888, Note_on_c, 0, 68, 76
1, 15888, Note_on_c, 1, 59, 76
1, 15888, Note_on_c, 1, 52, 76
1, 15911, Note_on_c, 0, 68, 0
1, 15912, Note_on_c, 0, 64, 76
1, 15933, Note_on_c, 1, 59, 0
1, 15933, Note_on_c, 1, 52, 0
1, 15935, Note_on_c, 0, 64, 0
1, 15936, Note_on_c, 0, 68, 76
1, 15936, Note_on_c, 1, 57, 76
1, 15981, Note_on_c, 1, 57, 0
1, 15984, Note_on_c, 0, 68, 0
1, 15984, Note_on_c, 0, 69, 76
1, 15984, Note_on_c, 1, 45, 76
1, 16029, Note_on_c, 0, 69, 0
1, 16029, Note_on_c, 1, 45, 0
1, 16032, Note_on_c, 0, 76, 69
1, 16055, Note_on_c, 0, 76, 0
1, 16056, Note_on_c, 0, 73, 69
1, 16079, Note_on_c, 0, 73, 0
1, 16080, Note_on_c, 0, 69, 69
1, 16080, Note_on_c, 1, 61, 69
1, 16103, Note_on_c, 0, 69, 0
1, 16104, Note_on_c, 0, 64, 69
1, 16125, Note_on_c, 1, 61, 0
1, 16127, Note_on_c, 0, 64, 0
1, 16128, Note_on_c, 0, 65, 69
1, 16128, Note_on_c, 1, 62, 69
1, 16173, Note_on_c, 1, 62, 0
1, 16176, Note_on_c, 0, 65, 0
1, 16176, Note_on_c, 0, 66, 69
1, 16176, Note_on_c, 1, 50, 69
1, 16221, Note_on_c, 0, 66, 0
1, 16221, Note_on_c, 1, 50, 0
1, 16224, Note_on_c, 0, 74, 69
1, 16247, Note_on_c, 0, 74, 0
1, 16248, Note_on_c, 0, 71, 69
1, 16271, Note_on_c, 0, 71, 0
1, 16272, Note_on_c, 0, 68, 69
1, 16272, Note_on_c, 1, 59, 69
1, 16272, Note_on_c, 1, 52, 69
1, 16295, Note_on_c, 0, 68, 0
1, 16296, Note_on_c, 0, 64, 69
1, 16317, Note_on_c, 1, 59, 0
1, 16317, Note_on_c, 1, 52, 0
1, 16319, Note_on_c, 0, 64, 0
1, 16320, Note_on_c, 0, 68, 69
1, 16320, Note_on_c, 1, 57, 69
1, 16365, Note_on_c, 1, 57, 0
1, 16368, Note_on_c, 0, 68, 0
1, 16368, Note_on_c, 0, 69, 65
1, 16368, Note_on_c, 1, 45, 65
1, 16413, Note_on_c, 0, 69, 0
1, 16413, Note_on_c, 1, 45, 0
1, 16512, Note_on_c, 0, 69, 76
1, 16512, Note_on_c, 1, 57, 83
1, 16535, Note_on_c, 0, 69, 0
1, 16536, Note_on_c, 0, 81, 76
1, 16559, Note_on_c, 0, 81, 0
1, 16560, Note_on_c, 0, 69, 76
1, 16560, Note_on_c, 1, 61, 76
1, 16583, Note_on_c, 0, 69, 0
1, 16584, Note_on_c, 0, 81, 76
1, 16605, Note_on_c, 1, 61, 0
1, 16607, Note_on_c, 0, 81, 0
1, 16608, Note_on_c, 0, 69, 76
1, 16608, Note_on_c, 1, 64, 76
1, 16631, Note_on_c, 0, 69, 0
1, 16632, Note_on_c, 0, 81, 76
1, 16653, Note_on_c, 1, 64, 0
1, 16655, Note_on_c, 0, 81, 0
1, 16656, Note_on_c, 0, 69, 76
1, 16656, Note_on_c, 1, 61, 76
1, 16679, Note_on_c, 0, 69, 0
1, 16680, Note_on_c, 0, 81, 76
1, 16689, Note_on_c, 1, 57, 0
1, 16701, Note_on_c, 1, 61, 0
1, 16703, Note_on_c, 0, 81, 0
1, 16704, Note_on_c, 0, 71, 76
1, 16704, Note_on_c, 1, 57, 76
1, 16727, Note_on_c, 0, 71, 0
1, 16728, Note_on_c, 0, 80, 76
1, 16751, Note_on_c, 0, 80, 0
1, 16752, Note_on_c, 0, 71, 76
1, 16752, Note_on_c, 1, 59, 76
1, 16775, Note_on_c, 0, 71, 0
1, 16776, Note_on_c, 0, 80, 76
1, 16797, Note_on_c, 1, 59, 0
1, 16799, Note_on_c, 0, 80, 0
1, 16800, Note_on_c, 0, 71, 76
1, 16800, Note_on_c, 1, 62, 76
1, 16823, Note_on_c, 0, 71, 0
1, 16824, Note_on_c, 0, 80, 77
1, 16845, Note_on_c, 1, 62, 0
1, 16847, Note_on_c, 0, 80, 0
1, 16848, Note_on_c, 0, 71, 77
1, 16848, Note_on_c, 1, 59, 77
1, 16871, Note_on_c, 0, 71, 0
1, 16872, Note_on_c, 0, 80, 77
1, 16881, Note_on_c, 1, 57, 0
1, 16893, Note_on_c, 1, 59, 0
1, 16895, Note_on_c, 0, 80, 0
1, 16896, Note_on_c, 0, 69, 77
1, 16896, Note_on_c, 1, 57, 77
1, 16919, Note_on_c, 0, 69, 0
1, 16920, Note_on_c, 0, 79, 77
1, 16943, Note_on_c, 0, 79, 0
1, 16944, Note_on_c, 0, 69, 78
1, 16944, Note_on_c, 1, 61, 78
1, 16967, Note_on_c, 0, 69, 0
1, 16968, Note_on_c, 0, 79, 78
1, 16989, Note_on_c, 1, 61, 0
1, 16991, Note_on_c, 0, 79, 0
1, 16992, Note_on_c, 0, 69, 78
1, 16992, Note_on_c, 1, 64, 78
1, 17015, Note_on_c, 0, 69, 0
1, 17016, Note_on_c, 0, 79, 78
1, 17037, Note_on_c, 1, 64, 0
1, 17039, Note_on_c, 0, 79, 0
1, 17040, Note_on_c, 0, 69, 79
1, 17040, Note_on_c, 1, 61, 79
1, 17063, Note_on_c, 0, 69, 0
1, 17064, Note_on_c, 0, 79, 79
1, 17073, Note_on_c, 1, 57, 0
1, 17085, Note_on_c, 1, 61, 0
1, 17087, Note_on_c, 0, 79, 0
1, 17088, Note_on_c, 0, 69, 79
1, 17088, Note_on_c, 1, 57, 79
1, 17111, Note_on_c, 0, 69, 0
1, 17112, Note_on_c, 0, 77, 79
1, 17135, Note_on_c, 0, 77, 0
1, 17136, Note_on_c, 0, 69, 79
1, 17136, Note_on_c, 1, 62, 79
1, 17159, Note_on_c, 0, 69, 0
1, 17160, Note_on_c, 0, 77, 80
1, 17181, Note_on_c, 1, 62, 0
1, 17183, Note_on_c, 0, 77, 0
1, 17184, Note_on_c, 0, 69, 80
1, 17184, Note_on_c, 1, 65, 80
1, 17207, Note_on_c, 0, 69, 0
1, 17208, Note_on_c, 0, 77, 80
1, 17229, Note_on_c, 1, 65, 0
1, 17231, Note_on_c, 0, 77, 0
1, 17232, Note_on_c, 0, 69, 80
1, 17232, Note_on_c, 1, 62, 80
1, 17255, Note_on_c, 0, 69, 0
1, 17256, Note_on_c, 0, 77, 81
1, 17265, Note_on_c, 1, 57, 0
1, 17277, Note_on_c, 1, 62, 0
1, 17279, Note_on_c, 0, 77, 0
1, 17280, Note_on_c, 0, 68, 81
1, 17280, Note_on_c, 1, 57, 81
1, 17303, Note_on_c, 0, 68, 0
1, 17304, Note_on_c, 0, 74, 81
1, 17327, Note_on_c, 0, 74, 0
1, 17328, Note_on_c, 0, 68, 81
1, 17328, Note_on_c, 1, 59, 81
1, 17351, Note_on_c, 0, 68, 0
1, 17352, Note_on_c, 0, 74, 81
1, 17373, Note_on_c, 1, 59, 0
1, 17375, Note_on_c, 0, 74, 0
1, 17376, Note_on_c, 0, 68, 82
1, 17376, Note_on_c, 1, 62, 82
1, 17399, Note_on_c, 0, 68, 0
1, 17400, Note_on_c, 0, 74, 82
1, 17421, Note_on_c, 1, 62, 0
1, 17423, Note_on_c, 0, 74, 0
1, 17424, Note_on_c, 0, 68, 82
1, 17424, Note_on_c, 1, 59, 82
1, 17447, Note_on_c, 0, 68, 0
1, 17448, Note_on_c, 0, 74, 82
1, 17457, Note_on_c, 1, 57, 0
1, 17469, Note_on_c, 1, 59, 0
1, 17471, Note_on_c, 0, 74, 0
1, 17472, Note_on_c, 0, 69, 83
1, 17472, Note_on_c, 1, 61, 83
1, 17472, Note_on_c, 1, 57, 83
1, 17561, Note_on_c, 0, 69, 0
1, 17561, Note_on_c, 1, 61, 0
1, 17561, Note_on_c, 1, 57, 0
1, 17664, Note_on_c, 0, 77, 69
1, 17664, Note_on_c, 0, 74, 69
1, 17731, Note_on_c, 0, 77, 0
1, 17731, Note_on_c, 0, 74, 0
1, 17736, Note_on_c, 0, 79, 69
1, 17736, Note_on_c, 0, 76, 69
1, 17759, Note_on_c, 0, 79, 0
1, 17759, Note_on_c, 0, 76, 0
1, 17760, Note_on_c, 0, 81, 69
1, 17760, Note_on_c, 0, 77, 69
1, 17805, Note_on_c, 0, 81, 0
1, 17805, Note_on_c, 0, 77, 0
1, 17808, Note_on_c, 0, 79, 69
1, 17808, Note_on_c, 0, 76, 69
1, 17808, Note_on_c, 1, 57, 69
1, 17853, Note_on_c, 0, 79, 0
1, 17853, Note_on_c, 0, 76, 0
1, 17853, Note_on_c, 1, 57, 0
1, 17856, Note_on_c, 0, 77, 69
1, 17856, Note_on_c, 0, 74, 69
1, 17856, Note_on_c, 1, 58, 69
1, 17950, Note_on_c, 0, 77, 0
1, 17950, Note_on_c, 0, 74, 0
1, 17950, Note_on_c, 1, 58, 0
1, 18048, Note_on_c, 0, 77, 61
1, 18048, Note_on_c, 0, 74, 61
1, 18115, Note_on_c, 0, 77, 0
1, 18115, Note_on_c, 0, 74, 0
1, 18120, Note_on_c, 0, 79, 61
1, 18120, Note_on_c, 0, 76, 61
1, 18143, Note_on_c, 0, 79, 0
1, 18143, Note_on_c, 0, 76, 0
1, 18144, Note_on_c, 0, 81, 61
1, 18144, Note_on_c, 0, 77, 61
1, 18189, Note_on_c, 0, 81, 0
1, 18189, Note_on_c, 0, 77, 0
1, 18192, Note_on_c, 0, 79, 61
1, 18192, Note_on_c, 0, 76, 61
1, 18192, Note_on_c, 1, 57, 61
1, 18237, Note_on_c, 0, 79, 0
1, 18237, Note_on_c, 0, 76, 0
1, 18237, Note_on_c, 1, 57, 0
1, 18240, Note_on_c, 0, 77, 61
1, 18240, Note_on_c, 0, 74, 61
1, 18240, Note_on_c, 1, 58, 61
1, 18334, Note_on_c, 0, 77, 0
1, 18334, Note_on_c, 0, 74, 0
1, 18334, Note_on_c, 1, 58, 0
1, 18432, Note_on_c, 0, 76, 85
1, 18432, Note_on_c, 1, 64, 85
1, 18432, Note_on_c, 1, 58, 85
1, 18432, Note_on_c, 1, 55, 85
1, 18576, Note_on_c, 0, 76, 0
1, 18576, Note_on_c, 0, 79, 69
1, 18591, Note_on_c, 0, 79, 0
1, 18592, Note_on_c, 0, 81, 69
1, 18607, Note_on_c, 0, 81, 0
1, 18608, Note_on_c, 0, 82, 69
1, 18623, Note_on_c, 0, 82, 0
1, 18624, Note_on_c, 0, 81, 69
1, 18624, Note_on_c, 1, 64, 0
1, 18624, Note_on_c, 1, 58, 0
1, 18624, Note_on_c, 1, 55, 0
1, 18624, Note_on_c, 1, 62, 69
1, 18624, Note_on_c, 1, 53, 69
1, 18669, Note_on_c, 0, 81, 0
1, 18672, Note_on_c, 0, 74, 69
1, 18713, Note_on_c, 1, 62, 0
1, 18713, Note_on_c, 1, 53, 0
1, 18717, Note_on_c, 0, 74, 0
1, 18720, Note_on_c, 0, 77, 69
1, 18720, Note_on_c, 1, 55, 69
1, 18743, Note_on_c, 0, 77, 0
1, 18744, Note_on_c, 0, 76, 69
1, 18765, Note_on_c, 1, 55, 0
1, 18767, Note_on_c, 0, 76, 0
1, 18768, Note_on_c, 0, 74, 69
1, 18768, Note_on_c, 1, 57, 69
1, 18791, Note_on_c, 0, 74, 0
1, 18792, Note_on_c, 0, 73, 69
1, 18813, Note_on_c, 1, 57, 0
1, 18815, Note_on_c, 0, 73, 0
1, 18816, Note_on_c, 0, 74, 69
1, 18816, Note_on_c, 1, 53, 69
1, 18861, Note_on_c, 0, 74, 0
1, 18864, Note_on_c, 0, 69, 69
1, 18905, Note_on_c, 1, 53, 0
1, 18909, Note_on_c, 0, 69, 0
1, 18912, Note_on_c, 0, 70, 69
1, 18960, Note_on_c, 1, 65, 69
1, 18960, Note_on_c, 1, 62, 69
1, 19008, Note_on_c, 1, 65, 0
1, 19008, Note_on_c, 1, 62, 0
1, 19008, Note_on_c, 1, 64, 69
1, 19008, Note_on_c, 1, 61, 69
1, 19053, Note_on_c, 0, 70, 0
1, 19056, Note_on_c, 0, 68, 69
1, 19101, Note_on_c, 0, 68, 0
1, 19104, Note_on_c, 0, 69, 69
1, 19141, Note_on_c, 1, 64, 0
1, 19141, Note_on_c, 1, 61, 0
1, 19152, Note_on_c, 1, 65, 69
1, 19152, Note_on_c, 1, 62, 69
1, 19200, Note_on_c, 1, 65, 0
1, 19200, Note_on_c, 1, 62, 0
1, 19200, Note_on_c, 1, 64, 69
1, 19200, Note_on_c, 1, 61, 69
1, 19245, Note_on_c, 0, 69, 0
1, 19248, Note_on_c, 0, 70, 69
1, 19293, Note_on_c, 0, 70, 0
1, 19296, Note_on_c, 0, 69, 69
1, 19333, Note_on_c, 1, 64, 0
1, 19333, Note_on_c, 1, 61, 0
1, 19344, Note_on_c, 1, 65, 69
1, 19344, Note_on_c, 1, 62, 69
1, 19392, Note_on_c, 1, 65, 0
1, 19392, Note_on_c, 1, 62, 0
1, 19392, Note_on_c, 1, 64, 69
1, 19392, Note_on_c, 1, 61, 69
1, 19437, Note_on_c, 0, 69, 0
1, 19437, Note_on_c, 1, 64, 0
1, 19437, Note_on_c, 1, 61, 0
1, 19440, Note_on_c, 0, 70, 69
1, 19440, Note_on_c, 1, 65, 69
1, 19440, Note_on_c, 1, 62, 69
1, 19488, Note_on_c, 0, 70, 0
1, 19488, Note_on_c, 0, 69, 69
1, 19488, Note_on_c, 1, 65, 0
1, 19488, Note_on_c, 1, 62, 0
1, 19488, Note_on_c, 1, 64, 69
1, 19488, Note_on_c, 1, 61, 69
1, 19533, Note_on_c, 0, 69, 0
1, 19533, Note_on_c, 1, 64, 0
1, 19533, Note_on_c, 1, 61, 0
1, 19536, Note_on_c, 0, 70, 69
1, 19536, Note_on_c, 1, 65, 69
1, 19536, Note_on_c, 1, 62, 69
1, 19584, Note_on_c, 0, 70, 0
1, 19584, Note_on_c, 0, 69, 69
1, 19584, Note_on_c, 1, 65, 0
1, 19584, Note_on_c, 1, 62, 0
1, 19584, Note_on_c, 1, 64, 69
1, 19584, Note_on_c, 1, 61, 69
1, 19629, Note_on_c, 0, 69, 0
1, 19632, Note_on_c, 0, 76, 69
1, 19655, Note_on_c, 0, 76, 0
1, 19656, Note_on_c, 0, 77, 69
1, 19673, Note_on_c, 1, 64, 0
1, 19673, Note_on_c, 1, 61, 0
1, 19679, Note_on_c, 0, 77, 0
1, 19680, Note_on_c, 0, 81, 69
1, 19703, Note_on_c, 0, 81, 0
1, 19704, Note_on_c, 0, 79, 69
1, 19727, Note_on_c, 0, 79, 0
1, 19728, Note_on_c, 0, 77, 69
1, 19751, Note_on_c, 0, 77, 0
1, 19752, Note_on_c, 0, 76, 69
1, 19775, Note_on_c, 0, 76, 0
1, 19776, Note_on_c, 0, 77, 69
1, 19776, Note_on_c, 1, 62, 69
1, 19821, Note_on_c, 0, 77, 0
1, 19824, Note_on_c, 0, 74, 69
1, 19865, Note_on_c, 1, 62, 0
1, 19869, Note_on_c, 0, 74, 0
1, 19872, Note_on_c, 0, 75, 69
1, 19920, Note_on_c, 1, 70, 69
1, 19920, Note_on_c, 1, 67, 69
1, 19968, Note_on_c, 1, 70, 0
1, 19968, Note_on_c, 1, 67, 0
1, 19968, Note_on_c, 1, 69, 69
1, 19968, Note_on_c, 1, 66, 69
1, 20013, Note_on_c, 0, 75, 0
1, 20016, Note_on_c, 0, 73, 69
1, 20061, Note_on_c, 0, 73, 0
1, 20064, Note_on_c, 0, 74, 69
1, 20101, Note_on_c, 1, 69, 0
1, 20101, Note_on_c, 1, 66, 0
1, 20112, Note_on_c, 1, 70, 69
1, 20112, Note_on_c, 1, 67, 69
1, 20160, Note_on_c, 1, 70, 0
1, 20160, Note_on_c, 1, 67, 0
1, 20160, Note_on_c, 1, 69, 69
1, 20160, Note_on_c, 1, 66, 69
1, 20205, Note_on_c, 0, 74, 0
1, 20208, Note_on_c, 0, 75, 69
1, 20253, Note_on_c, 0, 75, 0
1, 20256, Note_on_c, 0, 74, 69
1, 20293, Note_on_c, 1, 69, 0
1, 20293, Note_on_c, 1, 66, 0
1, 20304, Note_on_c, 1, 70, 69
1, 20304, Note_on_c, 1, 67, 69
1, 20352, Note_on_c, 1, 70, 0
1, 20352, Note_on_c, 1, 67, 0
1, 20352, Note_on_c, 1, 69, 69
1, 20352, Note_on_c, 1, 66, 69
1, 20397, Note_on_c, 0, 74, 0
1, 20397, Note_on_c, 1, 69, 0
1, 20397, Note_on_c, 1, 66, 0
1, 20400, Note_on_c, 0, 75, 69
1, 20400, Note_on_c, 1, 70, 69
1, 20400, Note_on_c, 1, 67, 69
1, 20448, Note_on_c, 0, 75, 0
1, 20448, Note_on_c, 0, 74, 69
1, 20448, Note_on_c, 1, 70, 0
1, 20448, Note_on_c, 1, 67, 0
1, 20448, Note_on_c, 1, 69, 69
1, 20448, Note_on_c, 1, 66, 69
1, 20493, Note_on_c, 0, 74, 0
1, 20493, Note_on_c, 1, 69, 0
1, 20493, Note_on_c, 1, 66, 0
1, 20496, Note_on_c, 0, 75, 69
1, 20496, Note_on_c, 1, 70, 69
1, 20496, Note_on_c, 1, 67, 69
1, 20544, Note_on_c, 0, 75, 0
1, 20544, Note_on_c, 0, 74, 69
1, 20544, Note_on_c, 1, 70, 0
1, 20544, Note_on_c, 1, 67, 0
1, 20544, Note_on_c, 1, 69, 69
1, 20544, Note_on_c, 1, 66, 69
1, 20589, Note_on_c, 0, 74, 0
1, 20592, Note_on_c, 0, 81, 69
1, 20615, Note_on_c, 0, 81, 0
1, 20616, Note_on_c, 0, 82, 69
1, 20633, Note_on_c, 1, 69, 0
1, 20633, Note_on_c, 1, 66, 0
1, 20639, Note_on_c, 0, 82, 0
1, 20640, Note_on_c, 0, 86, 69
1, 20663, Note_on_c, 0, 86, 0
1, 20664, Note_on_c, 0, 84, 69
1, 20687, Note_on_c, 0, 84, 0
1, 20688, Note_on_c, 0, 82, 69
1, 20688, Note_on_c, 1, 74, 69
1, 20688, Note_on_c, 1, 66, 69
1, 20711, Note_on_c, 0, 82, 0
1, 20712, Note_on_c, 0, 81, 69
1, 20733, Note_on_c, 1, 74, 0
1, 20733, Note_on_c, 1, 66, 0
1, 20735, Note_on_c, 0, 81, 0
1, 20736, Note_on_c, 0, 82, 69
1, 20736, Note_on_c, 1, 74, 69
1, 20736, Note_on_c, 1, 67, 69
1, 20759, Note_on_c, 0, 82, 0
1, 20760, Note_on_c, 0, 79, 69
1, 20781, Note_on_c, 1, 74, 0
1, 20781, Note_on_c, 1, 67, 0
1, 20783, Note_on_c, 0, 79, 0
1, 20784, Note_on_c, 0, 81, 69
1, 20807, Note_on_c, 0, 81, 0
1, 20808, Note_on_c, 0, 82, 69
1, 20831, Note_on_c, 0, 82, 0
1, 20832, Note_on_c, 0, 84, 69
1, 20832, Note_on_c, 1, 72, 69
1, 20832, Note_on_c, 1, 64, 69
1, 20855, Note_on_c, 0, 84, 0
1, 20856, Note_on_c, 0, 82, 69
1, 20877, Note_on_c, 1, 72, 0
1, 20877, Note_on_c, 1, 64, 0
1, 20879, Note_on_c, 0, 82, 0
1, 20880, Note_on_c, 0, 81, 69
1, 20903, Note_on_c, 0, 81, 0
1, 20904, Note_on_c, 0, 79, 69
1, 20927, Note_on_c, 0, 79, 0
1, 20928, Note_on_c, 0, 81, 69
1, 20928, Note_on_c, 1, 72, 69
1, 20928, Note_on_c, 1, 65, 69
1, 20951, Note_on_c, 0, 81, 0
1, 20952, Note_on_c, 0, 77, 69
1, 20973, Note_on_c, 1, 72, 0
1, 20973, Note_on_c, 1, 65, 0
1, 20975, Note_on_c, 0, 77, 0
1, 20976, Note_on_c, 0, 79, 69
1, 20999, Note_on_c, 0, 79, 0
1, 21000, Note_on_c, 0, 81, 69
1, 21023, Note_on_c, 0, 81, 0
1, 21024, Note_on_c, 0, 82, 69
1, 21024, Note_on_c, 1, 70, 69
1, 21024, Note_on_c, 1, 62, 69
1, 21047, Note_on_c, 0, 82, 0
1, 21048, Note_on_c, 0, 81, 69
1, 21069, Note_on_c, 1, 70, 0
1, 21069, Note_on_c, 1, 62, 0
1, 21071, Note_on_c, 0, 81, 0
1, 21072, Note_on_c, 0, 79, 69
1, 21095, Note_on_c, 0, 79, 0
1, 21096, Note_on_c, 0, 77, 69
1, 21119, Note_on_c, 0, 77, 0
1, 21120, Note_on_c, 0, 79, 69
1, 21120, Note_on_c, 1, 70, 69
1, 21120, Note_on_c, 1, 64, 69
1, 21143, Note_on_c, 0, 79, 0
1, 21144, Note_on_c, 0, 76, 69
1, 21165, Note_on_c, 1, 70, 0
1, 21165, Note_on_c, 1, 64, 0
1, 21167, Note_on_c, 0, 76, 0
1, 21168, Note_on_c, 0, 77, 69
1, 21191, Note_on_c, 0, 77, 0
1, 21192, Note_on_c, 0, 79, 69
1, 21215, Note_on_c, 0, 79, 0
1, 21216, Note_on_c, 0, 81, 69
1, 21216, Note_on_c, 1, 69, 69
1, 21216, Note_on_c, 1, 61, 69
1, 21239, Note_on_c, 0, 81, 0
1, 21240, Note_on_c, 0, 79, 69
1, 21261, Note_on_c, 1, 69, 0
1, 21261, Note_on_c, 1, 61, 0
1, 21263, Note_on_c, 0, 79, 0
1, 21264, Note_on_c, 0, 77, 69
1, 21287, Note_on_c, 0, 77, 0
1, 21288, Note_on_c, 0, 76, 69
1, 21311, Note_on_c, 0, 76, 0
1, 21312, Note_on_c, 1, 69, 69
1, 21312, Note_on_c, 1, 62, 69
1, 21336, Note_on_c, 0, 77, 69
1, 21357, Note_on_c, 1, 69, 0
1, 21357, Note_on_c, 1, 62, 0
1, 21359, Note_on_c, 0, 77, 0
1, 21360, Note_on_c, 0, 76, 69
1, 21383, Note_on_c, 0, 76, 0
1, 21384, Note_on_c, 0, 74, 69
1, 21407, Note_on_c, 0, 74, 0
1, 21408, Note_on_c, 1, 64, 69
1, 21432, Note_on_c, 0, 79, 69
1, 21453, Note_on_c, 1, 64, 0
1, 21455, Note_on_c, 0, 79, 0
1, 21456, Note_on_c, 0, 77, 69
1, 21479, Note_on_c, 0, 77, 0
1, 21480, Note_on_c, 0, 76, 69
1, 21503, Note_on_c, 0, 76, 0
1, 21504, Note_on_c, 0, 81, 69
1, 21504, Note_on_c, 1, 65, 69
1, 21527, Note_on_c, 0, 81, 0
1, 21528, Note_on_c, 0, 77, 70
1, 21549, Note_on_c, 1, 65, 0
1, 21551, Note_on_c, 0, 77, 0
1, 21552, Note_on_c, 0, 76, 71
1, 21575, Note_on_c, 0, 76, 0
1, 21576, Note_on_c, 0, 74, 73
1, 21599, Note_on_c, 0, 74, 0
1, 21600, Note_on_c, 0, 82, 74
1, 21600, Note_on_c, 1, 67, 69
1, 21623, Note_on_c, 0, 82, 0
1, 21624, Note_on_c, 0, 79, 76
1, 21645, Note_on_c, 1, 67, 0
1, 21647, Note_on_c, 0, 79, 0
1, 21648, Note_on_c, 0, 76, 75
1, 21648, Note_on_c, 1, 68, 69
1, 21671, Note_on_c, 0, 76, 0
1, 21672, Note_on_c, 0, 74, 74
1, 21693, Note_on_c, 1, 68, 0
1, 21695, Note_on_c, 0, 74, 0
1, 21696, Note_on_c, 0, 74, 73
1, 21696, Note_on_c, 1, 69, 69
1, 21708, Note_on_c, 0, 74, 0
1, 21708, Note_on_c, 0, 76, 73
1, 21720, Note_on_c, 0, 76, 0
1, 21720, Note_on_c, 0, 74, 73
1, 21732, Note_on_c, 0, 74, 0
1, 21732, Note_on_c, 0, 76, 73
1, 21741, Note_on_c, 0, 76, 0
1, 21741, Note_on_c, 1, 69, 0
1, 21744, Note_on_c, 0, 73, 71
1, 21744, Note_on_c, 1, 57, 69
1, 21789, Note_on_c, 0, 73, 0
1, 21789, Note_on_c, 1, 57, 0
1, 21888, Note_on_c, 0, 76, 69
1, 21888, Note_on_c, 0, 69, 69
1, 21888, Note_on_c, 1, 49, 69
1, 21911, Note_on_c, 1, 49, 0
1, 21912, Note_on_c, 1, 57, 69
1, 21935, Note_on_c, 1, 57, 0
1, 21936, Note_on_c, 1, 56, 69
1, 21955, Note_on_c, 0, 76, 0
1, 21959, Note_on_c, 1, 56, 0
1, 21960, Note_on_c, 0, 78, 69
1, 21960, Note_on_c, 1, 57, 69
1, 21983, Note_on_c, 0, 78, 0
1, 21983, Note_on_c, 1, 57, 0
1, 21984, Note_on_c, 0, 79, 69
1, 21984, Note_on_c, 1, 49, 69
1, 22007, Note_on_c, 1, 49, 0
1, 22008, Note_on_c, 1, 57, 69
1, 22021, Note_on_c, 0, 69, 0
1, 22029, Note_on_c, 0, 79, 0
1, 22031, Note_on_c, 1, 57, 0
1, 22032, Note_on_c, 0, 79, 69
1, 22032, Note_on_c, 0, 76, 69
1, 22032, Note_on_c, 1, 56, 69
1, 22055, Note_on_c, 1, 56, 0
1, 22056, Note_on_c, 1, 57, 69
1, 22077, Note_on_c, 0, 79, 0
1, 22077, Note_on_c, 0, 76, 0
1, 22079, Note_on_c, 1, 57, 0
1, 22080, Note_on_c, 0, 78, 69
1, 22080, Note_on_c, 0, 74, 69
1, 22080, Note_on_c, 1, 50, 69
1, 22103, Note_on_c, 1, 50, 0
1, 22104, Note_on_c, 1, 57, 70
1, 22127, Note_on_c, 1, 57, 0
1, 22128, Note_on_c, 1, 56, 70
1, 22151, Note_on_c, 1, 56, 0
1, 22152, Note_on_c, 1, 57, 70
1, 22169, Note_on_c, 0, 78, 0
1, 22169, Note_on_c, 0, 74, 0
1, 22175, Note_on_c, 1, 57, 0
1, 22176, Note_on_c, 1, 50, 70
1, 22199, Note_on_c, 1, 50, 0
1, 22200, Note_on_c, 1, 57, 70
1, 22223, Note_on_c, 1, 57, 0
1, 22224, Note_on_c, 1, 56, 70
1, 22247, Note_on_c, 1, 56, 0
1, 22248, Note_on_c, 1, 57, 70
1, 22271, Note_on_c, 1, 57, 0
1, 22272, Note_on_c, 0, 76, 70
1, 22272, Note_on_c, 0, 69, 70
1, 22272, Note_on_c, 1, 49, 70
1, 22295, Note_on_c, 1, 49, 0
1, 22296, Note_on_c, 1, 57, 71
1, 22319, Note_on_c, 1, 57, 0
1, 22320, Note_on_c, 1, 56, 71
1, 22339, Note_on_c, 0, 76, 0
1, 22343, Note_on_c, 1, 56, 0
1, 22344, Note_on_c, 0, 78, 71
1, 22344, Note_on_c, 1, 57, 71
1, 22367, Note_on_c, 0, 78, 0
1, 22367, Note_on_c, 1, 57, 0
1, 22368, Note_on_c, 0, 79, 71
1, 22368, Note_on_c, 1, 49, 71
1, 22391, Note_on_c, 1, 49, 0
1, 22392, Note_on_c, 1, 57, 71
1, 22405, Note_on_c, 0, 69, 0
1, 22413, Note_on_c, 0, 79, 0
1, 22415, Note_on_c, 1, 57, 0
1, 22416, Note_on_c, 0, 79, 71
1, 22416, Note_on_c, 0, 76, 71
1, 22416, Note_on_c, 1, 56, 71
1, 22439, Note_on_c, 1, 56, 0
1, 22440, Note_on_c, 1, 57, 71
1, 22461, Note_on_c, 0, 79, 0
1, 22461, Note_on_c, 0, 76, 0
1, 22463, Note_on_c, 1, 57, 0
1, 22464, Note_on_c, 0, 78, 71
1, 22464, Note_on_c, 0, 74, 71
1, 22464, Note_on_c, 1, 50, 71
1, 22487, Note_on_c, 1, 50, 0
1, 22488, Note_on_c, 1, 57, 72
1, 22511, Note_on_c, 1, 57, 0
1, 22512, Note_on_c, 1, 56, 72
1, 22535, Note_on_c, 1, 56, 0
1, 22536, Note_on_c, 1, 57, 72
1, 22553, Note_on_c, 0, 78, 0
1, 22553, Note_on_c, 0, 74, 0
1, 22559, Note_on_c, 1, 57, 0
1, 22560, Note_on_c, 1, 50, 72
1, 22583, Note_on_c, 1, 50, 0
1, 22584, Note_on_c, 1, 57, 72
1, 22607, Note_on_c, 1, 57, 0
1, 22608, Note_on_c, 1, 56, 72
1, 22631, Note_on_c, 1, 56, 0
1, 22632, Note_on_c, 1, 57, 72
1, 22655, Note_on_c, 1, 57, 0
1, 22656, Note_on_c, 0, 81, 72
1, 22656, Note_on_c, 0, 74, 72
1, 22656, Note_on_c, 1, 54, 72
1, 22679, Note_on_c, 1, 54, 0
1, 22680, Note_on_c, 1, 62, 73
1, 22703, Note_on_c, 1, 62, 0
1, 22704, Note_on_c, 1, 61, 73
1, 22723, Note_on_c, 0, 81, 0
1, 22727, Note_on_c, 1, 61, 0
1, 22728, Note_on_c, 0, 83, 73
1, 22728, Note_on_c, 1, 62, 73
1, 22751, Note_on_c, 0, 83, 0
1, 22751, Note_on_c, 1, 62, 0
1, 22752, Note_on_c, 0, 84, 73
1, 22752, Note_on_c, 1, 54, 73
1, 22775, Note_on_c, 1, 54, 0
1, 22776, Note_on_c, 1, 62, 73
1, 22789, Note_on_c, 0, 74, 0
1, 22797, Note_on_c, 0, 84, 0
1, 22799, Note_on_c, 1, 62, 0
1, 22800, Note_on_c, 0, 84, 73
1, 22800, Note_on_c, 0, 81, 73
1, 22800, Note_on_c, 1, 61, 73
1, 22823, Note_on_c, 1, 61, 0
1, 22824, Note_on_c, 1, 62, 73
1, 22845, Note_on_c, 0, 84, 0
1, 22845, Note_on_c, 0, 81, 0
1, 22847, Note_on_c, 1, 62, 0
1, 22848, Note_on_c, 0, 83, 73
1, 22848, Note_on_c, 0, 79, 73
1, 22848, Note_on_c, 1, 55, 73
1, 22871, Note_on_c, 1, 55, 0
1, 22872, Note_on_c, 1, 62, 74
1, 22895, Note_on_c, 1, 62, 0
1, 22896, Note_on_c, 1, 61, 74
1, 22919, Note_on_c, 1, 61, 0
1, 22920, Note_on_c, 1, 62, 74
1, 22937, Note_on_c, 0, 83, 0
1, 22937, Note_on_c, 0, 79, 0
1, 22943, Note_on_c, 1, 62, 0
1, 22944, Note_on_c, 1, 55, 74
1, 22967, Note_on_c, 1, 55, 0
1, 22968, Note_on_c, 1, 62, 74
1, 22991, Note_on_c, 1, 62, 0
1, 22992, Note_on_c, 1, 61, 74
1, 23015, Note_on_c, 1, 61, 0
1, 23016, Note_on_c, 1, 62, 74
1, 23039, Note_on_c, 1, 62, 0
1, 23040, Note_on_c, 0, 83, 74
1, 23040, Note_on_c, 0, 76, 74
1, 23040, Note_on_c, 1, 56, 74
1, 23063, Note_on_c, 1, 56, 0
1, 23064, Note_on_c, 1, 64, 75
1, 23087, Note_on_c, 1, 64, 0
1, 23088, Note_on_c, 1, 63, 75
1, 23107, Note_on_c, 0, 83, 0
1, 23111, Note_on_c, 1, 63, 0
1, 23112, Note_on_c, 0, 85, 74
1, 23112, Note_on_c, 1, 64, 75
1, 23135, Note_on_c, 0, 85, 0
1, 23135, Note_on_c, 1, 64, 0
1, 23136, Note_on_c, 0, 86, 75
1, 23136, Note_on_c, 1, 56, 75
1, 23159, Note_on_c, 1, 56, 0
1, 23160, Note_on_c, 1, 64, 75
1, 23173, Note_on_c, 0, 76, 0
1, 23181, Note_on_c, 0, 86, 0
1, 23183, Note_on_c, 1, 64, 0
1, 23184, Note_on_c, 0, 86, 75
1, 23184, Note_on_c, 0, 83, 75
1, 23184, Note_on_c, 1, 63, 75
1, 23207, Note_on_c, 1, 63, 0
1, 23208, Note_on_c, 1, 64, 75
1, 23229, Note_on_c, 0, 86, 0
1, 23229, Note_on_c, 0, 83, 0
1, 23231, Note_on_c, 1, 64, 0
1, 23232, Note_on_c, 0, 85, 75
1, 23232, Note_on_c, 0, 81, 75
1, 23232, Note_on_c, 1, 57, 75
1, 23255, Note_on_c, 1, 57, 0
1, 23256, Note_on_c, 1, 64, 76
1, 23279, Note_on_c, 1, 64, 0
1, 23280, Note_on_c, 1, 63, 76
1, 23303, Note_on_c, 1, 63, 0
1, 23304, Note_on_c, 1, 64, 76
1, 23321, Note_on_c, 0, 85, 0
1, 23321, Note_on_c, 0, 81, 0
1, 23327, Note_on_c, 1, 64, 0
1, 23328, Note_on_c, 1, 57, 76
1, 23351, Note_on_c, 1, 57, 0
1, 23352, Note_on_c, 1, 64, 76
1, 23375, Note_on_c, 1, 64, 0
1, 23376, Note_on_c, 1, 63, 76
1, 23399, Note_on_c, 1, 63, 0
1, 23400, Note_on_c, 1, 64, 76
1, 23423, Note_on_c, 1, 64, 0
1, 23424, Note_on_c, 1, 61, 76
1, 23424, Note_on_c, 1, 57, 76
1, 23448, Note_on_c, 0, 76, 76
1, 23469, Note_on_c, 1, 61, 0
1, 23469, Note_on_c, 1, 57, 0
1, 23471, Note_on_c, 0, 76, 0
1, 23472, Note_on_c, 0, 74, 76
1, 23495, Note_on_c, 0, 74, 0
1, 23496, Note_on_c, 0, 73, 76
1, 23519, Note_on_c, 0, 73, 0
1, 23520, Note_on_c, 0, 71, 76
1, 23543, Note_on_c, 0, 71, 0
1, 23544, Note_on_c, 0, 69, 76
1, 23567, Note_on_c, 0, 69, 0
1, 23568, Note_on_c, 0, 68, 76
1, 23591, Note_on_c, 0, 68, 0
1, 23592, Note_on_c, 0, 69, 76
1, 23615, Note_on_c, 0, 69, 0
1, 23616, Note_on_c, 1, 62, 76
1, 23616, Note_on_c, 1, 59, 76
1, 23640, Note_on_c, 0, 76, 76
1, 23661, Note_on_c, 1, 62, 0
1, 23661, Note_on_c, 1, 59, 0
1, 23663, Note_on_c, 0, 76, 0
1, 23664, Note_on_c, 0, 74, 76
1, 23687, Note_on_c, 0, 74, 0
1, 23688, Note_on_c, 0, 73, 76
1, 23711, Note_on_c, 0, 73, 0
1, 23712, Note_on_c, 0, 71, 76
1, 23735, Note_on_c, 0, 71, 0
1, 23736, Note_on_c, 0, 69, 76
1, 23759, Note_on_c, 0, 69, 0
1, 23760, Note_on_c, 0, 68, 76
1, 23783, Note_on_c, 0, 68, 0
1, 23784, Note_on_c, 0, 69, 76
1, 23807, Note_on_c, 0, 69, 0
1, 23808, Note_on_c, 1, 64, 76
1, 23808, Note_on_c, 1, 61, 76
1, 23832, Note_on_c, 0, 79, 76
1, 23855, Note_on_c, 0, 79, 0
1, 23856, Note_on_c, 0, 78, 76
1, 23879, Note_on_c, 0, 78, 0
1, 23880, Note_on_c, 0, 76, 76
1, 23903, Note_on_c, 0, 76, 0
1, 23904, Note_on_c, 0, 74, 76
1, 23927, Note_on_c, 0, 74, 0
1, 23928, Note_on_c, 0, 73, 76
1, 23951, Note_on_c, 0, 73, 0
1, 23952, Note_on_c, 0, 71, 76
1, 23975, Note_on_c, 0, 71, 0
1, 23976, Note_on_c, 0, 69, 76
1, 23985, Note_on_c, 1, 64, 0
1, 23985, Note_on_c, 1, 61, 0
1, 23999, Note_on_c, 0, 69, 0
1, 24000, Note_on_c, 0, 67, 76
1, 24024, Note_on_c, 1, 50, 76
1, 24047, Note_on_c, 1, 50, 0
1, 24048, Note_on_c, 0, 67, 0
1, 24048, Note_on_c, 0, 66, 76
1, 24048, Note_on_c, 1, 54, 76
1, 24071, Note_on_c, 1, 54, 0
1, 24072, Note_on_c, 1, 57, 76
1, 24093, Note_on_c, 0, 66, 0
1, 24095, Note_on_c, 1, 57, 0
1, 24096, Note_on_c, 1, 62, 76
1, 24141, Note_on_c, 1, 62, 0
1, 24144, Note_on_c, 1, 50, 76
1, 24189, Note_on_c, 1, 50, 0
1, 24192, Note_on_c, 1, 62, 76
1, 24192, Note_on_c, 1, 55, 83
1, 24216, Note_on_c, 0, 71, 76
1, 24239, Note_on_c, 0, 71, 0
1, 24240, Note_on_c, 0, 73, 76
1, 24263, Note_on_c, 0, 73, 0
1, 24264, Note_on_c, 0, 74, 76
1, 24281, Note_on_c, 1, 62, 0
1, 24281, Note_on_c, 1, 55, 0
1, 24287, Note_on_c, 0, 74, 0
1, 24288, Note_on_c, 1, 62, 76
1, 24288, Note_on_c, 1, 54, 83
1, 24312, Note_on_c, 0, 69, 76
1, 24335, Note_on_c, 0, 69, 0
1, 24336, Note_on_c, 0, 73, 76
1, 24359, Note_on_c, 0, 73, 0
1, 24360, Note_on_c, 0, 74, 76
1, 24377, Note_on_c, 1, 54, 0
1, 24383, Note_on_c, 0, 74, 0
1, 24384, Note_on_c, 0, 67, 76
1, 24384, Note_on_c, 1, 52, 83
1, 24407, Note_on_c, 0, 67, 0
1, 24408, Note_on_c, 0, 71, 76
1, 24429, Note_on_c, 1, 62, 0
1, 24431, Note_on_c, 0, 71, 0
1, 24432, Note_on_c, 0, 69, 76
1, 24432, Note_on_c, 1, 61, 76
1, 24455, Note_on_c, 0, 69, 0
1, 24456, Note_on_c, 0, 67, 76
1, 24473, Note_on_c, 1, 52, 0
1, 24477, Note_on_c, 1, 61, 0
1, 24479, Note_on_c, 0, 67, 0
1, 24480, Note_on_c, 0, 67, 76
1, 24480, Note_on_c, 1, 62, 76
1, 24480, Note_on_c, 1, 50, 83
1, 24503, Note_on_c, 0, 67, 0
1, 24504, Note_on_c, 0, 66, 76
1, 24525, Note_on_c, 1, 62, 0
1, 24525, Note_on_c, 1, 50, 0
1, 24527, Note_on_c, 0, 66, 0
1, 24528, Note_on_c, 0, 64, 76
1, 24551, Note_on_c, 0, 64, 0
1, 24552, Note_on_c, 0, 62, 76
1, 24575, Note_on_c, 0, 62, 0
1, 24576, Note_on_c, 1, 62, 61
1, 24576, Note_on_c, 1, 55, 83
1, 24600, Note_on_c, 0, 71, 61
1, 24623, Note_on_c, 0, 71, 0
1, 24624, Note_on_c, 0, 73, 61
1, 24647, Note_on_c, 0, 73, 0
1, 24648, Note_on_c, 0, 74, 61
1, 24665, Note_on_c, 1, 62, 0
1, 24665, Note_on_c, 1, 55, 0
1, 24671, Note_on_c, 0, 74, 0
1, 24672, Note_on_c, 1, 62, 61
1, 24672, Note_on_c, 1, 54, 83
1, 24696, Note_on_c, 0, 69, 61
1, 24719, Note_on_c, 0, 69, 0
1, 24720, Note_on_c, 0, 73, 61
1, 24743, Note_on_c, 0, 73, 0
1, 24744, Note_on_c, 0, 74, 61
1, 24761, Note_on_c, 1, 54, 0
1, 24767, Note_on_c, 0, 74, 0
1, 24768, Note_on_c, 0, 67, 61
1, 24768, Note_on_c, 1, 52, 83
1, 24791, Note_on_c, 0, 67, 0
1, 24792, Note_on_c, 0, 71, 61
1, 24813, Note_on_c, 1, 62, 0
1, 24815, Note_on_c, 0, 71, 0
1, 24816, Note_on_c, 0, 69, 61
1, 24816, Note_on_c, 1, 61, 61
1, 24839, Note_on_c, 0, 69, 0
1, 24840, Note_on_c, 0, 67, 61
1, 24857, Note_on_c, 1, 52, 0
1, 24861, Note_on_c, 1, 61, 0
1, 24863, Note_on_c, 0, 67, 0
1, 24864, Note_on_c, 0, 67, 61
1, 24864, Note_on_c, 1, 62, 61
1, 24864, Note_on_c, 1, 50, 83
1, 24887, Note_on_c, 0, 67, 0
1, 24888, Note_on_c, 0, 66, 68
1, 24909, Note_on_c, 1, 62, 0
1, 24909, Note_on_c, 1, 50, 0
1, 24911, Note_on_c, 0, 66, 0
1, 24912, Note_on_c, 0, 64, 75
1, 24935, Note_on_c, 0, 64, 0
1, 24936, Note_on_c, 0, 62, 82
1, 24959, Note_on_c, 0, 62, 0
1, 24960, Note_on_c, 1, 58, 89
1, 24960, Note_on_c, 1, 46, 89
1, 24984, Note_on_c, 0, 62, 89
1, 25007, Note_on_c, 0, 62, 0
1, 25008, Note_on_c, 0, 68, 89
1, 25031, Note_on_c, 0, 68, 0
1, 25032, Note_on_c, 0, 62, 89
1, 25055, Note_on_c, 0, 62, 0
1, 25056, Note_on_c, 0, 74, 89
1, 25079, Note_on_c, 0, 74, 0
1, 25080, Note_on_c, 0, 62, 89
1, 25103, Note_on_c, 0, 62, 0
1, 25104, Note_on_c, 0, 68, 89
1, 25127, Note_on_c, 0, 68, 0
1, 25128, Note_on_c, 0, 62, 89
1, 25137, Note_on_c, 1, 58, 0
1, 25137, Note_on_c, 1, 46, 0
1, 25151, Note_on_c, 0, 62, 0
1, 25152, Note_on_c, 1, 59, 89
1, 25152, Note_on_c, 1, 47, 89
1, 25176, Note_on_c, 0, 62, 89
1, 25199, Note_on_c, 0, 62, 0
1, 25200, Note_on_c, 0, 68, 89
1, 25223, Note_on_c, 0, 68, 0
1, 25224, Note_on_c, 0, 62, 89
1, 25247, Note_on_c, 0, 62, 0
1, 25248, Note_on_c, 0, 74, 89
1, 25271, Note_on_c, 0, 74, 0
1, 25272, Note_on_c, 0, 62, 89
1, 25295, Note_on_c, 0, 62, 0
1, 25296, Note_on_c, 0, 68, 89
1, 25319, Note_on_c, 0, 68, 0
1, 25320, Note_on_c, 0, 62, 89
1, 25329, Note_on_c, 1, 59, 0
1, 25329, Note_on_c, 1, 47, 0
1, 25343, Note_on_c, 0, 62, 0
1, 25344, Note_on_c, 1, 56, 89
1, 25344, Note_on_c, 1, 44, 89
1, 25368, Note_on_c, 0, 64, 89
1, 25391, Note_on_c, 0, 64, 0
1, 25392, Note_on_c, 0, 71, 89
1, 25415, Note_on_c, 0, 71, 0
1, 25416, Note_on_c, 0, 64, 89
1, 25439, Note_on_c, 0, 64, 0
1, 25440, Note_on_c, 0, 74, 89
1, 25463, Note_on_c, 0, 74, 0
1, 25464, Note_on_c, 0, 64, 89
1, 25487, Note_on_c, 0, 64, 0
1, 25488, Note_on_c, 0, 71, 89
1, 25511, Note_on_c, 0, 71, 0
1, 25512, Note_on_c, 0, 64, 89
1, 25521, Note_on_c, 1, 56, 0
1, 25521, Note_on_c, 1, 44, 0
1, 25535, Note_on_c, 0, 64, 0
1, 25536, Note_on_c, 1, 61, 89
1, 25536, Note_on_c, 1, 49, 89
1, 25560, Note_on_c, 0, 67, 89
1, 25583, Note_on_c, 0, 67, 0
1, 25584, Note_on_c, 0, 69, 89
1, 25607, Note_on_c, 0, 69, 0
1, 25608, Note_on_c, 0, 67, 89
1, 25631, Note_on_c, 0, 67, 0
1, 25632, Note_on_c, 0, 76, 89
1, 25655, Note_on_c, 0, 76, 0
1, 25656, Note_on_c, 0, 67, 89
1, 25679, Note_on_c, 0, 67, 0
1, 25680, Note_on_c, 0, 69, 89
1, 25703, Note_on_c, 0, 69, 0
1, 25704, Note_on_c, 0, 67, 89
1, 25713, Note_on_c, 1, 61, 0
1, 25713, Note_on_c, 1, 49, 0
1, 25727, Note_on_c, 0, 67, 0
1, 25728, Note_on_c, 1, 58, 89
1, 25728, Note_on_c, 1, 46, 89
1, 25752, Note_on_c, 0, 67, 89
1, 25775, Note_on_c, 0, 67, 0
1, 25776, Note_on_c, 0, 73, 89
1, 25799, Note_on_c, 0, 73, 0
1, 25800, Note_on_c, 0, 67, 89
1, 25823, Note_on_c, 0, 67, 0
1, 25824, Note_on_c, 0, 76, 89
1, 25847, Note_on_c, 0, 76, 0
1, 25848, Note_on_c, 0, 67, 89
1, 25871, Note_on_c, 0, 67, 0
1, 25872, Note_on_c, 0, 73, 89
1, 25895, Note_on_c, 0, 73, 0
1, 25896, Note_on_c, 0, 67, 89
1, 25905, Note_on_c, 1, 58, 0
1, 25905, Note_on_c, 1, 46, 0
1, 25919, Note_on_c, 0, 67, 0
1, 25920, Note_on_c, 1, 59, 89
1, 25920, Note_on_c, 1, 47, 89
1, 25944, Note_on_c, 0, 66, 89
1, 25967, Note_on_c, 0, 66, 0
1, 25968, Note_on_c, 0, 74, 89
1, 25991, Note_on_c, 0, 74, 0
1, 25992, Note_on_c, 0, 66, 89
1, 26009, Note_on_c, 1, 59, 0
1, 26009, Note_on_c, 1, 47, 0
1, 26015, Note_on_c, 0, 66, 0
1, 26016, Note_on_c, 1, 56, 89
1, 26016, Note_on_c, 1, 44, 89
1, 26040, Note_on_c, 0, 64, 89
1, 26063, Note_on_c, 0, 64, 0
1, 26064, Note_on_c, 0, 74, 89
1, 26087, Note_on_c, 0, 74, 0
1, 26088, Note_on_c, 0, 64, 89
1, 26105, Note_on_c, 1, 56, 0
1, 26105, Note_on_c, 1, 44, 0
1, 26111, Note_on_c, 0, 64, 0
1, 26112, Note_on_c, 1, 57, 89
1, 26112, Note_on_c, 1, 45, 89
1, 26136, Note_on_c, 0, 64, 89
1, 26159, Note_on_c, 0, 64, 0
1, 26160, Note_on_c, 0, 73, 89
1, 26183, Note_on_c, 0, 73, 0
1, 26184, Note_on_c, 0, 64, 89
1, 26201, Note_on_c, 1, 57, 0
1, 26201, Note_on_c, 1, 45, 0
1, 26207, Note_on_c, 0, 64, 0
1, 26208, Note_on_c, 1, 61, 89
1, 26208, Note_on_c, 1, 49, 89
1, 26232, Note_on_c, 0, 67, 89
1, 26255, Note_on_c, 0, 67, 0
1, 26256, Note_on_c, 0, 76, 89
1, 26279, Note_on_c, 0, 76, 0
1, 26280, Note_on_c, 0, 67, 89
1, 26297, Note_on_c, 1, 61, 0
1, 26297, Note_on_c, 1, 49, 0
1, 26303, Note_on_c, 0, 67, 0
1, 26304, Note_on_c, 1, 62, 89
1, 26304, Note_on_c, 1, 50, 89
1, 26328, Note_on_c, 0, 66, 89
1, 26351, Note_on_c, 0, 66, 0
1, 26352, Note_on_c, 0, 74, 89
1, 26375, Note_on_c, 0, 74, 0
1, 26376, Note_on_c, 0, 66, 89
1, 26393, Note_on_c, 1, 62, 0
1, 26393, Note_on_c, 1, 50, 0
1, 26399, Note_on_c, 0, 66, 0
1, 26400, Note_on_c, 1, 56, 89
1, 26400, Note_on_c, 1, 44, 89
1, 26424, Note_on_c, 0, 66, 89
1, 26447, Note_on_c, 0, 66, 0
1, 26448, Note_on_c, 0, 74, 89
1, 26471, Note_on_c, 0, 74, 0
1, 26472, Note_on_c, 0, 66, 89
1, 26489, Note_on_c, 1, 56, 0
1, 26489, Note_on_c, 1, 44, 0
1, 26495, Note_on_c, 0, 66, 0
1, 26496, Note_on_c, 0, 73, 89
1, 26496, Note_on_c, 0, 64, 89
1, 26496, Note_on_c, 1, 57, 89
1, 26496, Note_on_c, 1, 45, 89
1, 26585, Note_on_c, 0, 73, 0
1, 26585, Note_on_c, 0, 64, 0
1, 26585, Note_on_c, 1, 57, 0
1, 26585, Note_on_c, 1, 45, 0
1, 26688, Note_on_c, 0, 78, 69
1, 26688, Note_on_c, 0, 74, 69
1, 26755, Note_on_c, 0, 78, 0
1, 26755, Note_on_c, 0, 74, 0
1, 26760, Note_on_c, 0, 79, 69
1, 26760, Note_on_c, 0, 76, 69
1, 26783, Note_on_c, 0, 79, 0
1, 26783, Note_on_c, 0, 76, 0
1, 26784, Note_on_c, 0, 81, 69
1, 26784, Note_on_c, 0, 78, 69
1, 26829, Note_on_c, 0, 81, 0
1, 26829, Note_on_c, 0, 78, 0
1, 26832, Note_on_c, 0, 79, 69
1, 26832, Note_on_c, 0, 76, 69
1, 26832, Note_on_c, 1, 69, 69
1, 26877, Note_on_c, 0, 79, 0
1, 26877, Note_on_c, 0, 76, 0
1, 26877, Note_on_c, 1, 69, 0
1, 26880, Note_on_c, 0, 78, 69
1, 26880, Note_on_c, 0, 74, 69
1, 26880, Note_on_c, 1, 71, 69
1, 26974, Note_on_c, 0, 78, 0
1, 26974, Note_on_c, 0, 74, 0
1, 26974, Note_on_c, 1, 71, 0
1, 27072, Note_on_c, 0, 78, 61
1, 27072, Note_on_c, 0, 74, 61
1, 27139, Note_on_c, 0, 78, 0
1, 27139, Note_on_c, 0, 74, 0
1, 27144, Note_on_c, 0, 79, 61
1, 27144, Note_on_c, 0, 76, 61
1, 27167, Note_on_c, 0, 79, 0
1, 27167, Note_on_c, 0, 76, 0
1, 27168, Note_on_c, 0, 81, 61
1, 27168, Note_on_c, 0, 78, 61
1, 27213, Note_on_c, 0, 81, 0
1, 27213, Note_on_c, 0, 78, 0
1, 27216, Note_on_c, 0, 79, 61
1, 27216, Note_on_c, 0, 76, 61
1, 27216, Note_on_c, 1, 69, 61
1, 27261, Note_on_c, 0, 79, 0
1, 27261, Note_on_c, 0, 76, 0
1, 27261, Note_on_c, 1, 69, 0
1, 27264, Note_on_c, 0, 78, 61
1, 27264, Note_on_c, 0, 74, 61
1, 27264, Note_on_c, 1, 71, 61
1, 27358, Note_on_c, 0, 78, 0
1, 27358, Note_on_c, 0, 74, 0
1, 27358, Note_on_c, 1, 71, 0
1, 27456, Note_on_c, 0, 78, 69
1, 27456, Note_on_c, 0, 74, 69
1, 27523, Note_on_c, 0, 78, 0
1, 27523, Note_on_c, 0, 74, 0
1, 27528, Note_on_c, 0, 79, 69
1, 27528, Note_on_c, 0, 76, 69
1, 27551, Note_on_c, 0, 79, 0
1, 27551, Note_on_c, 0, 76, 0
1, 27552, Note_on_c, 0, 81, 69
1, 27552, Note_on_c, 0, 78, 69
1, 27597, Note_on_c, 0, 81, 0
1, 27597, Note_on_c, 0, 78, 0
1, 27600, Note_on_c, 0, 79, 69
1, 27600, Note_on_c, 0, 76, 69
1, 27600, Note_on_c, 1, 57, 69
1, 27645, Note_on_c, 0, 79, 0
1, 27645, Note_on_c, 0, 76, 0
1, 27645, Note_on_c, 1, 57, 0
1, 27648, Note_on_c, 0, 78, 69
1, 27648, Note_on_c, 0, 74, 69
1, 27648, Note_on_c, 1, 59, 83
1, 27693, Note_on_c, 0, 78, 0
1, 27693, Note_on_c, 0, 74, 0
1, 27693, Note_on_c, 1, 59, 0
1, 27696, Note_on_c, 0, 86, 71
1, 27696, Note_on_c, 1, 59, 69
1, 27696, Note_on_c, 1, 54, 83
1, 27741, Note_on_c, 0, 86, 0
1, 27741, Note_on_c, 1, 59, 0
1, 27741, Note_on_c, 1, 54, 0
1, 27744, Note_on_c, 0, 85, 73
1, 27744, Note_on_c, 1, 62, 69
1, 27744, Note_on_c, 1, 55, 83
1, 27767, Note_on_c, 0, 85, 0
1, 27768, Note_on_c, 0, 83, 74
1, 27791, Note_on_c, 0, 83, 0
1, 27792, Note_on_c, 0, 81, 76
1, 27815, Note_on_c, 0, 81, 0
1, 27816, Note_on_c, 0, 79, 74
1, 27833, Note_on_c, 1, 62, 0
1, 27833, Note_on_c, 1, 55, 0
1, 27839, Note_on_c, 0, 79, 0
1, 27840, Note_on_c, 0, 79, 73
1, 27840, Note_on_c, 1, 62, 69
1, 27840, Note_on_c, 1, 57, 69
1, 27863, Note_on_c, 0, 79, 0
1, 27864, Note_on_c, 0, 78, 72
1, 27887, Note_on_c, 0, 78, 0
1, 27888, Note_on_c, 0, 76, 71
1, 27911, Note_on_c, 0, 76, 0
1, 27912, Note_on_c, 0, 74, 70
1, 27929, Note_on_c, 1, 62, 0
1, 27929, Note_on_c, 1, 57, 0
1, 27935, Note_on_c, 0, 74, 0
1, 27936, Note_on_c, 0, 78, 69
1, 27936, Note_on_c, 1, 61, 69
1, 27936, Note_on_c, 1, 57, 69
1, 27951, Note_on_c, 0, 78, 0
1, 27952, Note_on_c, 0, 76, 69
1, 27967, Note_on_c, 0, 76, 0
1, 27968, Note_on_c, 0, 78, 69
1, 27983, Note_on_c, 0, 78, 0
1, 27984, Note_on_c, 0, 76, 69
1, 27999, Note_on_c, 0, 76, 0
1, 28000, Note_on_c, 0, 74, 69
1, 28015, Note_on_c, 0, 74, 0
1, 28016, Note_on_c, 0, 76, 69
1, 28025, Note_on_c, 1, 61, 0
1, 28025, Note_on_c, 1, 57, 0
1, 28031, Note_on_c, 0, 76, 0
1, 28032, Note_on_c, 0, 74, 69
1, 28032, Note_on_c, 1, 62, 69
1, 28032, Note_on_c, 1, 50, 69
1, 28121, Note_on_c, 0, 74, 0
1, 28121, Note_on_c, 1, 62, 0
1, 28121, Note_on_c, 1, 50, 0
1, 28128, Note_on_c, 0, 81, 76
1, 28151, Note_on_c, 0, 81, 0
1, 28152, Note_on_c, 0, 78, 76
1, 28175, Note_on_c, 0, 78, 0
1, 28176, Note_on_c, 0, 74, 76
1, 28176, Note_on_c, 1, 66, 76
1, 28199, Note_on_c, 0, 74, 0
1, 28200, Note_on_c, 0, 69, 76
1, 28221, Note_on_c, 1, 66, 0
1, 28223, Note_on_c, 0, 69, 0
1, 28224, Note_on_c, 0, 70, 76
1, 28224, Note_on_c, 1, 67, 76
1, 28269, Note_on_c, 1, 67, 0
1, 28272, Note_on_c, 0, 70, 0
1, 28272, Note_on_c, 0, 71, 76
1, 28272, Note_on_c, 1, 55, 76
1, 28317, Note_on_c, 0, 71, 0
1, 28317, Note_on_c, 1, 55, 0
1, 28320, Note_on_c, 0, 79, 76
1, 28343, Note_on_c, 0, 79, 0
1, 28344, Note_on_c, 0, 76, 76
1, 28367, Note_on_c, 0, 76, 0
1, 28368, Note_on_c, 0, 73, 76
1, 28368, Note_on_c, 1, 64, 76
1, 28368, Note_on_c, 1, 57, 76
1, 28391, Note_on_c, 0, 73, 0
1, 28392, Note_on_c, 0, 69, 76
1, 28413, Note_on_c, 1, 64, 0
1, 28413, Note_on_c, 1, 57, 0
1, 28415, Note_on_c, 0, 69, 0
1, 28416, Note_on_c, 0, 73, 76
1, 28416, Note_on_c, 1, 62, 76
1, 28461, Note_on_c, 1, 62, 0
1, 28464, Note_on_c, 0, 73, 0
1, 28464, Note_on_c, 0, 74, 76
1, 28464, Note_on_c, 1, 50, 76
1, 28509, Note_on_c, 0, 74, 0
1, 28509, Note_on_c, 1, 50, 0
1, 28512, Note_on_c, 0, 81, 69
1, 28535, Note_on_c, 0, 81, 0
1, 28536, Note_on_c, 0, 78, 69
1, 28559, Note_on_c, 0, 78, 0
1, 28560, Note_on_c, 0, 74, 69
1, 28560, Note_on_c, 1, 66, 61
1, 28583, Note_on_c, 0, 74, 0
1, 28584, Note_on_c, 0, 69, 69
1, 28605, Note_on_c, 1, 66, 0
1, 28607, Note_on_c, 0, 69, 0
1, 28608, Note_on_c, 0, 70, 69
1, 28608, Note_on_c, 1, 67, 61
1, 28653, Note_on_c, 1, 67, 0
1, 28656, Note_on_c, 0, 70, 0
1, 28656, Note_on_c, 0, 71, 69
1, 28656, Note_on_c, 1, 55, 61
1, 28701, Note_on_c, 0, 71, 0
1, 28701, Note_on_c, 1, 55, 0
1, 28704, Note_on_c, 0, 79, 69
1, 28727, Note_on_c, 0, 79, 0
1, 28728, Note_on_c, 0, 76, 69
1, 28751, Note_on_c, 0, 76, 0
1, 28752, Note_on_c, 0, 73, 69
1, 28752, Note_on_c, 1, 64, 61
1, 28752, Note_on_c, 1, 57, 61
1, 28775, Note_on_c, 0, 73, 0
1, 28776, Note_on_c, 0, 69, 69
1, 28797, Note_on_c, 1, 64, 0
1, 28797, Note_on_c, 1, 57, 0
1, 28799, Note_on_c, 0, 69, 0
1, 28800, Note_on_c, 0, 76, 61
1, 28800, Note_on_c, 1, 62, 61
1, 28812, Note_on_c, 0, 76, 0
1, 28812, Note_on_c, 0, 74, 61
1, 28824, Note_on_c, 0, 74, 0
1, 28824, Note_on_c, 0, 73, 61
1, 28836, Note_on_c, 0, 73, 0
1, 28836, Note_on_c, 0, 74, 61
1, 28845, Note_on_c, 1, 62, 0
1, 28848, Note_on_c, 1, 50, 61
1, 28889, Note_on_c, 0, 74, 0
1, 28893, Note_on_c, 1, 50, 0
1, 28992, Note_on_c, 0, 69, 76
1, 28992, Note_on_c, 1, 57, 83
1, 29015, Note_on_c, 0, 69, 0
1, 29016, Note_on_c, 0, 81, 76
1, 29039, Note_on_c, 0, 81, 0
1, 29040, Note_on_c, 0, 69, 76
1, 29040, Note_on_c, 1, 61, 76
1, 29063, Note_on_c, 0, 69, 0
1, 29064, Note_on_c, 0, 81, 76
1, 29085, Note_on_c, 1, 61, 0
1, 29087, Note_on_c, 0, 81, 0
1, 29088, Note_on_c, 0, 69, 76
1, 29088, Note_on_c, 1, 64, 76
1, 29111, Note_on_c, 0, 69, 0
1, 29112, Note_on_c, 0, 81, 76
1, 29133, Note_on_c, 1, 64, 0
1, 29135, Note_on_c, 0, 81, 0
1, 29136, Note_on_c, 0, 69, 76
1, 29136, Note_on_c, 1, 61, 76
1, 29159, Note_on_c, 0, 69, 0
1, 29160, Note_on_c, 0, 81, 76
1, 29169, Note_on_c, 1, 57, 0
1, 29181, Note_on_c, 1, 61, 0
1, 29183, Note_on_c, 0, 81, 0
1, 29184, Note_on_c, 0, 71, 76
1, 29184, Note_on_c, 1, 57, 76
1, 29207, Note_on_c, 0, 71, 0
1, 29208, Note_on_c, 0, 80, 76
1, 29231, Note_on_c, 0, 80, 0
1, 29232, Note_on_c, 0, 71, 76
1, 29232, Note_on_c, 1, 59, 76
1, 29255, Note_on_c, 0, 71, 0
1, 29256, Note_on_c, 0, 80, 76
1, 29277, Note_on_c, 1, 59, 0
1, 29279, Note_on_c, 0, 80, 0
1, 29280, Note_on_c, 0, 71, 76
1, 29280, Note_on_c, 1, 62, 76
1, 29303, Note_on_c, 0, 71, 0
1, 29304, Note_on_c, 0, 80, 77
1, 29325, Note_on_c, 1, 62, 0
1, 29327, Note_on_c, 0, 80, 0
1, 29328, Note_on_c, 0, 71, 77
1, 29328, Note_on_c, 1, 59, 77
1, 29351, Note_on_c, 0, 71, 0
1, 29352, Note_on_c, 0, 80, 77
1, 29361, Note_on_c, 1, 57, 0
1, 29373, Note_on_c, 1, 59, 0
1, 29375, Note_on_c, 0, 80, 0
1, 29376, Note_on_c, 0, 69, 77
1, 29376, Note_on_c, 1, 57, 77
1, 29399, Note_on_c, 0, 69, 0
1, 29400, Note_on_c, 0, 79, 77
1, 29423, Note_on_c, 0, 79, 0
1, 29424, Note_on_c, 0, 69, 78
1, 29424, Note_on_c, 1, 61, 78
1, 29447, Note_on_c, 0, 69, 0
1, 29448, Note_on_c, 0, 79, 78
1, 29469, Note_on_c, 1, 61, 0
1, 29471, Note_on_c, 0, 79, 0
1, 29472, Note_on_c, 0, 69, 78
1, 29472, Note_on_c, 1, 64, 78
1, 29495, Note_on_c, 0, 69, 0
1, 29496, Note_on_c, 0, 79, 78
1, 29517, Note_on_c, 1, 64, 0
1, 29519, Note_on_c, 0, 79, 0
1, 29520, Note_on_c, 0, 69, 79
1, 29520, Note_on_c, 1, 61, 79
1, 29543, Note_on_c, 0, 69, 0
1, 29544, Note_on_c, 0, 79, 79
1, 29553, Note_on_c, 1, 57, 0
1, 29565, Note_on_c, 1, 61, 0
1, 29567, Note_on_c, 0, 79, 0
1, 29568, Note_on_c, 0, 69, 79
1, 29568, Note_on_c, 1, 57, 79
1, 29591, Note_on_c, 0, 69, 0
1, 29592, Note_on_c, 0, 77, 79
1, 29615, Note_on_c, 0, 77, 0
1, 29616, Note_on_c, 0, 69, 79
1, 29616, Note_on_c, 1, 62, 79
1, 29639, Note_on_c, 0, 69, 0
1, 29640, Note_on_c, 0, 77, 80
1, 29661, Note_on_c, 1, 62, 0
1, 29663, Note_on_c, 0, 77, 0
1, 29664, Note_on_c, 0, 69, 80
1, 29664, Note_on_c, 1, 65, 80
1, 29687, Note_on_c, 0, 69, 0
1, 29688, Note_on_c, 0, 77, 80
1, 29709, Note_on_c, 1, 65, 0
1, 29711, Note_on_c, 0, 77, 0
1, 29712, Note_on_c, 0, 69, 80
1, 29712, Note_on_c, 1, 62, 80
1, 29735, Note_on_c, 0, 69, 0
1, 29736, Note_on_c, 0, 77, 81
1, 29745, Note_on_c, 1, 57, 0
1, 29757, Note_on_c, 1, 62, 0
1, 29759, Note_on_c, 0, 77, 0
1, 29760, Note_on_c, 0, 68, 81
1, 29760, Note_on_c, 1, 57, 81
1, 29783, Note_on_c, 0, 68, 0
1, 29784, Note_on_c, 0, 74, 81
1, 29807, Note_on_c, 0, 74, 0
1, 29808, Note_on_c, 0, 68, 81
1, 29808, Note_on_c, 1, 59, 81
1, 29831, Note_on_c, 0, 68, 0
1, 29832, Note_on_c, 0, 74, 81
1, 29853, Note_on_c, 1, 59, 0
1, 29855, Note_on_c, 0, 74, 0
1, 29856, Note_on_c, 0, 68, 82
1, 29856, Note_on_c, 1, 62, 82
1, 29879, Note_on_c, 0, 68, 0
1, 29880, Note_on_c, 0, 74, 82
1, 29901, Note_on_c, 1, 62, 0
1, 29903, Note_on_c, 0, 74, 0
1, 29904, Note_on_c, 0, 68, 82
1, 29904, Note_on_c, 1, 59, 82
1, 29927, Note_on_c, 0, 68, 0
1, 29928, Note_on_c, 0, 74, 82
1, 29937, Note_on_c, 1, 57, 0
1, 29949, Note_on_c, 1, 59, 0
1, 29951, Note_on_c, 0, 74, 0
1, 29952, Note_on_c, 0, 69, 83
1, 29952, Note_on_c, 1, 61, 83
1, 29952, Note_on_c, 1, 57, 83
1, 30041, Note_on_c, 0, 69, 0
1, 30041, Note_on_c, 1, 61, 0
1, 30041, Note_on_c, 1, 57, 0
1, 30144, Note_on_c, 0, 77, 69
1, 30144, Note_on_c, 0, 74, 69
1, 30211, Note_on_c, 0, 77, 0
1, 30211, Note_on_c, 0, 74, 0
1, 30216, Note_on_c, 0, 79, 69
1, 30216, Note_on_c, 0, 76, 69
1, 30239, Note_on_c, 0, 79, 0
1, 30239, Note_on_c, 0, 76, 0
1, 30240, Note_on_c, 0, 81, 69
1, 30240, Note_on_c, 0, 77, 69
1, 30285, Note_on_c, 0, 81, 0
1, 30285, Note_on_c, 0, 77, 0
1, 30288, Note_on_c, 0, 79, 69
1, 30288, Note_on_c, 0, 76, 69
1, 30288, Note_on_c, 1, 57, 69
1, 30333, Note_on_c, 0, 79, 0
1, 30333, Note_on_c, 0, 76, 0
1, 30333, Note_on_c, 1, 57, 0
1, 30336, Note_on_c, 0, 77, 69
1, 30336, Note_on_c, 0, 74, 69
1, 30336, Note_on_c, 1, 58, 69
1, 30430, Note_on_c, 0, 77, 0
1, 30430, Note_on_c, 0, 74, 0
1, 30430, Note_on_c, 1, 58, 0
1, 30528, Note_on_c, 0, 77, 61
1, 30528, Note_on_c, 0, 74, 61
1, 30595, Note_on_c, 0, 77, 0
1, 30595, Note_on_c, 0, 74, 0
1, 30600, Note_on_c, 0, 79, 61
1, 30600, Note_on_c, 0, 76, 61
1, 30623, Note_on_c, 0, 79, 0
1, 30623, Note_on_c, 0, 76, 0
1, 30624, Note_on_c, 0, 81, 61
1, 30624, Note_on_c, 0, 77, 61
1, 30669, Note_on_c, 0, 81, 0
1, 30669, Note_on_c, 0, 77, 0
1, 30672, Note_on_c, 0, 79, 61
1, 30672, Note_on_c, 0, 76, 61
1, 30672, Note_on_c, 1, 57, 61
1, 30717, Note_on_c, 0, 79, 0
1, 30717, Note_on_c, 0, 76, 0
1, 30717, Note_on_c, 1, 57, 0
1, 30720, Note_on_c, 0, 77, 61
1, 30720, Note_on_c, 0, 74, 61
1, 30720, Note_on_c, 1, 58, 61
1, 30814, Note_on_c, 0, 77, 0
1, 30814, Note_on_c, 0, 74, 0
1, 30814, Note_on_c, 1, 58, 0
1, 30912, Note_on_c, 0, 76, 85
1, 30912, Note_on_c, 1, 64, 85
1, 30912, Note_on_c, 1, 58, 85
1, 30912, Note_on_c, 1, 55, 85
1, 31056, Note_on_c, 0, 76, 0
1, 31056, Note_on_c, 0, 79, 69
1, 31071, Note_on_c, 0, 79, 0
1, 31072, Note_on_c, 0, 81, 69
1, 31087, Note_on_c, 0, 81, 0
1, 31088, Note_on_c, 0, 82, 69
1, 31103, Note_on_c, 0, 82, 0
1, 31104, Note_on_c, 0, 81, 69
1, 31104, Note_on_c, 1, 64, 0
1, 31104, Note_on_c, 1, 58, 0
1, 31104, Note_on_c, 1, 55, 0
1, 31104, Note_on_c, 1, 62, 69
1, 31104, Note_on_c, 1, 53, 69
1, 31149, Note_on_c, 0, 81, 0
1, 31152, Note_on_c, 0, 74, 69
1, 31193, Note_on_c, 1, 62, 0
1, 31193, Note_on_c, 1, 53, 0
1, 31197, Note_on_c, 0, 74, 0
1, 31200, Note_on_c, 0, 77, 69
1, 31200, Note_on_c, 1, 55, 69
1, 31223, Note_on_c, 0, 77, 0
1, 31224, Note_on_c, 0, 76, 69
1, 31245, Note_on_c, 1, 55, 0
1, 31247, Note_on_c, 0, 76, 0
1, 31248, Note_on_c, 0, 74, 69
1, 31248, Note_on_c, 1, 57, 69
1, 31271, Note_on_c, 0, 74, 0
1, 31272, Note_on_c, 0, 73, 69
1, 31293, Note_on_c, 1, 57, 0
1, 31295, Note_on_c, 0, 73, 0
1, 31296, Note_on_c, 0, 74, 69
1, 31296, Note_on_c, 1, 53, 69
1, 31341, Note_on_c, 0, 74, 0
1, 31344, Note_on_c, 0, 69, 69
1, 31385, Note_on_c, 1, 53, 0
1, 31389, Note_on_c, 0, 69, 0
1, 31392, Note_on_c, 0, 70, 69
1, 31440, Note_on_c, 1, 65, 69
1, 31440, Note_on_c, 1, 62, 69
1, 31488, Note_on_c, 1, 65, 0
1, 31488, Note_on_c, 1, 62, 0
1, 31488, Note_on_c, 1, 64, 69
1, 31488, Note_on_c, 1, 61, 69
1, 31533, Note_on_c, 0, 70, 0
1, 31536, Note_on_c, 0, 68, 69
1, 31581, Note_on_c, 0, 68, 0
1, 31584, Note_on_c, 0, 69, 69
1, 31621, Note_on_c, 1, 64, 0
1, 31621, Note_on_c, 1, 61, 0
1, 31632, Note_on_c, 1, 65, 69
1, 31632, Note_on_c, 1, 62, 69
1, 31680, Note_on_c, 1, 65, 0
1, 31680, Note_on_c, 1, 62, 0
1, 31680, Note_on_c, 1, 64, 69
1, 31680, Note_on_c, 1, 61, 69
1, 31725, Note_on_c, 0, 69, 0
1, 31728, Note_on_c, 0, 70, 69
1, 31773, Note_on_c, 0, 70, 0
1, 31776, Note_on_c, 0, 69, 69
1, 31813, Note_on_c, 1, 64, 0
1, 31813, Note_on_c, 1, 61, 0
1, 31824, Note_on_c, 1, 65, 69
1, 31824, Note_on_c, 1, 62, 69
1, 31872, Note_on_c, 1, 65, 0
1, 31872, Note_on_c, 1, 62, 0
1, 31872, Note_on_c, 1, 64, 69
1, 31872, Note_on_c, 1, 61, 69
1, 31917, Note_on_c, 0, 69, 0
1, 31917, Note_on_c, 1, 64, 0
1, 31917, Note_on_c, 1, 61, 0
1, 31920, Note_on_c, 0, 70, 69
1, 31920, Note_on_c, 1, 65, 69
1, 31920, Note_on_c, 1, 62, 69
1, 31968, Note_on_c, 0, 70, 0
1, 31968, Note_on_c, 0, 69, 69
1, 31968, Note_on_c, 1, 65, 0
1, 31968, Note_on_c, 1, 62, 0
1, 31968, Note_on_c, 1, 64, 69
1, 31968, Note_on_c, 1, 61, 69
1, 32013, Note_on_c, 0, 69, 0
1, 32013, Note_on_c, 1, 64, 0
1, 32013, Note_on_c, 1, 61, 0
1, 32016, Note_on_c, 0, 70, 69
1, 32016, Note_on_c, 1, 65, 69
1, 32016, Note_on_c, 1, 62, 69
1, 32064, Note_on_c, 0, 70, 0
1, 32064, Note_on_c, 0, 69, 69
1, 32064, Note_on_c, 1, 65, 0
1, 32064, Note_on_c, 1, 62, 0
1, 32064, Note_on_c, 1, 64, 69
1, 32064, Note_on_c, 1, 61, 69
1, 32109, Note_on_c, 0, 69, 0
1, 32112, Note_on_c, 0, 76, 69
1, 32135, Note_on_c, 0, 76, 0
1, 32136, Note_on_c, 0, 77, 69
1, 32153, Note_on_c, 1, 64, 0
1, 32153, Note_on_c, 1, 61, 0
1, 32159, Note_on_c, 0, 77, 0
1, 32160, Note_on_c, 0, 81, 69
1, 32183, Note_on_c, 0, 81, 0
1, 32184, Note_on_c, 0, 79, 69
1, 32207, Note_on_c, 0, 79, 0
1, 32208, Note_on_c, 0, 77, 69
1, 32231, Note_on_c, 0, 77, 0
1, 32232, Note_on_c, 0, 76, 69
1, 32255, Note_on_c, 0, 76, 0
1, 32256, Note_on_c, 0, 77, 69
1, 32256, Note_on_c, 1, 62, 69
1, 32301, Note_on_c, 0, 77, 0
1, 32304, Note_on_c, 0, 74, 69
1, 32345, Note_on_c, 1, 62, 0
1, 32349, Note_on_c, 0, 74, 0
1, 32352, Note_on_c, 0, 75, 69
1, 32400, Note_on_c, 1, 70, 69
1, 32400, Note_on_c, 1, 67, 69
1, 32448, Note_on_c, 1, 70, 0
1, 32448, Note_on_c, 1, 67, 0
1, 32448, Note_on_c, 1, 69, 69
1, 32448, Note_on_c, 1, 66, 69
1, 32493, Note_on_c, 0, 75, 0
1, 32496, Note_on_c, 0, 73, 69
1, 32541, Note_on_c, 0, 73, 0
1, 32544, Note_on_c, 0, 74, 69
1, 32581, Note_on_c, 1, 69, 0
1, 32581, Note_on_c, 1, 66, 0
1, 32592, Note_on_c, 1, 70, 69
1, 32592, Note_on_c, 1, 67, 69
1, 32640, Note_on_c, 1, 70, 0
1, 32640, Note_on_c, 1, 67, 0
1, 32640, Note_on_c, 1, 69, 69
1, 32640, Note_on_c, 1, 66, 69
1, 32685, Note_on_c, 0, 74, 0
1, 32688, Note_on_c, 0, 75, 69
1, 32733, Note_on_c, 0, 75, 0
1, 32736, Note_on_c, 0, 74, 69
1, 32773, Note_on_c, 1, 69, 0
1, 32773, Note_on_c, 1, 66, 0
1, 32784, Note_on_c, 1, 70, 69
1, 32784, Note_on_c, 1, 67, 69
1, 32832, Note_on_c, 1, 70, 0
1, 32832, Note_on_c, 1, 67, 0
1, 32832, Note_on_c, 1, 69, 69
1, 32832, Note_on_c, 1, 66, 69
1, 32877, Note_on_c, 0, 74, 0
1, 32877, Note_on_c, 1, 69, 0
1, 32877, Note_on_c, 1, 66, 0
1, 32880, Note_on_c, 0, 75, 69
1, 32880, Note_on_c, 1, 70, 69
1, 32880, Note_on_c, 1, 67, 69
1, 32928, Note_on_c, 0, 75, 0
1, 32928, Note_on_c, 0, 74, 69
1, 32928, Note_on_c, 1, 70, 0
1, 32928, Note_on_c, 1, 67, 0
1, 32928, Note_on_c, 1, 69, 69
1, 32928, Note_on_c, 1, 66, 69
1, 32973, Note_on_c, 0, 74, 0
1, 32973, Note_on_c, 1, 69, 0
1, 32973, Note_on_c, 1, 66, 0
1, 32976, Note_on_c, 0, 75, 69
1, 32976, Note_on_c, 1, 70, 69
1, 32976, Note_on_c, 1, 67, 69
1, 33024, Note_on_c, 0, 75, 0
1, 33024, Note_on_c, 0, 74, 69
1, 33024, Note_on_c, 1, 70, 0
1, 33024, Note_on_c, 1, 67, 0
1, 33024, Note_on_c, 1, 69, 69
1, 33024, Note_on_c, 1, 66, 69
1, 33069, Note_on_c, 0, 74, 0
1, 33072, Note_on_c, 0, 81, 69
1, 33095, Note_on_c, 0, 81, 0
1, 33096, Note_on_c, 0, 82, 69
1, 33113, Note_on_c, 1, 69, 0
1, 33113, Note_on_c, 1, 66, 0
1, 33119, Note_on_c, 0, 82, 0
1, 33120, Note_on_c, 0, 86, 69
1, 33143, Note_on_c, 0, 86, 0
1, 33144, Note_on_c, 0, 84, 69
1, 33167, Note_on_c, 0, 84, 0
1, 33168, Note_on_c, 0, 82, 69
1, 33168, Note_on_c, 1, 74, 69
1, 33168, Note_on_c, 1, 66, 69
1, 33191, Note_on_c, 0, 82, 0
1, 33192, Note_on_c, 0, 81, 69
1, 33213, Note_on_c, 1, 74, 0
1, 33213, Note_on_c, 1, 66, 0
1, 33215, Note_on_c, 0, 81, 0
1, 33216, Note_on_c, 0, 82, 69
1, 33216, Note_on_c, 1, 74, 69
1, 33216, Note_on_c, 1, 67, 69
1, 33239, Note_on_c, 0, 82, 0
1, 33240, Note_on_c, 0, 79, 69
1, 33261, Note_on_c, 1, 74, 0
1, 33261, Note_on_c, 1, 67, 0
1, 33263, Note_on_c, 0, 79, 0
1, 33264, Note_on_c, 0, 81, 69
1, 33287, Note_on_c, 0, 81, 0
1, 33288, Note_on_c, 0, 82, 69
1, 33311, Note_on_c, 0, 82, 0
1, 33312, Note_on_c, 0, 84, 69
1, 33312, Note_on_c, 1, 72, 69
1, 33312, Note_on_c, 1, 64, 69
1, 33335, Note_on_c, 0, 84, 0
1, 33336, Note_on_c, 0, 82, 69
1, 33357, Note_on_c, 1, 72, 0
1, 33357, Note_on_c, 1, 64, 0
1, 33359, Note_on_c, 0, 82, 0
1, 33360, Note_on_c, 0, 81, 69
1, 33383, Note_on_c, 0, 81, 0
1, 33384, Note_on_c, 0, 79, 69
1, 33407, Note_on_c, 0, 79, 0
1, 33408, Note_on_c, 0, 81, 69
1, 33408, Note_on_c, 1, 72, 69
1, 33408, Note_on_c, 1, 65, 69
1, 33431, Note_on_c, 0, 81, 0
1, 33432, Note_on_c, 0, 77, 69
1, 33453, Note_on_c, 1, 72, 0
1, 33453, Note_on_c, 1, 65, 0
1, 33455, Note_on_c, 0, 77, 0
1, 33456, Note_on_c, 0, 79, 69
1, 33479, Note_on_c, 0, 79, 0
1, 33480, Note_on_c, 0, 81, 69
1, 33503, Note_on_c, 0, 81, 0
1, 33504, Note_on_c, 0, 82, 69
1, 33504, Note_on_c, 1, 70, 69
1, 33504, Note_on_c, 1, 62, 69
1, 33527, Note_on_c, 0, 82, 0
1, 33528, Note_on_c, 0, 81, 69
1, 33549, Note_on_c, 1, 70, 0
1, 33549, Note_on_c, 1, 62, 0
1, 33551, Note_on_c, 0, 81, 0
1, 33552, Note_on_c, 0, 79, 69
1, 33575, Note_on_c, 0, 79, 0
1, 33576, Note_on_c, 0, 77, 69
1, 33599, Note_on_c, 0, 77, 0
1, 33600, Note_on_c, 0, 79, 69
1, 33600, Note_on_c, 1, 70, 69
1, 33600, Note_on_c, 1, 64, 69
1, 33623, Note_on_c, 0, 79, 0
1, 33624, Note_on_c, 0, 76, 69
1, 33645, Note_on_c, 1, 70, 0
1, 33645, Note_on_c, 1, 64, 0
1, 33647, Note_on_c, 0, 76, 0
1, 33648, Note_on_c, 0, 77, 69
1, 33671, Note_on_c, 0, 77, 0
1, 33672, Note_on_c, 0, 79, 69
1, 33695, Note_on_c, 0, 79, 0
1, 33696, Note_on_c, 0, 81, 69
1, 33696, Note_on_c, 1, 69, 69
1, 33696, Note_on_c, 1, 61, 69
1, 33719, Note_on_c, 0, 81, 0
1, 33720, Note_on_c, 0, 79, 69
1, 33741, Note_on_c, 1, 69, 0
1, 33741, Note_on_c, 1, 61, 0
1, 33743, Note_on_c, 0, 79, 0
1, 33744, Note_on_c, 0, 77, 69
1, 33767, Note_on_c, 0, 77, 0
1, 33768, Note_on_c, 0, 76, 69
1, 33791, Note_on_c, 0, 76, 0
1, 33792, Note_on_c, 1, 69, 69
1, 33792, Note_on_c, 1, 62, 69
1, 33816, Note_on_c, 0, 77, 69
1, 33837, Note_on_c, 1, 69, 0
1, 33837, Note_on_c, 1, 62, 0
1, 33839, Note_on_c, 0, 77, 0
1, 33840, Note_on_c, 0, 76, 69
1, 33863, Note_on_c, 0, 76, 0
1, 33864, Note_on_c, 0, 74, 69
1, 33887, Note_on_c, 0, 74, 0
1, 33888, Note_on_c, 1, 64, 69
1, 33912, Note_on_c, 0, 79, 69
1, 33933, Note_on_c, 1, 64, 0
1, 33935, Note_on_c, 0, 79, 0
1, 33936, Note_on_c, 0, 77, 69
1, 33959, Note_on_c, 0, 77, 0
1, 33960, Note_on_c, 0, 76, 69
1, 33983, Note_on_c, 0, 76, 0
1, 33984, Note_on_c, 0, 81, 69
1, 33984, Note_on_c, 1, 65, 69
1, 34007, Note_on_c, 0, 81, 0
1, 34008, Note_on_c, 0, 77, 70
1, 34029, Note_on_c, 1, 65, 0
1, 34031, Note_on_c, 0, 77, 0
1, 34032, Note_on_c, 0, 76, 71
1, 34055, Note_on_c, 0, 76, 0
1, 34056, Note_on_c, 0, 74, 73
1, 34079, Note_on_c, 0, 74, 0
1, 34080, Note_on_c, 0, 82, 74
1, 34080, Note_on_c, 1, 67, 69
1, 34103, Note_on_c, 0, 82, 0
1, 34104, Note_on_c, 0, 79, 76
1, 34125, Note_on_c, 1, 67, 0
1, 34127, Note_on_c, 0, 79, 0
1, 34128, Note_on_c, 0, 76, 75
1, 34128, Note_on_c, 1, 68, 69
1, 34151, Note_on_c, 0, 76, 0
1, 34152, Note_on_c, 0, 74, 74
1, 34173, Note_on_c, 1, 68, 0
1, 34175, Note_on_c, 0, 74, 0
1, 34176, Note_on_c, 0, 74, 73
1, 34176, Note_on_c, 1, 69, 69
1, 34188, Note_on_c, 0, 74, 0
1, 34188, Note_on_c, 0, 76, 73
1, 34200, Note_on_c, 0, 76, 0
1, 34200, Note_on_c, 0, 74, 73
1, 34212, Note_on_c, 0, 74, 0
1, 34212, Note_on_c, 0, 76, 73
1, 34221, Note_on_c, 0, 76, 0
1, 34221, Note_on_c, 1, 69, 0
1, 34224, Note_on_c, 0, 73, 71
1, 34224, Note_on_c, 1, 57, 69
1, 34269, Note_on_c, 0, 73, 0
1, 34269, Note_on_c, 1, 57, 0
1, 34368, Note_on_c, 0, 76, 69
1, 34368, Note_on_c, 0, 69, 69
1, 34368, Note_on_c, 1, 49, 69
1, 34391, Note_on_c, 1, 49, 0
1, 34392, Note_on_c, 1, 57, 69
1, 34415, Note_on_c, 1, 57, 0
1, 34416, Note_on_c, 1, 56, 69
1, 34435, Note_on_c, 0, 76, 0
1, 34439, Note_on_c, 1, 56, 0
1, 34440, Note_on_c, 0, 78, 69
1, 34440, Note_on_c, 1, 57, 69
1, 34463, Note_on_c, 0, 78, 0
1, 34463, Note_on_c, 1, 57, 0
1, 34464, Note_on_c, 0, 79, 69
1, 34464, Note_on_c, 1, 49, 69
1, 34487, Note_on_c, 1, 49, 0
1, 34488, Note_on_c, 1, 57, 69
1, 34501, Note_on_c, 0, 69, 0
1, 34509, Note_on_c, 0, 79, 0
1, 34511, Note_on_c, 1, 57, 0
1, 34512, Note_on_c, 0, 79, 69
1, 34512, Note_on_c, 0, 76, 69
1, 34512, Note_on_c, 1, 56, 69
1, 34535, Note_on_c, 1, 56, 0
1, 34536, Note_on_c, 1, 57, 69
1, 34557, Note_on_c, 0, 79, 0
1, 34557, Note_on_c, 0, 76, 0
1, 34559, Note_on_c, 1, 57, 0
1, 34560, Note_on_c, 0, 78, 69
1, 34560, Note_on_c, 0, 74, 69
1, 34560, Note_on_c, 1, 50, 69
1, 34583, Note_on_c, 1, 50, 0
1, 34584, Note_on_c, 1, 57, 70
1, 34607, Note_on_c, 1, 57, 0
1, 34608, Note_on_c, 1, 56, 70
1, 34631, Note_on_c, 1, 56, 0
1, 34632, Note_on_c, 1, 57, 70
1, 34649, Note_on_c, 0, 78, 0
1, 34649, Note_on_c, 0, 74, 0
1, 34655, Note_on_c, 1, 57, 0
1, 34656, Note_on_c, 1, 50, 70
1, 34679, Note_on_c, 1, 50, 0
1, 34680, Note_on_c, 1, 57, 70
1, 34703, Note_on_c, 1, 57, 0
1, 34704, Note_on_c, 1, 56, 70
1, 34727, Note_on_c, 1, 56, 0
1, 34728, Note_on_c, 1, 57, 70
1, 34751, Note_on_c, 1, 57, 0
1, 34752, Note_on_c, 0, 76, 70
1, 34752, Note_on_c, 0, 69, 70
1, 34752, Note_on_c, 1, 49, 70
1, 34775, Note_on_c, 1, 49, 0
1, 34776, Note_on_c, 1, 57, 71
1, 34799, Note_on_c, 1, 57, 0
1, 34800, Note_on_c, 1, 56, 71
1, 34819, Note_on_c, 0, 76, 0
1, 34823, Note_on_c, 1, 56, 0
1, 34824, Note_on_c, 0, 78, 71
1, 34824, Note_on_c, 1, 57, 71
1, 34847, Note_on_c, 0, 78, 0
1, 34847, Note_on_c, 1, 57, 0
1, 34848, Note_on_c, 0, 79, 71
1, 34848, Note_on_c, 1, 49, 71
1, 34871, Note_on_c, 1, 49, 0
1, 34872, Note_on_c, 1, 57, 71
1, 34885, Note_on_c, 0, 69, 0
1, 34893, Note_on_c, 0, 79, 0
1, 34895, Note_on_c, 1, 57, 0
1, 34896, Note_on_c, 0, 79, 71
1, 34896, Note_on_c, 0, 76, 71
1, 34896, Note_on_c, 1, 56, 71
1, 34919, Note_on_c, 1, 56, 0
1, 34920, Note_on_c, 1, 57, 71
1, 34941, Note_on_c, 0, 79, 0
1, 34941, Note_on_c, 0, 76, 0
1, 34943, Note_on_c, 1, 57, 0
1, 34944, Note_on_c, 0, 78, 71
1, 34944, Note_on_c, 0, 74, 71
1, 34944, Note_on_c, 1, 50, 71
1, 34967, Note_on_c, 1, 50, 0
1, 34968, Note_on_c, 1, 57, 72
1, 34991, Note_on_c, 1, 57, 0
1, 34992, Note_on_c, 1, 56, 72
1, 35015, Note_on_c, 1, 56, 0
1, 35016, Note_on_c, 1, 57, 72
1, 35033, Note_on_c, 0, 78, 0
1, 35033, Note_on_c, 0, 74, 0
1, 35039, Note_on_c, 1, 57, 0
1, 35040, Note_on_c, 1, 50, 72
1, 35063, Note_on_c, 1, 50, 0
1, 35064, Note_on_c, 1, 57, 72
1, 35087, Note_on_c, 1, 57, 0
1, 35088, Note_on_c, 1, 56, 72
1, 35111, Note_on_c, 1, 56, 0
1, 35112, Note_on_c, 1, 57, 72
1, 35135, Note_on_c, 1, 57, 0
1, 35136, Note_on_c, 0, 81, 72
1, 35136, Note_on_c, 0, 74, 72
1, 35136, Note_on_c, 1, 54, 72
1, 35159, Note_on_c, 1, 54, 0
1, 35160, Note_on_c, 1, 62, 73
1, 35183, Note_on_c, 1, 62, 0
1, 35184, Note_on_c, 1, 61, 73
1, 35203, Note_on_c, 0, 81, 0
1, 35207, Note_on_c, 1, 61, 0
1, 35208, Note_on_c, 0, 83, 73
1, 35208, Note_on_c, 1, 62, 73
1, 35231, Note_on_c, 0, 83, 0
1, 35231, Note_on_c, 1, 62, 0
1, 35232, Note_on_c, 0, 84, 73
1, 35232, Note_on_c, 1, 54, 73
1, 35255, Note_on_c, 1, 54, 0
1, 35256, Note_on_c, 1, 62, 73
1, 35269, Note_on_c, 0, 74, 0
1, 35277, Note_on_c, 0, 84, 0
1, 35279, Note_on_c, 1, 62, 0
1, 35280, Note_on_c, 0, 84, 73
1, 35280, Note_on_c, 0, 81, 73
1, 35280, Note_on_c, 1, 61, 73
1, 35303, Note_on_c, 1, 61, 0
1, 35304, Note_on_c, 1, 62, 73
1, 35325, Note_on_c, 0, 84, 0
1, 35325, Note_on_c, 0, 81, 0
1, 35327, Note_on_c, 1, 62, 0
1, 35328, Note_on_c, 0, 83, 73
1, 35328, Note_on_c, 0, 79, 73
1, 35328, Note_on_c, 1, 55, 73
1, 35351, Note_on_c, 1, 55, 0
1, 35352, Note_on_c, 1, 62, 74
1, 35375, Note_on_c, 1, 62, 0
1, 35376, Note_on_c, 1, 61, 74
1, 35399, Note_on_c, 1, 61, 0
1, 35400, Note_on_c, 1, 62, 74
1, 35417, Note_on_c, 0, 83, 0
1, 35417, Note_on_c, 0, 79, 0
1, 35423, Note_on_c, 1, 62, 0
1, 35424, Note_on_c, 1, 55, 74
1, 35447, Note_on_c, 1, 55, 0
1, 35448, Note_on_c, 1, 62, 74
1, 35471, Note_on_c, 1, 62, 0
1, 35472, Note_on_c, 1, 61, 74
1, 35495, Note_on_c, 1, 61, 0
1, 35496, Note_on_c, 1, 62, 74
1, 35519, Note_on_c, 1, 62, 0
1, 35520, Note_on_c, 0, 83, 74
1, 35520, Note_on_c, 0, 76, 74
1, 35520, Note_on_c, 1, 56, 74
1, 35543, Note_on_c, 1, 56, 0
1, 35544, Note_on_c, 1, 64, 75
1, 35567, Note_on_c, 1, 64, 0
1, 35568, Note_on_c, 1, 63, 75
1, 35587, Note_on_c, 0, 83, 0
1, 35591, Note_on_c, 1, 63, 0
1, 35592, Note_on_c, 0, 85, 74
1, 35592, Note_on_c, 1, 64, 75
1, 35615, Note_on_c, 0, 85, 0
1, 35615, Note_on_c, 1, 64, 0
1, 35616, Note_on_c, 0, 86, 75
1, 35616, Note_on_c, 1, 56, 75
1, 35639, Note_on_c, 1, 56, 0
1, 35640, Note_on_c, 1, 64, 75
1, 35653, Note_on_c, 0, 76, 0
1, 35661, Note_on_c, 0, 86, 0
1, 35663, Note_on_c, 1, 64, 0
1, 35664, Note_on_c, 0, 86, 75
1, 35664, Note_on_c, 0, 83, 75
1, 35664, Note_on_c, 1, 63, 75
1, 35687, Note_on_c, 1, 63, 0
1, 35688, Note_on_c, 1, 64, 75
1, 35709, Note_on_c, 0, 86, 0
1, 35709, Note_on_c, 0, 83, 0
1, 35711, Note_on_c, 1, 64, 0
1, 35712, Note_on_c, 0, 85, 75
1, 35712, Note_on_c, 0, 81, 75
1, 35712, Note_on_c, 1, 57, 75
1, 35735, Note_on_c, 1, 57, 0
1, 35736, Note_on_c, 1, 64, 76
1, 35759, Note_on_c, 1, 64, 0
1, 35760, Note_on_c, 1, 63, 76
1, 35783, Note_on_c, 1, 63, 0
1, 35784, Note_on_c, 1, 64, 76
1, 35801, Note_on_c, 0, 85, 0
1, 35801, Note_on_c, 0, 81, 0
1, 35807, Note_on_c, 1, 64, 0
1, 35808, Note_on_c, 1, 57, 76
1, 35831, Note_on_c, 1, 57, 0
1, 35832, Note_on_c, 1, 64, 76
1, 35855, Note_on_c, 1, 64, 0
1, 35856, Note_on_c, 1, 63, 76
1, 35879, Note_on_c, 1, 63, 0
1, 35880, Note_on_c, 1, 64, 76
1, 35903, Note_on_c, 1, 64, 0
1, 35904, Note_on_c, 1, 61, 76
1, 35904, Note_on_c, 1, 57, 76
1, 35928, Note_on_c, 0, 76, 76
1, 35949, Note_on_c, 1, 61, 0
1, 35949, Note_on_c, 1, 57, 0
1, 35951, Note_on_c, 0, 76, 0
1, 35952, Note_on_c, 0, 74, 76
1, 35975, Note_on_c, 0, 74, 0
1, 35976, Note_on_c, 0, 73, 76
1, 35999, Note_on_c, 0, 73, 0
1, 36000, Note_on_c, 0, 71, 76
1, 36023, Note_on_c, 0, 71, 0
1, 36024, Note_on_c, 0, 69, 76
1, 36047, Note_on_c, 0, 69, 0
1, 36048, Note_on_c, 0, 68, 76
1, 36071, Note_on_c, 0, 68, 0
1, 36072, Note_on_c, 0, 69, 76
1, 36095, Note_on_c, 0, 69, 0
1, 36096, Note_on_c, 1, 62, 76
1, 36096, Note_on_c, 1, 59, 76
1, 36120, Note_on_c, 0, 76, 76
1, 36141, Note_on_c, 1, 62, 0
1, 36141, Note_on_c, 1, 59, 0
1, 36143, Note_on_c, 0, 76, 0
1, 36144, Note_on_c, 0, 74, 76
1, 36167, Note_on_c, 0, 74, 0
1, 36168, Note_on_c, 0, 73, 76
1, 36191, Note_on_c, 0, 73, 0
1, 36192, Note_on_c, 0, 71, 76
1, 36215, Note_on_c, 0, 71, 0
1, 36216, Note_on_c, 0, 69, 76
1, 36239, Note_on_c, 0, 69, 0
1, 36240, Note_on_c, 0, 68, 76
1, 36263, Note_on_c, 0, 68, 0
1, 36264, Note_on_c, 0, 69, 76
1, 36287, Note_on_c, 0, 69, 0
1, 36288, Note_on_c, 1, 64, 76
1, 36288, Note_on_c, 1, 61, 76
1, 36312, Note_on_c, 0, 79, 76
1, 36335, Note_on_c, 0, 79, 0
1, 36336, Note_on_c, 0, 78, 76
1, 36359, Note_on_c, 0, 78, 0
1, 36360, Note_on_c, 0, 76, 76
1, 36383, Note_on_c, 0, 76, 0
1, 36384, Note_on_c, 0, 74, 76
1, 36407, Note_on_c, 0, 74, 0
1, 36408, Note_on_c, 0, 73, 76
1, 36431, Note_on_c, 0, 73, 0
1, 36432, Note_on_c, 0, 71, 76
1, 36455, Note_on_c, 0, 71, 0
1, 36456, Note_on_c, 0, 69, 76
1, 36465, Note_on_c, 1, 64, 0
1, 36465, Note_on_c, 1, 61, 0
1, 36479, Note_on_c, 0, 69, 0
1, 36480, Note_on_c, 0, 67, 76
1, 36504, Note_on_c, 1, 50, 76
1, 36527, Note_on_c, 1, 50, 0
1, 36528, Note_on_c, 0, 67, 0
1, 36528, Note_on_c, 0, 66, 76
1, 36528, Note_on_c, 1, 54, 76
1, 36551, Note_on_c, 1, 54, 0
1, 36552, Note_on_c, 1, 57, 76
1, 36573, Note_on_c, 0, 66, 0
1, 36575, Note_on_c, 1, 57, 0
1, 36576, Note_on_c, 1, 62, 76
1, 36621, Note_on_c, 1, 62, 0
1, 36624, Note_on_c, 1, 50, 76
1, 36669, Note_on_c, 1, 50, 0
1, 36672, Note_on_c, 1, 62, 76
1, 36672, Note_on_c, 1, 55, 83
1, 36696, Note_on_c, 0, 71, 76
1, 36719, Note_on_c, 0, 71, 0
1, 36720, Note_on_c, 0, 73, 76
1, 36743, Note_on_c, 0, 73, 0
1, 36744, Note_on_c, 0, 74, 76
1, 36761, Note_on_c, 1, 62, 0
1, 36761, Note_on_c, 1, 55, 0
1, 36767, Note_on_c, 0, 74, 0
1, 36768, Note_on_c, 1, 62, 76
1, 36768, Note_on_c, 1, 54, 83
1, 36792, Note_on_c, 0, 69, 76
1, 36815, Note_on_c, 0, 69, 0
1, 36816, Note_on_c, 0, 73, 76
1, 36839, Note_on_c, 0, 73, 0
1, 36840, Note_on_c, 0, 74, 76
1, 36857, Note_on_c, 1, 54, 0
1, 36863, Note_on_c, 0, 74, 0
1, 36864, Note_on_c, 0, 67, 76
1, 36864, Note_on_c, 1, 52, 83
1, 36887, Note_on_c, 0, 67, 0
1, 36888, Note_on_c, 0, 71, 76
1, 36909, Note_on_c, 1, 62, 0
1, 36911, Note_on_c, 0, 71, 0
1, 36912, Note_on_c, 0, 69, 76
1, 36912, Note_on_c, 1, 61, 76
1, 36935, Note_on_c, 0, 69, 0
1, 36936, Note_on_c, 0, 67, 76
1, 36953, Note_on_c, 1, 52, 0
1, 36957, Note_on_c, 1, 61, 0
1, 36959, Note_on_c, 0, 67, 0
1, 36960, Note_on_c, 0, 67, 76
1, 36960, Note_on_c, 1, 62, 76
1, 36960, Note_on_c, 1, 50, 83
1, 36983, Note_on_c, 0, 67, 0
1, 36984, Note_on_c, 0, 66, 76
1, 37005, Note_on_c, 1, 62, 0
1, 37005, Note_on_c, 1, 50, 0
1, 37007, Note_on_c, 0, 66, 0
1, 37008, Note_on_c, 0, 64, 76
1, 37031, Note_on_c, 0, 64, 0
1, 37032, Note_on_c, 0, 62, 76
1, 37055, Note_on_c, 0, 62, 0
1, 37056, Note_on_c, 1, 62, 61
1, 37056, Note_on_c, 1, 55, 83
1, 37080, Note_on_c, 0, 71, 61
1, 37103, Note_on_c, 0, 71, 0
1, 37104, Note_on_c, 0, 73, 61
1, 37127, Note_on_c, 0, 73, 0
1, 37128, Note_on_c, 0, 74, 61
1, 37145, Note_on_c, 1, 62, 0
1, 37145, Note_on_c, 1, 55, 0
1, 37151, Note_on_c, 0, 74, 0
1, 37152, Note_on_c, 1, 62, 61
1, 37152, Note_on_c, 1, 54, 83
1, 37176, Note_on_c, 0, 69, 61
1, 37199, Note_on_c, 0, 69, 0
1, 37200, Note_on_c, 0, 73, 61
1, 37223, Note_on_c, 0, 73, 0
1, 37224, Note_on_c, 0, 74, 61
1, 37241, Note_on_c, 1, 54, 0
1, 37247, Note_on_c, 0, 74, 0
1, 37248, Note_on_c, 0, 67, 61
1, 37248, Note_on_c, 1, 52, 83
1, 37271, Note_on_c, 0, 67, 0
1, 37272, Note_on_c, 0, 71, 61
1, 37293, Note_on_c, 1, 62, 0
1, 37295, Note_on_c, 0, 71, 0
1, 37296, Note_on_c, 0, 69, 61
1, 37296, Note_on_c, 1, 61, 61
1, 37319, Note_on_c, 0, 69, 0
1, 37320, Note_on_c, 0, 67, 61
1, 37337, Note_on_c, 1, 52, 0
1, 37341, Note_on_c, 1, 61, 0
1, 37343, Note_on_c, 0, 67, 0
1, 37344, Note_on_c, 0, 67, 61
1, 37344, Note_on_c, 1, 62, 61
1, 37344, Note_on_c, 1, 50, 83
1, 37367, Note_on_c, 0, 67, 0
1, 37368, Note_on_c, 0, 66, 68
1, 37389, Note_on_c, 1, 62, 0
1, 37389, Note_on_c, 1, 50, 0
1, 37391, Note_on_c, 0, 66, 0
1, 37392, Note_on_c, 0, 64, 75
1, 37415, Note_on_c, 0, 64, 0
1, 37416, Note_on_c, 0, 62, 82
1, 37439, Note_on_c, 0, 62, 0
1, 37440, Note_on_c, 1, 58, 89
1, 37440, Note_on_c, 1, 46, 89
1, 37464, Note_on_c, 0, 62, 89
1, 37487, Note_on_c, 0, 62, 0
1, 37488, Note_on_c, 0, 68, 89
1, 37511, Note_on_c, 0, 68, 0
1, 37512, Note_on_c, 0, 62, 89
1, 37535, Note_on_c, 0, 62, 0
1, 37536, Note_on_c, 0, 74, 89
1, 37559, Note_on_c, 0, 74, 0
1, 37560, Note_on_c, 0, 62, 89
1, 37583, Note_on_c, 0, 62, 0
1, 37584, Note_on_c, 0, 68, 89
1, 37607, Note_on_c, 0, 68, 0
1, 37608, Note_on_c, 0, 62, 89
1, 37617, Note_on_c, 1, 58, 0
1, 37617, Note_on_c, 1, 46, 0
1, 37631, Note_on_c, 0, 62, 0
1, 37632, Note_on_c, 1, 59, 89
1, 37632, Note_on_c, 1, 47, 89
1, 37656, Note_on_c, 0, 62, 89
1, 37679, Note_on_c, 0, 62, 0
1, 37680, Note_on_c, 0, 68, 89
1, 37703, Note_on_c, 0, 68, 0
1, 37704, Note_on_c, 0, 62, 89
1, 37727, Note_on_c, 0, 62, 0
1, 37728, Note_on_c, 0, 74, 89
1, 37751, Note_on_c, 0, 74, 0
1, 37752, Note_on_c, 0, 62, 89
1, 37775, Note_on_c, 0, 62, 0
1, 37776, Note_on_c, 0, 68, 89
1, 37799, Note_on_c, 0, 68, 0
1, 37800, Note_on_c, 0, 62, 89
1, 37809, Note_on_c, 1, 59, 0
1, 37809, Note_on_c, 1, 47, 0
1, 37823, Note_on_c, 0, 62, 0
1, 37824, Note_on_c, 1, 56, 89
1, 37824, Note_on_c, 1, 44, 89
1, 37848, Note_on_c, 0, 64, 89
1, 37871, Note_on_c, 0, 64, 0
1, 37872, Note_on_c, 0, 71, 89
1, 37895, Note_on_c, 0, 71, 0
1, 37896, Note_on_c, 0, 64, 89
1, 37919, Note_on_c, 0, 64, 0
1, 37920, Note_on_c, 0, 74, 89
1, 37943, Note_on_c, 0, 74, 0
1, 37944, Note_on_c, 0, 64, 89
1, 37967, Note_on_c, 0, 64, 0
1, 37968, Note_on_c, 0, 71, 89
1, 37991, Note_on_c, 0, 71, 0
1, 37992, Note_on_c, 0, 64, 89
1, 38001, Note_on_c, 1, 56, 0
1, 38001, Note_on_c, 1, 44, 0
1, 38015, Note_on_c, 0, 64, 0
1, 38016, Note_on_c, 1, 61, 89
1, 38016, Note_on_c, 1, 49, 89
1, 38040, Note_on_c, 0, 67, 89
1, 38063, Note_on_c, 0, 67, 0
1, 38064, Note_on_c, 0, 69, 89
1, 38087, Note_on_c, 0, 69, 0
1, 38088, Note_on_c, 0, 67, 89
1, 38111, Note_on_c, 0, 67, 0
1, 38112, Note_on_c, 0, 76, 89
1, 38135, Note_on_c, 0, 76, 0
1, 38136, Note_on_c, 0, 67, 89
1, 38159, Note_on_c, 0, 67, 0
1, 38160, Note_on_c, 0, 69, 89
1, 38183, Note_on_c, 0, 69, 0
1, 38184, Note_on_c, 0, 67, 89
1, 38193, Note_on_c, 1, 61, 0
1, 38193, Note_on_c, 1, 49, 0
1, 38207, Note_on_c, 0, 67, 0
1, 38208, Note_on_c, 1, 58, 89
1, 38208, Note_on_c, 1, 46, 89
1, 38232, Note_on_c, 0, 67, 89
1, 38255, Note_on_c, 0, 67, 0
1, 38256, Note_on_c, 0, 73, 89
1, 38279, Note_on_c, 0, 73, 0
1, 38280, Note_on_c, 0, 67, 89
1, 38303, Note_on_c, 0, 67, 0
1, 38304, Note_on_c, 0, 76, 89
1, 38327, Note_on_c, 0, 76, 0
1, 38328, Note_on_c, 0, 67, 89
1, 38351, Note_on_c, 0, 67, 0
1, 38352, Note_on_c, 0, 73, 89
1, 38375, Note_on_c, 0, 73, 0
1, 38376, Note_on_c, 0, 67, 89
1, 38385, Note_on_c, 1, 58, 0
1, 38385, Note_on_c, 1, 46, 0
1, 38399, Note_on_c, 0, 67, 0
1, 38400, Note_on_c, 1, 59, 89
1, 38400, Note_on_c, 1, 47, 89
1, 38424, Note_on_c, 0, 66, 89
1, 38447, Note_on_c, 0, 66, 0
1, 38448, Note_on_c, 0, 74, 89
1, 38471, Note_on_c, 0, 74, 0
1, 38472, Note_on_c, 0, 66, 89
1, 38489, Note_on_c, 1, 59, 0
1, 38489, Note_on_c, 1, 47, 0
1, 38495, Note_on_c, 0, 66, 0
1, 38496, Note_on_c, 1, 56, 89
1, 38496, Note_on_c, 1, 44, 89
1, 38520, Note_on_c, 0, 64, 89
1, 38543, Note_on_c, 0, 64, 0
1, 38544, Note_on_c, 0, 74, 89
1, 38567, Note_on_c, 0, 74, 0
1, 38568, Note_on_c, 0, 64, 89
1, 38585, Note_on_c, 1, 56, 0
1, 38585, Note_on_c, 1, 44, 0
1, 38591, Note_on_c, 0, 64, 0
1, 38592, Note_on_c, 1, 57, 89
1, 38592, Note_on_c, 1, 45, 89
1, 38616, Note_on_c, 0, 64, 89
1, 38639, Note_on_c, 0, 64, 0
1, 38640, Note_on_c, 0, 73, 89
1, 38663, Note_on_c, 0, 73, 0
1, 38664, Note_on_c, 0, 64, 89
1, 38681, Note_on_c, 1, 57, 0
1, 38681, Note_on_c, 1, 45, 0
1, 38687, Note_on_c, 0, 64, 0
1, 38688, Note_on_c, 1, 61, 89
1, 38688, Note_on_c, 1, 49, 89
1, 38712, Note_on_c, 0, 67, 89
1, 38735, Note_on_c, 0, 67, 0
1, 38736, Note_on_c, 0, 76, 89
1, 38759, Note_on_c, 0, 76, 0
1, 38760, Note_on_c, 0, 67, 89
1, 38777, Note_on_c, 1, 61, 0
1, 38777, Note_on_c, 1, 49, 0
1, 38783, Note_on_c, 0, 67, 0
1, 38784, Note_on_c, 1, 62, 89
1, 38784, Note_on_c, 1, 50, 89
1, 38808, Note_on_c, 0, 66, 89
1, 38831, Note_on_c, 0, 66, 0
1, 38832, Note_on_c, 0, 74, 89
1, 38855, Note_on_c, 0, 74, 0
1, 38856, Note_on_c, 0, 66, 89
1, 38873, Note_on_c, 1, 62, 0
1, 38873, Note_on_c, 1, 50, 0
1, 38879, Note_on_c, 0, 66, 0
1, 38880, Note_on_c, 1, 56, 89
1, 38880, Note_on_c, 1, 44, 89
1, 38904, Note_on_c, 0, 66, 89
1, 38927, Note_on_c, 0, 66, 0
1, 38928, Note_on_c, 0, 74, 89
1, 38951, Note_on_c, 0, 74, 0
1, 38952, Note_on_c, 0, 66, 89
1, 38969, Note_on_c, 1, 56, 0
1, 38969, Note_on_c, 1, 44, 0
1, 38975, Note_on_c, 0, 66, 0
1, 38976, Note_on_c, 0, 73, 89
1, 38976, Note_on_c, 0, 64, 89
1, 38976, Note_on_c, 1, 57, 89
1, 38976, Note_on_c, 1, 45, 89
1, 39065, Note_on_c, 0, 73, 0
1, 39065, Note_on_c, 0, 64, 0
1, 39065, Note_on_c, 1, 57, 0
1, 39065, Note_on_c, 1, 45, 0
1, 39168, Note_on_c, 0, 78, 69
1, 39168, Note_on_c, 0, 74, 69
1, 39235, Note_on_c, 0, 78, 0
1, 39235, Note_on_c, 0, 74, 0
1, 39240, Note_on_c, 0, 79, 69
1, 39240, Note_on_c, 0, 76, 69
1, 39263, Note_on_c, 0, 79, 0
1, 39263, Note_on_c, 0, 76, 0
1, 39264, Note_on_c, 0, 81, 69
1, 39264, Note_on_c, 0, 78, 69
1, 39309, Note_on_c, 0, 81, 0
1, 39309, Note_on_c, 0, 78, 0
1, 39312, Note_on_c, 0, 79, 69
1, 39312, Note_on_c, 0, 76, 69
1, 39312, Note_on_c, 1, 69, 69
1, 39357, Note_on_c, 0, 79, 0
1, 39357, Note_on_c, 0, 76, 0
1, 39357, Note_on_c, 1, 69, 0
1, 39360, Note_on_c, 0, 78, 69
1, 39360, Note_on_c, 0, 74, 69
1, 39360, Note_on_c, 1, 71, 69
1, 39454, Note_on_c, 0, 78, 0
1, 39454, Note_on_c, 0, 74, 0
1, 39454, Note_on_c, 1, 71, 0
1, 39552, Note_on_c, 0, 78, 61
1, 39552, Note_on_c, 0, 74, 61
1, 39619, Note_on_c, 0, 78, 0
1, 39619, Note_on_c, 0, 74, 0
1, 39624, Note_on_c, 0, 79, 61
1, 39624, Note_on_c, 0, 76, 61
1, 39647, Note_on_c, 0, 79, 0
1, 39647, Note_on_c, 0, 76, 0
1, 39648, Note_on_c, 0, 81, 61
1, 39648, Note_on_c, 0, 78, 61
1, 39693, Note_on_c, 0, 81, 0
1, 39693, Note_on_c, 0, 78, 0
1, 39696, Note_on_c, 0, 79, 61
1, 39696, Note_on_c, 0, 76, 61
1, 39696, Note_on_c, 1, 69, 61
1, 39741, Note_on_c, 0, 79, 0
1, 39741, Note_on_c, 0, 76, 0
1, 39741, Note_on_c, 1, 69, 0
1, 39744, Note_on_c, 0, 78, 61
1, 39744, Note_on_c, 0, 74, 61
1, 39744, Note_on_c, 1, 71, 61
1, 39838, Note_on_c, 0, 78, 0
1, 39838, Note_on_c, 0, 74, 0
1, 39838, Note_on_c, 1, 71, 0
1, 39936, Note_on_c, 0, 78, 69
1, 39936, Note_on_c, 0, 74, 69
1, 40003, Note_on_c, 0, 78, 0
1, 40003, Note_on_c, 0, 74, 0
1, 40008, Note_on_c, 0, 79, 69
1, 40008, Note_on_c, 0, 76, 69
1, 40031, Note_on_c, 0, 79, 0
1, 40031, Note_on_c, 0, 76, 0
1, 40032, Note_on_c, 0, 81, 69
1, 40032, Note_on_c, 0, 78, 69
1, 40077, Note_on_c, 0, 81, 0
1, 40077, Note_on_c, 0, 78, 0
1, 40080, Note_on_c, 0, 79, 69
1, 40080, Note_on_c, 0, 76, 69
1, 40080, Note_on_c, 1, 57, 69
1, 40125, Note_on_c, 0, 79, 0
1, 40125, Note_on_c, 0, 76, 0
1, 40125, Note_on_c, 1, 57, 0
1, 40128, Note_on_c, 0, 78, 69
1, 40128, Note_on_c, 0, 74, 69
1, 40128, Note_on_c, 1, 59, 83
1, 40173, Note_on_c, 0, 78, 0
1, 40173, Note_on_c, 0, 74, 0
1, 40173, Note_on_c, 1, 59, 0
1, 40176, Note_on_c, 0, 86, 71
1, 40176, Note_on_c, 1, 59, 69
1, 40176, Note_on_c, 1, 54, 83
1, 40221, Note_on_c, 0, 86, 0
1, 40221, Note_on_c, 1, 59, 0
1, 40221, Note_on_c, 1, 54, 0
1, 40224, Note_on_c, 0, 85, 73
1, 40224, Note_on_c, 1, 62, 69
1, 40224, Note_on_c, 1, 55, 83
1, 40247, Note_on_c, 0, 85, 0
1, 40248, Note_on_c, 0, 83, 74
1, 40271, Note_on_c, 0, 83, 0
1, 40272, Note_on_c, 0, 81, 76
1, 40295, Note_on_c, 0, 81, 0
1, 40296, Note_on_c, 0, 79, 74
1, 40313, Note_on_c, 1, 62, 0
1, 40313, Note_on_c, 1, 55, 0
1, 40319, Note_on_c, 0, 79, 0
1, 40320, Note_on_c, 0, 79, 73
1, 40320, Note_on_c, 1, 62, 69
1, 40320, Note_on_c, 1, 57, 69
1, 40343, Note_on_c, 0, 79, 0
1, 40344, Note_on_c, 0, 78, 72
1, 40367, Note_on_c, 0, 78, 0
1, 40368, Note_on_c, 0, 76, 71
1, 40391, Note_on_c, 0, 76, 0
1, 40392, Note_on_c, 0, 74, 70
1, 40409, Note_on_c, 1, 62, 0
1, 40409, Note_on_c, 1, 57, 0
1, 40415, Note_on_c, 0, 74, 0
1, 40416, Note_on_c, 0, 78, 69
1, 40416, Note_on_c, 1, 61, 69
1, 40416, Note_on_c, 1, 57, 69
1, 40431, Note_on_c, 0, 78, 0
1, 40432, Note_on_c, 0, 76, 69
1, 40447, Note_on_c, 0, 76, 0
1, 40448, Note_on_c, 0, 78, 69
1, 40463, Note_on_c, 0, 78, 0
1, 40464, Note_on_c, 0, 76, 69
1, 40479, Note_on_c, 0, 76, 0
1, 40480, Note_on_c, 0, 74, 69
1, 40495, Note_on_c, 0, 74, 0
1, 40496, Note_on_c, 0, 76, 69
1, 40505, Note_on_c, 1, 61, 0
1, 40505, Note_on_c, 1, 57, 0
1, 40511, Note_on_c, 0, 76, 0
1, 40512, Note_on_c, 0, 74, 69
1, 40512, Note_on_c, 1, 62, 69
1, 40512, Note_on_c, 1, 50, 69
1, 40601, Note_on_c, 0, 74, 0
1, 40601, Note_on_c, 1, 62, 0
1, 40601, Note_on_c, 1, 50, 0
1, 40608, Note_on_c, 0, 81, 76
1, 40631, Note_on_c, 0, 81, 0
1, 40632, Note_on_c, 0, 78, 76
1, 40655, Note_on_c, 0, 78, 0
1, 40656, Note_on_c, 0, 74, 76
1, 40656, Note_on_c, 1, 66, 76
1, 40679, Note_on_c, 0, 74, 0
1, 40680, Note_on_c, 0, 69, 76
1, 40701, Note_on_c, 1, 66, 0
1, 40703, Note_on_c, 0, 69, 0
1, 40704, Note_on_c, 0, 70, 76
1, 40704, Note_on_c, 1, 67, 76
1, 40749, Note_on_c, 1, 67, 0
1, 40752, Note_on_c, 0, 70, 0
1, 40752, Note_on_c, 0, 71, 76
1, 40752, Note_on_c, 1, 55, 76
1, 40797, Note_on_c, 0, 71, 0
1, 40797, Note_on_c, 1, 55, 0
1, 40800, Note_on_c, 0, 79, 76
1, 40823, Note_on_c, 0, 79, 0
1, 40824, Note_on_c, 0, 76, 76
1, 40847, Note_on_c, 0, 76, 0
1, 40848, Note_on_c, 0, 73, 76
1, 40848, Note_on_c, 1, 64, 76
1, 40848, Note_on_c, 1, 57, 76
1, 40871, Note_on_c, 0, 73, 0
1, 40872, Note_on_c, 0, 69, 76
1, 40893, Note_on_c, 1, 64, 0
1, 40893, Note_on_c, 1, 57, 0
1, 40895, Note_on_c, 0, 69, 0
1, 40896, Note_on_c, 0, 73, 76
1, 40896, Note_on_c, 1, 62, 76
1, 40941, Note_on_c, 1, 62, 0
1, 40944, Note_on_c, 0, 73, 0
1, 40944, Note_on_c, 0, 74, 76
1, 40944, Note_on_c, 1, 50, 76
1, 40989, Note_on_c, 0, 74, 0
1, 40989, Note_on_c, 1, 50, 0
1, 40992, Note_on_c, 0, 81, 69
1, 41015, Note_on_c, 0, 81, 0
1, 41016, Note_on_c, 0, 78, 69
1, 41039, Note_on_c, 0, 78, 0
1, 41040, Note_on_c, 0, 74, 69
1, 41040, Note_on_c, 1, 66, 61
1, 41063, Note_on_c, 0, 74, 0
1, 41064, Note_on_c, 0, 69, 69
1, 41085, Note_on_c, 1, 66, 0
1, 41087, Note_on_c, 0, 69, 0
1, 41088, Note_on_c, 0, 70, 69
1, 41088, Note_on_c, 1, 67, 61
1, 41133, Note_on_c, 1, 67, 0
1, 41136, Note_on_c, 0, 70, 0
1, 41136, Note_on_c, 0, 71, 69
1, 41136, Note_on_c, 1, 55, 61
1, 41181, Note_on_c, 0, 71, 0
1, 41181, Note_on_c, 1, 55, 0
1, 41184, Note_on_c, 0, 79, 69
1, 41207, Note_on_c, 0, 79, 0
1, 41208, Note_on_c, 0, 76, 69
1, 41231, Note_on_c, 0, 76, 0
1, 41232, Note_on_c, 0, 73, 69
1, 41232, Note_on_c, 1, 64, 61
1, 41232, Note_on_c, 1, 57, 61
1, 41255, Note_on_c, 0, 73, 0
1, 41256, Note_on_c, 0, 69, 69
1, 41277, Note_on_c, 1, 64, 0
1, 41277, Note_on_c, 1, 57, 0
1, 41279, Note_on_c, 0, 69, 0
1, 41280, Note_on_c, 0, 76, 61
1, 41280, Note_on_c, 1, 62, 61
1, 41292, Note_on_c, 0, 76, 0
1, 41292, Note_on_c, 0, 74, 61
1, 41304, Note_on_c, 0, 74, 0
1, 41304, Note_on_c, 0, 73, 61
1, 41316, Note_on_c, 0, 73, 0
1, 41316, Note_on_c, 0, 74, 61
1, 41325, Note_on_c, 1, 62, 0
1, 41328, Note_on_c, 1, 50, 61
1, 41369, Note_on_c, 0, 74, 0
1, 41373, Note_on_c, 1, 50, 0
1, 41472, Note_on_c, 1, 50, 0
1, 41517, Note_on_c, 1, 50, 0
1, 41527, End_track
0, 0, End_of_file