0, 0, Header, 0, 1, 96
1, 0, Start_track
1, 0, Tempo, 120000
1, 336, Tempo, 625000
1, 336, Note_on_c, 0, 67, 75
1, 356, Note_on_c, 0, 67, 0
1, 384, Note_on_c, 0, 70, 75
1, 432, Note_on_c, 1, 51, 75
1, 452, Note_on_c, 1, 51, 0
1, 480, Note_on_c, 1, 55, 75
1, 525, Note_on_c, 0, 70, 0
1, 528, Note_on_c, 0, 67, 75
1, 562, Note_on_c, 0, 67, 0
1, 564, Note_on_c, 0, 68, 75
1, 569, Note_on_c, 1, 55, 0
1, 576, Note_on_c, 0, 68, 0
1, 576, Note_on_c, 0, 70, 75
1, 624, Note_on_c, 1, 51, 75
1, 658, Note_on_c, 1, 51, 0
1, 660, Note_on_c, 1, 53, 75
1, 672, Note_on_c, 1, 53, 0
1, 672, Note_on_c, 1, 55, 75
1, 717, Note_on_c, 0, 70, 0
1, 720, Note_on_c, 0, 67, 75
1, 754, Note_on_c, 0, 67, 0
1, 756, Note_on_c, 0, 68, 75
1, 761, Note_on_c, 1, 55, 0
1, 768, Note_on_c, 0, 68, 0
1, 768, Note_on_c, 0, 70, 75
1, 788, Note_on_c, 0, 70, 0
1, 816, Note_on_c, 0, 67, 75
1, 816, Note_on_c, 1, 63, 75
1, 850, Note_on_c, 0, 67, 0
1, 850, Note_on_c, 1, 63, 0
1, 852, Note_on_c, 0, 68, 75
1, 852, Note_on_c, 1, 65, 75
1, 864, Note_on_c, 0, 68, 0
1, 864, Note_on_c, 0, 70, 75
1, 864, Note_on_c, 1, 65, 0
1, 864, Note_on_c, 1, 67, 75
1, 884, Note_on_c, 0, 70, 0
1, 884, Note_on_c, 1, 67, 0
1, 912, Note_on_c, 0, 67, 75
1, 912, Note_on_c, 1, 63, 75
1, 946, Note_on_c, 0, 67, 0
1, 946, Note_on_c, 1, 63, 0
1, 948, Note_on_c, 0, 68, 75
1, 948, Note_on_c, 1, 65, 75
1, 960, Note_on_c, 0, 68, 0
1, 960, Note_on_c, 0, 70, 75
1, 960, Note_on_c, 1, 65, 0
1, 960, Note_on_c, 1, 67, 75
1, 980, Note_on_c, 0, 70, 0
1, 999, Note_on_c, 1, 67, 0
1, 1008, Note_on_c, 0, 75, 75
1, 1028, Note_on_c, 0, 75, 0
1, 1104, Note_on_c, 0, 63, 75
1, 1124, Note_on_c, 0, 63, 0
1, 1152, Note_on_c, 0, 67, 75
1, 1200, Note_on_c, 1, 51, 75
1, 1220, Note_on_c, 1, 51, 0
1, 1248, Note_on_c, 1, 55, 75
1, 1285, Note_on_c, 0, 67, 0
1, 1296, Note_on_c, 0, 65, 75
1, 1308, Note_on_c, 0, 65, 0
1, 1308, Note_on_c, 0, 63, 75
1, 1337, Note_on_c, 1, 55, 0
1, 1341, Note_on_c, 0, 63, 0
1, 1344, Note_on_c, 0, 62, 75
1, 1392, Note_on_c, 1, 44, 75
1, 1412, Note_on_c, 1, 44, 0
1, 1440, Note_on_c, 0, 62, 0
1, 1440, Note_on_c, 0, 60, 75
1, 1440, Note_on_c, 1, 56, 75
1, 1485, Note_on_c, 0, 60, 0
1, 1485, Note_on_c, 1, 56, 0
1, 1488, Note_on_c, 0, 68, 75
1, 1488, Note_on_c, 1, 53, 75
1, 1511, Note_on_c, 0, 68, 0
1, 1512, Note_on_c, 0, 65, 75
1, 1533, Note_on_c, 1, 53, 0
1, 1535, Note_on_c, 0, 65, 0
1, 1536, Note_on_c, 0, 63, 75
1, 1536, Note_on_c, 1, 58, 75
1, 1559, Note_on_c, 0, 63, 0
1, 1560, Note_on_c, 0, 62, 75
1, 1583, Note_on_c, 0, 62, 0
1, 1584, Note_on_c, 0, 67, 75
1, 1607, Note_on_c, 0, 67, 0
1, 1608, Note_on_c, 0, 65, 75
1, 1625, Note_on_c, 1, 58, 0
1, 1631, Note_on_c, 0, 65, 0
1, 1632, Note_on_c, 0, 63, 75
1, 1632, Note_on_c, 1, 46, 75
1, 1655, Note_on_c, 0, 63, 0
1, 1656, Note_on_c, 0, 62, 75
1, 1677, Note_on_c, 1, 46, 0
1, 1679, Note_on_c, 0, 62, 0
1, 1680, Note_on_c, 0, 60, 75
1, 1680, Note_on_c, 1, 50, 75
1, 1703, Note_on_c, 0, 60, 0
1, 1704, Note_on_c, 0, 58, 75
1, 1725, Note_on_c, 1, 50, 0
1, 1727, Note_on_c, 0, 58, 0
1, 1728, Note_on_c, 0, 56, 75
1, 1728, Note_on_c, 1, 51, 75
1, 1773, Note_on_c, 1, 51, 0
1, 1776, Note_on_c, 1, 46, 75
1, 1821, Note_on_c, 1, 46, 0
1, 1824, Note_on_c, 0, 56, 0
1, 1824, Note_on_c, 0, 55, 75
1, 1824, Note_on_c, 1, 51, 75
1, 1869, Note_on_c, 0, 55, 0
1, 1872, Note_on_c, 0, 67, 75
1, 1892, Note_on_c, 0, 67, 0
1, 1913, Note_on_c, 1, 51, 0
1, 1920, Note_on_c, 0, 70, 75
1, 1968, Note_on_c, 1, 51, 75
1, 1988, Note_on_c, 1, 51, 0
1, 2016, Note_on_c, 1, 55, 75
1, 2061, Note_on_c, 0, 70, 0
1, 2064, Note_on_c, 0, 67, 75
1, 2098, Note_on_c, 0, 67, 0
1, 2100, Note_on_c, 0, 68, 75
1, 2105, Note_on_c, 1, 55, 0
1, 2112, Note_on_c, 0, 68, 0
1, 2112, Note_on_c, 0, 70, 75
1, 2160, Note_on_c, 1, 51, 75
1, 2194, Note_on_c, 1, 51, 0
1, 2196, Note_on_c, 1, 53, 75
1, 2208, Note_on_c, 1, 53, 0
1, 2208, Note_on_c, 1, 55, 75
1, 2253, Note_on_c, 0, 70, 0
1, 2256, Note_on_c, 0, 67, 75
1, 2268, Note_on_c, 0, 67, 0
1, 2268, Note_on_c, 0, 68, 75
1, 2280, Note_on_c, 0, 68, 0
1, 2280, Note_on_c, 0, 67, 75
1, 2292, Note_on_c, 0, 67, 0
1, 2292, Note_on_c, 0, 68, 75
1, 2297, Note_on_c, 1, 55, 0
1, 2304, Note_on_c, 0, 68, 0
1, 2304, Note_on_c, 0, 70, 75
1, 2324, Note_on_c, 0, 70, 0
1, 2352, Note_on_c, 0, 67, 75
1, 2352, Note_on_c, 1, 63, 75
1, 2364, Note_on_c, 0, 67, 0
1, 2364, Note_on_c, 0, 68, 75
1, 2364, Note_on_c, 1, 63, 0
1, 2364, Note_on_c, 1, 65, 75
1, 2376, Note_on_c, 0, 68, 0
1, 2376, Note_on_c, 0, 67, 75
1, 2376, Note_on_c, 1, 65, 0
1, 2376, Note_on_c, 1, 63, 75
1, 2388, Note_on_c, 0, 67, 0
1, 2388, Note_on_c, 0, 68, 75
1, 2388, Note_on_c, 1, 63, 0
1, 2388, Note_on_c, 1, 65, 75
1, 2400, Note_on_c, 0, 68, 0
1, 2400, Note_on_c, 0, 70, 75
1, 2400, Note_on_c, 1, 65, 0
1, 2400, Note_on_c, 1, 67, 75
1, 2420, Note_on_c, 0, 70, 0
1, 2420, Note_on_c, 1, 67, 0
1, 2448, Note_on_c, 0, 67, 75
1, 2448, Note_on_c, 1, 63, 75
1, 2460, Note_on_c, 0, 67, 0
1, 2460, Note_on_c, 0, 68, 75
1, 2460, Note_on_c, 1, 63, 0
1, 2460, Note_on_c, 1, 65, 75
1, 2472, Note_on_c, 0, 68, 0
1, 2472, Note_on_c, 0, 67, 75
1, 2472, Note_on_c, 1, 65, 0
1, 2472, Note_on_c, 1, 63, 75
1, 2484, Note_on_c, 0, 67, 0
1, 2484, Note_on_c, 0, 68, 75
1, 2484, Note_on_c, 1, 63, 0
1, 2484, Note_on_c, 1, 65, 75
1, 2496, Note_on_c, 0, 68, 0
1, 2496, Note_on_c, 0, 70, 75
1, 2496, Note_on_c, 1, 65, 0
1, 2496, Note_on_c, 1, 67, 75
1, 2516, Note_on_c, 0, 70, 0
1, 2535, Note_on_c, 1, 67, 0
1, 2544, Note_on_c, 0, 75, 75
1, 2564, Note_on_c, 0, 75, 0
1, 2640, Note_on_c, 0, 63, 75
1, 2660, Note_on_c, 0, 63, 0
1, 2688, Note_on_c, 0, 67, 75
1, 2736, Note_on_c, 1, 51, 75
1, 2756, Note_on_c, 1, 51, 0
1, 2784, Note_on_c, 1, 55, 75
1, 2821, Note_on_c, 0, 67, 0
1, 2832, Note_on_c, 0, 65, 75
1, 2844, Note_on_c, 0, 65, 0
1, 2844, Note_on_c, 0, 63, 75
1, 2873, Note_on_c, 1, 55, 0
1, 2877, Note_on_c, 0, 63, 0
1, 2880, Note_on_c, 0, 62, 75
1, 2928, Note_on_c, 1, 56, 75
1, 2948, Note_on_c, 1, 56, 0
1, 2976, Note_on_c, 1, 44, 75
1, 3024, Note_on_c, 0, 62, 0
1, 3024, Note_on_c, 0, 60, 75
1, 3044, Note_on_c, 0, 60, 0
1, 3065, Note_on_c, 1, 44, 0
1, 3072, Note_on_c, 0, 68, 75
1, 3120, Note_on_c, 1, 53, 75
1, 3140, Note_on_c, 1, 53, 0
1, 3168, Note_on_c, 1, 56, 75
1, 3205, Note_on_c, 0, 68, 0
1, 3216, Note_on_c, 0, 67, 75
1, 3228, Note_on_c, 0, 67, 0
1, 3228, Note_on_c, 0, 65, 75
1, 3257, Note_on_c, 1, 56, 0
1, 3261, Note_on_c, 0, 65, 0
1, 3264, Note_on_c, 0, 63, 75
1, 3312, Note_on_c, 1, 58, 75
1, 3332, Note_on_c, 1, 58, 0
1, 3360, Note_on_c, 1, 46, 75
1, 3408, Note_on_c, 0, 63, 0
1, 3408, Note_on_c, 0, 62, 75
1, 3428, Note_on_c, 0, 62, 0
1, 3449, Note_on_c, 1, 46, 0
1, 3456, Note_on_c, 0, 70, 75
1, 3504, Note_on_c, 1, 55, 75
1, 3524, Note_on_c, 1, 55, 0
1, 3552, Note_on_c, 1, 58, 75
1, 3589, Note_on_c, 0, 70, 0
1, 3600, Note_on_c, 0, 68, 76
1, 3612, Note_on_c, 0, 68, 0
1, 3612, Note_on_c, 0, 67, 76
1, 3641, Note_on_c, 1, 58, 0
1, 3645, Note_on_c, 0, 67, 0
1, 3648, Note_on_c, 0, 65, 76
1, 3696, Note_on_c, 1, 60, 77
1, 3716, Note_on_c, 1, 60, 0
1, 3744, Note_on_c, 1, 48, 77
1, 3792, Note_on_c, 0, 65, 0
1, 3792, Note_on_c, 0, 63, 78
1, 3812, Note_on_c, 0, 63, 0
1, 3833, Note_on_c, 1, 48, 0
1, 3840, Note_on_c, 0, 68, 78
1, 3888, Note_on_c, 1, 60, 78
1, 3908, Note_on_c, 1, 60, 0
1, 3936, Note_on_c, 1, 58, 79
1, 3973, Note_on_c, 0, 68, 0
1, 3984, Note_on_c, 0, 67, 79
1, 4029, Note_on_c, 0, 67, 0
1, 4032, Note_on_c, 0, 72, 80
1, 4077, Note_on_c, 1, 58, 0
1, 4080, Note_on_c, 1, 56, 80
1, 4121, Note_on_c, 0, 72, 0
1, 4128, Note_on_c, 0, 70, 81
1, 4169, Note_on_c, 1, 56, 0
1, 4176, Note_on_c, 1, 55, 81
1, 4221, Note_on_c, 1, 55, 0
1, 4224, Note_on_c, 1, 50, 81
1, 4247, Note_on_c, 0, 70, 0
1, 4248, Note_on_c, 0, 68, 82
1, 4269, Note_on_c, 1, 50, 0
1, 4272, Note_on_c, 1, 51, 81
1, 4293, Note_on_c, 0, 68, 0
1, 4296, Note_on_c, 0, 67, 82
1, 4317, Note_on_c, 1, 51, 0
1, 4320, Note_on_c, 1, 44, 82
1, 4341, Note_on_c, 0, 67, 0
1, 4344, Note_on_c, 0, 65, 83
1, 4365, Note_on_c, 1, 44, 0
1, 4368, Note_on_c, 1, 46, 82
1, 4389, Note_on_c, 0, 65, 0
1, 4392, Note_on_c, 0, 62, 83
1, 4413, Note_on_c, 1, 46, 0
1, 4415, Note_on_c, 0, 62, 0
1, 4416, Note_on_c, 0, 63, 83
1, 4416, Note_on_c, 1, 51, 83
1, 4439, Note_on_c, 0, 63, 0
1, 4440, Note_on_c, 0, 55, 84
1, 4463, Note_on_c, 0, 55, 0
1, 4464, Note_on_c, 0, 58, 84
1, 4487, Note_on_c, 0, 58, 0
1, 4488, Note_on_c, 0, 55, 84
1, 4505, Note_on_c, 1, 51, 0
1, 4511, Note_on_c, 0, 55, 0
1, 4512, Note_on_c, 0, 63, 84
1, 4535, Note_on_c, 0, 63, 0
1, 4536, Note_on_c, 0, 58, 84
1, 4559, Note_on_c, 0, 58, 0
1, 4560, Note_on_c, 0, 67, 84
1, 4583, Note_on_c, 0, 67, 0
1, 4584, Note_on_c, 0, 63, 84
1, 4607, Note_on_c, 0, 63, 0
1, 4608, Note_on_c, 0, 70, 84
1, 4631, Note_on_c, 0, 70, 0
1, 4632, Note_on_c, 0, 67, 84
1, 4655, Note_on_c, 0, 67, 0
1, 4656, Note_on_c, 0, 75, 84
1, 4656, Note_on_c, 1, 51, 84
1, 4679, Note_on_c, 0, 75, 0
1, 4680, Note_on_c, 0, 67, 84
1, 4701, Note_on_c, 1, 51, 0
1, 4703, Note_on_c, 0, 67, 0
1, 4704, Note_on_c, 0, 70, 84
1, 4704, Note_on_c, 1, 53, 84
1, 4727, Note_on_c, 0, 70, 0
1, 4728, Note_on_c, 0, 68, 84
1, 4749, Note_on_c, 1, 53, 0
1, 4751, Note_on_c, 0, 68, 0
1, 4752, Note_on_c, 0, 67, 84
1, 4752, Note_on_c, 1, 46, 84
1, 4775, Note_on_c, 0, 67, 0
1, 4776, Note_on_c, 0, 65, 84
1, 4797, Note_on_c, 1, 46, 0
1, 4799, Note_on_c, 0, 65, 0
1, 4800, Note_on_c, 0, 67, 84
1, 4824, Note_on_c, 1, 51, 84
1, 4847, Note_on_c, 1, 51, 0
1, 4848, Note_on_c, 0, 67, 0
1, 4848, Note_on_c, 0, 75, 84
1, 4848, Note_on_c, 1, 55, 84
1, 4868, Note_on_c, 0, 75, 0
1, 4871, Note_on_c, 1, 55, 0
1, 4872, Note_on_c, 1, 51, 84
1, 4895, Note_on_c, 1, 51, 0
1, 4896, Note_on_c, 0, 77, 84
1, 4896, Note_on_c, 1, 58, 84
1, 4906, Note_on_c, 0, 77, 0
1, 4906, Note_on_c, 0, 75, 84
1, 4916, Note_on_c, 0, 75, 0
1, 4916, Note_on_c, 0, 77, 84
1, 4919, Note_on_c, 1, 58, 0
1, 4920, Note_on_c, 1, 55, 84
1, 4926, Note_on_c, 0, 77, 0
1, 4926, Note_on_c, 0, 75, 84
1, 4936, Note_on_c, 0, 75, 0
1, 4936, Note_on_c, 0, 77, 84
1, 4943, Note_on_c, 1, 55, 0
1, 4944, Note_on_c, 1, 63, 84
1, 4946, Note_on_c, 0, 77, 0
1, 4946, Note_on_c, 0, 75, 84
1, 4956, Note_on_c, 0, 75, 0
1, 4956, Note_on_c, 0, 77, 84
1, 4965, Note_on_c, 0, 77, 0
1, 4965, Note_on_c, 0, 75, 84
1, 4967, Note_on_c, 1, 63, 0
1, 4968, Note_on_c, 1, 58, 84
1, 4974, Note_on_c, 0, 75, 0
1, 4974, Note_on_c, 0, 74, 84
1, 4983, Note_on_c, 0, 74, 0
1, 4983, Note_on_c, 0, 75, 84
1, 4991, Note_on_c, 1, 58, 0
1, 4992, Note_on_c, 1, 67, 84
1, 5015, Note_on_c, 0, 75, 0
1, 5016, Note_on_c, 0, 70, 84
1, 5039, Note_on_c, 0, 70, 0
1, 5040, Note_on_c, 0, 79, 84
1, 5063, Note_on_c, 0, 79, 0
1, 5064, Note_on_c, 0, 70, 84
1, 5081, Note_on_c, 1, 67, 0
1, 5087, Note_on_c, 0, 70, 0
1, 5088, Note_on_c, 0, 70, 84
1, 5088, Note_on_c, 1, 65, 84
1, 5111, Note_on_c, 0, 70, 0
1, 5112, Note_on_c, 0, 68, 84
1, 5133, Note_on_c, 1, 65, 0
1, 5135, Note_on_c, 0, 68, 0
1, 5136, Note_on_c, 0, 67, 84
1, 5136, Note_on_c, 1, 58, 84
1, 5159, Note_on_c, 0, 67, 0
1, 5160, Note_on_c, 0, 65, 84
1, 5181, Note_on_c, 1, 58, 0
1, 5183, Note_on_c, 0, 65, 0
1, 5184, Note_on_c, 0, 66, 84
1, 5184, Note_on_c, 1, 63, 84
1, 5208, Note_on_c, 0, 66, 0
1, 5208, Note_on_c, 0, 67, 84
1, 5231, Note_on_c, 0, 67, 0
1, 5232, Note_on_c, 0, 75, 84
1, 5255, Note_on_c, 0, 75, 0
1, 5256, Note_on_c, 0, 67, 84
1, 5273, Note_on_c, 1, 63, 0
1, 5279, Note_on_c, 0, 67, 0
1, 5280, Note_on_c, 0, 70, 84
1, 5280, Note_on_c, 1, 65, 84
1, 5303, Note_on_c, 0, 70, 0
1, 5304, Note_on_c, 0, 68, 84
1, 5325, Note_on_c, 1, 65, 0
1, 5327, Note_on_c, 0, 68, 0
1, 5328, Note_on_c, 0, 67, 84
1, 5328, Note_on_c, 1, 58, 84
1, 5351, Note_on_c, 0, 67, 0
1, 5352, Note_on_c, 0, 65, 84
1, 5373, Note_on_c, 1, 58, 0
1, 5375, Note_on_c, 0, 65, 0
1, 5376, Note_on_c, 0, 67, 84
1, 5376, Note_on_c, 1, 63, 84
1, 5391, Note_on_c, 0, 67, 0
1, 5392, Note_on_c, 0, 79, 84
1, 5407, Note_on_c, 0, 79, 0
1, 5408, Note_on_c, 0, 77, 84
1, 5423, Note_on_c, 0, 77, 0
1, 5424, Note_on_c, 0, 75, 84
1, 5439, Note_on_c, 0, 75, 0
1, 5440, Note_on_c, 0, 74, 84
1, 5455, Note_on_c, 0, 74, 0
1, 5456, Note_on_c, 0, 72, 84
1, 5465, Note_on_c, 1, 63, 0
1, 5471, Note_on_c, 0, 72, 0
1, 5472, Note_on_c, 0, 70, 84
1, 5472, Note_on_c, 1, 65, 84
1, 5517, Note_on_c, 0, 70, 0
1, 5517, Note_on_c, 1, 65, 0
1, 5520, Note_on_c, 0, 68, 84
1, 5520, Note_on_c, 1, 58, 84
1, 5530, Note_on_c, 0, 68, 0
1, 5530, Note_on_c, 0, 70, 84
1, 5540, Note_on_c, 0, 70, 0
1, 5540, Note_on_c, 0, 68, 84
1, 5550, Note_on_c, 0, 68, 0
1, 5550, Note_on_c, 0, 67, 84
1, 5559, Note_on_c, 0, 67, 0
1, 5559, Note_on_c, 0, 68, 84
1, 5565, Note_on_c, 1, 58, 0
1, 5568, Note_on_c, 0, 68, 0
1, 5568, Note_on_c, 0, 67, 84
1, 5568, Note_on_c, 1, 63, 84
1, 5613, Note_on_c, 0, 67, 0
1, 5616, Note_on_c, 0, 79, 75
1, 5636, Note_on_c, 0, 79, 0
1, 5657, Note_on_c, 1, 63, 0
1, 5664, Note_on_c, 0, 77, 75
1, 5687, Note_on_c, 0, 77, 0
1, 5688, Note_on_c, 0, 75, 75
1, 5711, Note_on_c, 0, 75, 0
1, 5712, Note_on_c, 0, 74, 75
1, 5712, Note_on_c, 1, 63, 75
1, 5735, Note_on_c, 0, 74, 0
1, 5736, Note_on_c, 0, 72, 75
1, 5757, Note_on_c, 1, 63, 0
1, 5760, Note_on_c, 1, 62, 75
1, 5805, Note_on_c, 0, 72, 0
1, 5808, Note_on_c, 0, 71, 75
1, 5849, Note_on_c, 1, 62, 0
1, 5856, Note_on_c, 1, 55, 75
1, 5897, Note_on_c, 0, 71, 0
1, 5904, Note_on_c, 0, 77, 75
1, 5945, Note_on_c, 1, 55, 0
1, 5952, Note_on_c, 1, 60, 75
1, 5975, Note_on_c, 0, 77, 0
1, 5976, Note_on_c, 0, 75, 75
1, 5999, Note_on_c, 0, 75, 0
1, 6000, Note_on_c, 0, 79, 75
1, 6024, Note_on_c, 0, 79, 0
1, 6024, Note_on_c, 0, 77, 75
1, 6041, Note_on_c, 1, 60, 0
1, 6047, Note_on_c, 0, 77, 0
1, 6048, Note_on_c, 0, 75, 75
1, 6072, Note_on_c, 0, 75, 0
1, 6072, Note_on_c, 0, 74, 75
1, 6095, Note_on_c, 0, 74, 0
1, 6096, Note_on_c, 0, 72, 75
1, 6096, Note_on_c, 1, 63, 75
1, 6120, Note_on_c, 0, 72, 0
1, 6120, Note_on_c, 0, 70, 75
1, 6141, Note_on_c, 1, 63, 0
1, 6143, Note_on_c, 0, 70, 0
1, 6144, Note_on_c, 0, 70, 91
1, 6144, Note_on_c, 1, 65, 75
1, 6192, Note_on_c, 0, 70, 0
1, 6192, Note_on_c, 0, 69, 75
1, 6233, Note_on_c, 1, 65, 0
1, 6240, Note_on_c, 1, 53, 75
1, 6281, Note_on_c, 0, 69, 0
1, 6288, Note_on_c, 0, 75, 75
1, 6329, Note_on_c, 1, 53, 0
1, 6336, Note_on_c, 1, 58, 75
1, 6377, Note_on_c, 0, 75, 0
1, 6384, Note_on_c, 0, 74, 75
1, 6425, Note_on_c, 1, 58, 0
1, 6432, Note_on_c, 1, 62, 75
1, 6473, Note_on_c, 0, 74, 0
1, 6480, Note_on_c, 0, 77, 75
1, 6503, Note_on_c, 0, 77, 0
1, 6504, Note_on_c, 0, 74, 75
1, 6521, Note_on_c, 1, 62, 0
1, 6528, Note_on_c, 1, 63, 75
1, 6551, Note_on_c, 0, 74, 0
1, 6552, Note_on_c, 0, 72, 76
1, 6573, Note_on_c, 1, 63, 0
1, 6576, Note_on_c, 1, 62, 76
1, 6597, Note_on_c, 0, 72, 0
1, 6600, Note_on_c, 0, 71, 78
1, 6621, Note_on_c, 1, 62, 0
1, 6624, Note_on_c, 1, 63, 78
1, 6645, Note_on_c, 0, 71, 0
1, 6648, Note_on_c, 0, 72, 80
1, 6669, Note_on_c, 1, 63, 0
1, 6672, Note_on_c, 1, 64, 79
1, 6693, Note_on_c, 0, 72, 0
1, 6696, Note_on_c, 0, 70, 82
1, 6717, Note_on_c, 1, 64, 0
1, 6720, Note_on_c, 1, 65, 81
1, 6743, Note_on_c, 0, 70, 0
1, 6744, Note_on_c, 0, 69, 84
1, 6767, Note_on_c, 0, 69, 0
1, 6768, Note_on_c, 0, 67, 84
1, 6791, Note_on_c, 0, 67, 0
1, 6792, Note_on_c, 0, 65, 84
1, 6809, Note_on_c, 1, 65, 0
1, 6815, Note_on_c, 0, 65, 0
1, 6816, Note_on_c, 0, 65, 75
1, 6836, Note_on_c, 0, 65, 0
1, 6864, Note_on_c, 0, 77, 76
1, 6864, Note_on_c, 1, 58, 76
1, 6887, Note_on_c, 0, 77, 0
1, 6888, Note_on_c, 0, 74, 77
1, 6909, Note_on_c, 1, 58, 0
1, 6912, Note_on_c, 1, 63, 77
1, 6935, Note_on_c, 0, 74, 0
1, 6936, Note_on_c, 0, 72, 78
1, 6957, Note_on_c, 1, 63, 0
1, 6960, Note_on_c, 1, 62, 78
1, 6981, Note_on_c, 0, 72, 0
1, 6984, Note_on_c, 0, 71, 79
1, 7005, Note_on_c, 1, 62, 0
1, 7008, Note_on_c, 1, 63, 79
1, 7029, Note_on_c, 0, 71, 0
1, 7032, Note_on_c, 0, 72, 81
1, 7053, Note_on_c, 1, 63, 0
1, 7056, Note_on_c, 1, 64, 80
1, 7077, Note_on_c, 0, 72, 0
1, 7080, Note_on_c, 0, 70, 82
1, 7101, Note_on_c, 1, 64, 0
1, 7104, Note_on_c, 1, 65, 81
1, 7127, Note_on_c, 0, 70, 0
1, 7128, Note_on_c, 0, 69, 84
1, 7151, Note_on_c, 0, 69, 0
1, 7152, Note_on_c, 0, 67, 84
1, 7175, Note_on_c, 0, 67, 0
1, 7176, Note_on_c, 0, 65, 84
1, 7193, Note_on_c, 1, 65, 0
1, 7199, Note_on_c, 0, 65, 0
1, 7200, Note_on_c, 0, 65, 84
1, 7220, Note_on_c, 0, 65, 0
1, 7248, Note_on_c, 0, 70, 75
1, 7268, Note_on_c, 0, 70, 0
1, 7296, Note_on_c, 0, 74, 75
1, 7296, Note_on_c, 1, 58, 61
1, 7319, Note_on_c, 1, 58, 0
1, 7320, Note_on_c, 1, 65, 61
1, 7343, Note_on_c, 1, 65, 0
1, 7344, Note_on_c, 1, 62, 61
1, 7367, Note_on_c, 1, 62, 0
1, 7368, Note_on_c, 1, 65, 61
1, 7391, Note_on_c, 1, 65, 0
1, 7392, Note_on_c, 1, 58, 61
1, 7415, Note_on_c, 1, 58, 0
1, 7416, Note_on_c, 1, 65, 61
1, 7429, Note_on_c, 0, 74, 0
1, 7439, Note_on_c, 1, 65, 0
1, 7440, Note_on_c, 0, 77, 75
1, 7440, Note_on_c, 1, 62, 61
1, 7463, Note_on_c, 0, 77, 0
1, 7463, Note_on_c, 1, 62, 0
1, 7464, Note_on_c, 0, 74, 75
1, 7464, Note_on_c, 1, 65, 61
1, 7487, Note_on_c, 0, 74, 0
1, 7487, Note_on_c, 1, 65, 0
1, 7488, Note_on_c, 0, 75, 75
1, 7488, Note_on_c, 1, 57, 61
1, 7511, Note_on_c, 1, 57, 0
1, 7512, Note_on_c, 1, 65, 61
1, 7535, Note_on_c, 1, 65, 0
1, 7536, Note_on_c, 1, 60, 61
1, 7559, Note_on_c, 1, 60, 0
1, 7560, Note_on_c, 1, 65, 61
1, 7583, Note_on_c, 1, 65, 0
1, 7584, Note_on_c, 1, 57, 61
1, 7607, Note_on_c, 1, 57, 0
1, 7608, Note_on_c, 1, 65, 61
1, 7621, Note_on_c, 0, 75, 0
1, 7631, Note_on_c, 1, 65, 0
1, 7632, Note_on_c, 0, 72, 75
1, 7632, Note_on_c, 1, 60, 61
1, 7655, Note_on_c, 0, 72, 0
1, 7655, Note_on_c, 1, 60, 0
1, 7656, Note_on_c, 0, 69, 75
1, 7656, Note_on_c, 1, 65, 61
1, 7679, Note_on_c, 0, 69, 0
1, 7679, Note_on_c, 1, 65, 0
1, 7680, Note_on_c, 0, 63, 75
1, 7680, Note_on_c, 1, 57, 61
1, 7703, Note_on_c, 1, 57, 0
1, 7704, Note_on_c, 1, 65, 61
1, 7727, Note_on_c, 1, 65, 0
1, 7728, Note_on_c, 1, 60, 61
1, 7751, Note_on_c, 1, 60, 0
1, 7752, Note_on_c, 1, 65, 61
1, 7775, Note_on_c, 1, 65, 0
1, 7776, Note_on_c, 1, 57, 61
1, 7799, Note_on_c, 1, 57, 0
1, 7800, Note_on_c, 1, 65, 61
1, 7820, Note_on_c, 0, 63, 0
1, 7823, Note_on_c, 1, 65, 0
1, 7824, Note_on_c, 0, 75, 75
1, 7824, Note_on_c, 1, 60, 61
1, 7847, Note_on_c, 1, 60, 0
1, 7848, Note_on_c, 0, 75, 0
1, 7848, Note_on_c, 0, 72, 75
1, 7848, Note_on_c, 1, 65, 61
1, 7871, Note_on_c, 0, 72, 0
1, 7871, Note_on_c, 1, 65, 0
1, 7872, Note_on_c, 0, 74, 75
1, 7872, Note_on_c, 1, 58, 61
1, 7895, Note_on_c, 1, 58, 0
1, 7896, Note_on_c, 1, 65, 61
1, 7919, Note_on_c, 1, 65, 0
1, 7920, Note_on_c, 1, 62, 61
1, 7943, Note_on_c, 1, 62, 0
1, 7944, Note_on_c, 1, 65, 61
1, 7967, Note_on_c, 1, 65, 0
1, 7968, Note_on_c, 1, 58, 61
1, 7991, Note_on_c, 1, 58, 0
1, 7992, Note_on_c, 1, 65, 61
1, 8005, Note_on_c, 0, 74, 0
1, 8015, Note_on_c, 1, 65, 0
1, 8016, Note_on_c, 0, 70, 75
1, 8016, Note_on_c, 1, 62, 61
1, 8028, Note_on_c, 0, 70, 0
1, 8028, Note_on_c, 0, 72, 75
1, 8039, Note_on_c, 1, 62, 0
1, 8040, Note_on_c, 0, 72, 0
1, 8040, Note_on_c, 0, 70, 75
1, 8040, Note_on_c, 1, 65, 61
1, 8052, Note_on_c, 0, 70, 0
1, 8052, Note_on_c, 0, 72, 75
1, 8063, Note_on_c, 1, 65, 0
1, 8064, Note_on_c, 0, 72, 0
1, 8064, Note_on_c, 0, 74, 75
1, 8064, Note_on_c, 1, 58, 61
1, 8084, Note_on_c, 0, 74, 0
1, 8087, Note_on_c, 1, 58, 0
1, 8088, Note_on_c, 1, 65, 61
1, 8111, Note_on_c, 1, 65, 0
1, 8112, Note_on_c, 0, 74, 75
1, 8112, Note_on_c, 1, 62, 61
1, 8124, Note_on_c, 0, 74, 0
1, 8124, Note_on_c, 0, 75, 75
1, 8135, Note_on_c, 1, 62, 0
1, 8136, Note_on_c, 0, 75, 0
1, 8136, Note_on_c, 0, 74, 75
1, 8136, Note_on_c, 1, 65, 61
1, 8148, Note_on_c, 0, 74, 0
1, 8148, Note_on_c, 0, 75, 75
1, 8159, Note_on_c, 1, 65, 0
1, 8160, Note_on_c, 0, 75, 0
1, 8160, Note_on_c, 0, 77, 75
1, 8160, Note_on_c, 1, 58, 61
1, 8180, Note_on_c, 0, 77, 0
1, 8183, Note_on_c, 1, 58, 0
1, 8184, Note_on_c, 1, 65, 61
1, 8207, Note_on_c, 1, 65, 0
1, 8208, Note_on_c, 0, 82, 75
1, 8208, Note_on_c, 1, 62, 61
1, 8231, Note_on_c, 1, 62, 0
1, 8232, Note_on_c, 1, 65, 61
1, 8253, Note_on_c, 0, 82, 0
1, 8255, Note_on_c, 1, 65, 0
1, 8256, Note_on_c, 0, 82, 75
1, 8256, Note_on_c, 1, 58, 61
1, 8279, Note_on_c, 1, 58, 0
1, 8280, Note_on_c, 0, 82, 0
1, 8280, Note_on_c, 0, 79, 75
1, 8280, Note_on_c, 1, 67, 61
1, 8303, Note_on_c, 0, 79, 0
1, 8303, Note_on_c, 1, 67, 0
1, 8304, Note_on_c, 0, 79, 75
1, 8304, Note_on_c, 1, 63, 61
1, 8327, Note_on_c, 1, 63, 0
1, 8328, Note_on_c, 1, 67, 61
1, 8351, Note_on_c, 1, 67, 0
1, 8352, Note_on_c, 1, 58, 61
1, 8375, Note_on_c, 1, 58, 0
1, 8376, Note_on_c, 1, 67, 61
1, 8393, Note_on_c, 0, 79, 0
1, 8399, Note_on_c, 1, 67, 0
1, 8400, Note_on_c, 0, 82, 75
1, 8400, Note_on_c, 1, 63, 61
1, 8423, Note_on_c, 1, 63, 0
1, 8424, Note_on_c, 1, 67, 61
1, 8445, Note_on_c, 0, 82, 0
1, 8447, Note_on_c, 1, 67, 0
1, 8448, Note_on_c, 0, 82, 75
1, 8448, Note_on_c, 1, 58, 61
1, 8471, Note_on_c, 1, 58, 0
1, 8472, Note_on_c, 0, 82, 0
1, 8472, Note_on_c, 0, 77, 75
1, 8472, Note_on_c, 1, 65, 61
1, 8495, Note_on_c, 0, 77, 0
1, 8495, Note_on_c, 1, 65, 0
1, 8496, Note_on_c, 0, 77, 75
1, 8496, Note_on_c, 1, 62, 61
1, 8519, Note_on_c, 1, 62, 0
1, 8520, Note_on_c, 1, 65, 61
1, 8543, Note_on_c, 1, 65, 0
1, 8544, Note_on_c, 1, 58, 61
1, 8567, Note_on_c, 1, 58, 0
1, 8568, Note_on_c, 1, 65, 61
1, 8585, Note_on_c, 0, 77, 0
1, 8591, Note_on_c, 1, 65, 0
1, 8592, Note_on_c, 0, 82, 75
1, 8592, Note_on_c, 1, 62, 61
1, 8615, Note_on_c, 1, 62, 0
1, 8616, Note_on_c, 0, 82, 0
1, 8616, Note_on_c, 0, 77, 75
1, 8616, Note_on_c, 1, 65, 61
1, 8639, Note_on_c, 0, 77, 0
1, 8639, Note_on_c, 1, 65, 0
1, 8640, Note_on_c, 0, 77, 75
1, 8640, Note_on_c, 1, 58, 61
1, 8663, Note_on_c, 1, 58, 0
1, 8664, Note_on_c, 0, 77, 0
1, 8664, Note_on_c, 0, 76, 75
1, 8664, Note_on_c, 1, 67, 61
1, 8685, Note_on_c, 0, 76, 0
1, 8687, Note_on_c, 1, 67, 0
1, 8688, Note_on_c, 0, 76, 75
1, 8688, Note_on_c, 1, 61, 61
1, 8711, Note_on_c, 1, 61, 0
1, 8712, Note_on_c, 1, 67, 61
1, 8733, Note_on_c, 0, 76, 0
1, 8735, Note_on_c, 1, 67, 0
1, 8736, Note_on_c, 0, 76, 75
1, 8736, Note_on_c, 1, 58, 61
1, 8759, Note_on_c, 1, 58, 0
1, 8760, Note_on_c, 1, 67, 61
1, 8781, Note_on_c, 0, 76, 0
1, 8783, Note_on_c, 1, 67, 0
1, 8784, Note_on_c, 0, 76, 75
1, 8784, Note_on_c, 1, 61, 61
1, 8807, Note_on_c, 1, 61, 0
1, 8808, Note_on_c, 1, 67, 61
1, 8829, Note_on_c, 0, 76, 0
1, 8831, Note_on_c, 1, 67, 0
1, 8832, Note_on_c, 0, 73, 75
1, 8832, Note_on_c, 1, 58, 61
1, 8844, Note_on_c, 0, 73, 0
1, 8844, Note_on_c, 0, 85, 91
1, 8855, Note_on_c, 1, 58, 0
1, 8856, Note_on_c, 1, 67, 61
1, 8879, Note_on_c, 1, 67, 0
1, 8880, Note_on_c, 1, 61, 61
1, 8903, Note_on_c, 1, 61, 0
1, 8904, Note_on_c, 1, 67, 61
1, 8927, Note_on_c, 1, 67, 0
1, 8928, Note_on_c, 1, 58, 61
1, 8951, Note_on_c, 1, 58, 0
1, 8952, Note_on_c, 1, 67, 61
1, 8962, Note_on_c, 0, 85, 0
1, 8964, Note_on_c, 0, 76, 91
1, 8969, Note_on_c, 0, 76, 0
1, 8975, Note_on_c, 1, 67, 0
1, 8976, Note_on_c, 0, 77, 75
1, 8976, Note_on_c, 1, 61, 61
1, 8984, Note_on_c, 0, 77, 0
1, 8984, Note_on_c, 0, 76, 75
1, 8992, Note_on_c, 0, 76, 0
1, 8992, Note_on_c, 0, 77, 75
1, 8999, Note_on_c, 1, 61, 0
1, 9000, Note_on_c, 0, 77, 0
1, 9000, Note_on_c, 0, 76, 75
1, 9000, Note_on_c, 1, 65, 61
1, 9008, Note_on_c, 0, 76, 0
1, 9008, Note_on_c, 0, 74, 75
1, 9016, Note_on_c, 0, 74, 0
1, 9016, Note_on_c, 0, 76, 75
1, 9023, Note_on_c, 1, 65, 0
1, 9024, Note_on_c, 0, 76, 0
1, 9024, Note_on_c, 0, 77, 75
1, 9024, Note_on_c, 1, 57, 61
1, 9047, Note_on_c, 1, 57, 0
1, 9048, Note_on_c, 1, 65, 61
1, 9069, Note_on_c, 0, 77, 0
1, 9071, Note_on_c, 1, 65, 0
1, 9072, Note_on_c, 0, 77, 75
1, 9072, Note_on_c, 1, 60, 61
1, 9095, Note_on_c, 1, 60, 0
1, 9096, Note_on_c, 1, 65, 61
1, 9119, Note_on_c, 1, 65, 0
1, 9120, Note_on_c, 1, 57, 61
1, 9143, Note_on_c, 1, 57, 0
1, 9144, Note_on_c, 1, 65, 61
1, 9161, Note_on_c, 0, 77, 0
1, 9167, Note_on_c, 1, 65, 0
1, 9168, Note_on_c, 0, 79, 75
1, 9168, Note_on_c, 1, 60, 61
1, 9191, Note_on_c, 1, 60, 0
1, 9192, Note_on_c, 0, 79, 0
1, 9192, Note_on_c, 0, 75, 75
1, 9192, Note_on_c, 1, 65, 61
1, 9215, Note_on_c, 0, 75, 0
1, 9215, Note_on_c, 1, 65, 0
1, 9216, Note_on_c, 0, 75, 75
1, 9216, Note_on_c, 1, 58, 61
1, 9239, Note_on_c, 1, 58, 0
1, 9240, Note_on_c, 0, 75, 0
1, 9240, Note_on_c, 0, 74, 75
1, 9240, Note_on_c, 1, 65, 61
1, 9263, Note_on_c, 0, 74, 0
1, 9263, Note_on_c, 1, 65, 0
1, 9264, Note_on_c, 0, 77, 75
1, 9264, Note_on_c, 1, 62, 61
1, 9287, Note_on_c, 1, 62, 0
1, 9288, Note_on_c, 0, 77, 0
1, 9288, Note_on_c, 0, 70, 75
1, 9288, Note_on_c, 1, 65, 61
1, 9311, Note_on_c, 0, 70, 0
1, 9311, Note_on_c, 1, 65, 0
1, 9312, Note_on_c, 0, 70, 75
1, 9312, Note_on_c, 1, 60, 61
1, 9335, Note_on_c, 1, 60, 0
1, 9336, Note_on_c, 0, 70, 0
1, 9336, Note_on_c, 0, 69, 75
1, 9336, Note_on_c, 1, 65, 61
1, 9359, Note_on_c, 0, 69, 0
1, 9359, Note_on_c, 1, 65, 0
1, 9360, Note_on_c, 0, 72, 75
1, 9360, Note_on_c, 1, 63, 61
1, 9383, Note_on_c, 1, 63, 0
1, 9384, Note_on_c, 0, 72, 0
1, 9384, Note_on_c, 0, 69, 75
1, 9384, Note_on_c, 1, 65, 61
1, 9407, Note_on_c, 0, 69, 0
1, 9407, Note_on_c, 1, 65, 0
1, 9408, Note_on_c, 0, 70, 75
1, 9408, Note_on_c, 1, 62, 61
1, 9428, Note_on_c, 0, 70, 0
1, 9431, Note_on_c, 1, 62, 0
1, 9432, Note_on_c, 1, 65, 61
1, 9455, Note_on_c, 1, 65, 0
1, 9456, Note_on_c, 0, 74, 75
1, 9456, Note_on_c, 1, 58, 61
1, 9476, Note_on_c, 0, 74, 0
1, 9479, Note_on_c, 1, 58, 0
1, 9480, Note_on_c, 1, 65, 61
1, 9503, Note_on_c, 1, 65, 0
1, 9504, Note_on_c, 0, 72, 75
1, 9504, Note_on_c, 1, 57, 61
1, 9524, Note_on_c, 0, 72, 0
1, 9527, Note_on_c, 1, 57, 0
1, 9528, Note_on_c, 1, 65, 61
1, 9551, Note_on_c, 1, 65, 0
1, 9552, Note_on_c, 0, 75, 75
1, 9552, Note_on_c, 1, 60, 61
1, 9572, Note_on_c, 0, 75, 0
1, 9575, Note_on_c, 1, 60, 0
1, 9576, Note_on_c, 1, 63, 61
1, 9599, Note_on_c, 1, 63, 0
1, 9600, Note_on_c, 0, 75, 75
1, 9600, Note_on_c, 1, 58, 61
1, 9623, Note_on_c, 1, 58, 0
1, 9624, Note_on_c, 0, 75, 0
1, 9624, Note_on_c, 0, 74, 75
1, 9624, Note_on_c, 1, 65, 61
1, 9647, Note_on_c, 0, 74, 0
1, 9647, Note_on_c, 1, 65, 0
1, 9648, Note_on_c, 0, 77, 75
1, 9648, Note_on_c, 1, 62, 61
1, 9671, Note_on_c, 1, 62, 0
1, 9672, Note_on_c, 0, 77, 0
1, 9672, Note_on_c, 0, 70, 75
1, 9672, Note_on_c, 1, 65, 61
1, 9695, Note_on_c, 0, 70, 0
1, 9695, Note_on_c, 1, 65, 0
1, 9696, Note_on_c, 0, 70, 75
1, 9696, Note_on_c, 1, 60, 61
1, 9719, Note_on_c, 1, 60, 0
1, 9720, Note_on_c, 0, 70, 0
1, 9720, Note_on_c, 0, 69, 75
1, 9720, Note_on_c, 1, 65, 61
1, 9743, Note_on_c, 0, 69, 0
1, 9743, Note_on_c, 1, 65, 0
1, 9744, Note_on_c, 0, 72, 75
1, 9744, Note_on_c, 1, 63, 61
1, 9767, Note_on_c, 1, 63, 0
1, 9768, Note_on_c, 0, 72, 0
1, 9768, Note_on_c, 0, 69, 75
1, 9768, Note_on_c, 1, 65, 61
1, 9791, Note_on_c, 0, 69, 0
1, 9791, Note_on_c, 1, 65, 0
1, 9792, Note_on_c, 0, 70, 75
1, 9792, Note_on_c, 1, 62, 61
1, 9812, Note_on_c, 0, 70, 0
1, 9815, Note_on_c, 1, 62, 0
1, 9816, Note_on_c, 1, 65, 61
1, 9839, Note_on_c, 1, 65, 0
1, 9840, Note_on_c, 0, 74, 75
1, 9840, Note_on_c, 1, 58, 61
1, 9860, Note_on_c, 0, 74, 0
1, 9863, Note_on_c, 1, 58, 0
1, 9864, Note_on_c, 1, 65, 61
1, 9887, Note_on_c, 1, 65, 0
1, 9888, Note_on_c, 0, 72, 75
1, 9888, Note_on_c, 1, 57, 61
1, 9908, Note_on_c, 0, 72, 0
1, 9911, Note_on_c, 1, 57, 0
1, 9912, Note_on_c, 1, 65, 61
1, 9935, Note_on_c, 1, 65, 0
1, 9936, Note_on_c, 0, 75, 75
1, 9936, Note_on_c, 1, 60, 61
1, 9956, Note_on_c, 0, 75, 0
1, 9959, Note_on_c, 1, 60, 0
1, 9960, Note_on_c, 1, 63, 61
1, 9983, Note_on_c, 1, 63, 0
1, 9984, Note_on_c, 0, 74, 75
1, 9984, Note_on_c, 1, 58, 75
1, 9994, Note_on_c, 0, 74, 0
1, 10008, Note_on_c, 0, 82, 75
1, 10031, Note_on_c, 0, 82, 0
1, 10032, Note_on_c, 0, 81, 75
1, 10055, Note_on_c, 0, 81, 0
1, 10056, Note_on_c, 0, 82, 75
1, 10073, Note_on_c, 1, 58, 0
1, 10079, Note_on_c, 0, 82, 0
1, 10080, Note_on_c, 1, 62, 75
1, 10104, Note_on_c, 0, 80, 75
1, 10127, Note_on_c, 0, 80, 0
1, 10128, Note_on_c, 0, 79, 75
1, 10151, Note_on_c, 0, 79, 0
1, 10152, Note_on_c, 0, 78, 75
1, 10169, Note_on_c, 1, 62, 0
1, 10175, Note_on_c, 0, 78, 0
1, 10176, Note_on_c, 1, 63, 75
1, 10200, Note_on_c, 0, 79, 75
1, 10223, Note_on_c, 0, 79, 0
1, 10224, Note_on_c, 0, 78, 75
1, 10247, Note_on_c, 0, 78, 0
1, 10248, Note_on_c, 0, 79, 75
1, 10265, Note_on_c, 1, 63, 0
1, 10271, Note_on_c, 0, 79, 0
1, 10272, Note_on_c, 0, 77, 75
1, 10295, Note_on_c, 0, 77, 0
1, 10296, Note_on_c, 0, 75, 75
1, 10319, Note_on_c, 0, 75, 0
1, 10320, Note_on_c, 0, 74, 75
1, 10343, Note_on_c, 0, 74, 0
1, 10344, Note_on_c, 0, 72, 75
1, 10367, Note_on_c, 0, 72, 0
1, 10368, Note_on_c, 0, 70, 75
1, 10416, Note_on_c, 1, 62, 75
1, 10457, Note_on_c, 0, 70, 0
1, 10461, Note_on_c, 1, 62, 0
1, 10464, Note_on_c, 0, 74, 75
1, 10464, Note_on_c, 1, 63, 75
1, 10487, Note_on_c, 0, 74, 0
1, 10488, Note_on_c, 0, 72, 75
1, 10509, Note_on_c, 1, 63, 0
1, 10511, Note_on_c, 0, 72, 0
1, 10512, Note_on_c, 0, 70, 75
1, 10512, Note_on_c, 1, 65, 75
1, 10535, Note_on_c, 0, 70, 0
1, 10536, Note_on_c, 0, 69, 75
1, 10557, Note_on_c, 1, 65, 0
1, 10559, Note_on_c, 0, 69, 0
1, 10560, Note_on_c, 0, 70, 75
1, 10560, Note_on_c, 1, 58, 75
1, 10605, Note_on_c, 0, 70, 0
1, 10608, Note_on_c, 0, 86, 75
1, 10649, Note_on_c, 1, 58, 0
1, 10653, Note_on_c, 0, 86, 0
1, 10656, Note_on_c, 0, 84, 75
1, 10679, Note_on_c, 0, 84, 0
1, 10680, Note_on_c, 0, 82, 75
1, 10703, Note_on_c, 0, 82, 0
1, 10704, Note_on_c, 0, 81, 75
1, 10704, Note_on_c, 1, 74, 61
1, 10704, Note_on_c, 1, 70, 61
1, 10727, Note_on_c, 0, 81, 0
1, 10728, Note_on_c, 0, 79, 75
1, 10749, Note_on_c, 1, 74, 0
1, 10749, Note_on_c, 1, 70, 0
1, 10752, Note_on_c, 1, 72, 61
1, 10752, Note_on_c, 1, 69, 61
1, 10797, Note_on_c, 0, 79, 0
1, 10800, Note_on_c, 0, 77, 75
1, 10841, Note_on_c, 1, 72, 0
1, 10841, Note_on_c, 1, 69, 0
1, 10848, Note_on_c, 1, 70, 61
1, 10848, Note_on_c, 1, 67, 61
1, 10882, Note_on_c, 0, 77, 0
1, 10884, Note_on_c, 0, 76, 75
1, 10896, Note_on_c, 0, 76, 0
1, 10896, Note_on_c, 0, 82, 75
1, 10896, Note_on_c, 1, 70, 0
1, 10896, Note_on_c, 1, 76, 61
1, 10943, Note_on_c, 1, 76, 0
1, 10943, Note_on_c, 1, 67, 0
1, 10944, Note_on_c, 0, 82, 0
1, 10944, Note_on_c, 0, 81, 75
1, 10944, Note_on_c, 1, 77, 61
1, 10944, Note_on_c, 1, 65, 61
1, 10964, Note_on_c, 0, 81, 0
1, 10989, Note_on_c, 1, 77, 0
1, 10989, Note_on_c, 1, 65, 0
1, 10992, Note_on_c, 0, 82, 75
1, 10992, Note_on_c, 1, 74, 61
1, 10992, Note_on_c, 1, 67, 61
1, 11037, Note_on_c, 0, 82, 0
1, 11037, Note_on_c, 1, 74, 0
1, 11037, Note_on_c, 1, 67, 0
1, 11040, Note_on_c, 0, 81, 75
1, 11063, Note_on_c, 0, 81, 0
1, 11064, Note_on_c, 0, 79, 75
1, 11087, Note_on_c, 0, 79, 0
1, 11088, Note_on_c, 0, 77, 75
1, 11088, Note_on_c, 1, 70, 61
1, 11088, Note_on_c, 1, 67, 61
1, 11111, Note_on_c, 0, 77, 0
1, 11112, Note_on_c, 0, 75, 75
1, 11133, Note_on_c, 1, 70, 0
1, 11133, Note_on_c, 1, 67, 0
1, 11136, Note_on_c, 1, 69, 61
1, 11136, Note_on_c, 1, 65, 61
1, 11181, Note_on_c, 0, 75, 0
1, 11184, Note_on_c, 0, 74, 75
1, 11225, Note_on_c, 1, 69, 0
1, 11225, Note_on_c, 1, 65, 0
1, 11232, Note_on_c, 1, 67, 61
1, 11232, Note_on_c, 1, 64, 61
1, 11266, Note_on_c, 0, 74, 0
1, 11268, Note_on_c, 0, 73, 75
1, 11280, Note_on_c, 0, 73, 0
1, 11280, Note_on_c, 0, 79, 75
1, 11280, Note_on_c, 1, 67, 0
1, 11280, Note_on_c, 1, 73, 61
1, 11327, Note_on_c, 1, 73, 0
1, 11327, Note_on_c, 1, 64, 0
1, 11328, Note_on_c, 0, 79, 0
1, 11328, Note_on_c, 0, 77, 75
1, 11328, Note_on_c, 1, 74, 61
1, 11328, Note_on_c, 1, 62, 61
1, 11348, Note_on_c, 0, 77, 0
1, 11373, Note_on_c, 1, 74, 0
1, 11373, Note_on_c, 1, 62, 0
1, 11376, Note_on_c, 0, 79, 75
1, 11376, Note_on_c, 1, 70, 61
1, 11376, Note_on_c, 1, 63, 61
1, 11421, Note_on_c, 0, 79, 0
1, 11421, Note_on_c, 1, 70, 0
1, 11421, Note_on_c, 1, 63, 0
1, 11424, Note_on_c, 0, 77, 75
1, 11447, Note_on_c, 0, 77, 0
1, 11448, Note_on_c, 0, 75, 75
1, 11471, Note_on_c, 0, 75, 0
1, 11472, Note_on_c, 0, 74, 75
1, 11472, Note_on_c, 1, 67, 61
1, 11472, Note_on_c, 1, 63, 61
1, 11495, Note_on_c, 0, 74, 0
1, 11496, Note_on_c, 0, 72, 75
1, 11517, Note_on_c, 1, 67, 0
1, 11517, Note_on_c, 1, 63, 0
1, 11520, Note_on_c, 1, 65, 61
1, 11520, Note_on_c, 1, 62, 61
1, 11565, Note_on_c, 0, 72, 0
1, 11568, Note_on_c, 0, 70, 75
1, 11609, Note_on_c, 1, 65, 0
1, 11609, Note_on_c, 1, 62, 0
1, 11616, Note_on_c, 1, 63, 61
1, 11616, Note_on_c, 1, 60, 61
1, 11650, Note_on_c, 0, 70, 0
1, 11652, Note_on_c, 0, 69, 75
1, 11664, Note_on_c, 0, 69, 0
1, 11664, Note_on_c, 0, 75, 75
1, 11664, Note_on_c, 1, 63, 0
1, 11664, Note_on_c, 1, 69, 61
1, 11711, Note_on_c, 1, 69, 0
1, 11711, Note_on_c, 1, 60, 0
1, 11712, Note_on_c, 1, 70, 61
1, 11712, Note_on_c, 1, 65, 61
1, 11712, Note_on_c, 1, 58, 61
1, 11757, Note_on_c, 0, 75, 0
1, 11760, Note_on_c, 0, 74, 75
1, 11801, Note_on_c, 1, 70, 0
1, 11801, Note_on_c, 1, 65, 0
1, 11801, Note_on_c, 1, 58, 0
1, 11805, Note_on_c, 0, 74, 0
1, 11808, Note_on_c, 1, 69, 61
1, 11808, Note_on_c, 1, 65, 61
1, 11808, Note_on_c, 1, 60, 61
1, 11844, Note_on_c, 0, 75, 75
1, 11856, Note_on_c, 0, 75, 0
1, 11856, Note_on_c, 0, 77, 75
1, 11862, Note_on_c, 0, 77, 0
1, 11862, Note_on_c, 0, 75, 75
1, 11868, Note_on_c, 0, 75, 0
1, 11868, Note_on_c, 0, 74, 75
1, 11874, Note_on_c, 0, 74, 0
1, 11874, Note_on_c, 0, 75, 75
1, 11897, Note_on_c, 1, 69, 0
1, 11897, Note_on_c, 1, 65, 0
1, 11897, Note_on_c, 1, 60, 0
1, 11904, Note_on_c, 1, 70, 61
1, 11904, Note_on_c, 1, 65, 61
1, 11904, Note_on_c, 1, 58, 61
1, 11938, Note_on_c, 0, 75, 0
1, 11940, Note_on_c, 0, 74, 75
1, 11952, Note_on_c, 0, 74, 0
1, 11952, Note_on_c, 0, 75, 75
1, 11958, Note_on_c, 0, 75, 0
1, 11958, Note_on_c, 0, 74, 75
1, 11964, Note_on_c, 0, 74, 0
1, 11964, Note_on_c, 0, 72, 75
1, 11970, Note_on_c, 0, 72, 0
1, 11970, Note_on_c, 0, 74, 75
1, 11993, Note_on_c, 1, 70, 0
1, 11993, Note_on_c, 1, 65, 0
1, 11993, Note_on_c, 1, 58, 0
1, 11999, Note_on_c, 0, 74, 0
1, 12000, Note_on_c, 1, 69, 61
1, 12000, Note_on_c, 1, 65, 61
1, 12000, Note_on_c, 1, 60, 61
1, 12036, Note_on_c, 0, 75, 75
1, 12048, Note_on_c, 0, 75, 0
1, 12048, Note_on_c, 0, 77, 75
1, 12054, Note_on_c, 0, 77, 0
1, 12054, Note_on_c, 0, 75, 75
1, 12060, Note_on_c, 0, 75, 0
1, 12060, Note_on_c, 0, 74, 75
1, 12066, Note_on_c, 0, 74, 0
1, 12066, Note_on_c, 0, 75, 75
1, 12089, Note_on_c, 1, 69, 0
1, 12089, Note_on_c, 1, 65, 0
1, 12089, Note_on_c, 1, 60, 0
1, 12095, Note_on_c, 0, 75, 0
1, 12096, Note_on_c, 0, 74, 75
1, 12096, Note_on_c, 1, 58, 61
1, 12119, Note_on_c, 1, 58, 0
1, 12120, Note_on_c, 1, 70, 61
1, 12143, Note_on_c, 1, 70, 0
1, 12144, Note_on_c, 1, 65, 61
1, 12163, Note_on_c, 0, 74, 0
1, 12167, Note_on_c, 1, 65, 0
1, 12168, Note_on_c, 0, 75, 75
1, 12168, Note_on_c, 1, 70, 61
1, 12178, Note_on_c, 0, 75, 0
1, 12191, Note_on_c, 1, 70, 0
1, 12192, Note_on_c, 0, 77, 75
1, 12192, Note_on_c, 1, 60, 61
1, 12202, Note_on_c, 0, 77, 0
1, 12202, Note_on_c, 0, 75, 75
1, 12212, Note_on_c, 0, 75, 0
1, 12212, Note_on_c, 0, 77, 75
1, 12215, Note_on_c, 1, 60, 0
1, 12216, Note_on_c, 1, 70, 61
1, 12222, Note_on_c, 0, 77, 0
1, 12222, Note_on_c, 0, 75, 75
1, 12232, Note_on_c, 0, 75, 0
1, 12232, Note_on_c, 0, 77, 75
1, 12239, Note_on_c, 1, 70, 0
1, 12240, Note_on_c, 1, 65, 61
1, 12242, Note_on_c, 0, 77, 0
1, 12242, Note_on_c, 0, 75, 75
1, 12252, Note_on_c, 0, 75, 0
1, 12252, Note_on_c, 0, 74, 75
1, 12263, Note_on_c, 1, 65, 0
1, 12264, Note_on_c, 1, 70, 61
1, 12270, Note_on_c, 0, 74, 0
1, 12270, Note_on_c, 0, 75, 75
1, 12287, Note_on_c, 1, 70, 0
1, 12288, Note_on_c, 0, 75, 0
1, 12288, Note_on_c, 0, 77, 75
1, 12288, Note_on_c, 1, 62, 61
1, 12311, Note_on_c, 1, 62, 0
1, 12312, Note_on_c, 1, 70, 61
1, 12333, Note_on_c, 0, 77, 0
1, 12335, Note_on_c, 1, 70, 0
1, 12336, Note_on_c, 0, 82, 91
1, 12336, Note_on_c, 1, 65, 61
1, 12359, Note_on_c, 1, 65, 0
1, 12360, Note_on_c, 1, 70, 61
1, 12383, Note_on_c, 1, 70, 0
1, 12384, Note_on_c, 1, 62, 61
1, 12407, Note_on_c, 1, 62, 0
1, 12408, Note_on_c, 1, 70, 61
1, 12431, Note_on_c, 1, 70, 0
1, 12432, Note_on_c, 0, 82, 0
1, 12432, Note_on_c, 0, 80, 75
1, 12432, Note_on_c, 1, 65, 61
1, 12455, Note_on_c, 1, 65, 0
1, 12456, Note_on_c, 1, 70, 61
1, 12479, Note_on_c, 1, 70, 0
1, 12480, Note_on_c, 1, 63, 61
1, 12503, Note_on_c, 0, 80, 0
1, 12504, Note_on_c, 0, 79, 75
1, 12527, Note_on_c, 0, 79, 0
1, 12528, Note_on_c, 0, 78, 75
1, 12551, Note_on_c, 0, 78, 0
1, 12552, Note_on_c, 0, 79, 75
1, 12569, Note_on_c, 1, 63, 0
1, 12575, Note_on_c, 0, 79, 0
1, 12576, Note_on_c, 0, 77, 75
1, 12599, Note_on_c, 0, 77, 0
1, 12600, Note_on_c, 0, 75, 75
1, 12623, Note_on_c, 0, 75, 0
1, 12624, Note_on_c, 0, 74, 75
1, 12647, Note_on_c, 0, 74, 0
1, 12648, Note_on_c, 0, 72, 75
1, 12671, Note_on_c, 0, 72, 0
1, 12672, Note_on_c, 0, 77, 75
1, 12682, Note_on_c, 0, 77, 0
1, 12696, Note_on_c, 0, 79, 75
1, 12704, Note_on_c, 0, 79, 0
1, 12704, Note_on_c, 0, 77, 75
1, 12712, Note_on_c, 0, 77, 0
1, 12712, Note_on_c, 0, 75, 75
1, 12720, Note_on_c, 0, 75, 0
1, 12720, Note_on_c, 0, 77, 75
1, 12720, Note_on_c, 1, 62, 75
1, 12743, Note_on_c, 0, 77, 0
1, 12744, Note_on_c, 0, 79, 75
1, 12765, Note_on_c, 1, 62, 0
1, 12767, Note_on_c, 0, 79, 0
1, 12768, Note_on_c, 0, 70, 75
1, 12768, Note_on_c, 1, 63, 75
1, 12813, Note_on_c, 0, 70, 0
1, 12813, Note_on_c, 1, 63, 0
1, 12816, Note_on_c, 0, 69, 75
1, 12816, Note_on_c, 1, 65, 75
1, 12861, Note_on_c, 0, 69, 0
1, 12861, Note_on_c, 1, 65, 0
1, 12864, Note_on_c, 0, 70, 75
1, 12864, Note_on_c, 1, 58, 75
1, 12909, Note_on_c, 0, 70, 0
1, 12912, Note_on_c, 0, 74, 75
1, 12953, Note_on_c, 1, 58, 0
1, 12957, Note_on_c, 0, 74, 0
1, 12960, Note_on_c, 0, 72, 75
1, 12983, Note_on_c, 0, 72, 0
1, 12984, Note_on_c, 0, 70, 75
1, 13007, Note_on_c, 0, 70, 0
1, 13008, Note_on_c, 0, 69, 75
1, 13008, Note_on_c, 1, 62, 61
1, 13008, Note_on_c, 1, 58, 61
1, 13031, Note_on_c, 0, 69, 0
1, 13032, Note_on_c, 0, 67, 75
1, 13053, Note_on_c, 1, 62, 0
1, 13053, Note_on_c, 1, 58, 0
1, 13056, Note_on_c, 1, 60, 61
1, 13056, Note_on_c, 1, 57, 61
1, 13101, Note_on_c, 0, 67, 0
1, 13104, Note_on_c, 0, 65, 75
1, 13145, Note_on_c, 1, 60, 0
1, 13145, Note_on_c, 1, 57, 0
1, 13152, Note_on_c, 1, 58, 61
1, 13152, Note_on_c, 1, 55, 61
1, 13186, Note_on_c, 0, 65, 0
1, 13188, Note_on_c, 0, 64, 75
1, 13200, Note_on_c, 0, 64, 0
1, 13200, Note_on_c, 0, 70, 75
1, 13200, Note_on_c, 1, 58, 0
1, 13200, Note_on_c, 1, 64, 61
1, 13247, Note_on_c, 1, 64, 0
1, 13247, Note_on_c, 1, 55, 0
1, 13248, Note_on_c, 0, 70, 0
1, 13248, Note_on_c, 0, 69, 75
1, 13248, Note_on_c, 1, 65, 61
1, 13248, Note_on_c, 1, 53, 61
1, 13268, Note_on_c, 0, 69, 0
1, 13293, Note_on_c, 1, 65, 0
1, 13293, Note_on_c, 1, 53, 0
1, 13296, Note_on_c, 0, 70, 75
1, 13296, Note_on_c, 1, 62, 61
1, 13296, Note_on_c, 1, 55, 61
1, 13341, Note_on_c, 0, 70, 0
1, 13341, Note_on_c, 1, 62, 0
1, 13341, Note_on_c, 1, 55, 0
1, 13344, Note_on_c, 0, 69, 75
1, 13367, Note_on_c, 0, 69, 0
1, 13368, Note_on_c, 0, 67, 75
1, 13391, Note_on_c, 0, 67, 0
1, 13392, Note_on_c, 0, 65, 75
1, 13392, Note_on_c, 1, 58, 61
1, 13392, Note_on_c, 1, 55, 61
1, 13415, Note_on_c, 0, 65, 0
1, 13416, Note_on_c, 0, 63, 75
1, 13437, Note_on_c, 1, 58, 0
1, 13437, Note_on_c, 1, 55, 0
1, 13440, Note_on_c, 1, 57, 61
1, 13440, Note_on_c, 1, 53, 61
1, 13485, Note_on_c, 0, 63, 0
1, 13488, Note_on_c, 0, 62, 75
1, 13529, Note_on_c, 1, 57, 0
1, 13529, Note_on_c, 1, 53, 0
1, 13536, Note_on_c, 1, 55, 61
1, 13536, Note_on_c, 1, 52, 61
1, 13570, Note_on_c, 0, 62, 0
1, 13572, Note_on_c, 0, 61, 75
1, 13584, Note_on_c, 0, 61, 0
1, 13584, Note_on_c, 0, 67, 75
1, 13584, Note_on_c, 1, 55, 0
1, 13584, Note_on_c, 1, 61, 61
1, 13631, Note_on_c, 1, 61, 0
1, 13631, Note_on_c, 1, 52, 0
1, 13632, Note_on_c, 0, 67, 0
1, 13632, Note_on_c, 0, 65, 75
1, 13632, Note_on_c, 1, 62, 61
1, 13632, Note_on_c, 1, 50, 61
1, 13652, Note_on_c, 0, 65, 0
1, 13677, Note_on_c, 1, 62, 0
1, 13677, Note_on_c, 1, 50, 0
1, 13680, Note_on_c, 0, 67, 75
1, 13680, Note_on_c, 1, 58, 61
1, 13680, Note_on_c, 1, 51, 61
1, 13725, Note_on_c, 0, 67, 0
1, 13725, Note_on_c, 1, 58, 0
1, 13725, Note_on_c, 1, 51, 0
1, 13728, Note_on_c, 0, 65, 75
1, 13751, Note_on_c, 0, 65, 0
1, 13752, Note_on_c, 0, 63, 75
1, 13775, Note_on_c, 0, 63, 0
1, 13776, Note_on_c, 0, 62, 75
1, 13776, Note_on_c, 1, 55, 61
1, 13776, Note_on_c, 1, 51, 61
1, 13799, Note_on_c, 0, 62, 0
1, 13800, Note_on_c, 0, 60, 75
1, 13821, Note_on_c, 1, 55, 0
1, 13821, Note_on_c, 1, 51, 0
1, 13824, Note_on_c, 1, 53, 61
1, 13824, Note_on_c, 1, 50, 61
1, 13869, Note_on_c, 0, 60, 0
1, 13872, Note_on_c, 0, 58, 75
1, 13913, Note_on_c, 1, 53, 0
1, 13913, Note_on_c, 1, 50, 0
1, 13920, Note_on_c, 1, 51, 61
1, 13920, Note_on_c, 1, 48, 61
1, 13954, Note_on_c, 0, 58, 0
1, 13956, Note_on_c, 0, 57, 75
1, 13968, Note_on_c, 0, 57, 0
1, 13968, Note_on_c, 0, 63, 75
1, 13968, Note_on_c, 1, 51, 0
1, 13968, Note_on_c, 1, 57, 61
1, 14015, Note_on_c, 1, 57, 0
1, 14015, Note_on_c, 1, 48, 0
1, 14016, Note_on_c, 1, 58, 61
1, 14016, Note_on_c, 1, 53, 61
1, 14016, Note_on_c, 1, 46, 61
1, 14061, Note_on_c, 0, 63, 0
1, 14064, Note_on_c, 0, 62, 75
1, 14105, Note_on_c, 1, 58, 0
1, 14105, Note_on_c, 1, 53, 0
1, 14105, Note_on_c, 1, 46, 0
1, 14109, Note_on_c, 0, 62, 0
1, 14112, Note_on_c, 1, 57, 61
1, 14112, Note_on_c, 1, 53, 61
1, 14112, Note_on_c, 1, 48, 61
1, 14148, Note_on_c, 0, 63, 75
1, 14160, Note_on_c, 0, 63, 0
1, 14160, Note_on_c, 0, 65, 75
1, 14166, Note_on_c, 0, 65, 0
1, 14166, Note_on_c, 0, 63, 75
1, 14172, Note_on_c, 0, 63, 0
1, 14172, Note_on_c, 0, 62, 75
1, 14178, Note_on_c, 0, 62, 0
1, 14178, Note_on_c, 0, 63, 75
1, 14201, Note_on_c, 1, 57, 0
1, 14201, Note_on_c, 1, 53, 0
1, 14201, Note_on_c, 1, 48, 0
1, 14208, Note_on_c, 1, 58, 61
1, 14208, Note_on_c, 1, 53, 61
1, 14208, Note_on_c, 1, 46, 61
1, 14242, Note_on_c, 0, 63, 0
1, 14244, Note_on_c, 0, 62, 75
1, 14256, Note_on_c, 0, 62, 0
1, 14256, Note_on_c, 0, 63, 75
1, 14262, Note_on_c, 0, 63, 0
1, 14262, Note_on_c, 0, 62, 75
1, 14268, Note_on_c, 0, 62, 0
1, 14268, Note_on_c, 0, 60, 75
1, 14274, Note_on_c, 0, 60, 0
1, 14274, Note_on_c, 0, 62, 75
1, 14297, Note_on_c, 1, 58, 0
1, 14297, Note_on_c, 1, 53, 0
1, 14297, Note_on_c, 1, 46, 0
1, 14303, Note_on_c, 0, 62, 0
1, 14304, Note_on_c, 1, 57, 61
1, 14304, Note_on_c, 1, 53, 61
1, 14304, Note_on_c, 1, 48, 61
1, 14340, Note_on_c, 0, 63, 75
1, 14345, Note_on_c, 0, 63, 0
1, 14352, Note_on_c, 0, 65, 75
1, 14358, Note_on_c, 0, 65, 0
1, 14358, Note_on_c, 0, 63, 75
1, 14364, Note_on_c, 0, 63, 0
1, 14364, Note_on_c, 0, 62, 75
1, 14370, Note_on_c, 0, 62, 0
1, 14370, Note_on_c, 0, 63, 75
1, 14393, Note_on_c, 1, 57, 0
1, 14393, Note_on_c, 1, 53, 0
1, 14393, Note_on_c, 1, 48, 0
1, 14399, Note_on_c, 0, 63, 0
1, 14400, Note_on_c, 0, 62, 75
1, 14400, Note_on_c, 1, 46, 61
1, 14423, Note_on_c, 1, 46, 0
1, 14424, Note_on_c, 1, 58, 61
1, 14447, Note_on_c, 1, 58, 0
1, 14448, Note_on_c, 1, 53, 61
1, 14467, Note_on_c, 0, 62, 0
1, 14471, Note_on_c, 1, 53, 0
1, 14472, Note_on_c, 0, 63, 75
1, 14472, Note_on_c, 1, 58, 61
1, 14482, Note_on_c, 0, 63, 0
1, 14495, Note_on_c, 1, 58, 0
1, 14496, Note_on_c, 0, 65, 75
1, 14496, Note_on_c, 1, 48, 61
1, 14506, Note_on_c, 0, 65, 0
1, 14506, Note_on_c, 0, 63, 75
1, 14516, Note_on_c, 0, 63, 0
1, 14516, Note_on_c, 0, 65, 75
1, 14519, Note_on_c, 1, 48, 0
1, 14520, Note_on_c, 1, 58, 61
1, 14526, Note_on_c, 0, 65, 0
1, 14526, Note_on_c, 0, 63, 75
1, 14536, Note_on_c, 0, 63, 0
1, 14536, Note_on_c, 0, 65, 75
1, 14543, Note_on_c, 1, 58, 0
1, 14544, Note_on_c, 1, 53, 61
1, 14546, Note_on_c, 0, 65, 0
1, 14546, Note_on_c, 0, 63, 75
1, 14556, Note_on_c, 0, 63, 0
1, 14556, Note_on_c, 0, 62, 75
1, 14567, Note_on_c, 1, 53, 0
1, 14568, Note_on_c, 1, 58, 61
1, 14574, Note_on_c, 0, 62, 0
1, 14574, Note_on_c, 0, 63, 75
1, 14591, Note_on_c, 1, 58, 0
1, 14592, Note_on_c, 0, 63, 0
1, 14592, Note_on_c, 0, 65, 75
1, 14592, Note_on_c, 1, 50, 61
1, 14615, Note_on_c, 1, 50, 0
1, 14616, Note_on_c, 1, 58, 61
1, 14637, Note_on_c, 0, 65, 0
1, 14639, Note_on_c, 1, 58, 0
1, 14640, Note_on_c, 0, 70, 91
1, 14640, Note_on_c, 1, 53, 61
1, 14663, Note_on_c, 1, 53, 0
1, 14664, Note_on_c, 1, 58, 61
1, 14687, Note_on_c, 1, 58, 0
1, 14688, Note_on_c, 1, 50, 61
1, 14711, Note_on_c, 1, 50, 0
1, 14712, Note_on_c, 1, 58, 61
1, 14735, Note_on_c, 1, 58, 0
1, 14736, Note_on_c, 0, 70, 0
1, 14736, Note_on_c, 0, 68, 75
1, 14736, Note_on_c, 1, 53, 61
1, 14759, Note_on_c, 1, 53, 0
1, 14760, Note_on_c, 1, 58, 61
1, 14783, Note_on_c, 1, 58, 0
1, 14784, Note_on_c, 1, 51, 61
1, 14807, Note_on_c, 1, 51, 0
1, 14808, Note_on_c, 1, 58, 61
1, 14825, Note_on_c, 0, 68, 0
1, 14831, Note_on_c, 1, 58, 0
1, 14832, Note_on_c, 0, 67, 75
1, 14832, Note_on_c, 1, 55, 61
1, 14855, Note_on_c, 1, 55, 0
1, 14856, Note_on_c, 1, 58, 61
1, 14879, Note_on_c, 1, 58, 0
1, 14880, Note_on_c, 1, 51, 61
1, 14903, Note_on_c, 1, 51, 0
1, 14904, Note_on_c, 1, 58, 61
1, 14921, Note_on_c, 0, 67, 0
1, 14927, Note_on_c, 1, 58, 0
1, 14928, Note_on_c, 0, 66, 75
1, 14928, Note_on_c, 1, 50, 61
1, 14951, Note_on_c, 1, 50, 0
1, 14952, Note_on_c, 1, 58, 61
1, 14973, Note_on_c, 0, 66, 0
1, 14975, Note_on_c, 1, 58, 0
1, 14976, Note_on_c, 0, 67, 75
1, 14976, Note_on_c, 1, 51, 61
1, 14999, Note_on_c, 1, 51, 0
1, 15000, Note_on_c, 1, 58, 62
1, 15023, Note_on_c, 1, 58, 0
1, 15024, Note_on_c, 0, 67, 0
1, 15024, Note_on_c, 0, 66, 76
1, 15024, Note_on_c, 1, 50, 63
1, 15047, Note_on_c, 1, 50, 0
1, 15048, Note_on_c, 1, 58, 65
1, 15069, Note_on_c, 0, 66, 0
1, 15071, Note_on_c, 1, 58, 0
1, 15072, Note_on_c, 0, 67, 77
1, 15072, Note_on_c, 1, 51, 66
1, 15095, Note_on_c, 1, 51, 0
1, 15096, Note_on_c, 1, 58, 67
1, 15119, Note_on_c, 1, 58, 0
1, 15120, Note_on_c, 0, 67, 0
1, 15120, Note_on_c, 0, 66, 78
1, 15120, Note_on_c, 1, 50, 69
1, 15143, Note_on_c, 1, 50, 0
1, 15144, Note_on_c, 1, 58, 70
1, 15165, Note_on_c, 0, 66, 0
1, 15167, Note_on_c, 1, 58, 0
1, 15168, Note_on_c, 0, 67, 79
1, 15168, Note_on_c, 1, 51, 71
1, 15191, Note_on_c, 1, 51, 0
1, 15192, Note_on_c, 1, 58, 73
1, 15213, Note_on_c, 0, 67, 0
1, 15215, Note_on_c, 1, 58, 0
1, 15216, Note_on_c, 0, 79, 80
1, 15216, Note_on_c, 1, 55, 74
1, 15239, Note_on_c, 1, 55, 0
1, 15240, Note_on_c, 1, 58, 75
1, 15261, Note_on_c, 0, 79, 0
1, 15263, Note_on_c, 1, 58, 0
1, 15264, Note_on_c, 0, 79, 81
1, 15264, Note_on_c, 1, 51, 77
1, 15287, Note_on_c, 1, 51, 0
1, 15288, Note_on_c, 1, 59, 78
1, 15309, Note_on_c, 0, 79, 0
1, 15311, Note_on_c, 1, 59, 0
1, 15312, Note_on_c, 0, 79, 82
1, 15312, Note_on_c, 1, 55, 79
1, 15335, Note_on_c, 1, 55, 0
1, 15336, Note_on_c, 1, 59, 81
1, 15357, Note_on_c, 0, 79, 0
1, 15359, Note_on_c, 1, 59, 0
1, 15360, Note_on_c, 0, 79, 84
1, 15360, Note_on_c, 1, 51, 82
1, 15383, Note_on_c, 1, 51, 0
1, 15384, Note_on_c, 1, 60, 84
1, 15407, Note_on_c, 1, 60, 0
1, 15408, Note_on_c, 1, 55, 84
1, 15431, Note_on_c, 1, 55, 0
1, 15432, Note_on_c, 1, 60, 84
1, 15449, Note_on_c, 0, 79, 0
1, 15455, Note_on_c, 1, 60, 0
1, 15456, Note_on_c, 0, 77, 84
1, 15456, Note_on_c, 1, 51, 84
1, 15479, Note_on_c, 0, 77, 0
1, 15479, Note_on_c, 1, 51, 0
1, 15480, Note_on_c, 0, 75, 84
1, 15480, Note_on_c, 1, 60, 82
1, 15503, Note_on_c, 0, 75, 0
1, 15503, Note_on_c, 1, 60, 0
1, 15504, Note_on_c, 0, 74, 84
1, 15504, Note_on_c, 1, 55, 80
1, 15527, Note_on_c, 0, 74, 0
1, 15527, Note_on_c, 1, 55, 0
1, 15528, Note_on_c, 0, 72, 84
1, 15528, Note_on_c, 1, 60, 78
1, 15551, Note_on_c, 0, 72, 0
1, 15551, Note_on_c, 1, 60, 0
1, 15552, Note_on_c, 0, 70, 84
1, 15552, Note_on_c, 1, 53, 76
1, 15575, Note_on_c, 1, 53, 0
1, 15576, Note_on_c, 1, 62, 74
1, 15599, Note_on_c, 1, 62, 0
1, 15600, Note_on_c, 1, 58, 72
1, 15623, Note_on_c, 1, 58, 0
1, 15624, Note_on_c, 1, 62, 70
1, 15647, Note_on_c, 1, 62, 0
1, 15648, Note_on_c, 1, 53, 68
1, 15671, Note_on_c, 0, 70, 0
1, 15671, Note_on_c, 1, 53, 0
1, 15672, Note_on_c, 0, 72, 84
1, 15672, Note_on_c, 1, 62, 66
1, 15684, Note_on_c, 0, 72, 0
1, 15684, Note_on_c, 0, 74, 84
1, 15695, Note_on_c, 1, 62, 0
1, 15696, Note_on_c, 0, 74, 0
1, 15696, Note_on_c, 0, 75, 84
1, 15696, Note_on_c, 1, 58, 64
1, 15708, Note_on_c, 0, 75, 0
1, 15708, Note_on_c, 0, 77, 84
1, 15719, Note_on_c, 1, 58, 0
1, 15720, Note_on_c, 0, 77, 0
1, 15720, Note_on_c, 0, 79, 84
1, 15720, Note_on_c, 1, 62, 62
1, 15732, Note_on_c, 0, 79, 0
1, 15732, Note_on_c, 0, 81, 84
1, 15743, Note_on_c, 1, 62, 0
1, 15744, Note_on_c, 0, 81, 0
1, 15744, Note_on_c, 0, 82, 84
1, 15744, Note_on_c, 1, 53, 61
1, 15767, Note_on_c, 1, 53, 0
1, 15768, Note_on_c, 1, 62, 61
1, 15789, Note_on_c, 0, 82, 0
1, 15791, Note_on_c, 1, 62, 0
1, 15792, Note_on_c, 0, 77, 84
1, 15792, Note_on_c, 1, 58, 61
1, 15815, Note_on_c, 1, 58, 0
1, 15816, Note_on_c, 1, 62, 61
1, 15837, Note_on_c, 0, 77, 0
1, 15839, Note_on_c, 1, 62, 0
1, 15840, Note_on_c, 0, 75, 84
1, 15840, Note_on_c, 1, 53, 61
1, 15863, Note_on_c, 0, 75, 0
1, 15863, Note_on_c, 1, 53, 0
1, 15864, Note_on_c, 0, 74, 84
1, 15864, Note_on_c, 1, 62, 61
1, 15887, Note_on_c, 0, 74, 0
1, 15887, Note_on_c, 1, 62, 0
1, 15888, Note_on_c, 0, 72, 84
1, 15888, Note_on_c, 1, 58, 61
1, 15911, Note_on_c, 0, 72, 0
1, 15911, Note_on_c, 1, 58, 0
1, 15912, Note_on_c, 0, 70, 84
1, 15912, Note_on_c, 1, 62, 61
1, 15935, Note_on_c, 0, 70, 0
1, 15935, Note_on_c, 1, 62, 0
1, 15936, Note_on_c, 0, 65, 84
1, 15936, Note_on_c, 1, 53, 61
1, 15959, Note_on_c, 1, 53, 0
1, 15960, Note_on_c, 1, 62, 61
1, 15983, Note_on_c, 1, 62, 0
1, 15984, Note_on_c, 1, 58, 61
1, 16007, Note_on_c, 1, 58, 0
1, 16008, Note_on_c, 1, 62, 61
1, 16031, Note_on_c, 1, 62, 0
1, 16032, Note_on_c, 1, 53, 61
1, 16055, Note_on_c, 1, 53, 0
1, 16056, Note_on_c, 1, 62, 61
1, 16079, Note_on_c, 1, 62, 0
1, 16080, Note_on_c, 1, 58, 61
1, 16099, Note_on_c, 0, 65, 0
1, 16103, Note_on_c, 1, 58, 0
1, 16104, Note_on_c, 0, 70, 84
1, 16104, Note_on_c, 1, 62, 61
1, 16116, Note_on_c, 0, 70, 0
1, 16116, Note_on_c, 0, 72, 84
1, 16127, Note_on_c, 1, 62, 0
1, 16128, Note_on_c, 0, 72, 0
1, 16128, Note_on_c, 0, 74, 84
1, 16128, Note_on_c, 1, 53, 61
1, 16139, Note_on_c, 0, 74, 0
1, 16139, Note_on_c, 0, 72, 84
1, 16150, Note_on_c, 0, 72, 0
1, 16150, Note_on_c, 0, 74, 84
1, 16151, Note_on_c, 1, 53, 0
1, 16152, Note_on_c, 1, 63, 61
1, 16161, Note_on_c, 0, 74, 0
1, 16161, Note_on_c, 0, 72, 84
1, 16172, Note_on_c, 0, 72, 0
1, 16172, Note_on_c, 0, 74, 84
1, 16175, Note_on_c, 1, 63, 0
1, 16176, Note_on_c, 1, 60, 61
1, 16183, Note_on_c, 0, 74, 0
1, 16183, Note_on_c, 0, 72, 84
1, 16194, Note_on_c, 0, 72, 0
1, 16194, Note_on_c, 0, 74, 84
1, 16199, Note_on_c, 1, 60, 0
1, 16200, Note_on_c, 1, 63, 61
1, 16205, Note_on_c, 0, 74, 0
1, 16205, Note_on_c, 0, 72, 84
1, 16216, Note_on_c, 0, 72, 0
1, 16216, Note_on_c, 0, 74, 84
1, 16223, Note_on_c, 1, 63, 0
1, 16224, Note_on_c, 1, 53, 61
1, 16227, Note_on_c, 0, 74, 0
1, 16227, Note_on_c, 0, 72, 84
1, 16238, Note_on_c, 0, 72, 0
1, 16238, Note_on_c, 0, 74, 84
1, 16247, Note_on_c, 1, 53, 0
1, 16248, Note_on_c, 1, 63, 61
1, 16249, Note_on_c, 0, 74, 0
1, 16249, Note_on_c, 0, 72, 84
1, 16260, Note_on_c, 0, 72, 0
1, 16260, Note_on_c, 0, 74, 84
1, 16270, Note_on_c, 0, 74, 0
1, 16270, Note_on_c, 0, 72, 84
1, 16271, Note_on_c, 1, 63, 0
1, 16272, Note_on_c, 1, 60, 61
1, 16280, Note_on_c, 0, 72, 0
1, 16280, Note_on_c, 0, 70, 84
1, 16295, Note_on_c, 1, 60, 0
1, 16296, Note_on_c, 1, 63, 61
1, 16300, Note_on_c, 0, 70, 0
1, 16300, Note_on_c, 0, 72, 84
1, 16319, Note_on_c, 1, 63, 0
1, 16320, Note_on_c, 0, 72, 0
1, 16320, Note_on_c, 0, 70, 84
1, 16320, Note_on_c, 1, 62, 61
1, 16320, Note_on_c, 1, 58, 61
1, 16409, Note_on_c, 0, 70, 0
1, 16409, Note_on_c, 1, 62, 0
1, 16409, Note_on_c, 1, 58, 0
1, 16416, Note_on_c, 1, 58, 75
1, 16416, Note_on_c, 1, 50, 75
1, 16440, Note_on_c, 0, 65, 75
1, 16450, Note_on_c, 0, 65, 0
1, 16464, Note_on_c, 0, 67, 75
1, 16476, Note_on_c, 0, 67, 0
1, 16476, Note_on_c, 0, 65, 75
1, 16488, Note_on_c, 0, 65, 0
1, 16488, Note_on_c, 0, 64, 75
1, 16500, Note_on_c, 0, 64, 0
1, 16500, Note_on_c, 0, 65, 75
1, 16505, Note_on_c, 1, 58, 0
1, 16505, Note_on_c, 1, 50, 0
1, 16512, Note_on_c, 0, 65, 0
1, 16512, Note_on_c, 1, 58, 75
1, 16512, Note_on_c, 1, 51, 75
1, 16536, Note_on_c, 0, 67, 75
1, 16546, Note_on_c, 0, 67, 0
1, 16560, Note_on_c, 0, 69, 75
1, 16572, Note_on_c, 0, 69, 0
1, 16572, Note_on_c, 0, 67, 75
1, 16584, Note_on_c, 0, 67, 0
1, 16584, Note_on_c, 0, 66, 75
1, 16596, Note_on_c, 0, 66, 0
1, 16596, Note_on_c, 0, 67, 75
1, 16601, Note_on_c, 1, 58, 0
1, 16601, Note_on_c, 1, 51, 0
1, 16608, Note_on_c, 0, 67, 0
1, 16608, Note_on_c, 1, 57, 75
1, 16608, Note_on_c, 1, 53, 75
1, 16632, Note_on_c, 0, 69, 75
1, 16655, Note_on_c, 0, 69, 0
1, 16656, Note_on_c, 0, 72, 75
1, 16679, Note_on_c, 0, 72, 0
1, 16680, Note_on_c, 0, 75, 75
1, 16697, Note_on_c, 1, 57, 0
1, 16697, Note_on_c, 1, 53, 0
1, 16703, Note_on_c, 0, 75, 0
1, 16704, Note_on_c, 0, 75, 75
1, 16704, Note_on_c, 1, 58, 75
1, 16704, Note_on_c, 1, 46, 75
1, 16727, Note_on_c, 0, 75, 0
1, 16728, Note_on_c, 0, 74, 75
1, 16751, Note_on_c, 0, 74, 0
1, 16752, Note_on_c, 0, 72, 75
1, 16775, Note_on_c, 0, 72, 0
1, 16776, Note_on_c, 0, 70, 75
1, 16793, Note_on_c, 1, 58, 0
1, 16793, Note_on_c, 1, 46, 0
1, 16799, Note_on_c, 0, 70, 0
1, 16800, Note_on_c, 1, 58, 75
1, 16800, Note_on_c, 1, 50, 75
1, 16824, Note_on_c, 0, 65, 75
1, 16834, Note_on_c, 0, 65, 0
1, 16848, Note_on_c, 0, 67, 75
1, 16860, Note_on_c, 0, 67, 0
1, 16860, Note_on_c, 0, 65, 75
1, 16872, Note_on_c, 0, 65, 0
1, 16872, Note_on_c, 0, 64, 75
1, 16884, Note_on_c, 0, 64, 0
1, 16884, Note_on_c, 0, 65, 75
1, 16889, Note_on_c, 1, 58, 0
1, 16889, Note_on_c, 1, 50, 0
1, 16896, Note_on_c, 0, 65, 0
1, 16896, Note_on_c, 1, 58, 75
1, 16896, Note_on_c, 1, 51, 75
1, 16920, Note_on_c, 0, 67, 75
1, 16930, Note_on_c, 0, 67, 0
1, 16944, Note_on_c, 0, 69, 75
1, 16956, Note_on_c, 0, 69, 0
1, 16956, Note_on_c, 0, 67, 75
1, 16968, Note_on_c, 0, 67, 0
1, 16968, Note_on_c, 0, 66, 75
1, 16980, Note_on_c, 0, 66, 0
1, 16980, Note_on_c, 0, 67, 75
1, 16985, Note_on_c, 1, 58, 0
1, 16985, Note_on_c, 1, 51, 0
1, 16992, Note_on_c, 0, 67, 0
1, 16992, Note_on_c, 1, 53, 75
1, 16992, Note_on_c, 1, 41, 75
1, 17016, Note_on_c, 0, 63, 75
1, 17039, Note_on_c, 0, 63, 0
1, 17040, Note_on_c, 0, 60, 75
1, 17063, Note_on_c, 0, 60, 0
1, 17064, Note_on_c, 0, 57, 75
1, 17074, Note_on_c, 0, 57, 0
1, 17081, Note_on_c, 1, 53, 0
1, 17081, Note_on_c, 1, 41, 0
1, 17088, Note_on_c, 0, 60, 75
1, 17088, Note_on_c, 1, 46, 75
1, 17088, Note_on_c, 1, 34, 75
1, 17100, Note_on_c, 0, 60, 0
1, 17100, Note_on_c, 0, 58, 75
1, 17112, Note_on_c, 0, 58, 0
1, 17112, Note_on_c, 0, 57, 75
1, 17124, Note_on_c, 0, 57, 0
1, 17124, Note_on_c, 0, 58, 75
1, 17136, Note_on_c, 0, 58, 0
1, 17136, Note_on_c, 0, 58, 75
1, 17166, Note_on_c, 0, 58, 0
1, 17182, Note_on_c, 1, 46, 0
1, 17182, Note_on_c, 1, 34, 0
1, 17232, Tempo, 625000
1, 17232, Note_on_c, 0, 67, 75
1, 17252, Note_on_c, 0, 67, 0
1, 17280, Note_on_c, 0, 70, 75
1, 17328, Note_on_c, 1, 51, 75
1, 17348, Note_on_c, 1, 51, 0
1, 17376, Note_on_c, 1, 55, 75
1, 17421, Note_on_c, 0, 70, 0
1, 17424, Note_on_c, 0, 67, 75
1, 17458, Note_on_c, 0, 67, 0
1, 17460, Note_on_c, 0, 68, 75
1, 17465, Note_on_c, 1, 55, 0
1, 17472, Note_on_c, 0, 68, 0
1, 17472, Note_on_c, 0, 70, 75
1, 17520, Note_on_c, 1, 51, 75
1, 17554, Note_on_c, 1, 51, 0
1, 17556, Note_on_c, 1, 53, 75
1, 17568, Note_on_c, 1, 53, 0
1, 17568, Note_on_c, 1, 55, 75
1, 17613, Note_on_c, 0, 70, 0
1, 17616, Note_on_c, 0, 67, 75
1, 17650, Note_on_c, 0, 67, 0
1, 17652, Note_on_c, 0, 68, 75
1, 17657, Note_on_c, 1, 55, 0
1, 17664, Note_on_c, 0, 68, 0
1, 17664, Note_on_c, 0, 70, 75
1, 17684, Note_on_c, 0, 70, 0
1, 17712, Note_on_c, 0, 67, 75
1, 17712, Note_on_c, 1, 63, 75
1, 17746, Note_on_c, 0, 67, 0
1, 17746, Note_on_c, 1, 63, 0
1, 17748, Note_on_c, 0, 68, 75
1, 17748, Note_on_c, 1, 65, 75
1, 17760, Note_on_c, 0, 68, 0
1, 17760, Note_on_c, 0, 70, 75
1, 17760, Note_on_c, 1, 65, 0
1, 17760, Note_on_c, 1, 67, 75
1, 17780, Note_on_c, 0, 70, 0
1, 17780, Note_on_c, 1, 67, 0
1, 17808, Note_on_c, 0, 67, 75
1, 17808, Note_on_c, 1, 63, 75
1, 17842, Note_on_c, 0, 67, 0
1, 17842, Note_on_c, 1, 63, 0
1, 17844, Note_on_c, 0, 68, 75
1, 17844, Note_on_c, 1, 65, 75
1, 17856, Note_on_c, 0, 68, 0
1, 17856, Note_on_c, 0, 70, 75
1, 17856, Note_on_c, 1, 65, 0
1, 17856, Note_on_c, 1, 67, 75
1, 17876, Note_on_c, 0, 70, 0
1, 17895, Note_on_c, 1, 67, 0
1, 17904, Note_on_c, 0, 75, 75
1, 17924, Note_on_c, 0, 75, 0
1, 18000, Note_on_c, 0, 63, 75
1, 18020, Note_on_c, 0, 63, 0
1, 18048, Note_on_c, 0, 67, 75
1, 18096, Note_on_c, 1, 51, 75
1, 18116, Note_on_c, 1, 51, 0
1, 18144, Note_on_c, 1, 55, 75
1, 18181, Note_on_c, 0, 67, 0
1, 18192, Note_on_c, 0, 65, 75
1, 18204, Note_on_c, 0, 65, 0
1, 18204, Note_on_c, 0, 63, 75
1, 18233, Note_on_c, 1, 55, 0
1, 18237, Note_on_c, 0, 63, 0
1, 18240, Note_on_c, 0, 62, 75
1, 18288, Note_on_c, 1, 44, 75
1, 18308, Note_on_c, 1, 44, 0
1, 18336, Note_on_c, 0, 62, 0
1, 18336, Note_on_c, 0, 60, 75
1, 18336, Note_on_c, 1, 56, 75
1, 18381, Note_on_c, 0, 60, 0
1, 18381, Note_on_c, 1, 56, 0
1, 18384, Note_on_c, 0, 68, 75
1, 18384, Note_on_c, 1, 53, 75
1, 18407, Note_on_c, 0, 68, 0
1, 18408, Note_on_c, 0, 65, 75
1, 18429, Note_on_c, 1, 53, 0
1, 18431, Note_on_c, 0, 65, 0
1, 18432, Note_on_c, 0, 63, 75
1, 18432, Note_on_c, 1, 58, 75
1, 18455, Note_on_c, 0, 63, 0
1, 18456, Note_on_c, 0, 62, 75
1, 18479, Note_on_c, 0, 62, 0
1, 18480, Note_on_c, 0, 67, 75
1, 18503, Note_on_c, 0, 67, 0
1, 18504, Note_on_c, 0, 65, 75
1, 18521, Note_on_c, 1, 58, 0
1, 18527, Note_on_c, 0, 65, 0
1, 18528, Note_on_c, 0, 63, 75
1, 18528, Note_on_c, 1, 46, 75
1, 18551, Note_on_c, 0, 63, 0
1, 18552, Note_on_c, 0, 62, 75
1, 18573, Note_on_c, 1, 46, 0
1, 18575, Note_on_c, 0, 62, 0
1, 18576, Note_on_c, 0, 60, 75
1, 18576, Note_on_c, 1, 50, 75
1, 18599, Note_on_c, 0, 60, 0
1, 18600, Note_on_c, 0, 58, 75
1, 18621, Note_on_c, 1, 50, 0
1, 18623, Note_on_c, 0, 58, 0
1, 18624, Note_on_c, 0, 56, 75
1, 18624, Note_on_c, 1, 51, 75
1, 18669, Note_on_c, 1, 51, 0
1, 18672, Note_on_c, 1, 46, 75
1, 18717, Note_on_c, 1, 46, 0
1, 18720, Note_on_c, 0, 56, 0
1, 18720, Note_on_c, 0, 55, 75
1, 18720, Note_on_c, 1, 51, 75
1, 18765, Note_on_c, 0, 55, 0
1, 18768, Note_on_c, 0, 67, 75
1, 18788, Note_on_c, 0, 67, 0
1, 18809, Note_on_c, 1, 51, 0
1, 18816, Note_on_c, 0, 70, 75
1, 18864, Note_on_c, 1, 51, 75
1, 18884, Note_on_c, 1, 51, 0
1, 18912, Note_on_c, 1, 55, 75
1, 18957, Note_on_c, 0, 70, 0
1, 18960, Note_on_c, 0, 67, 75
1, 18994, Note_on_c, 0, 67, 0
1, 18996, Note_on_c, 0, 68, 75
1, 19001, Note_on_c, 1, 55, 0
1, 19008, Note_on_c, 0, 68, 0
1, 19008, Note_on_c, 0, 70, 75
1, 19056, Note_on_c, 1, 51, 75
1, 19090, Note_on_c, 1, 51, 0
1, 19092, Note_on_c, 1, 53, 75
1, 19104, Note_on_c, 1, 53, 0
1, 19104, Note_on_c, 1, 55, 75
1, 19149, Note_on_c, 0, 70, 0
1, 19152, Note_on_c, 0, 67, 75
1, 19164, Note_on_c, 0, 67, 0
1, 19164, Note_on_c, 0, 68, 75
1, 19176, Note_on_c, 0, 68, 0
1, 19176, Note_on_c, 0, 67, 75
1, 19188, Note_on_c, 0, 67, 0
1, 19188, Note_on_c, 0, 68, 75
1, 19193, Note_on_c, 1, 55, 0
1, 19200, Note_on_c, 0, 68, 0
1, 19200, Note_on_c, 0, 70, 75
1, 19220, Note_on_c, 0, 70, 0
1, 19248, Note_on_c, 0, 67, 75
1, 19248, Note_on_c, 1, 63, 75
1, 19260, Note_on_c, 0, 67, 0
1, 19260, Note_on_c, 0, 68, 75
1, 19260, Note_on_c, 1, 63, 0
1, 19260, Note_on_c, 1, 65, 75
1, 19272, Note_on_c, 0, 68, 0
1, 19272, Note_on_c, 0, 67, 75
1, 19272, Note_on_c, 1, 65, 0
1, 19272, Note_on_c, 1, 63, 75
1, 19284, Note_on_c, 0, 67, 0
1, 19284, Note_on_c, 0, 68, 75
1, 19284, Note_on_c, 1, 63, 0
1, 19284, Note_on_c, 1, 65, 75
1, 19296, Note_on_c, 0, 68, 0
1, 19296, Note_on_c, 0, 70, 75
1, 19296, Note_on_c, 1, 65, 0
1, 19296, Note_on_c, 1, 67, 75
1, 19316, Note_on_c, 0, 70, 0
1, 19316, Note_on_c, 1, 67, 0
1, 19344, Note_on_c, 0, 67, 75
1, 19344, Note_on_c, 1, 63, 75
1, 19356, Note_on_c, 0, 67, 0
1, 19356, Note_on_c, 0, 68, 75
1, 19356, Note_on_c, 1, 63, 0
1, 19356, Note_on_c, 1, 65, 75
1, 19368, Note_on_c, 0, 68, 0
1, 19368, Note_on_c, 0, 67, 75
1, 19368, Note_on_c, 1, 65, 0
1, 19368, Note_on_c, 1, 63, 75
1, 19380, Note_on_c, 0, 67, 0
1, 19380, Note_on_c, 0, 68, 75
1, 19380, Note_on_c, 1, 63, 0
1, 19380, Note_on_c, 1, 65, 75
1, 19392, Note_on_c, 0, 68, 0
1, 19392, Note_on_c, 0, 70, 75
1, 19392, Note_on_c, 1, 65, 0
1, 19392, Note_on_c, 1, 67, 75
1, 19412, Note_on_c, 0, 70, 0
1, 19431, Note_on_c, 1, 67, 0
1, 19440, Note_on_c, 0, 75, 75
1, 19460, Note_on_c, 0, 75, 0
1, 19536, Note_on_c, 0, 63, 75
1, 19556, Note_on_c, 0, 63, 0
1, 19584, Note_on_c, 0, 67, 75
1, 19632, Note_on_c, 1, 51, 75
1, 19652, Note_on_c, 1, 51, 0
1, 19680, Note_on_c, 1, 55, 75
1, 19717, Note_on_c, 0, 67, 0
1, 19728, Note_on_c, 0, 65, 75
1, 19740, Note_on_c, 0, 65, 0
1, 19740, Note_on_c, 0, 63, 75
1, 19769, Note_on_c, 1, 55, 0
1, 19773, Note_on_c, 0, 63, 0
1, 19776, Note_on_c, 0, 62, 75
1, 19824, Note_on_c, 1, 56, 75
1, 19844, Note_on_c, 1, 56, 0
1, 19872, Note_on_c, 1, 44, 75
1, 19920, Note_on_c, 0, 62, 0
1, 19920, Note_on_c, 0, 60, 75
1, 19940, Note_on_c, 0, 60, 0
1, 19961, Note_on_c, 1, 44, 0
1, 19968, Note_on_c, 0, 68, 75
1, 20016, Note_on_c, 1, 53, 75
1, 20036, Note_on_c, 1, 53, 0
1, 20064, Note_on_c, 1, 56, 75
1, 20101, Note_on_c, 0, 68, 0
1, 20112, Note_on_c, 0, 67, 75
1, 20124, Note_on_c, 0, 67, 0
1, 20124, Note_on_c, 0, 65, 75
1, 20153, Note_on_c, 1, 56, 0
1, 20157, Note_on_c, 0, 65, 0
1, 20160, Note_on_c, 0, 63, 75
1, 20208, Note_on_c, 1, 58, 75
1, 20228, Note_on_c, 1, 58, 0
1, 20256, Note_on_c, 1, 46, 75
1, 20304, Note_on_c, 0, 63, 0
1, 20304, Note_on_c, 0, 62, 75
1, 20324, Note_on_c, 0, 62, 0
1, 20345, Note_on_c, 1, 46, 0
1, 20352, Note_on_c, 0, 70, 75
1, 20400, Note_on_c, 1, 55, 75
1, 20420, Note_on_c, 1, 55, 0
1, 20448, Note_on_c, 1, 58, 75
1, 20485, Note_on_c, 0, 70, 0
1, 20496, Note_on_c, 0, 68, 76
1, 20508, Note_on_c, 0, 68, 0
1, 20508, Note_on_c, 0, 67, 76
1, 20537, Note_on_c, 1, 58, 0
1, 20541, Note_on_c, 0, 67, 0
1, 20544, Note_on_c, 0, 65, 76
1, 20592, Note_on_c, 1, 60, 77
1, 20612, Note_on_c, 1, 60, 0
1, 20640, Note_on_c, 1, 48, 77
1, 20688, Note_on_c, 0, 65, 0
1, 20688, Note_on_c, 0, 63, 78
1, 20708, Note_on_c, 0, 63, 0
1, 20729, Note_on_c, 1, 48, 0
1, 20736, Note_on_c, 0, 68, 78
1, 20784, Note_on_c, 1, 60, 78
1, 20804, Note_on_c, 1, 60, 0
1, 20832, Note_on_c, 1, 58, 79
1, 20869, Note_on_c, 0, 68, 0
1, 20880, Note_on_c, 0, 67, 79
1, 20925, Note_on_c, 0, 67, 0
1, 20928, Note_on_c, 0, 72, 80
1, 20973, Note_on_c, 1, 58, 0
1, 20976, Note_on_c, 1, 56, 80
1, 21017, Note_on_c, 0, 72, 0
1, 21024, Note_on_c, 0, 70, 81
1, 21065, Note_on_c, 1, 56, 0
1, 21072, Note_on_c, 1, 55, 81
1, 21117, Note_on_c, 1, 55, 0
1, 21120, Note_on_c, 1, 50, 81
1, 21143, Note_on_c, 0, 70, 0
1, 21144, Note_on_c, 0, 68, 82
1, 21165, Note_on_c, 1, 50, 0
1, 21168, Note_on_c, 1, 51, 81
1, 21189, Note_on_c, 0, 68, 0
1, 21192, Note_on_c, 0, 67, 82
1, 21213, Note_on_c, 1, 51, 0
1, 21216, Note_on_c, 1, 44, 82
1, 21237, Note_on_c, 0, 67, 0
1, 21240, Note_on_c, 0, 65, 83
1, 21261, Note_on_c, 1, 44, 0
1, 21264, Note_on_c, 1, 46, 82
1, 21285, Note_on_c, 0, 65, 0
1, 21288, Note_on_c, 0, 62, 83
1, 21309, Note_on_c, 1, 46, 0
1, 21311, Note_on_c, 0, 62, 0
1, 21312, Note_on_c, 0, 63, 83
1, 21312, Note_on_c, 1, 51, 83
1, 21335, Note_on_c, 0, 63, 0
1, 21336, Note_on_c, 0, 55, 84
1, 21359, Note_on_c, 0, 55, 0
1, 21360, Note_on_c, 0, 58, 84
1, 21383, Note_on_c, 0, 58, 0
1, 21384, Note_on_c, 0, 55, 84
1, 21401, Note_on_c, 1, 51, 0
1, 21407, Note_on_c, 0, 55, 0
1, 21408, Note_on_c, 0, 63, 84
1, 21431, Note_on_c, 0, 63, 0
1, 21432, Note_on_c, 0, 58, 84
1, 21455, Note_on_c, 0, 58, 0
1, 21456, Note_on_c, 0, 67, 84
1, 21479, Note_on_c, 0, 67, 0
1, 21480, Note_on_c, 0, 63, 84
1, 21503, Note_on_c, 0, 63, 0
1, 21504, Note_on_c, 0, 70, 84
1, 21527, Note_on_c, 0, 70, 0
1, 21528, Note_on_c, 0, 67, 84
1, 21551, Note_on_c, 0, 67, 0
1, 21552, Note_on_c, 0, 75, 84
1, 21552, Note_on_c, 1, 51, 84
1, 21575, Note_on_c, 0, 75, 0
1, 21576, Note_on_c, 0, 67, 84
1, 21597, Note_on_c, 1, 51, 0
1, 21599, Note_on_c, 0, 67, 0
1, 21600, Note_on_c, 0, 70, 84
1, 21600, Note_on_c, 1, 53, 84
1, 21623, Note_on_c, 0, 70, 0
1, 21624, Note_on_c, 0, 68, 84
1, 21645, Note_on_c, 1, 53, 0
1, 21647, Note_on_c, 0, 68, 0
1, 21648, Note_on_c, 0, 67, 84
1, 21648, Note_on_c, 1, 46, 84
1, 21671, Note_on_c, 0, 67, 0
1, 21672, Note_on_c, 0, 65, 84
1, 21693, Note_on_c, 1, 46, 0
1, 21695, Note_on_c, 0, 65, 0
1, 21696, Note_on_c, 0, 67, 84
1, 21720, Note_on_c, 1, 51, 84
1, 21743, Note_on_c, 1, 51, 0
1, 21744, Note_on_c, 0, 67, 0
1, 21744, Note_on_c, 0, 75, 84
1, 21744, Note_on_c, 1, 55, 84
1, 21764, Note_on_c, 0, 75, 0
1, 21767, Note_on_c, 1, 55, 0
1, 21768, Note_on_c, 1, 51, 84
1, 21791, Note_on_c, 1, 51, 0
1, 21792, Note_on_c, 0, 77, 84
1, 21792, Note_on_c, 1, 58, 84
1, 21802, Note_on_c, 0, 77, 0
1, 21802, Note_on_c, 0, 75, 84
1, 21812, Note_on_c, 0, 75, 0
1, 21812, Note_on_c, 0, 77, 84
1, 21815, Note_on_c, 1, 58, 0
1, 21816, Note_on_c, 1, 55, 84
1, 21822, Note_on_c, 0, 77, 0
1, 21822, Note_on_c, 0, 75, 84
1, 21832, Note_on_c, 0, 75, 0
1, 21832, Note_on_c, 0, 77, 84
1, 21839, Note_on_c, 1, 55, 0
1, 21840, Note_on_c, 1, 63, 84
1, 21842, Note_on_c, 0, 77, 0
1, 21842, Note_on_c, 0, 75, 84
1, 21852, Note_on_c, 0, 75, 0
1, 21852, Note_on_c, 0, 77, 84
1, 21861, Note_on_c, 0, 77, 0
1, 21861, Note_on_c, 0, 75, 84
1, 21863, Note_on_c, 1, 63, 0
1, 21864, Note_on_c, 1, 58, 84
1, 21870, Note_on_c, 0, 75, 0
1, 21870, Note_on_c, 0, 74, 84
1, 21879, Note_on_c, 0, 74, 0
1, 21879, Note_on_c, 0, 75, 84
1, 21887, Note_on_c, 1, 58, 0
1, 21888, Note_on_c, 1, 67, 84
1, 21911, Note_on_c, 0, 75, 0
1, 21912, Note_on_c, 0, 70, 84
1, 21935, Note_on_c, 0, 70, 0
1, 21936, Note_on_c, 0, 79, 84
1, 21959, Note_on_c, 0, 79, 0
1, 21960, Note_on_c, 0, 70, 84
1, 21977, Note_on_c, 1, 67, 0
1, 21983, Note_on_c, 0, 70, 0
1, 21984, Note_on_c, 0, 70, 84
1, 21984, Note_on_c, 1, 65, 84
1, 22007, Note_on_c, 0, 70, 0
1, 22008, Note_on_c, 0, 68, 84
1, 22029, Note_on_c, 1, 65, 0
1, 22031, Note_on_c, 0, 68, 0
1, 22032, Note_on_c, 0, 67, 84
1, 22032, Note_on_c, 1, 58, 84
1, 22055, Note_on_c, 0, 67, 0
1, 22056, Note_on_c, 0, 65, 84
1, 22077, Note_on_c, 1, 58, 0
1, 22079, Note_on_c, 0, 65, 0
1, 22080, Note_on_c, 0, 66, 84
1, 22080, Note_on_c, 1, 63, 84
1, 22104, Note_on_c, 0, 66, 0
1, 22104, Note_on_c, 0, 67, 84
1, 22127, Note_on_c, 0, 67, 0
1, 22128, Note_on_c, 0, 75, 84
1, 22151, Note_on_c, 0, 75, 0
1, 22152, Note_on_c, 0, 67, 84
1, 22169, Note_on_c, 1, 63, 0
1, 22175, Note_on_c, 0, 67, 0
1, 22176, Note_on_c, 0, 70, 84
1, 22176, Note_on_c, 1, 65, 84
1, 22199, Note_on_c, 0, 70, 0
1, 22200, Note_on_c, 0, 68, 84
1, 22221, Note_on_c, 1, 65, 0
1, 22223, Note_on_c, 0, 68, 0
1, 22224, Note_on_c, 0, 67, 84
1, 22224, Note_on_c, 1, 58, 84
1, 22247, Note_on_c, 0, 67, 0
1, 22248, Note_on_c, 0, 65, 84
1, 22269, Note_on_c, 1, 58, 0
1, 22271, Note_on_c, 0, 65, 0
1, 22272, Note_on_c, 0, 67, 84
1, 22272, Note_on_c, 1, 63, 84
1, 22287, Note_on_c, 0, 67, 0
1, 22288, Note_on_c, 0, 79, 84
1, 22303, Note_on_c, 0, 79, 0
1, 22304, Note_on_c, 0, 77, 84
1, 22319, Note_on_c, 0, 77, 0
1, 22320, Note_on_c, 0, 75, 84
1, 22335, Note_on_c, 0, 75, 0
1, 22336, Note_on_c, 0, 74, 84
1, 22351, Note_on_c, 0, 74, 0
1, 22352, Note_on_c, 0, 72, 84
1, 22361, Note_on_c, 1, 63, 0
1, 22367, Note_on_c, 0, 72, 0
1, 22368, Note_on_c, 0, 70, 84
1, 22368, Note_on_c, 1, 65, 84
1, 22413, Note_on_c, 0, 70, 0
1, 22413, Note_on_c, 1, 65, 0
1, 22416, Note_on_c, 0, 68, 84
1, 22416, Note_on_c, 1, 58, 84
1, 22426, Note_on_c, 0, 68, 0
1, 22426, Note_on_c, 0, 70, 84
1, 22436, Note_on_c, 0, 70, 0
1, 22436, Note_on_c, 0, 68, 84
1, 22446, Note_on_c, 0, 68, 0
1, 22446, Note_on_c, 0, 67, 84
1, 22455, Note_on_c, 0, 67, 0
1, 22455, Note_on_c, 0, 68, 84
1, 22461, Note_on_c, 1, 58, 0
1, 22464, Note_on_c, 0, 68, 0
1, 22464, Note_on_c, 0, 67, 84
1, 22464, Note_on_c, 1, 63, 84
1, 22509, Note_on_c, 0, 67, 0
1, 22512, Note_on_c, 0, 79, 75
1, 22532, Note_on_c, 0, 79, 0
1, 22553, Note_on_c, 1, 63, 0
1, 22560, Note_on_c, 0, 77, 75
1, 22583, Note_on_c, 0, 77, 0
1, 22584, Note_on_c, 0, 75, 75
1, 22607, Note_on_c, 0, 75, 0
1, 22608, Note_on_c, 0, 74, 75
1, 22608, Note_on_c, 1, 63, 75
1, 22631, Note_on_c, 0, 74, 0
1, 22632, Note_on_c, 0, 72, 75
1, 22653, Note_on_c, 1, 63, 0
1, 22656, Note_on_c, 1, 62, 75
1, 22701, Note_on_c, 0, 72, 0
1, 22704, Note_on_c, 0, 71, 75
1, 22745, Note_on_c, 1, 62, 0
1, 22752, Note_on_c, 1, 55, 75
1, 22793, Note_on_c, 0, 71, 0
1, 22800, Note_on_c, 0, 77, 75
1, 22841, Note_on_c, 1, 55, 0
1, 22848, Note_on_c, 1, 60, 75
1, 22871, Note_on_c, 0, 77, 0
1, 22872, Note_on_c, 0, 75, 75
1, 22895, Note_on_c, 0, 75, 0
1, 22896, Note_on_c, 0, 79, 75
1, 22920, Note_on_c, 0, 79, 0
1, 22920, Note_on_c, 0, 77, 75
1, 22937, Note_on_c, 1, 60, 0
1, 22943, Note_on_c, 0, 77, 0
1, 22944, Note_on_c, 0, 75, 75
1, 22968, Note_on_c, 0, 75, 0
1, 22968, Note_on_c, 0, 74, 75
1, 22991, Note_on_c, 0, 74, 0
1, 22992, Note_on_c, 0, 72, 75
1, 22992, Note_on_c, 1, 63, 75
1, 23016, Note_on_c, 0, 72, 0
1, 23016, Note_on_c, 0, 70, 75
1, 23037, Note_on_c, 1, 63, 0
1, 23039, Note_on_c, 0, 70, 0
1, 23040, Note_on_c, 0, 70, 91
1, 23040, Note_on_c, 1, 65, 75
1, 23088, Note_on_c, 0, 70, 0
1, 23088, Note_on_c, 0, 69, 75
1, 23129, Note_on_c, 1, 65, 0
1, 23136, Note_on_c, 1, 53, 75
1, 23177, Note_on_c, 0, 69, 0
1, 23184, Note_on_c, 0, 75, 75
1, 23225, Note_on_c, 1, 53, 0
1, 23232, Note_on_c, 1, 58, 75
1, 23273, Note_on_c, 0, 75, 0
1, 23280, Note_on_c, 0, 74, 75
1, 23321, Note_on_c, 1, 58, 0
1, 23328, Note_on_c, 1, 62, 75
1, 23369, Note_on_c, 0, 74, 0
1, 23376, Note_on_c, 0, 77, 75
1, 23399, Note_on_c, 0, 77, 0
1, 23400, Note_on_c, 0, 74, 75
1, 23417, Note_on_c, 1, 62, 0
1, 23424, Note_on_c, 1, 63, 75
1, 23447, Note_on_c, 0, 74, 0
1, 23448, Note_on_c, 0, 72, 76
1, 23469, Note_on_c, 1, 63, 0
1, 23472, Note_on_c, 1, 62, 76
1, 23493, Note_on_c, 0, 72, 0
1, 23496, Note_on_c, 0, 71, 78
1, 23517, Note_on_c, 1, 62, 0
1, 23520, Note_on_c, 1, 63, 78
1, 23541, Note_on_c, 0, 71, 0
1, 23544, Note_on_c, 0, 72, 80
1, 23565, Note_on_c, 1, 63, 0
1, 23568, Note_on_c, 1, 64, 79
1, 23589, Note_on_c, 0, 72, 0
1, 23592, Note_on_c, 0, 70, 82
1, 23613, Note_on_c, 1, 64, 0
1, 23616, Note_on_c, 1, 65, 81
1, 23639, Note_on_c, 0, 70, 0
1, 23640, Note_on_c, 0, 69, 84
1, 23663, Note_on_c, 0, 69, 0
1, 23664, Note_on_c, 0, 67, 84
1, 23687, Note_on_c, 0, 67, 0
1, 23688, Note_on_c, 0, 65, 84
1, 23705, Note_on_c, 1, 65, 0
1, 23711, Note_on_c, 0, 65, 0
1, 23712, Note_on_c, 0, 65, 75
1, 23732, Note_on_c, 0, 65, 0
1, 23760, Note_on_c, 0, 77, 76
1, 23760, Note_on_c, 1, 58, 76
1, 23783, Note_on_c, 0, 77, 0
1, 23784, Note_on_c, 0, 74, 77
1, 23805, Note_on_c, 1, 58, 0
1, 23808, Note_on_c, 1, 63, 77
1, 23831, Note_on_c, 0, 74, 0
1, 23832, Note_on_c, 0, 72, 78
1, 23853, Note_on_c, 1, 63, 0
1, 23856, Note_on_c, 1, 62, 78
1, 23877, Note_on_c, 0, 72, 0
1, 23880, Note_on_c, 0, 71, 79
1, 23901, Note_on_c, 1, 62, 0
1, 23904, Note_on_c, 1, 63, 79
1, 23925, Note_on_c, 0, 71, 0
1, 23928, Note_on_c, 0, 72, 81
1, 23949, Note_on_c, 1, 63, 0
1, 23952, Note_on_c, 1, 64, 80
1, 23973, Note_on_c, 0, 72, 0
1, 23976, Note_on_c, 0, 70, 82
1, 23997, Note_on_c, 1, 64, 0
1, 24000, Note_on_c, 1, 65, 81
1, 24023, Note_on_c, 0, 70, 0
1, 24024, Note_on_c, 0, 69, 84
1, 24047, Note_on_c, 0, 69, 0
1, 24048, Note_on_c, 0, 67, 84
1, 24071, Note_on_c, 0, 67, 0
1, 24072, Note_on_c, 0, 65, 84
1, 24089, Note_on_c, 1, 65, 0
1, 24095, Note_on_c, 0, 65, 0
1, 24096, Note_on_c, 0, 65, 84
1, 24116, Note_on_c, 0, 65, 0
1, 24144, Note_on_c, 0, 70, 75
1, 24164, Note_on_c, 0, 70, 0
1, 24192, Note_on_c, 0, 74, 75
1, 24192, Note_on_c, 1, 58, 61
1, 24215, Note_on_c, 1, 58, 0
1, 24216, Note_on_c, 1, 65, 61
1, 24239, Note_on_c, 1, 65, 0
1, 24240, Note_on_c, 1, 62, 61
1, 24263, Note_on_c, 1, 62, 0
1, 24264, Note_on_c, 1, 65, 61
1, 24287, Note_on_c, 1, 65, 0
1, 24288, Note_on_c, 1, 58, 61
1, 24311, Note_on_c, 1, 58, 0
1, 24312, Note_on_c, 1, 65, 61
1, 24325, Note_on_c, 0, 74, 0
1, 24335, Note_on_c, 1, 65, 0
1, 24336, Note_on_c, 0, 77, 75
1, 24336, Note_on_c, 1, 62, 61
1, 24359, Note_on_c, 0, 77, 0
1, 24359, Note_on_c, 1, 62, 0
1, 24360, Note_on_c, 0, 74, 75
1, 24360, Note_on_c, 1, 65, 61
1, 24383, Note_on_c, 0, 74, 0
1, 24383, Note_on_c, 1, 65, 0
1, 24384, Note_on_c, 0, 75, 75
1, 24384, Note_on_c, 1, 57, 61
1, 24407, Note_on_c, 1, 57, 0
1, 24408, Note_on_c, 1, 65, 61
1, 24431, Note_on_c, 1, 65, 0
1, 24432, Note_on_c, 1, 60, 61
1, 24455, Note_on_c, 1, 60, 0
1, 24456, Note_on_c, 1, 65, 61
1, 24479, Note_on_c, 1, 65, 0
1, 24480, Note_on_c, 1, 57, 61
1, 24503, Note_on_c, 1, 57, 0
1, 24504, Note_on_c, 1, 65, 61
1, 24517, Note_on_c, 0, 75, 0
1, 24527, Note_on_c, 1, 65, 0
1, 24528, Note_on_c, 0, 72, 75
1, 24528, Note_on_c, 1, 60, 61
1, 24551, Note_on_c, 0, 72, 0
1, 24551, Note_on_c, 1, 60, 0
1, 24552, Note_on_c, 0, 69, 75
1, 24552, Note_on_c, 1, 65, 61
1, 24575, Note_on_c, 0, 69, 0
1, 24575, Note_on_c, 1, 65, 0
1, 24576, Note_on_c, 0, 63, 75
1, 24576, Note_on_c, 1, 57, 61
1, 24599, Note_on_c, 1, 57, 0
1, 24600, Note_on_c, 1, 65, 61
1, 24623, Note_on_c, 1, 65, 0
1, 24624, Note_on_c, 1, 60, 61
1, 24647, Note_on_c, 1, 60, 0
1, 24648, Note_on_c, 1, 65, 61
1, 24671, Note_on_c, 1, 65, 0
1, 24672, Note_on_c, 1, 57, 61
1, 24695, Note_on_c, 1, 57, 0
1, 24696, Note_on_c, 1, 65, 61
1, 24716, Note_on_c, 0, 63, 0
1, 24719, Note_on_c, 1, 65, 0
1, 24720, Note_on_c, 0, 75, 75
1, 24720, Note_on_c, 1, 60, 61
1, 24743, Note_on_c, 1, 60, 0
1, 24744, Note_on_c, 0, 75, 0
1, 24744, Note_on_c, 0, 72, 75
1, 24744, Note_on_c, 1, 65, 61
1, 24767, Note_on_c, 0, 72, 0
1, 24767, Note_on_c, 1, 65, 0
1, 24768, Note_on_c, 0, 74, 75
1, 24768, Note_on_c, 1, 58, 61
1, 24791, Note_on_c, 1, 58, 0
1, 24792, Note_on_c, 1, 65, 61
1, 24815, Note_on_c, 1, 65, 0
1, 24816, Note_on_c, 1, 62, 61
1, 24839, Note_on_c, 1, 62, 0
1, 24840, Note_on_c, 1, 65, 61
1, 24863, Note_on_c, 1, 65, 0
1, 24864, Note_on_c, 1, 58, 61
1, 24887, Note_on_c, 1, 58, 0
1, 24888, Note_on_c, 1, 65, 61
1, 24901, Note_on_c, 0, 74, 0
1, 24911, Note_on_c, 1, 65, 0
1, 24912, Note_on_c, 0, 70, 75
1, 24912, Note_on_c, 1, 62, 61
1, 24924, Note_on_c, 0, 70, 0
1, 24924, Note_on_c, 0, 72, 75
1, 24935, Note_on_c, 1, 62, 0
1, 24936, Note_on_c, 0, 72, 0
1, 24936, Note_on_c, 0, 70, 75
1, 24936, Note_on_c, 1, 65, 61
1, 24948, Note_on_c, 0, 70, 0
1, 24948, Note_on_c, 0, 72, 75
1, 24959, Note_on_c, 1, 65, 0
1, 24960, Note_on_c, 0, 72, 0
1, 24960, Note_on_c, 0, 74, 75
1, 24960, Note_on_c, 1, 58, 61
1, 24980, Note_on_c, 0, 74, 0
1, 24983, Note_on_c, 1, 58, 0
1, 24984, Note_on_c, 1, 65, 61
1, 25007, Note_on_c, 1, 65, 0
1, 25008, Note_on_c, 0, 74, 75
1, 25008, Note_on_c, 1, 62, 61
1, 25020, Note_on_c, 0, 74, 0
1, 25020, Note_on_c, 0, 75, 75
1, 25031, Note_on_c, 1, 62, 0
1, 25032, Note_on_c, 0, 75, 0
1, 25032, Note_on_c, 0, 74, 75
1, 25032, Note_on_c, 1, 65, 61
1, 25044, Note_on_c, 0, 74, 0
1, 25044, Note_on_c, 0, 75, 75
1, 25055, Note_on_c, 1, 65, 0
1, 25056, Note_on_c, 0, 75, 0
1, 25056, Note_on_c, 0, 77, 75
1, 25056, Note_on_c, 1, 58, 61
1, 25076, Note_on_c, 0, 77, 0
1, 25079, Note_on_c, 1, 58, 0
1, 25080, Note_on_c, 1, 65, 61
1, 25103, Note_on_c, 1, 65, 0
1, 25104, Note_on_c, 0, 82, 75
1, 25104, Note_on_c, 1, 62, 61
1, 25127, Note_on_c, 1, 62, 0
1, 25128, Note_on_c, 1, 65, 61
1, 25149, Note_on_c, 0, 82, 0
1, 25151, Note_on_c, 1, 65, 0
1, 25152, Note_on_c, 0, 82, 75
1, 25152, Note_on_c, 1, 58, 61
1, 25175, Note_on_c, 1, 58, 0
1, 25176, Note_on_c, 0, 82, 0
1, 25176, Note_on_c, 0, 79, 75
1, 25176, Note_on_c, 1, 67, 61
1, 25199, Note_on_c, 0, 79, 0
1, 25199, Note_on_c, 1, 67, 0
1, 25200, Note_on_c, 0, 79, 75
1, 25200, Note_on_c, 1, 63, 61
1, 25223, Note_on_c, 1, 63, 0
1, 25224, Note_on_c, 1, 67, 61
1, 25247, Note_on_c, 1, 67, 0
1, 25248, Note_on_c, 1, 58, 61
1, 25271, Note_on_c, 1, 58, 0
1, 25272, Note_on_c, 1, 67, 61
1, 25289, Note_on_c, 0, 79, 0
1, 25295, Note_on_c, 1, 67, 0
1, 25296, Note_on_c, 0, 82, 75
1, 25296, Note_on_c, 1, 63, 61
1, 25319, Note_on_c, 1, 63, 0
1, 25320, Note_on_c, 1, 67, 61
1, 25341, Note_on_c, 0, 82, 0
1, 25343, Note_on_c, 1, 67, 0
1, 25344, Note_on_c, 0, 82, 75
1, 25344, Note_on_c, 1, 58, 61
1, 25367, Note_on_c, 1, 58, 0
1, 25368, Note_on_c, 0, 82, 0
1, 25368, Note_on_c, 0, 77, 75
1, 25368, Note_on_c, 1, 65, 61
1, 25391, Note_on_c, 0, 77, 0
1, 25391, Note_on_c, 1, 65, 0
1, 25392, Note_on_c, 0, 77, 75
1, 25392, Note_on_c, 1, 62, 61
1, 25415, Note_on_c, 1, 62, 0
1, 25416, Note_on_c, 1, 65, 61
1, 25439, Note_on_c, 1, 65, 0
1, 25440, Note_on_c, 1, 58, 61
1, 25463, Note_on_c, 1, 58, 0
1, 25464, Note_on_c, 1, 65, 61
1, 25481, Note_on_c, 0, 77, 0
1, 25487, Note_on_c, 1, 65, 0
1, 25488, Note_on_c, 0, 82, 75
1, 25488, Note_on_c, 1, 62, 61
1, 25511, Note_on_c, 1, 62, 0
1, 25512, Note_on_c, 0, 82, 0
1, 25512, Note_on_c, 0, 77, 75
1, 25512, Note_on_c, 1, 65, 61
1, 25535, Note_on_c, 0, 77, 0
1, 25535, Note_on_c, 1, 65, 0
1, 25536, Note_on_c, 0, 77, 75
1, 25536, Note_on_c, 1, 58, 61
1, 25559, Note_on_c, 1, 58, 0
1, 25560, Note_on_c, 0, 77, 0
1, 25560, Note_on_c, 0, 76, 75
1, 25560, Note_on_c, 1, 67, 61
1, 25581, Note_on_c, 0, 76, 0
1, 25583, Note_on_c, 1, 67, 0
1, 25584, Note_on_c, 0, 76, 75
1, 25584, Note_on_c, 1, 61, 61
1, 25607, Note_on_c, 1, 61, 0
1, 25608, Note_on_c, 1, 67, 61
1, 25629, Note_on_c, 0, 76, 0
1, 25631, Note_on_c, 1, 67, 0
1, 25632, Note_on_c, 0, 76, 75
1, 25632, Note_on_c, 1, 58, 61
1, 25655, Note_on_c, 1, 58, 0
1, 25656, Note_on_c, 1, 67, 61
1, 25677, Note_on_c, 0, 76, 0
1, 25679, Note_on_c, 1, 67, 0
1, 25680, Note_on_c, 0, 76, 75
1, 25680, Note_on_c, 1, 61, 61
1, 25703, Note_on_c, 1, 61, 0
1, 25704, Note_on_c, 1, 67, 61
1, 25725, Note_on_c, 0, 76, 0
1, 25727, Note_on_c, 1, 67, 0
1, 25728, Note_on_c, 0, 73, 75
1, 25728, Note_on_c, 1, 58, 61
1, 25740, Note_on_c, 0, 73, 0
1, 25740, Note_on_c, 0, 85, 91
1, 25751, Note_on_c, 1, 58, 0
1, 25752, Note_on_c, 1, 67, 61
1, 25775, Note_on_c, 1, 67, 0
1, 25776, Note_on_c, 1, 61, 61
1, 25799, Note_on_c, 1, 61, 0
1, 25800, Note_on_c, 1, 67, 61
1, 25823, Note_on_c, 1, 67, 0
1, 25824, Note_on_c, 1, 58, 61
1, 25847, Note_on_c, 1, 58, 0
1, 25848, Note_on_c, 1, 67, 61
1, 25858, Note_on_c, 0, 85, 0
1, 25860, Note_on_c, 0, 76, 91
1, 25865, Note_on_c, 0, 76, 0
1, 25871, Note_on_c, 1, 67, 0
1, 25872, Note_on_c, 0, 77, 75
1, 25872, Note_on_c, 1, 61, 61
1, 25880, Note_on_c, 0, 77, 0
1, 25880, Note_on_c, 0, 76, 75
1, 25888, Note_on_c, 0, 76, 0
1, 25888, Note_on_c, 0, 77, 75
1, 25895, Note_on_c, 1, 61, 0
1, 25896, Note_on_c, 0, 77, 0
1, 25896, Note_on_c, 0, 76, 75
1, 25896, Note_on_c, 1, 65, 61
1, 25904, Note_on_c, 0, 76, 0
1, 25904, Note_on_c, 0, 74, 75
1, 25912, Note_on_c, 0, 74, 0
1, 25912, Note_on_c, 0, 76, 75
1, 25919, Note_on_c, 1, 65, 0
1, 25920, Note_on_c, 0, 76, 0
1, 25920, Note_on_c, 0, 77, 75
1, 25920, Note_on_c, 1, 57, 61
1, 25943, Note_on_c, 1, 57, 0
1, 25944, Note_on_c, 1, 65, 61
1, 25965, Note_on_c, 0, 77, 0
1, 25967, Note_on_c, 1, 65, 0
1, 25968, Note_on_c, 0, 77, 75
1, 25968, Note_on_c, 1, 60, 61
1, 25991, Note_on_c, 1, 60, 0
1, 25992, Note_on_c, 1, 65, 61
1, 26015, Note_on_c, 1, 65, 0
1, 26016, Note_on_c, 1, 57, 61
1, 26039, Note_on_c, 1, 57, 0
1, 26040, Note_on_c, 1, 65, 61
1, 26057, Note_on_c, 0, 77, 0
1, 26063, Note_on_c, 1, 65, 0
1, 26064, Note_on_c, 0, 79, 75
1, 26064, Note_on_c, 1, 60, 61
1, 26087, Note_on_c, 1, 60, 0
1, 26088, Note_on_c, 0, 79, 0
1, 26088, Note_on_c, 0, 75, 75
1, 26088, Note_on_c, 1, 65, 61
1, 26111, Note_on_c, 0, 75, 0
1, 26111, Note_on_c, 1, 65, 0
1, 26112, Note_on_c, 0, 75, 75
1, 26112, Note_on_c, 1, 58, 61
1, 26135, Note_on_c, 1, 58, 0
1, 26136, Note_on_c, 0, 75, 0
1, 26136, Note_on_c, 0, 74, 75
1, 26136, Note_on_c, 1, 65, 61
1, 26159, Note_on_c, 0, 74, 0
1, 26159, Note_on_c, 1, 65, 0
1, 26160, Note_on_c, 0, 77, 75
1, 26160, Note_on_c, 1, 62, 61
1, 26183, Note_on_c, 1, 62, 0
1, 26184, Note_on_c, 0, 77, 0
1, 26184, Note_on_c, 0, 70, 75
1, 26184, Note_on_c, 1, 65, 61
1, 26207, Note_on_c, 0, 70, 0
1, 26207, Note_on_c, 1, 65, 0
1, 26208, Note_on_c, 0, 70, 75
1, 26208, Note_on_c, 1, 60, 61
1, 26231, Note_on_c, 1, 60, 0
1, 26232, Note_on_c, 0, 70, 0
1, 26232, Note_on_c, 0, 69, 75
1, 26232, Note_on_c, 1, 65, 61
1, 26255, Note_on_c, 0, 69, 0
1, 26255, Note_on_c, 1, 65, 0
1, 26256, Note_on_c, 0, 72, 75
1, 26256, Note_on_c, 1, 63, 61
1, 26279, Note_on_c, 1, 63, 0
1, 26280, Note_on_c, 0, 72, 0
1, 26280, Note_on_c, 0, 69, 75
1, 26280, Note_on_c, 1, 65, 61
1, 26303, Note_on_c, 0, 69, 0
1, 26303, Note_on_c, 1, 65, 0
1, 26304, Note_on_c, 0, 70, 75
1, 26304, Note_on_c, 1, 62, 61
1, 26324, Note_on_c, 0, 70, 0
1, 26327, Note_on_c, 1, 62, 0
1, 26328, Note_on_c, 1, 65, 61
1, 26351, Note_on_c, 1, 65, 0
1, 26352, Note_on_c, 0, 74, 75
1, 26352, Note_on_c, 1, 58, 61
1, 26372, Note_on_c, 0, 74, 0
1, 26375, Note_on_c, 1, 58, 0
1, 26376, Note_on_c, 1, 65, 61
1, 26399, Note_on_c, 1, 65, 0
1, 26400, Note_on_c, 0, 72, 75
1, 26400, Note_on_c, 1, 57, 61
1, 26420, Note_on_c, 0, 72, 0
1, 26423, Note_on_c, 1, 57, 0
1, 26424, Note_on_c, 1, 65, 61
1, 26447, Note_on_c, 1, 65, 0
1, 26448, Note_on_c, 0, 75, 75
1, 26448, Note_on_c, 1, 60, 61
1, 26468, Note_on_c, 0, 75, 0
1, 26471, Note_on_c, 1, 60, 0
1, 26472, Note_on_c, 1, 63, 61
1, 26495, Note_on_c, 1, 63, 0
1, 26496, Note_on_c, 0, 75, 75
1, 26496, Note_on_c, 1, 58, 61
1, 26519, Note_on_c, 1, 58, 0
1, 26520, Note_on_c, 0, 75, 0
1, 26520, Note_on_c, 0, 74, 75
1, 26520, Note_on_c, 1, 65, 61
1, 26543, Note_on_c, 0, 74, 0
1, 26543, Note_on_c, 1, 65, 0
1, 26544, Note_on_c, 0, 77, 75
1, 26544, Note_on_c, 1, 62, 61
1, 26567, Note_on_c, 1, 62, 0
1, 26568, Note_on_c, 0, 77, 0
1, 26568, Note_on_c, 0, 70, 75
1, 26568, Note_on_c, 1, 65, 61
1, 26591, Note_on_c, 0, 70, 0
1, 26591, Note_on_c, 1, 65, 0
1, 26592, Note_on_c, 0, 70, 75
1, 26592, Note_on_c, 1, 60, 61
1, 26615, Note_on_c, 1, 60, 0
1, 26616, Note_on_c, 0, 70, 0
1, 26616, Note_on_c, 0, 69, 75
1, 26616, Note_on_c, 1, 65, 61
1, 26639, Note_on_c, 0, 69, 0
1, 26639, Note_on_c, 1, 65, 0
1, 26640, Note_on_c, 0, 72, 75
1, 26640, Note_on_c, 1, 63, 61
1, 26663, Note_on_c, 1, 63, 0
1, 26664, Note_on_c, 0, 72, 0
1, 26664, Note_on_c, 0, 69, 75
1, 26664, Note_on_c, 1, 65, 61
1, 26687, Note_on_c, 0, 69, 0
1, 26687, Note_on_c, 1, 65, 0
1, 26688, Note_on_c, 0, 70, 75
1, 26688, Note_on_c, 1, 62, 61
1, 26708, Note_on_c, 0, 70, 0
1, 26711, Note_on_c, 1, 62, 0
1, 26712, Note_on_c, 1, 65, 61
1, 26735, Note_on_c, 1, 65, 0
1, 26736, Note_on_c, 0, 74, 75
1, 26736, Note_on_c, 1, 58, 61
1, 26756, Note_on_c, 0, 74, 0
1, 26759, Note_on_c, 1, 58, 0
1, 26760, Note_on_c, 1, 65, 61
1, 26783, Note_on_c, 1, 65, 0
1, 26784, Note_on_c, 0, 72, 75
1, 26784, Note_on_c, 1, 57, 61
1, 26804, Note_on_c, 0, 72, 0
1, 26807, Note_on_c, 1, 57, 0
1, 26808, Note_on_c, 1, 65, 61
1, 26831, Note_on_c, 1, 65, 0
1, 26832, Note_on_c, 0, 75, 75
1, 26832, Note_on_c, 1, 60, 61
1, 26852, Note_on_c, 0, 75, 0
1, 26855, Note_on_c, 1, 60, 0
1, 26856, Note_on_c, 1, 63, 61
1, 26879, Note_on_c, 1, 63, 0
1, 26880, Note_on_c, 0, 74, 75
1, 26880, Note_on_c, 1, 58, 75
1, 26890, Note_on_c, 0, 74, 0
1, 26904, Note_on_c, 0, 82, 75
1, 26927, Note_on_c, 0, 82, 0
1, 26928, Note_on_c, 0, 81, 75
1, 26951, Note_on_c, 0, 81, 0
1, 26952, Note_on_c, 0, 82, 75
1, 26969, Note_on_c, 1, 58, 0
1, 26975, Note_on_c, 0, 82, 0
1, 26976, Note_on_c, 1, 62, 75
1, 27000, Note_on_c, 0, 80, 75
1, 27023, Note_on_c, 0, 80, 0
1, 27024, Note_on_c, 0, 79, 75
1, 27047, Note_on_c, 0, 79, 0
1, 27048, Note_on_c, 0, 78, 75
1, 27065, Note_on_c, 1, 62, 0
1, 27071, Note_on_c, 0, 78, 0
1, 27072, Note_on_c, 1, 63, 75
1, 27096, Note_on_c, 0, 79, 75
1, 27119, Note_on_c, 0, 79, 0
1, 27120, Note_on_c, 0, 78, 75
1, 27143, Note_on_c, 0, 78, 0
1, 27144, Note_on_c, 0, 79, 75
1, 27161, Note_on_c, 1, 63, 0
1, 27167, Note_on_c, 0, 79, 0
1, 27168, Note_on_c, 0, 77, 75
1, 27191, Note_on_c, 0, 77, 0
1, 27192, Note_on_c, 0, 75, 75
1, 27215, Note_on_c, 0, 75, 0
1, 27216, Note_on_c, 0, 74, 75
1, 27239, Note_on_c, 0, 74, 0
1, 27240, Note_on_c, 0, 72, 75
1, 27263, Note_on_c, 0, 72, 0
1, 27264, Note_on_c, 0, 70, 75
1, 27312, Note_on_c, 1, 62, 75
1, 27353, Note_on_c, 0, 70, 0
1, 27357, Note_on_c, 1, 62, 0
1, 27360, Note_on_c, 0, 74, 75
1, 27360, Note_on_c, 1, 63, 75
1, 27383, Note_on_c, 0, 74, 0
1, 27384, Note_on_c, 0, 72, 75
1, 27405, Note_on_c, 1, 63, 0
1, 27407, Note_on_c, 0, 72, 0
1, 27408, Note_on_c, 0, 70, 75
1, 27408, Note_on_c, 1, 65, 75
1, 27431, Note_on_c, 0, 70, 0
1, 27432, Note_on_c, 0, 69, 75
1, 27453, Note_on_c, 1, 65, 0
1, 27455, Note_on_c, 0, 69, 0
1, 27456, Note_on_c, 0, 70, 75
1, 27456, Note_on_c, 1, 58, 75
1, 27501, Note_on_c, 0, 70, 0
1, 27504, Note_on_c, 0, 86, 75
1, 27545, Note_on_c, 1, 58, 0
1, 27549, Note_on_c, 0, 86, 0
1, 27552, Note_on_c, 0, 84, 75
1, 27575, Note_on_c, 0, 84, 0
1, 27576, Note_on_c, 0, 82, 75
1, 27599, Note_on_c, 0, 82, 0
1, 27600, Note_on_c, 0, 81, 75
1, 27600, Note_on_c, 1, 74, 61
1, 27600, Note_on_c, 1, 70, 61
1, 27623, Note_on_c, 0, 81, 0
1, 27624, Note_on_c, 0, 79, 75
1, 27645, Note_on_c, 1, 74, 0
1, 27645, Note_on_c, 1, 70, 0
1, 27648, Note_on_c, 1, 72, 61
1, 27648, Note_on_c, 1, 69, 61
1, 27693, Note_on_c, 0, 79, 0
1, 27696, Note_on_c, 0, 77, 75
1, 27737, Note_on_c, 1, 72, 0
1, 27737, Note_on_c, 1, 69, 0
1, 27744, Note_on_c, 1, 70, 61
1, 27744, Note_on_c, 1, 67, 61
1, 27778, Note_on_c, 0, 77, 0
1, 27780, Note_on_c, 0, 76, 75
1, 27792, Note_on_c, 0, 76, 0
1, 27792, Note_on_c, 0, 82, 75
1, 27792, Note_on_c, 1, 70, 0
1, 27792, Note_on_c, 1, 76, 61
1, 27839, Note_on_c, 1, 76, 0
1, 27839, Note_on_c, 1, 67, 0
1, 27840, Note_on_c, 0, 82, 0
1, 27840, Note_on_c, 0, 81, 75
1, 27840, Note_on_c, 1, 77, 61
1, 27840, Note_on_c, 1, 65, 61
1, 27860, Note_on_c, 0, 81, 0
1, 27885, Note_on_c, 1, 77, 0
1, 27885, Note_on_c, 1, 65, 0
1, 27888, Note_on_c, 0, 82, 75
1, 27888, Note_on_c, 1, 74, 61
1, 27888, Note_on_c, 1, 67, 61
1, 27933, Note_on_c, 0, 82, 0
1, 27933, Note_on_c, 1, 74, 0
1, 27933, Note_on_c, 1, 67, 0
1, 27936, Note_on_c, 0, 81, 75
1, 27959, Note_on_c, 0, 81, 0
1, 27960, Note_on_c, 0, 79, 75
1, 27983, Note_on_c, 0, 79, 0
1, 27984, Note_on_c, 0, 77, 75
1, 27984, Note_on_c, 1, 70, 61
1, 27984, Note_on_c, 1, 67, 61
1, 28007, Note_on_c, 0, 77, 0
1, 28008, Note_on_c, 0, 75, 75
1, 28029, Note_on_c, 1, 70, 0
1, 28029, Note_on_c, 1, 67, 0
1, 28032, Note_on_c, 1, 69, 61
1, 28032, Note_on_c, 1, 65, 61
1, 28077, Note_on_c, 0, 75, 0
1, 28080, Note_on_c, 0, 74, 75
1, 28121, Note_on_c, 1, 69, 0
1, 28121, Note_on_c, 1, 65, 0
1, 28128, Note_on_c, 1, 67, 61
1, 28128, Note_on_c, 1, 64, 61
1, 28162, Note_on_c, 0, 74, 0
1, 28164, Note_on_c, 0, 73, 75
1, 28176, Note_on_c, 0, 73, 0
1, 28176, Note_on_c, 0, 79, 75
1, 28176, Note_on_c, 1, 67, 0
1, 28176, Note_on_c, 1, 73, 61
1, 28223, Note_on_c, 1, 73, 0
1, 28223, Note_on_c, 1, 64, 0
1, 28224, Note_on_c, 0, 79, 0
1, 28224, Note_on_c, 0, 77, 75
1, 28224, Note_on_c, 1, 74, 61
1, 28224, Note_on_c, 1, 62, 61
1, 28244, Note_on_c, 0, 77, 0
1, 28269, Note_on_c, 1, 74, 0
1, 28269, Note_on_c, 1, 62, 0
1, 28272, Note_on_c, 0, 79, 75
1, 28272, Note_on_c, 1, 70, 61
1, 28272, Note_on_c, 1, 63, 61
1, 28317, Note_on_c, 0, 79, 0
1, 28317, Note_on_c, 1, 70, 0
1, 28317, Note_on_c, 1, 63, 0
1, 28320, Note_on_c, 0, 77, 75
1, 28343, Note_on_c, 0, 77, 0
1, 28344, Note_on_c, 0, 75, 75
1, 28367, Note_on_c, 0, 75, 0
1, 28368, Note_on_c, 0, 74, 75
1, 28368, Note_on_c, 1, 67, 61
1, 28368, Note_on_c, 1, 63, 61
1, 28391, Note_on_c, 0, 74, 0
1, 28392, Note_on_c, 0, 72, 75
1, 28413, Note_on_c, 1, 67, 0
1, 28413, Note_on_c, 1, 63, 0
1, 28416, Note_on_c, 1, 65, 61
1, 28416, Note_on_c, 1, 62, 61
1, 28461, Note_on_c, 0, 72, 0
1, 28464, Note_on_c, 0, 70, 75
1, 28505, Note_on_c, 1, 65, 0
1, 28505, Note_on_c, 1, 62, 0
1, 28512, Note_on_c, 1, 63, 61
1, 28512, Note_on_c, 1, 60, 61
1, 28546, Note_on_c, 0, 70, 0
1, 28548, Note_on_c, 0, 69, 75
1, 28560, Note_on_c, 0, 69, 0
1, 28560, Note_on_c, 0, 75, 75
1, 28560, Note_on_c, 1, 63, 0
1, 28560, Note_on_c, 1, 69, 61
1, 28607, Note_on_c, 1, 69, 0
1, 28607, Note_on_c, 1, 60, 0
1, 28608, Note_on_c, 1, 70, 61
1, 28608, Note_on_c, 1, 65, 61
1, 28608, Note_on_c, 1, 58, 61
1, 28653, Note_on_c, 0, 75, 0
1, 28656, Note_on_c, 0, 74, 75
1, 28697, Note_on_c, 1, 70, 0
1, 28697, Note_on_c, 1, 65, 0
1, 28697, Note_on_c, 1, 58, 0
1, 28701, Note_on_c, 0, 74, 0
1, 28704, Note_on_c, 1, 69, 61
1, 28704, Note_on_c, 1, 65, 61
1, 28704, Note_on_c, 1, 60, 61
1, 28740, Note_on_c, 0, 75, 75
1, 28752, Note_on_c, 0, 75, 0
1, 28752, Note_on_c, 0, 77, 75
1, 28758, Note_on_c, 0, 77, 0
1, 28758, Note_on_c, 0, 75, 75
1, 28764, Note_on_c, 0, 75, 0
1, 28764, Note_on_c, 0, 74, 75
1, 28770, Note_on_c, 0, 74, 0
1, 28770, Note_on_c, 0, 75, 75
1, 28793, Note_on_c, 1, 69, 0
1, 28793, Note_on_c, 1, 65, 0
1, 28793, Note_on_c, 1, 60, 0
1, 28800, Note_on_c, 1, 70, 61
1, 28800, Note_on_c, 1, 65, 61
1, 28800, Note_on_c, 1, 58, 61
1, 28834, Note_on_c, 0, 75, 0
1, 28836, Note_on_c, 0, 74, 75
1, 28848, Note_on_c, 0, 74, 0
1, 28848, Note_on_c, 0, 75, 75
1, 28854, Note_on_c, 0, 75, 0
1, 28854, Note_on_c, 0, 74, 75
1, 28860, Note_on_c, 0, 74, 0
1, 28860, Note_on_c, 0, 72, 75
1, 28866, Note_on_c, 0, 72, 0
1, 28866, Note_on_c, 0, 74, 75
1, 28889, Note_on_c, 1, 70, 0
1, 28889, Note_on_c, 1, 65, 0
1, 28889, Note_on_c, 1, 58, 0
1, 28895, Note_on_c, 0, 74, 0
1, 28896, Note_on_c, 1, 69, 61
1, 28896, Note_on_c, 1, 65, 61
1, 28896, Note_on_c, 1, 60, 61
1, 28932, Note_on_c, 0, 75, 75
1, 28944, Note_on_c, 0, 75, 0
1, 28944, Note_on_c, 0, 77, 75
1, 28950, Note_on_c, 0, 77, 0
1, 28950, Note_on_c, 0, 75, 75
1, 28956, Note_on_c, 0, 75, 0
1, 28956, Note_on_c, 0, 74, 75
1, 28962, Note_on_c, 0, 74, 0
1, 28962, Note_on_c, 0, 75, 75
1, 28985, Note_on_c, 1, 69, 0
1, 28985, Note_on_c, 1, 65, 0
1, 28985, Note_on_c, 1, 60, 0
1, 28991, Note_on_c, 0, 75, 0
1, 28992, Note_on_c, 0, 74, 75
1, 28992, Note_on_c, 1, 58, 61
1, 29015, Note_on_c, 1, 58, 0
1, 29016, Note_on_c, 1, 70, 61
1, 29039, Note_on_c, 1, 70, 0
1, 29040, Note_on_c, 1, 65, 61
1, 29059, Note_on_c, 0, 74, 0
1, 29063, Note_on_c, 1, 65, 0
1, 29064, Note_on_c, 0, 75, 75
1, 29064, Note_on_c, 1, 70, 61
1, 29074, Note_on_c, 0, 75, 0
1, 29087, Note_on_c, 1, 70, 0
1, 29088, Note_on_c, 0, 77, 75
1, 29088, Note_on_c, 1, 60, 61
1, 29098, Note_on_c, 0, 77, 0
1, 29098, Note_on_c, 0, 75, 75
1, 29108, Note_on_c, 0, 75, 0
1, 29108, Note_on_c, 0, 77, 75
1, 29111, Note_on_c, 1, 60, 0
1, 29112, Note_on_c, 1, 70, 61
1, 29118, Note_on_c, 0, 77, 0
1, 29118, Note_on_c, 0, 75, 75
1, 29128, Note_on_c, 0, 75, 0
1, 29128, Note_on_c, 0, 77, 75
1, 29135, Note_on_c, 1, 70, 0
1, 29136, Note_on_c, 1, 65, 61
1, 29138, Note_on_c, 0, 77, 0
1, 29138, Note_on_c, 0, 75, 75
1, 29148, Note_on_c, 0, 75, 0
1, 29148, Note_on_c, 0, 74, 75
1, 29159, Note_on_c, 1, 65, 0
1, 29160, Note_on_c, 1, 70, 61
1, 29166, Note_on_c, 0, 74, 0
1, 29166, Note_on_c, 0, 75, 75
1, 29183, Note_on_c, 1, 70, 0
1, 29184, Note_on_c, 0, 75, 0
1, 29184, Note_on_c, 0, 77, 75
1, 29184, Note_on_c, 1, 62, 61
1, 29207, Note_on_c, 1, 62, 0
1, 29208, Note_on_c, 1, 70, 61
1, 29229, Note_on_c, 0, 77, 0
1, 29231, Note_on_c, 1, 70, 0
1, 29232, Note_on_c, 0, 82, 91
1, 29232, Note_on_c, 1, 65, 61
1, 29255, Note_on_c, 1, 65, 0
1, 29256, Note_on_c, 1, 70, 61
1, 29279, Note_on_c, 1, 70, 0
1, 29280, Note_on_c, 1, 62, 61
1, 29303, Note_on_c, 1, 62, 0
1, 29304, Note_on_c, 1, 70, 61
1, 29327, Note_on_c, 1, 70, 0
1, 29328, Note_on_c, 0, 82, 0
1, 29328, Note_on_c, 0, 80, 75
1, 29328, Note_on_c, 1, 65, 61
1, 29351, Note_on_c, 1, 65, 0
1, 29352, Note_on_c, 1, 70, 61
1, 29375, Note_on_c, 1, 70, 0
1, 29376, Note_on_c, 1, 63, 61
1, 29399, Note_on_c, 0, 80, 0
1, 29400, Note_on_c, 0, 79, 75
1, 29423, Note_on_c, 0, 79, 0
1, 29424, Note_on_c, 0, 78, 75
1, 29447, Note_on_c, 0, 78, 0
1, 29448, Note_on_c, 0, 79, 75
1, 29465, Note_on_c, 1, 63, 0
1, 29471, Note_on_c, 0, 79, 0
1, 29472, Note_on_c, 0, 77, 75
1, 29495, Note_on_c, 0, 77, 0
1, 29496, Note_on_c, 0, 75, 75
1, 29519, Note_on_c, 0, 75, 0
1, 29520, Note_on_c, 0, 74, 75
1, 29543, Note_on_c, 0, 74, 0
1, 29544, Note_on_c, 0, 72, 75
1, 29567, Note_on_c, 0, 72, 0
1, 29568, Note_on_c, 0, 77, 75
1, 29578, Note_on_c, 0, 77, 0
1, 29592, Note_on_c, 0, 79, 75
1, 29600, Note_on_c, 0, 79, 0
1, 29600, Note_on_c, 0, 77, 75
1, 29608, Note_on_c, 0, 77, 0
1, 29608, Note_on_c, 0, 75, 75
1, 29616, Note_on_c, 0, 75, 0
1, 29616, Note_on_c, 0, 77, 75
1, 29616, Note_on_c, 1, 62, 75
1, 29639, Note_on_c, 0, 77, 0
1, 29640, Note_on_c, 0, 79, 75
1, 29661, Note_on_c, 1, 62, 0
1, 29663, Note_on_c, 0, 79, 0
1, 29664, Note_on_c, 0, 70, 75
1, 29664, Note_on_c, 1, 63, 75
1, 29709, Note_on_c, 0, 70, 0
1, 29709, Note_on_c, 1, 63, 0
1, 29712, Note_on_c, 0, 69, 75
1, 29712, Note_on_c, 1, 65, 75
1, 29757, Note_on_c, 0, 69, 0
1, 29757, Note_on_c, 1, 65, 0
1, 29760, Note_on_c, 0, 70, 75
1, 29760, Note_on_c, 1, 58, 75
1, 29805, Note_on_c, 0, 70, 0
1, 29808, Note_on_c, 0, 74, 75
1, 29849, Note_on_c, 1, 58, 0
1, 29853, Note_on_c, 0, 74, 0
1, 29856, Note_on_c, 0, 72, 75
1, 29879, Note_on_c, 0, 72, 0
1, 29880, Note_on_c, 0, 70, 75
1, 29903, Note_on_c, 0, 70, 0
1, 29904, Note_on_c, 0, 69, 75
1, 29904, Note_on_c, 1, 62, 61
1, 29904, Note_on_c, 1, 58, 61
1, 29927, Note_on_c, 0, 69, 0
1, 29928, Note_on_c, 0, 67, 75
1, 29949, Note_on_c, 1, 62, 0
1, 29949, Note_on_c, 1, 58, 0
1, 29952, Note_on_c, 1, 60, 61
1, 29952, Note_on_c, 1, 57, 61
1, 29997, Note_on_c, 0, 67, 0
1, 30000, Note_on_c, 0, 65, 75
1, 30041, Note_on_c, 1, 60, 0
1, 30041, Note_on_c, 1, 57, 0
1, 30048, Note_on_c, 1, 58, 61
1, 30048, Note_on_c, 1, 55, 61
1, 30082, Note_on_c, 0, 65, 0
1, 30084, Note_on_c, 0, 64, 75
1, 30096, Note_on_c, 0, 64, 0
1, 30096, Note_on_c, 0, 70, 75
1, 30096, Note_on_c, 1, 58, 0
1, 30096, Note_on_c, 1, 64, 61
1, 30143, Note_on_c, 1, 64, 0
1, 30143, Note_on_c, 1, 55, 0
1, 30144, Note_on_c, 0, 70, 0
1, 30144, Note_on_c, 0, 69, 75
1, 30144, Note_on_c, 1, 65, 61
1, 30144, Note_on_c, 1, 53, 61
1, 30164, Note_on_c, 0, 69, 0
1, 30189, Note_on_c, 1, 65, 0
1, 30189, Note_on_c, 1, 53, 0
1, 30192, Note_on_c, 0, 70, 75
1, 30192, Note_on_c, 1, 62, 61
1, 30192, Note_on_c, 1, 55, 61
1, 30237, Note_on_c, 0, 70, 0
1, 30237, Note_on_c, 1, 62, 0
1, 30237, Note_on_c, 1, 55, 0
1, 30240, Note_on_c, 0, 69, 75
1, 30263, Note_on_c, 0, 69, 0
1, 30264, Note_on_c, 0, 67, 75
1, 30287, Note_on_c, 0, 67, 0
1, 30288, Note_on_c, 0, 65, 75
1, 30288, Note_on_c, 1, 58, 61
1, 30288, Note_on_c, 1, 55, 61
1, 30311, Note_on_c, 0, 65, 0
1, 30312, Note_on_c, 0, 63, 75
1, 30333, Note_on_c, 1, 58, 0
1, 30333, Note_on_c, 1, 55, 0
1, 30336, Note_on_c, 1, 57, 61
1, 30336, Note_on_c, 1, 53, 61
1, 30381, Note_on_c, 0, 63, 0
1, 30384, Note_on_c, 0, 62, 75
1, 30425, Note_on_c, 1, 57, 0
1, 30425, Note_on_c, 1, 53, 0
1, 30432, Note_on_c, 1, 55, 61
1, 30432, Note_on_c, 1, 52, 61
1, 30466, Note_on_c, 0, 62, 0
1, 30468, Note_on_c, 0, 61, 75
1, 30480, Note_on_c, 0, 61, 0
1, 30480, Note_on_c, 0, 67, 75
1, 30480, Note_on_c, 1, 55, 0
1, 30480, Note_on_c, 1, 61, 61
1, 30527, Note_on_c, 1, 61, 0
1, 30527, Note_on_c, 1, 52, 0
1, 30528, Note_on_c, 0, 67, 0
1, 30528, Note_on_c, 0, 65, 75
1, 30528, Note_on_c, 1, 62, 61
1, 30528, Note_on_c, 1, 50, 61
1, 30548, Note_on_c, 0, 65, 0
1, 30573, Note_on_c, 1, 62, 0
1, 30573, Note_on_c, 1, 50, 0
1, 30576, Note_on_c, 0, 67, 75
1, 30576, Note_on_c, 1, 58, 61
1, 30576, Note_on_c, 1, 51, 61
1, 30621, Note_on_c, 0, 67, 0
1, 30621, Note_on_c, 1, 58, 0
1, 30621, Note_on_c, 1, 51, 0
1, 30624, Note_on_c, 0, 65, 75
1, 30647, Note_on_c, 0, 65, 0
1, 30648, Note_on_c, 0, 63, 75
1, 30671, Note_on_c, 0, 63, 0
1, 30672, Note_on_c, 0, 62, 75
1, 30672, Note_on_c, 1, 55, 61
1, 30672, Note_on_c, 1, 51, 61
1, 30695, Note_on_c, 0, 62, 0
1, 30696, Note_on_c, 0, 60, 75
1, 30717, Note_on_c, 1, 55, 0
1, 30717, Note_on_c, 1, 51, 0
1, 30720, Note_on_c, 1, 53, 61
1, 30720, Note_on_c, 1, 50, 61
1, 30765, Note_on_c, 0, 60, 0
1, 30768, Note_on_c, 0, 58, 75
1, 30809, Note_on_c, 1, 53, 0
1, 30809, Note_on_c, 1, 50, 0
1, 30816, Note_on_c, 1, 51, 61
1, 30816, Note_on_c, 1, 48, 61
1, 30850, Note_on_c, 0, 58, 0
1, 30852, Note_on_c, 0, 57, 75
1, 30864, Note_on_c, 0, 57, 0
1, 30864, Note_on_c, 0, 63, 75
1, 30864, Note_on_c, 1, 51, 0
1, 30864, Note_on_c, 1, 57, 61
1, 30911, Note_on_c, 1, 57, 0
1, 30911, Note_on_c, 1, 48, 0
1, 30912, Note_on_c, 1, 58, 61
1, 30912, Note_on_c, 1, 53, 61
1, 30912, Note_on_c, 1, 46, 61
1, 30957, Note_on_c, 0, 63, 0
1, 30960, Note_on_c, 0, 62, 75
1, 31001, Note_on_c, 1, 58, 0
1, 31001, Note_on_c, 1, 53, 0
1, 31001, Note_on_c, 1, 46, 0
1, 31005, Note_on_c, 0, 62, 0
1, 31008, Note_on_c, 1, 57, 61
1, 31008, Note_on_c, 1, 53, 61
1, 31008, Note_on_c, 1, 48, 61
1, 31044, Note_on_c, 0, 63, 75
1, 31056, Note_on_c, 0, 63, 0
1, 31056, Note_on_c, 0, 65, 75
1, 31062, Note_on_c, 0, 65, 0
1, 31062, Note_on_c, 0, 63, 75
1, 31068, Note_on_c, 0, 63, 0
1, 31068, Note_on_c, 0, 62, 75
1, 31074, Note_on_c, 0, 62, 0
1, 31074, Note_on_c, 0, 63, 75
1, 31097, Note_on_c, 1, 57, 0
1, 31097, Note_on_c, 1, 53, 0
1, 31097, Note_on_c, 1, 48, 0
1, 31104, Note_on_c, 1, 58, 61
1, 31104, Note_on_c, 1, 53, 61
1, 31104, Note_on_c, 1, 46, 61
1, 31138, Note_on_c, 0, 63, 0
1, 31140, Note_on_c, 0, 62, 75
1, 31152, Note_on_c, 0, 62, 0
1, 31152, Note_on_c, 0, 63, 75
1, 31158, Note_on_c, 0, 63, 0
1, 31158, Note_on_c, 0, 62, 75
1, 31164, Note_on_c, 0, 62, 0
1, 31164, Note_on_c, 0, 60, 75
1, 31170, Note_on_c, 0, 60, 0
1, 31170, Note_on_c, 0, 62, 75
1, 31193, Note_on_c, 1, 58, 0
1, 31193, Note_on_c, 1, 53, 0
1, 31193, Note_on_c, 1, 46, 0
1, 31199, Note_on_c, 0, 62, 0
1, 31200, Note_on_c, 1, 57, 61
1, 31200, Note_on_c, 1, 53, 61
1, 31200, Note_on_c, 1, 48, 61
1, 31236, Note_on_c, 0, 63, 75
1, 31241, Note_on_c, 0, 63, 0
1, 31248, Note_on_c, 0, 65, 75
1, 31254, Note_on_c, 0, 65, 0
1, 31254, Note_on_c, 0, 63, 75
1, 31260, Note_on_c, 0, 63, 0
1, 31260, Note_on_c, 0, 62, 75
1, 31266, Note_on_c, 0, 62, 0
1, 31266, Note_on_c, 0, 63, 75
1, 31289, Note_on_c, 1, 57, 0
1, 31289, Note_on_c, 1, 53, 0
1, 31289, Note_on_c, 1, 48, 0
1, 31295, Note_on_c, 0, 63, 0
1, 31296, Note_on_c, 0, 62, 75
1, 31296, Note_on_c, 1, 46, 61
1, 31319, Note_on_c, 1, 46, 0
1, 31320, Note_on_c, 1, 58, 61
1, 31343, Note_on_c, 1, 58, 0
1, 31344, Note_on_c, 1, 53, 61
1, 31363, Note_on_c, 0, 62, 0
1, 31367, Note_on_c, 1, 53, 0
1, 31368, Note_on_c, 0, 63, 75
1, 31368, Note_on_c, 1, 58, 61
1, 31378, Note_on_c, 0, 63, 0
1, 31391, Note_on_c, 1, 58, 0
1, 31392, Note_on_c, 0, 65, 75
1, 31392, Note_on_c, 1, 48, 61
1, 31402, Note_on_c, 0, 65, 0
1, 31402, Note_on_c, 0, 63, 75
1, 31412, Note_on_c, 0, 63, 0
1, 31412, Note_on_c, 0, 65, 75
1, 31415, Note_on_c, 1, 48, 0
1, 31416, Note_on_c, 1, 58, 61
1, 31422, Note_on_c, 0, 65, 0
1, 31422, Note_on_c, 0, 63, 75
1, 31432, Note_on_c, 0, 63, 0
1, 31432, Note_on_c, 0, 65, 75
1, 31439, Note_on_c, 1, 58, 0
1, 31440, Note_on_c, 1, 53, 61
1, 31442, Note_on_c, 0, 65, 0
1, 31442, Note_on_c, 0, 63, 75
1, 31452, Note_on_c, 0, 63, 0
1, 31452, Note_on_c, 0, 62, 75
1, 31463, Note_on_c, 1, 53, 0
1, 31464, Note_on_c, 1, 58, 61
1, 31470, Note_on_c, 0, 62, 0
1, 31470, Note_on_c, 0, 63, 75
1, 31487, Note_on_c, 1, 58, 0
1, 31488, Note_on_c, 0, 63, 0
1, 31488, Note_on_c, 0, 65, 75
1, 31488, Note_on_c, 1, 50, 61
1, 31511, Note_on_c, 1, 50, 0
1, 31512, Note_on_c, 1, 58, 61
1, 31533, Note_on_c, 0, 65, 0
1, 31535, Note_on_c, 1, 58, 0
1, 31536, Note_on_c, 0, 70, 91
1, 31536, Note_on_c, 1, 53, 61
1, 31559, Note_on_c, 1, 53, 0
1, 31560, Note_on_c, 1, 58, 61
1, 31583, Note_on_c, 1, 58, 0
1, 31584, Note_on_c, 1, 50, 61
1, 31607, Note_on_c, 1, 50, 0
1, 31608, Note_on_c, 1, 58, 61
1, 31631, Note_on_c, 1, 58, 0
1, 31632, Note_on_c, 0, 70, 0
1, 31632, Note_on_c, 0, 68, 75
1, 31632, Note_on_c, 1, 53, 61
1, 31655, Note_on_c, 1, 53, 0
1, 31656, Note_on_c, 1, 58, 61
1, 31679, Note_on_c, 1, 58, 0
1, 31680, Note_on_c, 1, 51, 61
1, 31703, Note_on_c, 1, 51, 0
1, 31704, Note_on_c, 1, 58, 61
1, 31721, Note_on_c, 0, 68, 0
1, 31727, Note_on_c, 1, 58, 0
1, 31728, Note_on_c, 0, 67, 75
1, 31728, Note_on_c, 1, 55, 61
1, 31751, Note_on_c, 1, 55, 0
1, 31752, Note_on_c, 1, 58, 61
1, 31775, Note_on_c, 1, 58, 0
1, 31776, Note_on_c, 1, 51, 61
1, 31799, Note_on_c, 1, 51, 0
1, 31800, Note_on_c, 1, 58, 61
1, 31817, Note_on_c, 0, 67, 0
1, 31823, Note_on_c, 1, 58, 0
1, 31824, Note_on_c, 0, 66, 75
1, 31824, Note_on_c, 1, 50, 61
1, 31847, Note_on_c, 1, 50, 0
1, 31848, Note_on_c, 1, 58, 61
1, 31869, Note_on_c, 0, 66, 0
1, 31871, Note_on_c, 1, 58, 0
1, 31872, Note_on_c, 0, 67, 75
1, 31872, Note_on_c, 1, 51, 61
1, 31895, Note_on_c, 1, 51, 0
1, 31896, Note_on_c, 1, 58, 62
1, 31919, Note_on_c, 1, 58, 0
1, 31920, Note_on_c, 0, 67, 0
1, 31920, Note_on_c, 0, 66, 76
1, 31920, Note_on_c, 1, 50, 63
1, 31943, Note_on_c, 1, 50, 0
1, 31944, Note_on_c, 1, 58, 65
1, 31965, Note_on_c, 0, 66, 0
1, 31967, Note_on_c, 1, 58, 0
1, 31968, Note_on_c, 0, 67, 77
1, 31968, Note_on_c, 1, 51, 66
1, 31991, Note_on_c, 1, 51, 0
1, 31992, Note_on_c, 1, 58, 67
1, 32015, Note_on_c, 1, 58, 0
1, 32016, Note_on_c, 0, 67, 0
1, 32016, Note_on_c, 0, 66, 78
1, 32016, Note_on_c, 1, 50, 69
1, 32039, Note_on_c, 1, 50, 0
1, 32040, Note_on_c, 1, 58, 70
1, 32061, Note_on_c, 0, 66, 0
1, 32063, Note_on_c, 1, 58, 0
1, 32064, Note_on_c, 0, 67, 79
1, 32064, Note_on_c, 1, 51, 71
1, 32087, Note_on_c, 1, 51, 0
1, 32088, Note_on_c, 1, 58, 73
1, 32109, Note_on_c, 0, 67, 0
1, 32111, Note_on_c, 1, 58, 0
1, 32112, Note_on_c, 0, 79, 80
1, 32112, Note_on_c, 1, 55, 74
1, 32135, Note_on_c, 1, 55, 0
1, 32136, Note_on_c, 1, 58, 75
1, 32157, Note_on_c, 0, 79, 0
1, 32159, Note_on_c, 1, 58, 0
1, 32160, Note_on_c, 0, 79, 81
1, 32160, Note_on_c, 1, 51, 77
1, 32183, Note_on_c, 1, 51, 0
1, 32184, Note_on_c, 1, 59, 78
1, 32205, Note_on_c, 0, 79, 0
1, 32207, Note_on_c, 1, 59, 0
1, 32208, Note_on_c, 0, 79, 82
1, 32208, Note_on_c, 1, 55, 79
1, 32231, Note_on_c, 1, 55, 0
1, 32232, Note_on_c, 1, 59, 81
1, 32253, Note_on_c, 0, 79, 0
1, 32255, Note_on_c, 1, 59, 0
1, 32256, Note_on_c, 0, 79, 84
1, 32256, Note_on_c, 1, 51, 82
1, 32279, Note_on_c, 1, 51, 0
1, 32280, Note_on_c, 1, 60, 84
1, 32303, Note_on_c, 1, 60, 0
1, 32304, Note_on_c, 1, 55, 84
1, 32327, Note_on_c, 1, 55, 0
1, 32328, Note_on_c, 1, 60, 84
1, 32345, Note_on_c, 0, 79, 0
1, 32351, Note_on_c, 1, 60, 0
1, 32352, Note_on_c, 0, 77, 84
1, 32352, Note_on_c, 1, 51, 84
1, 32375, Note_on_c, 0, 77, 0
1, 32375, Note_on_c, 1, 51, 0
1, 32376, Note_on_c, 0, 75, 84
1, 32376, Note_on_c, 1, 60, 82
1, 32399, Note_on_c, 0, 75, 0
1, 32399, Note_on_c, 1, 60, 0
1, 32400, Note_on_c, 0, 74, 84
1, 32400, Note_on_c, 1, 55, 80
1, 32423, Note_on_c, 0, 74, 0
1, 32423, Note_on_c, 1, 55, 0
1, 32424, Note_on_c, 0, 72, 84
1, 32424, Note_on_c, 1, 60, 78
1, 32447, Note_on_c, 0, 72, 0
1, 32447, Note_on_c, 1, 60, 0
1, 32448, Note_on_c, 0, 70, 84
1, 32448, Note_on_c, 1, 53, 76
1, 32471, Note_on_c, 1, 53, 0
1, 32472, Note_on_c, 1, 62, 74
1, 32495, Note_on_c, 1, 62, 0
1, 32496, Note_on_c, 1, 58, 72
1, 32519, Note_on_c, 1, 58, 0
1, 32520, Note_on_c, 1, 62, 70
1, 32543, Note_on_c, 1, 62, 0
1, 32544, Note_on_c, 1, 53, 68
1, 32567, Note_on_c, 0, 70, 0
1, 32567, Note_on_c, 1, 53, 0
1, 32568, Note_on_c, 0, 72, 84
1, 32568, Note_on_c, 1, 62, 66
1, 32580, Note_on_c, 0, 72, 0
1, 32580, Note_on_c, 0, 74, 84
1, 32591, Note_on_c, 1, 62, 0
1, 32592, Note_on_c, 0, 74, 0
1, 32592, Note_on_c, 0, 75, 84
1, 32592, Note_on_c, 1, 58, 64
1, 32604, Note_on_c, 0, 75, 0
1, 32604, Note_on_c, 0, 77, 84
1, 32615, Note_on_c, 1, 58, 0
1, 32616, Note_on_c, 0, 77, 0
1, 32616, Note_on_c, 0, 79, 84
1, 32616, Note_on_c, 1, 62, 62
1, 32628, Note_on_c, 0, 79, 0
1, 32628, Note_on_c, 0, 81, 84
1, 32639, Note_on_c, 1, 62, 0
1, 32640, Note_on_c, 0, 81, 0
1, 32640, Note_on_c, 0, 82, 84
1, 32640, Note_on_c, 1, 53, 61
1, 32663, Note_on_c, 1, 53, 0
1, 32664, Note_on_c, 1, 62, 61
1, 32685, Note_on_c, 0, 82, 0
1, 32687, Note_on_c, 1, 62, 0
1, 32688, Note_on_c, 0, 77, 84
1, 32688, Note_on_c, 1, 58, 61
1, 32711, Note_on_c, 1, 58, 0
1, 32712, Note_on_c, 1, 62, 61
1, 32733, Note_on_c, 0, 77, 0
1, 32735, Note_on_c, 1, 62, 0
1, 32736, Note_on_c, 0, 75, 84
1, 32736, Note_on_c, 1, 53, 61
1, 32759, Note_on_c, 0, 75, 0
1, 32759, Note_on_c, 1, 53, 0
1, 32760, Note_on_c, 0, 74, 84
1, 32760, Note_on_c, 1, 62, 61
1, 32783, Note_on_c, 0, 74, 0
1, 32783, Note_on_c, 1, 62, 0
1, 32784, Note_on_c, 0, 72, 84
1, 32784, Note_on_c, 1, 58, 61
1, 32807, Note_on_c, 0, 72, 0
1, 32807, Note_on_c, 1, 58, 0
1, 32808, Note_on_c, 0, 70, 84
1, 32808, Note_on_c, 1, 62, 61
1, 32831, Note_on_c, 0, 70, 0
1, 32831, Note_on_c, 1, 62, 0
1, 32832, Note_on_c, 0, 65, 84
1, 32832, Note_on_c, 1, 53, 61
1, 32855, Note_on_c, 1, 53, 0
1, 32856, Note_on_c, 1, 62, 61
1, 32879, Note_on_c, 1, 62, 0
1, 32880, Note_on_c, 1, 58, 61
1, 32903, Note_on_c, 1, 58, 0
1, 32904, Note_on_c, 1, 62, 61
1, 32927, Note_on_c, 1, 62, 0
1, 32928, Note_on_c, 1, 53, 61
1, 32951, Note_on_c, 1, 53, 0
1, 32952, Note_on_c, 1, 62, 61
1, 32975, Note_on_c, 1, 62, 0
1, 32976, Note_on_c, 1, 58, 61
1, 32995, Note_on_c, 0, 65, 0
1, 32999, Note_on_c, 1, 58, 0
1, 33000, Note_on_c, 0, 70, 84
1, 33000, Note_on_c, 1, 62, 61
1, 33012, Note_on_c, 0, 70, 0
1, 33012, Note_on_c, 0, 72, 84
1, 33023, Note_on_c, 1, 62, 0
1, 33024, Note_on_c, 0, 72, 0
1, 33024, Note_on_c, 0, 74, 84
1, 33024, Note_on_c, 1, 53, 61
1, 33035, Note_on_c, 0, 74, 0
1, 33035, Note_on_c, 0, 72, 84
1, 33046, Note_on_c, 0, 72, 0
1, 33046, Note_on_c, 0, 74, 84
1, 33047, Note_on_c, 1, 53, 0
1, 33048, Note_on_c, 1, 63, 61
1, 33057, Note_on_c, 0, 74, 0
1, 33057, Note_on_c, 0, 72, 84
1, 33068, Note_on_c, 0, 72, 0
1, 33068, Note_on_c, 0, 74, 84
1, 33071, Note_on_c, 1, 63, 0
1, 33072, Note_on_c, 1, 60, 61
1, 33079, Note_on_c, 0, 74, 0
1, 33079, Note_on_c, 0, 72, 84
1, 33090, Note_on_c, 0, 72, 0
1, 33090, Note_on_c, 0, 74, 84
1, 33095, Note_on_c, 1, 60, 0
1, 33096, Note_on_c, 1, 63, 61
1, 33101, Note_on_c, 0, 74, 0
1, 33101, Note_on_c, 0, 72, 84
1, 33112, Note_on_c, 0, 72, 0
1, 33112, Note_on_c, 0, 74, 84
1, 33119, Note_on_c, 1, 63, 0
1, 33120, Note_on_c, 1, 53, 61
1, 33123, Note_on_c, 0, 74, 0
1, 33123, Note_on_c, 0, 72, 84
1, 33134, Note_on_c, 0, 72, 0
1, 33134, Note_on_c, 0, 74, 84
1, 33143, Note_on_c, 1, 53, 0
1, 33144, Note_on_c, 1, 63, 61
1, 33145, Note_on_c, 0, 74, 0
1, 33145, Note_on_c, 0, 72, 84
1, 33156, Note_on_c, 0, 72, 0
1, 33156, Note_on_c, 0, 74, 84
1, 33166, Note_on_c, 0, 74, 0
1, 33166, Note_on_c, 0, 72, 84
1, 33167, Note_on_c, 1, 63, 0
1, 33168, Note_on_c, 1, 60, 61
1, 33176, Note_on_c, 0, 72, 0
1, 33176, Note_on_c, 0, 70, 84
1, 33191, Note_on_c, 1, 60, 0
1, 33192, Note_on_c, 1, 63, 61
1, 33196, Note_on_c, 0, 70, 0
1, 33196, Note_on_c, 0, 72, 84
1, 33215, Note_on_c, 1, 63, 0
1, 33216, Note_on_c, 0, 72, 0
1, 33216, Note_on_c, 0, 70, 84
1, 33216, Note_on_c, 1, 62, 61
1, 33216, Note_on_c, 1, 58, 61
1, 33305, Note_on_c, 0, 70, 0
1, 33305, Note_on_c, 1, 62, 0
1, 33305, Note_on_c, 1, 58, 0
1, 33312, Note_on_c, 1, 58, 75
1, 33312, Note_on_c, 1, 50, 75
1, 33336, Note_on_c, 0, 65, 75
1, 33346, Note_on_c, 0, 65, 0
1, 33360, Note_on_c, 0, 67, 75
1, 33372, Note_on_c, 0, 67, 0
1, 33372, Note_on_c, 0, 65, 75
1, 33384, Note_on_c, 0, 65, 0
1, 33384, Note_on_c, 0, 64, 75
1, 33396, Note_on_c, 0, 64, 0
1, 33396, Note_on_c, 0, 65, 75
1, 33401, Note_on_c, 1, 58, 0
1, 33401, Note_on_c, 1, 50, 0
1, 33408, Note_on_c, 0, 65, 0
1, 33408, Note_on_c, 1, 58, 75
1, 33408, Note_on_c, 1, 51, 75
1, 33432, Note_on_c, 0, 67, 75
1, 33442, Note_on_c, 0, 67, 0
1, 33456, Note_on_c, 0, 69, 75
1, 33468, Note_on_c, 0, 69, 0
1, 33468, Note_on_c, 0, 67, 75
1, 33480, Note_on_c, 0, 67, 0
1, 33480, Note_on_c, 0, 66, 75
1, 33492, Note_on_c, 0, 66, 0
1, 33492, Note_on_c, 0, 67, 75
1, 33497, Note_on_c, 1, 58, 0
1, 33497, Note_on_c, 1, 51, 0
1, 33504, Note_on_c, 0, 67, 0
1, 33504, Note_on_c, 1, 57, 75
1, 33504, Note_on_c, 1, 53, 75
1, 33528, Note_on_c, 0, 69, 75
1, 33551, Note_on_c, 0, 69, 0
1, 33552, Note_on_c, 0, 72, 75
1, 33575, Note_on_c, 0, 72, 0
1, 33576, Note_on_c, 0, 75, 75
1, 33593, Note_on_c, 1, 57, 0
1, 33593, Note_on_c, 1, 53, 0
1, 33599, Note_on_c, 0, 75, 0
1, 33600, Note_on_c, 0, 75, 75
1, 33600, Note_on_c, 1, 58, 75
1, 33600, Note_on_c, 1, 46, 75
1, 33623, Note_on_c, 0, 75, 0
1, 33624, Note_on_c, 0, 74, 75
1, 33647, Note_on_c, 0, 74, 0
1, 33648, Note_on_c, 0, 72, 75
1, 33671, Note_on_c, 0, 72, 0
1, 33672, Note_on_c, 0, 70, 75
1, 33689, Note_on_c, 1, 58, 0
1, 33689, Note_on_c, 1, 46, 0
1, 33695, Note_on_c, 0, 70, 0
1, 33696, Note_on_c, 1, 58, 75
1, 33696, Note_on_c, 1, 50, 75
1, 33720, Note_on_c, 0, 65, 75
1, 33730, Note_on_c, 0, 65, 0
1, 33744, Note_on_c, 0, 67, 75
1, 33756, Note_on_c, 0, 67, 0
1, 33756, Note_on_c, 0, 65, 75
1, 33768, Note_on_c, 0, 65, 0
1, 33768, Note_on_c, 0, 64, 75
1, 33780, Note_on_c, 0, 64, 0
1, 33780, Note_on_c, 0, 65, 75
1, 33785, Note_on_c, 1, 58, 0
1, 33785, Note_on_c, 1, 50, 0
1, 33792, Note_on_c, 0, 65, 0
1, 33792, Note_on_c, 1, 58, 75
1, 33792, Note_on_c, 1, 51, 75
1, 33816, Note_on_c, 0, 67, 75
1, 33826, Note_on_c, 0, 67, 0
1, 33840, Note_on_c, 0, 69, 75
1, 33852, Note_on_c, 0, 69, 0
1, 33852, Note_on_c, 0, 67, 75
1, 33864, Note_on_c, 0, 67, 0
1, 33864, Note_on_c, 0, 66, 75
1, 33876, Note_on_c, 0, 66, 0
1, 33876, Note_on_c, 0, 67, 75
1, 33881, Note_on_c, 1, 58, 0
1, 33881, Note_on_c, 1, 51, 0
1, 33888, Note_on_c, 0, 67, 0
1, 33888, Note_on_c, 1, 53, 75
1, 33888, Note_on_c, 1, 41, 75
1, 33912, Note_on_c, 0, 63, 75
1, 33935, Note_on_c, 0, 63, 0
1, 33936, Note_on_c, 0, 60, 75
1, 33959, Note_on_c, 0, 60, 0
1, 33960, Note_on_c, 0, 57, 75
1, 33970, Note_on_c, 0, 57, 0
1, 33977, Note_on_c, 1, 53, 0
1, 33977, Note_on_c, 1, 41, 0
1, 33984, Note_on_c, 0, 60, 75
1, 33984, Note_on_c, 1, 46, 75
1, 33984, Note_on_c, 1, 34, 75
1, 33996, Note_on_c, 0, 60, 0
1, 33996, Note_on_c, 0, 58, 75
1, 34008, Note_on_c, 0, 58, 0
1, 34008, Note_on_c, 0, 57, 75
1, 34020, Note_on_c, 0, 57, 0
1, 34020, Note_on_c, 0, 58, 75
1, 34032, Note_on_c, 0, 58, 0
1, 34032, Note_on_c, 0, 58, 75
1, 34062, Note_on_c, 0, 58, 0
1, 34078, Note_on_c, 1, 46, 0
1, 34078, Note_on_c, 1, 34, 0
1, 34128, Note_on_c, 0, 70, 75
1, 34148, Note_on_c, 0, 70, 0
1, 34176, Note_on_c, 0, 73, 75
1, 34176, Note_on_c, 1, 58, 61
1, 34199, Note_on_c, 1, 58, 0
1, 34200, Note_on_c, 1, 65, 61
1, 34223, Note_on_c, 1, 65, 0
1, 34224, Note_on_c, 1, 61, 61
1, 34247, Note_on_c, 1, 61, 0
1, 34248, Note_on_c, 1, 65, 61
1, 34271, Note_on_c, 1, 65, 0
1, 34272, Note_on_c, 1, 58, 61
1, 34295, Note_on_c, 1, 58, 0
1, 34296, Note_on_c, 1, 65, 61
1, 34306, Note_on_c, 0, 73, 0
1, 34308, Note_on_c, 0, 70, 91
1, 34319, Note_on_c, 1, 65, 0
1, 34320, Note_on_c, 0, 70, 0
1, 34320, Note_on_c, 0, 72, 75
1, 34320, Note_on_c, 1, 61, 61
1, 34328, Note_on_c, 0, 72, 0
1, 34328, Note_on_c, 0, 70, 75
1, 34336, Note_on_c, 0, 70, 0
1, 34336, Note_on_c, 0, 72, 75
1, 34343, Note_on_c, 1, 61, 0
1, 34344, Note_on_c, 0, 72, 0
1, 34344, Note_on_c, 0, 70, 75
1, 34344, Note_on_c, 1, 65, 61
1, 34352, Note_on_c, 0, 70, 0
1, 34352, Note_on_c, 0, 68, 75
1, 34360, Note_on_c, 0, 68, 0
1, 34360, Note_on_c, 0, 70, 75
1, 34367, Note_on_c, 1, 65, 0
1, 34368, Note_on_c, 0, 70, 0
1, 34368, Note_on_c, 0, 77, 75
1, 34368, Note_on_c, 1, 58, 61
1, 34391, Note_on_c, 1, 58, 0
1, 34392, Note_on_c, 1, 65, 61
1, 34415, Note_on_c, 1, 65, 0
1, 34416, Note_on_c, 1, 61, 61
1, 34439, Note_on_c, 1, 61, 0
1, 34440, Note_on_c, 1, 65, 61
1, 34463, Note_on_c, 1, 65, 0
1, 34464, Note_on_c, 1, 58, 61
1, 34487, Note_on_c, 1, 58, 0
1, 34488, Note_on_c, 1, 65, 61
1, 34498, Note_on_c, 0, 77, 0
1, 34500, Note_on_c, 0, 73, 91
1, 34511, Note_on_c, 1, 65, 0
1, 34512, Note_on_c, 0, 73, 0
1, 34512, Note_on_c, 0, 75, 75
1, 34512, Note_on_c, 1, 61, 61
1, 34520, Note_on_c, 0, 75, 0
1, 34520, Note_on_c, 0, 73, 75
1, 34528, Note_on_c, 0, 73, 0
1, 34528, Note_on_c, 0, 75, 75
1, 34535, Note_on_c, 1, 61, 0
1, 34536, Note_on_c, 0, 75, 0
1, 34536, Note_on_c, 0, 73, 75
1, 34536, Note_on_c, 1, 65, 61
1, 34544, Note_on_c, 0, 73, 0
1, 34544, Note_on_c, 0, 72, 75
1, 34552, Note_on_c, 0, 72, 0
1, 34552, Note_on_c, 0, 73, 75
1, 34559, Note_on_c, 1, 65, 0
1, 34560, Note_on_c, 0, 73, 0
1, 34560, Note_on_c, 0, 82, 75
1, 34560, Note_on_c, 1, 58, 61
1, 34583, Note_on_c, 1, 58, 0
1, 34584, Note_on_c, 1, 67, 61
1, 34607, Note_on_c, 1, 67, 0
1, 34608, Note_on_c, 1, 61, 61
1, 34631, Note_on_c, 1, 61, 0
1, 34632, Note_on_c, 1, 67, 61
1, 34655, Note_on_c, 1, 67, 0
1, 34656, Note_on_c, 1, 58, 61
1, 34679, Note_on_c, 0, 82, 0
1, 34679, Note_on_c, 1, 58, 0
1, 34680, Note_on_c, 0, 80, 75
1, 34680, Note_on_c, 1, 67, 61
1, 34703, Note_on_c, 0, 80, 0
1, 34703, Note_on_c, 1, 67, 0
1, 34704, Note_on_c, 0, 79, 75
1, 34704, Note_on_c, 1, 61, 61
1, 34727, Note_on_c, 0, 79, 0
1, 34727, Note_on_c, 1, 61, 0
1, 34728, Note_on_c, 0, 77, 75
1, 34728, Note_on_c, 1, 67, 61
1, 34751, Note_on_c, 0, 77, 0
1, 34751, Note_on_c, 1, 67, 0
1, 34752, Note_on_c, 0, 77, 75
1, 34752, Note_on_c, 1, 58, 61
1, 34775, Note_on_c, 1, 58, 0
1, 34776, Note_on_c, 1, 67, 61
1, 34799, Note_on_c, 1, 67, 0
1, 34800, Note_on_c, 1, 60, 61
1, 34823, Note_on_c, 1, 60, 0
1, 34824, Note_on_c, 1, 67, 61
1, 34847, Note_on_c, 1, 67, 0
1, 34848, Note_on_c, 0, 77, 0
1, 34848, Note_on_c, 0, 76, 75
1, 34848, Note_on_c, 1, 58, 61
1, 34871, Note_on_c, 1, 58, 0
1, 34872, Note_on_c, 1, 67, 61
1, 34882, Note_on_c, 0, 76, 0
1, 34884, Note_on_c, 0, 72, 91
1, 34895, Note_on_c, 1, 67, 0
1, 34896, Note_on_c, 0, 72, 0
1, 34896, Note_on_c, 0, 73, 75
1, 34896, Note_on_c, 1, 64, 61
1, 34904, Note_on_c, 0, 73, 0
1, 34904, Note_on_c, 0, 72, 75
1, 34912, Note_on_c, 0, 72, 0
1, 34912, Note_on_c, 0, 73, 75
1, 34919, Note_on_c, 1, 64, 0
1, 34920, Note_on_c, 0, 73, 0
1, 34920, Note_on_c, 0, 72, 75
1, 34920, Note_on_c, 1, 67, 61
1, 34928, Note_on_c, 0, 72, 0
1, 34928, Note_on_c, 0, 70, 75
1, 34936, Note_on_c, 0, 70, 0
1, 34936, Note_on_c, 0, 72, 75
1, 34943, Note_on_c, 1, 67, 0
1, 34944, Note_on_c, 0, 72, 0
1, 34944, Note_on_c, 0, 77, 75
1, 34944, Note_on_c, 1, 56, 61
1, 34967, Note_on_c, 1, 56, 0
1, 34968, Note_on_c, 1, 65, 61
1, 34991, Note_on_c, 1, 65, 0
1, 34992, Note_on_c, 1, 60, 61
1, 35015, Note_on_c, 1, 60, 0
1, 35016, Note_on_c, 1, 65, 61
1, 35039, Note_on_c, 1, 65, 0
1, 35040, Note_on_c, 1, 56, 61
1, 35063, Note_on_c, 1, 56, 0
1, 35064, Note_on_c, 1, 65, 61
1, 35074, Note_on_c, 0, 77, 0
1, 35076, Note_on_c, 0, 72, 91
1, 35087, Note_on_c, 1, 65, 0
1, 35088, Note_on_c, 0, 72, 0
1, 35088, Note_on_c, 0, 73, 75
1, 35088, Note_on_c, 1, 60, 61
1, 35096, Note_on_c, 0, 73, 0
1, 35096, Note_on_c, 0, 72, 75
1, 35104, Note_on_c, 0, 72, 0
1, 35104, Note_on_c, 0, 73, 75
1, 35111, Note_on_c, 1, 60, 0
1, 35112, Note_on_c, 0, 73, 0
1, 35112, Note_on_c, 0, 72, 75
1, 35112, Note_on_c, 1, 65, 61
1, 35120, Note_on_c, 0, 72, 0
1, 35120, Note_on_c, 0, 70, 75
1, 35128, Note_on_c, 0, 70, 0
1, 35128, Note_on_c, 0, 72, 75
1, 35135, Note_on_c, 1, 65, 0
1, 35136, Note_on_c, 0, 72, 0
1, 35136, Note_on_c, 0, 80, 75
1, 35136, Note_on_c, 1, 56, 61
1, 35159, Note_on_c, 1, 56, 0
1, 35160, Note_on_c, 1, 65, 61
1, 35183, Note_on_c, 1, 65, 0
1, 35184, Note_on_c, 1, 60, 61
1, 35207, Note_on_c, 1, 60, 0
1, 35208, Note_on_c, 1, 65, 61
1, 35231, Note_on_c, 1, 65, 0
1, 35232, Note_on_c, 1, 56, 61
1, 35255, Note_on_c, 1, 56, 0
1, 35256, Note_on_c, 1, 65, 61
1, 35266, Note_on_c, 0, 80, 0
1, 35268, Note_on_c, 0, 77, 91
1, 35279, Note_on_c, 1, 65, 0
1, 35280, Note_on_c, 0, 77, 0
1, 35280, Note_on_c, 0, 79, 75
1, 35280, Note_on_c, 1, 60, 61
1, 35288, Note_on_c, 0, 79, 0
1, 35288, Note_on_c, 0, 77, 75
1, 35296, Note_on_c, 0, 77, 0
1, 35296, Note_on_c, 0, 79, 75
1, 35303, Note_on_c, 1, 60, 0
1, 35304, Note_on_c, 0, 79, 0
1, 35304, Note_on_c, 0, 77, 75
1, 35304, Note_on_c, 1, 65, 61
1, 35312, Note_on_c, 0, 77, 0
1, 35312, Note_on_c, 0, 75, 75
1, 35320, Note_on_c, 0, 75, 0
1, 35320, Note_on_c, 0, 77, 75
1, 35327, Note_on_c, 1, 65, 0
1, 35328, Note_on_c, 0, 77, 0
1, 35328, Note_on_c, 0, 84, 75
1, 35328, Note_on_c, 1, 56, 61
1, 35351, Note_on_c, 1, 56, 0
1, 35352, Note_on_c, 1, 65, 61
1, 35375, Note_on_c, 1, 65, 0
1, 35376, Note_on_c, 1, 60, 61
1, 35399, Note_on_c, 1, 60, 0
1, 35400, Note_on_c, 1, 65, 61
1, 35423, Note_on_c, 1, 65, 0
1, 35424, Note_on_c, 1, 56, 61
1, 35447, Note_on_c, 0, 84, 0
1, 35447, Note_on_c, 1, 56, 0
1, 35448, Note_on_c, 0, 82, 75
1, 35448, Note_on_c, 1, 65, 61
1, 35471, Note_on_c, 0, 82, 0
1, 35471, Note_on_c, 1, 65, 0
1, 35472, Note_on_c, 0, 80, 75
1, 35472, Note_on_c, 1, 60, 61
1, 35495, Note_on_c, 0, 80, 0
1, 35495, Note_on_c, 1, 60, 0
1, 35496, Note_on_c, 0, 79, 75
1, 35496, Note_on_c, 1, 65, 61
1, 35519, Note_on_c, 0, 79, 0
1, 35519, Note_on_c, 1, 65, 0
1, 35520, Note_on_c, 0, 79, 75
1, 35520, Note_on_c, 1, 56, 61
1, 35543, Note_on_c, 1, 56, 0
1, 35544, Note_on_c, 1, 63, 61
1, 35567, Note_on_c, 1, 63, 0
1, 35568, Note_on_c, 1, 60, 61
1, 35591, Note_on_c, 1, 60, 0
1, 35592, Note_on_c, 1, 63, 61
1, 35615, Note_on_c, 1, 63, 0
1, 35616, Note_on_c, 0, 79, 0
1, 35616, Note_on_c, 0, 78, 75
1, 35616, Note_on_c, 1, 56, 61
1, 35639, Note_on_c, 1, 56, 0
1, 35640, Note_on_c, 1, 63, 61
1, 35650, Note_on_c, 0, 78, 0
1, 35652, Note_on_c, 0, 72, 91
1, 35663, Note_on_c, 1, 63, 0
1, 35664, Note_on_c, 0, 72, 0
1, 35664, Note_on_c, 0, 74, 75
1, 35664, Note_on_c, 1, 60, 61
1, 35672, Note_on_c, 0, 74, 0
1, 35672, Note_on_c, 0, 72, 75
1, 35680, Note_on_c, 0, 72, 0
1, 35680, Note_on_c, 0, 74, 75
1, 35687, Note_on_c, 1, 60, 0
1, 35688, Note_on_c, 0, 74, 0
1, 35688, Note_on_c, 0, 72, 75
1, 35688, Note_on_c, 1, 63, 61
1, 35696, Note_on_c, 0, 72, 0
1, 35696, Note_on_c, 0, 71, 75
1, 35704, Note_on_c, 0, 71, 0
1, 35704, Note_on_c, 0, 72, 75
1, 35711, Note_on_c, 1, 63, 0
1, 35712, Note_on_c, 0, 72, 0
1, 35712, Note_on_c, 0, 75, 75
1, 35712, Note_on_c, 1, 55, 61
1, 35735, Note_on_c, 1, 55, 0
1, 35736, Note_on_c, 1, 63, 61
1, 35759, Note_on_c, 1, 63, 0
1, 35760, Note_on_c, 1, 60, 61
1, 35783, Note_on_c, 1, 60, 0
1, 35784, Note_on_c, 1, 63, 61
1, 35807, Note_on_c, 1, 63, 0
1, 35808, Note_on_c, 1, 55, 61
1, 35831, Note_on_c, 1, 55, 0
1, 35832, Note_on_c, 1, 63, 61
1, 35842, Note_on_c, 0, 75, 0
1, 35844, Note_on_c, 0, 72, 91
1, 35855, Note_on_c, 1, 63, 0
1, 35856, Note_on_c, 0, 72, 0
1, 35856, Note_on_c, 0, 74, 75
1, 35856, Note_on_c, 1, 60, 61
1, 35864, Note_on_c, 0, 74, 0
1, 35864, Note_on_c, 0, 72, 75
1, 35872, Note_on_c, 0, 72, 0
1, 35872, Note_on_c, 0, 74, 75
1, 35879, Note_on_c, 1, 60, 0
1, 35880, Note_on_c, 0, 74, 0
1, 35880, Note_on_c, 0, 72, 75
1, 35880, Note_on_c, 1, 63, 61
1, 35888, Note_on_c, 0, 72, 0
1, 35888, Note_on_c, 0, 70, 75
1, 35896, Note_on_c, 0, 70, 0
1, 35896, Note_on_c, 0, 72, 75
1, 35903, Note_on_c, 1, 63, 0
1, 35904, Note_on_c, 0, 72, 0
1, 35904, Note_on_c, 0, 79, 75
1, 35904, Note_on_c, 1, 55, 61
1, 35927, Note_on_c, 1, 55, 0
1, 35928, Note_on_c, 1, 63, 61
1, 35951, Note_on_c, 1, 63, 0
1, 35952, Note_on_c, 1, 60, 61
1, 35975, Note_on_c, 1, 60, 0
1, 35976, Note_on_c, 1, 63, 61
1, 35999, Note_on_c, 1, 63, 0
1, 36000, Note_on_c, 1, 55, 61
1, 36023, Note_on_c, 1, 55, 0
1, 36024, Note_on_c, 1, 63, 61
1, 36034, Note_on_c, 0, 79, 0
1, 36036, Note_on_c, 0, 72, 91
1, 36047, Note_on_c, 1, 63, 0
1, 36048, Note_on_c, 0, 72, 0
1, 36048, Note_on_c, 0, 74, 75
1, 36048, Note_on_c, 1, 60, 61
1, 36056, Note_on_c, 0, 74, 0
1, 36056, Note_on_c, 0, 72, 75
1, 36064, Note_on_c, 0, 72, 0
1, 36064, Note_on_c, 0, 74, 75
1, 36071, Note_on_c, 1, 60, 0
1, 36072, Note_on_c, 0, 74, 0
1, 36072, Note_on_c, 0, 72, 75
1, 36072, Note_on_c, 1, 63, 61
1, 36080, Note_on_c, 0, 72, 0
1, 36080, Note_on_c, 0, 70, 75
1, 36088, Note_on_c, 0, 70, 0
1, 36088, Note_on_c, 0, 72, 75
1, 36095, Note_on_c, 1, 63, 0
1, 36096, Note_on_c, 0, 72, 0
1, 36096, Note_on_c, 0, 71, 75
1, 36096, Note_on_c, 1, 55, 61
1, 36119, Note_on_c, 1, 55, 0
1, 36120, Note_on_c, 1, 62, 61
1, 36143, Note_on_c, 1, 62, 0
1, 36144, Note_on_c, 1, 59, 61
1, 36167, Note_on_c, 1, 59, 0
1, 36168, Note_on_c, 1, 62, 61
1, 36185, Note_on_c, 0, 71, 0
1, 36191, Note_on_c, 1, 62, 0
1, 36192, Note_on_c, 1, 59, 61
1, 36215, Note_on_c, 1, 59, 0
1, 36216, Note_on_c, 0, 77, 75
1, 36216, Note_on_c, 1, 67, 61
1, 36226, Note_on_c, 0, 77, 0
1, 36239, Note_on_c, 1, 67, 0
1, 36240, Note_on_c, 0, 79, 75
1, 36240, Note_on_c, 1, 62, 61
1, 36252, Note_on_c, 0, 79, 0
1, 36252, Note_on_c, 0, 77, 75
1, 36263, Note_on_c, 1, 62, 0
1, 36264, Note_on_c, 0, 77, 0
1, 36264, Note_on_c, 0, 75, 75
1, 36264, Note_on_c, 1, 67, 61
1, 36276, Note_on_c, 0, 75, 0
1, 36276, Note_on_c, 0, 77, 75
1, 36287, Note_on_c, 1, 67, 0
1, 36288, Note_on_c, 0, 77, 0
1, 36288, Note_on_c, 0, 77, 75
1, 36288, Note_on_c, 1, 60, 61
1, 36311, Note_on_c, 1, 60, 0
1, 36312, Note_on_c, 0, 77, 0
1, 36312, Note_on_c, 0, 75, 75
1, 36312, Note_on_c, 1, 67, 61
1, 36335, Note_on_c, 0, 75, 0
1, 36335, Note_on_c, 1, 67, 0
1, 36336, Note_on_c, 0, 79, 75
1, 36336, Note_on_c, 1, 63, 61
1, 36359, Note_on_c, 1, 63, 0
1, 36360, Note_on_c, 0, 79, 0
1, 36360, Note_on_c, 0, 72, 75
1, 36360, Note_on_c, 1, 67, 61
1, 36383, Note_on_c, 0, 72, 0
1, 36383, Note_on_c, 1, 67, 0
1, 36384, Note_on_c, 0, 72, 75
1, 36384, Note_on_c, 1, 62, 61
1, 36407, Note_on_c, 1, 62, 0
1, 36408, Note_on_c, 0, 72, 0
1, 36408, Note_on_c, 0, 71, 75
1, 36408, Note_on_c, 1, 67, 61
1, 36431, Note_on_c, 0, 71, 0
1, 36431, Note_on_c, 1, 67, 0
1, 36432, Note_on_c, 0, 74, 75
1, 36432, Note_on_c, 1, 65, 61
1, 36455, Note_on_c, 1, 65, 0
1, 36456, Note_on_c, 0, 74, 0
1, 36456, Note_on_c, 0, 71, 75
1, 36456, Note_on_c, 1, 67, 61
1, 36479, Note_on_c, 0, 71, 0
1, 36479, Note_on_c, 1, 67, 0
1, 36480, Note_on_c, 0, 72, 75
1, 36480, Note_on_c, 1, 63, 61
1, 36500, Note_on_c, 0, 72, 0
1, 36503, Note_on_c, 1, 63, 0
1, 36504, Note_on_c, 1, 67, 61
1, 36527, Note_on_c, 1, 67, 0
1, 36528, Note_on_c, 0, 75, 75
1, 36528, Note_on_c, 1, 60, 61
1, 36548, Note_on_c, 0, 75, 0
1, 36551, Note_on_c, 1, 60, 0
1, 36552, Note_on_c, 1, 67, 61
1, 36575, Note_on_c, 1, 67, 0
1, 36576, Note_on_c, 0, 74, 75
1, 36576, Note_on_c, 1, 59, 61
1, 36596, Note_on_c, 0, 74, 0
1, 36599, Note_on_c, 1, 59, 0
1, 36600, Note_on_c, 1, 67, 61
1, 36623, Note_on_c, 1, 67, 0
1, 36624, Note_on_c, 0, 77, 75
1, 36624, Note_on_c, 1, 62, 61
1, 36644, Note_on_c, 0, 77, 0
1, 36647, Note_on_c, 1, 62, 0
1, 36648, Note_on_c, 1, 67, 61
1, 36671, Note_on_c, 1, 67, 0
1, 36672, Note_on_c, 0, 77, 75
1, 36672, Note_on_c, 1, 60, 61
1, 36695, Note_on_c, 1, 60, 0
1, 36696, Note_on_c, 0, 77, 0
1, 36696, Note_on_c, 0, 75, 75
1, 36696, Note_on_c, 1, 67, 61
1, 36719, Note_on_c, 0, 75, 0
1, 36719, Note_on_c, 1, 67, 0
1, 36720, Note_on_c, 0, 79, 75
1, 36720, Note_on_c, 1, 63, 61
1, 36743, Note_on_c, 1, 63, 0
1, 36744, Note_on_c, 0, 79, 0
1, 36744, Note_on_c, 0, 72, 75
1, 36744, Note_on_c, 1, 67, 61
1, 36767, Note_on_c, 0, 72, 0
1, 36767, Note_on_c, 1, 67, 0
1, 36768, Note_on_c, 0, 72, 75
1, 36768, Note_on_c, 1, 62, 61
1, 36791, Note_on_c, 1, 62, 0
1, 36792, Note_on_c, 0, 72, 0
1, 36792, Note_on_c, 0, 71, 75
1, 36792, Note_on_c, 1, 67, 61
1, 36815, Note_on_c, 0, 71, 0
1, 36815, Note_on_c, 1, 67, 0
1, 36816, Note_on_c, 0, 74, 75
1, 36816, Note_on_c, 1, 65, 61
1, 36839, Note_on_c, 1, 65, 0
1, 36840, Note_on_c, 0, 74, 0
1, 36840, Note_on_c, 0, 71, 75
1, 36840, Note_on_c, 1, 67, 61
1, 36863, Note_on_c, 0, 71, 0
1, 36863, Note_on_c, 1, 67, 0
1, 36864, Note_on_c, 0, 72, 75
1, 36864, Note_on_c, 1, 63, 61
1, 36884, Note_on_c, 0, 72, 0
1, 36887, Note_on_c, 1, 63, 0
1, 36888, Note_on_c, 1, 67, 61
1, 36911, Note_on_c, 1, 67, 0
1, 36912, Note_on_c, 0, 75, 75
1, 36912, Note_on_c, 1, 60, 61
1, 36932, Note_on_c, 0, 75, 0
1, 36935, Note_on_c, 1, 60, 0
1, 36936, Note_on_c, 1, 67, 61
1, 36959, Note_on_c, 1, 67, 0
1, 36960, Note_on_c, 0, 74, 75
1, 36960, Note_on_c, 1, 59, 61
1, 36980, Note_on_c, 0, 74, 0
1, 36983, Note_on_c, 1, 59, 0
1, 36984, Note_on_c, 1, 67, 61
1, 37007, Note_on_c, 1, 67, 0
1, 37008, Note_on_c, 0, 77, 75
1, 37008, Note_on_c, 1, 62, 61
1, 37028, Note_on_c, 0, 77, 0
1, 37031, Note_on_c, 1, 62, 0
1, 37032, Note_on_c, 1, 67, 61
1, 37055, Note_on_c, 1, 67, 0
1, 37056, Note_on_c, 0, 75, 75
1, 37056, Note_on_c, 1, 60, 61
1, 37076, Note_on_c, 0, 75, 0
1, 37079, Note_on_c, 1, 60, 0
1, 37080, Note_on_c, 1, 68, 61
1, 37103, Note_on_c, 1, 68, 0
1, 37104, Note_on_c, 0, 84, 75
1, 37104, Note_on_c, 1, 63, 61
1, 37124, Note_on_c, 0, 84, 0
1, 37127, Note_on_c, 1, 63, 0
1, 37128, Note_on_c, 1, 68, 61
1, 37151, Note_on_c, 1, 68, 0
1, 37152, Note_on_c, 0, 82, 75
1, 37152, Note_on_c, 1, 62, 61
1, 37172, Note_on_c, 0, 82, 0
1, 37175, Note_on_c, 1, 62, 0
1, 37176, Note_on_c, 1, 70, 61
1, 37199, Note_on_c, 1, 70, 0
1, 37200, Note_on_c, 0, 80, 75
1, 37200, Note_on_c, 1, 65, 61
1, 37210, Note_on_c, 0, 80, 0
1, 37210, Note_on_c, 0, 82, 75
1, 37220, Note_on_c, 0, 82, 0
1, 37220, Note_on_c, 0, 80, 75
1, 37223, Note_on_c, 1, 65, 0
1, 37224, Note_on_c, 1, 70, 61
1, 37230, Note_on_c, 0, 80, 0
1, 37230, Note_on_c, 0, 79, 75
1, 37239, Note_on_c, 0, 79, 0
1, 37239, Note_on_c, 0, 80, 75
1, 37247, Note_on_c, 1, 70, 0
1, 37248, Note_on_c, 1, 63, 61
1, 37271, Note_on_c, 1, 63, 0
1, 37272, Note_on_c, 0, 80, 0
1, 37272, Note_on_c, 0, 79, 75
1, 37272, Note_on_c, 1, 70, 61
1, 37295, Note_on_c, 0, 79, 0
1, 37295, Note_on_c, 1, 70, 0
1, 37296, Note_on_c, 0, 82, 75
1, 37296, Note_on_c, 1, 67, 61
1, 37319, Note_on_c, 1, 67, 0
1, 37320, Note_on_c, 0, 82, 0
1, 37320, Note_on_c, 0, 75, 75
1, 37320, Note_on_c, 1, 70, 61
1, 37343, Note_on_c, 0, 75, 0
1, 37343, Note_on_c, 1, 70, 0
1, 37344, Note_on_c, 0, 75, 75
1, 37344, Note_on_c, 1, 65, 61
1, 37367, Note_on_c, 1, 65, 0
1, 37368, Note_on_c, 0, 75, 0
1, 37368, Note_on_c, 0, 74, 75
1, 37368, Note_on_c, 1, 70, 61
1, 37391, Note_on_c, 0, 74, 0
1, 37391, Note_on_c, 1, 70, 0
1, 37392, Note_on_c, 0, 77, 75
1, 37392, Note_on_c, 1, 68, 61
1, 37415, Note_on_c, 1, 68, 0
1, 37416, Note_on_c, 0, 77, 0
1, 37416, Note_on_c, 0, 74, 75
1, 37416, Note_on_c, 1, 70, 61
1, 37439, Note_on_c, 0, 74, 0
1, 37439, Note_on_c, 1, 70, 0
1, 37440, Note_on_c, 0, 75, 75
1, 37440, Note_on_c, 1, 67, 61
1, 37460, Note_on_c, 0, 75, 0
1, 37463, Note_on_c, 1, 67, 0
1, 37464, Note_on_c, 1, 70, 61
1, 37487, Note_on_c, 1, 70, 0
1, 37488, Note_on_c, 0, 79, 75
1, 37488, Note_on_c, 1, 63, 61
1, 37508, Note_on_c, 0, 79, 0
1, 37511, Note_on_c, 1, 63, 0
1, 37512, Note_on_c, 1, 70, 61
1, 37535, Note_on_c, 1, 70, 0
1, 37536, Note_on_c, 0, 77, 75
1, 37536, Note_on_c, 1, 62, 61
1, 37556, Note_on_c, 0, 77, 0
1, 37559, Note_on_c, 1, 62, 0
1, 37560, Note_on_c, 1, 70, 61
1, 37583, Note_on_c, 1, 70, 0
1, 37584, Note_on_c, 0, 80, 75
1, 37584, Note_on_c, 1, 65, 61
1, 37604, Note_on_c, 0, 80, 0
1, 37607, Note_on_c, 1, 65, 0
1, 37608, Note_on_c, 1, 70, 61
1, 37631, Note_on_c, 1, 70, 0
1, 37632, Note_on_c, 0, 80, 75
1, 37632, Note_on_c, 1, 63, 61
1, 37655, Note_on_c, 1, 63, 0
1, 37656, Note_on_c, 0, 80, 0
1, 37656, Note_on_c, 0, 79, 75
1, 37656, Note_on_c, 1, 70, 61
1, 37679, Note_on_c, 0, 79, 0
1, 37679, Note_on_c, 1, 70, 0
1, 37680, Note_on_c, 0, 82, 75
1, 37680, Note_on_c, 1, 67, 61
1, 37703, Note_on_c, 1, 67, 0
1, 37704, Note_on_c, 0, 82, 0
1, 37704, Note_on_c, 0, 75, 75
1, 37704, Note_on_c, 1, 70, 61
1, 37727, Note_on_c, 0, 75, 0
1, 37727, Note_on_c, 1, 70, 0
1, 37728, Note_on_c, 0, 75, 75
1, 37728, Note_on_c, 1, 65, 61
1, 37751, Note_on_c, 1, 65, 0
1, 37752, Note_on_c, 0, 75, 0
1, 37752, Note_on_c, 0, 74, 75
1, 37752, Note_on_c, 1, 70, 61
1, 37775, Note_on_c, 0, 74, 0
1, 37775, Note_on_c, 1, 70, 0
1, 37776, Note_on_c, 0, 77, 75
1, 37776, Note_on_c, 1, 68, 61
1, 37799, Note_on_c, 1, 68, 0
1, 37800, Note_on_c, 0, 77, 0
1, 37800, Note_on_c, 0, 74, 75
1, 37800, Note_on_c, 1, 70, 61
1, 37823, Note_on_c, 0, 74, 0
1, 37823, Note_on_c, 1, 70, 0
1, 37824, Note_on_c, 0, 75, 75
1, 37824, Note_on_c, 1, 67, 61
1, 37844, Note_on_c, 0, 75, 0
1, 37847, Note_on_c, 1, 67, 0
1, 37848, Note_on_c, 1, 70, 61
1, 37871, Note_on_c, 1, 70, 0
1, 37872, Note_on_c, 0, 79, 75
1, 37872, Note_on_c, 1, 63, 61
1, 37892, Note_on_c, 0, 79, 0
1, 37895, Note_on_c, 1, 63, 0
1, 37896, Note_on_c, 1, 70, 61
1, 37919, Note_on_c, 1, 70, 0
1, 37920, Note_on_c, 0, 77, 75
1, 37920, Note_on_c, 1, 62, 61
1, 37940, Note_on_c, 0, 77, 0
1, 37943, Note_on_c, 1, 62, 0
1, 37944, Note_on_c, 1, 70, 61
1, 37967, Note_on_c, 1, 70, 0
1, 37968, Note_on_c, 0, 80, 75
1, 37968, Note_on_c, 1, 65, 61
1, 37988, Note_on_c, 0, 80, 0
1, 37991, Note_on_c, 1, 65, 0
1, 37992, Note_on_c, 1, 70, 61
1, 38015, Note_on_c, 1, 70, 0
1, 38016, Note_on_c, 0, 79, 75
1, 38016, Note_on_c, 1, 63, 61
1, 38039, Note_on_c, 1, 63, 0
1, 38040, Note_on_c, 1, 70, 61
1, 38063, Note_on_c, 1, 70, 0
1, 38064, Note_on_c, 0, 79, 0
1, 38064, Note_on_c, 0, 82, 75
1, 38064, Note_on_c, 1, 67, 61
1, 38087, Note_on_c, 1, 67, 0
1, 38088, Note_on_c, 1, 70, 61
1, 38109, Note_on_c, 0, 82, 0
1, 38111, Note_on_c, 1, 70, 0
1, 38112, Note_on_c, 1, 61, 61
1, 38135, Note_on_c, 1, 61, 0
1, 38136, Note_on_c, 0, 75, 75
1, 38136, Note_on_c, 1, 70, 61
1, 38146, Note_on_c, 0, 75, 0
1, 38159, Note_on_c, 1, 70, 0
1, 38160, Note_on_c, 0, 77, 75
1, 38160, Note_on_c, 1, 67, 61
1, 38172, Note_on_c, 0, 77, 0
1, 38172, Note_on_c, 0, 75, 75
1, 38183, Note_on_c, 1, 67, 0
1, 38184, Note_on_c, 0, 75, 0
1, 38184, Note_on_c, 0, 74, 75
1, 38184, Note_on_c, 1, 70, 61
1, 38196, Note_on_c, 0, 74, 0
1, 38196, Note_on_c, 0, 75, 75
1, 38207, Note_on_c, 1, 70, 0
1, 38208, Note_on_c, 0, 75, 0
1, 38208, Note_on_c, 0, 80, 75
1, 38208, Note_on_c, 1, 60, 61
1, 38231, Note_on_c, 1, 60, 0
1, 38232, Note_on_c, 1, 68, 61
1, 38255, Note_on_c, 1, 68, 0
1, 38256, Note_on_c, 0, 80, 0
1, 38256, Note_on_c, 0, 84, 75
1, 38256, Note_on_c, 1, 63, 61
1, 38279, Note_on_c, 1, 63, 0
1, 38280, Note_on_c, 1, 68, 61
1, 38301, Note_on_c, 0, 84, 0
1, 38303, Note_on_c, 1, 68, 0
1, 38304, Note_on_c, 1, 60, 61
1, 38327, Note_on_c, 1, 60, 0
1, 38328, Note_on_c, 0, 75, 75
1, 38328, Note_on_c, 1, 68, 61
1, 38338, Note_on_c, 0, 75, 0
1, 38351, Note_on_c, 1, 68, 0
1, 38352, Note_on_c, 0, 77, 75
1, 38352, Note_on_c, 1, 63, 61
1, 38364, Note_on_c, 0, 77, 0
1, 38364, Note_on_c, 0, 75, 75
1, 38375, Note_on_c, 1, 63, 0
1, 38376, Note_on_c, 0, 75, 0
1, 38376, Note_on_c, 0, 74, 75
1, 38376, Note_on_c, 1, 68, 61
1, 38388, Note_on_c, 0, 74, 0
1, 38388, Note_on_c, 0, 75, 75
1, 38399, Note_on_c, 1, 68, 0
1, 38400, Note_on_c, 0, 75, 0
1, 38400, Note_on_c, 0, 73, 75
1, 38400, Note_on_c, 1, 58, 61
1, 38423, Note_on_c, 1, 58, 0
1, 38424, Note_on_c, 1, 68, 61
1, 38447, Note_on_c, 1, 68, 0
1, 38448, Note_on_c, 0, 73, 0
1, 38448, Note_on_c, 0, 82, 75
1, 38448, Note_on_c, 1, 65, 61
1, 38471, Note_on_c, 1, 65, 0
1, 38472, Note_on_c, 1, 68, 61
1, 38493, Note_on_c, 0, 82, 0
1, 38495, Note_on_c, 1, 68, 0
1, 38496, Note_on_c, 1, 58, 61
1, 38519, Note_on_c, 1, 58, 0
1, 38520, Note_on_c, 0, 73, 75
1, 38520, Note_on_c, 1, 67, 61
1, 38530, Note_on_c, 0, 73, 0
1, 38543, Note_on_c, 1, 67, 0
1, 38544, Note_on_c, 0, 75, 75
1, 38544, Note_on_c, 1, 63, 61
1, 38556, Note_on_c, 0, 75, 0
1, 38556, Note_on_c, 0, 73, 75
1, 38567, Note_on_c, 1, 63, 0
1, 38568, Note_on_c, 0, 73, 0
1, 38568, Note_on_c, 0, 72, 75
1, 38568, Note_on_c, 1, 67, 61
1, 38580, Note_on_c, 0, 72, 0
1, 38580, Note_on_c, 0, 73, 75
1, 38591, Note_on_c, 1, 67, 0
1, 38592, Note_on_c, 0, 73, 0
1, 38592, Note_on_c, 0, 73, 75
1, 38592, Note_on_c, 1, 56, 61
1, 38615, Note_on_c, 1, 56, 0
1, 38616, Note_on_c, 0, 73, 0
1, 38616, Note_on_c, 0, 72, 75
1, 38616, Note_on_c, 1, 63, 61
1, 38639, Note_on_c, 0, 72, 0
1, 38639, Note_on_c, 1, 63, 0
1, 38640, Note_on_c, 0, 75, 75
1, 38640, Note_on_c, 1, 60, 61
1, 38663, Note_on_c, 1, 60, 0
1, 38664, Note_on_c, 0, 75, 0
1, 38664, Note_on_c, 0, 68, 75
1, 38664, Note_on_c, 1, 63, 61
1, 38687, Note_on_c, 0, 68, 0
1, 38687, Note_on_c, 1, 63, 0
1, 38688, Note_on_c, 0, 68, 75
1, 38688, Note_on_c, 1, 58, 61
1, 38711, Note_on_c, 1, 58, 0
1, 38712, Note_on_c, 0, 68, 0
1, 38712, Note_on_c, 0, 67, 75
1, 38712, Note_on_c, 1, 63, 61
1, 38735, Note_on_c, 0, 67, 0
1, 38735, Note_on_c, 1, 63, 0
1, 38736, Note_on_c, 0, 70, 75
1, 38736, Note_on_c, 1, 61, 61
1, 38759, Note_on_c, 1, 61, 0
1, 38760, Note_on_c, 0, 70, 0
1, 38760, Note_on_c, 0, 67, 75
1, 38760, Note_on_c, 1, 63, 61
1, 38783, Note_on_c, 0, 67, 0
1, 38783, Note_on_c, 1, 63, 0
1, 38784, Note_on_c, 0, 68, 75
1, 38784, Note_on_c, 1, 60, 61
1, 38804, Note_on_c, 0, 68, 0
1, 38807, Note_on_c, 1, 60, 0
1, 38808, Note_on_c, 1, 63, 61
1, 38831, Note_on_c, 1, 63, 0
1, 38832, Note_on_c, 0, 72, 75
1, 38832, Note_on_c, 1, 56, 61
1, 38852, Note_on_c, 0, 72, 0
1, 38855, Note_on_c, 1, 56, 0
1, 38856, Note_on_c, 1, 63, 61
1, 38879, Note_on_c, 1, 63, 0
1, 38880, Note_on_c, 0, 70, 75
1, 38880, Note_on_c, 1, 55, 61
1, 38900, Note_on_c, 0, 70, 0
1, 38903, Note_on_c, 1, 55, 0
1, 38904, Note_on_c, 1, 63, 61
1, 38927, Note_on_c, 1, 63, 0
1, 38928, Note_on_c, 0, 73, 75
1, 38928, Note_on_c, 1, 58, 61
1, 38948, Note_on_c, 0, 73, 0
1, 38951, Note_on_c, 1, 58, 0
1, 38952, Note_on_c, 1, 63, 61
1, 38975, Note_on_c, 1, 63, 0
1, 38976, Note_on_c, 0, 73, 75
1, 38976, Note_on_c, 1, 56, 61
1, 38999, Note_on_c, 1, 56, 0
1, 39000, Note_on_c, 0, 73, 0
1, 39000, Note_on_c, 0, 72, 75
1, 39000, Note_on_c, 1, 63, 61
1, 39023, Note_on_c, 0, 72, 0
1, 39023, Note_on_c, 1, 63, 0
1, 39024, Note_on_c, 0, 75, 75
1, 39024, Note_on_c, 1, 60, 61
1, 39047, Note_on_c, 1, 60, 0
1, 39048, Note_on_c, 0, 75, 0
1, 39048, Note_on_c, 0, 68, 75
1, 39048, Note_on_c, 1, 63, 61
1, 39071, Note_on_c, 0, 68, 0
1, 39071, Note_on_c, 1, 63, 0
1, 39072, Note_on_c, 0, 68, 75
1, 39072, Note_on_c, 1, 58, 61
1, 39095, Note_on_c, 1, 58, 0
1, 39096, Note_on_c, 0, 68, 0
1, 39096, Note_on_c, 0, 67, 75
1, 39096, Note_on_c, 1, 63, 61
1, 39119, Note_on_c, 0, 67, 0
1, 39119, Note_on_c, 1, 63, 0
1, 39120, Note_on_c, 0, 70, 75
1, 39120, Note_on_c, 1, 61, 61
1, 39143, Note_on_c, 1, 61, 0
1, 39144, Note_on_c, 0, 70, 0
1, 39144, Note_on_c, 0, 67, 75
1, 39144, Note_on_c, 1, 63, 61
1, 39167, Note_on_c, 0, 67, 0
1, 39167, Note_on_c, 1, 63, 0
1, 39168, Note_on_c, 0, 68, 75
1, 39168, Note_on_c, 1, 60, 61
1, 39188, Note_on_c, 0, 68, 0
1, 39191, Note_on_c, 1, 60, 0
1, 39192, Note_on_c, 1, 63, 61
1, 39215, Note_on_c, 1, 63, 0
1, 39216, Note_on_c, 0, 72, 75
1, 39216, Note_on_c, 1, 56, 61
1, 39236, Note_on_c, 0, 72, 0
1, 39239, Note_on_c, 1, 56, 0
1, 39240, Note_on_c, 1, 63, 61
1, 39263, Note_on_c, 1, 63, 0
1, 39264, Note_on_c, 0, 70, 75
1, 39264, Note_on_c, 1, 55, 61
1, 39284, Note_on_c, 0, 70, 0
1, 39287, Note_on_c, 1, 55, 0
1, 39288, Note_on_c, 1, 63, 61
1, 39311, Note_on_c, 1, 63, 0
1, 39312, Note_on_c, 0, 73, 75
1, 39312, Note_on_c, 1, 58, 61
1, 39332, Note_on_c, 0, 73, 0
1, 39335, Note_on_c, 1, 58, 0
1, 39336, Note_on_c, 1, 63, 61
1, 39359, Note_on_c, 1, 63, 0
1, 39360, Note_on_c, 0, 72, 75
1, 39360, Note_on_c, 1, 56, 61
1, 39380, Note_on_c, 0, 72, 0
1, 39383, Note_on_c, 1, 56, 0
1, 39384, Note_on_c, 1, 63, 61
1, 39407, Note_on_c, 1, 63, 0
1, 39408, Note_on_c, 0, 80, 91
1, 39408, Note_on_c, 1, 60, 61
1, 39431, Note_on_c, 1, 60, 0
1, 39432, Note_on_c, 1, 63, 61
1, 39455, Note_on_c, 1, 63, 0
1, 39456, Note_on_c, 1, 56, 61
1, 39479, Note_on_c, 0, 80, 0
1, 39479, Note_on_c, 1, 56, 0
1, 39480, Note_on_c, 0, 79, 75
1, 39480, Note_on_c, 1, 63, 61
1, 39503, Note_on_c, 0, 79, 0
1, 39503, Note_on_c, 1, 63, 0
1, 39504, Note_on_c, 0, 77, 75
1, 39504, Note_on_c, 1, 60, 61
1, 39527, Note_on_c, 0, 77, 0
1, 39527, Note_on_c, 1, 60, 0
1, 39528, Note_on_c, 0, 75, 75
1, 39528, Note_on_c, 1, 63, 61
1, 39551, Note_on_c, 0, 75, 0
1, 39551, Note_on_c, 1, 63, 0
1, 39552, Note_on_c, 0, 75, 75
1, 39552, Note_on_c, 1, 56, 61
1, 39575, Note_on_c, 1, 56, 0
1, 39576, Note_on_c, 1, 65, 61
1, 39599, Note_on_c, 1, 65, 0
1, 39600, Note_on_c, 1, 58, 61
1, 39619, Note_on_c, 0, 75, 0
1, 39623, Note_on_c, 1, 58, 0
1, 39624, Note_on_c, 0, 74, 75
1, 39624, Note_on_c, 1, 65, 61
1, 39634, Note_on_c, 0, 74, 0
1, 39647, Note_on_c, 1, 65, 0
1, 39648, Note_on_c, 0, 75, 75
1, 39648, Note_on_c, 1, 56, 61
1, 39658, Note_on_c, 0, 75, 0
1, 39658, Note_on_c, 0, 74, 75
1, 39668, Note_on_c, 0, 74, 0
1, 39668, Note_on_c, 0, 75, 75
1, 39671, Note_on_c, 1, 56, 0
1, 39672, Note_on_c, 1, 65, 61
1, 39678, Note_on_c, 0, 75, 0
1, 39678, Note_on_c, 0, 74, 75
1, 39688, Note_on_c, 0, 74, 0
1, 39688, Note_on_c, 0, 75, 75
1, 39695, Note_on_c, 1, 65, 0
1, 39696, Note_on_c, 1, 58, 61
1, 39698, Note_on_c, 0, 75, 0
1, 39698, Note_on_c, 0, 74, 75
1, 39708, Note_on_c, 0, 74, 0
1, 39708, Note_on_c, 0, 75, 75
1, 39717, Note_on_c, 0, 75, 0
1, 39717, Note_on_c, 0, 74, 75
1, 39719, Note_on_c, 1, 58, 0
1, 39720, Note_on_c, 1, 65, 61
1, 39726, Note_on_c, 0, 74, 0
1, 39726, Note_on_c, 0, 72, 75
1, 39735, Note_on_c, 0, 72, 0
1, 39735, Note_on_c, 0, 74, 75
1, 39743, Note_on_c, 1, 65, 0
1, 39744, Note_on_c, 0, 74, 0
1, 39744, Note_on_c, 0, 75, 75
1, 39744, Note_on_c, 1, 55, 61
1, 39767, Note_on_c, 1, 55, 0
1, 39768, Note_on_c, 1, 63, 61
1, 39789, Note_on_c, 0, 75, 0
1, 39791, Note_on_c, 1, 63, 0
1, 39792, Note_on_c, 0, 82, 75
1, 39792, Note_on_c, 1, 58, 61
1, 39815, Note_on_c, 1, 58, 0
1, 39816, Note_on_c, 1, 63, 61
1, 39837, Note_on_c, 0, 82, 0
1, 39839, Note_on_c, 1, 63, 0
1, 39840, Note_on_c, 0, 84, 75
1, 39840, Note_on_c, 1, 55, 61
1, 39863, Note_on_c, 1, 55, 0
1, 39864, Note_on_c, 0, 84, 0
1, 39864, Note_on_c, 0, 82, 75
1, 39864, Note_on_c, 1, 63, 61
1, 39887, Note_on_c, 0, 82, 0
1, 39887, Note_on_c, 1, 63, 0
1, 39888, Note_on_c, 0, 80, 75
1, 39888, Note_on_c, 1, 58, 61
1, 39911, Note_on_c, 0, 80, 0
1, 39911, Note_on_c, 1, 58, 0
1, 39912, Note_on_c, 0, 79, 75
1, 39912, Note_on_c, 1, 63, 61
1, 39935, Note_on_c, 0, 79, 0
1, 39935, Note_on_c, 1, 63, 0
1, 39936, Note_on_c, 0, 77, 75
1, 39936, Note_on_c, 1, 56, 61
1, 39959, Note_on_c, 1, 56, 0
1, 39960, Note_on_c, 1, 63, 61
1, 39981, Note_on_c, 0, 77, 0
1, 39983, Note_on_c, 1, 63, 0
1, 39984, Note_on_c, 0, 77, 76
1, 39984, Note_on_c, 1, 60, 62
1, 39996, Note_on_c, 0, 77, 0
1, 39996, Note_on_c, 0, 79, 76
1, 40007, Note_on_c, 1, 60, 0
1, 40008, Note_on_c, 0, 79, 0
1, 40008, Note_on_c, 0, 77, 77
1, 40008, Note_on_c, 1, 63, 63
1, 40020, Note_on_c, 0, 77, 0
1, 40020, Note_on_c, 0, 79, 77
1, 40031, Note_on_c, 1, 63, 0
1, 40032, Note_on_c, 0, 79, 0
1, 40032, Note_on_c, 0, 80, 78
1, 40032, Note_on_c, 1, 56, 64
1, 40055, Note_on_c, 1, 56, 0
1, 40056, Note_on_c, 1, 63, 65
1, 40077, Note_on_c, 0, 80, 0
1, 40079, Note_on_c, 1, 63, 0
1, 40080, Note_on_c, 0, 80, 79
1, 40080, Note_on_c, 1, 60, 65
1, 40092, Note_on_c, 0, 80, 0
1, 40092, Note_on_c, 0, 82, 79
1, 40103, Note_on_c, 1, 60, 0
1, 40104, Note_on_c, 0, 82, 0
1, 40104, Note_on_c, 0, 80, 80
1, 40104, Note_on_c, 1, 63, 66
1, 40116, Note_on_c, 0, 80, 0
1, 40116, Note_on_c, 0, 82, 80
1, 40127, Note_on_c, 1, 63, 0
1, 40128, Note_on_c, 0, 82, 0
1, 40128, Note_on_c, 0, 84, 97
1, 40128, Note_on_c, 1, 56, 67
1, 40151, Note_on_c, 1, 56, 0
1, 40152, Note_on_c, 1, 65, 68
1, 40175, Note_on_c, 1, 65, 0
1, 40176, Note_on_c, 1, 60, 69
1, 40199, Note_on_c, 1, 60, 0
1, 40200, Note_on_c, 1, 65, 70
1, 40223, Note_on_c, 1, 65, 0
1, 40224, Note_on_c, 1, 57, 70
1, 40247, Note_on_c, 1, 57, 0
1, 40248, Note_on_c, 1, 65, 71
1, 40258, Note_on_c, 0, 84, 0
1, 40260, Note_on_c, 0, 75, 84
1, 40265, Note_on_c, 0, 75, 0
1, 40271, Note_on_c, 1, 65, 0
1, 40272, Note_on_c, 0, 77, 84
1, 40272, Note_on_c, 1, 60, 72
1, 40282, Note_on_c, 0, 77, 0
1, 40282, Note_on_c, 0, 75, 84
1, 40292, Note_on_c, 0, 75, 0
1, 40292, Note_on_c, 0, 77, 84
1, 40295, Note_on_c, 1, 60, 0
1, 40296, Note_on_c, 1, 65, 73
1, 40302, Note_on_c, 0, 77, 0
1, 40302, Note_on_c, 0, 74, 84
1, 40311, Note_on_c, 0, 74, 0
1, 40311, Note_on_c, 0, 75, 84
1, 40319, Note_on_c, 1, 65, 0
1, 40320, Note_on_c, 0, 75, 0
1, 40320, Note_on_c, 0, 74, 84
1, 40320, Note_on_c, 1, 58, 74
1, 40343, Note_on_c, 0, 74, 0
1, 40343, Note_on_c, 1, 58, 0
1, 40344, Note_on_c, 0, 82, 84
1, 40344, Note_on_c, 1, 65, 75
1, 40367, Note_on_c, 0, 82, 0
1, 40367, Note_on_c, 1, 65, 0
1, 40368, Note_on_c, 0, 77, 84
1, 40368, Note_on_c, 1, 62, 75
1, 40391, Note_on_c, 0, 77, 0
1, 40391, Note_on_c, 1, 62, 0
1, 40392, Note_on_c, 0, 74, 84
1, 40392, Note_on_c, 1, 65, 75
1, 40415, Note_on_c, 0, 74, 0
1, 40415, Note_on_c, 1, 65, 0
1, 40416, Note_on_c, 0, 70, 84
1, 40416, Note_on_c, 1, 58, 75
1, 40439, Note_on_c, 1, 58, 0
1, 40440, Note_on_c, 1, 65, 75
1, 40461, Note_on_c, 0, 70, 0
1, 40463, Note_on_c, 1, 65, 0
1, 40464, Note_on_c, 0, 70, 84
1, 40464, Note_on_c, 1, 62, 75
1, 40487, Note_on_c, 1, 62, 0
1, 40488, Note_on_c, 1, 65, 75
1, 40509, Note_on_c, 0, 70, 0
1, 40511, Note_on_c, 1, 65, 0
1, 40512, Note_on_c, 0, 72, 84
1, 40512, Note_on_c, 1, 58, 75
1, 40522, Note_on_c, 0, 72, 0
1, 40522, Note_on_c, 0, 70, 84
1, 40532, Note_on_c, 0, 70, 0
1, 40532, Note_on_c, 0, 72, 84
1, 40542, Note_on_c, 0, 72, 0
1, 40542, Note_on_c, 0, 70, 84
1, 40552, Note_on_c, 0, 70, 0
1, 40552, Note_on_c, 0, 72, 84
1, 40562, Note_on_c, 0, 72, 0
1, 40562, Note_on_c, 0, 70, 84
1, 40572, Note_on_c, 0, 70, 0
1, 40572, Note_on_c, 0, 72, 84
1, 40581, Note_on_c, 0, 72, 0
1, 40581, Note_on_c, 0, 70, 84
1, 40601, Note_on_c, 1, 58, 0
1, 40608, Tempo, 1200000
1, 40608, Note_on_c, 0, 70, 0
1, 40656, Tempo, 625000
1, 40656, Note_on_c, 0, 67, 75
1, 40701, Note_on_c, 0, 67, 0
1, 40704, Note_on_c, 0, 70, 75
1, 40752, Note_on_c, 1, 51, 75
1, 40772, Note_on_c, 1, 51, 0
1, 40800, Note_on_c, 1, 55, 75
1, 40845, Note_on_c, 0, 70, 0
1, 40848, Note_on_c, 0, 67, 75
1, 40882, Note_on_c, 0, 67, 0
1, 40884, Note_on_c, 0, 68, 75
1, 40889, Note_on_c, 1, 55, 0
1, 40896, Note_on_c, 0, 68, 0
1, 40896, Note_on_c, 0, 70, 75
1, 40944, Note_on_c, 1, 51, 75
1, 40978, Note_on_c, 1, 51, 0
1, 40980, Note_on_c, 1, 53, 75
1, 40992, Note_on_c, 1, 53, 0
1, 40992, Note_on_c, 1, 55, 75
1, 41037, Note_on_c, 0, 70, 0
1, 41040, Note_on_c, 0, 67, 75
1, 41052, Note_on_c, 0, 67, 0
1, 41052, Note_on_c, 0, 68, 75
1, 41064, Note_on_c, 0, 68, 0
1, 41064, Note_on_c, 0, 67, 75
1, 41076, Note_on_c, 0, 67, 0
1, 41076, Note_on_c, 0, 68, 75
1, 41081, Note_on_c, 1, 55, 0
1, 41088, Note_on_c, 0, 68, 0
1, 41088, Note_on_c, 0, 70, 75
1, 41108, Note_on_c, 0, 70, 0
1, 41136, Note_on_c, 0, 67, 75
1, 41136, Note_on_c, 1, 63, 75
1, 41148, Note_on_c, 0, 67, 0
1, 41148, Note_on_c, 0, 68, 75
1, 41148, Note_on_c, 1, 63, 0
1, 41148, Note_on_c, 1, 65, 75
1, 41160, Note_on_c, 0, 68, 0
1, 41160, Note_on_c, 0, 67, 75
1, 41160, Note_on_c, 1, 65, 0
1, 41160, Note_on_c, 1, 63, 75
1, 41172, Note_on_c, 0, 67, 0
1, 41172, Note_on_c, 0, 68, 75
1, 41172, Note_on_c, 1, 63, 0
1, 41172, Note_on_c, 1, 65, 75
1, 41184, Note_on_c, 0, 68, 0
1, 41184, Note_on_c, 0, 70, 75
1, 41184, Note_on_c, 1, 65, 0
1, 41184, Note_on_c, 1, 67, 75
1, 41204, Note_on_c, 0, 70, 0
1, 41204, Note_on_c, 1, 67, 0
1, 41232, Note_on_c, 0, 67, 75
1, 41232, Note_on_c, 1, 63, 75
1, 41244, Note_on_c, 0, 67, 0
1, 41244, Note_on_c, 0, 68, 75
1, 41244, Note_on_c, 1, 63, 0
1, 41244, Note_on_c, 1, 65, 75
1, 41256, Note_on_c, 0, 68, 0
1, 41256, Note_on_c, 0, 67, 75
1, 41256, Note_on_c, 1, 65, 0
1, 41256, Note_on_c, 1, 63, 75
1, 41268, Note_on_c, 0, 67, 0
1, 41268, Note_on_c, 0, 68, 75
1, 41268, Note_on_c, 1, 63, 0
1, 41268, Note_on_c, 1, 65, 75
1, 41280, Note_on_c, 0, 68, 0
1, 41280, Note_on_c, 0, 70, 75
1, 41280, Note_on_c, 1, 65, 0
1, 41280, Note_on_c, 1, 67, 75
1, 41300, Note_on_c, 0, 70, 0
1, 41319, Note_on_c, 1, 67, 0
1, 41328, Note_on_c, 0, 75, 75
1, 41348, Note_on_c, 0, 75, 0
1, 41424, Note_on_c, 0, 63, 75
1, 41444, Note_on_c, 0, 63, 0
1, 41472, Note_on_c, 0, 67, 75
1, 41520, Note_on_c, 1, 55, 69
1, 41520, Note_on_c, 1, 51, 69
1, 41540, Note_on_c, 1, 55, 0
1, 41540, Note_on_c, 1, 51, 0
1, 41568, Note_on_c, 1, 58, 69
1, 41568, Note_on_c, 1, 55, 69
1, 41605, Note_on_c, 0, 67, 0
1, 41616, Note_on_c, 0, 65, 75
1, 41628, Note_on_c, 0, 65, 0
1, 41628, Note_on_c, 0, 63, 75
1, 41657, Note_on_c, 1, 58, 0
1, 41657, Note_on_c, 1, 55, 0
1, 41661, Note_on_c, 0, 63, 0
1, 41664, Note_on_c, 0, 62, 75
1, 41712, Note_on_c, 1, 48, 69
1, 41712, Note_on_c, 1, 44, 69
1, 41732, Note_on_c, 1, 48, 0
1, 41732, Note_on_c, 1, 44, 0
1, 41760, Note_on_c, 1, 51, 69
1, 41760, Note_on_c, 1, 48, 69
1, 41808, Note_on_c, 0, 62, 0
1, 41808, Note_on_c, 0, 60, 75
1, 41828, Note_on_c, 0, 60, 0
1, 41849, Note_on_c, 1, 51, 0
1, 41849, Note_on_c, 1, 48, 0
1, 41856, Note_on_c, 0, 68, 75
1, 41904, Note_on_c, 1, 56, 69
1, 41904, Note_on_c, 1, 53, 69
1, 41924, Note_on_c, 1, 56, 0
1, 41924, Note_on_c, 1, 53, 0
1, 41952, Note_on_c, 1, 60, 69
1, 41952, Note_on_c, 1, 56, 69
1, 41989, Note_on_c, 0, 68, 0
1, 42000, Note_on_c, 0, 67, 75
1, 42012, Note_on_c, 0, 67, 0
1, 42012, Note_on_c, 0, 65, 75
1, 42041, Note_on_c, 1, 60, 0
1, 42041, Note_on_c, 1, 56, 0
1, 42045, Note_on_c, 0, 65, 0
1, 42048, Note_on_c, 0, 63, 75
1, 42096, Note_on_c, 1, 50, 69
1, 42096, Note_on_c, 1, 46, 69
1, 42116, Note_on_c, 1, 50, 0
1, 42116, Note_on_c, 1, 46, 0
1, 42144, Note_on_c, 1, 53, 69
1, 42144, Note_on_c, 1, 50, 69
1, 42192, Note_on_c, 0, 63, 0
1, 42192, Note_on_c, 0, 62, 75
1, 42212, Note_on_c, 0, 62, 0
1, 42233, Note_on_c, 1, 53, 0
1, 42233, Note_on_c, 1, 50, 0
1, 42240, Note_on_c, 0, 70, 75
1, 42288, Note_on_c, 1, 58, 69
1, 42288, Note_on_c, 1, 55, 69
1, 42308, Note_on_c, 1, 58, 0
1, 42308, Note_on_c, 1, 55, 0
1, 42336, Note_on_c, 1, 62, 69
1, 42336, Note_on_c, 1, 58, 69
1, 42373, Note_on_c, 0, 70, 0
1, 42384, Note_on_c, 0, 68, 75
1, 42396, Note_on_c, 0, 68, 0
1, 42396, Note_on_c, 0, 67, 75
1, 42425, Note_on_c, 1, 62, 0
1, 42425, Note_on_c, 1, 58, 0
1, 42429, Note_on_c, 0, 67, 0
1, 42432, Note_on_c, 0, 65, 75
1, 42480, Note_on_c, 1, 51, 69
1, 42480, Note_on_c, 1, 48, 69
1, 42500, Note_on_c, 1, 51, 0
1, 42500, Note_on_c, 1, 48, 0
1, 42528, Note_on_c, 1, 55, 69
1, 42528, Note_on_c, 1, 51, 69
1, 42576, Note_on_c, 0, 65, 0
1, 42576, Note_on_c, 0, 63, 75
1, 42596, Note_on_c, 0, 63, 0
1, 42617, Note_on_c, 1, 55, 0
1, 42617, Note_on_c, 1, 51, 0
1, 42624, Note_on_c, 0, 68, 75
1, 42672, Note_on_c, 1, 63, 69
1, 42672, Note_on_c, 1, 60, 69
1, 42692, Note_on_c, 1, 63, 0
1, 42692, Note_on_c, 1, 60, 0
1, 42720, Note_on_c, 1, 58, 69
1, 42720, Note_on_c, 1, 62, 64
1, 42757, Note_on_c, 0, 68, 0
1, 42765, Note_on_c, 1, 62, 0
1, 42768, Note_on_c, 0, 67, 75
1, 42768, Note_on_c, 1, 67, 64
1, 42809, Note_on_c, 1, 58, 0
1, 42813, Note_on_c, 0, 67, 0
1, 42816, Note_on_c, 0, 72, 75
1, 42816, Note_on_c, 1, 56, 69
1, 42861, Note_on_c, 1, 67, 0
1, 42864, Note_on_c, 1, 65, 64
1, 42905, Note_on_c, 0, 72, 0
1, 42905, Note_on_c, 1, 56, 0
1, 42912, Note_on_c, 0, 70, 75
1, 42912, Note_on_c, 1, 55, 69
1, 42953, Note_on_c, 1, 65, 0
1, 42960, Note_on_c, 1, 63, 64
1, 43001, Note_on_c, 0, 70, 0
1, 43001, Note_on_c, 1, 55, 0
1, 43005, Note_on_c, 1, 63, 0
1, 43008, Note_on_c, 1, 58, 69
1, 43008, Note_on_c, 1, 50, 69
1, 43032, Note_on_c, 0, 68, 91
1, 43042, Note_on_c, 0, 68, 0
1, 43056, Note_on_c, 0, 70, 75
1, 43068, Note_on_c, 0, 70, 0
1, 43068, Note_on_c, 0, 68, 75
1, 43080, Note_on_c, 0, 68, 0
1, 43080, Note_on_c, 0, 67, 76
1, 43092, Note_on_c, 0, 67, 0
1, 43092, Note_on_c, 0, 68, 76
1, 43097, Note_on_c, 1, 58, 0
1, 43097, Note_on_c, 1, 50, 0
1, 43104, Note_on_c, 0, 68, 0
1, 43104, Note_on_c, 1, 58, 70
1, 43104, Note_on_c, 1, 51, 70
1, 43128, Note_on_c, 0, 67, 93
1, 43138, Note_on_c, 0, 67, 0
1, 43152, Note_on_c, 0, 68, 77
1, 43164, Note_on_c, 0, 68, 0
1, 43164, Note_on_c, 0, 67, 78
1, 43176, Note_on_c, 0, 67, 0
1, 43176, Note_on_c, 0, 65, 78
1, 43188, Note_on_c, 0, 65, 0
1, 43188, Note_on_c, 0, 67, 78
1, 43193, Note_on_c, 1, 58, 0
1, 43193, Note_on_c, 1, 51, 0
1, 43200, Note_on_c, 0, 67, 0
1, 43200, Note_on_c, 1, 56, 71
1, 43200, Note_on_c, 1, 44, 71
1, 43224, Note_on_c, 0, 65, 95
1, 43234, Note_on_c, 0, 65, 0
1, 43248, Note_on_c, 0, 67, 80
1, 43260, Note_on_c, 0, 67, 0
1, 43260, Note_on_c, 0, 65, 80
1, 43272, Note_on_c, 0, 65, 0
1, 43272, Note_on_c, 0, 63, 80
1, 43284, Note_on_c, 0, 63, 0
1, 43284, Note_on_c, 0, 65, 80
1, 43289, Note_on_c, 1, 56, 0
1, 43289, Note_on_c, 1, 44, 0
1, 43296, Note_on_c, 0, 65, 0
1, 43296, Note_on_c, 1, 56, 72
1, 43296, Note_on_c, 1, 53, 72
1, 43296, Note_on_c, 1, 46, 72
1, 43320, Note_on_c, 0, 62, 97
1, 43330, Note_on_c, 0, 62, 0
1, 43344, Note_on_c, 0, 63, 82
1, 43356, Note_on_c, 0, 63, 0
1, 43356, Note_on_c, 0, 62, 82
1, 43368, Note_on_c, 0, 62, 0
1, 43368, Note_on_c, 0, 60, 82
1, 43380, Note_on_c, 0, 60, 0
1, 43380, Note_on_c, 0, 62, 83
1, 43385, Note_on_c, 1, 56, 0
1, 43385, Note_on_c, 1, 53, 0
1, 43385, Note_on_c, 1, 46, 0
1, 43392, Note_on_c, 0, 62, 0
1, 43392, Note_on_c, 0, 63, 83
1, 43392, Note_on_c, 0, 55, 83
1, 43392, Note_on_c, 1, 51, 73
1, 43415, Note_on_c, 0, 63, 0
1, 43415, Note_on_c, 0, 55, 0
1, 43416, Note_on_c, 0, 55, 84
1, 43439, Note_on_c, 0, 55, 0
1, 43440, Note_on_c, 0, 58, 84
1, 43463, Note_on_c, 0, 58, 0
1, 43464, Note_on_c, 0, 55, 84
1, 43481, Note_on_c, 1, 51, 0
1, 43487, Note_on_c, 0, 55, 0
1, 43488, Note_on_c, 0, 63, 84
1, 43511, Note_on_c, 0, 63, 0
1, 43512, Note_on_c, 0, 58, 84
1, 43535, Note_on_c, 0, 58, 0
1, 43536, Note_on_c, 0, 67, 84
1, 43559, Note_on_c, 0, 67, 0
1, 43560, Note_on_c, 0, 63, 84
1, 43583, Note_on_c, 0, 63, 0
1, 43584, Note_on_c, 0, 70, 84
1, 43607, Note_on_c, 0, 70, 0
1, 43608, Note_on_c, 0, 67, 84
1, 43631, Note_on_c, 0, 67, 0
1, 43632, Note_on_c, 0, 75, 84
1, 43632, Note_on_c, 1, 51, 75
1, 43655, Note_on_c, 0, 75, 0
1, 43656, Note_on_c, 0, 67, 84
1, 43677, Note_on_c, 1, 51, 0
1, 43679, Note_on_c, 0, 67, 0
1, 43680, Note_on_c, 0, 70, 84
1, 43680, Note_on_c, 1, 53, 75
1, 43703, Note_on_c, 0, 70, 0
1, 43704, Note_on_c, 0, 68, 84
1, 43725, Note_on_c, 1, 53, 0
1, 43727, Note_on_c, 0, 68, 0
1, 43728, Note_on_c, 0, 67, 84
1, 43728, Note_on_c, 1, 46, 75
1, 43751, Note_on_c, 0, 67, 0
1, 43752, Note_on_c, 0, 65, 84
1, 43773, Note_on_c, 1, 46, 0
1, 43775, Note_on_c, 0, 65, 0
1, 43776, Note_on_c, 0, 67, 84
1, 43800, Note_on_c, 1, 51, 84
1, 43821, Note_on_c, 0, 67, 0
1, 43823, Note_on_c, 1, 51, 0
1, 43824, Note_on_c, 0, 75, 84
1, 43824, Note_on_c, 1, 55, 84
1, 43844, Note_on_c, 0, 75, 0
1, 43847, Note_on_c, 1, 55, 0
1, 43848, Note_on_c, 1, 51, 84
1, 43871, Note_on_c, 1, 51, 0
1, 43872, Note_on_c, 0, 77, 84
1, 43872, Note_on_c, 1, 58, 84
1, 43882, Note_on_c, 0, 77, 0
1, 43882, Note_on_c, 0, 75, 84
1, 43892, Note_on_c, 0, 75, 0
1, 43892, Note_on_c, 0, 77, 84
1, 43895, Note_on_c, 1, 58, 0
1, 43896, Note_on_c, 1, 55, 84
1, 43902, Note_on_c, 0, 77, 0
1, 43902, Note_on_c, 0, 75, 84
1, 43912, Note_on_c, 0, 75, 0
1, 43912, Note_on_c, 0, 77, 84
1, 43919, Note_on_c, 1, 55, 0
1, 43920, Note_on_c, 1, 63, 84
1, 43922, Note_on_c, 0, 77, 0
1, 43922, Note_on_c, 0, 75, 84
1, 43932, Note_on_c, 0, 75, 0
1, 43932, Note_on_c, 0, 77, 84
1, 43941, Note_on_c, 0, 77, 0
1, 43941, Note_on_c, 0, 75, 84
1, 43943, Note_on_c, 1, 63, 0
1, 43944, Note_on_c, 1, 58, 84
1, 43950, Note_on_c, 0, 75, 0
1, 43950, Note_on_c, 0, 77, 84
1, 43959, Note_on_c, 0, 77, 0
1, 43959, Note_on_c, 0, 75, 84
1, 43967, Note_on_c, 1, 58, 0
1, 43968, Note_on_c, 0, 75, 0
1, 43968, Note_on_c, 0, 72, 84
1, 43992, Note_on_c, 1, 51, 84
1, 44013, Note_on_c, 0, 72, 0
1, 44015, Note_on_c, 1, 51, 0
1, 44016, Note_on_c, 0, 80, 84
1, 44016, Note_on_c, 1, 56, 84
1, 44036, Note_on_c, 0, 80, 0
1, 44039, Note_on_c, 1, 56, 0
1, 44040, Note_on_c, 1, 51, 84
1, 44063, Note_on_c, 1, 51, 0
1, 44064, Note_on_c, 0, 82, 84
1, 44064, Note_on_c, 1, 60, 84
1, 44074, Note_on_c, 0, 82, 0
1, 44074, Note_on_c, 0, 80, 84
1, 44084, Note_on_c, 0, 80, 0
1, 44084, Note_on_c, 0, 82, 84
1, 44087, Note_on_c, 1, 60, 0
1, 44088, Note_on_c, 1, 56, 84
1, 44094, Note_on_c, 0, 82, 0
1, 44094, Note_on_c, 0, 80, 84
1, 44104, Note_on_c, 0, 80, 0
1, 44104, Note_on_c, 0, 82, 84
1, 44111, Note_on_c, 1, 56, 0
1, 44112, Note_on_c, 1, 63, 84
1, 44114, Note_on_c, 0, 82, 0
1, 44114, Note_on_c, 0, 80, 84
1, 44124, Note_on_c, 0, 80, 0
1, 44124, Note_on_c, 0, 82, 84
1, 44133, Note_on_c, 0, 82, 0
1, 44133, Note_on_c, 0, 80, 84
1, 44135, Note_on_c, 1, 63, 0
1, 44136, Note_on_c, 1, 60, 84
1, 44142, Note_on_c, 0, 80, 0
1, 44142, Note_on_c, 0, 82, 84
1, 44151, Note_on_c, 0, 82, 0
1, 44151, Note_on_c, 0, 80, 84
1, 44159, Note_on_c, 1, 60, 0
1, 44160, Note_on_c, 0, 80, 0
1, 44160, Note_on_c, 0, 70, 84
1, 44184, Note_on_c, 1, 51, 84
1, 44205, Note_on_c, 0, 70, 0
1, 44207, Note_on_c, 1, 51, 0
1, 44208, Note_on_c, 0, 79, 84
1, 44208, Note_on_c, 1, 55, 84
1, 44228, Note_on_c, 0, 79, 0
1, 44231, Note_on_c, 1, 55, 0
1, 44232, Note_on_c, 1, 51, 84
1, 44255, Note_on_c, 1, 51, 0
1, 44256, Note_on_c, 0, 80, 84
1, 44256, Note_on_c, 1, 58, 84
1, 44266, Note_on_c, 0, 80, 0
1, 44266, Note_on_c, 0, 79, 84
1, 44276, Note_on_c, 0, 79, 0
1, 44276, Note_on_c, 0, 80, 84
1, 44279, Note_on_c, 1, 58, 0
1, 44280, Note_on_c, 1, 55, 84
1, 44286, Note_on_c, 0, 80, 0
1, 44286, Note_on_c, 0, 79, 84
1, 44296, Note_on_c, 0, 79, 0
1, 44296, Note_on_c, 0, 80, 84
1, 44303, Note_on_c, 1, 55, 0
1, 44304, Note_on_c, 1, 63, 84
1, 44306, Note_on_c, 0, 80, 0
1, 44306, Note_on_c, 0, 79, 84
1, 44316, Note_on_c, 0, 79, 0
1, 44316, Note_on_c, 0, 80, 84
1, 44325, Note_on_c, 0, 80, 0
1, 44325, Note_on_c, 0, 79, 84
1, 44327, Note_on_c, 1, 63, 0
1, 44328, Note_on_c, 1, 58, 84
1, 44334, Note_on_c, 0, 79, 0
1, 44334, Note_on_c, 0, 80, 84
1, 44343, Note_on_c, 0, 80, 0
1, 44343, Note_on_c, 0, 79, 84
1, 44351, Note_on_c, 1, 58, 0
1, 44352, Note_on_c, 0, 79, 0
1, 44352, Note_on_c, 0, 68, 84
1, 44376, Note_on_c, 1, 46, 84
1, 44397, Note_on_c, 0, 68, 0
1, 44399, Note_on_c, 1, 46, 0
1, 44400, Note_on_c, 0, 77, 84
1, 44400, Note_on_c, 1, 50, 84
1, 44420, Note_on_c, 0, 77, 0
1, 44423, Note_on_c, 1, 50, 0
1, 44424, Note_on_c, 1, 46, 84
1, 44447, Note_on_c, 1, 46, 0
1, 44448, Note_on_c, 0, 79, 84
1, 44448, Note_on_c, 1, 56, 84
1, 44458, Note_on_c, 0, 79, 0
1, 44458, Note_on_c, 0, 77, 84
1, 44468, Note_on_c, 0, 77, 0
1, 44468, Note_on_c, 0, 79, 84
1, 44471, Note_on_c, 1, 56, 0
1, 44472, Note_on_c, 1, 53, 84
1, 44478, Note_on_c, 0, 79, 0
1, 44478, Note_on_c, 0, 77, 84
1, 44488, Note_on_c, 0, 77, 0
1, 44488, Note_on_c, 0, 79, 84
1, 44495, Note_on_c, 1, 53, 0
1, 44496, Note_on_c, 1, 62, 84
1, 44498, Note_on_c, 0, 79, 0
1, 44498, Note_on_c, 0, 77, 84
1, 44508, Note_on_c, 0, 77, 0
1, 44508, Note_on_c, 0, 79, 84
1, 44517, Note_on_c, 0, 79, 0
1, 44517, Note_on_c, 0, 77, 84
1, 44519, Note_on_c, 1, 62, 0
1, 44520, Note_on_c, 1, 58, 84
1, 44526, Note_on_c, 0, 77, 0
1, 44526, Note_on_c, 0, 79, 84
1, 44535, Note_on_c, 0, 79, 0
1, 44535, Note_on_c, 0, 77, 84
1, 44543, Note_on_c, 1, 58, 0
1, 44544, Note_on_c, 0, 77, 0
1, 44544, Note_on_c, 1, 63, 75
1, 44544, Note_on_c, 1, 58, 75
1, 44544, Note_on_c, 1, 55, 75
1, 44568, Note_on_c, 0, 70, 69
1, 44591, Note_on_c, 0, 70, 0
1, 44592, Note_on_c, 0, 75, 69
1, 44615, Note_on_c, 0, 75, 0
1, 44616, Note_on_c, 0, 70, 69
1, 44639, Note_on_c, 0, 70, 0
1, 44640, Note_on_c, 0, 79, 69
1, 44663, Note_on_c, 0, 79, 0
1, 44664, Note_on_c, 0, 75, 69
1, 44687, Note_on_c, 0, 75, 0
1, 44688, Note_on_c, 0, 82, 69
1, 44711, Note_on_c, 0, 82, 0
1, 44712, Note_on_c, 0, 79, 69
1, 44721, Note_on_c, 1, 63, 0
1, 44721, Note_on_c, 1, 58, 0
1, 44721, Note_on_c, 1, 55, 0
1, 44735, Note_on_c, 0, 79, 0
1, 44736, Note_on_c, 1, 63, 75
1, 44736, Note_on_c, 1, 58, 75
1, 44736, Note_on_c, 1, 54, 75
1, 44760, Note_on_c, 0, 70, 69
1, 44783, Note_on_c, 0, 70, 0
1, 44784, Note_on_c, 0, 75, 69
1, 44807, Note_on_c, 0, 75, 0
1, 44808, Note_on_c, 0, 70, 69
1, 44831, Note_on_c, 0, 70, 0
1, 44832, Note_on_c, 0, 78, 69
1, 44855, Note_on_c, 0, 78, 0
1, 44856, Note_on_c, 0, 75, 69
1, 44879, Note_on_c, 0, 75, 0
1, 44880, Note_on_c, 0, 82, 69
1, 44903, Note_on_c, 0, 82, 0
1, 44904, Note_on_c, 0, 78, 69
1, 44913, Note_on_c, 1, 63, 0
1, 44913, Note_on_c, 1, 58, 0
1, 44913, Note_on_c, 1, 54, 0
1, 44927, Note_on_c, 0, 78, 0
1, 44928, Note_on_c, 1, 63, 75
1, 44928, Note_on_c, 1, 60, 75
1, 44928, Note_on_c, 1, 57, 75
1, 44928, Note_on_c, 1, 54, 75
1, 44952, Note_on_c, 0, 72, 69
1, 44975, Note_on_c, 0, 72, 0
1, 44976, Note_on_c, 0, 75, 69
1, 44999, Note_on_c, 0, 75, 0
1, 45000, Note_on_c, 0, 72, 69
1, 45023, Note_on_c, 0, 72, 0
1, 45024, Note_on_c, 0, 78, 69
1, 45047, Note_on_c, 0, 78, 0
1, 45048, Note_on_c, 0, 75, 69
1, 45071, Note_on_c, 0, 75, 0
1, 45072, Note_on_c, 0, 81, 69
1, 45095, Note_on_c, 0, 81, 0
1, 45096, Note_on_c, 0, 78, 69
1, 45105, Note_on_c, 1, 63, 0
1, 45105, Note_on_c, 1, 60, 0
1, 45105, Note_on_c, 1, 57, 0
1, 45105, Note_on_c, 1, 54, 0
1, 45119, Note_on_c, 0, 78, 0
1, 45120, Note_on_c, 1, 60, 75
1, 45120, Note_on_c, 1, 57, 75
1, 45120, Note_on_c, 1, 54, 75
1, 45120, Note_on_c, 1, 51, 75
1, 45144, Note_on_c, 0, 75, 69
1, 45167, Note_on_c, 0, 75, 0
1, 45168, Note_on_c, 0, 78, 69
1, 45191, Note_on_c, 0, 78, 0
1, 45192, Note_on_c, 0, 75, 69
1, 45215, Note_on_c, 0, 75, 0
1, 45216, Note_on_c, 0, 81, 69
1, 45239, Note_on_c, 0, 81, 0
1, 45240, Note_on_c, 0, 78, 69
1, 45263, Note_on_c, 0, 78, 0
1, 45264, Note_on_c, 0, 84, 69
1, 45287, Note_on_c, 0, 84, 0
1, 45288, Note_on_c, 0, 81, 69
1, 45297, Note_on_c, 1, 60, 0
1, 45297, Note_on_c, 1, 57, 0
1, 45297, Note_on_c, 1, 54, 0
1, 45297, Note_on_c, 1, 51, 0
1, 45311, Note_on_c, 0, 81, 0
1, 45312, Note_on_c, 1, 58, 75
1, 45312, Note_on_c, 1, 53, 75
1, 45312, Note_on_c, 1, 50, 75
1, 45336, Note_on_c, 0, 70, 69
1, 45359, Note_on_c, 0, 70, 0
1, 45360, Note_on_c, 0, 74, 69
1, 45383, Note_on_c, 0, 74, 0
1, 45384, Note_on_c, 0, 70, 69
1, 45407, Note_on_c, 0, 70, 0
1, 45408, Note_on_c, 0, 77, 69
1, 45431, Note_on_c, 0, 77, 0
1, 45432, Note_on_c, 0, 74, 69
1, 45455, Note_on_c, 0, 74, 0
1, 45456, Note_on_c, 0, 80, 69
1, 45479, Note_on_c, 0, 80, 0
1, 45480, Note_on_c, 0, 77, 69
1, 45489, Note_on_c, 1, 58, 0
1, 45489, Note_on_c, 1, 53, 0
1, 45489, Note_on_c, 1, 50, 0
1, 45503, Note_on_c, 0, 77, 0
1, 45504, Note_on_c, 1, 58, 75
1, 45504, Note_on_c, 1, 55, 75
1, 45504, Note_on_c, 1, 51, 75
1, 45528, Note_on_c, 0, 70, 69
1, 45551, Note_on_c, 0, 70, 0
1, 45552, Note_on_c, 0, 75, 69
1, 45575, Note_on_c, 0, 75, 0
1, 45576, Note_on_c, 0, 70, 69
1, 45593, Note_on_c, 1, 58, 0
1, 45593, Note_on_c, 1, 55, 0
1, 45593, Note_on_c, 1, 51, 0
1, 45599, Note_on_c, 0, 70, 0
1, 45600, Note_on_c, 0, 79, 69
1, 45623, Note_on_c, 0, 79, 0
1, 45624, Note_on_c, 0, 75, 69
1, 45647, Note_on_c, 0, 75, 0
1, 45648, Note_on_c, 0, 82, 69
1, 45648, Note_on_c, 1, 63, 75
1, 45671, Note_on_c, 0, 82, 0
1, 45672, Note_on_c, 0, 79, 69
1, 45693, Note_on_c, 1, 63, 0
1, 45696, Note_on_c, 1, 68, 75
1, 45719, Note_on_c, 0, 79, 0
1, 45720, Note_on_c, 0, 77, 75
1, 45741, Note_on_c, 1, 68, 0
1, 45744, Note_on_c, 1, 67, 75
1, 45765, Note_on_c, 0, 77, 0
1, 45768, Note_on_c, 0, 76, 77
1, 45789, Note_on_c, 1, 67, 0
1, 45792, Note_on_c, 1, 68, 78
1, 45813, Note_on_c, 0, 76, 0
1, 45816, Note_on_c, 0, 77, 80
1, 45837, Note_on_c, 1, 68, 0
1, 45840, Note_on_c, 1, 69, 81
1, 45861, Note_on_c, 0, 77, 0
1, 45864, Note_on_c, 0, 75, 82
1, 45885, Note_on_c, 1, 69, 0
1, 45888, Note_on_c, 1, 70, 84
1, 45911, Note_on_c, 0, 75, 0
1, 45912, Note_on_c, 0, 74, 84
1, 45935, Note_on_c, 0, 74, 0
1, 45936, Note_on_c, 0, 72, 84
1, 45959, Note_on_c, 0, 72, 0
1, 45960, Note_on_c, 0, 70, 84
1, 45977, Note_on_c, 1, 70, 0
1, 45983, Note_on_c, 0, 70, 0
1, 45984, Note_on_c, 0, 70, 84
1, 46004, Note_on_c, 0, 70, 0
1, 46032, Note_on_c, 0, 70, 75
1, 46032, Note_on_c, 1, 51, 75
1, 46055, Note_on_c, 0, 70, 0
1, 46056, Note_on_c, 0, 67, 75
1, 46077, Note_on_c, 1, 51, 0
1, 46080, Note_on_c, 1, 56, 76
1, 46103, Note_on_c, 0, 67, 0
1, 46104, Note_on_c, 0, 65, 77
1, 46125, Note_on_c, 1, 56, 0
1, 46128, Note_on_c, 1, 55, 78
1, 46149, Note_on_c, 0, 65, 0
1, 46152, Note_on_c, 0, 64, 79
1, 46173, Note_on_c, 1, 55, 0
1, 46176, Note_on_c, 1, 56, 80
1, 46197, Note_on_c, 0, 64, 0
1, 46200, Note_on_c, 0, 65, 81
1, 46221, Note_on_c, 1, 56, 0
1, 46224, Note_on_c, 1, 57, 82
1, 46245, Note_on_c, 0, 65, 0
1, 46248, Note_on_c, 0, 63, 83
1, 46269, Note_on_c, 1, 57, 0
1, 46272, Note_on_c, 1, 58, 84
1, 46295, Note_on_c, 0, 63, 0
1, 46296, Note_on_c, 0, 62, 84
1, 46319, Note_on_c, 0, 62, 0
1, 46320, Note_on_c, 0, 60, 84
1, 46343, Note_on_c, 0, 60, 0
1, 46344, Note_on_c, 0, 58, 84
1, 46361, Note_on_c, 1, 58, 0
1, 46367, Note_on_c, 0, 58, 0
1, 46368, Note_on_c, 0, 58, 84
1, 46388, Note_on_c, 0, 58, 0
1, 46416, Note_on_c, 0, 63, 75
1, 46436, Note_on_c, 0, 63, 0
1, 46464, Note_on_c, 0, 67, 75
1, 46464, Note_on_c, 1, 51, 61
1, 46487, Note_on_c, 1, 51, 0
1, 46488, Note_on_c, 1, 58, 61
1, 46511, Note_on_c, 1, 58, 0
1, 46512, Note_on_c, 1, 55, 61
1, 46535, Note_on_c, 1, 55, 0
1, 46536, Note_on_c, 1, 58, 61
1, 46559, Note_on_c, 1, 58, 0
1, 46560, Note_on_c, 1, 51, 61
1, 46583, Note_on_c, 1, 51, 0
1, 46584, Note_on_c, 1, 58, 61
1, 46597, Note_on_c, 0, 67, 0
1, 46607, Note_on_c, 1, 58, 0
1, 46608, Note_on_c, 0, 70, 75
1, 46608, Note_on_c, 1, 55, 61
1, 46631, Note_on_c, 0, 70, 0
1, 46631, Note_on_c, 1, 55, 0
1, 46632, Note_on_c, 0, 67, 75
1, 46632, Note_on_c, 1, 58, 61
1, 46655, Note_on_c, 0, 67, 0
1, 46655, Note_on_c, 1, 58, 0
1, 46656, Note_on_c, 0, 68, 75
1, 46656, Note_on_c, 1, 50, 61
1, 46679, Note_on_c, 1, 50, 0
1, 46680, Note_on_c, 1, 58, 61
1, 46703, Note_on_c, 1, 58, 0
1, 46704, Note_on_c, 1, 53, 61
1, 46727, Note_on_c, 1, 53, 0
1, 46728, Note_on_c, 1, 58, 61
1, 46751, Note_on_c, 1, 58, 0
1, 46752, Note_on_c, 1, 50, 61
1, 46775, Note_on_c, 1, 50, 0
1, 46776, Note_on_c, 1, 58, 61
1, 46789, Note_on_c, 0, 68, 0
1, 46799, Note_on_c, 1, 58, 0
1, 46800, Note_on_c, 0, 65, 75
1, 46800, Note_on_c, 1, 53, 61
1, 46823, Note_on_c, 0, 65, 0
1, 46823, Note_on_c, 1, 53, 0
1, 46824, Note_on_c, 0, 62, 75
1, 46824, Note_on_c, 1, 58, 61
1, 46847, Note_on_c, 0, 62, 0
1, 46847, Note_on_c, 1, 58, 0
1, 46848, Note_on_c, 0, 56, 75
1, 46848, Note_on_c, 1, 50, 61
1, 46871, Note_on_c, 1, 50, 0
1, 46872, Note_on_c, 1, 58, 61
1, 46895, Note_on_c, 1, 58, 0
1, 46896, Note_on_c, 1, 53, 61
1, 46919, Note_on_c, 1, 53, 0
1, 46920, Note_on_c, 1, 58, 61
1, 46943, Note_on_c, 1, 58, 0
1, 46944, Note_on_c, 1, 50, 61
1, 46967, Note_on_c, 1, 50, 0
1, 46968, Note_on_c, 1, 58, 61
1, 46988, Note_on_c, 0, 56, 0
1, 46991, Note_on_c, 1, 58, 0
1, 46992, Note_on_c, 0, 68, 75
1, 46992, Note_on_c, 1, 53, 61
1, 47015, Note_on_c, 0, 68, 0
1, 47015, Note_on_c, 1, 53, 0
1, 47016, Note_on_c, 0, 65, 75
1, 47016, Note_on_c, 1, 58, 61
1, 47039, Note_on_c, 0, 65, 0
1, 47039, Note_on_c, 1, 58, 0
1, 47040, Note_on_c, 0, 67, 75
1, 47040, Note_on_c, 1, 51, 61
1, 47063, Note_on_c, 1, 51, 0
1, 47064, Note_on_c, 1, 58, 61
1, 47087, Note_on_c, 1, 58, 0
1, 47088, Note_on_c, 1, 55, 61
1, 47111, Note_on_c, 1, 55, 0
1, 47112, Note_on_c, 1, 58, 61
1, 47135, Note_on_c, 1, 58, 0
1, 47136, Note_on_c, 1, 51, 61
1, 47159, Note_on_c, 1, 51, 0
1, 47160, Note_on_c, 1, 58, 61
1, 47173, Note_on_c, 0, 67, 0
1, 47183, Note_on_c, 1, 58, 0
1, 47184, Note_on_c, 0, 63, 75
1, 47184, Note_on_c, 1, 55, 61
1, 47196, Note_on_c, 0, 63, 0
1, 47196, Note_on_c, 0, 65, 75
1, 47207, Note_on_c, 1, 55, 0
1, 47208, Note_on_c, 0, 65, 0
1, 47208, Note_on_c, 0, 63, 75
1, 47208, Note_on_c, 1, 58, 61
1, 47220, Note_on_c, 0, 63, 0
1, 47220, Note_on_c, 0, 65, 75
1, 47231, Note_on_c, 1, 58, 0
1, 47232, Note_on_c, 0, 65, 0
1, 47232, Note_on_c, 0, 67, 75
1, 47232, Note_on_c, 1, 51, 61
1, 47255, Note_on_c, 1, 51, 0
1, 47256, Note_on_c, 1, 58, 61
1, 47277, Note_on_c, 0, 67, 0
1, 47279, Note_on_c, 1, 58, 0
1, 47280, Note_on_c, 0, 67, 75
1, 47280, Note_on_c, 1, 55, 61
1, 47292, Note_on_c, 0, 67, 0
1, 47292, Note_on_c, 0, 68, 75
1, 47303, Note_on_c, 1, 55, 0
1, 47304, Note_on_c, 0, 68, 0
1, 47304, Note_on_c, 0, 67, 75
1, 47304, Note_on_c, 1, 58, 61
1, 47316, Note_on_c, 0, 67, 0
1, 47316, Note_on_c, 0, 68, 75
1, 47327, Note_on_c, 1, 58, 0
1, 47328, Note_on_c, 0, 68, 0
1, 47328, Note_on_c, 0, 70, 75
1, 47328, Note_on_c, 1, 51, 61
1, 47351, Note_on_c, 1, 51, 0
1, 47352, Note_on_c, 1, 58, 61
1, 47373, Note_on_c, 0, 70, 0
1, 47375, Note_on_c, 1, 58, 0
1, 47376, Note_on_c, 0, 75, 75
1, 47376, Note_on_c, 1, 55, 61
1, 47399, Note_on_c, 1, 55, 0
1, 47400, Note_on_c, 1, 58, 61
1, 47421, Note_on_c, 0, 75, 0
1, 47423, Note_on_c, 1, 58, 0
1, 47424, Note_on_c, 0, 75, 75
1, 47424, Note_on_c, 1, 51, 61
1, 47447, Note_on_c, 1, 51, 0
1, 47448, Note_on_c, 0, 75, 0
1, 47448, Note_on_c, 0, 72, 75
1, 47448, Note_on_c, 1, 60, 61
1, 47471, Note_on_c, 0, 72, 0
1, 47471, Note_on_c, 1, 60, 0
1, 47472, Note_on_c, 0, 72, 75
1, 47472, Note_on_c, 1, 56, 61
1, 47495, Note_on_c, 1, 56, 0
1, 47496, Note_on_c, 1, 60, 61
1, 47519, Note_on_c, 1, 60, 0
1, 47520, Note_on_c, 1, 51, 61
1, 47543, Note_on_c, 1, 51, 0
1, 47544, Note_on_c, 1, 60, 61
1, 47561, Note_on_c, 0, 72, 0
1, 47567, Note_on_c, 1, 60, 0
1, 47568, Note_on_c, 0, 75, 75
1, 47568, Note_on_c, 1, 56, 61
1, 47591, Note_on_c, 1, 56, 0
1, 47592, Note_on_c, 1, 60, 61
1, 47613, Note_on_c, 0, 75, 0
1, 47615, Note_on_c, 1, 60, 0
1, 47616, Note_on_c, 0, 75, 75
1, 47616, Note_on_c, 1, 51, 61
1, 47639, Note_on_c, 1, 51, 0
1, 47640, Note_on_c, 0, 75, 0
1, 47640, Note_on_c, 0, 70, 75
1, 47640, Note_on_c, 1, 58, 61
1, 47663, Note_on_c, 0, 70, 0
1, 47663, Note_on_c, 1, 58, 0
1, 47664, Note_on_c, 0, 70, 75
1, 47664, Note_on_c, 1, 55, 61
1, 47687, Note_on_c, 1, 55, 0
1, 47688, Note_on_c, 1, 58, 61
1, 47711, Note_on_c, 1, 58, 0
1, 47712, Note_on_c, 1, 51, 61
1, 47735, Note_on_c, 1, 51, 0
1, 47736, Note_on_c, 1, 58, 61
1, 47753, Note_on_c, 0, 70, 0
1, 47759, Note_on_c, 1, 58, 0
1, 47760, Note_on_c, 0, 75, 75
1, 47760, Note_on_c, 1, 55, 61
1, 47783, Note_on_c, 1, 55, 0
1, 47784, Note_on_c, 0, 75, 0
1, 47784, Note_on_c, 0, 70, 75
1, 47784, Note_on_c, 1, 58, 61
1, 47807, Note_on_c, 0, 70, 0
1, 47807, Note_on_c, 1, 58, 0
1, 47808, Note_on_c, 0, 70, 75
1, 47808, Note_on_c, 1, 51, 61
1, 47831, Note_on_c, 1, 51, 0
1, 47832, Note_on_c, 0, 70, 0
1, 47832, Note_on_c, 0, 69, 75
1, 47832, Note_on_c, 1, 60, 61
1, 47855, Note_on_c, 0, 69, 0
1, 47855, Note_on_c, 1, 60, 0
1, 47856, Note_on_c, 0, 69, 75
1, 47856, Note_on_c, 1, 54, 61
1, 47879, Note_on_c, 1, 54, 0
1, 47880, Note_on_c, 1, 60, 61
1, 47901, Note_on_c, 0, 69, 0
1, 47903, Note_on_c, 1, 60, 0
1, 47904, Note_on_c, 0, 69, 75
1, 47904, Note_on_c, 1, 51, 61
1, 47927, Note_on_c, 1, 51, 0
1, 47928, Note_on_c, 1, 60, 61
1, 47949, Note_on_c, 0, 69, 0
1, 47951, Note_on_c, 1, 60, 0
1, 47952, Note_on_c, 0, 69, 75
1, 47952, Note_on_c, 1, 54, 61
1, 47975, Note_on_c, 1, 54, 0
1, 47976, Note_on_c, 1, 60, 61
1, 47997, Note_on_c, 0, 69, 0
1, 47999, Note_on_c, 1, 60, 0
1, 48000, Note_on_c, 0, 69, 75
1, 48000, Note_on_c, 1, 51, 61
1, 48012, Note_on_c, 0, 69, 0
1, 48012, Note_on_c, 0, 78, 91
1, 48023, Note_on_c, 1, 51, 0
1, 48024, Note_on_c, 1, 60, 61
1, 48047, Note_on_c, 1, 60, 0
1, 48048, Note_on_c, 1, 57, 61
1, 48071, Note_on_c, 1, 57, 0
1, 48072, Note_on_c, 1, 60, 61
1, 48095, Note_on_c, 1, 60, 0
1, 48096, Note_on_c, 1, 51, 61
1, 48119, Note_on_c, 1, 51, 0
1, 48120, Note_on_c, 1, 60, 61
1, 48130, Note_on_c, 0, 78, 0
1, 48132, Note_on_c, 0, 69, 91
1, 48143, Note_on_c, 1, 60, 0
1, 48144, Note_on_c, 0, 69, 0
1, 48144, Note_on_c, 0, 70, 75
1, 48144, Note_on_c, 1, 57, 61
1, 48156, Note_on_c, 0, 70, 0
1, 48156, Note_on_c, 0, 69, 75
1, 48167, Note_on_c, 1, 57, 0
1, 48168, Note_on_c, 0, 69, 0
1, 48168, Note_on_c, 0, 67, 75
1, 48168, Note_on_c, 1, 60, 61
1, 48180, Note_on_c, 0, 67, 0
1, 48180, Note_on_c, 0, 69, 75
1, 48191, Note_on_c, 1, 60, 0
1, 48192, Note_on_c, 0, 69, 0
1, 48192, Note_on_c, 0, 70, 75
1, 48192, Note_on_c, 1, 50, 61
1, 48212, Note_on_c, 0, 70, 0
1, 48215, Note_on_c, 1, 50, 0
1, 48216, Note_on_c, 1, 58, 61
1, 48239, Note_on_c, 1, 58, 0
1, 48240, Note_on_c, 0, 70, 75
1, 48240, Note_on_c, 1, 53, 61
1, 48263, Note_on_c, 1, 53, 0
1, 48264, Note_on_c, 1, 58, 61
1, 48287, Note_on_c, 1, 58, 0
1, 48288, Note_on_c, 1, 50, 61
1, 48311, Note_on_c, 1, 50, 0
1, 48312, Note_on_c, 1, 58, 61
1, 48329, Note_on_c, 0, 70, 0
1, 48335, Note_on_c, 1, 58, 0
1, 48336, Note_on_c, 0, 72, 75
1, 48336, Note_on_c, 1, 53, 61
1, 48359, Note_on_c, 0, 72, 0
1, 48359, Note_on_c, 1, 53, 0
1, 48360, Note_on_c, 0, 68, 75
1, 48360, Note_on_c, 1, 58, 61
1, 48383, Note_on_c, 0, 68, 0
1, 48383, Note_on_c, 1, 58, 0
1, 48384, Note_on_c, 0, 68, 75
1, 48384, Note_on_c, 1, 51, 61
1, 48407, Note_on_c, 0, 68, 0
1, 48407, Note_on_c, 1, 51, 0
1, 48408, Note_on_c, 0, 67, 75
1, 48408, Note_on_c, 1, 58, 61
1, 48431, Note_on_c, 0, 67, 0
1, 48431, Note_on_c, 1, 58, 0
1, 48432, Note_on_c, 0, 70, 75
1, 48432, Note_on_c, 1, 55, 61
1, 48455, Note_on_c, 0, 70, 0
1, 48455, Note_on_c, 1, 55, 0
1, 48456, Note_on_c, 0, 63, 75
1, 48456, Note_on_c, 1, 58, 61
1, 48479, Note_on_c, 0, 63, 0
1, 48479, Note_on_c, 1, 58, 0
1, 48480, Note_on_c, 0, 63, 75
1, 48480, Note_on_c, 1, 53, 61
1, 48503, Note_on_c, 0, 63, 0
1, 48503, Note_on_c, 1, 53, 0
1, 48504, Note_on_c, 0, 62, 75
1, 48504, Note_on_c, 1, 58, 61
1, 48527, Note_on_c, 0, 62, 0
1, 48527, Note_on_c, 1, 58, 0
1, 48528, Note_on_c, 0, 65, 75
1, 48528, Note_on_c, 1, 56, 61
1, 48551, Note_on_c, 0, 65, 0
1, 48551, Note_on_c, 1, 56, 0
1, 48552, Note_on_c, 0, 62, 75
1, 48552, Note_on_c, 1, 58, 61
1, 48575, Note_on_c, 0, 62, 0
1, 48575, Note_on_c, 1, 58, 0
1, 48576, Note_on_c, 0, 63, 75
1, 48576, Note_on_c, 1, 55, 61
1, 48596, Note_on_c, 0, 63, 0
1, 48599, Note_on_c, 1, 55, 0
1, 48600, Note_on_c, 1, 58, 61
1, 48623, Note_on_c, 1, 58, 0
1, 48624, Note_on_c, 0, 67, 75
1, 48624, Note_on_c, 1, 51, 61
1, 48644, Note_on_c, 0, 67, 0
1, 48647, Note_on_c, 1, 51, 0
1, 48648, Note_on_c, 1, 58, 61
1, 48671, Note_on_c, 1, 58, 0
1, 48672, Note_on_c, 0, 65, 75
1, 48672, Note_on_c, 1, 50, 61
1, 48692, Note_on_c, 0, 65, 0
1, 48695, Note_on_c, 1, 50, 0
1, 48696, Note_on_c, 1, 58, 61
1, 48719, Note_on_c, 1, 58, 0
1, 48720, Note_on_c, 0, 68, 75
1, 48720, Note_on_c, 1, 53, 61
1, 48740, Note_on_c, 0, 68, 0
1, 48743, Note_on_c, 1, 53, 0
1, 48744, Note_on_c, 1, 58, 61
1, 48767, Note_on_c, 1, 58, 0
1, 48768, Note_on_c, 0, 68, 75
1, 48768, Note_on_c, 1, 51, 61
1, 48791, Note_on_c, 0, 68, 0
1, 48791, Note_on_c, 1, 51, 0
1, 48792, Note_on_c, 0, 67, 75
1, 48792, Note_on_c, 1, 58, 61
1, 48815, Note_on_c, 0, 67, 0
1, 48815, Note_on_c, 1, 58, 0
1, 48816, Note_on_c, 0, 70, 75
1, 48816, Note_on_c, 1, 55, 61
1, 48839, Note_on_c, 0, 70, 0
1, 48839, Note_on_c, 1, 55, 0
1, 48840, Note_on_c, 0, 63, 75
1, 48840, Note_on_c, 1, 58, 61
1, 48863, Note_on_c, 0, 63, 0
1, 48863, Note_on_c, 1, 58, 0
1, 48864, Note_on_c, 0, 63, 75
1, 48864, Note_on_c, 1, 53, 61
1, 48887, Note_on_c, 0, 63, 0
1, 48887, Note_on_c, 1, 53, 0
1, 48888, Note_on_c, 0, 62, 75
1, 48888, Note_on_c, 1, 58, 61
1, 48911, Note_on_c, 0, 62, 0
1, 48911, Note_on_c, 1, 58, 0
1, 48912, Note_on_c, 0, 65, 75
1, 48912, Note_on_c, 1, 56, 61
1, 48935, Note_on_c, 0, 65, 0
1, 48935, Note_on_c, 1, 56, 0
1, 48936, Note_on_c, 0, 62, 75
1, 48936, Note_on_c, 1, 58, 61
1, 48959, Note_on_c, 0, 62, 0
1, 48959, Note_on_c, 1, 58, 0
1, 48960, Note_on_c, 0, 63, 75
1, 48960, Note_on_c, 1, 55, 61
1, 48980, Note_on_c, 0, 63, 0
1, 48983, Note_on_c, 1, 55, 0
1, 48984, Note_on_c, 1, 58, 61
1, 49007, Note_on_c, 1, 58, 0
1, 49008, Note_on_c, 0, 67, 75
1, 49008, Note_on_c, 1, 51, 61
1, 49028, Note_on_c, 0, 67, 0
1, 49031, Note_on_c, 1, 51, 0
1, 49032, Note_on_c, 1, 58, 61
1, 49055, Note_on_c, 1, 58, 0
1, 49056, Note_on_c, 0, 65, 75
1, 49056, Note_on_c, 1, 50, 61
1, 49076, Note_on_c, 0, 65, 0
1, 49079, Note_on_c, 1, 50, 0
1, 49080, Note_on_c, 1, 58, 61
1, 49103, Note_on_c, 1, 58, 0
1, 49104, Note_on_c, 0, 68, 75
1, 49104, Note_on_c, 1, 53, 61
1, 49124, Note_on_c, 0, 68, 0
1, 49127, Note_on_c, 1, 53, 0
1, 49128, Note_on_c, 1, 58, 61
1, 49151, Note_on_c, 1, 58, 0
1, 49152, Note_on_c, 0, 67, 75
1, 49152, Note_on_c, 1, 51, 61
1, 49162, Note_on_c, 0, 67, 0
1, 49176, Note_on_c, 0, 75, 75
1, 49199, Note_on_c, 0, 75, 0
1, 49200, Note_on_c, 0, 74, 75
1, 49223, Note_on_c, 0, 74, 0
1, 49224, Note_on_c, 0, 75, 75
1, 49241, Note_on_c, 1, 51, 0
1, 49247, Note_on_c, 0, 75, 0
1, 49248, Note_on_c, 1, 55, 65
1, 49272, Note_on_c, 0, 73, 75
1, 49295, Note_on_c, 0, 73, 0
1, 49296, Note_on_c, 0, 72, 75
1, 49319, Note_on_c, 0, 72, 0
1, 49320, Note_on_c, 0, 71, 75
1, 49337, Note_on_c, 1, 55, 0
1, 49343, Note_on_c, 0, 71, 0
1, 49344, Note_on_c, 1, 56, 70
1, 49368, Note_on_c, 0, 72, 75
1, 49391, Note_on_c, 0, 72, 0
1, 49392, Note_on_c, 0, 71, 75
1, 49415, Note_on_c, 0, 71, 0
1, 49416, Note_on_c, 0, 72, 75
1, 49433, Note_on_c, 1, 56, 0
1, 49439, Note_on_c, 0, 72, 0
1, 49440, Note_on_c, 0, 70, 75
1, 49463, Note_on_c, 0, 70, 0
1, 49464, Note_on_c, 0, 68, 75
1, 49487, Note_on_c, 0, 68, 0
1, 49488, Note_on_c, 0, 67, 75
1, 49511, Note_on_c, 0, 67, 0
1, 49512, Note_on_c, 0, 65, 75
1, 49535, Note_on_c, 0, 65, 0
1, 49536, Note_on_c, 0, 70, 91
1, 49546, Note_on_c, 0, 70, 0
1, 49560, Note_on_c, 0, 72, 75
1, 49568, Note_on_c, 0, 72, 0
1, 49568, Note_on_c, 0, 70, 75
1, 49576, Note_on_c, 0, 70, 0
1, 49576, Note_on_c, 0, 68, 75
1, 49584, Note_on_c, 0, 68, 0
1, 49584, Note_on_c, 0, 70, 75
1, 49584, Note_on_c, 1, 55, 75
1, 49607, Note_on_c, 0, 70, 0
1, 49608, Note_on_c, 0, 72, 75
1, 49629, Note_on_c, 1, 55, 0
1, 49631, Note_on_c, 0, 72, 0
1, 49632, Note_on_c, 0, 63, 75
1, 49632, Note_on_c, 1, 56, 75
1, 49677, Note_on_c, 0, 63, 0
1, 49677, Note_on_c, 1, 56, 0
1, 49680, Note_on_c, 0, 62, 75
1, 49680, Note_on_c, 1, 58, 75
1, 49725, Note_on_c, 0, 62, 0
1, 49725, Note_on_c, 1, 58, 0
1, 49728, Note_on_c, 0, 63, 75
1, 49728, Note_on_c, 1, 51, 75
1, 49773, Note_on_c, 0, 63, 0
1, 49776, Note_on_c, 0, 79, 75
1, 49796, Note_on_c, 0, 79, 0
1, 49817, Note_on_c, 1, 51, 0
1, 49824, Note_on_c, 0, 77, 75
1, 49847, Note_on_c, 0, 77, 0
1, 49848, Note_on_c, 0, 75, 75
1, 49871, Note_on_c, 0, 75, 0
1, 49872, Note_on_c, 0, 74, 75
1, 49872, Note_on_c, 1, 67, 61
1, 49872, Note_on_c, 1, 63, 61
1, 49895, Note_on_c, 0, 74, 0
1, 49896, Note_on_c, 0, 72, 75
1, 49917, Note_on_c, 1, 67, 0
1, 49917, Note_on_c, 1, 63, 0
1, 49920, Note_on_c, 1, 65, 61
1, 49920, Note_on_c, 1, 62, 61
1, 49965, Note_on_c, 0, 72, 0
1, 49968, Note_on_c, 0, 70, 75
1, 50009, Note_on_c, 1, 65, 0
1, 50009, Note_on_c, 1, 62, 0
1, 50016, Note_on_c, 1, 63, 61
1, 50016, Note_on_c, 1, 60, 61
1, 50050, Note_on_c, 0, 70, 0
1, 50052, Note_on_c, 0, 69, 75
1, 50064, Note_on_c, 0, 69, 0
1, 50064, Note_on_c, 0, 75, 75
1, 50064, Note_on_c, 1, 63, 0
1, 50064, Note_on_c, 1, 69, 61
1, 50109, Note_on_c, 1, 69, 0
1, 50109, Note_on_c, 1, 60, 0
1, 50112, Note_on_c, 0, 75, 0
1, 50112, Note_on_c, 0, 74, 75
1, 50112, Note_on_c, 1, 70, 61
1, 50112, Note_on_c, 1, 58, 61
1, 50132, Note_on_c, 0, 74, 0
1, 50157, Note_on_c, 1, 70, 0
1, 50157, Note_on_c, 1, 58, 0
1, 50160, Note_on_c, 0, 75, 75
1, 50160, Note_on_c, 1, 67, 61
1, 50160, Note_on_c, 1, 60, 61
1, 50205, Note_on_c, 0, 75, 0
1, 50205, Note_on_c, 1, 67, 0
1, 50205, Note_on_c, 1, 60, 0
1, 50208, Note_on_c, 0, 74, 75
1, 50231, Note_on_c, 0, 74, 0
1, 50232, Note_on_c, 0, 72, 75
1, 50255, Note_on_c, 0, 72, 0
1, 50256, Note_on_c, 0, 70, 75
1, 50256, Note_on_c, 1, 63, 61
1, 50256, Note_on_c, 1, 60, 61
1, 50279, Note_on_c, 0, 70, 0
1, 50280, Note_on_c, 0, 68, 75
1, 50301, Note_on_c, 1, 63, 0
1, 50301, Note_on_c, 1, 60, 0
1, 50304, Note_on_c, 1, 62, 61
1, 50304, Note_on_c, 1, 58, 61
1, 50349, Note_on_c, 0, 68, 0
1, 50352, Note_on_c, 0, 67, 75
1, 50393, Note_on_c, 1, 62, 0
1, 50393, Note_on_c, 1, 58, 0
1, 50400, Note_on_c, 1, 60, 61
1, 50400, Note_on_c, 1, 57, 61
1, 50434, Note_on_c, 0, 67, 0
1, 50436, Note_on_c, 0, 66, 75
1, 50448, Note_on_c, 0, 66, 0
1, 50448, Note_on_c, 0, 72, 75
1, 50448, Note_on_c, 1, 60, 0
1, 50448, Note_on_c, 1, 66, 61
1, 50493, Note_on_c, 1, 66, 0
1, 50493, Note_on_c, 1, 57, 0
1, 50496, Note_on_c, 0, 72, 0
1, 50496, Note_on_c, 0, 70, 75
1, 50496, Note_on_c, 1, 67, 61
1, 50496, Note_on_c, 1, 55, 61
1, 50516, Note_on_c, 0, 70, 0
1, 50541, Note_on_c, 1, 67, 0
1, 50541, Note_on_c, 1, 55, 0
1, 50544, Note_on_c, 0, 71, 75
1, 50544, Note_on_c, 1, 63, 61
1, 50544, Note_on_c, 1, 56, 61
1, 50568, Note_on_c, 0, 71, 0
1, 50568, Note_on_c, 0, 72, 75
1, 50589, Note_on_c, 1, 63, 0
1, 50589, Note_on_c, 1, 56, 0
1, 50591, Note_on_c, 0, 72, 0
1, 50592, Note_on_c, 0, 70, 75
1, 50615, Note_on_c, 0, 70, 0
1, 50616, Note_on_c, 0, 68, 75
1, 50639, Note_on_c, 0, 68, 0
1, 50640, Note_on_c, 0, 67, 75
1, 50640, Note_on_c, 1, 60, 61
1, 50640, Note_on_c, 1, 56, 61
1, 50663, Note_on_c, 0, 67, 0
1, 50664, Note_on_c, 0, 65, 75
1, 50685, Note_on_c, 1, 60, 0
1, 50685, Note_on_c, 1, 56, 0
1, 50688, Note_on_c, 1, 58, 61
1, 50688, Note_on_c, 1, 55, 61
1, 50733, Note_on_c, 0, 65, 0
1, 50736, Note_on_c, 0, 63, 75
1, 50777, Note_on_c, 1, 58, 0
1, 50777, Note_on_c, 1, 55, 0
1, 50784, Note_on_c, 1, 56, 61
1, 50784, Note_on_c, 1, 53, 61
1, 50818, Note_on_c, 0, 63, 0
1, 50820, Note_on_c, 0, 62, 75
1, 50832, Note_on_c, 0, 62, 0
1, 50832, Note_on_c, 0, 68, 75
1, 50832, Note_on_c, 1, 56, 0
1, 50832, Note_on_c, 1, 62, 61
1, 50877, Note_on_c, 1, 62, 0
1, 50877, Note_on_c, 1, 53, 0
1, 50880, Note_on_c, 1, 63, 61
1, 50880, Note_on_c, 1, 58, 61
1, 50880, Note_on_c, 1, 51, 61
1, 50925, Note_on_c, 0, 68, 0
1, 50928, Note_on_c, 0, 67, 75
1, 50969, Note_on_c, 1, 63, 0
1, 50969, Note_on_c, 1, 58, 0
1, 50969, Note_on_c, 1, 51, 0
1, 50973, Note_on_c, 0, 67, 0
1, 50976, Note_on_c, 1, 62, 61
1, 50976, Note_on_c, 1, 58, 61
1, 50976, Note_on_c, 1, 53, 61
1, 51012, Note_on_c, 0, 68, 75
1, 51024, Note_on_c, 0, 68, 0
1, 51024, Note_on_c, 0, 70, 75
1, 51030, Note_on_c, 0, 70, 0
1, 51030, Note_on_c, 0, 68, 75
1, 51036, Note_on_c, 0, 68, 0
1, 51036, Note_on_c, 0, 67, 75
1, 51042, Note_on_c, 0, 67, 0
1, 51042, Note_on_c, 0, 68, 75
1, 51065, Note_on_c, 1, 62, 0
1, 51065, Note_on_c, 1, 58, 0
1, 51065, Note_on_c, 1, 53, 0
1, 51072, Note_on_c, 1, 63, 61
1, 51072, Note_on_c, 1, 58, 61
1, 51072, Note_on_c, 1, 51, 61
1, 51106, Note_on_c, 0, 68, 0
1, 51108, Note_on_c, 0, 67, 75
1, 51120, Note_on_c, 0, 67, 0
1, 51120, Note_on_c, 0, 68, 75
1, 51126, Note_on_c, 0, 68, 0
1, 51126, Note_on_c, 0, 67, 75
1, 51132, Note_on_c, 0, 67, 0
1, 51132, Note_on_c, 0, 65, 75
1, 51138, Note_on_c, 0, 65, 0
1, 51138, Note_on_c, 0, 67, 75
1, 51161, Note_on_c, 1, 63, 0
1, 51161, Note_on_c, 1, 58, 0
1, 51161, Note_on_c, 1, 51, 0
1, 51167, Note_on_c, 0, 67, 0
1, 51168, Note_on_c, 1, 62, 61
1, 51168, Note_on_c, 1, 58, 61
1, 51168, Note_on_c, 1, 53, 61
1, 51204, Note_on_c, 0, 68, 75
1, 51216, Note_on_c, 0, 68, 0
1, 51216, Note_on_c, 0, 70, 75
1, 51222, Note_on_c, 0, 70, 0
1, 51222, Note_on_c, 0, 68, 75
1, 51228, Note_on_c, 0, 68, 0
1, 51228, Note_on_c, 0, 67, 75
1, 51234, Note_on_c, 0, 67, 0
1, 51234, Note_on_c, 0, 68, 75
1, 51257, Note_on_c, 1, 62, 0
1, 51257, Note_on_c, 1, 58, 0
1, 51257, Note_on_c, 1, 53, 0
1, 51263, Note_on_c, 0, 68, 0
1, 51264, Note_on_c, 0, 67, 75
1, 51264, Note_on_c, 1, 51, 61
1, 51287, Note_on_c, 1, 51, 0
1, 51288, Note_on_c, 1, 63, 61
1, 51311, Note_on_c, 1, 63, 0
1, 51312, Note_on_c, 1, 58, 61
1, 51331, Note_on_c, 0, 67, 0
1, 51335, Note_on_c, 1, 58, 0
1, 51336, Note_on_c, 0, 68, 75
1, 51336, Note_on_c, 1, 63, 61
1, 51359, Note_on_c, 0, 68, 0
1, 51359, Note_on_c, 1, 63, 0
1, 51360, Note_on_c, 0, 70, 75
1, 51360, Note_on_c, 1, 53, 61
1, 51370, Note_on_c, 0, 70, 0
1, 51370, Note_on_c, 0, 68, 75
1, 51380, Note_on_c, 0, 68, 0
1, 51380, Note_on_c, 0, 70, 75
1, 51383, Note_on_c, 1, 53, 0
1, 51384, Note_on_c, 1, 63, 61
1, 51390, Note_on_c, 0, 70, 0
1, 51390, Note_on_c, 0, 68, 75
1, 51400, Note_on_c, 0, 68, 0
1, 51400, Note_on_c, 0, 70, 75
1, 51407, Note_on_c, 1, 63, 0
1, 51408, Note_on_c, 1, 58, 61
1, 51410, Note_on_c, 0, 70, 0
1, 51410, Note_on_c, 0, 68, 75
1, 51420, Note_on_c, 0, 68, 0
1, 51420, Note_on_c, 0, 70, 75
1, 51429, Note_on_c, 0, 70, 0
1, 51429, Note_on_c, 0, 68, 75
1, 51431, Note_on_c, 1, 58, 0
1, 51432, Note_on_c, 1, 63, 61
1, 51438, Note_on_c, 0, 68, 0
1, 51438, Note_on_c, 0, 67, 75
1, 51447, Note_on_c, 0, 67, 0
1, 51447, Note_on_c, 0, 68, 75
1, 51455, Note_on_c, 1, 63, 0
1, 51456, Note_on_c, 0, 68, 0
1, 51456, Note_on_c, 0, 70, 75
1, 51456, Note_on_c, 1, 55, 61
1, 51476, Note_on_c, 0, 70, 0
1, 51479, Note_on_c, 1, 55, 0
1, 51480, Note_on_c, 1, 63, 61
1, 51503, Note_on_c, 1, 63, 0
1, 51504, Note_on_c, 0, 75, 75
1, 51504, Note_on_c, 1, 58, 61
1, 51527, Note_on_c, 1, 58, 0
1, 51528, Note_on_c, 1, 63, 61
1, 51551, Note_on_c, 1, 63, 0
1, 51552, Note_on_c, 1, 55, 61
1, 51575, Note_on_c, 1, 55, 0
1, 51576, Note_on_c, 1, 63, 61
1, 51593, Note_on_c, 0, 75, 0
1, 51599, Note_on_c, 1, 63, 0
1, 51600, Note_on_c, 0, 73, 75
1, 51600, Note_on_c, 1, 58, 61
1, 51623, Note_on_c, 1, 58, 0
1, 51624, Note_on_c, 1, 63, 61
1, 51647, Note_on_c, 1, 63, 0
1, 51648, Note_on_c, 1, 56, 61
1, 51671, Note_on_c, 1, 56, 0
1, 51672, Note_on_c, 1, 63, 61
1, 51689, Note_on_c, 0, 73, 0
1, 51695, Note_on_c, 1, 63, 0
1, 51696, Note_on_c, 0, 72, 75
1, 51696, Note_on_c, 1, 60, 61
1, 51719, Note_on_c, 1, 60, 0
1, 51720, Note_on_c, 1, 63, 61
1, 51743, Note_on_c, 1, 63, 0
1, 51744, Note_on_c, 1, 56, 61
1, 51767, Note_on_c, 1, 56, 0
1, 51768, Note_on_c, 1, 63, 61
1, 51785, Note_on_c, 0, 72, 0
1, 51791, Note_on_c, 1, 63, 0
1, 51792, Note_on_c, 0, 71, 75
1, 51792, Note_on_c, 1, 55, 61
1, 51815, Note_on_c, 1, 55, 0
1, 51816, Note_on_c, 1, 63, 61
1, 51837, Note_on_c, 0, 71, 0
1, 51839, Note_on_c, 1, 63, 0
1, 51840, Note_on_c, 0, 72, 75
1, 51840, Note_on_c, 1, 56, 61
1, 51863, Note_on_c, 1, 56, 0
1, 51864, Note_on_c, 1, 63, 61
1, 51887, Note_on_c, 1, 63, 0
1, 51888, Note_on_c, 0, 72, 0
1, 51888, Note_on_c, 0, 71, 75
1, 51888, Note_on_c, 1, 55, 61
1, 51911, Note_on_c, 1, 55, 0
1, 51912, Note_on_c, 1, 63, 61
1, 51933, Note_on_c, 0, 71, 0
1, 51935, Note_on_c, 1, 63, 0
1, 51936, Note_on_c, 0, 72, 76
1, 51936, Note_on_c, 1, 56, 61
1, 51959, Note_on_c, 1, 56, 0
1, 51960, Note_on_c, 1, 63, 61
1, 51983, Note_on_c, 1, 63, 0
1, 51984, Note_on_c, 0, 72, 0
1, 51984, Note_on_c, 0, 71, 77
1, 51984, Note_on_c, 1, 55, 61
1, 52007, Note_on_c, 1, 55, 0
1, 52008, Note_on_c, 1, 63, 61
1, 52029, Note_on_c, 0, 71, 0
1, 52031, Note_on_c, 1, 63, 0
1, 52032, Note_on_c, 0, 72, 78
1, 52032, Note_on_c, 1, 56, 61
1, 52055, Note_on_c, 1, 56, 0
1, 52056, Note_on_c, 1, 63, 61
1, 52077, Note_on_c, 0, 72, 0
1, 52079, Note_on_c, 1, 63, 0
1, 52080, Note_on_c, 0, 84, 79
1, 52080, Note_on_c, 1, 60, 61
1, 52103, Note_on_c, 1, 60, 0
1, 52104, Note_on_c, 1, 63, 61
1, 52125, Note_on_c, 0, 84, 0
1, 52127, Note_on_c, 1, 63, 0
1, 52128, Note_on_c, 0, 84, 80
1, 52128, Note_on_c, 1, 56, 61
1, 52151, Note_on_c, 1, 56, 0
1, 52152, Note_on_c, 1, 64, 61
1, 52173, Note_on_c, 0, 84, 0
1, 52175, Note_on_c, 1, 64, 0
1, 52176, Note_on_c, 0, 84, 81
1, 52176, Note_on_c, 1, 60, 61
1, 52199, Note_on_c, 1, 60, 0
1, 52200, Note_on_c, 1, 64, 61
1, 52221, Note_on_c, 0, 84, 0
1, 52223, Note_on_c, 1, 64, 0
1, 52224, Note_on_c, 0, 84, 82
1, 52224, Note_on_c, 1, 56, 61
1, 52247, Note_on_c, 1, 56, 0
1, 52248, Note_on_c, 1, 65, 61
1, 52271, Note_on_c, 1, 65, 0
1, 52272, Note_on_c, 1, 60, 61
1, 52295, Note_on_c, 1, 60, 0
1, 52296, Note_on_c, 1, 65, 61
1, 52313, Note_on_c, 0, 84, 0
1, 52319, Note_on_c, 1, 65, 0
1, 52320, Note_on_c, 0, 82, 84
1, 52320, Note_on_c, 1, 56, 61
1, 52343, Note_on_c, 0, 82, 0
1, 52343, Note_on_c, 1, 56, 0
1, 52344, Note_on_c, 0, 80, 84
1, 52344, Note_on_c, 1, 65, 61
1, 52367, Note_on_c, 0, 80, 0
1, 52367, Note_on_c, 1, 65, 0
1, 52368, Note_on_c, 0, 79, 84
1, 52368, Note_on_c, 1, 60, 61
1, 52391, Note_on_c, 0, 79, 0
1, 52391, Note_on_c, 1, 60, 0
1, 52392, Note_on_c, 0, 77, 84
1, 52392, Note_on_c, 1, 65, 61
1, 52415, Note_on_c, 0, 77, 0
1, 52415, Note_on_c, 1, 65, 0
1, 52416, Note_on_c, 0, 75, 84
1, 52416, Note_on_c, 1, 58, 61
1, 52439, Note_on_c, 1, 58, 0
1, 52440, Note_on_c, 1, 67, 61
1, 52463, Note_on_c, 1, 67, 0
1, 52464, Note_on_c, 1, 63, 61
1, 52487, Note_on_c, 1, 63, 0
1, 52488, Note_on_c, 1, 67, 61
1, 52505, Note_on_c, 0, 75, 0
1, 52511, Note_on_c, 1, 67, 0
1, 52512, Note_on_c, 0, 75, 84
1, 52512, Note_on_c, 1, 58, 61
1, 52524, Note_on_c, 0, 75, 0
1, 52524, Note_on_c, 0, 74, 84
1, 52535, Note_on_c, 1, 58, 0
1, 52536, Note_on_c, 0, 74, 0
1, 52536, Note_on_c, 0, 75, 84
1, 52536, Note_on_c, 1, 67, 61
1, 52548, Note_on_c, 0, 75, 0
1, 52548, Note_on_c, 0, 77, 84
1, 52559, Note_on_c, 1, 67, 0
1, 52560, Note_on_c, 0, 77, 0
1, 52560, Note_on_c, 0, 79, 84
1, 52560, Note_on_c, 1, 63, 61
1, 52572, Note_on_c, 0, 79, 0
1, 52572, Note_on_c, 0, 77, 84
1, 52583, Note_on_c, 1, 63, 0
1, 52584, Note_on_c, 0, 77, 0
1, 52584, Note_on_c, 0, 79, 84
1, 52584, Note_on_c, 1, 67, 61
1, 52596, Note_on_c, 0, 79, 0
1, 52596, Note_on_c, 0, 80, 84
1, 52607, Note_on_c, 1, 67, 0
1, 52608, Note_on_c, 0, 80, 0
1, 52608, Note_on_c, 0, 82, 100
1, 52608, Note_on_c, 1, 58, 61
1, 52631, Note_on_c, 1, 58, 0
1, 52632, Note_on_c, 1, 67, 61
1, 52655, Note_on_c, 1, 67, 0
1, 52656, Note_on_c, 1, 63, 61
1, 52679, Note_on_c, 1, 63, 0
1, 52680, Note_on_c, 1, 67, 61
1, 52703, Note_on_c, 1, 67, 0
1, 52704, Note_on_c, 1, 58, 61
1, 52727, Note_on_c, 0, 82, 0
1, 52727, Note_on_c, 1, 58, 0
1, 52728, Note_on_c, 0, 80, 84
1, 52728, Note_on_c, 1, 67, 61
1, 52740, Note_on_c, 0, 80, 0
1, 52740, Note_on_c, 0, 79, 84
1, 52751, Note_on_c, 1, 67, 0
1, 52752, Note_on_c, 0, 79, 0
1, 52752, Note_on_c, 0, 77, 84
1, 52752, Note_on_c, 1, 63, 61
1, 52764, Note_on_c, 0, 77, 0
1, 52764, Note_on_c, 0, 75, 84
1, 52775, Note_on_c, 1, 63, 0
1, 52776, Note_on_c, 0, 75, 0
1, 52776, Note_on_c, 0, 74, 84
1, 52776, Note_on_c, 1, 67, 61
1, 52788, Note_on_c, 0, 74, 0
1, 52788, Note_on_c, 0, 72, 84
1, 52799, Note_on_c, 1, 67, 0
1, 52800, Note_on_c, 0, 72, 0
1, 52800, Note_on_c, 0, 70, 84
1, 52800, Note_on_c, 1, 58, 61
1, 52823, Note_on_c, 1, 58, 0
1, 52824, Note_on_c, 1, 67, 61
1, 52847, Note_on_c, 1, 67, 0
1, 52848, Note_on_c, 1, 63, 61
1, 52871, Note_on_c, 1, 63, 0
1, 52872, Note_on_c, 1, 67, 61
1, 52895, Note_on_c, 1, 67, 0
1, 52896, Note_on_c, 1, 58, 61
1, 52919, Note_on_c, 1, 58, 0
1, 52920, Note_on_c, 1, 67, 61
1, 52943, Note_on_c, 1, 67, 0
1, 52944, Note_on_c, 1, 63, 61
1, 52963, Note_on_c, 0, 70, 0
1, 52967, Note_on_c, 1, 63, 0
1, 52968, Note_on_c, 0, 75, 84
1, 52968, Note_on_c, 1, 67, 61
1, 52980, Note_on_c, 0, 75, 0
1, 52980, Note_on_c, 0, 77, 84
1, 52991, Note_on_c, 1, 67, 0
1, 52992, Note_on_c, 0, 77, 0
1, 52992, Note_on_c, 0, 79, 84
1, 52992, Note_on_c, 1, 58, 61
1, 53003, Note_on_c, 0, 79, 0
1, 53003, Note_on_c, 0, 77, 84
1, 53014, Note_on_c, 0, 77, 0
1, 53014, Note_on_c, 0, 79, 84
1, 53015, Note_on_c, 1, 58, 0
1, 53016, Note_on_c, 1, 68, 61
1, 53025, Note_on_c, 0, 79, 0
1, 53025, Note_on_c, 0, 77, 84
1, 53036, Note_on_c, 0, 77, 0
1, 53036, Note_on_c, 0, 79, 84
1, 53039, Note_on_c, 1, 68, 0
1, 53040, Note_on_c, 1, 65, 61
1, 53047, Note_on_c, 0, 79, 0
1, 53047, Note_on_c, 0, 77, 84
1, 53058, Note_on_c, 0, 77, 0
1, 53058, Note_on_c, 0, 79, 84
1, 53063, Note_on_c, 1, 65, 0
1, 53064, Note_on_c, 1, 68, 61
1, 53069, Note_on_c, 0, 79, 0
1, 53069, Note_on_c, 0, 77, 84
1, 53080, Note_on_c, 0, 77, 0
1, 53080, Note_on_c, 0, 79, 84
1, 53087, Note_on_c, 1, 68, 0
1, 53088, Note_on_c, 1, 58, 61
1, 53091, Note_on_c, 0, 79, 0
1, 53091, Note_on_c, 0, 77, 84
1, 53102, Note_on_c, 0, 77, 0
1, 53102, Note_on_c, 0, 79, 84
1, 53111, Note_on_c, 1, 58, 0
1, 53112, Note_on_c, 1, 68, 61
1, 53113, Note_on_c, 0, 79, 0
1, 53113, Note_on_c, 0, 77, 84
1, 53124, Note_on_c, 0, 77, 0
1, 53124, Note_on_c, 0, 79, 84
1, 53134, Note_on_c, 0, 79, 0
1, 53134, Note_on_c, 0, 77, 84
1, 53135, Note_on_c, 1, 68, 0
1, 53136, Note_on_c, 1, 65, 61
1, 53144, Note_on_c, 0, 77, 0
1, 53144, Note_on_c, 0, 75, 84
1, 53159, Note_on_c, 1, 65, 0
1, 53160, Note_on_c, 1, 68, 61
1, 53164, Note_on_c, 0, 75, 0
1, 53164, Note_on_c, 0, 77, 84
1, 53183, Note_on_c, 1, 68, 0
1, 53184, Note_on_c, 0, 77, 0
1, 53184, Note_on_c, 0, 75, 84
1, 53184, Note_on_c, 1, 67, 61
1, 53184, Note_on_c, 1, 63, 61
1, 53273, Note_on_c, 0, 75, 0
1, 53273, Note_on_c, 1, 67, 0
1, 53273, Note_on_c, 1, 63, 0
1, 53280, Note_on_c, 1, 63, 75
1, 53280, Note_on_c, 1, 55, 75
1, 53304, Note_on_c, 0, 70, 75
1, 53314, Note_on_c, 0, 70, 0
1, 53328, Note_on_c, 0, 72, 75
1, 53340, Note_on_c, 0, 72, 0
1, 53340, Note_on_c, 0, 70, 75
1, 53352, Note_on_c, 0, 70, 0
1, 53352, Note_on_c, 0, 69, 75
1, 53364, Note_on_c, 0, 69, 0
1, 53364, Note_on_c, 0, 70, 75
1, 53369, Note_on_c, 1, 63, 0
1, 53369, Note_on_c, 1, 55, 0
1, 53376, Note_on_c, 0, 70, 0
1, 53376, Note_on_c, 1, 63, 75
1, 53376, Note_on_c, 1, 56, 75
1, 53400, Note_on_c, 0, 72, 75
1, 53410, Note_on_c, 0, 72, 0
1, 53424, Note_on_c, 0, 74, 75
1, 53436, Note_on_c, 0, 74, 0
1, 53436, Note_on_c, 0, 72, 75
1, 53448, Note_on_c, 0, 72, 0
1, 53448, Note_on_c, 0, 71, 75
1, 53460, Note_on_c, 0, 71, 0
1, 53460, Note_on_c, 0, 72, 75
1, 53465, Note_on_c, 1, 63, 0
1, 53465, Note_on_c, 1, 56, 0
1, 53472, Note_on_c, 0, 72, 0
1, 53472, Note_on_c, 1, 62, 75
1, 53472, Note_on_c, 1, 58, 75
1, 53496, Note_on_c, 0, 74, 75
1, 53519, Note_on_c, 0, 74, 0
1, 53520, Note_on_c, 0, 77, 75
1, 53543, Note_on_c, 0, 77, 0
1, 53544, Note_on_c, 0, 80, 75
1, 53561, Note_on_c, 1, 62, 0
1, 53561, Note_on_c, 1, 58, 0
1, 53567, Note_on_c, 0, 80, 0
1, 53568, Note_on_c, 0, 80, 75
1, 53568, Note_on_c, 1, 63, 75
1, 53568, Note_on_c, 1, 51, 75
1, 53591, Note_on_c, 0, 80, 0
1, 53592, Note_on_c, 0, 79, 75
1, 53615, Note_on_c, 0, 79, 0
1, 53616, Note_on_c, 0, 77, 75
1, 53639, Note_on_c, 0, 77, 0
1, 53640, Note_on_c, 0, 75, 75
1, 53657, Note_on_c, 1, 63, 0
1, 53657, Note_on_c, 1, 51, 0
1, 53663, Note_on_c, 0, 75, 0
1, 53664, Note_on_c, 1, 63, 75
1, 53664, Note_on_c, 1, 55, 75
1, 53688, Note_on_c, 0, 70, 75
1, 53698, Note_on_c, 0, 70, 0
1, 53712, Note_on_c, 0, 72, 75
1, 53724, Note_on_c, 0, 72, 0
1, 53724, Note_on_c, 0, 70, 75
1, 53736, Note_on_c, 0, 70, 0
1, 53736, Note_on_c, 0, 69, 75
1, 53748, Note_on_c, 0, 69, 0
1, 53748, Note_on_c, 0, 70, 75
1, 53753, Note_on_c, 1, 63, 0
1, 53753, Note_on_c, 1, 55, 0
1, 53760, Note_on_c, 0, 70, 0
1, 53760, Note_on_c, 1, 63, 75
1, 53760, Note_on_c, 1, 56, 75
1, 53784, Note_on_c, 0, 72, 75
1, 53794, Note_on_c, 0, 72, 0
1, 53808, Note_on_c, 0, 74, 75
1, 53820, Note_on_c, 0, 74, 0
1, 53820, Note_on_c, 0, 72, 75
1, 53832, Note_on_c, 0, 72, 0
1, 53832, Note_on_c, 0, 71, 75
1, 53844, Note_on_c, 0, 71, 0
1, 53844, Note_on_c, 0, 72, 75
1, 53849, Note_on_c, 1, 63, 0
1, 53849, Note_on_c, 1, 56, 0
1, 53856, Note_on_c, 0, 72, 0
1, 53856, Note_on_c, 1, 58, 75
1, 53856, Note_on_c, 1, 46, 75
1, 53880, Note_on_c, 0, 68, 75
1, 53903, Note_on_c, 0, 68, 0
1, 53904, Note_on_c, 0, 65, 75
1, 53927, Note_on_c, 0, 65, 0
1, 53928, Note_on_c, 0, 62, 75
1, 53938, Note_on_c, 0, 62, 0
1, 53945, Note_on_c, 1, 58, 0
1, 53945, Note_on_c, 1, 46, 0
1, 53952, Note_on_c, 0, 65, 75
1, 53952, Note_on_c, 1, 55, 75
1, 53952, Note_on_c, 1, 51, 75
1, 53964, Note_on_c, 0, 65, 0
1, 53964, Note_on_c, 0, 63, 75
1, 53976, Note_on_c, 0, 63, 0
1, 53976, Note_on_c, 0, 62, 75
1, 53988, Note_on_c, 0, 62, 0
1, 53988, Note_on_c, 0, 63, 75
1, 54000, Note_on_c, 0, 63, 0
1, 54000, Note_on_c, 0, 63, 75
1, 54030, Note_on_c, 0, 63, 0
1, 54046, Note_on_c, 1, 55, 0
1, 54046, Note_on_c, 1, 51, 0
1, 54096, Note_on_c, 0, 70, 75
1, 54116, Note_on_c, 0, 70, 0
1, 54144, Note_on_c, 0, 73, 75
1, 54144, Note_on_c, 1, 58, 61
1, 54167, Note_on_c, 1, 58, 0
1, 54168, Note_on_c, 1, 65, 61
1, 54191, Note_on_c, 1, 65, 0
1, 54192, Note_on_c, 1, 61, 61
1, 54215, Note_on_c, 1, 61, 0
1, 54216, Note_on_c, 1, 65, 61
1, 54239, Note_on_c, 1, 65, 0
1, 54240, Note_on_c, 1, 58, 61
1, 54263, Note_on_c, 1, 58, 0
1, 54264, Note_on_c, 1, 65, 61
1, 54274, Note_on_c, 0, 73, 0
1, 54276, Note_on_c, 0, 70, 91
1, 54287, Note_on_c, 1, 65, 0
1, 54288, Note_on_c, 0, 70, 0
1, 54288, Note_on_c, 0, 72, 75
1, 54288, Note_on_c, 1, 61, 61
1, 54296, Note_on_c, 0, 72, 0
1, 54296, Note_on_c, 0, 70, 75
1, 54304, Note_on_c, 0, 70, 0
1, 54304, Note_on_c, 0, 72, 75
1, 54311, Note_on_c, 1, 61, 0
1, 54312, Note_on_c, 0, 72, 0
1, 54312, Note_on_c, 0, 70, 75
1, 54312, Note_on_c, 1, 65, 61
1, 54320, Note_on_c, 0, 70, 0
1, 54320, Note_on_c, 0, 68, 75
1, 54328, Note_on_c, 0, 68, 0
1, 54328, Note_on_c, 0, 70, 75
1, 54335, Note_on_c, 1, 65, 0
1, 54336, Note_on_c, 0, 70, 0
1, 54336, Note_on_c, 0, 77, 75
1, 54336, Note_on_c, 1, 58, 61
1, 54359, Note_on_c, 1, 58, 0
1, 54360, Note_on_c, 1, 65, 61
1, 54383, Note_on_c, 1, 65, 0
1, 54384, Note_on_c, 1, 61, 61
1, 54407, Note_on_c, 1, 61, 0
1, 54408, Note_on_c, 1, 65, 61
1, 54431, Note_on_c, 1, 65, 0
1, 54432, Note_on_c, 1, 58, 61
1, 54455, Note_on_c, 1, 58, 0
1, 54456, Note_on_c, 1, 65, 61
1, 54466, Note_on_c, 0, 77, 0
1, 54468, Note_on_c, 0, 73, 91
1, 54479, Note_on_c, 1, 65, 0
1, 54480, Note_on_c, 0, 73, 0
1, 54480, Note_on_c, 0, 75, 75
1, 54480, Note_on_c, 1, 61, 61
1, 54488, Note_on_c, 0, 75, 0
1, 54488, Note_on_c, 0, 73, 75
1, 54496, Note_on_c, 0, 73, 0
1, 54496, Note_on_c, 0, 75, 75
1, 54503, Note_on_c, 1, 61, 0
1, 54504, Note_on_c, 0, 75, 0
1, 54504, Note_on_c, 0, 73, 75
1, 54504, Note_on_c, 1, 65, 61
1, 54512, Note_on_c, 0, 73, 0
1, 54512, Note_on_c, 0, 72, 75
1, 54520, Note_on_c, 0, 72, 0
1, 54520, Note_on_c, 0, 73, 75
1, 54527, Note_on_c, 1, 65, 0
1, 54528, Note_on_c, 0, 73, 0
1, 54528, Note_on_c, 0, 82, 75
1, 54528, Note_on_c, 1, 58, 61
1, 54551, Note_on_c, 1, 58, 0
1, 54552, Note_on_c, 1, 67, 61
1, 54575, Note_on_c, 1, 67, 0
1, 54576, Note_on_c, 1, 61, 61
1, 54599, Note_on_c, 1, 61, 0
1, 54600, Note_on_c, 1, 67, 61
1, 54623, Note_on_c, 1, 67, 0
1, 54624, Note_on_c, 1, 58, 61
1, 54647, Note_on_c, 0, 82, 0
1, 54647, Note_on_c, 1, 58, 0
1, 54648, Note_on_c, 0, 80, 75
1, 54648, Note_on_c, 1, 67, 61
1, 54671, Note_on_c, 0, 80, 0
1, 54671, Note_on_c, 1, 67, 0
1, 54672, Note_on_c, 0, 79, 75
1, 54672, Note_on_c, 1, 61, 61
1, 54695, Note_on_c, 0, 79, 0
1, 54695, Note_on_c, 1, 61, 0
1, 54696, Note_on_c, 0, 77, 75
1, 54696, Note_on_c, 1, 67, 61
1, 54719, Note_on_c, 0, 77, 0
1, 54719, Note_on_c, 1, 67, 0
1, 54720, Note_on_c, 0, 77, 75
1, 54720, Note_on_c, 1, 58, 61
1, 54743, Note_on_c, 1, 58, 0
1, 54744, Note_on_c, 1, 67, 61
1, 54767, Note_on_c, 1, 67, 0
1, 54768, Note_on_c, 1, 60, 61
1, 54791, Note_on_c, 1, 60, 0
1, 54792, Note_on_c, 1, 67, 61
1, 54815, Note_on_c, 1, 67, 0
1, 54816, Note_on_c, 0, 77, 0
1, 54816, Note_on_c, 0, 76, 75
1, 54816, Note_on_c, 1, 58, 61
1, 54839, Note_on_c, 1, 58, 0
1, 54840, Note_on_c, 1, 67, 61
1, 54850, Note_on_c, 0, 76, 0
1, 54852, Note_on_c, 0, 72, 91
1, 54863, Note_on_c, 1, 67, 0
1, 54864, Note_on_c, 0, 72, 0
1, 54864, Note_on_c, 0, 73, 75
1, 54864, Note_on_c, 1, 64, 61
1, 54872, Note_on_c, 0, 73, 0
1, 54872, Note_on_c, 0, 72, 75
1, 54880, Note_on_c, 0, 72, 0
1, 54880, Note_on_c, 0, 73, 75
1, 54887, Note_on_c, 1, 64, 0
1, 54888, Note_on_c, 0, 73, 0
1, 54888, Note_on_c, 0, 72, 75
1, 54888, Note_on_c, 1, 67, 61
1, 54896, Note_on_c, 0, 72, 0
1, 54896, Note_on_c, 0, 70, 75
1, 54904, Note_on_c, 0, 70, 0
1, 54904, Note_on_c, 0, 72, 75
1, 54911, Note_on_c, 1, 67, 0
1, 54912, Note_on_c, 0, 72, 0
1, 54912, Note_on_c, 0, 77, 75
1, 54912, Note_on_c, 1, 56, 61
1, 54935, Note_on_c, 1, 56, 0
1, 54936, Note_on_c, 1, 65, 61
1, 54959, Note_on_c, 1, 65, 0
1, 54960, Note_on_c, 1, 60, 61
1, 54983, Note_on_c, 1, 60, 0
1, 54984, Note_on_c, 1, 65, 61
1, 55007, Note_on_c, 1, 65, 0
1, 55008, Note_on_c, 1, 56, 61
1, 55031, Note_on_c, 1, 56, 0
1, 55032, Note_on_c, 1, 65, 61
1, 55042, Note_on_c, 0, 77, 0
1, 55044, Note_on_c, 0, 72, 91
1, 55055, Note_on_c, 1, 65, 0
1, 55056, Note_on_c, 0, 72, 0
1, 55056, Note_on_c, 0, 73, 75
1, 55056, Note_on_c, 1, 60, 61
1, 55064, Note_on_c, 0, 73, 0
1, 55064, Note_on_c, 0, 72, 75
1, 55072, Note_on_c, 0, 72, 0
1, 55072, Note_on_c, 0, 73, 75
1, 55079, Note_on_c, 1, 60, 0
1, 55080, Note_on_c, 0, 73, 0
1, 55080, Note_on_c, 0, 72, 75
1, 55080, Note_on_c, 1, 65, 61
1, 55088, Note_on_c, 0, 72, 0
1, 55088, Note_on_c, 0, 70, 75
1, 55096, Note_on_c, 0, 70, 0
1, 55096, Note_on_c, 0, 72, 75
1, 55103, Note_on_c, 1, 65, 0
1, 55104, Note_on_c, 0, 72, 0
1, 55104, Note_on_c, 0, 80, 75
1, 55104, Note_on_c, 1, 56, 61
1, 55127, Note_on_c, 1, 56, 0
1, 55128, Note_on_c, 1, 65, 61
1, 55151, Note_on_c, 1, 65, 0
1, 55152, Note_on_c, 1, 60, 61
1, 55175, Note_on_c, 1, 60, 0
1, 55176, Note_on_c, 1, 65, 61
1, 55199, Note_on_c, 1, 65, 0
1, 55200, Note_on_c, 1, 56, 61
1, 55223, Note_on_c, 1, 56, 0
1, 55224, Note_on_c, 1, 65, 61
1, 55234, Note_on_c, 0, 80, 0
1, 55236, Note_on_c, 0, 77, 91
1, 55247, Note_on_c, 1, 65, 0
1, 55248, Note_on_c, 0, 77, 0
1, 55248, Note_on_c, 0, 79, 75
1, 55248, Note_on_c, 1, 60, 61
1, 55256, Note_on_c, 0, 79, 0
1, 55256, Note_on_c, 0, 77, 75
1, 55264, Note_on_c, 0, 77, 0
1, 55264, Note_on_c, 0, 79, 75
1, 55271, Note_on_c, 1, 60, 0
1, 55272, Note_on_c, 0, 79, 0
1, 55272, Note_on_c, 0, 77, 75
1, 55272, Note_on_c, 1, 65, 61
1, 55280, Note_on_c, 0, 77, 0
1, 55280, Note_on_c, 0, 75, 75
1, 55288, Note_on_c, 0, 75, 0
1, 55288, Note_on_c, 0, 77, 75
1, 55295, Note_on_c, 1, 65, 0
1, 55296, Note_on_c, 0, 77, 0
1, 55296, Note_on_c, 0, 84, 75
1, 55296, Note_on_c, 1, 56, 61
1, 55319, Note_on_c, 1, 56, 0
1, 55320, Note_on_c, 1, 65, 61
1, 55343, Note_on_c, 1, 65, 0
1, 55344, Note_on_c, 1, 60, 61
1, 55367, Note_on_c, 1, 60, 0
1, 55368, Note_on_c, 1, 65, 61
1, 55391, Note_on_c, 1, 65, 0
1, 55392, Note_on_c, 1, 56, 61
1, 55415, Note_on_c, 0, 84, 0
1, 55415, Note_on_c, 1, 56, 0
1, 55416, Note_on_c, 0, 82, 75
1, 55416, Note_on_c, 1, 65, 61
1, 55439, Note_on_c, 0, 82, 0
1, 55439, Note_on_c, 1, 65, 0
1, 55440, Note_on_c, 0, 80, 75
1, 55440, Note_on_c, 1, 60, 61
1, 55463, Note_on_c, 0, 80, 0
1, 55463, Note_on_c, 1, 60, 0
1, 55464, Note_on_c, 0, 79, 75
1, 55464, Note_on_c, 1, 65, 61
1, 55487, Note_on_c, 0, 79, 0
1, 55487, Note_on_c, 1, 65, 0
1, 55488, Note_on_c, 0, 79, 75
1, 55488, Note_on_c, 1, 56, 61
1, 55511, Note_on_c, 1, 56, 0
1, 55512, Note_on_c, 1, 63, 61
1, 55535, Note_on_c, 1, 63, 0
1, 55536, Note_on_c, 1, 60, 61
1, 55559, Note_on_c, 1, 60, 0
1, 55560, Note_on_c, 1, 63, 61
1, 55583, Note_on_c, 1, 63, 0
1, 55584, Note_on_c, 0, 79, 0
1, 55584, Note_on_c, 0, 78, 75
1, 55584, Note_on_c, 1, 56, 61
1, 55607, Note_on_c, 1, 56, 0
1, 55608, Note_on_c, 1, 63, 61
1, 55618, Note_on_c, 0, 78, 0
1, 55620, Note_on_c, 0, 72, 91
1, 55631, Note_on_c, 1, 63, 0
1, 55632, Note_on_c, 0, 72, 0
1, 55632, Note_on_c, 0, 74, 75
1, 55632, Note_on_c, 1, 60, 61
1, 55640, Note_on_c, 0, 74, 0
1, 55640, Note_on_c, 0, 72, 75
1, 55648, Note_on_c, 0, 72, 0
1, 55648, Note_on_c, 0, 74, 75
1, 55655, Note_on_c, 1, 60, 0
1, 55656, Note_on_c, 0, 74, 0
1, 55656, Note_on_c, 0, 72, 75
1, 55656, Note_on_c, 1, 63, 61
1, 55664, Note_on_c, 0, 72, 0
1, 55664, Note_on_c, 0, 71, 75
1, 55672, Note_on_c, 0, 71, 0
1, 55672, Note_on_c, 0, 72, 75
1, 55679, Note_on_c, 1, 63, 0
1, 55680, Note_on_c, 0, 72, 0
1, 55680, Note_on_c, 0, 75, 75
1, 55680, Note_on_c, 1, 55, 61
1, 55703, Note_on_c, 1, 55, 0
1, 55704, Note_on_c, 1, 63, 61
1, 55727, Note_on_c, 1, 63, 0
1, 55728, Note_on_c, 1, 60, 61
1, 55751, Note_on_c, 1, 60, 0
1, 55752, Note_on_c, 1, 63, 61
1, 55775, Note_on_c, 1, 63, 0
1, 55776, Note_on_c, 1, 55, 61
1, 55799, Note_on_c, 1, 55, 0
1, 55800, Note_on_c, 1, 63, 61
1, 55810, Note_on_c, 0, 75, 0
1, 55812, Note_on_c, 0, 72, 91
1, 55823, Note_on_c, 1, 63, 0
1, 55824, Note_on_c, 0, 72, 0
1, 55824, Note_on_c, 0, 74, 75
1, 55824, Note_on_c, 1, 60, 61
1, 55832, Note_on_c, 0, 74, 0
1, 55832, Note_on_c, 0, 72, 75
1, 55840, Note_on_c, 0, 72, 0
1, 55840, Note_on_c, 0, 74, 75
1, 55847, Note_on_c, 1, 60, 0
1, 55848, Note_on_c, 0, 74, 0
1, 55848, Note_on_c, 0, 72, 75
1, 55848, Note_on_c, 1, 63, 61
1, 55856, Note_on_c, 0, 72, 0
1, 55856, Note_on_c, 0, 70, 75
1, 55864, Note_on_c, 0, 70, 0
1, 55864, Note_on_c, 0, 72, 75
1, 55871, Note_on_c, 1, 63, 0
1, 55872, Note_on_c, 0, 72, 0
1, 55872, Note_on_c, 0, 79, 75
1, 55872, Note_on_c, 1, 55, 61
1, 55895, Note_on_c, 1, 55, 0
1, 55896, Note_on_c, 1, 63, 61
1, 55919, Note_on_c, 1, 63, 0
1, 55920, Note_on_c, 1, 60, 61
1, 55943, Note_on_c, 1, 60, 0
1, 55944, Note_on_c, 1, 63, 61
1, 55967, Note_on_c, 1, 63, 0
1, 55968, Note_on_c, 1, 55, 61
1, 55991, Note_on_c, 1, 55, 0
1, 55992, Note_on_c, 1, 63, 61
1, 56002, Note_on_c, 0, 79, 0
1, 56004, Note_on_c, 0, 72, 91
1, 56015, Note_on_c, 1, 63, 0
1, 56016, Note_on_c, 0, 72, 0
1, 56016, Note_on_c, 0, 74, 75
1, 56016, Note_on_c, 1, 60, 61
1, 56024, Note_on_c, 0, 74, 0
1, 56024, Note_on_c, 0, 72, 75
1, 56032, Note_on_c, 0, 72, 0
1, 56032, Note_on_c, 0, 74, 75
1, 56039, Note_on_c, 1, 60, 0
1, 56040, Note_on_c, 0, 74, 0
1, 56040, Note_on_c, 0, 72, 75
1, 56040, Note_on_c, 1, 63, 61
1, 56048, Note_on_c, 0, 72, 0
1, 56048, Note_on_c, 0, 70, 75
1, 56056, Note_on_c, 0, 70, 0
1, 56056, Note_on_c, 0, 72, 75
1, 56063, Note_on_c, 1, 63, 0
1, 56064, Note_on_c, 0, 72, 0
1, 56064, Note_on_c, 0, 71, 75
1, 56064, Note_on_c, 1, 55, 61
1, 56087, Note_on_c, 1, 55, 0
1, 56088, Note_on_c, 1, 62, 61
1, 56111, Note_on_c, 1, 62, 0
1, 56112, Note_on_c, 1, 59, 61
1, 56135, Note_on_c, 1, 59, 0
1, 56136, Note_on_c, 1, 62, 61
1, 56153, Note_on_c, 0, 71, 0
1, 56159, Note_on_c, 1, 62, 0
1, 56160, Note_on_c, 1, 59, 61
1, 56183, Note_on_c, 1, 59, 0
1, 56184, Note_on_c, 0, 77, 75
1, 56184, Note_on_c, 1, 67, 61
1, 56194, Note_on_c, 0, 77, 0
1, 56207, Note_on_c, 1, 67, 0
1, 56208, Note_on_c, 0, 79, 75
1, 56208, Note_on_c, 1, 62, 61
1, 56220, Note_on_c, 0, 79, 0
1, 56220, Note_on_c, 0, 77, 75
1, 56231, Note_on_c, 1, 62, 0
1, 56232, Note_on_c, 0, 77, 0
1, 56232, Note_on_c, 0, 75, 75
1, 56232, Note_on_c, 1, 67, 61
1, 56244, Note_on_c, 0, 75, 0
1, 56244, Note_on_c, 0, 77, 75
1, 56255, Note_on_c, 1, 67, 0
1, 56256, Note_on_c, 0, 77, 0
1, 56256, Note_on_c, 0, 77, 75
1, 56256, Note_on_c, 1, 60, 61
1, 56279, Note_on_c, 1, 60, 0
1, 56280, Note_on_c, 0, 77, 0
1, 56280, Note_on_c, 0, 75, 75
1, 56280, Note_on_c, 1, 67, 61
1, 56303, Note_on_c, 0, 75, 0
1, 56303, Note_on_c, 1, 67, 0
1, 56304, Note_on_c, 0, 79, 75
1, 56304, Note_on_c, 1, 63, 61
1, 56327, Note_on_c, 1, 63, 0
1, 56328, Note_on_c, 0, 79, 0
1, 56328, Note_on_c, 0, 72, 75
1, 56328, Note_on_c, 1, 67, 61
1, 56351, Note_on_c, 0, 72, 0
1, 56351, Note_on_c, 1, 67, 0
1, 56352, Note_on_c, 0, 72, 75
1, 56352, Note_on_c, 1, 62, 61
1, 56375, Note_on_c, 1, 62, 0
1, 56376, Note_on_c, 0, 72, 0
1, 56376, Note_on_c, 0, 71, 75
1, 56376, Note_on_c, 1, 67, 61
1, 56399, Note_on_c, 0, 71, 0
1, 56399, Note_on_c, 1, 67, 0
1, 56400, Note_on_c, 0, 74, 75
1, 56400, Note_on_c, 1, 65, 61
1, 56423, Note_on_c, 1, 65, 0
1, 56424, Note_on_c, 0, 74, 0
1, 56424, Note_on_c, 0, 71, 75
1, 56424, Note_on_c, 1, 67, 61
1, 56447, Note_on_c, 0, 71, 0
1, 56447, Note_on_c, 1, 67, 0
1, 56448, Note_on_c, 0, 72, 75
1, 56448, Note_on_c, 1, 63, 61
1, 56468, Note_on_c, 0, 72, 0
1, 56471, Note_on_c, 1, 63, 0
1, 56472, Note_on_c, 1, 67, 61
1, 56495, Note_on_c, 1, 67, 0
1, 56496, Note_on_c, 0, 75, 75
1, 56496, Note_on_c, 1, 60, 61
1, 56516, Note_on_c, 0, 75, 0
1, 56519, Note_on_c, 1, 60, 0
1, 56520, Note_on_c, 1, 67, 61
1, 56543, Note_on_c, 1, 67, 0
1, 56544, Note_on_c, 0, 74, 75
1, 56544, Note_on_c, 1, 59, 61
1, 56564, Note_on_c, 0, 74, 0
1, 56567, Note_on_c, 1, 59, 0
1, 56568, Note_on_c, 1, 67, 61
1, 56591, Note_on_c, 1, 67, 0
1, 56592, Note_on_c, 0, 77, 75
1, 56592, Note_on_c, 1, 62, 61
1, 56612, Note_on_c, 0, 77, 0
1, 56615, Note_on_c, 1, 62, 0
1, 56616, Note_on_c, 1, 67, 61
1, 56639, Note_on_c, 1, 67, 0
1, 56640, Note_on_c, 0, 77, 75
1, 56640, Note_on_c, 1, 60, 61
1, 56663, Note_on_c, 1, 60, 0
1, 56664, Note_on_c, 0, 77, 0
1, 56664, Note_on_c, 0, 75, 75
1, 56664, Note_on_c, 1, 67, 61
1, 56687, Note_on_c, 0, 75, 0
1, 56687, Note_on_c, 1, 67, 0
1, 56688, Note_on_c, 0, 79, 75
1, 56688, Note_on_c, 1, 63, 61
1, 56711, Note_on_c, 1, 63, 0
1, 56712, Note_on_c, 0, 79, 0
1, 56712, Note_on_c, 0, 72, 75
1, 56712, Note_on_c, 1, 67, 61
1, 56735, Note_on_c, 0, 72, 0
1, 56735, Note_on_c, 1, 67, 0
1, 56736, Note_on_c, 0, 72, 75
1, 56736, Note_on_c, 1, 62, 61
1, 56759, Note_on_c, 1, 62, 0
1, 56760, Note_on_c, 0, 72, 0
1, 56760, Note_on_c, 0, 71, 75
1, 56760, Note_on_c, 1, 67, 61
1, 56783, Note_on_c, 0, 71, 0
1, 56783, Note_on_c, 1, 67, 0
1, 56784, Note_on_c, 0, 74, 75
1, 56784, Note_on_c, 1, 65, 61
1, 56807, Note_on_c, 1, 65, 0
1, 56808, Note_on_c, 0, 74, 0
1, 56808, Note_on_c, 0, 71, 75
1, 56808, Note_on_c, 1, 67, 61
1, 56831, Note_on_c, 0, 71, 0
1, 56831, Note_on_c, 1, 67, 0
1, 56832, Note_on_c, 0, 72, 75
1, 56832, Note_on_c, 1, 63, 61
1, 56852, Note_on_c, 0, 72, 0
1, 56855, Note_on_c, 1, 63, 0
1, 56856, Note_on_c, 1, 67, 61
1, 56879, Note_on_c, 1, 67, 0
1, 56880, Note_on_c, 0, 75, 75
1, 56880, Note_on_c, 1, 60, 61
1, 56900, Note_on_c, 0, 75, 0
1, 56903, Note_on_c, 1, 60, 0
1, 56904, Note_on_c, 1, 67, 61
1, 56927, Note_on_c, 1, 67, 0
1, 56928, Note_on_c, 0, 74, 75
1, 56928, Note_on_c, 1, 59, 61
1, 56948, Note_on_c, 0, 74, 0
1, 56951, Note_on_c, 1, 59, 0
1, 56952, Note_on_c, 1, 67, 61
1, 56975, Note_on_c, 1, 67, 0
1, 56976, Note_on_c, 0, 77, 75
1, 56976, Note_on_c, 1, 62, 61
1, 56996, Note_on_c, 0, 77, 0
1, 56999, Note_on_c, 1, 62, 0
1, 57000, Note_on_c, 1, 67, 61
1, 57023, Note_on_c, 1, 67, 0
1, 57024, Note_on_c, 0, 75, 75
1, 57024, Note_on_c, 1, 60, 61
1, 57044, Note_on_c, 0, 75, 0
1, 57047, Note_on_c, 1, 60, 0
1, 57048, Note_on_c, 1, 68, 61
1, 57071, Note_on_c, 1, 68, 0
1, 57072, Note_on_c, 0, 84, 75
1, 57072, Note_on_c, 1, 63, 61
1, 57092, Note_on_c, 0, 84, 0
1, 57095, Note_on_c, 1, 63, 0
1, 57096, Note_on_c, 1, 68, 61
1, 57119, Note_on_c, 1, 68, 0
1, 57120, Note_on_c, 0, 82, 75
1, 57120, Note_on_c, 1, 62, 61
1, 57140, Note_on_c, 0, 82, 0
1, 57143, Note_on_c, 1, 62, 0
1, 57144, Note_on_c, 1, 70, 61
1, 57167, Note_on_c, 1, 70, 0
1, 57168, Note_on_c, 0, 80, 75
1, 57168, Note_on_c, 1, 65, 61
1, 57178, Note_on_c, 0, 80, 0
1, 57178, Note_on_c, 0, 82, 75
1, 57188, Note_on_c, 0, 82, 0
1, 57188, Note_on_c, 0, 80, 75
1, 57191, Note_on_c, 1, 65, 0
1, 57192, Note_on_c, 1, 70, 61
1, 57198, Note_on_c, 0, 80, 0
1, 57198, Note_on_c, 0, 79, 75
1, 57207, Note_on_c, 0, 79, 0
1, 57207, Note_on_c, 0, 80, 75
1, 57215, Note_on_c, 1, 70, 0
1, 57216, Note_on_c, 1, 63, 61
1, 57239, Note_on_c, 1, 63, 0
1, 57240, Note_on_c, 0, 80, 0
1, 57240, Note_on_c, 0, 79, 75
1, 57240, Note_on_c, 1, 70, 61
1, 57263, Note_on_c, 0, 79, 0
1, 57263, Note_on_c, 1, 70, 0
1, 57264, Note_on_c, 0, 82, 75
1, 57264, Note_on_c, 1, 67, 61
1, 57287, Note_on_c, 1, 67, 0
1, 57288, Note_on_c, 0, 82, 0
1, 57288, Note_on_c, 0, 75, 75
1, 57288, Note_on_c, 1, 70, 61
1, 57311, Note_on_c, 0, 75, 0
1, 57311, Note_on_c, 1, 70, 0
1, 57312, Note_on_c, 0, 75, 75
1, 57312, Note_on_c, 1, 65, 61
1, 57335, Note_on_c, 1, 65, 0
1, 57336, Note_on_c, 0, 75, 0
1, 57336, Note_on_c, 0, 74, 75
1, 57336, Note_on_c, 1, 70, 61
1, 57359, Note_on_c, 0, 74, 0
1, 57359, Note_on_c, 1, 70, 0
1, 57360, Note_on_c, 0, 77, 75
1, 57360, Note_on_c, 1, 68, 61
1, 57383, Note_on_c, 1, 68, 0
1, 57384, Note_on_c, 0, 77, 0
1, 57384, Note_on_c, 0, 74, 75
1, 57384, Note_on_c, 1, 70, 61
1, 57407, Note_on_c, 0, 74, 0
1, 57407, Note_on_c, 1, 70, 0
1, 57408, Note_on_c, 0, 75, 75
1, 57408, Note_on_c, 1, 67, 61
1, 57428, Note_on_c, 0, 75, 0
1, 57431, Note_on_c, 1, 67, 0
1, 57432, Note_on_c, 1, 70, 61
1, 57455, Note_on_c, 1, 70, 0
1, 57456, Note_on_c, 0, 79, 75
1, 57456, Note_on_c, 1, 63, 61
1, 57476, Note_on_c, 0, 79, 0
1, 57479, Note_on_c, 1, 63, 0
1, 57480, Note_on_c, 1, 70, 61
1, 57503, Note_on_c, 1, 70, 0
1, 57504, Note_on_c, 0, 77, 75
1, 57504, Note_on_c, 1, 62, 61
1, 57524, Note_on_c, 0, 77, 0
1, 57527, Note_on_c, 1, 62, 0
1, 57528, Note_on_c, 1, 70, 61
1, 57551, Note_on_c, 1, 70, 0
1, 57552, Note_on_c, 0, 80, 75
1, 57552, Note_on_c, 1, 65, 61
1, 57572, Note_on_c, 0, 80, 0
1, 57575, Note_on_c, 1, 65, 0
1, 57576, Note_on_c, 1, 70, 61
1, 57599, Note_on_c, 1, 70, 0
1, 57600, Note_on_c, 0, 80, 75
1, 57600, Note_on_c, 1, 63, 61
1, 57623, Note_on_c, 1, 63, 0
1, 57624, Note_on_c, 0, 80, 0
1, 57624, Note_on_c, 0, 79, 75
1, 57624, Note_on_c, 1, 70, 61
1, 57647, Note_on_c, 0, 79, 0
1, 57647, Note_on_c, 1, 70, 0
1, 57648, Note_on_c, 0, 82, 75
1, 57648, Note_on_c, 1, 67, 61
1, 57671, Note_on_c, 1, 67, 0
1, 57672, Note_on_c, 0, 82, 0
1, 57672, Note_on_c, 0, 75, 75
1, 57672, Note_on_c, 1, 70, 61
1, 57695, Note_on_c, 0, 75, 0
1, 57695, Note_on_c, 1, 70, 0
1, 57696, Note_on_c, 0, 75, 75
1, 57696, Note_on_c, 1, 65, 61
1, 57719, Note_on_c, 1, 65, 0
1, 57720, Note_on_c, 0, 75, 0
1, 57720, Note_on_c, 0, 74, 75
1, 57720, Note_on_c, 1, 70, 61
1, 57743, Note_on_c, 0, 74, 0
1, 57743, Note_on_c, 1, 70, 0
1, 57744, Note_on_c, 0, 77, 75
1, 57744, Note_on_c, 1, 68, 61
1, 57767, Note_on_c, 1, 68, 0
1, 57768, Note_on_c, 0, 77, 0
1, 57768, Note_on_c, 0, 74, 75
1, 57768, Note_on_c, 1, 70, 61
1, 57791, Note_on_c, 0, 74, 0
1, 57791, Note_on_c, 1, 70, 0
1, 57792, Note_on_c, 0, 75, 75
1, 57792, Note_on_c, 1, 67, 61
1, 57812, Note_on_c, 0, 75, 0
1, 57815, Note_on_c, 1, 67, 0
1, 57816, Note_on_c, 1, 70, 61
1, 57839, Note_on_c, 1, 70, 0
1, 57840, Note_on_c, 0, 79, 75
1, 57840, Note_on_c, 1, 63, 61
1, 57860, Note_on_c, 0, 79, 0
1, 57863, Note_on_c, 1, 63, 0
1, 57864, Note_on_c, 1, 70, 61
1, 57887, Note_on_c, 1, 70, 0
1, 57888, Note_on_c, 0, 77, 75
1, 57888, Note_on_c, 1, 62, 61
1, 57908, Note_on_c, 0, 77, 0
1, 57911, Note_on_c, 1, 62, 0
1, 57912, Note_on_c, 1, 70, 61
1, 57935, Note_on_c, 1, 70, 0
1, 57936, Note_on_c, 0, 80, 75
1, 57936, Note_on_c, 1, 65, 61
1, 57956, Note_on_c, 0, 80, 0
1, 57959, Note_on_c, 1, 65, 0
1, 57960, Note_on_c, 1, 70, 61
1, 57983, Note_on_c, 1, 70, 0
1, 57984, Note_on_c, 0, 79, 75
1, 57984, Note_on_c, 1, 63, 61
1, 58007, Note_on_c, 1, 63, 0
1, 58008, Note_on_c, 1, 70, 61
1, 58031, Note_on_c, 1, 70, 0
1, 58032, Note_on_c, 0, 79, 0
1, 58032, Note_on_c, 0, 82, 75
1, 58032, Note_on_c, 1, 67, 61
1, 58055, Note_on_c, 1, 67, 0
1, 58056, Note_on_c, 1, 70, 61
1, 58077, Note_on_c, 0, 82, 0
1, 58079, Note_on_c, 1, 70, 0
1, 58080, Note_on_c, 1, 61, 61
1, 58103, Note_on_c, 1, 61, 0
1, 58104, Note_on_c, 0, 75, 75
1, 58104, Note_on_c, 1, 70, 61
1, 58114, Note_on_c, 0, 75, 0
1, 58127, Note_on_c, 1, 70, 0
1, 58128, Note_on_c, 0, 77, 75
1, 58128, Note_on_c, 1, 67, 61
1, 58140, Note_on_c, 0, 77, 0
1, 58140, Note_on_c, 0, 75, 75
1, 58151, Note_on_c, 1, 67, 0
1, 58152, Note_on_c, 0, 75, 0
1, 58152, Note_on_c, 0, 74, 75
1, 58152, Note_on_c, 1, 70, 61
1, 58164, Note_on_c, 0, 74, 0
1, 58164, Note_on_c, 0, 75, 75
1, 58175, Note_on_c, 1, 70, 0
1, 58176, Note_on_c, 0, 75, 0
1, 58176, Note_on_c, 0, 80, 75
1, 58176, Note_on_c, 1, 60, 61
1, 58199, Note_on_c, 1, 60, 0
1, 58200, Note_on_c, 1, 68, 61
1, 58223, Note_on_c, 1, 68, 0
1, 58224, Note_on_c, 0, 80, 0
1, 58224, Note_on_c, 0, 84, 75
1, 58224, Note_on_c, 1, 63, 61
1, 58247, Note_on_c, 1, 63, 0
1, 58248, Note_on_c, 1, 68, 61
1, 58269, Note_on_c, 0, 84, 0
1, 58271, Note_on_c, 1, 68, 0
1, 58272, Note_on_c, 1, 60, 61
1, 58295, Note_on_c, 1, 60, 0
1, 58296, Note_on_c, 0, 75, 75
1, 58296, Note_on_c, 1, 68, 61
1, 58306, Note_on_c, 0, 75, 0
1, 58319, Note_on_c, 1, 68, 0
1, 58320, Note_on_c, 0, 77, 75
1, 58320, Note_on_c, 1, 63, 61
1, 58332, Note_on_c, 0, 77, 0
1, 58332, Note_on_c, 0, 75, 75
1, 58343, Note_on_c, 1, 63, 0
1, 58344, Note_on_c, 0, 75, 0
1, 58344, Note_on_c, 0, 74, 75
1, 58344, Note_on_c, 1, 68, 61
1, 58356, Note_on_c, 0, 74, 0
1, 58356, Note_on_c, 0, 75, 75
1, 58367, Note_on_c, 1, 68, 0
1, 58368, Note_on_c, 0, 75, 0
1, 58368, Note_on_c, 0, 73, 75
1, 58368, Note_on_c, 1, 58, 61
1, 58391, Note_on_c, 1, 58, 0
1, 58392, Note_on_c, 1, 68, 61
1, 58415, Note_on_c, 1, 68, 0
1, 58416, Note_on_c, 0, 73, 0
1, 58416, Note_on_c, 0, 82, 75
1, 58416, Note_on_c, 1, 65, 61
1, 58439, Note_on_c, 1, 65, 0
1, 58440, Note_on_c, 1, 68, 61
1, 58461, Note_on_c, 0, 82, 0
1, 58463, Note_on_c, 1, 68, 0
1, 58464, Note_on_c, 1, 58, 61
1, 58487, Note_on_c, 1, 58, 0
1, 58488, Note_on_c, 0, 73, 75
1, 58488, Note_on_c, 1, 67, 61
1, 58498, Note_on_c, 0, 73, 0
1, 58511, Note_on_c, 1, 67, 0
1, 58512, Note_on_c, 0, 75, 75
1, 58512, Note_on_c, 1, 63, 61
1, 58524, Note_on_c, 0, 75, 0
1, 58524, Note_on_c, 0, 73, 75
1, 58535, Note_on_c, 1, 63, 0
1, 58536, Note_on_c, 0, 73, 0
1, 58536, Note_on_c, 0, 72, 75
1, 58536, Note_on_c, 1, 67, 61
1, 58548, Note_on_c, 0, 72, 0
1, 58548, Note_on_c, 0, 73, 75
1, 58559, Note_on_c, 1, 67, 0
1, 58560, Note_on_c, 0, 73, 0
1, 58560, Note_on_c, 0, 73, 75
1, 58560, Note_on_c, 1, 56, 61
1, 58583, Note_on_c, 1, 56, 0
1, 58584, Note_on_c, 0, 73, 0
1, 58584, Note_on_c, 0, 72, 75
1, 58584, Note_on_c, 1, 63, 61
1, 58607, Note_on_c, 0, 72, 0
1, 58607, Note_on_c, 1, 63, 0
1, 58608, Note_on_c, 0, 75, 75
1, 58608, Note_on_c, 1, 60, 61
1, 58631, Note_on_c, 1, 60, 0
1, 58632, Note_on_c, 0, 75, 0
1, 58632, Note_on_c, 0, 68, 75
1, 58632, Note_on_c, 1, 63, 61
1, 58655, Note_on_c, 0, 68, 0
1, 58655, Note_on_c, 1, 63, 0
1, 58656, Note_on_c, 0, 68, 75
1, 58656, Note_on_c, 1, 58, 61
1, 58679, Note_on_c, 1, 58, 0
1, 58680, Note_on_c, 0, 68, 0
1, 58680, Note_on_c, 0, 67, 75
1, 58680, Note_on_c, 1, 63, 61
1, 58703, Note_on_c, 0, 67, 0
1, 58703, Note_on_c, 1, 63, 0
1, 58704, Note_on_c, 0, 70, 75
1, 58704, Note_on_c, 1, 61, 61
1, 58727, Note_on_c, 1, 61, 0
1, 58728, Note_on_c, 0, 70, 0
1, 58728, Note_on_c, 0, 67, 75
1, 58728, Note_on_c, 1, 63, 61
1, 58751, Note_on_c, 0, 67, 0
1, 58751, Note_on_c, 1, 63, 0
1, 58752, Note_on_c, 0, 68, 75
1, 58752, Note_on_c, 1, 60, 61
1, 58772, Note_on_c, 0, 68, 0
1, 58775, Note_on_c, 1, 60, 0
1, 58776, Note_on_c, 1, 63, 61
1, 58799, Note_on_c, 1, 63, 0
1, 58800, Note_on_c, 0, 72, 75
1, 58800, Note_on_c, 1, 56, 61
1, 58820, Note_on_c, 0, 72, 0
1, 58823, Note_on_c, 1, 56, 0
1, 58824, Note_on_c, 1, 63, 61
1, 58847, Note_on_c, 1, 63, 0
1, 58848, Note_on_c, 0, 70, 75
1, 58848, Note_on_c, 1, 55, 61
1, 58868, Note_on_c, 0, 70, 0
1, 58871, Note_on_c, 1, 55, 0
1, 58872, Note_on_c, 1, 63, 61
1, 58895, Note_on_c, 1, 63, 0
1, 58896, Note_on_c, 0, 73, 75
1, 58896, Note_on_c, 1, 58, 61
1, 58916, Note_on_c, 0, 73, 0
1, 58919, Note_on_c, 1, 58, 0
1, 58920, Note_on_c, 1, 63, 61
1, 58943, Note_on_c, 1, 63, 0
1, 58944, Note_on_c, 0, 73, 75
1, 58944, Note_on_c, 1, 56, 61
1, 58967, Note_on_c, 1, 56, 0
1, 58968, Note_on_c, 0, 73, 0
1, 58968, Note_on_c, 0, 72, 75
1, 58968, Note_on_c, 1, 63, 61
1, 58991, Note_on_c, 0, 72, 0
1, 58991, Note_on_c, 1, 63, 0
1, 58992, Note_on_c, 0, 75, 75
1, 58992, Note_on_c, 1, 60, 61
1, 59015, Note_on_c, 1, 60, 0
1, 59016, Note_on_c, 0, 75, 0
1, 59016, Note_on_c, 0, 68, 75
1, 59016, Note_on_c, 1, 63, 61
1, 59039, Note_on_c, 0, 68, 0
1, 59039, Note_on_c, 1, 63, 0
1, 59040, Note_on_c, 0, 68, 75
1, 59040, Note_on_c, 1, 58, 61
1, 59063, Note_on_c, 1, 58, 0
1, 59064, Note_on_c, 0, 68, 0
1, 59064, Note_on_c, 0, 67, 75
1, 59064, Note_on_c, 1, 63, 61
1, 59087, Note_on_c, 0, 67, 0
1, 59087, Note_on_c, 1, 63, 0
1, 59088, Note_on_c, 0, 70, 75
1, 59088, Note_on_c, 1, 61, 61
1, 59111, Note_on_c, 1, 61, 0
1, 59112, Note_on_c, 0, 70, 0
1, 59112, Note_on_c, 0, 67, 75
1, 59112, Note_on_c, 1, 63, 61
1, 59135, Note_on_c, 0, 67, 0
1, 59135, Note_on_c, 1, 63, 0
1, 59136, Note_on_c, 0, 68, 75
1, 59136, Note_on_c, 1, 60, 61
1, 59156, Note_on_c, 0, 68, 0
1, 59159, Note_on_c, 1, 60, 0
1, 59160, Note_on_c, 1, 63, 61
1, 59183, Note_on_c, 1, 63, 0
1, 59184, Note_on_c, 0, 72, 75
1, 59184, Note_on_c, 1, 56, 61
1, 59204, Note_on_c, 0, 72, 0
1, 59207, Note_on_c, 1, 56, 0
1, 59208, Note_on_c, 1, 63, 61
1, 59231, Note_on_c, 1, 63, 0
1, 59232, Note_on_c, 0, 70, 75
1, 59232, Note_on_c, 1, 55, 61
1, 59252, Note_on_c, 0, 70, 0
1, 59255, Note_on_c, 1, 55, 0
1, 59256, Note_on_c, 1, 63, 61
1, 59279, Note_on_c, 1, 63, 0
1, 59280, Note_on_c, 0, 73, 75
1, 59280, Note_on_c, 1, 58, 61
1, 59300, Note_on_c, 0, 73, 0
1, 59303, Note_on_c, 1, 58, 0
1, 59304, Note_on_c, 1, 63, 61
1, 59327, Note_on_c, 1, 63, 0
1, 59328, Note_on_c, 0, 72, 75
1, 59328, Note_on_c, 1, 56, 61
1, 59348, Note_on_c, 0, 72, 0
1, 59351, Note_on_c, 1, 56, 0
1, 59352, Note_on_c, 1, 63, 61
1, 59375, Note_on_c, 1, 63, 0
1, 59376, Note_on_c, 0, 80, 91
1, 59376, Note_on_c, 1, 60, 61
1, 59399, Note_on_c, 1, 60, 0
1, 59400, Note_on_c, 1, 63, 61
1, 59423, Note_on_c, 1, 63, 0
1, 59424, Note_on_c, 1, 56, 61
1, 59447, Note_on_c, 0, 80, 0
1, 59447, Note_on_c, 1, 56, 0
1, 59448, Note_on_c, 0, 79, 75
1, 59448, Note_on_c, 1, 63, 61
1, 59471, Note_on_c, 0, 79, 0
1, 59471, Note_on_c, 1, 63, 0
1, 59472, Note_on_c, 0, 77, 75
1, 59472, Note_on_c, 1, 60, 61
1, 59495, Note_on_c, 0, 77, 0
1, 59495, Note_on_c, 1, 60, 0
1, 59496, Note_on_c, 0, 75, 75
1, 59496, Note_on_c, 1, 63, 61
1, 59519, Note_on_c, 0, 75, 0
1, 59519, Note_on_c, 1, 63, 0
1, 59520, Note_on_c, 0, 75, 75
1, 59520, Note_on_c, 1, 56, 61
1, 59543, Note_on_c, 1, 56, 0
1, 59544, Note_on_c, 1, 65, 61
1, 59567, Note_on_c, 1, 65, 0
1, 59568, Note_on_c, 1, 58, 61
1, 59587, Note_on_c, 0, 75, 0
1, 59591, Note_on_c, 1, 58, 0
1, 59592, Note_on_c, 0, 74, 75
1, 59592, Note_on_c, 1, 65, 61
1, 59602, Note_on_c, 0, 74, 0
1, 59615, Note_on_c, 1, 65, 0
1, 59616, Note_on_c, 0, 75, 75
1, 59616, Note_on_c, 1, 56, 61
1, 59626, Note_on_c, 0, 75, 0
1, 59626, Note_on_c, 0, 74, 75
1, 59636, Note_on_c, 0, 74, 0
1, 59636, Note_on_c, 0, 75, 75
1, 59639, Note_on_c, 1, 56, 0
1, 59640, Note_on_c, 1, 65, 61
1, 59646, Note_on_c, 0, 75, 0
1, 59646, Note_on_c, 0, 74, 75
1, 59656, Note_on_c, 0, 74, 0
1, 59656, Note_on_c, 0, 75, 75
1, 59663, Note_on_c, 1, 65, 0
1, 59664, Note_on_c, 1, 58, 61
1, 59666, Note_on_c, 0, 75, 0
1, 59666, Note_on_c, 0, 74, 75
1, 59676, Note_on_c, 0, 74, 0
1, 59676, Note_on_c, 0, 75, 75
1, 59685, Note_on_c, 0, 75, 0
1, 59685, Note_on_c, 0, 74, 75
1, 59687, Note_on_c, 1, 58, 0
1, 59688, Note_on_c, 1, 65, 61
1, 59694, Note_on_c, 0, 74, 0
1, 59694, Note_on_c, 0, 72, 75
1, 59703, Note_on_c, 0, 72, 0
1, 59703, Note_on_c, 0, 74, 75
1, 59711, Note_on_c, 1, 65, 0
1, 59712, Note_on_c, 0, 74, 0
1, 59712, Note_on_c, 0, 75, 75
1, 59712, Note_on_c, 1, 55, 61
1, 59735, Note_on_c, 1, 55, 0
1, 59736, Note_on_c, 1, 63, 61
1, 59757, Note_on_c, 0, 75, 0
1, 59759, Note_on_c, 1, 63, 0
1, 59760, Note_on_c, 0, 82, 75
1, 59760, Note_on_c, 1, 58, 61
1, 59783, Note_on_c, 1, 58, 0
1, 59784, Note_on_c, 1, 63, 61
1, 59805, Note_on_c, 0, 82, 0
1, 59807, Note_on_c, 1, 63, 0
1, 59808, Note_on_c, 0, 84, 75
1, 59808, Note_on_c, 1, 55, 61
1, 59831, Note_on_c, 1, 55, 0
1, 59832, Note_on_c, 0, 84, 0
1, 59832, Note_on_c, 0, 82, 75
1, 59832, Note_on_c, 1, 63, 61
1, 59855, Note_on_c, 0, 82, 0
1, 59855, Note_on_c, 1, 63, 0
1, 59856, Note_on_c, 0, 80, 75
1, 59856, Note_on_c, 1, 58, 61
1, 59879, Note_on_c, 0, 80, 0
1, 59879, Note_on_c, 1, 58, 0
1, 59880, Note_on_c, 0, 79, 75
1, 59880, Note_on_c, 1, 63, 61
1, 59903, Note_on_c, 0, 79, 0
1, 59903, Note_on_c, 1, 63, 0
1, 59904, Note_on_c, 0, 77, 75
1, 59904, Note_on_c, 1, 56, 61
1, 59927, Note_on_c, 1, 56, 0
1, 59928, Note_on_c, 1, 63, 61
1, 59949, Note_on_c, 0, 77, 0
1, 59951, Note_on_c, 1, 63, 0
1, 59952, Note_on_c, 0, 77, 76
1, 59952, Note_on_c, 1, 60, 62
1, 59964, Note_on_c, 0, 77, 0
1, 59964, Note_on_c, 0, 79, 76
1, 59975, Note_on_c, 1, 60, 0
1, 59976, Note_on_c, 0, 79, 0
1, 59976, Note_on_c, 0, 77, 77
1, 59976, Note_on_c, 1, 63, 63
1, 59988, Note_on_c, 0, 77, 0
1, 59988, Note_on_c, 0, 79, 77
1, 59999, Note_on_c, 1, 63, 0
1, 60000, Note_on_c, 0, 79, 0
1, 60000, Note_on_c, 0, 80, 78
1, 60000, Note_on_c, 1, 56, 64
1, 60023, Note_on_c, 1, 56, 0
1, 60024, Note_on_c, 1, 63, 65
1, 60045, Note_on_c, 0, 80, 0
1, 60047, Note_on_c, 1, 63, 0
1, 60048, Note_on_c, 0, 80, 79
1, 60048, Note_on_c, 1, 60, 65
1, 60060, Note_on_c, 0, 80, 0
1, 60060, Note_on_c, 0, 82, 79
1, 60071, Note_on_c, 1, 60, 0
1, 60072, Note_on_c, 0, 82, 0
1, 60072, Note_on_c, 0, 80, 80
1, 60072, Note_on_c, 1, 63, 66
1, 60084, Note_on_c, 0, 80, 0
1, 60084, Note_on_c, 0, 82, 80
1, 60095, Note_on_c, 1, 63, 0
1, 60096, Note_on_c, 0, 82, 0
1, 60096, Note_on_c, 0, 84, 97
1, 60096, Note_on_c, 1, 56, 67
1, 60119, Note_on_c, 1, 56, 0
1, 60120, Note_on_c, 1, 65, 68
1, 60143, Note_on_c, 1, 65, 0
1, 60144, Note_on_c, 1, 60, 69
1, 60167, Note_on_c, 1, 60, 0
1, 60168, Note_on_c, 1, 65, 70
1, 60191, Note_on_c, 1, 65, 0
1, 60192, Note_on_c, 1, 57, 70
1, 60215, Note_on_c, 1, 57, 0
1, 60216, Note_on_c, 1, 65, 71
1, 60226, Note_on_c, 0, 84, 0
1, 60228, Note_on_c, 0, 75, 84
1, 60233, Note_on_c, 0, 75, 0
1, 60239, Note_on_c, 1, 65, 0
1, 60240, Note_on_c, 0, 77, 84
1, 60240, Note_on_c, 1, 60, 72
1, 60250, Note_on_c, 0, 77, 0
1, 60250, Note_on_c, 0, 75, 84
1, 60260, Note_on_c, 0, 75, 0
1, 60260, Note_on_c, 0, 77, 84
1, 60263, Note_on_c, 1, 60, 0
1, 60264, Note_on_c, 1, 65, 73
1, 60270, Note_on_c, 0, 77, 0
1, 60270, Note_on_c, 0, 74, 84
1, 60279, Note_on_c, 0, 74, 0
1, 60279, Note_on_c, 0, 75, 84
1, 60287, Note_on_c, 1, 65, 0
1, 60288, Note_on_c, 0, 75, 0
1, 60288, Note_on_c, 0, 74, 84
1, 60288, Note_on_c, 1, 58, 74
1, 60311, Note_on_c, 0, 74, 0
1, 60311, Note_on_c, 1, 58, 0
1, 60312, Note_on_c, 0, 82, 84
1, 60312, Note_on_c, 1, 65, 75
1, 60335, Note_on_c, 0, 82, 0
1, 60335, Note_on_c, 1, 65, 0
1, 60336, Note_on_c, 0, 77, 84
1, 60336, Note_on_c, 1, 62, 75
1, 60359, Note_on_c, 0, 77, 0
1, 60359, Note_on_c, 1, 62, 0
1, 60360, Note_on_c, 0, 74, 84
1, 60360, Note_on_c, 1, 65, 75
1, 60383, Note_on_c, 0, 74, 0
1, 60383, Note_on_c, 1, 65, 0
1, 60384, Note_on_c, 0, 70, 84
1, 60384, Note_on_c, 1, 58, 75
1, 60407, Note_on_c, 1, 58, 0
1, 60408, Note_on_c, 1, 65, 75
1, 60429, Note_on_c, 0, 70, 0
1, 60431, Note_on_c, 1, 65, 0
1, 60432, Note_on_c, 0, 70, 84
1, 60432, Note_on_c, 1, 62, 75
1, 60455, Note_on_c, 1, 62, 0
1, 60456, Note_on_c, 1, 65, 75
1, 60477, Note_on_c, 0, 70, 0
1, 60479, Note_on_c, 1, 65, 0
1, 60480, Note_on_c, 0, 72, 84
1, 60480, Note_on_c, 1, 58, 75
1, 60490, Note_on_c, 0, 72, 0
1, 60490, Note_on_c, 0, 70, 84
1, 60500, Note_on_c, 0, 70, 0
1, 60500, Note_on_c, 0, 72, 84
1, 60510, Note_on_c, 0, 72, 0
1, 60510, Note_on_c, 0, 70, 84
1, 60520, Note_on_c, 0, 70, 0
1, 60520, Note_on_c, 0, 72, 84
1, 60530, Note_on_c, 0, 72, 0
1, 60530, Note_on_c, 0, 70, 84
1, 60540, Note_on_c, 0, 70, 0
1, 60540, Note_on_c, 0, 72, 84
1, 60549, Note_on_c, 0, 72, 0
1, 60549, Note_on_c, 0, 70, 84
1, 60569, Note_on_c, 1, 58, 0
1, 60576, Tempo, 1200000
1, 60576, Note_on_c, 0, 70, 0
1, 60624, Tempo, 625000
1, 60624, Note_on_c, 0, 67, 75
1, 60669, Note_on_c, 0, 67, 0
1, 60672, Note_on_c, 0, 70, 75
1, 60720, Note_on_c, 1, 51, 75
1, 60740, Note_on_c, 1, 51, 0
1, 60768, Note_on_c, 1, 55, 75
1, 60813, Note_on_c, 0, 70, 0
1, 60816, Note_on_c, 0, 67, 75
1, 60850, Note_on_c, 0, 67, 0
1, 60852, Note_on_c, 0, 68, 75
1, 60857, Note_on_c, 1, 55, 0
1, 60864, Note_on_c, 0, 68, 0
1, 60864, Note_on_c, 0, 70, 75
1, 60912, Note_on_c, 1, 51, 75
1, 60946, Note_on_c, 1, 51, 0
1, 60948, Note_on_c, 1, 53, 75
1, 60960, Note_on_c, 1, 53, 0
1, 60960, Note_on_c, 1, 55, 75
1, 61005, Note_on_c, 0, 70, 0
1, 61008, Note_on_c, 0, 67, 75
1, 61020, Note_on_c, 0, 67, 0
1, 61020, Note_on_c, 0, 68, 75
1, 61032, Note_on_c, 0, 68, 0
1, 61032, Note_on_c, 0, 67, 75
1, 61044, Note_on_c, 0, 67, 0
1, 61044, Note_on_c, 0, 68, 75
1, 61049, Note_on_c, 1, 55, 0
1, 61056, Note_on_c, 0, 68, 0
1, 61056, Note_on_c, 0, 70, 75
1, 61076, Note_on_c, 0, 70, 0
1, 61104, Note_on_c, 0, 67, 75
1, 61104, Note_on_c, 1, 63, 75
1, 61116, Note_on_c, 0, 67, 0
1, 61116, Note_on_c, 0, 68, 75
1, 61116, Note_on_c, 1, 63, 0
1, 61116, Note_on_c, 1, 65, 75
1, 61128, Note_on_c, 0, 68, 0
1, 61128, Note_on_c, 0, 67, 75
1, 61128, Note_on_c, 1, 65, 0
1, 61128, Note_on_c, 1, 63, 75
1, 61140, Note_on_c, 0, 67, 0
1, 61140, Note_on_c, 0, 68, 75
1, 61140, Note_on_c, 1, 63, 0
1, 61140, Note_on_c, 1, 65, 75
1, 61152, Note_on_c, 0, 68, 0
1, 61152, Note_on_c, 0, 70, 75
1, 61152, Note_on_c, 1, 65, 0
1, 61152, Note_on_c, 1, 67, 75
1, 61172, Note_on_c, 0, 70, 0
1, 61172, Note_on_c, 1, 67, 0
1, 61200, Note_on_c, 0, 67, 75
1, 61200, Note_on_c, 1, 63, 75
1, 61212, Note_on_c, 0, 67, 0
1, 61212, Note_on_c, 0, 68, 75
1, 61212, Note_on_c, 1, 63, 0
1, 61212, Note_on_c, 1, 65, 75
1, 61224, Note_on_c, 0, 68, 0
1, 61224, Note_on_c, 0, 67, 75
1, 61224, Note_on_c, 1, 65, 0
1, 61224, Note_on_c, 1, 63, 75
1, 61236, Note_on_c, 0, 67, 0
1, 61236, Note_on_c, 0, 68, 75
1, 61236, Note_on_c, 1, 63, 0
1, 61236, Note_on_c, 1, 65, 75
1, 61248, Note_on_c, 0, 68, 0
1, 61248, Note_on_c, 0, 70, 75
1, 61248, Note_on_c, 1, 65, 0
1, 61248, Note_on_c, 1, 67, 75
1, 61268, Note_on_c, 0, 70, 0
1, 61287, Note_on_c, 1, 67, 0
1, 61296, Note_on_c, 0, 75, 75
1, 61316, Note_on_c, 0, 75, 0
1, 61392, Note_on_c, 0, 63, 75
1, 61412, Note_on_c, 0, 63, 0
1, 61440, Note_on_c, 0, 67, 75
1, 61488, Note_on_c, 1, 55, 69
1, 61488, Note_on_c, 1, 51, 69
1, 61508, Note_on_c, 1, 55, 0
1, 61508, Note_on_c, 1, 51, 0
1, 61536, Note_on_c, 1, 58, 69
1, 61536, Note_on_c, 1, 55, 69
1, 61573, Note_on_c, 0, 67, 0
1, 61584, Note_on_c, 0, 65, 75
1, 61596, Note_on_c, 0, 65, 0
1, 61596, Note_on_c, 0, 63, 75
1, 61625, Note_on_c, 1, 58, 0
1, 61625, Note_on_c, 1, 55, 0
1, 61629, Note_on_c, 0, 63, 0
1, 61632, Note_on_c, 0, 62, 75
1, 61680, Note_on_c, 1, 48, 69
1, 61680, Note_on_c, 1, 44, 69
1, 61700, Note_on_c, 1, 48, 0
1, 61700, Note_on_c, 1, 44, 0
1, 61728, Note_on_c, 1, 51, 69
1, 61728, Note_on_c, 1, 48, 69
1, 61776, Note_on_c, 0, 62, 0
1, 61776, Note_on_c, 0, 60, 75
1, 61796, Note_on_c, 0, 60, 0
1, 61817, Note_on_c, 1, 51, 0
1, 61817, Note_on_c, 1, 48, 0
1, 61824, Note_on_c, 0, 68, 75
1, 61872, Note_on_c, 1, 56, 69
1, 61872, Note_on_c, 1, 53, 69
1, 61892, Note_on_c, 1, 56, 0
1, 61892, Note_on_c, 1, 53, 0
1, 61920, Note_on_c, 1, 60, 69
1, 61920, Note_on_c, 1, 56, 69
1, 61957, Note_on_c, 0, 68, 0
1, 61968, Note_on_c, 0, 67, 75
1, 61980, Note_on_c, 0, 67, 0
1, 61980, Note_on_c, 0, 65, 75
1, 62009, Note_on_c, 1, 60, 0
1, 62009, Note_on_c, 1, 56, 0
1, 62013, Note_on_c, 0, 65, 0
1, 62016, Note_on_c, 0, 63, 75
1, 62064, Note_on_c, 1, 50, 69
1, 62064, Note_on_c, 1, 46, 69
1, 62084, Note_on_c, 1, 50, 0
1, 62084, Note_on_c, 1, 46, 0
1, 62112, Note_on_c, 1, 53, 69
1, 62112, Note_on_c, 1, 50, 69
1, 62160, Note_on_c, 0, 63, 0
1, 62160, Note_on_c, 0, 62, 75
1, 62180, Note_on_c, 0, 62, 0
1, 62201, Note_on_c, 1, 53, 0
1, 62201, Note_on_c, 1, 50, 0
1, 62208, Note_on_c, 0, 70, 75
1, 62256, Note_on_c, 1, 58, 69
1, 62256, Note_on_c, 1, 55, 69
1, 62276, Note_on_c, 1, 58, 0
1, 62276, Note_on_c, 1, 55, 0
1, 62304, Note_on_c, 1, 62, 69
1, 62304, Note_on_c, 1, 58, 69
1, 62341, Note_on_c, 0, 70, 0
1, 62352, Note_on_c, 0, 68, 75
1, 62364, Note_on_c, 0, 68, 0
1, 62364, Note_on_c, 0, 67, 75
1, 62393, Note_on_c, 1, 62, 0
1, 62393, Note_on_c, 1, 58, 0
1, 62397, Note_on_c, 0, 67, 0
1, 62400, Note_on_c, 0, 65, 75
1, 62448, Note_on_c, 1, 51, 69
1, 62448, Note_on_c, 1, 48, 69
1, 62468, Note_on_c, 1, 51, 0
1, 62468, Note_on_c, 1, 48, 0
1, 62496, Note_on_c, 1, 55, 69
1, 62496, Note_on_c, 1, 51, 69
1, 62544, Note_on_c, 0, 65, 0
1, 62544, Note_on_c, 0, 63, 75
1, 62564, Note_on_c, 0, 63, 0
1, 62585, Note_on_c, 1, 55, 0
1, 62585, Note_on_c, 1, 51, 0
1, 62592, Note_on_c, 0, 68, 75
1, 62640, Note_on_c, 1, 63, 69
1, 62640, Note_on_c, 1, 60, 69
1, 62660, Note_on_c, 1, 63, 0
1, 62660, Note_on_c, 1, 60, 0
1, 62688, Note_on_c, 1, 58, 69
1, 62688, Note_on_c, 1, 62, 64
1, 62725, Note_on_c, 0, 68, 0
1, 62733, Note_on_c, 1, 62, 0
1, 62736, Note_on_c, 0, 67, 75
1, 62736, Note_on_c, 1, 67, 64
1, 62777, Note_on_c, 1, 58, 0
1, 62781, Note_on_c, 0, 67, 0
1, 62784, Note_on_c, 0, 72, 75
1, 62784, Note_on_c, 1, 56, 69
1, 62829, Note_on_c, 1, 67, 0
1, 62832, Note_on_c, 1, 65, 64
1, 62873, Note_on_c, 0, 72, 0
1, 62873, Note_on_c, 1, 56, 0
1, 62880, Note_on_c, 0, 70, 75
1, 62880, Note_on_c, 1, 55, 69
1, 62921, Note_on_c, 1, 65, 0
1, 62928, Note_on_c, 1, 63, 64
1, 62969, Note_on_c, 0, 70, 0
1, 62969, Note_on_c, 1, 55, 0
1, 62973, Note_on_c, 1, 63, 0
1, 62976, Note_on_c, 1, 58, 69
1, 62976, Note_on_c, 1, 50, 69
1, 63000, Note_on_c, 0, 68, 91
1, 63010, Note_on_c, 0, 68, 0
1, 63024, Note_on_c, 0, 70, 75
1, 63036, Note_on_c, 0, 70, 0
1, 63036, Note_on_c, 0, 68, 75
1, 63048, Note_on_c, 0, 68, 0
1, 63048, Note_on_c, 0, 67, 76
1, 63060, Note_on_c, 0, 67, 0
1, 63060, Note_on_c, 0, 68, 76
1, 63065, Note_on_c, 1, 58, 0
1, 63065, Note_on_c, 1, 50, 0
1, 63072, Note_on_c, 0, 68, 0
1, 63072, Note_on_c, 1, 58, 70
1, 63072, Note_on_c, 1, 51, 70
1, 63096, Note_on_c, 0, 67, 93
1, 63106, Note_on_c, 0, 67, 0
1, 63120, Note_on_c, 0, 68, 77
1, 63132, Note_on_c, 0, 68, 0
1, 63132, Note_on_c, 0, 67, 78
1, 63144, Note_on_c, 0, 67, 0
1, 63144, Note_on_c, 0, 65, 78
1, 63156, Note_on_c, 0, 65, 0
1, 63156, Note_on_c, 0, 67, 78
1, 63161, Note_on_c, 1, 58, 0
1, 63161, Note_on_c, 1, 51, 0
1, 63168, Note_on_c, 0, 67, 0
1, 63168, Note_on_c, 1, 56, 71
1, 63168, Note_on_c, 1, 44, 71
1, 63192, Note_on_c, 0, 65, 95
1, 63202, Note_on_c, 0, 65, 0
1, 63216, Note_on_c, 0, 67, 80
1, 63228, Note_on_c, 0, 67, 0
1, 63228, Note_on_c, 0, 65, 80
1, 63240, Note_on_c, 0, 65, 0
1, 63240, Note_on_c, 0, 63, 80
1, 63252, Note_on_c, 0, 63, 0
1, 63252, Note_on_c, 0, 65, 80
1, 63257, Note_on_c, 1, 56, 0
1, 63257, Note_on_c, 1, 44, 0
1, 63264, Note_on_c, 0, 65, 0
1, 63264, Note_on_c, 1, 56, 72
1, 63264, Note_on_c, 1, 53, 72
1, 63264, Note_on_c, 1, 46, 72
1, 63288, Note_on_c, 0, 62, 97
1, 63298, Note_on_c, 0, 62, 0
1, 63312, Note_on_c, 0, 63, 82
1, 63324, Note_on_c, 0, 63, 0
1, 63324, Note_on_c, 0, 62, 82
1, 63336, Note_on_c, 0, 62, 0
1, 63336, Note_on_c, 0, 60, 82
1, 63348, Note_on_c, 0, 60, 0
1, 63348, Note_on_c, 0, 62, 83
1, 63353, Note_on_c, 1, 56, 0
1, 63353, Note_on_c, 1, 53, 0
1, 63353, Note_on_c, 1, 46, 0
1, 63360, Note_on_c, 0, 62, 0
1, 63360, Note_on_c, 0, 63, 83
1, 63360, Note_on_c, 0, 55, 83
1, 63360, Note_on_c, 1, 51, 73
1, 63383, Note_on_c, 0, 63, 0
1, 63383, Note_on_c, 0, 55, 0
1, 63384, Note_on_c, 0, 55, 84
1, 63407, Note_on_c, 0, 55, 0
1, 63408, Note_on_c, 0, 58, 84
1, 63431, Note_on_c, 0, 58, 0
1, 63432, Note_on_c, 0, 55, 84
1, 63449, Note_on_c, 1, 51, 0
1, 63455, Note_on_c, 0, 55, 0
1, 63456, Note_on_c, 0, 63, 84
1, 63479, Note_on_c, 0, 63, 0
1, 63480, Note_on_c, 0, 58, 84
1, 63503, Note_on_c, 0, 58, 0
1, 63504, Note_on_c, 0, 67, 84
1, 63527, Note_on_c, 0, 67, 0
1, 63528, Note_on_c, 0, 63, 84
1, 63551, Note_on_c, 0, 63, 0
1, 63552, Note_on_c, 0, 70, 84
1, 63575, Note_on_c, 0, 70, 0
1, 63576, Note_on_c, 0, 67, 84
1, 63599, Note_on_c, 0, 67, 0
1, 63600, Note_on_c, 0, 75, 84
1, 63600, Note_on_c, 1, 51, 75
1, 63623, Note_on_c, 0, 75, 0
1, 63624, Note_on_c, 0, 67, 84
1, 63645, Note_on_c, 1, 51, 0
1, 63647, Note_on_c, 0, 67, 0
1, 63648, Note_on_c, 0, 70, 84
1, 63648, Note_on_c, 1, 53, 75
1, 63671, Note_on_c, 0, 70, 0
1, 63672, Note_on_c, 0, 68, 84
1, 63693, Note_on_c, 1, 53, 0
1, 63695, Note_on_c, 0, 68, 0
1, 63696, Note_on_c, 0, 67, 84
1, 63696, Note_on_c, 1, 46, 75
1, 63719, Note_on_c, 0, 67, 0
1, 63720, Note_on_c, 0, 65, 84
1, 63741, Note_on_c, 1, 46, 0
1, 63743, Note_on_c, 0, 65, 0
1, 63744, Note_on_c, 0, 67, 84
1, 63768, Note_on_c, 1, 51, 84
1, 63789, Note_on_c, 0, 67, 0
1, 63791, Note_on_c, 1, 51, 0
1, 63792, Note_on_c, 0, 75, 84
1, 63792, Note_on_c, 1, 55, 84
1, 63812, Note_on_c, 0, 75, 0
1, 63815, Note_on_c, 1, 55, 0
1, 63816, Note_on_c, 1, 51, 84
1, 63839, Note_on_c, 1, 51, 0
1, 63840, Note_on_c, 0, 77, 84
1, 63840, Note_on_c, 1, 58, 84
1, 63850, Note_on_c, 0, 77, 0
1, 63850, Note_on_c, 0, 75, 84
1, 63860, Note_on_c, 0, 75, 0
1, 63860, Note_on_c, 0, 77, 84
1, 63863, Note_on_c, 1, 58, 0
1, 63864, Note_on_c, 1, 55, 84
1, 63870, Note_on_c, 0, 77, 0
1, 63870, Note_on_c, 0, 75, 84
1, 63880, Note_on_c, 0, 75, 0
1, 63880, Note_on_c, 0, 77, 84
1, 63887, Note_on_c, 1, 55, 0
1, 63888, Note_on_c, 1, 63, 84
1, 63890, Note_on_c, 0, 77, 0
1, 63890, Note_on_c, 0, 75, 84
1, 63900, Note_on_c, 0, 75, 0
1, 63900, Note_on_c, 0, 77, 84
1, 63909, Note_on_c, 0, 77, 0
1, 63909, Note_on_c, 0, 75, 84
1, 63911, Note_on_c, 1, 63, 0
1, 63912, Note_on_c, 1, 58, 84
1, 63918, Note_on_c, 0, 75, 0
1, 63918, Note_on_c, 0, 77, 84
1, 63927, Note_on_c, 0, 77, 0
1, 63927, Note_on_c, 0, 75, 84
1, 63935, Note_on_c, 1, 58, 0
1, 63936, Note_on_c, 0, 75, 0
1, 63936, Note_on_c, 0, 72, 84
1, 63960, Note_on_c, 1, 51, 84
1, 63981, Note_on_c, 0, 72, 0
1, 63983, Note_on_c, 1, 51, 0
1, 63984, Note_on_c, 0, 80, 84
1, 63984, Note_on_c, 1, 56, 84
1, 64004, Note_on_c, 0, 80, 0
1, 64007, Note_on_c, 1, 56, 0
1, 64008, Note_on_c, 1, 51, 84
1, 64031, Note_on_c, 1, 51, 0
1, 64032, Note_on_c, 0, 82, 84
1, 64032, Note_on_c, 1, 60, 84
1, 64042, Note_on_c, 0, 82, 0
1, 64042, Note_on_c, 0, 80, 84
1, 64052, Note_on_c, 0, 80, 0
1, 64052, Note_on_c, 0, 82, 84
1, 64055, Note_on_c, 1, 60, 0
1, 64056, Note_on_c, 1, 56, 84
1, 64062, Note_on_c, 0, 82, 0
1, 64062, Note_on_c, 0, 80, 84
1, 64072, Note_on_c, 0, 80, 0
1, 64072, Note_on_c, 0, 82, 84
1, 64079, Note_on_c, 1, 56, 0
1, 64080, Note_on_c, 1, 63, 84
1, 64082, Note_on_c, 0, 82, 0
1, 64082, Note_on_c, 0, 80, 84
1, 64092, Note_on_c, 0, 80, 0
1, 64092, Note_on_c, 0, 82, 84
1, 64101, Note_on_c, 0, 82, 0
1, 64101, Note_on_c, 0, 80, 84
1, 64103, Note_on_c, 1, 63, 0
1, 64104, Note_on_c, 1, 60, 84
1, 64110, Note_on_c, 0, 80, 0
1, 64110, Note_on_c, 0, 82, 84
1, 64119, Note_on_c, 0, 82, 0
1, 64119, Note_on_c, 0, 80, 84
1, 64127, Note_on_c, 1, 60, 0
1, 64128, Note_on_c, 0, 80, 0
1, 64128, Note_on_c, 0, 70, 84
1, 64152, Note_on_c, 1, 51, 84
1, 64173, Note_on_c, 0, 70, 0
1, 64175, Note_on_c, 1, 51, 0
1, 64176, Note_on_c, 0, 79, 84
1, 64176, Note_on_c, 1, 55, 84
1, 64196, Note_on_c, 0, 79, 0
1, 64199, Note_on_c, 1, 55, 0
1, 64200, Note_on_c, 1, 51, 84
1, 64223, Note_on_c, 1, 51, 0
1, 64224, Note_on_c, 0, 80, 84
1, 64224, Note_on_c, 1, 58, 84
1, 64234, Note_on_c, 0, 80, 0
1, 64234, Note_on_c, 0, 79, 84
1, 64244, Note_on_c, 0, 79, 0
1, 64244, Note_on_c, 0, 80, 84
1, 64247, Note_on_c, 1, 58, 0
1, 64248, Note_on_c, 1, 55, 84
1, 64254, Note_on_c, 0, 80, 0
1, 64254, Note_on_c, 0, 79, 84
1, 64264, Note_on_c, 0, 79, 0
1, 64264, Note_on_c, 0, 80, 84
1, 64271, Note_on_c, 1, 55, 0
1, 64272, Note_on_c, 1, 63, 84
1, 64274, Note_on_c, 0, 80, 0
1, 64274, Note_on_c, 0, 79, 84
1, 64284, Note_on_c, 0, 79, 0
1, 64284, Note_on_c, 0, 80, 84
1, 64293, Note_on_c, 0, 80, 0
1, 64293, Note_on_c, 0, 79, 84
1, 64295, Note_on_c, 1, 63, 0
1, 64296, Note_on_c, 1, 58, 84
1, 64302, Note_on_c, 0, 79, 0
1, 64302, Note_on_c, 0, 80, 84
1, 64311, Note_on_c, 0, 80, 0
1, 64311, Note_on_c, 0, 79, 84
1, 64319, Note_on_c, 1, 58, 0
1, 64320, Note_on_c, 0, 79, 0
1, 64320, Note_on_c, 0, 68, 84
1, 64344, Note_on_c, 1, 46, 84
1, 64365, Note_on_c, 0, 68, 0
1, 64367, Note_on_c, 1, 46, 0
1, 64368, Note_on_c, 0, 77, 84
1, 64368, Note_on_c, 1, 50, 84
1, 64388, Note_on_c, 0, 77, 0
1, 64391, Note_on_c, 1, 50, 0
1, 64392, Note_on_c, 1, 46, 84
1, 64415, Note_on_c, 1, 46, 0
1, 64416, Note_on_c, 0, 79, 84
1, 64416, Note_on_c, 1, 56, 84
1, 64426, Note_on_c, 0, 79, 0
1, 64426, Note_on_c, 0, 77, 84
1, 64436, Note_on_c, 0, 77, 0
1, 64436, Note_on_c, 0, 79, 84
1, 64439, Note_on_c, 1, 56, 0
1, 64440, Note_on_c, 1, 53, 84
1, 64446, Note_on_c, 0, 79, 0
1, 64446, Note_on_c, 0, 77, 84
1, 64456, Note_on_c, 0, 77, 0
1, 64456, Note_on_c, 0, 79, 84
1, 64463, Note_on_c, 1, 53, 0
1, 64464, Note_on_c, 1, 62, 84
1, 64466, Note_on_c, 0, 79, 0
1, 64466, Note_on_c, 0, 77, 84
1, 64476, Note_on_c, 0, 77, 0
1, 64476, Note_on_c, 0, 79, 84
1, 64485, Note_on_c, 0, 79, 0
1, 64485, Note_on_c, 0, 77, 84
1, 64487, Note_on_c, 1, 62, 0
1, 64488, Note_on_c, 1, 58, 84
1, 64494, Note_on_c, 0, 77, 0
1, 64494, Note_on_c, 0, 79, 84
1, 64503, Note_on_c, 0, 79, 0
1, 64503, Note_on_c, 0, 77, 84
1, 64511, Note_on_c, 1, 58, 0
1, 64512, Note_on_c, 0, 77, 0
1, 64512, Note_on_c, 1, 63, 75
1, 64512, Note_on_c, 1, 58, 75
1, 64512, Note_on_c, 1, 55, 75
1, 64536, Note_on_c, 0, 70, 69
1, 64559, Note_on_c, 0, 70, 0
1, 64560, Note_on_c, 0, 75, 69
1, 64583, Note_on_c, 0, 75, 0
1, 64584, Note_on_c, 0, 70, 69
1, 64607, Note_on_c, 0, 70, 0
1, 64608, Note_on_c, 0, 79, 69
1, 64631, Note_on_c, 0, 79, 0
1, 64632, Note_on_c, 0, 75, 69
1, 64655, Note_on_c, 0, 75, 0
1, 64656, Note_on_c, 0, 82, 69
1, 64679, Note_on_c, 0, 82, 0
1, 64680, Note_on_c, 0, 79, 69
1, 64689, Note_on_c, 1, 63, 0
1, 64689, Note_on_c, 1, 58, 0
1, 64689, Note_on_c, 1, 55, 0
1, 64703, Note_on_c, 0, 79, 0
1, 64704, Note_on_c, 1, 63, 75
1, 64704, Note_on_c, 1, 58, 75
1, 64704, Note_on_c, 1, 54, 75
1, 64728, Note_on_c, 0, 70, 69
1, 64751, Note_on_c, 0, 70, 0
1, 64752, Note_on_c, 0, 75, 69
1, 64775, Note_on_c, 0, 75, 0
1, 64776, Note_on_c, 0, 70, 69
1, 64799, Note_on_c, 0, 70, 0
1, 64800, Note_on_c, 0, 78, 69
1, 64823, Note_on_c, 0, 78, 0
1, 64824, Note_on_c, 0, 75, 69
1, 64847, Note_on_c, 0, 75, 0
1, 64848, Note_on_c, 0, 82, 69
1, 64871, Note_on_c, 0, 82, 0
1, 64872, Note_on_c, 0, 78, 69
1, 64881, Note_on_c, 1, 63, 0
1, 64881, Note_on_c, 1, 58, 0
1, 64881, Note_on_c, 1, 54, 0
1, 64895, Note_on_c, 0, 78, 0
1, 64896, Note_on_c, 1, 63, 75
1, 64896, Note_on_c, 1, 60, 75
1, 64896, Note_on_c, 1, 57, 75
1, 64896, Note_on_c, 1, 54, 75
1, 64920, Note_on_c, 0, 72, 69
1, 64943, Note_on_c, 0, 72, 0
1, 64944, Note_on_c, 0, 75, 69
1, 64967, Note_on_c, 0, 75, 0
1, 64968, Note_on_c, 0, 72, 69
1, 64991, Note_on_c, 0, 72, 0
1, 64992, Note_on_c, 0, 78, 69
1, 65015, Note_on_c, 0, 78, 0
1, 65016, Note_on_c, 0, 75, 69
1, 65039, Note_on_c, 0, 75, 0
1, 65040, Note_on_c, 0, 81, 69
1, 65063, Note_on_c, 0, 81, 0
1, 65064, Note_on_c, 0, 78, 69
1, 65073, Note_on_c, 1, 63, 0
1, 65073, Note_on_c, 1, 60, 0
1, 65073, Note_on_c, 1, 57, 0
1, 65073, Note_on_c, 1, 54, 0
1, 65087, Note_on_c, 0, 78, 0
1, 65088, Note_on_c, 1, 60, 75
1, 65088, Note_on_c, 1, 57, 75
1, 65088, Note_on_c, 1, 54, 75
1, 65088, Note_on_c, 1, 51, 75
1, 65112, Note_on_c, 0, 75, 69
1, 65135, Note_on_c, 0, 75, 0
1, 65136, Note_on_c, 0, 78, 69
1, 65159, Note_on_c, 0, 78, 0
1, 65160, Note_on_c, 0, 75, 69
1, 65183, Note_on_c, 0, 75, 0
1, 65184, Note_on_c, 0, 81, 69
1, 65207, Note_on_c, 0, 81, 0
1, 65208, Note_on_c, 0, 78, 69
1, 65231, Note_on_c, 0, 78, 0
1, 65232, Note_on_c, 0, 84, 69
1, 65255, Note_on_c, 0, 84, 0
1, 65256, Note_on_c, 0, 81, 69
1, 65265, Note_on_c, 1, 60, 0
1, 65265, Note_on_c, 1, 57, 0
1, 65265, Note_on_c, 1, 54, 0
1, 65265, Note_on_c, 1, 51, 0
1, 65279, Note_on_c, 0, 81, 0
1, 65280, Note_on_c, 1, 58, 75
1, 65280, Note_on_c, 1, 53, 75
1, 65280, Note_on_c, 1, 50, 75
1, 65304, Note_on_c, 0, 70, 69
1, 65327, Note_on_c, 0, 70, 0
1, 65328, Note_on_c, 0, 74, 69
1, 65351, Note_on_c, 0, 74, 0
1, 65352, Note_on_c, 0, 70, 69
1, 65375, Note_on_c, 0, 70, 0
1, 65376, Note_on_c, 0, 77, 69
1, 65399, Note_on_c, 0, 77, 0
1, 65400, Note_on_c, 0, 74, 69
1, 65423, Note_on_c, 0, 74, 0
1, 65424, Note_on_c, 0, 80, 69
1, 65447, Note_on_c, 0, 80, 0
1, 65448, Note_on_c, 0, 77, 69
1, 65457, Note_on_c, 1, 58, 0
1, 65457, Note_on_c, 1, 53, 0
1, 65457, Note_on_c, 1, 50, 0
1, 65471, Note_on_c, 0, 77, 0
1, 65472, Note_on_c, 1, 58, 75
1, 65472, Note_on_c, 1, 55, 75
1, 65472, Note_on_c, 1, 51, 75
1, 65496, Note_on_c, 0, 70, 69
1, 65519, Note_on_c, 0, 70, 0
1, 65520, Note_on_c, 0, 75, 69
1, 65543, Note_on_c, 0, 75, 0
1, 65544, Note_on_c, 0, 70, 69
1, 65561, Note_on_c, 1, 58, 0
1, 65561, Note_on_c, 1, 55, 0
1, 65561, Note_on_c, 1, 51, 0
1, 65567, Note_on_c, 0, 70, 0
1, 65568, Note_on_c, 0, 79, 69
1, 65591, Note_on_c, 0, 79, 0
1, 65592, Note_on_c, 0, 75, 69
1, 65615, Note_on_c, 0, 75, 0
1, 65616, Note_on_c, 0, 82, 69
1, 65616, Note_on_c, 1, 63, 75
1, 65639, Note_on_c, 0, 82, 0
1, 65640, Note_on_c, 0, 79, 69
1, 65661, Note_on_c, 1, 63, 0
1, 65664, Note_on_c, 1, 68, 75
1, 65687, Note_on_c, 0, 79, 0
1, 65688, Note_on_c, 0, 77, 75
1, 65709, Note_on_c, 1, 68, 0
1, 65712, Note_on_c, 1, 67, 75
1, 65733, Note_on_c, 0, 77, 0
1, 65736, Note_on_c, 0, 76, 77
1, 65757, Note_on_c, 1, 67, 0
1, 65760, Note_on_c, 1, 68, 78
1, 65781, Note_on_c, 0, 76, 0
1, 65784, Note_on_c, 0, 77, 80
1, 65805, Note_on_c, 1, 68, 0
1, 65808, Note_on_c, 1, 69, 81
1, 65829, Note_on_c, 0, 77, 0
1, 65832, Note_on_c, 0, 75, 82
1, 65853, Note_on_c, 1, 69, 0
1, 65856, Note_on_c, 1, 70, 84
1, 65879, Note_on_c, 0, 75, 0
1, 65880, Note_on_c, 0, 74, 84
1, 65903, Note_on_c, 0, 74, 0
1, 65904, Note_on_c, 0, 72, 84
1, 65927, Note_on_c, 0, 72, 0
1, 65928, Note_on_c, 0, 70, 84
1, 65945, Note_on_c, 1, 70, 0
1, 65951, Note_on_c, 0, 70, 0
1, 65952, Note_on_c, 0, 70, 84
1, 65972, Note_on_c, 0, 70, 0
1, 66000, Note_on_c, 0, 70, 75
1, 66000, Note_on_c, 1, 51, 75
1, 66023, Note_on_c, 0, 70, 0
1, 66024, Note_on_c, 0, 67, 75
1, 66045, Note_on_c, 1, 51, 0
1, 66048, Note_on_c, 1, 56, 76
1, 66071, Note_on_c, 0, 67, 0
1, 66072, Note_on_c, 0, 65, 77
1, 66093, Note_on_c, 1, 56, 0
1, 66096, Note_on_c, 1, 55, 78
1, 66117, Note_on_c, 0, 65, 0
1, 66120, Note_on_c, 0, 64, 79
1, 66141, Note_on_c, 1, 55, 0
1, 66144, Note_on_c, 1, 56, 80
1, 66165, Note_on_c, 0, 64, 0
1, 66168, Note_on_c, 0, 65, 81
1, 66189, Note_on_c, 1, 56, 0
1, 66192, Note_on_c, 1, 57, 82
1, 66213, Note_on_c, 0, 65, 0
1, 66216, Note_on_c, 0, 63, 83
1, 66237, Note_on_c, 1, 57, 0
1, 66240, Note_on_c, 1, 58, 84
1, 66263, Note_on_c, 0, 63, 0
1, 66264, Note_on_c, 0, 62, 84
1, 66287, Note_on_c, 0, 62, 0
1, 66288, Note_on_c, 0, 60, 84
1, 66311, Note_on_c, 0, 60, 0
1, 66312, Note_on_c, 0, 58, 84
1, 66329, Note_on_c, 1, 58, 0
1, 66335, Note_on_c, 0, 58, 0
1, 66336, Note_on_c, 0, 58, 84
1, 66356, Note_on_c, 0, 58, 0
1, 66384, Note_on_c, 0, 63, 75
1, 66404, Note_on_c, 0, 63, 0
1, 66432, Note_on_c, 0, 67, 75
1, 66432, Note_on_c, 1, 51, 61
1, 66455, Note_on_c, 1, 51, 0
1, 66456, Note_on_c, 1, 58, 61
1, 66479, Note_on_c, 1, 58, 0
1, 66480, Note_on_c, 1, 55, 61
1, 66503, Note_on_c, 1, 55, 0
1, 66504, Note_on_c, 1, 58, 61
1, 66527, Note_on_c, 1, 58, 0
1, 66528, Note_on_c, 1, 51, 61
1, 66551, Note_on_c, 1, 51, 0
1, 66552, Note_on_c, 1, 58, 61
1, 66565, Note_on_c, 0, 67, 0
1, 66575, Note_on_c, 1, 58, 0
1, 66576, Note_on_c, 0, 70, 75
1, 66576, Note_on_c, 1, 55, 61
1, 66599, Note_on_c, 0, 70, 0
1, 66599, Note_on_c, 1, 55, 0
1, 66600, Note_on_c, 0, 67, 75
1, 66600, Note_on_c, 1, 58, 61
1, 66623, Note_on_c, 0, 67, 0
1, 66623, Note_on_c, 1, 58, 0
1, 66624, Note_on_c, 0, 68, 75
1, 66624, Note_on_c, 1, 50, 61
1, 66647, Note_on_c, 1, 50, 0
1, 66648, Note_on_c, 1, 58, 61
1, 66671, Note_on_c, 1, 58, 0
1, 66672, Note_on_c, 1, 53, 61
1, 66695, Note_on_c, 1, 53, 0
1, 66696, Note_on_c, 1, 58, 61
1, 66719, Note_on_c, 1, 58, 0
1, 66720, Note_on_c, 1, 50, 61
1, 66743, Note_on_c, 1, 50, 0
1, 66744, Note_on_c, 1, 58, 61
1, 66757, Note_on_c, 0, 68, 0
1, 66767, Note_on_c, 1, 58, 0
1, 66768, Note_on_c, 0, 65, 75
1, 66768, Note_on_c, 1, 53, 61
1, 66791, Note_on_c, 0, 65, 0
1, 66791, Note_on_c, 1, 53, 0
1, 66792, Note_on_c, 0, 62, 75
1, 66792, Note_on_c, 1, 58, 61
1, 66815, Note_on_c, 0, 62, 0
1, 66815, Note_on_c, 1, 58, 0
1, 66816, Note_on_c, 0, 56, 75
1, 66816, Note_on_c, 1, 50, 61
1, 66839, Note_on_c, 1, 50, 0
1, 66840, Note_on_c, 1, 58, 61
1, 66863, Note_on_c, 1, 58, 0
1, 66864, Note_on_c, 1, 53, 61
1, 66887, Note_on_c, 1, 53, 0
1, 66888, Note_on_c, 1, 58, 61
1, 66911, Note_on_c, 1, 58, 0
1, 66912, Note_on_c, 1, 50, 61
1, 66935, Note_on_c, 1, 50, 0
1, 66936, Note_on_c, 1, 58, 61
1, 66956, Note_on_c, 0, 56, 0
1, 66959, Note_on_c, 1, 58, 0
1, 66960, Note_on_c, 0, 68, 75
1, 66960, Note_on_c, 1, 53, 61
1, 66983, Note_on_c, 0, 68, 0
1, 66983, Note_on_c, 1, 53, 0
1, 66984, Note_on_c, 0, 65, 75
1, 66984, Note_on_c, 1, 58, 61
1, 67007, Note_on_c, 0, 65, 0
1, 67007, Note_on_c, 1, 58, 0
1, 67008, Note_on_c, 0, 67, 75
1, 67008, Note_on_c, 1, 51, 61
1, 67031, Note_on_c, 1, 51, 0
1, 67032, Note_on_c, 1, 58, 61
1, 67055, Note_on_c, 1, 58, 0
1, 67056, Note_on_c, 1, 55, 61
1, 67079, Note_on_c, 1, 55, 0
1, 67080, Note_on_c, 1, 58, 61
1, 67103, Note_on_c, 1, 58, 0
1, 67104, Note_on_c, 1, 51, 61
1, 67127, Note_on_c, 1, 51, 0
1, 67128, Note_on_c, 1, 58, 61
1, 67141, Note_on_c, 0, 67, 0
1, 67151, Note_on_c, 1, 58, 0
1, 67152, Note_on_c, 0, 63, 75
1, 67152, Note_on_c, 1, 55, 61
1, 67164, Note_on_c, 0, 63, 0
1, 67164, Note_on_c, 0, 65, 75
1, 67175, Note_on_c, 1, 55, 0
1, 67176, Note_on_c, 0, 65, 0
1, 67176, Note_on_c, 0, 63, 75
1, 67176, Note_on_c, 1, 58, 61
1, 67188, Note_on_c, 0, 63, 0
1, 67188, Note_on_c, 0, 65, 75
1, 67199, Note_on_c, 1, 58, 0
1, 67200, Note_on_c, 0, 65, 0
1, 67200, Note_on_c, 0, 67, 75
1, 67200, Note_on_c, 1, 51, 61
1, 67223, Note_on_c, 1, 51, 0
1, 67224, Note_on_c, 1, 58, 61
1, 67245, Note_on_c, 0, 67, 0
1, 67247, Note_on_c, 1, 58, 0
1, 67248, Note_on_c, 0, 67, 75
1, 67248, Note_on_c, 1, 55, 61
1, 67260, Note_on_c, 0, 67, 0
1, 67260, Note_on_c, 0, 68, 75
1, 67271, Note_on_c, 1, 55, 0
1, 67272, Note_on_c, 0, 68, 0
1, 67272, Note_on_c, 0, 67, 75
1, 67272, Note_on_c, 1, 58, 61
1, 67284, Note_on_c, 0, 67, 0
1, 67284, Note_on_c, 0, 68, 75
1, 67295, Note_on_c, 1, 58, 0
1, 67296, Note_on_c, 0, 68, 0
1, 67296, Note_on_c, 0, 70, 75
1, 67296, Note_on_c, 1, 51, 61
1, 67319, Note_on_c, 1, 51, 0
1, 67320, Note_on_c, 1, 58, 61
1, 67341, Note_on_c, 0, 70, 0
1, 67343, Note_on_c, 1, 58, 0
1, 67344, Note_on_c, 0, 75, 75
1, 67344, Note_on_c, 1, 55, 61
1, 67367, Note_on_c, 1, 55, 0
1, 67368, Note_on_c, 1, 58, 61
1, 67389, Note_on_c, 0, 75, 0
1, 67391, Note_on_c, 1, 58, 0
1, 67392, Note_on_c, 0, 75, 75
1, 67392, Note_on_c, 1, 51, 61
1, 67415, Note_on_c, 1, 51, 0
1, 67416, Note_on_c, 0, 75, 0
1, 67416, Note_on_c, 0, 72, 75
1, 67416, Note_on_c, 1, 60, 61
1, 67439, Note_on_c, 0, 72, 0
1, 67439, Note_on_c, 1, 60, 0
1, 67440, Note_on_c, 0, 72, 75
1, 67440, Note_on_c, 1, 56, 61
1, 67463, Note_on_c, 1, 56, 0
1, 67464, Note_on_c, 1, 60, 61
1, 67487, Note_on_c, 1, 60, 0
1, 67488, Note_on_c, 1, 51, 61
1, 67511, Note_on_c, 1, 51, 0
1, 67512, Note_on_c, 1, 60, 61
1, 67529, Note_on_c, 0, 72, 0
1, 67535, Note_on_c, 1, 60, 0
1, 67536, Note_on_c, 0, 75, 75
1, 67536, Note_on_c, 1, 56, 61
1, 67559, Note_on_c, 1, 56, 0
1, 67560, Note_on_c, 1, 60, 61
1, 67581, Note_on_c, 0, 75, 0
1, 67583, Note_on_c, 1, 60, 0
1, 67584, Note_on_c, 0, 75, 75
1, 67584, Note_on_c, 1, 51, 61
1, 67607, Note_on_c, 1, 51, 0
1, 67608, Note_on_c, 0, 75, 0
1, 67608, Note_on_c, 0, 70, 75
1, 67608, Note_on_c, 1, 58, 61
1, 67631, Note_on_c, 0, 70, 0
1, 67631, Note_on_c, 1, 58, 0
1, 67632, Note_on_c, 0, 70, 75
1, 67632, Note_on_c, 1, 55, 61
1, 67655, Note_on_c, 1, 55, 0
1, 67656, Note_on_c, 1, 58, 61
1, 67679, Note_on_c, 1, 58, 0
1, 67680, Note_on_c, 1, 51, 61
1, 67703, Note_on_c, 1, 51, 0
1, 67704, Note_on_c, 1, 58, 61
1, 67721, Note_on_c, 0, 70, 0
1, 67727, Note_on_c, 1, 58, 0
1, 67728, Note_on_c, 0, 75, 75
1, 67728, Note_on_c, 1, 55, 61
1, 67751, Note_on_c, 1, 55, 0
1, 67752, Note_on_c, 0, 75, 0
1, 67752, Note_on_c, 0, 70, 75
1, 67752, Note_on_c, 1, 58, 61
1, 67775, Note_on_c, 0, 70, 0
1, 67775, Note_on_c, 1, 58, 0
1, 67776, Note_on_c, 0, 70, 75
1, 67776, Note_on_c, 1, 51, 61
1, 67799, Note_on_c, 1, 51, 0
1, 67800, Note_on_c, 0, 70, 0
1, 67800, Note_on_c, 0, 69, 75
1, 67800, Note_on_c, 1, 60, 61
1, 67823, Note_on_c, 0, 69, 0
1, 67823, Note_on_c, 1, 60, 0
1, 67824, Note_on_c, 0, 69, 75
1, 67824, Note_on_c, 1, 54, 61
1, 67847, Note_on_c, 1, 54, 0
1, 67848, Note_on_c, 1, 60, 61
1, 67869, Note_on_c, 0, 69, 0
1, 67871, Note_on_c, 1, 60, 0
1, 67872, Note_on_c, 0, 69, 75
1, 67872, Note_on_c, 1, 51, 61
1, 67895, Note_on_c, 1, 51, 0
1, 67896, Note_on_c, 1, 60, 61
1, 67917, Note_on_c, 0, 69, 0
1, 67919, Note_on_c, 1, 60, 0
1, 67920, Note_on_c, 0, 69, 75
1, 67920, Note_on_c, 1, 54, 61
1, 67943, Note_on_c, 1, 54, 0
1, 67944, Note_on_c, 1, 60, 61
1, 67965, Note_on_c, 0, 69, 0
1, 67967, Note_on_c, 1, 60, 0
1, 67968, Note_on_c, 0, 69, 75
1, 67968, Note_on_c, 1, 51, 61
1, 67980, Note_on_c, 0, 69, 0
1, 67980, Note_on_c, 0, 78, 91
1, 67991, Note_on_c, 1, 51, 0
1, 67992, Note_on_c, 1, 60, 61
1, 68015, Note_on_c, 1, 60, 0
1, 68016, Note_on_c, 1, 57, 61
1, 68039, Note_on_c, 1, 57, 0
1, 68040, Note_on_c, 1, 60, 61
1, 68063, Note_on_c, 1, 60, 0
1, 68064, Note_on_c, 1, 51, 61
1, 68087, Note_on_c, 1, 51, 0
1, 68088, Note_on_c, 1, 60, 61
1, 68098, Note_on_c, 0, 78, 0
1, 68100, Note_on_c, 0, 69, 91
1, 68111, Note_on_c, 1, 60, 0
1, 68112, Note_on_c, 0, 69, 0
1, 68112, Note_on_c, 0, 70, 75
1, 68112, Note_on_c, 1, 57, 61
1, 68124, Note_on_c, 0, 70, 0
1, 68124, Note_on_c, 0, 69, 75
1, 68135, Note_on_c, 1, 57, 0
1, 68136, Note_on_c, 0, 69, 0
1, 68136, Note_on_c, 0, 67, 75
1, 68136, Note_on_c, 1, 60, 61
1, 68148, Note_on_c, 0, 67, 0
1, 68148, Note_on_c, 0, 69, 75
1, 68159, Note_on_c, 1, 60, 0
1, 68160, Note_on_c, 0, 69, 0
1, 68160, Note_on_c, 0, 70, 75
1, 68160, Note_on_c, 1, 50, 61
1, 68180, Note_on_c, 0, 70, 0
1, 68183, Note_on_c, 1, 50, 0
1, 68184, Note_on_c, 1, 58, 61
1, 68207, Note_on_c, 1, 58, 0
1, 68208, Note_on_c, 0, 70, 75
1, 68208, Note_on_c, 1, 53, 61
1, 68231, Note_on_c, 1, 53, 0
1, 68232, Note_on_c, 1, 58, 61
1, 68255, Note_on_c, 1, 58, 0
1, 68256, Note_on_c, 1, 50, 61
1, 68279, Note_on_c, 1, 50, 0
1, 68280, Note_on_c, 1, 58, 61
1, 68297, Note_on_c, 0, 70, 0
1, 68303, Note_on_c, 1, 58, 0
1, 68304, Note_on_c, 0, 72, 75
1, 68304, Note_on_c, 1, 53, 61
1, 68327, Note_on_c, 0, 72, 0
1, 68327, Note_on_c, 1, 53, 0
1, 68328, Note_on_c, 0, 68, 75
1, 68328, Note_on_c, 1, 58, 61
1, 68351, Note_on_c, 0, 68, 0
1, 68351, Note_on_c, 1, 58, 0
1, 68352, Note_on_c, 0, 68, 75
1, 68352, Note_on_c, 1, 51, 61
1, 68375, Note_on_c, 0, 68, 0
1, 68375, Note_on_c, 1, 51, 0
1, 68376, Note_on_c, 0, 67, 75
1, 68376, Note_on_c, 1, 58, 61
1, 68399, Note_on_c, 0, 67, 0
1, 68399, Note_on_c, 1, 58, 0
1, 68400, Note_on_c, 0, 70, 75
1, 68400, Note_on_c, 1, 55, 61
1, 68423, Note_on_c, 0, 70, 0
1, 68423, Note_on_c, 1, 55, 0
1, 68424, Note_on_c, 0, 63, 75
1, 68424, Note_on_c, 1, 58, 61
1, 68447, Note_on_c, 0, 63, 0
1, 68447, Note_on_c, 1, 58, 0
1, 68448, Note_on_c, 0, 63, 75
1, 68448, Note_on_c, 1, 53, 61
1, 68471, Note_on_c, 0, 63, 0
1, 68471, Note_on_c, 1, 53, 0
1, 68472, Note_on_c, 0, 62, 75
1, 68472, Note_on_c, 1, 58, 61
1, 68495, Note_on_c, 0, 62, 0
1, 68495, Note_on_c, 1, 58, 0
1, 68496, Note_on_c, 0, 65, 75
1, 68496, Note_on_c, 1, 56, 61
1, 68519, Note_on_c, 0, 65, 0
1, 68519, Note_on_c, 1, 56, 0
1, 68520, Note_on_c, 0, 62, 75
1, 68520, Note_on_c, 1, 58, 61
1, 68543, Note_on_c, 0, 62, 0
1, 68543, Note_on_c, 1, 58, 0
1, 68544, Note_on_c, 0, 63, 75
1, 68544, Note_on_c, 1, 55, 61
1, 68564, Note_on_c, 0, 63, 0
1, 68567, Note_on_c, 1, 55, 0
1, 68568, Note_on_c, 1, 58, 61
1, 68591, Note_on_c, 1, 58, 0
1, 68592, Note_on_c, 0, 67, 75
1, 68592, Note_on_c, 1, 51, 61
1, 68612, Note_on_c, 0, 67, 0
1, 68615, Note_on_c, 1, 51, 0
1, 68616, Note_on_c, 1, 58, 61
1, 68639, Note_on_c, 1, 58, 0
1, 68640, Note_on_c, 0, 65, 75
1, 68640, Note_on_c, 1, 50, 61
1, 68660, Note_on_c, 0, 65, 0
1, 68663, Note_on_c, 1, 50, 0
1, 68664, Note_on_c, 1, 58, 61
1, 68687, Note_on_c, 1, 58, 0
1, 68688, Note_on_c, 0, 68, 75
1, 68688, Note_on_c, 1, 53, 61
1, 68708, Note_on_c, 0, 68, 0
1, 68711, Note_on_c, 1, 53, 0
1, 68712, Note_on_c, 1, 58, 61
1, 68735, Note_on_c, 1, 58, 0
1, 68736, Note_on_c, 0, 68, 75
1, 68736, Note_on_c, 1, 51, 61
1, 68759, Note_on_c, 0, 68, 0
1, 68759, Note_on_c, 1, 51, 0
1, 68760, Note_on_c, 0, 67, 75
1, 68760, Note_on_c, 1, 58, 61
1, 68783, Note_on_c, 0, 67, 0
1, 68783, Note_on_c, 1, 58, 0
1, 68784, Note_on_c, 0, 70, 75
1, 68784, Note_on_c, 1, 55, 61
1, 68807, Note_on_c, 0, 70, 0
1, 68807, Note_on_c, 1, 55, 0
1, 68808, Note_on_c, 0, 63, 75
1, 68808, Note_on_c, 1, 58, 61
1, 68831, Note_on_c, 0, 63, 0
1, 68831, Note_on_c, 1, 58, 0
1, 68832, Note_on_c, 0, 63, 75
1, 68832, Note_on_c, 1, 53, 61
1, 68855, Note_on_c, 0, 63, 0
1, 68855, Note_on_c, 1, 53, 0
1, 68856, Note_on_c, 0, 62, 75
1, 68856, Note_on_c, 1, 58, 61
1, 68879, Note_on_c, 0, 62, 0
1, 68879, Note_on_c, 1, 58, 0
1, 68880, Note_on_c, 0, 65, 75
1, 68880, Note_on_c, 1, 56, 61
1, 68903, Note_on_c, 0, 65, 0
1, 68903, Note_on_c, 1, 56, 0
1, 68904, Note_on_c, 0, 62, 75
1, 68904, Note_on_c, 1, 58, 61
1, 68927, Note_on_c, 0, 62, 0
1, 68927, Note_on_c, 1, 58, 0
1, 68928, Note_on_c, 0, 63, 75
1, 68928, Note_on_c, 1, 55, 61
1, 68948, Note_on_c, 0, 63, 0
1, 68951, Note_on_c, 1, 55, 0
1, 68952, Note_on_c, 1, 58, 61
1, 68975, Note_on_c, 1, 58, 0
1, 68976, Note_on_c, 0, 67, 75
1, 68976, Note_on_c, 1, 51, 61
1, 68996, Note_on_c, 0, 67, 0
1, 68999, Note_on_c, 1, 51, 0
1, 69000, Note_on_c, 1, 58, 61
1, 69023, Note_on_c, 1, 58, 0
1, 69024, Note_on_c, 0, 65, 75
1, 69024, Note_on_c, 1, 50, 61
1, 69044, Note_on_c, 0, 65, 0
1, 69047, Note_on_c, 1, 50, 0
1, 69048, Note_on_c, 1, 58, 61
1, 69071, Note_on_c, 1, 58, 0
1, 69072, Note_on_c, 0, 68, 75
1, 69072, Note_on_c, 1, 53, 61
1, 69092, Note_on_c, 0, 68, 0
1, 69095, Note_on_c, 1, 53, 0
1, 69096, Note_on_c, 1, 58, 61
1, 69119, Note_on_c, 1, 58, 0
1, 69120, Note_on_c, 0, 67, 75
1, 69120, Note_on_c, 1, 51, 61
1, 69130, Note_on_c, 0, 67, 0
1, 69144, Note_on_c, 0, 75, 75
1, 69167, Note_on_c, 0, 75, 0
1, 69168, Note_on_c, 0, 74, 75
1, 69191, Note_on_c, 0, 74, 0
1, 69192, Note_on_c, 0, 75, 75
1, 69209, Note_on_c, 1, 51, 0
1, 69215, Note_on_c, 0, 75, 0
1, 69216, Note_on_c, 1, 55, 65
1, 69240, Note_on_c, 0, 73, 75
1, 69263, Note_on_c, 0, 73, 0
1, 69264, Note_on_c, 0, 72, 75
1, 69287, Note_on_c, 0, 72, 0
1, 69288, Note_on_c, 0, 71, 75
1, 69305, Note_on_c, 1, 55, 0
1, 69311, Note_on_c, 0, 71, 0
1, 69312, Note_on_c, 1, 56, 70
1, 69336, Note_on_c, 0, 72, 75
1, 69359, Note_on_c, 0, 72, 0
1, 69360, Note_on_c, 0, 71, 75
1, 69383, Note_on_c, 0, 71, 0
1, 69384, Note_on_c, 0, 72, 75
1, 69401, Note_on_c, 1, 56, 0
1, 69407, Note_on_c, 0, 72, 0
1, 69408, Note_on_c, 0, 70, 75
1, 69431, Note_on_c, 0, 70, 0
1, 69432, Note_on_c, 0, 68, 75
1, 69455, Note_on_c, 0, 68, 0
1, 69456, Note_on_c, 0, 67, 75
1, 69479, Note_on_c, 0, 67, 0
1, 69480, Note_on_c, 0, 65, 75
1, 69503, Note_on_c, 0, 65, 0
1, 69504, Note_on_c, 0, 70, 91
1, 69514, Note_on_c, 0, 70, 0
1, 69528, Note_on_c, 0, 72, 75
1, 69536, Note_on_c, 0, 72, 0
1, 69536, Note_on_c, 0, 70, 75
1, 69544, Note_on_c, 0, 70, 0
1, 69544, Note_on_c, 0, 68, 75
1, 69552, Note_on_c, 0, 68, 0
1, 69552, Note_on_c, 0, 70, 75
1, 69552, Note_on_c, 1, 55, 75
1, 69575, Note_on_c, 0, 70, 0
1, 69576, Note_on_c, 0, 72, 75
1, 69597, Note_on_c, 1, 55, 0
1, 69599, Note_on_c, 0, 72, 0
1, 69600, Note_on_c, 0, 63, 75
1, 69600, Note_on_c, 1, 56, 75
1, 69645, Note_on_c, 0, 63, 0
1, 69645, Note_on_c, 1, 56, 0
1, 69648, Note_on_c, 0, 62, 75
1, 69648, Note_on_c, 1, 58, 75
1, 69693, Note_on_c, 0, 62, 0
1, 69693, Note_on_c, 1, 58, 0
1, 69696, Note_on_c, 0, 63, 75
1, 69696, Note_on_c, 1, 51, 75
1, 69741, Note_on_c, 0, 63, 0
1, 69744, Note_on_c, 0, 79, 75
1, 69764, Note_on_c, 0, 79, 0
1, 69785, Note_on_c, 1, 51, 0
1, 69792, Note_on_c, 0, 77, 75
1, 69815, Note_on_c, 0, 77, 0
1, 69816, Note_on_c, 0, 75, 75
1, 69839, Note_on_c, 0, 75, 0
1, 69840, Note_on_c, 0, 74, 75
1, 69840, Note_on_c, 1, 67, 61
1, 69840, Note_on_c, 1, 63, 61
1, 69863, Note_on_c, 0, 74, 0
1, 69864, Note_on_c, 0, 72, 75
1, 69885, Note_on_c, 1, 67, 0
1, 69885, Note_on_c, 1, 63, 0
1, 69888, Note_on_c, 1, 65, 61
1, 69888, Note_on_c, 1, 62, 61
1, 69933, Note_on_c, 0, 72, 0
1, 69936, Note_on_c, 0, 70, 75
1, 69977, Note_on_c, 1, 65, 0
1, 69977, Note_on_c, 1, 62, 0
1, 69984, Note_on_c, 1, 63, 61
1, 69984, Note_on_c, 1, 60, 61
1, 70018, Note_on_c, 0, 70, 0
1, 70020, Note_on_c, 0, 69, 75
1, 70032, Note_on_c, 0, 69, 0
1, 70032, Note_on_c, 0, 75, 75
1, 70032, Note_on_c, 1, 63, 0
1, 70032, Note_on_c, 1, 69, 61
1, 70077, Note_on_c, 1, 69, 0
1, 70077, Note_on_c, 1, 60, 0
1, 70080, Note_on_c, 0, 75, 0
1, 70080, Note_on_c, 0, 74, 75
1, 70080, Note_on_c, 1, 70, 61
1, 70080, Note_on_c, 1, 58, 61
1, 70100, Note_on_c, 0, 74, 0
1, 70125, Note_on_c, 1, 70, 0
1, 70125, Note_on_c, 1, 58, 0
1, 70128, Note_on_c, 0, 75, 75
1, 70128, Note_on_c, 1, 67, 61
1, 70128, Note_on_c, 1, 60, 61
1, 70173, Note_on_c, 0, 75, 0
1, 70173, Note_on_c, 1, 67, 0
1, 70173, Note_on_c, 1, 60, 0
1, 70176, Note_on_c, 0, 74, 75
1, 70199, Note_on_c, 0, 74, 0
1, 70200, Note_on_c, 0, 72, 75
1, 70223, Note_on_c, 0, 72, 0
1, 70224, Note_on_c, 0, 70, 75
1, 70224, Note_on_c, 1, 63, 61
1, 70224, Note_on_c, 1, 60, 61
1, 70247, Note_on_c, 0, 70, 0
1, 70248, Note_on_c, 0, 68, 75
1, 70269, Note_on_c, 1, 63, 0
1, 70269, Note_on_c, 1, 60, 0
1, 70272, Note_on_c, 1, 62, 61
1, 70272, Note_on_c, 1, 58, 61
1, 70317, Note_on_c, 0, 68, 0
1, 70320, Note_on_c, 0, 67, 75
1, 70361, Note_on_c, 1, 62, 0
1, 70361, Note_on_c, 1, 58, 0
1, 70368, Note_on_c, 1, 60, 61
1, 70368, Note_on_c, 1, 57, 61
1, 70402, Note_on_c, 0, 67, 0
1, 70404, Note_on_c, 0, 66, 75
1, 70416, Note_on_c, 0, 66, 0
1, 70416, Note_on_c, 0, 72, 75
1, 70416, Note_on_c, 1, 60, 0
1, 70416, Note_on_c, 1, 66, 61
1, 70461, Note_on_c, 1, 66, 0
1, 70461, Note_on_c, 1, 57, 0
1, 70464, Note_on_c, 0, 72, 0
1, 70464, Note_on_c, 0, 70, 75
1, 70464, Note_on_c, 1, 67, 61
1, 70464, Note_on_c, 1, 55, 61
1, 70484, Note_on_c, 0, 70, 0
1, 70509, Note_on_c, 1, 67, 0
1, 70509, Note_on_c, 1, 55, 0
1, 70512, Note_on_c, 0, 71, 75
1, 70512, Note_on_c, 1, 63, 61
1, 70512, Note_on_c, 1, 56, 61
1, 70536, Note_on_c, 0, 71, 0
1, 70536, Note_on_c, 0, 72, 75
1, 70557, Note_on_c, 1, 63, 0
1, 70557, Note_on_c, 1, 56, 0
1, 70559, Note_on_c, 0, 72, 0
1, 70560, Note_on_c, 0, 70, 75
1, 70583, Note_on_c, 0, 70, 0
1, 70584, Note_on_c, 0, 68, 75
1, 70607, Note_on_c, 0, 68, 0
1, 70608, Note_on_c, 0, 67, 75
1, 70608, Note_on_c, 1, 60, 61
1, 70608, Note_on_c, 1, 56, 61
1, 70631, Note_on_c, 0, 67, 0
1, 70632, Note_on_c, 0, 65, 75
1, 70653, Note_on_c, 1, 60, 0
1, 70653, Note_on_c, 1, 56, 0
1, 70656, Note_on_c, 1, 58, 61
1, 70656, Note_on_c, 1, 55, 61
1, 70701, Note_on_c, 0, 65, 0
1, 70704, Note_on_c, 0, 63, 75
1, 70745, Note_on_c, 1, 58, 0
1, 70745, Note_on_c, 1, 55, 0
1, 70752, Note_on_c, 1, 56, 61
1, 70752, Note_on_c, 1, 53, 61
1, 70786, Note_on_c, 0, 63, 0
1, 70788, Note_on_c, 0, 62, 75
1, 70800, Note_on_c, 0, 62, 0
1, 70800, Note_on_c, 0, 68, 75
1, 70800, Note_on_c, 1, 56, 0
1, 70800, Note_on_c, 1, 62, 61
1, 70845, Note_on_c, 1, 62, 0
1, 70845, Note_on_c, 1, 53, 0
1, 70848, Note_on_c, 1, 63, 61
1, 70848, Note_on_c, 1, 58, 61
1, 70848, Note_on_c, 1, 51, 61
1, 70893, Note_on_c, 0, 68, 0
1, 70896, Note_on_c, 0, 67, 75
1, 70937, Note_on_c, 1, 63, 0
1, 70937, Note_on_c, 1, 58, 0
1, 70937, Note_on_c, 1, 51, 0
1, 70941, Note_on_c, 0, 67, 0
1, 70944, Note_on_c, 1, 62, 61
1, 70944, Note_on_c, 1, 58, 61
1, 70944, Note_on_c, 1, 53, 61
1, 70980, Note_on_c, 0, 68, 75
1, 70992, Note_on_c, 0, 68, 0
1, 70992, Note_on_c, 0, 70, 75
1, 70998, Note_on_c, 0, 70, 0
1, 70998, Note_on_c, 0, 68, 75
1, 71004, Note_on_c, 0, 68, 0
1, 71004, Note_on_c, 0, 67, 75
1, 71010, Note_on_c, 0, 67, 0
1, 71010, Note_on_c, 0, 68, 75
1, 71033, Note_on_c, 1, 62, 0
1, 71033, Note_on_c, 1, 58, 0
1, 71033, Note_on_c, 1, 53, 0
1, 71040, Note_on_c, 1, 63, 61
1, 71040, Note_on_c, 1, 58, 61
1, 71040, Note_on_c, 1, 51, 61
1, 71074, Note_on_c, 0, 68, 0
1, 71076, Note_on_c, 0, 67, 75
1, 71088, Note_on_c, 0, 67, 0
1, 71088, Note_on_c, 0, 68, 75
1, 71094, Note_on_c, 0, 68, 0
1, 71094, Note_on_c, 0, 67, 75
1, 71100, Note_on_c, 0, 67, 0
1, 71100, Note_on_c, 0, 65, 75
1, 71106, Note_on_c, 0, 65, 0
1, 71106, Note_on_c, 0, 67, 75
1, 71129, Note_on_c, 1, 63, 0
1, 71129, Note_on_c, 1, 58, 0
1, 71129, Note_on_c, 1, 51, 0
1, 71135, Note_on_c, 0, 67, 0
1, 71136, Note_on_c, 1, 62, 61
1, 71136, Note_on_c, 1, 58, 61
1, 71136, Note_on_c, 1, 53, 61
1, 71172, Note_on_c, 0, 68, 75
1, 71184, Note_on_c, 0, 68, 0
1, 71184, Note_on_c, 0, 70, 75
1, 71190, Note_on_c, 0, 70, 0
1, 71190, Note_on_c, 0, 68, 75
1, 71196, Note_on_c, 0, 68, 0
1, 71196, Note_on_c, 0, 67, 75
1, 71202, Note_on_c, 0, 67, 0
1, 71202, Note_on_c, 0, 68, 75
1, 71225, Note_on_c, 1, 62, 0
1, 71225, Note_on_c, 1, 58, 0
1, 71225, Note_on_c, 1, 53, 0
1, 71231, Note_on_c, 0, 68, 0
1, 71232, Note_on_c, 0, 67, 75
1, 71232, Note_on_c, 1, 51, 61
1, 71255, Note_on_c, 1, 51, 0
1, 71256, Note_on_c, 1, 63, 61
1, 71279, Note_on_c, 1, 63, 0
1, 71280, Note_on_c, 1, 58, 61
1, 71299, Note_on_c, 0, 67, 0
1, 71303, Note_on_c, 1, 58, 0
1, 71304, Note_on_c, 0, 68, 75
1, 71304, Note_on_c, 1, 63, 61
1, 71327, Note_on_c, 0, 68, 0
1, 71327, Note_on_c, 1, 63, 0
1, 71328, Note_on_c, 0, 70, 75
1, 71328, Note_on_c, 1, 53, 61
1, 71338, Note_on_c, 0, 70, 0
1, 71338, Note_on_c, 0, 68, 75
1, 71348, Note_on_c, 0, 68, 0
1, 71348, Note_on_c, 0, 70, 75
1, 71351, Note_on_c, 1, 53, 0
1, 71352, Note_on_c, 1, 63, 61
1, 71358, Note_on_c, 0, 70, 0
1, 71358, Note_on_c, 0, 68, 75
1, 71368, Note_on_c, 0, 68, 0
1, 71368, Note_on_c, 0, 70, 75
1, 71375, Note_on_c, 1, 63, 0
1, 71376, Note_on_c, 1, 58, 61
1, 71378, Note_on_c, 0, 70, 0
1, 71378, Note_on_c, 0, 68, 75
1, 71388, Note_on_c, 0, 68, 0
1, 71388, Note_on_c, 0, 70, 75
1, 71397, Note_on_c, 0, 70, 0
1, 71397, Note_on_c, 0, 68, 75
1, 71399, Note_on_c, 1, 58, 0
1, 71400, Note_on_c, 1, 63, 61
1, 71406, Note_on_c, 0, 68, 0
1, 71406, Note_on_c, 0, 67, 75
1, 71415, Note_on_c, 0, 67, 0
1, 71415, Note_on_c, 0, 68, 75
1, 71423, Note_on_c, 1, 63, 0
1, 71424, Note_on_c, 0, 68, 0
1, 71424, Note_on_c, 0, 70, 75
1, 71424, Note_on_c, 1, 55, 61
1, 71444, Note_on_c, 0, 70, 0
1, 71447, Note_on_c, 1, 55, 0
1, 71448, Note_on_c, 1, 63, 61
1, 71471, Note_on_c, 1, 63, 0
1, 71472, Note_on_c, 0, 75, 75
1, 71472, Note_on_c, 1, 58, 61
1, 71495, Note_on_c, 1, 58, 0
1, 71496, Note_on_c, 1, 63, 61
1, 71519, Note_on_c, 1, 63, 0
1, 71520, Note_on_c, 1, 55, 61
1, 71543, Note_on_c, 1, 55, 0
1, 71544, Note_on_c, 1, 63, 61
1, 71561, Note_on_c, 0, 75, 0
1, 71567, Note_on_c, 1, 63, 0
1, 71568, Note_on_c, 0, 73, 75
1, 71568, Note_on_c, 1, 58, 61
1, 71591, Note_on_c, 1, 58, 0
1, 71592, Note_on_c, 1, 63, 61
1, 71615, Note_on_c, 1, 63, 0
1, 71616, Note_on_c, 1, 56, 61
1, 71639, Note_on_c, 1, 56, 0
1, 71640, Note_on_c, 1, 63, 61
1, 71657, Note_on_c, 0, 73, 0
1, 71663, Note_on_c, 1, 63, 0
1, 71664, Note_on_c, 0, 72, 75
1, 71664, Note_on_c, 1, 60, 61
1, 71687, Note_on_c, 1, 60, 0
1, 71688, Note_on_c, 1, 63, 61
1, 71711, Note_on_c, 1, 63, 0
1, 71712, Note_on_c, 1, 56, 61
1, 71735, Note_on_c, 1, 56, 0
1, 71736, Note_on_c, 1, 63, 61
1, 71753, Note_on_c, 0, 72, 0
1, 71759, Note_on_c, 1, 63, 0
1, 71760, Note_on_c, 0, 71, 75
1, 71760, Note_on_c, 1, 55, 61
1, 71783, Note_on_c, 1, 55, 0
1, 71784, Note_on_c, 1, 63, 61
1, 71805, Note_on_c, 0, 71, 0
1, 71807, Note_on_c, 1, 63, 0
1, 71808, Note_on_c, 0, 72, 75
1, 71808, Note_on_c, 1, 56, 61
1, 71831, Note_on_c, 1, 56, 0
1, 71832, Note_on_c, 1, 63, 61
1, 71855, Note_on_c, 1, 63, 0
1, 71856, Note_on_c, 0, 72, 0
1, 71856, Note_on_c, 0, 71, 75
1, 71856, Note_on_c, 1, 55, 61
1, 71879, Note_on_c, 1, 55, 0
1, 71880, Note_on_c, 1, 63, 61
1, 71901, Note_on_c, 0, 71, 0
1, 71903, Note_on_c, 1, 63, 0
1, 71904, Note_on_c, 0, 72, 76
1, 71904, Note_on_c, 1, 56, 61
1, 71927, Note_on_c, 1, 56, 0
1, 71928, Note_on_c, 1, 63, 61
1, 71951, Note_on_c, 1, 63, 0
1, 71952, Note_on_c, 0, 72, 0
1, 71952, Note_on_c, 0, 71, 77
1, 71952, Note_on_c, 1, 55, 61
1, 71975, Note_on_c, 1, 55, 0
1, 71976, Note_on_c, 1, 63, 61
1, 71997, Note_on_c, 0, 71, 0
1, 71999, Note_on_c, 1, 63, 0
1, 72000, Note_on_c, 0, 72, 78
1, 72000, Note_on_c, 1, 56, 61
1, 72023, Note_on_c, 1, 56, 0
1, 72024, Note_on_c, 1, 63, 61
1, 72045, Note_on_c, 0, 72, 0
1, 72047, Note_on_c, 1, 63, 0
1, 72048, Note_on_c, 0, 84, 79
1, 72048, Note_on_c, 1, 60, 61
1, 72071, Note_on_c, 1, 60, 0
1, 72072, Note_on_c, 1, 63, 61
1, 72093, Note_on_c, 0, 84, 0
1, 72095, Note_on_c, 1, 63, 0
1, 72096, Note_on_c, 0, 84, 80
1, 72096, Note_on_c, 1, 56, 61
1, 72119, Note_on_c, 1, 56, 0
1, 72120, Note_on_c, 1, 64, 61
1, 72141, Note_on_c, 0, 84, 0
1, 72143, Note_on_c, 1, 64, 0
1, 72144, Note_on_c, 0, 84, 81
1, 72144, Note_on_c, 1, 60, 61
1, 72167, Note_on_c, 1, 60, 0
1, 72168, Note_on_c, 1, 64, 61
1, 72189, Note_on_c, 0, 84, 0
1, 72191, Note_on_c, 1, 64, 0
1, 72192, Note_on_c, 0, 84, 82
1, 72192, Note_on_c, 1, 56, 61
1, 72215, Note_on_c, 1, 56, 0
1, 72216, Note_on_c, 1, 65, 61
1, 72239, Note_on_c, 1, 65, 0
1, 72240, Note_on_c, 1, 60, 61
1, 72263, Note_on_c, 1, 60, 0
1, 72264, Note_on_c, 1, 65, 61
1, 72281, Note_on_c, 0, 84, 0
1, 72287, Note_on_c, 1, 65, 0
1, 72288, Note_on_c, 0, 82, 84
1, 72288, Note_on_c, 1, 56, 61
1, 72311, Note_on_c, 0, 82, 0
1, 72311, Note_on_c, 1, 56, 0
1, 72312, Note_on_c, 0, 80, 84
1, 72312, Note_on_c, 1, 65, 61
1, 72335, Note_on_c, 0, 80, 0
1, 72335, Note_on_c, 1, 65, 0
1, 72336, Note_on_c, 0, 79, 84
1, 72336, Note_on_c, 1, 60, 61
1, 72359, Note_on_c, 0, 79, 0
1, 72359, Note_on_c, 1, 60, 0
1, 72360, Note_on_c, 0, 77, 84
1, 72360, Note_on_c, 1, 65, 61
1, 72383, Note_on_c, 0, 77, 0
1, 72383, Note_on_c, 1, 65, 0
1, 72384, Note_on_c, 0, 75, 84
1, 72384, Note_on_c, 1, 58, 61
1, 72407, Note_on_c, 1, 58, 0
1, 72408, Note_on_c, 1, 67, 61
1, 72431, Note_on_c, 1, 67, 0
1, 72432, Note_on_c, 1, 63, 61
1, 72455, Note_on_c, 1, 63, 0
1, 72456, Note_on_c, 1, 67, 61
1, 72473, Note_on_c, 0, 75, 0
1, 72479, Note_on_c, 1, 67, 0
1, 72480, Note_on_c, 0, 75, 84
1, 72480, Note_on_c, 1, 58, 61
1, 72492, Note_on_c, 0, 75, 0
1, 72492, Note_on_c, 0, 74, 84
1, 72503, Note_on_c, 1, 58, 0
1, 72504, Note_on_c, 0, 74, 0
1, 72504, Note_on_c, 0, 75, 84
1, 72504, Note_on_c, 1, 67, 61
1, 72516, Note_on_c, 0, 75, 0
1, 72516, Note_on_c, 0, 77, 84
1, 72527, Note_on_c, 1, 67, 0
1, 72528, Note_on_c, 0, 77, 0
1, 72528, Note_on_c, 0, 79, 84
1, 72528, Note_on_c, 1, 63, 61
1, 72540, Note_on_c, 0, 79, 0
1, 72540, Note_on_c, 0, 77, 84
1, 72551, Note_on_c, 1, 63, 0
1, 72552, Note_on_c, 0, 77, 0
1, 72552, Note_on_c, 0, 79, 84
1, 72552, Note_on_c, 1, 67, 61
1, 72564, Note_on_c, 0, 79, 0
1, 72564, Note_on_c, 0, 80, 84
1, 72575, Note_on_c, 1, 67, 0
1, 72576, Note_on_c, 0, 80, 0
1, 72576, Note_on_c, 0, 82, 100
1, 72576, Note_on_c, 1, 58, 61
1, 72599, Note_on_c, 1, 58, 0
1, 72600, Note_on_c, 1, 67, 61
1, 72623, Note_on_c, 1, 67, 0
1, 72624, Note_on_c, 1, 63, 61
1, 72647, Note_on_c, 1, 63, 0
1, 72648, Note_on_c, 1, 67, 61
1, 72671, Note_on_c, 1, 67, 0
1, 72672, Note_on_c, 1, 58, 61
1, 72695, Note_on_c, 0, 82, 0
1, 72695, Note_on_c, 1, 58, 0
1, 72696, Note_on_c, 0, 80, 84
1, 72696, Note_on_c, 1, 67, 61
1, 72708, Note_on_c, 0, 80, 0
1, 72708, Note_on_c, 0, 79, 84
1, 72719, Note_on_c, 1, 67, 0
1, 72720, Note_on_c, 0, 79, 0
1, 72720, Note_on_c, 0, 77, 84
1, 72720, Note_on_c, 1, 63, 61
1, 72732, Note_on_c, 0, 77, 0
1, 72732, Note_on_c, 0, 75, 84
1, 72743, Note_on_c, 1, 63, 0
1, 72744, Note_on_c, 0, 75, 0
1, 72744, Note_on_c, 0, 74, 84
1, 72744, Note_on_c, 1, 67, 61
1, 72756, Note_on_c, 0, 74, 0
1, 72756, Note_on_c, 0, 72, 84
1, 72767, Note_on_c, 1, 67, 0
1, 72768, Note_on_c, 0, 72, 0
1, 72768, Note_on_c, 0, 70, 84
1, 72768, Note_on_c, 1, 58, 61
1, 72791, Note_on_c, 1, 58, 0
1, 72792, Note_on_c, 1, 67, 61
1, 72815, Note_on_c, 1, 67, 0
1, 72816, Note_on_c, 1, 63, 61
1, 72839, Note_on_c, 1, 63, 0
1, 72840, Note_on_c, 1, 67, 61
1, 72863, Note_on_c, 1, 67, 0
1, 72864, Note_on_c, 1, 58, 61
1, 72887, Note_on_c, 1, 58, 0
1, 72888, Note_on_c, 1, 67, 61
1, 72911, Note_on_c, 1, 67, 0
1, 72912, Note_on_c, 1, 63, 61
1, 72931, Note_on_c, 0, 70, 0
1, 72935, Note_on_c, 1, 63, 0
1, 72936, Note_on_c, 0, 75, 84
1, 72936, Note_on_c, 1, 67, 61
1, 72948, Note_on_c, 0, 75, 0
1, 72948, Note_on_c, 0, 77, 84
1, 72959, Note_on_c, 1, 67, 0
1, 72960, Note_on_c, 0, 77, 0
1, 72960, Note_on_c, 0, 79, 84
1, 72960, Note_on_c, 1, 58, 61
1, 72971, Note_on_c, 0, 79, 0
1, 72971, Note_on_c, 0, 77, 84
1, 72982, Note_on_c, 0, 77, 0
1, 72982, Note_on_c, 0, 79, 84
1, 72983, Note_on_c, 1, 58, 0
1, 72984, Note_on_c, 1, 68, 61
1, 72993, Note_on_c, 0, 79, 0
1, 72993, Note_on_c, 0, 77, 84
1, 73004, Note_on_c, 0, 77, 0
1, 73004, Note_on_c, 0, 79, 84
1, 73007, Note_on_c, 1, 68, 0
1, 73008, Note_on_c, 1, 65, 61
1, 73015, Note_on_c, 0, 79, 0
1, 73015, Note_on_c, 0, 77, 84
1, 73026, Note_on_c, 0, 77, 0
1, 73026, Note_on_c, 0, 79, 84
1, 73031, Note_on_c, 1, 65, 0
1, 73032, Note_on_c, 1, 68, 61
1, 73037, Note_on_c, 0, 79, 0
1, 73037, Note_on_c, 0, 77, 84
1, 73048, Note_on_c, 0, 77, 0
1, 73048, Note_on_c, 0, 79, 84
1, 73055, Note_on_c, 1, 68, 0
1, 73056, Note_on_c, 1, 58, 61
1, 73059, Note_on_c, 0, 79, 0
1, 73059, Note_on_c, 0, 77, 84
1, 73070, Note_on_c, 0, 77, 0
1, 73070, Note_on_c, 0, 79, 84
1, 73079, Note_on_c, 1, 58, 0
1, 73080, Note_on_c, 1, 68, 61
1, 73081, Note_on_c, 0, 79, 0
1, 73081, Note_on_c, 0, 77, 84
1, 73092, Note_on_c, 0, 77, 0
1, 73092, Note_on_c, 0, 79, 84
1, 73102, Note_on_c, 0, 79, 0
1, 73102, Note_on_c, 0, 77, 84
1, 73103, Note_on_c, 1, 68, 0
1, 73104, Note_on_c, 1, 65, 61
1, 73112, Note_on_c, 0, 77, 0
1, 73112, Note_on_c, 0, 75, 84
1, 73127, Note_on_c, 1, 65, 0
1, 73128, Note_on_c, 1, 68, 61
1, 73132, Note_on_c, 0, 75, 0
1, 73132, Note_on_c, 0, 77, 84
1, 73151, Note_on_c, 1, 68, 0
1, 73152, Note_on_c, 0, 77, 0
1, 73152, Note_on_c, 0, 75, 84
1, 73152, Note_on_c, 1, 67, 61
1, 73152, Note_on_c, 1, 63, 61
1, 73241, Note_on_c, 0, 75, 0
1, 73241, Note_on_c, 1, 67, 0
1, 73241, Note_on_c, 1, 63, 0
1, 73248, Note_on_c, 1, 63, 75
1, 73248, Note_on_c, 1, 55, 75
1, 73272, Note_on_c, 0, 70, 75
1, 73282, Note_on_c, 0, 70, 0
1, 73296, Note_on_c, 0, 72, 75
1, 73308, Note_on_c, 0, 72, 0
1, 73308, Note_on_c, 0, 70, 75
1, 73320, Note_on_c, 0, 70, 0
1, 73320, Note_on_c, 0, 69, 75
1, 73332, Note_on_c, 0, 69, 0
1, 73332, Note_on_c, 0, 70, 75
1, 73337, Note_on_c, 1, 63, 0
1, 73337, Note_on_c, 1, 55, 0
1, 73344, Note_on_c, 0, 70, 0
1, 73344, Note_on_c, 1, 63, 75
1, 73344, Note_on_c, 1, 56, 75
1, 73368, Note_on_c, 0, 72, 75
1, 73378, Note_on_c, 0, 72, 0
1, 73392, Note_on_c, 0, 74, 75
1, 73404, Note_on_c, 0, 74, 0
1, 73404, Note_on_c, 0, 72, 75
1, 73416, Note_on_c, 0, 72, 0
1, 73416, Note_on_c, 0, 71, 75
1, 73428, Note_on_c, 0, 71, 0
1, 73428, Note_on_c, 0, 72, 75
1, 73433, Note_on_c, 1, 63, 0
1, 73433, Note_on_c, 1, 56, 0
1, 73440, Note_on_c, 0, 72, 0
1, 73440, Note_on_c, 1, 62, 75
1, 73440, Note_on_c, 1, 58, 75
1, 73464, Note_on_c, 0, 74, 75
1, 73487, Note_on_c, 0, 74, 0
1, 73488, Note_on_c, 0, 77, 75
1, 73511, Note_on_c, 0, 77, 0
1, 73512, Note_on_c, 0, 80, 75
1, 73529, Note_on_c, 1, 62, 0
1, 73529, Note_on_c, 1, 58, 0
1, 73535, Note_on_c, 0, 80, 0
1, 73536, Note_on_c, 0, 80, 75
1, 73536, Note_on_c, 1, 63, 75
1, 73536, Note_on_c, 1, 51, 75
1, 73559, Note_on_c, 0, 80, 0
1, 73560, Note_on_c, 0, 79, 75
1, 73583, Note_on_c, 0, 79, 0
1, 73584, Note_on_c, 0, 77, 75
1, 73607, Note_on_c, 0, 77, 0
1, 73608, Note_on_c, 0, 75, 75
1, 73625, Note_on_c, 1, 63, 0
1, 73625, Note_on_c, 1, 51, 0
1, 73631, Note_on_c, 0, 75, 0
1, 73632, Note_on_c, 1, 63, 75
1, 73632, Note_on_c, 1, 55, 75
1, 73656, Note_on_c, 0, 70, 75
1, 73666, Note_on_c, 0, 70, 0
1, 73680, Note_on_c, 0, 72, 75
1, 73692, Note_on_c, 0, 72, 0
1, 73692, Note_on_c, 0, 70, 75
1, 73704, Note_on_c, 0, 70, 0
1, 73704, Note_on_c, 0, 69, 75
1, 73716, Note_on_c, 0, 69, 0
1, 73716, Note_on_c, 0, 70, 75
1, 73721, Note_on_c, 1, 63, 0
1, 73721, Note_on_c, 1, 55, 0
1, 73728, Note_on_c, 0, 70, 0
1, 73728, Note_on_c, 1, 63, 75
1, 73728, Note_on_c, 1, 56, 75
1, 73752, Note_on_c, 0, 72, 75
1, 73762, Note_on_c, 0, 72, 0
1, 73776, Note_on_c, 0, 74, 75
1, 73788, Note_on_c, 0, 74, 0
1, 73788, Note_on_c, 0, 72, 75
1, 73800, Note_on_c, 0, 72, 0
1, 73800, Note_on_c, 0, 71, 75
1, 73812, Note_on_c, 0, 71, 0
1, 73812, Note_on_c, 0, 72, 75
1, 73817, Note_on_c, 1, 63, 0
1, 73817, Note_on_c, 1, 56, 0
1, 73824, Note_on_c, 0, 72, 0
1, 73824, Note_on_c, 1, 58, 75
1, 73824, Note_on_c, 1, 46, 75
1, 73848, Note_on_c, 0, 68, 75
1, 73871, Note_on_c, 0, 68, 0
1, 73872, Note_on_c, 0, 65, 75
1, 73895, Note_on_c, 0, 65, 0
1, 73896, Note_on_c, 0, 62, 75
1, 73906, Note_on_c, 0, 62, 0
1, 73913, Note_on_c, 1, 58, 0
1, 73913, Note_on_c, 1, 46, 0
1, 73920, Note_on_c, 0, 65, 75
1, 73920, Note_on_c, 1, 55, 75
1, 73920, Note_on_c, 1, 51, 75
1, 73932, Note_on_c, 0, 65, 0
1, 73932, Note_on_c, 0, 63, 75
1, 73944, Note_on_c, 0, 63, 0
1, 73944, Note_on_c, 0, 62, 75
1, 73956, Note_on_c, 0, 62, 0
1, 73956, Note_on_c, 0, 63, 75
1, 73968, Note_on_c, 0, 63, 0
1, 73968, Note_on_c, 0, 63, 75
1, 73998, Note_on_c, 0, 63, 0
1, 74014, Note_on_c, 1, 55, 0
1, 74014, Note_on_c, 1, 51, 0
1, 74064, Note_on_c, 1, 51, 0
1, 74109, Note_on_c, 1, 51, 0
1, 74119, End_track
0, 0, End_of_file