0, 0, Header, 0, 1, 96
1, 0, Start_track
1, 0, Tempo, 120000
1, 336, Tempo, 833333
1, 336, Note_on_c, 0, 74, 75
1, 351, Note_on_c, 0, 74, 0
1, 352, Note_on_c, 0, 71, 75
1, 367, Note_on_c, 0, 71, 0
1, 368, Note_on_c, 0, 67, 75
1, 383, Note_on_c, 0, 67, 0
1, 384, Note_on_c, 0, 79, 75
1, 429, Note_on_c, 0, 79, 0
1, 432, Note_on_c, 0, 74, 75
1, 432, Note_on_c, 1, 55, 75
1, 477, Note_on_c, 0, 74, 0
1, 477, Note_on_c, 1, 55, 0
1, 480, Note_on_c, 0, 74, 75
1, 480, Note_on_c, 1, 59, 75
1, 525, Note_on_c, 0, 74, 0
1, 525, Note_on_c, 1, 59, 0
1, 528, Note_on_c, 0, 74, 75
1, 528, Note_on_c, 1, 55, 75
1, 573, Note_on_c, 0, 74, 0
1, 573, Note_on_c, 1, 55, 0
1, 576, Note_on_c, 0, 72, 75
1, 576, Note_on_c, 1, 57, 75
1, 588, Note_on_c, 0, 72, 0
1, 588, Note_on_c, 0, 71, 75
1, 600, Note_on_c, 0, 71, 0
1, 600, Note_on_c, 0, 72, 75
1, 612, Note_on_c, 0, 72, 0
1, 612, Note_on_c, 0, 74, 75
1, 624, Note_on_c, 0, 74, 0
1, 624, Note_on_c, 0, 76, 75
1, 643, Note_on_c, 1, 57, 0
1, 648, Note_on_c, 1, 60, 75
1, 671, Note_on_c, 1, 60, 0
1, 672, Note_on_c, 1, 54, 75
1, 717, Note_on_c, 0, 76, 0
1, 717, Note_on_c, 1, 54, 0
1, 720, Note_on_c, 0, 69, 75
1, 720, Note_on_c, 1, 66, 75
1, 743, Note_on_c, 0, 69, 0
1, 744, Note_on_c, 0, 72, 75
1, 765, Note_on_c, 1, 66, 0
1, 767, Note_on_c, 0, 72, 0
1, 768, Note_on_c, 0, 72, 75
1, 768, Note_on_c, 1, 67, 75
1, 791, Note_on_c, 0, 72, 0
1, 792, Note_on_c, 0, 71, 75
1, 813, Note_on_c, 1, 67, 0
1, 815, Note_on_c, 0, 71, 0
1, 816, Note_on_c, 0, 76, 75
1, 816, Note_on_c, 1, 60, 75
1, 839, Note_on_c, 0, 76, 0
1, 839, Note_on_c, 1, 60, 0
1, 840, Note_on_c, 0, 74, 75
1, 840, Note_on_c, 1, 62, 75
1, 863, Note_on_c, 0, 74, 0
1, 863, Note_on_c, 1, 62, 0
1, 864, Note_on_c, 0, 72, 75
1, 864, Note_on_c, 1, 64, 75
1, 887, Note_on_c, 0, 72, 0
1, 888, Note_on_c, 0, 71, 75
1, 909, Note_on_c, 1, 64, 0
1, 911, Note_on_c, 0, 71, 0
1, 912, Note_on_c, 0, 69, 75
1, 912, Note_on_c, 1, 60, 75
1, 935, Note_on_c, 0, 69, 0
1, 936, Note_on_c, 0, 67, 75
1, 957, Note_on_c, 1, 60, 0
1, 959, Note_on_c, 0, 67, 0
1, 960, Note_on_c, 0, 66, 75
1, 960, Note_on_c, 1, 62, 75
1, 975, Note_on_c, 0, 66, 0
1, 976, Note_on_c, 0, 67, 75
1, 991, Note_on_c, 0, 67, 0
1, 992, Note_on_c, 0, 69, 75
1, 1005, Note_on_c, 1, 62, 0
1, 1007, Note_on_c, 0, 69, 0
1, 1008, Note_on_c, 0, 67, 75
1, 1008, Note_on_c, 1, 55, 75
1, 1053, Note_on_c, 0, 67, 0
1, 1053, Note_on_c, 1, 55, 0
1, 1104, Note_on_c, 0, 62, 75
1, 1119, Note_on_c, 0, 62, 0
1, 1120, Note_on_c, 0, 59, 75
1, 1135, Note_on_c, 0, 59, 0
1, 1136, Note_on_c, 0, 55, 75
1, 1151, Note_on_c, 0, 55, 0
1, 1152, Note_on_c, 0, 67, 75
1, 1197, Note_on_c, 0, 67, 0
1, 1200, Note_on_c, 0, 67, 75
1, 1200, Note_on_c, 1, 43, 81
1, 1234, Note_on_c, 1, 43, 0
1, 1236, Note_on_c, 1, 45, 81
1, 1245, Note_on_c, 0, 67, 0
1, 1248, Note_on_c, 0, 67, 75
1, 1248, Note_on_c, 1, 45, 0
1, 1248, Note_on_c, 1, 47, 81
1, 1293, Note_on_c, 0, 67, 0
1, 1293, Note_on_c, 1, 47, 0
1, 1296, Note_on_c, 0, 67, 75
1, 1296, Note_on_c, 1, 49, 81
1, 1341, Note_on_c, 0, 67, 0
1, 1341, Note_on_c, 1, 49, 0
1, 1344, Note_on_c, 0, 66, 75
1, 1344, Note_on_c, 1, 50, 81
1, 1356, Note_on_c, 0, 66, 0
1, 1356, Note_on_c, 0, 64, 75
1, 1368, Note_on_c, 0, 64, 0
1, 1368, Note_on_c, 0, 66, 75
1, 1380, Note_on_c, 0, 66, 0
1, 1380, Note_on_c, 0, 67, 75
1, 1392, Note_on_c, 0, 67, 0
1, 1392, Note_on_c, 0, 69, 75
1, 1404, Note_on_c, 0, 69, 0
1, 1404, Note_on_c, 0, 67, 75
1, 1416, Note_on_c, 0, 67, 0
1, 1416, Note_on_c, 0, 69, 75
1, 1428, Note_on_c, 0, 69, 0
1, 1428, Note_on_c, 0, 71, 75
1, 1433, Note_on_c, 1, 50, 0
1, 1440, Note_on_c, 0, 71, 0
1, 1440, Note_on_c, 0, 72, 75
1, 1476, Note_on_c, 1, 50, 81
1, 1488, Note_on_c, 1, 50, 0
1, 1488, Note_on_c, 1, 52, 81
1, 1522, Note_on_c, 1, 52, 0
1, 1524, Note_on_c, 1, 54, 81
1, 1529, Note_on_c, 0, 72, 0
1, 1536, Note_on_c, 0, 71, 75
1, 1536, Note_on_c, 1, 54, 0
1, 1536, Note_on_c, 1, 55, 81
1, 1551, Note_on_c, 0, 71, 0
1, 1552, Note_on_c, 0, 69, 75
1, 1567, Note_on_c, 0, 69, 0
1, 1568, Note_on_c, 0, 67, 76
1, 1583, Note_on_c, 0, 67, 0
1, 1584, Note_on_c, 0, 74, 76
1, 1599, Note_on_c, 0, 74, 0
1, 1600, Note_on_c, 0, 72, 77
1, 1615, Note_on_c, 0, 72, 0
1, 1616, Note_on_c, 0, 71, 77
1, 1625, Note_on_c, 1, 55, 0
1, 1631, Note_on_c, 0, 71, 0
1, 1632, Note_on_c, 0, 79, 78
1, 1647, Note_on_c, 0, 79, 0
1, 1648, Note_on_c, 0, 78, 78
1, 1663, Note_on_c, 0, 78, 0
1, 1664, Note_on_c, 0, 76, 79
1, 1679, Note_on_c, 0, 76, 0
1, 1680, Note_on_c, 0, 74, 79
1, 1680, Note_on_c, 1, 67, 75
1, 1680, Note_on_c, 0, 62, 64
1, 1695, Note_on_c, 0, 74, 0
1, 1696, Note_on_c, 0, 72, 80
1, 1711, Note_on_c, 0, 72, 0
1, 1712, Note_on_c, 0, 71, 80
1, 1725, Note_on_c, 1, 67, 0
1, 1725, Note_on_c, 0, 62, 0
1, 1727, Note_on_c, 0, 71, 0
1, 1728, Note_on_c, 0, 72, 81
1, 1728, Note_on_c, 1, 67, 75
1, 1728, Note_on_c, 0, 62, 64
1, 1736, Note_on_c, 0, 72, 0
1, 1736, Note_on_c, 0, 71, 80
1, 1744, Note_on_c, 0, 71, 0
1, 1744, Note_on_c, 0, 72, 80
1, 1752, Note_on_c, 0, 72, 0
1, 1752, Note_on_c, 0, 71, 80
1, 1760, Note_on_c, 0, 71, 0
1, 1760, Note_on_c, 0, 69, 80
1, 1768, Note_on_c, 0, 69, 0
1, 1768, Note_on_c, 0, 71, 79
1, 1773, Note_on_c, 1, 67, 0
1, 1776, Note_on_c, 0, 71, 0
1, 1776, Note_on_c, 0, 69, 79
1, 1776, Note_on_c, 1, 66, 75
1, 1817, Note_on_c, 0, 62, 0
1, 1821, Note_on_c, 0, 69, 0
1, 1821, Note_on_c, 1, 66, 0
1, 1872, Note_on_c, 0, 81, 75
1, 1872, Note_on_c, 0, 78, 75
1, 1906, Note_on_c, 0, 81, 0
1, 1906, Note_on_c, 0, 78, 0
1, 1908, Note_on_c, 0, 81, 75
1, 1908, Note_on_c, 0, 78, 75
1, 1920, Note_on_c, 0, 81, 0
1, 1920, Note_on_c, 0, 78, 0
1, 1920, Note_on_c, 0, 81, 75
1, 1920, Note_on_c, 0, 78, 75
1, 1954, Note_on_c, 0, 81, 0
1, 1954, Note_on_c, 0, 78, 0
1, 1956, Note_on_c, 0, 79, 75
1, 1956, Note_on_c, 0, 76, 75
1, 1968, Note_on_c, 0, 79, 0
1, 1968, Note_on_c, 0, 76, 0
1, 1968, Note_on_c, 0, 78, 75
1, 1968, Note_on_c, 0, 74, 75
1, 2002, Note_on_c, 0, 78, 0
1, 2002, Note_on_c, 0, 74, 0
1, 2004, Note_on_c, 0, 78, 75
1, 2004, Note_on_c, 0, 69, 75
1, 2004, Note_on_c, 1, 62, 75
1, 2016, Note_on_c, 0, 78, 0
1, 2016, Note_on_c, 0, 69, 0
1, 2016, Note_on_c, 0, 78, 75
1, 2016, Note_on_c, 0, 69, 75
1, 2016, Note_on_c, 1, 62, 0
1, 2016, Note_on_c, 1, 62, 75
1, 2050, Note_on_c, 0, 78, 0
1, 2050, Note_on_c, 0, 69, 0
1, 2052, Note_on_c, 0, 76, 75
1, 2052, Note_on_c, 0, 67, 75
1, 2064, Note_on_c, 0, 76, 0
1, 2064, Note_on_c, 0, 67, 0
1, 2064, Note_on_c, 0, 74, 75
1, 2064, Note_on_c, 0, 66, 75
1, 2098, Note_on_c, 0, 74, 0
1, 2098, Note_on_c, 0, 66, 0
1, 2100, Note_on_c, 0, 81, 75
1, 2100, Note_on_c, 0, 78, 75
1, 2105, Note_on_c, 1, 62, 0
1, 2112, Note_on_c, 0, 81, 0
1, 2112, Note_on_c, 0, 78, 0
1, 2112, Note_on_c, 0, 81, 75
1, 2112, Note_on_c, 0, 78, 75
1, 2146, Note_on_c, 0, 81, 0
1, 2146, Note_on_c, 0, 78, 0
1, 2148, Note_on_c, 0, 79, 75
1, 2148, Note_on_c, 0, 76, 75
1, 2160, Note_on_c, 0, 79, 0
1, 2160, Note_on_c, 0, 76, 0
1, 2160, Note_on_c, 0, 78, 75
1, 2160, Note_on_c, 0, 74, 75
1, 2194, Note_on_c, 0, 78, 0
1, 2194, Note_on_c, 0, 74, 0
1, 2196, Note_on_c, 0, 78, 75
1, 2196, Note_on_c, 0, 69, 75
1, 2196, Note_on_c, 1, 62, 75
1, 2208, Note_on_c, 0, 78, 0
1, 2208, Note_on_c, 0, 69, 0
1, 2208, Note_on_c, 0, 78, 75
1, 2208, Note_on_c, 0, 69, 75
1, 2208, Note_on_c, 1, 62, 0
1, 2208, Note_on_c, 1, 62, 75
1, 2242, Note_on_c, 0, 78, 0
1, 2242, Note_on_c, 0, 69, 0
1, 2244, Note_on_c, 0, 76, 75
1, 2244, Note_on_c, 0, 67, 75
1, 2256, Note_on_c, 0, 76, 0
1, 2256, Note_on_c, 0, 67, 0
1, 2256, Note_on_c, 0, 74, 75
1, 2256, Note_on_c, 0, 66, 64
1, 2290, Note_on_c, 0, 74, 0
1, 2292, Note_on_c, 0, 74, 75
1, 2297, Note_on_c, 1, 62, 0
1, 2301, Note_on_c, 0, 66, 0
1, 2304, Note_on_c, 0, 74, 0
1, 2304, Note_on_c, 0, 75, 75
1, 2304, Note_on_c, 1, 67, 75
1, 2304, Note_on_c, 1, 61, 75
1, 2328, Note_on_c, 0, 75, 0
1, 2328, Note_on_c, 0, 76, 73
1, 2349, Note_on_c, 1, 67, 0
1, 2349, Note_on_c, 1, 61, 0
1, 2351, Note_on_c, 0, 76, 0
1, 2352, Note_on_c, 0, 76, 72
1, 2352, Note_on_c, 1, 67, 72
1, 2352, Note_on_c, 1, 61, 72
1, 2362, Note_on_c, 0, 76, 0
1, 2376, Note_on_c, 0, 76, 71
1, 2386, Note_on_c, 0, 76, 0
1, 2397, Note_on_c, 1, 67, 0
1, 2397, Note_on_c, 1, 61, 0
1, 2400, Note_on_c, 0, 76, 70
1, 2400, Note_on_c, 1, 67, 70
1, 2400, Note_on_c, 1, 61, 70
1, 2445, Note_on_c, 1, 67, 0
1, 2445, Note_on_c, 1, 61, 0
1, 2448, Note_on_c, 1, 67, 71
1, 2448, Note_on_c, 1, 61, 71
1, 2489, Note_on_c, 0, 76, 0
1, 2496, Note_on_c, 0, 61, 72
1, 2502, Note_on_c, 0, 61, 0
1, 2502, Note_on_c, 0, 64, 72
1, 2508, Note_on_c, 0, 64, 0
1, 2508, Note_on_c, 0, 67, 72
1, 2514, Note_on_c, 0, 67, 0
1, 2514, Note_on_c, 0, 69, 72
1, 2520, Note_on_c, 0, 69, 0
1, 2520, Note_on_c, 0, 73, 72
1, 2526, Note_on_c, 0, 73, 0
1, 2526, Note_on_c, 0, 76, 72
1, 2532, Note_on_c, 0, 76, 0
1, 2532, Note_on_c, 0, 79, 72
1, 2541, Note_on_c, 1, 67, 0
1, 2541, Note_on_c, 1, 61, 0
1, 2592, Note_on_c, 1, 57, 75
1, 2604, Note_on_c, 0, 79, 0
1, 2604, Note_on_c, 0, 78, 75
1, 2616, Note_on_c, 0, 78, 0
1, 2616, Note_on_c, 0, 76, 75
1, 2628, Note_on_c, 0, 76, 0
1, 2628, Note_on_c, 0, 74, 75
1, 2637, Note_on_c, 1, 57, 0
1, 2640, Note_on_c, 0, 74, 0
1, 2640, Note_on_c, 0, 73, 75
1, 2640, Note_on_c, 1, 61, 75
1, 2652, Note_on_c, 0, 73, 0
1, 2652, Note_on_c, 0, 71, 75
1, 2664, Note_on_c, 0, 71, 0
1, 2664, Note_on_c, 0, 69, 75
1, 2676, Note_on_c, 0, 69, 0
1, 2676, Note_on_c, 0, 67, 75
1, 2685, Note_on_c, 1, 61, 0
1, 2688, Note_on_c, 0, 67, 0
1, 2688, Note_on_c, 0, 66, 75
1, 2688, Note_on_c, 1, 62, 75
1, 2700, Note_on_c, 0, 66, 0
1, 2700, Note_on_c, 0, 69, 75
1, 2712, Note_on_c, 0, 69, 0
1, 2712, Note_on_c, 0, 71, 75
1, 2724, Note_on_c, 0, 71, 0
1, 2724, Note_on_c, 0, 73, 75
1, 2736, Note_on_c, 0, 73, 0
1, 2736, Note_on_c, 0, 74, 75
1, 2748, Note_on_c, 0, 74, 0
1, 2748, Note_on_c, 0, 76, 75
1, 2760, Note_on_c, 0, 76, 0
1, 2760, Note_on_c, 0, 78, 75
1, 2772, Note_on_c, 0, 78, 0
1, 2772, Note_on_c, 0, 79, 75
1, 2777, Note_on_c, 1, 62, 0
1, 2784, Note_on_c, 0, 79, 0
1, 2784, Note_on_c, 0, 81, 75
1, 2832, Note_on_c, 1, 54, 75
1, 2877, Note_on_c, 1, 54, 0
1, 2880, Note_on_c, 1, 55, 75
1, 2914, Note_on_c, 0, 81, 0
1, 2916, Note_on_c, 0, 82, 78
1, 2928, Note_on_c, 0, 82, 0
1, 2928, Note_on_c, 0, 83, 78
1, 2962, Note_on_c, 0, 83, 0
1, 2964, Note_on_c, 0, 85, 79
1, 2969, Note_on_c, 1, 55, 0
1, 2976, Note_on_c, 0, 85, 0
1, 2976, Note_on_c, 0, 86, 80
1, 3010, Note_on_c, 0, 86, 0
1, 3012, Note_on_c, 0, 74, 81
1, 3024, Note_on_c, 0, 74, 0
1, 3024, Note_on_c, 0, 78, 81
1, 3024, Note_on_c, 1, 56, 75
1, 3058, Note_on_c, 0, 78, 0
1, 3060, Note_on_c, 0, 81, 81
1, 3069, Note_on_c, 1, 56, 0
1, 3072, Note_on_c, 0, 81, 0
1, 3072, Note_on_c, 0, 79, 81
1, 3072, Note_on_c, 1, 57, 75
1, 3084, Note_on_c, 0, 79, 0
1, 3084, Note_on_c, 0, 78, 81
1, 3096, Note_on_c, 0, 78, 0
1, 3096, Note_on_c, 0, 76, 81
1, 3108, Note_on_c, 0, 76, 0
1, 3108, Note_on_c, 0, 78, 81
1, 3117, Note_on_c, 1, 57, 0
1, 3120, Note_on_c, 0, 78, 0
1, 3120, Note_on_c, 0, 76, 81
1, 3120, Note_on_c, 1, 45, 75
1, 3165, Note_on_c, 0, 76, 0
1, 3165, Note_on_c, 1, 45, 0
1, 3168, Note_on_c, 0, 81, 81
1, 3192, Note_on_c, 1, 57, 81
1, 3204, Note_on_c, 1, 57, 0
1, 3204, Note_on_c, 1, 59, 81
1, 3216, Note_on_c, 1, 59, 0
1, 3216, Note_on_c, 1, 61, 81
1, 3235, Note_on_c, 0, 81, 0
1, 3239, Note_on_c, 1, 61, 0
1, 3240, Note_on_c, 0, 69, 75
1, 3240, Note_on_c, 1, 57, 81
1, 3263, Note_on_c, 0, 69, 0
1, 3263, Note_on_c, 1, 57, 0
1, 3264, Note_on_c, 0, 68, 75
1, 3264, Note_on_c, 1, 64, 81
1, 3276, Note_on_c, 0, 68, 0
1, 3276, Note_on_c, 0, 66, 75
1, 3288, Note_on_c, 0, 66, 0
1, 3288, Note_on_c, 0, 68, 75
1, 3300, Note_on_c, 0, 68, 0
1, 3300, Note_on_c, 0, 69, 75
1, 3309, Note_on_c, 1, 64, 0
1, 3312, Note_on_c, 0, 69, 0
1, 3312, Note_on_c, 0, 71, 75
1, 3312, Note_on_c, 1, 52, 81
1, 3324, Note_on_c, 0, 71, 0
1, 3324, Note_on_c, 0, 69, 75
1, 3336, Note_on_c, 0, 69, 0
1, 3336, Note_on_c, 0, 71, 75
1, 3348, Note_on_c, 0, 71, 0
1, 3348, Note_on_c, 0, 73, 75
1, 3357, Note_on_c, 1, 52, 0
1, 3360, Note_on_c, 0, 73, 0
1, 3360, Note_on_c, 0, 74, 75
1, 3384, Note_on_c, 1, 52, 81
1, 3396, Note_on_c, 1, 52, 0
1, 3396, Note_on_c, 1, 54, 81
1, 3408, Note_on_c, 1, 54, 0
1, 3408, Note_on_c, 1, 56, 81
1, 3427, Note_on_c, 0, 74, 0
1, 3431, Note_on_c, 1, 56, 0
1, 3432, Note_on_c, 0, 62, 75
1, 3432, Note_on_c, 1, 52, 81
1, 3455, Note_on_c, 0, 62, 0
1, 3455, Note_on_c, 1, 52, 0
1, 3456, Note_on_c, 0, 61, 75
1, 3456, Note_on_c, 1, 57, 81
1, 3468, Note_on_c, 0, 61, 0
1, 3468, Note_on_c, 0, 59, 75
1, 3480, Note_on_c, 0, 59, 0
1, 3480, Note_on_c, 0, 61, 75
1, 3492, Note_on_c, 0, 61, 0
1, 3492, Note_on_c, 0, 62, 75
1, 3501, Note_on_c, 1, 57, 0
1, 3504, Note_on_c, 0, 62, 0
1, 3504, Note_on_c, 0, 64, 75
1, 3504, Note_on_c, 1, 45, 81
1, 3516, Note_on_c, 0, 64, 0
1, 3516, Note_on_c, 0, 62, 75
1, 3528, Note_on_c, 0, 62, 0
1, 3528, Note_on_c, 0, 64, 75
1, 3540, Note_on_c, 0, 64, 0
1, 3540, Note_on_c, 0, 66, 75
1, 3549, Note_on_c, 1, 45, 0
1, 3552, Note_on_c, 0, 66, 0
1, 3552, Note_on_c, 0, 67, 75
1, 3576, Note_on_c, 1, 45, 81
1, 3588, Note_on_c, 1, 45, 0
1, 3588, Note_on_c, 1, 47, 81
1, 3600, Note_on_c, 1, 47, 0
1, 3600, Note_on_c, 1, 49, 81
1, 3619, Note_on_c, 0, 67, 0
1, 3623, Note_on_c, 1, 49, 0
1, 3624, Note_on_c, 0, 55, 75
1, 3624, Note_on_c, 1, 45, 81
1, 3647, Note_on_c, 0, 55, 0
1, 3647, Note_on_c, 1, 45, 0
1, 3648, Note_on_c, 0, 54, 75
1, 3648, Note_on_c, 1, 50, 81
1, 3671, Note_on_c, 0, 54, 0
1, 3672, Note_on_c, 0, 61, 91
1, 3693, Note_on_c, 1, 50, 0
1, 3696, Note_on_c, 1, 38, 75
1, 3720, Note_on_c, 0, 61, 0
1, 3720, Note_on_c, 0, 62, 75
1, 3741, Note_on_c, 1, 38, 0
1, 3743, Note_on_c, 0, 62, 0
1, 3744, Note_on_c, 0, 55, 75
1, 3744, Note_on_c, 1, 40, 75
1, 3767, Note_on_c, 0, 55, 0
1, 3768, Note_on_c, 0, 61, 91
1, 3789, Note_on_c, 1, 40, 0
1, 3792, Note_on_c, 1, 52, 75
1, 3816, Note_on_c, 0, 61, 0
1, 3816, Note_on_c, 0, 62, 75
1, 3837, Note_on_c, 1, 52, 0
1, 3839, Note_on_c, 0, 62, 0
1, 3840, Note_on_c, 0, 57, 75
1, 3840, Note_on_c, 1, 54, 75
1, 3863, Note_on_c, 0, 57, 0
1, 3864, Note_on_c, 0, 61, 91
1, 3885, Note_on_c, 1, 54, 0
1, 3888, Note_on_c, 1, 42, 75
1, 3912, Note_on_c, 0, 61, 0
1, 3912, Note_on_c, 0, 62, 75
1, 3933, Note_on_c, 1, 42, 0
1, 3935, Note_on_c, 0, 62, 0
1, 3936, Note_on_c, 0, 59, 75
1, 3936, Note_on_c, 1, 55, 75
1, 3959, Note_on_c, 0, 59, 0
1, 3960, Note_on_c, 0, 64, 75
1, 3972, Note_on_c, 0, 64, 0
1, 3972, Note_on_c, 0, 66, 75
1, 3981, Note_on_c, 1, 55, 0
1, 3984, Note_on_c, 0, 66, 0
1, 3984, Note_on_c, 0, 67, 75
1, 3984, Note_on_c, 1, 52, 75
1, 4007, Note_on_c, 0, 67, 0
1, 4008, Note_on_c, 0, 64, 75
1, 4029, Note_on_c, 1, 52, 0
1, 4031, Note_on_c, 0, 64, 0
1, 4032, Note_on_c, 0, 62, 75
1, 4032, Note_on_c, 1, 57, 75
1, 4077, Note_on_c, 0, 62, 0
1, 4077, Note_on_c, 1, 57, 0
1, 4080, Note_on_c, 0, 61, 75
1, 4080, Note_on_c, 1, 45, 75
1, 4125, Note_on_c, 0, 61, 0
1, 4125, Note_on_c, 1, 45, 0
1, 4128, Note_on_c, 0, 71, 91
1, 4128, Note_on_c, 1, 61, 66
1, 4128, Note_on_c, 1, 57, 66
1, 4148, Note_on_c, 0, 71, 0
1, 4148, Note_on_c, 0, 69, 75
1, 4151, Note_on_c, 1, 61, 0
1, 4151, Note_on_c, 1, 57, 0
1, 4152, Note_on_c, 1, 61, 66
1, 4152, Note_on_c, 1, 57, 66
1, 4158, Note_on_c, 0, 69, 0
1, 4158, Note_on_c, 0, 71, 75
1, 4168, Note_on_c, 0, 71, 0
1, 4168, Note_on_c, 0, 69, 75
1, 4175, Note_on_c, 1, 61, 0
1, 4175, Note_on_c, 1, 57, 0
1, 4176, Note_on_c, 1, 61, 66
1, 4176, Note_on_c, 1, 57, 66
1, 4178, Note_on_c, 0, 69, 0
1, 4178, Note_on_c, 0, 71, 75
1, 4188, Note_on_c, 0, 71, 0
1, 4188, Note_on_c, 0, 69, 75
1, 4198, Note_on_c, 0, 69, 0
1, 4198, Note_on_c, 0, 71, 75
1, 4199, Note_on_c, 1, 61, 0
1, 4199, Note_on_c, 1, 57, 0
1, 4200, Note_on_c, 1, 61, 66
1, 4200, Note_on_c, 1, 57, 66
1, 4207, Note_on_c, 0, 71, 0
1, 4207, Note_on_c, 0, 69, 75
1, 4216, Note_on_c, 0, 69, 0
1, 4216, Note_on_c, 0, 71, 75
1, 4223, Note_on_c, 1, 61, 0
1, 4223, Note_on_c, 1, 57, 0
1, 4224, Note_on_c, 1, 62, 66
1, 4224, Note_on_c, 1, 57, 66
1, 4225, Note_on_c, 0, 71, 0
1, 4225, Note_on_c, 0, 69, 75
1, 4235, Note_on_c, 0, 69, 0
1, 4235, Note_on_c, 0, 68, 75
1, 4245, Note_on_c, 0, 68, 0
1, 4245, Note_on_c, 0, 69, 75
1, 4247, Note_on_c, 1, 62, 0
1, 4247, Note_on_c, 1, 57, 0
1, 4248, Note_on_c, 1, 62, 66
1, 4248, Note_on_c, 1, 57, 66
1, 4255, Note_on_c, 0, 69, 0
1, 4255, Note_on_c, 0, 68, 75
1, 4265, Note_on_c, 0, 68, 0
1, 4265, Note_on_c, 0, 69, 75
1, 4271, Note_on_c, 1, 62, 0
1, 4271, Note_on_c, 1, 57, 0
1, 4272, Note_on_c, 1, 62, 66
1, 4272, Note_on_c, 1, 57, 66
1, 4275, Note_on_c, 0, 69, 0
1, 4275, Note_on_c, 0, 68, 75
1, 4285, Note_on_c, 0, 68, 0
1, 4285, Note_on_c, 0, 69, 75
1, 4294, Note_on_c, 0, 69, 0
1, 4294, Note_on_c, 0, 68, 75
1, 4295, Note_on_c, 1, 62, 0
1, 4295, Note_on_c, 1, 57, 0
1, 4296, Note_on_c, 1, 62, 66
1, 4296, Note_on_c, 1, 57, 66
1, 4303, Note_on_c, 0, 68, 0
1, 4303, Note_on_c, 0, 69, 75
1, 4312, Note_on_c, 0, 69, 0
1, 4312, Note_on_c, 0, 68, 75
1, 4319, Note_on_c, 1, 62, 0
1, 4319, Note_on_c, 1, 57, 0
1, 4320, Note_on_c, 1, 64, 66
1, 4320, Note_on_c, 1, 57, 66
1, 4321, Note_on_c, 0, 68, 0
1, 4321, Note_on_c, 0, 69, 75
1, 4331, Note_on_c, 0, 69, 0
1, 4331, Note_on_c, 0, 67, 75
1, 4341, Note_on_c, 0, 67, 0
1, 4341, Note_on_c, 0, 69, 75
1, 4343, Note_on_c, 1, 64, 0
1, 4343, Note_on_c, 1, 57, 0
1, 4344, Note_on_c, 1, 64, 66
1, 4344, Note_on_c, 1, 57, 66
1, 4351, Note_on_c, 0, 69, 0
1, 4351, Note_on_c, 0, 67, 75
1, 4361, Note_on_c, 0, 67, 0
1, 4361, Note_on_c, 0, 69, 75
1, 4367, Note_on_c, 1, 64, 0
1, 4367, Note_on_c, 1, 57, 0
1, 4368, Note_on_c, 1, 64, 66
1, 4368, Note_on_c, 1, 57, 66
1, 4371, Note_on_c, 0, 69, 0
1, 4371, Note_on_c, 0, 67, 75
1, 4381, Note_on_c, 0, 67, 0
1, 4381, Note_on_c, 0, 69, 75
1, 4390, Note_on_c, 0, 69, 0
1, 4390, Note_on_c, 0, 67, 75
1, 4391, Note_on_c, 1, 64, 0
1, 4391, Note_on_c, 1, 57, 0
1, 4392, Note_on_c, 1, 64, 66
1, 4392, Note_on_c, 1, 57, 66
1, 4399, Note_on_c, 0, 67, 0
1, 4399, Note_on_c, 0, 69, 75
1, 4408, Note_on_c, 0, 69, 0
1, 4408, Note_on_c, 0, 67, 75
1, 4415, Note_on_c, 1, 64, 0
1, 4415, Note_on_c, 1, 57, 0
1, 4416, Note_on_c, 1, 62, 66
1, 4416, Note_on_c, 1, 57, 66
1, 4417, Note_on_c, 0, 67, 0
1, 4417, Note_on_c, 0, 66, 75
1, 4427, Note_on_c, 0, 66, 0
1, 4427, Note_on_c, 0, 67, 75
1, 4437, Note_on_c, 0, 67, 0
1, 4437, Note_on_c, 0, 66, 75
1, 4439, Note_on_c, 1, 62, 0
1, 4439, Note_on_c, 1, 57, 0
1, 4440, Note_on_c, 1, 62, 66
1, 4440, Note_on_c, 1, 57, 66
1, 4447, Note_on_c, 0, 66, 0
1, 4447, Note_on_c, 0, 67, 75
1, 4457, Note_on_c, 0, 67, 0
1, 4457, Note_on_c, 0, 66, 75
1, 4463, Note_on_c, 1, 62, 0
1, 4463, Note_on_c, 1, 57, 0
1, 4464, Note_on_c, 1, 62, 66
1, 4464, Note_on_c, 1, 57, 66
1, 4467, Note_on_c, 0, 66, 0
1, 4467, Note_on_c, 0, 67, 75
1, 4477, Note_on_c, 0, 67, 0
1, 4477, Note_on_c, 0, 66, 75
1, 4486, Note_on_c, 0, 66, 0
1, 4486, Note_on_c, 0, 67, 75
1, 4487, Note_on_c, 1, 62, 0
1, 4487, Note_on_c, 1, 57, 0
1, 4488, Note_on_c, 1, 62, 66
1, 4488, Note_on_c, 1, 57, 66
1, 4495, Note_on_c, 0, 67, 0
1, 4495, Note_on_c, 0, 66, 75
1, 4504, Note_on_c, 0, 66, 0
1, 4504, Note_on_c, 0, 67, 75
1, 4511, Note_on_c, 1, 62, 0
1, 4511, Note_on_c, 1, 57, 0
1, 4512, Note_on_c, 1, 62, 66
1, 4512, Note_on_c, 1, 57, 66
1, 4513, Note_on_c, 0, 67, 0
1, 4513, Note_on_c, 0, 65, 75
1, 4523, Note_on_c, 0, 65, 0
1, 4523, Note_on_c, 0, 67, 75
1, 4533, Note_on_c, 0, 67, 0
1, 4533, Note_on_c, 0, 65, 75
1, 4535, Note_on_c, 1, 62, 0
1, 4535, Note_on_c, 1, 57, 0
1, 4536, Note_on_c, 1, 62, 66
1, 4536, Note_on_c, 1, 57, 66
1, 4543, Note_on_c, 0, 65, 0
1, 4543, Note_on_c, 0, 67, 75
1, 4553, Note_on_c, 0, 67, 0
1, 4553, Note_on_c, 0, 65, 75
1, 4559, Note_on_c, 1, 62, 0
1, 4559, Note_on_c, 1, 57, 0
1, 4560, Note_on_c, 1, 62, 66
1, 4560, Note_on_c, 1, 57, 66
1, 4563, Note_on_c, 0, 65, 0
1, 4563, Note_on_c, 0, 67, 75
1, 4573, Note_on_c, 0, 67, 0
1, 4573, Note_on_c, 0, 65, 75
1, 4582, Note_on_c, 0, 65, 0
1, 4582, Note_on_c, 0, 67, 75
1, 4583, Note_on_c, 1, 62, 0
1, 4583, Note_on_c, 1, 57, 0
1, 4584, Note_on_c, 1, 62, 66
1, 4584, Note_on_c, 1, 57, 66
1, 4591, Note_on_c, 0, 67, 0
1, 4591, Note_on_c, 0, 64, 75
1, 4600, Note_on_c, 0, 64, 0
1, 4600, Note_on_c, 0, 65, 75
1, 4607, Note_on_c, 1, 62, 0
1, 4607, Note_on_c, 1, 57, 0
1, 4608, Note_on_c, 1, 61, 66
1, 4608, Note_on_c, 1, 57, 66
1, 4609, Note_on_c, 0, 65, 0
1, 4609, Note_on_c, 0, 64, 75
1, 4631, Note_on_c, 1, 61, 0
1, 4631, Note_on_c, 1, 57, 0
1, 4632, Note_on_c, 1, 61, 66
1, 4632, Note_on_c, 1, 57, 66
1, 4654, Note_on_c, 0, 64, 0
1, 4655, Note_on_c, 1, 61, 0
1, 4655, Note_on_c, 1, 57, 0
1, 4656, Note_on_c, 1, 61, 66
1, 4656, Note_on_c, 1, 57, 66
1, 4657, Note_on_c, 0, 69, 75
1, 4679, Note_on_c, 1, 61, 0
1, 4679, Note_on_c, 1, 57, 0
1, 4680, Note_on_c, 1, 61, 66
1, 4680, Note_on_c, 1, 57, 66
1, 4702, Note_on_c, 0, 69, 0
1, 4703, Note_on_c, 1, 61, 0
1, 4703, Note_on_c, 1, 57, 0
1, 4704, Note_on_c, 1, 62, 66
1, 4704, Note_on_c, 1, 57, 66
1, 4705, Note_on_c, 0, 67, 75
1, 4715, Note_on_c, 0, 67, 0
1, 4715, Note_on_c, 0, 65, 75
1, 4725, Note_on_c, 0, 65, 0
1, 4725, Note_on_c, 0, 67, 75
1, 4727, Note_on_c, 1, 62, 0
1, 4727, Note_on_c, 1, 57, 0
1, 4728, Note_on_c, 1, 62, 66
1, 4728, Note_on_c, 1, 57, 66
1, 4735, Note_on_c, 0, 67, 0
1, 4735, Note_on_c, 0, 65, 75
1, 4745, Note_on_c, 0, 65, 0
1, 4745, Note_on_c, 0, 67, 75
1, 4751, Note_on_c, 1, 62, 0
1, 4751, Note_on_c, 1, 57, 0
1, 4752, Note_on_c, 1, 62, 66
1, 4752, Note_on_c, 1, 57, 66
1, 4755, Note_on_c, 0, 67, 0
1, 4755, Note_on_c, 0, 65, 75
1, 4765, Note_on_c, 0, 65, 0
1, 4765, Note_on_c, 0, 67, 75
1, 4774, Note_on_c, 0, 67, 0
1, 4774, Note_on_c, 0, 65, 75
1, 4775, Note_on_c, 1, 62, 0
1, 4775, Note_on_c, 1, 57, 0
1, 4776, Note_on_c, 1, 62, 66
1, 4776, Note_on_c, 1, 57, 66
1, 4783, Note_on_c, 0, 65, 0
1, 4783, Note_on_c, 0, 64, 75
1, 4792, Note_on_c, 0, 64, 0
1, 4792, Note_on_c, 0, 65, 75
1, 4799, Note_on_c, 1, 62, 0
1, 4799, Note_on_c, 1, 57, 0
1, 4800, Note_on_c, 1, 61, 66
1, 4800, Note_on_c, 1, 57, 66
1, 4801, Note_on_c, 0, 65, 0
1, 4801, Note_on_c, 0, 64, 75
1, 4845, Note_on_c, 1, 61, 0
1, 4845, Note_on_c, 1, 57, 0
1, 4846, Note_on_c, 0, 64, 0
1, 4885, Note_on_c, 0, 74, 75
1, 4896, Note_on_c, 1, 54, 75
1, 4897, Note_on_c, 0, 74, 0
1, 4897, Note_on_c, 0, 69, 75
1, 4911, Note_on_c, 1, 54, 0
1, 4912, Note_on_c, 1, 57, 75
1, 4927, Note_on_c, 1, 57, 0
1, 4928, Note_on_c, 1, 62, 75
1, 4942, Note_on_c, 0, 69, 0
1, 4943, Note_on_c, 1, 62, 0
1, 4944, Note_on_c, 1, 55, 75
1, 4945, Note_on_c, 0, 73, 75
1, 4953, Note_on_c, 0, 73, 0
1, 4953, Note_on_c, 0, 71, 75
1, 4959, Note_on_c, 1, 55, 0
1, 4960, Note_on_c, 1, 59, 75
1, 4961, Note_on_c, 0, 71, 0
1, 4961, Note_on_c, 0, 73, 75
1, 4969, Note_on_c, 0, 73, 0
1, 4969, Note_on_c, 0, 71, 75
1, 4975, Note_on_c, 1, 59, 0
1, 4976, Note_on_c, 1, 62, 75
1, 4977, Note_on_c, 0, 71, 0
1, 4977, Note_on_c, 0, 69, 75
1, 4985, Note_on_c, 0, 69, 0
1, 4985, Note_on_c, 0, 71, 75
1, 4991, Note_on_c, 1, 62, 0
1, 4992, Note_on_c, 1, 54, 75
1, 4993, Note_on_c, 0, 71, 0
1, 4993, Note_on_c, 0, 69, 75
1, 5000, Note_on_c, 0, 69, 0
1, 5009, Note_on_c, 0, 81, 75
1, 5024, Note_on_c, 0, 81, 0
1, 5025, Note_on_c, 0, 79, 75
1, 5040, Note_on_c, 0, 79, 0
1, 5041, Note_on_c, 0, 78, 75
1, 5056, Note_on_c, 0, 78, 0
1, 5057, Note_on_c, 0, 76, 75
1, 5072, Note_on_c, 0, 76, 0
1, 5073, Note_on_c, 0, 74, 75
1, 5081, Note_on_c, 1, 54, 0
1, 5088, Note_on_c, 0, 74, 0
1, 5088, Note_on_c, 1, 54, 75
1, 5089, Note_on_c, 0, 69, 75
1, 5103, Note_on_c, 1, 54, 0
1, 5104, Note_on_c, 1, 57, 75
1, 5119, Note_on_c, 1, 57, 0
1, 5120, Note_on_c, 1, 62, 75
1, 5134, Note_on_c, 0, 69, 0
1, 5135, Note_on_c, 1, 62, 0
1, 5136, Note_on_c, 1, 55, 75
1, 5137, Note_on_c, 0, 73, 75
1, 5145, Note_on_c, 0, 73, 0
1, 5145, Note_on_c, 0, 71, 75
1, 5151, Note_on_c, 1, 55, 0
1, 5152, Note_on_c, 1, 59, 75
1, 5153, Note_on_c, 0, 71, 0
1, 5153, Note_on_c, 0, 73, 75
1, 5161, Note_on_c, 0, 73, 0
1, 5161, Note_on_c, 0, 71, 75
1, 5167, Note_on_c, 1, 59, 0
1, 5168, Note_on_c, 1, 62, 75
1, 5169, Note_on_c, 0, 71, 0
1, 5169, Note_on_c, 0, 69, 75
1, 5177, Note_on_c, 0, 69, 0
1, 5177, Note_on_c, 0, 71, 75
1, 5183, Note_on_c, 1, 62, 0
1, 5184, Note_on_c, 1, 54, 75
1, 5185, Note_on_c, 0, 71, 0
1, 5185, Note_on_c, 0, 69, 75
1, 5192, Note_on_c, 0, 69, 0
1, 5201, Note_on_c, 0, 81, 75
1, 5216, Note_on_c, 0, 81, 0
1, 5217, Note_on_c, 0, 79, 75
1, 5229, Note_on_c, 1, 54, 0
1, 5232, Note_on_c, 0, 79, 0
1, 5233, Note_on_c, 0, 78, 75
1, 5248, Note_on_c, 0, 78, 0
1, 5249, Note_on_c, 0, 76, 75
1, 5264, Note_on_c, 0, 76, 0
1, 5265, Note_on_c, 0, 74, 75
1, 5280, Note_on_c, 0, 74, 0
1, 5280, Note_on_c, 1, 55, 75
1, 5280, Note_on_c, 1, 43, 75
1, 5281, Note_on_c, 0, 71, 75
1, 5288, Note_on_c, 0, 71, 0
1, 5297, Note_on_c, 0, 83, 75
1, 5312, Note_on_c, 0, 83, 0
1, 5313, Note_on_c, 0, 81, 75
1, 5325, Note_on_c, 1, 55, 0
1, 5325, Note_on_c, 1, 43, 0
1, 5328, Note_on_c, 0, 81, 0
1, 5329, Note_on_c, 0, 79, 75
1, 5344, Note_on_c, 0, 79, 0
1, 5345, Note_on_c, 0, 78, 75
1, 5360, Note_on_c, 0, 78, 0
1, 5361, Note_on_c, 0, 76, 75
1, 5376, Note_on_c, 0, 76, 0
1, 5377, Note_on_c, 0, 78, 75
1, 5392, Note_on_c, 0, 78, 0
1, 5393, Note_on_c, 0, 79, 75
1, 5408, Note_on_c, 0, 79, 0
1, 5409, Note_on_c, 0, 81, 75
1, 5424, Note_on_c, 0, 81, 0
1, 5424, Note_on_c, 1, 59, 75
1, 5424, Note_on_c, 1, 47, 75
1, 5425, Note_on_c, 0, 74, 75
1, 5440, Note_on_c, 0, 74, 0
1, 5441, Note_on_c, 0, 79, 75
1, 5456, Note_on_c, 0, 79, 0
1, 5457, Note_on_c, 0, 76, 75
1, 5469, Note_on_c, 1, 59, 0
1, 5469, Note_on_c, 1, 47, 0
1, 5472, Note_on_c, 0, 76, 0
1, 5472, Note_on_c, 1, 55, 75
1, 5472, Note_on_c, 1, 43, 75
1, 5473, Note_on_c, 0, 78, 75
1, 5483, Note_on_c, 0, 78, 0
1, 5483, Note_on_c, 0, 76, 75
1, 5493, Note_on_c, 0, 76, 0
1, 5493, Note_on_c, 0, 78, 75
1, 5503, Note_on_c, 0, 78, 0
1, 5503, Note_on_c, 0, 76, 75
1, 5513, Note_on_c, 0, 76, 0
1, 5513, Note_on_c, 0, 78, 75
1, 5517, Note_on_c, 1, 55, 0
1, 5517, Note_on_c, 1, 43, 0
1, 5520, Note_on_c, 1, 57, 75
1, 5520, Note_on_c, 1, 45, 75
1, 5523, Note_on_c, 0, 78, 0
1, 5523, Note_on_c, 0, 76, 75
1, 5533, Note_on_c, 0, 76, 0
1, 5533, Note_on_c, 0, 78, 75
1, 5542, Note_on_c, 0, 78, 0
1, 5542, Note_on_c, 0, 76, 75
1, 5551, Note_on_c, 0, 76, 0
1, 5551, Note_on_c, 0, 74, 75
1, 5560, Note_on_c, 0, 74, 0
1, 5560, Note_on_c, 0, 76, 75
1, 5565, Note_on_c, 1, 57, 0
1, 5565, Note_on_c, 1, 45, 0
1, 5568, Note_on_c, 1, 50, 75
1, 5569, Note_on_c, 0, 76, 0
1, 5569, Note_on_c, 0, 74, 75
1, 5613, Note_on_c, 1, 50, 0
1, 5616, Note_on_c, 1, 38, 75
1, 5658, Note_on_c, 0, 74, 0
1, 5661, Note_on_c, 1, 38, 0
1, 5664, Note_on_c, 1, 61, 66
1, 5665, Note_on_c, 0, 81, 70
1, 5679, Note_on_c, 1, 61, 0
1, 5680, Note_on_c, 1, 64, 66
1, 5695, Note_on_c, 1, 64, 0
1, 5696, Note_on_c, 1, 69, 66
1, 5711, Note_on_c, 1, 69, 0
1, 5712, Note_on_c, 1, 61, 66
1, 5727, Note_on_c, 1, 61, 0
1, 5728, Note_on_c, 1, 64, 66
1, 5732, Note_on_c, 0, 81, 0
1, 5737, Note_on_c, 0, 79, 70
1, 5743, Note_on_c, 1, 64, 0
1, 5744, Note_on_c, 1, 69, 66
1, 5745, Note_on_c, 0, 79, 0
1, 5745, Note_on_c, 0, 77, 70
1, 5753, Note_on_c, 0, 77, 0
1, 5753, Note_on_c, 0, 76, 70
1, 5759, Note_on_c, 1, 69, 0
1, 5760, Note_on_c, 1, 62, 66
1, 5761, Note_on_c, 0, 76, 0
1, 5761, Note_on_c, 0, 79, 70
1, 5769, Note_on_c, 0, 79, 0
1, 5769, Note_on_c, 0, 77, 70
1, 5775, Note_on_c, 1, 62, 0
1, 5776, Note_on_c, 1, 65, 66
1, 5777, Note_on_c, 0, 77, 0
1, 5777, Note_on_c, 0, 79, 70
1, 5785, Note_on_c, 0, 79, 0
1, 5785, Note_on_c, 0, 77, 70
1, 5791, Note_on_c, 1, 65, 0
1, 5792, Note_on_c, 1, 69, 66
1, 5793, Note_on_c, 0, 77, 0
1, 5793, Note_on_c, 0, 76, 70
1, 5801, Note_on_c, 0, 76, 0
1, 5801, Note_on_c, 0, 77, 70
1, 5807, Note_on_c, 1, 69, 0
1, 5808, Note_on_c, 1, 61, 66
1, 5809, Note_on_c, 0, 77, 0
1, 5809, Note_on_c, 0, 76, 70
1, 5823, Note_on_c, 1, 61, 0
1, 5824, Note_on_c, 1, 64, 66
1, 5839, Note_on_c, 1, 64, 0
1, 5840, Note_on_c, 1, 69, 66
1, 5854, Note_on_c, 0, 76, 0
1, 5855, Note_on_c, 1, 69, 0
1, 5856, Note_on_c, 1, 61, 66
1, 5857, Note_on_c, 0, 81, 66
1, 5871, Note_on_c, 1, 61, 0
1, 5872, Note_on_c, 1, 64, 66
1, 5887, Note_on_c, 1, 64, 0
1, 5888, Note_on_c, 1, 69, 66
1, 5903, Note_on_c, 1, 69, 0
1, 5904, Note_on_c, 1, 61, 66
1, 5919, Note_on_c, 1, 61, 0
1, 5920, Note_on_c, 1, 64, 66
1, 5924, Note_on_c, 0, 81, 0
1, 5929, Note_on_c, 0, 79, 66
1, 5935, Note_on_c, 1, 64, 0
1, 5936, Note_on_c, 1, 69, 66
1, 5937, Note_on_c, 0, 79, 0
1, 5937, Note_on_c, 0, 77, 66
1, 5945, Note_on_c, 0, 77, 0
1, 5945, Note_on_c, 0, 76, 66
1, 5951, Note_on_c, 1, 69, 0
1, 5952, Note_on_c, 1, 62, 66
1, 5953, Note_on_c, 0, 76, 0
1, 5953, Note_on_c, 0, 79, 66
1, 5961, Note_on_c, 0, 79, 0
1, 5961, Note_on_c, 0, 77, 66
1, 5967, Note_on_c, 1, 62, 0
1, 5968, Note_on_c, 1, 65, 66
1, 5969, Note_on_c, 0, 77, 0
1, 5969, Note_on_c, 0, 79, 66
1, 5977, Note_on_c, 0, 79, 0
1, 5977, Note_on_c, 0, 77, 66
1, 5983, Note_on_c, 1, 65, 0
1, 5984, Note_on_c, 1, 69, 66
1, 5985, Note_on_c, 0, 77, 0
1, 5985, Note_on_c, 0, 76, 66
1, 5993, Note_on_c, 0, 76, 0
1, 5993, Note_on_c, 0, 77, 66
1, 5999, Note_on_c, 1, 69, 0
1, 6000, Note_on_c, 1, 61, 66
1, 6001, Note_on_c, 0, 77, 0
1, 6001, Note_on_c, 0, 76, 66
1, 6015, Note_on_c, 1, 61, 0
1, 6016, Note_on_c, 1, 64, 66
1, 6031, Note_on_c, 1, 64, 0
1, 6032, Note_on_c, 1, 69, 66
1, 6046, Note_on_c, 0, 76, 0
1, 6047, Note_on_c, 1, 69, 0
1, 6048, Note_on_c, 1, 61, 66
1, 6049, Note_on_c, 0, 81, 70
1, 6063, Note_on_c, 1, 61, 0
1, 6064, Note_on_c, 1, 64, 66
1, 6079, Note_on_c, 1, 64, 0
1, 6080, Note_on_c, 1, 69, 66
1, 6095, Note_on_c, 1, 69, 0
1, 6096, Note_on_c, 1, 61, 66
1, 6111, Note_on_c, 1, 61, 0
1, 6112, Note_on_c, 1, 64, 66
1, 6116, Note_on_c, 0, 81, 0
1, 6121, Note_on_c, 0, 79, 70
1, 6127, Note_on_c, 1, 64, 0
1, 6128, Note_on_c, 1, 69, 66
1, 6129, Note_on_c, 0, 79, 0
1, 6129, Note_on_c, 0, 77, 70
1, 6137, Note_on_c, 0, 77, 0
1, 6137, Note_on_c, 0, 76, 70
1, 6143, Note_on_c, 1, 69, 0
1, 6144, Note_on_c, 1, 62, 66
1, 6145, Note_on_c, 0, 76, 0
1, 6145, Note_on_c, 0, 77, 70
1, 6159, Note_on_c, 1, 62, 0
1, 6160, Note_on_c, 1, 65, 66
1, 6175, Note_on_c, 1, 65, 0
1, 6176, Note_on_c, 1, 69, 66
1, 6190, Note_on_c, 0, 77, 0
1, 6191, Note_on_c, 1, 69, 0
1, 6192, Note_on_c, 1, 62, 66
1, 6193, Note_on_c, 0, 74, 70
1, 6207, Note_on_c, 1, 62, 0
1, 6208, Note_on_c, 1, 65, 66
1, 6223, Note_on_c, 1, 65, 0
1, 6224, Note_on_c, 1, 69, 66
1, 6227, Note_on_c, 0, 74, 0
1, 6229, Note_on_c, 0, 76, 70
1, 6239, Note_on_c, 1, 69, 0
1, 6240, Note_on_c, 1, 62, 66
1, 6241, Note_on_c, 0, 76, 0
1, 6241, Note_on_c, 0, 77, 71
1, 6255, Note_on_c, 1, 62, 0
1, 6256, Note_on_c, 1, 65, 66
1, 6271, Note_on_c, 1, 65, 0
1, 6272, Note_on_c, 1, 69, 66
1, 6275, Note_on_c, 0, 77, 0
1, 6277, Note_on_c, 0, 76, 72
1, 6287, Note_on_c, 1, 69, 0
1, 6288, Note_on_c, 1, 62, 66
1, 6289, Note_on_c, 0, 76, 0
1, 6289, Note_on_c, 0, 77, 72
1, 6303, Note_on_c, 1, 62, 0
1, 6304, Note_on_c, 1, 65, 66
1, 6319, Note_on_c, 1, 65, 0
1, 6320, Note_on_c, 1, 69, 66
1, 6323, Note_on_c, 0, 77, 0
1, 6325, Note_on_c, 0, 79, 73
1, 6335, Note_on_c, 1, 69, 0
1, 6336, Note_on_c, 1, 57, 66
1, 6337, Note_on_c, 0, 79, 0
1, 6337, Note_on_c, 0, 81, 73
1, 6381, Note_on_c, 1, 57, 0
1, 6382, Note_on_c, 0, 81, 0
1, 6421, Note_on_c, 0, 74, 75
1, 6432, Note_on_c, 1, 54, 75
1, 6433, Note_on_c, 0, 74, 0
1, 6433, Note_on_c, 0, 69, 75
1, 6447, Note_on_c, 1, 54, 0
1, 6448, Note_on_c, 1, 57, 75
1, 6463, Note_on_c, 1, 57, 0
1, 6464, Note_on_c, 1, 62, 75
1, 6478, Note_on_c, 0, 69, 0
1, 6479, Note_on_c, 1, 62, 0
1, 6480, Note_on_c, 1, 55, 75
1, 6481, Note_on_c, 0, 73, 75
1, 6489, Note_on_c, 0, 73, 0
1, 6489, Note_on_c, 0, 71, 75
1, 6495, Note_on_c, 1, 55, 0
1, 6496, Note_on_c, 1, 59, 75
1, 6497, Note_on_c, 0, 71, 0
1, 6497, Note_on_c, 0, 73, 75
1, 6505, Note_on_c, 0, 73, 0
1, 6505, Note_on_c, 0, 71, 75
1, 6511, Note_on_c, 1, 59, 0
1, 6512, Note_on_c, 1, 62, 75
1, 6513, Note_on_c, 0, 71, 0
1, 6513, Note_on_c, 0, 69, 75
1, 6521, Note_on_c, 0, 69, 0
1, 6521, Note_on_c, 0, 71, 75
1, 6527, Note_on_c, 1, 62, 0
1, 6528, Note_on_c, 1, 54, 75
1, 6529, Note_on_c, 0, 71, 0
1, 6529, Note_on_c, 0, 69, 75
1, 6536, Note_on_c, 0, 69, 0
1, 6545, Note_on_c, 0, 81, 75
1, 6560, Note_on_c, 0, 81, 0
1, 6561, Note_on_c, 0, 79, 75
1, 6576, Note_on_c, 0, 79, 0
1, 6577, Note_on_c, 0, 78, 75
1, 6592, Note_on_c, 0, 78, 0
1, 6593, Note_on_c, 0, 76, 75
1, 6608, Note_on_c, 0, 76, 0
1, 6609, Note_on_c, 0, 74, 75
1, 6617, Note_on_c, 1, 54, 0
1, 6624, Note_on_c, 0, 74, 0
1, 6624, Note_on_c, 1, 54, 75
1, 6625, Note_on_c, 0, 69, 75
1, 6639, Note_on_c, 1, 54, 0
1, 6640, Note_on_c, 1, 57, 75
1, 6655, Note_on_c, 1, 57, 0
1, 6656, Note_on_c, 1, 62, 75
1, 6670, Note_on_c, 0, 69, 0
1, 6671, Note_on_c, 1, 62, 0
1, 6672, Note_on_c, 1, 55, 75
1, 6673, Note_on_c, 0, 73, 75
1, 6681, Note_on_c, 0, 73, 0
1, 6681, Note_on_c, 0, 71, 75
1, 6687, Note_on_c, 1, 55, 0
1, 6688, Note_on_c, 1, 59, 75
1, 6689, Note_on_c, 0, 71, 0
1, 6689, Note_on_c, 0, 73, 75
1, 6697, Note_on_c, 0, 73, 0
1, 6697, Note_on_c, 0, 71, 75
1, 6703, Note_on_c, 1, 59, 0
1, 6704, Note_on_c, 1, 62, 75
1, 6705, Note_on_c, 0, 71, 0
1, 6705, Note_on_c, 0, 69, 75
1, 6713, Note_on_c, 0, 69, 0
1, 6713, Note_on_c, 0, 71, 75
1, 6719, Note_on_c, 1, 62, 0
1, 6720, Note_on_c, 1, 54, 75
1, 6721, Note_on_c, 0, 71, 0
1, 6721, Note_on_c, 0, 69, 75
1, 6728, Note_on_c, 0, 69, 0
1, 6737, Note_on_c, 0, 81, 75
1, 6752, Note_on_c, 0, 81, 0
1, 6753, Note_on_c, 0, 79, 75
1, 6765, Note_on_c, 1, 54, 0
1, 6768, Note_on_c, 0, 79, 0
1, 6769, Note_on_c, 0, 78, 75
1, 6784, Note_on_c, 0, 78, 0
1, 6785, Note_on_c, 0, 76, 75
1, 6800, Note_on_c, 0, 76, 0
1, 6801, Note_on_c, 0, 74, 75
1, 6816, Note_on_c, 0, 74, 0
1, 6816, Note_on_c, 1, 55, 75
1, 6816, Note_on_c, 1, 43, 75
1, 6817, Note_on_c, 0, 71, 75
1, 6824, Note_on_c, 0, 71, 0
1, 6833, Note_on_c, 0, 83, 75
1, 6848, Note_on_c, 0, 83, 0
1, 6849, Note_on_c, 0, 81, 75
1, 6861, Note_on_c, 1, 55, 0
1, 6861, Note_on_c, 1, 43, 0
1, 6864, Note_on_c, 0, 81, 0
1, 6865, Note_on_c, 0, 79, 75
1, 6880, Note_on_c, 0, 79, 0
1, 6881, Note_on_c, 0, 78, 75
1, 6896, Note_on_c, 0, 78, 0
1, 6897, Note_on_c, 0, 76, 75
1, 6912, Note_on_c, 0, 76, 0
1, 6913, Note_on_c, 0, 78, 75
1, 6928, Note_on_c, 0, 78, 0
1, 6929, Note_on_c, 0, 81, 75
1, 6944, Note_on_c, 0, 81, 0
1, 6945, Note_on_c, 0, 86, 75
1, 6960, Note_on_c, 0, 86, 0
1, 6960, Note_on_c, 1, 59, 75
1, 6960, Note_on_c, 1, 47, 75
1, 6961, Note_on_c, 0, 74, 75
1, 6976, Note_on_c, 0, 74, 0
1, 6977, Note_on_c, 0, 79, 75
1, 6992, Note_on_c, 0, 79, 0
1, 6993, Note_on_c, 0, 76, 75
1, 7005, Note_on_c, 1, 59, 0
1, 7005, Note_on_c, 1, 47, 0
1, 7008, Note_on_c, 0, 76, 0
1, 7008, Note_on_c, 1, 55, 75
1, 7008, Note_on_c, 1, 43, 75
1, 7009, Note_on_c, 0, 78, 75
1, 7019, Note_on_c, 0, 78, 0
1, 7019, Note_on_c, 0, 76, 75
1, 7029, Note_on_c, 0, 76, 0
1, 7029, Note_on_c, 0, 78, 75
1, 7039, Note_on_c, 0, 78, 0
1, 7039, Note_on_c, 0, 76, 75
1, 7049, Note_on_c, 0, 76, 0
1, 7049, Note_on_c, 0, 78, 75
1, 7053, Note_on_c, 1, 55, 0
1, 7053, Note_on_c, 1, 43, 0
1, 7056, Note_on_c, 1, 57, 75
1, 7056, Note_on_c, 1, 45, 75
1, 7059, Note_on_c, 0, 78, 0
1, 7059, Note_on_c, 0, 76, 75
1, 7069, Note_on_c, 0, 76, 0
1, 7069, Note_on_c, 0, 78, 75
1, 7078, Note_on_c, 0, 78, 0
1, 7078, Note_on_c, 0, 76, 75
1, 7087, Note_on_c, 0, 76, 0
1, 7087, Note_on_c, 0, 74, 75
1, 7096, Note_on_c, 0, 74, 0
1, 7096, Note_on_c, 0, 76, 75
1, 7101, Note_on_c, 1, 57, 0
1, 7101, Note_on_c, 1, 45, 0
1, 7104, Note_on_c, 1, 50, 75
1, 7105, Note_on_c, 0, 76, 0
1, 7105, Note_on_c, 0, 74, 75
1, 7149, Note_on_c, 1, 50, 0
1, 7152, Note_on_c, 1, 45, 75
1, 7194, Note_on_c, 0, 74, 0
1, 7197, Note_on_c, 1, 45, 0
1, 7200, Note_on_c, 1, 38, 75
1, 7245, Note_on_c, 1, 38, 0
1, 7249, Tempo, 833333
1, 7249, Note_on_c, 0, 74, 75
1, 7264, Note_on_c, 0, 74, 0
1, 7265, Note_on_c, 0, 71, 75
1, 7280, Note_on_c, 0, 71, 0
1, 7281, Note_on_c, 0, 67, 75
1, 7296, Note_on_c, 0, 67, 0
1, 7297, Note_on_c, 0, 79, 75
1, 7342, Note_on_c, 0, 79, 0
1, 7344, Note_on_c, 1, 55, 75
1, 7345, Note_on_c, 0, 74, 75
1, 7389, Note_on_c, 1, 55, 0
1, 7390, Note_on_c, 0, 74, 0
1, 7392, Note_on_c, 1, 59, 75
1, 7393, Note_on_c, 0, 74, 75
1, 7437, Note_on_c, 1, 59, 0
1, 7438, Note_on_c, 0, 74, 0
1, 7440, Note_on_c, 1, 55, 75
1, 7441, Note_on_c, 0, 74, 75
1, 7485, Note_on_c, 1, 55, 0
1, 7486, Note_on_c, 0, 74, 0
1, 7488, Note_on_c, 1, 57, 75
1, 7489, Note_on_c, 0, 72, 75
1, 7501, Note_on_c, 0, 72, 0
1, 7501, Note_on_c, 0, 71, 75
1, 7513, Note_on_c, 0, 71, 0
1, 7513, Note_on_c, 0, 72, 75
1, 7525, Note_on_c, 0, 72, 0
1, 7525, Note_on_c, 0, 74, 75
1, 7537, Note_on_c, 0, 74, 0
1, 7537, Note_on_c, 0, 76, 75
1, 7555, Note_on_c, 1, 57, 0
1, 7560, Note_on_c, 1, 60, 75
1, 7583, Note_on_c, 1, 60, 0
1, 7584, Note_on_c, 1, 54, 75
1, 7629, Note_on_c, 1, 54, 0
1, 7630, Note_on_c, 0, 76, 0
1, 7632, Note_on_c, 1, 66, 75
1, 7633, Note_on_c, 0, 69, 75
1, 7656, Note_on_c, 0, 69, 0
1, 7657, Note_on_c, 0, 72, 75
1, 7677, Note_on_c, 1, 66, 0
1, 7680, Note_on_c, 0, 72, 0
1, 7680, Note_on_c, 1, 67, 75
1, 7681, Note_on_c, 0, 72, 75
1, 7704, Note_on_c, 0, 72, 0
1, 7705, Note_on_c, 0, 71, 75
1, 7725, Note_on_c, 1, 67, 0
1, 7728, Note_on_c, 0, 71, 0
1, 7728, Note_on_c, 1, 60, 75
1, 7729, Note_on_c, 0, 76, 75
1, 7751, Note_on_c, 1, 60, 0
1, 7752, Note_on_c, 0, 76, 0
1, 7752, Note_on_c, 1, 62, 75
1, 7753, Note_on_c, 0, 74, 75
1, 7775, Note_on_c, 1, 62, 0
1, 7776, Note_on_c, 0, 74, 0
1, 7776, Note_on_c, 1, 64, 75
1, 7777, Note_on_c, 0, 72, 75
1, 7800, Note_on_c, 0, 72, 0
1, 7801, Note_on_c, 0, 71, 75
1, 7821, Note_on_c, 1, 64, 0
1, 7824, Note_on_c, 0, 71, 0
1, 7824, Note_on_c, 1, 60, 75
1, 7825, Note_on_c, 0, 69, 75
1, 7848, Note_on_c, 0, 69, 0
1, 7849, Note_on_c, 0, 67, 75
1, 7869, Note_on_c, 1, 60, 0
1, 7872, Note_on_c, 0, 67, 0
1, 7872, Note_on_c, 1, 62, 75
1, 7873, Note_on_c, 0, 66, 75
1, 7888, Note_on_c, 0, 66, 0
1, 7889, Note_on_c, 0, 67, 75
1, 7904, Note_on_c, 0, 67, 0
1, 7905, Note_on_c, 0, 69, 75
1, 7917, Note_on_c, 1, 62, 0
1, 7920, Note_on_c, 0, 69, 0
1, 7920, Note_on_c, 1, 55, 75
1, 7921, Note_on_c, 0, 67, 75
1, 7965, Note_on_c, 1, 55, 0
1, 7966, Note_on_c, 0, 67, 0
1, 8017, Note_on_c, 0, 62, 75
1, 8032, Note_on_c, 0, 62, 0
1, 8033, Note_on_c, 0, 59, 75
1, 8048, Note_on_c, 0, 59, 0
1, 8049, Note_on_c, 0, 55, 75
1, 8064, Note_on_c, 0, 55, 0
1, 8065, Note_on_c, 0, 67, 75
1, 8110, Note_on_c, 0, 67, 0
1, 8112, Note_on_c, 1, 43, 81
1, 8113, Note_on_c, 0, 67, 75
1, 8146, Note_on_c, 1, 43, 0
1, 8148, Note_on_c, 1, 45, 81
1, 8158, Note_on_c, 0, 67, 0
1, 8160, Note_on_c, 1, 45, 0
1, 8160, Note_on_c, 1, 47, 81
1, 8161, Note_on_c, 0, 67, 75
1, 8205, Note_on_c, 1, 47, 0
1, 8206, Note_on_c, 0, 67, 0
1, 8208, Note_on_c, 1, 49, 81
1, 8209, Note_on_c, 0, 67, 75
1, 8253, Note_on_c, 1, 49, 0
1, 8254, Note_on_c, 0, 67, 0
1, 8256, Note_on_c, 1, 50, 81
1, 8257, Note_on_c, 0, 66, 75
1, 8269, Note_on_c, 0, 66, 0
1, 8269, Note_on_c, 0, 64, 75
1, 8281, Note_on_c, 0, 64, 0
1, 8281, Note_on_c, 0, 66, 75
1, 8293, Note_on_c, 0, 66, 0
1, 8293, Note_on_c, 0, 67, 75
1, 8305, Note_on_c, 0, 67, 0
1, 8305, Note_on_c, 0, 69, 75
1, 8317, Note_on_c, 0, 69, 0
1, 8317, Note_on_c, 0, 67, 75
1, 8329, Note_on_c, 0, 67, 0
1, 8329, Note_on_c, 0, 69, 75
1, 8341, Note_on_c, 0, 69, 0
1, 8341, Note_on_c, 0, 71, 75
1, 8345, Note_on_c, 1, 50, 0
1, 8353, Note_on_c, 0, 71, 0
1, 8353, Note_on_c, 0, 72, 75
1, 8388, Note_on_c, 1, 50, 81
1, 8400, Note_on_c, 1, 50, 0
1, 8400, Note_on_c, 1, 52, 81
1, 8434, Note_on_c, 1, 52, 0
1, 8436, Note_on_c, 1, 54, 81
1, 8442, Note_on_c, 0, 72, 0
1, 8448, Note_on_c, 1, 54, 0
1, 8448, Note_on_c, 1, 55, 81
1, 8449, Note_on_c, 0, 71, 75
1, 8464, Note_on_c, 0, 71, 0
1, 8465, Note_on_c, 0, 69, 75
1, 8480, Note_on_c, 0, 69, 0
1, 8481, Note_on_c, 0, 67, 76
1, 8496, Note_on_c, 0, 67, 0
1, 8497, Note_on_c, 0, 74, 76
1, 8512, Note_on_c, 0, 74, 0
1, 8513, Note_on_c, 0, 72, 77
1, 8528, Note_on_c, 0, 72, 0
1, 8529, Note_on_c, 0, 71, 77
1, 8537, Note_on_c, 1, 55, 0
1, 8544, Note_on_c, 0, 71, 0
1, 8545, Note_on_c, 0, 79, 78
1, 8560, Note_on_c, 0, 79, 0
1, 8561, Note_on_c, 0, 78, 78
1, 8576, Note_on_c, 0, 78, 0
1, 8577, Note_on_c, 0, 76, 79
1, 8592, Note_on_c, 0, 76, 0
1, 8592, Note_on_c, 1, 67, 75
1, 8592, Note_on_c, 0, 62, 64
1, 8593, Note_on_c, 0, 74, 79
1, 8608, Note_on_c, 0, 74, 0
1, 8609, Note_on_c, 0, 72, 80
1, 8624, Note_on_c, 0, 72, 0
1, 8625, Note_on_c, 0, 71, 80
1, 8637, Note_on_c, 1, 67, 0
1, 8637, Note_on_c, 0, 62, 0
1, 8640, Note_on_c, 0, 71, 0
1, 8640, Note_on_c, 1, 67, 75
1, 8640, Note_on_c, 0, 62, 64
1, 8641, Note_on_c, 0, 72, 81
1, 8649, Note_on_c, 0, 72, 0
1, 8649, Note_on_c, 0, 71, 80
1, 8657, Note_on_c, 0, 71, 0
1, 8657, Note_on_c, 0, 72, 80
1, 8665, Note_on_c, 0, 72, 0
1, 8665, Note_on_c, 0, 71, 80
1, 8673, Note_on_c, 0, 71, 0
1, 8673, Note_on_c, 0, 69, 80
1, 8681, Note_on_c, 0, 69, 0
1, 8681, Note_on_c, 0, 71, 79
1, 8685, Note_on_c, 1, 67, 0
1, 8688, Note_on_c, 1, 66, 75
1, 8689, Note_on_c, 0, 71, 0
1, 8689, Note_on_c, 0, 69, 79
1, 8729, Note_on_c, 0, 62, 0
1, 8733, Note_on_c, 1, 66, 0
1, 8734, Note_on_c, 0, 69, 0
1, 8785, Note_on_c, 0, 81, 75
1, 8785, Note_on_c, 0, 78, 75
1, 8819, Note_on_c, 0, 81, 0
1, 8819, Note_on_c, 0, 78, 0
1, 8821, Note_on_c, 0, 81, 75
1, 8821, Note_on_c, 0, 78, 75
1, 8833, Note_on_c, 0, 81, 0
1, 8833, Note_on_c, 0, 78, 0
1, 8833, Note_on_c, 0, 81, 75
1, 8833, Note_on_c, 0, 78, 75
1, 8867, Note_on_c, 0, 81, 0
1, 8867, Note_on_c, 0, 78, 0
1, 8869, Note_on_c, 0, 79, 75
1, 8869, Note_on_c, 0, 76, 75
1, 8881, Note_on_c, 0, 79, 0
1, 8881, Note_on_c, 0, 76, 0
1, 8881, Note_on_c, 0, 78, 75
1, 8881, Note_on_c, 0, 74, 75
1, 8915, Note_on_c, 0, 78, 0
1, 8915, Note_on_c, 0, 74, 0
1, 8916, Note_on_c, 1, 62, 75
1, 8917, Note_on_c, 0, 78, 75
1, 8917, Note_on_c, 0, 69, 75
1, 8928, Note_on_c, 1, 62, 0
1, 8928, Note_on_c, 1, 62, 75
1, 8929, Note_on_c, 0, 78, 0
1, 8929, Note_on_c, 0, 69, 0
1, 8929, Note_on_c, 0, 78, 75
1, 8929, Note_on_c, 0, 69, 75
1, 8963, Note_on_c, 0, 78, 0
1, 8963, Note_on_c, 0, 69, 0
1, 8965, Note_on_c, 0, 76, 75
1, 8965, Note_on_c, 0, 67, 75
1, 8977, Note_on_c, 0, 76, 0
1, 8977, Note_on_c, 0, 67, 0
1, 8977, Note_on_c, 0, 74, 75
1, 8977, Note_on_c, 0, 66, 75
1, 9011, Note_on_c, 0, 74, 0
1, 9011, Note_on_c, 0, 66, 0
1, 9013, Note_on_c, 0, 81, 75
1, 9013, Note_on_c, 0, 78, 75
1, 9017, Note_on_c, 1, 62, 0
1, 9025, Note_on_c, 0, 81, 0
1, 9025, Note_on_c, 0, 78, 0
1, 9025, Note_on_c, 0, 81, 75
1, 9025, Note_on_c, 0, 78, 75
1, 9059, Note_on_c, 0, 81, 0
1, 9059, Note_on_c, 0, 78, 0
1, 9061, Note_on_c, 0, 79, 75
1, 9061, Note_on_c, 0, 76, 75
1, 9073, Note_on_c, 0, 79, 0
1, 9073, Note_on_c, 0, 76, 0
1, 9073, Note_on_c, 0, 78, 75
1, 9073, Note_on_c, 0, 74, 75
1, 9107, Note_on_c, 0, 78, 0
1, 9107, Note_on_c, 0, 74, 0
1, 9108, Note_on_c, 1, 62, 75
1, 9109, Note_on_c, 0, 78, 75
1, 9109, Note_on_c, 0, 69, 75
1, 9120, Note_on_c, 1, 62, 0
1, 9120, Note_on_c, 1, 62, 75
1, 9121, Note_on_c, 0, 78, 0
1, 9121, Note_on_c, 0, 69, 0
1, 9121, Note_on_c, 0, 78, 75
1, 9121, Note_on_c, 0, 69, 75
1, 9155, Note_on_c, 0, 78, 0
1, 9155, Note_on_c, 0, 69, 0
1, 9157, Note_on_c, 0, 76, 75
1, 9157, Note_on_c, 0, 67, 75
1, 9168, Note_on_c, 0, 66, 64
1, 9169, Note_on_c, 0, 76, 0
1, 9169, Note_on_c, 0, 67, 0
1, 9169, Note_on_c, 0, 74, 75
1, 9203, Note_on_c, 0, 74, 0
1, 9205, Note_on_c, 0, 74, 75
1, 9209, Note_on_c, 1, 62, 0
1, 9213, Note_on_c, 0, 66, 0
1, 9216, Note_on_c, 1, 67, 75
1, 9216, Note_on_c, 1, 61, 75
1, 9217, Note_on_c, 0, 74, 0
1, 9217, Note_on_c, 0, 75, 75
1, 9241, Note_on_c, 0, 75, 0
1, 9241, Note_on_c, 0, 76, 73
1, 9261, Note_on_c, 1, 67, 0
1, 9261, Note_on_c, 1, 61, 0
1, 9264, Note_on_c, 0, 76, 0
1, 9264, Note_on_c, 1, 67, 72
1, 9264, Note_on_c, 1, 61, 72
1, 9265, Note_on_c, 0, 76, 72
1, 9275, Note_on_c, 0, 76, 0
1, 9289, Note_on_c, 0, 76, 71
1, 9299, Note_on_c, 0, 76, 0
1, 9309, Note_on_c, 1, 67, 0
1, 9309, Note_on_c, 1, 61, 0
1, 9312, Note_on_c, 1, 67, 70
1, 9312, Note_on_c, 1, 61, 70
1, 9313, Note_on_c, 0, 76, 70
1, 9357, Note_on_c, 1, 67, 0
1, 9357, Note_on_c, 1, 61, 0
1, 9360, Note_on_c, 1, 67, 71
1, 9360, Note_on_c, 1, 61, 71
1, 9402, Note_on_c, 0, 76, 0
1, 9409, Note_on_c, 0, 61, 72
1, 9415, Note_on_c, 0, 61, 0
1, 9415, Note_on_c, 0, 64, 72
1, 9421, Note_on_c, 0, 64, 0
1, 9421, Note_on_c, 0, 67, 72
1, 9427, Note_on_c, 0, 67, 0
1, 9427, Note_on_c, 0, 69, 72
1, 9433, Note_on_c, 0, 69, 0
1, 9433, Note_on_c, 0, 73, 72
1, 9439, Note_on_c, 0, 73, 0
1, 9439, Note_on_c, 0, 76, 72
1, 9445, Note_on_c, 0, 76, 0
1, 9445, Note_on_c, 0, 79, 72
1, 9453, Note_on_c, 1, 67, 0
1, 9453, Note_on_c, 1, 61, 0
1, 9504, Note_on_c, 1, 57, 75
1, 9517, Note_on_c, 0, 79, 0
1, 9517, Note_on_c, 0, 78, 75
1, 9529, Note_on_c, 0, 78, 0
1, 9529, Note_on_c, 0, 76, 75
1, 9541, Note_on_c, 0, 76, 0
1, 9541, Note_on_c, 0, 74, 75
1, 9549, Note_on_c, 1, 57, 0
1, 9552, Note_on_c, 1, 61, 75
1, 9553, Note_on_c, 0, 74, 0
1, 9553, Note_on_c, 0, 73, 75
1, 9565, Note_on_c, 0, 73, 0
1, 9565, Note_on_c, 0, 71, 75
1, 9577, Note_on_c, 0, 71, 0
1, 9577, Note_on_c, 0, 69, 75
1, 9589, Note_on_c, 0, 69, 0
1, 9589, Note_on_c, 0, 67, 75
1, 9597, Note_on_c, 1, 61, 0
1, 9600, Note_on_c, 1, 62, 75
1, 9601, Note_on_c, 0, 67, 0
1, 9601, Note_on_c, 0, 66, 75
1, 9613, Note_on_c, 0, 66, 0
1, 9613, Note_on_c, 0, 69, 75
1, 9625, Note_on_c, 0, 69, 0
1, 9625, Note_on_c, 0, 71, 75
1, 9637, Note_on_c, 0, 71, 0
1, 9637, Note_on_c, 0, 73, 75
1, 9649, Note_on_c, 0, 73, 0
1, 9649, Note_on_c, 0, 74, 75
1, 9661, Note_on_c, 0, 74, 0
1, 9661, Note_on_c, 0, 76, 75
1, 9673, Note_on_c, 0, 76, 0
1, 9673, Note_on_c, 0, 78, 75
1, 9685, Note_on_c, 0, 78, 0
1, 9685, Note_on_c, 0, 79, 75
1, 9689, Note_on_c, 1, 62, 0
1, 9697, Note_on_c, 0, 79, 0
1, 9697, Note_on_c, 0, 81, 75
1, 9744, Note_on_c, 1, 54, 75
1, 9789, Note_on_c, 1, 54, 0
1, 9792, Note_on_c, 1, 55, 75
1, 9827, Note_on_c, 0, 81, 0
1, 9829, Note_on_c, 0, 82, 78
1, 9841, Note_on_c, 0, 82, 0
1, 9841, Note_on_c, 0, 83, 78
1, 9875, Note_on_c, 0, 83, 0
1, 9877, Note_on_c, 0, 85, 79
1, 9881, Note_on_c, 1, 55, 0
1, 9889, Note_on_c, 0, 85, 0
1, 9889, Note_on_c, 0, 86, 80
1, 9923, Note_on_c, 0, 86, 0
1, 9925, Note_on_c, 0, 74, 81
1, 9936, Note_on_c, 1, 56, 75
1, 9937, Note_on_c, 0, 74, 0
1, 9937, Note_on_c, 0, 78, 81
1, 9971, Note_on_c, 0, 78, 0
1, 9973, Note_on_c, 0, 81, 81
1, 9981, Note_on_c, 1, 56, 0
1, 9984, Note_on_c, 1, 57, 75
1, 9985, Note_on_c, 0, 81, 0
1, 9985, Note_on_c, 0, 79, 81
1, 9997, Note_on_c, 0, 79, 0
1, 9997, Note_on_c, 0, 78, 81
1, 10009, Note_on_c, 0, 78, 0
1, 10009, Note_on_c, 0, 76, 81
1, 10021, Note_on_c, 0, 76, 0
1, 10021, Note_on_c, 0, 78, 81
1, 10029, Note_on_c, 1, 57, 0
1, 10032, Note_on_c, 1, 45, 75
1, 10033, Note_on_c, 0, 78, 0
1, 10033, Note_on_c, 0, 76, 81
1, 10077, Note_on_c, 1, 45, 0
1, 10078, Note_on_c, 0, 76, 0
1, 10081, Note_on_c, 0, 81, 81
1, 10104, Note_on_c, 1, 57, 81
1, 10116, Note_on_c, 1, 57, 0
1, 10116, Note_on_c, 1, 59, 81
1, 10128, Note_on_c, 1, 59, 0
1, 10128, Note_on_c, 1, 61, 81
1, 10148, Note_on_c, 0, 81, 0
1, 10151, Note_on_c, 1, 61, 0
1, 10152, Note_on_c, 1, 57, 81
1, 10153, Note_on_c, 0, 69, 75
1, 10175, Note_on_c, 1, 57, 0
1, 10176, Note_on_c, 0, 69, 0
1, 10176, Note_on_c, 1, 64, 81
1, 10177, Note_on_c, 0, 68, 75
1, 10189, Note_on_c, 0, 68, 0
1, 10189, Note_on_c, 0, 66, 75
1, 10201, Note_on_c, 0, 66, 0
1, 10201, Note_on_c, 0, 68, 75
1, 10213, Note_on_c, 0, 68, 0
1, 10213, Note_on_c, 0, 69, 75
1, 10221, Note_on_c, 1, 64, 0
1, 10224, Note_on_c, 1, 52, 81
1, 10225, Note_on_c, 0, 69, 0
1, 10225, Note_on_c, 0, 71, 75
1, 10237, Note_on_c, 0, 71, 0
1, 10237, Note_on_c, 0, 69, 75
1, 10249, Note_on_c, 0, 69, 0
1, 10249, Note_on_c, 0, 71, 75
1, 10261, Note_on_c, 0, 71, 0
1, 10261, Note_on_c, 0, 73, 75
1, 10269, Note_on_c, 1, 52, 0
1, 10273, Note_on_c, 0, 73, 0
1, 10273, Note_on_c, 0, 74, 75
1, 10296, Note_on_c, 1, 52, 81
1, 10308, Note_on_c, 1, 52, 0
1, 10308, Note_on_c, 1, 54, 81
1, 10320, Note_on_c, 1, 54, 0
1, 10320, Note_on_c, 1, 56, 81
1, 10340, Note_on_c, 0, 74, 0
1, 10343, Note_on_c, 1, 56, 0
1, 10344, Note_on_c, 1, 52, 81
1, 10345, Note_on_c, 0, 62, 75
1, 10367, Note_on_c, 1, 52, 0
1, 10368, Note_on_c, 0, 62, 0
1, 10368, Note_on_c, 1, 57, 81
1, 10369, Note_on_c, 0, 61, 75
1, 10381, Note_on_c, 0, 61, 0
1, 10381, Note_on_c, 0, 59, 75
1, 10393, Note_on_c, 0, 59, 0
1, 10393, Note_on_c, 0, 61, 75
1, 10405, Note_on_c, 0, 61, 0
1, 10405, Note_on_c, 0, 62, 75
1, 10413, Note_on_c, 1, 57, 0
1, 10416, Note_on_c, 1, 45, 81
1, 10417, Note_on_c, 0, 62, 0
1, 10417, Note_on_c, 0, 64, 75
1, 10429, Note_on_c, 0, 64, 0
1, 10429, Note_on_c, 0, 62, 75
1, 10441, Note_on_c, 0, 62, 0
1, 10441, Note_on_c, 0, 64, 75
1, 10453, Note_on_c, 0, 64, 0
1, 10453, Note_on_c, 0, 66, 75
1, 10461, Note_on_c, 1, 45, 0
1, 10465, Note_on_c, 0, 66, 0
1, 10465, Note_on_c, 0, 67, 75
1, 10488, Note_on_c, 1, 45, 81
1, 10500, Note_on_c, 1, 45, 0
1, 10500, Note_on_c, 1, 47, 81
1, 10512, Note_on_c, 1, 47, 0
1, 10512, Note_on_c, 1, 49, 81
1, 10532, Note_on_c, 0, 67, 0
1, 10535, Note_on_c, 1, 49, 0
1, 10536, Note_on_c, 1, 45, 81
1, 10537, Note_on_c, 0, 55, 75
1, 10559, Note_on_c, 1, 45, 0
1, 10560, Note_on_c, 0, 55, 0
1, 10560, Note_on_c, 1, 50, 81
1, 10561, Note_on_c, 0, 54, 75
1, 10584, Note_on_c, 0, 54, 0
1, 10585, Note_on_c, 0, 61, 91
1, 10605, Note_on_c, 1, 50, 0
1, 10608, Note_on_c, 1, 38, 75
1, 10633, Note_on_c, 0, 61, 0
1, 10633, Note_on_c, 0, 62, 75
1, 10653, Note_on_c, 1, 38, 0
1, 10656, Note_on_c, 0, 62, 0
1, 10656, Note_on_c, 1, 40, 75
1, 10657, Note_on_c, 0, 55, 75
1, 10680, Note_on_c, 0, 55, 0
1, 10681, Note_on_c, 0, 61, 91
1, 10701, Note_on_c, 1, 40, 0
1, 10704, Note_on_c, 1, 52, 75
1, 10729, Note_on_c, 0, 61, 0
1, 10729, Note_on_c, 0, 62, 75
1, 10749, Note_on_c, 1, 52, 0
1, 10752, Note_on_c, 0, 62, 0
1, 10752, Note_on_c, 1, 54, 75
1, 10753, Note_on_c, 0, 57, 75
1, 10776, Note_on_c, 0, 57, 0
1, 10777, Note_on_c, 0, 61, 91
1, 10797, Note_on_c, 1, 54, 0
1, 10800, Note_on_c, 1, 42, 75
1, 10825, Note_on_c, 0, 61, 0
1, 10825, Note_on_c, 0, 62, 75
1, 10845, Note_on_c, 1, 42, 0
1, 10848, Note_on_c, 0, 62, 0
1, 10848, Note_on_c, 1, 55, 75
1, 10849, Note_on_c, 0, 59, 75
1, 10872, Note_on_c, 0, 59, 0
1, 10873, Note_on_c, 0, 64, 75
1, 10885, Note_on_c, 0, 64, 0
1, 10885, Note_on_c, 0, 66, 75
1, 10893, Note_on_c, 1, 55, 0
1, 10896, Note_on_c, 1, 52, 75
1, 10897, Note_on_c, 0, 66, 0
1, 10897, Note_on_c, 0, 67, 75
1, 10920, Note_on_c, 0, 67, 0
1, 10921, Note_on_c, 0, 64, 75
1, 10941, Note_on_c, 1, 52, 0
1, 10944, Note_on_c, 0, 64, 0
1, 10944, Note_on_c, 1, 57, 75
1, 10945, Note_on_c, 0, 62, 75
1, 10989, Note_on_c, 1, 57, 0
1, 10990, Note_on_c, 0, 62, 0
1, 10992, Note_on_c, 1, 45, 75
1, 10993, Note_on_c, 0, 61, 75
1, 11037, Note_on_c, 1, 45, 0
1, 11038, Note_on_c, 0, 61, 0
1, 11040, Note_on_c, 1, 61, 66
1, 11040, Note_on_c, 1, 57, 66
1, 11041, Note_on_c, 0, 71, 91
1, 11061, Note_on_c, 0, 71, 0
1, 11061, Note_on_c, 0, 69, 75
1, 11063, Note_on_c, 1, 61, 0
1, 11063, Note_on_c, 1, 57, 0
1, 11064, Note_on_c, 1, 61, 66
1, 11064, Note_on_c, 1, 57, 66
1, 11071, Note_on_c, 0, 69, 0
1, 11071, Note_on_c, 0, 71, 75
1, 11081, Note_on_c, 0, 71, 0
1, 11081, Note_on_c, 0, 69, 75
1, 11087, Note_on_c, 1, 61, 0
1, 11087, Note_on_c, 1, 57, 0
1, 11088, Note_on_c, 1, 61, 66
1, 11088, Note_on_c, 1, 57, 66
1, 11091, Note_on_c, 0, 69, 0
1, 11091, Note_on_c, 0, 71, 75
1, 11101, Note_on_c, 0, 71, 0
1, 11101, Note_on_c, 0, 69, 75
1, 11111, Note_on_c, 0, 69, 0
1, 11111, Note_on_c, 0, 71, 75
1, 11111, Note_on_c, 1, 61, 0
1, 11111, Note_on_c, 1, 57, 0
1, 11112, Note_on_c, 1, 61, 66
1, 11112, Note_on_c, 1, 57, 66
1, 11120, Note_on_c, 0, 71, 0
1, 11120, Note_on_c, 0, 69, 75
1, 11129, Note_on_c, 0, 69, 0
1, 11129, Note_on_c, 0, 71, 75
1, 11135, Note_on_c, 1, 61, 0
1, 11135, Note_on_c, 1, 57, 0
1, 11136, Note_on_c, 1, 62, 66
1, 11136, Note_on_c, 1, 57, 66
1, 11138, Note_on_c, 0, 71, 0
1, 11138, Note_on_c, 0, 69, 75
1, 11148, Note_on_c, 0, 69, 0
1, 11148, Note_on_c, 0, 68, 75
1, 11158, Note_on_c, 0, 68, 0
1, 11158, Note_on_c, 0, 69, 75
1, 11159, Note_on_c, 1, 62, 0
1, 11159, Note_on_c, 1, 57, 0
1, 11160, Note_on_c, 1, 62, 66
1, 11160, Note_on_c, 1, 57, 66
1, 11168, Note_on_c, 0, 69, 0
1, 11168, Note_on_c, 0, 68, 75
1, 11178, Note_on_c, 0, 68, 0
1, 11178, Note_on_c, 0, 69, 75
1, 11183, Note_on_c, 1, 62, 0
1, 11183, Note_on_c, 1, 57, 0
1, 11184, Note_on_c, 1, 62, 66
1, 11184, Note_on_c, 1, 57, 66
1, 11188, Note_on_c, 0, 69, 0
1, 11188, Note_on_c, 0, 68, 75
1, 11198, Note_on_c, 0, 68, 0
1, 11198, Note_on_c, 0, 69, 75
1, 11207, Note_on_c, 0, 69, 0
1, 11207, Note_on_c, 0, 68, 75
1, 11207, Note_on_c, 1, 62, 0
1, 11207, Note_on_c, 1, 57, 0
1, 11208, Note_on_c, 1, 62, 66
1, 11208, Note_on_c, 1, 57, 66
1, 11216, Note_on_c, 0, 68, 0
1, 11216, Note_on_c, 0, 69, 75
1, 11225, Note_on_c, 0, 69, 0
1, 11225, Note_on_c, 0, 68, 75
1, 11231, Note_on_c, 1, 62, 0
1, 11231, Note_on_c, 1, 57, 0
1, 11232, Note_on_c, 1, 64, 66
1, 11232, Note_on_c, 1, 57, 66
1, 11234, Note_on_c, 0, 68, 0
1, 11234, Note_on_c, 0, 69, 75
1, 11244, Note_on_c, 0, 69, 0
1, 11244, Note_on_c, 0, 67, 75
1, 11254, Note_on_c, 0, 67, 0
1, 11254, Note_on_c, 0, 69, 75
1, 11255, Note_on_c, 1, 64, 0
1, 11255, Note_on_c, 1, 57, 0
1, 11256, Note_on_c, 1, 64, 66
1, 11256, Note_on_c, 1, 57, 66
1, 11264, Note_on_c, 0, 69, 0
1, 11264, Note_on_c, 0, 67, 75
1, 11274, Note_on_c, 0, 67, 0
1, 11274, Note_on_c, 0, 69, 75
1, 11279, Note_on_c, 1, 64, 0
1, 11279, Note_on_c, 1, 57, 0
1, 11280, Note_on_c, 1, 64, 66
1, 11280, Note_on_c, 1, 57, 66
1, 11284, Note_on_c, 0, 69, 0
1, 11284, Note_on_c, 0, 67, 75
1, 11294, Note_on_c, 0, 67, 0
1, 11294, Note_on_c, 0, 69, 75
1, 11303, Note_on_c, 0, 69, 0
1, 11303, Note_on_c, 0, 67, 75
1, 11303, Note_on_c, 1, 64, 0
1, 11303, Note_on_c, 1, 57, 0
1, 11304, Note_on_c, 1, 64, 66
1, 11304, Note_on_c, 1, 57, 66
1, 11312, Note_on_c, 0, 67, 0
1, 11312, Note_on_c, 0, 69, 75
1, 11321, Note_on_c, 0, 69, 0
1, 11321, Note_on_c, 0, 67, 75
1, 11327, Note_on_c, 1, 64, 0
1, 11327, Note_on_c, 1, 57, 0
1, 11328, Note_on_c, 1, 62, 66
1, 11328, Note_on_c, 1, 57, 66
1, 11330, Note_on_c, 0, 67, 0
1, 11330, Note_on_c, 0, 66, 75
1, 11340, Note_on_c, 0, 66, 0
1, 11340, Note_on_c, 0, 67, 75
1, 11350, Note_on_c, 0, 67, 0
1, 11350, Note_on_c, 0, 66, 75
1, 11351, Note_on_c, 1, 62, 0
1, 11351, Note_on_c, 1, 57, 0
1, 11352, Note_on_c, 1, 62, 66
1, 11352, Note_on_c, 1, 57, 66
1, 11360, Note_on_c, 0, 66, 0
1, 11360, Note_on_c, 0, 67, 75
1, 11370, Note_on_c, 0, 67, 0
1, 11370, Note_on_c, 0, 66, 75
1, 11375, Note_on_c, 1, 62, 0
1, 11375, Note_on_c, 1, 57, 0
1, 11376, Note_on_c, 1, 62, 66
1, 11376, Note_on_c, 1, 57, 66
1, 11380, Note_on_c, 0, 66, 0
1, 11380, Note_on_c, 0, 67, 75
1, 11390, Note_on_c, 0, 67, 0
1, 11390, Note_on_c, 0, 66, 75
1, 11399, Note_on_c, 0, 66, 0
1, 11399, Note_on_c, 0, 67, 75
1, 11399, Note_on_c, 1, 62, 0
1, 11399, Note_on_c, 1, 57, 0
1, 11400, Note_on_c, 1, 62, 66
1, 11400, Note_on_c, 1, 57, 66
1, 11408, Note_on_c, 0, 67, 0
1, 11408, Note_on_c, 0, 66, 75
1, 11417, Note_on_c, 0, 66, 0
1, 11417, Note_on_c, 0, 67, 75
1, 11423, Note_on_c, 1, 62, 0
1, 11423, Note_on_c, 1, 57, 0
1, 11424, Note_on_c, 1, 62, 66
1, 11424, Note_on_c, 1, 57, 66
1, 11426, Note_on_c, 0, 67, 0
1, 11426, Note_on_c, 0, 65, 75
1, 11436, Note_on_c, 0, 65, 0
1, 11436, Note_on_c, 0, 67, 75
1, 11446, Note_on_c, 0, 67, 0
1, 11446, Note_on_c, 0, 65, 75
1, 11447, Note_on_c, 1, 62, 0
1, 11447, Note_on_c, 1, 57, 0
1, 11448, Note_on_c, 1, 62, 66
1, 11448, Note_on_c, 1, 57, 66
1, 11456, Note_on_c, 0, 65, 0
1, 11456, Note_on_c, 0, 67, 75
1, 11466, Note_on_c, 0, 67, 0
1, 11466, Note_on_c, 0, 65, 75
1, 11471, Note_on_c, 1, 62, 0
1, 11471, Note_on_c, 1, 57, 0
1, 11472, Note_on_c, 1, 62, 66
1, 11472, Note_on_c, 1, 57, 66
1, 11476, Note_on_c, 0, 65, 0
1, 11476, Note_on_c, 0, 67, 75
1, 11486, Note_on_c, 0, 67, 0
1, 11486, Note_on_c, 0, 65, 75
1, 11495, Note_on_c, 0, 65, 0
1, 11495, Note_on_c, 0, 67, 75
1, 11495, Note_on_c, 1, 62, 0
1, 11495, Note_on_c, 1, 57, 0
1, 11496, Note_on_c, 1, 62, 66
1, 11496, Note_on_c, 1, 57, 66
1, 11504, Note_on_c, 0, 67, 0
1, 11504, Note_on_c, 0, 64, 75
1, 11513, Note_on_c, 0, 64, 0
1, 11513, Note_on_c, 0, 65, 75
1, 11519, Note_on_c, 1, 62, 0
1, 11519, Note_on_c, 1, 57, 0
1, 11520, Note_on_c, 1, 61, 66
1, 11520, Note_on_c, 1, 57, 66
1, 11522, Note_on_c, 0, 65, 0
1, 11522, Note_on_c, 0, 64, 75
1, 11543, Note_on_c, 1, 61, 0
1, 11543, Note_on_c, 1, 57, 0
1, 11544, Note_on_c, 1, 61, 66
1, 11544, Note_on_c, 1, 57, 66
1, 11567, Note_on_c, 0, 64, 0
1, 11567, Note_on_c, 1, 61, 0
1, 11567, Note_on_c, 1, 57, 0
1, 11568, Note_on_c, 1, 61, 66
1, 11568, Note_on_c, 1, 57, 66
1, 11570, Note_on_c, 0, 69, 75
1, 11591, Note_on_c, 1, 61, 0
1, 11591, Note_on_c, 1, 57, 0
1, 11592, Note_on_c, 1, 61, 66
1, 11592, Note_on_c, 1, 57, 66
1, 11615, Note_on_c, 0, 69, 0
1, 11615, Note_on_c, 1, 61, 0
1, 11615, Note_on_c, 1, 57, 0
1, 11616, Note_on_c, 1, 62, 66
1, 11616, Note_on_c, 1, 57, 66
1, 11618, Note_on_c, 0, 67, 75
1, 11628, Note_on_c, 0, 67, 0
1, 11628, Note_on_c, 0, 65, 75
1, 11638, Note_on_c, 0, 65, 0
1, 11638, Note_on_c, 0, 67, 75
1, 11639, Note_on_c, 1, 62, 0
1, 11639, Note_on_c, 1, 57, 0
1, 11640, Note_on_c, 1, 62, 66
1, 11640, Note_on_c, 1, 57, 66
1, 11648, Note_on_c, 0, 67, 0
1, 11648, Note_on_c, 0, 65, 75
1, 11658, Note_on_c, 0, 65, 0
1, 11658, Note_on_c, 0, 67, 75
1, 11663, Note_on_c, 1, 62, 0
1, 11663, Note_on_c, 1, 57, 0
1, 11664, Note_on_c, 1, 62, 66
1, 11664, Note_on_c, 1, 57, 66
1, 11668, Note_on_c, 0, 67, 0
1, 11668, Note_on_c, 0, 65, 75
1, 11678, Note_on_c, 0, 65, 0
1, 11678, Note_on_c, 0, 67, 75
1, 11687, Note_on_c, 0, 67, 0
1, 11687, Note_on_c, 0, 65, 75
1, 11687, Note_on_c, 1, 62, 0
1, 11687, Note_on_c, 1, 57, 0
1, 11688, Note_on_c, 1, 62, 66
1, 11688, Note_on_c, 1, 57, 66
1, 11696, Note_on_c, 0, 65, 0
1, 11696, Note_on_c, 0, 64, 75
1, 11705, Note_on_c, 0, 64, 0
1, 11705, Note_on_c, 0, 65, 75
1, 11711, Note_on_c, 1, 62, 0
1, 11711, Note_on_c, 1, 57, 0
1, 11712, Note_on_c, 1, 61, 66
1, 11712, Note_on_c, 1, 57, 66
1, 11714, Note_on_c, 0, 65, 0
1, 11714, Note_on_c, 0, 64, 75
1, 11757, Note_on_c, 1, 61, 0
1, 11757, Note_on_c, 1, 57, 0
1, 11759, Note_on_c, 0, 64, 0
1, 11798, Note_on_c, 0, 74, 75
1, 11808, Note_on_c, 1, 54, 75
1, 11810, Note_on_c, 0, 74, 0
1, 11810, Note_on_c, 0, 69, 75
1, 11823, Note_on_c, 1, 54, 0
1, 11824, Note_on_c, 1, 57, 75
1, 11839, Note_on_c, 1, 57, 0
1, 11840, Note_on_c, 1, 62, 75
1, 11855, Note_on_c, 0, 69, 0
1, 11855, Note_on_c, 1, 62, 0
1, 11856, Note_on_c, 1, 55, 75
1, 11858, Note_on_c, 0, 73, 75
1, 11866, Note_on_c, 0, 73, 0
1, 11866, Note_on_c, 0, 71, 75
1, 11871, Note_on_c, 1, 55, 0
1, 11872, Note_on_c, 1, 59, 75
1, 11874, Note_on_c, 0, 71, 0
1, 11874, Note_on_c, 0, 73, 75
1, 11882, Note_on_c, 0, 73, 0
1, 11882, Note_on_c, 0, 71, 75
1, 11887, Note_on_c, 1, 59, 0
1, 11888, Note_on_c, 1, 62, 75
1, 11890, Note_on_c, 0, 71, 0
1, 11890, Note_on_c, 0, 69, 75
1, 11898, Note_on_c, 0, 69, 0
1, 11898, Note_on_c, 0, 71, 75
1, 11903, Note_on_c, 1, 62, 0
1, 11904, Note_on_c, 1, 54, 75
1, 11906, Note_on_c, 0, 71, 0
1, 11906, Note_on_c, 0, 69, 75
1, 11913, Note_on_c, 0, 69, 0
1, 11922, Note_on_c, 0, 81, 75
1, 11937, Note_on_c, 0, 81, 0
1, 11938, Note_on_c, 0, 79, 75
1, 11953, Note_on_c, 0, 79, 0
1, 11954, Note_on_c, 0, 78, 75
1, 11969, Note_on_c, 0, 78, 0
1, 11970, Note_on_c, 0, 76, 75
1, 11985, Note_on_c, 0, 76, 0
1, 11986, Note_on_c, 0, 74, 75
1, 11993, Note_on_c, 1, 54, 0
1, 12000, Note_on_c, 1, 54, 75
1, 12001, Note_on_c, 0, 74, 0
1, 12002, Note_on_c, 0, 69, 75
1, 12015, Note_on_c, 1, 54, 0
1, 12016, Note_on_c, 1, 57, 75
1, 12031, Note_on_c, 1, 57, 0
1, 12032, Note_on_c, 1, 62, 75
1, 12047, Note_on_c, 0, 69, 0
1, 12047, Note_on_c, 1, 62, 0
1, 12048, Note_on_c, 1, 55, 75
1, 12050, Note_on_c, 0, 73, 75
1, 12058, Note_on_c, 0, 73, 0
1, 12058, Note_on_c, 0, 71, 75
1, 12063, Note_on_c, 1, 55, 0
1, 12064, Note_on_c, 1, 59, 75
1, 12066, Note_on_c, 0, 71, 0
1, 12066, Note_on_c, 0, 73, 75
1, 12074, Note_on_c, 0, 73, 0
1, 12074, Note_on_c, 0, 71, 75
1, 12079, Note_on_c, 1, 59, 0
1, 12080, Note_on_c, 1, 62, 75
1, 12082, Note_on_c, 0, 71, 0
1, 12082, Note_on_c, 0, 69, 75
1, 12090, Note_on_c, 0, 69, 0
1, 12090, Note_on_c, 0, 71, 75
1, 12095, Note_on_c, 1, 62, 0
1, 12096, Note_on_c, 1, 54, 75
1, 12098, Note_on_c, 0, 71, 0
1, 12098, Note_on_c, 0, 69, 75
1, 12105, Note_on_c, 0, 69, 0
1, 12114, Note_on_c, 0, 81, 75
1, 12129, Note_on_c, 0, 81, 0
1, 12130, Note_on_c, 0, 79, 75
1, 12141, Note_on_c, 1, 54, 0
1, 12145, Note_on_c, 0, 79, 0
1, 12146, Note_on_c, 0, 78, 75
1, 12161, Note_on_c, 0, 78, 0
1, 12162, Note_on_c, 0, 76, 75
1, 12177, Note_on_c, 0, 76, 0
1, 12178, Note_on_c, 0, 74, 75
1, 12192, Note_on_c, 1, 55, 75
1, 12192, Note_on_c, 1, 43, 75
1, 12193, Note_on_c, 0, 74, 0
1, 12194, Note_on_c, 0, 71, 75
1, 12201, Note_on_c, 0, 71, 0
1, 12210, Note_on_c, 0, 83, 75
1, 12225, Note_on_c, 0, 83, 0
1, 12226, Note_on_c, 0, 81, 75
1, 12237, Note_on_c, 1, 55, 0
1, 12237, Note_on_c, 1, 43, 0
1, 12241, Note_on_c, 0, 81, 0
1, 12242, Note_on_c, 0, 79, 75
1, 12257, Note_on_c, 0, 79, 0
1, 12258, Note_on_c, 0, 78, 75
1, 12273, Note_on_c, 0, 78, 0
1, 12274, Note_on_c, 0, 76, 75
1, 12289, Note_on_c, 0, 76, 0
1, 12290, Note_on_c, 0, 78, 75
1, 12305, Note_on_c, 0, 78, 0
1, 12306, Note_on_c, 0, 79, 75
1, 12321, Note_on_c, 0, 79, 0
1, 12322, Note_on_c, 0, 81, 75
1, 12336, Note_on_c, 1, 59, 75
1, 12336, Note_on_c, 1, 47, 75
1, 12337, Note_on_c, 0, 81, 0
1, 12338, Note_on_c, 0, 74, 75
1, 12353, Note_on_c, 0, 74, 0
1, 12354, Note_on_c, 0, 79, 75
1, 12369, Note_on_c, 0, 79, 0
1, 12370, Note_on_c, 0, 76, 75
1, 12381, Note_on_c, 1, 59, 0
1, 12381, Note_on_c, 1, 47, 0
1, 12384, Note_on_c, 1, 55, 75
1, 12384, Note_on_c, 1, 43, 75
1, 12385, Note_on_c, 0, 76, 0
1, 12386, Note_on_c, 0, 78, 75
1, 12396, Note_on_c, 0, 78, 0
1, 12396, Note_on_c, 0, 76, 75
1, 12406, Note_on_c, 0, 76, 0
1, 12406, Note_on_c, 0, 78, 75
1, 12416, Note_on_c, 0, 78, 0
1, 12416, Note_on_c, 0, 76, 75
1, 12426, Note_on_c, 0, 76, 0
1, 12426, Note_on_c, 0, 78, 75
1, 12429, Note_on_c, 1, 55, 0
1, 12429, Note_on_c, 1, 43, 0
1, 12432, Note_on_c, 1, 57, 75
1, 12432, Note_on_c, 1, 45, 75
1, 12436, Note_on_c, 0, 78, 0
1, 12436, Note_on_c, 0, 76, 75
1, 12446, Note_on_c, 0, 76, 0
1, 12446, Note_on_c, 0, 78, 75
1, 12455, Note_on_c, 0, 78, 0
1, 12455, Note_on_c, 0, 76, 75
1, 12464, Note_on_c, 0, 76, 0
1, 12464, Note_on_c, 0, 74, 75
1, 12473, Note_on_c, 0, 74, 0
1, 12473, Note_on_c, 0, 76, 75
1, 12477, Note_on_c, 1, 57, 0
1, 12477, Note_on_c, 1, 45, 0
1, 12480, Note_on_c, 1, 50, 75
1, 12482, Note_on_c, 0, 76, 0
1, 12482, Note_on_c, 0, 74, 75
1, 12525, Note_on_c, 1, 50, 0
1, 12528, Note_on_c, 1, 38, 75
1, 12571, Note_on_c, 0, 74, 0
1, 12573, Note_on_c, 1, 38, 0
1, 12576, Note_on_c, 1, 61, 66
1, 12578, Note_on_c, 0, 81, 70
1, 12591, Note_on_c, 1, 61, 0
1, 12592, Note_on_c, 1, 64, 66
1, 12607, Note_on_c, 1, 64, 0
1, 12608, Note_on_c, 1, 69, 66
1, 12623, Note_on_c, 1, 69, 0
1, 12624, Note_on_c, 1, 61, 66
1, 12639, Note_on_c, 1, 61, 0
1, 12640, Note_on_c, 1, 64, 66
1, 12645, Note_on_c, 0, 81, 0
1, 12650, Note_on_c, 0, 79, 70
1, 12655, Note_on_c, 1, 64, 0
1, 12656, Note_on_c, 1, 69, 66
1, 12658, Note_on_c, 0, 79, 0
1, 12658, Note_on_c, 0, 77, 70
1, 12666, Note_on_c, 0, 77, 0
1, 12666, Note_on_c, 0, 76, 70
1, 12671, Note_on_c, 1, 69, 0
1, 12672, Note_on_c, 1, 62, 66
1, 12674, Note_on_c, 0, 76, 0
1, 12674, Note_on_c, 0, 79, 70
1, 12682, Note_on_c, 0, 79, 0
1, 12682, Note_on_c, 0, 77, 70
1, 12687, Note_on_c, 1, 62, 0
1, 12688, Note_on_c, 1, 65, 66
1, 12690, Note_on_c, 0, 77, 0
1, 12690, Note_on_c, 0, 79, 70
1, 12698, Note_on_c, 0, 79, 0
1, 12698, Note_on_c, 0, 77, 70
1, 12703, Note_on_c, 1, 65, 0
1, 12704, Note_on_c, 1, 69, 66
1, 12706, Note_on_c, 0, 77, 0
1, 12706, Note_on_c, 0, 76, 70
1, 12714, Note_on_c, 0, 76, 0
1, 12714, Note_on_c, 0, 77, 70
1, 12719, Note_on_c, 1, 69, 0
1, 12720, Note_on_c, 1, 61, 66
1, 12722, Note_on_c, 0, 77, 0
1, 12722, Note_on_c, 0, 76, 70
1, 12735, Note_on_c, 1, 61, 0
1, 12736, Note_on_c, 1, 64, 66
1, 12751, Note_on_c, 1, 64, 0
1, 12752, Note_on_c, 1, 69, 66
1, 12767, Note_on_c, 0, 76, 0
1, 12767, Note_on_c, 1, 69, 0
1, 12768, Note_on_c, 1, 61, 66
1, 12770, Note_on_c, 0, 81, 66
1, 12783, Note_on_c, 1, 61, 0
1, 12784, Note_on_c, 1, 64, 66
1, 12799, Note_on_c, 1, 64, 0
1, 12800, Note_on_c, 1, 69, 66
1, 12815, Note_on_c, 1, 69, 0
1, 12816, Note_on_c, 1, 61, 66
1, 12831, Note_on_c, 1, 61, 0
1, 12832, Note_on_c, 1, 64, 66
1, 12837, Note_on_c, 0, 81, 0
1, 12842, Note_on_c, 0, 79, 66
1, 12847, Note_on_c, 1, 64, 0
1, 12848, Note_on_c, 1, 69, 66
1, 12850, Note_on_c, 0, 79, 0
1, 12850, Note_on_c, 0, 77, 66
1, 12858, Note_on_c, 0, 77, 0
1, 12858, Note_on_c, 0, 76, 66
1, 12863, Note_on_c, 1, 69, 0
1, 12864, Note_on_c, 1, 62, 66
1, 12866, Note_on_c, 0, 76, 0
1, 12866, Note_on_c, 0, 79, 66
1, 12874, Note_on_c, 0, 79, 0
1, 12874, Note_on_c, 0, 77, 66
1, 12879, Note_on_c, 1, 62, 0
1, 12880, Note_on_c, 1, 65, 66
1, 12882, Note_on_c, 0, 77, 0
1, 12882, Note_on_c, 0, 79, 66
1, 12890, Note_on_c, 0, 79, 0
1, 12890, Note_on_c, 0, 77, 66
1, 12895, Note_on_c, 1, 65, 0
1, 12896, Note_on_c, 1, 69, 66
1, 12898, Note_on_c, 0, 77, 0
1, 12898, Note_on_c, 0, 76, 66
1, 12906, Note_on_c, 0, 76, 0
1, 12906, Note_on_c, 0, 77, 66
1, 12911, Note_on_c, 1, 69, 0
1, 12912, Note_on_c, 1, 61, 66
1, 12914, Note_on_c, 0, 77, 0
1, 12914, Note_on_c, 0, 76, 66
1, 12927, Note_on_c, 1, 61, 0
1, 12928, Note_on_c, 1, 64, 66
1, 12943, Note_on_c, 1, 64, 0
1, 12944, Note_on_c, 1, 69, 66
1, 12959, Note_on_c, 0, 76, 0
1, 12959, Note_on_c, 1, 69, 0
1, 12960, Note_on_c, 1, 61, 66
1, 12962, Note_on_c, 0, 81, 70
1, 12975, Note_on_c, 1, 61, 0
1, 12976, Note_on_c, 1, 64, 66
1, 12991, Note_on_c, 1, 64, 0
1, 12992, Note_on_c, 1, 69, 66
1, 13007, Note_on_c, 1, 69, 0
1, 13008, Note_on_c, 1, 61, 66
1, 13023, Note_on_c, 1, 61, 0
1, 13024, Note_on_c, 1, 64, 66
1, 13029, Note_on_c, 0, 81, 0
1, 13034, Note_on_c, 0, 79, 70
1, 13039, Note_on_c, 1, 64, 0
1, 13040, Note_on_c, 1, 69, 66
1, 13042, Note_on_c, 0, 79, 0
1, 13042, Note_on_c, 0, 77, 70
1, 13050, Note_on_c, 0, 77, 0
1, 13050, Note_on_c, 0, 76, 70
1, 13055, Note_on_c, 1, 69, 0
1, 13056, Note_on_c, 1, 62, 66
1, 13058, Note_on_c, 0, 76, 0
1, 13058, Note_on_c, 0, 77, 70
1, 13071, Note_on_c, 1, 62, 0
1, 13072, Note_on_c, 1, 65, 66
1, 13087, Note_on_c, 1, 65, 0
1, 13088, Note_on_c, 1, 69, 66
1, 13103, Note_on_c, 0, 77, 0
1, 13103, Note_on_c, 1, 69, 0
1, 13104, Note_on_c, 1, 62, 66
1, 13106, Note_on_c, 0, 74, 70
1, 13119, Note_on_c, 1, 62, 0
1, 13120, Note_on_c, 1, 65, 66
1, 13135, Note_on_c, 1, 65, 0
1, 13136, Note_on_c, 1, 69, 66
1, 13140, Note_on_c, 0, 74, 0
1, 13142, Note_on_c, 0, 76, 70
1, 13151, Note_on_c, 1, 69, 0
1, 13152, Note_on_c, 1, 62, 66
1, 13154, Note_on_c, 0, 76, 0
1, 13154, Note_on_c, 0, 77, 71
1, 13167, Note_on_c, 1, 62, 0
1, 13168, Note_on_c, 1, 65, 66
1, 13183, Note_on_c, 1, 65, 0
1, 13184, Note_on_c, 1, 69, 66
1, 13188, Note_on_c, 0, 77, 0
1, 13190, Note_on_c, 0, 76, 72
1, 13199, Note_on_c, 1, 69, 0
1, 13200, Note_on_c, 1, 62, 66
1, 13202, Note_on_c, 0, 76, 0
1, 13202, Note_on_c, 0, 77, 72
1, 13215, Note_on_c, 1, 62, 0
1, 13216, Note_on_c, 1, 65, 66
1, 13231, Note_on_c, 1, 65, 0
1, 13232, Note_on_c, 1, 69, 66
1, 13236, Note_on_c, 0, 77, 0
1, 13238, Note_on_c, 0, 79, 73
1, 13247, Note_on_c, 1, 69, 0
1, 13248, Note_on_c, 1, 57, 66
1, 13250, Note_on_c, 0, 79, 0
1, 13250, Note_on_c, 0, 81, 73
1, 13293, Note_on_c, 1, 57, 0
1, 13295, Note_on_c, 0, 81, 0
1, 13334, Note_on_c, 0, 74, 75
1, 13344, Note_on_c, 1, 54, 75
1, 13346, Note_on_c, 0, 74, 0
1, 13346, Note_on_c, 0, 69, 75
1, 13359, Note_on_c, 1, 54, 0
1, 13360, Note_on_c, 1, 57, 75
1, 13375, Note_on_c, 1, 57, 0
1, 13376, Note_on_c, 1, 62, 75
1, 13391, Note_on_c, 0, 69, 0
1, 13391, Note_on_c, 1, 62, 0
1, 13392, Note_on_c, 1, 55, 75
1, 13394, Note_on_c, 0, 73, 75
1, 13402, Note_on_c, 0, 73, 0
1, 13402, Note_on_c, 0, 71, 75
1, 13407, Note_on_c, 1, 55, 0
1, 13408, Note_on_c, 1, 59, 75
1, 13410, Note_on_c, 0, 71, 0
1, 13410, Note_on_c, 0, 73, 75
1, 13418, Note_on_c, 0, 73, 0
1, 13418, Note_on_c, 0, 71, 75
1, 13423, Note_on_c, 1, 59, 0
1, 13424, Note_on_c, 1, 62, 75
1, 13426, Note_on_c, 0, 71, 0
1, 13426, Note_on_c, 0, 69, 75
1, 13434, Note_on_c, 0, 69, 0
1, 13434, Note_on_c, 0, 71, 75
1, 13439, Note_on_c, 1, 62, 0
1, 13440, Note_on_c, 1, 54, 75
1, 13442, Note_on_c, 0, 71, 0
1, 13442, Note_on_c, 0, 69, 75
1, 13449, Note_on_c, 0, 69, 0
1, 13458, Note_on_c, 0, 81, 75
1, 13473, Note_on_c, 0, 81, 0
1, 13474, Note_on_c, 0, 79, 75
1, 13489, Note_on_c, 0, 79, 0
1, 13490, Note_on_c, 0, 78, 75
1, 13505, Note_on_c, 0, 78, 0
1, 13506, Note_on_c, 0, 76, 75
1, 13521, Note_on_c, 0, 76, 0
1, 13522, Note_on_c, 0, 74, 75
1, 13529, Note_on_c, 1, 54, 0
1, 13536, Note_on_c, 1, 54, 75
1, 13537, Note_on_c, 0, 74, 0
1, 13538, Note_on_c, 0, 69, 75
1, 13551, Note_on_c, 1, 54, 0
1, 13552, Note_on_c, 1, 57, 75
1, 13567, Note_on_c, 1, 57, 0
1, 13568, Note_on_c, 1, 62, 75
1, 13583, Note_on_c, 0, 69, 0
1, 13583, Note_on_c, 1, 62, 0
1, 13584, Note_on_c, 1, 55, 75
1, 13586, Note_on_c, 0, 73, 75
1, 13594, Note_on_c, 0, 73, 0
1, 13594, Note_on_c, 0, 71, 75
1, 13599, Note_on_c, 1, 55, 0
1, 13600, Note_on_c, 1, 59, 75
1, 13602, Note_on_c, 0, 71, 0
1, 13602, Note_on_c, 0, 73, 75
1, 13610, Note_on_c, 0, 73, 0
1, 13610, Note_on_c, 0, 71, 75
1, 13615, Note_on_c, 1, 59, 0
1, 13616, Note_on_c, 1, 62, 75
1, 13618, Note_on_c, 0, 71, 0
1, 13618, Note_on_c, 0, 69, 75
1, 13626, Note_on_c, 0, 69, 0
1, 13626, Note_on_c, 0, 71, 75
1, 13631, Note_on_c, 1, 62, 0
1, 13632, Note_on_c, 1, 54, 75
1, 13634, Note_on_c, 0, 71, 0
1, 13634, Note_on_c, 0, 69, 75
1, 13641, Note_on_c, 0, 69, 0
1, 13650, Note_on_c, 0, 81, 75
1, 13665, Note_on_c, 0, 81, 0
1, 13666, Note_on_c, 0, 79, 75
1, 13677, Note_on_c, 1, 54, 0
1, 13681, Note_on_c, 0, 79, 0
1, 13682, Note_on_c, 0, 78, 75
1, 13697, Note_on_c, 0, 78, 0
1, 13698, Note_on_c, 0, 76, 75
1, 13713, Note_on_c, 0, 76, 0
1, 13714, Note_on_c, 0, 74, 75
1, 13728, Note_on_c, 1, 55, 75
1, 13728, Note_on_c, 1, 43, 75
1, 13729, Note_on_c, 0, 74, 0
1, 13730, Note_on_c, 0, 71, 75
1, 13737, Note_on_c, 0, 71, 0
1, 13746, Note_on_c, 0, 83, 75
1, 13761, Note_on_c, 0, 83, 0
1, 13762, Note_on_c, 0, 81, 75
1, 13773, Note_on_c, 1, 55, 0
1, 13773, Note_on_c, 1, 43, 0
1, 13777, Note_on_c, 0, 81, 0
1, 13778, Note_on_c, 0, 79, 75
1, 13793, Note_on_c, 0, 79, 0
1, 13794, Note_on_c, 0, 78, 75
1, 13809, Note_on_c, 0, 78, 0
1, 13810, Note_on_c, 0, 76, 75
1, 13825, Note_on_c, 0, 76, 0
1, 13826, Note_on_c, 0, 78, 75
1, 13841, Note_on_c, 0, 78, 0
1, 13842, Note_on_c, 0, 81, 75
1, 13857, Note_on_c, 0, 81, 0
1, 13858, Note_on_c, 0, 86, 75
1, 13872, Note_on_c, 1, 59, 75
1, 13872, Note_on_c, 1, 47, 75
1, 13873, Note_on_c, 0, 86, 0
1, 13874, Note_on_c, 0, 74, 75
1, 13889, Note_on_c, 0, 74, 0
1, 13890, Note_on_c, 0, 79, 75
1, 13905, Note_on_c, 0, 79, 0
1, 13906, Note_on_c, 0, 76, 75
1, 13917, Note_on_c, 1, 59, 0
1, 13917, Note_on_c, 1, 47, 0
1, 13920, Note_on_c, 1, 55, 75
1, 13920, Note_on_c, 1, 43, 75
1, 13921, Note_on_c, 0, 76, 0
1, 13922, Note_on_c, 0, 78, 75
1, 13932, Note_on_c, 0, 78, 0
1, 13932, Note_on_c, 0, 76, 75
1, 13942, Note_on_c, 0, 76, 0
1, 13942, Note_on_c, 0, 78, 75
1, 13952, Note_on_c, 0, 78, 0
1, 13952, Note_on_c, 0, 76, 75
1, 13962, Note_on_c, 0, 76, 0
1, 13962, Note_on_c, 0, 78, 75
1, 13965, Note_on_c, 1, 55, 0
1, 13965, Note_on_c, 1, 43, 0
1, 13968, Note_on_c, 1, 57, 75
1, 13968, Note_on_c, 1, 45, 75
1, 13972, Note_on_c, 0, 78, 0
1, 13972, Note_on_c, 0, 76, 75
1, 13982, Note_on_c, 0, 76, 0
1, 13982, Note_on_c, 0, 78, 75
1, 13991, Note_on_c, 0, 78, 0
1, 13991, Note_on_c, 0, 76, 75
1, 14000, Note_on_c, 0, 76, 0
1, 14000, Note_on_c, 0, 74, 75
1, 14009, Note_on_c, 0, 74, 0
1, 14009, Note_on_c, 0, 76, 75
1, 14013, Note_on_c, 1, 57, 0
1, 14013, Note_on_c, 1, 45, 0
1, 14016, Note_on_c, 1, 50, 75
1, 14018, Note_on_c, 0, 76, 0
1, 14018, Note_on_c, 0, 74, 75
1, 14061, Note_on_c, 1, 50, 0
1, 14064, Note_on_c, 1, 45, 75
1, 14107, Note_on_c, 0, 74, 0
1, 14109, Note_on_c, 1, 45, 0
1, 14112, Note_on_c, 1, 38, 75
1, 14157, Note_on_c, 1, 38, 0
1, 14162, Note_on_c, 0, 81, 75
1, 14177, Note_on_c, 0, 81, 0
1, 14178, Note_on_c, 0, 78, 75
1, 14193, Note_on_c, 0, 78, 0
1, 14194, Note_on_c, 0, 74, 75
1, 14209, Note_on_c, 0, 74, 0
1, 14210, Note_on_c, 0, 86, 75
1, 14255, Note_on_c, 0, 86, 0
1, 14256, Note_on_c, 1, 62, 75
1, 14258, Note_on_c, 0, 81, 75
1, 14301, Note_on_c, 1, 62, 0
1, 14303, Note_on_c, 0, 81, 0
1, 14304, Note_on_c, 1, 66, 75
1, 14306, Note_on_c, 0, 81, 75
1, 14349, Note_on_c, 1, 66, 0
1, 14351, Note_on_c, 0, 81, 0
1, 14352, Note_on_c, 1, 62, 75
1, 14354, Note_on_c, 0, 81, 75
1, 14397, Note_on_c, 1, 62, 0
1, 14399, Note_on_c, 0, 81, 0
1, 14400, Note_on_c, 1, 64, 75
1, 14402, Note_on_c, 0, 79, 75
1, 14414, Note_on_c, 0, 79, 0
1, 14414, Note_on_c, 0, 78, 75
1, 14426, Note_on_c, 0, 78, 0
1, 14426, Note_on_c, 0, 79, 75
1, 14438, Note_on_c, 0, 79, 0
1, 14438, Note_on_c, 0, 81, 75
1, 14450, Note_on_c, 0, 81, 0
1, 14450, Note_on_c, 0, 83, 75
1, 14467, Note_on_c, 1, 64, 0
1, 14472, Note_on_c, 1, 67, 75
1, 14495, Note_on_c, 1, 67, 0
1, 14496, Note_on_c, 1, 61, 75
1, 14541, Note_on_c, 1, 61, 0
1, 14543, Note_on_c, 0, 83, 0
1, 14544, Note_on_c, 1, 73, 75
1, 14546, Note_on_c, 0, 76, 75
1, 14569, Note_on_c, 0, 76, 0
1, 14570, Note_on_c, 0, 79, 75
1, 14589, Note_on_c, 1, 73, 0
1, 14592, Note_on_c, 1, 74, 75
1, 14593, Note_on_c, 0, 79, 0
1, 14594, Note_on_c, 0, 79, 75
1, 14617, Note_on_c, 0, 79, 0
1, 14618, Note_on_c, 0, 78, 75
1, 14637, Note_on_c, 1, 74, 0
1, 14640, Note_on_c, 1, 67, 75
1, 14641, Note_on_c, 0, 78, 0
1, 14642, Note_on_c, 0, 83, 76
1, 14663, Note_on_c, 1, 67, 0
1, 14664, Note_on_c, 1, 69, 75
1, 14665, Note_on_c, 0, 83, 0
1, 14666, Note_on_c, 0, 81, 77
1, 14687, Note_on_c, 1, 69, 0
1, 14688, Note_on_c, 1, 71, 75
1, 14689, Note_on_c, 0, 81, 0
1, 14690, Note_on_c, 0, 79, 78
1, 14713, Note_on_c, 0, 79, 0
1, 14714, Note_on_c, 0, 78, 78
1, 14733, Note_on_c, 1, 71, 0
1, 14736, Note_on_c, 1, 67, 75
1, 14737, Note_on_c, 0, 78, 0
1, 14738, Note_on_c, 0, 76, 79
1, 14761, Note_on_c, 0, 76, 0
1, 14762, Note_on_c, 0, 74, 80
1, 14781, Note_on_c, 1, 67, 0
1, 14784, Note_on_c, 1, 69, 75
1, 14785, Note_on_c, 0, 74, 0
1, 14786, Note_on_c, 0, 73, 81
1, 14801, Note_on_c, 0, 73, 0
1, 14802, Note_on_c, 0, 74, 80
1, 14817, Note_on_c, 0, 74, 0
1, 14818, Note_on_c, 0, 76, 80
1, 14829, Note_on_c, 1, 69, 0
1, 14832, Note_on_c, 1, 62, 75
1, 14833, Note_on_c, 0, 76, 0
1, 14834, Note_on_c, 0, 74, 79
1, 14877, Note_on_c, 1, 62, 0
1, 14879, Note_on_c, 0, 74, 0
1, 14930, Note_on_c, 0, 74, 76
1, 14945, Note_on_c, 0, 74, 0
1, 14946, Note_on_c, 0, 71, 76
1, 14961, Note_on_c, 0, 71, 0
1, 14962, Note_on_c, 0, 67, 76
1, 14976, Note_on_c, 1, 55, 70
1, 14977, Note_on_c, 0, 67, 0
1, 14978, Note_on_c, 0, 79, 75
1, 14991, Note_on_c, 1, 55, 0
1, 14992, Note_on_c, 1, 59, 70
1, 15007, Note_on_c, 1, 59, 0
1, 15008, Note_on_c, 1, 62, 70
1, 15023, Note_on_c, 0, 79, 0
1, 15023, Note_on_c, 1, 62, 0
1, 15024, Note_on_c, 1, 55, 70
1, 15026, Note_on_c, 0, 79, 76
1, 15039, Note_on_c, 1, 55, 0
1, 15040, Note_on_c, 1, 59, 70
1, 15055, Note_on_c, 1, 59, 0
1, 15056, Note_on_c, 1, 62, 70
1, 15071, Note_on_c, 0, 79, 0
1, 15071, Note_on_c, 1, 62, 0
1, 15072, Note_on_c, 1, 55, 70
1, 15074, Note_on_c, 0, 79, 77
1, 15087, Note_on_c, 1, 55, 0
1, 15088, Note_on_c, 1, 59, 70
1, 15103, Note_on_c, 1, 59, 0
1, 15104, Note_on_c, 1, 62, 70
1, 15119, Note_on_c, 0, 79, 0
1, 15119, Note_on_c, 1, 62, 0
1, 15120, Note_on_c, 1, 55, 70
1, 15122, Note_on_c, 0, 79, 79
1, 15135, Note_on_c, 1, 55, 0
1, 15136, Note_on_c, 1, 59, 70
1, 15151, Note_on_c, 1, 59, 0
1, 15152, Note_on_c, 1, 62, 70
1, 15167, Note_on_c, 0, 79, 0
1, 15167, Note_on_c, 1, 62, 0
1, 15168, Note_on_c, 1, 56, 70
1, 15170, Note_on_c, 0, 79, 80
1, 15180, Note_on_c, 0, 79, 0
1, 15180, Note_on_c, 0, 77, 80
1, 15183, Note_on_c, 1, 56, 0
1, 15184, Note_on_c, 1, 59, 70
1, 15190, Note_on_c, 0, 77, 0
1, 15190, Note_on_c, 0, 79, 80
1, 15199, Note_on_c, 1, 59, 0
1, 15200, Note_on_c, 0, 79, 0
1, 15200, Note_on_c, 0, 77, 80
1, 15200, Note_on_c, 1, 62, 70
1, 15210, Note_on_c, 0, 77, 0
1, 15210, Note_on_c, 0, 79, 81
1, 15215, Note_on_c, 1, 62, 0
1, 15216, Note_on_c, 1, 56, 70
1, 15220, Note_on_c, 0, 79, 0
1, 15220, Note_on_c, 0, 77, 80
1, 15230, Note_on_c, 0, 77, 0
1, 15230, Note_on_c, 0, 79, 80
1, 15231, Note_on_c, 1, 56, 0
1, 15232, Note_on_c, 1, 59, 70
1, 15240, Note_on_c, 0, 79, 0
1, 15240, Note_on_c, 0, 77, 80
1, 15247, Note_on_c, 1, 59, 0
1, 15248, Note_on_c, 1, 62, 70
1, 15250, Note_on_c, 0, 77, 0
1, 15250, Note_on_c, 0, 79, 80
1, 15260, Note_on_c, 0, 79, 0
1, 15260, Note_on_c, 0, 77, 79
1, 15263, Note_on_c, 1, 62, 0
1, 15264, Note_on_c, 1, 56, 70
1, 15270, Note_on_c, 0, 77, 0
1, 15270, Note_on_c, 0, 79, 79
1, 15279, Note_on_c, 1, 56, 0
1, 15280, Note_on_c, 0, 79, 0
1, 15280, Note_on_c, 0, 77, 79
1, 15280, Note_on_c, 1, 59, 70
1, 15290, Note_on_c, 0, 77, 0
1, 15290, Note_on_c, 0, 79, 79
1, 15295, Note_on_c, 1, 59, 0
1, 15296, Note_on_c, 1, 62, 70
1, 15299, Note_on_c, 0, 79, 0
1, 15299, Note_on_c, 0, 77, 79
1, 15308, Note_on_c, 0, 77, 0
1, 15308, Note_on_c, 0, 79, 78
1, 15311, Note_on_c, 1, 62, 0
1, 15312, Note_on_c, 1, 56, 70
1, 15317, Note_on_c, 0, 79, 0
1, 15317, Note_on_c, 0, 77, 78
1, 15326, Note_on_c, 0, 77, 0
1, 15326, Note_on_c, 0, 79, 78
1, 15327, Note_on_c, 1, 56, 0
1, 15328, Note_on_c, 1, 59, 70
1, 15335, Note_on_c, 0, 79, 0
1, 15335, Note_on_c, 0, 77, 78
1, 15343, Note_on_c, 1, 59, 0
1, 15344, Note_on_c, 0, 77, 0
1, 15344, Note_on_c, 0, 76, 78
1, 15344, Note_on_c, 1, 62, 70
1, 15353, Note_on_c, 0, 76, 0
1, 15353, Note_on_c, 0, 74, 77
1, 15359, Note_on_c, 1, 62, 0
1, 15360, Note_on_c, 1, 57, 81
1, 15362, Note_on_c, 0, 74, 0
1, 15362, Note_on_c, 0, 72, 75
1, 15405, Note_on_c, 1, 57, 0
1, 15407, Note_on_c, 0, 72, 0
1, 15408, Note_on_c, 1, 60, 81
1, 15408, Note_on_c, 1, 48, 81
1, 15434, Note_on_c, 0, 64, 75
1, 15453, Note_on_c, 1, 60, 0
1, 15453, Note_on_c, 1, 48, 0
1, 15456, Note_on_c, 1, 62, 81
1, 15456, Note_on_c, 1, 50, 81
1, 15457, Note_on_c, 0, 64, 0
1, 15482, Note_on_c, 0, 66, 75
1, 15501, Note_on_c, 1, 62, 0
1, 15501, Note_on_c, 1, 50, 0
1, 15504, Note_on_c, 1, 64, 81
1, 15504, Note_on_c, 1, 52, 81
1, 15505, Note_on_c, 0, 66, 0
1, 15530, Note_on_c, 0, 68, 75
1, 15549, Note_on_c, 1, 64, 0
1, 15549, Note_on_c, 1, 52, 0
1, 15552, Note_on_c, 1, 57, 70
1, 15553, Note_on_c, 0, 68, 0
1, 15554, Note_on_c, 0, 69, 75
1, 15567, Note_on_c, 1, 57, 0
1, 15568, Note_on_c, 1, 60, 70
1, 15583, Note_on_c, 1, 60, 0
1, 15584, Note_on_c, 1, 64, 70
1, 15599, Note_on_c, 0, 69, 0
1, 15599, Note_on_c, 1, 64, 0
1, 15600, Note_on_c, 1, 57, 70
1, 15602, Note_on_c, 0, 72, 75
1, 15615, Note_on_c, 1, 57, 0
1, 15616, Note_on_c, 1, 60, 70
1, 15631, Note_on_c, 1, 60, 0
1, 15632, Note_on_c, 1, 64, 70
1, 15647, Note_on_c, 0, 72, 0
1, 15647, Note_on_c, 1, 64, 0
1, 15648, Note_on_c, 1, 55, 70
1, 15650, Note_on_c, 0, 72, 75
1, 15663, Note_on_c, 1, 55, 0
1, 15664, Note_on_c, 1, 60, 70
1, 15679, Note_on_c, 1, 60, 0
1, 15680, Note_on_c, 1, 64, 70
1, 15695, Note_on_c, 0, 72, 0
1, 15695, Note_on_c, 1, 64, 0
1, 15696, Note_on_c, 1, 55, 70
1, 15698, Note_on_c, 0, 72, 75
1, 15711, Note_on_c, 1, 55, 0
1, 15712, Note_on_c, 1, 60, 70
1, 15727, Note_on_c, 1, 60, 0
1, 15728, Note_on_c, 1, 64, 70
1, 15743, Note_on_c, 0, 72, 0
1, 15743, Note_on_c, 1, 64, 0
1, 15744, Note_on_c, 1, 54, 70
1, 15746, Note_on_c, 0, 74, 75
1, 15756, Note_on_c, 0, 74, 0
1, 15756, Note_on_c, 0, 72, 75
1, 15759, Note_on_c, 1, 54, 0
1, 15760, Note_on_c, 1, 57, 70
1, 15766, Note_on_c, 0, 72, 0
1, 15766, Note_on_c, 0, 74, 75
1, 15775, Note_on_c, 1, 57, 0
1, 15776, Note_on_c, 0, 74, 0
1, 15776, Note_on_c, 0, 72, 75
1, 15776, Note_on_c, 1, 62, 70
1, 15786, Note_on_c, 0, 72, 0
1, 15786, Note_on_c, 0, 74, 75
1, 15791, Note_on_c, 1, 62, 0
1, 15792, Note_on_c, 1, 54, 70
1, 15796, Note_on_c, 0, 74, 0
1, 15796, Note_on_c, 0, 72, 75
1, 15806, Note_on_c, 0, 72, 0
1, 15806, Note_on_c, 0, 74, 75
1, 15807, Note_on_c, 1, 54, 0
1, 15808, Note_on_c, 1, 57, 70
1, 15815, Note_on_c, 0, 74, 0
1, 15815, Note_on_c, 0, 72, 75
1, 15823, Note_on_c, 1, 57, 0
1, 15824, Note_on_c, 0, 72, 0
1, 15824, Note_on_c, 0, 71, 75
1, 15824, Note_on_c, 1, 62, 70
1, 15833, Note_on_c, 0, 71, 0
1, 15833, Note_on_c, 0, 72, 75
1, 15839, Note_on_c, 1, 62, 0
1, 15840, Note_on_c, 1, 54, 70
1, 15842, Note_on_c, 0, 72, 0
1, 15842, Note_on_c, 0, 81, 75
1, 15855, Note_on_c, 1, 54, 0
1, 15856, Note_on_c, 1, 57, 70
1, 15871, Note_on_c, 1, 57, 0
1, 15872, Note_on_c, 1, 62, 70
1, 15887, Note_on_c, 0, 81, 0
1, 15887, Note_on_c, 1, 62, 0
1, 15888, Note_on_c, 1, 54, 70
1, 15890, Note_on_c, 0, 72, 75
1, 15903, Note_on_c, 1, 54, 0
1, 15904, Note_on_c, 1, 57, 70
1, 15919, Note_on_c, 1, 57, 0
1, 15920, Note_on_c, 1, 62, 70
1, 15935, Note_on_c, 0, 72, 0
1, 15935, Note_on_c, 1, 62, 0
1, 15936, Note_on_c, 1, 55, 70
1, 15938, Note_on_c, 0, 72, 75
1, 15948, Note_on_c, 0, 72, 0
1, 15948, Note_on_c, 0, 71, 75
1, 15951, Note_on_c, 1, 55, 0
1, 15952, Note_on_c, 1, 59, 70
1, 15958, Note_on_c, 0, 71, 0
1, 15958, Note_on_c, 0, 72, 75
1, 15967, Note_on_c, 1, 59, 0
1, 15968, Note_on_c, 0, 72, 0
1, 15968, Note_on_c, 0, 71, 75
1, 15968, Note_on_c, 1, 62, 70
1, 15978, Note_on_c, 0, 71, 0
1, 15978, Note_on_c, 0, 72, 75
1, 15983, Note_on_c, 1, 62, 0
1, 15984, Note_on_c, 1, 55, 70
1, 15988, Note_on_c, 0, 72, 0
1, 15988, Note_on_c, 0, 71, 75
1, 15998, Note_on_c, 0, 71, 0
1, 15998, Note_on_c, 0, 72, 75
1, 15999, Note_on_c, 1, 55, 0
1, 16000, Note_on_c, 1, 59, 70
1, 16007, Note_on_c, 0, 72, 0
1, 16007, Note_on_c, 0, 71, 75
1, 16015, Note_on_c, 1, 59, 0
1, 16016, Note_on_c, 0, 71, 0
1, 16016, Note_on_c, 0, 69, 75
1, 16016, Note_on_c, 1, 62, 70
1, 16025, Note_on_c, 0, 69, 0
1, 16025, Note_on_c, 0, 71, 75
1, 16031, Note_on_c, 1, 62, 0
1, 16032, Note_on_c, 1, 52, 70
1, 16034, Note_on_c, 0, 71, 0
1, 16034, Note_on_c, 0, 79, 75
1, 16047, Note_on_c, 1, 52, 0
1, 16048, Note_on_c, 1, 55, 70
1, 16063, Note_on_c, 1, 55, 0
1, 16064, Note_on_c, 1, 60, 70
1, 16079, Note_on_c, 0, 79, 0
1, 16079, Note_on_c, 1, 60, 0
1, 16080, Note_on_c, 1, 52, 70
1, 16082, Note_on_c, 0, 71, 75
1, 16095, Note_on_c, 1, 52, 0
1, 16096, Note_on_c, 1, 55, 70
1, 16111, Note_on_c, 1, 55, 0
1, 16112, Note_on_c, 1, 60, 70
1, 16127, Note_on_c, 0, 71, 0
1, 16127, Note_on_c, 1, 60, 0
1, 16128, Note_on_c, 1, 54, 70
1, 16130, Note_on_c, 0, 71, 75
1, 16140, Note_on_c, 0, 71, 0
1, 16140, Note_on_c, 0, 69, 75
1, 16143, Note_on_c, 1, 54, 0
1, 16144, Note_on_c, 1, 57, 70
1, 16150, Note_on_c, 0, 69, 0
1, 16150, Note_on_c, 0, 71, 75
1, 16159, Note_on_c, 1, 57, 0
1, 16160, Note_on_c, 0, 71, 0
1, 16160, Note_on_c, 0, 69, 75
1, 16160, Note_on_c, 1, 60, 70
1, 16170, Note_on_c, 0, 69, 0
1, 16170, Note_on_c, 0, 71, 75
1, 16175, Note_on_c, 1, 60, 0
1, 16176, Note_on_c, 1, 54, 70
1, 16180, Note_on_c, 0, 71, 0
1, 16180, Note_on_c, 0, 69, 75
1, 16190, Note_on_c, 0, 69, 0
1, 16190, Note_on_c, 0, 71, 75
1, 16191, Note_on_c, 1, 54, 0
1, 16192, Note_on_c, 1, 57, 70
1, 16199, Note_on_c, 0, 71, 0
1, 16199, Note_on_c, 0, 69, 75
1, 16207, Note_on_c, 1, 57, 0
1, 16208, Note_on_c, 0, 69, 0
1, 16208, Note_on_c, 0, 67, 75
1, 16208, Note_on_c, 1, 60, 70
1, 16217, Note_on_c, 0, 67, 0
1, 16217, Note_on_c, 0, 69, 75
1, 16223, Note_on_c, 1, 60, 0
1, 16224, Note_on_c, 1, 51, 70
1, 16226, Note_on_c, 0, 69, 0
1, 16226, Note_on_c, 0, 78, 75
1, 16239, Note_on_c, 1, 51, 0
1, 16240, Note_on_c, 1, 54, 70
1, 16255, Note_on_c, 1, 54, 0
1, 16256, Note_on_c, 1, 59, 70
1, 16271, Note_on_c, 0, 78, 0
1, 16271, Note_on_c, 1, 59, 0
1, 16272, Note_on_c, 1, 51, 70
1, 16274, Note_on_c, 0, 69, 75
1, 16287, Note_on_c, 1, 51, 0
1, 16288, Note_on_c, 1, 54, 70
1, 16303, Note_on_c, 1, 54, 0
1, 16304, Note_on_c, 1, 59, 69
1, 16319, Note_on_c, 0, 69, 0
1, 16319, Note_on_c, 1, 59, 0
1, 16320, Note_on_c, 1, 52, 69
1, 16322, Note_on_c, 0, 67, 75
1, 16335, Note_on_c, 1, 52, 0
1, 16336, Note_on_c, 1, 55, 68
1, 16351, Note_on_c, 1, 55, 0
1, 16352, Note_on_c, 1, 59, 68
1, 16367, Note_on_c, 1, 59, 0
1, 16368, Note_on_c, 1, 52, 67
1, 16383, Note_on_c, 1, 52, 0
1, 16384, Note_on_c, 1, 55, 66
1, 16389, Note_on_c, 0, 67, 0
1, 16394, Note_on_c, 0, 76, 70
1, 16399, Note_on_c, 1, 55, 0
1, 16400, Note_on_c, 1, 59, 66
1, 16404, Note_on_c, 0, 76, 0
1, 16415, Note_on_c, 1, 59, 0
1, 16416, Note_on_c, 1, 55, 66
1, 16418, Note_on_c, 0, 71, 70
1, 16431, Note_on_c, 1, 55, 0
1, 16432, Note_on_c, 1, 59, 66
1, 16447, Note_on_c, 1, 59, 0
1, 16448, Note_on_c, 1, 64, 66
1, 16463, Note_on_c, 0, 71, 0
1, 16463, Note_on_c, 1, 64, 0
1, 16464, Note_on_c, 1, 57, 66
1, 16466, Note_on_c, 0, 74, 70
1, 16474, Note_on_c, 0, 74, 0
1, 16474, Note_on_c, 0, 72, 70
1, 16479, Note_on_c, 1, 57, 0
1, 16480, Note_on_c, 1, 60, 66
1, 16482, Note_on_c, 0, 72, 0
1, 16482, Note_on_c, 0, 74, 70
1, 16490, Note_on_c, 0, 74, 0
1, 16490, Note_on_c, 0, 72, 70
1, 16495, Note_on_c, 1, 60, 0
1, 16496, Note_on_c, 1, 64, 66
1, 16498, Note_on_c, 0, 72, 0
1, 16498, Note_on_c, 0, 71, 70
1, 16506, Note_on_c, 0, 71, 0
1, 16506, Note_on_c, 0, 72, 70
1, 16511, Note_on_c, 1, 64, 0
1, 16512, Note_on_c, 1, 55, 66
1, 16514, Note_on_c, 0, 72, 0
1, 16514, Note_on_c, 0, 71, 70
1, 16521, Note_on_c, 0, 71, 0
1, 16530, Note_on_c, 0, 83, 70
1, 16545, Note_on_c, 0, 83, 0
1, 16546, Note_on_c, 0, 81, 70
1, 16561, Note_on_c, 0, 81, 0
1, 16562, Note_on_c, 0, 79, 70
1, 16577, Note_on_c, 0, 79, 0
1, 16578, Note_on_c, 0, 78, 70
1, 16593, Note_on_c, 0, 78, 0
1, 16594, Note_on_c, 0, 76, 70
1, 16601, Note_on_c, 1, 55, 0
1, 16608, Note_on_c, 1, 55, 66
1, 16609, Note_on_c, 0, 76, 0
1, 16610, Note_on_c, 0, 71, 66
1, 16623, Note_on_c, 1, 55, 0
1, 16624, Note_on_c, 1, 59, 66
1, 16639, Note_on_c, 1, 59, 0
1, 16640, Note_on_c, 1, 64, 66
1, 16655, Note_on_c, 0, 71, 0
1, 16655, Note_on_c, 1, 64, 0
1, 16656, Note_on_c, 1, 57, 66
1, 16658, Note_on_c, 0, 74, 66
1, 16666, Note_on_c, 0, 74, 0
1, 16666, Note_on_c, 0, 72, 66
1, 16671, Note_on_c, 1, 57, 0
1, 16672, Note_on_c, 1, 60, 66
1, 16674, Note_on_c, 0, 72, 0
1, 16674, Note_on_c, 0, 74, 66
1, 16682, Note_on_c, 0, 74, 0
1, 16682, Note_on_c, 0, 72, 66
1, 16687, Note_on_c, 1, 60, 0
1, 16688, Note_on_c, 1, 64, 66
1, 16690, Note_on_c, 0, 72, 0
1, 16690, Note_on_c, 0, 71, 66
1, 16698, Note_on_c, 0, 71, 0
1, 16698, Note_on_c, 0, 72, 66
1, 16703, Note_on_c, 1, 64, 0
1, 16704, Note_on_c, 1, 55, 66
1, 16706, Note_on_c, 0, 72, 0
1, 16706, Note_on_c, 0, 71, 66
1, 16713, Note_on_c, 0, 71, 0
1, 16722, Note_on_c, 0, 83, 66
1, 16737, Note_on_c, 0, 83, 0
1, 16738, Note_on_c, 0, 81, 66
1, 16753, Note_on_c, 0, 81, 0
1, 16754, Note_on_c, 0, 79, 66
1, 16769, Note_on_c, 0, 79, 0
1, 16770, Note_on_c, 0, 78, 66
1, 16785, Note_on_c, 0, 78, 0
1, 16786, Note_on_c, 0, 76, 66
1, 16793, Note_on_c, 1, 55, 0
1, 16801, Note_on_c, 0, 76, 0
1, 16802, Note_on_c, 0, 66, 66
1, 16808, Note_on_c, 0, 66, 0
1, 16808, Note_on_c, 0, 69, 66
1, 16814, Note_on_c, 0, 69, 0
1, 16814, Note_on_c, 0, 72, 66
1, 16820, Note_on_c, 0, 72, 0
1, 16820, Note_on_c, 0, 75, 66
1, 16826, Note_on_c, 0, 75, 0
1, 16826, Note_on_c, 0, 78, 66
1, 16832, Note_on_c, 0, 78, 0
1, 16832, Note_on_c, 0, 81, 66
1, 16838, Note_on_c, 0, 81, 0
1, 16838, Note_on_c, 0, 84, 66
1, 16898, Note_on_c, 0, 84, 0
1, 16898, Note_on_c, 0, 83, 75
1, 16944, Note_on_c, 1, 55, 75
1, 16944, Note_on_c, 1, 43, 75
1, 16945, Note_on_c, 0, 83, 0
1, 16946, Note_on_c, 0, 81, 75
1, 16958, Note_on_c, 0, 81, 0
1, 16958, Note_on_c, 0, 79, 75
1, 16970, Note_on_c, 0, 79, 0
1, 16970, Note_on_c, 0, 78, 75
1, 16982, Note_on_c, 0, 78, 0
1, 16982, Note_on_c, 0, 76, 75
1, 16989, Note_on_c, 1, 55, 0
1, 16989, Note_on_c, 1, 43, 0
1, 16992, Note_on_c, 1, 57, 75
1, 16992, Note_on_c, 1, 45, 75
1, 16994, Note_on_c, 0, 76, 0
1, 16994, Note_on_c, 0, 79, 75
1, 17004, Note_on_c, 0, 79, 0
1, 17004, Note_on_c, 0, 78, 75
1, 17014, Note_on_c, 0, 78, 0
1, 17014, Note_on_c, 0, 79, 75
1, 17024, Note_on_c, 0, 79, 0
1, 17024, Note_on_c, 0, 78, 75
1, 17034, Note_on_c, 0, 78, 0
1, 17034, Note_on_c, 0, 79, 75
1, 17037, Note_on_c, 1, 57, 0
1, 17037, Note_on_c, 1, 45, 0
1, 17040, Note_on_c, 1, 59, 75
1, 17040, Note_on_c, 1, 47, 75
1, 17044, Note_on_c, 0, 79, 0
1, 17044, Note_on_c, 0, 78, 75
1, 17054, Note_on_c, 0, 78, 0
1, 17054, Note_on_c, 0, 79, 75
1, 17063, Note_on_c, 0, 79, 0
1, 17063, Note_on_c, 0, 78, 75
1, 17072, Note_on_c, 0, 78, 0
1, 17072, Note_on_c, 0, 76, 75
1, 17081, Note_on_c, 0, 76, 0
1, 17081, Note_on_c, 0, 78, 75
1, 17085, Note_on_c, 1, 59, 0
1, 17085, Note_on_c, 1, 47, 0
1, 17088, Note_on_c, 1, 64, 62
1, 17090, Note_on_c, 0, 78, 0
1, 17090, Note_on_c, 0, 76, 75
1, 17111, Note_on_c, 1, 64, 0
1, 17112, Note_on_c, 1, 67, 62
1, 17112, Note_on_c, 1, 64, 62
1, 17135, Note_on_c, 1, 67, 0
1, 17135, Note_on_c, 1, 64, 0
1, 17136, Note_on_c, 1, 67, 62
1, 17136, Note_on_c, 1, 64, 62
1, 17159, Note_on_c, 1, 67, 0
1, 17159, Note_on_c, 1, 64, 0
1, 17160, Note_on_c, 1, 67, 62
1, 17160, Note_on_c, 1, 64, 62
1, 17179, Note_on_c, 0, 76, 0
1, 17183, Note_on_c, 1, 67, 0
1, 17183, Note_on_c, 1, 64, 0
1, 17184, Note_on_c, 1, 67, 62
1, 17184, Note_on_c, 1, 64, 62
1, 17207, Note_on_c, 1, 67, 0
1, 17207, Note_on_c, 1, 64, 0
1, 17208, Note_on_c, 1, 67, 62
1, 17208, Note_on_c, 1, 64, 62
1, 17231, Note_on_c, 1, 67, 0
1, 17231, Note_on_c, 1, 64, 0
1, 17232, Note_on_c, 1, 67, 62
1, 17232, Note_on_c, 1, 64, 62
1, 17255, Note_on_c, 1, 67, 0
1, 17255, Note_on_c, 1, 64, 0
1, 17256, Note_on_c, 1, 67, 62
1, 17256, Note_on_c, 1, 64, 62
1, 17279, Note_on_c, 1, 67, 0
1, 17279, Note_on_c, 1, 64, 0
1, 17280, Note_on_c, 1, 67, 62
1, 17280, Note_on_c, 1, 64, 62
1, 17282, Note_on_c, 0, 79, 70
1, 17303, Note_on_c, 1, 67, 0
1, 17303, Note_on_c, 1, 64, 0
1, 17304, Note_on_c, 1, 67, 62
1, 17304, Note_on_c, 1, 64, 62
1, 17327, Note_on_c, 1, 67, 0
1, 17327, Note_on_c, 1, 64, 0
1, 17328, Note_on_c, 1, 67, 62
1, 17328, Note_on_c, 1, 64, 62
1, 17342, Note_on_c, 0, 79, 0
1, 17342, Note_on_c, 0, 77, 70
1, 17351, Note_on_c, 1, 67, 0
1, 17351, Note_on_c, 1, 64, 0
1, 17352, Note_on_c, 1, 67, 62
1, 17352, Note_on_c, 1, 64, 62
1, 17354, Note_on_c, 0, 77, 0
1, 17354, Note_on_c, 0, 76, 70
1, 17366, Note_on_c, 0, 76, 0
1, 17366, Note_on_c, 0, 74, 70
1, 17375, Note_on_c, 1, 67, 0
1, 17375, Note_on_c, 1, 64, 0
1, 17376, Note_on_c, 1, 67, 62
1, 17376, Note_on_c, 1, 64, 62
1, 17378, Note_on_c, 0, 74, 0
1, 17378, Note_on_c, 0, 72, 70
1, 17399, Note_on_c, 1, 67, 0
1, 17399, Note_on_c, 1, 64, 0
1, 17400, Note_on_c, 1, 67, 62
1, 17400, Note_on_c, 1, 64, 62
1, 17423, Note_on_c, 0, 72, 0
1, 17423, Note_on_c, 1, 67, 0
1, 17423, Note_on_c, 1, 64, 0
1, 17424, Note_on_c, 1, 67, 62
1, 17424, Note_on_c, 1, 64, 62
1, 17447, Note_on_c, 1, 67, 0
1, 17447, Note_on_c, 1, 64, 0
1, 17448, Note_on_c, 1, 67, 62
1, 17448, Note_on_c, 1, 64, 62
1, 17471, Note_on_c, 1, 67, 0
1, 17471, Note_on_c, 1, 64, 0
1, 17472, Note_on_c, 1, 67, 62
1, 17472, Note_on_c, 1, 64, 62
1, 17474, Note_on_c, 0, 79, 66
1, 17496, Note_on_c, 1, 67, 0
1, 17496, Note_on_c, 1, 64, 0
1, 17496, Note_on_c, 1, 67, 62
1, 17496, Note_on_c, 1, 64, 62
1, 17520, Note_on_c, 1, 67, 0
1, 17520, Note_on_c, 1, 64, 0
1, 17520, Note_on_c, 1, 67, 62
1, 17520, Note_on_c, 1, 64, 62
1, 17534, Note_on_c, 0, 79, 0
1, 17534, Note_on_c, 0, 77, 66
1, 17544, Note_on_c, 1, 67, 0
1, 17544, Note_on_c, 1, 64, 0
1, 17544, Note_on_c, 1, 67, 62
1, 17544, Note_on_c, 1, 64, 62
1, 17546, Note_on_c, 0, 77, 0
1, 17546, Note_on_c, 0, 76, 66
1, 17558, Note_on_c, 0, 76, 0
1, 17558, Note_on_c, 0, 74, 66
1, 17568, Note_on_c, 1, 67, 0
1, 17568, Note_on_c, 1, 64, 0
1, 17568, Note_on_c, 1, 67, 62
1, 17568, Note_on_c, 1, 64, 62
1, 17570, Note_on_c, 0, 74, 0
1, 17570, Note_on_c, 0, 72, 66
1, 17592, Note_on_c, 1, 67, 0
1, 17592, Note_on_c, 1, 64, 0
1, 17592, Note_on_c, 1, 67, 62
1, 17592, Note_on_c, 1, 64, 62
1, 17615, Note_on_c, 0, 72, 0
1, 17616, Note_on_c, 1, 67, 0
1, 17616, Note_on_c, 1, 64, 0
1, 17616, Note_on_c, 1, 67, 62
1, 17616, Note_on_c, 1, 64, 62
1, 17640, Note_on_c, 1, 67, 0
1, 17640, Note_on_c, 1, 64, 0
1, 17640, Note_on_c, 1, 67, 62
1, 17640, Note_on_c, 1, 64, 62
1, 17664, Note_on_c, 1, 67, 0
1, 17664, Note_on_c, 1, 64, 0
1, 17664, Note_on_c, 1, 67, 62
1, 17664, Note_on_c, 1, 64, 62
1, 17666, Note_on_c, 0, 79, 62
1, 17688, Note_on_c, 1, 67, 0
1, 17688, Note_on_c, 1, 64, 0
1, 17688, Note_on_c, 1, 67, 62
1, 17688, Note_on_c, 1, 64, 62
1, 17712, Note_on_c, 1, 67, 0
1, 17712, Note_on_c, 1, 64, 0
1, 17712, Note_on_c, 1, 67, 62
1, 17712, Note_on_c, 1, 64, 62
1, 17726, Note_on_c, 0, 79, 0
1, 17726, Note_on_c, 0, 77, 62
1, 17736, Note_on_c, 1, 67, 0
1, 17736, Note_on_c, 1, 64, 0
1, 17736, Note_on_c, 1, 67, 62
1, 17736, Note_on_c, 1, 64, 62
1, 17738, Note_on_c, 0, 77, 0
1, 17738, Note_on_c, 0, 76, 62
1, 17750, Note_on_c, 0, 76, 0
1, 17750, Note_on_c, 0, 74, 62
1, 17760, Note_on_c, 1, 67, 0
1, 17760, Note_on_c, 1, 64, 0
1, 17760, Note_on_c, 1, 67, 62
1, 17760, Note_on_c, 1, 64, 62
1, 17762, Note_on_c, 0, 74, 0
1, 17762, Note_on_c, 0, 72, 62
1, 17784, Note_on_c, 1, 67, 0
1, 17784, Note_on_c, 1, 64, 0
1, 17784, Note_on_c, 1, 67, 62
1, 17784, Note_on_c, 1, 64, 62
1, 17807, Note_on_c, 0, 72, 0
1, 17808, Note_on_c, 1, 67, 0
1, 17808, Note_on_c, 1, 64, 0
1, 17808, Note_on_c, 1, 67, 62
1, 17808, Note_on_c, 1, 64, 62
1, 17810, Note_on_c, 0, 72, 62
1, 17832, Note_on_c, 1, 67, 0
1, 17832, Note_on_c, 1, 64, 0
1, 17832, Note_on_c, 1, 67, 62
1, 17832, Note_on_c, 1, 64, 62
1, 17855, Note_on_c, 0, 72, 0
1, 17856, Note_on_c, 1, 67, 0
1, 17856, Note_on_c, 1, 64, 0
1, 17856, Note_on_c, 1, 66, 62
1, 17856, Note_on_c, 1, 62, 62
1, 17858, Note_on_c, 0, 74, 70
1, 17868, Note_on_c, 0, 74, 0
1, 17868, Note_on_c, 0, 72, 70
1, 17878, Note_on_c, 0, 72, 0
1, 17878, Note_on_c, 0, 74, 70
1, 17879, Note_on_c, 1, 66, 0
1, 17879, Note_on_c, 1, 62, 0
1, 17880, Note_on_c, 1, 66, 62
1, 17880, Note_on_c, 1, 62, 62
1, 17888, Note_on_c, 0, 74, 0
1, 17888, Note_on_c, 0, 72, 70
1, 17898, Note_on_c, 0, 72, 0
1, 17898, Note_on_c, 0, 74, 71
1, 17903, Note_on_c, 1, 66, 0
1, 17903, Note_on_c, 1, 62, 0
1, 17904, Note_on_c, 1, 66, 62
1, 17904, Note_on_c, 1, 62, 62
1, 17908, Note_on_c, 0, 74, 0
1, 17908, Note_on_c, 0, 72, 71
1, 17918, Note_on_c, 0, 72, 0
1, 17918, Note_on_c, 0, 74, 71
1, 17927, Note_on_c, 0, 74, 0
1, 17927, Note_on_c, 0, 72, 72
1, 17927, Note_on_c, 1, 66, 0
1, 17927, Note_on_c, 1, 62, 0
1, 17928, Note_on_c, 1, 66, 62
1, 17928, Note_on_c, 1, 62, 62
1, 17936, Note_on_c, 0, 72, 0
1, 17936, Note_on_c, 0, 71, 72
1, 17945, Note_on_c, 0, 71, 0
1, 17945, Note_on_c, 0, 72, 72
1, 17951, Note_on_c, 1, 66, 0
1, 17951, Note_on_c, 1, 62, 0
1, 17952, Note_on_c, 1, 66, 62
1, 17952, Note_on_c, 1, 62, 62
1, 17954, Note_on_c, 0, 72, 0
1, 17954, Note_on_c, 0, 81, 75
1, 17975, Note_on_c, 1, 66, 0
1, 17975, Note_on_c, 1, 62, 0
1, 17976, Note_on_c, 1, 66, 62
1, 17976, Note_on_c, 1, 62, 62
1, 17999, Note_on_c, 0, 81, 0
1, 17999, Note_on_c, 1, 66, 0
1, 17999, Note_on_c, 1, 62, 0
1, 18000, Note_on_c, 1, 66, 62
1, 18000, Note_on_c, 1, 62, 62
1, 18002, Note_on_c, 0, 72, 75
1, 18023, Note_on_c, 1, 66, 0
1, 18023, Note_on_c, 1, 62, 0
1, 18024, Note_on_c, 1, 66, 62
1, 18024, Note_on_c, 1, 62, 62
1, 18047, Note_on_c, 0, 72, 0
1, 18047, Note_on_c, 1, 66, 0
1, 18047, Note_on_c, 1, 62, 0
1, 18048, Note_on_c, 1, 67, 62
1, 18048, Note_on_c, 1, 62, 62
1, 18050, Note_on_c, 0, 72, 75
1, 18060, Note_on_c, 0, 72, 0
1, 18060, Note_on_c, 0, 71, 75
1, 18070, Note_on_c, 0, 71, 0
1, 18070, Note_on_c, 0, 72, 75
1, 18071, Note_on_c, 1, 67, 0
1, 18071, Note_on_c, 1, 62, 0
1, 18072, Note_on_c, 1, 67, 62
1, 18072, Note_on_c, 1, 62, 62
1, 18080, Note_on_c, 0, 72, 0
1, 18080, Note_on_c, 0, 71, 75
1, 18090, Note_on_c, 0, 71, 0
1, 18090, Note_on_c, 0, 72, 75
1, 18095, Note_on_c, 1, 67, 0
1, 18095, Note_on_c, 1, 62, 0
1, 18096, Note_on_c, 1, 67, 62
1, 18096, Note_on_c, 1, 62, 62
1, 18100, Note_on_c, 0, 72, 0
1, 18100, Note_on_c, 0, 71, 75
1, 18110, Note_on_c, 0, 71, 0
1, 18110, Note_on_c, 0, 72, 75
1, 18119, Note_on_c, 0, 72, 0
1, 18119, Note_on_c, 0, 71, 75
1, 18119, Note_on_c, 1, 67, 0
1, 18119, Note_on_c, 1, 62, 0
1, 18120, Note_on_c, 1, 67, 62
1, 18120, Note_on_c, 1, 62, 62
1, 18128, Note_on_c, 0, 71, 0
1, 18128, Note_on_c, 0, 69, 75
1, 18137, Note_on_c, 0, 69, 0
1, 18137, Note_on_c, 0, 71, 75
1, 18143, Note_on_c, 1, 67, 0
1, 18143, Note_on_c, 1, 62, 0
1, 18144, Note_on_c, 1, 67, 62
1, 18144, Note_on_c, 1, 62, 62
1, 18146, Note_on_c, 0, 71, 0
1, 18146, Note_on_c, 0, 79, 75
1, 18167, Note_on_c, 1, 67, 0
1, 18167, Note_on_c, 1, 62, 0
1, 18168, Note_on_c, 1, 67, 62
1, 18168, Note_on_c, 1, 62, 62
1, 18191, Note_on_c, 0, 79, 0
1, 18191, Note_on_c, 1, 67, 0
1, 18191, Note_on_c, 1, 62, 0
1, 18192, Note_on_c, 1, 67, 62
1, 18192, Note_on_c, 1, 62, 62
1, 18194, Note_on_c, 0, 71, 75
1, 18215, Note_on_c, 1, 67, 0
1, 18215, Note_on_c, 1, 62, 0
1, 18216, Note_on_c, 1, 67, 62
1, 18216, Note_on_c, 1, 62, 62
1, 18239, Note_on_c, 0, 71, 0
1, 18239, Note_on_c, 1, 67, 0
1, 18239, Note_on_c, 1, 62, 0
1, 18240, Note_on_c, 1, 66, 62
1, 18240, Note_on_c, 1, 62, 62
1, 18242, Note_on_c, 0, 74, 75
1, 18252, Note_on_c, 0, 74, 0
1, 18252, Note_on_c, 0, 72, 75
1, 18262, Note_on_c, 0, 72, 0
1, 18262, Note_on_c, 0, 74, 75
1, 18263, Note_on_c, 1, 66, 0
1, 18263, Note_on_c, 1, 62, 0
1, 18264, Note_on_c, 1, 66, 62
1, 18264, Note_on_c, 1, 62, 62
1, 18272, Note_on_c, 0, 74, 0
1, 18272, Note_on_c, 0, 72, 75
1, 18282, Note_on_c, 0, 72, 0
1, 18282, Note_on_c, 0, 74, 75
1, 18287, Note_on_c, 1, 66, 0
1, 18287, Note_on_c, 1, 62, 0
1, 18288, Note_on_c, 1, 66, 62
1, 18288, Note_on_c, 1, 62, 62
1, 18292, Note_on_c, 0, 74, 0
1, 18292, Note_on_c, 0, 72, 75
1, 18302, Note_on_c, 0, 72, 0
1, 18302, Note_on_c, 0, 74, 75
1, 18311, Note_on_c, 0, 74, 0
1, 18311, Note_on_c, 0, 72, 75
1, 18311, Note_on_c, 1, 66, 0
1, 18311, Note_on_c, 1, 62, 0
1, 18312, Note_on_c, 1, 66, 62
1, 18312, Note_on_c, 1, 62, 62
1, 18320, Note_on_c, 0, 72, 0
1, 18320, Note_on_c, 0, 71, 75
1, 18329, Note_on_c, 0, 71, 0
1, 18329, Note_on_c, 0, 72, 75
1, 18335, Note_on_c, 1, 66, 0
1, 18335, Note_on_c, 1, 62, 0
1, 18336, Note_on_c, 1, 66, 62
1, 18336, Note_on_c, 1, 62, 62
1, 18338, Note_on_c, 0, 72, 0
1, 18338, Note_on_c, 0, 81, 75
1, 18353, Note_on_c, 0, 81, 0
1, 18354, Note_on_c, 0, 79, 75
1, 18359, Note_on_c, 1, 66, 0
1, 18359, Note_on_c, 1, 62, 0
1, 18360, Note_on_c, 1, 66, 62
1, 18360, Note_on_c, 1, 62, 62
1, 18369, Note_on_c, 0, 79, 0
1, 18370, Note_on_c, 0, 78, 75
1, 18383, Note_on_c, 1, 66, 0
1, 18383, Note_on_c, 1, 62, 0
1, 18384, Note_on_c, 1, 66, 62
1, 18384, Note_on_c, 1, 62, 62
1, 18385, Note_on_c, 0, 78, 0
1, 18386, Note_on_c, 0, 76, 75
1, 18401, Note_on_c, 0, 76, 0
1, 18402, Note_on_c, 0, 74, 75
1, 18407, Note_on_c, 1, 66, 0
1, 18407, Note_on_c, 1, 62, 0
1, 18408, Note_on_c, 1, 66, 62
1, 18408, Note_on_c, 1, 62, 62
1, 18417, Note_on_c, 0, 74, 0
1, 18418, Note_on_c, 0, 72, 75
1, 18431, Note_on_c, 1, 66, 0
1, 18431, Note_on_c, 1, 62, 0
1, 18432, Note_on_c, 1, 67, 62
1, 18432, Note_on_c, 1, 62, 62
1, 18433, Note_on_c, 0, 72, 0
1, 18434, Note_on_c, 0, 72, 75
1, 18444, Note_on_c, 0, 72, 0
1, 18444, Note_on_c, 0, 71, 75
1, 18454, Note_on_c, 0, 71, 0
1, 18454, Note_on_c, 0, 72, 75
1, 18455, Note_on_c, 1, 67, 0
1, 18455, Note_on_c, 1, 62, 0
1, 18456, Note_on_c, 1, 67, 62
1, 18456, Note_on_c, 1, 62, 62
1, 18464, Note_on_c, 0, 72, 0
1, 18464, Note_on_c, 0, 71, 75
1, 18474, Note_on_c, 0, 71, 0
1, 18474, Note_on_c, 0, 72, 75
1, 18479, Note_on_c, 1, 67, 0
1, 18479, Note_on_c, 1, 62, 0
1, 18480, Note_on_c, 1, 67, 62
1, 18480, Note_on_c, 1, 62, 62
1, 18484, Note_on_c, 0, 72, 0
1, 18484, Note_on_c, 0, 71, 75
1, 18494, Note_on_c, 0, 71, 0
1, 18494, Note_on_c, 0, 72, 75
1, 18503, Note_on_c, 0, 72, 0
1, 18503, Note_on_c, 0, 71, 75
1, 18503, Note_on_c, 1, 67, 0
1, 18503, Note_on_c, 1, 62, 0
1, 18504, Note_on_c, 1, 67, 62
1, 18504, Note_on_c, 1, 62, 62
1, 18512, Note_on_c, 0, 71, 0
1, 18512, Note_on_c, 0, 69, 75
1, 18521, Note_on_c, 0, 69, 0
1, 18521, Note_on_c, 0, 71, 75
1, 18527, Note_on_c, 1, 67, 0
1, 18527, Note_on_c, 1, 62, 0
1, 18528, Note_on_c, 1, 67, 62
1, 18528, Note_on_c, 1, 62, 62
1, 18530, Note_on_c, 0, 71, 0
1, 18530, Note_on_c, 0, 79, 75
1, 18545, Note_on_c, 0, 79, 0
1, 18546, Note_on_c, 0, 78, 75
1, 18551, Note_on_c, 1, 67, 0
1, 18551, Note_on_c, 1, 62, 0
1, 18552, Note_on_c, 1, 67, 62
1, 18552, Note_on_c, 1, 62, 62
1, 18561, Note_on_c, 0, 78, 0
1, 18562, Note_on_c, 0, 76, 75
1, 18575, Note_on_c, 1, 67, 0
1, 18575, Note_on_c, 1, 62, 0
1, 18576, Note_on_c, 1, 67, 62
1, 18576, Note_on_c, 1, 62, 62
1, 18577, Note_on_c, 0, 76, 0
1, 18578, Note_on_c, 0, 74, 75
1, 18593, Note_on_c, 0, 74, 0
1, 18594, Note_on_c, 0, 72, 75
1, 18599, Note_on_c, 1, 67, 0
1, 18599, Note_on_c, 1, 62, 0
1, 18600, Note_on_c, 1, 67, 62
1, 18600, Note_on_c, 1, 62, 62
1, 18609, Note_on_c, 0, 72, 0
1, 18610, Note_on_c, 0, 71, 75
1, 18623, Note_on_c, 1, 67, 0
1, 18623, Note_on_c, 1, 62, 0
1, 18624, Note_on_c, 1, 67, 62
1, 18624, Note_on_c, 0, 62, 64
1, 18625, Note_on_c, 0, 71, 0
1, 18626, Note_on_c, 0, 72, 75
1, 18634, Note_on_c, 0, 72, 0
1, 18634, Note_on_c, 0, 71, 75
1, 18642, Note_on_c, 0, 71, 0
1, 18642, Note_on_c, 0, 72, 75
1, 18650, Note_on_c, 0, 72, 0
1, 18650, Note_on_c, 0, 71, 75
1, 18658, Note_on_c, 0, 71, 0
1, 18658, Note_on_c, 0, 69, 75
1, 18666, Note_on_c, 0, 69, 0
1, 18666, Note_on_c, 0, 71, 75
1, 18669, Note_on_c, 1, 67, 0
1, 18672, Note_on_c, 1, 66, 62
1, 18674, Note_on_c, 0, 71, 0
1, 18674, Note_on_c, 0, 69, 75
1, 18713, Note_on_c, 0, 62, 0
1, 18717, Note_on_c, 1, 66, 0
1, 18719, Note_on_c, 0, 69, 0
1, 18770, Note_on_c, 0, 86, 75
1, 18770, Note_on_c, 0, 83, 75
1, 18804, Note_on_c, 0, 86, 0
1, 18804, Note_on_c, 0, 83, 0
1, 18806, Note_on_c, 0, 86, 75
1, 18806, Note_on_c, 0, 83, 75
1, 18818, Note_on_c, 0, 86, 0
1, 18818, Note_on_c, 0, 83, 0
1, 18818, Note_on_c, 0, 86, 75
1, 18818, Note_on_c, 0, 83, 75
1, 18852, Note_on_c, 0, 86, 0
1, 18852, Note_on_c, 0, 83, 0
1, 18854, Note_on_c, 0, 84, 75
1, 18854, Note_on_c, 0, 81, 75
1, 18866, Note_on_c, 0, 84, 0
1, 18866, Note_on_c, 0, 81, 0
1, 18866, Note_on_c, 0, 83, 75
1, 18866, Note_on_c, 0, 79, 75
1, 18900, Note_on_c, 0, 83, 0
1, 18900, Note_on_c, 0, 79, 0
1, 18900, Note_on_c, 1, 55, 75
1, 18902, Note_on_c, 0, 83, 75
1, 18902, Note_on_c, 0, 62, 75
1, 18912, Note_on_c, 1, 55, 0
1, 18912, Note_on_c, 1, 55, 75
1, 18914, Note_on_c, 0, 83, 0
1, 18914, Note_on_c, 0, 62, 0
1, 18914, Note_on_c, 0, 83, 75
1, 18914, Note_on_c, 0, 62, 75
1, 18948, Note_on_c, 0, 83, 0
1, 18948, Note_on_c, 0, 62, 0
1, 18950, Note_on_c, 0, 81, 75
1, 18950, Note_on_c, 0, 60, 75
1, 18962, Note_on_c, 0, 81, 0
1, 18962, Note_on_c, 0, 60, 0
1, 18962, Note_on_c, 0, 79, 75
1, 18962, Note_on_c, 0, 59, 75
1, 18996, Note_on_c, 0, 79, 0
1, 18996, Note_on_c, 0, 59, 0
1, 18998, Note_on_c, 0, 86, 75
1, 18998, Note_on_c, 0, 83, 75
1, 19001, Note_on_c, 1, 55, 0
1, 19010, Note_on_c, 0, 86, 0
1, 19010, Note_on_c, 0, 83, 0
1, 19010, Note_on_c, 0, 86, 75
1, 19010, Note_on_c, 0, 83, 75
1, 19044, Note_on_c, 0, 86, 0
1, 19044, Note_on_c, 0, 83, 0
1, 19046, Note_on_c, 0, 84, 75
1, 19046, Note_on_c, 0, 81, 75
1, 19058, Note_on_c, 0, 84, 0
1, 19058, Note_on_c, 0, 81, 0
1, 19058, Note_on_c, 0, 83, 75
1, 19058, Note_on_c, 0, 79, 75
1, 19092, Note_on_c, 0, 83, 0
1, 19092, Note_on_c, 0, 79, 0
1, 19092, Note_on_c, 1, 55, 75
1, 19094, Note_on_c, 0, 83, 75
1, 19094, Note_on_c, 0, 62, 75
1, 19104, Note_on_c, 1, 55, 0
1, 19104, Note_on_c, 1, 55, 75
1, 19106, Note_on_c, 0, 83, 0
1, 19106, Note_on_c, 0, 62, 0
1, 19106, Note_on_c, 0, 83, 75
1, 19106, Note_on_c, 0, 62, 75
1, 19140, Note_on_c, 0, 83, 0
1, 19140, Note_on_c, 0, 62, 0
1, 19142, Note_on_c, 0, 81, 75
1, 19142, Note_on_c, 0, 60, 75
1, 19154, Note_on_c, 0, 81, 0
1, 19154, Note_on_c, 0, 60, 0
1, 19154, Note_on_c, 0, 79, 75
1, 19154, Note_on_c, 0, 59, 75
1, 19188, Note_on_c, 0, 79, 0
1, 19188, Note_on_c, 0, 59, 0
1, 19190, Note_on_c, 0, 79, 75
1, 19193, Note_on_c, 1, 55, 0
1, 19200, Note_on_c, 1, 60, 75
1, 19200, Note_on_c, 1, 54, 75
1, 19202, Note_on_c, 0, 79, 0
1, 19202, Note_on_c, 0, 80, 75
1, 19226, Note_on_c, 0, 80, 0
1, 19226, Note_on_c, 0, 81, 73
1, 19245, Note_on_c, 1, 60, 0
1, 19245, Note_on_c, 1, 54, 0
1, 19248, Note_on_c, 1, 60, 72
1, 19248, Note_on_c, 1, 54, 72
1, 19249, Note_on_c, 0, 81, 0
1, 19250, Note_on_c, 0, 81, 72
1, 19273, Note_on_c, 0, 81, 0
1, 19274, Note_on_c, 0, 81, 71
1, 19293, Note_on_c, 1, 60, 0
1, 19293, Note_on_c, 1, 54, 0
1, 19296, Note_on_c, 1, 60, 70
1, 19296, Note_on_c, 1, 54, 70
1, 19297, Note_on_c, 0, 81, 0
1, 19298, Note_on_c, 0, 81, 70
1, 19341, Note_on_c, 1, 60, 0
1, 19341, Note_on_c, 1, 54, 0
1, 19344, Note_on_c, 1, 60, 71
1, 19344, Note_on_c, 1, 54, 71
1, 19387, Note_on_c, 0, 81, 0
1, 19394, Note_on_c, 0, 66, 72
1, 19400, Note_on_c, 0, 66, 0
1, 19400, Note_on_c, 0, 69, 72
1, 19406, Note_on_c, 0, 69, 0
1, 19406, Note_on_c, 0, 72, 72
1, 19412, Note_on_c, 0, 72, 0
1, 19412, Note_on_c, 0, 74, 72
1, 19418, Note_on_c, 0, 74, 0
1, 19418, Note_on_c, 0, 78, 72
1, 19424, Note_on_c, 0, 78, 0
1, 19424, Note_on_c, 0, 81, 72
1, 19430, Note_on_c, 0, 81, 0
1, 19430, Note_on_c, 0, 84, 72
1, 19437, Note_on_c, 1, 60, 0
1, 19437, Note_on_c, 1, 54, 0
1, 19488, Note_on_c, 1, 50, 75
1, 19488, Note_on_c, 1, 38, 75
1, 19502, Note_on_c, 0, 84, 0
1, 19502, Note_on_c, 0, 83, 75
1, 19514, Note_on_c, 0, 83, 0
1, 19514, Note_on_c, 0, 81, 75
1, 19526, Note_on_c, 0, 81, 0
1, 19526, Note_on_c, 0, 79, 75
1, 19533, Note_on_c, 1, 50, 0
1, 19533, Note_on_c, 1, 38, 0
1, 19536, Note_on_c, 1, 54, 75
1, 19536, Note_on_c, 1, 42, 75
1, 19538, Note_on_c, 0, 79, 0
1, 19538, Note_on_c, 0, 78, 75
1, 19550, Note_on_c, 0, 78, 0
1, 19550, Note_on_c, 0, 76, 75
1, 19562, Note_on_c, 0, 76, 0
1, 19562, Note_on_c, 0, 74, 75
1, 19574, Note_on_c, 0, 74, 0
1, 19574, Note_on_c, 0, 72, 75
1, 19581, Note_on_c, 1, 54, 0
1, 19581, Note_on_c, 1, 42, 0
1, 19584, Note_on_c, 1, 55, 75
1, 19584, Note_on_c, 1, 43, 75
1, 19586, Note_on_c, 0, 72, 0
1, 19586, Note_on_c, 0, 71, 75
1, 19598, Note_on_c, 0, 71, 0
1, 19598, Note_on_c, 0, 74, 75
1, 19610, Note_on_c, 0, 74, 0
1, 19610, Note_on_c, 0, 76, 75
1, 19622, Note_on_c, 0, 76, 0
1, 19622, Note_on_c, 0, 78, 75
1, 19634, Note_on_c, 0, 78, 0
1, 19634, Note_on_c, 0, 79, 75
1, 19646, Note_on_c, 0, 79, 0
1, 19646, Note_on_c, 0, 81, 75
1, 19658, Note_on_c, 0, 81, 0
1, 19658, Note_on_c, 0, 83, 75
1, 19670, Note_on_c, 0, 83, 0
1, 19670, Note_on_c, 0, 84, 75
1, 19673, Note_on_c, 1, 55, 0
1, 19673, Note_on_c, 1, 43, 0
1, 19682, Note_on_c, 0, 84, 0
1, 19682, Note_on_c, 0, 86, 75
1, 19705, Note_on_c, 0, 86, 0
1, 19706, Note_on_c, 0, 74, 75
1, 19728, Note_on_c, 1, 59, 75
1, 19728, Note_on_c, 1, 47, 75
1, 19729, Note_on_c, 0, 74, 0
1, 19730, Note_on_c, 0, 74, 75
1, 19754, Note_on_c, 0, 74, 0
1, 19754, Note_on_c, 0, 75, 75
1, 19773, Note_on_c, 1, 59, 0
1, 19773, Note_on_c, 1, 47, 0
1, 19776, Note_on_c, 1, 60, 75
1, 19776, Note_on_c, 1, 48, 75
1, 19777, Note_on_c, 0, 75, 0
1, 19778, Note_on_c, 0, 76, 75
1, 19801, Note_on_c, 0, 76, 0
1, 19802, Note_on_c, 0, 78, 75
1, 19814, Note_on_c, 0, 78, 0
1, 19814, Note_on_c, 0, 80, 75
1, 19826, Note_on_c, 0, 80, 0
1, 19826, Note_on_c, 0, 81, 75
1, 19838, Note_on_c, 0, 81, 0
1, 19838, Note_on_c, 0, 80, 75
1, 19850, Note_on_c, 0, 80, 0
1, 19850, Note_on_c, 0, 81, 75
1, 19862, Note_on_c, 0, 81, 0
1, 19862, Note_on_c, 0, 83, 76
1, 19865, Note_on_c, 1, 60, 0
1, 19865, Note_on_c, 1, 48, 0
1, 19874, Note_on_c, 0, 83, 0
1, 19874, Note_on_c, 0, 84, 76
1, 19897, Note_on_c, 0, 84, 0
1, 19898, Note_on_c, 0, 72, 76
1, 19920, Note_on_c, 1, 57, 76
1, 19920, Note_on_c, 1, 45, 76
1, 19921, Note_on_c, 0, 72, 0
1, 19922, Note_on_c, 0, 72, 76
1, 19946, Note_on_c, 0, 72, 0
1, 19946, Note_on_c, 0, 73, 76
1, 19965, Note_on_c, 1, 57, 0
1, 19965, Note_on_c, 1, 45, 0
1, 19968, Note_on_c, 1, 59, 76
1, 19968, Note_on_c, 1, 47, 76
1, 19969, Note_on_c, 0, 73, 0
1, 19970, Note_on_c, 0, 74, 76
1, 19993, Note_on_c, 0, 74, 0
1, 19994, Note_on_c, 0, 76, 76
1, 20006, Note_on_c, 0, 76, 0
1, 20006, Note_on_c, 0, 78, 76
1, 20018, Note_on_c, 0, 78, 0
1, 20018, Note_on_c, 0, 79, 77
1, 20030, Note_on_c, 0, 79, 0
1, 20030, Note_on_c, 0, 78, 77
1, 20042, Note_on_c, 0, 78, 0
1, 20042, Note_on_c, 0, 79, 77
1, 20054, Note_on_c, 0, 79, 0
1, 20054, Note_on_c, 0, 81, 77
1, 20057, Note_on_c, 1, 59, 0
1, 20057, Note_on_c, 1, 47, 0
1, 20066, Note_on_c, 0, 81, 0
1, 20066, Note_on_c, 0, 83, 77
1, 20089, Note_on_c, 0, 83, 0
1, 20090, Note_on_c, 0, 71, 77
1, 20112, Note_on_c, 1, 55, 77
1, 20112, Note_on_c, 1, 43, 77
1, 20113, Note_on_c, 0, 71, 0
1, 20114, Note_on_c, 0, 71, 77
1, 20137, Note_on_c, 0, 71, 0
1, 20138, Note_on_c, 0, 71, 77
1, 20157, Note_on_c, 1, 55, 0
1, 20157, Note_on_c, 1, 43, 0
1, 20160, Note_on_c, 1, 57, 77
1, 20160, Note_on_c, 1, 45, 77
1, 20161, Note_on_c, 0, 71, 0
1, 20162, Note_on_c, 0, 72, 78
1, 20185, Note_on_c, 0, 72, 0
1, 20186, Note_on_c, 0, 74, 78
1, 20198, Note_on_c, 0, 74, 0
1, 20198, Note_on_c, 0, 76, 78
1, 20210, Note_on_c, 0, 76, 0
1, 20210, Note_on_c, 0, 78, 78
1, 20222, Note_on_c, 0, 78, 0
1, 20222, Note_on_c, 0, 76, 78
1, 20234, Note_on_c, 0, 76, 0
1, 20234, Note_on_c, 0, 78, 78
1, 20246, Note_on_c, 0, 78, 0
1, 20246, Note_on_c, 0, 79, 78
1, 20249, Note_on_c, 1, 57, 0
1, 20249, Note_on_c, 1, 45, 0
1, 20258, Note_on_c, 0, 79, 0
1, 20258, Note_on_c, 0, 81, 78
1, 20281, Note_on_c, 0, 81, 0
1, 20282, Note_on_c, 0, 69, 78
1, 20304, Note_on_c, 1, 54, 78
1, 20304, Note_on_c, 1, 42, 78
1, 20305, Note_on_c, 0, 69, 0
1, 20306, Note_on_c, 0, 69, 78
1, 20330, Note_on_c, 0, 69, 0
1, 20330, Note_on_c, 0, 70, 79
1, 20349, Note_on_c, 1, 54, 0
1, 20349, Note_on_c, 1, 42, 0
1, 20352, Note_on_c, 1, 55, 79
1, 20352, Note_on_c, 1, 43, 79
1, 20353, Note_on_c, 0, 70, 0
1, 20354, Note_on_c, 0, 71, 79
1, 20377, Note_on_c, 0, 71, 0
1, 20378, Note_on_c, 0, 72, 79
1, 20390, Note_on_c, 0, 72, 0
1, 20390, Note_on_c, 0, 74, 79
1, 20402, Note_on_c, 0, 74, 0
1, 20402, Note_on_c, 0, 76, 79
1, 20414, Note_on_c, 0, 76, 0
1, 20414, Note_on_c, 0, 74, 79
1, 20426, Note_on_c, 0, 74, 0
1, 20426, Note_on_c, 0, 76, 79
1, 20438, Note_on_c, 0, 76, 0
1, 20438, Note_on_c, 0, 78, 79
1, 20441, Note_on_c, 1, 55, 0
1, 20441, Note_on_c, 1, 43, 0
1, 20450, Note_on_c, 0, 78, 0
1, 20450, Note_on_c, 0, 79, 79
1, 20473, Note_on_c, 0, 79, 0
1, 20474, Note_on_c, 0, 71, 80
1, 20496, Note_on_c, 1, 67, 80
1, 20496, Note_on_c, 1, 61, 80
1, 20497, Note_on_c, 0, 71, 0
1, 20498, Note_on_c, 0, 71, 80
1, 20521, Note_on_c, 0, 71, 0
1, 20522, Note_on_c, 0, 71, 80
1, 20541, Note_on_c, 1, 67, 0
1, 20541, Note_on_c, 1, 61, 0
1, 20544, Note_on_c, 1, 67, 80
1, 20544, Note_on_c, 1, 62, 80
1, 20545, Note_on_c, 0, 71, 0
1, 20546, Note_on_c, 0, 72, 80
1, 20554, Note_on_c, 0, 72, 0
1, 20554, Note_on_c, 0, 71, 80
1, 20562, Note_on_c, 0, 71, 0
1, 20562, Note_on_c, 0, 72, 80
1, 20570, Note_on_c, 0, 72, 0
1, 20570, Note_on_c, 0, 71, 80
1, 20578, Note_on_c, 0, 71, 0
1, 20578, Note_on_c, 0, 69, 80
1, 20586, Note_on_c, 0, 69, 0
1, 20586, Note_on_c, 0, 71, 80
1, 20589, Note_on_c, 1, 67, 0
1, 20589, Note_on_c, 1, 62, 0
1, 20592, Note_on_c, 1, 66, 80
1, 20592, Note_on_c, 1, 62, 80
1, 20594, Note_on_c, 0, 71, 0
1, 20594, Note_on_c, 0, 69, 80
1, 20617, Note_on_c, 0, 69, 0
1, 20618, Note_on_c, 0, 78, 81
1, 20637, Note_on_c, 1, 66, 0
1, 20637, Note_on_c, 1, 62, 0
1, 20641, Note_on_c, 0, 78, 0
1, 20642, Note_on_c, 0, 79, 81
1, 20654, Note_on_c, 0, 79, 0
1, 20654, Note_on_c, 0, 78, 81
1, 20666, Note_on_c, 0, 78, 0
1, 20666, Note_on_c, 0, 79, 81
1, 20678, Note_on_c, 0, 79, 0
1, 20678, Note_on_c, 0, 81, 81
1, 20688, Note_on_c, 1, 67, 81
1, 20688, Note_on_c, 1, 61, 81
1, 20690, Note_on_c, 0, 81, 0
1, 20690, Note_on_c, 0, 83, 81
1, 20713, Note_on_c, 0, 83, 0
1, 20714, Note_on_c, 0, 71, 81
1, 20733, Note_on_c, 1, 67, 0
1, 20733, Note_on_c, 1, 61, 0
1, 20736, Note_on_c, 1, 67, 81
1, 20736, Note_on_c, 0, 62, 64
1, 20737, Note_on_c, 0, 71, 0
1, 20738, Note_on_c, 0, 72, 81
1, 20746, Note_on_c, 0, 72, 0
1, 20746, Note_on_c, 0, 71, 81
1, 20754, Note_on_c, 0, 71, 0
1, 20754, Note_on_c, 0, 72, 81
1, 20762, Note_on_c, 0, 72, 0
1, 20762, Note_on_c, 0, 71, 81
1, 20770, Note_on_c, 0, 71, 0
1, 20770, Note_on_c, 0, 69, 81
1, 20778, Note_on_c, 0, 69, 0
1, 20778, Note_on_c, 0, 71, 81
1, 20781, Note_on_c, 1, 67, 0
1, 20784, Note_on_c, 1, 66, 81
1, 20786, Note_on_c, 0, 71, 0
1, 20786, Note_on_c, 0, 69, 81
1, 20825, Note_on_c, 0, 62, 0
1, 20829, Note_on_c, 1, 66, 0
1, 20831, Note_on_c, 0, 69, 0
1, 20834, Note_on_c, 0, 81, 75
1, 20856, Note_on_c, 1, 62, 81
1, 20868, Note_on_c, 1, 62, 0
1, 20868, Note_on_c, 1, 64, 81
1, 20880, Note_on_c, 1, 64, 0
1, 20880, Note_on_c, 1, 66, 81
1, 20901, Note_on_c, 0, 81, 0
1, 20903, Note_on_c, 1, 66, 0
1, 20904, Note_on_c, 1, 62, 81
1, 20906, Note_on_c, 0, 72, 75
1, 20927, Note_on_c, 1, 62, 0
1, 20928, Note_on_c, 1, 67, 81
1, 20929, Note_on_c, 0, 72, 0
1, 20930, Note_on_c, 0, 71, 75
1, 20942, Note_on_c, 0, 71, 0
1, 20942, Note_on_c, 0, 69, 75
1, 20954, Note_on_c, 0, 69, 0
1, 20954, Note_on_c, 0, 71, 75
1, 20966, Note_on_c, 0, 71, 0
1, 20966, Note_on_c, 0, 72, 75
1, 20973, Note_on_c, 1, 67, 0
1, 20976, Note_on_c, 1, 55, 81
1, 20978, Note_on_c, 0, 72, 0
1, 20978, Note_on_c, 0, 74, 75
1, 20990, Note_on_c, 0, 74, 0
1, 20990, Note_on_c, 0, 72, 75
1, 21002, Note_on_c, 0, 72, 0
1, 21002, Note_on_c, 0, 74, 75
1, 21014, Note_on_c, 0, 74, 0
1, 21014, Note_on_c, 0, 76, 75
1, 21021, Note_on_c, 1, 55, 0
1, 21026, Note_on_c, 0, 76, 0
1, 21026, Note_on_c, 0, 74, 75
1, 21048, Note_on_c, 1, 55, 81
1, 21060, Note_on_c, 1, 55, 0
1, 21060, Note_on_c, 1, 57, 81
1, 21072, Note_on_c, 1, 57, 0
1, 21072, Note_on_c, 1, 59, 81
1, 21093, Note_on_c, 0, 74, 0
1, 21095, Note_on_c, 1, 59, 0
1, 21096, Note_on_c, 1, 55, 81
1, 21098, Note_on_c, 0, 67, 75
1, 21119, Note_on_c, 1, 55, 0
1, 21120, Note_on_c, 1, 62, 81
1, 21121, Note_on_c, 0, 67, 0
1, 21122, Note_on_c, 0, 66, 75
1, 21134, Note_on_c, 0, 66, 0
1, 21134, Note_on_c, 0, 64, 75
1, 21146, Note_on_c, 0, 64, 0
1, 21146, Note_on_c, 0, 66, 75
1, 21158, Note_on_c, 0, 66, 0
1, 21158, Note_on_c, 0, 67, 75
1, 21165, Note_on_c, 1, 62, 0
1, 21168, Note_on_c, 1, 50, 81
1, 21170, Note_on_c, 0, 67, 0
1, 21170, Note_on_c, 0, 69, 75
1, 21182, Note_on_c, 0, 69, 0
1, 21182, Note_on_c, 0, 67, 75
1, 21194, Note_on_c, 0, 67, 0
1, 21194, Note_on_c, 0, 69, 75
1, 21206, Note_on_c, 0, 69, 0
1, 21206, Note_on_c, 0, 71, 75
1, 21213, Note_on_c, 1, 50, 0
1, 21218, Note_on_c, 0, 71, 0
1, 21218, Note_on_c, 0, 72, 75
1, 21240, Note_on_c, 1, 50, 81
1, 21252, Note_on_c, 1, 50, 0
1, 21252, Note_on_c, 1, 52, 81
1, 21264, Note_on_c, 1, 52, 0
1, 21264, Note_on_c, 1, 54, 81
1, 21285, Note_on_c, 0, 72, 0
1, 21287, Note_on_c, 1, 54, 0
1, 21288, Note_on_c, 1, 50, 81
1, 21290, Note_on_c, 0, 60, 75
1, 21311, Note_on_c, 1, 50, 0
1, 21312, Note_on_c, 1, 55, 81
1, 21313, Note_on_c, 0, 60, 0
1, 21314, Note_on_c, 0, 59, 75
1, 21326, Note_on_c, 0, 59, 0
1, 21326, Note_on_c, 0, 57, 75
1, 21338, Note_on_c, 0, 57, 0
1, 21338, Note_on_c, 0, 59, 75
1, 21350, Note_on_c, 0, 59, 0
1, 21350, Note_on_c, 0, 60, 75
1, 21357, Note_on_c, 1, 55, 0
1, 21360, Note_on_c, 1, 43, 81
1, 21362, Note_on_c, 0, 60, 0
1, 21362, Note_on_c, 0, 62, 75
1, 21374, Note_on_c, 0, 62, 0
1, 21374, Note_on_c, 0, 60, 75
1, 21386, Note_on_c, 0, 60, 0
1, 21386, Note_on_c, 0, 62, 75
1, 21398, Note_on_c, 0, 62, 0
1, 21398, Note_on_c, 0, 64, 75
1, 21405, Note_on_c, 1, 43, 0
1, 21410, Note_on_c, 0, 64, 0
1, 21410, Note_on_c, 0, 62, 75
1, 21432, Note_on_c, 1, 43, 81
1, 21444, Note_on_c, 1, 43, 0
1, 21444, Note_on_c, 1, 45, 81
1, 21456, Note_on_c, 1, 45, 0
1, 21456, Note_on_c, 1, 47, 81
1, 21477, Note_on_c, 0, 62, 0
1, 21479, Note_on_c, 1, 47, 0
1, 21480, Note_on_c, 1, 43, 81
1, 21482, Note_on_c, 0, 55, 75
1, 21503, Note_on_c, 1, 43, 0
1, 21504, Note_on_c, 1, 50, 81
1, 21505, Note_on_c, 0, 55, 0
1, 21506, Note_on_c, 0, 54, 75
1, 21518, Note_on_c, 0, 54, 0
1, 21518, Note_on_c, 0, 52, 75
1, 21530, Note_on_c, 0, 52, 0
1, 21530, Note_on_c, 0, 54, 75
1, 21542, Note_on_c, 0, 54, 0
1, 21542, Note_on_c, 0, 55, 75
1, 21549, Note_on_c, 1, 50, 0
1, 21552, Note_on_c, 1, 38, 81
1, 21554, Note_on_c, 0, 55, 0
1, 21554, Note_on_c, 0, 57, 75
1, 21566, Note_on_c, 0, 57, 0
1, 21566, Note_on_c, 0, 55, 75
1, 21578, Note_on_c, 0, 55, 0
1, 21578, Note_on_c, 0, 57, 75
1, 21590, Note_on_c, 0, 57, 0
1, 21590, Note_on_c, 0, 59, 75
1, 21597, Note_on_c, 1, 38, 0
1, 21602, Note_on_c, 0, 59, 0
1, 21602, Note_on_c, 0, 60, 75
1, 21624, Note_on_c, 1, 50, 81
1, 21636, Note_on_c, 1, 50, 0
1, 21636, Note_on_c, 1, 52, 81
1, 21648, Note_on_c, 1, 52, 0
1, 21648, Note_on_c, 1, 54, 81
1, 21669, Note_on_c, 0, 60, 0
1, 21671, Note_on_c, 1, 54, 0
1, 21672, Note_on_c, 1, 50, 81
1, 21674, Note_on_c, 0, 60, 75
1, 21695, Note_on_c, 1, 50, 0
1, 21696, Note_on_c, 1, 55, 75
1, 21697, Note_on_c, 0, 60, 0
1, 21698, Note_on_c, 0, 59, 75
1, 21721, Note_on_c, 0, 59, 0
1, 21722, Note_on_c, 0, 66, 91
1, 21741, Note_on_c, 1, 55, 0
1, 21744, Note_on_c, 1, 43, 75
1, 21770, Note_on_c, 0, 66, 0
1, 21770, Note_on_c, 0, 67, 75
1, 21789, Note_on_c, 1, 43, 0
1, 21792, Note_on_c, 1, 45, 75
1, 21793, Note_on_c, 0, 67, 0
1, 21794, Note_on_c, 0, 60, 75
1, 21817, Note_on_c, 0, 60, 0
1, 21818, Note_on_c, 0, 66, 91
1, 21837, Note_on_c, 1, 45, 0
1, 21840, Note_on_c, 1, 57, 75
1, 21866, Note_on_c, 0, 66, 0
1, 21866, Note_on_c, 0, 67, 75
1, 21885, Note_on_c, 1, 57, 0
1, 21888, Note_on_c, 1, 59, 75
1, 21889, Note_on_c, 0, 67, 0
1, 21890, Note_on_c, 0, 62, 75
1, 21913, Note_on_c, 0, 62, 0
1, 21914, Note_on_c, 0, 66, 75
1, 21933, Note_on_c, 1, 59, 0
1, 21936, Note_on_c, 1, 47, 75
1, 21959, Note_on_c, 0, 66, 0
1, 21962, Note_on_c, 0, 67, 75
1, 21981, Note_on_c, 1, 47, 0
1, 21984, Note_on_c, 1, 48, 75
1, 21985, Note_on_c, 0, 67, 0
1, 21986, Note_on_c, 0, 64, 75
1, 22009, Note_on_c, 0, 64, 0
1, 22010, Note_on_c, 0, 69, 75
1, 22022, Note_on_c, 0, 69, 0
1, 22022, Note_on_c, 0, 71, 75
1, 22029, Note_on_c, 1, 48, 0
1, 22032, Note_on_c, 1, 45, 75
1, 22034, Note_on_c, 0, 71, 0
1, 22034, Note_on_c, 0, 74, 75
1, 22046, Note_on_c, 0, 74, 0
1, 22046, Note_on_c, 0, 72, 75
1, 22058, Note_on_c, 0, 72, 0
1, 22058, Note_on_c, 0, 71, 75
1, 22070, Note_on_c, 0, 71, 0
1, 22070, Note_on_c, 0, 69, 75
1, 22077, Note_on_c, 1, 45, 0
1, 22080, Note_on_c, 1, 50, 75
1, 22082, Note_on_c, 0, 69, 0
1, 22082, Note_on_c, 0, 67, 75
1, 22125, Note_on_c, 1, 50, 0
1, 22127, Note_on_c, 0, 67, 0
1, 22128, Note_on_c, 1, 38, 75
1, 22130, Note_on_c, 0, 67, 75
1, 22138, Note_on_c, 0, 67, 0
1, 22138, Note_on_c, 0, 66, 75
1, 22146, Note_on_c, 0, 66, 0
1, 22146, Note_on_c, 0, 67, 75
1, 22154, Note_on_c, 0, 67, 0
1, 22154, Note_on_c, 0, 66, 75
1, 22162, Note_on_c, 0, 66, 0
1, 22162, Note_on_c, 0, 64, 75
1, 22170, Note_on_c, 0, 64, 0
1, 22170, Note_on_c, 0, 66, 75
1, 22173, Note_on_c, 1, 38, 0
1, 22176, Note_on_c, 1, 54, 66
1, 22176, Note_on_c, 1, 50, 66
1, 22178, Note_on_c, 0, 66, 0
1, 22178, Note_on_c, 0, 76, 75
1, 22198, Note_on_c, 0, 76, 0
1, 22198, Note_on_c, 0, 74, 75
1, 22199, Note_on_c, 1, 54, 0
1, 22199, Note_on_c, 1, 50, 0
1, 22200, Note_on_c, 1, 54, 66
1, 22200, Note_on_c, 1, 50, 66
1, 22208, Note_on_c, 0, 74, 0
1, 22208, Note_on_c, 0, 76, 75
1, 22218, Note_on_c, 0, 76, 0
1, 22218, Note_on_c, 0, 74, 75
1, 22223, Note_on_c, 1, 54, 0
1, 22223, Note_on_c, 1, 50, 0
1, 22224, Note_on_c, 1, 54, 66
1, 22224, Note_on_c, 1, 50, 66
1, 22228, Note_on_c, 0, 74, 0
1, 22228, Note_on_c, 0, 76, 75
1, 22238, Note_on_c, 0, 76, 0
1, 22238, Note_on_c, 0, 74, 75
1, 22247, Note_on_c, 0, 74, 0
1, 22247, Note_on_c, 0, 76, 75
1, 22247, Note_on_c, 1, 54, 0
1, 22247, Note_on_c, 1, 50, 0
1, 22248, Note_on_c, 1, 54, 66
1, 22248, Note_on_c, 1, 50, 66
1, 22256, Note_on_c, 0, 76, 0
1, 22256, Note_on_c, 0, 74, 75
1, 22265, Note_on_c, 0, 74, 0
1, 22265, Note_on_c, 0, 76, 75
1, 22271, Note_on_c, 1, 54, 0
1, 22271, Note_on_c, 1, 50, 0
1, 22272, Note_on_c, 1, 55, 66
1, 22272, Note_on_c, 1, 50, 66
1, 22274, Note_on_c, 0, 76, 0
1, 22274, Note_on_c, 0, 74, 75
1, 22284, Note_on_c, 0, 74, 0
1, 22284, Note_on_c, 0, 73, 75
1, 22294, Note_on_c, 0, 73, 0
1, 22294, Note_on_c, 0, 74, 75
1, 22295, Note_on_c, 1, 55, 0
1, 22295, Note_on_c, 1, 50, 0
1, 22296, Note_on_c, 1, 55, 66
1, 22296, Note_on_c, 1, 50, 66
1, 22304, Note_on_c, 0, 74, 0
1, 22304, Note_on_c, 0, 73, 75
1, 22314, Note_on_c, 0, 73, 0
1, 22314, Note_on_c, 0, 74, 75
1, 22319, Note_on_c, 1, 55, 0
1, 22319, Note_on_c, 1, 50, 0
1, 22320, Note_on_c, 1, 55, 66
1, 22320, Note_on_c, 1, 50, 66
1, 22324, Note_on_c, 0, 74, 0
1, 22324, Note_on_c, 0, 73, 75
1, 22334, Note_on_c, 0, 73, 0
1, 22334, Note_on_c, 0, 74, 75
1, 22343, Note_on_c, 0, 74, 0
1, 22343, Note_on_c, 0, 73, 75
1, 22343, Note_on_c, 1, 55, 0
1, 22343, Note_on_c, 1, 50, 0
1, 22344, Note_on_c, 1, 55, 66
1, 22344, Note_on_c, 1, 50, 66
1, 22352, Note_on_c, 0, 73, 0
1, 22352, Note_on_c, 0, 74, 75
1, 22361, Note_on_c, 0, 74, 0
1, 22361, Note_on_c, 0, 73, 75
1, 22367, Note_on_c, 1, 55, 0
1, 22367, Note_on_c, 1, 50, 0
1, 22368, Note_on_c, 1, 57, 66
1, 22368, Note_on_c, 1, 50, 66
1, 22370, Note_on_c, 0, 73, 0
1, 22370, Note_on_c, 0, 74, 75
1, 22380, Note_on_c, 0, 74, 0
1, 22380, Note_on_c, 0, 72, 75
1, 22390, Note_on_c, 0, 72, 0
1, 22390, Note_on_c, 0, 74, 75
1, 22391, Note_on_c, 1, 57, 0
1, 22391, Note_on_c, 1, 50, 0
1, 22392, Note_on_c, 1, 57, 66
1, 22392, Note_on_c, 1, 50, 66
1, 22400, Note_on_c, 0, 74, 0
1, 22400, Note_on_c, 0, 72, 75
1, 22410, Note_on_c, 0, 72, 0
1, 22410, Note_on_c, 0, 74, 75
1, 22415, Note_on_c, 1, 57, 0
1, 22415, Note_on_c, 1, 50, 0
1, 22416, Note_on_c, 1, 57, 66
1, 22416, Note_on_c, 1, 50, 66
1, 22420, Note_on_c, 0, 74, 0
1, 22420, Note_on_c, 0, 72, 75
1, 22430, Note_on_c, 0, 72, 0
1, 22430, Note_on_c, 0, 74, 75
1, 22439, Note_on_c, 0, 74, 0
1, 22439, Note_on_c, 0, 72, 75
1, 22439, Note_on_c, 1, 57, 0
1, 22439, Note_on_c, 1, 50, 0
1, 22440, Note_on_c, 1, 57, 66
1, 22440, Note_on_c, 1, 50, 66
1, 22448, Note_on_c, 0, 72, 0
1, 22448, Note_on_c, 0, 74, 75
1, 22457, Note_on_c, 0, 74, 0
1, 22457, Note_on_c, 0, 72, 75
1, 22463, Note_on_c, 1, 57, 0
1, 22463, Note_on_c, 1, 50, 0
1, 22464, Note_on_c, 1, 55, 66
1, 22464, Note_on_c, 1, 50, 66
1, 22466, Note_on_c, 0, 72, 0
1, 22466, Note_on_c, 0, 71, 75
1, 22476, Note_on_c, 0, 71, 0
1, 22476, Note_on_c, 0, 72, 75
1, 22486, Note_on_c, 0, 72, 0
1, 22486, Note_on_c, 0, 71, 75
1, 22487, Note_on_c, 1, 55, 0
1, 22487, Note_on_c, 1, 50, 0
1, 22488, Note_on_c, 1, 55, 66
1, 22488, Note_on_c, 1, 50, 66
1, 22496, Note_on_c, 0, 71, 0
1, 22496, Note_on_c, 0, 72, 75
1, 22506, Note_on_c, 0, 72, 0
1, 22506, Note_on_c, 0, 71, 75
1, 22511, Note_on_c, 1, 55, 0
1, 22511, Note_on_c, 1, 50, 0
1, 22512, Note_on_c, 1, 55, 66
1, 22512, Note_on_c, 1, 50, 66
1, 22516, Note_on_c, 0, 71, 0
1, 22516, Note_on_c, 0, 72, 75
1, 22526, Note_on_c, 0, 72, 0
1, 22526, Note_on_c, 0, 71, 75
1, 22535, Note_on_c, 0, 71, 0
1, 22535, Note_on_c, 0, 72, 75
1, 22535, Note_on_c, 1, 55, 0
1, 22535, Note_on_c, 1, 50, 0
1, 22536, Note_on_c, 1, 55, 66
1, 22536, Note_on_c, 1, 50, 66
1, 22544, Note_on_c, 0, 72, 0
1, 22544, Note_on_c, 0, 71, 75
1, 22553, Note_on_c, 0, 71, 0
1, 22553, Note_on_c, 0, 72, 75
1, 22559, Note_on_c, 1, 55, 0
1, 22559, Note_on_c, 1, 50, 0
1, 22560, Note_on_c, 1, 55, 66
1, 22560, Note_on_c, 1, 49, 66
1, 22562, Note_on_c, 0, 72, 0
1, 22562, Note_on_c, 0, 70, 75
1, 22572, Note_on_c, 0, 70, 0
1, 22572, Note_on_c, 0, 72, 75
1, 22582, Note_on_c, 0, 72, 0
1, 22582, Note_on_c, 0, 70, 75
1, 22583, Note_on_c, 1, 55, 0
1, 22583, Note_on_c, 1, 49, 0
1, 22584, Note_on_c, 1, 55, 66
1, 22584, Note_on_c, 1, 49, 66
1, 22592, Note_on_c, 0, 70, 0
1, 22592, Note_on_c, 0, 72, 75
1, 22602, Note_on_c, 0, 72, 0
1, 22602, Note_on_c, 0, 70, 75
1, 22607, Note_on_c, 1, 55, 0
1, 22607, Note_on_c, 1, 49, 0
1, 22608, Note_on_c, 1, 55, 66
1, 22608, Note_on_c, 1, 49, 66
1, 22612, Note_on_c, 0, 70, 0
1, 22612, Note_on_c, 0, 72, 75
1, 22622, Note_on_c, 0, 72, 0
1, 22622, Note_on_c, 0, 70, 75
1, 22631, Note_on_c, 0, 70, 0
1, 22631, Note_on_c, 0, 72, 75
1, 22631, Note_on_c, 1, 55, 0
1, 22631, Note_on_c, 1, 49, 0
1, 22632, Note_on_c, 1, 55, 66
1, 22632, Note_on_c, 1, 49, 66
1, 22640, Note_on_c, 0, 72, 0
1, 22640, Note_on_c, 0, 69, 75
1, 22649, Note_on_c, 0, 69, 0
1, 22649, Note_on_c, 0, 70, 75
1, 22655, Note_on_c, 1, 55, 0
1, 22655, Note_on_c, 1, 49, 0
1, 22656, Note_on_c, 1, 54, 66
1, 22656, Note_on_c, 1, 50, 66
1, 22658, Note_on_c, 0, 70, 0
1, 22658, Note_on_c, 0, 69, 75
1, 22679, Note_on_c, 1, 54, 0
1, 22679, Note_on_c, 1, 50, 0
1, 22680, Note_on_c, 1, 54, 66
1, 22680, Note_on_c, 1, 50, 66
1, 22703, Note_on_c, 0, 69, 0
1, 22703, Note_on_c, 1, 54, 0
1, 22703, Note_on_c, 1, 50, 0
1, 22704, Note_on_c, 1, 54, 66
1, 22704, Note_on_c, 1, 50, 66
1, 22706, Note_on_c, 0, 74, 75
1, 22727, Note_on_c, 1, 54, 0
1, 22727, Note_on_c, 1, 50, 0
1, 22728, Note_on_c, 1, 54, 66
1, 22728, Note_on_c, 1, 50, 66
1, 22751, Note_on_c, 0, 74, 0
1, 22751, Note_on_c, 1, 54, 0
1, 22751, Note_on_c, 1, 50, 0
1, 22752, Note_on_c, 1, 55, 66
1, 22752, Note_on_c, 1, 49, 66
1, 22754, Note_on_c, 0, 72, 75
1, 22764, Note_on_c, 0, 72, 0
1, 22764, Note_on_c, 0, 70, 75
1, 22774, Note_on_c, 0, 70, 0
1, 22774, Note_on_c, 0, 72, 75
1, 22775, Note_on_c, 1, 55, 0
1, 22775, Note_on_c, 1, 49, 0
1, 22776, Note_on_c, 1, 55, 66
1, 22776, Note_on_c, 1, 49, 66
1, 22784, Note_on_c, 0, 72, 0
1, 22784, Note_on_c, 0, 70, 75
1, 22794, Note_on_c, 0, 70, 0
1, 22794, Note_on_c, 0, 72, 75
1, 22799, Note_on_c, 1, 55, 0
1, 22799, Note_on_c, 1, 49, 0
1, 22800, Note_on_c, 1, 55, 66
1, 22800, Note_on_c, 1, 49, 66
1, 22804, Note_on_c, 0, 72, 0
1, 22804, Note_on_c, 0, 70, 75
1, 22814, Note_on_c, 0, 70, 0
1, 22814, Note_on_c, 0, 72, 75
1, 22823, Note_on_c, 0, 72, 0
1, 22823, Note_on_c, 0, 70, 75
1, 22823, Note_on_c, 1, 55, 0
1, 22823, Note_on_c, 1, 49, 0
1, 22824, Note_on_c, 1, 55, 66
1, 22824, Note_on_c, 1, 49, 66
1, 22832, Note_on_c, 0, 70, 0
1, 22832, Note_on_c, 0, 69, 75
1, 22841, Note_on_c, 0, 69, 0
1, 22841, Note_on_c, 0, 70, 75
1, 22847, Note_on_c, 1, 55, 0
1, 22847, Note_on_c, 1, 49, 0
1, 22848, Note_on_c, 1, 54, 66
1, 22848, Note_on_c, 1, 50, 66
1, 22850, Note_on_c, 0, 70, 0
1, 22850, Note_on_c, 0, 69, 75
1, 22893, Note_on_c, 1, 54, 0
1, 22893, Note_on_c, 1, 50, 0
1, 22895, Note_on_c, 0, 69, 0
1, 22934, Note_on_c, 0, 67, 75
1, 22939, Note_on_c, 0, 67, 0
1, 22944, Note_on_c, 1, 47, 66
1, 22946, Note_on_c, 0, 62, 75
1, 22959, Note_on_c, 1, 47, 0
1, 22960, Note_on_c, 1, 50, 66
1, 22975, Note_on_c, 1, 50, 0
1, 22976, Note_on_c, 1, 55, 66
1, 22991, Note_on_c, 0, 62, 0
1, 22991, Note_on_c, 1, 55, 0
1, 22992, Note_on_c, 1, 48, 66
1, 22994, Note_on_c, 0, 66, 75
1, 23002, Note_on_c, 0, 66, 0
1, 23002, Note_on_c, 0, 64, 75
1, 23007, Note_on_c, 1, 48, 0
1, 23008, Note_on_c, 1, 52, 66
1, 23010, Note_on_c, 0, 64, 0
1, 23010, Note_on_c, 0, 66, 75
1, 23018, Note_on_c, 0, 66, 0
1, 23018, Note_on_c, 0, 64, 75
1, 23023, Note_on_c, 1, 52, 0
1, 23024, Note_on_c, 1, 55, 66
1, 23026, Note_on_c, 0, 64, 0
1, 23026, Note_on_c, 0, 62, 75
1, 23034, Note_on_c, 0, 62, 0
1, 23034, Note_on_c, 0, 64, 75
1, 23039, Note_on_c, 1, 55, 0
1, 23040, Note_on_c, 1, 47, 66
1, 23042, Note_on_c, 0, 64, 0
1, 23042, Note_on_c, 0, 62, 75
1, 23057, Note_on_c, 0, 62, 0
1, 23058, Note_on_c, 0, 74, 75
1, 23073, Note_on_c, 0, 74, 0
1, 23074, Note_on_c, 0, 72, 75
1, 23089, Note_on_c, 0, 72, 0
1, 23090, Note_on_c, 0, 71, 75
1, 23105, Note_on_c, 0, 71, 0
1, 23106, Note_on_c, 0, 69, 75
1, 23121, Note_on_c, 0, 69, 0
1, 23122, Note_on_c, 0, 67, 75
1, 23129, Note_on_c, 1, 47, 0
1, 23136, Note_on_c, 1, 47, 66
1, 23137, Note_on_c, 0, 67, 0
1, 23138, Note_on_c, 0, 62, 75
1, 23151, Note_on_c, 1, 47, 0
1, 23152, Note_on_c, 1, 50, 66
1, 23158, Note_on_c, 0, 62, 0
1, 23167, Note_on_c, 1, 50, 0
1, 23168, Note_on_c, 1, 55, 66
1, 23183, Note_on_c, 1, 55, 0
1, 23184, Note_on_c, 1, 48, 66
1, 23186, Note_on_c, 0, 66, 75
1, 23194, Note_on_c, 0, 66, 0
1, 23194, Note_on_c, 0, 64, 75
1, 23199, Note_on_c, 1, 48, 0
1, 23200, Note_on_c, 1, 52, 66
1, 23202, Note_on_c, 0, 64, 0
1, 23202, Note_on_c, 0, 66, 75
1, 23210, Note_on_c, 0, 66, 0
1, 23210, Note_on_c, 0, 64, 75
1, 23215, Note_on_c, 1, 52, 0
1, 23216, Note_on_c, 1, 55, 66
1, 23218, Note_on_c, 0, 64, 0
1, 23218, Note_on_c, 0, 62, 75
1, 23226, Note_on_c, 0, 62, 0
1, 23226, Note_on_c, 0, 64, 75
1, 23231, Note_on_c, 1, 55, 0
1, 23232, Note_on_c, 1, 47, 66
1, 23234, Note_on_c, 0, 64, 0
1, 23234, Note_on_c, 0, 62, 75
1, 23241, Note_on_c, 0, 62, 0
1, 23250, Note_on_c, 0, 74, 75
1, 23265, Note_on_c, 0, 74, 0
1, 23266, Note_on_c, 0, 72, 75
1, 23281, Note_on_c, 0, 72, 0
1, 23282, Note_on_c, 0, 71, 75
1, 23297, Note_on_c, 0, 71, 0
1, 23298, Note_on_c, 0, 69, 75
1, 23313, Note_on_c, 0, 69, 0
1, 23314, Note_on_c, 0, 67, 75
1, 23321, Note_on_c, 1, 47, 0
1, 23328, Note_on_c, 1, 48, 66
1, 23328, Note_on_c, 1, 36, 66
1, 23329, Note_on_c, 0, 67, 0
1, 23330, Note_on_c, 0, 64, 75
1, 23345, Note_on_c, 0, 64, 0
1, 23346, Note_on_c, 0, 76, 75
1, 23361, Note_on_c, 0, 76, 0
1, 23362, Note_on_c, 0, 74, 75
1, 23377, Note_on_c, 0, 74, 0
1, 23378, Note_on_c, 0, 72, 75
1, 23393, Note_on_c, 0, 72, 0
1, 23394, Note_on_c, 0, 71, 75
1, 23409, Note_on_c, 0, 71, 0
1, 23410, Note_on_c, 0, 69, 75
1, 23417, Note_on_c, 1, 48, 0
1, 23417, Note_on_c, 1, 36, 0
1, 23425, Note_on_c, 0, 69, 0
1, 23426, Note_on_c, 0, 71, 75
1, 23441, Note_on_c, 0, 71, 0
1, 23442, Note_on_c, 0, 72, 75
1, 23457, Note_on_c, 0, 72, 0
1, 23458, Note_on_c, 0, 74, 75
1, 23472, Note_on_c, 1, 52, 66
1, 23472, Note_on_c, 1, 40, 66
1, 23473, Note_on_c, 0, 74, 0
1, 23474, Note_on_c, 0, 67, 75
1, 23489, Note_on_c, 0, 67, 0
1, 23490, Note_on_c, 0, 72, 75
1, 23505, Note_on_c, 0, 72, 0
1, 23506, Note_on_c, 0, 69, 75
1, 23517, Note_on_c, 1, 52, 0
1, 23517, Note_on_c, 1, 40, 0
1, 23520, Note_on_c, 1, 48, 66
1, 23520, Note_on_c, 1, 36, 66
1, 23521, Note_on_c, 0, 69, 0
1, 23522, Note_on_c, 0, 71, 75
1, 23532, Note_on_c, 0, 71, 0
1, 23532, Note_on_c, 0, 69, 75
1, 23542, Note_on_c, 0, 69, 0
1, 23542, Note_on_c, 0, 71, 75
1, 23552, Note_on_c, 0, 71, 0
1, 23552, Note_on_c, 0, 69, 75
1, 23562, Note_on_c, 0, 69, 0
1, 23562, Note_on_c, 0, 71, 75
1, 23565, Note_on_c, 1, 48, 0
1, 23565, Note_on_c, 1, 36, 0
1, 23568, Note_on_c, 1, 50, 66
1, 23568, Note_on_c, 1, 38, 66
1, 23572, Note_on_c, 0, 71, 0
1, 23572, Note_on_c, 0, 69, 75
1, 23582, Note_on_c, 0, 69, 0
1, 23582, Note_on_c, 0, 71, 75
1, 23591, Note_on_c, 0, 71, 0
1, 23591, Note_on_c, 0, 69, 75
1, 23600, Note_on_c, 0, 69, 0
1, 23600, Note_on_c, 0, 67, 75
1, 23609, Note_on_c, 0, 67, 0
1, 23609, Note_on_c, 0, 69, 75
1, 23613, Note_on_c, 1, 50, 0
1, 23613, Note_on_c, 1, 38, 0
1, 23616, Note_on_c, 1, 43, 66
1, 23618, Note_on_c, 0, 69, 0
1, 23618, Note_on_c, 0, 67, 75
1, 23661, Note_on_c, 1, 43, 0
1, 23664, Note_on_c, 1, 31, 66
1, 23707, Note_on_c, 0, 67, 0
1, 23709, Note_on_c, 1, 31, 0
1, 23712, Note_on_c, 1, 54, 66
1, 23714, Note_on_c, 0, 86, 70
1, 23727, Note_on_c, 1, 54, 0
1, 23728, Note_on_c, 1, 57, 66
1, 23743, Note_on_c, 1, 57, 0
1, 23744, Note_on_c, 1, 62, 66
1, 23759, Note_on_c, 1, 62, 0
1, 23760, Note_on_c, 1, 54, 66
1, 23775, Note_on_c, 1, 54, 0
1, 23776, Note_on_c, 1, 57, 66
1, 23781, Note_on_c, 0, 86, 0
1, 23786, Note_on_c, 0, 84, 70
1, 23791, Note_on_c, 1, 57, 0
1, 23792, Note_on_c, 1, 62, 66
1, 23794, Note_on_c, 0, 84, 0
1, 23794, Note_on_c, 0, 82, 70
1, 23802, Note_on_c, 0, 82, 0
1, 23802, Note_on_c, 0, 81, 70
1, 23807, Note_on_c, 1, 62, 0
1, 23808, Note_on_c, 1, 55, 66
1, 23810, Note_on_c, 0, 81, 0
1, 23810, Note_on_c, 0, 84, 70
1, 23818, Note_on_c, 0, 84, 0
1, 23818, Note_on_c, 0, 82, 70
1, 23823, Note_on_c, 1, 55, 0
1, 23824, Note_on_c, 1, 58, 66
1, 23826, Note_on_c, 0, 82, 0
1, 23826, Note_on_c, 0, 84, 70
1, 23834, Note_on_c, 0, 84, 0
1, 23834, Note_on_c, 0, 82, 70
1, 23839, Note_on_c, 1, 58, 0
1, 23840, Note_on_c, 1, 62, 66
1, 23842, Note_on_c, 0, 82, 0
1, 23842, Note_on_c, 0, 81, 70
1, 23850, Note_on_c, 0, 81, 0
1, 23850, Note_on_c, 0, 82, 70
1, 23855, Note_on_c, 1, 62, 0
1, 23856, Note_on_c, 1, 54, 66
1, 23858, Note_on_c, 0, 82, 0
1, 23858, Note_on_c, 0, 81, 70
1, 23871, Note_on_c, 1, 54, 0
1, 23872, Note_on_c, 1, 57, 66
1, 23887, Note_on_c, 1, 57, 0
1, 23888, Note_on_c, 1, 62, 66
1, 23903, Note_on_c, 0, 81, 0
1, 23903, Note_on_c, 1, 62, 0
1, 23904, Note_on_c, 1, 54, 66
1, 23906, Note_on_c, 0, 86, 66
1, 23919, Note_on_c, 1, 54, 0
1, 23920, Note_on_c, 1, 57, 66
1, 23935, Note_on_c, 1, 57, 0
1, 23936, Note_on_c, 1, 62, 66
1, 23951, Note_on_c, 1, 62, 0
1, 23952, Note_on_c, 1, 54, 66
1, 23967, Note_on_c, 1, 54, 0
1, 23968, Note_on_c, 1, 57, 66
1, 23973, Note_on_c, 0, 86, 0
1, 23978, Note_on_c, 0, 84, 66
1, 23983, Note_on_c, 1, 57, 0
1, 23984, Note_on_c, 1, 62, 66
1, 23986, Note_on_c, 0, 84, 0
1, 23986, Note_on_c, 0, 82, 66
1, 23994, Note_on_c, 0, 82, 0
1, 23994, Note_on_c, 0, 81, 66
1, 23999, Note_on_c, 1, 62, 0
1, 24000, Note_on_c, 1, 55, 66
1, 24002, Note_on_c, 0, 81, 0
1, 24002, Note_on_c, 0, 84, 66
1, 24010, Note_on_c, 0, 84, 0
1, 24010, Note_on_c, 0, 82, 66
1, 24015, Note_on_c, 1, 55, 0
1, 24016, Note_on_c, 1, 58, 66
1, 24018, Note_on_c, 0, 82, 0
1, 24018, Note_on_c, 0, 84, 66
1, 24026, Note_on_c, 0, 84, 0
1, 24026, Note_on_c, 0, 82, 66
1, 24031, Note_on_c, 1, 58, 0
1, 24032, Note_on_c, 1, 62, 66
1, 24034, Note_on_c, 0, 82, 0
1, 24034, Note_on_c, 0, 81, 66
1, 24042, Note_on_c, 0, 81, 0
1, 24042, Note_on_c, 0, 82, 66
1, 24047, Note_on_c, 1, 62, 0
1, 24048, Note_on_c, 1, 54, 66
1, 24050, Note_on_c, 0, 82, 0
1, 24050, Note_on_c, 0, 81, 66
1, 24063, Note_on_c, 1, 54, 0
1, 24064, Note_on_c, 1, 57, 66
1, 24079, Note_on_c, 1, 57, 0
1, 24080, Note_on_c, 1, 62, 66
1, 24095, Note_on_c, 0, 81, 0
1, 24095, Note_on_c, 1, 62, 0
1, 24096, Note_on_c, 1, 54, 66
1, 24098, Note_on_c, 0, 86, 70
1, 24111, Note_on_c, 1, 54, 0
1, 24112, Note_on_c, 1, 57, 66
1, 24127, Note_on_c, 1, 57, 0
1, 24128, Note_on_c, 1, 62, 66
1, 24143, Note_on_c, 1, 62, 0
1, 24144, Note_on_c, 1, 54, 66
1, 24159, Note_on_c, 1, 54, 0
1, 24160, Note_on_c, 1, 57, 66
1, 24165, Note_on_c, 0, 86, 0
1, 24170, Note_on_c, 0, 84, 70
1, 24175, Note_on_c, 1, 57, 0
1, 24176, Note_on_c, 1, 62, 66
1, 24178, Note_on_c, 0, 84, 0
1, 24178, Note_on_c, 0, 82, 70
1, 24186, Note_on_c, 0, 82, 0
1, 24186, Note_on_c, 0, 81, 70
1, 24191, Note_on_c, 1, 62, 0
1, 24192, Note_on_c, 1, 55, 66
1, 24194, Note_on_c, 0, 81, 0
1, 24194, Note_on_c, 0, 82, 70
1, 24207, Note_on_c, 1, 55, 0
1, 24208, Note_on_c, 1, 58, 66
1, 24223, Note_on_c, 1, 58, 0
1, 24224, Note_on_c, 1, 62, 66
1, 24239, Note_on_c, 0, 82, 0
1, 24239, Note_on_c, 1, 62, 0
1, 24240, Note_on_c, 1, 55, 66
1, 24242, Note_on_c, 0, 79, 70
1, 24255, Note_on_c, 1, 55, 0
1, 24256, Note_on_c, 1, 58, 66
1, 24271, Note_on_c, 1, 58, 0
1, 24272, Note_on_c, 1, 62, 66
1, 24276, Note_on_c, 0, 79, 0
1, 24278, Note_on_c, 0, 81, 70
1, 24287, Note_on_c, 1, 62, 0
1, 24288, Note_on_c, 1, 55, 66
1, 24290, Note_on_c, 0, 81, 0
1, 24290, Note_on_c, 0, 82, 70
1, 24303, Note_on_c, 1, 55, 0
1, 24304, Note_on_c, 1, 58, 66
1, 24319, Note_on_c, 1, 58, 0
1, 24320, Note_on_c, 1, 62, 66
1, 24324, Note_on_c, 0, 82, 0
1, 24326, Note_on_c, 0, 81, 70
1, 24335, Note_on_c, 1, 62, 0
1, 24336, Note_on_c, 1, 55, 66
1, 24338, Note_on_c, 0, 81, 0
1, 24338, Note_on_c, 0, 82, 70
1, 24351, Note_on_c, 1, 55, 0
1, 24352, Note_on_c, 1, 58, 66
1, 24367, Note_on_c, 1, 58, 0
1, 24368, Note_on_c, 1, 62, 66
1, 24372, Note_on_c, 0, 82, 0
1, 24374, Note_on_c, 0, 84, 70
1, 24383, Note_on_c, 1, 62, 0
1, 24384, Note_on_c, 1, 50, 66
1, 24386, Note_on_c, 0, 84, 0
1, 24386, Note_on_c, 0, 86, 70
1, 24429, Note_on_c, 1, 50, 0
1, 24431, Note_on_c, 0, 86, 0
1, 24470, Note_on_c, 0, 67, 70
1, 24475, Note_on_c, 0, 67, 0
1, 24480, Note_on_c, 1, 47, 75
1, 24482, Note_on_c, 0, 62, 75
1, 24495, Note_on_c, 1, 47, 0
1, 24496, Note_on_c, 1, 50, 75
1, 24511, Note_on_c, 1, 50, 0
1, 24512, Note_on_c, 1, 55, 75
1, 24527, Note_on_c, 0, 62, 0
1, 24527, Note_on_c, 1, 55, 0
1, 24528, Note_on_c, 1, 48, 75
1, 24530, Note_on_c, 0, 66, 75
1, 24538, Note_on_c, 0, 66, 0
1, 24538, Note_on_c, 0, 64, 75
1, 24543, Note_on_c, 1, 48, 0
1, 24544, Note_on_c, 1, 52, 75
1, 24546, Note_on_c, 0, 64, 0
1, 24546, Note_on_c, 0, 66, 75
1, 24554, Note_on_c, 0, 66, 0
1, 24554, Note_on_c, 0, 64, 75
1, 24559, Note_on_c, 1, 52, 0
1, 24560, Note_on_c, 1, 55, 75
1, 24562, Note_on_c, 0, 64, 0
1, 24562, Note_on_c, 0, 62, 75
1, 24570, Note_on_c, 0, 62, 0
1, 24570, Note_on_c, 0, 64, 75
1, 24575, Note_on_c, 1, 55, 0
1, 24576, Note_on_c, 1, 47, 75
1, 24578, Note_on_c, 0, 64, 0
1, 24578, Note_on_c, 0, 62, 75
1, 24593, Note_on_c, 0, 62, 0
1, 24594, Note_on_c, 0, 74, 75
1, 24609, Note_on_c, 0, 74, 0
1, 24610, Note_on_c, 0, 72, 75
1, 24625, Note_on_c, 0, 72, 0
1, 24626, Note_on_c, 0, 71, 75
1, 24641, Note_on_c, 0, 71, 0
1, 24642, Note_on_c, 0, 69, 75
1, 24657, Note_on_c, 0, 69, 0
1, 24658, Note_on_c, 0, 67, 75
1, 24665, Note_on_c, 1, 47, 0
1, 24672, Note_on_c, 1, 47, 75
1, 24673, Note_on_c, 0, 67, 0
1, 24674, Note_on_c, 0, 62, 75
1, 24687, Note_on_c, 1, 47, 0
1, 24688, Note_on_c, 1, 50, 75
1, 24694, Note_on_c, 0, 62, 0
1, 24703, Note_on_c, 1, 50, 0
1, 24704, Note_on_c, 1, 55, 75
1, 24719, Note_on_c, 1, 55, 0
1, 24720, Note_on_c, 1, 48, 75
1, 24722, Note_on_c, 0, 66, 75
1, 24730, Note_on_c, 0, 66, 0
1, 24730, Note_on_c, 0, 64, 75
1, 24735, Note_on_c, 1, 48, 0
1, 24736, Note_on_c, 1, 52, 75
1, 24738, Note_on_c, 0, 64, 0
1, 24738, Note_on_c, 0, 66, 75
1, 24746, Note_on_c, 0, 66, 0
1, 24746, Note_on_c, 0, 64, 75
1, 24751, Note_on_c, 1, 52, 0
1, 24752, Note_on_c, 1, 55, 75
1, 24754, Note_on_c, 0, 64, 0
1, 24754, Note_on_c, 0, 62, 75
1, 24762, Note_on_c, 0, 62, 0
1, 24762, Note_on_c, 0, 64, 75
1, 24767, Note_on_c, 1, 55, 0
1, 24768, Note_on_c, 1, 47, 75
1, 24770, Note_on_c, 0, 64, 0
1, 24770, Note_on_c, 0, 62, 75
1, 24777, Note_on_c, 0, 62, 0
1, 24786, Note_on_c, 0, 74, 75
1, 24801, Note_on_c, 0, 74, 0
1, 24802, Note_on_c, 0, 72, 75
1, 24817, Note_on_c, 0, 72, 0
1, 24818, Note_on_c, 0, 71, 75
1, 24833, Note_on_c, 0, 71, 0
1, 24834, Note_on_c, 0, 69, 75
1, 24849, Note_on_c, 0, 69, 0
1, 24850, Note_on_c, 0, 67, 75
1, 24857, Note_on_c, 1, 47, 0
1, 24864, Note_on_c, 1, 48, 75
1, 24864, Note_on_c, 1, 36, 75
1, 24865, Note_on_c, 0, 67, 0
1, 24866, Note_on_c, 0, 64, 75
1, 24881, Note_on_c, 0, 64, 0
1, 24882, Note_on_c, 0, 76, 75
1, 24897, Note_on_c, 0, 76, 0
1, 24898, Note_on_c, 0, 74, 75
1, 24913, Note_on_c, 0, 74, 0
1, 24914, Note_on_c, 0, 72, 75
1, 24929, Note_on_c, 0, 72, 0
1, 24930, Note_on_c, 0, 71, 75
1, 24945, Note_on_c, 0, 71, 0
1, 24946, Note_on_c, 0, 69, 75
1, 24953, Note_on_c, 1, 48, 0
1, 24953, Note_on_c, 1, 36, 0
1, 24961, Note_on_c, 0, 69, 0
1, 24962, Note_on_c, 0, 71, 75
1, 24977, Note_on_c, 0, 71, 0
1, 24978, Note_on_c, 0, 72, 75
1, 24993, Note_on_c, 0, 72, 0
1, 24994, Note_on_c, 0, 74, 75
1, 25008, Note_on_c, 1, 52, 75
1, 25008, Note_on_c, 1, 40, 75
1, 25009, Note_on_c, 0, 74, 0
1, 25010, Note_on_c, 0, 67, 75
1, 25025, Note_on_c, 0, 67, 0
1, 25026, Note_on_c, 0, 72, 75
1, 25041, Note_on_c, 0, 72, 0
1, 25042, Note_on_c, 0, 69, 75
1, 25053, Note_on_c, 1, 52, 0
1, 25053, Note_on_c, 1, 40, 0
1, 25056, Note_on_c, 1, 48, 75
1, 25056, Note_on_c, 1, 36, 75
1, 25057, Note_on_c, 0, 69, 0
1, 25058, Note_on_c, 0, 71, 75
1, 25068, Note_on_c, 0, 71, 0
1, 25068, Note_on_c, 0, 69, 75
1, 25078, Note_on_c, 0, 69, 0
1, 25078, Note_on_c, 0, 71, 75
1, 25088, Note_on_c, 0, 71, 0
1, 25088, Note_on_c, 0, 69, 75
1, 25098, Note_on_c, 0, 69, 0
1, 25098, Note_on_c, 0, 71, 75
1, 25101, Note_on_c, 1, 48, 0
1, 25101, Note_on_c, 1, 36, 0
1, 25104, Note_on_c, 1, 50, 75
1, 25104, Note_on_c, 1, 38, 75
1, 25108, Note_on_c, 0, 71, 0
1, 25108, Note_on_c, 0, 69, 75
1, 25118, Note_on_c, 0, 69, 0
1, 25118, Note_on_c, 0, 71, 75
1, 25127, Note_on_c, 0, 71, 0
1, 25127, Note_on_c, 0, 69, 75
1, 25136, Note_on_c, 0, 69, 0
1, 25136, Note_on_c, 0, 67, 75
1, 25145, Note_on_c, 0, 67, 0
1, 25145, Note_on_c, 0, 69, 75
1, 25149, Note_on_c, 1, 50, 0
1, 25149, Note_on_c, 1, 38, 0
1, 25152, Note_on_c, 1, 43, 75
1, 25154, Note_on_c, 0, 69, 0
1, 25154, Note_on_c, 0, 67, 75
1, 25197, Note_on_c, 1, 43, 0
1, 25200, Note_on_c, 1, 38, 75
1, 25243, Note_on_c, 0, 67, 0
1, 25245, Note_on_c, 1, 38, 0
1, 25248, Note_on_c, 1, 31, 75
1, 25293, Note_on_c, 1, 31, 0
1, 25298, Note_on_c, 0, 81, 75
1, 25313, Note_on_c, 0, 81, 0
1, 25314, Note_on_c, 0, 78, 75
1, 25329, Note_on_c, 0, 78, 0
1, 25330, Note_on_c, 0, 74, 75
1, 25345, Note_on_c, 0, 74, 0
1, 25346, Note_on_c, 0, 86, 75
1, 25391, Note_on_c, 0, 86, 0
1, 25392, Note_on_c, 1, 62, 75
1, 25394, Note_on_c, 0, 81, 75
1, 25437, Note_on_c, 1, 62, 0
1, 25439, Note_on_c, 0, 81, 0
1, 25440, Note_on_c, 1, 66, 75
1, 25442, Note_on_c, 0, 81, 75
1, 25485, Note_on_c, 1, 66, 0
1, 25487, Note_on_c, 0, 81, 0
1, 25488, Note_on_c, 1, 62, 75
1, 25490, Note_on_c, 0, 81, 75
1, 25533, Note_on_c, 1, 62, 0
1, 25535, Note_on_c, 0, 81, 0
1, 25536, Note_on_c, 1, 64, 75
1, 25538, Note_on_c, 0, 79, 75
1, 25550, Note_on_c, 0, 79, 0
1, 25550, Note_on_c, 0, 78, 75
1, 25562, Note_on_c, 0, 78, 0
1, 25562, Note_on_c, 0, 79, 75
1, 25574, Note_on_c, 0, 79, 0
1, 25574, Note_on_c, 0, 81, 75
1, 25586, Note_on_c, 0, 81, 0
1, 25586, Note_on_c, 0, 83, 75
1, 25603, Note_on_c, 1, 64, 0
1, 25608, Note_on_c, 1, 67, 75
1, 25631, Note_on_c, 1, 67, 0
1, 25632, Note_on_c, 1, 61, 75
1, 25677, Note_on_c, 1, 61, 0
1, 25679, Note_on_c, 0, 83, 0
1, 25680, Note_on_c, 1, 73, 75
1, 25682, Note_on_c, 0, 76, 75
1, 25705, Note_on_c, 0, 76, 0
1, 25706, Note_on_c, 0, 79, 75
1, 25725, Note_on_c, 1, 73, 0
1, 25728, Note_on_c, 1, 74, 75
1, 25729, Note_on_c, 0, 79, 0
1, 25730, Note_on_c, 0, 79, 75
1, 25753, Note_on_c, 0, 79, 0
1, 25754, Note_on_c, 0, 78, 75
1, 25773, Note_on_c, 1, 74, 0
1, 25776, Note_on_c, 1, 67, 75
1, 25777, Note_on_c, 0, 78, 0
1, 25778, Note_on_c, 0, 83, 76
1, 25799, Note_on_c, 1, 67, 0
1, 25800, Note_on_c, 1, 69, 75
1, 25801, Note_on_c, 0, 83, 0
1, 25802, Note_on_c, 0, 81, 77
1, 25823, Note_on_c, 1, 69, 0
1, 25824, Note_on_c, 1, 71, 75
1, 25825, Note_on_c, 0, 81, 0
1, 25826, Note_on_c, 0, 79, 78
1, 25849, Note_on_c, 0, 79, 0
1, 25850, Note_on_c, 0, 78, 78
1, 25869, Note_on_c, 1, 71, 0
1, 25872, Note_on_c, 1, 67, 75
1, 25873, Note_on_c, 0, 78, 0
1, 25874, Note_on_c, 0, 76, 79
1, 25897, Note_on_c, 0, 76, 0
1, 25898, Note_on_c, 0, 74, 80
1, 25917, Note_on_c, 1, 67, 0
1, 25920, Note_on_c, 1, 69, 75
1, 25921, Note_on_c, 0, 74, 0
1, 25922, Note_on_c, 0, 73, 81
1, 25937, Note_on_c, 0, 73, 0
1, 25938, Note_on_c, 0, 74, 80
1, 25953, Note_on_c, 0, 74, 0
1, 25954, Note_on_c, 0, 76, 80
1, 25965, Note_on_c, 1, 69, 0
1, 25968, Note_on_c, 1, 62, 75
1, 25969, Note_on_c, 0, 76, 0
1, 25970, Note_on_c, 0, 74, 79
1, 26013, Note_on_c, 1, 62, 0
1, 26015, Note_on_c, 0, 74, 0
1, 26066, Note_on_c, 0, 74, 76
1, 26081, Note_on_c, 0, 74, 0
1, 26082, Note_on_c, 0, 71, 76
1, 26097, Note_on_c, 0, 71, 0
1, 26098, Note_on_c, 0, 67, 76
1, 26112, Note_on_c, 1, 55, 70
1, 26113, Note_on_c, 0, 67, 0
1, 26114, Note_on_c, 0, 79, 75
1, 26127, Note_on_c, 1, 55, 0
1, 26128, Note_on_c, 1, 59, 70
1, 26143, Note_on_c, 1, 59, 0
1, 26144, Note_on_c, 1, 62, 70
1, 26159, Note_on_c, 0, 79, 0
1, 26159, Note_on_c, 1, 62, 0
1, 26160, Note_on_c, 1, 55, 70
1, 26162, Note_on_c, 0, 79, 76
1, 26175, Note_on_c, 1, 55, 0
1, 26176, Note_on_c, 1, 59, 70
1, 26191, Note_on_c, 1, 59, 0
1, 26192, Note_on_c, 1, 62, 70
1, 26207, Note_on_c, 0, 79, 0
1, 26207, Note_on_c, 1, 62, 0
1, 26208, Note_on_c, 1, 55, 70
1, 26210, Note_on_c, 0, 79, 77
1, 26223, Note_on_c, 1, 55, 0
1, 26224, Note_on_c, 1, 59, 70
1, 26239, Note_on_c, 1, 59, 0
1, 26240, Note_on_c, 1, 62, 70
1, 26255, Note_on_c, 0, 79, 0
1, 26255, Note_on_c, 1, 62, 0
1, 26256, Note_on_c, 1, 55, 70
1, 26258, Note_on_c, 0, 79, 79
1, 26271, Note_on_c, 1, 55, 0
1, 26272, Note_on_c, 1, 59, 70
1, 26287, Note_on_c, 1, 59, 0
1, 26288, Note_on_c, 1, 62, 70
1, 26303, Note_on_c, 0, 79, 0
1, 26303, Note_on_c, 1, 62, 0
1, 26304, Note_on_c, 1, 56, 70
1, 26306, Note_on_c, 0, 79, 80
1, 26316, Note_on_c, 0, 79, 0
1, 26316, Note_on_c, 0, 77, 80
1, 26319, Note_on_c, 1, 56, 0
1, 26320, Note_on_c, 1, 59, 70
1, 26326, Note_on_c, 0, 77, 0
1, 26326, Note_on_c, 0, 79, 80
1, 26335, Note_on_c, 1, 59, 0
1, 26336, Note_on_c, 0, 79, 0
1, 26336, Note_on_c, 0, 77, 80
1, 26336, Note_on_c, 1, 62, 70
1, 26346, Note_on_c, 0, 77, 0
1, 26346, Note_on_c, 0, 79, 81
1, 26351, Note_on_c, 1, 62, 0
1, 26352, Note_on_c, 1, 56, 70
1, 26356, Note_on_c, 0, 79, 0
1, 26356, Note_on_c, 0, 77, 80
1, 26366, Note_on_c, 0, 77, 0
1, 26366, Note_on_c, 0, 79, 80
1, 26367, Note_on_c, 1, 56, 0
1, 26368, Note_on_c, 1, 59, 70
1, 26376, Note_on_c, 0, 79, 0
1, 26376, Note_on_c, 0, 77, 80
1, 26383, Note_on_c, 1, 59, 0
1, 26384, Note_on_c, 1, 62, 70
1, 26386, Note_on_c, 0, 77, 0
1, 26386, Note_on_c, 0, 79, 80
1, 26396, Note_on_c, 0, 79, 0
1, 26396, Note_on_c, 0, 77, 79
1, 26399, Note_on_c, 1, 62, 0
1, 26400, Note_on_c, 1, 56, 70
1, 26406, Note_on_c, 0, 77, 0
1, 26406, Note_on_c, 0, 79, 79
1, 26415, Note_on_c, 1, 56, 0
1, 26416, Note_on_c, 0, 79, 0
1, 26416, Note_on_c, 0, 77, 79
1, 26416, Note_on_c, 1, 59, 70
1, 26426, Note_on_c, 0, 77, 0
1, 26426, Note_on_c, 0, 79, 79
1, 26431, Note_on_c, 1, 59, 0
1, 26432, Note_on_c, 1, 62, 70
1, 26435, Note_on_c, 0, 79, 0
1, 26435, Note_on_c, 0, 77, 79
1, 26444, Note_on_c, 0, 77, 0
1, 26444, Note_on_c, 0, 79, 78
1, 26447, Note_on_c, 1, 62, 0
1, 26448, Note_on_c, 1, 56, 70
1, 26453, Note_on_c, 0, 79, 0
1, 26453, Note_on_c, 0, 77, 78
1, 26462, Note_on_c, 0, 77, 0
1, 26462, Note_on_c, 0, 79, 78
1, 26463, Note_on_c, 1, 56, 0
1, 26464, Note_on_c, 1, 59, 70
1, 26471, Note_on_c, 0, 79, 0
1, 26471, Note_on_c, 0, 77, 78
1, 26479, Note_on_c, 1, 59, 0
1, 26480, Note_on_c, 0, 77, 0
1, 26480, Note_on_c, 0, 76, 78
1, 26480, Note_on_c, 1, 62, 70
1, 26489, Note_on_c, 0, 76, 0
1, 26489, Note_on_c, 0, 74, 77
1, 26495, Note_on_c, 1, 62, 0
1, 26496, Note_on_c, 1, 57, 81
1, 26498, Note_on_c, 0, 74, 0
1, 26498, Note_on_c, 0, 72, 75
1, 26541, Note_on_c, 1, 57, 0
1, 26543, Note_on_c, 0, 72, 0
1, 26544, Note_on_c, 1, 60, 81
1, 26544, Note_on_c, 1, 48, 81
1, 26570, Note_on_c, 0, 64, 75
1, 26589, Note_on_c, 1, 60, 0
1, 26589, Note_on_c, 1, 48, 0
1, 26592, Note_on_c, 1, 62, 81
1, 26592, Note_on_c, 1, 50, 81
1, 26593, Note_on_c, 0, 64, 0
1, 26618, Note_on_c, 0, 66, 75
1, 26637, Note_on_c, 1, 62, 0
1, 26637, Note_on_c, 1, 50, 0
1, 26640, Note_on_c, 1, 64, 81
1, 26640, Note_on_c, 1, 52, 81
1, 26641, Note_on_c, 0, 66, 0
1, 26666, Note_on_c, 0, 68, 75
1, 26685, Note_on_c, 1, 64, 0
1, 26685, Note_on_c, 1, 52, 0
1, 26688, Note_on_c, 1, 57, 70
1, 26689, Note_on_c, 0, 68, 0
1, 26690, Note_on_c, 0, 69, 75
1, 26703, Note_on_c, 1, 57, 0
1, 26704, Note_on_c, 1, 60, 70
1, 26719, Note_on_c, 1, 60, 0
1, 26720, Note_on_c, 1, 64, 70
1, 26735, Note_on_c, 0, 69, 0
1, 26735, Note_on_c, 1, 64, 0
1, 26736, Note_on_c, 1, 57, 70
1, 26738, Note_on_c, 0, 72, 75
1, 26751, Note_on_c, 1, 57, 0
1, 26752, Note_on_c, 1, 60, 70
1, 26767, Note_on_c, 1, 60, 0
1, 26768, Note_on_c, 1, 64, 70
1, 26783, Note_on_c, 0, 72, 0
1, 26783, Note_on_c, 1, 64, 0
1, 26784, Note_on_c, 1, 55, 70
1, 26786, Note_on_c, 0, 72, 75
1, 26799, Note_on_c, 1, 55, 0
1, 26800, Note_on_c, 1, 60, 70
1, 26815, Note_on_c, 1, 60, 0
1, 26816, Note_on_c, 1, 64, 70
1, 26831, Note_on_c, 0, 72, 0
1, 26831, Note_on_c, 1, 64, 0
1, 26832, Note_on_c, 1, 55, 70
1, 26834, Note_on_c, 0, 72, 75
1, 26847, Note_on_c, 1, 55, 0
1, 26848, Note_on_c, 1, 60, 70
1, 26863, Note_on_c, 1, 60, 0
1, 26864, Note_on_c, 1, 64, 70
1, 26879, Note_on_c, 0, 72, 0
1, 26879, Note_on_c, 1, 64, 0
1, 26880, Note_on_c, 1, 54, 70
1, 26882, Note_on_c, 0, 74, 75
1, 26892, Note_on_c, 0, 74, 0
1, 26892, Note_on_c, 0, 72, 75
1, 26895, Note_on_c, 1, 54, 0
1, 26896, Note_on_c, 1, 57, 70
1, 26902, Note_on_c, 0, 72, 0
1, 26902, Note_on_c, 0, 74, 75
1, 26911, Note_on_c, 1, 57, 0
1, 26912, Note_on_c, 0, 74, 0
1, 26912, Note_on_c, 0, 72, 75
1, 26912, Note_on_c, 1, 62, 70
1, 26922, Note_on_c, 0, 72, 0
1, 26922, Note_on_c, 0, 74, 75
1, 26927, Note_on_c, 1, 62, 0
1, 26928, Note_on_c, 1, 54, 70
1, 26932, Note_on_c, 0, 74, 0
1, 26932, Note_on_c, 0, 72, 75
1, 26942, Note_on_c, 0, 72, 0
1, 26942, Note_on_c, 0, 74, 75
1, 26943, Note_on_c, 1, 54, 0
1, 26944, Note_on_c, 1, 57, 70
1, 26951, Note_on_c, 0, 74, 0
1, 26951, Note_on_c, 0, 72, 75
1, 26959, Note_on_c, 1, 57, 0
1, 26960, Note_on_c, 0, 72, 0
1, 26960, Note_on_c, 0, 71, 75
1, 26960, Note_on_c, 1, 62, 70
1, 26969, Note_on_c, 0, 71, 0
1, 26969, Note_on_c, 0, 72, 75
1, 26975, Note_on_c, 1, 62, 0
1, 26976, Note_on_c, 1, 54, 70
1, 26978, Note_on_c, 0, 72, 0
1, 26978, Note_on_c, 0, 81, 75
1, 26991, Note_on_c, 1, 54, 0
1, 26992, Note_on_c, 1, 57, 70
1, 27007, Note_on_c, 1, 57, 0
1, 27008, Note_on_c, 1, 62, 70
1, 27023, Note_on_c, 0, 81, 0
1, 27023, Note_on_c, 1, 62, 0
1, 27024, Note_on_c, 1, 54, 70
1, 27026, Note_on_c, 0, 72, 75
1, 27039, Note_on_c, 1, 54, 0
1, 27040, Note_on_c, 1, 57, 70
1, 27055, Note_on_c, 1, 57, 0
1, 27056, Note_on_c, 1, 62, 70
1, 27071, Note_on_c, 0, 72, 0
1, 27071, Note_on_c, 1, 62, 0
1, 27072, Note_on_c, 1, 55, 70
1, 27074, Note_on_c, 0, 72, 75
1, 27084, Note_on_c, 0, 72, 0
1, 27084, Note_on_c, 0, 71, 75
1, 27087, Note_on_c, 1, 55, 0
1, 27088, Note_on_c, 1, 59, 70
1, 27094, Note_on_c, 0, 71, 0
1, 27094, Note_on_c, 0, 72, 75
1, 27103, Note_on_c, 1, 59, 0
1, 27104, Note_on_c, 0, 72, 0
1, 27104, Note_on_c, 0, 71, 75
1, 27104, Note_on_c, 1, 62, 70
1, 27114, Note_on_c, 0, 71, 0
1, 27114, Note_on_c, 0, 72, 75
1, 27119, Note_on_c, 1, 62, 0
1, 27120, Note_on_c, 1, 55, 70
1, 27124, Note_on_c, 0, 72, 0
1, 27124, Note_on_c, 0, 71, 75
1, 27134, Note_on_c, 0, 71, 0
1, 27134, Note_on_c, 0, 72, 75
1, 27135, Note_on_c, 1, 55, 0
1, 27136, Note_on_c, 1, 59, 70
1, 27143, Note_on_c, 0, 72, 0
1, 27143, Note_on_c, 0, 71, 75
1, 27151, Note_on_c, 1, 59, 0
1, 27152, Note_on_c, 0, 71, 0
1, 27152, Note_on_c, 0, 69, 75
1, 27152, Note_on_c, 1, 62, 70
1, 27161, Note_on_c, 0, 69, 0
1, 27161, Note_on_c, 0, 71, 75
1, 27167, Note_on_c, 1, 62, 0
1, 27168, Note_on_c, 1, 52, 70
1, 27170, Note_on_c, 0, 71, 0
1, 27170, Note_on_c, 0, 79, 75
1, 27183, Note_on_c, 1, 52, 0
1, 27184, Note_on_c, 1, 55, 70
1, 27199, Note_on_c, 1, 55, 0
1, 27200, Note_on_c, 1, 60, 70
1, 27215, Note_on_c, 0, 79, 0
1, 27215, Note_on_c, 1, 60, 0
1, 27216, Note_on_c, 1, 52, 70
1, 27218, Note_on_c, 0, 71, 75
1, 27231, Note_on_c, 1, 52, 0
1, 27232, Note_on_c, 1, 55, 70
1, 27247, Note_on_c, 1, 55, 0
1, 27248, Note_on_c, 1, 60, 70
1, 27263, Note_on_c, 0, 71, 0
1, 27263, Note_on_c, 1, 60, 0
1, 27264, Note_on_c, 1, 54, 70
1, 27266, Note_on_c, 0, 71, 75
1, 27276, Note_on_c, 0, 71, 0
1, 27276, Note_on_c, 0, 69, 75
1, 27279, Note_on_c, 1, 54, 0
1, 27280, Note_on_c, 1, 57, 70
1, 27286, Note_on_c, 0, 69, 0
1, 27286, Note_on_c, 0, 71, 75
1, 27295, Note_on_c, 1, 57, 0
1, 27296, Note_on_c, 0, 71, 0
1, 27296, Note_on_c, 0, 69, 75
1, 27296, Note_on_c, 1, 60, 70
1, 27306, Note_on_c, 0, 69, 0
1, 27306, Note_on_c, 0, 71, 75
1, 27311, Note_on_c, 1, 60, 0
1, 27312, Note_on_c, 1, 54, 70
1, 27316, Note_on_c, 0, 71, 0
1, 27316, Note_on_c, 0, 69, 75
1, 27326, Note_on_c, 0, 69, 0
1, 27326, Note_on_c, 0, 71, 75
1, 27327, Note_on_c, 1, 54, 0
1, 27328, Note_on_c, 1, 57, 70
1, 27335, Note_on_c, 0, 71, 0
1, 27335, Note_on_c, 0, 69, 75
1, 27343, Note_on_c, 1, 57, 0
1, 27344, Note_on_c, 0, 69, 0
1, 27344, Note_on_c, 0, 67, 75
1, 27344, Note_on_c, 1, 60, 70
1, 27353, Note_on_c, 0, 67, 0
1, 27353, Note_on_c, 0, 69, 75
1, 27359, Note_on_c, 1, 60, 0
1, 27360, Note_on_c, 1, 51, 70
1, 27362, Note_on_c, 0, 69, 0
1, 27362, Note_on_c, 0, 78, 75
1, 27375, Note_on_c, 1, 51, 0
1, 27376, Note_on_c, 1, 54, 70
1, 27391, Note_on_c, 1, 54, 0
1, 27392, Note_on_c, 1, 59, 70
1, 27407, Note_on_c, 0, 78, 0
1, 27407, Note_on_c, 1, 59, 0
1, 27408, Note_on_c, 1, 51, 70
1, 27410, Note_on_c, 0, 69, 75
1, 27423, Note_on_c, 1, 51, 0
1, 27424, Note_on_c, 1, 54, 70
1, 27439, Note_on_c, 1, 54, 0
1, 27440, Note_on_c, 1, 59, 69
1, 27455, Note_on_c, 0, 69, 0
1, 27455, Note_on_c, 1, 59, 0
1, 27456, Note_on_c, 1, 52, 69
1, 27458, Note_on_c, 0, 67, 75
1, 27471, Note_on_c, 1, 52, 0
1, 27472, Note_on_c, 1, 55, 68
1, 27487, Note_on_c, 1, 55, 0
1, 27488, Note_on_c, 1, 59, 68
1, 27503, Note_on_c, 1, 59, 0
1, 27504, Note_on_c, 1, 52, 67
1, 27519, Note_on_c, 1, 52, 0
1, 27520, Note_on_c, 1, 55, 66
1, 27525, Note_on_c, 0, 67, 0
1, 27530, Note_on_c, 0, 76, 70
1, 27535, Note_on_c, 1, 55, 0
1, 27536, Note_on_c, 1, 59, 66
1, 27540, Note_on_c, 0, 76, 0
1, 27551, Note_on_c, 1, 59, 0
1, 27552, Note_on_c, 1, 55, 66
1, 27554, Note_on_c, 0, 71, 70
1, 27567, Note_on_c, 1, 55, 0
1, 27568, Note_on_c, 1, 59, 66
1, 27583, Note_on_c, 1, 59, 0
1, 27584, Note_on_c, 1, 64, 66
1, 27599, Note_on_c, 0, 71, 0
1, 27599, Note_on_c, 1, 64, 0
1, 27600, Note_on_c, 1, 57, 66
1, 27602, Note_on_c, 0, 74, 70
1, 27610, Note_on_c, 0, 74, 0
1, 27610, Note_on_c, 0, 72, 70
1, 27615, Note_on_c, 1, 57, 0
1, 27616, Note_on_c, 1, 60, 66
1, 27618, Note_on_c, 0, 72, 0
1, 27618, Note_on_c, 0, 74, 70
1, 27626, Note_on_c, 0, 74, 0
1, 27626, Note_on_c, 0, 72, 70
1, 27631, Note_on_c, 1, 60, 0
1, 27632, Note_on_c, 1, 64, 66
1, 27634, Note_on_c, 0, 72, 0
1, 27634, Note_on_c, 0, 71, 70
1, 27642, Note_on_c, 0, 71, 0
1, 27642, Note_on_c, 0, 72, 70
1, 27647, Note_on_c, 1, 64, 0
1, 27648, Note_on_c, 1, 55, 66
1, 27650, Note_on_c, 0, 72, 0
1, 27650, Note_on_c, 0, 71, 70
1, 27657, Note_on_c, 0, 71, 0
1, 27666, Note_on_c, 0, 83, 70
1, 27681, Note_on_c, 0, 83, 0
1, 27682, Note_on_c, 0, 81, 70
1, 27697, Note_on_c, 0, 81, 0
1, 27698, Note_on_c, 0, 79, 70
1, 27713, Note_on_c, 0, 79, 0
1, 27714, Note_on_c, 0, 78, 70
1, 27729, Note_on_c, 0, 78, 0
1, 27730, Note_on_c, 0, 76, 70
1, 27737, Note_on_c, 1, 55, 0
1, 27744, Note_on_c, 1, 55, 66
1, 27745, Note_on_c, 0, 76, 0
1, 27746, Note_on_c, 0, 71, 66
1, 27759, Note_on_c, 1, 55, 0
1, 27760, Note_on_c, 1, 59, 66
1, 27775, Note_on_c, 1, 59, 0
1, 27776, Note_on_c, 1, 64, 66
1, 27791, Note_on_c, 0, 71, 0
1, 27791, Note_on_c, 1, 64, 0
1, 27792, Note_on_c, 1, 57, 66
1, 27794, Note_on_c, 0, 74, 66
1, 27802, Note_on_c, 0, 74, 0
1, 27802, Note_on_c, 0, 72, 66
1, 27807, Note_on_c, 1, 57, 0
1, 27808, Note_on_c, 1, 60, 66
1, 27810, Note_on_c, 0, 72, 0
1, 27810, Note_on_c, 0, 74, 66
1, 27818, Note_on_c, 0, 74, 0
1, 27818, Note_on_c, 0, 72, 66
1, 27823, Note_on_c, 1, 60, 0
1, 27824, Note_on_c, 1, 64, 66
1, 27826, Note_on_c, 0, 72, 0
1, 27826, Note_on_c, 0, 71, 66
1, 27834, Note_on_c, 0, 71, 0
1, 27834, Note_on_c, 0, 72, 66
1, 27839, Note_on_c, 1, 64, 0
1, 27840, Note_on_c, 1, 55, 66
1, 27842, Note_on_c, 0, 72, 0
1, 27842, Note_on_c, 0, 71, 66
1, 27849, Note_on_c, 0, 71, 0
1, 27858, Note_on_c, 0, 83, 66
1, 27873, Note_on_c, 0, 83, 0
1, 27874, Note_on_c, 0, 81, 66
1, 27889, Note_on_c, 0, 81, 0
1, 27890, Note_on_c, 0, 79, 66
1, 27905, Note_on_c, 0, 79, 0
1, 27906, Note_on_c, 0, 78, 66
1, 27921, Note_on_c, 0, 78, 0
1, 27922, Note_on_c, 0, 76, 66
1, 27929, Note_on_c, 1, 55, 0
1, 27937, Note_on_c, 0, 76, 0
1, 27938, Note_on_c, 0, 66, 66
1, 27944, Note_on_c, 0, 66, 0
1, 27944, Note_on_c, 0, 69, 66
1, 27950, Note_on_c, 0, 69, 0
1, 27950, Note_on_c, 0, 72, 66
1, 27956, Note_on_c, 0, 72, 0
1, 27956, Note_on_c, 0, 75, 66
1, 27962, Note_on_c, 0, 75, 0
1, 27962, Note_on_c, 0, 78, 66
1, 27968, Note_on_c, 0, 78, 0
1, 27968, Note_on_c, 0, 81, 66
1, 27974, Note_on_c, 0, 81, 0
1, 27974, Note_on_c, 0, 84, 66
1, 28034, Note_on_c, 0, 84, 0
1, 28034, Note_on_c, 0, 83, 75
1, 28080, Note_on_c, 1, 55, 75
1, 28080, Note_on_c, 1, 43, 75
1, 28081, Note_on_c, 0, 83, 0
1, 28082, Note_on_c, 0, 81, 75
1, 28094, Note_on_c, 0, 81, 0
1, 28094, Note_on_c, 0, 79, 75
1, 28106, Note_on_c, 0, 79, 0
1, 28106, Note_on_c, 0, 78, 75
1, 28118, Note_on_c, 0, 78, 0
1, 28118, Note_on_c, 0, 76, 75
1, 28125, Note_on_c, 1, 55, 0
1, 28125, Note_on_c, 1, 43, 0
1, 28128, Note_on_c, 1, 57, 75
1, 28128, Note_on_c, 1, 45, 75
1, 28130, Note_on_c, 0, 76, 0
1, 28130, Note_on_c, 0, 79, 75
1, 28140, Note_on_c, 0, 79, 0
1, 28140, Note_on_c, 0, 78, 75
1, 28150, Note_on_c, 0, 78, 0
1, 28150, Note_on_c, 0, 79, 75
1, 28160, Note_on_c, 0, 79, 0
1, 28160, Note_on_c, 0, 78, 75
1, 28170, Note_on_c, 0, 78, 0
1, 28170, Note_on_c, 0, 79, 75
1, 28173, Note_on_c, 1, 57, 0
1, 28173, Note_on_c, 1, 45, 0
1, 28176, Note_on_c, 1, 59, 75
1, 28176, Note_on_c, 1, 47, 75
1, 28180, Note_on_c, 0, 79, 0
1, 28180, Note_on_c, 0, 78, 75
1, 28190, Note_on_c, 0, 78, 0
1, 28190, Note_on_c, 0, 79, 75
1, 28199, Note_on_c, 0, 79, 0
1, 28199, Note_on_c, 0, 78, 75
1, 28208, Note_on_c, 0, 78, 0
1, 28208, Note_on_c, 0, 76, 75
1, 28217, Note_on_c, 0, 76, 0
1, 28217, Note_on_c, 0, 78, 75
1, 28221, Note_on_c, 1, 59, 0
1, 28221, Note_on_c, 1, 47, 0
1, 28224, Note_on_c, 1, 64, 62
1, 28226, Note_on_c, 0, 78, 0
1, 28226, Note_on_c, 0, 76, 75
1, 28247, Note_on_c, 1, 64, 0
1, 28248, Note_on_c, 1, 67, 62
1, 28248, Note_on_c, 1, 64, 62
1, 28271, Note_on_c, 1, 67, 0
1, 28271, Note_on_c, 1, 64, 0
1, 28272, Note_on_c, 1, 67, 62
1, 28272, Note_on_c, 1, 64, 62
1, 28295, Note_on_c, 1, 67, 0
1, 28295, Note_on_c, 1, 64, 0
1, 28296, Note_on_c, 1, 67, 62
1, 28296, Note_on_c, 1, 64, 62
1, 28315, Note_on_c, 0, 76, 0
1, 28319, Note_on_c, 1, 67, 0
1, 28319, Note_on_c, 1, 64, 0
1, 28320, Note_on_c, 1, 67, 62
1, 28320, Note_on_c, 1, 64, 62
1, 28343, Note_on_c, 1, 67, 0
1, 28343, Note_on_c, 1, 64, 0
1, 28344, Note_on_c, 1, 67, 62
1, 28344, Note_on_c, 1, 64, 62
1, 28367, Note_on_c, 1, 67, 0
1, 28367, Note_on_c, 1, 64, 0
1, 28368, Note_on_c, 1, 67, 62
1, 28368, Note_on_c, 1, 64, 62
1, 28391, Note_on_c, 1, 67, 0
1, 28391, Note_on_c, 1, 64, 0
1, 28392, Note_on_c, 1, 67, 62
1, 28392, Note_on_c, 1, 64, 62
1, 28415, Note_on_c, 1, 67, 0
1, 28415, Note_on_c, 1, 64, 0
1, 28416, Note_on_c, 1, 67, 62
1, 28416, Note_on_c, 1, 64, 62
1, 28418, Note_on_c, 0, 79, 70
1, 28439, Note_on_c, 1, 67, 0
1, 28439, Note_on_c, 1, 64, 0
1, 28440, Note_on_c, 1, 67, 62
1, 28440, Note_on_c, 1, 64, 62
1, 28463, Note_on_c, 1, 67, 0
1, 28463, Note_on_c, 1, 64, 0
1, 28464, Note_on_c, 1, 67, 62
1, 28464, Note_on_c, 1, 64, 62
1, 28478, Note_on_c, 0, 79, 0
1, 28478, Note_on_c, 0, 77, 70
1, 28487, Note_on_c, 1, 67, 0
1, 28487, Note_on_c, 1, 64, 0
1, 28488, Note_on_c, 1, 67, 62
1, 28488, Note_on_c, 1, 64, 62
1, 28490, Note_on_c, 0, 77, 0
1, 28490, Note_on_c, 0, 76, 70
1, 28502, Note_on_c, 0, 76, 0
1, 28502, Note_on_c, 0, 74, 70
1, 28511, Note_on_c, 1, 67, 0
1, 28511, Note_on_c, 1, 64, 0
1, 28512, Note_on_c, 1, 67, 62
1, 28512, Note_on_c, 1, 64, 62
1, 28514, Note_on_c, 0, 74, 0
1, 28514, Note_on_c, 0, 72, 70
1, 28535, Note_on_c, 1, 67, 0
1, 28535, Note_on_c, 1, 64, 0
1, 28536, Note_on_c, 1, 67, 62
1, 28536, Note_on_c, 1, 64, 62
1, 28559, Note_on_c, 0, 72, 0
1, 28559, Note_on_c, 1, 67, 0
1, 28559, Note_on_c, 1, 64, 0
1, 28560, Note_on_c, 1, 67, 62
1, 28560, Note_on_c, 1, 64, 62
1, 28583, Note_on_c, 1, 67, 0
1, 28583, Note_on_c, 1, 64, 0
1, 28584, Note_on_c, 1, 67, 62
1, 28584, Note_on_c, 1, 64, 62
1, 28607, Note_on_c, 1, 67, 0
1, 28607, Note_on_c, 1, 64, 0
1, 28608, Note_on_c, 1, 67, 62
1, 28608, Note_on_c, 1, 64, 62
1, 28610, Note_on_c, 0, 79, 66
1, 28632, Note_on_c, 1, 67, 0
1, 28632, Note_on_c, 1, 64, 0
1, 28632, Note_on_c, 1, 67, 62
1, 28632, Note_on_c, 1, 64, 62
1, 28656, Note_on_c, 1, 67, 0
1, 28656, Note_on_c, 1, 64, 0
1, 28656, Note_on_c, 1, 67, 62
1, 28656, Note_on_c, 1, 64, 62
1, 28670, Note_on_c, 0, 79, 0
1, 28670, Note_on_c, 0, 77, 66
1, 28680, Note_on_c, 1, 67, 0
1, 28680, Note_on_c, 1, 64, 0
1, 28680, Note_on_c, 1, 67, 62
1, 28680, Note_on_c, 1, 64, 62
1, 28682, Note_on_c, 0, 77, 0
1, 28682, Note_on_c, 0, 76, 66
1, 28694, Note_on_c, 0, 76, 0
1, 28694, Note_on_c, 0, 74, 66
1, 28704, Note_on_c, 1, 67, 0
1, 28704, Note_on_c, 1, 64, 0
1, 28704, Note_on_c, 1, 67, 62
1, 28704, Note_on_c, 1, 64, 62
1, 28706, Note_on_c, 0, 74, 0
1, 28706, Note_on_c, 0, 72, 66
1, 28728, Note_on_c, 1, 67, 0
1, 28728, Note_on_c, 1, 64, 0
1, 28728, Note_on_c, 1, 67, 62
1, 28728, Note_on_c, 1, 64, 62
1, 28751, Note_on_c, 0, 72, 0
1, 28752, Note_on_c, 1, 67, 0
1, 28752, Note_on_c, 1, 64, 0
1, 28752, Note_on_c, 1, 67, 62
1, 28752, Note_on_c, 1, 64, 62
1, 28776, Note_on_c, 1, 67, 0
1, 28776, Note_on_c, 1, 64, 0
1, 28776, Note_on_c, 1, 67, 62
1, 28776, Note_on_c, 1, 64, 62
1, 28800, Note_on_c, 1, 67, 0
1, 28800, Note_on_c, 1, 64, 0
1, 28800, Note_on_c, 1, 67, 62
1, 28800, Note_on_c, 1, 64, 62
1, 28802, Note_on_c, 0, 79, 62
1, 28824, Note_on_c, 1, 67, 0
1, 28824, Note_on_c, 1, 64, 0
1, 28824, Note_on_c, 1, 67, 62
1, 28824, Note_on_c, 1, 64, 62
1, 28848, Note_on_c, 1, 67, 0
1, 28848, Note_on_c, 1, 64, 0
1, 28848, Note_on_c, 1, 67, 62
1, 28848, Note_on_c, 1, 64, 62
1, 28862, Note_on_c, 0, 79, 0
1, 28862, Note_on_c, 0, 77, 62
1, 28872, Note_on_c, 1, 67, 0
1, 28872, Note_on_c, 1, 64, 0
1, 28872, Note_on_c, 1, 67, 62
1, 28872, Note_on_c, 1, 64, 62
1, 28874, Note_on_c, 0, 77, 0
1, 28874, Note_on_c, 0, 76, 62
1, 28886, Note_on_c, 0, 76, 0
1, 28886, Note_on_c, 0, 74, 62
1, 28896, Note_on_c, 1, 67, 0
1, 28896, Note_on_c, 1, 64, 0
1, 28896, Note_on_c, 1, 67, 62
1, 28896, Note_on_c, 1, 64, 62
1, 28898, Note_on_c, 0, 74, 0
1, 28898, Note_on_c, 0, 72, 62
1, 28920, Note_on_c, 1, 67, 0
1, 28920, Note_on_c, 1, 64, 0
1, 28920, Note_on_c, 1, 67, 62
1, 28920, Note_on_c, 1, 64, 62
1, 28943, Note_on_c, 0, 72, 0
1, 28944, Note_on_c, 1, 67, 0
1, 28944, Note_on_c, 1, 64, 0
1, 28944, Note_on_c, 1, 67, 62
1, 28944, Note_on_c, 1, 64, 62
1, 28946, Note_on_c, 0, 72, 62
1, 28968, Note_on_c, 1, 67, 0
1, 28968, Note_on_c, 1, 64, 0
1, 28968, Note_on_c, 1, 67, 62
1, 28968, Note_on_c, 1, 64, 62
1, 28991, Note_on_c, 0, 72, 0
1, 28992, Note_on_c, 1, 67, 0
1, 28992, Note_on_c, 1, 64, 0
1, 28992, Note_on_c, 1, 66, 62
1, 28992, Note_on_c, 1, 62, 62
1, 28994, Note_on_c, 0, 74, 70
1, 29004, Note_on_c, 0, 74, 0
1, 29004, Note_on_c, 0, 72, 70
1, 29014, Note_on_c, 0, 72, 0
1, 29014, Note_on_c, 0, 74, 70
1, 29015, Note_on_c, 1, 66, 0
1, 29015, Note_on_c, 1, 62, 0
1, 29016, Note_on_c, 1, 66, 62
1, 29016, Note_on_c, 1, 62, 62
1, 29024, Note_on_c, 0, 74, 0
1, 29024, Note_on_c, 0, 72, 70
1, 29034, Note_on_c, 0, 72, 0
1, 29034, Note_on_c, 0, 74, 71
1, 29039, Note_on_c, 1, 66, 0
1, 29039, Note_on_c, 1, 62, 0
1, 29040, Note_on_c, 1, 66, 62
1, 29040, Note_on_c, 1, 62, 62
1, 29044, Note_on_c, 0, 74, 0
1, 29044, Note_on_c, 0, 72, 71
1, 29054, Note_on_c, 0, 72, 0
1, 29054, Note_on_c, 0, 74, 71
1, 29063, Note_on_c, 0, 74, 0
1, 29063, Note_on_c, 0, 72, 72
1, 29063, Note_on_c, 1, 66, 0
1, 29063, Note_on_c, 1, 62, 0
1, 29064, Note_on_c, 1, 66, 62
1, 29064, Note_on_c, 1, 62, 62
1, 29072, Note_on_c, 0, 72, 0
1, 29072, Note_on_c, 0, 71, 72
1, 29081, Note_on_c, 0, 71, 0
1, 29081, Note_on_c, 0, 72, 72
1, 29087, Note_on_c, 1, 66, 0
1, 29087, Note_on_c, 1, 62, 0
1, 29088, Note_on_c, 1, 66, 62
1, 29088, Note_on_c, 1, 62, 62
1, 29090, Note_on_c, 0, 72, 0
1, 29090, Note_on_c, 0, 81, 75
1, 29111, Note_on_c, 1, 66, 0
1, 29111, Note_on_c, 1, 62, 0
1, 29112, Note_on_c, 1, 66, 62
1, 29112, Note_on_c, 1, 62, 62
1, 29135, Note_on_c, 0, 81, 0
1, 29135, Note_on_c, 1, 66, 0
1, 29135, Note_on_c, 1, 62, 0
1, 29136, Note_on_c, 1, 66, 62
1, 29136, Note_on_c, 1, 62, 62
1, 29138, Note_on_c, 0, 72, 75
1, 29159, Note_on_c, 1, 66, 0
1, 29159, Note_on_c, 1, 62, 0
1, 29160, Note_on_c, 1, 66, 62
1, 29160, Note_on_c, 1, 62, 62
1, 29183, Note_on_c, 0, 72, 0
1, 29183, Note_on_c, 1, 66, 0
1, 29183, Note_on_c, 1, 62, 0
1, 29184, Note_on_c, 1, 67, 62
1, 29184, Note_on_c, 1, 62, 62
1, 29186, Note_on_c, 0, 72, 75
1, 29196, Note_on_c, 0, 72, 0
1, 29196, Note_on_c, 0, 71, 75
1, 29206, Note_on_c, 0, 71, 0
1, 29206, Note_on_c, 0, 72, 75
1, 29207, Note_on_c, 1, 67, 0
1, 29207, Note_on_c, 1, 62, 0
1, 29208, Note_on_c, 1, 67, 62
1, 29208, Note_on_c, 1, 62, 62
1, 29216, Note_on_c, 0, 72, 0
1, 29216, Note_on_c, 0, 71, 75
1, 29226, Note_on_c, 0, 71, 0
1, 29226, Note_on_c, 0, 72, 75
1, 29231, Note_on_c, 1, 67, 0
1, 29231, Note_on_c, 1, 62, 0
1, 29232, Note_on_c, 1, 67, 62
1, 29232, Note_on_c, 1, 62, 62
1, 29236, Note_on_c, 0, 72, 0
1, 29236, Note_on_c, 0, 71, 75
1, 29246, Note_on_c, 0, 71, 0
1, 29246, Note_on_c, 0, 72, 75
1, 29255, Note_on_c, 0, 72, 0
1, 29255, Note_on_c, 0, 71, 75
1, 29255, Note_on_c, 1, 67, 0
1, 29255, Note_on_c, 1, 62, 0
1, 29256, Note_on_c, 1, 67, 62
1, 29256, Note_on_c, 1, 62, 62
1, 29264, Note_on_c, 0, 71, 0
1, 29264, Note_on_c, 0, 69, 75
1, 29273, Note_on_c, 0, 69, 0
1, 29273, Note_on_c, 0, 71, 75
1, 29279, Note_on_c, 1, 67, 0
1, 29279, Note_on_c, 1, 62, 0
1, 29280, Note_on_c, 1, 67, 62
1, 29280, Note_on_c, 1, 62, 62
1, 29282, Note_on_c, 0, 71, 0
1, 29282, Note_on_c, 0, 79, 75
1, 29303, Note_on_c, 1, 67, 0
1, 29303, Note_on_c, 1, 62, 0
1, 29304, Note_on_c, 1, 67, 62
1, 29304, Note_on_c, 1, 62, 62
1, 29327, Note_on_c, 0, 79, 0
1, 29327, Note_on_c, 1, 67, 0
1, 29327, Note_on_c, 1, 62, 0
1, 29328, Note_on_c, 1, 67, 62
1, 29328, Note_on_c, 1, 62, 62
1, 29330, Note_on_c, 0, 71, 75
1, 29351, Note_on_c, 1, 67, 0
1, 29351, Note_on_c, 1, 62, 0
1, 29352, Note_on_c, 1, 67, 62
1, 29352, Note_on_c, 1, 62, 62
1, 29375, Note_on_c, 0, 71, 0
1, 29375, Note_on_c, 1, 67, 0
1, 29375, Note_on_c, 1, 62, 0
1, 29376, Note_on_c, 1, 66, 62
1, 29376, Note_on_c, 1, 62, 62
1, 29378, Note_on_c, 0, 74, 75
1, 29388, Note_on_c, 0, 74, 0
1, 29388, Note_on_c, 0, 72, 75
1, 29398, Note_on_c, 0, 72, 0
1, 29398, Note_on_c, 0, 74, 75
1, 29399, Note_on_c, 1, 66, 0
1, 29399, Note_on_c, 1, 62, 0
1, 29400, Note_on_c, 1, 66, 62
1, 29400, Note_on_c, 1, 62, 62
1, 29408, Note_on_c, 0, 74, 0
1, 29408, Note_on_c, 0, 72, 75
1, 29418, Note_on_c, 0, 72, 0
1, 29418, Note_on_c, 0, 74, 75
1, 29423, Note_on_c, 1, 66, 0
1, 29423, Note_on_c, 1, 62, 0
1, 29424, Note_on_c, 1, 66, 62
1, 29424, Note_on_c, 1, 62, 62
1, 29428, Note_on_c, 0, 74, 0
1, 29428, Note_on_c, 0, 72, 75
1, 29438, Note_on_c, 0, 72, 0
1, 29438, Note_on_c, 0, 74, 75
1, 29447, Note_on_c, 0, 74, 0
1, 29447, Note_on_c, 0, 72, 75
1, 29447, Note_on_c, 1, 66, 0
1, 29447, Note_on_c, 1, 62, 0
1, 29448, Note_on_c, 1, 66, 62
1, 29448, Note_on_c, 1, 62, 62
1, 29456, Note_on_c, 0, 72, 0
1, 29456, Note_on_c, 0, 71, 75
1, 29465, Note_on_c, 0, 71, 0
1, 29465, Note_on_c, 0, 72, 75
1, 29471, Note_on_c, 1, 66, 0
1, 29471, Note_on_c, 1, 62, 0
1, 29472, Note_on_c, 1, 66, 62
1, 29472, Note_on_c, 1, 62, 62
1, 29474, Note_on_c, 0, 72, 0
1, 29474, Note_on_c, 0, 81, 75
1, 29489, Note_on_c, 0, 81, 0
1, 29490, Note_on_c, 0, 79, 75
1, 29495, Note_on_c, 1, 66, 0
1, 29495, Note_on_c, 1, 62, 0
1, 29496, Note_on_c, 1, 66, 62
1, 29496, Note_on_c, 1, 62, 62
1, 29505, Note_on_c, 0, 79, 0
1, 29506, Note_on_c, 0, 78, 75
1, 29519, Note_on_c, 1, 66, 0
1, 29519, Note_on_c, 1, 62, 0
1, 29520, Note_on_c, 1, 66, 62
1, 29520, Note_on_c, 1, 62, 62
1, 29521, Note_on_c, 0, 78, 0
1, 29522, Note_on_c, 0, 76, 75
1, 29537, Note_on_c, 0, 76, 0
1, 29538, Note_on_c, 0, 74, 75
1, 29543, Note_on_c, 1, 66, 0
1, 29543, Note_on_c, 1, 62, 0
1, 29544, Note_on_c, 1, 66, 62
1, 29544, Note_on_c, 1, 62, 62
1, 29553, Note_on_c, 0, 74, 0
1, 29554, Note_on_c, 0, 72, 75
1, 29567, Note_on_c, 1, 66, 0
1, 29567, Note_on_c, 1, 62, 0
1, 29568, Note_on_c, 1, 67, 62
1, 29568, Note_on_c, 1, 62, 62
1, 29569, Note_on_c, 0, 72, 0
1, 29570, Note_on_c, 0, 72, 75
1, 29580, Note_on_c, 0, 72, 0
1, 29580, Note_on_c, 0, 71, 75
1, 29590, Note_on_c, 0, 71, 0
1, 29590, Note_on_c, 0, 72, 75
1, 29591, Note_on_c, 1, 67, 0
1, 29591, Note_on_c, 1, 62, 0
1, 29592, Note_on_c, 1, 67, 62
1, 29592, Note_on_c, 1, 62, 62
1, 29600, Note_on_c, 0, 72, 0
1, 29600, Note_on_c, 0, 71, 75
1, 29610, Note_on_c, 0, 71, 0
1, 29610, Note_on_c, 0, 72, 75
1, 29615, Note_on_c, 1, 67, 0
1, 29615, Note_on_c, 1, 62, 0
1, 29616, Note_on_c, 1, 67, 62
1, 29616, Note_on_c, 1, 62, 62
1, 29620, Note_on_c, 0, 72, 0
1, 29620, Note_on_c, 0, 71, 75
1, 29630, Note_on_c, 0, 71, 0
1, 29630, Note_on_c, 0, 72, 75
1, 29639, Note_on_c, 0, 72, 0
1, 29639, Note_on_c, 0, 71, 75
1, 29639, Note_on_c, 1, 67, 0
1, 29639, Note_on_c, 1, 62, 0
1, 29640, Note_on_c, 1, 67, 62
1, 29640, Note_on_c, 1, 62, 62
1, 29648, Note_on_c, 0, 71, 0
1, 29648, Note_on_c, 0, 69, 75
1, 29657, Note_on_c, 0, 69, 0
1, 29657, Note_on_c, 0, 71, 75
1, 29663, Note_on_c, 1, 67, 0
1, 29663, Note_on_c, 1, 62, 0
1, 29664, Note_on_c, 1, 67, 62
1, 29664, Note_on_c, 1, 62, 62
1, 29666, Note_on_c, 0, 71, 0
1, 29666, Note_on_c, 0, 79, 75
1, 29681, Note_on_c, 0, 79, 0
1, 29682, Note_on_c, 0, 78, 75
1, 29687, Note_on_c, 1, 67, 0
1, 29687, Note_on_c, 1, 62, 0
1, 29688, Note_on_c, 1, 67, 62
1, 29688, Note_on_c, 1, 62, 62
1, 29697, Note_on_c, 0, 78, 0
1, 29698, Note_on_c, 0, 76, 75
1, 29711, Note_on_c, 1, 67, 0
1, 29711, Note_on_c, 1, 62, 0
1, 29712, Note_on_c, 1, 67, 62
1, 29712, Note_on_c, 1, 62, 62
1, 29713, Note_on_c, 0, 76, 0
1, 29714, Note_on_c, 0, 74, 75
1, 29729, Note_on_c, 0, 74, 0
1, 29730, Note_on_c, 0, 72, 75
1, 29735, Note_on_c, 1, 67, 0
1, 29735, Note_on_c, 1, 62, 0
1, 29736, Note_on_c, 1, 67, 62
1, 29736, Note_on_c, 1, 62, 62
1, 29745, Note_on_c, 0, 72, 0
1, 29746, Note_on_c, 0, 71, 75
1, 29759, Note_on_c, 1, 67, 0
1, 29759, Note_on_c, 1, 62, 0
1, 29760, Note_on_c, 1, 67, 62
1, 29760, Note_on_c, 0, 62, 64
1, 29761, Note_on_c, 0, 71, 0
1, 29762, Note_on_c, 0, 72, 75
1, 29770, Note_on_c, 0, 72, 0
1, 29770, Note_on_c, 0, 71, 75
1, 29778, Note_on_c, 0, 71, 0
1, 29778, Note_on_c, 0, 72, 75
1, 29786, Note_on_c, 0, 72, 0
1, 29786, Note_on_c, 0, 71, 75
1, 29794, Note_on_c, 0, 71, 0
1, 29794, Note_on_c, 0, 69, 75
1, 29802, Note_on_c, 0, 69, 0
1, 29802, Note_on_c, 0, 71, 75
1, 29805, Note_on_c, 1, 67, 0
1, 29808, Note_on_c, 1, 66, 62
1, 29810, Note_on_c, 0, 71, 0
1, 29810, Note_on_c, 0, 69, 75
1, 29849, Note_on_c, 0, 62, 0
1, 29853, Note_on_c, 1, 66, 0
1, 29855, Note_on_c, 0, 69, 0
1, 29906, Note_on_c, 0, 86, 75
1, 29906, Note_on_c, 0, 83, 75
1, 29940, Note_on_c, 0, 86, 0
1, 29940, Note_on_c, 0, 83, 0
1, 29942, Note_on_c, 0, 86, 75
1, 29942, Note_on_c, 0, 83, 75
1, 29954, Note_on_c, 0, 86, 0
1, 29954, Note_on_c, 0, 83, 0
1, 29954, Note_on_c, 0, 86, 75
1, 29954, Note_on_c, 0, 83, 75
1, 29988, Note_on_c, 0, 86, 0
1, 29988, Note_on_c, 0, 83, 0
1, 29990, Note_on_c, 0, 84, 75
1, 29990, Note_on_c, 0, 81, 75
1, 30002, Note_on_c, 0, 84, 0
1, 30002, Note_on_c, 0, 81, 0
1, 30002, Note_on_c, 0, 83, 75
1, 30002, Note_on_c, 0, 79, 75
1, 30036, Note_on_c, 0, 83, 0
1, 30036, Note_on_c, 0, 79, 0
1, 30036, Note_on_c, 1, 55, 75
1, 30038, Note_on_c, 0, 83, 75
1, 30038, Note_on_c, 0, 62, 75
1, 30048, Note_on_c, 1, 55, 0
1, 30048, Note_on_c, 1, 55, 75
1, 30050, Note_on_c, 0, 83, 0
1, 30050, Note_on_c, 0, 62, 0
1, 30050, Note_on_c, 0, 83, 75
1, 30050, Note_on_c, 0, 62, 75
1, 30084, Note_on_c, 0, 83, 0
1, 30084, Note_on_c, 0, 62, 0
1, 30086, Note_on_c, 0, 81, 75
1, 30086, Note_on_c, 0, 60, 75
1, 30098, Note_on_c, 0, 81, 0
1, 30098, Note_on_c, 0, 60, 0
1, 30098, Note_on_c, 0, 79, 75
1, 30098, Note_on_c, 0, 59, 75
1, 30132, Note_on_c, 0, 79, 0
1, 30132, Note_on_c, 0, 59, 0
1, 30134, Note_on_c, 0, 86, 75
1, 30134, Note_on_c, 0, 83, 75
1, 30137, Note_on_c, 1, 55, 0
1, 30146, Note_on_c, 0, 86, 0
1, 30146, Note_on_c, 0, 83, 0
1, 30146, Note_on_c, 0, 86, 75
1, 30146, Note_on_c, 0, 83, 75
1, 30180, Note_on_c, 0, 86, 0
1, 30180, Note_on_c, 0, 83, 0
1, 30182, Note_on_c, 0, 84, 75
1, 30182, Note_on_c, 0, 81, 75
1, 30194, Note_on_c, 0, 84, 0
1, 30194, Note_on_c, 0, 81, 0
1, 30194, Note_on_c, 0, 83, 75
1, 30194, Note_on_c, 0, 79, 75
1, 30228, Note_on_c, 0, 83, 0
1, 30228, Note_on_c, 0, 79, 0
1, 30228, Note_on_c, 1, 55, 75
1, 30230, Note_on_c, 0, 83, 75
1, 30230, Note_on_c, 0, 62, 75
1, 30240, Note_on_c, 1, 55, 0
1, 30240, Note_on_c, 1, 55, 75
1, 30242, Note_on_c, 0, 83, 0
1, 30242, Note_on_c, 0, 62, 0
1, 30242, Note_on_c, 0, 83, 75
1, 30242, Note_on_c, 0, 62, 75
1, 30276, Note_on_c, 0, 83, 0
1, 30276, Note_on_c, 0, 62, 0
1, 30278, Note_on_c, 0, 81, 75
1, 30278, Note_on_c, 0, 60, 75
1, 30290, Note_on_c, 0, 81, 0
1, 30290, Note_on_c, 0, 60, 0
1, 30290, Note_on_c, 0, 79, 75
1, 30290, Note_on_c, 0, 59, 75
1, 30324, Note_on_c, 0, 79, 0
1, 30324, Note_on_c, 0, 59, 0
1, 30326, Note_on_c, 0, 79, 75
1, 30329, Note_on_c, 1, 55, 0
1, 30336, Note_on_c, 1, 60, 75
1, 30336, Note_on_c, 1, 54, 75
1, 30338, Note_on_c, 0, 79, 0
1, 30338, Note_on_c, 0, 80, 75
1, 30362, Note_on_c, 0, 80, 0
1, 30362, Note_on_c, 0, 81, 73
1, 30381, Note_on_c, 1, 60, 0
1, 30381, Note_on_c, 1, 54, 0
1, 30384, Note_on_c, 1, 60, 72
1, 30384, Note_on_c, 1, 54, 72
1, 30385, Note_on_c, 0, 81, 0
1, 30386, Note_on_c, 0, 81, 72
1, 30409, Note_on_c, 0, 81, 0
1, 30410, Note_on_c, 0, 81, 71
1, 30429, Note_on_c, 1, 60, 0
1, 30429, Note_on_c, 1, 54, 0
1, 30432, Note_on_c, 1, 60, 70
1, 30432, Note_on_c, 1, 54, 70
1, 30433, Note_on_c, 0, 81, 0
1, 30434, Note_on_c, 0, 81, 70
1, 30477, Note_on_c, 1, 60, 0
1, 30477, Note_on_c, 1, 54, 0
1, 30480, Note_on_c, 1, 60, 71
1, 30480, Note_on_c, 1, 54, 71
1, 30523, Note_on_c, 0, 81, 0
1, 30530, Note_on_c, 0, 66, 72
1, 30536, Note_on_c, 0, 66, 0
1, 30536, Note_on_c, 0, 69, 72
1, 30542, Note_on_c, 0, 69, 0
1, 30542, Note_on_c, 0, 72, 72
1, 30548, Note_on_c, 0, 72, 0
1, 30548, Note_on_c, 0, 74, 72
1, 30554, Note_on_c, 0, 74, 0
1, 30554, Note_on_c, 0, 78, 72
1, 30560, Note_on_c, 0, 78, 0
1, 30560, Note_on_c, 0, 81, 72
1, 30566, Note_on_c, 0, 81, 0
1, 30566, Note_on_c, 0, 84, 72
1, 30573, Note_on_c, 1, 60, 0
1, 30573, Note_on_c, 1, 54, 0
1, 30624, Note_on_c, 1, 50, 75
1, 30624, Note_on_c, 1, 38, 75
1, 30638, Note_on_c, 0, 84, 0
1, 30638, Note_on_c, 0, 83, 75
1, 30650, Note_on_c, 0, 83, 0
1, 30650, Note_on_c, 0, 81, 75
1, 30662, Note_on_c, 0, 81, 0
1, 30662, Note_on_c, 0, 79, 75
1, 30669, Note_on_c, 1, 50, 0
1, 30669, Note_on_c, 1, 38, 0
1, 30672, Note_on_c, 1, 54, 75
1, 30672, Note_on_c, 1, 42, 75
1, 30674, Note_on_c, 0, 79, 0
1, 30674, Note_on_c, 0, 78, 75
1, 30686, Note_on_c, 0, 78, 0
1, 30686, Note_on_c, 0, 76, 75
1, 30698, Note_on_c, 0, 76, 0
1, 30698, Note_on_c, 0, 74, 75
1, 30710, Note_on_c, 0, 74, 0
1, 30710, Note_on_c, 0, 72, 75
1, 30717, Note_on_c, 1, 54, 0
1, 30717, Note_on_c, 1, 42, 0
1, 30720, Note_on_c, 1, 55, 75
1, 30720, Note_on_c, 1, 43, 75
1, 30722, Note_on_c, 0, 72, 0
1, 30722, Note_on_c, 0, 71, 75
1, 30734, Note_on_c, 0, 71, 0
1, 30734, Note_on_c, 0, 74, 75
1, 30746, Note_on_c, 0, 74, 0
1, 30746, Note_on_c, 0, 76, 75
1, 30758, Note_on_c, 0, 76, 0
1, 30758, Note_on_c, 0, 78, 75
1, 30770, Note_on_c, 0, 78, 0
1, 30770, Note_on_c, 0, 79, 75
1, 30782, Note_on_c, 0, 79, 0
1, 30782, Note_on_c, 0, 81, 75
1, 30794, Note_on_c, 0, 81, 0
1, 30794, Note_on_c, 0, 83, 75
1, 30806, Note_on_c, 0, 83, 0
1, 30806, Note_on_c, 0, 84, 75
1, 30809, Note_on_c, 1, 55, 0
1, 30809, Note_on_c, 1, 43, 0
1, 30818, Note_on_c, 0, 84, 0
1, 30818, Note_on_c, 0, 86, 75
1, 30841, Note_on_c, 0, 86, 0
1, 30842, Note_on_c, 0, 74, 75
1, 30864, Note_on_c, 1, 59, 75
1, 30864, Note_on_c, 1, 47, 75
1, 30865, Note_on_c, 0, 74, 0
1, 30866, Note_on_c, 0, 74, 75
1, 30890, Note_on_c, 0, 74, 0
1, 30890, Note_on_c, 0, 75, 75
1, 30909, Note_on_c, 1, 59, 0
1, 30909, Note_on_c, 1, 47, 0
1, 30912, Note_on_c, 1, 60, 75
1, 30912, Note_on_c, 1, 48, 75
1, 30913, Note_on_c, 0, 75, 0
1, 30914, Note_on_c, 0, 76, 75
1, 30937, Note_on_c, 0, 76, 0
1, 30938, Note_on_c, 0, 78, 75
1, 30950, Note_on_c, 0, 78, 0
1, 30950, Note_on_c, 0, 80, 75
1, 30962, Note_on_c, 0, 80, 0
1, 30962, Note_on_c, 0, 81, 75
1, 30974, Note_on_c, 0, 81, 0
1, 30974, Note_on_c, 0, 80, 75
1, 30986, Note_on_c, 0, 80, 0
1, 30986, Note_on_c, 0, 81, 75
1, 30998, Note_on_c, 0, 81, 0
1, 30998, Note_on_c, 0, 83, 76
1, 31001, Note_on_c, 1, 60, 0
1, 31001, Note_on_c, 1, 48, 0
1, 31010, Note_on_c, 0, 83, 0
1, 31010, Note_on_c, 0, 84, 76
1, 31033, Note_on_c, 0, 84, 0
1, 31034, Note_on_c, 0, 72, 76
1, 31056, Note_on_c, 1, 57, 76
1, 31056, Note_on_c, 1, 45, 76
1, 31057, Note_on_c, 0, 72, 0
1, 31058, Note_on_c, 0, 72, 76
1, 31082, Note_on_c, 0, 72, 0
1, 31082, Note_on_c, 0, 73, 76
1, 31101, Note_on_c, 1, 57, 0
1, 31101, Note_on_c, 1, 45, 0
1, 31104, Note_on_c, 1, 59, 76
1, 31104, Note_on_c, 1, 47, 76
1, 31105, Note_on_c, 0, 73, 0
1, 31106, Note_on_c, 0, 74, 76
1, 31129, Note_on_c, 0, 74, 0
1, 31130, Note_on_c, 0, 76, 76
1, 31142, Note_on_c, 0, 76, 0
1, 31142, Note_on_c, 0, 78, 76
1, 31154, Note_on_c, 0, 78, 0
1, 31154, Note_on_c, 0, 79, 77
1, 31166, Note_on_c, 0, 79, 0
1, 31166, Note_on_c, 0, 78, 77
1, 31178, Note_on_c, 0, 78, 0
1, 31178, Note_on_c, 0, 79, 77
1, 31190, Note_on_c, 0, 79, 0
1, 31190, Note_on_c, 0, 81, 77
1, 31193, Note_on_c, 1, 59, 0
1, 31193, Note_on_c, 1, 47, 0
1, 31202, Note_on_c, 0, 81, 0
1, 31202, Note_on_c, 0, 83, 77
1, 31225, Note_on_c, 0, 83, 0
1, 31226, Note_on_c, 0, 71, 77
1, 31248, Note_on_c, 1, 55, 77
1, 31248, Note_on_c, 1, 43, 77
1, 31249, Note_on_c, 0, 71, 0
1, 31250, Note_on_c, 0, 71, 77
1, 31273, Note_on_c, 0, 71, 0
1, 31274, Note_on_c, 0, 71, 77
1, 31293, Note_on_c, 1, 55, 0
1, 31293, Note_on_c, 1, 43, 0
1, 31296, Note_on_c, 1, 57, 77
1, 31296, Note_on_c, 1, 45, 77
1, 31297, Note_on_c, 0, 71, 0
1, 31298, Note_on_c, 0, 72, 78
1, 31321, Note_on_c, 0, 72, 0
1, 31322, Note_on_c, 0, 74, 78
1, 31334, Note_on_c, 0, 74, 0
1, 31334, Note_on_c, 0, 76, 78
1, 31346, Note_on_c, 0, 76, 0
1, 31346, Note_on_c, 0, 78, 78
1, 31358, Note_on_c, 0, 78, 0
1, 31358, Note_on_c, 0, 76, 78
1, 31370, Note_on_c, 0, 76, 0
1, 31370, Note_on_c, 0, 78, 78
1, 31382, Note_on_c, 0, 78, 0
1, 31382, Note_on_c, 0, 79, 78
1, 31385, Note_on_c, 1, 57, 0
1, 31385, Note_on_c, 1, 45, 0
1, 31394, Note_on_c, 0, 79, 0
1, 31394, Note_on_c, 0, 81, 78
1, 31417, Note_on_c, 0, 81, 0
1, 31418, Note_on_c, 0, 69, 78
1, 31440, Note_on_c, 1, 54, 78
1, 31440, Note_on_c, 1, 42, 78
1, 31441, Note_on_c, 0, 69, 0
1, 31442, Note_on_c, 0, 69, 78
1, 31466, Note_on_c, 0, 69, 0
1, 31466, Note_on_c, 0, 70, 79
1, 31485, Note_on_c, 1, 54, 0
1, 31485, Note_on_c, 1, 42, 0
1, 31488, Note_on_c, 1, 55, 79
1, 31488, Note_on_c, 1, 43, 79
1, 31489, Note_on_c, 0, 70, 0
1, 31490, Note_on_c, 0, 71, 79
1, 31513, Note_on_c, 0, 71, 0
1, 31514, Note_on_c, 0, 72, 79
1, 31526, Note_on_c, 0, 72, 0
1, 31526, Note_on_c, 0, 74, 79
1, 31538, Note_on_c, 0, 74, 0
1, 31538, Note_on_c, 0, 76, 79
1, 31550, Note_on_c, 0, 76, 0
1, 31550, Note_on_c, 0, 74, 79
1, 31562, Note_on_c, 0, 74, 0
1, 31562, Note_on_c, 0, 76, 79
1, 31574, Note_on_c, 0, 76, 0
1, 31574, Note_on_c, 0, 78, 79
1, 31577, Note_on_c, 1, 55, 0
1, 31577, Note_on_c, 1, 43, 0
1, 31586, Note_on_c, 0, 78, 0
1, 31586, Note_on_c, 0, 79, 79
1, 31609, Note_on_c, 0, 79, 0
1, 31610, Note_on_c, 0, 71, 80
1, 31632, Note_on_c, 1, 67, 80
1, 31632, Note_on_c, 1, 61, 80
1, 31633, Note_on_c, 0, 71, 0
1, 31634, Note_on_c, 0, 71, 80
1, 31657, Note_on_c, 0, 71, 0
1, 31658, Note_on_c, 0, 71, 80
1, 31677, Note_on_c, 1, 67, 0
1, 31677, Note_on_c, 1, 61, 0
1, 31680, Note_on_c, 1, 67, 80
1, 31680, Note_on_c, 1, 62, 80
1, 31681, Note_on_c, 0, 71, 0
1, 31682, Note_on_c, 0, 72, 80
1, 31690, Note_on_c, 0, 72, 0
1, 31690, Note_on_c, 0, 71, 80
1, 31698, Note_on_c, 0, 71, 0
1, 31698, Note_on_c, 0, 72, 80
1, 31706, Note_on_c, 0, 72, 0
1, 31706, Note_on_c, 0, 71, 80
1, 31714, Note_on_c, 0, 71, 0
1, 31714, Note_on_c, 0, 69, 80
1, 31722, Note_on_c, 0, 69, 0
1, 31722, Note_on_c, 0, 71, 80
1, 31725, Note_on_c, 1, 67, 0
1, 31725, Note_on_c, 1, 62, 0
1, 31728, Note_on_c, 1, 66, 80
1, 31728, Note_on_c, 1, 62, 80
1, 31730, Note_on_c, 0, 71, 0
1, 31730, Note_on_c, 0, 69, 80
1, 31753, Note_on_c, 0, 69, 0
1, 31754, Note_on_c, 0, 78, 81
1, 31773, Note_on_c, 1, 66, 0
1, 31773, Note_on_c, 1, 62, 0
1, 31777, Note_on_c, 0, 78, 0
1, 31778, Note_on_c, 0, 79, 81
1, 31790, Note_on_c, 0, 79, 0
1, 31790, Note_on_c, 0, 78, 81
1, 31802, Note_on_c, 0, 78, 0
1, 31802, Note_on_c, 0, 79, 81
1, 31814, Note_on_c, 0, 79, 0
1, 31814, Note_on_c, 0, 81, 81
1, 31824, Note_on_c, 1, 67, 81
1, 31824, Note_on_c, 1, 61, 81
1, 31826, Note_on_c, 0, 81, 0
1, 31826, Note_on_c, 0, 83, 81
1, 31849, Note_on_c, 0, 83, 0
1, 31850, Note_on_c, 0, 71, 81
1, 31869, Note_on_c, 1, 67, 0
1, 31869, Note_on_c, 1, 61, 0
1, 31872, Note_on_c, 1, 67, 81
1, 31872, Note_on_c, 0, 62, 64
1, 31873, Note_on_c, 0, 71, 0
1, 31874, Note_on_c, 0, 72, 81
1, 31882, Note_on_c, 0, 72, 0
1, 31882, Note_on_c, 0, 71, 81
1, 31890, Note_on_c, 0, 71, 0
1, 31890, Note_on_c, 0, 72, 81
1, 31898, Note_on_c, 0, 72, 0
1, 31898, Note_on_c, 0, 71, 81
1, 31906, Note_on_c, 0, 71, 0
1, 31906, Note_on_c, 0, 69, 81
1, 31914, Note_on_c, 0, 69, 0
1, 31914, Note_on_c, 0, 71, 81
1, 31917, Note_on_c, 1, 67, 0
1, 31920, Note_on_c, 1, 66, 81
1, 31922, Note_on_c, 0, 71, 0
1, 31922, Note_on_c, 0, 69, 81
1, 31961, Note_on_c, 0, 62, 0
1, 31965, Note_on_c, 1, 66, 0
1, 31967, Note_on_c, 0, 69, 0
1, 31970, Note_on_c, 0, 81, 75
1, 31992, Note_on_c, 1, 62, 81
1, 32004, Note_on_c, 1, 62, 0
1, 32004, Note_on_c, 1, 64, 81
1, 32016, Note_on_c, 1, 64, 0
1, 32016, Note_on_c, 1, 66, 81
1, 32037, Note_on_c, 0, 81, 0
1, 32039, Note_on_c, 1, 66, 0
1, 32040, Note_on_c, 1, 62, 81
1, 32042, Note_on_c, 0, 72, 75
1, 32063, Note_on_c, 1, 62, 0
1, 32064, Note_on_c, 1, 67, 81
1, 32065, Note_on_c, 0, 72, 0
1, 32066, Note_on_c, 0, 71, 75
1, 32078, Note_on_c, 0, 71, 0
1, 32078, Note_on_c, 0, 69, 75
1, 32090, Note_on_c, 0, 69, 0
1, 32090, Note_on_c, 0, 71, 75
1, 32102, Note_on_c, 0, 71, 0
1, 32102, Note_on_c, 0, 72, 75
1, 32109, Note_on_c, 1, 67, 0
1, 32112, Note_on_c, 1, 55, 81
1, 32114, Note_on_c, 0, 72, 0
1, 32114, Note_on_c, 0, 74, 75
1, 32126, Note_on_c, 0, 74, 0
1, 32126, Note_on_c, 0, 72, 75
1, 32138, Note_on_c, 0, 72, 0
1, 32138, Note_on_c, 0, 74, 75
1, 32150, Note_on_c, 0, 74, 0
1, 32150, Note_on_c, 0, 76, 75
1, 32157, Note_on_c, 1, 55, 0
1, 32162, Note_on_c, 0, 76, 0
1, 32162, Note_on_c, 0, 74, 75
1, 32184, Note_on_c, 1, 55, 81
1, 32196, Note_on_c, 1, 55, 0
1, 32196, Note_on_c, 1, 57, 81
1, 32208, Note_on_c, 1, 57, 0
1, 32208, Note_on_c, 1, 59, 81
1, 32229, Note_on_c, 0, 74, 0
1, 32231, Note_on_c, 1, 59, 0
1, 32232, Note_on_c, 1, 55, 81
1, 32234, Note_on_c, 0, 67, 75
1, 32255, Note_on_c, 1, 55, 0
1, 32256, Note_on_c, 1, 62, 81
1, 32257, Note_on_c, 0, 67, 0
1, 32258, Note_on_c, 0, 66, 75
1, 32270, Note_on_c, 0, 66, 0
1, 32270, Note_on_c, 0, 64, 75
1, 32282, Note_on_c, 0, 64, 0
1, 32282, Note_on_c, 0, 66, 75
1, 32294, Note_on_c, 0, 66, 0
1, 32294, Note_on_c, 0, 67, 75
1, 32301, Note_on_c, 1, 62, 0
1, 32304, Note_on_c, 1, 50, 81
1, 32306, Note_on_c, 0, 67, 0
1, 32306, Note_on_c, 0, 69, 75
1, 32318, Note_on_c, 0, 69, 0
1, 32318, Note_on_c, 0, 67, 75
1, 32330, Note_on_c, 0, 67, 0
1, 32330, Note_on_c, 0, 69, 75
1, 32342, Note_on_c, 0, 69, 0
1, 32342, Note_on_c, 0, 71, 75
1, 32349, Note_on_c, 1, 50, 0
1, 32354, Note_on_c, 0, 71, 0
1, 32354, Note_on_c, 0, 72, 75
1, 32376, Note_on_c, 1, 50, 81
1, 32388, Note_on_c, 1, 50, 0
1, 32388, Note_on_c, 1, 52, 81
1, 32400, Note_on_c, 1, 52, 0
1, 32400, Note_on_c, 1, 54, 81
1, 32421, Note_on_c, 0, 72, 0
1, 32423, Note_on_c, 1, 54, 0
1, 32424, Note_on_c, 1, 50, 81
1, 32426, Note_on_c, 0, 60, 75
1, 32447, Note_on_c, 1, 50, 0
1, 32448, Note_on_c, 1, 55, 81
1, 32449, Note_on_c, 0, 60, 0
1, 32450, Note_on_c, 0, 59, 75
1, 32462, Note_on_c, 0, 59, 0
1, 32462, Note_on_c, 0, 57, 75
1, 32474, Note_on_c, 0, 57, 0
1, 32474, Note_on_c, 0, 59, 75
1, 32486, Note_on_c, 0, 59, 0
1, 32486, Note_on_c, 0, 60, 75
1, 32493, Note_on_c, 1, 55, 0
1, 32496, Note_on_c, 1, 43, 81
1, 32498, Note_on_c, 0, 60, 0
1, 32498, Note_on_c, 0, 62, 75
1, 32510, Note_on_c, 0, 62, 0
1, 32510, Note_on_c, 0, 60, 75
1, 32522, Note_on_c, 0, 60, 0
1, 32522, Note_on_c, 0, 62, 75
1, 32534, Note_on_c, 0, 62, 0
1, 32534, Note_on_c, 0, 64, 75
1, 32541, Note_on_c, 1, 43, 0
1, 32546, Note_on_c, 0, 64, 0
1, 32546, Note_on_c, 0, 62, 75
1, 32568, Note_on_c, 1, 43, 81
1, 32580, Note_on_c, 1, 43, 0
1, 32580, Note_on_c, 1, 45, 81
1, 32592, Note_on_c, 1, 45, 0
1, 32592, Note_on_c, 1, 47, 81
1, 32613, Note_on_c, 0, 62, 0
1, 32615, Note_on_c, 1, 47, 0
1, 32616, Note_on_c, 1, 43, 81
1, 32618, Note_on_c, 0, 55, 75
1, 32639, Note_on_c, 1, 43, 0
1, 32640, Note_on_c, 1, 50, 81
1, 32641, Note_on_c, 0, 55, 0
1, 32642, Note_on_c, 0, 54, 75
1, 32654, Note_on_c, 0, 54, 0
1, 32654, Note_on_c, 0, 52, 75
1, 32666, Note_on_c, 0, 52, 0
1, 32666, Note_on_c, 0, 54, 75
1, 32678, Note_on_c, 0, 54, 0
1, 32678, Note_on_c, 0, 55, 75
1, 32685, Note_on_c, 1, 50, 0
1, 32688, Note_on_c, 1, 38, 81
1, 32690, Note_on_c, 0, 55, 0
1, 32690, Note_on_c, 0, 57, 75
1, 32702, Note_on_c, 0, 57, 0
1, 32702, Note_on_c, 0, 55, 75
1, 32714, Note_on_c, 0, 55, 0
1, 32714, Note_on_c, 0, 57, 75
1, 32726, Note_on_c, 0, 57, 0
1, 32726, Note_on_c, 0, 59, 75
1, 32733, Note_on_c, 1, 38, 0
1, 32738, Note_on_c, 0, 59, 0
1, 32738, Note_on_c, 0, 60, 75
1, 32760, Note_on_c, 1, 50, 81
1, 32772, Note_on_c, 1, 50, 0
1, 32772, Note_on_c, 1, 52, 81
1, 32784, Note_on_c, 1, 52, 0
1, 32784, Note_on_c, 1, 54, 81
1, 32805, Note_on_c, 0, 60, 0
1, 32807, Note_on_c, 1, 54, 0
1, 32808, Note_on_c, 1, 50, 81
1, 32810, Note_on_c, 0, 60, 75
1, 32831, Note_on_c, 1, 50, 0
1, 32832, Note_on_c, 1, 55, 75
1, 32833, Note_on_c, 0, 60, 0
1, 32834, Note_on_c, 0, 59, 75
1, 32857, Note_on_c, 0, 59, 0
1, 32858, Note_on_c, 0, 66, 91
1, 32877, Note_on_c, 1, 55, 0
1, 32880, Note_on_c, 1, 43, 75
1, 32906, Note_on_c, 0, 66, 0
1, 32906, Note_on_c, 0, 67, 75
1, 32925, Note_on_c, 1, 43, 0
1, 32928, Note_on_c, 1, 45, 75
1, 32929, Note_on_c, 0, 67, 0
1, 32930, Note_on_c, 0, 60, 75
1, 32953, Note_on_c, 0, 60, 0
1, 32954, Note_on_c, 0, 66, 91
1, 32973, Note_on_c, 1, 45, 0
1, 32976, Note_on_c, 1, 57, 75
1, 33002, Note_on_c, 0, 66, 0
1, 33002, Note_on_c, 0, 67, 75
1, 33021, Note_on_c, 1, 57, 0
1, 33024, Note_on_c, 1, 59, 75
1, 33025, Note_on_c, 0, 67, 0
1, 33026, Note_on_c, 0, 62, 75
1, 33049, Note_on_c, 0, 62, 0
1, 33050, Note_on_c, 0, 66, 75
1, 33069, Note_on_c, 1, 59, 0
1, 33072, Note_on_c, 1, 47, 75
1, 33095, Note_on_c, 0, 66, 0
1, 33098, Note_on_c, 0, 67, 75
1, 33117, Note_on_c, 1, 47, 0
1, 33120, Note_on_c, 1, 48, 75
1, 33121, Note_on_c, 0, 67, 0
1, 33122, Note_on_c, 0, 64, 75
1, 33145, Note_on_c, 0, 64, 0
1, 33146, Note_on_c, 0, 69, 75
1, 33158, Note_on_c, 0, 69, 0
1, 33158, Note_on_c, 0, 71, 75
1, 33165, Note_on_c, 1, 48, 0
1, 33168, Note_on_c, 1, 45, 75
1, 33170, Note_on_c, 0, 71, 0
1, 33170, Note_on_c, 0, 74, 75
1, 33182, Note_on_c, 0, 74, 0
1, 33182, Note_on_c, 0, 72, 75
1, 33194, Note_on_c, 0, 72, 0
1, 33194, Note_on_c, 0, 71, 75
1, 33206, Note_on_c, 0, 71, 0
1, 33206, Note_on_c, 0, 69, 75
1, 33213, Note_on_c, 1, 45, 0
1, 33216, Note_on_c, 1, 50, 75
1, 33218, Note_on_c, 0, 69, 0
1, 33218, Note_on_c, 0, 67, 75
1, 33261, Note_on_c, 1, 50, 0
1, 33263, Note_on_c, 0, 67, 0
1, 33264, Note_on_c, 1, 38, 75
1, 33266, Note_on_c, 0, 67, 75
1, 33274, Note_on_c, 0, 67, 0
1, 33274, Note_on_c, 0, 66, 75
1, 33282, Note_on_c, 0, 66, 0
1, 33282, Note_on_c, 0, 67, 75
1, 33290, Note_on_c, 0, 67, 0
1, 33290, Note_on_c, 0, 66, 75
1, 33298, Note_on_c, 0, 66, 0
1, 33298, Note_on_c, 0, 64, 75
1, 33306, Note_on_c, 0, 64, 0
1, 33306, Note_on_c, 0, 66, 75
1, 33309, Note_on_c, 1, 38, 0
1, 33312, Note_on_c, 1, 54, 66
1, 33312, Note_on_c, 1, 50, 66
1, 33314, Note_on_c, 0, 66, 0
1, 33314, Note_on_c, 0, 76, 75
1, 33334, Note_on_c, 0, 76, 0
1, 33334, Note_on_c, 0, 74, 75
1, 33335, Note_on_c, 1, 54, 0
1, 33335, Note_on_c, 1, 50, 0
1, 33336, Note_on_c, 1, 54, 66
1, 33336, Note_on_c, 1, 50, 66
1, 33344, Note_on_c, 0, 74, 0
1, 33344, Note_on_c, 0, 76, 75
1, 33354, Note_on_c, 0, 76, 0
1, 33354, Note_on_c, 0, 74, 75
1, 33359, Note_on_c, 1, 54, 0
1, 33359, Note_on_c, 1, 50, 0
1, 33360, Note_on_c, 1, 54, 66
1, 33360, Note_on_c, 1, 50, 66
1, 33364, Note_on_c, 0, 74, 0
1, 33364, Note_on_c, 0, 76, 75
1, 33374, Note_on_c, 0, 76, 0
1, 33374, Note_on_c, 0, 74, 75
1, 33383, Note_on_c, 0, 74, 0
1, 33383, Note_on_c, 0, 76, 75
1, 33383, Note_on_c, 1, 54, 0
1, 33383, Note_on_c, 1, 50, 0
1, 33384, Note_on_c, 1, 54, 66
1, 33384, Note_on_c, 1, 50, 66
1, 33392, Note_on_c, 0, 76, 0
1, 33392, Note_on_c, 0, 74, 75
1, 33401, Note_on_c, 0, 74, 0
1, 33401, Note_on_c, 0, 76, 75
1, 33407, Note_on_c, 1, 54, 0
1, 33407, Note_on_c, 1, 50, 0
1, 33408, Note_on_c, 1, 55, 66
1, 33408, Note_on_c, 1, 50, 66
1, 33410, Note_on_c, 0, 76, 0
1, 33410, Note_on_c, 0, 74, 75
1, 33420, Note_on_c, 0, 74, 0
1, 33420, Note_on_c, 0, 73, 75
1, 33430, Note_on_c, 0, 73, 0
1, 33430, Note_on_c, 0, 74, 75
1, 33431, Note_on_c, 1, 55, 0
1, 33431, Note_on_c, 1, 50, 0
1, 33432, Note_on_c, 1, 55, 66
1, 33432, Note_on_c, 1, 50, 66
1, 33440, Note_on_c, 0, 74, 0
1, 33440, Note_on_c, 0, 73, 75
1, 33450, Note_on_c, 0, 73, 0
1, 33450, Note_on_c, 0, 74, 75
1, 33455, Note_on_c, 1, 55, 0
1, 33455, Note_on_c, 1, 50, 0
1, 33456, Note_on_c, 1, 55, 66
1, 33456, Note_on_c, 1, 50, 66
1, 33460, Note_on_c, 0, 74, 0
1, 33460, Note_on_c, 0, 73, 75
1, 33470, Note_on_c, 0, 73, 0
1, 33470, Note_on_c, 0, 74, 75
1, 33479, Note_on_c, 0, 74, 0
1, 33479, Note_on_c, 0, 73, 75
1, 33479, Note_on_c, 1, 55, 0
1, 33479, Note_on_c, 1, 50, 0
1, 33480, Note_on_c, 1, 55, 66
1, 33480, Note_on_c, 1, 50, 66
1, 33488, Note_on_c, 0, 73, 0
1, 33488, Note_on_c, 0, 74, 75
1, 33497, Note_on_c, 0, 74, 0
1, 33497, Note_on_c, 0, 73, 75
1, 33503, Note_on_c, 1, 55, 0
1, 33503, Note_on_c, 1, 50, 0
1, 33504, Note_on_c, 1, 57, 66
1, 33504, Note_on_c, 1, 50, 66
1, 33506, Note_on_c, 0, 73, 0
1, 33506, Note_on_c, 0, 74, 75
1, 33516, Note_on_c, 0, 74, 0
1, 33516, Note_on_c, 0, 72, 75
1, 33526, Note_on_c, 0, 72, 0
1, 33526, Note_on_c, 0, 74, 75
1, 33527, Note_on_c, 1, 57, 0
1, 33527, Note_on_c, 1, 50, 0
1, 33528, Note_on_c, 1, 57, 66
1, 33528, Note_on_c, 1, 50, 66
1, 33536, Note_on_c, 0, 74, 0
1, 33536, Note_on_c, 0, 72, 75
1, 33546, Note_on_c, 0, 72, 0
1, 33546, Note_on_c, 0, 74, 75
1, 33551, Note_on_c, 1, 57, 0
1, 33551, Note_on_c, 1, 50, 0
1, 33552, Note_on_c, 1, 57, 66
1, 33552, Note_on_c, 1, 50, 66
1, 33556, Note_on_c, 0, 74, 0
1, 33556, Note_on_c, 0, 72, 75
1, 33566, Note_on_c, 0, 72, 0
1, 33566, Note_on_c, 0, 74, 75
1, 33575, Note_on_c, 0, 74, 0
1, 33575, Note_on_c, 0, 72, 75
1, 33575, Note_on_c, 1, 57, 0
1, 33575, Note_on_c, 1, 50, 0
1, 33576, Note_on_c, 1, 57, 66
1, 33576, Note_on_c, 1, 50, 66
1, 33584, Note_on_c, 0, 72, 0
1, 33584, Note_on_c, 0, 74, 75
1, 33593, Note_on_c, 0, 74, 0
1, 33593, Note_on_c, 0, 72, 75
1, 33599, Note_on_c, 1, 57, 0
1, 33599, Note_on_c, 1, 50, 0
1, 33600, Note_on_c, 1, 55, 66
1, 33600, Note_on_c, 1, 50, 66
1, 33602, Note_on_c, 0, 72, 0
1, 33602, Note_on_c, 0, 71, 75
1, 33612, Note_on_c, 0, 71, 0
1, 33612, Note_on_c, 0, 72, 75
1, 33622, Note_on_c, 0, 72, 0
1, 33622, Note_on_c, 0, 71, 75
1, 33623, Note_on_c, 1, 55, 0
1, 33623, Note_on_c, 1, 50, 0
1, 33624, Note_on_c, 1, 55, 66
1, 33624, Note_on_c, 1, 50, 66
1, 33632, Note_on_c, 0, 71, 0
1, 33632, Note_on_c, 0, 72, 75
1, 33642, Note_on_c, 0, 72, 0
1, 33642, Note_on_c, 0, 71, 75
1, 33647, Note_on_c, 1, 55, 0
1, 33647, Note_on_c, 1, 50, 0
1, 33648, Note_on_c, 1, 55, 66
1, 33648, Note_on_c, 1, 50, 66
1, 33652, Note_on_c, 0, 71, 0
1, 33652, Note_on_c, 0, 72, 75
1, 33662, Note_on_c, 0, 72, 0
1, 33662, Note_on_c, 0, 71, 75
1, 33671, Note_on_c, 0, 71, 0
1, 33671, Note_on_c, 0, 72, 75
1, 33671, Note_on_c, 1, 55, 0
1, 33671, Note_on_c, 1, 50, 0
1, 33672, Note_on_c, 1, 55, 66
1, 33672, Note_on_c, 1, 50, 66
1, 33680, Note_on_c, 0, 72, 0
1, 33680, Note_on_c, 0, 71, 75
1, 33689, Note_on_c, 0, 71, 0
1, 33689, Note_on_c, 0, 72, 75
1, 33695, Note_on_c, 1, 55, 0
1, 33695, Note_on_c, 1, 50, 0
1, 33696, Note_on_c, 1, 55, 66
1, 33696, Note_on_c, 1, 49, 66
1, 33698, Note_on_c, 0, 72, 0
1, 33698, Note_on_c, 0, 70, 75
1, 33708, Note_on_c, 0, 70, 0
1, 33708, Note_on_c, 0, 72, 75
1, 33718, Note_on_c, 0, 72, 0
1, 33718, Note_on_c, 0, 70, 75
1, 33719, Note_on_c, 1, 55, 0
1, 33719, Note_on_c, 1, 49, 0
1, 33720, Note_on_c, 1, 55, 66
1, 33720, Note_on_c, 1, 49, 66
1, 33728, Note_on_c, 0, 70, 0
1, 33728, Note_on_c, 0, 72, 75
1, 33738, Note_on_c, 0, 72, 0
1, 33738, Note_on_c, 0, 70, 75
1, 33743, Note_on_c, 1, 55, 0
1, 33743, Note_on_c, 1, 49, 0
1, 33744, Note_on_c, 1, 55, 66
1, 33744, Note_on_c, 1, 49, 66
1, 33748, Note_on_c, 0, 70, 0
1, 33748, Note_on_c, 0, 72, 75
1, 33758, Note_on_c, 0, 72, 0
1, 33758, Note_on_c, 0, 70, 75
1, 33767, Note_on_c, 0, 70, 0
1, 33767, Note_on_c, 0, 72, 75
1, 33767, Note_on_c, 1, 55, 0
1, 33767, Note_on_c, 1, 49, 0
1, 33768, Note_on_c, 1, 55, 66
1, 33768, Note_on_c, 1, 49, 66
1, 33776, Note_on_c, 0, 72, 0
1, 33776, Note_on_c, 0, 69, 75
1, 33785, Note_on_c, 0, 69, 0
1, 33785, Note_on_c, 0, 70, 75
1, 33791, Note_on_c, 1, 55, 0
1, 33791, Note_on_c, 1, 49, 0
1, 33792, Note_on_c, 1, 54, 66
1, 33792, Note_on_c, 1, 50, 66
1, 33794, Note_on_c, 0, 70, 0
1, 33794, Note_on_c, 0, 69, 75
1, 33815, Note_on_c, 1, 54, 0
1, 33815, Note_on_c, 1, 50, 0
1, 33816, Note_on_c, 1, 54, 66
1, 33816, Note_on_c, 1, 50, 66
1, 33839, Note_on_c, 0, 69, 0
1, 33839, Note_on_c, 1, 54, 0
1, 33839, Note_on_c, 1, 50, 0
1, 33840, Note_on_c, 1, 54, 66
1, 33840, Note_on_c, 1, 50, 66
1, 33842, Note_on_c, 0, 74, 75
1, 33863, Note_on_c, 1, 54, 0
1, 33863, Note_on_c, 1, 50, 0
1, 33864, Note_on_c, 1, 54, 66
1, 33864, Note_on_c, 1, 50, 66
1, 33887, Note_on_c, 0, 74, 0
1, 33887, Note_on_c, 1, 54, 0
1, 33887, Note_on_c, 1, 50, 0
1, 33888, Note_on_c, 1, 55, 66
1, 33888, Note_on_c, 1, 49, 66
1, 33890, Note_on_c, 0, 72, 75
1, 33900, Note_on_c, 0, 72, 0
1, 33900, Note_on_c, 0, 70, 75
1, 33910, Note_on_c, 0, 70, 0
1, 33910, Note_on_c, 0, 72, 75
1, 33911, Note_on_c, 1, 55, 0
1, 33911, Note_on_c, 1, 49, 0
1, 33912, Note_on_c, 1, 55, 66
1, 33912, Note_on_c, 1, 49, 66
1, 33920, Note_on_c, 0, 72, 0
1, 33920, Note_on_c, 0, 70, 75
1, 33930, Note_on_c, 0, 70, 0
1, 33930, Note_on_c, 0, 72, 75
1, 33935, Note_on_c, 1, 55, 0
1, 33935, Note_on_c, 1, 49, 0
1, 33936, Note_on_c, 1, 55, 66
1, 33936, Note_on_c, 1, 49, 66
1, 33940, Note_on_c, 0, 72, 0
1, 33940, Note_on_c, 0, 70, 75
1, 33950, Note_on_c, 0, 70, 0
1, 33950, Note_on_c, 0, 72, 75
1, 33959, Note_on_c, 0, 72, 0
1, 33959, Note_on_c, 0, 70, 75
1, 33959, Note_on_c, 1, 55, 0
1, 33959, Note_on_c, 1, 49, 0
1, 33960, Note_on_c, 1, 55, 66
1, 33960, Note_on_c, 1, 49, 66
1, 33968, Note_on_c, 0, 70, 0
1, 33968, Note_on_c, 0, 69, 75
1, 33977, Note_on_c, 0, 69, 0
1, 33977, Note_on_c, 0, 70, 75
1, 33983, Note_on_c, 1, 55, 0
1, 33983, Note_on_c, 1, 49, 0
1, 33984, Note_on_c, 1, 54, 66
1, 33984, Note_on_c, 1, 50, 66
1, 33986, Note_on_c, 0, 70, 0
1, 33986, Note_on_c, 0, 69, 75
1, 34029, Note_on_c, 1, 54, 0
1, 34029, Note_on_c, 1, 50, 0
1, 34031, Note_on_c, 0, 69, 0
1, 34070, Note_on_c, 0, 67, 75
1, 34075, Note_on_c, 0, 67, 0
1, 34080, Note_on_c, 1, 47, 66
1, 34082, Note_on_c, 0, 62, 75
1, 34095, Note_on_c, 1, 47, 0
1, 34096, Note_on_c, 1, 50, 66
1, 34111, Note_on_c, 1, 50, 0
1, 34112, Note_on_c, 1, 55, 66
1, 34127, Note_on_c, 0, 62, 0
1, 34127, Note_on_c, 1, 55, 0
1, 34128, Note_on_c, 1, 48, 66
1, 34130, Note_on_c, 0, 66, 75
1, 34138, Note_on_c, 0, 66, 0
1, 34138, Note_on_c, 0, 64, 75
1, 34143, Note_on_c, 1, 48, 0
1, 34144, Note_on_c, 1, 52, 66
1, 34146, Note_on_c, 0, 64, 0
1, 34146, Note_on_c, 0, 66, 75
1, 34154, Note_on_c, 0, 66, 0
1, 34154, Note_on_c, 0, 64, 75
1, 34159, Note_on_c, 1, 52, 0
1, 34160, Note_on_c, 1, 55, 66
1, 34162, Note_on_c, 0, 64, 0
1, 34162, Note_on_c, 0, 62, 75
1, 34170, Note_on_c, 0, 62, 0
1, 34170, Note_on_c, 0, 64, 75
1, 34175, Note_on_c, 1, 55, 0
1, 34176, Note_on_c, 1, 47, 66
1, 34178, Note_on_c, 0, 64, 0
1, 34178, Note_on_c, 0, 62, 75
1, 34193, Note_on_c, 0, 62, 0
1, 34194, Note_on_c, 0, 74, 75
1, 34209, Note_on_c, 0, 74, 0
1, 34210, Note_on_c, 0, 72, 75
1, 34225, Note_on_c, 0, 72, 0
1, 34226, Note_on_c, 0, 71, 75
1, 34241, Note_on_c, 0, 71, 0
1, 34242, Note_on_c, 0, 69, 75
1, 34257, Note_on_c, 0, 69, 0
1, 34258, Note_on_c, 0, 67, 75
1, 34265, Note_on_c, 1, 47, 0
1, 34272, Note_on_c, 1, 47, 66
1, 34273, Note_on_c, 0, 67, 0
1, 34274, Note_on_c, 0, 62, 75
1, 34287, Note_on_c, 1, 47, 0
1, 34288, Note_on_c, 1, 50, 66
1, 34294, Note_on_c, 0, 62, 0
1, 34303, Note_on_c, 1, 50, 0
1, 34304, Note_on_c, 1, 55, 66
1, 34319, Note_on_c, 1, 55, 0
1, 34320, Note_on_c, 1, 48, 66
1, 34322, Note_on_c, 0, 66, 75
1, 34330, Note_on_c, 0, 66, 0
1, 34330, Note_on_c, 0, 64, 75
1, 34335, Note_on_c, 1, 48, 0
1, 34336, Note_on_c, 1, 52, 66
1, 34338, Note_on_c, 0, 64, 0
1, 34338, Note_on_c, 0, 66, 75
1, 34346, Note_on_c, 0, 66, 0
1, 34346, Note_on_c, 0, 64, 75
1, 34351, Note_on_c, 1, 52, 0
1, 34352, Note_on_c, 1, 55, 66
1, 34354, Note_on_c, 0, 64, 0
1, 34354, Note_on_c, 0, 62, 75
1, 34362, Note_on_c, 0, 62, 0
1, 34362, Note_on_c, 0, 64, 75
1, 34367, Note_on_c, 1, 55, 0
1, 34368, Note_on_c, 1, 47, 66
1, 34370, Note_on_c, 0, 64, 0
1, 34370, Note_on_c, 0, 62, 75
1, 34377, Note_on_c, 0, 62, 0
1, 34386, Note_on_c, 0, 74, 75
1, 34401, Note_on_c, 0, 74, 0
1, 34402, Note_on_c, 0, 72, 75
1, 34417, Note_on_c, 0, 72, 0
1, 34418, Note_on_c, 0, 71, 75
1, 34433, Note_on_c, 0, 71, 0
1, 34434, Note_on_c, 0, 69, 75
1, 34449, Note_on_c, 0, 69, 0
1, 34450, Note_on_c, 0, 67, 75
1, 34457, Note_on_c, 1, 47, 0
1, 34464, Note_on_c, 1, 48, 66
1, 34464, Note_on_c, 1, 36, 66
1, 34465, Note_on_c, 0, 67, 0
1, 34466, Note_on_c, 0, 64, 75
1, 34481, Note_on_c, 0, 64, 0
1, 34482, Note_on_c, 0, 76, 75
1, 34497, Note_on_c, 0, 76, 0
1, 34498, Note_on_c, 0, 74, 75
1, 34513, Note_on_c, 0, 74, 0
1, 34514, Note_on_c, 0, 72, 75
1, 34529, Note_on_c, 0, 72, 0
1, 34530, Note_on_c, 0, 71, 75
1, 34545, Note_on_c, 0, 71, 0
1, 34546, Note_on_c, 0, 69, 75
1, 34553, Note_on_c, 1, 48, 0
1, 34553, Note_on_c, 1, 36, 0
1, 34561, Note_on_c, 0, 69, 0
1, 34562, Note_on_c, 0, 71, 75
1, 34577, Note_on_c, 0, 71, 0
1, 34578, Note_on_c, 0, 72, 75
1, 34593, Note_on_c, 0, 72, 0
1, 34594, Note_on_c, 0, 74, 75
1, 34608, Note_on_c, 1, 52, 66
1, 34608, Note_on_c, 1, 40, 66
1, 34609, Note_on_c, 0, 74, 0
1, 34610, Note_on_c, 0, 67, 75
1, 34625, Note_on_c, 0, 67, 0
1, 34626, Note_on_c, 0, 72, 75
1, 34641, Note_on_c, 0, 72, 0
1, 34642, Note_on_c, 0, 69, 75
1, 34653, Note_on_c, 1, 52, 0
1, 34653, Note_on_c, 1, 40, 0
1, 34656, Note_on_c, 1, 48, 66
1, 34656, Note_on_c, 1, 36, 66
1, 34657, Note_on_c, 0, 69, 0
1, 34658, Note_on_c, 0, 71, 75
1, 34668, Note_on_c, 0, 71, 0
1, 34668, Note_on_c, 0, 69, 75
1, 34678, Note_on_c, 0, 69, 0
1, 34678, Note_on_c, 0, 71, 75
1, 34688, Note_on_c, 0, 71, 0
1, 34688, Note_on_c, 0, 69, 75
1, 34698, Note_on_c, 0, 69, 0
1, 34698, Note_on_c, 0, 71, 75
1, 34701, Note_on_c, 1, 48, 0
1, 34701, Note_on_c, 1, 36, 0
1, 34704, Note_on_c, 1, 50, 66
1, 34704, Note_on_c, 1, 38, 66
1, 34708, Note_on_c, 0, 71, 0
1, 34708, Note_on_c, 0, 69, 75
1, 34718, Note_on_c, 0, 69, 0
1, 34718, Note_on_c, 0, 71, 75
1, 34727, Note_on_c, 0, 71, 0
1, 34727, Note_on_c, 0, 69, 75
1, 34736, Note_on_c, 0, 69, 0
1, 34736, Note_on_c, 0, 67, 75
1, 34745, Note_on_c, 0, 67, 0
1, 34745, Note_on_c, 0, 69, 75
1, 34749, Note_on_c, 1, 50, 0
1, 34749, Note_on_c, 1, 38, 0
1, 34752, Note_on_c, 1, 43, 66
1, 34754, Note_on_c, 0, 69, 0
1, 34754, Note_on_c, 0, 67, 75
1, 34797, Note_on_c, 1, 43, 0
1, 34800, Note_on_c, 1, 31, 66
1, 34843, Note_on_c, 0, 67, 0
1, 34845, Note_on_c, 1, 31, 0
1, 34848, Note_on_c, 1, 54, 66
1, 34850, Note_on_c, 0, 86, 70
1, 34863, Note_on_c, 1, 54, 0
1, 34864, Note_on_c, 1, 57, 66
1, 34879, Note_on_c, 1, 57, 0
1, 34880, Note_on_c, 1, 62, 66
1, 34895, Note_on_c, 1, 62, 0
1, 34896, Note_on_c, 1, 54, 66
1, 34911, Note_on_c, 1, 54, 0
1, 34912, Note_on_c, 1, 57, 66
1, 34917, Note_on_c, 0, 86, 0
1, 34922, Note_on_c, 0, 84, 70
1, 34927, Note_on_c, 1, 57, 0
1, 34928, Note_on_c, 1, 62, 66
1, 34930, Note_on_c, 0, 84, 0
1, 34930, Note_on_c, 0, 82, 70
1, 34938, Note_on_c, 0, 82, 0
1, 34938, Note_on_c, 0, 81, 70
1, 34943, Note_on_c, 1, 62, 0
1, 34944, Note_on_c, 1, 55, 66
1, 34946, Note_on_c, 0, 81, 0
1, 34946, Note_on_c, 0, 84, 70
1, 34954, Note_on_c, 0, 84, 0
1, 34954, Note_on_c, 0, 82, 70
1, 34959, Note_on_c, 1, 55, 0
1, 34960, Note_on_c, 1, 58, 66
1, 34962, Note_on_c, 0, 82, 0
1, 34962, Note_on_c, 0, 84, 70
1, 34970, Note_on_c, 0, 84, 0
1, 34970, Note_on_c, 0, 82, 70
1, 34975, Note_on_c, 1, 58, 0
1, 34976, Note_on_c, 1, 62, 66
1, 34978, Note_on_c, 0, 82, 0
1, 34978, Note_on_c, 0, 81, 70
1, 34986, Note_on_c, 0, 81, 0
1, 34986, Note_on_c, 0, 82, 70
1, 34991, Note_on_c, 1, 62, 0
1, 34992, Note_on_c, 1, 54, 66
1, 34994, Note_on_c, 0, 82, 0
1, 34994, Note_on_c, 0, 81, 70
1, 35007, Note_on_c, 1, 54, 0
1, 35008, Note_on_c, 1, 57, 66
1, 35023, Note_on_c, 1, 57, 0
1, 35024, Note_on_c, 1, 62, 66
1, 35039, Note_on_c, 0, 81, 0
1, 35039, Note_on_c, 1, 62, 0
1, 35040, Note_on_c, 1, 54, 66
1, 35042, Note_on_c, 0, 86, 66
1, 35055, Note_on_c, 1, 54, 0
1, 35056, Note_on_c, 1, 57, 66
1, 35071, Note_on_c, 1, 57, 0
1, 35072, Note_on_c, 1, 62, 66
1, 35087, Note_on_c, 1, 62, 0
1, 35088, Note_on_c, 1, 54, 66
1, 35103, Note_on_c, 1, 54, 0
1, 35104, Note_on_c, 1, 57, 66
1, 35109, Note_on_c, 0, 86, 0
1, 35114, Note_on_c, 0, 84, 66
1, 35119, Note_on_c, 1, 57, 0
1, 35120, Note_on_c, 1, 62, 66
1, 35122, Note_on_c, 0, 84, 0
1, 35122, Note_on_c, 0, 82, 66
1, 35130, Note_on_c, 0, 82, 0
1, 35130, Note_on_c, 0, 81, 66
1, 35135, Note_on_c, 1, 62, 0
1, 35136, Note_on_c, 1, 55, 66
1, 35138, Note_on_c, 0, 81, 0
1, 35138, Note_on_c, 0, 84, 66
1, 35146, Note_on_c, 0, 84, 0
1, 35146, Note_on_c, 0, 82, 66
1, 35151, Note_on_c, 1, 55, 0
1, 35152, Note_on_c, 1, 58, 66
1, 35154, Note_on_c, 0, 82, 0
1, 35154, Note_on_c, 0, 84, 66
1, 35162, Note_on_c, 0, 84, 0
1, 35162, Note_on_c, 0, 82, 66
1, 35167, Note_on_c, 1, 58, 0
1, 35168, Note_on_c, 1, 62, 66
1, 35170, Note_on_c, 0, 82, 0
1, 35170, Note_on_c, 0, 81, 66
1, 35178, Note_on_c, 0, 81, 0
1, 35178, Note_on_c, 0, 82, 66
1, 35183, Note_on_c, 1, 62, 0
1, 35184, Note_on_c, 1, 54, 66
1, 35186, Note_on_c, 0, 82, 0
1, 35186, Note_on_c, 0, 81, 66
1, 35199, Note_on_c, 1, 54, 0
1, 35200, Note_on_c, 1, 57, 66
1, 35215, Note_on_c, 1, 57, 0
1, 35216, Note_on_c, 1, 62, 66
1, 35231, Note_on_c, 0, 81, 0
1, 35231, Note_on_c, 1, 62, 0
1, 35232, Note_on_c, 1, 54, 66
1, 35234, Note_on_c, 0, 86, 70
1, 35247, Note_on_c, 1, 54, 0
1, 35248, Note_on_c, 1, 57, 66
1, 35263, Note_on_c, 1, 57, 0
1, 35264, Note_on_c, 1, 62, 66
1, 35279, Note_on_c, 1, 62, 0
1, 35280, Note_on_c, 1, 54, 66
1, 35295, Note_on_c, 1, 54, 0
1, 35296, Note_on_c, 1, 57, 66
1, 35301, Note_on_c, 0, 86, 0
1, 35306, Note_on_c, 0, 84, 70
1, 35311, Note_on_c, 1, 57, 0
1, 35312, Note_on_c, 1, 62, 66
1, 35314, Note_on_c, 0, 84, 0
1, 35314, Note_on_c, 0, 82, 70
1, 35322, Note_on_c, 0, 82, 0
1, 35322, Note_on_c, 0, 81, 70
1, 35327, Note_on_c, 1, 62, 0
1, 35328, Note_on_c, 1, 55, 66
1, 35330, Note_on_c, 0, 81, 0
1, 35330, Note_on_c, 0, 82, 70
1, 35343, Note_on_c, 1, 55, 0
1, 35344, Note_on_c, 1, 58, 66
1, 35359, Note_on_c, 1, 58, 0
1, 35360, Note_on_c, 1, 62, 66
1, 35375, Note_on_c, 0, 82, 0
1, 35375, Note_on_c, 1, 62, 0
1, 35376, Note_on_c, 1, 55, 66
1, 35378, Note_on_c, 0, 79, 70
1, 35391, Note_on_c, 1, 55, 0
1, 35392, Note_on_c, 1, 58, 66
1, 35407, Note_on_c, 1, 58, 0
1, 35408, Note_on_c, 1, 62, 66
1, 35412, Note_on_c, 0, 79, 0
1, 35414, Note_on_c, 0, 81, 70
1, 35423, Note_on_c, 1, 62, 0
1, 35424, Note_on_c, 1, 55, 66
1, 35426, Note_on_c, 0, 81, 0
1, 35426, Note_on_c, 0, 82, 70
1, 35439, Note_on_c, 1, 55, 0
1, 35440, Note_on_c, 1, 58, 66
1, 35455, Note_on_c, 1, 58, 0
1, 35456, Note_on_c, 1, 62, 66
1, 35460, Note_on_c, 0, 82, 0
1, 35462, Note_on_c, 0, 81, 70
1, 35471, Note_on_c, 1, 62, 0
1, 35472, Note_on_c, 1, 55, 66
1, 35474, Note_on_c, 0, 81, 0
1, 35474, Note_on_c, 0, 82, 70
1, 35487, Note_on_c, 1, 55, 0
1, 35488, Note_on_c, 1, 58, 66
1, 35503, Note_on_c, 1, 58, 0
1, 35504, Note_on_c, 1, 62, 66
1, 35508, Note_on_c, 0, 82, 0
1, 35510, Note_on_c, 0, 84, 70
1, 35519, Note_on_c, 1, 62, 0
1, 35520, Note_on_c, 1, 50, 66
1, 35522, Note_on_c, 0, 84, 0
1, 35522, Note_on_c, 0, 86, 70
1, 35565, Note_on_c, 1, 50, 0
1, 35567, Note_on_c, 0, 86, 0
1, 35606, Note_on_c, 0, 67, 70
1, 35611, Note_on_c, 0, 67, 0
1, 35616, Note_on_c, 1, 47, 75
1, 35618, Note_on_c, 0, 62, 75
1, 35631, Note_on_c, 1, 47, 0
1, 35632, Note_on_c, 1, 50, 75
1, 35647, Note_on_c, 1, 50, 0
1, 35648, Note_on_c, 1, 55, 75
1, 35663, Note_on_c, 0, 62, 0
1, 35663, Note_on_c, 1, 55, 0
1, 35664, Note_on_c, 1, 48, 75
1, 35666, Note_on_c, 0, 66, 75
1, 35674, Note_on_c, 0, 66, 0
1, 35674, Note_on_c, 0, 64, 75
1, 35679, Note_on_c, 1, 48, 0
1, 35680, Note_on_c, 1, 52, 75
1, 35682, Note_on_c, 0, 64, 0
1, 35682, Note_on_c, 0, 66, 75
1, 35690, Note_on_c, 0, 66, 0
1, 35690, Note_on_c, 0, 64, 75
1, 35695, Note_on_c, 1, 52, 0
1, 35696, Note_on_c, 1, 55, 75
1, 35698, Note_on_c, 0, 64, 0
1, 35698, Note_on_c, 0, 62, 75
1, 35706, Note_on_c, 0, 62, 0
1, 35706, Note_on_c, 0, 64, 75
1, 35711, Note_on_c, 1, 55, 0
1, 35712, Note_on_c, 1, 47, 75
1, 35714, Note_on_c, 0, 64, 0
1, 35714, Note_on_c, 0, 62, 75
1, 35729, Note_on_c, 0, 62, 0
1, 35730, Note_on_c, 0, 74, 75
1, 35745, Note_on_c, 0, 74, 0
1, 35746, Note_on_c, 0, 72, 75
1, 35761, Note_on_c, 0, 72, 0
1, 35762, Note_on_c, 0, 71, 75
1, 35777, Note_on_c, 0, 71, 0
1, 35778, Note_on_c, 0, 69, 75
1, 35793, Note_on_c, 0, 69, 0
1, 35794, Note_on_c, 0, 67, 75
1, 35801, Note_on_c, 1, 47, 0
1, 35808, Note_on_c, 1, 47, 75
1, 35809, Note_on_c, 0, 67, 0
1, 35810, Note_on_c, 0, 62, 75
1, 35823, Note_on_c, 1, 47, 0
1, 35824, Note_on_c, 1, 50, 75
1, 35830, Note_on_c, 0, 62, 0
1, 35839, Note_on_c, 1, 50, 0
1, 35840, Note_on_c, 1, 55, 75
1, 35855, Note_on_c, 1, 55, 0
1, 35856, Note_on_c, 1, 48, 75
1, 35858, Note_on_c, 0, 66, 75
1, 35866, Note_on_c, 0, 66, 0
1, 35866, Note_on_c, 0, 64, 75
1, 35871, Note_on_c, 1, 48, 0
1, 35872, Note_on_c, 1, 52, 75
1, 35874, Note_on_c, 0, 64, 0
1, 35874, Note_on_c, 0, 66, 75
1, 35882, Note_on_c, 0, 66, 0
1, 35882, Note_on_c, 0, 64, 75
1, 35887, Note_on_c, 1, 52, 0
1, 35888, Note_on_c, 1, 55, 75
1, 35890, Note_on_c, 0, 64, 0
1, 35890, Note_on_c, 0, 62, 75
1, 35898, Note_on_c, 0, 62, 0
1, 35898, Note_on_c, 0, 64, 75
1, 35903, Note_on_c, 1, 55, 0
1, 35904, Note_on_c, 1, 47, 75
1, 35906, Note_on_c, 0, 64, 0
1, 35906, Note_on_c, 0, 62, 75
1, 35913, Note_on_c, 0, 62, 0
1, 35922, Note_on_c, 0, 74, 75
1, 35937, Note_on_c, 0, 74, 0
1, 35938, Note_on_c, 0, 72, 75
1, 35953, Note_on_c, 0, 72, 0
1, 35954, Note_on_c, 0, 71, 75
1, 35969, Note_on_c, 0, 71, 0
1, 35970, Note_on_c, 0, 69, 75
1, 35985, Note_on_c, 0, 69, 0
1, 35986, Note_on_c, 0, 67, 75
1, 35993, Note_on_c, 1, 47, 0
1, 36000, Note_on_c, 1, 48, 75
1, 36000, Note_on_c, 1, 36, 75
1, 36001, Note_on_c, 0, 67, 0
1, 36002, Note_on_c, 0, 64, 75
1, 36017, Note_on_c, 0, 64, 0
1, 36018, Note_on_c, 0, 76, 75
1, 36033, Note_on_c, 0, 76, 0
1, 36034, Note_on_c, 0, 74, 75
1, 36049, Note_on_c, 0, 74, 0
1, 36050, Note_on_c, 0, 72, 75
1, 36065, Note_on_c, 0, 72, 0
1, 36066, Note_on_c, 0, 71, 75
1, 36081, Note_on_c, 0, 71, 0
1, 36082, Note_on_c, 0, 69, 75
1, 36089, Note_on_c, 1, 48, 0
1, 36089, Note_on_c, 1, 36, 0
1, 36097, Note_on_c, 0, 69, 0
1, 36098, Note_on_c, 0, 71, 75
1, 36113, Note_on_c, 0, 71, 0
1, 36114, Note_on_c, 0, 72, 75
1, 36129, Note_on_c, 0, 72, 0
1, 36130, Note_on_c, 0, 74, 75
1, 36144, Note_on_c, 1, 52, 75
1, 36144, Note_on_c, 1, 40, 75
1, 36145, Note_on_c, 0, 74, 0
1, 36146, Note_on_c, 0, 67, 75
1, 36161, Note_on_c, 0, 67, 0
1, 36162, Note_on_c, 0, 72, 75
1, 36177, Note_on_c, 0, 72, 0
1, 36178, Note_on_c, 0, 69, 75
1, 36189, Note_on_c, 1, 52, 0
1, 36189, Note_on_c, 1, 40, 0
1, 36192, Note_on_c, 1, 48, 75
1, 36192, Note_on_c, 1, 36, 75
1, 36193, Note_on_c, 0, 69, 0
1, 36194, Note_on_c, 0, 71, 75
1, 36204, Note_on_c, 0, 71, 0
1, 36204, Note_on_c, 0, 69, 75
1, 36214, Note_on_c, 0, 69, 0
1, 36214, Note_on_c, 0, 71, 75
1, 36224, Note_on_c, 0, 71, 0
1, 36224, Note_on_c, 0, 69, 75
1, 36234, Note_on_c, 0, 69, 0
1, 36234, Note_on_c, 0, 71, 75
1, 36237, Note_on_c, 1, 48, 0
1, 36237, Note_on_c, 1, 36, 0
1, 36240, Note_on_c, 1, 50, 75
1, 36240, Note_on_c, 1, 38, 75
1, 36244, Note_on_c, 0, 71, 0
1, 36244, Note_on_c, 0, 69, 75
1, 36254, Note_on_c, 0, 69, 0
1, 36254, Note_on_c, 0, 71, 75
1, 36263, Note_on_c, 0, 71, 0
1, 36263, Note_on_c, 0, 69, 75
1, 36272, Note_on_c, 0, 69, 0
1, 36272, Note_on_c, 0, 67, 75
1, 36281, Note_on_c, 0, 67, 0
1, 36281, Note_on_c, 0, 69, 75
1, 36285, Note_on_c, 1, 50, 0
1, 36285, Note_on_c, 1, 38, 0
1, 36288, Note_on_c, 1, 43, 75
1, 36290, Note_on_c, 0, 69, 0
1, 36290, Note_on_c, 0, 67, 75
1, 36333, Note_on_c, 1, 43, 0
1, 36336, Note_on_c, 1, 38, 75
1, 36379, Note_on_c, 0, 67, 0
1, 36381, Note_on_c, 1, 38, 0
1, 36384, Note_on_c, 1, 31, 75
1, 36429, Note_on_c, 1, 31, 0
1, 36432, Note_on_c, 1, 31, 0
1, 36477, Note_on_c, 1, 31, 0
1, 36487, End_track
0, 0, End_of_file