0, 0, Header, 0, 1, 120
1, 0, Start_track
1, 0, Tempo, 375000
1, 840, Note_on_c, 0, 72, 53
1, 930, Note_on_c, 0, 72, 0
1, 930, Note_on_c, 0, 76, 53
1, 960, Note_on_c, 0, 76, 0
1, 960, Note_on_c, 0, 79, 53
1, 960, Note_on_c, 0, 64, 50
1, 960, Note_on_c, 0, 60, 50
1, 990, Note_on_c, 0, 79, 0
1, 1080, Note_on_c, 0, 79, 53
1, 1080, Note_on_c, 0, 60, 0
1, 1080, Note_on_c, 0, 64, 0
1, 1110, Note_on_c, 0, 79, 0
1, 1200, Note_on_c, 0, 79, 53
1, 1230, Note_on_c, 0, 79, 0
1, 1320, Note_on_c, 0, 83, 53
1, 1330, Note_on_c, 0, 84, 53
1, 1350, Note_on_c, 0, 83, 0
1, 1440, Note_on_c, 0, 84, 0
1, 1440, Note_on_c, 0, 79, 53
1, 1440, Note_on_c, 0, 64, 50
1, 1440, Note_on_c, 0, 60, 50
1, 1470, Note_on_c, 0, 79, 0
1, 1560, Note_on_c, 0, 79, 53
1, 1560, Note_on_c, 0, 60, 0
1, 1560, Note_on_c, 0, 64, 0
1, 1590, Note_on_c, 0, 79, 0
1, 1680, Note_on_c, 0, 79, 53
1, 1710, Note_on_c, 0, 79, 0
1, 1800, Note_on_c, 0, 76, 53
1, 1890, Note_on_c, 0, 76, 0
1, 1890, Note_on_c, 0, 72, 53
1, 1920, Note_on_c, 0, 72, 0
1, 1920, Note_on_c, 0, 71, 53
1, 1920, Note_on_c, 0, 62, 47
1, 1920, Note_on_c, 0, 65, 47
1, 1920, Note_on_c, 0, 55, 47
1, 1950, Note_on_c, 0, 71, 0
1, 1980, Note_on_c, 0, 55, 0
1, 1980, Note_on_c, 0, 65, 0
1, 1980, Note_on_c, 0, 62, 0
1, 2040, Note_on_c, 0, 71, 51
1, 2040, Note_on_c, 0, 62, 46
1, 2040, Note_on_c, 0, 65, 46
1, 2040, Note_on_c, 0, 55, 46
1, 2070, Note_on_c, 0, 71, 0
1, 2100, Note_on_c, 0, 55, 0
1, 2100, Note_on_c, 0, 65, 0
1, 2100, Note_on_c, 0, 62, 0
1, 2160, Note_on_c, 0, 72, 49
1, 2160, Note_on_c, 0, 60, 44
1, 2160, Note_on_c, 0, 64, 44
1, 2160, Note_on_c, 0, 55, 44
1, 2190, Note_on_c, 0, 72, 0
1, 2220, Note_on_c, 0, 55, 0
1, 2220, Note_on_c, 0, 64, 0
1, 2220, Note_on_c, 0, 60, 0
1, 2280, Note_on_c, 0, 72, 47
1, 2280, Note_on_c, 0, 60, 42
1, 2280, Note_on_c, 0, 64, 42
1, 2280, Note_on_c, 0, 55, 42
1, 2310, Note_on_c, 0, 72, 0
1, 2340, Note_on_c, 0, 55, 0
1, 2340, Note_on_c, 0, 64, 0
1, 2340, Note_on_c, 0, 60, 0
1, 2400, Note_on_c, 0, 74, 46
1, 2400, Note_on_c, 0, 55, 40
1, 2400, Note_on_c, 0, 62, 40
1, 2400, Note_on_c, 0, 59, 40
1, 2520, Note_on_c, 0, 74, 0
1, 2520, Note_on_c, 0, 59, 0
1, 2520, Note_on_c, 0, 62, 0
1, 2520, Note_on_c, 0, 55, 0
1, 2760, Note_on_c, 0, 67, 44
1, 2850, Note_on_c, 0, 67, 0
1, 2850, Note_on_c, 0, 74, 44
1, 2880, Note_on_c, 0, 74, 0
1, 2880, Note_on_c, 0, 77, 44
1, 2880, Note_on_c, 0, 67, 40
1, 2880, Note_on_c, 0, 59, 40
1, 2910, Note_on_c, 0, 77, 0
1, 3000, Note_on_c, 0, 77, 45
1, 3000, Note_on_c, 0, 59, 0
1, 3000, Note_on_c, 0, 67, 0
1, 3090, Note_on_c, 0, 77, 0
1, 3090, Note_on_c, 0, 79, 45
1, 3120, Note_on_c, 0, 79, 0
1, 3120, Note_on_c, 0, 76, 45
1, 3120, Note_on_c, 0, 60, 40
1, 3120, Note_on_c, 0, 67, 40
1, 3150, Note_on_c, 0, 76, 0
1, 3240, Note_on_c, 0, 76, 45
1, 3240, Note_on_c, 0, 67, 0
1, 3240, Note_on_c, 0, 60, 0
1, 3330, Note_on_c, 0, 76, 0
1, 3330, Note_on_c, 0, 77, 45
1, 3360, Note_on_c, 0, 77, 0
1, 3360, Note_on_c, 0, 74, 45
1, 3360, Note_on_c, 0, 65, 40
1, 3360, Note_on_c, 0, 67, 40
1, 3390, Note_on_c, 0, 74, 0
1, 3480, Note_on_c, 0, 74, 45
1, 3480, Note_on_c, 0, 67, 0
1, 3480, Note_on_c, 0, 65, 0
1, 3570, Note_on_c, 0, 74, 0
1, 3570, Note_on_c, 0, 76, 45
1, 3600, Note_on_c, 0, 76, 0
1, 3600, Note_on_c, 0, 72, 45
1, 3600, Note_on_c, 0, 64, 40
1, 3600, Note_on_c, 0, 67, 40
1, 3630, Note_on_c, 0, 72, 0
1, 3720, Note_on_c, 0, 72, 45
1, 3720, Note_on_c, 0, 67, 0
1, 3720, Note_on_c, 0, 64, 0
1, 3750, Note_on_c, 0, 72, 0
1, 3840, Note_on_c, 0, 74, 45
1, 3840, Note_on_c, 0, 65, 42
1, 3840, Note_on_c, 0, 53, 42
1, 3870, Note_on_c, 0, 74, 0
1, 3900, Note_on_c, 0, 53, 0
1, 3900, Note_on_c, 0, 65, 0
1, 3960, Note_on_c, 0, 74, 45
1, 3960, Note_on_c, 0, 53, 42
1, 3960, Note_on_c, 0, 65, 42
1, 3990, Note_on_c, 0, 74, 0
1, 4020, Note_on_c, 0, 65, 0
1, 4020, Note_on_c, 0, 53, 0
1, 4080, Note_on_c, 0, 71, 45
1, 4080, Note_on_c, 0, 55, 42
1, 4080, Note_on_c, 0, 62, 42
1, 4110, Note_on_c, 0, 71, 0
1, 4140, Note_on_c, 0, 62, 0
1, 4140, Note_on_c, 0, 55, 0
1, 4200, Note_on_c, 0, 71, 45
1, 4200, Note_on_c, 0, 55, 42
1, 4200, Note_on_c, 0, 62, 42
1, 4230, Note_on_c, 0, 71, 0
1, 4260, Note_on_c, 0, 62, 0
1, 4260, Note_on_c, 0, 55, 0
1, 4320, Note_on_c, 0, 72, 55
1, 4320, Note_on_c, 0, 60, 45
1, 4360, Note_on_c, 0, 60, 0
1, 4360, Note_on_c, 0, 64, 40
1, 4400, Note_on_c, 0, 64, 0
1, 4400, Note_on_c, 0, 67, 39
1, 4440, Note_on_c, 0, 72, 0
1, 4440, Note_on_c, 0, 67, 0
1, 4440, Note_on_c, 0, 60, 39
1, 4480, Note_on_c, 0, 60, 0
1, 4480, Note_on_c, 0, 64, 39
1, 4520, Note_on_c, 0, 64, 0
1, 4520, Note_on_c, 0, 67, 39
1, 4560, Note_on_c, 0, 67, 0
1, 4560, Note_on_c, 0, 60, 39
1, 4600, Note_on_c, 0, 60, 0
1, 4600, Note_on_c, 0, 64, 39
1, 4640, Note_on_c, 0, 64, 0
1, 4640, Note_on_c, 0, 67, 39
1, 4680, Note_on_c, 0, 72, 53
1, 4680, Note_on_c, 0, 67, 0
1, 4680, Note_on_c, 0, 60, 39
1, 4720, Note_on_c, 0, 60, 0
1, 4720, Note_on_c, 0, 64, 39
1, 4760, Note_on_c, 0, 64, 0
1, 4760, Note_on_c, 0, 67, 39
1, 4770, Note_on_c, 0, 72, 0
1, 4770, Note_on_c, 0, 76, 53
1, 4800, Note_on_c, 0, 76, 0
1, 4800, Note_on_c, 0, 79, 53
1, 4800, Note_on_c, 0, 67, 0
1, 4800, Note_on_c, 0, 60, 39
1, 4830, Note_on_c, 0, 79, 0
1, 4840, Note_on_c, 0, 60, 0
1, 4840, Note_on_c, 0, 64, 39
1, 4880, Note_on_c, 0, 64, 0
1, 4880, Note_on_c, 0, 67, 39
1, 4920, Note_on_c, 0, 79, 53
1, 4920, Note_on_c, 0, 67, 0
1, 4920, Note_on_c, 0, 60, 39
1, 4950, Note_on_c, 0, 79, 0
1, 4960, Note_on_c, 0, 60, 0
1, 4960, Note_on_c, 0, 64, 39
1, 5000, Note_on_c, 0, 64, 0
1, 5000, Note_on_c, 0, 67, 39
1, 5040, Note_on_c, 0, 79, 53
1, 5040, Note_on_c, 0, 67, 0
1, 5040, Note_on_c, 0, 60, 39
1, 5070, Note_on_c, 0, 79, 0
1, 5080, Note_on_c, 0, 60, 0
1, 5080, Note_on_c, 0, 64, 39
1, 5120, Note_on_c, 0, 64, 0
1, 5120, Note_on_c, 0, 67, 39
1, 5160, Note_on_c, 0, 83, 53
1, 5160, Note_on_c, 0, 67, 0
1, 5160, Note_on_c, 0, 60, 39
1, 5170, Note_on_c, 0, 84, 53
1, 5190, Note_on_c, 0, 83, 0
1, 5200, Note_on_c, 0, 60, 0
1, 5200, Note_on_c, 0, 64, 39
1, 5240, Note_on_c, 0, 64, 0
1, 5240, Note_on_c, 0, 67, 39
1, 5280, Note_on_c, 0, 84, 0
1, 5280, Note_on_c, 0, 79, 53
1, 5280, Note_on_c, 0, 67, 0
1, 5280, Note_on_c, 0, 60, 39
1, 5310, Note_on_c, 0, 79, 0
1, 5320, Note_on_c, 0, 60, 0
1, 5320, Note_on_c, 0, 64, 39
1, 5360, Note_on_c, 0, 64, 0
1, 5360, Note_on_c, 0, 67, 39
1, 5400, Note_on_c, 0, 79, 53
1, 5400, Note_on_c, 0, 67, 0
1, 5400, Note_on_c, 0, 60, 39
1, 5430, Note_on_c, 0, 79, 0
1, 5440, Note_on_c, 0, 60, 0
1, 5440, Note_on_c, 0, 64, 39
1, 5480, Note_on_c, 0, 64, 0
1, 5480, Note_on_c, 0, 67, 39
1, 5520, Note_on_c, 0, 79, 53
1, 5520, Note_on_c, 0, 67, 0
1, 5520, Note_on_c, 0, 60, 39
1, 5550, Note_on_c, 0, 79, 0
1, 5560, Note_on_c, 0, 60, 0
1, 5560, Note_on_c, 0, 64, 39
1, 5600, Note_on_c, 0, 64, 0
1, 5600, Note_on_c, 0, 67, 39
1, 5640, Note_on_c, 0, 77, 53
1, 5640, Note_on_c, 0, 67, 0
1, 5640, Note_on_c, 0, 60, 39
1, 5670, Note_on_c, 0, 77, 0
1, 5670, Note_on_c, 0, 76, 51
1, 5680, Note_on_c, 0, 60, 0
1, 5680, Note_on_c, 0, 64, 39
1, 5700, Note_on_c, 0, 76, 0
1, 5700, Note_on_c, 0, 74, 48
1, 5720, Note_on_c, 0, 64, 0
1, 5720, Note_on_c, 0, 67, 39
1, 5730, Note_on_c, 0, 74, 0
1, 5730, Note_on_c, 0, 72, 46
1, 5760, Note_on_c, 0, 72, 0
1, 5760, Note_on_c, 0, 71, 43
1, 5760, Note_on_c, 0, 67, 0
1, 5760, Note_on_c, 0, 62, 50
1, 5790, Note_on_c, 0, 71, 0
1, 5800, Note_on_c, 0, 62, 0
1, 5800, Note_on_c, 0, 65, 43
1, 5840, Note_on_c, 0, 65, 0
1, 5840, Note_on_c, 0, 67, 39
1, 5880, Note_on_c, 0, 71, 42
1, 5880, Note_on_c, 0, 67, 0
1, 5880, Note_on_c, 0, 62, 50
1, 5910, Note_on_c, 0, 71, 0
1, 5920, Note_on_c, 0, 62, 0
1, 5920, Note_on_c, 0, 65, 50
1, 5960, Note_on_c, 0, 65, 0
1, 5960, Note_on_c, 0, 67, 50
1, 6000, Note_on_c, 0, 72, 42
1, 6000, Note_on_c, 0, 67, 0
1, 6000, Note_on_c, 0, 60, 50
1, 6030, Note_on_c, 0, 72, 0
1, 6040, Note_on_c, 0, 60, 0
1, 6040, Note_on_c, 0, 64, 50
1, 6080, Note_on_c, 0, 64, 0
1, 6080, Note_on_c, 0, 67, 50
1, 6120, Note_on_c, 0, 72, 42
1, 6120, Note_on_c, 0, 67, 0
1, 6120, Note_on_c, 0, 60, 50
1, 6150, Note_on_c, 0, 72, 0
1, 6160, Note_on_c, 0, 60, 0
1, 6160, Note_on_c, 0, 64, 50
1, 6200, Note_on_c, 0, 64, 0
1, 6200, Note_on_c, 0, 67, 50
1, 6240, Note_on_c, 0, 74, 42
1, 6240, Note_on_c, 0, 67, 0
1, 6240, Note_on_c, 0, 59, 50
1, 6360, Note_on_c, 0, 74, 0
1, 6360, Note_on_c, 0, 59, 0
1, 6600, Note_on_c, 0, 67, 44
1, 6690, Note_on_c, 0, 67, 0
1, 6690, Note_on_c, 0, 74, 44
1, 6720, Note_on_c, 0, 74, 0
1, 6720, Note_on_c, 0, 77, 44
1, 6720, Note_on_c, 0, 55, 42
1, 6750, Note_on_c, 0, 77, 0
1, 6760, Note_on_c, 0, 55, 0
1, 6760, Note_on_c, 0, 59, 42
1, 6800, Note_on_c, 0, 59, 0
1, 6800, Note_on_c, 0, 62, 42
1, 6840, Note_on_c, 0, 77, 45
1, 6840, Note_on_c, 0, 62, 0
1, 6840, Note_on_c, 0, 55, 43
1, 6880, Note_on_c, 0, 55, 0
1, 6880, Note_on_c, 0, 59, 43
1, 6920, Note_on_c, 0, 59, 0
1, 6920, Note_on_c, 0, 62, 43
1, 6930, Note_on_c, 0, 77, 0
1, 6930, Note_on_c, 0, 79, 45
1, 6960, Note_on_c, 0, 79, 0
1, 6960, Note_on_c, 0, 76, 45
1, 6960, Note_on_c, 0, 62, 0
1, 6960, Note_on_c, 0, 55, 44
1, 6990, Note_on_c, 0, 76, 0
1, 7000, Note_on_c, 0, 55, 0
1, 7000, Note_on_c, 0, 60, 44
1, 7040, Note_on_c, 0, 60, 0
1, 7040, Note_on_c, 0, 64, 44
1, 7080, Note_on_c, 0, 76, 45
1, 7080, Note_on_c, 0, 64, 0
1, 7080, Note_on_c, 0, 55, 45
1, 7120, Note_on_c, 0, 55, 0
1, 7120, Note_on_c, 0, 60, 45
1, 7160, Note_on_c, 0, 60, 0
1, 7160, Note_on_c, 0, 64, 45
1, 7170, Note_on_c, 0, 76, 0
1, 7170, Note_on_c, 0, 77, 45
1, 7200, Note_on_c, 0, 77, 0
1, 7200, Note_on_c, 0, 74, 45
1, 7200, Note_on_c, 0, 64, 0
1, 7200, Note_on_c, 0, 55, 46
1, 7230, Note_on_c, 0, 74, 0
1, 7240, Note_on_c, 0, 55, 0
1, 7240, Note_on_c, 0, 62, 51
1, 7280, Note_on_c, 0, 62, 0
1, 7280, Note_on_c, 0, 65, 51
1, 7320, Note_on_c, 0, 74, 45
1, 7320, Note_on_c, 0, 65, 0
1, 7320, Note_on_c, 0, 55, 51
1, 7360, Note_on_c, 0, 55, 0
1, 7360, Note_on_c, 0, 62, 51
1, 7400, Note_on_c, 0, 62, 0
1, 7400, Note_on_c, 0, 65, 51
1, 7410, Note_on_c, 0, 74, 0
1, 7410, Note_on_c, 0, 76, 45
1, 7440, Note_on_c, 0, 76, 0
1, 7440, Note_on_c, 0, 72, 45
1, 7440, Note_on_c, 0, 65, 0
1, 7440, Note_on_c, 0, 57, 42
1, 7470, Note_on_c, 0, 72, 0
1, 7480, Note_on_c, 0, 57, 0
1, 7480, Note_on_c, 0, 60, 43
1, 7520, Note_on_c, 0, 60, 0
1, 7520, Note_on_c, 0, 64, 43
1, 7560, Note_on_c, 0, 72, 45
1, 7560, Note_on_c, 0, 64, 0
1, 7560, Note_on_c, 0, 57, 43
1, 7590, Note_on_c, 0, 72, 0
1, 7600, Note_on_c, 0, 57, 0
1, 7600, Note_on_c, 0, 60, 43
1, 7640, Note_on_c, 0, 60, 0
1, 7640, Note_on_c, 0, 64, 43
1, 7680, Note_on_c, 0, 74, 45
1, 7680, Note_on_c, 0, 64, 0
1, 7680, Note_on_c, 0, 53, 46
1, 7710, Note_on_c, 0, 74, 0
1, 7720, Note_on_c, 0, 53, 0
1, 7720, Note_on_c, 0, 57, 46
1, 7760, Note_on_c, 0, 57, 0
1, 7760, Note_on_c, 0, 62, 46
1, 7800, Note_on_c, 0, 74, 45
1, 7800, Note_on_c, 0, 62, 0
1, 7800, Note_on_c, 0, 53, 46
1, 7830, Note_on_c, 0, 74, 0
1, 7840, Note_on_c, 0, 53, 0
1, 7840, Note_on_c, 0, 57, 46
1, 7880, Note_on_c, 0, 57, 0
1, 7880, Note_on_c, 0, 62, 46
1, 7920, Note_on_c, 0, 71, 45
1, 7920, Note_on_c, 0, 62, 0
1, 7920, Note_on_c, 0, 55, 46
1, 7950, Note_on_c, 0, 71, 0
1, 7960, Note_on_c, 0, 55, 0
1, 7960, Note_on_c, 0, 62, 46
1, 8000, Note_on_c, 0, 62, 0
1, 8000, Note_on_c, 0, 65, 46
1, 8040, Note_on_c, 0, 71, 45
1, 8040, Note_on_c, 0, 65, 0
1, 8040, Note_on_c, 0, 55, 46
1, 8070, Note_on_c, 0, 71, 0
1, 8080, Note_on_c, 0, 55, 0
1, 8080, Note_on_c, 0, 62, 46
1, 8120, Note_on_c, 0, 62, 0
1, 8120, Note_on_c, 0, 65, 46
1, 8160, Note_on_c, 0, 72, 45
1, 8160, Note_on_c, 0, 65, 0
1, 8160, Note_on_c, 0, 64, 38
1, 8160, Note_on_c, 0, 60, 38
1, 8400, Note_on_c, 0, 64, 0
1, 8400, Note_on_c, 0, 70, 38
1, 8520, Note_on_c, 0, 72, 0
1, 8520, Note_on_c, 0, 76, 39
1, 8610, Note_on_c, 0, 76, 0
1, 8610, Note_on_c, 0, 79, 39
1, 8640, Note_on_c, 0, 79, 0
1, 8640, Note_on_c, 0, 77, 40
1, 8640, Note_on_c, 0, 70, 0
1, 8640, Note_on_c, 0, 69, 38
1, 8670, Note_on_c, 0, 77, 0
1, 8760, Note_on_c, 0, 77, 41
1, 8850, Note_on_c, 0, 77, 0
1, 8850, Note_on_c, 0, 81, 41
1, 8880, Note_on_c, 0, 81, 0
1, 8880, Note_on_c, 0, 71, 41
1, 8880, Note_on_c, 0, 69, 0
1, 8880, Note_on_c, 0, 65, 38
1, 8910, Note_on_c, 0, 71, 0
1, 9000, Note_on_c, 0, 71, 42
1, 9090, Note_on_c, 0, 71, 0
1, 9090, Note_on_c, 0, 74, 43
1, 9120, Note_on_c, 0, 74, 0
1, 9120, Note_on_c, 0, 72, 43
1, 9120, Note_on_c, 0, 65, 0
1, 9120, Note_on_c, 0, 60, 0
1, 9120, Note_on_c, 0, 64, 38
1, 9120, Note_on_c, 0, 60, 38
1, 9150, Note_on_c, 0, 72, 0
1, 9240, Note_on_c, 0, 72, 44
1, 9330, Note_on_c, 0, 72, 0
1, 9330, Note_on_c, 0, 76, 45
1, 9360, Note_on_c, 0, 76, 0
1, 9360, Note_on_c, 0, 79, 45
1, 9360, Note_on_c, 0, 64, 0
1, 9360, Note_on_c, 0, 70, 38
1, 9390, Note_on_c, 0, 79, 0
1, 9480, Note_on_c, 0, 84, 46
1, 9570, Note_on_c, 0, 84, 0
1, 9570, Note_on_c, 0, 76, 47
1, 9600, Note_on_c, 0, 76, 0
1, 9600, Note_on_c, 0, 77, 46
1, 9600, Note_on_c, 0, 70, 0
1, 9600, Note_on_c, 0, 69, 38
1, 9630, Note_on_c, 0, 77, 0
1, 9720, Note_on_c, 0, 81, 45
1, 9810, Note_on_c, 0, 81, 0
1, 9810, Note_on_c, 0, 72, 44
1, 9840, Note_on_c, 0, 72, 0
1, 9840, Note_on_c, 0, 71, 43
1, 9840, Note_on_c, 0, 69, 0
1, 9840, Note_on_c, 0, 65, 38
1, 9870, Note_on_c, 0, 71, 0
1, 9960, Note_on_c, 0, 77, 42
1, 10050, Note_on_c, 0, 77, 0
1, 10050, Note_on_c, 0, 71, 41
1, 10080, Note_on_c, 0, 71, 0
1, 10080, Note_on_c, 0, 72, 38
1, 10080, Note_on_c, 0, 65, 0
1, 10080, Note_on_c, 0, 60, 0
1, 10080, Note_on_c, 0, 60, 38
1, 10110, Note_on_c, 0, 72, 0
1, 10120, Note_on_c, 0, 60, 0
1, 10120, Note_on_c, 0, 64, 38
1, 10160, Note_on_c, 0, 64, 0
1, 10160, Note_on_c, 0, 67, 38
1, 10200, Note_on_c, 0, 72, 38
1, 10200, Note_on_c, 0, 67, 0
1, 10200, Note_on_c, 0, 60, 38
1, 10230, Note_on_c, 0, 72, 0
1, 10240, Note_on_c, 0, 60, 0
1, 10240, Note_on_c, 0, 64, 38
1, 10280, Note_on_c, 0, 64, 0
1, 10280, Note_on_c, 0, 67, 38
1, 10320, Note_on_c, 0, 72, 38
1, 10320, Note_on_c, 0, 67, 0
1, 10320, Note_on_c, 0, 60, 38
1, 10350, Note_on_c, 0, 72, 0
1, 10360, Note_on_c, 0, 60, 0
1, 10360, Note_on_c, 0, 64, 38
1, 10400, Note_on_c, 0, 64, 0
1, 10400, Note_on_c, 0, 67, 38
1, 10440, Note_on_c, 0, 74, 45
1, 10440, Note_on_c, 0, 67, 0
1, 10440, Note_on_c, 0, 59, 44
1, 10460, Note_on_c, 0, 74, 0
1, 10460, Note_on_c, 0, 76, 45
1, 10480, Note_on_c, 0, 76, 0
1, 10480, Note_on_c, 0, 74, 45
1, 10480, Note_on_c, 0, 59, 0
1, 10480, Note_on_c, 0, 62, 42
1, 10500, Note_on_c, 0, 74, 0
1, 10500, Note_on_c, 0, 72, 45
1, 10520, Note_on_c, 0, 62, 0
1, 10520, Note_on_c, 0, 67, 39
1, 10530, Note_on_c, 0, 72, 0
1, 10530, Note_on_c, 0, 74, 45
1, 10560, Note_on_c, 0, 74, 0
1, 10560, Note_on_c, 0, 76, 45
1, 10560, Note_on_c, 0, 67, 0
1, 10560, Note_on_c, 0, 60, 38
1, 10600, Note_on_c, 0, 60, 0
1, 10600, Note_on_c, 0, 64, 38
1, 10640, Note_on_c, 0, 64, 0
1, 10640, Note_on_c, 0, 67, 38
1, 10680, Note_on_c, 0, 76, 0
1, 10680, Note_on_c, 0, 72, 39
1, 10680, Note_on_c, 0, 67, 0
1, 10680, Note_on_c, 0, 60, 38
1, 10710, Note_on_c, 0, 72, 0
1, 10720, Note_on_c, 0, 60, 0
1, 10720, Note_on_c, 0, 64, 38
1, 10760, Note_on_c, 0, 64, 0
1, 10760, Note_on_c, 0, 67, 38
1, 10800, Note_on_c, 0, 72, 39
1, 10800, Note_on_c, 0, 67, 0
1, 10800, Note_on_c, 0, 60, 38
1, 10830, Note_on_c, 0, 72, 0
1, 10840, Note_on_c, 0, 60, 0
1, 10840, Note_on_c, 0, 64, 38
1, 10880, Note_on_c, 0, 64, 0
1, 10880, Note_on_c, 0, 67, 38
1, 10920, Note_on_c, 0, 74, 45
1, 10920, Note_on_c, 0, 67, 0
1, 10920, Note_on_c, 0, 59, 44
1, 10940, Note_on_c, 0, 74, 0
1, 10940, Note_on_c, 0, 76, 45
1, 10960, Note_on_c, 0, 76, 0
1, 10960, Note_on_c, 0, 74, 45
1, 10960, Note_on_c, 0, 59, 0
1, 10960, Note_on_c, 0, 62, 41
1, 10980, Note_on_c, 0, 74, 0
1, 10980, Note_on_c, 0, 72, 45
1, 11000, Note_on_c, 0, 62, 0
1, 11000, Note_on_c, 0, 67, 38
1, 11010, Note_on_c, 0, 72, 0
1, 11010, Note_on_c, 0, 74, 45
1, 11040, Note_on_c, 0, 74, 0
1, 11040, Note_on_c, 0, 76, 45
1, 11040, Note_on_c, 0, 67, 0
1, 11040, Note_on_c, 0, 60, 38
1, 11080, Note_on_c, 0, 60, 0
1, 11080, Note_on_c, 0, 64, 38
1, 11120, Note_on_c, 0, 64, 0
1, 11120, Note_on_c, 0, 67, 38
1, 11160, Note_on_c, 0, 76, 0
1, 11160, Note_on_c, 0, 72, 39
1, 11160, Note_on_c, 0, 67, 0
1, 11160, Note_on_c, 0, 60, 38
1, 11190, Note_on_c, 0, 72, 0
1, 11200, Note_on_c, 0, 60, 0
1, 11200, Note_on_c, 0, 64, 38
1, 11240, Note_on_c, 0, 64, 0
1, 11240, Note_on_c, 0, 67, 38
1, 11280, Note_on_c, 0, 72, 39
1, 11280, Note_on_c, 0, 67, 0
1, 11280, Note_on_c, 0, 60, 38
1, 11310, Note_on_c, 0, 72, 0
1, 11320, Note_on_c, 0, 60, 0
1, 11320, Note_on_c, 0, 64, 38
1, 11360, Note_on_c, 0, 64, 0
1, 11360, Note_on_c, 0, 67, 38
1, 11400, Note_on_c, 0, 74, 45
1, 11400, Note_on_c, 0, 67, 0
1, 11400, Note_on_c, 0, 59, 45
1, 11420, Note_on_c, 0, 74, 0
1, 11420, Note_on_c, 0, 76, 45
1, 11440, Note_on_c, 0, 76, 0
1, 11440, Note_on_c, 0, 74, 45
1, 11440, Note_on_c, 0, 59, 0
1, 11440, Note_on_c, 0, 62, 42
1, 11460, Note_on_c, 0, 74, 0
1, 11460, Note_on_c, 0, 72, 45
1, 11480, Note_on_c, 0, 62, 0
1, 11480, Note_on_c, 0, 67, 38
1, 11490, Note_on_c, 0, 72, 0
1, 11490, Note_on_c, 0, 74, 45
1, 11520, Note_on_c, 0, 74, 0
1, 11520, Note_on_c, 0, 76, 45
1, 11520, Note_on_c, 0, 67, 0
1, 11520, Note_on_c, 0, 60, 38
1, 11560, Note_on_c, 0, 60, 0
1, 11560, Note_on_c, 0, 64, 38
1, 11600, Note_on_c, 0, 64, 0
1, 11600, Note_on_c, 0, 67, 38
1, 11640, Note_on_c, 0, 76, 0
1, 11640, Note_on_c, 0, 76, 39
1, 11640, Note_on_c, 0, 67, 0
1, 11640, Note_on_c, 0, 60, 38
1, 11670, Note_on_c, 0, 76, 0
1, 11680, Note_on_c, 0, 60, 0
1, 11680, Note_on_c, 0, 64, 38
1, 11720, Note_on_c, 0, 64, 0
1, 11720, Note_on_c, 0, 67, 38
1, 11760, Note_on_c, 0, 76, 39
1, 11760, Note_on_c, 0, 67, 0
1, 11760, Note_on_c, 0, 60, 38
1, 11790, Note_on_c, 0, 76, 0
1, 11800, Note_on_c, 0, 60, 0
1, 11800, Note_on_c, 0, 64, 38
1, 11840, Note_on_c, 0, 64, 0
1, 11840, Note_on_c, 0, 67, 38
1, 11880, Note_on_c, 0, 78, 44
1, 11880, Note_on_c, 0, 67, 0
1, 11880, Note_on_c, 0, 60, 48
1, 11900, Note_on_c, 0, 78, 0
1, 11900, Note_on_c, 0, 78, 44
1, 11900, Note_on_c, 0, 79, 44
1, 11920, Note_on_c, 0, 79, 0
1, 11920, Note_on_c, 0, 78, 0
1, 11920, Note_on_c, 0, 60, 0
1, 11920, Note_on_c, 0, 62, 43
1, 11940, Note_on_c, 0, 76, 44
1, 11960, Note_on_c, 0, 62, 0
1, 11960, Note_on_c, 0, 66, 38
1, 11970, Note_on_c, 0, 76, 0
1, 11970, Note_on_c, 0, 78, 44
1, 12000, Note_on_c, 0, 78, 0
1, 12000, Note_on_c, 0, 79, 39
1, 12000, Note_on_c, 0, 66, 0
1, 12000, Note_on_c, 0, 59, 38
1, 12030, Note_on_c, 0, 79, 0
1, 12040, Note_on_c, 0, 59, 0
1, 12040, Note_on_c, 0, 62, 38
1, 12080, Note_on_c, 0, 62, 0
1, 12080, Note_on_c, 0, 67, 38
1, 12120, Note_on_c, 0, 79, 39
1, 12120, Note_on_c, 0, 67, 0
1, 12120, Note_on_c, 0, 59, 38
1, 12150, Note_on_c, 0, 79, 0
1, 12160, Note_on_c, 0, 59, 0
1, 12160, Note_on_c, 0, 62, 38
1, 12200, Note_on_c, 0, 62, 0
1, 12200, Note_on_c, 0, 67, 38
1, 12240, Note_on_c, 0, 79, 39
1, 12240, Note_on_c, 0, 67, 0
1, 12240, Note_on_c, 0, 59, 38
1, 12270, Note_on_c, 0, 79, 0
1, 12280, Note_on_c, 0, 59, 0
1, 12280, Note_on_c, 0, 62, 38
1, 12320, Note_on_c, 0, 62, 0
1, 12320, Note_on_c, 0, 67, 38
1, 12360, Note_on_c, 0, 81, 45
1, 12360, Note_on_c, 0, 67, 0
1, 12360, Note_on_c, 0, 54, 47
1, 12380, Note_on_c, 0, 81, 0
1, 12380, Note_on_c, 0, 83, 45
1, 12400, Note_on_c, 0, 83, 0
1, 12400, Note_on_c, 0, 81, 45
1, 12400, Note_on_c, 0, 54, 0
1, 12400, Note_on_c, 0, 57, 46
1, 12420, Note_on_c, 0, 81, 0
1, 12420, Note_on_c, 0, 79, 45
1, 12440, Note_on_c, 0, 57, 0
1, 12440, Note_on_c, 0, 62, 44
1, 12450, Note_on_c, 0, 79, 0
1, 12450, Note_on_c, 0, 81, 45
1, 12480, Note_on_c, 0, 81, 0
1, 12480, Note_on_c, 0, 83, 45
1, 12480, Note_on_c, 0, 62, 0
1, 12480, Note_on_c, 0, 55, 42
1, 12520, Note_on_c, 0, 55, 0
1, 12520, Note_on_c, 0, 59, 41
1, 12560, Note_on_c, 0, 59, 0
1, 12560, Note_on_c, 0, 62, 41
1, 12600, Note_on_c, 0, 83, 0
1, 12600, Note_on_c, 0, 79, 45
1, 12600, Note_on_c, 0, 62, 0
1, 12600, Note_on_c, 0, 55, 41
1, 12630, Note_on_c, 0, 79, 0
1, 12640, Note_on_c, 0, 55, 0
1, 12640, Note_on_c, 0, 59, 41
1, 12680, Note_on_c, 0, 59, 0
1, 12680, Note_on_c, 0, 62, 41
1, 12720, Note_on_c, 0, 79, 45
1, 12720, Note_on_c, 0, 62, 0
1, 12720, Note_on_c, 0, 55, 41
1, 12750, Note_on_c, 0, 79, 0
1, 12760, Note_on_c, 0, 55, 0
1, 12760, Note_on_c, 0, 59, 41
1, 12800, Note_on_c, 0, 59, 0
1, 12800, Note_on_c, 0, 62, 41
1, 12840, Note_on_c, 0, 81, 50
1, 12840, Note_on_c, 0, 62, 0
1, 12840, Note_on_c, 0, 54, 47
1, 12860, Note_on_c, 0, 81, 0
1, 12860, Note_on_c, 0, 83, 50
1, 12880, Note_on_c, 0, 83, 0
1, 12880, Note_on_c, 0, 81, 50
1, 12880, Note_on_c, 0, 54, 0
1, 12880, Note_on_c, 0, 57, 44
1, 12900, Note_on_c, 0, 81, 0
1, 12900, Note_on_c, 0, 79, 50
1, 12920, Note_on_c, 0, 57, 0
1, 12920, Note_on_c, 0, 62, 40
1, 12930, Note_on_c, 0, 79, 0
1, 12930, Note_on_c, 0, 81, 50
1, 12960, Note_on_c, 0, 81, 0
1, 12960, Note_on_c, 0, 83, 50
1, 12960, Note_on_c, 0, 62, 0
1, 12960, Note_on_c, 0, 55, 38
1, 13000, Note_on_c, 0, 55, 0
1, 13000, Note_on_c, 0, 59, 38
1, 13040, Note_on_c, 0, 59, 0
1, 13040, Note_on_c, 0, 62, 38
1, 13080, Note_on_c, 0, 83, 0
1, 13080, Note_on_c, 0, 79, 44
1, 13080, Note_on_c, 0, 62, 0
1, 13080, Note_on_c, 0, 55, 38
1, 13110, Note_on_c, 0, 79, 0
1, 13120, Note_on_c, 0, 55, 0
1, 13120, Note_on_c, 0, 59, 38
1, 13160, Note_on_c, 0, 59, 0
1, 13160, Note_on_c, 0, 62, 38
1, 13200, Note_on_c, 0, 79, 44
1, 13200, Note_on_c, 0, 62, 0
1, 13200, Note_on_c, 0, 55, 38
1, 13230, Note_on_c, 0, 79, 0
1, 13240, Note_on_c, 0, 55, 0
1, 13240, Note_on_c, 0, 59, 38
1, 13280, Note_on_c, 0, 59, 0
1, 13280, Note_on_c, 0, 62, 38
1, 13320, Note_on_c, 0, 79, 42
1, 13320, Note_on_c, 0, 62, 0
1, 13320, Note_on_c, 0, 55, 38
1, 13360, Note_on_c, 0, 79, 0
1, 13360, Note_on_c, 0, 83, 46
1, 13360, Note_on_c, 0, 55, 0
1, 13360, Note_on_c, 0, 59, 38
1, 13400, Note_on_c, 0, 83, 0
1, 13400, Note_on_c, 0, 86, 51
1, 13400, Note_on_c, 0, 59, 0
1, 13400, Note_on_c, 0, 62, 38
1, 13440, Note_on_c, 0, 86, 0
1, 13440, Note_on_c, 0, 84, 41
1, 13440, Note_on_c, 0, 62, 0
1, 13440, Note_on_c, 0, 54, 38
1, 13480, Note_on_c, 0, 84, 0
1, 13480, Note_on_c, 0, 54, 0
1, 13480, Note_on_c, 0, 57, 39
1, 13520, Note_on_c, 0, 57, 0
1, 13520, Note_on_c, 0, 62, 39
1, 13560, Note_on_c, 0, 84, 42
1, 13560, Note_on_c, 0, 62, 0
1, 13560, Note_on_c, 0, 54, 40
1, 13600, Note_on_c, 0, 54, 0
1, 13600, Note_on_c, 0, 57, 41
1, 13640, Note_on_c, 0, 57, 0
1, 13640, Note_on_c, 0, 62, 41
1, 13650, Note_on_c, 0, 84, 0
1, 13650, Note_on_c, 0, 86, 42
1, 13680, Note_on_c, 0, 83, 43
1, 13680, Note_on_c, 0, 62, 0
1, 13680, Note_on_c, 0, 55, 42
1, 13690, Note_on_c, 0, 86, 0
1, 13720, Note_on_c, 0, 83, 0
1, 13720, Note_on_c, 0, 55, 0
1, 13720, Note_on_c, 0, 59, 42
1, 13760, Note_on_c, 0, 59, 0
1, 13760, Note_on_c, 0, 62, 43
1, 13800, Note_on_c, 0, 83, 43
1, 13800, Note_on_c, 0, 62, 0
1, 13800, Note_on_c, 0, 55, 43
1, 13840, Note_on_c, 0, 55, 0
1, 13840, Note_on_c, 0, 59, 44
1, 13880, Note_on_c, 0, 59, 0
1, 13880, Note_on_c, 0, 62, 44
1, 13890, Note_on_c, 0, 83, 0
1, 13890, Note_on_c, 0, 84, 44
1, 13920, Note_on_c, 0, 81, 44
1, 13920, Note_on_c, 0, 62, 0
1, 13920, Note_on_c, 0, 60, 45
1, 13930, Note_on_c, 0, 84, 0
1, 13960, Note_on_c, 0, 81, 0
1, 13960, Note_on_c, 0, 60, 0
1, 13960, Note_on_c, 0, 62, 45
1, 14000, Note_on_c, 0, 62, 0
1, 14000, Note_on_c, 0, 66, 46
1, 14040, Note_on_c, 0, 81, 45
1, 14040, Note_on_c, 0, 66, 0
1, 14040, Note_on_c, 0, 60, 46
1, 14080, Note_on_c, 0, 60, 0
1, 14080, Note_on_c, 0, 62, 47
1, 14120, Note_on_c, 0, 62, 0
1, 14120, Note_on_c, 0, 66, 47
1, 14130, Note_on_c, 0, 81, 0
1, 14130, Note_on_c, 0, 83, 46
1, 14160, Note_on_c, 0, 79, 46
1, 14160, Note_on_c, 0, 66, 0
1, 14160, Note_on_c, 0, 59, 48
1, 14170, Note_on_c, 0, 83, 0
1, 14200, Note_on_c, 0, 79, 0
1, 14200, Note_on_c, 0, 59, 0
1, 14200, Note_on_c, 0, 62, 48
1, 14240, Note_on_c, 0, 62, 0
1, 14240, Note_on_c, 0, 67, 49
1, 14280, Note_on_c, 0, 79, 46
1, 14280, Note_on_c, 0, 67, 0
1, 14280, Note_on_c, 0, 59, 49
1, 14320, Note_on_c, 0, 79, 0
1, 14320, Note_on_c, 0, 83, 46
1, 14320, Note_on_c, 0, 59, 0
1, 14320, Note_on_c, 0, 62, 50
1, 14360, Note_on_c, 0, 83, 0
1, 14360, Note_on_c, 0, 86, 46
1, 14360, Note_on_c, 0, 62, 0
1, 14360, Note_on_c, 0, 67, 50
1, 14400, Note_on_c, 0, 86, 0
1, 14400, Note_on_c, 0, 84, 39
1, 14400, Note_on_c, 0, 67, 0
1, 14400, Note_on_c, 0, 54, 36
1, 14430, Note_on_c, 0, 84, 0
1, 14440, Note_on_c, 0, 54, 0
1, 14440, Note_on_c, 0, 57, 36
1, 14480, Note_on_c, 0, 57, 0
1, 14480, Note_on_c, 0, 62, 36
1, 14520, Note_on_c, 0, 84, 38
1, 14520, Note_on_c, 0, 62, 0
1, 14520, Note_on_c, 0, 54, 37
1, 14540, Note_on_c, 0, 84, 0
1, 14540, Note_on_c, 0, 86, 38
1, 14560, Note_on_c, 0, 86, 0
1, 14560, Note_on_c, 0, 84, 39
1, 14560, Note_on_c, 0, 54, 0
1, 14560, Note_on_c, 0, 57, 37
1, 14580, Note_on_c, 0, 84, 0
1, 14580, Note_on_c, 0, 83, 39
1, 14600, Note_on_c, 0, 83, 0
1, 14600, Note_on_c, 0, 84, 40
1, 14600, Note_on_c, 0, 57, 0
1, 14600, Note_on_c, 0, 62, 38
1, 14620, Note_on_c, 0, 84, 0
1, 14620, Note_on_c, 0, 86, 40
1, 14640, Note_on_c, 0, 86, 0
1, 14640, Note_on_c, 0, 83, 41
1, 14640, Note_on_c, 0, 62, 0
1, 14640, Note_on_c, 0, 55, 38
1, 14670, Note_on_c, 0, 83, 0
1, 14680, Note_on_c, 0, 55, 0
1, 14680, Note_on_c, 0, 59, 39
1, 14720, Note_on_c, 0, 59, 0
1, 14720, Note_on_c, 0, 62, 39
1, 14760, Note_on_c, 0, 83, 43
1, 14760, Note_on_c, 0, 62, 0
1, 14760, Note_on_c, 0, 55, 40
1, 14780, Note_on_c, 0, 83, 0
1, 14780, Note_on_c, 0, 84, 44
1, 14800, Note_on_c, 0, 84, 0
1, 14800, Note_on_c, 0, 83, 44
1, 14800, Note_on_c, 0, 55, 0
1, 14800, Note_on_c, 0, 59, 40
1, 14820, Note_on_c, 0, 83, 0
1, 14820, Note_on_c, 0, 81, 45
1, 14840, Note_on_c, 0, 81, 0
1, 14840, Note_on_c, 0, 83, 45
1, 14840, Note_on_c, 0, 59, 0
1, 14840, Note_on_c, 0, 62, 41
1, 14860, Note_on_c, 0, 83, 0
1, 14860, Note_on_c, 0, 84, 46
1, 14880, Note_on_c, 0, 84, 0
1, 14880, Note_on_c, 0, 81, 46
1, 14880, Note_on_c, 0, 62, 0
1, 14880, Note_on_c, 0, 60, 41
1, 14910, Note_on_c, 0, 81, 0
1, 14920, Note_on_c, 0, 60, 0
1, 14920, Note_on_c, 0, 62, 41
1, 14960, Note_on_c, 0, 62, 0
1, 14960, Note_on_c, 0, 66, 42
1, 15000, Note_on_c, 0, 81, 49
1, 15000, Note_on_c, 0, 66, 0
1, 15000, Note_on_c, 0, 60, 42
1, 15020, Note_on_c, 0, 81, 0
1, 15020, Note_on_c, 0, 83, 49
1, 15040, Note_on_c, 0, 83, 0
1, 15040, Note_on_c, 0, 81, 50
1, 15040, Note_on_c, 0, 60, 0
1, 15040, Note_on_c, 0, 62, 43
1, 15060, Note_on_c, 0, 81, 0
1, 15060, Note_on_c, 0, 79, 50
1, 15080, Note_on_c, 0, 79, 0
1, 15080, Note_on_c, 0, 81, 51
1, 15080, Note_on_c, 0, 62, 0
1, 15080, Note_on_c, 0, 66, 43
1, 15100, Note_on_c, 0, 81, 0
1, 15100, Note_on_c, 0, 83, 51
1, 15120, Note_on_c, 0, 83, 0
1, 15120, Note_on_c, 0, 79, 52
1, 15120, Note_on_c, 0, 66, 0
1, 15120, Note_on_c, 0, 59, 44
1, 15150, Note_on_c, 0, 79, 0
1, 15160, Note_on_c, 0, 59, 0
1, 15160, Note_on_c, 0, 62, 44
1, 15200, Note_on_c, 0, 62, 0
1, 15200, Note_on_c, 0, 67, 45
1, 15240, Note_on_c, 0, 86, 52
1, 15240, Note_on_c, 0, 67, 0
1, 15240, Note_on_c, 0, 59, 45
1, 15280, Note_on_c, 0, 59, 0
1, 15280, Note_on_c, 0, 62, 46
1, 15320, Note_on_c, 0, 62, 0
1, 15320, Note_on_c, 0, 67, 46
1, 15330, Note_on_c, 0, 86, 0
1, 15330, Note_on_c, 0, 83, 52
1, 15360, Note_on_c, 0, 83, 0
1, 15360, Note_on_c, 0, 81, 52
1, 15360, Note_on_c, 0, 67, 0
1, 15360, Note_on_c, 0, 60, 46
1, 15390, Note_on_c, 0, 81, 0
1, 15400, Note_on_c, 0, 60, 0
1, 15400, Note_on_c, 0, 64, 43
1, 15440, Note_on_c, 0, 64, 0
1, 15440, Note_on_c, 0, 69, 43
1, 15480, Note_on_c, 0, 81, 55
1, 15480, Note_on_c, 0, 69, 0
1, 15480, Note_on_c, 0, 60, 43
1, 15500, Note_on_c, 0, 81, 0
1, 15500, Note_on_c, 0, 83, 55
1, 15520, Note_on_c, 0, 83, 0
1, 15520, Note_on_c, 0, 81, 55
1, 15520, Note_on_c, 0, 60, 0
1, 15520, Note_on_c, 0, 64, 43
1, 15540, Note_on_c, 0, 81, 0
1, 15540, Note_on_c, 0, 79, 55
1, 15560, Note_on_c, 0, 79, 0
1, 15560, Note_on_c, 0, 81, 55
1, 15560, Note_on_c, 0, 64, 0
1, 15560, Note_on_c, 0, 69, 43
1, 15580, Note_on_c, 0, 81, 0
1, 15580, Note_on_c, 0, 83, 55
1, 15600, Note_on_c, 0, 83, 0
1, 15600, Note_on_c, 0, 79, 55
1, 15600, Note_on_c, 0, 69, 0
1, 15600, Note_on_c, 0, 61, 43
1, 15630, Note_on_c, 0, 79, 0
1, 15640, Note_on_c, 0, 61, 0
1, 15640, Note_on_c, 0, 64, 43
1, 15680, Note_on_c, 0, 64, 0
1, 15680, Note_on_c, 0, 69, 43
1, 15720, Note_on_c, 0, 79, 55
1, 15720, Note_on_c, 0, 69, 0
1, 15720, Note_on_c, 0, 61, 43
1, 15740, Note_on_c, 0, 79, 0
1, 15740, Note_on_c, 0, 81, 55
1, 15760, Note_on_c, 0, 81, 0
1, 15760, Note_on_c, 0, 79, 55
1, 15760, Note_on_c, 0, 61, 0
1, 15760, Note_on_c, 0, 64, 43
1, 15780, Note_on_c, 0, 79, 0
1, 15780, Note_on_c, 0, 78, 55
1, 15800, Note_on_c, 0, 78, 0
1, 15800, Note_on_c, 0, 79, 55
1, 15800, Note_on_c, 0, 64, 0
1, 15800, Note_on_c, 0, 69, 43
1, 15820, Note_on_c, 0, 79, 0
1, 15820, Note_on_c, 0, 81, 55
1, 15840, Note_on_c, 0, 81, 0
1, 15840, Note_on_c, 0, 78, 55
1, 15840, Note_on_c, 0, 69, 0
1, 15840, Note_on_c, 0, 62, 43
1, 15960, Note_on_c, 0, 78, 0
1, 15960, Note_on_c, 0, 62, 0
1, 16050, Note_on_c, 0, 74, 54
1, 16050, Note_on_c, 0, 62, 56
1, 16080, Note_on_c, 0, 74, 0
1, 16080, Note_on_c, 0, 78, 54
1, 16080, Note_on_c, 0, 62, 0
1, 16080, Note_on_c, 0, 66, 56
1, 16170, Note_on_c, 0, 78, 0
1, 16170, Note_on_c, 0, 74, 54
1, 16170, Note_on_c, 0, 66, 0
1, 16170, Note_on_c, 0, 62, 56
1, 16200, Note_on_c, 0, 74, 0
1, 16200, Note_on_c, 0, 81, 54
1, 16200, Note_on_c, 0, 62, 0
1, 16200, Note_on_c, 0, 69, 56
1, 16290, Note_on_c, 0, 81, 0
1, 16290, Note_on_c, 0, 78, 54
1, 16290, Note_on_c, 0, 69, 0
1, 16290, Note_on_c, 0, 66, 56
1, 16320, Note_on_c, 0, 78, 0
1, 16320, Note_on_c, 0, 86, 54
1, 16320, Note_on_c, 0, 66, 0
1, 16320, Note_on_c, 0, 74, 56
1, 16440, Note_on_c, 0, 86, 0
1, 16440, Note_on_c, 0, 74, 0
1, 16530, Note_on_c, 0, 62, 54
1, 16530, Note_on_c, 0, 50, 56
1, 16560, Note_on_c, 0, 62, 0
1, 16560, Note_on_c, 0, 66, 54
1, 16560, Note_on_c, 0, 50, 0
1, 16560, Note_on_c, 0, 54, 56
1, 16600, Note_on_c, 0, 66, 0
1, 16600, Note_on_c, 0, 62, 54
1, 16600, Note_on_c, 0, 54, 0
1, 16600, Note_on_c, 0, 50, 56
1, 16640, Note_on_c, 0, 62, 0
1, 16640, Note_on_c, 0, 66, 54
1, 16640, Note_on_c, 0, 50, 0
1, 16640, Note_on_c, 0, 54, 56
1, 16680, Note_on_c, 0, 66, 0
1, 16680, Note_on_c, 0, 69, 54
1, 16680, Note_on_c, 0, 54, 0
1, 16680, Note_on_c, 0, 57, 56
1, 16720, Note_on_c, 0, 69, 0
1, 16720, Note_on_c, 0, 66, 54
1, 16720, Note_on_c, 0, 57, 0
1, 16720, Note_on_c, 0, 54, 56
1, 16760, Note_on_c, 0, 66, 0
1, 16760, Note_on_c, 0, 69, 54
1, 16760, Note_on_c, 0, 54, 0
1, 16760, Note_on_c, 0, 57, 56
1, 16800, Note_on_c, 0, 69, 0
1, 16800, Note_on_c, 0, 74, 54
1, 16800, Note_on_c, 0, 57, 0
1, 16800, Note_on_c, 0, 62, 56
1, 16920, Note_on_c, 0, 74, 0
1, 16920, Note_on_c, 0, 62, 0
1, 17040, Note_on_c, 0, 50, 54
1, 17040, Note_on_c, 0, 38, 56
1, 17220, Note_on_c, 0, 50, 0
1, 17220, Note_on_c, 0, 50, 54
1, 17220, Note_on_c, 0, 38, 0
1, 17220, Note_on_c, 0, 38, 56
1, 17250, Note_on_c, 0, 50, 0
1, 17250, Note_on_c, 0, 38, 0
1, 17280, Note_on_c, 0, 50, 54
1, 17280, Note_on_c, 0, 38, 56
1, 17520, Note_on_c, 0, 50, 0
1, 17520, Note_on_c, 0, 38, 0
1, 17760, Note_on_c, 0, 59, 35
1, 17800, Note_on_c, 0, 59, 0
1, 17800, Note_on_c, 0, 62, 35
1, 17840, Note_on_c, 0, 62, 0
1, 17840, Note_on_c, 0, 67, 35
1, 17880, Note_on_c, 0, 67, 0
1, 17880, Note_on_c, 0, 59, 35
1, 17920, Note_on_c, 0, 59, 0
1, 17920, Note_on_c, 0, 62, 35
1, 17960, Note_on_c, 0, 62, 0
1, 17960, Note_on_c, 0, 67, 35
1, 18000, Note_on_c, 0, 67, 0
1, 18000, Note_on_c, 0, 59, 35
1, 18040, Note_on_c, 0, 59, 0
1, 18040, Note_on_c, 0, 62, 35
1, 18080, Note_on_c, 0, 62, 0
1, 18080, Note_on_c, 0, 67, 35
1, 18120, Note_on_c, 0, 74, 39
1, 18120, Note_on_c, 0, 67, 0
1, 18120, Note_on_c, 0, 60, 35
1, 18140, Note_on_c, 0, 74, 0
1, 18140, Note_on_c, 0, 76, 39
1, 18160, Note_on_c, 0, 76, 0
1, 18160, Note_on_c, 0, 74, 39
1, 18160, Note_on_c, 0, 60, 0
1, 18160, Note_on_c, 0, 62, 35
1, 18180, Note_on_c, 0, 74, 0
1, 18180, Note_on_c, 0, 73, 39
1, 18200, Note_on_c, 0, 62, 0
1, 18200, Note_on_c, 0, 66, 35
1, 18210, Note_on_c, 0, 73, 0
1, 18210, Note_on_c, 0, 74, 39
1, 18240, Note_on_c, 0, 74, 0
1, 18240, Note_on_c, 0, 79, 39
1, 18240, Note_on_c, 0, 66, 0
1, 18240, Note_on_c, 0, 59, 35
1, 18270, Note_on_c, 0, 79, 0
1, 18280, Note_on_c, 0, 59, 0
1, 18280, Note_on_c, 0, 62, 35
1, 18320, Note_on_c, 0, 62, 0
1, 18320, Note_on_c, 0, 67, 35
1, 18360, Note_on_c, 0, 79, 39
1, 18360, Note_on_c, 0, 67, 0
1, 18360, Note_on_c, 0, 59, 35
1, 18390, Note_on_c, 0, 79, 0
1, 18400, Note_on_c, 0, 59, 0
1, 18400, Note_on_c, 0, 62, 35
1, 18440, Note_on_c, 0, 62, 0
1, 18440, Note_on_c, 0, 67, 35
1, 18480, Note_on_c, 0, 67, 0
1, 18480, Note_on_c, 0, 59, 35
1, 18520, Note_on_c, 0, 59, 0
1, 18520, Note_on_c, 0, 62, 35
1, 18560, Note_on_c, 0, 62, 0
1, 18560, Note_on_c, 0, 67, 35
1, 18600, Note_on_c, 0, 74, 39
1, 18600, Note_on_c, 0, 67, 0
1, 18600, Note_on_c, 0, 60, 35
1, 18620, Note_on_c, 0, 74, 0
1, 18620, Note_on_c, 0, 76, 39
1, 18640, Note_on_c, 0, 76, 0
1, 18640, Note_on_c, 0, 74, 39
1, 18640, Note_on_c, 0, 60, 0
1, 18640, Note_on_c, 0, 62, 35
1, 18660, Note_on_c, 0, 74, 0
1, 18660, Note_on_c, 0, 73, 39
1, 18680, Note_on_c, 0, 62, 0
1, 18680, Note_on_c, 0, 66, 35
1, 18690, Note_on_c, 0, 73, 0
1, 18690, Note_on_c, 0, 74, 39
1, 18720, Note_on_c, 0, 74, 0
1, 18720, Note_on_c, 0, 79, 39
1, 18720, Note_on_c, 0, 66, 0
1, 18720, Note_on_c, 0, 59, 35
1, 18750, Note_on_c, 0, 79, 0
1, 18760, Note_on_c, 0, 59, 0
1, 18760, Note_on_c, 0, 62, 35
1, 18800, Note_on_c, 0, 62, 0
1, 18800, Note_on_c, 0, 67, 35
1, 18840, Note_on_c, 0, 79, 39
1, 18840, Note_on_c, 0, 67, 0
1, 18840, Note_on_c, 0, 59, 35
1, 18870, Note_on_c, 0, 79, 0
1, 18880, Note_on_c, 0, 59, 0
1, 18880, Note_on_c, 0, 62, 35
1, 18920, Note_on_c, 0, 62, 0
1, 18920, Note_on_c, 0, 67, 35
1, 18960, Note_on_c, 0, 67, 0
1, 18960, Note_on_c, 0, 59, 35
1, 19000, Note_on_c, 0, 59, 0
1, 19000, Note_on_c, 0, 62, 35
1, 19040, Note_on_c, 0, 62, 0
1, 19040, Note_on_c, 0, 67, 35
1, 19080, Note_on_c, 0, 74, 39
1, 19080, Note_on_c, 0, 67, 0
1, 19080, Note_on_c, 0, 60, 35
1, 19100, Note_on_c, 0, 74, 0
1, 19100, Note_on_c, 0, 76, 39
1, 19120, Note_on_c, 0, 76, 0
1, 19120, Note_on_c, 0, 74, 39
1, 19120, Note_on_c, 0, 60, 0
1, 19120, Note_on_c, 0, 62, 35
1, 19140, Note_on_c, 0, 74, 0
1, 19140, Note_on_c, 0, 73, 39
1, 19160, Note_on_c, 0, 62, 0
1, 19160, Note_on_c, 0, 66, 35
1, 19170, Note_on_c, 0, 73, 0
1, 19170, Note_on_c, 0, 74, 39
1, 19200, Note_on_c, 0, 74, 0
1, 19200, Note_on_c, 0, 79, 39
1, 19200, Note_on_c, 0, 66, 0
1, 19200, Note_on_c, 0, 59, 37
1, 19230, Note_on_c, 0, 79, 0
1, 19240, Note_on_c, 0, 59, 0
1, 19240, Note_on_c, 0, 62, 37
1, 19280, Note_on_c, 0, 62, 0
1, 19280, Note_on_c, 0, 67, 38
1, 19320, Note_on_c, 0, 79, 41
1, 19320, Note_on_c, 0, 67, 0
1, 19320, Note_on_c, 0, 59, 38
1, 19340, Note_on_c, 0, 79, 0
1, 19340, Note_on_c, 0, 81, 41
1, 19360, Note_on_c, 0, 81, 0
1, 19360, Note_on_c, 0, 79, 41
1, 19360, Note_on_c, 0, 59, 0
1, 19360, Note_on_c, 0, 62, 39
1, 19380, Note_on_c, 0, 79, 0
1, 19380, Note_on_c, 0, 78, 42
1, 19400, Note_on_c, 0, 62, 0
1, 19400, Note_on_c, 0, 67, 39
1, 19410, Note_on_c, 0, 78, 0
1, 19410, Note_on_c, 0, 79, 42
1, 19440, Note_on_c, 0, 79, 0
1, 19440, Note_on_c, 0, 81, 43
1, 19440, Note_on_c, 0, 67, 0
1, 19440, Note_on_c, 0, 54, 40
1, 19470, Note_on_c, 0, 81, 0
1, 19480, Note_on_c, 0, 54, 0
1, 19480, Note_on_c, 0, 57, 40
1, 19520, Note_on_c, 0, 57, 0
1, 19520, Note_on_c, 0, 62, 41
1, 19560, Note_on_c, 0, 81, 45
1, 19560, Note_on_c, 0, 62, 0
1, 19560, Note_on_c, 0, 54, 41
1, 19580, Note_on_c, 0, 81, 0
1, 19580, Note_on_c, 0, 83, 45
1, 19600, Note_on_c, 0, 83, 0
1, 19600, Note_on_c, 0, 81, 45
1, 19600, Note_on_c, 0, 54, 0
1, 19600, Note_on_c, 0, 57, 41
1, 19620, Note_on_c, 0, 81, 0
1, 19620, Note_on_c, 0, 79, 46
1, 19640, Note_on_c, 0, 57, 0
1, 19640, Note_on_c, 0, 62, 42
1, 19650, Note_on_c, 0, 79, 0
1, 19650, Note_on_c, 0, 81, 46
1, 19680, Note_on_c, 0, 81, 0
1, 19680, Note_on_c, 0, 83, 47
1, 19680, Note_on_c, 0, 62, 0
1, 19680, Note_on_c, 0, 55, 43
1, 19710, Note_on_c, 0, 83, 0
1, 19720, Note_on_c, 0, 55, 0
1, 19720, Note_on_c, 0, 59, 43
1, 19760, Note_on_c, 0, 59, 0
1, 19760, Note_on_c, 0, 62, 43
1, 19800, Note_on_c, 0, 83, 49
1, 19800, Note_on_c, 0, 62, 0
1, 19800, Note_on_c, 0, 55, 44
1, 19820, Note_on_c, 0, 83, 0
1, 19820, Note_on_c, 0, 84, 49
1, 19840, Note_on_c, 0, 84, 0
1, 19840, Note_on_c, 0, 83, 50
1, 19840, Note_on_c, 0, 55, 0
1, 19840, Note_on_c, 0, 59, 44
1, 19860, Note_on_c, 0, 83, 0
1, 19860, Note_on_c, 0, 81, 50
1, 19880, Note_on_c, 0, 59, 0
1, 19880, Note_on_c, 0, 62, 45
1, 19890, Note_on_c, 0, 81, 0
1, 19890, Note_on_c, 0, 83, 51
1, 19920, Note_on_c, 0, 83, 0
1, 19920, Note_on_c, 0, 84, 51
1, 19920, Note_on_c, 0, 62, 0
1, 19920, Note_on_c, 0, 52, 45
1, 19950, Note_on_c, 0, 84, 0
1, 19960, Note_on_c, 0, 52, 0
1, 19960, Note_on_c, 0, 55, 46
1, 20000, Note_on_c, 0, 55, 0
1, 20000, Note_on_c, 0, 60, 46
1, 20040, Note_on_c, 0, 84, 53
1, 20040, Note_on_c, 0, 60, 0
1, 20040, Note_on_c, 0, 52, 47
1, 20060, Note_on_c, 0, 84, 0
1, 20060, Note_on_c, 0, 86, 54
1, 20080, Note_on_c, 0, 86, 0
1, 20080, Note_on_c, 0, 84, 54
1, 20080, Note_on_c, 0, 52, 0
1, 20080, Note_on_c, 0, 55, 47
1, 20100, Note_on_c, 0, 84, 0
1, 20100, Note_on_c, 0, 83, 54
1, 20120, Note_on_c, 0, 55, 0
1, 20120, Note_on_c, 0, 60, 48
1, 20130, Note_on_c, 0, 83, 0
1, 20130, Note_on_c, 0, 84, 55
1, 20160, Note_on_c, 0, 84, 0
1, 20160, Note_on_c, 0, 86, 56
1, 20160, Note_on_c, 0, 60, 0
1, 20160, Note_on_c, 0, 47, 48
1, 20200, Note_on_c, 0, 47, 0
1, 20200, Note_on_c, 0, 50, 49
1, 20240, Note_on_c, 0, 50, 0
1, 20240, Note_on_c, 0, 55, 49
1, 20280, Note_on_c, 0, 55, 0
1, 20280, Note_on_c, 0, 47, 49
1, 20320, Note_on_c, 0, 47, 0
1, 20320, Note_on_c, 0, 50, 49
1, 20360, Note_on_c, 0, 50, 0
1, 20360, Note_on_c, 0, 55, 49
1, 20400, Note_on_c, 0, 55, 0
1, 20400, Note_on_c, 0, 47, 49
1, 20520, Note_on_c, 0, 86, 0
1, 20520, Note_on_c, 0, 75, 55
1, 20520, Note_on_c, 0, 87, 55
1, 20520, Note_on_c, 0, 47, 0
1, 20640, Note_on_c, 0, 87, 0
1, 20640, Note_on_c, 0, 75, 0
1, 20640, Note_on_c, 0, 76, 55
1, 20640, Note_on_c, 0, 88, 55
1, 20640, Note_on_c, 0, 36, 57
1, 20640, Note_on_c, 0, 48, 57
1, 20760, Note_on_c, 0, 88, 0
1, 20760, Note_on_c, 0, 76, 0
1, 20760, Note_on_c, 0, 68, 46
1, 20760, Note_on_c, 0, 80, 46
1, 20760, Note_on_c, 0, 48, 0
1, 20760, Note_on_c, 0, 36, 0
1, 20880, Note_on_c, 0, 80, 0
1, 20880, Note_on_c, 0, 68, 0
1, 20880, Note_on_c, 0, 69, 49
1, 20880, Note_on_c, 0, 81, 49
1, 21000, Note_on_c, 0, 81, 0
1, 21000, Note_on_c, 0, 69, 0
1, 21000, Note_on_c, 0, 71, 53
1, 21000, Note_on_c, 0, 83, 53
1, 21120, Note_on_c, 0, 83, 0
1, 21120, Note_on_c, 0, 71, 0
1, 21120, Note_on_c, 0, 72, 56
1, 21120, Note_on_c, 0, 84, 56
1, 21360, Note_on_c, 0, 84, 0
1, 21360, Note_on_c, 0, 72, 0
1, 21360, Note_on_c, 0, 74, 56
1, 21360, Note_on_c, 0, 86, 56
1, 21480, Note_on_c, 0, 86, 0
1, 21480, Note_on_c, 0, 74, 0
1, 21480, Note_on_c, 0, 76, 56
1, 21480, Note_on_c, 0, 88, 56
1, 21600, Note_on_c, 0, 88, 0
1, 21600, Note_on_c, 0, 76, 0
1, 21600, Note_on_c, 0, 79, 39
1, 21600, Note_on_c, 0, 74, 39
1, 21600, Note_on_c, 0, 71, 38
1, 21600, Note_on_c, 0, 62, 38
1, 21840, Note_on_c, 0, 74, 0
1, 21840, Note_on_c, 0, 79, 0
1, 21840, Note_on_c, 0, 83, 39
1, 21840, Note_on_c, 0, 78, 39
1, 21840, Note_on_c, 0, 71, 0
1, 21840, Note_on_c, 0, 72, 38
1, 21900, Note_on_c, 0, 83, 0
1, 21900, Note_on_c, 0, 81, 39
1, 22020, Note_on_c, 0, 81, 0
1, 22020, Note_on_c, 0, 79, 39
1, 22080, Note_on_c, 0, 79, 0
1, 22080, Note_on_c, 0, 78, 0
1, 22080, Note_on_c, 0, 79, 39
1, 22080, Note_on_c, 0, 72, 0
1, 22080, Note_on_c, 0, 62, 0
1, 22080, Note_on_c, 0, 67, 38
1, 22080, Note_on_c, 0, 71, 38
1, 22320, Note_on_c, 0, 79, 0
1, 22320, Note_on_c, 0, 71, 0
1, 22320, Note_on_c, 0, 67, 0
1, 22440, Note_on_c, 0, 83, 41
1, 22440, Note_on_c, 0, 79, 36
1, 22480, Note_on_c, 0, 83, 0
1, 22480, Note_on_c, 0, 87, 44
1, 22520, Note_on_c, 0, 87, 0
1, 22520, Note_on_c, 0, 88, 47
1, 22560, Note_on_c, 0, 88, 0
1, 22560, Note_on_c, 0, 86, 39
1, 22560, Note_on_c, 0, 79, 0
1, 22560, Note_on_c, 0, 78, 36
1, 22560, Note_on_c, 0, 81, 36
1, 22590, Note_on_c, 0, 86, 0
1, 22620, Note_on_c, 0, 81, 0
1, 22620, Note_on_c, 0, 78, 0
1, 22680, Note_on_c, 0, 86, 39
1, 22710, Note_on_c, 0, 86, 0
1, 22800, Note_on_c, 0, 86, 39
1, 22830, Note_on_c, 0, 86, 0
1, 22920, Note_on_c, 0, 79, 39
1, 22920, Note_on_c, 0, 76, 36
1, 22960, Note_on_c, 0, 79, 0
1, 22960, Note_on_c, 0, 83, 40
1, 23000, Note_on_c, 0, 83, 0
1, 23000, Note_on_c, 0, 84, 42
1, 23040, Note_on_c, 0, 84, 0
1, 23040, Note_on_c, 0, 83, 43
1, 23040, Note_on_c, 0, 76, 0
1, 23040, Note_on_c, 0, 78, 36
1, 23040, Note_on_c, 0, 74, 36
1, 23070, Note_on_c, 0, 83, 0
1, 23100, Note_on_c, 0, 74, 0
1, 23100, Note_on_c, 0, 78, 0
1, 23160, Note_on_c, 0, 83, 39
1, 23190, Note_on_c, 0, 83, 0
1, 23280, Note_on_c, 0, 83, 39
1, 23310, Note_on_c, 0, 83, 0
1, 23400, Note_on_c, 0, 76, 38
1, 23400, Note_on_c, 0, 72, 36
1, 23440, Note_on_c, 0, 76, 0
1, 23440, Note_on_c, 0, 80, 40
1, 23480, Note_on_c, 0, 80, 0
1, 23480, Note_on_c, 0, 81, 41
1, 23520, Note_on_c, 0, 81, 0
1, 23520, Note_on_c, 0, 79, 43
1, 23520, Note_on_c, 0, 72, 0
1, 23520, Note_on_c, 0, 74, 36
1, 23520, Note_on_c, 0, 71, 36
1, 23560, Note_on_c, 0, 79, 0
1, 23580, Note_on_c, 0, 71, 0
1, 23580, Note_on_c, 0, 74, 0
1, 23640, Note_on_c, 0, 79, 39
1, 23680, Note_on_c, 0, 79, 0
1, 23760, Note_on_c, 0, 79, 39
1, 23800, Note_on_c, 0, 79, 0
1, 23880, Note_on_c, 0, 83, 46
1, 23880, Note_on_c, 0, 71, 42
1, 23880, Note_on_c, 0, 67, 42
1, 23940, Note_on_c, 0, 67, 0
1, 23940, Note_on_c, 0, 71, 0
1, 23970, Note_on_c, 0, 83, 0
1, 23970, Note_on_c, 0, 79, 41
1, 24000, Note_on_c, 0, 79, 0
1, 24000, Note_on_c, 0, 76, 39
1, 24000, Note_on_c, 0, 72, 42
1, 24000, Note_on_c, 0, 60, 42
1, 24060, Note_on_c, 0, 76, 0
1, 24120, Note_on_c, 0, 84, 42
1, 24120, Note_on_c, 0, 60, 0
1, 24120, Note_on_c, 0, 72, 0
1, 24210, Note_on_c, 0, 84, 0
1, 24210, Note_on_c, 0, 81, 41
1, 24240, Note_on_c, 0, 81, 0
1, 24240, Note_on_c, 0, 78, 40
1, 24240, Note_on_c, 0, 62, 42
1, 24240, Note_on_c, 0, 69, 42
1, 24300, Note_on_c, 0, 78, 0
1, 24360, Note_on_c, 0, 81, 39
1, 24360, Note_on_c, 0, 69, 0
1, 24360, Note_on_c, 0, 62, 0
1, 24450, Note_on_c, 0, 81, 0
1, 24450, Note_on_c, 0, 78, 39
1, 24480, Note_on_c, 0, 78, 0
1, 24480, Note_on_c, 0, 79, 39
1, 24480, Note_on_c, 0, 67, 39
1, 24480, Note_on_c, 0, 71, 39
1, 24600, Note_on_c, 0, 79, 0
1, 24600, Note_on_c, 0, 71, 0
1, 24600, Note_on_c, 0, 67, 0
1, 24840, Note_on_c, 0, 83, 50
1, 24840, Note_on_c, 0, 79, 42
1, 24880, Note_on_c, 0, 87, 44
1, 24920, Note_on_c, 0, 87, 0
1, 24920, Note_on_c, 0, 83, 0
1, 24920, Note_on_c, 0, 88, 39
1, 24960, Note_on_c, 0, 88, 0
1, 24960, Note_on_c, 0, 81, 39
1, 24960, Note_on_c, 0, 79, 0
1, 24960, Note_on_c, 0, 78, 37
1, 24990, Note_on_c, 0, 78, 0
1, 25000, Note_on_c, 0, 81, 0
1, 25000, Note_on_c, 0, 85, 39
1, 25040, Note_on_c, 0, 85, 0
1, 25040, Note_on_c, 0, 86, 39
1, 25080, Note_on_c, 0, 86, 0
1, 25080, Note_on_c, 0, 81, 39
1, 25080, Note_on_c, 0, 78, 36
1, 25110, Note_on_c, 0, 78, 0
1, 25120, Note_on_c, 0, 81, 0
1, 25120, Note_on_c, 0, 85, 39
1, 25160, Note_on_c, 0, 85, 0
1, 25160, Note_on_c, 0, 86, 39
1, 25200, Note_on_c, 0, 86, 0
1, 25200, Note_on_c, 0, 81, 39
1, 25200, Note_on_c, 0, 78, 36
1, 25230, Note_on_c, 0, 78, 0
1, 25240, Note_on_c, 0, 81, 0
1, 25240, Note_on_c, 0, 85, 39
1, 25280, Note_on_c, 0, 85, 0
1, 25280, Note_on_c, 0, 86, 39
1, 25320, Note_on_c, 0, 86, 0
1, 25320, Note_on_c, 0, 83, 47
1, 25320, Note_on_c, 0, 79, 44
1, 25360, Note_on_c, 0, 87, 45
1, 25400, Note_on_c, 0, 87, 0
1, 25400, Note_on_c, 0, 83, 0
1, 25400, Note_on_c, 0, 88, 43
1, 25440, Note_on_c, 0, 88, 0
1, 25440, Note_on_c, 0, 81, 40
1, 25440, Note_on_c, 0, 79, 0
1, 25440, Note_on_c, 0, 78, 36
1, 25470, Note_on_c, 0, 78, 0
1, 25480, Note_on_c, 0, 81, 0
1, 25480, Note_on_c, 0, 85, 39
1, 25520, Note_on_c, 0, 85, 0
1, 25520, Note_on_c, 0, 86, 39
1, 25560, Note_on_c, 0, 86, 0
1, 25560, Note_on_c, 0, 81, 39
1, 25560, Note_on_c, 0, 78, 36
1, 25590, Note_on_c, 0, 78, 0
1, 25600, Note_on_c, 0, 81, 0
1, 25600, Note_on_c, 0, 85, 39
1, 25640, Note_on_c, 0, 85, 0
1, 25640, Note_on_c, 0, 86, 39
1, 25680, Note_on_c, 0, 86, 0
1, 25680, Note_on_c, 0, 81, 39
1, 25680, Note_on_c, 0, 78, 36
1, 25710, Note_on_c, 0, 78, 0
1, 25720, Note_on_c, 0, 81, 0
1, 25720, Note_on_c, 0, 85, 39
1, 25760, Note_on_c, 0, 85, 0
1, 25760, Note_on_c, 0, 86, 39
1, 25800, Note_on_c, 0, 86, 0
1, 25800, Note_on_c, 0, 79, 48
1, 25800, Note_on_c, 0, 76, 43
1, 25840, Note_on_c, 0, 83, 45
1, 25880, Note_on_c, 0, 83, 0
1, 25880, Note_on_c, 0, 79, 0
1, 25880, Note_on_c, 0, 84, 42
1, 25920, Note_on_c, 0, 84, 0
1, 25920, Note_on_c, 0, 78, 39
1, 25920, Note_on_c, 0, 76, 0
1, 25920, Note_on_c, 0, 74, 36
1, 25950, Note_on_c, 0, 74, 0
1, 25960, Note_on_c, 0, 78, 0
1, 25960, Note_on_c, 0, 82, 39
1, 26000, Note_on_c, 0, 82, 0
1, 26000, Note_on_c, 0, 83, 39
1, 26040, Note_on_c, 0, 83, 0
1, 26040, Note_on_c, 0, 78, 39
1, 26040, Note_on_c, 0, 74, 36
1, 26070, Note_on_c, 0, 74, 0
1, 26080, Note_on_c, 0, 78, 0
1, 26080, Note_on_c, 0, 82, 39
1, 26120, Note_on_c, 0, 82, 0
1, 26120, Note_on_c, 0, 83, 39
1, 26160, Note_on_c, 0, 83, 0
1, 26160, Note_on_c, 0, 78, 39
1, 26160, Note_on_c, 0, 74, 36
1, 26190, Note_on_c, 0, 74, 0
1, 26200, Note_on_c, 0, 78, 0
1, 26200, Note_on_c, 0, 82, 39
1, 26240, Note_on_c, 0, 82, 0
1, 26240, Note_on_c, 0, 83, 39
1, 26280, Note_on_c, 0, 83, 0
1, 26280, Note_on_c, 0, 79, 48
1, 26280, Note_on_c, 0, 76, 42
1, 26320, Note_on_c, 0, 83, 45
1, 26360, Note_on_c, 0, 83, 0
1, 26360, Note_on_c, 0, 79, 0
1, 26360, Note_on_c, 0, 84, 42
1, 26400, Note_on_c, 0, 84, 0
1, 26400, Note_on_c, 0, 78, 39
1, 26400, Note_on_c, 0, 76, 0
1, 26400, Note_on_c, 0, 74, 36
1, 26430, Note_on_c, 0, 74, 0
1, 26440, Note_on_c, 0, 78, 0
1, 26440, Note_on_c, 0, 82, 39
1, 26480, Note_on_c, 0, 82, 0
1, 26480, Note_on_c, 0, 83, 39
1, 26520, Note_on_c, 0, 83, 0
1, 26520, Note_on_c, 0, 78, 39
1, 26520, Note_on_c, 0, 74, 36
1, 26550, Note_on_c, 0, 74, 0
1, 26560, Note_on_c, 0, 78, 0
1, 26560, Note_on_c, 0, 82, 39
1, 26600, Note_on_c, 0, 82, 0
1, 26600, Note_on_c, 0, 83, 39
1, 26640, Note_on_c, 0, 83, 0
1, 26640, Note_on_c, 0, 78, 39
1, 26640, Note_on_c, 0, 74, 36
1, 26670, Note_on_c, 0, 74, 0
1, 26680, Note_on_c, 0, 78, 0
1, 26680, Note_on_c, 0, 82, 39
1, 26720, Note_on_c, 0, 82, 0
1, 26720, Note_on_c, 0, 83, 39
1, 26760, Note_on_c, 0, 83, 0
1, 26760, Note_on_c, 0, 76, 49
1, 26760, Note_on_c, 0, 72, 42
1, 26800, Note_on_c, 0, 80, 45
1, 26840, Note_on_c, 0, 80, 0
1, 26840, Note_on_c, 0, 76, 0
1, 26840, Note_on_c, 0, 81, 41
1, 26880, Note_on_c, 0, 81, 0
1, 26880, Note_on_c, 0, 74, 39
1, 26880, Note_on_c, 0, 72, 0
1, 26880, Note_on_c, 0, 71, 36
1, 26910, Note_on_c, 0, 71, 0
1, 26920, Note_on_c, 0, 74, 0
1, 26920, Note_on_c, 0, 78, 39
1, 26960, Note_on_c, 0, 78, 0
1, 26960, Note_on_c, 0, 79, 39
1, 27000, Note_on_c, 0, 79, 0
1, 27000, Note_on_c, 0, 74, 39
1, 27000, Note_on_c, 0, 71, 36
1, 27030, Note_on_c, 0, 71, 0
1, 27040, Note_on_c, 0, 74, 0
1, 27040, Note_on_c, 0, 78, 39
1, 27080, Note_on_c, 0, 78, 0
1, 27080, Note_on_c, 0, 79, 39
1, 27120, Note_on_c, 0, 79, 0
1, 27120, Note_on_c, 0, 74, 39
1, 27120, Note_on_c, 0, 71, 36
1, 27150, Note_on_c, 0, 71, 0
1, 27160, Note_on_c, 0, 74, 0
1, 27160, Note_on_c, 0, 78, 39
1, 27200, Note_on_c, 0, 78, 0
1, 27200, Note_on_c, 0, 79, 39
1, 27240, Note_on_c, 0, 79, 0
1, 27240, Note_on_c, 0, 76, 47
1, 27240, Note_on_c, 0, 72, 42
1, 27280, Note_on_c, 0, 80, 43
1, 27320, Note_on_c, 0, 80, 0
1, 27320, Note_on_c, 0, 76, 0
1, 27320, Note_on_c, 0, 81, 39
1, 27360, Note_on_c, 0, 81, 0
1, 27360, Note_on_c, 0, 74, 39
1, 27360, Note_on_c, 0, 72, 0
1, 27360, Note_on_c, 0, 71, 36
1, 27390, Note_on_c, 0, 71, 0
1, 27400, Note_on_c, 0, 74, 0
1, 27400, Note_on_c, 0, 78, 39
1, 27440, Note_on_c, 0, 78, 0
1, 27440, Note_on_c, 0, 79, 39
1, 27480, Note_on_c, 0, 79, 0
1, 27480, Note_on_c, 0, 74, 39
1, 27480, Note_on_c, 0, 71, 36
1, 27510, Note_on_c, 0, 71, 0
1, 27520, Note_on_c, 0, 74, 0
1, 27520, Note_on_c, 0, 78, 39
1, 27560, Note_on_c, 0, 78, 0
1, 27560, Note_on_c, 0, 79, 39
1, 27600, Note_on_c, 0, 79, 0
1, 27600, Note_on_c, 0, 74, 39
1, 27600, Note_on_c, 0, 71, 36
1, 27630, Note_on_c, 0, 71, 0
1, 27640, Note_on_c, 0, 74, 0
1, 27640, Note_on_c, 0, 78, 39
1, 27680, Note_on_c, 0, 78, 0
1, 27680, Note_on_c, 0, 79, 39
1, 27720, Note_on_c, 0, 79, 0
1, 27720, Note_on_c, 0, 76, 46
1, 27720, Note_on_c, 0, 72, 41
1, 27760, Note_on_c, 0, 80, 43
1, 27800, Note_on_c, 0, 80, 0
1, 27800, Note_on_c, 0, 76, 0
1, 27800, Note_on_c, 0, 81, 40
1, 27840, Note_on_c, 0, 81, 0
1, 27840, Note_on_c, 0, 74, 39
1, 27840, Note_on_c, 0, 72, 0
1, 27840, Note_on_c, 0, 71, 36
1, 27870, Note_on_c, 0, 71, 0
1, 27880, Note_on_c, 0, 78, 41
1, 27920, Note_on_c, 0, 78, 0
1, 27920, Note_on_c, 0, 74, 0
1, 27920, Note_on_c, 0, 79, 42
1, 27960, Note_on_c, 0, 79, 0
1, 27960, Note_on_c, 0, 74, 43
1, 27960, Note_on_c, 0, 66, 42
1, 28000, Note_on_c, 0, 80, 45
1, 28020, Note_on_c, 0, 66, 0
1, 28040, Note_on_c, 0, 80, 0
1, 28040, Note_on_c, 0, 74, 0
1, 28040, Note_on_c, 0, 81, 46
1, 28080, Note_on_c, 0, 81, 0
1, 28080, Note_on_c, 0, 74, 47
1, 28080, Note_on_c, 0, 67, 44
1, 28120, Note_on_c, 0, 82, 48
1, 28140, Note_on_c, 0, 67, 0
1, 28160, Note_on_c, 0, 82, 0
1, 28160, Note_on_c, 0, 74, 0
1, 28160, Note_on_c, 0, 83, 50
1, 28200, Note_on_c, 0, 83, 0
1, 28200, Note_on_c, 0, 74, 51
1, 28200, Note_on_c, 0, 69, 46
1, 28240, Note_on_c, 0, 83, 52
1, 28260, Note_on_c, 0, 69, 0
1, 28280, Note_on_c, 0, 83, 0
1, 28280, Note_on_c, 0, 74, 0
1, 28280, Note_on_c, 0, 84, 54
1, 28320, Note_on_c, 0, 84, 0
1, 28320, Note_on_c, 0, 74, 55
1, 28320, Note_on_c, 0, 71, 48
1, 28360, Note_on_c, 0, 85, 56
1, 28400, Note_on_c, 0, 85, 0
1, 28400, Note_on_c, 0, 74, 0
1, 28400, Note_on_c, 0, 86, 58
1, 28440, Note_on_c, 0, 86, 0
1, 28440, Note_on_c, 0, 84, 56
1, 28480, Note_on_c, 0, 84, 0
1, 28480, Note_on_c, 0, 83, 54
1, 28520, Note_on_c, 0, 83, 0
1, 28520, Note_on_c, 0, 81, 52
1, 28560, Note_on_c, 0, 81, 0
1, 28560, Note_on_c, 0, 79, 50
1, 28560, Note_on_c, 0, 71, 0
1, 28600, Note_on_c, 0, 79, 0
1, 28600, Note_on_c, 0, 78, 48
1, 28640, Note_on_c, 0, 78, 0
1, 28640, Note_on_c, 0, 76, 46
1, 28680, Note_on_c, 0, 76, 0
1, 28680, Note_on_c, 0, 74, 44
1, 28720, Note_on_c, 0, 74, 0
1, 28720, Note_on_c, 0, 72, 42
1, 28760, Note_on_c, 0, 72, 0
1, 28760, Note_on_c, 0, 71, 40
1, 28800, Note_on_c, 0, 71, 0
1, 28800, Note_on_c, 0, 69, 39
1, 28800, Note_on_c, 0, 48, 39
1, 28840, Note_on_c, 0, 69, 0
1, 28840, Note_on_c, 0, 76, 48
1, 28880, Note_on_c, 0, 76, 0
1, 28880, Note_on_c, 0, 74, 47
1, 28920, Note_on_c, 0, 74, 0
1, 28920, Note_on_c, 0, 72, 45
1, 28920, Note_on_c, 0, 60, 43
1, 28960, Note_on_c, 0, 72, 0
1, 28960, Note_on_c, 0, 71, 43
1, 29000, Note_on_c, 0, 71, 0
1, 29000, Note_on_c, 0, 69, 41
1, 29040, Note_on_c, 0, 69, 0
1, 29040, Note_on_c, 0, 67, 40
1, 29040, Note_on_c, 0, 60, 0
1, 29040, Note_on_c, 0, 48, 0
1, 29040, Note_on_c, 0, 59, 41
1, 29040, Note_on_c, 0, 50, 41
1, 29160, Note_on_c, 0, 67, 0
1, 29160, Note_on_c, 0, 66, 39
1, 29160, Note_on_c, 0, 59, 0
1, 29160, Note_on_c, 0, 57, 39
1, 29280, Note_on_c, 0, 66, 0
1, 29280, Note_on_c, 0, 57, 0
1, 29280, Note_on_c, 0, 50, 0
1, 29280, Note_on_c, 0, 55, 48
1, 29280, Note_on_c, 0, 50, 48
1, 29280, Note_on_c, 0, 47, 48
1, 29320, Note_on_c, 0, 85, 56
1, 29360, Note_on_c, 0, 85, 0
1, 29360, Note_on_c, 0, 86, 58
1, 29400, Note_on_c, 0, 86, 0
1, 29400, Note_on_c, 0, 84, 56
1, 29440, Note_on_c, 0, 84, 0
1, 29440, Note_on_c, 0, 83, 54
1, 29480, Note_on_c, 0, 83, 0
1, 29480, Note_on_c, 0, 81, 52
1, 29520, Note_on_c, 0, 81, 0
1, 29520, Note_on_c, 0, 79, 50
1, 29520, Note_on_c, 0, 47, 0
1, 29520, Note_on_c, 0, 50, 0
1, 29520, Note_on_c, 0, 55, 0
1, 29560, Note_on_c, 0, 79, 0
1, 29560, Note_on_c, 0, 78, 48
1, 29600, Note_on_c, 0, 78, 0
1, 29600, Note_on_c, 0, 76, 46
1, 29640, Note_on_c, 0, 76, 0
1, 29640, Note_on_c, 0, 74, 44
1, 29680, Note_on_c, 0, 74, 0
1, 29680, Note_on_c, 0, 72, 42
1, 29720, Note_on_c, 0, 72, 0
1, 29720, Note_on_c, 0, 71, 40
1, 29760, Note_on_c, 0, 71, 0
1, 29760, Note_on_c, 0, 69, 39
1, 29760, Note_on_c, 0, 48, 39
1, 29800, Note_on_c, 0, 69, 0
1, 29800, Note_on_c, 0, 76, 48
1, 29840, Note_on_c, 0, 76, 0
1, 29840, Note_on_c, 0, 74, 47
1, 29880, Note_on_c, 0, 74, 0
1, 29880, Note_on_c, 0, 72, 45
1, 29880, Note_on_c, 0, 60, 43
1, 29920, Note_on_c, 0, 72, 0
1, 29920, Note_on_c, 0, 71, 43
1, 29960, Note_on_c, 0, 71, 0
1, 29960, Note_on_c, 0, 69, 41
1, 30000, Note_on_c, 0, 69, 0
1, 30000, Note_on_c, 0, 67, 40
1, 30000, Note_on_c, 0, 60, 0
1, 30000, Note_on_c, 0, 48, 0
1, 30000, Note_on_c, 0, 59, 41
1, 30000, Note_on_c, 0, 50, 41
1, 30120, Note_on_c, 0, 67, 0
1, 30120, Note_on_c, 0, 66, 39
1, 30120, Note_on_c, 0, 59, 0
1, 30120, Note_on_c, 0, 57, 39
1, 30135, Note_on_c, 0, 66, 0
1, 30135, Note_on_c, 0, 67, 39
1, 30150, Note_on_c, 0, 67, 0
1, 30150, Note_on_c, 0, 66, 39
1, 30240, Note_on_c, 0, 66, 0
1, 30240, Note_on_c, 0, 67, 39
1, 30240, Note_on_c, 0, 57, 0
1, 30240, Note_on_c, 0, 50, 0
1, 30240, Note_on_c, 0, 55, 35
1, 30280, Note_on_c, 0, 55, 0
1, 30280, Note_on_c, 0, 59, 35
1, 30320, Note_on_c, 0, 59, 0
1, 30320, Note_on_c, 0, 62, 35
1, 30360, Note_on_c, 0, 67, 0
1, 30360, Note_on_c, 0, 62, 0
1, 30360, Note_on_c, 0, 55, 35
1, 30400, Note_on_c, 0, 55, 0
1, 30400, Note_on_c, 0, 59, 35
1, 30440, Note_on_c, 0, 59, 0
1, 30440, Note_on_c, 0, 62, 35
1, 30480, Note_on_c, 0, 62, 0
1, 30480, Note_on_c, 0, 55, 35
1, 30520, Note_on_c, 0, 55, 0
1, 30520, Note_on_c, 0, 59, 35
1, 30560, Note_on_c, 0, 59, 0
1, 30560, Note_on_c, 0, 62, 35
1, 30600, Note_on_c, 0, 74, 39
1, 30600, Note_on_c, 0, 62, 0
1, 30600, Note_on_c, 0, 50, 38
1, 30640, Note_on_c, 0, 50, 0
1, 30640, Note_on_c, 0, 54, 38
1, 30680, Note_on_c, 0, 54, 0
1, 30680, Note_on_c, 0, 62, 38
1, 30690, Note_on_c, 0, 74, 0
1, 30690, Note_on_c, 0, 78, 39
1, 30720, Note_on_c, 0, 78, 0
1, 30720, Note_on_c, 0, 79, 39
1, 30720, Note_on_c, 0, 62, 0
1, 30720, Note_on_c, 0, 55, 35
1, 30750, Note_on_c, 0, 79, 0
1, 30760, Note_on_c, 0, 55, 0
1, 30760, Note_on_c, 0, 59, 35
1, 30800, Note_on_c, 0, 59, 0
1, 30800, Note_on_c, 0, 62, 35
1, 30840, Note_on_c, 0, 79, 39
1, 30840, Note_on_c, 0, 62, 0
1, 30840, Note_on_c, 0, 55, 35
1, 30870, Note_on_c, 0, 79, 0
1, 30880, Note_on_c, 0, 55, 0
1, 30880, Note_on_c, 0, 59, 35
1, 30920, Note_on_c, 0, 59, 0
1, 30920, Note_on_c, 0, 62, 35
1, 30960, Note_on_c, 0, 79, 39
1, 30960, Note_on_c, 0, 62, 0
1, 30960, Note_on_c, 0, 55, 35
1, 30990, Note_on_c, 0, 79, 0
1, 31000, Note_on_c, 0, 55, 0
1, 31000, Note_on_c, 0, 59, 35
1, 31040, Note_on_c, 0, 59, 0
1, 31040, Note_on_c, 0, 62, 35
1, 31080, Note_on_c, 0, 81, 41
1, 31080, Note_on_c, 0, 62, 0
1, 31080, Note_on_c, 0, 50, 38
1, 31095, Note_on_c, 0, 81, 0
1, 31095, Note_on_c, 0, 83, 42
1, 31110, Note_on_c, 0, 83, 0
1, 31110, Note_on_c, 0, 81, 44
1, 31120, Note_on_c, 0, 50, 0
1, 31120, Note_on_c, 0, 54, 38
1, 31160, Note_on_c, 0, 54, 0
1, 31160, Note_on_c, 0, 62, 38
1, 31170, Note_on_c, 0, 81, 0
1, 31170, Note_on_c, 0, 86, 48
1, 31200, Note_on_c, 0, 86, 0
1, 31200, Note_on_c, 0, 83, 47
1, 31200, Note_on_c, 0, 62, 0
1, 31200, Note_on_c, 0, 55, 35
1, 31240, Note_on_c, 0, 55, 0
1, 31240, Note_on_c, 0, 59, 35
1, 31280, Note_on_c, 0, 59, 0
1, 31280, Note_on_c, 0, 62, 35
1, 31320, Note_on_c, 0, 83, 0
1, 31320, Note_on_c, 0, 79, 38
1, 31320, Note_on_c, 0, 62, 0
1, 31320, Note_on_c, 0, 55, 35
1, 31350, Note_on_c, 0, 79, 0
1, 31360, Note_on_c, 0, 55, 0
1, 31360, Note_on_c, 0, 59, 35
1, 31400, Note_on_c, 0, 59, 0
1, 31400, Note_on_c, 0, 62, 35
1, 31440, Note_on_c, 0, 79, 39
1, 31440, Note_on_c, 0, 62, 0
1, 31440, Note_on_c, 0, 55, 35
1, 31470, Note_on_c, 0, 79, 0
1, 31480, Note_on_c, 0, 55, 0
1, 31480, Note_on_c, 0, 59, 35
1, 31520, Note_on_c, 0, 59, 0
1, 31520, Note_on_c, 0, 62, 35
1, 31560, Note_on_c, 0, 74, 51
1, 31560, Note_on_c, 0, 62, 0
1, 31560, Note_on_c, 0, 50, 38
1, 31600, Note_on_c, 0, 50, 0
1, 31600, Note_on_c, 0, 54, 38
1, 31640, Note_on_c, 0, 54, 0
1, 31640, Note_on_c, 0, 62, 38
1, 31650, Note_on_c, 0, 74, 0
1, 31650, Note_on_c, 0, 78, 48
1, 31680, Note_on_c, 0, 78, 0
1, 31680, Note_on_c, 0, 79, 47
1, 31680, Note_on_c, 0, 62, 0
1, 31680, Note_on_c, 0, 55, 35
1, 31710, Note_on_c, 0, 79, 0
1, 31720, Note_on_c, 0, 55, 0
1, 31720, Note_on_c, 0, 59, 35
1, 31760, Note_on_c, 0, 59, 0
1, 31760, Note_on_c, 0, 62, 35
1, 31800, Note_on_c, 0, 79, 46
1, 31800, Note_on_c, 0, 62, 0
1, 31800, Note_on_c, 0, 55, 35
1, 31830, Note_on_c, 0, 79, 0
1, 31840, Note_on_c, 0, 55, 0
1, 31840, Note_on_c, 0, 59, 35
1, 31880, Note_on_c, 0, 59, 0
1, 31880, Note_on_c, 0, 62, 35
1, 31920, Note_on_c, 0, 79, 46
1, 31920, Note_on_c, 0, 62, 0
1, 31920, Note_on_c, 0, 55, 35
1, 31950, Note_on_c, 0, 79, 0
1, 31960, Note_on_c, 0, 55, 0
1, 31960, Note_on_c, 0, 59, 35
1, 32000, Note_on_c, 0, 59, 0
1, 32000, Note_on_c, 0, 62, 35
1, 32040, Note_on_c, 0, 81, 46
1, 32040, Note_on_c, 0, 62, 0
1, 32040, Note_on_c, 0, 50, 38
1, 32055, Note_on_c, 0, 81, 0
1, 32055, Note_on_c, 0, 83, 46
1, 32070, Note_on_c, 0, 83, 0
1, 32070, Note_on_c, 0, 81, 46
1, 32080, Note_on_c, 0, 50, 0
1, 32080, Note_on_c, 0, 54, 38
1, 32120, Note_on_c, 0, 54, 0
1, 32120, Note_on_c, 0, 62, 38
1, 32130, Note_on_c, 0, 81, 0
1, 32130, Note_on_c, 0, 83, 46
1, 32160, Note_on_c, 0, 83, 0
1, 32160, Note_on_c, 0, 79, 46
1, 32160, Note_on_c, 0, 62, 0
1, 32160, Note_on_c, 0, 55, 36
1, 32200, Note_on_c, 0, 55, 0
1, 32200, Note_on_c, 0, 59, 36
1, 32240, Note_on_c, 0, 59, 0
1, 32240, Note_on_c, 0, 62, 37
1, 32280, Note_on_c, 0, 79, 0
1, 32280, Note_on_c, 0, 62, 0
1, 32280, Note_on_c, 0, 55, 38
1, 32320, Note_on_c, 0, 55, 0
1, 32320, Note_on_c, 0, 59, 38
1, 32360, Note_on_c, 0, 59, 0
1, 32360, Note_on_c, 0, 62, 39
1, 32400, Note_on_c, 0, 71, 50
1, 32400, Note_on_c, 0, 74, 50
1, 32400, Note_on_c, 0, 62, 0
1, 32400, Note_on_c, 0, 55, 40
1, 32440, Note_on_c, 0, 55, 0
1, 32440, Note_on_c, 0, 59, 41
1, 32480, Note_on_c, 0, 59, 0
1, 32480, Note_on_c, 0, 62, 41
1, 32520, Note_on_c, 0, 74, 0
1, 32520, Note_on_c, 0, 71, 0
1, 32520, Note_on_c, 0, 62, 0
1, 32520, Note_on_c, 0, 55, 42
1, 32560, Note_on_c, 0, 55, 0
1, 32560, Note_on_c, 0, 59, 43
1, 32600, Note_on_c, 0, 59, 0
1, 32600, Note_on_c, 0, 62, 44
1, 32640, Note_on_c, 0, 67, 50
1, 32640, Note_on_c, 0, 71, 50
1, 32640, Note_on_c, 0, 62, 0
1, 32640, Note_on_c, 0, 55, 45
1, 32880, Note_on_c, 0, 71, 0
1, 32880, Note_on_c, 0, 67, 0
1, 32880, Note_on_c, 0, 55, 0
1, 33000, Note_on_c, 0, 72, 53
1, 33090, Note_on_c, 0, 72, 0
1, 33090, Note_on_c, 0, 76, 53
1, 33120, Note_on_c, 0, 76, 0
1, 33120, Note_on_c, 0, 79, 53
1, 33120, Note_on_c, 0, 64, 50
1, 33120, Note_on_c, 0, 60, 50
1, 33150, Note_on_c, 0, 79, 0
1, 33240, Note_on_c, 0, 79, 53
1, 33240, Note_on_c, 0, 60, 0
1, 33240, Note_on_c, 0, 64, 0
1, 33270, Note_on_c, 0, 79, 0
1, 33360, Note_on_c, 0, 79, 53
1, 33390, Note_on_c, 0, 79, 0
1, 33480, Note_on_c, 0, 83, 53
1, 33490, Note_on_c, 0, 84, 53
1, 33510, Note_on_c, 0, 83, 0
1, 33600, Note_on_c, 0, 84, 0
1, 33600, Note_on_c, 0, 79, 53
1, 33600, Note_on_c, 0, 64, 50
1, 33600, Note_on_c, 0, 60, 50
1, 33630, Note_on_c, 0, 79, 0
1, 33720, Note_on_c, 0, 79, 53
1, 33720, Note_on_c, 0, 60, 0
1, 33720, Note_on_c, 0, 64, 0
1, 33750, Note_on_c, 0, 79, 0
1, 33840, Note_on_c, 0, 79, 53
1, 33870, Note_on_c, 0, 79, 0
1, 33960, Note_on_c, 0, 76, 53
1, 34050, Note_on_c, 0, 76, 0
1, 34050, Note_on_c, 0, 72, 53
1, 34080, Note_on_c, 0, 72, 0
1, 34080, Note_on_c, 0, 71, 53
1, 34080, Note_on_c, 0, 62, 47
1, 34080, Note_on_c, 0, 65, 47
1, 34080, Note_on_c, 0, 55, 47
1, 34110, Note_on_c, 0, 71, 0
1, 34140, Note_on_c, 0, 55, 0
1, 34140, Note_on_c, 0, 65, 0
1, 34140, Note_on_c, 0, 62, 0
1, 34200, Note_on_c, 0, 71, 51
1, 34200, Note_on_c, 0, 62, 46
1, 34200, Note_on_c, 0, 65, 46
1, 34200, Note_on_c, 0, 55, 46
1, 34230, Note_on_c, 0, 71, 0
1, 34260, Note_on_c, 0, 55, 0
1, 34260, Note_on_c, 0, 65, 0
1, 34260, Note_on_c, 0, 62, 0
1, 34320, Note_on_c, 0, 72, 49
1, 34320, Note_on_c, 0, 60, 44
1, 34320, Note_on_c, 0, 64, 44
1, 34320, Note_on_c, 0, 55, 44
1, 34350, Note_on_c, 0, 72, 0
1, 34380, Note_on_c, 0, 55, 0
1, 34380, Note_on_c, 0, 64, 0
1, 34380, Note_on_c, 0, 60, 0
1, 34440, Note_on_c, 0, 72, 47
1, 34440, Note_on_c, 0, 60, 42
1, 34440, Note_on_c, 0, 64, 42
1, 34440, Note_on_c, 0, 55, 42
1, 34470, Note_on_c, 0, 72, 0
1, 34500, Note_on_c, 0, 55, 0
1, 34500, Note_on_c, 0, 64, 0
1, 34500, Note_on_c, 0, 60, 0
1, 34560, Note_on_c, 0, 74, 46
1, 34560, Note_on_c, 0, 55, 40
1, 34560, Note_on_c, 0, 62, 40
1, 34560, Note_on_c, 0, 59, 40
1, 34680, Note_on_c, 0, 74, 0
1, 34680, Note_on_c, 0, 59, 0
1, 34680, Note_on_c, 0, 62, 0
1, 34680, Note_on_c, 0, 55, 0
1, 34920, Note_on_c, 0, 67, 44
1, 35010, Note_on_c, 0, 67, 0
1, 35010, Note_on_c, 0, 74, 44
1, 35040, Note_on_c, 0, 74, 0
1, 35040, Note_on_c, 0, 77, 44
1, 35040, Note_on_c, 0, 67, 40
1, 35040, Note_on_c, 0, 59, 40
1, 35070, Note_on_c, 0, 77, 0
1, 35160, Note_on_c, 0, 77, 45
1, 35160, Note_on_c, 0, 59, 0
1, 35160, Note_on_c, 0, 67, 0
1, 35250, Note_on_c, 0, 77, 0
1, 35250, Note_on_c, 0, 79, 45
1, 35280, Note_on_c, 0, 79, 0
1, 35280, Note_on_c, 0, 76, 45
1, 35280, Note_on_c, 0, 60, 40
1, 35280, Note_on_c, 0, 67, 40
1, 35310, Note_on_c, 0, 76, 0
1, 35400, Note_on_c, 0, 76, 45
1, 35400, Note_on_c, 0, 67, 0
1, 35400, Note_on_c, 0, 60, 0
1, 35490, Note_on_c, 0, 76, 0
1, 35490, Note_on_c, 0, 77, 45
1, 35520, Note_on_c, 0, 77, 0
1, 35520, Note_on_c, 0, 74, 45
1, 35520, Note_on_c, 0, 65, 40
1, 35520, Note_on_c, 0, 67, 40
1, 35550, Note_on_c, 0, 74, 0
1, 35640, Note_on_c, 0, 74, 45
1, 35640, Note_on_c, 0, 67, 0
1, 35640, Note_on_c, 0, 65, 0
1, 35730, Note_on_c, 0, 74, 0
1, 35730, Note_on_c, 0, 76, 45
1, 35760, Note_on_c, 0, 76, 0
1, 35760, Note_on_c, 0, 72, 45
1, 35760, Note_on_c, 0, 64, 40
1, 35760, Note_on_c, 0, 67, 40
1, 35790, Note_on_c, 0, 72, 0
1, 35880, Note_on_c, 0, 72, 45
1, 35880, Note_on_c, 0, 67, 0
1, 35880, Note_on_c, 0, 64, 0
1, 35910, Note_on_c, 0, 72, 0
1, 36000, Note_on_c, 0, 74, 45
1, 36000, Note_on_c, 0, 65, 42
1, 36000, Note_on_c, 0, 53, 42
1, 36030, Note_on_c, 0, 74, 0
1, 36060, Note_on_c, 0, 53, 0
1, 36060, Note_on_c, 0, 65, 0
1, 36120, Note_on_c, 0, 74, 45
1, 36120, Note_on_c, 0, 53, 42
1, 36120, Note_on_c, 0, 65, 42
1, 36150, Note_on_c, 0, 74, 0
1, 36180, Note_on_c, 0, 65, 0
1, 36180, Note_on_c, 0, 53, 0
1, 36240, Note_on_c, 0, 71, 45
1, 36240, Note_on_c, 0, 55, 42
1, 36240, Note_on_c, 0, 62, 42
1, 36270, Note_on_c, 0, 71, 0
1, 36300, Note_on_c, 0, 62, 0
1, 36300, Note_on_c, 0, 55, 0
1, 36360, Note_on_c, 0, 71, 45
1, 36360, Note_on_c, 0, 55, 42
1, 36360, Note_on_c, 0, 62, 42
1, 36390, Note_on_c, 0, 71, 0
1, 36420, Note_on_c, 0, 62, 0
1, 36420, Note_on_c, 0, 55, 0
1, 36480, Note_on_c, 0, 72, 55
1, 36480, Note_on_c, 0, 60, 45
1, 36520, Note_on_c, 0, 60, 0
1, 36520, Note_on_c, 0, 64, 40
1, 36560, Note_on_c, 0, 64, 0
1, 36560, Note_on_c, 0, 67, 39
1, 36600, Note_on_c, 0, 72, 0
1, 36600, Note_on_c, 0, 67, 0
1, 36600, Note_on_c, 0, 60, 39
1, 36640, Note_on_c, 0, 60, 0
1, 36640, Note_on_c, 0, 64, 39
1, 36680, Note_on_c, 0, 64, 0
1, 36680, Note_on_c, 0, 67, 39
1, 36720, Note_on_c, 0, 67, 0
1, 36720, Note_on_c, 0, 60, 39
1, 36760, Note_on_c, 0, 60, 0
1, 36760, Note_on_c, 0, 64, 39
1, 36800, Note_on_c, 0, 64, 0
1, 36800, Note_on_c, 0, 67, 39
1, 36840, Note_on_c, 0, 72, 53
1, 36840, Note_on_c, 0, 67, 0
1, 36840, Note_on_c, 0, 60, 39
1, 36880, Note_on_c, 0, 60, 0
1, 36880, Note_on_c, 0, 64, 39
1, 36920, Note_on_c, 0, 64, 0
1, 36920, Note_on_c, 0, 67, 39
1, 36930, Note_on_c, 0, 72, 0
1, 36930, Note_on_c, 0, 76, 53
1, 36960, Note_on_c, 0, 76, 0
1, 36960, Note_on_c, 0, 79, 53
1, 36960, Note_on_c, 0, 67, 0
1, 36960, Note_on_c, 0, 60, 39
1, 36990, Note_on_c, 0, 79, 0
1, 37000, Note_on_c, 0, 60, 0
1, 37000, Note_on_c, 0, 64, 39
1, 37040, Note_on_c, 0, 64, 0
1, 37040, Note_on_c, 0, 67, 39
1, 37080, Note_on_c, 0, 79, 53
1, 37080, Note_on_c, 0, 67, 0
1, 37080, Note_on_c, 0, 60, 39
1, 37110, Note_on_c, 0, 79, 0
1, 37120, Note_on_c, 0, 60, 0
1, 37120, Note_on_c, 0, 64, 39
1, 37160, Note_on_c, 0, 64, 0
1, 37160, Note_on_c, 0, 67, 39
1, 37200, Note_on_c, 0, 79, 53
1, 37200, Note_on_c, 0, 67, 0
1, 37200, Note_on_c, 0, 60, 39
1, 37230, Note_on_c, 0, 79, 0
1, 37240, Note_on_c, 0, 60, 0
1, 37240, Note_on_c, 0, 64, 39
1, 37280, Note_on_c, 0, 64, 0
1, 37280, Note_on_c, 0, 67, 39
1, 37320, Note_on_c, 0, 83, 53
1, 37320, Note_on_c, 0, 67, 0
1, 37320, Note_on_c, 0, 60, 39
1, 37330, Note_on_c, 0, 84, 53
1, 37350, Note_on_c, 0, 83, 0
1, 37360, Note_on_c, 0, 60, 0
1, 37360, Note_on_c, 0, 64, 39
1, 37400, Note_on_c, 0, 64, 0
1, 37400, Note_on_c, 0, 67, 39
1, 37440, Note_on_c, 0, 84, 0
1, 37440, Note_on_c, 0, 79, 53
1, 37440, Note_on_c, 0, 67, 0
1, 37440, Note_on_c, 0, 60, 39
1, 37470, Note_on_c, 0, 79, 0
1, 37480, Note_on_c, 0, 60, 0
1, 37480, Note_on_c, 0, 64, 39
1, 37520, Note_on_c, 0, 64, 0
1, 37520, Note_on_c, 0, 67, 39
1, 37560, Note_on_c, 0, 79, 53
1, 37560, Note_on_c, 0, 67, 0
1, 37560, Note_on_c, 0, 60, 39
1, 37590, Note_on_c, 0, 79, 0
1, 37600, Note_on_c, 0, 60, 0
1, 37600, Note_on_c, 0, 64, 39
1, 37640, Note_on_c, 0, 64, 0
1, 37640, Note_on_c, 0, 67, 39
1, 37680, Note_on_c, 0, 79, 53
1, 37680, Note_on_c, 0, 67, 0
1, 37680, Note_on_c, 0, 60, 39
1, 37710, Note_on_c, 0, 79, 0
1, 37720, Note_on_c, 0, 60, 0
1, 37720, Note_on_c, 0, 64, 39
1, 37760, Note_on_c, 0, 64, 0
1, 37760, Note_on_c, 0, 67, 39
1, 37800, Note_on_c, 0, 77, 53
1, 37800, Note_on_c, 0, 67, 0
1, 37800, Note_on_c, 0, 60, 39
1, 37830, Note_on_c, 0, 77, 0
1, 37830, Note_on_c, 0, 76, 51
1, 37840, Note_on_c, 0, 60, 0
1, 37840, Note_on_c, 0, 64, 39
1, 37860, Note_on_c, 0, 76, 0
1, 37860, Note_on_c, 0, 74, 48
1, 37880, Note_on_c, 0, 64, 0
1, 37880, Note_on_c, 0, 67, 39
1, 37890, Note_on_c, 0, 74, 0
1, 37890, Note_on_c, 0, 72, 46
1, 37920, Note_on_c, 0, 72, 0
1, 37920, Note_on_c, 0, 71, 43
1, 37920, Note_on_c, 0, 67, 0
1, 37920, Note_on_c, 0, 62, 50
1, 37950, Note_on_c, 0, 71, 0
1, 37960, Note_on_c, 0, 62, 0
1, 37960, Note_on_c, 0, 65, 43
1, 38000, Note_on_c, 0, 65, 0
1, 38000, Note_on_c, 0, 67, 39
1, 38040, Note_on_c, 0, 71, 42
1, 38040, Note_on_c, 0, 67, 0
1, 38040, Note_on_c, 0, 62, 50
1, 38070, Note_on_c, 0, 71, 0
1, 38080, Note_on_c, 0, 62, 0
1, 38080, Note_on_c, 0, 65, 50
1, 38120, Note_on_c, 0, 65, 0
1, 38120, Note_on_c, 0, 67, 50
1, 38160, Note_on_c, 0, 72, 42
1, 38160, Note_on_c, 0, 67, 0
1, 38160, Note_on_c, 0, 60, 50
1, 38190, Note_on_c, 0, 72, 0
1, 38200, Note_on_c, 0, 60, 0
1, 38200, Note_on_c, 0, 64, 50
1, 38240, Note_on_c, 0, 64, 0
1, 38240, Note_on_c, 0, 67, 50
1, 38280, Note_on_c, 0, 72, 42
1, 38280, Note_on_c, 0, 67, 0
1, 38280, Note_on_c, 0, 60, 50
1, 38310, Note_on_c, 0, 72, 0
1, 38320, Note_on_c, 0, 60, 0
1, 38320, Note_on_c, 0, 64, 50
1, 38360, Note_on_c, 0, 64, 0
1, 38360, Note_on_c, 0, 67, 50
1, 38400, Note_on_c, 0, 74, 42
1, 38400, Note_on_c, 0, 67, 0
1, 38400, Note_on_c, 0, 59, 50
1, 38520, Note_on_c, 0, 74, 0
1, 38520, Note_on_c, 0, 59, 0
1, 38760, Note_on_c, 0, 67, 44
1, 38850, Note_on_c, 0, 67, 0
1, 38850, Note_on_c, 0, 74, 44
1, 38880, Note_on_c, 0, 74, 0
1, 38880, Note_on_c, 0, 77, 44
1, 38880, Note_on_c, 0, 55, 42
1, 38910, Note_on_c, 0, 77, 0
1, 38920, Note_on_c, 0, 55, 0
1, 38920, Note_on_c, 0, 59, 42
1, 38960, Note_on_c, 0, 59, 0
1, 38960, Note_on_c, 0, 62, 42
1, 39000, Note_on_c, 0, 77, 45
1, 39000, Note_on_c, 0, 62, 0
1, 39000, Note_on_c, 0, 55, 43
1, 39040, Note_on_c, 0, 55, 0
1, 39040, Note_on_c, 0, 59, 43
1, 39080, Note_on_c, 0, 59, 0
1, 39080, Note_on_c, 0, 62, 43
1, 39090, Note_on_c, 0, 77, 0
1, 39090, Note_on_c, 0, 79, 45
1, 39120, Note_on_c, 0, 79, 0
1, 39120, Note_on_c, 0, 76, 45
1, 39120, Note_on_c, 0, 62, 0
1, 39120, Note_on_c, 0, 55, 44
1, 39150, Note_on_c, 0, 76, 0
1, 39160, Note_on_c, 0, 55, 0
1, 39160, Note_on_c, 0, 60, 44
1, 39200, Note_on_c, 0, 60, 0
1, 39200, Note_on_c, 0, 64, 44
1, 39240, Note_on_c, 0, 76, 45
1, 39240, Note_on_c, 0, 64, 0
1, 39240, Note_on_c, 0, 55, 45
1, 39280, Note_on_c, 0, 55, 0
1, 39280, Note_on_c, 0, 60, 45
1, 39320, Note_on_c, 0, 60, 0
1, 39320, Note_on_c, 0, 64, 45
1, 39330, Note_on_c, 0, 76, 0
1, 39330, Note_on_c, 0, 77, 45
1, 39360, Note_on_c, 0, 77, 0
1, 39360, Note_on_c, 0, 74, 45
1, 39360, Note_on_c, 0, 64, 0
1, 39360, Note_on_c, 0, 55, 46
1, 39390, Note_on_c, 0, 74, 0
1, 39400, Note_on_c, 0, 55, 0
1, 39400, Note_on_c, 0, 62, 51
1, 39440, Note_on_c, 0, 62, 0
1, 39440, Note_on_c, 0, 65, 51
1, 39480, Note_on_c, 0, 74, 45
1, 39480, Note_on_c, 0, 65, 0
1, 39480, Note_on_c, 0, 55, 51
1, 39520, Note_on_c, 0, 55, 0
1, 39520, Note_on_c, 0, 62, 51
1, 39560, Note_on_c, 0, 62, 0
1, 39560, Note_on_c, 0, 65, 51
1, 39570, Note_on_c, 0, 74, 0
1, 39570, Note_on_c, 0, 76, 45
1, 39600, Note_on_c, 0, 76, 0
1, 39600, Note_on_c, 0, 72, 45
1, 39600, Note_on_c, 0, 65, 0
1, 39600, Note_on_c, 0, 57, 42
1, 39630, Note_on_c, 0, 72, 0
1, 39640, Note_on_c, 0, 57, 0
1, 39640, Note_on_c, 0, 60, 43
1, 39680, Note_on_c, 0, 60, 0
1, 39680, Note_on_c, 0, 64, 43
1, 39720, Note_on_c, 0, 72, 45
1, 39720, Note_on_c, 0, 64, 0
1, 39720, Note_on_c, 0, 57, 43
1, 39750, Note_on_c, 0, 72, 0
1, 39760, Note_on_c, 0, 57, 0
1, 39760, Note_on_c, 0, 60, 43
1, 39800, Note_on_c, 0, 60, 0
1, 39800, Note_on_c, 0, 64, 43
1, 39840, Note_on_c, 0, 74, 45
1, 39840, Note_on_c, 0, 64, 0
1, 39840, Note_on_c, 0, 53, 46
1, 39870, Note_on_c, 0, 74, 0
1, 39880, Note_on_c, 0, 53, 0
1, 39880, Note_on_c, 0, 57, 46
1, 39920, Note_on_c, 0, 57, 0
1, 39920, Note_on_c, 0, 62, 46
1, 39960, Note_on_c, 0, 74, 45
1, 39960, Note_on_c, 0, 62, 0
1, 39960, Note_on_c, 0, 53, 46
1, 39990, Note_on_c, 0, 74, 0
1, 40000, Note_on_c, 0, 53, 0
1, 40000, Note_on_c, 0, 57, 46
1, 40040, Note_on_c, 0, 57, 0
1, 40040, Note_on_c, 0, 62, 46
1, 40080, Note_on_c, 0, 71, 45
1, 40080, Note_on_c, 0, 62, 0
1, 40080, Note_on_c, 0, 55, 46
1, 40110, Note_on_c, 0, 71, 0
1, 40120, Note_on_c, 0, 55, 0
1, 40120, Note_on_c, 0, 62, 46
1, 40160, Note_on_c, 0, 62, 0
1, 40160, Note_on_c, 0, 65, 46
1, 40200, Note_on_c, 0, 71, 45
1, 40200, Note_on_c, 0, 65, 0
1, 40200, Note_on_c, 0, 55, 46
1, 40230, Note_on_c, 0, 71, 0
1, 40240, Note_on_c, 0, 55, 0
1, 40240, Note_on_c, 0, 62, 46
1, 40280, Note_on_c, 0, 62, 0
1, 40280, Note_on_c, 0, 65, 46
1, 40320, Note_on_c, 0, 72, 45
1, 40320, Note_on_c, 0, 65, 0
1, 40320, Note_on_c, 0, 64, 38
1, 40320, Note_on_c, 0, 60, 38
1, 40560, Note_on_c, 0, 64, 0
1, 40560, Note_on_c, 0, 70, 38
1, 40680, Note_on_c, 0, 72, 0
1, 40680, Note_on_c, 0, 76, 39
1, 40770, Note_on_c, 0, 76, 0
1, 40770, Note_on_c, 0, 79, 39
1, 40800, Note_on_c, 0, 79, 0
1, 40800, Note_on_c, 0, 77, 40
1, 40800, Note_on_c, 0, 70, 0
1, 40800, Note_on_c, 0, 69, 38
1, 40830, Note_on_c, 0, 77, 0
1, 40920, Note_on_c, 0, 77, 41
1, 41010, Note_on_c, 0, 77, 0
1, 41010, Note_on_c, 0, 81, 41
1, 41040, Note_on_c, 0, 81, 0
1, 41040, Note_on_c, 0, 71, 41
1, 41040, Note_on_c, 0, 69, 0
1, 41040, Note_on_c, 0, 65, 38
1, 41070, Note_on_c, 0, 71, 0
1, 41160, Note_on_c, 0, 71, 42
1, 41250, Note_on_c, 0, 71, 0
1, 41250, Note_on_c, 0, 74, 43
1, 41280, Note_on_c, 0, 74, 0
1, 41280, Note_on_c, 0, 72, 43
1, 41280, Note_on_c, 0, 65, 0
1, 41280, Note_on_c, 0, 60, 0
1, 41280, Note_on_c, 0, 64, 38
1, 41280, Note_on_c, 0, 60, 38
1, 41310, Note_on_c, 0, 72, 0
1, 41400, Note_on_c, 0, 72, 44
1, 41490, Note_on_c, 0, 72, 0
1, 41490, Note_on_c, 0, 76, 45
1, 41520, Note_on_c, 0, 76, 0
1, 41520, Note_on_c, 0, 79, 45
1, 41520, Note_on_c, 0, 64, 0
1, 41520, Note_on_c, 0, 70, 38
1, 41550, Note_on_c, 0, 79, 0
1, 41640, Note_on_c, 0, 84, 46
1, 41730, Note_on_c, 0, 84, 0
1, 41730, Note_on_c, 0, 76, 47
1, 41760, Note_on_c, 0, 76, 0
1, 41760, Note_on_c, 0, 77, 46
1, 41760, Note_on_c, 0, 70, 0
1, 41760, Note_on_c, 0, 69, 38
1, 41790, Note_on_c, 0, 77, 0
1, 41880, Note_on_c, 0, 81, 45
1, 41970, Note_on_c, 0, 81, 0
1, 41970, Note_on_c, 0, 72, 44
1, 42000, Note_on_c, 0, 72, 0
1, 42000, Note_on_c, 0, 71, 43
1, 42000, Note_on_c, 0, 69, 0
1, 42000, Note_on_c, 0, 65, 38
1, 42030, Note_on_c, 0, 71, 0
1, 42120, Note_on_c, 0, 77, 42
1, 42210, Note_on_c, 0, 77, 0
1, 42210, Note_on_c, 0, 71, 41
1, 42240, Note_on_c, 0, 71, 0
1, 42240, Note_on_c, 0, 72, 38
1, 42240, Note_on_c, 0, 65, 0
1, 42240, Note_on_c, 0, 60, 0
1, 42240, Note_on_c, 0, 60, 38
1, 42270, Note_on_c, 0, 72, 0
1, 42280, Note_on_c, 0, 60, 0
1, 42280, Note_on_c, 0, 64, 38
1, 42320, Note_on_c, 0, 64, 0
1, 42320, Note_on_c, 0, 67, 38
1, 42360, Note_on_c, 0, 72, 38
1, 42360, Note_on_c, 0, 67, 0
1, 42360, Note_on_c, 0, 60, 38
1, 42390, Note_on_c, 0, 72, 0
1, 42400, Note_on_c, 0, 60, 0
1, 42400, Note_on_c, 0, 64, 38
1, 42440, Note_on_c, 0, 64, 0
1, 42440, Note_on_c, 0, 67, 38
1, 42480, Note_on_c, 0, 72, 38
1, 42480, Note_on_c, 0, 67, 0
1, 42480, Note_on_c, 0, 60, 38
1, 42510, Note_on_c, 0, 72, 0
1, 42520, Note_on_c, 0, 60, 0
1, 42520, Note_on_c, 0, 64, 38
1, 42560, Note_on_c, 0, 64, 0
1, 42560, Note_on_c, 0, 67, 38
1, 42600, Note_on_c, 0, 74, 45
1, 42600, Note_on_c, 0, 67, 0
1, 42600, Note_on_c, 0, 59, 44
1, 42620, Note_on_c, 0, 74, 0
1, 42620, Note_on_c, 0, 76, 45
1, 42640, Note_on_c, 0, 76, 0
1, 42640, Note_on_c, 0, 74, 45
1, 42640, Note_on_c, 0, 59, 0
1, 42640, Note_on_c, 0, 62, 42
1, 42660, Note_on_c, 0, 74, 0
1, 42660, Note_on_c, 0, 72, 45
1, 42680, Note_on_c, 0, 62, 0
1, 42680, Note_on_c, 0, 67, 39
1, 42690, Note_on_c, 0, 72, 0
1, 42690, Note_on_c, 0, 74, 45
1, 42720, Note_on_c, 0, 74, 0
1, 42720, Note_on_c, 0, 76, 45
1, 42720, Note_on_c, 0, 67, 0
1, 42720, Note_on_c, 0, 60, 38
1, 42760, Note_on_c, 0, 60, 0
1, 42760, Note_on_c, 0, 64, 38
1, 42800, Note_on_c, 0, 64, 0
1, 42800, Note_on_c, 0, 67, 38
1, 42840, Note_on_c, 0, 76, 0
1, 42840, Note_on_c, 0, 72, 39
1, 42840, Note_on_c, 0, 67, 0
1, 42840, Note_on_c, 0, 60, 38
1, 42870, Note_on_c, 0, 72, 0
1, 42880, Note_on_c, 0, 60, 0
1, 42880, Note_on_c, 0, 64, 38
1, 42920, Note_on_c, 0, 64, 0
1, 42920, Note_on_c, 0, 67, 38
1, 42960, Note_on_c, 0, 72, 39
1, 42960, Note_on_c, 0, 67, 0
1, 42960, Note_on_c, 0, 60, 38
1, 42990, Note_on_c, 0, 72, 0
1, 43000, Note_on_c, 0, 60, 0
1, 43000, Note_on_c, 0, 64, 38
1, 43040, Note_on_c, 0, 64, 0
1, 43040, Note_on_c, 0, 67, 38
1, 43080, Note_on_c, 0, 74, 45
1, 43080, Note_on_c, 0, 67, 0
1, 43080, Note_on_c, 0, 59, 44
1, 43100, Note_on_c, 0, 74, 0
1, 43100, Note_on_c, 0, 76, 45
1, 43120, Note_on_c, 0, 76, 0
1, 43120, Note_on_c, 0, 74, 45
1, 43120, Note_on_c, 0, 59, 0
1, 43120, Note_on_c, 0, 62, 41
1, 43140, Note_on_c, 0, 74, 0
1, 43140, Note_on_c, 0, 72, 45
1, 43160, Note_on_c, 0, 62, 0
1, 43160, Note_on_c, 0, 67, 38
1, 43170, Note_on_c, 0, 72, 0
1, 43170, Note_on_c, 0, 74, 45
1, 43200, Note_on_c, 0, 74, 0
1, 43200, Note_on_c, 0, 76, 45
1, 43200, Note_on_c, 0, 67, 0
1, 43200, Note_on_c, 0, 60, 38
1, 43240, Note_on_c, 0, 60, 0
1, 43240, Note_on_c, 0, 64, 38
1, 43280, Note_on_c, 0, 64, 0
1, 43280, Note_on_c, 0, 67, 38
1, 43320, Note_on_c, 0, 76, 0
1, 43320, Note_on_c, 0, 72, 39
1, 43320, Note_on_c, 0, 67, 0
1, 43320, Note_on_c, 0, 60, 38
1, 43350, Note_on_c, 0, 72, 0
1, 43360, Note_on_c, 0, 60, 0
1, 43360, Note_on_c, 0, 64, 38
1, 43400, Note_on_c, 0, 64, 0
1, 43400, Note_on_c, 0, 67, 38
1, 43440, Note_on_c, 0, 72, 39
1, 43440, Note_on_c, 0, 67, 0
1, 43440, Note_on_c, 0, 60, 38
1, 43470, Note_on_c, 0, 72, 0
1, 43480, Note_on_c, 0, 60, 0
1, 43480, Note_on_c, 0, 64, 38
1, 43520, Note_on_c, 0, 64, 0
1, 43520, Note_on_c, 0, 67, 38
1, 43560, Note_on_c, 0, 74, 45
1, 43560, Note_on_c, 0, 67, 0
1, 43560, Note_on_c, 0, 59, 45
1, 43580, Note_on_c, 0, 74, 0
1, 43580, Note_on_c, 0, 76, 45
1, 43600, Note_on_c, 0, 76, 0
1, 43600, Note_on_c, 0, 74, 45
1, 43600, Note_on_c, 0, 59, 0
1, 43600, Note_on_c, 0, 62, 42
1, 43620, Note_on_c, 0, 74, 0
1, 43620, Note_on_c, 0, 72, 45
1, 43640, Note_on_c, 0, 62, 0
1, 43640, Note_on_c, 0, 67, 38
1, 43650, Note_on_c, 0, 72, 0
1, 43650, Note_on_c, 0, 74, 45
1, 43680, Note_on_c, 0, 74, 0
1, 43680, Note_on_c, 0, 76, 45
1, 43680, Note_on_c, 0, 67, 0
1, 43680, Note_on_c, 0, 60, 38
1, 43720, Note_on_c, 0, 60, 0
1, 43720, Note_on_c, 0, 64, 38
1, 43760, Note_on_c, 0, 64, 0
1, 43760, Note_on_c, 0, 67, 38
1, 43800, Note_on_c, 0, 76, 0
1, 43800, Note_on_c, 0, 76, 39
1, 43800, Note_on_c, 0, 67, 0
1, 43800, Note_on_c, 0, 60, 38
1, 43830, Note_on_c, 0, 76, 0
1, 43840, Note_on_c, 0, 60, 0
1, 43840, Note_on_c, 0, 64, 38
1, 43880, Note_on_c, 0, 64, 0
1, 43880, Note_on_c, 0, 67, 38
1, 43920, Note_on_c, 0, 76, 39
1, 43920, Note_on_c, 0, 67, 0
1, 43920, Note_on_c, 0, 60, 38
1, 43950, Note_on_c, 0, 76, 0
1, 43960, Note_on_c, 0, 60, 0
1, 43960, Note_on_c, 0, 64, 38
1, 44000, Note_on_c, 0, 64, 0
1, 44000, Note_on_c, 0, 67, 38
1, 44040, Note_on_c, 0, 78, 44
1, 44040, Note_on_c, 0, 67, 0
1, 44040, Note_on_c, 0, 60, 48
1, 44060, Note_on_c, 0, 78, 0
1, 44060, Note_on_c, 0, 78, 44
1, 44060, Note_on_c, 0, 79, 44
1, 44080, Note_on_c, 0, 79, 0
1, 44080, Note_on_c, 0, 78, 0
1, 44080, Note_on_c, 0, 60, 0
1, 44080, Note_on_c, 0, 62, 43
1, 44100, Note_on_c, 0, 76, 44
1, 44120, Note_on_c, 0, 62, 0
1, 44120, Note_on_c, 0, 66, 38
1, 44130, Note_on_c, 0, 76, 0
1, 44130, Note_on_c, 0, 78, 44
1, 44160, Note_on_c, 0, 78, 0
1, 44160, Note_on_c, 0, 79, 39
1, 44160, Note_on_c, 0, 66, 0
1, 44160, Note_on_c, 0, 59, 38
1, 44190, Note_on_c, 0, 79, 0
1, 44200, Note_on_c, 0, 59, 0
1, 44200, Note_on_c, 0, 62, 38
1, 44240, Note_on_c, 0, 62, 0
1, 44240, Note_on_c, 0, 67, 38
1, 44280, Note_on_c, 0, 79, 39
1, 44280, Note_on_c, 0, 67, 0
1, 44280, Note_on_c, 0, 59, 38
1, 44310, Note_on_c, 0, 79, 0
1, 44320, Note_on_c, 0, 59, 0
1, 44320, Note_on_c, 0, 62, 38
1, 44360, Note_on_c, 0, 62, 0
1, 44360, Note_on_c, 0, 67, 38
1, 44400, Note_on_c, 0, 79, 39
1, 44400, Note_on_c, 0, 67, 0
1, 44400, Note_on_c, 0, 59, 38
1, 44430, Note_on_c, 0, 79, 0
1, 44440, Note_on_c, 0, 59, 0
1, 44440, Note_on_c, 0, 62, 38
1, 44480, Note_on_c, 0, 62, 0
1, 44480, Note_on_c, 0, 67, 38
1, 44520, Note_on_c, 0, 81, 45
1, 44520, Note_on_c, 0, 67, 0
1, 44520, Note_on_c, 0, 54, 47
1, 44540, Note_on_c, 0, 81, 0
1, 44540, Note_on_c, 0, 83, 45
1, 44560, Note_on_c, 0, 83, 0
1, 44560, Note_on_c, 0, 81, 45
1, 44560, Note_on_c, 0, 54, 0
1, 44560, Note_on_c, 0, 57, 46
1, 44580, Note_on_c, 0, 81, 0
1, 44580, Note_on_c, 0, 79, 45
1, 44600, Note_on_c, 0, 57, 0
1, 44600, Note_on_c, 0, 62, 44
1, 44610, Note_on_c, 0, 79, 0
1, 44610, Note_on_c, 0, 81, 45
1, 44640, Note_on_c, 0, 81, 0
1, 44640, Note_on_c, 0, 83, 45
1, 44640, Note_on_c, 0, 62, 0
1, 44640, Note_on_c, 0, 55, 42
1, 44680, Note_on_c, 0, 55, 0
1, 44680, Note_on_c, 0, 59, 41
1, 44720, Note_on_c, 0, 59, 0
1, 44720, Note_on_c, 0, 62, 41
1, 44760, Note_on_c, 0, 83, 0
1, 44760, Note_on_c, 0, 79, 45
1, 44760, Note_on_c, 0, 62, 0
1, 44760, Note_on_c, 0, 55, 41
1, 44790, Note_on_c, 0, 79, 0
1, 44800, Note_on_c, 0, 55, 0
1, 44800, Note_on_c, 0, 59, 41
1, 44840, Note_on_c, 0, 59, 0
1, 44840, Note_on_c, 0, 62, 41
1, 44880, Note_on_c, 0, 79, 45
1, 44880, Note_on_c, 0, 62, 0
1, 44880, Note_on_c, 0, 55, 41
1, 44910, Note_on_c, 0, 79, 0
1, 44920, Note_on_c, 0, 55, 0
1, 44920, Note_on_c, 0, 59, 41
1, 44960, Note_on_c, 0, 59, 0
1, 44960, Note_on_c, 0, 62, 41
1, 45000, Note_on_c, 0, 81, 50
1, 45000, Note_on_c, 0, 62, 0
1, 45000, Note_on_c, 0, 54, 47
1, 45020, Note_on_c, 0, 81, 0
1, 45020, Note_on_c, 0, 83, 50
1, 45040, Note_on_c, 0, 83, 0
1, 45040, Note_on_c, 0, 81, 50
1, 45040, Note_on_c, 0, 54, 0
1, 45040, Note_on_c, 0, 57, 44
1, 45060, Note_on_c, 0, 81, 0
1, 45060, Note_on_c, 0, 79, 50
1, 45080, Note_on_c, 0, 57, 0
1, 45080, Note_on_c, 0, 62, 40
1, 45090, Note_on_c, 0, 79, 0
1, 45090, Note_on_c, 0, 81, 50
1, 45120, Note_on_c, 0, 81, 0
1, 45120, Note_on_c, 0, 83, 50
1, 45120, Note_on_c, 0, 62, 0
1, 45120, Note_on_c, 0, 55, 38
1, 45160, Note_on_c, 0, 55, 0
1, 45160, Note_on_c, 0, 59, 38
1, 45200, Note_on_c, 0, 59, 0
1, 45200, Note_on_c, 0, 62, 38
1, 45240, Note_on_c, 0, 83, 0
1, 45240, Note_on_c, 0, 79, 44
1, 45240, Note_on_c, 0, 62, 0
1, 45240, Note_on_c, 0, 55, 38
1, 45270, Note_on_c, 0, 79, 0
1, 45280, Note_on_c, 0, 55, 0
1, 45280, Note_on_c, 0, 59, 38
1, 45320, Note_on_c, 0, 59, 0
1, 45320, Note_on_c, 0, 62, 38
1, 45360, Note_on_c, 0, 79, 44
1, 45360, Note_on_c, 0, 62, 0
1, 45360, Note_on_c, 0, 55, 38
1, 45390, Note_on_c, 0, 79, 0
1, 45400, Note_on_c, 0, 55, 0
1, 45400, Note_on_c, 0, 59, 38
1, 45440, Note_on_c, 0, 59, 0
1, 45440, Note_on_c, 0, 62, 38
1, 45480, Note_on_c, 0, 79, 42
1, 45480, Note_on_c, 0, 62, 0
1, 45480, Note_on_c, 0, 55, 38
1, 45520, Note_on_c, 0, 79, 0
1, 45520, Note_on_c, 0, 83, 46
1, 45520, Note_on_c, 0, 55, 0
1, 45520, Note_on_c, 0, 59, 38
1, 45560, Note_on_c, 0, 83, 0
1, 45560, Note_on_c, 0, 86, 51
1, 45560, Note_on_c, 0, 59, 0
1, 45560, Note_on_c, 0, 62, 38
1, 45600, Note_on_c, 0, 86, 0
1, 45600, Note_on_c, 0, 84, 41
1, 45600, Note_on_c, 0, 62, 0
1, 45600, Note_on_c, 0, 54, 38
1, 45640, Note_on_c, 0, 84, 0
1, 45640, Note_on_c, 0, 54, 0
1, 45640, Note_on_c, 0, 57, 39
1, 45680, Note_on_c, 0, 57, 0
1, 45680, Note_on_c, 0, 62, 39
1, 45720, Note_on_c, 0, 84, 42
1, 45720, Note_on_c, 0, 62, 0
1, 45720, Note_on_c, 0, 54, 40
1, 45760, Note_on_c, 0, 54, 0
1, 45760, Note_on_c, 0, 57, 41
1, 45800, Note_on_c, 0, 57, 0
1, 45800, Note_on_c, 0, 62, 41
1, 45810, Note_on_c, 0, 84, 0
1, 45810, Note_on_c, 0, 86, 42
1, 45840, Note_on_c, 0, 83, 43
1, 45840, Note_on_c, 0, 62, 0
1, 45840, Note_on_c, 0, 55, 42
1, 45850, Note_on_c, 0, 86, 0
1, 45880, Note_on_c, 0, 83, 0
1, 45880, Note_on_c, 0, 55, 0
1, 45880, Note_on_c, 0, 59, 42
1, 45920, Note_on_c, 0, 59, 0
1, 45920, Note_on_c, 0, 62, 43
1, 45960, Note_on_c, 0, 83, 43
1, 45960, Note_on_c, 0, 62, 0
1, 45960, Note_on_c, 0, 55, 43
1, 46000, Note_on_c, 0, 55, 0
1, 46000, Note_on_c, 0, 59, 44
1, 46040, Note_on_c, 0, 59, 0
1, 46040, Note_on_c, 0, 62, 44
1, 46050, Note_on_c, 0, 83, 0
1, 46050, Note_on_c, 0, 84, 44
1, 46080, Note_on_c, 0, 81, 44
1, 46080, Note_on_c, 0, 62, 0
1, 46080, Note_on_c, 0, 60, 45
1, 46090, Note_on_c, 0, 84, 0
1, 46120, Note_on_c, 0, 81, 0
1, 46120, Note_on_c, 0, 60, 0
1, 46120, Note_on_c, 0, 62, 45
1, 46160, Note_on_c, 0, 62, 0
1, 46160, Note_on_c, 0, 66, 46
1, 46200, Note_on_c, 0, 81, 45
1, 46200, Note_on_c, 0, 66, 0
1, 46200, Note_on_c, 0, 60, 46
1, 46240, Note_on_c, 0, 60, 0
1, 46240, Note_on_c, 0, 62, 47
1, 46280, Note_on_c, 0, 62, 0
1, 46280, Note_on_c, 0, 66, 47
1, 46290, Note_on_c, 0, 81, 0
1, 46290, Note_on_c, 0, 83, 46
1, 46320, Note_on_c, 0, 79, 46
1, 46320, Note_on_c, 0, 66, 0
1, 46320, Note_on_c, 0, 59, 48
1, 46330, Note_on_c, 0, 83, 0
1, 46360, Note_on_c, 0, 79, 0
1, 46360, Note_on_c, 0, 59, 0
1, 46360, Note_on_c, 0, 62, 48
1, 46400, Note_on_c, 0, 62, 0
1, 46400, Note_on_c, 0, 67, 49
1, 46440, Note_on_c, 0, 79, 46
1, 46440, Note_on_c, 0, 67, 0
1, 46440, Note_on_c, 0, 59, 49
1, 46480, Note_on_c, 0, 79, 0
1, 46480, Note_on_c, 0, 83, 46
1, 46480, Note_on_c, 0, 59, 0
1, 46480, Note_on_c, 0, 62, 50
1, 46520, Note_on_c, 0, 83, 0
1, 46520, Note_on_c, 0, 86, 46
1, 46520, Note_on_c, 0, 62, 0
1, 46520, Note_on_c, 0, 67, 50
1, 46560, Note_on_c, 0, 86, 0
1, 46560, Note_on_c, 0, 84, 39
1, 46560, Note_on_c, 0, 67, 0
1, 46560, Note_on_c, 0, 54, 36
1, 46590, Note_on_c, 0, 84, 0
1, 46600, Note_on_c, 0, 54, 0
1, 46600, Note_on_c, 0, 57, 36
1, 46640, Note_on_c, 0, 57, 0
1, 46640, Note_on_c, 0, 62, 36
1, 46680, Note_on_c, 0, 84, 38
1, 46680, Note_on_c, 0, 62, 0
1, 46680, Note_on_c, 0, 54, 37
1, 46700, Note_on_c, 0, 84, 0
1, 46700, Note_on_c, 0, 86, 38
1, 46720, Note_on_c, 0, 86, 0
1, 46720, Note_on_c, 0, 84, 39
1, 46720, Note_on_c, 0, 54, 0
1, 46720, Note_on_c, 0, 57, 37
1, 46740, Note_on_c, 0, 84, 0
1, 46740, Note_on_c, 0, 83, 39
1, 46760, Note_on_c, 0, 83, 0
1, 46760, Note_on_c, 0, 84, 40
1, 46760, Note_on_c, 0, 57, 0
1, 46760, Note_on_c, 0, 62, 38
1, 46780, Note_on_c, 0, 84, 0
1, 46780, Note_on_c, 0, 86, 40
1, 46800, Note_on_c, 0, 86, 0
1, 46800, Note_on_c, 0, 83, 41
1, 46800, Note_on_c, 0, 62, 0
1, 46800, Note_on_c, 0, 55, 38
1, 46830, Note_on_c, 0, 83, 0
1, 46840, Note_on_c, 0, 55, 0
1, 46840, Note_on_c, 0, 59, 39
1, 46880, Note_on_c, 0, 59, 0
1, 46880, Note_on_c, 0, 62, 39
1, 46920, Note_on_c, 0, 83, 43
1, 46920, Note_on_c, 0, 62, 0
1, 46920, Note_on_c, 0, 55, 40
1, 46940, Note_on_c, 0, 83, 0
1, 46940, Note_on_c, 0, 84, 44
1, 46960, Note_on_c, 0, 84, 0
1, 46960, Note_on_c, 0, 83, 44
1, 46960, Note_on_c, 0, 55, 0
1, 46960, Note_on_c, 0, 59, 40
1, 46980, Note_on_c, 0, 83, 0
1, 46980, Note_on_c, 0, 81, 45
1, 47000, Note_on_c, 0, 81, 0
1, 47000, Note_on_c, 0, 83, 45
1, 47000, Note_on_c, 0, 59, 0
1, 47000, Note_on_c, 0, 62, 41
1, 47020, Note_on_c, 0, 83, 0
1, 47020, Note_on_c, 0, 84, 46
1, 47040, Note_on_c, 0, 84, 0
1, 47040, Note_on_c, 0, 81, 46
1, 47040, Note_on_c, 0, 62, 0
1, 47040, Note_on_c, 0, 60, 41
1, 47070, Note_on_c, 0, 81, 0
1, 47080, Note_on_c, 0, 60, 0
1, 47080, Note_on_c, 0, 62, 41
1, 47120, Note_on_c, 0, 62, 0
1, 47120, Note_on_c, 0, 66, 42
1, 47160, Note_on_c, 0, 81, 49
1, 47160, Note_on_c, 0, 66, 0
1, 47160, Note_on_c, 0, 60, 42
1, 47180, Note_on_c, 0, 81, 0
1, 47180, Note_on_c, 0, 83, 49
1, 47200, Note_on_c, 0, 83, 0
1, 47200, Note_on_c, 0, 81, 50
1, 47200, Note_on_c, 0, 60, 0
1, 47200, Note_on_c, 0, 62, 43
1, 47220, Note_on_c, 0, 81, 0
1, 47220, Note_on_c, 0, 79, 50
1, 47240, Note_on_c, 0, 79, 0
1, 47240, Note_on_c, 0, 81, 51
1, 47240, Note_on_c, 0, 62, 0
1, 47240, Note_on_c, 0, 66, 43
1, 47260, Note_on_c, 0, 81, 0
1, 47260, Note_on_c, 0, 83, 51
1, 47280, Note_on_c, 0, 83, 0
1, 47280, Note_on_c, 0, 79, 52
1, 47280, Note_on_c, 0, 66, 0
1, 47280, Note_on_c, 0, 59, 44
1, 47310, Note_on_c, 0, 79, 0
1, 47320, Note_on_c, 0, 59, 0
1, 47320, Note_on_c, 0, 62, 44
1, 47360, Note_on_c, 0, 62, 0
1, 47360, Note_on_c, 0, 67, 45
1, 47400, Note_on_c, 0, 86, 52
1, 47400, Note_on_c, 0, 67, 0
1, 47400, Note_on_c, 0, 59, 45
1, 47440, Note_on_c, 0, 59, 0
1, 47440, Note_on_c, 0, 62, 46
1, 47480, Note_on_c, 0, 62, 0
1, 47480, Note_on_c, 0, 67, 46
1, 47490, Note_on_c, 0, 86, 0
1, 47490, Note_on_c, 0, 83, 52
1, 47520, Note_on_c, 0, 83, 0
1, 47520, Note_on_c, 0, 81, 52
1, 47520, Note_on_c, 0, 67, 0
1, 47520, Note_on_c, 0, 60, 46
1, 47550, Note_on_c, 0, 81, 0
1, 47560, Note_on_c, 0, 60, 0
1, 47560, Note_on_c, 0, 64, 43
1, 47600, Note_on_c, 0, 64, 0
1, 47600, Note_on_c, 0, 69, 43
1, 47640, Note_on_c, 0, 81, 55
1, 47640, Note_on_c, 0, 69, 0
1, 47640, Note_on_c, 0, 60, 43
1, 47660, Note_on_c, 0, 81, 0
1, 47660, Note_on_c, 0, 83, 55
1, 47680, Note_on_c, 0, 83, 0
1, 47680, Note_on_c, 0, 81, 55
1, 47680, Note_on_c, 0, 60, 0
1, 47680, Note_on_c, 0, 64, 43
1, 47700, Note_on_c, 0, 81, 0
1, 47700, Note_on_c, 0, 79, 55
1, 47720, Note_on_c, 0, 79, 0
1, 47720, Note_on_c, 0, 81, 55
1, 47720, Note_on_c, 0, 64, 0
1, 47720, Note_on_c, 0, 69, 43
1, 47740, Note_on_c, 0, 81, 0
1, 47740, Note_on_c, 0, 83, 55
1, 47760, Note_on_c, 0, 83, 0
1, 47760, Note_on_c, 0, 79, 55
1, 47760, Note_on_c, 0, 69, 0
1, 47760, Note_on_c, 0, 61, 43
1, 47790, Note_on_c, 0, 79, 0
1, 47800, Note_on_c, 0, 61, 0
1, 47800, Note_on_c, 0, 64, 43
1, 47840, Note_on_c, 0, 64, 0
1, 47840, Note_on_c, 0, 69, 43
1, 47880, Note_on_c, 0, 79, 55
1, 47880, Note_on_c, 0, 69, 0
1, 47880, Note_on_c, 0, 61, 43
1, 47900, Note_on_c, 0, 79, 0
1, 47900, Note_on_c, 0, 81, 55
1, 47920, Note_on_c, 0, 81, 0
1, 47920, Note_on_c, 0, 79, 55
1, 47920, Note_on_c, 0, 61, 0
1, 47920, Note_on_c, 0, 64, 43
1, 47940, Note_on_c, 0, 79, 0
1, 47940, Note_on_c, 0, 78, 55
1, 47960, Note_on_c, 0, 78, 0
1, 47960, Note_on_c, 0, 79, 55
1, 47960, Note_on_c, 0, 64, 0
1, 47960, Note_on_c, 0, 69, 43
1, 47980, Note_on_c, 0, 79, 0
1, 47980, Note_on_c, 0, 81, 55
1, 48000, Note_on_c, 0, 81, 0
1, 48000, Note_on_c, 0, 78, 55
1, 48000, Note_on_c, 0, 69, 0
1, 48000, Note_on_c, 0, 62, 43
1, 48120, Note_on_c, 0, 78, 0
1, 48120, Note_on_c, 0, 62, 0
1, 48210, Note_on_c, 0, 74, 54
1, 48210, Note_on_c, 0, 62, 56
1, 48240, Note_on_c, 0, 74, 0
1, 48240, Note_on_c, 0, 78, 54
1, 48240, Note_on_c, 0, 62, 0
1, 48240, Note_on_c, 0, 66, 56
1, 48330, Note_on_c, 0, 78, 0
1, 48330, Note_on_c, 0, 74, 54
1, 48330, Note_on_c, 0, 66, 0
1, 48330, Note_on_c, 0, 62, 56
1, 48360, Note_on_c, 0, 74, 0
1, 48360, Note_on_c, 0, 81, 54
1, 48360, Note_on_c, 0, 62, 0
1, 48360, Note_on_c, 0, 69, 56
1, 48450, Note_on_c, 0, 81, 0
1, 48450, Note_on_c, 0, 78, 54
1, 48450, Note_on_c, 0, 69, 0
1, 48450, Note_on_c, 0, 66, 56
1, 48480, Note_on_c, 0, 78, 0
1, 48480, Note_on_c, 0, 86, 54
1, 48480, Note_on_c, 0, 66, 0
1, 48480, Note_on_c, 0, 74, 56
1, 48600, Note_on_c, 0, 86, 0
1, 48600, Note_on_c, 0, 74, 0
1, 48690, Note_on_c, 0, 62, 54
1, 48690, Note_on_c, 0, 50, 56
1, 48720, Note_on_c, 0, 62, 0
1, 48720, Note_on_c, 0, 66, 54
1, 48720, Note_on_c, 0, 50, 0
1, 48720, Note_on_c, 0, 54, 56
1, 48760, Note_on_c, 0, 66, 0
1, 48760, Note_on_c, 0, 62, 54
1, 48760, Note_on_c, 0, 54, 0
1, 48760, Note_on_c, 0, 50, 56
1, 48800, Note_on_c, 0, 62, 0
1, 48800, Note_on_c, 0, 66, 54
1, 48800, Note_on_c, 0, 50, 0
1, 48800, Note_on_c, 0, 54, 56
1, 48840, Note_on_c, 0, 66, 0
1, 48840, Note_on_c, 0, 69, 54
1, 48840, Note_on_c, 0, 54, 0
1, 48840, Note_on_c, 0, 57, 56
1, 48880, Note_on_c, 0, 69, 0
1, 48880, Note_on_c, 0, 66, 54
1, 48880, Note_on_c, 0, 57, 0
1, 48880, Note_on_c, 0, 54, 56
1, 48920, Note_on_c, 0, 66, 0
1, 48920, Note_on_c, 0, 69, 54
1, 48920, Note_on_c, 0, 54, 0
1, 48920, Note_on_c, 0, 57, 56
1, 48960, Note_on_c, 0, 69, 0
1, 48960, Note_on_c, 0, 74, 54
1, 48960, Note_on_c, 0, 57, 0
1, 48960, Note_on_c, 0, 62, 56
1, 49080, Note_on_c, 0, 74, 0
1, 49080, Note_on_c, 0, 62, 0
1, 49200, Note_on_c, 0, 50, 54
1, 49200, Note_on_c, 0, 38, 56
1, 49380, Note_on_c, 0, 50, 0
1, 49380, Note_on_c, 0, 50, 54
1, 49380, Note_on_c, 0, 38, 0
1, 49380, Note_on_c, 0, 38, 56
1, 49410, Note_on_c, 0, 50, 0
1, 49410, Note_on_c, 0, 38, 0
1, 49440, Note_on_c, 0, 50, 54
1, 49440, Note_on_c, 0, 38, 56
1, 49680, Note_on_c, 0, 50, 0
1, 49680, Note_on_c, 0, 38, 0
1, 49920, Note_on_c, 0, 59, 35
1, 49960, Note_on_c, 0, 59, 0
1, 49960, Note_on_c, 0, 62, 35
1, 50000, Note_on_c, 0, 62, 0
1, 50000, Note_on_c, 0, 67, 35
1, 50040, Note_on_c, 0, 67, 0
1, 50040, Note_on_c, 0, 59, 35
1, 50080, Note_on_c, 0, 59, 0
1, 50080, Note_on_c, 0, 62, 35
1, 50120, Note_on_c, 0, 62, 0
1, 50120, Note_on_c, 0, 67, 35
1, 50160, Note_on_c, 0, 67, 0
1, 50160, Note_on_c, 0, 59, 35
1, 50200, Note_on_c, 0, 59, 0
1, 50200, Note_on_c, 0, 62, 35
1, 50240, Note_on_c, 0, 62, 0
1, 50240, Note_on_c, 0, 67, 35
1, 50280, Note_on_c, 0, 74, 39
1, 50280, Note_on_c, 0, 67, 0
1, 50280, Note_on_c, 0, 60, 35
1, 50300, Note_on_c, 0, 74, 0
1, 50300, Note_on_c, 0, 76, 39
1, 50320, Note_on_c, 0, 76, 0
1, 50320, Note_on_c, 0, 74, 39
1, 50320, Note_on_c, 0, 60, 0
1, 50320, Note_on_c, 0, 62, 35
1, 50340, Note_on_c, 0, 74, 0
1, 50340, Note_on_c, 0, 73, 39
1, 50360, Note_on_c, 0, 62, 0
1, 50360, Note_on_c, 0, 66, 35
1, 50370, Note_on_c, 0, 73, 0
1, 50370, Note_on_c, 0, 74, 39
1, 50400, Note_on_c, 0, 74, 0
1, 50400, Note_on_c, 0, 79, 39
1, 50400, Note_on_c, 0, 66, 0
1, 50400, Note_on_c, 0, 59, 35
1, 50430, Note_on_c, 0, 79, 0
1, 50440, Note_on_c, 0, 59, 0
1, 50440, Note_on_c, 0, 62, 35
1, 50480, Note_on_c, 0, 62, 0
1, 50480, Note_on_c, 0, 67, 35
1, 50520, Note_on_c, 0, 79, 39
1, 50520, Note_on_c, 0, 67, 0
1, 50520, Note_on_c, 0, 59, 35
1, 50550, Note_on_c, 0, 79, 0
1, 50560, Note_on_c, 0, 59, 0
1, 50560, Note_on_c, 0, 62, 35
1, 50600, Note_on_c, 0, 62, 0
1, 50600, Note_on_c, 0, 67, 35
1, 50640, Note_on_c, 0, 67, 0
1, 50640, Note_on_c, 0, 59, 35
1, 50680, Note_on_c, 0, 59, 0
1, 50680, Note_on_c, 0, 62, 35
1, 50720, Note_on_c, 0, 62, 0
1, 50720, Note_on_c, 0, 67, 35
1, 50760, Note_on_c, 0, 74, 39
1, 50760, Note_on_c, 0, 67, 0
1, 50760, Note_on_c, 0, 60, 35
1, 50780, Note_on_c, 0, 74, 0
1, 50780, Note_on_c, 0, 76, 39
1, 50800, Note_on_c, 0, 76, 0
1, 50800, Note_on_c, 0, 74, 39
1, 50800, Note_on_c, 0, 60, 0
1, 50800, Note_on_c, 0, 62, 35
1, 50820, Note_on_c, 0, 74, 0
1, 50820, Note_on_c, 0, 73, 39
1, 50840, Note_on_c, 0, 62, 0
1, 50840, Note_on_c, 0, 66, 35
1, 50850, Note_on_c, 0, 73, 0
1, 50850, Note_on_c, 0, 74, 39
1, 50880, Note_on_c, 0, 74, 0
1, 50880, Note_on_c, 0, 79, 39
1, 50880, Note_on_c, 0, 66, 0
1, 50880, Note_on_c, 0, 59, 35
1, 50910, Note_on_c, 0, 79, 0
1, 50920, Note_on_c, 0, 59, 0
1, 50920, Note_on_c, 0, 62, 35
1, 50960, Note_on_c, 0, 62, 0
1, 50960, Note_on_c, 0, 67, 35
1, 51000, Note_on_c, 0, 79, 39
1, 51000, Note_on_c, 0, 67, 0
1, 51000, Note_on_c, 0, 59, 35
1, 51030, Note_on_c, 0, 79, 0
1, 51040, Note_on_c, 0, 59, 0
1, 51040, Note_on_c, 0, 62, 35
1, 51080, Note_on_c, 0, 62, 0
1, 51080, Note_on_c, 0, 67, 35
1, 51120, Note_on_c, 0, 67, 0
1, 51120, Note_on_c, 0, 59, 35
1, 51160, Note_on_c, 0, 59, 0
1, 51160, Note_on_c, 0, 62, 35
1, 51200, Note_on_c, 0, 62, 0
1, 51200, Note_on_c, 0, 67, 35
1, 51240, Note_on_c, 0, 74, 39
1, 51240, Note_on_c, 0, 67, 0
1, 51240, Note_on_c, 0, 60, 35
1, 51260, Note_on_c, 0, 74, 0
1, 51260, Note_on_c, 0, 76, 39
1, 51280, Note_on_c, 0, 76, 0
1, 51280, Note_on_c, 0, 74, 39
1, 51280, Note_on_c, 0, 60, 0
1, 51280, Note_on_c, 0, 62, 35
1, 51300, Note_on_c, 0, 74, 0
1, 51300, Note_on_c, 0, 73, 39
1, 51320, Note_on_c, 0, 62, 0
1, 51320, Note_on_c, 0, 66, 35
1, 51330, Note_on_c, 0, 73, 0
1, 51330, Note_on_c, 0, 74, 39
1, 51360, Note_on_c, 0, 74, 0
1, 51360, Note_on_c, 0, 79, 39
1, 51360, Note_on_c, 0, 66, 0
1, 51360, Note_on_c, 0, 59, 37
1, 51390, Note_on_c, 0, 79, 0
1, 51400, Note_on_c, 0, 59, 0
1, 51400, Note_on_c, 0, 62, 37
1, 51440, Note_on_c, 0, 62, 0
1, 51440, Note_on_c, 0, 67, 38
1, 51480, Note_on_c, 0, 79, 41
1, 51480, Note_on_c, 0, 67, 0
1, 51480, Note_on_c, 0, 59, 38
1, 51500, Note_on_c, 0, 79, 0
1, 51500, Note_on_c, 0, 81, 41
1, 51520, Note_on_c, 0, 81, 0
1, 51520, Note_on_c, 0, 79, 41
1, 51520, Note_on_c, 0, 59, 0
1, 51520, Note_on_c, 0, 62, 39
1, 51540, Note_on_c, 0, 79, 0
1, 51540, Note_on_c, 0, 78, 42
1, 51560, Note_on_c, 0, 62, 0
1, 51560, Note_on_c, 0, 67, 39
1, 51570, Note_on_c, 0, 78, 0
1, 51570, Note_on_c, 0, 79, 42
1, 51600, Note_on_c, 0, 79, 0
1, 51600, Note_on_c, 0, 81, 43
1, 51600, Note_on_c, 0, 67, 0
1, 51600, Note_on_c, 0, 54, 40
1, 51630, Note_on_c, 0, 81, 0
1, 51640, Note_on_c, 0, 54, 0
1, 51640, Note_on_c, 0, 57, 40
1, 51680, Note_on_c, 0, 57, 0
1, 51680, Note_on_c, 0, 62, 41
1, 51720, Note_on_c, 0, 81, 45
1, 51720, Note_on_c, 0, 62, 0
1, 51720, Note_on_c, 0, 54, 41
1, 51740, Note_on_c, 0, 81, 0
1, 51740, Note_on_c, 0, 83, 45
1, 51760, Note_on_c, 0, 83, 0
1, 51760, Note_on_c, 0, 81, 45
1, 51760, Note_on_c, 0, 54, 0
1, 51760, Note_on_c, 0, 57, 41
1, 51780, Note_on_c, 0, 81, 0
1, 51780, Note_on_c, 0, 79, 46
1, 51800, Note_on_c, 0, 57, 0
1, 51800, Note_on_c, 0, 62, 42
1, 51810, Note_on_c, 0, 79, 0
1, 51810, Note_on_c, 0, 81, 46
1, 51840, Note_on_c, 0, 81, 0
1, 51840, Note_on_c, 0, 83, 47
1, 51840, Note_on_c, 0, 62, 0
1, 51840, Note_on_c, 0, 55, 43
1, 51870, Note_on_c, 0, 83, 0
1, 51880, Note_on_c, 0, 55, 0
1, 51880, Note_on_c, 0, 59, 43
1, 51920, Note_on_c, 0, 59, 0
1, 51920, Note_on_c, 0, 62, 43
1, 51960, Note_on_c, 0, 83, 49
1, 51960, Note_on_c, 0, 62, 0
1, 51960, Note_on_c, 0, 55, 44
1, 51980, Note_on_c, 0, 83, 0
1, 51980, Note_on_c, 0, 84, 49
1, 52000, Note_on_c, 0, 84, 0
1, 52000, Note_on_c, 0, 83, 50
1, 52000, Note_on_c, 0, 55, 0
1, 52000, Note_on_c, 0, 59, 44
1, 52020, Note_on_c, 0, 83, 0
1, 52020, Note_on_c, 0, 81, 50
1, 52040, Note_on_c, 0, 59, 0
1, 52040, Note_on_c, 0, 62, 45
1, 52050, Note_on_c, 0, 81, 0
1, 52050, Note_on_c, 0, 83, 51
1, 52080, Note_on_c, 0, 83, 0
1, 52080, Note_on_c, 0, 84, 51
1, 52080, Note_on_c, 0, 62, 0
1, 52080, Note_on_c, 0, 52, 45
1, 52110, Note_on_c, 0, 84, 0
1, 52120, Note_on_c, 0, 52, 0
1, 52120, Note_on_c, 0, 55, 46
1, 52160, Note_on_c, 0, 55, 0
1, 52160, Note_on_c, 0, 60, 46
1, 52200, Note_on_c, 0, 84, 53
1, 52200, Note_on_c, 0, 60, 0
1, 52200, Note_on_c, 0, 52, 47
1, 52220, Note_on_c, 0, 84, 0
1, 52220, Note_on_c, 0, 86, 54
1, 52240, Note_on_c, 0, 86, 0
1, 52240, Note_on_c, 0, 84, 54
1, 52240, Note_on_c, 0, 52, 0
1, 52240, Note_on_c, 0, 55, 47
1, 52260, Note_on_c, 0, 84, 0
1, 52260, Note_on_c, 0, 83, 54
1, 52280, Note_on_c, 0, 55, 0
1, 52280, Note_on_c, 0, 60, 48
1, 52290, Note_on_c, 0, 83, 0
1, 52290, Note_on_c, 0, 84, 55
1, 52320, Note_on_c, 0, 84, 0
1, 52320, Note_on_c, 0, 86, 56
1, 52320, Note_on_c, 0, 60, 0
1, 52320, Note_on_c, 0, 47, 48
1, 52360, Note_on_c, 0, 47, 0
1, 52360, Note_on_c, 0, 50, 49
1, 52400, Note_on_c, 0, 50, 0
1, 52400, Note_on_c, 0, 55, 49
1, 52440, Note_on_c, 0, 55, 0
1, 52440, Note_on_c, 0, 47, 49
1, 52480, Note_on_c, 0, 47, 0
1, 52480, Note_on_c, 0, 50, 49
1, 52520, Note_on_c, 0, 50, 0
1, 52520, Note_on_c, 0, 55, 49
1, 52560, Note_on_c, 0, 55, 0
1, 52560, Note_on_c, 0, 47, 49
1, 52680, Note_on_c, 0, 86, 0
1, 52680, Note_on_c, 0, 75, 55
1, 52680, Note_on_c, 0, 87, 55
1, 52680, Note_on_c, 0, 47, 0
1, 52800, Note_on_c, 0, 87, 0
1, 52800, Note_on_c, 0, 75, 0
1, 52800, Note_on_c, 0, 76, 55
1, 52800, Note_on_c, 0, 88, 55
1, 52800, Note_on_c, 0, 36, 57
1, 52800, Note_on_c, 0, 48, 57
1, 52920, Note_on_c, 0, 88, 0
1, 52920, Note_on_c, 0, 76, 0
1, 52920, Note_on_c, 0, 68, 46
1, 52920, Note_on_c, 0, 80, 46
1, 52920, Note_on_c, 0, 48, 0
1, 52920, Note_on_c, 0, 36, 0
1, 53040, Note_on_c, 0, 80, 0
1, 53040, Note_on_c, 0, 68, 0
1, 53040, Note_on_c, 0, 69, 49
1, 53040, Note_on_c, 0, 81, 49
1, 53160, Note_on_c, 0, 81, 0
1, 53160, Note_on_c, 0, 69, 0
1, 53160, Note_on_c, 0, 71, 53
1, 53160, Note_on_c, 0, 83, 53
1, 53280, Note_on_c, 0, 83, 0
1, 53280, Note_on_c, 0, 71, 0
1, 53280, Note_on_c, 0, 72, 56
1, 53280, Note_on_c, 0, 84, 56
1, 53520, Note_on_c, 0, 84, 0
1, 53520, Note_on_c, 0, 72, 0
1, 53520, Note_on_c, 0, 74, 56
1, 53520, Note_on_c, 0, 86, 56
1, 53640, Note_on_c, 0, 86, 0
1, 53640, Note_on_c, 0, 74, 0
1, 53640, Note_on_c, 0, 76, 56
1, 53640, Note_on_c, 0, 88, 56
1, 53760, Note_on_c, 0, 88, 0
1, 53760, Note_on_c, 0, 76, 0
1, 53760, Note_on_c, 0, 79, 39
1, 53760, Note_on_c, 0, 74, 39
1, 53760, Note_on_c, 0, 71, 38
1, 53760, Note_on_c, 0, 62, 38
1, 54000, Note_on_c, 0, 74, 0
1, 54000, Note_on_c, 0, 79, 0
1, 54000, Note_on_c, 0, 83, 39
1, 54000, Note_on_c, 0, 78, 39
1, 54000, Note_on_c, 0, 71, 0
1, 54000, Note_on_c, 0, 72, 38
1, 54060, Note_on_c, 0, 83, 0
1, 54060, Note_on_c, 0, 81, 39
1, 54180, Note_on_c, 0, 81, 0
1, 54180, Note_on_c, 0, 79, 39
1, 54240, Note_on_c, 0, 79, 0
1, 54240, Note_on_c, 0, 78, 0
1, 54240, Note_on_c, 0, 79, 39
1, 54240, Note_on_c, 0, 72, 0
1, 54240, Note_on_c, 0, 62, 0
1, 54240, Note_on_c, 0, 67, 38
1, 54240, Note_on_c, 0, 71, 38
1, 54480, Note_on_c, 0, 79, 0
1, 54480, Note_on_c, 0, 71, 0
1, 54480, Note_on_c, 0, 67, 0
1, 54600, Note_on_c, 0, 83, 41
1, 54600, Note_on_c, 0, 79, 36
1, 54640, Note_on_c, 0, 83, 0
1, 54640, Note_on_c, 0, 87, 44
1, 54680, Note_on_c, 0, 87, 0
1, 54680, Note_on_c, 0, 88, 47
1, 54720, Note_on_c, 0, 88, 0
1, 54720, Note_on_c, 0, 86, 39
1, 54720, Note_on_c, 0, 79, 0
1, 54720, Note_on_c, 0, 78, 36
1, 54720, Note_on_c, 0, 81, 36
1, 54750, Note_on_c, 0, 86, 0
1, 54780, Note_on_c, 0, 81, 0
1, 54780, Note_on_c, 0, 78, 0
1, 54840, Note_on_c, 0, 86, 39
1, 54870, Note_on_c, 0, 86, 0
1, 54960, Note_on_c, 0, 86, 39
1, 54990, Note_on_c, 0, 86, 0
1, 55080, Note_on_c, 0, 79, 39
1, 55080, Note_on_c, 0, 76, 36
1, 55120, Note_on_c, 0, 79, 0
1, 55120, Note_on_c, 0, 83, 40
1, 55160, Note_on_c, 0, 83, 0
1, 55160, Note_on_c, 0, 84, 42
1, 55200, Note_on_c, 0, 84, 0
1, 55200, Note_on_c, 0, 83, 43
1, 55200, Note_on_c, 0, 76, 0
1, 55200, Note_on_c, 0, 78, 36
1, 55200, Note_on_c, 0, 74, 36
1, 55230, Note_on_c, 0, 83, 0
1, 55260, Note_on_c, 0, 74, 0
1, 55260, Note_on_c, 0, 78, 0
1, 55320, Note_on_c, 0, 83, 39
1, 55350, Note_on_c, 0, 83, 0
1, 55440, Note_on_c, 0, 83, 39
1, 55470, Note_on_c, 0, 83, 0
1, 55560, Note_on_c, 0, 76, 38
1, 55560, Note_on_c, 0, 72, 36
1, 55600, Note_on_c, 0, 76, 0
1, 55600, Note_on_c, 0, 80, 40
1, 55640, Note_on_c, 0, 80, 0
1, 55640, Note_on_c, 0, 81, 41
1, 55680, Note_on_c, 0, 81, 0
1, 55680, Note_on_c, 0, 79, 43
1, 55680, Note_on_c, 0, 72, 0
1, 55680, Note_on_c, 0, 74, 36
1, 55680, Note_on_c, 0, 71, 36
1, 55720, Note_on_c, 0, 79, 0
1, 55740, Note_on_c, 0, 71, 0
1, 55740, Note_on_c, 0, 74, 0
1, 55800, Note_on_c, 0, 79, 39
1, 55840, Note_on_c, 0, 79, 0
1, 55920, Note_on_c, 0, 79, 39
1, 55960, Note_on_c, 0, 79, 0
1, 56040, Note_on_c, 0, 83, 46
1, 56040, Note_on_c, 0, 71, 42
1, 56040, Note_on_c, 0, 67, 42
1, 56100, Note_on_c, 0, 67, 0
1, 56100, Note_on_c, 0, 71, 0
1, 56130, Note_on_c, 0, 83, 0
1, 56130, Note_on_c, 0, 79, 41
1, 56160, Note_on_c, 0, 79, 0
1, 56160, Note_on_c, 0, 76, 39
1, 56160, Note_on_c, 0, 72, 42
1, 56160, Note_on_c, 0, 60, 42
1, 56220, Note_on_c, 0, 76, 0
1, 56280, Note_on_c, 0, 84, 42
1, 56280, Note_on_c, 0, 60, 0
1, 56280, Note_on_c, 0, 72, 0
1, 56370, Note_on_c, 0, 84, 0
1, 56370, Note_on_c, 0, 81, 41
1, 56400, Note_on_c, 0, 81, 0
1, 56400, Note_on_c, 0, 78, 40
1, 56400, Note_on_c, 0, 62, 42
1, 56400, Note_on_c, 0, 69, 42
1, 56460, Note_on_c, 0, 78, 0
1, 56520, Note_on_c, 0, 81, 39
1, 56520, Note_on_c, 0, 69, 0
1, 56520, Note_on_c, 0, 62, 0
1, 56610, Note_on_c, 0, 81, 0
1, 56610, Note_on_c, 0, 78, 39
1, 56640, Note_on_c, 0, 78, 0
1, 56640, Note_on_c, 0, 79, 39
1, 56640, Note_on_c, 0, 67, 39
1, 56640, Note_on_c, 0, 71, 39
1, 56760, Note_on_c, 0, 79, 0
1, 56760, Note_on_c, 0, 71, 0
1, 56760, Note_on_c, 0, 67, 0
1, 57000, Note_on_c, 0, 83, 50
1, 57000, Note_on_c, 0, 79, 42
1, 57040, Note_on_c, 0, 87, 44
1, 57080, Note_on_c, 0, 87, 0
1, 57080, Note_on_c, 0, 83, 0
1, 57080, Note_on_c, 0, 88, 39
1, 57120, Note_on_c, 0, 88, 0
1, 57120, Note_on_c, 0, 81, 39
1, 57120, Note_on_c, 0, 79, 0
1, 57120, Note_on_c, 0, 78, 37
1, 57150, Note_on_c, 0, 78, 0
1, 57160, Note_on_c, 0, 81, 0
1, 57160, Note_on_c, 0, 85, 39
1, 57200, Note_on_c, 0, 85, 0
1, 57200, Note_on_c, 0, 86, 39
1, 57240, Note_on_c, 0, 86, 0
1, 57240, Note_on_c, 0, 81, 39
1, 57240, Note_on_c, 0, 78, 36
1, 57270, Note_on_c, 0, 78, 0
1, 57280, Note_on_c, 0, 81, 0
1, 57280, Note_on_c, 0, 85, 39
1, 57320, Note_on_c, 0, 85, 0
1, 57320, Note_on_c, 0, 86, 39
1, 57360, Note_on_c, 0, 86, 0
1, 57360, Note_on_c, 0, 81, 39
1, 57360, Note_on_c, 0, 78, 36
1, 57390, Note_on_c, 0, 78, 0
1, 57400, Note_on_c, 0, 81, 0
1, 57400, Note_on_c, 0, 85, 39
1, 57440, Note_on_c, 0, 85, 0
1, 57440, Note_on_c, 0, 86, 39
1, 57480, Note_on_c, 0, 86, 0
1, 57480, Note_on_c, 0, 83, 47
1, 57480, Note_on_c, 0, 79, 44
1, 57520, Note_on_c, 0, 87, 45
1, 57560, Note_on_c, 0, 87, 0
1, 57560, Note_on_c, 0, 83, 0
1, 57560, Note_on_c, 0, 88, 43
1, 57600, Note_on_c, 0, 88, 0
1, 57600, Note_on_c, 0, 81, 40
1, 57600, Note_on_c, 0, 79, 0
1, 57600, Note_on_c, 0, 78, 36
1, 57630, Note_on_c, 0, 78, 0
1, 57640, Note_on_c, 0, 81, 0
1, 57640, Note_on_c, 0, 85, 39
1, 57680, Note_on_c, 0, 85, 0
1, 57680, Note_on_c, 0, 86, 39
1, 57720, Note_on_c, 0, 86, 0
1, 57720, Note_on_c, 0, 81, 39
1, 57720, Note_on_c, 0, 78, 36
1, 57750, Note_on_c, 0, 78, 0
1, 57760, Note_on_c, 0, 81, 0
1, 57760, Note_on_c, 0, 85, 39
1, 57800, Note_on_c, 0, 85, 0
1, 57800, Note_on_c, 0, 86, 39
1, 57840, Note_on_c, 0, 86, 0
1, 57840, Note_on_c, 0, 81, 39
1, 57840, Note_on_c, 0, 78, 36
1, 57870, Note_on_c, 0, 78, 0
1, 57880, Note_on_c, 0, 81, 0
1, 57880, Note_on_c, 0, 85, 39
1, 57920, Note_on_c, 0, 85, 0
1, 57920, Note_on_c, 0, 86, 39
1, 57960, Note_on_c, 0, 86, 0
1, 57960, Note_on_c, 0, 79, 48
1, 57960, Note_on_c, 0, 76, 43
1, 58000, Note_on_c, 0, 83, 45
1, 58040, Note_on_c, 0, 83, 0
1, 58040, Note_on_c, 0, 79, 0
1, 58040, Note_on_c, 0, 84, 42
1, 58080, Note_on_c, 0, 84, 0
1, 58080, Note_on_c, 0, 78, 39
1, 58080, Note_on_c, 0, 76, 0
1, 58080, Note_on_c, 0, 74, 36
1, 58110, Note_on_c, 0, 74, 0
1, 58120, Note_on_c, 0, 78, 0
1, 58120, Note_on_c, 0, 82, 39
1, 58160, Note_on_c, 0, 82, 0
1, 58160, Note_on_c, 0, 83, 39
1, 58200, Note_on_c, 0, 83, 0
1, 58200, Note_on_c, 0, 78, 39
1, 58200, Note_on_c, 0, 74, 36
1, 58230, Note_on_c, 0, 74, 0
1, 58240, Note_on_c, 0, 78, 0
1, 58240, Note_on_c, 0, 82, 39
1, 58280, Note_on_c, 0, 82, 0
1, 58280, Note_on_c, 0, 83, 39
1, 58320, Note_on_c, 0, 83, 0
1, 58320, Note_on_c, 0, 78, 39
1, 58320, Note_on_c, 0, 74, 36
1, 58350, Note_on_c, 0, 74, 0
1, 58360, Note_on_c, 0, 78, 0
1, 58360, Note_on_c, 0, 82, 39
1, 58400, Note_on_c, 0, 82, 0
1, 58400, Note_on_c, 0, 83, 39
1, 58440, Note_on_c, 0, 83, 0
1, 58440, Note_on_c, 0, 79, 48
1, 58440, Note_on_c, 0, 76, 42
1, 58480, Note_on_c, 0, 83, 45
1, 58520, Note_on_c, 0, 83, 0
1, 58520, Note_on_c, 0, 79, 0
1, 58520, Note_on_c, 0, 84, 42
1, 58560, Note_on_c, 0, 84, 0
1, 58560, Note_on_c, 0, 78, 39
1, 58560, Note_on_c, 0, 76, 0
1, 58560, Note_on_c, 0, 74, 36
1, 58590, Note_on_c, 0, 74, 0
1, 58600, Note_on_c, 0, 78, 0
1, 58600, Note_on_c, 0, 82, 39
1, 58640, Note_on_c, 0, 82, 0
1, 58640, Note_on_c, 0, 83, 39
1, 58680, Note_on_c, 0, 83, 0
1, 58680, Note_on_c, 0, 78, 39
1, 58680, Note_on_c, 0, 74, 36
1, 58710, Note_on_c, 0, 74, 0
1, 58720, Note_on_c, 0, 78, 0
1, 58720, Note_on_c, 0, 82, 39
1, 58760, Note_on_c, 0, 82, 0
1, 58760, Note_on_c, 0, 83, 39
1, 58800, Note_on_c, 0, 83, 0
1, 58800, Note_on_c, 0, 78, 39
1, 58800, Note_on_c, 0, 74, 36
1, 58830, Note_on_c, 0, 74, 0
1, 58840, Note_on_c, 0, 78, 0
1, 58840, Note_on_c, 0, 82, 39
1, 58880, Note_on_c, 0, 82, 0
1, 58880, Note_on_c, 0, 83, 39
1, 58920, Note_on_c, 0, 83, 0
1, 58920, Note_on_c, 0, 76, 49
1, 58920, Note_on_c, 0, 72, 42
1, 58960, Note_on_c, 0, 80, 45
1, 59000, Note_on_c, 0, 80, 0
1, 59000, Note_on_c, 0, 76, 0
1, 59000, Note_on_c, 0, 81, 41
1, 59040, Note_on_c, 0, 81, 0
1, 59040, Note_on_c, 0, 74, 39
1, 59040, Note_on_c, 0, 72, 0
1, 59040, Note_on_c, 0, 71, 36
1, 59070, Note_on_c, 0, 71, 0
1, 59080, Note_on_c, 0, 74, 0
1, 59080, Note_on_c, 0, 78, 39
1, 59120, Note_on_c, 0, 78, 0
1, 59120, Note_on_c, 0, 79, 39
1, 59160, Note_on_c, 0, 79, 0
1, 59160, Note_on_c, 0, 74, 39
1, 59160, Note_on_c, 0, 71, 36
1, 59190, Note_on_c, 0, 71, 0
1, 59200, Note_on_c, 0, 74, 0
1, 59200, Note_on_c, 0, 78, 39
1, 59240, Note_on_c, 0, 78, 0
1, 59240, Note_on_c, 0, 79, 39
1, 59280, Note_on_c, 0, 79, 0
1, 59280, Note_on_c, 0, 74, 39
1, 59280, Note_on_c, 0, 71, 36
1, 59310, Note_on_c, 0, 71, 0
1, 59320, Note_on_c, 0, 74, 0
1, 59320, Note_on_c, 0, 78, 39
1, 59360, Note_on_c, 0, 78, 0
1, 59360, Note_on_c, 0, 79, 39
1, 59400, Note_on_c, 0, 79, 0
1, 59400, Note_on_c, 0, 76, 47
1, 59400, Note_on_c, 0, 72, 42
1, 59440, Note_on_c, 0, 80, 43
1, 59480, Note_on_c, 0, 80, 0
1, 59480, Note_on_c, 0, 76, 0
1, 59480, Note_on_c, 0, 81, 39
1, 59520, Note_on_c, 0, 81, 0
1, 59520, Note_on_c, 0, 74, 39
1, 59520, Note_on_c, 0, 72, 0
1, 59520, Note_on_c, 0, 71, 36
1, 59550, Note_on_c, 0, 71, 0
1, 59560, Note_on_c, 0, 74, 0
1, 59560, Note_on_c, 0, 78, 39
1, 59600, Note_on_c, 0, 78, 0
1, 59600, Note_on_c, 0, 79, 39
1, 59640, Note_on_c, 0, 79, 0
1, 59640, Note_on_c, 0, 74, 39
1, 59640, Note_on_c, 0, 71, 36
1, 59670, Note_on_c, 0, 71, 0
1, 59680, Note_on_c, 0, 74, 0
1, 59680, Note_on_c, 0, 78, 39
1, 59720, Note_on_c, 0, 78, 0
1, 59720, Note_on_c, 0, 79, 39
1, 59760, Note_on_c, 0, 79, 0
1, 59760, Note_on_c, 0, 74, 39
1, 59760, Note_on_c, 0, 71, 36
1, 59790, Note_on_c, 0, 71, 0
1, 59800, Note_on_c, 0, 74, 0
1, 59800, Note_on_c, 0, 78, 39
1, 59840, Note_on_c, 0, 78, 0
1, 59840, Note_on_c, 0, 79, 39
1, 59880, Note_on_c, 0, 79, 0
1, 59880, Note_on_c, 0, 76, 46
1, 59880, Note_on_c, 0, 72, 41
1, 59920, Note_on_c, 0, 80, 43
1, 59960, Note_on_c, 0, 80, 0
1, 59960, Note_on_c, 0, 76, 0
1, 59960, Note_on_c, 0, 81, 40
1, 60000, Note_on_c, 0, 81, 0
1, 60000, Note_on_c, 0, 74, 39
1, 60000, Note_on_c, 0, 72, 0
1, 60000, Note_on_c, 0, 71, 36
1, 60030, Note_on_c, 0, 71, 0
1, 60040, Note_on_c, 0, 78, 41
1, 60080, Note_on_c, 0, 78, 0
1, 60080, Note_on_c, 0, 74, 0
1, 60080, Note_on_c, 0, 79, 42
1, 60120, Note_on_c, 0, 79, 0
1, 60120, Note_on_c, 0, 74, 43
1, 60120, Note_on_c, 0, 66, 42
1, 60160, Note_on_c, 0, 80, 45
1, 60180, Note_on_c, 0, 66, 0
1, 60200, Note_on_c, 0, 80, 0
1, 60200, Note_on_c, 0, 74, 0
1, 60200, Note_on_c, 0, 81, 46
1, 60240, Note_on_c, 0, 81, 0
1, 60240, Note_on_c, 0, 74, 47
1, 60240, Note_on_c, 0, 67, 44
1, 60280, Note_on_c, 0, 82, 48
1, 60300, Note_on_c, 0, 67, 0
1, 60320, Note_on_c, 0, 82, 0
1, 60320, Note_on_c, 0, 74, 0
1, 60320, Note_on_c, 0, 83, 50
1, 60360, Note_on_c, 0, 83, 0
1, 60360, Note_on_c, 0, 74, 51
1, 60360, Note_on_c, 0, 69, 46
1, 60400, Note_on_c, 0, 83, 52
1, 60420, Note_on_c, 0, 69, 0
1, 60440, Note_on_c, 0, 83, 0
1, 60440, Note_on_c, 0, 74, 0
1, 60440, Note_on_c, 0, 84, 54
1, 60480, Note_on_c, 0, 84, 0
1, 60480, Note_on_c, 0, 74, 55
1, 60480, Note_on_c, 0, 71, 48
1, 60520, Note_on_c, 0, 85, 56
1, 60560, Note_on_c, 0, 85, 0
1, 60560, Note_on_c, 0, 74, 0
1, 60560, Note_on_c, 0, 86, 58
1, 60600, Note_on_c, 0, 86, 0
1, 60600, Note_on_c, 0, 84, 56
1, 60640, Note_on_c, 0, 84, 0
1, 60640, Note_on_c, 0, 83, 54
1, 60680, Note_on_c, 0, 83, 0
1, 60680, Note_on_c, 0, 81, 52
1, 60720, Note_on_c, 0, 81, 0
1, 60720, Note_on_c, 0, 79, 50
1, 60720, Note_on_c, 0, 71, 0
1, 60760, Note_on_c, 0, 79, 0
1, 60760, Note_on_c, 0, 78, 48
1, 60800, Note_on_c, 0, 78, 0
1, 60800, Note_on_c, 0, 76, 46
1, 60840, Note_on_c, 0, 76, 0
1, 60840, Note_on_c, 0, 74, 44
1, 60880, Note_on_c, 0, 74, 0
1, 60880, Note_on_c, 0, 72, 42
1, 60920, Note_on_c, 0, 72, 0
1, 60920, Note_on_c, 0, 71, 40
1, 60960, Note_on_c, 0, 71, 0
1, 60960, Note_on_c, 0, 69, 39
1, 60960, Note_on_c, 0, 48, 39
1, 61000, Note_on_c, 0, 69, 0
1, 61000, Note_on_c, 0, 76, 48
1, 61040, Note_on_c, 0, 76, 0
1, 61040, Note_on_c, 0, 74, 47
1, 61080, Note_on_c, 0, 74, 0
1, 61080, Note_on_c, 0, 72, 45
1, 61080, Note_on_c, 0, 60, 43
1, 61120, Note_on_c, 0, 72, 0
1, 61120, Note_on_c, 0, 71, 43
1, 61160, Note_on_c, 0, 71, 0
1, 61160, Note_on_c, 0, 69, 41
1, 61200, Note_on_c, 0, 69, 0
1, 61200, Note_on_c, 0, 67, 40
1, 61200, Note_on_c, 0, 60, 0
1, 61200, Note_on_c, 0, 48, 0
1, 61200, Note_on_c, 0, 59, 41
1, 61200, Note_on_c, 0, 50, 41
1, 61320, Note_on_c, 0, 67, 0
1, 61320, Note_on_c, 0, 66, 39
1, 61320, Note_on_c, 0, 59, 0
1, 61320, Note_on_c, 0, 57, 39
1, 61440, Note_on_c, 0, 66, 0
1, 61440, Note_on_c, 0, 57, 0
1, 61440, Note_on_c, 0, 50, 0
1, 61440, Note_on_c, 0, 55, 48
1, 61440, Note_on_c, 0, 50, 48
1, 61440, Note_on_c, 0, 47, 48
1, 61480, Note_on_c, 0, 85, 56
1, 61520, Note_on_c, 0, 85, 0
1, 61520, Note_on_c, 0, 86, 58
1, 61560, Note_on_c, 0, 86, 0
1, 61560, Note_on_c, 0, 84, 56
1, 61600, Note_on_c, 0, 84, 0
1, 61600, Note_on_c, 0, 83, 54
1, 61640, Note_on_c, 0, 83, 0
1, 61640, Note_on_c, 0, 81, 52
1, 61680, Note_on_c, 0, 81, 0
1, 61680, Note_on_c, 0, 79, 50
1, 61680, Note_on_c, 0, 47, 0
1, 61680, Note_on_c, 0, 50, 0
1, 61680, Note_on_c, 0, 55, 0
1, 61720, Note_on_c, 0, 79, 0
1, 61720, Note_on_c, 0, 78, 48
1, 61760, Note_on_c, 0, 78, 0
1, 61760, Note_on_c, 0, 76, 46
1, 61800, Note_on_c, 0, 76, 0
1, 61800, Note_on_c, 0, 74, 44
1, 61840, Note_on_c, 0, 74, 0
1, 61840, Note_on_c, 0, 72, 42
1, 61880, Note_on_c, 0, 72, 0
1, 61880, Note_on_c, 0, 71, 40
1, 61920, Note_on_c, 0, 71, 0
1, 61920, Note_on_c, 0, 69, 39
1, 61920, Note_on_c, 0, 48, 39
1, 61960, Note_on_c, 0, 69, 0
1, 61960, Note_on_c, 0, 76, 48
1, 62000, Note_on_c, 0, 76, 0
1, 62000, Note_on_c, 0, 74, 47
1, 62040, Note_on_c, 0, 74, 0
1, 62040, Note_on_c, 0, 72, 45
1, 62040, Note_on_c, 0, 60, 43
1, 62080, Note_on_c, 0, 72, 0
1, 62080, Note_on_c, 0, 71, 43
1, 62120, Note_on_c, 0, 71, 0
1, 62120, Note_on_c, 0, 69, 41
1, 62160, Note_on_c, 0, 69, 0
1, 62160, Note_on_c, 0, 67, 40
1, 62160, Note_on_c, 0, 60, 0
1, 62160, Note_on_c, 0, 48, 0
1, 62160, Note_on_c, 0, 59, 41
1, 62160, Note_on_c, 0, 50, 41
1, 62280, Note_on_c, 0, 67, 0
1, 62280, Note_on_c, 0, 66, 39
1, 62280, Note_on_c, 0, 59, 0
1, 62280, Note_on_c, 0, 57, 39
1, 62295, Note_on_c, 0, 66, 0
1, 62295, Note_on_c, 0, 67, 39
1, 62310, Note_on_c, 0, 67, 0
1, 62310, Note_on_c, 0, 66, 39
1, 62400, Note_on_c, 0, 66, 0
1, 62400, Note_on_c, 0, 67, 39
1, 62400, Note_on_c, 0, 57, 0
1, 62400, Note_on_c, 0, 50, 0
1, 62400, Note_on_c, 0, 55, 35
1, 62440, Note_on_c, 0, 55, 0
1, 62440, Note_on_c, 0, 59, 35
1, 62480, Note_on_c, 0, 59, 0
1, 62480, Note_on_c, 0, 62, 35
1, 62520, Note_on_c, 0, 67, 0
1, 62520, Note_on_c, 0, 62, 0
1, 62520, Note_on_c, 0, 55, 35
1, 62560, Note_on_c, 0, 55, 0
1, 62560, Note_on_c, 0, 59, 35
1, 62600, Note_on_c, 0, 59, 0
1, 62600, Note_on_c, 0, 62, 35
1, 62640, Note_on_c, 0, 62, 0
1, 62640, Note_on_c, 0, 55, 35
1, 62680, Note_on_c, 0, 55, 0
1, 62680, Note_on_c, 0, 59, 35
1, 62720, Note_on_c, 0, 59, 0
1, 62720, Note_on_c, 0, 62, 35
1, 62760, Note_on_c, 0, 74, 39
1, 62760, Note_on_c, 0, 62, 0
1, 62760, Note_on_c, 0, 50, 38
1, 62800, Note_on_c, 0, 50, 0
1, 62800, Note_on_c, 0, 54, 38
1, 62840, Note_on_c, 0, 54, 0
1, 62840, Note_on_c, 0, 62, 38
1, 62850, Note_on_c, 0, 74, 0
1, 62850, Note_on_c, 0, 78, 39
1, 62880, Note_on_c, 0, 78, 0
1, 62880, Note_on_c, 0, 79, 39
1, 62880, Note_on_c, 0, 62, 0
1, 62880, Note_on_c, 0, 55, 35
1, 62910, Note_on_c, 0, 79, 0
1, 62920, Note_on_c, 0, 55, 0
1, 62920, Note_on_c, 0, 59, 35
1, 62960, Note_on_c, 0, 59, 0
1, 62960, Note_on_c, 0, 62, 35
1, 63000, Note_on_c, 0, 79, 39
1, 63000, Note_on_c, 0, 62, 0
1, 63000, Note_on_c, 0, 55, 35
1, 63030, Note_on_c, 0, 79, 0
1, 63040, Note_on_c, 0, 55, 0
1, 63040, Note_on_c, 0, 59, 35
1, 63080, Note_on_c, 0, 59, 0
1, 63080, Note_on_c, 0, 62, 35
1, 63120, Note_on_c, 0, 79, 39
1, 63120, Note_on_c, 0, 62, 0
1, 63120, Note_on_c, 0, 55, 35
1, 63150, Note_on_c, 0, 79, 0
1, 63160, Note_on_c, 0, 55, 0
1, 63160, Note_on_c, 0, 59, 35
1, 63200, Note_on_c, 0, 59, 0
1, 63200, Note_on_c, 0, 62, 35
1, 63240, Note_on_c, 0, 81, 41
1, 63240, Note_on_c, 0, 62, 0
1, 63240, Note_on_c, 0, 50, 38
1, 63255, Note_on_c, 0, 81, 0
1, 63255, Note_on_c, 0, 83, 42
1, 63270, Note_on_c, 0, 83, 0
1, 63270, Note_on_c, 0, 81, 44
1, 63280, Note_on_c, 0, 50, 0
1, 63280, Note_on_c, 0, 54, 38
1, 63320, Note_on_c, 0, 54, 0
1, 63320, Note_on_c, 0, 62, 38
1, 63330, Note_on_c, 0, 81, 0
1, 63330, Note_on_c, 0, 86, 48
1, 63360, Note_on_c, 0, 86, 0
1, 63360, Note_on_c, 0, 83, 47
1, 63360, Note_on_c, 0, 62, 0
1, 63360, Note_on_c, 0, 55, 35
1, 63400, Note_on_c, 0, 55, 0
1, 63400, Note_on_c, 0, 59, 35
1, 63440, Note_on_c, 0, 59, 0
1, 63440, Note_on_c, 0, 62, 35
1, 63480, Note_on_c, 0, 83, 0
1, 63480, Note_on_c, 0, 79, 38
1, 63480, Note_on_c, 0, 62, 0
1, 63480, Note_on_c, 0, 55, 35
1, 63510, Note_on_c, 0, 79, 0
1, 63520, Note_on_c, 0, 55, 0
1, 63520, Note_on_c, 0, 59, 35
1, 63560, Note_on_c, 0, 59, 0
1, 63560, Note_on_c, 0, 62, 35
1, 63600, Note_on_c, 0, 79, 39
1, 63600, Note_on_c, 0, 62, 0
1, 63600, Note_on_c, 0, 55, 35
1, 63630, Note_on_c, 0, 79, 0
1, 63640, Note_on_c, 0, 55, 0
1, 63640, Note_on_c, 0, 59, 35
1, 63680, Note_on_c, 0, 59, 0
1, 63680, Note_on_c, 0, 62, 35
1, 63720, Note_on_c, 0, 74, 51
1, 63720, Note_on_c, 0, 62, 0
1, 63720, Note_on_c, 0, 50, 38
1, 63760, Note_on_c, 0, 50, 0
1, 63760, Note_on_c, 0, 54, 38
1, 63800, Note_on_c, 0, 54, 0
1, 63800, Note_on_c, 0, 62, 38
1, 63810, Note_on_c, 0, 74, 0
1, 63810, Note_on_c, 0, 78, 48
1, 63840, Note_on_c, 0, 78, 0
1, 63840, Note_on_c, 0, 79, 47
1, 63840, Note_on_c, 0, 62, 0
1, 63840, Note_on_c, 0, 55, 35
1, 63870, Note_on_c, 0, 79, 0
1, 63880, Note_on_c, 0, 55, 0
1, 63880, Note_on_c, 0, 59, 35
1, 63920, Note_on_c, 0, 59, 0
1, 63920, Note_on_c, 0, 62, 35
1, 63960, Note_on_c, 0, 79, 46
1, 63960, Note_on_c, 0, 62, 0
1, 63960, Note_on_c, 0, 55, 35
1, 63990, Note_on_c, 0, 79, 0
1, 64000, Note_on_c, 0, 55, 0
1, 64000, Note_on_c, 0, 59, 35
1, 64040, Note_on_c, 0, 59, 0
1, 64040, Note_on_c, 0, 62, 35
1, 64080, Note_on_c, 0, 79, 46
1, 64080, Note_on_c, 0, 62, 0
1, 64080, Note_on_c, 0, 55, 35
1, 64110, Note_on_c, 0, 79, 0
1, 64120, Note_on_c, 0, 55, 0
1, 64120, Note_on_c, 0, 59, 35
1, 64160, Note_on_c, 0, 59, 0
1, 64160, Note_on_c, 0, 62, 35
1, 64200, Note_on_c, 0, 81, 46
1, 64200, Note_on_c, 0, 62, 0
1, 64200, Note_on_c, 0, 50, 38
1, 64215, Note_on_c, 0, 81, 0
1, 64215, Note_on_c, 0, 83, 46
1, 64230, Note_on_c, 0, 83, 0
1, 64230, Note_on_c, 0, 81, 46
1, 64240, Note_on_c, 0, 50, 0
1, 64240, Note_on_c, 0, 54, 38
1, 64280, Note_on_c, 0, 54, 0
1, 64280, Note_on_c, 0, 62, 38
1, 64290, Note_on_c, 0, 81, 0
1, 64290, Note_on_c, 0, 83, 46
1, 64320, Note_on_c, 0, 83, 0
1, 64320, Note_on_c, 0, 79, 46
1, 64320, Note_on_c, 0, 62, 0
1, 64320, Note_on_c, 0, 55, 36
1, 64360, Note_on_c, 0, 55, 0
1, 64360, Note_on_c, 0, 59, 36
1, 64400, Note_on_c, 0, 59, 0
1, 64400, Note_on_c, 0, 62, 37
1, 64440, Note_on_c, 0, 79, 0
1, 64440, Note_on_c, 0, 62, 0
1, 64440, Note_on_c, 0, 55, 38
1, 64480, Note_on_c, 0, 55, 0
1, 64480, Note_on_c, 0, 59, 38
1, 64520, Note_on_c, 0, 59, 0
1, 64520, Note_on_c, 0, 62, 39
1, 64560, Note_on_c, 0, 71, 50
1, 64560, Note_on_c, 0, 74, 50
1, 64560, Note_on_c, 0, 62, 0
1, 64560, Note_on_c, 0, 55, 40
1, 64600, Note_on_c, 0, 55, 0
1, 64600, Note_on_c, 0, 59, 41
1, 64640, Note_on_c, 0, 59, 0
1, 64640, Note_on_c, 0, 62, 41
1, 64680, Note_on_c, 0, 74, 0
1, 64680, Note_on_c, 0, 71, 0
1, 64680, Note_on_c, 0, 62, 0
1, 64680, Note_on_c, 0, 55, 42
1, 64720, Note_on_c, 0, 55, 0
1, 64720, Note_on_c, 0, 59, 43
1, 64760, Note_on_c, 0, 59, 0
1, 64760, Note_on_c, 0, 62, 44
1, 64800, Note_on_c, 0, 67, 50
1, 64800, Note_on_c, 0, 71, 50
1, 64800, Note_on_c, 0, 62, 0
1, 64800, Note_on_c, 0, 55, 45
1, 65040, Note_on_c, 0, 71, 0
1, 65040, Note_on_c, 0, 67, 0
1, 65040, Note_on_c, 0, 55, 0
1, 65160, Note_on_c, 0, 79, 39
1, 65240, Note_on_c, 0, 79, 0
1, 65240, Note_on_c, 0, 81, 39
1, 65280, Note_on_c, 0, 81, 0
1, 65280, Note_on_c, 0, 77, 39
1, 65280, Note_on_c, 0, 59, 37
1, 65280, Note_on_c, 0, 67, 37
1, 65320, Note_on_c, 0, 77, 0
1, 65400, Note_on_c, 0, 77, 39
1, 65400, Note_on_c, 0, 67, 0
1, 65400, Note_on_c, 0, 59, 0
1, 65480, Note_on_c, 0, 77, 0
1, 65480, Note_on_c, 0, 79, 39
1, 65520, Note_on_c, 0, 79, 0
1, 65520, Note_on_c, 0, 76, 39
1, 65520, Note_on_c, 0, 67, 37
1, 65520, Note_on_c, 0, 60, 37
1, 65560, Note_on_c, 0, 76, 0
1, 65640, Note_on_c, 0, 76, 39
1, 65640, Note_on_c, 0, 60, 0
1, 65640, Note_on_c, 0, 67, 0
1, 65720, Note_on_c, 0, 76, 0
1, 65720, Note_on_c, 0, 77, 39
1, 65760, Note_on_c, 0, 77, 0
1, 65760, Note_on_c, 0, 74, 39
1, 65760, Note_on_c, 0, 65, 37
1, 65760, Note_on_c, 0, 67, 37
1, 65800, Note_on_c, 0, 74, 0
1, 65880, Note_on_c, 0, 74, 39
1, 65880, Note_on_c, 0, 67, 0
1, 65880, Note_on_c, 0, 65, 0
1, 65960, Note_on_c, 0, 74, 0
1, 65960, Note_on_c, 0, 76, 39
1, 66000, Note_on_c, 0, 76, 0
1, 66000, Note_on_c, 0, 72, 39
1, 66000, Note_on_c, 0, 64, 37
1, 66000, Note_on_c, 0, 67, 37
1, 66040, Note_on_c, 0, 72, 0
1, 66120, Note_on_c, 0, 72, 47
1, 66120, Note_on_c, 0, 76, 47
1, 66120, Note_on_c, 0, 67, 0
1, 66120, Note_on_c, 0, 64, 0
1, 66200, Note_on_c, 0, 76, 0
1, 66200, Note_on_c, 0, 72, 0
1, 66200, Note_on_c, 0, 77, 47
1, 66240, Note_on_c, 0, 77, 0
1, 66240, Note_on_c, 0, 71, 47
1, 66240, Note_on_c, 0, 74, 47
1, 66240, Note_on_c, 0, 40, 47
1, 66240, Note_on_c, 0, 52, 47
1, 66360, Note_on_c, 0, 74, 0
1, 66360, Note_on_c, 0, 71, 0
1, 66360, Note_on_c, 0, 71, 47
1, 66360, Note_on_c, 0, 74, 47
1, 66360, Note_on_c, 0, 52, 0
1, 66360, Note_on_c, 0, 40, 0
1, 66440, Note_on_c, 0, 74, 0
1, 66440, Note_on_c, 0, 71, 0
1, 66440, Note_on_c, 0, 76, 47
1, 66480, Note_on_c, 0, 76, 0
1, 66480, Note_on_c, 0, 69, 47
1, 66480, Note_on_c, 0, 72, 47
1, 66480, Note_on_c, 0, 40, 47
1, 66480, Note_on_c, 0, 52, 47
1, 66600, Note_on_c, 0, 72, 0
1, 66600, Note_on_c, 0, 69, 0
1, 66600, Note_on_c, 0, 69, 47
1, 66600, Note_on_c, 0, 72, 47
1, 66600, Note_on_c, 0, 52, 0
1, 66600, Note_on_c, 0, 40, 0
1, 66680, Note_on_c, 0, 72, 0
1, 66680, Note_on_c, 0, 69, 0
1, 66680, Note_on_c, 0, 74, 47
1, 66720, Note_on_c, 0, 74, 0
1, 66720, Note_on_c, 0, 68, 47
1, 66720, Note_on_c, 0, 71, 47
1, 66720, Note_on_c, 0, 52, 47
1, 66720, Note_on_c, 0, 40, 47
1, 67080, Note_on_c, 0, 71, 0
1, 67080, Note_on_c, 0, 68, 0
1, 67080, Note_on_c, 0, 77, 36
1, 67080, Note_on_c, 0, 40, 0
1, 67080, Note_on_c, 0, 52, 0
1, 67110, Note_on_c, 0, 77, 0
1, 67110, Note_on_c, 0, 79, 37
1, 67140, Note_on_c, 0, 79, 0
1, 67140, Note_on_c, 0, 81, 39
1, 67170, Note_on_c, 0, 81, 0
1, 67170, Note_on_c, 0, 82, 40
1, 67200, Note_on_c, 0, 82, 0
1, 67200, Note_on_c, 0, 84, 42
1, 67200, Note_on_c, 0, 53, 35
1, 67230, Note_on_c, 0, 84, 0
1, 67240, Note_on_c, 0, 53, 0
1, 67240, Note_on_c, 0, 57, 35
1, 67280, Note_on_c, 0, 57, 0
1, 67280, Note_on_c, 0, 60, 35
1, 67320, Note_on_c, 0, 84, 42
1, 67320, Note_on_c, 0, 60, 0
1, 67320, Note_on_c, 0, 53, 35
1, 67350, Note_on_c, 0, 84, 0
1, 67360, Note_on_c, 0, 53, 0
1, 67360, Note_on_c, 0, 57, 35
1, 67400, Note_on_c, 0, 57, 0
1, 67400, Note_on_c, 0, 60, 35
1, 67440, Note_on_c, 0, 84, 42
1, 67440, Note_on_c, 0, 60, 0
1, 67440, Note_on_c, 0, 53, 35
1, 67470, Note_on_c, 0, 84, 0
1, 67480, Note_on_c, 0, 53, 0
1, 67480, Note_on_c, 0, 57, 35
1, 67520, Note_on_c, 0, 57, 0
1, 67520, Note_on_c, 0, 60, 35
1, 67560, Note_on_c, 0, 88, 42
1, 67560, Note_on_c, 0, 60, 0
1, 67560, Note_on_c, 0, 53, 35
1, 67570, Note_on_c, 0, 89, 42
1, 67590, Note_on_c, 0, 88, 0
1, 67600, Note_on_c, 0, 53, 0
1, 67600, Note_on_c, 0, 57, 35
1, 67640, Note_on_c, 0, 57, 0
1, 67640, Note_on_c, 0, 60, 35
1, 67680, Note_on_c, 0, 89, 0
1, 67680, Note_on_c, 0, 84, 40
1, 67680, Note_on_c, 0, 60, 0
1, 67680, Note_on_c, 0, 53, 35
1, 67710, Note_on_c, 0, 84, 0
1, 67720, Note_on_c, 0, 53, 0
1, 67720, Note_on_c, 0, 57, 35
1, 67760, Note_on_c, 0, 57, 0
1, 67760, Note_on_c, 0, 60, 35
1, 67800, Note_on_c, 0, 84, 40
1, 67800, Note_on_c, 0, 60, 0
1, 67800, Note_on_c, 0, 53, 35
1, 67830, Note_on_c, 0, 84, 0
1, 67840, Note_on_c, 0, 53, 0
1, 67840, Note_on_c, 0, 57, 35
1, 67880, Note_on_c, 0, 57, 0
1, 67880, Note_on_c, 0, 60, 35
1, 67920, Note_on_c, 0, 84, 40
1, 67920, Note_on_c, 0, 60, 0
1, 67920, Note_on_c, 0, 53, 35
1, 67950, Note_on_c, 0, 84, 0
1, 67960, Note_on_c, 0, 53, 0
1, 67960, Note_on_c, 0, 57, 35
1, 68000, Note_on_c, 0, 57, 0
1, 68000, Note_on_c, 0, 60, 35
1, 68040, Note_on_c, 0, 82, 42
1, 68040, Note_on_c, 0, 60, 0
1, 68040, Note_on_c, 0, 53, 35
1, 68070, Note_on_c, 0, 82, 0
1, 68070, Note_on_c, 0, 81, 41
1, 68080, Note_on_c, 0, 53, 0
1, 68080, Note_on_c, 0, 57, 35
1, 68100, Note_on_c, 0, 81, 0
1, 68100, Note_on_c, 0, 79, 40
1, 68120, Note_on_c, 0, 57, 0
1, 68120, Note_on_c, 0, 60, 35
1, 68130, Note_on_c, 0, 79, 0
1, 68130, Note_on_c, 0, 77, 39
1, 68160, Note_on_c, 0, 77, 0
1, 68160, Note_on_c, 0, 76, 38
1, 68160, Note_on_c, 0, 60, 0
1, 68160, Note_on_c, 0, 55, 35
1, 68190, Note_on_c, 0, 76, 0
1, 68200, Note_on_c, 0, 55, 0
1, 68200, Note_on_c, 0, 58, 35
1, 68240, Note_on_c, 0, 58, 0
1, 68240, Note_on_c, 0, 60, 35
1, 68280, Note_on_c, 0, 76, 38
1, 68280, Note_on_c, 0, 60, 0
1, 68280, Note_on_c, 0, 55, 35
1, 68310, Note_on_c, 0, 76, 0
1, 68320, Note_on_c, 0, 55, 0
1, 68320, Note_on_c, 0, 58, 35
1, 68360, Note_on_c, 0, 58, 0
1, 68360, Note_on_c, 0, 60, 35
1, 68400, Note_on_c, 0, 77, 39
1, 68400, Note_on_c, 0, 60, 0
1, 68400, Note_on_c, 0, 53, 35
1, 68430, Note_on_c, 0, 77, 0
1, 68440, Note_on_c, 0, 53, 0
1, 68440, Note_on_c, 0, 57, 35
1, 68480, Note_on_c, 0, 57, 0
1, 68480, Note_on_c, 0, 60, 35
1, 68520, Note_on_c, 0, 77, 40
1, 68520, Note_on_c, 0, 60, 0
1, 68520, Note_on_c, 0, 53, 35
1, 68550, Note_on_c, 0, 77, 0
1, 68560, Note_on_c, 0, 53, 0
1, 68560, Note_on_c, 0, 57, 35
1, 68600, Note_on_c, 0, 57, 0
1, 68600, Note_on_c, 0, 60, 35
1, 68640, Note_on_c, 0, 79, 41
1, 68640, Note_on_c, 0, 60, 0
1, 68640, Note_on_c, 0, 52, 35
1, 68680, Note_on_c, 0, 52, 0
1, 68680, Note_on_c, 0, 55, 35
1, 68720, Note_on_c, 0, 55, 0
1, 68720, Note_on_c, 0, 60, 35
1, 68760, Note_on_c, 0, 79, 0
1, 68760, Note_on_c, 0, 60, 0
1, 68760, Note_on_c, 0, 52, 35
1, 68800, Note_on_c, 0, 52, 0
1, 68800, Note_on_c, 0, 55, 35
1, 68840, Note_on_c, 0, 55, 0
1, 68840, Note_on_c, 0, 60, 35
1, 68880, Note_on_c, 0, 60, 0
1, 68880, Note_on_c, 0, 52, 35
1, 68920, Note_on_c, 0, 52, 0
1, 68920, Note_on_c, 0, 55, 35
1, 68960, Note_on_c, 0, 55, 0
1, 68960, Note_on_c, 0, 60, 35
1, 69000, Note_on_c, 0, 72, 37
1, 69000, Note_on_c, 0, 60, 0
1, 69000, Note_on_c, 0, 52, 35
1, 69040, Note_on_c, 0, 52, 0
1, 69040, Note_on_c, 0, 55, 35
1, 69080, Note_on_c, 0, 55, 0
1, 69080, Note_on_c, 0, 60, 35
1, 69090, Note_on_c, 0, 72, 0
1, 69090, Note_on_c, 0, 79, 42
1, 69120, Note_on_c, 0, 79, 0
1, 69120, Note_on_c, 0, 82, 43
1, 69120, Note_on_c, 0, 60, 0
1, 69120, Note_on_c, 0, 52, 35
1, 69150, Note_on_c, 0, 82, 0
1, 69160, Note_on_c, 0, 52, 0
1, 69160, Note_on_c, 0, 55, 35
1, 69200, Note_on_c, 0, 55, 0
1, 69200, Note_on_c, 0, 60, 35
1, 69240, Note_on_c, 0, 82, 44
1, 69240, Note_on_c, 0, 60, 0
1, 69240, Note_on_c, 0, 52, 35
1, 69280, Note_on_c, 0, 52, 0
1, 69280, Note_on_c, 0, 55, 35
1, 69320, Note_on_c, 0, 55, 0
1, 69320, Note_on_c, 0, 60, 35
1, 69330, Note_on_c, 0, 82, 0
1, 69330, Note_on_c, 0, 84, 44
1, 69360, Note_on_c, 0, 84, 0
1, 69360, Note_on_c, 0, 81, 43
1, 69360, Note_on_c, 0, 60, 0
1, 69360, Note_on_c, 0, 53, 35
1, 69390, Note_on_c, 0, 81, 0
1, 69400, Note_on_c, 0, 53, 0
1, 69400, Note_on_c, 0, 57, 35
1, 69440, Note_on_c, 0, 57, 0
1, 69440, Note_on_c, 0, 60, 35
1, 69480, Note_on_c, 0, 81, 43
1, 69480, Note_on_c, 0, 60, 0
1, 69480, Note_on_c, 0, 53, 35
1, 69520, Note_on_c, 0, 53, 0
1, 69520, Note_on_c, 0, 57, 35
1, 69560, Note_on_c, 0, 57, 0
1, 69560, Note_on_c, 0, 60, 35
1, 69570, Note_on_c, 0, 81, 0
1, 69570, Note_on_c, 0, 82, 42
1, 69600, Note_on_c, 0, 82, 0
1, 69600, Note_on_c, 0, 79, 42
1, 69600, Note_on_c, 0, 60, 0
1, 69600, Note_on_c, 0, 58, 35
1, 69630, Note_on_c, 0, 79, 0
1, 69640, Note_on_c, 0, 58, 0
1, 69640, Note_on_c, 0, 60, 35
1, 69680, Note_on_c, 0, 60, 0
1, 69680, Note_on_c, 0, 64, 35
1, 69720, Note_on_c, 0, 79, 42
1, 69720, Note_on_c, 0, 64, 0
1, 69720, Note_on_c, 0, 58, 35
1, 69760, Note_on_c, 0, 58, 0
1, 69760, Note_on_c, 0, 60, 35
1, 69800, Note_on_c, 0, 60, 0
1, 69800, Note_on_c, 0, 64, 35
1, 69810, Note_on_c, 0, 79, 0
1, 69810, Note_on_c, 0, 81, 41
1, 69840, Note_on_c, 0, 81, 0
1, 69840, Note_on_c, 0, 77, 41
1, 69840, Note_on_c, 0, 64, 0
1, 69840, Note_on_c, 0, 57, 35
1, 69870, Note_on_c, 0, 77, 0
1, 69880, Note_on_c, 0, 57, 0
1, 69880, Note_on_c, 0, 60, 35
1, 69920, Note_on_c, 0, 60, 0
1, 69920, Note_on_c, 0, 65, 35
1, 69960, Note_on_c, 0, 77, 41
1, 69960, Note_on_c, 0, 65, 0
1, 69960, Note_on_c, 0, 57, 35
1, 69990, Note_on_c, 0, 77, 0
1, 70000, Note_on_c, 0, 57, 0
1, 70000, Note_on_c, 0, 60, 35
1, 70040, Note_on_c, 0, 60, 0
1, 70040, Note_on_c, 0, 65, 35
1, 70080, Note_on_c, 0, 79, 47
1, 70080, Note_on_c, 0, 65, 0
1, 70080, Note_on_c, 0, 58, 35
1, 70120, Note_on_c, 0, 58, 0
1, 70120, Note_on_c, 0, 62, 35
1, 70140, Note_on_c, 0, 79, 0
1, 70160, Note_on_c, 0, 62, 0
1, 70160, Note_on_c, 0, 67, 35
1, 70200, Note_on_c, 0, 79, 45
1, 70200, Note_on_c, 0, 67, 0
1, 70200, Note_on_c, 0, 58, 35
1, 70230, Note_on_c, 0, 79, 0
1, 70240, Note_on_c, 0, 58, 0
1, 70240, Note_on_c, 0, 62, 35
1, 70280, Note_on_c, 0, 62, 0
1, 70280, Note_on_c, 0, 67, 35
1, 70320, Note_on_c, 0, 76, 42
1, 70320, Note_on_c, 0, 67, 0
1, 70320, Note_on_c, 0, 60, 35
1, 70360, Note_on_c, 0, 60, 0
1, 70360, Note_on_c, 0, 64, 35
1, 70380, Note_on_c, 0, 76, 0
1, 70400, Note_on_c, 0, 64, 0
1, 70400, Note_on_c, 0, 67, 35
1, 70440, Note_on_c, 0, 76, 39
1, 70440, Note_on_c, 0, 67, 0
1, 70440, Note_on_c, 0, 60, 35
1, 70470, Note_on_c, 0, 76, 0
1, 70480, Note_on_c, 0, 60, 0
1, 70480, Note_on_c, 0, 64, 35
1, 70520, Note_on_c, 0, 64, 0
1, 70520, Note_on_c, 0, 67, 35
1, 70560, Note_on_c, 0, 77, 36
1, 70560, Note_on_c, 0, 67, 0
1, 70560, Note_on_c, 0, 65, 35
1, 70600, Note_on_c, 0, 72, 36
1, 70640, Note_on_c, 0, 69, 36
1, 70680, Note_on_c, 0, 69, 0
1, 70680, Note_on_c, 0, 72, 0
1, 70680, Note_on_c, 0, 77, 0
1, 70680, Note_on_c, 0, 77, 36
1, 70680, Note_on_c, 0, 65, 0
1, 70720, Note_on_c, 0, 77, 0
1, 70720, Note_on_c, 0, 72, 36
1, 70760, Note_on_c, 0, 72, 0
1, 70760, Note_on_c, 0, 69, 36
1, 70800, Note_on_c, 0, 69, 0
1, 70800, Note_on_c, 0, 77, 36
1, 70840, Note_on_c, 0, 77, 0
1, 70840, Note_on_c, 0, 72, 36
1, 70880, Note_on_c, 0, 72, 0
1, 70880, Note_on_c, 0, 69, 36
1, 70920, Note_on_c, 0, 69, 0
1, 70920, Note_on_c, 0, 76, 41
1, 70920, Note_on_c, 0, 60, 43
1, 70920, Note_on_c, 0, 67, 43
1, 70960, Note_on_c, 0, 72, 39
1, 71000, Note_on_c, 0, 70, 37
1, 71040, Note_on_c, 0, 70, 0
1, 71040, Note_on_c, 0, 72, 0
1, 71040, Note_on_c, 0, 76, 0
1, 71040, Note_on_c, 0, 77, 35
1, 71040, Note_on_c, 0, 67, 0
1, 71040, Note_on_c, 0, 60, 0
1, 71040, Note_on_c, 0, 65, 35
1, 71080, Note_on_c, 0, 77, 0
1, 71080, Note_on_c, 0, 72, 36
1, 71120, Note_on_c, 0, 72, 0
1, 71120, Note_on_c, 0, 69, 36
1, 71160, Note_on_c, 0, 69, 0
1, 71160, Note_on_c, 0, 77, 36
1, 71160, Note_on_c, 0, 65, 0
1, 71200, Note_on_c, 0, 77, 0
1, 71200, Note_on_c, 0, 72, 36
1, 71240, Note_on_c, 0, 72, 0
1, 71240, Note_on_c, 0, 69, 36
1, 71280, Note_on_c, 0, 69, 0
1, 71280, Note_on_c, 0, 77, 36
1, 71320, Note_on_c, 0, 77, 0
1, 71320, Note_on_c, 0, 72, 36
1, 71360, Note_on_c, 0, 72, 0
1, 71360, Note_on_c, 0, 69, 36
1, 71400, Note_on_c, 0, 69, 0
1, 71400, Note_on_c, 0, 76, 40
1, 71400, Note_on_c, 0, 67, 42
1, 71400, Note_on_c, 0, 60, 42
1, 71440, Note_on_c, 0, 72, 39
1, 71480, Note_on_c, 0, 70, 38
1, 71520, Note_on_c, 0, 70, 0
1, 71520, Note_on_c, 0, 72, 0
1, 71520, Note_on_c, 0, 76, 0
1, 71520, Note_on_c, 0, 77, 37
1, 71520, Note_on_c, 0, 60, 0
1, 71520, Note_on_c, 0, 67, 0
1, 71520, Note_on_c, 0, 65, 36
1, 71560, Note_on_c, 0, 77, 0
1, 71560, Note_on_c, 0, 72, 36
1, 71600, Note_on_c, 0, 72, 0
1, 71600, Note_on_c, 0, 69, 36
1, 71640, Note_on_c, 0, 69, 0
1, 71640, Note_on_c, 0, 77, 36
1, 71640, Note_on_c, 0, 65, 0
1, 71680, Note_on_c, 0, 77, 0
1, 71680, Note_on_c, 0, 72, 36
1, 71720, Note_on_c, 0, 72, 0
1, 71720, Note_on_c, 0, 69, 36
1, 71760, Note_on_c, 0, 69, 0
1, 71760, Note_on_c, 0, 77, 36
1, 71800, Note_on_c, 0, 77, 0
1, 71800, Note_on_c, 0, 72, 36
1, 71840, Note_on_c, 0, 72, 0
1, 71840, Note_on_c, 0, 69, 36
1, 71880, Note_on_c, 0, 69, 0
1, 71880, Note_on_c, 0, 78, 42
1, 71880, Note_on_c, 0, 62, 42
1, 71880, Note_on_c, 0, 69, 42
1, 71920, Note_on_c, 0, 74, 40
1, 71960, Note_on_c, 0, 72, 38
1, 72000, Note_on_c, 0, 72, 0
1, 72000, Note_on_c, 0, 74, 0
1, 72000, Note_on_c, 0, 78, 0
1, 72000, Note_on_c, 0, 79, 36
1, 72000, Note_on_c, 0, 69, 0
1, 72000, Note_on_c, 0, 62, 0
1, 72000, Note_on_c, 0, 67, 35
1, 72040, Note_on_c, 0, 79, 0
1, 72040, Note_on_c, 0, 74, 36
1, 72080, Note_on_c, 0, 74, 0
1, 72080, Note_on_c, 0, 71, 36
1, 72120, Note_on_c, 0, 71, 0
1, 72120, Note_on_c, 0, 79, 36
1, 72120, Note_on_c, 0, 67, 0
1, 72160, Note_on_c, 0, 79, 0
1, 72160, Note_on_c, 0, 74, 36
1, 72200, Note_on_c, 0, 74, 0
1, 72200, Note_on_c, 0, 71, 36
1, 72240, Note_on_c, 0, 71, 0
1, 72240, Note_on_c, 0, 79, 36
1, 72280, Note_on_c, 0, 79, 0
1, 72280, Note_on_c, 0, 74, 36
1, 72320, Note_on_c, 0, 74, 0
1, 72320, Note_on_c, 0, 71, 36
1, 72360, Note_on_c, 0, 71, 0
1, 72360, Note_on_c, 0, 80, 42
1, 72360, Note_on_c, 0, 64, 41
1, 72360, Note_on_c, 0, 71, 41
1, 72400, Note_on_c, 0, 76, 41
1, 72440, Note_on_c, 0, 76, 0
1, 72440, Note_on_c, 0, 74, 39
1, 72480, Note_on_c, 0, 74, 0
1, 72480, Note_on_c, 0, 80, 0
1, 72480, Note_on_c, 0, 81, 36
1, 72480, Note_on_c, 0, 71, 0
1, 72480, Note_on_c, 0, 64, 0
1, 72480, Note_on_c, 0, 69, 35
1, 72520, Note_on_c, 0, 81, 0
1, 72520, Note_on_c, 0, 76, 36
1, 72560, Note_on_c, 0, 76, 0
1, 72560, Note_on_c, 0, 72, 36
1, 72600, Note_on_c, 0, 72, 0
1, 72600, Note_on_c, 0, 81, 36
1, 72600, Note_on_c, 0, 69, 0
1, 72640, Note_on_c, 0, 81, 0
1, 72640, Note_on_c, 0, 76, 36
1, 72680, Note_on_c, 0, 76, 0
1, 72680, Note_on_c, 0, 72, 36
1, 72720, Note_on_c, 0, 72, 0
1, 72720, Note_on_c, 0, 81, 36
1, 72760, Note_on_c, 0, 81, 0
1, 72760, Note_on_c, 0, 76, 36
1, 72800, Note_on_c, 0, 76, 0
1, 72800, Note_on_c, 0, 72, 36
1, 72840, Note_on_c, 0, 72, 0
1, 72840, Note_on_c, 0, 83, 44
1, 72840, Note_on_c, 0, 68, 39
1, 72880, Note_on_c, 0, 80, 36
1, 72920, Note_on_c, 0, 80, 0
1, 72920, Note_on_c, 0, 76, 36
1, 72960, Note_on_c, 0, 76, 0
1, 72960, Note_on_c, 0, 83, 0
1, 72960, Note_on_c, 0, 84, 43
1, 72960, Note_on_c, 0, 68, 0
1, 72960, Note_on_c, 0, 69, 41
1, 73000, Note_on_c, 0, 81, 36
1, 73040, Note_on_c, 0, 81, 0
1, 73040, Note_on_c, 0, 76, 36
1, 73080, Note_on_c, 0, 76, 0
1, 73080, Note_on_c, 0, 84, 0
1, 73080, Note_on_c, 0, 86, 43
1, 73080, Note_on_c, 0, 69, 0
1, 73080, Note_on_c, 0, 71, 43
1, 73120, Note_on_c, 0, 83, 36
1, 73160, Note_on_c, 0, 83, 0
1, 73160, Note_on_c, 0, 76, 36
1, 73200, Note_on_c, 0, 76, 0
1, 73200, Note_on_c, 0, 86, 0
1, 73200, Note_on_c, 0, 88, 41
1, 73200, Note_on_c, 0, 71, 0
1, 73200, Note_on_c, 0, 72, 45
1, 73240, Note_on_c, 0, 84, 36
1, 73280, Note_on_c, 0, 84, 0
1, 73280, Note_on_c, 0, 76, 36
1, 73320, Note_on_c, 0, 76, 0
1, 73320, Note_on_c, 0, 88, 0
1, 73320, Note_on_c, 0, 84, 42
1, 73320, Note_on_c, 0, 72, 0
1, 73320, Note_on_c, 0, 69, 38
1, 73360, Note_on_c, 0, 81, 36
1, 73400, Note_on_c, 0, 81, 0
1, 73400, Note_on_c, 0, 76, 36
1, 73440, Note_on_c, 0, 76, 0
1, 73440, Note_on_c, 0, 84, 0
1, 73440, Note_on_c, 0, 83, 41
1, 73440, Note_on_c, 0, 69, 0
1, 73440, Note_on_c, 0, 64, 38
1, 73440, Note_on_c, 0, 68, 38
1, 73480, Note_on_c, 0, 80, 36
1, 73520, Note_on_c, 0, 80, 0
1, 73520, Note_on_c, 0, 76, 36
1, 73560, Note_on_c, 0, 76, 0
1, 73560, Note_on_c, 0, 83, 0
1, 73560, Note_on_c, 0, 84, 42
1, 73560, Note_on_c, 0, 68, 0
1, 73560, Note_on_c, 0, 69, 38
1, 73600, Note_on_c, 0, 81, 36
1, 73640, Note_on_c, 0, 81, 0
1, 73640, Note_on_c, 0, 76, 36
1, 73680, Note_on_c, 0, 76, 0
1, 73680, Note_on_c, 0, 84, 0
1, 73680, Note_on_c, 0, 83, 42
1, 73680, Note_on_c, 0, 69, 0
1, 73680, Note_on_c, 0, 68, 38
1, 73720, Note_on_c, 0, 80, 36
1, 73760, Note_on_c, 0, 80, 0
1, 73760, Note_on_c, 0, 76, 36
1, 73800, Note_on_c, 0, 76, 0
1, 73800, Note_on_c, 0, 83, 0
1, 73800, Note_on_c, 0, 88, 45
1, 73800, Note_on_c, 0, 68, 0
1, 73800, Note_on_c, 0, 64, 38
1, 73840, Note_on_c, 0, 83, 41
1, 73880, Note_on_c, 0, 83, 0
1, 73880, Note_on_c, 0, 80, 37
1, 73920, Note_on_c, 0, 80, 0
1, 73920, Note_on_c, 0, 88, 0
1, 73920, Note_on_c, 0, 88, 45
1, 73920, Note_on_c, 0, 64, 0
1, 73920, Note_on_c, 0, 64, 0
1, 73920, Note_on_c, 0, 65, 34
1, 73960, Note_on_c, 0, 84, 35
1, 74000, Note_on_c, 0, 84, 0
1, 74000, Note_on_c, 0, 81, 35
1, 74040, Note_on_c, 0, 81, 0
1, 74040, Note_on_c, 0, 88, 0
1, 74040, Note_on_c, 0, 88, 42
1, 74040, Note_on_c, 0, 69, 36
1, 74080, Note_on_c, 0, 84, 35
1, 74120, Note_on_c, 0, 84, 0
1, 74120, Note_on_c, 0, 81, 35
1, 74160, Note_on_c, 0, 81, 0
1, 74160, Note_on_c, 0, 88, 0
1, 74160, Note_on_c, 0, 86, 40
1, 74160, Note_on_c, 0, 69, 0
1, 74160, Note_on_c, 0, 71, 38
1, 74200, Note_on_c, 0, 83, 35
1, 74240, Note_on_c, 0, 83, 0
1, 74240, Note_on_c, 0, 81, 35
1, 74280, Note_on_c, 0, 81, 0
1, 74280, Note_on_c, 0, 86, 0
1, 74280, Note_on_c, 0, 86, 38
1, 74280, Note_on_c, 0, 71, 0
1, 74280, Note_on_c, 0, 74, 40
1, 74320, Note_on_c, 0, 83, 35
1, 74360, Note_on_c, 0, 83, 0
1, 74360, Note_on_c, 0, 81, 35
1, 74400, Note_on_c, 0, 81, 0
1, 74400, Note_on_c, 0, 86, 0
1, 74400, Note_on_c, 0, 86, 44
1, 74400, Note_on_c, 0, 74, 0
1, 74400, Note_on_c, 0, 65, 0
1, 74400, Note_on_c, 0, 64, 41
1, 74440, Note_on_c, 0, 83, 35
1, 74480, Note_on_c, 0, 83, 0
1, 74480, Note_on_c, 0, 80, 35
1, 74520, Note_on_c, 0, 80, 0
1, 74520, Note_on_c, 0, 86, 0
1, 74520, Note_on_c, 0, 86, 42
1, 74520, Note_on_c, 0, 68, 36
1, 74560, Note_on_c, 0, 83, 35
1, 74600, Note_on_c, 0, 83, 0
1, 74600, Note_on_c, 0, 80, 35
1, 74640, Note_on_c, 0, 80, 0
1, 74640, Note_on_c, 0, 86, 0
1, 74640, Note_on_c, 0, 85, 41
1, 74640, Note_on_c, 0, 68, 0
1, 74640, Note_on_c, 0, 69, 37
1, 74680, Note_on_c, 0, 81, 35
1, 74720, Note_on_c, 0, 81, 0
1, 74720, Note_on_c, 0, 79, 35
1, 74760, Note_on_c, 0, 79, 0
1, 74760, Note_on_c, 0, 85, 0
1, 74760, Note_on_c, 0, 85, 39
1, 74760, Note_on_c, 0, 69, 0
1, 74760, Note_on_c, 0, 73, 39
1, 74800, Note_on_c, 0, 81, 35
1, 74840, Note_on_c, 0, 81, 0
1, 74840, Note_on_c, 0, 79, 35
1, 74880, Note_on_c, 0, 79, 0
1, 74880, Note_on_c, 0, 85, 0
1, 74880, Note_on_c, 0, 84, 45
1, 74880, Note_on_c, 0, 73, 0
1, 74880, Note_on_c, 0, 64, 0
1, 74880, Note_on_c, 0, 62, 35
1, 74920, Note_on_c, 0, 81, 35
1, 74960, Note_on_c, 0, 81, 0
1, 74960, Note_on_c, 0, 78, 35
1, 75000, Note_on_c, 0, 78, 0
1, 75000, Note_on_c, 0, 84, 0
1, 75000, Note_on_c, 0, 84, 43
1, 75000, Note_on_c, 0, 66, 36
1, 75040, Note_on_c, 0, 81, 35
1, 75080, Note_on_c, 0, 81, 0
1, 75080, Note_on_c, 0, 78, 35
1, 75120, Note_on_c, 0, 78, 0
1, 75120, Note_on_c, 0, 84, 0
1, 75120, Note_on_c, 0, 83, 41
1, 75120, Note_on_c, 0, 66, 0
1, 75120, Note_on_c, 0, 67, 38
1, 75160, Note_on_c, 0, 79, 35
1, 75200, Note_on_c, 0, 79, 0
1, 75200, Note_on_c, 0, 77, 35
1, 75240, Note_on_c, 0, 77, 0
1, 75240, Note_on_c, 0, 83, 0
1, 75240, Note_on_c, 0, 83, 39
1, 75240, Note_on_c, 0, 67, 0
1, 75240, Note_on_c, 0, 71, 40
1, 75280, Note_on_c, 0, 79, 35
1, 75320, Note_on_c, 0, 79, 0
1, 75320, Note_on_c, 0, 77, 35
1, 75360, Note_on_c, 0, 77, 0
1, 75360, Note_on_c, 0, 83, 0
1, 75360, Note_on_c, 0, 82, 45
1, 75360, Note_on_c, 0, 71, 0
1, 75360, Note_on_c, 0, 62, 0
1, 75360, Note_on_c, 0, 60, 37
1, 75400, Note_on_c, 0, 79, 35
1, 75440, Note_on_c, 0, 79, 0
1, 75440, Note_on_c, 0, 76, 35
1, 75480, Note_on_c, 0, 76, 0
1, 75480, Note_on_c, 0, 82, 0
1, 75480, Note_on_c, 0, 82, 42
1, 75480, Note_on_c, 0, 64, 38
1, 75520, Note_on_c, 0, 79, 35
1, 75560, Note_on_c, 0, 79, 0
1, 75560, Note_on_c, 0, 76, 35
1, 75600, Note_on_c, 0, 76, 0
1, 75600, Note_on_c, 0, 82, 0
1, 75600, Note_on_c, 0, 81, 40
1, 75600, Note_on_c, 0, 64, 0
1, 75600, Note_on_c, 0, 65, 40
1, 75640, Note_on_c, 0, 77, 35
1, 75680, Note_on_c, 0, 77, 0
1, 75680, Note_on_c, 0, 72, 35
1, 75720, Note_on_c, 0, 72, 0
1, 75720, Note_on_c, 0, 81, 0
1, 75720, Note_on_c, 0, 81, 38
1, 75720, Note_on_c, 0, 65, 0
1, 75720, Note_on_c, 0, 69, 41
1, 75760, Note_on_c, 0, 77, 35
1, 75800, Note_on_c, 0, 77, 0
1, 75800, Note_on_c, 0, 72, 35
1, 75840, Note_on_c, 0, 72, 0
1, 75840, Note_on_c, 0, 81, 0
1, 75840, Note_on_c, 0, 82, 42
1, 75840, Note_on_c, 0, 69, 0
1, 75840, Note_on_c, 0, 60, 0
1, 75840, Note_on_c, 0, 64, 42
1, 75880, Note_on_c, 0, 79, 35
1, 75920, Note_on_c, 0, 79, 0
1, 75920, Note_on_c, 0, 76, 35
1, 75960, Note_on_c, 0, 76, 0
1, 75960, Note_on_c, 0, 82, 0
1, 75960, Note_on_c, 0, 82, 42
1, 75960, Note_on_c, 0, 60, 39
1, 76000, Note_on_c, 0, 79, 35
1, 76040, Note_on_c, 0, 79, 0
1, 76040, Note_on_c, 0, 76, 35
1, 76080, Note_on_c, 0, 76, 0
1, 76080, Note_on_c, 0, 82, 0
1, 76080, Note_on_c, 0, 81, 41
1, 76080, Note_on_c, 0, 60, 0
1, 76080, Note_on_c, 0, 65, 38
1, 76120, Note_on_c, 0, 77, 35
1, 76160, Note_on_c, 0, 77, 0
1, 76160, Note_on_c, 0, 72, 35
1, 76200, Note_on_c, 0, 72, 0
1, 76200, Note_on_c, 0, 81, 0
1, 76200, Note_on_c, 0, 81, 41
1, 76200, Note_on_c, 0, 65, 0
1, 76200, Note_on_c, 0, 69, 38
1, 76240, Note_on_c, 0, 77, 35
1, 76280, Note_on_c, 0, 77, 0
1, 76280, Note_on_c, 0, 72, 35
1, 76320, Note_on_c, 0, 72, 0
1, 76320, Note_on_c, 0, 81, 0
1, 76320, Note_on_c, 0, 81, 35
1, 76320, Note_on_c, 0, 69, 0
1, 76320, Note_on_c, 0, 64, 0
1, 76320, Note_on_c, 0, 53, 45
1, 76320, Note_on_c, 0, 41, 45
1, 76360, Note_on_c, 0, 81, 0
1, 76360, Note_on_c, 0, 77, 35
1, 76400, Note_on_c, 0, 77, 0
1, 76400, Note_on_c, 0, 72, 35
1, 76400, Note_on_c, 0, 41, 0
1, 76400, Note_on_c, 0, 53, 0
1, 76440, Note_on_c, 0, 72, 0
1, 76440, Note_on_c, 0, 81, 35
1, 76440, Note_on_c, 0, 45, 45
1, 76440, Note_on_c, 0, 57, 45
1, 76480, Note_on_c, 0, 81, 0
1, 76480, Note_on_c, 0, 77, 35
1, 76520, Note_on_c, 0, 77, 0
1, 76520, Note_on_c, 0, 72, 35
1, 76520, Note_on_c, 0, 57, 0
1, 76520, Note_on_c, 0, 45, 0
1, 76560, Note_on_c, 0, 72, 0
1, 76560, Note_on_c, 0, 81, 35
1, 76560, Note_on_c, 0, 40, 45
1, 76560, Note_on_c, 0, 52, 45
1, 76600, Note_on_c, 0, 81, 0
1, 76600, Note_on_c, 0, 76, 35
1, 76640, Note_on_c, 0, 76, 0
1, 76640, Note_on_c, 0, 72, 35
1, 76640, Note_on_c, 0, 52, 0
1, 76640, Note_on_c, 0, 40, 0
1, 76680, Note_on_c, 0, 72, 0
1, 76680, Note_on_c, 0, 81, 35
1, 76680, Note_on_c, 0, 45, 45
1, 76680, Note_on_c, 0, 57, 45
1, 76720, Note_on_c, 0, 81, 0
1, 76720, Note_on_c, 0, 76, 35
1, 76760, Note_on_c, 0, 76, 0
1, 76760, Note_on_c, 0, 72, 35
1, 76760, Note_on_c, 0, 57, 0
1, 76760, Note_on_c, 0, 45, 0
1, 76800, Note_on_c, 0, 72, 0
1, 76800, Note_on_c, 0, 81, 35
1, 76800, Note_on_c, 0, 51, 46
1, 76800, Note_on_c, 0, 39, 46
1, 76840, Note_on_c, 0, 81, 0
1, 76840, Note_on_c, 0, 78, 36
1, 76880, Note_on_c, 0, 78, 0
1, 76880, Note_on_c, 0, 72, 36
1, 76920, Note_on_c, 0, 72, 0
1, 76920, Note_on_c, 0, 81, 37
1, 76920, Note_on_c, 0, 39, 0
1, 76920, Note_on_c, 0, 51, 0
1, 76920, Note_on_c, 0, 54, 47
1, 76920, Note_on_c, 0, 42, 47
1, 76960, Note_on_c, 0, 81, 0
1, 76960, Note_on_c, 0, 78, 37
1, 77000, Note_on_c, 0, 78, 0
1, 77000, Note_on_c, 0, 72, 38
1, 77040, Note_on_c, 0, 72, 0
1, 77040, Note_on_c, 0, 81, 38
1, 77040, Note_on_c, 0, 42, 0
1, 77040, Note_on_c, 0, 54, 0
1, 77040, Note_on_c, 0, 57, 48
1, 77040, Note_on_c, 0, 45, 48
1, 77080, Note_on_c, 0, 81, 0
1, 77080, Note_on_c, 0, 78, 39
1, 77120, Note_on_c, 0, 78, 0
1, 77120, Note_on_c, 0, 72, 39
1, 77160, Note_on_c, 0, 72, 0
1, 77160, Note_on_c, 0, 81, 40
1, 77160, Note_on_c, 0, 45, 0
1, 77160, Note_on_c, 0, 57, 0
1, 77160, Note_on_c, 0, 60, 49
1, 77160, Note_on_c, 0, 48, 49
1, 77200, Note_on_c, 0, 81, 0
1, 77200, Note_on_c, 0, 78, 40
1, 77240, Note_on_c, 0, 78, 0
1, 77240, Note_on_c, 0, 72, 41
1, 77280, Note_on_c, 0, 72, 0
1, 77280, Note_on_c, 0, 81, 41
1, 77280, Note_on_c, 0, 48, 0
1, 77280, Note_on_c, 0, 60, 0
1, 77280, Note_on_c, 0, 63, 50
1, 77280, Note_on_c, 0, 51, 50
1, 77320, Note_on_c, 0, 81, 0
1, 77320, Note_on_c, 0, 78, 42
1, 77360, Note_on_c, 0, 78, 0
1, 77360, Note_on_c, 0, 72, 42
1, 77400, Note_on_c, 0, 72, 0
1, 77400, Note_on_c, 0, 81, 43
1, 77400, Note_on_c, 0, 51, 0
1, 77400, Note_on_c, 0, 63, 0
1, 77400, Note_on_c, 0, 66, 51
1, 77400, Note_on_c, 0, 54, 51
1, 77440, Note_on_c, 0, 81, 0
1, 77440, Note_on_c, 0, 78, 43
1, 77480, Note_on_c, 0, 78, 0
1, 77480, Note_on_c, 0, 72, 44
1, 77520, Note_on_c, 0, 72, 0
1, 77520, Note_on_c, 0, 81, 44
1, 77520, Note_on_c, 0, 54, 0
1, 77520, Note_on_c, 0, 66, 0
1, 77520, Note_on_c, 0, 57, 52
1, 77520, Note_on_c, 0, 69, 52
1, 77560, Note_on_c, 0, 81, 0
1, 77560, Note_on_c, 0, 78, 44
1, 77600, Note_on_c, 0, 78, 0
1, 77600, Note_on_c, 0, 72, 45
1, 77640, Note_on_c, 0, 72, 0
1, 77640, Note_on_c, 0, 81, 45
1, 77640, Note_on_c, 0, 69, 0
1, 77640, Note_on_c, 0, 57, 0
1, 77640, Note_on_c, 0, 51, 53
1, 77640, Note_on_c, 0, 39, 53
1, 77680, Note_on_c, 0, 81, 0
1, 77680, Note_on_c, 0, 78, 46
1, 77720, Note_on_c, 0, 78, 0
1, 77720, Note_on_c, 0, 72, 46
1, 77760, Note_on_c, 0, 72, 0
1, 77760, Note_on_c, 0, 81, 47
1, 77760, Note_on_c, 0, 39, 0
1, 77760, Note_on_c, 0, 51, 0
1, 77760, Note_on_c, 0, 40, 43
1, 77760, Note_on_c, 0, 52, 43
1, 77800, Note_on_c, 0, 76, 35
1, 77840, Note_on_c, 0, 76, 0
1, 77840, Note_on_c, 0, 72, 35
1, 77880, Note_on_c, 0, 72, 0
1, 77880, Note_on_c, 0, 81, 0
1, 77880, Note_on_c, 0, 81, 47
1, 77920, Note_on_c, 0, 76, 35
1, 77960, Note_on_c, 0, 76, 0
1, 77960, Note_on_c, 0, 72, 35
1, 78000, Note_on_c, 0, 72, 0
1, 78000, Note_on_c, 0, 81, 0
1, 78000, Note_on_c, 0, 80, 47
1, 78040, Note_on_c, 0, 74, 35
1, 78080, Note_on_c, 0, 74, 0
1, 78080, Note_on_c, 0, 71, 35
1, 78120, Note_on_c, 0, 71, 0
1, 78120, Note_on_c, 0, 80, 0
1, 78120, Note_on_c, 0, 80, 46
1, 78160, Note_on_c, 0, 74, 35
1, 78200, Note_on_c, 0, 74, 0
1, 78200, Note_on_c, 0, 71, 35
1, 78240, Note_on_c, 0, 71, 0
1, 78240, Note_on_c, 0, 80, 0
1, 78240, Note_on_c, 0, 77, 46
1, 78280, Note_on_c, 0, 72, 35
1, 78320, Note_on_c, 0, 72, 0
1, 78320, Note_on_c, 0, 69, 35
1, 78360, Note_on_c, 0, 69, 0
1, 78360, Note_on_c, 0, 77, 0
1, 78360, Note_on_c, 0, 77, 45
1, 78400, Note_on_c, 0, 72, 35
1, 78440, Note_on_c, 0, 72, 0
1, 78440, Note_on_c, 0, 69, 35
1, 78480, Note_on_c, 0, 69, 0
1, 78480, Note_on_c, 0, 77, 0
1, 78480, Note_on_c, 0, 76, 45
1, 78520, Note_on_c, 0, 71, 35
1, 78560, Note_on_c, 0, 71, 0
1, 78560, Note_on_c, 0, 68, 35
1, 78600, Note_on_c, 0, 68, 0
1, 78600, Note_on_c, 0, 76, 0
1, 78600, Note_on_c, 0, 76, 44
1, 78640, Note_on_c, 0, 71, 35
1, 78680, Note_on_c, 0, 71, 0
1, 78680, Note_on_c, 0, 68, 35
1, 78720, Note_on_c, 0, 68, 0
1, 78720, Note_on_c, 0, 76, 0
1, 78720, Note_on_c, 0, 75, 44
1, 78760, Note_on_c, 0, 69, 35
1, 78800, Note_on_c, 0, 69, 0
1, 78800, Note_on_c, 0, 66, 35
1, 78840, Note_on_c, 0, 66, 0
1, 78840, Note_on_c, 0, 75, 0
1, 78840, Note_on_c, 0, 75, 44
1, 78880, Note_on_c, 0, 69, 35
1, 78920, Note_on_c, 0, 69, 0
1, 78920, Note_on_c, 0, 66, 35
1, 78960, Note_on_c, 0, 66, 0
1, 78960, Note_on_c, 0, 75, 0
1, 78960, Note_on_c, 0, 74, 43
1, 79000, Note_on_c, 0, 71, 35
1, 79040, Note_on_c, 0, 71, 0
1, 79040, Note_on_c, 0, 68, 35
1, 79080, Note_on_c, 0, 68, 0
1, 79080, Note_on_c, 0, 74, 0
1, 79080, Note_on_c, 0, 74, 43
1, 79120, Note_on_c, 0, 71, 35
1, 79160, Note_on_c, 0, 71, 0
1, 79160, Note_on_c, 0, 68, 35
1, 79200, Note_on_c, 0, 68, 0
1, 79200, Note_on_c, 0, 74, 0
1, 79200, Note_on_c, 0, 72, 42
1, 79200, Note_on_c, 0, 52, 0
1, 79200, Note_on_c, 0, 40, 0
1, 79200, Note_on_c, 0, 45, 39
1, 79200, Note_on_c, 0, 57, 39
1, 79240, Note_on_c, 0, 69, 35
1, 79280, Note_on_c, 0, 69, 0
1, 79280, Note_on_c, 0, 64, 35
1, 79320, Note_on_c, 0, 64, 0
1, 79320, Note_on_c, 0, 72, 0
1, 79320, Note_on_c, 0, 72, 42
1, 79360, Note_on_c, 0, 69, 35
1, 79400, Note_on_c, 0, 69, 0
1, 79400, Note_on_c, 0, 64, 35
1, 79440, Note_on_c, 0, 64, 0
1, 79440, Note_on_c, 0, 72, 0
1, 79440, Note_on_c, 0, 69, 41
1, 79440, Note_on_c, 0, 57, 0
1, 79440, Note_on_c, 0, 45, 0
1, 79440, Note_on_c, 0, 36, 39
1, 79440, Note_on_c, 0, 48, 39
1, 79480, Note_on_c, 0, 64, 35
1, 79520, Note_on_c, 0, 64, 0
1, 79520, Note_on_c, 0, 60, 35
1, 79560, Note_on_c, 0, 60, 0
1, 79560, Note_on_c, 0, 69, 0
1, 79560, Note_on_c, 0, 69, 41
1, 79600, Note_on_c, 0, 64, 35
1, 79640, Note_on_c, 0, 64, 0
1, 79640, Note_on_c, 0, 60, 35
1, 79680, Note_on_c, 0, 60, 0
1, 79680, Note_on_c, 0, 69, 0
1, 79680, Note_on_c, 0, 70, 41
1, 79680, Note_on_c, 0, 48, 0
1, 79680, Note_on_c, 0, 36, 0
1, 79680, Note_on_c, 0, 38, 39
1, 79680, Note_on_c, 0, 50, 39
1, 79720, Note_on_c, 0, 65, 35
1, 79760, Note_on_c, 0, 65, 0
1, 79760, Note_on_c, 0, 62, 35
1, 79800, Note_on_c, 0, 62, 0
1, 79800, Note_on_c, 0, 70, 0
1, 79800, Note_on_c, 0, 70, 40
1, 79840, Note_on_c, 0, 65, 35
1, 79880, Note_on_c, 0, 65, 0
1, 79880, Note_on_c, 0, 62, 35
1, 79920, Note_on_c, 0, 62, 0
1, 79920, Note_on_c, 0, 70, 0
1, 79920, Note_on_c, 0, 68, 40
1, 79920, Note_on_c, 0, 50, 0
1, 79920, Note_on_c, 0, 38, 0
1, 79920, Note_on_c, 0, 40, 39
1, 79920, Note_on_c, 0, 52, 39
1, 79960, Note_on_c, 0, 62, 35
1, 80000, Note_on_c, 0, 62, 0
1, 80000, Note_on_c, 0, 59, 35
1, 80040, Note_on_c, 0, 59, 0
1, 80040, Note_on_c, 0, 68, 0
1, 80040, Note_on_c, 0, 68, 39
1, 80080, Note_on_c, 0, 62, 35
1, 80120, Note_on_c, 0, 62, 0
1, 80120, Note_on_c, 0, 59, 35
1, 80160, Note_on_c, 0, 59, 0
1, 80160, Note_on_c, 0, 68, 0
1, 80160, Note_on_c, 0, 67, 39
1, 80160, Note_on_c, 0, 52, 0
1, 80160, Note_on_c, 0, 40, 0
1, 80160, Note_on_c, 0, 45, 36
1, 80200, Note_on_c, 0, 64, 35
1, 80240, Note_on_c, 0, 64, 0
1, 80240, Note_on_c, 0, 61, 35
1, 80280, Note_on_c, 0, 61, 0
1, 80280, Note_on_c, 0, 67, 0
1, 80280, Note_on_c, 0, 67, 38
1, 80280, Note_on_c, 0, 49, 37
1, 80320, Note_on_c, 0, 64, 35
1, 80360, Note_on_c, 0, 64, 0
1, 80360, Note_on_c, 0, 61, 35
1, 80400, Note_on_c, 0, 61, 0
1, 80400, Note_on_c, 0, 67, 0
1, 80400, Note_on_c, 0, 67, 38
1, 80400, Note_on_c, 0, 52, 37
1, 80440, Note_on_c, 0, 64, 35
1, 80480, Note_on_c, 0, 64, 0
1, 80480, Note_on_c, 0, 61, 35
1, 80520, Note_on_c, 0, 61, 0
1, 80520, Note_on_c, 0, 67, 0
1, 80520, Note_on_c, 0, 67, 38
1, 80520, Note_on_c, 0, 55, 38
1, 80560, Note_on_c, 0, 64, 35
1, 80600, Note_on_c, 0, 64, 0
1, 80600, Note_on_c, 0, 61, 35
1, 80640, Note_on_c, 0, 61, 0
1, 80640, Note_on_c, 0, 67, 0
1, 80640, Note_on_c, 0, 67, 35
1, 80640, Note_on_c, 0, 64, 35
1, 80640, Note_on_c, 0, 61, 35
1, 80640, Note_on_c, 0, 58, 35
1, 80640, Note_on_c, 0, 55, 0
1, 80880, Note_on_c, 0, 58, 0
1, 80880, Note_on_c, 0, 67, 0
1, 80880, Note_on_c, 0, 64, 0
1, 80880, Note_on_c, 0, 61, 0
1, 80880, Note_on_c, 0, 65, 37
1, 80880, Note_on_c, 0, 57, 37
1, 81000, Note_on_c, 0, 57, 0
1, 81000, Note_on_c, 0, 65, 0
1, 81000, Note_on_c, 0, 55, 37
1, 81000, Note_on_c, 0, 64, 37
1, 81120, Note_on_c, 0, 64, 0
1, 81120, Note_on_c, 0, 55, 0
1, 81120, Note_on_c, 0, 65, 37
1, 81120, Note_on_c, 0, 45, 0
1, 81120, Note_on_c, 0, 49, 0
1, 81120, Note_on_c, 0, 52, 0
1, 81120, Note_on_c, 0, 53, 32
1, 81120, Note_on_c, 0, 50, 32
1, 81160, Note_on_c, 0, 65, 0
1, 81160, Note_on_c, 0, 62, 37
1, 81200, Note_on_c, 0, 62, 0
1, 81200, Note_on_c, 0, 57, 37
1, 81240, Note_on_c, 0, 57, 0
1, 81240, Note_on_c, 0, 65, 37
1, 81280, Note_on_c, 0, 65, 0
1, 81280, Note_on_c, 0, 62, 37
1, 81320, Note_on_c, 0, 62, 0
1, 81320, Note_on_c, 0, 57, 37
1, 81360, Note_on_c, 0, 57, 0
1, 81360, Note_on_c, 0, 65, 37
1, 81400, Note_on_c, 0, 65, 0
1, 81400, Note_on_c, 0, 62, 37
1, 81440, Note_on_c, 0, 62, 0
1, 81440, Note_on_c, 0, 57, 37
1, 81480, Note_on_c, 0, 57, 0
1, 81480, Note_on_c, 0, 65, 37
1, 81480, Note_on_c, 0, 50, 0
1, 81480, Note_on_c, 0, 53, 0
1, 81480, Note_on_c, 0, 48, 32
1, 81480, Note_on_c, 0, 52, 32
1, 81520, Note_on_c, 0, 65, 0
1, 81520, Note_on_c, 0, 62, 37
1, 81560, Note_on_c, 0, 62, 0
1, 81560, Note_on_c, 0, 57, 37
1, 81600, Note_on_c, 0, 57, 0
1, 81600, Note_on_c, 0, 65, 37
1, 81600, Note_on_c, 0, 52, 0
1, 81600, Note_on_c, 0, 48, 0
1, 81600, Note_on_c, 0, 47, 32
1, 81600, Note_on_c, 0, 50, 32
1, 81640, Note_on_c, 0, 65, 0
1, 81640, Note_on_c, 0, 62, 37
1, 81680, Note_on_c, 0, 62, 0
1, 81680, Note_on_c, 0, 55, 37
1, 81720, Note_on_c, 0, 55, 0
1, 81720, Note_on_c, 0, 65, 37
1, 81760, Note_on_c, 0, 65, 0
1, 81760, Note_on_c, 0, 62, 37
1, 81800, Note_on_c, 0, 62, 0
1, 81800, Note_on_c, 0, 55, 37
1, 81840, Note_on_c, 0, 55, 0
1, 81840, Note_on_c, 0, 65, 37
1, 81880, Note_on_c, 0, 65, 0
1, 81880, Note_on_c, 0, 62, 37
1, 81920, Note_on_c, 0, 62, 0
1, 81920, Note_on_c, 0, 55, 37
1, 81960, Note_on_c, 0, 55, 0
1, 81960, Note_on_c, 0, 65, 37
1, 81960, Note_on_c, 0, 50, 0
1, 81960, Note_on_c, 0, 47, 0
1, 81960, Note_on_c, 0, 48, 32
1, 81960, Note_on_c, 0, 45, 32
1, 82000, Note_on_c, 0, 65, 0
1, 82000, Note_on_c, 0, 62, 37
1, 82040, Note_on_c, 0, 62, 0
1, 82040, Note_on_c, 0, 55, 37
1, 82080, Note_on_c, 0, 55, 0
1, 82080, Note_on_c, 0, 65, 37
1, 82080, Note_on_c, 0, 62, 37
1, 82080, Note_on_c, 0, 55, 37
1, 82080, Note_on_c, 0, 45, 0
1, 82080, Note_on_c, 0, 48, 0
1, 82080, Note_on_c, 0, 43, 32
1, 82080, Note_on_c, 0, 47, 32
1, 82440, Note_on_c, 0, 55, 0
1, 82440, Note_on_c, 0, 62, 0
1, 82440, Note_on_c, 0, 65, 0
1, 82440, Note_on_c, 0, 60, 39
1, 82440, Note_on_c, 0, 47, 0
1, 82440, Note_on_c, 0, 43, 0
1, 82530, Note_on_c, 0, 60, 0
1, 82530, Note_on_c, 0, 64, 39
1, 82560, Note_on_c, 0, 64, 0
1, 82560, Note_on_c, 0, 67, 39
1, 82560, Note_on_c, 0, 52, 37
1, 82560, Note_on_c, 0, 48, 37
1, 82590, Note_on_c, 0, 67, 0
1, 82680, Note_on_c, 0, 67, 39
1, 82680, Note_on_c, 0, 48, 0
1, 82680, Note_on_c, 0, 52, 0
1, 82710, Note_on_c, 0, 67, 0
1, 82800, Note_on_c, 0, 67, 39
1, 82830, Note_on_c, 0, 67, 0
1, 82920, Note_on_c, 0, 71, 39
1, 82930, Note_on_c, 0, 72, 39
1, 82950, Note_on_c, 0, 71, 0
1, 83040, Note_on_c, 0, 72, 0
1, 83040, Note_on_c, 0, 67, 39
1, 83040, Note_on_c, 0, 52, 37
1, 83040, Note_on_c, 0, 48, 37
1, 83070, Note_on_c, 0, 67, 0
1, 83160, Note_on_c, 0, 67, 39
1, 83160, Note_on_c, 0, 48, 0
1, 83160, Note_on_c, 0, 52, 0
1, 83190, Note_on_c, 0, 67, 0
1, 83280, Note_on_c, 0, 67, 39
1, 83310, Note_on_c, 0, 67, 0
1, 83400, Note_on_c, 0, 64, 39
1, 83490, Note_on_c, 0, 64, 0
1, 83490, Note_on_c, 0, 60, 39
1, 83520, Note_on_c, 0, 60, 0
1, 83520, Note_on_c, 0, 59, 39
1, 83520, Note_on_c, 0, 50, 35
1, 83520, Note_on_c, 0, 53, 35
1, 83520, Note_on_c, 0, 43, 35
1, 83550, Note_on_c, 0, 59, 0
1, 83580, Note_on_c, 0, 43, 0
1, 83580, Note_on_c, 0, 53, 0
1, 83580, Note_on_c, 0, 50, 0
1, 83640, Note_on_c, 0, 59, 38
1, 83640, Note_on_c, 0, 50, 34
1, 83640, Note_on_c, 0, 53, 34
1, 83640, Note_on_c, 0, 43, 34
1, 83670, Note_on_c, 0, 59, 0
1, 83700, Note_on_c, 0, 43, 0
1, 83700, Note_on_c, 0, 53, 0
1, 83700, Note_on_c, 0, 50, 0
1, 83760, Note_on_c, 0, 60, 36
1, 83760, Note_on_c, 0, 48, 33
1, 83760, Note_on_c, 0, 52, 33
1, 83760, Note_on_c, 0, 43, 33
1, 83790, Note_on_c, 0, 60, 0
1, 83820, Note_on_c, 0, 43, 0
1, 83820, Note_on_c, 0, 52, 0
1, 83820, Note_on_c, 0, 48, 0
1, 83880, Note_on_c, 0, 60, 35
1, 83880, Note_on_c, 0, 48, 31
1, 83880, Note_on_c, 0, 52, 31
1, 83880, Note_on_c, 0, 43, 31
1, 83910, Note_on_c, 0, 60, 0
1, 83940, Note_on_c, 0, 43, 0
1, 83940, Note_on_c, 0, 52, 0
1, 83940, Note_on_c, 0, 48, 0
1, 84000, Note_on_c, 0, 62, 34
1, 84000, Note_on_c, 0, 43, 30
1, 84000, Note_on_c, 0, 50, 30
1, 84000, Note_on_c, 0, 47, 30
1, 84120, Note_on_c, 0, 62, 0
1, 84120, Note_on_c, 0, 47, 0
1, 84120, Note_on_c, 0, 50, 0
1, 84120, Note_on_c, 0, 43, 0
1, 84360, Note_on_c, 0, 55, 33
1, 84450, Note_on_c, 0, 55, 0
1, 84450, Note_on_c, 0, 62, 33
1, 84480, Note_on_c, 0, 62, 0
1, 84480, Note_on_c, 0, 65, 33
1, 84480, Note_on_c, 0, 55, 30
1, 84480, Note_on_c, 0, 47, 30
1, 84510, Note_on_c, 0, 65, 0
1, 84600, Note_on_c, 0, 65, 33
1, 84600, Note_on_c, 0, 47, 0
1, 84600, Note_on_c, 0, 55, 0
1, 84690, Note_on_c, 0, 65, 0
1, 84690, Note_on_c, 0, 67, 33
1, 84720, Note_on_c, 0, 67, 0
1, 84720, Note_on_c, 0, 64, 33
1, 84720, Note_on_c, 0, 48, 30
1, 84720, Note_on_c, 0, 55, 30
1, 84750, Note_on_c, 0, 64, 0
1, 84840, Note_on_c, 0, 64, 33
1, 84840, Note_on_c, 0, 55, 0
1, 84840, Note_on_c, 0, 48, 0
1, 84930, Note_on_c, 0, 64, 0
1, 84930, Note_on_c, 0, 65, 33
1, 84960, Note_on_c, 0, 65, 0
1, 84960, Note_on_c, 0, 62, 33
1, 84960, Note_on_c, 0, 53, 30
1, 84960, Note_on_c, 0, 55, 30
1, 84990, Note_on_c, 0, 62, 0
1, 85080, Note_on_c, 0, 62, 33
1, 85080, Note_on_c, 0, 55, 0
1, 85080, Note_on_c, 0, 53, 0
1, 85170, Note_on_c, 0, 62, 0
1, 85170, Note_on_c, 0, 64, 33
1, 85200, Note_on_c, 0, 64, 0
1, 85200, Note_on_c, 0, 60, 33
1, 85200, Note_on_c, 0, 52, 30
1, 85200, Note_on_c, 0, 55, 30
1, 85230, Note_on_c, 0, 60, 0
1, 85320, Note_on_c, 0, 60, 33
1, 85320, Note_on_c, 0, 55, 0
1, 85320, Note_on_c, 0, 52, 0
1, 85350, Note_on_c, 0, 60, 0
1, 85440, Note_on_c, 0, 62, 33
1, 85440, Note_on_c, 0, 53, 31
1, 85440, Note_on_c, 0, 41, 31
1, 85470, Note_on_c, 0, 62, 0
1, 85500, Note_on_c, 0, 41, 0
1, 85500, Note_on_c, 0, 53, 0
1, 85560, Note_on_c, 0, 62, 33
1, 85560, Note_on_c, 0, 41, 31
1, 85560, Note_on_c, 0, 53, 31
1, 85590, Note_on_c, 0, 62, 0
1, 85620, Note_on_c, 0, 53, 0
1, 85620, Note_on_c, 0, 41, 0
1, 85680, Note_on_c, 0, 59, 33
1, 85680, Note_on_c, 0, 43, 31
1, 85680, Note_on_c, 0, 50, 31
1, 85710, Note_on_c, 0, 59, 0
1, 85740, Note_on_c, 0, 50, 0
1, 85740, Note_on_c, 0, 43, 0
1, 85800, Note_on_c, 0, 59, 33
1, 85800, Note_on_c, 0, 43, 31
1, 85800, Note_on_c, 0, 50, 31
1, 85830, Note_on_c, 0, 59, 0
1, 85860, Note_on_c, 0, 50, 0
1, 85860, Note_on_c, 0, 43, 0
1, 85920, Note_on_c, 0, 60, 48
1, 85960, Note_on_c, 0, 60, 0
1, 85960, Note_on_c, 0, 63, 45
1, 86000, Note_on_c, 0, 63, 0
1, 86000, Note_on_c, 0, 67, 42
1, 86040, Note_on_c, 0, 67, 0
1, 86040, Note_on_c, 0, 60, 39
1, 86080, Note_on_c, 0, 60, 0
1, 86080, Note_on_c, 0, 63, 39
1, 86120, Note_on_c, 0, 63, 0
1, 86120, Note_on_c, 0, 67, 39
1, 86160, Note_on_c, 0, 67, 0
1, 86160, Note_on_c, 0, 60, 39
1, 86200, Note_on_c, 0, 60, 0
1, 86200, Note_on_c, 0, 63, 39
1, 86240, Note_on_c, 0, 63, 0
1, 86240, Note_on_c, 0, 67, 39
1, 86280, Note_on_c, 0, 72, 43
1, 86280, Note_on_c, 0, 67, 0
1, 86280, Note_on_c, 0, 60, 39
1, 86310, Note_on_c, 0, 72, 0
1, 86310, Note_on_c, 0, 74, 44
1, 86320, Note_on_c, 0, 60, 0
1, 86320, Note_on_c, 0, 63, 39
1, 86340, Note_on_c, 0, 74, 0
1, 86340, Note_on_c, 0, 75, 46
1, 86360, Note_on_c, 0, 63, 0
1, 86360, Note_on_c, 0, 67, 39
1, 86370, Note_on_c, 0, 75, 0
1, 86370, Note_on_c, 0, 77, 48
1, 86400, Note_on_c, 0, 77, 0
1, 86400, Note_on_c, 0, 79, 50
1, 86400, Note_on_c, 0, 67, 0
1, 86400, Note_on_c, 0, 60, 39
1, 86430, Note_on_c, 0, 79, 0
1, 86440, Note_on_c, 0, 60, 0
1, 86440, Note_on_c, 0, 63, 39
1, 86480, Note_on_c, 0, 63, 0
1, 86480, Note_on_c, 0, 67, 39
1, 86520, Note_on_c, 0, 79, 50
1, 86520, Note_on_c, 0, 67, 0
1, 86520, Note_on_c, 0, 60, 39
1, 86550, Note_on_c, 0, 79, 0
1, 86560, Note_on_c, 0, 60, 0
1, 86560, Note_on_c, 0, 63, 39
1, 86600, Note_on_c, 0, 63, 0
1, 86600, Note_on_c, 0, 67, 39
1, 86640, Note_on_c, 0, 79, 50
1, 86640, Note_on_c, 0, 67, 0
1, 86640, Note_on_c, 0, 60, 39
1, 86670, Note_on_c, 0, 79, 0
1, 86680, Note_on_c, 0, 60, 0
1, 86680, Note_on_c, 0, 63, 39
1, 86720, Note_on_c, 0, 63, 0
1, 86720, Note_on_c, 0, 67, 39
1, 86760, Note_on_c, 0, 83, 50
1, 86760, Note_on_c, 0, 67, 0
1, 86760, Note_on_c, 0, 60, 39
1, 86770, Note_on_c, 0, 84, 50
1, 86790, Note_on_c, 0, 83, 0
1, 86800, Note_on_c, 0, 60, 0
1, 86800, Note_on_c, 0, 63, 39
1, 86840, Note_on_c, 0, 63, 0
1, 86840, Note_on_c, 0, 67, 39
1, 86880, Note_on_c, 0, 84, 0
1, 86880, Note_on_c, 0, 79, 50
1, 86880, Note_on_c, 0, 67, 0
1, 86880, Note_on_c, 0, 60, 39
1, 86910, Note_on_c, 0, 79, 0
1, 86920, Note_on_c, 0, 60, 0
1, 86920, Note_on_c, 0, 63, 39
1, 86960, Note_on_c, 0, 63, 0
1, 86960, Note_on_c, 0, 67, 39
1, 87000, Note_on_c, 0, 79, 45
1, 87000, Note_on_c, 0, 67, 0
1, 87000, Note_on_c, 0, 60, 39
1, 87030, Note_on_c, 0, 79, 0
1, 87040, Note_on_c, 0, 60, 0
1, 87040, Note_on_c, 0, 63, 39
1, 87080, Note_on_c, 0, 63, 0
1, 87080, Note_on_c, 0, 67, 39
1, 87120, Note_on_c, 0, 79, 45
1, 87120, Note_on_c, 0, 67, 0
1, 87120, Note_on_c, 0, 60, 39
1, 87150, Note_on_c, 0, 79, 0
1, 87160, Note_on_c, 0, 60, 0
1, 87160, Note_on_c, 0, 63, 39
1, 87200, Note_on_c, 0, 63, 0
1, 87200, Note_on_c, 0, 67, 39
1, 87240, Note_on_c, 0, 72, 43
1, 87240, Note_on_c, 0, 67, 0
1, 87240, Note_on_c, 0, 60, 39
1, 87270, Note_on_c, 0, 72, 0
1, 87270, Note_on_c, 0, 74, 44
1, 87280, Note_on_c, 0, 60, 0
1, 87280, Note_on_c, 0, 63, 39
1, 87300, Note_on_c, 0, 74, 0
1, 87300, Note_on_c, 0, 75, 46
1, 87320, Note_on_c, 0, 63, 0
1, 87320, Note_on_c, 0, 67, 39
1, 87330, Note_on_c, 0, 75, 0
1, 87330, Note_on_c, 0, 77, 48
1, 87360, Note_on_c, 0, 77, 0
1, 87360, Note_on_c, 0, 79, 50
1, 87360, Note_on_c, 0, 67, 0
1, 87360, Note_on_c, 0, 58, 46
1, 87390, Note_on_c, 0, 79, 0
1, 87400, Note_on_c, 0, 64, 42
1, 87440, Note_on_c, 0, 64, 0
1, 87440, Note_on_c, 0, 67, 38
1, 87480, Note_on_c, 0, 79, 50
1, 87480, Note_on_c, 0, 67, 0
1, 87480, Note_on_c, 0, 58, 0
1, 87480, Note_on_c, 0, 58, 39
1, 87510, Note_on_c, 0, 79, 0
1, 87520, Note_on_c, 0, 58, 0
1, 87520, Note_on_c, 0, 64, 39
1, 87560, Note_on_c, 0, 64, 0
1, 87560, Note_on_c, 0, 67, 39
1, 87600, Note_on_c, 0, 79, 50
1, 87600, Note_on_c, 0, 67, 0
1, 87600, Note_on_c, 0, 58, 39
1, 87630, Note_on_c, 0, 79, 0
1, 87640, Note_on_c, 0, 58, 0
1, 87640, Note_on_c, 0, 64, 39
1, 87680, Note_on_c, 0, 64, 0
1, 87680, Note_on_c, 0, 67, 39
1, 87720, Note_on_c, 0, 83, 50
1, 87720, Note_on_c, 0, 67, 0
1, 87720, Note_on_c, 0, 58, 39
1, 87730, Note_on_c, 0, 84, 50
1, 87750, Note_on_c, 0, 83, 0
1, 87760, Note_on_c, 0, 58, 0
1, 87760, Note_on_c, 0, 64, 39
1, 87800, Note_on_c, 0, 64, 0
1, 87800, Note_on_c, 0, 67, 39
1, 87840, Note_on_c, 0, 84, 0
1, 87840, Note_on_c, 0, 79, 50
1, 87840, Note_on_c, 0, 67, 0
1, 87840, Note_on_c, 0, 58, 39
1, 87870, Note_on_c, 0, 79, 0
1, 87880, Note_on_c, 0, 58, 0
1, 87880, Note_on_c, 0, 64, 39
1, 87920, Note_on_c, 0, 64, 0
1, 87960, Note_on_c, 0, 79, 45
1, 87960, Note_on_c, 0, 67, 39
1, 87960, Note_on_c, 0, 58, 39
1, 87990, Note_on_c, 0, 79, 0
1, 88000, Note_on_c, 0, 58, 0
1, 88000, Note_on_c, 0, 67, 0
1, 88000, Note_on_c, 0, 64, 39
1, 88040, Note_on_c, 0, 64, 0
1, 88040, Note_on_c, 0, 67, 39
1, 88080, Note_on_c, 0, 79, 45
1, 88080, Note_on_c, 0, 67, 0
1, 88080, Note_on_c, 0, 58, 39
1, 88110, Note_on_c, 0, 79, 0
1, 88120, Note_on_c, 0, 58, 0
1, 88120, Note_on_c, 0, 64, 39
1, 88160, Note_on_c, 0, 64, 0
1, 88160, Note_on_c, 0, 67, 39
1, 88200, Note_on_c, 0, 73, 43
1, 88200, Note_on_c, 0, 67, 0
1, 88200, Note_on_c, 0, 58, 39
1, 88230, Note_on_c, 0, 73, 0
1, 88230, Note_on_c, 0, 74, 45
1, 88240, Note_on_c, 0, 58, 0
1, 88240, Note_on_c, 0, 64, 39
1, 88260, Note_on_c, 0, 74, 0
1, 88260, Note_on_c, 0, 76, 47
1, 88280, Note_on_c, 0, 64, 0
1, 88280, Note_on_c, 0, 67, 39
1, 88290, Note_on_c, 0, 76, 0
1, 88290, Note_on_c, 0, 77, 49
1, 88320, Note_on_c, 0, 77, 0
1, 88320, Note_on_c, 0, 79, 41
1, 88320, Note_on_c, 0, 67, 0
1, 88320, Note_on_c, 0, 57, 44
1, 88350, Note_on_c, 0, 79, 0
1, 88360, Note_on_c, 0, 64, 41
1, 88400, Note_on_c, 0, 64, 0
1, 88400, Note_on_c, 0, 67, 38
1, 88440, Note_on_c, 0, 79, 41
1, 88440, Note_on_c, 0, 67, 0
1, 88440, Note_on_c, 0, 57, 0
1, 88440, Note_on_c, 0, 57, 39
1, 88470, Note_on_c, 0, 79, 0
1, 88480, Note_on_c, 0, 57, 0
1, 88480, Note_on_c, 0, 64, 39
1, 88520, Note_on_c, 0, 64, 0
1, 88520, Note_on_c, 0, 67, 39
1, 88560, Note_on_c, 0, 79, 41
1, 88560, Note_on_c, 0, 67, 0
1, 88560, Note_on_c, 0, 57, 39
1, 88590, Note_on_c, 0, 79, 0
1, 88600, Note_on_c, 0, 57, 0
1, 88600, Note_on_c, 0, 64, 39
1, 88640, Note_on_c, 0, 64, 0
1, 88640, Note_on_c, 0, 67, 39
1, 88680, Note_on_c, 0, 79, 44
1, 88680, Note_on_c, 0, 67, 0
1, 88680, Note_on_c, 0, 57, 39
1, 88720, Note_on_c, 0, 79, 0
1, 88720, Note_on_c, 0, 85, 44
1, 88720, Note_on_c, 0, 57, 0
1, 88720, Note_on_c, 0, 64, 39
1, 88720, Note_on_c, 0, 67, 39
1, 88760, Note_on_c, 0, 85, 0
1, 88760, Note_on_c, 0, 88, 44
1, 88760, Note_on_c, 0, 67, 0
1, 88760, Note_on_c, 0, 64, 0
1, 88800, Note_on_c, 0, 88, 0
1, 88800, Note_on_c, 0, 77, 44
1, 88800, Note_on_c, 0, 57, 39
1, 88830, Note_on_c, 0, 77, 0
1, 88840, Note_on_c, 0, 57, 0
1, 88840, Note_on_c, 0, 62, 39
1, 88880, Note_on_c, 0, 62, 0
1, 88880, Note_on_c, 0, 65, 39
1, 88920, Note_on_c, 0, 77, 43
1, 88920, Note_on_c, 0, 65, 0
1, 88920, Note_on_c, 0, 57, 39
1, 88950, Note_on_c, 0, 77, 0
1, 88960, Note_on_c, 0, 57, 0
1, 88960, Note_on_c, 0, 62, 39
1, 89000, Note_on_c, 0, 62, 0
1, 89000, Note_on_c, 0, 65, 39
1, 89040, Note_on_c, 0, 77, 43
1, 89040, Note_on_c, 0, 65, 0
1, 89040, Note_on_c, 0, 57, 39
1, 89070, Note_on_c, 0, 77, 0
1, 89080, Note_on_c, 0, 57, 0
1, 89080, Note_on_c, 0, 62, 39
1, 89120, Note_on_c, 0, 62, 0
1, 89120, Note_on_c, 0, 65, 39
1, 89160, Note_on_c, 0, 77, 44
1, 89160, Note_on_c, 0, 65, 0
1, 89160, Note_on_c, 0, 57, 39
1, 89200, Note_on_c, 0, 77, 0
1, 89200, Note_on_c, 0, 81, 44
1, 89200, Note_on_c, 0, 57, 0
1, 89200, Note_on_c, 0, 62, 39
1, 89240, Note_on_c, 0, 81, 0
1, 89240, Note_on_c, 0, 86, 44
1, 89240, Note_on_c, 0, 62, 0
1, 89240, Note_on_c, 0, 65, 39
1, 89280, Note_on_c, 0, 86, 0
1, 89280, Note_on_c, 0, 77, 44
1, 89280, Note_on_c, 0, 65, 0
1, 89280, Note_on_c, 0, 55, 39
1, 89310, Note_on_c, 0, 77, 0
1, 89320, Note_on_c, 0, 55, 0
1, 89320, Note_on_c, 0, 62, 39
1, 89360, Note_on_c, 0, 62, 0
1, 89360, Note_on_c, 0, 65, 39
1, 89400, Note_on_c, 0, 77, 41
1, 89400, Note_on_c, 0, 65, 0
1, 89400, Note_on_c, 0, 55, 39
1, 89440, Note_on_c, 0, 55, 0
1, 89440, Note_on_c, 0, 62, 39
1, 89480, Note_on_c, 0, 62, 0
1, 89480, Note_on_c, 0, 65, 39
1, 89490, Note_on_c, 0, 77, 0
1, 89490, Note_on_c, 0, 79, 40
1, 89520, Note_on_c, 0, 79, 0
1, 89520, Note_on_c, 0, 76, 40
1, 89520, Note_on_c, 0, 65, 0
1, 89520, Note_on_c, 0, 55, 39
1, 89550, Note_on_c, 0, 76, 0
1, 89560, Note_on_c, 0, 55, 0
1, 89560, Note_on_c, 0, 60, 39
1, 89600, Note_on_c, 0, 60, 0
1, 89600, Note_on_c, 0, 64, 39
1, 89640, Note_on_c, 0, 76, 39
1, 89640, Note_on_c, 0, 64, 0
1, 89640, Note_on_c, 0, 55, 39
1, 89680, Note_on_c, 0, 55, 0
1, 89680, Note_on_c, 0, 60, 39
1, 89720, Note_on_c, 0, 60, 0
1, 89720, Note_on_c, 0, 64, 39
1, 89730, Note_on_c, 0, 76, 0
1, 89730, Note_on_c, 0, 77, 38
1, 89760, Note_on_c, 0, 77, 0
1, 89760, Note_on_c, 0, 74, 38
1, 89760, Note_on_c, 0, 64, 0
1, 89760, Note_on_c, 0, 55, 39
1, 89790, Note_on_c, 0, 74, 0
1, 89800, Note_on_c, 0, 55, 0
1, 89800, Note_on_c, 0, 59, 39
1, 89840, Note_on_c, 0, 59, 0
1, 89840, Note_on_c, 0, 62, 39
1, 89880, Note_on_c, 0, 74, 37
1, 89880, Note_on_c, 0, 62, 0
1, 89880, Note_on_c, 0, 55, 39
1, 89920, Note_on_c, 0, 55, 0
1, 89920, Note_on_c, 0, 59, 39
1, 89960, Note_on_c, 0, 59, 0
1, 89960, Note_on_c, 0, 62, 39
1, 89970, Note_on_c, 0, 74, 0
1, 89970, Note_on_c, 0, 76, 37
1, 90000, Note_on_c, 0, 76, 0
1, 90000, Note_on_c, 0, 72, 37
1, 90000, Note_on_c, 0, 62, 0
1, 90000, Note_on_c, 0, 55, 39
1, 90030, Note_on_c, 0, 72, 0
1, 90040, Note_on_c, 0, 55, 0
1, 90040, Note_on_c, 0, 60, 39
1, 90080, Note_on_c, 0, 60, 0
1, 90080, Note_on_c, 0, 64, 39
1, 90120, Note_on_c, 0, 72, 37
1, 90120, Note_on_c, 0, 64, 0
1, 90120, Note_on_c, 0, 55, 39
1, 90160, Note_on_c, 0, 72, 0
1, 90160, Note_on_c, 0, 76, 40
1, 90160, Note_on_c, 0, 55, 0
1, 90160, Note_on_c, 0, 60, 39
1, 90200, Note_on_c, 0, 76, 0
1, 90200, Note_on_c, 0, 79, 43
1, 90200, Note_on_c, 0, 60, 0
1, 90200, Note_on_c, 0, 64, 39
1, 90240, Note_on_c, 0, 79, 0
1, 90240, Note_on_c, 0, 77, 47
1, 90240, Note_on_c, 0, 64, 0
1, 90240, Note_on_c, 0, 55, 39
1, 90270, Note_on_c, 0, 77, 0
1, 90280, Note_on_c, 0, 55, 0
1, 90280, Note_on_c, 0, 62, 39
1, 90320, Note_on_c, 0, 62, 0
1, 90320, Note_on_c, 0, 65, 39
1, 90360, Note_on_c, 0, 77, 47
1, 90360, Note_on_c, 0, 65, 0
1, 90360, Note_on_c, 0, 55, 39
1, 90380, Note_on_c, 0, 77, 0
1, 90380, Note_on_c, 0, 79, 46
1, 90400, Note_on_c, 0, 79, 0
1, 90400, Note_on_c, 0, 77, 46
1, 90400, Note_on_c, 0, 55, 0
1, 90400, Note_on_c, 0, 62, 39
1, 90420, Note_on_c, 0, 77, 0
1, 90420, Note_on_c, 0, 76, 46
1, 90440, Note_on_c, 0, 76, 0
1, 90440, Note_on_c, 0, 77, 46
1, 90440, Note_on_c, 0, 62, 0
1, 90440, Note_on_c, 0, 65, 39
1, 90460, Note_on_c, 0, 77, 0
1, 90460, Note_on_c, 0, 79, 46
1, 90480, Note_on_c, 0, 79, 0
1, 90480, Note_on_c, 0, 76, 46
1, 90480, Note_on_c, 0, 65, 0
1, 90480, Note_on_c, 0, 55, 39
1, 90510, Note_on_c, 0, 76, 0
1, 90520, Note_on_c, 0, 55, 0
1, 90520, Note_on_c, 0, 60, 39
1, 90560, Note_on_c, 0, 60, 0
1, 90560, Note_on_c, 0, 64, 39
1, 90600, Note_on_c, 0, 76, 45
1, 90600, Note_on_c, 0, 64, 0
1, 90600, Note_on_c, 0, 55, 39
1, 90620, Note_on_c, 0, 76, 0
1, 90620, Note_on_c, 0, 77, 44
1, 90640, Note_on_c, 0, 77, 0
1, 90640, Note_on_c, 0, 76, 44
1, 90640, Note_on_c, 0, 55, 0
1, 90640, Note_on_c, 0, 60, 39
1, 90660, Note_on_c, 0, 76, 0
1, 90660, Note_on_c, 0, 74, 44
1, 90680, Note_on_c, 0, 74, 0
1, 90680, Note_on_c, 0, 76, 44
1, 90680, Note_on_c, 0, 60, 0
1, 90680, Note_on_c, 0, 64, 39
1, 90700, Note_on_c, 0, 76, 0
1, 90700, Note_on_c, 0, 77, 44
1, 90720, Note_on_c, 0, 77, 0
1, 90720, Note_on_c, 0, 74, 44
1, 90720, Note_on_c, 0, 64, 0
1, 90720, Note_on_c, 0, 55, 39
1, 90750, Note_on_c, 0, 74, 0
1, 90760, Note_on_c, 0, 55, 0
1, 90760, Note_on_c, 0, 59, 39
1, 90800, Note_on_c, 0, 59, 0
1, 90800, Note_on_c, 0, 62, 39
1, 90840, Note_on_c, 0, 74, 43
1, 90840, Note_on_c, 0, 62, 0
1, 90840, Note_on_c, 0, 55, 39
1, 90860, Note_on_c, 0, 74, 0
1, 90860, Note_on_c, 0, 76, 42
1, 90880, Note_on_c, 0, 76, 0
1, 90880, Note_on_c, 0, 74, 42
1, 90880, Note_on_c, 0, 55, 0
1, 90880, Note_on_c, 0, 59, 39
1, 90900, Note_on_c, 0, 74, 0
1, 90900, Note_on_c, 0, 72, 42
1, 90920, Note_on_c, 0, 72, 0
1, 90920, Note_on_c, 0, 74, 42
1, 90920, Note_on_c, 0, 59, 0
1, 90920, Note_on_c, 0, 62, 39
1, 90940, Note_on_c, 0, 74, 0
1, 90940, Note_on_c, 0, 76, 42
1, 90960, Note_on_c, 0, 76, 0
1, 90960, Note_on_c, 0, 72, 42
1, 90960, Note_on_c, 0, 62, 0
1, 90960, Note_on_c, 0, 55, 39
1, 90990, Note_on_c, 0, 72, 0
1, 91000, Note_on_c, 0, 55, 0
1, 91000, Note_on_c, 0, 60, 39
1, 91040, Note_on_c, 0, 60, 0
1, 91040, Note_on_c, 0, 64, 39
1, 91080, Note_on_c, 0, 72, 41
1, 91080, Note_on_c, 0, 64, 0
1, 91080, Note_on_c, 0, 55, 39
1, 91100, Note_on_c, 0, 72, 0
1, 91100, Note_on_c, 0, 74, 40
1, 91120, Note_on_c, 0, 74, 0
1, 91120, Note_on_c, 0, 72, 40
1, 91120, Note_on_c, 0, 55, 0
1, 91120, Note_on_c, 0, 60, 39
1, 91140, Note_on_c, 0, 72, 0
1, 91140, Note_on_c, 0, 71, 40
1, 91160, Note_on_c, 0, 71, 0
1, 91160, Note_on_c, 0, 72, 40
1, 91160, Note_on_c, 0, 60, 0
1, 91160, Note_on_c, 0, 64, 39
1, 91180, Note_on_c, 0, 72, 0
1, 91180, Note_on_c, 0, 74, 40
1, 91200, Note_on_c, 0, 74, 0
1, 91200, Note_on_c, 0, 71, 40
1, 91200, Note_on_c, 0, 64, 0
1, 91200, Note_on_c, 0, 55, 39
1, 91320, Note_on_c, 0, 71, 0
1, 91320, Note_on_c, 0, 55, 0
1, 91410, Note_on_c, 0, 67, 49
1, 91410, Note_on_c, 0, 55, 49
1, 91440, Note_on_c, 0, 67, 0
1, 91440, Note_on_c, 0, 71, 49
1, 91440, Note_on_c, 0, 55, 0
1, 91440, Note_on_c, 0, 59, 49
1, 91530, Note_on_c, 0, 71, 0
1, 91530, Note_on_c, 0, 67, 49
1, 91530, Note_on_c, 0, 59, 0
1, 91530, Note_on_c, 0, 55, 49
1, 91560, Note_on_c, 0, 67, 0
1, 91560, Note_on_c, 0, 74, 49
1, 91560, Note_on_c, 0, 55, 0
1, 91560, Note_on_c, 0, 62, 49
1, 91650, Note_on_c, 0, 74, 0
1, 91650, Note_on_c, 0, 71, 49
1, 91650, Note_on_c, 0, 62, 0
1, 91650, Note_on_c, 0, 59, 49
1, 91680, Note_on_c, 0, 71, 0
1, 91680, Note_on_c, 0, 79, 49
1, 91680, Note_on_c, 0, 59, 0
1, 91680, Note_on_c, 0, 67, 49
1, 91800, Note_on_c, 0, 79, 0
1, 91800, Note_on_c, 0, 67, 0
1, 91890, Note_on_c, 0, 55, 49
1, 91890, Note_on_c, 0, 43, 49
1, 91920, Note_on_c, 0, 59, 49
1, 91920, Note_on_c, 0, 47, 49
1, 91930, Note_on_c, 0, 55, 0
1, 91930, Note_on_c, 0, 43, 0
1, 91960, Note_on_c, 0, 59, 0
1, 91960, Note_on_c, 0, 55, 49
1, 91960, Note_on_c, 0, 47, 0
1, 91960, Note_on_c, 0, 43, 49
1, 92000, Note_on_c, 0, 55, 0
1, 92000, Note_on_c, 0, 59, 49
1, 92000, Note_on_c, 0, 43, 0
1, 92000, Note_on_c, 0, 47, 49
1, 92040, Note_on_c, 0, 59, 0
1, 92040, Note_on_c, 0, 62, 49
1, 92040, Note_on_c, 0, 47, 0
1, 92040, Note_on_c, 0, 50, 49
1, 92080, Note_on_c, 0, 62, 0
1, 92080, Note_on_c, 0, 59, 49
1, 92080, Note_on_c, 0, 50, 0
1, 92080, Note_on_c, 0, 47, 49
1, 92120, Note_on_c, 0, 59, 0
1, 92120, Note_on_c, 0, 62, 49
1, 92120, Note_on_c, 0, 47, 0
1, 92120, Note_on_c, 0, 50, 49
1, 92160, Note_on_c, 0, 62, 0
1, 92160, Note_on_c, 0, 67, 49
1, 92160, Note_on_c, 0, 50, 0
1, 92160, Note_on_c, 0, 55, 49
1, 92280, Note_on_c, 0, 67, 0
1, 92280, Note_on_c, 0, 55, 0
1, 92400, Note_on_c, 0, 43, 51
1, 92400, Note_on_c, 0, 31, 51
1, 92580, Note_on_c, 0, 43, 0
1, 92580, Note_on_c, 0, 43, 51
1, 92580, Note_on_c, 0, 31, 0
1, 92580, Note_on_c, 0, 31, 51
1, 92610, Note_on_c, 0, 43, 0
1, 92610, Note_on_c, 0, 31, 0
1, 92640, Note_on_c, 0, 43, 51
1, 92640, Note_on_c, 0, 31, 51
1, 92880, Note_on_c, 0, 43, 0
1, 92880, Note_on_c, 0, 31, 0
1, 93120, Note_on_c, 0, 52, 35
1, 93160, Note_on_c, 0, 52, 0
1, 93160, Note_on_c, 0, 55, 35
1, 93200, Note_on_c, 0, 55, 0
1, 93200, Note_on_c, 0, 60, 35
1, 93240, Note_on_c, 0, 60, 0
1, 93240, Note_on_c, 0, 52, 35
1, 93280, Note_on_c, 0, 52, 0
1, 93280, Note_on_c, 0, 55, 35
1, 93320, Note_on_c, 0, 55, 0
1, 93320, Note_on_c, 0, 60, 35
1, 93360, Note_on_c, 0, 60, 0
1, 93360, Note_on_c, 0, 52, 35
1, 93400, Note_on_c, 0, 52, 0
1, 93400, Note_on_c, 0, 55, 35
1, 93440, Note_on_c, 0, 55, 0
1, 93440, Note_on_c, 0, 60, 35
1, 93480, Note_on_c, 0, 67, 39
1, 93480, Note_on_c, 0, 60, 0
1, 93480, Note_on_c, 0, 53, 35
1, 93500, Note_on_c, 0, 67, 0
1, 93500, Note_on_c, 0, 69, 39
1, 93520, Note_on_c, 0, 69, 0
1, 93520, Note_on_c, 0, 67, 39
1, 93520, Note_on_c, 0, 53, 0
1, 93520, Note_on_c, 0, 55, 35
1, 93540, Note_on_c, 0, 67, 0
1, 93540, Note_on_c, 0, 66, 39
1, 93560, Note_on_c, 0, 55, 0
1, 93560, Note_on_c, 0, 59, 35
1, 93570, Note_on_c, 0, 66, 0
1, 93570, Note_on_c, 0, 67, 39
1, 93600, Note_on_c, 0, 67, 0
1, 93600, Note_on_c, 0, 72, 39
1, 93600, Note_on_c, 0, 59, 0
1, 93600, Note_on_c, 0, 52, 35
1, 93630, Note_on_c, 0, 72, 0
1, 93640, Note_on_c, 0, 52, 0
1, 93640, Note_on_c, 0, 55, 35
1, 93680, Note_on_c, 0, 55, 0
1, 93680, Note_on_c, 0, 60, 35
1, 93720, Note_on_c, 0, 72, 39
1, 93720, Note_on_c, 0, 60, 0
1, 93720, Note_on_c, 0, 52, 35
1, 93750, Note_on_c, 0, 72, 0
1, 93760, Note_on_c, 0, 52, 0
1, 93760, Note_on_c, 0, 55, 35
1, 93800, Note_on_c, 0, 55, 0
1, 93800, Note_on_c, 0, 60, 35
1, 93840, Note_on_c, 0, 60, 0
1, 93840, Note_on_c, 0, 52, 35
1, 93880, Note_on_c, 0, 52, 0
1, 93880, Note_on_c, 0, 55, 35
1, 93920, Note_on_c, 0, 55, 0
1, 93920, Note_on_c, 0, 60, 35
1, 93960, Note_on_c, 0, 67, 39
1, 93960, Note_on_c, 0, 60, 0
1, 93960, Note_on_c, 0, 53, 35
1, 93980, Note_on_c, 0, 67, 0
1, 93980, Note_on_c, 0, 69, 39
1, 94000, Note_on_c, 0, 69, 0
1, 94000, Note_on_c, 0, 67, 39
1, 94000, Note_on_c, 0, 53, 0
1, 94000, Note_on_c, 0, 55, 35
1, 94020, Note_on_c, 0, 67, 0
1, 94020, Note_on_c, 0, 66, 39
1, 94040, Note_on_c, 0, 55, 0
1, 94040, Note_on_c, 0, 59, 35
1, 94050, Note_on_c, 0, 66, 0
1, 94050, Note_on_c, 0, 67, 39
1, 94080, Note_on_c, 0, 67, 0
1, 94080, Note_on_c, 0, 72, 39
1, 94080, Note_on_c, 0, 59, 0
1, 94080, Note_on_c, 0, 52, 35
1, 94110, Note_on_c, 0, 72, 0
1, 94120, Note_on_c, 0, 52, 0
1, 94120, Note_on_c, 0, 55, 35
1, 94160, Note_on_c, 0, 55, 0
1, 94160, Note_on_c, 0, 60, 35
1, 94200, Note_on_c, 0, 72, 39
1, 94200, Note_on_c, 0, 60, 0
1, 94200, Note_on_c, 0, 52, 35
1, 94230, Note_on_c, 0, 72, 0
1, 94240, Note_on_c, 0, 52, 0
1, 94240, Note_on_c, 0, 55, 35
1, 94280, Note_on_c, 0, 55, 0
1, 94280, Note_on_c, 0, 60, 35
1, 94320, Note_on_c, 0, 60, 0
1, 94320, Note_on_c, 0, 52, 35
1, 94360, Note_on_c, 0, 52, 0
1, 94360, Note_on_c, 0, 55, 35
1, 94400, Note_on_c, 0, 55, 0
1, 94400, Note_on_c, 0, 60, 35
1, 94440, Note_on_c, 0, 67, 39
1, 94440, Note_on_c, 0, 60, 0
1, 94440, Note_on_c, 0, 53, 35
1, 94460, Note_on_c, 0, 67, 0
1, 94460, Note_on_c, 0, 69, 39
1, 94480, Note_on_c, 0, 69, 0
1, 94480, Note_on_c, 0, 67, 39
1, 94480, Note_on_c, 0, 53, 0
1, 94480, Note_on_c, 0, 55, 35
1, 94500, Note_on_c, 0, 67, 0
1, 94500, Note_on_c, 0, 66, 39
1, 94520, Note_on_c, 0, 55, 0
1, 94520, Note_on_c, 0, 59, 35
1, 94530, Note_on_c, 0, 66, 0
1, 94530, Note_on_c, 0, 67, 39
1, 94560, Note_on_c, 0, 67, 0
1, 94560, Note_on_c, 0, 72, 39
1, 94560, Note_on_c, 0, 59, 0
1, 94560, Note_on_c, 0, 52, 37
1, 94590, Note_on_c, 0, 72, 0
1, 94600, Note_on_c, 0, 52, 0
1, 94600, Note_on_c, 0, 55, 37
1, 94640, Note_on_c, 0, 55, 0
1, 94640, Note_on_c, 0, 60, 38
1, 94680, Note_on_c, 0, 72, 41
1, 94680, Note_on_c, 0, 60, 0
1, 94680, Note_on_c, 0, 52, 38
1, 94700, Note_on_c, 0, 72, 0
1, 94700, Note_on_c, 0, 74, 41
1, 94720, Note_on_c, 0, 74, 0
1, 94720, Note_on_c, 0, 72, 41
1, 94720, Note_on_c, 0, 52, 0
1, 94720, Note_on_c, 0, 55, 39
1, 94740, Note_on_c, 0, 72, 0
1, 94740, Note_on_c, 0, 71, 42
1, 94760, Note_on_c, 0, 55, 0
1, 94760, Note_on_c, 0, 60, 39
1, 94770, Note_on_c, 0, 71, 0
1, 94770, Note_on_c, 0, 72, 42
1, 94800, Note_on_c, 0, 72, 0
1, 94800, Note_on_c, 0, 74, 43
1, 94800, Note_on_c, 0, 60, 0
1, 94800, Note_on_c, 0, 47, 40
1, 94830, Note_on_c, 0, 74, 0
1, 94840, Note_on_c, 0, 47, 0
1, 94840, Note_on_c, 0, 50, 40
1, 94880, Note_on_c, 0, 50, 0
1, 94880, Note_on_c, 0, 55, 41
1, 94920, Note_on_c, 0, 74, 45
1, 94920, Note_on_c, 0, 55, 0
1, 94920, Note_on_c, 0, 47, 41
1, 94940, Note_on_c, 0, 74, 0
1, 94940, Note_on_c, 0, 76, 45
1, 94960, Note_on_c, 0, 76, 0
1, 94960, Note_on_c, 0, 74, 45
1, 94960, Note_on_c, 0, 47, 0
1, 94960, Note_on_c, 0, 50, 41
1, 94980, Note_on_c, 0, 74, 0
1, 94980, Note_on_c, 0, 72, 46
1, 95000, Note_on_c, 0, 50, 0
1, 95000, Note_on_c, 0, 55, 42
1, 95010, Note_on_c, 0, 72, 0
1, 95010, Note_on_c, 0, 74, 46
1, 95040, Note_on_c, 0, 74, 0
1, 95040, Note_on_c, 0, 76, 47
1, 95040, Note_on_c, 0, 55, 0
1, 95040, Note_on_c, 0, 48, 43
1, 95070, Note_on_c, 0, 76, 0
1, 95080, Note_on_c, 0, 48, 0
1, 95080, Note_on_c, 0, 52, 43
1, 95120, Note_on_c, 0, 52, 0
1, 95120, Note_on_c, 0, 55, 43
1, 95160, Note_on_c, 0, 76, 49
1, 95160, Note_on_c, 0, 55, 0
1, 95160, Note_on_c, 0, 48, 44
1, 95180, Note_on_c, 0, 76, 0
1, 95180, Note_on_c, 0, 77, 49
1, 95200, Note_on_c, 0, 77, 0
1, 95200, Note_on_c, 0, 76, 50
1, 95200, Note_on_c, 0, 48, 0
1, 95200, Note_on_c, 0, 52, 44
1, 95220, Note_on_c, 0, 76, 0
1, 95220, Note_on_c, 0, 74, 50
1, 95240, Note_on_c, 0, 52, 0
1, 95240, Note_on_c, 0, 55, 45
1, 95250, Note_on_c, 0, 74, 0
1, 95250, Note_on_c, 0, 76, 51
1, 95280, Note_on_c, 0, 76, 0
1, 95280, Note_on_c, 0, 77, 51
1, 95280, Note_on_c, 0, 55, 0
1, 95280, Note_on_c, 0, 50, 45
1, 95310, Note_on_c, 0, 77, 0
1, 95320, Note_on_c, 0, 50, 0
1, 95320, Note_on_c, 0, 53, 46
1, 95360, Note_on_c, 0, 53, 0
1, 95360, Note_on_c, 0, 59, 46
1, 95400, Note_on_c, 0, 77, 53
1, 95400, Note_on_c, 0, 59, 0
1, 95400, Note_on_c, 0, 50, 47
1, 95420, Note_on_c, 0, 77, 0
1, 95420, Note_on_c, 0, 79, 54
1, 95440, Note_on_c, 0, 79, 0
1, 95440, Note_on_c, 0, 77, 54
1, 95440, Note_on_c, 0, 50, 0
1, 95440, Note_on_c, 0, 53, 47
1, 95460, Note_on_c, 0, 77, 0
1, 95460, Note_on_c, 0, 76, 54
1, 95480, Note_on_c, 0, 53, 0
1, 95480, Note_on_c, 0, 59, 48
1, 95490, Note_on_c, 0, 76, 0
1, 95490, Note_on_c, 0, 77, 55
1, 95520, Note_on_c, 0, 77, 0
1, 95520, Note_on_c, 0, 79, 56
1, 95520, Note_on_c, 0, 59, 0
1, 95520, Note_on_c, 0, 52, 48
1, 95560, Note_on_c, 0, 52, 0
1, 95560, Note_on_c, 0, 55, 49
1, 95600, Note_on_c, 0, 55, 0
1, 95600, Note_on_c, 0, 60, 49
1, 95640, Note_on_c, 0, 60, 0
1, 95640, Note_on_c, 0, 52, 49
1, 95680, Note_on_c, 0, 52, 0
1, 95680, Note_on_c, 0, 55, 49
1, 95720, Note_on_c, 0, 55, 0
1, 95720, Note_on_c, 0, 60, 49
1, 95760, Note_on_c, 0, 60, 0
1, 95760, Note_on_c, 0, 52, 49
1, 95880, Note_on_c, 0, 79, 0
1, 95880, Note_on_c, 0, 80, 55
1, 95880, Note_on_c, 0, 68, 55
1, 95880, Note_on_c, 0, 52, 0
1, 96000, Note_on_c, 0, 68, 0
1, 96000, Note_on_c, 0, 80, 0
1, 96000, Note_on_c, 0, 81, 55
1, 96000, Note_on_c, 0, 69, 55
1, 96000, Note_on_c, 0, 41, 57
1, 96000, Note_on_c, 0, 53, 57
1, 96120, Note_on_c, 0, 69, 0
1, 96120, Note_on_c, 0, 81, 0
1, 96120, Note_on_c, 0, 71, 46
1, 96120, Note_on_c, 0, 83, 46
1, 96120, Note_on_c, 0, 53, 0
1, 96120, Note_on_c, 0, 41, 0
1, 96240, Note_on_c, 0, 83, 0
1, 96240, Note_on_c, 0, 71, 0
1, 96240, Note_on_c, 0, 72, 49
1, 96240, Note_on_c, 0, 84, 49
1, 96360, Note_on_c, 0, 84, 0
1, 96360, Note_on_c, 0, 72, 0
1, 96360, Note_on_c, 0, 73, 53
1, 96360, Note_on_c, 0, 85, 53
1, 96480, Note_on_c, 0, 85, 0
1, 96480, Note_on_c, 0, 73, 0
1, 96480, Note_on_c, 0, 74, 56
1, 96480, Note_on_c, 0, 86, 56
1, 96600, Note_on_c, 0, 86, 0
1, 96600, Note_on_c, 0, 74, 0
1, 96600, Note_on_c, 0, 88, 56
1, 96600, Note_on_c, 0, 76, 56
1, 96720, Note_on_c, 0, 88, 0
1, 96720, Note_on_c, 0, 77, 56
1, 96720, Note_on_c, 0, 89, 56
1, 96720, Note_on_c, 0, 76, 0
1, 96840, Note_on_c, 0, 89, 0
1, 96840, Note_on_c, 0, 77, 0
1, 96840, Note_on_c, 0, 74, 56
1, 96840, Note_on_c, 0, 86, 56
1, 96960, Note_on_c, 0, 86, 0
1, 96960, Note_on_c, 0, 74, 0
1, 96960, Note_on_c, 0, 79, 39
1, 96960, Note_on_c, 0, 84, 39
1, 96960, Note_on_c, 0, 76, 38
1, 96960, Note_on_c, 0, 67, 38
1, 97200, Note_on_c, 0, 84, 0
1, 97200, Note_on_c, 0, 79, 0
1, 97200, Note_on_c, 0, 88, 39
1, 97200, Note_on_c, 0, 83, 39
1, 97200, Note_on_c, 0, 76, 0
1, 97200, Note_on_c, 0, 77, 38
1, 97260, Note_on_c, 0, 88, 0
1, 97260, Note_on_c, 0, 86, 39
1, 97380, Note_on_c, 0, 86, 0
1, 97380, Note_on_c, 0, 84, 39
1, 97440, Note_on_c, 0, 84, 0
1, 97440, Note_on_c, 0, 83, 0
1, 97440, Note_on_c, 0, 84, 39
1, 97440, Note_on_c, 0, 77, 0
1, 97440, Note_on_c, 0, 67, 0
1, 97440, Note_on_c, 0, 72, 38
1, 97440, Note_on_c, 0, 76, 38
1, 97680, Note_on_c, 0, 84, 0
1, 97680, Note_on_c, 0, 76, 0
1, 97680, Note_on_c, 0, 72, 0
1, 97800, Note_on_c, 0, 76, 41
1, 97800, Note_on_c, 0, 72, 36
1, 97840, Note_on_c, 0, 76, 0
1, 97840, Note_on_c, 0, 80, 44
1, 97880, Note_on_c, 0, 80, 0
1, 97880, Note_on_c, 0, 81, 47
1, 97920, Note_on_c, 0, 81, 0
1, 97920, Note_on_c, 0, 79, 39
1, 97920, Note_on_c, 0, 72, 0
1, 97920, Note_on_c, 0, 71, 36
1, 97920, Note_on_c, 0, 74, 36
1, 97950, Note_on_c, 0, 79, 0
1, 97980, Note_on_c, 0, 74, 0
1, 97980, Note_on_c, 0, 71, 0
1, 98040, Note_on_c, 0, 79, 39
1, 98070, Note_on_c, 0, 79, 0
1, 98160, Note_on_c, 0, 79, 39
1, 98190, Note_on_c, 0, 79, 0
1, 98280, Note_on_c, 0, 72, 39
1, 98280, Note_on_c, 0, 69, 36
1, 98320, Note_on_c, 0, 72, 0
1, 98320, Note_on_c, 0, 76, 40
1, 98360, Note_on_c, 0, 76, 0
1, 98360, Note_on_c, 0, 77, 42
1, 98400, Note_on_c, 0, 77, 0
1, 98400, Note_on_c, 0, 76, 43
1, 98400, Note_on_c, 0, 69, 0
1, 98400, Note_on_c, 0, 71, 36
1, 98400, Note_on_c, 0, 67, 36
1, 98430, Note_on_c, 0, 76, 0
1, 98460, Note_on_c, 0, 67, 0
1, 98460, Note_on_c, 0, 71, 0
1, 98520, Note_on_c, 0, 76, 39
1, 98550, Note_on_c, 0, 76, 0
1, 98640, Note_on_c, 0, 76, 39
1, 98670, Note_on_c, 0, 76, 0
1, 98760, Note_on_c, 0, 69, 38
1, 98760, Note_on_c, 0, 65, 36
1, 98800, Note_on_c, 0, 69, 0
1, 98800, Note_on_c, 0, 73, 40
1, 98840, Note_on_c, 0, 73, 0
1, 98840, Note_on_c, 0, 74, 41
1, 98880, Note_on_c, 0, 74, 0
1, 98880, Note_on_c, 0, 72, 43
1, 98880, Note_on_c, 0, 65, 0
1, 98880, Note_on_c, 0, 67, 36
1, 98880, Note_on_c, 0, 64, 36
1, 98920, Note_on_c, 0, 72, 0
1, 98940, Note_on_c, 0, 64, 0
1, 98940, Note_on_c, 0, 67, 0
1, 99000, Note_on_c, 0, 72, 39
1, 99040, Note_on_c, 0, 72, 0
1, 99120, Note_on_c, 0, 72, 39
1, 99160, Note_on_c, 0, 72, 0
1, 99240, Note_on_c, 0, 76, 46
1, 99240, Note_on_c, 0, 64, 42
1, 99240, Note_on_c, 0, 60, 42
1, 99300, Note_on_c, 0, 60, 0
1, 99300, Note_on_c, 0, 64, 0
1, 99330, Note_on_c, 0, 76, 0
1, 99330, Note_on_c, 0, 72, 41
1, 99360, Note_on_c, 0, 72, 0
1, 99360, Note_on_c, 0, 69, 39
1, 99360, Note_on_c, 0, 65, 42
1, 99360, Note_on_c, 0, 53, 42
1, 99420, Note_on_c, 0, 69, 0
1, 99480, Note_on_c, 0, 77, 42
1, 99480, Note_on_c, 0, 53, 0
1, 99480, Note_on_c, 0, 65, 0
1, 99570, Note_on_c, 0, 77, 0
1, 99570, Note_on_c, 0, 74, 41
1, 99600, Note_on_c, 0, 74, 0
1, 99600, Note_on_c, 0, 71, 40
1, 99600, Note_on_c, 0, 55, 42
1, 99600, Note_on_c, 0, 62, 42
1, 99660, Note_on_c, 0, 71, 0
1, 99720, Note_on_c, 0, 74, 39
1, 99720, Note_on_c, 0, 62, 0
1, 99720, Note_on_c, 0, 55, 0
1, 99810, Note_on_c, 0, 74, 0
1, 99810, Note_on_c, 0, 71, 39
1, 99840, Note_on_c, 0, 71, 0
1, 99840, Note_on_c, 0, 72, 39
1, 99840, Note_on_c, 0, 60, 39
1, 99840, Note_on_c, 0, 64, 39
1, 99960, Note_on_c, 0, 72, 0
1, 99960, Note_on_c, 0, 64, 0
1, 99960, Note_on_c, 0, 60, 0
1, 100200, Note_on_c, 0, 76, 50
1, 100200, Note_on_c, 0, 72, 42
1, 100240, Note_on_c, 0, 80, 44
1, 100280, Note_on_c, 0, 80, 0
1, 100280, Note_on_c, 0, 76, 0
1, 100280, Note_on_c, 0, 81, 39
1, 100320, Note_on_c, 0, 81, 0
1, 100320, Note_on_c, 0, 74, 39
1, 100320, Note_on_c, 0, 72, 0
1, 100320, Note_on_c, 0, 71, 37
1, 100350, Note_on_c, 0, 71, 0
1, 100360, Note_on_c, 0, 74, 0
1, 100360, Note_on_c, 0, 78, 39
1, 100400, Note_on_c, 0, 78, 0
1, 100400, Note_on_c, 0, 79, 39
1, 100440, Note_on_c, 0, 79, 0
1, 100440, Note_on_c, 0, 74, 39
1, 100440, Note_on_c, 0, 71, 36
1, 100470, Note_on_c, 0, 71, 0
1, 100480, Note_on_c, 0, 74, 0
1, 100480, Note_on_c, 0, 78, 39
1, 100520, Note_on_c, 0, 78, 0
1, 100520, Note_on_c, 0, 79, 39
1, 100560, Note_on_c, 0, 79, 0
1, 100560, Note_on_c, 0, 74, 39
1, 100560, Note_on_c, 0, 71, 36
1, 100590, Note_on_c, 0, 71, 0
1, 100600, Note_on_c, 0, 74, 0
1, 100600, Note_on_c, 0, 78, 39
1, 100640, Note_on_c, 0, 78, 0
1, 100640, Note_on_c, 0, 79, 39
1, 100680, Note_on_c, 0, 79, 0
1, 100680, Note_on_c, 0, 76, 47
1, 100680, Note_on_c, 0, 72, 44
1, 100720, Note_on_c, 0, 80, 45
1, 100760, Note_on_c, 0, 80, 0
1, 100760, Note_on_c, 0, 76, 0
1, 100760, Note_on_c, 0, 81, 43
1, 100800, Note_on_c, 0, 81, 0
1, 100800, Note_on_c, 0, 74, 40
1, 100800, Note_on_c, 0, 72, 0
1, 100800, Note_on_c, 0, 71, 36
1, 100830, Note_on_c, 0, 71, 0
1, 100840, Note_on_c, 0, 74, 0
1, 100840, Note_on_c, 0, 78, 39
1, 100880, Note_on_c, 0, 78, 0
1, 100880, Note_on_c, 0, 79, 39
1, 100920, Note_on_c, 0, 79, 0
1, 100920, Note_on_c, 0, 74, 39
1, 100920, Note_on_c, 0, 71, 36
1, 100950, Note_on_c, 0, 71, 0
1, 100960, Note_on_c, 0, 74, 0
1, 100960, Note_on_c, 0, 78, 39
1, 101000, Note_on_c, 0, 78, 0
1, 101000, Note_on_c, 0, 79, 39
1, 101040, Note_on_c, 0, 79, 0
1, 101040, Note_on_c, 0, 74, 39
1, 101040, Note_on_c, 0, 71, 36
1, 101070, Note_on_c, 0, 71, 0
1, 101080, Note_on_c, 0, 74, 0
1, 101080, Note_on_c, 0, 78, 39
1, 101120, Note_on_c, 0, 78, 0
1, 101120, Note_on_c, 0, 79, 39
1, 101160, Note_on_c, 0, 79, 0
1, 101160, Note_on_c, 0, 72, 48
1, 101160, Note_on_c, 0, 69, 43
1, 101200, Note_on_c, 0, 76, 45
1, 101240, Note_on_c, 0, 76, 0
1, 101240, Note_on_c, 0, 72, 0
1, 101240, Note_on_c, 0, 77, 42
1, 101280, Note_on_c, 0, 77, 0
1, 101280, Note_on_c, 0, 71, 39
1, 101280, Note_on_c, 0, 69, 0
1, 101280, Note_on_c, 0, 67, 36
1, 101310, Note_on_c, 0, 67, 0
1, 101320, Note_on_c, 0, 71, 0
1, 101320, Note_on_c, 0, 75, 39
1, 101360, Note_on_c, 0, 75, 0
1, 101360, Note_on_c, 0, 76, 39
1, 101400, Note_on_c, 0, 76, 0
1, 101400, Note_on_c, 0, 71, 39
1, 101400, Note_on_c, 0, 67, 36
1, 101430, Note_on_c, 0, 67, 0
1, 101440, Note_on_c, 0, 71, 0
1, 101440, Note_on_c, 0, 75, 39
1, 101480, Note_on_c, 0, 75, 0
1, 101480, Note_on_c, 0, 76, 39
1, 101520, Note_on_c, 0, 76, 0
1, 101520, Note_on_c, 0, 71, 39
1, 101520, Note_on_c, 0, 67, 36
1, 101550, Note_on_c, 0, 67, 0
1, 101560, Note_on_c, 0, 71, 0
1, 101560, Note_on_c, 0, 75, 39
1, 101600, Note_on_c, 0, 75, 0
1, 101600, Note_on_c, 0, 76, 39
1, 101640, Note_on_c, 0, 76, 0
1, 101640, Note_on_c, 0, 72, 48
1, 101640, Note_on_c, 0, 69, 42
1, 101680, Note_on_c, 0, 76, 45
1, 101720, Note_on_c, 0, 76, 0
1, 101720, Note_on_c, 0, 72, 0
1, 101720, Note_on_c, 0, 77, 42
1, 101760, Note_on_c, 0, 77, 0
1, 101760, Note_on_c, 0, 71, 39
1, 101760, Note_on_c, 0, 69, 0
1, 101760, Note_on_c, 0, 67, 36
1, 101790, Note_on_c, 0, 67, 0
1, 101800, Note_on_c, 0, 71, 0
1, 101800, Note_on_c, 0, 75, 39
1, 101840, Note_on_c, 0, 75, 0
1, 101840, Note_on_c, 0, 76, 39
1, 101880, Note_on_c, 0, 76, 0
1, 101880, Note_on_c, 0, 71, 39
1, 101880, Note_on_c, 0, 67, 36
1, 101910, Note_on_c, 0, 67, 0
1, 101920, Note_on_c, 0, 71, 0
1, 101920, Note_on_c, 0, 75, 39
1, 101960, Note_on_c, 0, 75, 0
1, 101960, Note_on_c, 0, 76, 39
1, 102000, Note_on_c, 0, 76, 0
1, 102000, Note_on_c, 0, 71, 39
1, 102000, Note_on_c, 0, 67, 36
1, 102030, Note_on_c, 0, 67, 0
1, 102040, Note_on_c, 0, 71, 0
1, 102040, Note_on_c, 0, 75, 39
1, 102080, Note_on_c, 0, 75, 0
1, 102080, Note_on_c, 0, 76, 39
1, 102120, Note_on_c, 0, 76, 0
1, 102120, Note_on_c, 0, 69, 49
1, 102120, Note_on_c, 0, 65, 42
1, 102160, Note_on_c, 0, 73, 45
1, 102200, Note_on_c, 0, 73, 0
1, 102200, Note_on_c, 0, 69, 0
1, 102200, Note_on_c, 0, 74, 41
1, 102240, Note_on_c, 0, 74, 0
1, 102240, Note_on_c, 0, 67, 39
1, 102240, Note_on_c, 0, 65, 0
1, 102240, Note_on_c, 0, 64, 36
1, 102270, Note_on_c, 0, 64, 0
1, 102280, Note_on_c, 0, 67, 0
1, 102280, Note_on_c, 0, 71, 39
1, 102320, Note_on_c, 0, 71, 0
1, 102320, Note_on_c, 0, 72, 39
1, 102360, Note_on_c, 0, 72, 0
1, 102360, Note_on_c, 0, 67, 39
1, 102360, Note_on_c, 0, 64, 36
1, 102390, Note_on_c, 0, 64, 0
1, 102400, Note_on_c, 0, 67, 0
1, 102400, Note_on_c, 0, 71, 39
1, 102440, Note_on_c, 0, 71, 0
1, 102440, Note_on_c, 0, 72, 39
1, 102480, Note_on_c, 0, 72, 0
1, 102480, Note_on_c, 0, 67, 39
1, 102480, Note_on_c, 0, 64, 36
1, 102510, Note_on_c, 0, 64, 0
1, 102520, Note_on_c, 0, 67, 0
1, 102520, Note_on_c, 0, 71, 39
1, 102560, Note_on_c, 0, 71, 0
1, 102560, Note_on_c, 0, 72, 39
1, 102600, Note_on_c, 0, 72, 0
1, 102600, Note_on_c, 0, 69, 47
1, 102600, Note_on_c, 0, 65, 42
1, 102640, Note_on_c, 0, 73, 43
1, 102680, Note_on_c, 0, 73, 0
1, 102680, Note_on_c, 0, 69, 0
1, 102680, Note_on_c, 0, 74, 39
1, 102720, Note_on_c, 0, 74, 0
1, 102720, Note_on_c, 0, 67, 39
1, 102720, Note_on_c, 0, 65, 0
1, 102720, Note_on_c, 0, 64, 36
1, 102750, Note_on_c, 0, 64, 0
1, 102760, Note_on_c, 0, 67, 0
1, 102760, Note_on_c, 0, 71, 39
1, 102800, Note_on_c, 0, 71, 0
1, 102800, Note_on_c, 0, 72, 39
1, 102840, Note_on_c, 0, 72, 0
1, 102840, Note_on_c, 0, 67, 39
1, 102840, Note_on_c, 0, 64, 36
1, 102870, Note_on_c, 0, 64, 0
1, 102880, Note_on_c, 0, 67, 0
1, 102880, Note_on_c, 0, 71, 39
1, 102920, Note_on_c, 0, 71, 0
1, 102920, Note_on_c, 0, 72, 39
1, 102960, Note_on_c, 0, 72, 0
1, 102960, Note_on_c, 0, 67, 39
1, 102960, Note_on_c, 0, 64, 36
1, 102990, Note_on_c, 0, 64, 0
1, 103000, Note_on_c, 0, 67, 0
1, 103000, Note_on_c, 0, 71, 39
1, 103040, Note_on_c, 0, 71, 0
1, 103040, Note_on_c, 0, 72, 39
1, 103080, Note_on_c, 0, 72, 0
1, 103080, Note_on_c, 0, 69, 46
1, 103080, Note_on_c, 0, 65, 41
1, 103120, Note_on_c, 0, 73, 43
1, 103160, Note_on_c, 0, 73, 0
1, 103160, Note_on_c, 0, 69, 0
1, 103160, Note_on_c, 0, 74, 40
1, 103200, Note_on_c, 0, 74, 0
1, 103200, Note_on_c, 0, 67, 39
1, 103200, Note_on_c, 0, 65, 0
1, 103200, Note_on_c, 0, 64, 36
1, 103230, Note_on_c, 0, 64, 0
1, 103240, Note_on_c, 0, 71, 41
1, 103280, Note_on_c, 0, 71, 0
1, 103280, Note_on_c, 0, 67, 0
1, 103280, Note_on_c, 0, 72, 42
1, 103320, Note_on_c, 0, 72, 0
1, 103320, Note_on_c, 0, 67, 43
1, 103320, Note_on_c, 0, 59, 42
1, 103360, Note_on_c, 0, 73, 45
1, 103380, Note_on_c, 0, 59, 0
1, 103400, Note_on_c, 0, 73, 0
1, 103400, Note_on_c, 0, 67, 0
1, 103400, Note_on_c, 0, 74, 46
1, 103440, Note_on_c, 0, 74, 0
1, 103440, Note_on_c, 0, 67, 47
1, 103440, Note_on_c, 0, 60, 44
1, 103480, Note_on_c, 0, 75, 48
1, 103500, Note_on_c, 0, 60, 0
1, 103520, Note_on_c, 0, 75, 0
1, 103520, Note_on_c, 0, 67, 0
1, 103520, Note_on_c, 0, 76, 50
1, 103560, Note_on_c, 0, 76, 0
1, 103560, Note_on_c, 0, 67, 51
1, 103560, Note_on_c, 0, 62, 46
1, 103600, Note_on_c, 0, 76, 52
1, 103620, Note_on_c, 0, 62, 0
1, 103640, Note_on_c, 0, 76, 0
1, 103640, Note_on_c, 0, 67, 0
1, 103640, Note_on_c, 0, 77, 54
1, 103680, Note_on_c, 0, 77, 0
1, 103680, Note_on_c, 0, 67, 55
1, 103680, Note_on_c, 0, 64, 48
1, 103720, Note_on_c, 0, 78, 56
1, 103760, Note_on_c, 0, 78, 0
1, 103760, Note_on_c, 0, 67, 0
1, 103760, Note_on_c, 0, 79, 58
1, 103800, Note_on_c, 0, 79, 0
1, 103800, Note_on_c, 0, 77, 56
1, 103840, Note_on_c, 0, 77, 0
1, 103840, Note_on_c, 0, 76, 54
1, 103880, Note_on_c, 0, 76, 0
1, 103880, Note_on_c, 0, 74, 52
1, 103920, Note_on_c, 0, 74, 0
1, 103920, Note_on_c, 0, 72, 50
1, 103920, Note_on_c, 0, 64, 0
1, 103960, Note_on_c, 0, 72, 0
1, 103960, Note_on_c, 0, 71, 48
1, 104000, Note_on_c, 0, 71, 0
1, 104000, Note_on_c, 0, 69, 46
1, 104040, Note_on_c, 0, 69, 0
1, 104040, Note_on_c, 0, 67, 44
1, 104080, Note_on_c, 0, 67, 0
1, 104080, Note_on_c, 0, 65, 42
1, 104120, Note_on_c, 0, 65, 0
1, 104120, Note_on_c, 0, 64, 40
1, 104160, Note_on_c, 0, 64, 0
1, 104160, Note_on_c, 0, 62, 39
1, 104160, Note_on_c, 0, 41, 39
1, 104200, Note_on_c, 0, 62, 0
1, 104200, Note_on_c, 0, 69, 48
1, 104240, Note_on_c, 0, 69, 0
1, 104240, Note_on_c, 0, 67, 47
1, 104280, Note_on_c, 0, 67, 0
1, 104280, Note_on_c, 0, 65, 45
1, 104280, Note_on_c, 0, 53, 43
1, 104320, Note_on_c, 0, 65, 0
1, 104320, Note_on_c, 0, 64, 43
1, 104360, Note_on_c, 0, 64, 0
1, 104360, Note_on_c, 0, 62, 41
1, 104400, Note_on_c, 0, 62, 0
1, 104400, Note_on_c, 0, 60, 40
1, 104400, Note_on_c, 0, 53, 0
1, 104400, Note_on_c, 0, 41, 0
1, 104400, Note_on_c, 0, 52, 41
1, 104400, Note_on_c, 0, 43, 41
1, 104520, Note_on_c, 0, 60, 0
1, 104520, Note_on_c, 0, 59, 39
1, 104520, Note_on_c, 0, 52, 0
1, 104520, Note_on_c, 0, 50, 39
1, 104535, Note_on_c, 0, 59, 0
1, 104535, Note_on_c, 0, 60, 39
1, 104550, Note_on_c, 0, 60, 0
1, 104550, Note_on_c, 0, 59, 39
1, 104640, Note_on_c, 0, 59, 0
1, 104640, Note_on_c, 0, 50, 0
1, 104640, Note_on_c, 0, 43, 0
1, 104640, Note_on_c, 0, 48, 48
1, 104640, Note_on_c, 0, 43, 48
1, 104640, Note_on_c, 0, 40, 48
1, 104680, Note_on_c, 0, 78, 56
1, 104720, Note_on_c, 0, 78, 0
1, 104720, Note_on_c, 0, 79, 58
1, 104760, Note_on_c, 0, 79, 0
1, 104760, Note_on_c, 0, 77, 56
1, 104800, Note_on_c, 0, 77, 0
1, 104800, Note_on_c, 0, 76, 54
1, 104840, Note_on_c, 0, 76, 0
1, 104840, Note_on_c, 0, 74, 52
1, 104880, Note_on_c, 0, 74, 0
1, 104880, Note_on_c, 0, 72, 50
1, 104880, Note_on_c, 0, 40, 0
1, 104880, Note_on_c, 0, 43, 0
1, 104880, Note_on_c, 0, 48, 0
1, 104920, Note_on_c, 0, 72, 0
1, 104920, Note_on_c, 0, 71, 48
1, 104960, Note_on_c, 0, 71, 0
1, 104960, Note_on_c, 0, 69, 46
1, 105000, Note_on_c, 0, 69, 0
1, 105000, Note_on_c, 0, 67, 44
1, 105040, Note_on_c, 0, 67, 0
1, 105040, Note_on_c, 0, 65, 42
1, 105080, Note_on_c, 0, 65, 0
1, 105080, Note_on_c, 0, 64, 40
1, 105120, Note_on_c, 0, 64, 0
1, 105120, Note_on_c, 0, 62, 56
1, 105120, Note_on_c, 0, 57, 52
1, 105120, Note_on_c, 0, 53, 52
1, 105300, Note_on_c, 0, 53, 0
1, 105300, Note_on_c, 0, 57, 0
1, 105315, Note_on_c, 0, 62, 0
1, 105360, Note_on_c, 0, 81, 56
1, 105360, Note_on_c, 0, 78, 56
1, 105360, Note_on_c, 0, 75, 56
1, 105360, Note_on_c, 0, 72, 56
1, 105360, Note_on_c, 0, 60, 52
1, 105360, Note_on_c, 0, 57, 52
1, 105360, Note_on_c, 0, 54, 52
1, 105360, Note_on_c, 0, 63, 52
1, 105600, Note_on_c, 0, 72, 0
1, 105600, Note_on_c, 0, 81, 0
1, 105600, Note_on_c, 0, 78, 0
1, 105600, Note_on_c, 0, 75, 0
1, 105600, Note_on_c, 0, 63, 0
1, 105600, Note_on_c, 0, 60, 0
1, 105600, Note_on_c, 0, 57, 0
1, 105600, Note_on_c, 0, 54, 0
1, 105600, Note_on_c, 0, 55, 36
1, 105640, Note_on_c, 0, 55, 0
1, 105640, Note_on_c, 0, 60, 36
1, 105680, Note_on_c, 0, 60, 0
1, 105680, Note_on_c, 0, 64, 36
1, 105720, Note_on_c, 0, 64, 0
1, 105720, Note_on_c, 0, 55, 36
1, 105760, Note_on_c, 0, 55, 0
1, 105760, Note_on_c, 0, 60, 36
1, 105800, Note_on_c, 0, 60, 0
1, 105800, Note_on_c, 0, 64, 36
1, 105840, Note_on_c, 0, 64, 0
1, 105840, Note_on_c, 0, 55, 36
1, 105880, Note_on_c, 0, 55, 0
1, 105880, Note_on_c, 0, 60, 36
1, 105920, Note_on_c, 0, 60, 0
1, 105920, Note_on_c, 0, 64, 36
1, 105960, Note_on_c, 0, 72, 42
1, 105960, Note_on_c, 0, 64, 0
1, 105960, Note_on_c, 0, 55, 36
1, 105990, Note_on_c, 0, 72, 0
1, 105990, Note_on_c, 0, 74, 42
1, 106000, Note_on_c, 0, 55, 0
1, 106000, Note_on_c, 0, 60, 36
1, 106020, Note_on_c, 0, 74, 0
1, 106020, Note_on_c, 0, 76, 43
1, 106040, Note_on_c, 0, 60, 0
1, 106040, Note_on_c, 0, 64, 36
1, 106050, Note_on_c, 0, 76, 0
1, 106050, Note_on_c, 0, 77, 44
1, 106080, Note_on_c, 0, 77, 0
1, 106080, Note_on_c, 0, 79, 45
1, 106080, Note_on_c, 0, 64, 0
1, 106080, Note_on_c, 0, 55, 36
1, 106110, Note_on_c, 0, 79, 0
1, 106120, Note_on_c, 0, 55, 0
1, 106120, Note_on_c, 0, 60, 36
1, 106160, Note_on_c, 0, 60, 0
1, 106160, Note_on_c, 0, 64, 36
1, 106200, Note_on_c, 0, 79, 48
1, 106200, Note_on_c, 0, 64, 0
1, 106200, Note_on_c, 0, 55, 36
1, 106230, Note_on_c, 0, 79, 0
1, 106240, Note_on_c, 0, 55, 0
1, 106240, Note_on_c, 0, 60, 36
1, 106280, Note_on_c, 0, 60, 0
1, 106280, Note_on_c, 0, 64, 36
1, 106320, Note_on_c, 0, 79, 48
1, 106320, Note_on_c, 0, 64, 0
1, 106320, Note_on_c, 0, 55, 36
1, 106350, Note_on_c, 0, 79, 0
1, 106360, Note_on_c, 0, 55, 0
1, 106360, Note_on_c, 0, 60, 36
1, 106400, Note_on_c, 0, 60, 0
1, 106400, Note_on_c, 0, 64, 36
1, 106440, Note_on_c, 0, 83, 48
1, 106440, Note_on_c, 0, 64, 0
1, 106440, Note_on_c, 0, 55, 36
1, 106450, Note_on_c, 0, 84, 48
1, 106470, Note_on_c, 0, 83, 0
1, 106480, Note_on_c, 0, 55, 0
1, 106480, Note_on_c, 0, 60, 36
1, 106520, Note_on_c, 0, 60, 0
1, 106520, Note_on_c, 0, 64, 36
1, 106560, Note_on_c, 0, 84, 0
1, 106560, Note_on_c, 0, 79, 46
1, 106560, Note_on_c, 0, 64, 0
1, 106560, Note_on_c, 0, 55, 36
1, 106590, Note_on_c, 0, 79, 0
1, 106600, Note_on_c, 0, 55, 0
1, 106600, Note_on_c, 0, 60, 36
1, 106640, Note_on_c, 0, 60, 0
1, 106640, Note_on_c, 0, 64, 36
1, 106680, Note_on_c, 0, 79, 46
1, 106680, Note_on_c, 0, 64, 0
1, 106680, Note_on_c, 0, 55, 36
1, 106710, Note_on_c, 0, 79, 0
1, 106720, Note_on_c, 0, 55, 0
1, 106720, Note_on_c, 0, 60, 36
1, 106760, Note_on_c, 0, 60, 0
1, 106760, Note_on_c, 0, 64, 36
1, 106800, Note_on_c, 0, 79, 46
1, 106800, Note_on_c, 0, 64, 0
1, 106800, Note_on_c, 0, 55, 36
1, 106830, Note_on_c, 0, 79, 0
1, 106840, Note_on_c, 0, 55, 0
1, 106840, Note_on_c, 0, 60, 36
1, 106880, Note_on_c, 0, 60, 0
1, 106880, Note_on_c, 0, 64, 36
1, 106920, Note_on_c, 0, 77, 49
1, 106920, Note_on_c, 0, 64, 0
1, 106920, Note_on_c, 0, 55, 36
1, 106950, Note_on_c, 0, 77, 0
1, 106950, Note_on_c, 0, 76, 47
1, 106960, Note_on_c, 0, 55, 0
1, 106960, Note_on_c, 0, 60, 36
1, 106980, Note_on_c, 0, 76, 0
1, 106980, Note_on_c, 0, 74, 45
1, 107000, Note_on_c, 0, 60, 0
1, 107000, Note_on_c, 0, 64, 36
1, 107010, Note_on_c, 0, 74, 0
1, 107010, Note_on_c, 0, 72, 43
1, 107040, Note_on_c, 0, 72, 0
1, 107040, Note_on_c, 0, 71, 41
1, 107040, Note_on_c, 0, 64, 0
1, 107040, Note_on_c, 0, 55, 36
1, 107070, Note_on_c, 0, 71, 0
1, 107080, Note_on_c, 0, 55, 0
1, 107080, Note_on_c, 0, 62, 36
1, 107120, Note_on_c, 0, 62, 0
1, 107120, Note_on_c, 0, 65, 36
1, 107160, Note_on_c, 0, 71, 41
1, 107160, Note_on_c, 0, 65, 0
1, 107160, Note_on_c, 0, 55, 36
1, 107190, Note_on_c, 0, 71, 0
1, 107200, Note_on_c, 0, 55, 0
1, 107200, Note_on_c, 0, 62, 36
1, 107240, Note_on_c, 0, 62, 0
1, 107240, Note_on_c, 0, 65, 36
1, 107280, Note_on_c, 0, 72, 43
1, 107280, Note_on_c, 0, 65, 0
1, 107280, Note_on_c, 0, 55, 36
1, 107310, Note_on_c, 0, 72, 0
1, 107320, Note_on_c, 0, 55, 0
1, 107320, Note_on_c, 0, 60, 36
1, 107360, Note_on_c, 0, 60, 0
1, 107360, Note_on_c, 0, 64, 36
1, 107400, Note_on_c, 0, 72, 45
1, 107400, Note_on_c, 0, 64, 0
1, 107400, Note_on_c, 0, 55, 36
1, 107430, Note_on_c, 0, 72, 0
1, 107440, Note_on_c, 0, 55, 0
1, 107440, Note_on_c, 0, 60, 36
1, 107480, Note_on_c, 0, 60, 0
1, 107480, Note_on_c, 0, 64, 36
1, 107520, Note_on_c, 0, 74, 47
1, 107520, Note_on_c, 0, 64, 0
1, 107520, Note_on_c, 0, 55, 36
1, 107560, Note_on_c, 0, 55, 0
1, 107560, Note_on_c, 0, 59, 36
1, 107600, Note_on_c, 0, 59, 0
1, 107600, Note_on_c, 0, 62, 36
1, 107640, Note_on_c, 0, 74, 0
1, 107640, Note_on_c, 0, 62, 0
1, 107640, Note_on_c, 0, 55, 36
1, 107680, Note_on_c, 0, 55, 0
1, 107680, Note_on_c, 0, 59, 36
1, 107720, Note_on_c, 0, 59, 0
1, 107720, Note_on_c, 0, 62, 36
1, 107760, Note_on_c, 0, 62, 0
1, 107760, Note_on_c, 0, 55, 36
1, 107800, Note_on_c, 0, 55, 0
1, 107800, Note_on_c, 0, 59, 36
1, 107840, Note_on_c, 0, 59, 0
1, 107840, Note_on_c, 0, 62, 36
1, 107880, Note_on_c, 0, 67, 38
1, 107880, Note_on_c, 0, 62, 0
1, 107880, Note_on_c, 0, 55, 36
1, 107920, Note_on_c, 0, 55, 0
1, 107920, Note_on_c, 0, 59, 36
1, 107960, Note_on_c, 0, 59, 0
1, 107960, Note_on_c, 0, 62, 36
1, 107970, Note_on_c, 0, 67, 0
1, 107970, Note_on_c, 0, 74, 45
1, 108000, Note_on_c, 0, 74, 0
1, 108000, Note_on_c, 0, 77, 48
1, 108000, Note_on_c, 0, 62, 0
1, 108000, Note_on_c, 0, 55, 36
1, 108030, Note_on_c, 0, 77, 0
1, 108040, Note_on_c, 0, 55, 0
1, 108040, Note_on_c, 0, 59, 36
1, 108080, Note_on_c, 0, 59, 0
1, 108080, Note_on_c, 0, 62, 36
1, 108120, Note_on_c, 0, 77, 47
1, 108120, Note_on_c, 0, 62, 0
1, 108120, Note_on_c, 0, 55, 36
1, 108160, Note_on_c, 0, 55, 0
1, 108160, Note_on_c, 0, 59, 36
1, 108200, Note_on_c, 0, 59, 0
1, 108200, Note_on_c, 0, 62, 36
1, 108210, Note_on_c, 0, 77, 0
1, 108210, Note_on_c, 0, 79, 47
1, 108240, Note_on_c, 0, 79, 0
1, 108240, Note_on_c, 0, 76, 46
1, 108240, Note_on_c, 0, 62, 0
1, 108240, Note_on_c, 0, 55, 36
1, 108270, Note_on_c, 0, 76, 0
1, 108280, Note_on_c, 0, 55, 0
1, 108280, Note_on_c, 0, 60, 36
1, 108320, Note_on_c, 0, 60, 0
1, 108320, Note_on_c, 0, 64, 36
1, 108360, Note_on_c, 0, 76, 45
1, 108360, Note_on_c, 0, 64, 0
1, 108360, Note_on_c, 0, 55, 36
1, 108400, Note_on_c, 0, 55, 0
1, 108400, Note_on_c, 0, 60, 36
1, 108440, Note_on_c, 0, 60, 0
1, 108440, Note_on_c, 0, 64, 36
1, 108450, Note_on_c, 0, 76, 0
1, 108450, Note_on_c, 0, 77, 45
1, 108480, Note_on_c, 0, 77, 0
1, 108480, Note_on_c, 0, 74, 45
1, 108480, Note_on_c, 0, 64, 0
1, 108480, Note_on_c, 0, 55, 36
1, 108510, Note_on_c, 0, 74, 0
1, 108520, Note_on_c, 0, 55, 0
1, 108520, Note_on_c, 0, 62, 36
1, 108560, Note_on_c, 0, 62, 0
1, 108560, Note_on_c, 0, 65, 36
1, 108600, Note_on_c, 0, 74, 44
1, 108600, Note_on_c, 0, 65, 0
1, 108600, Note_on_c, 0, 55, 36
1, 108640, Note_on_c, 0, 55, 0
1, 108640, Note_on_c, 0, 62, 36
1, 108680, Note_on_c, 0, 62, 0
1, 108680, Note_on_c, 0, 65, 36
1, 108690, Note_on_c, 0, 74, 0
1, 108690, Note_on_c, 0, 76, 43
1, 108720, Note_on_c, 0, 76, 0
1, 108720, Note_on_c, 0, 72, 43
1, 108720, Note_on_c, 0, 65, 0
1, 108720, Note_on_c, 0, 57, 36
1, 108750, Note_on_c, 0, 72, 0
1, 108760, Note_on_c, 0, 57, 0
1, 108760, Note_on_c, 0, 60, 36
1, 108800, Note_on_c, 0, 60, 0
1, 108800, Note_on_c, 0, 64, 36
1, 108840, Note_on_c, 0, 72, 42
1, 108840, Note_on_c, 0, 64, 0
1, 108840, Note_on_c, 0, 57, 36
1, 108870, Note_on_c, 0, 72, 0
1, 108880, Note_on_c, 0, 57, 0
1, 108880, Note_on_c, 0, 60, 36
1, 108920, Note_on_c, 0, 60, 0
1, 108920, Note_on_c, 0, 64, 36
1, 108960, Note_on_c, 0, 74, 37
1, 108960, Note_on_c, 0, 64, 0
1, 108960, Note_on_c, 0, 53, 36
1, 108990, Note_on_c, 0, 74, 0
1, 109000, Note_on_c, 0, 53, 0
1, 109000, Note_on_c, 0, 57, 36
1, 109040, Note_on_c, 0, 57, 0
1, 109040, Note_on_c, 0, 62, 36
1, 109080, Note_on_c, 0, 74, 37
1, 109080, Note_on_c, 0, 62, 0
1, 109080, Note_on_c, 0, 53, 36
1, 109110, Note_on_c, 0, 74, 0
1, 109120, Note_on_c, 0, 53, 0
1, 109120, Note_on_c, 0, 57, 36
1, 109160, Note_on_c, 0, 57, 0
1, 109160, Note_on_c, 0, 62, 36
1, 109200, Note_on_c, 0, 71, 37
1, 109200, Note_on_c, 0, 62, 0
1, 109200, Note_on_c, 0, 55, 36
1, 109230, Note_on_c, 0, 71, 0
1, 109240, Note_on_c, 0, 55, 0
1, 109240, Note_on_c, 0, 62, 36
1, 109280, Note_on_c, 0, 62, 0
1, 109280, Note_on_c, 0, 65, 36
1, 109320, Note_on_c, 0, 71, 37
1, 109320, Note_on_c, 0, 65, 0
1, 109320, Note_on_c, 0, 55, 36
1, 109350, Note_on_c, 0, 71, 0
1, 109360, Note_on_c, 0, 55, 0
1, 109360, Note_on_c, 0, 62, 36
1, 109400, Note_on_c, 0, 62, 0
1, 109400, Note_on_c, 0, 65, 36
1, 109440, Note_on_c, 0, 72, 46
1, 109440, Note_on_c, 0, 65, 0
1, 109440, Note_on_c, 0, 60, 47
1, 109480, Note_on_c, 0, 60, 0
1, 109480, Note_on_c, 0, 64, 42
1, 109520, Note_on_c, 0, 64, 0
1, 109520, Note_on_c, 0, 67, 36
1, 109560, Note_on_c, 0, 72, 0
1, 109560, Note_on_c, 0, 67, 0
1, 109560, Note_on_c, 0, 60, 36
1, 109600, Note_on_c, 0, 60, 0
1, 109600, Note_on_c, 0, 64, 36
1, 109640, Note_on_c, 0, 64, 0
1, 109640, Note_on_c, 0, 67, 36
1, 109680, Note_on_c, 0, 67, 0
1, 109680, Note_on_c, 0, 60, 36
1, 109720, Note_on_c, 0, 60, 0
1, 109720, Note_on_c, 0, 64, 36
1, 109760, Note_on_c, 0, 64, 0
1, 109760, Note_on_c, 0, 67, 36
1, 109800, Note_on_c, 0, 79, 52
1, 109800, Note_on_c, 0, 67, 0
1, 109800, Note_on_c, 0, 55, 40
1, 109840, Note_on_c, 0, 55, 0
1, 109840, Note_on_c, 0, 59, 38
1, 109880, Note_on_c, 0, 59, 0
1, 109880, Note_on_c, 0, 67, 35
1, 109890, Note_on_c, 0, 79, 0
1, 109890, Note_on_c, 0, 83, 45
1, 109920, Note_on_c, 0, 83, 0
1, 109920, Note_on_c, 0, 84, 42
1, 109920, Note_on_c, 0, 67, 0
1, 109920, Note_on_c, 0, 60, 36
1, 109950, Note_on_c, 0, 84, 0
1, 109960, Note_on_c, 0, 60, 0
1, 109960, Note_on_c, 0, 64, 36
1, 110000, Note_on_c, 0, 64, 0
1, 110000, Note_on_c, 0, 67, 36
1, 110040, Note_on_c, 0, 84, 42
1, 110040, Note_on_c, 0, 67, 0
1, 110040, Note_on_c, 0, 60, 36
1, 110070, Note_on_c, 0, 84, 0
1, 110080, Note_on_c, 0, 60, 0
1, 110080, Note_on_c, 0, 64, 36
1, 110120, Note_on_c, 0, 64, 0
1, 110120, Note_on_c, 0, 67, 36
1, 110160, Note_on_c, 0, 84, 42
1, 110160, Note_on_c, 0, 67, 0
1, 110160, Note_on_c, 0, 60, 36
1, 110190, Note_on_c, 0, 84, 0
1, 110200, Note_on_c, 0, 60, 0
1, 110200, Note_on_c, 0, 64, 36
1, 110240, Note_on_c, 0, 64, 0
1, 110240, Note_on_c, 0, 67, 36
1, 110280, Note_on_c, 0, 86, 44
1, 110280, Note_on_c, 0, 67, 0
1, 110280, Note_on_c, 0, 55, 42
1, 110295, Note_on_c, 0, 86, 0
1, 110295, Note_on_c, 0, 88, 45
1, 110310, Note_on_c, 0, 88, 0
1, 110310, Note_on_c, 0, 86, 46
1, 110320, Note_on_c, 0, 55, 0
1, 110320, Note_on_c, 0, 59, 36
1, 110360, Note_on_c, 0, 59, 0
1, 110360, Note_on_c, 0, 67, 36
1, 110370, Note_on_c, 0, 86, 0
1, 110370, Note_on_c, 0, 91, 51
1, 110400, Note_on_c, 0, 91, 0
1, 110400, Note_on_c, 0, 88, 52
1, 110400, Note_on_c, 0, 67, 0
1, 110400, Note_on_c, 0, 60, 36
1, 110440, Note_on_c, 0, 60, 0
1, 110440, Note_on_c, 0, 64, 36
1, 110480, Note_on_c, 0, 64, 0
1, 110480, Note_on_c, 0, 67, 36
1, 110520, Note_on_c, 0, 88, 0
1, 110520, Note_on_c, 0, 84, 44
1, 110520, Note_on_c, 0, 67, 0
1, 110520, Note_on_c, 0, 60, 36
1, 110550, Note_on_c, 0, 84, 0
1, 110560, Note_on_c, 0, 60, 0
1, 110560, Note_on_c, 0, 64, 36
1, 110600, Note_on_c, 0, 64, 0
1, 110600, Note_on_c, 0, 67, 36
1, 110640, Note_on_c, 0, 84, 44
1, 110640, Note_on_c, 0, 67, 0
1, 110640, Note_on_c, 0, 60, 36
1, 110670, Note_on_c, 0, 84, 0
1, 110680, Note_on_c, 0, 60, 0
1, 110680, Note_on_c, 0, 64, 36
1, 110720, Note_on_c, 0, 64, 0
1, 110720, Note_on_c, 0, 67, 36
1, 110760, Note_on_c, 0, 79, 53
1, 110760, Note_on_c, 0, 67, 0
1, 110760, Note_on_c, 0, 55, 41
1, 110800, Note_on_c, 0, 55, 0
1, 110800, Note_on_c, 0, 59, 36
1, 110840, Note_on_c, 0, 59, 0
1, 110840, Note_on_c, 0, 67, 36
1, 110850, Note_on_c, 0, 79, 0
1, 110850, Note_on_c, 0, 83, 46
1, 110880, Note_on_c, 0, 83, 0
1, 110880, Note_on_c, 0, 84, 44
1, 110880, Note_on_c, 0, 67, 0
1, 110880, Note_on_c, 0, 60, 36
1, 110910, Note_on_c, 0, 84, 0
1, 110920, Note_on_c, 0, 60, 0
1, 110920, Note_on_c, 0, 64, 36
1, 110960, Note_on_c, 0, 64, 0
1, 110960, Note_on_c, 0, 67, 36
1, 111000, Note_on_c, 0, 84, 44
1, 111000, Note_on_c, 0, 67, 0
1, 111000, Note_on_c, 0, 60, 36
1, 111030, Note_on_c, 0, 84, 0
1, 111040, Note_on_c, 0, 60, 0
1, 111040, Note_on_c, 0, 64, 36
1, 111080, Note_on_c, 0, 64, 0
1, 111080, Note_on_c, 0, 67, 36
1, 111120, Note_on_c, 0, 84, 44
1, 111120, Note_on_c, 0, 67, 0
1, 111120, Note_on_c, 0, 60, 36
1, 111150, Note_on_c, 0, 84, 0
1, 111160, Note_on_c, 0, 60, 0
1, 111160, Note_on_c, 0, 64, 36
1, 111200, Note_on_c, 0, 64, 0
1, 111200, Note_on_c, 0, 67, 36
1, 111240, Note_on_c, 0, 86, 44
1, 111240, Note_on_c, 0, 67, 0
1, 111240, Note_on_c, 0, 55, 43
1, 111255, Note_on_c, 0, 86, 0
1, 111255, Note_on_c, 0, 88, 44
1, 111270, Note_on_c, 0, 88, 0
1, 111270, Note_on_c, 0, 86, 44
1, 111280, Note_on_c, 0, 55, 0
1, 111280, Note_on_c, 0, 59, 36
1, 111320, Note_on_c, 0, 59, 0
1, 111320, Note_on_c, 0, 67, 36
1, 111330, Note_on_c, 0, 86, 0
1, 111330, Note_on_c, 0, 88, 44
1, 111360, Note_on_c, 0, 88, 0
1, 111360, Note_on_c, 0, 84, 44
1, 111360, Note_on_c, 0, 67, 0
1, 111360, Note_on_c, 0, 60, 36
1, 111400, Note_on_c, 0, 60, 0
1, 111400, Note_on_c, 0, 64, 36
1, 111440, Note_on_c, 0, 64, 0
1, 111440, Note_on_c, 0, 67, 36
1, 111480, Note_on_c, 0, 84, 0
1, 111480, Note_on_c, 0, 67, 0
1, 111480, Note_on_c, 0, 60, 36
1, 111520, Note_on_c, 0, 60, 0
1, 111520, Note_on_c, 0, 64, 36
1, 111560, Note_on_c, 0, 64, 0
1, 111560, Note_on_c, 0, 67, 36
1, 111600, Note_on_c, 0, 67, 0
1, 111600, Note_on_c, 0, 60, 36
1, 111640, Note_on_c, 0, 60, 0
1, 111640, Note_on_c, 0, 64, 36
1, 111680, Note_on_c, 0, 64, 0
1, 111680, Note_on_c, 0, 67, 36
1, 111720, Note_on_c, 0, 79, 41
1, 111720, Note_on_c, 0, 67, 0
1, 111720, Note_on_c, 0, 55, 32
1, 111760, Note_on_c, 0, 55, 0
1, 111760, Note_on_c, 0, 59, 32
1, 111800, Note_on_c, 0, 59, 0
1, 111800, Note_on_c, 0, 67, 32
1, 111810, Note_on_c, 0, 79, 0
1, 111810, Note_on_c, 0, 83, 36
1, 111840, Note_on_c, 0, 83, 0
1, 111840, Note_on_c, 0, 84, 33
1, 111840, Note_on_c, 0, 67, 0
1, 111840, Note_on_c, 0, 60, 32
1, 111870, Note_on_c, 0, 84, 0
1, 111880, Note_on_c, 0, 60, 0
1, 111880, Note_on_c, 0, 64, 32
1, 111920, Note_on_c, 0, 64, 0
1, 111920, Note_on_c, 0, 67, 32
1, 111960, Note_on_c, 0, 84, 33
1, 111960, Note_on_c, 0, 67, 0
1, 111960, Note_on_c, 0, 60, 32
1, 111990, Note_on_c, 0, 84, 0
1, 112000, Note_on_c, 0, 60, 0
1, 112000, Note_on_c, 0, 64, 32
1, 112040, Note_on_c, 0, 64, 0
1, 112040, Note_on_c, 0, 67, 32
1, 112080, Note_on_c, 0, 84, 33
1, 112080, Note_on_c, 0, 67, 0
1, 112080, Note_on_c, 0, 60, 32
1, 112110, Note_on_c, 0, 84, 0
1, 112120, Note_on_c, 0, 60, 0
1, 112120, Note_on_c, 0, 64, 32
1, 112160, Note_on_c, 0, 64, 0
1, 112160, Note_on_c, 0, 67, 32
1, 112200, Note_on_c, 0, 86, 35
1, 112200, Note_on_c, 0, 67, 0
1, 112200, Note_on_c, 0, 55, 32
1, 112215, Note_on_c, 0, 86, 0
1, 112215, Note_on_c, 0, 88, 36
1, 112230, Note_on_c, 0, 88, 0
1, 112230, Note_on_c, 0, 86, 36
1, 112240, Note_on_c, 0, 55, 0
1, 112240, Note_on_c, 0, 59, 32
1, 112280, Note_on_c, 0, 59, 0
1, 112280, Note_on_c, 0, 67, 32
1, 112290, Note_on_c, 0, 86, 0
1, 112290, Note_on_c, 0, 91, 40
1, 112320, Note_on_c, 0, 91, 0
1, 112320, Note_on_c, 0, 88, 41
1, 112320, Note_on_c, 0, 67, 0
1, 112320, Note_on_c, 0, 60, 32
1, 112360, Note_on_c, 0, 60, 0
1, 112360, Note_on_c, 0, 64, 32
1, 112400, Note_on_c, 0, 64, 0
1, 112400, Note_on_c, 0, 67, 32
1, 112440, Note_on_c, 0, 88, 0
1, 112440, Note_on_c, 0, 84, 35
1, 112440, Note_on_c, 0, 67, 0
1, 112440, Note_on_c, 0, 60, 32
1, 112470, Note_on_c, 0, 84, 0
1, 112480, Note_on_c, 0, 60, 0
1, 112480, Note_on_c, 0, 64, 32
1, 112520, Note_on_c, 0, 64, 0
1, 112520, Note_on_c, 0, 67, 32
1, 112560, Note_on_c, 0, 84, 35
1, 112560, Note_on_c, 0, 67, 0
1, 112560, Note_on_c, 0, 60, 32
1, 112590, Note_on_c, 0, 84, 0
1, 112600, Note_on_c, 0, 60, 0
1, 112600, Note_on_c, 0, 64, 32
1, 112640, Note_on_c, 0, 64, 0
1, 112640, Note_on_c, 0, 67, 32
1, 112680, Note_on_c, 0, 79, 42
1, 112680, Note_on_c, 0, 67, 0
1, 112680, Note_on_c, 0, 55, 32
1, 112720, Note_on_c, 0, 55, 0
1, 112720, Note_on_c, 0, 59, 32
1, 112760, Note_on_c, 0, 59, 0
1, 112760, Note_on_c, 0, 67, 32
1, 112770, Note_on_c, 0, 79, 0
1, 112770, Note_on_c, 0, 83, 36
1, 112800, Note_on_c, 0, 83, 0
1, 112800, Note_on_c, 0, 84, 35
1, 112800, Note_on_c, 0, 67, 0
1, 112800, Note_on_c, 0, 60, 32
1, 112830, Note_on_c, 0, 84, 0
1, 112840, Note_on_c, 0, 60, 0
1, 112840, Note_on_c, 0, 64, 32
1, 112880, Note_on_c, 0, 64, 0
1, 112880, Note_on_c, 0, 67, 32
1, 112920, Note_on_c, 0, 84, 35
1, 112920, Note_on_c, 0, 67, 0
1, 112920, Note_on_c, 0, 60, 32
1, 112950, Note_on_c, 0, 84, 0
1, 112960, Note_on_c, 0, 60, 0
1, 112960, Note_on_c, 0, 64, 32
1, 113000, Note_on_c, 0, 64, 0
1, 113000, Note_on_c, 0, 67, 32
1, 113040, Note_on_c, 0, 84, 35
1, 113040, Note_on_c, 0, 67, 0
1, 113040, Note_on_c, 0, 60, 32
1, 113070, Note_on_c, 0, 84, 0
1, 113080, Note_on_c, 0, 60, 0
1, 113080, Note_on_c, 0, 64, 32
1, 113120, Note_on_c, 0, 64, 0
1, 113120, Note_on_c, 0, 67, 32
1, 113160, Note_on_c, 0, 86, 35
1, 113160, Note_on_c, 0, 67, 0
1, 113160, Note_on_c, 0, 55, 32
1, 113175, Note_on_c, 0, 86, 0
1, 113175, Note_on_c, 0, 88, 35
1, 113190, Note_on_c, 0, 88, 0
1, 113190, Note_on_c, 0, 86, 35
1, 113200, Note_on_c, 0, 55, 0
1, 113200, Note_on_c, 0, 59, 32
1, 113240, Note_on_c, 0, 59, 0
1, 113240, Note_on_c, 0, 67, 32
1, 113250, Note_on_c, 0, 86, 0
1, 113250, Note_on_c, 0, 88, 35
1, 113280, Note_on_c, 0, 88, 0
1, 113280, Note_on_c, 0, 84, 35
1, 113280, Note_on_c, 0, 67, 0
1, 113280, Note_on_c, 0, 60, 42
1, 113320, Note_on_c, 0, 60, 0
1, 113320, Note_on_c, 0, 64, 43
1, 113360, Note_on_c, 0, 64, 0
1, 113360, Note_on_c, 0, 67, 43
1, 113400, Note_on_c, 0, 84, 0
1, 113400, Note_on_c, 0, 67, 0
1, 113400, Note_on_c, 0, 60, 43
1, 113440, Note_on_c, 0, 60, 0
1, 113440, Note_on_c, 0, 64, 43
1, 113480, Note_on_c, 0, 64, 0
1, 113480, Note_on_c, 0, 67, 43
1, 113520, Note_on_c, 0, 76, 57
1, 113520, Note_on_c, 0, 79, 57
1, 113520, Note_on_c, 0, 67, 0
1, 113520, Note_on_c, 0, 60, 43
1, 113560, Note_on_c, 0, 60, 0
1, 113560, Note_on_c, 0, 64, 43
1, 113600, Note_on_c, 0, 64, 0
1, 113600, Note_on_c, 0, 67, 43
1, 113640, Note_on_c, 0, 79, 0
1, 113640, Note_on_c, 0, 76, 0
1, 113640, Note_on_c, 0, 67, 0
1, 113640, Note_on_c, 0, 60, 43
1, 113680, Note_on_c, 0, 60, 0
1, 113680, Note_on_c, 0, 64, 43
1, 113720, Note_on_c, 0, 64, 0
1, 113720, Note_on_c, 0, 67, 43
1, 113760, Note_on_c, 0, 72, 57
1, 113760, Note_on_c, 0, 76, 57
1, 113760, Note_on_c, 0, 67, 0
1, 113760, Note_on_c, 0, 60, 43
1, 113800, Note_on_c, 0, 60, 0
1, 113800, Note_on_c, 0, 64, 43
1, 113840, Note_on_c, 0, 64, 0
1, 113840, Note_on_c, 0, 67, 43
1, 113880, Note_on_c, 0, 76, 0
1, 113880, Note_on_c, 0, 72, 0
1, 113880, Note_on_c, 0, 67, 0
1, 113880, Note_on_c, 0, 60, 43
1, 113920, Note_on_c, 0, 60, 0
1, 113920, Note_on_c, 0, 64, 43
1, 113960, Note_on_c, 0, 64, 0
1, 113960, Note_on_c, 0, 67, 43
1, 114000, Note_on_c, 0, 52, 57
1, 114000, Note_on_c, 0, 55, 57
1, 114000, Note_on_c, 0, 67, 0
1, 114000, Note_on_c, 0, 60, 43
1, 114040, Note_on_c, 0, 60, 0
1, 114040, Note_on_c, 0, 64, 43
1, 114080, Note_on_c, 0, 64, 0
1, 114080, Note_on_c, 0, 67, 43
1, 114120, Note_on_c, 0, 55, 0
1, 114120, Note_on_c, 0, 52, 0
1, 114120, Note_on_c, 0, 67, 0
1, 114120, Note_on_c, 0, 60, 43
1, 114160, Note_on_c, 0, 60, 0
1, 114160, Note_on_c, 0, 64, 43
1, 114200, Note_on_c, 0, 64, 0
1, 114200, Note_on_c, 0, 67, 43
1, 114240, Note_on_c, 0, 52, 57
1, 114240, Note_on_c, 0, 48, 57
1, 114240, Note_on_c, 0, 67, 0
1, 114240, Note_on_c, 0, 60, 43
1, 114600, Note_on_c, 0, 48, 0
1, 114600, Note_on_c, 0, 52, 0
1, 114600, Note_on_c, 0, 60, 0
1, 114610, End_track
0, 0, End_of_file