0, 0, Header, 0, 1, 96
1, 0, Start_track
1, 0, Tempo, 500000
1, 0, Note_on_c, 0, 74, 85
1, 0, Note_on_c, 1, 64, 64
1, 0, Note_on_c, 1, 60, 64
1, 12, Note_on_c, 0, 74, 0
1, 12, Note_on_c, 0, 72, 85
1, 24, Note_on_c, 0, 72, 0
1, 24, Note_on_c, 0, 71, 85
1, 36, Note_on_c, 0, 71, 0
1, 36, Note_on_c, 0, 72, 85
1, 93, Note_on_c, 0, 72, 0
1, 96, Note_on_c, 0, 67, 85
1, 126, Note_on_c, 0, 67, 0
1, 128, Note_on_c, 0, 72, 85
1, 158, Note_on_c, 0, 72, 0
1, 160, Note_on_c, 0, 76, 85
1, 177, Note_on_c, 1, 64, 0
1, 177, Note_on_c, 1, 60, 0
1, 190, Note_on_c, 0, 76, 0
1, 192, Note_on_c, 0, 74, 85
1, 192, Note_on_c, 1, 65, 64
1, 192, Note_on_c, 1, 55, 64
1, 222, Note_on_c, 0, 74, 0
1, 224, Note_on_c, 0, 72, 85
1, 254, Note_on_c, 0, 72, 0
1, 256, Note_on_c, 0, 71, 85
1, 281, Note_on_c, 1, 65, 0
1, 281, Note_on_c, 1, 55, 0
1, 286, Note_on_c, 0, 71, 0
1, 288, Note_on_c, 0, 72, 85
1, 288, Note_on_c, 1, 64, 64
1, 288, Note_on_c, 1, 60, 64
1, 377, Note_on_c, 0, 72, 0
1, 384, Note_on_c, 0, 67, 85
1, 414, Note_on_c, 0, 67, 0
1, 416, Note_on_c, 0, 72, 85
1, 446, Note_on_c, 0, 72, 0
1, 448, Note_on_c, 0, 76, 85
1, 465, Note_on_c, 1, 64, 0
1, 465, Note_on_c, 1, 60, 0
1, 478, Note_on_c, 0, 76, 0
1, 480, Note_on_c, 0, 74, 85
1, 480, Note_on_c, 1, 65, 64
1, 480, Note_on_c, 1, 55, 64
1, 510, Note_on_c, 0, 74, 0
1, 512, Note_on_c, 0, 72, 85
1, 542, Note_on_c, 0, 72, 0
1, 544, Note_on_c, 0, 71, 85
1, 569, Note_on_c, 1, 65, 0
1, 569, Note_on_c, 1, 55, 0
1, 574, Note_on_c, 0, 71, 0
1, 576, Note_on_c, 0, 72, 85
1, 576, Note_on_c, 1, 64, 64
1, 576, Note_on_c, 1, 60, 64
1, 665, Note_on_c, 0, 72, 0
1, 665, Note_on_c, 1, 64, 0
1, 665, Note_on_c, 1, 60, 0
1, 672, Note_on_c, 0, 79, 85
1, 702, Note_on_c, 0, 79, 0
1, 704, Note_on_c, 0, 81, 85
1, 734, Note_on_c, 0, 81, 0
1, 736, Note_on_c, 0, 83, 85
1, 766, Note_on_c, 0, 83, 0
1, 768, Note_on_c, 0, 84, 85
1, 768, Note_on_c, 1, 60, 64
1, 798, Note_on_c, 0, 84, 0
1, 800, Note_on_c, 0, 79, 85
1, 830, Note_on_c, 0, 79, 0
1, 832, Note_on_c, 0, 76, 85
1, 857, Note_on_c, 1, 60, 0
1, 862, Note_on_c, 0, 76, 0
1, 864, Note_on_c, 0, 79, 85
1, 864, Note_on_c, 1, 62, 64
1, 953, Note_on_c, 1, 62, 0
1, 960, Note_on_c, 1, 55, 64
1, 972, Note_on_c, 0, 79, 0
1, 972, Note_on_c, 0, 77, 85
1, 984, Note_on_c, 0, 77, 0
1, 984, Note_on_c, 0, 79, 85
1, 996, Note_on_c, 0, 79, 0
1, 996, Note_on_c, 0, 77, 85
1, 1008, Note_on_c, 0, 77, 0
1, 1008, Note_on_c, 0, 79, 85
1, 1020, Note_on_c, 0, 79, 0
1, 1020, Note_on_c, 0, 77, 85
1, 1032, Note_on_c, 0, 77, 0
1, 1032, Note_on_c, 0, 76, 85
1, 1044, Note_on_c, 0, 76, 0
1, 1044, Note_on_c, 0, 77, 85
1, 1049, Note_on_c, 1, 55, 0
1, 1056, Note_on_c, 0, 77, 0
1, 1056, Note_on_c, 0, 76, 85
1, 1056, Note_on_c, 1, 60, 64
1, 1145, Note_on_c, 0, 76, 0
1, 1145, Note_on_c, 1, 60, 0
1, 1152, Note_on_c, 0, 74, 85
1, 1152, Note_on_c, 1, 53, 64
1, 1241, Note_on_c, 0, 74, 0
1, 1241, Note_on_c, 1, 53, 0
1, 1248, Note_on_c, 0, 81, 85
1, 1278, Note_on_c, 0, 81, 0
1, 1280, Note_on_c, 0, 79, 85
1, 1310, Note_on_c, 0, 79, 0
1, 1312, Note_on_c, 0, 77, 85
1, 1342, Note_on_c, 0, 77, 0
1, 1344, Note_on_c, 0, 76, 85
1, 1374, Note_on_c, 0, 76, 0
1, 1376, Note_on_c, 0, 74, 85
1, 1406, Note_on_c, 0, 74, 0
1, 1408, Note_on_c, 0, 72, 85
1, 1438, Note_on_c, 0, 72, 0
1, 1440, Note_on_c, 0, 72, 85
1, 1440, Note_on_c, 1, 55, 64
1, 1529, Note_on_c, 1, 55, 0
1, 1536, Note_on_c, 1, 53, 64
1, 1548, Note_on_c, 0, 72, 0
1, 1548, Note_on_c, 0, 71, 85
1, 1560, Note_on_c, 0, 71, 0
1, 1560, Note_on_c, 0, 72, 85
1, 1572, Note_on_c, 0, 72, 0
1, 1572, Note_on_c, 0, 71, 85
1, 1584, Note_on_c, 0, 71, 0
1, 1584, Note_on_c, 0, 72, 85
1, 1596, Note_on_c, 0, 72, 0
1, 1596, Note_on_c, 0, 71, 85
1, 1608, Note_on_c, 0, 71, 0
1, 1608, Note_on_c, 0, 69, 85
1, 1620, Note_on_c, 0, 69, 0
1, 1620, Note_on_c, 0, 71, 85
1, 1625, Note_on_c, 1, 53, 0
1, 1632, Note_on_c, 0, 71, 0
1, 1632, Note_on_c, 0, 72, 85
1, 1632, Note_on_c, 1, 52, 64
1, 1721, Note_on_c, 0, 72, 0
1, 1721, Note_on_c, 1, 52, 0
1, 1728, Note_on_c, 0, 67, 85
1, 1817, Note_on_c, 0, 67, 0
1, 1824, Note_on_c, 0, 77, 101
1, 1824, Note_on_c, 0, 74, 101
1, 1824, Note_on_c, 1, 59, 64
1, 1913, Note_on_c, 1, 59, 0
1, 1920, Note_on_c, 0, 77, 0
1, 1920, Note_on_c, 0, 74, 0
1, 1920, Note_on_c, 0, 76, 85
1, 1920, Note_on_c, 0, 72, 85
1, 1920, Note_on_c, 1, 60, 64
1, 2009, Note_on_c, 0, 76, 0
1, 2009, Note_on_c, 0, 72, 0
1, 2009, Note_on_c, 1, 60, 0
1, 2016, Note_on_c, 0, 76, 85
1, 2016, Note_on_c, 0, 72, 85
1, 2016, Note_on_c, 1, 55, 64
1, 2105, Note_on_c, 1, 55, 0
1, 2112, Note_on_c, 0, 76, 0
1, 2112, Note_on_c, 0, 72, 0
1, 2112, Note_on_c, 0, 74, 85
1, 2112, Note_on_c, 0, 71, 85
1, 2112, Note_on_c, 1, 67, 64
1, 2201, Note_on_c, 0, 74, 0
1, 2201, Note_on_c, 0, 71, 0
1, 2201, Note_on_c, 1, 67, 0
1, 2208, Note_on_c, 1, 55, 64
1, 2297, Note_on_c, 1, 55, 0
1, 2304, Note_on_c, 0, 74, 85
1, 2304, Note_on_c, 1, 64, 64
1, 2304, Note_on_c, 1, 60, 64
1, 2316, Note_on_c, 0, 74, 0
1, 2316, Note_on_c, 0, 72, 85
1, 2328, Note_on_c, 0, 72, 0
1, 2328, Note_on_c, 0, 71, 85
1, 2340, Note_on_c, 0, 71, 0
1, 2340, Note_on_c, 0, 72, 85
1, 2397, Note_on_c, 0, 72, 0
1, 2400, Note_on_c, 0, 67, 85
1, 2430, Note_on_c, 0, 67, 0
1, 2432, Note_on_c, 0, 72, 85
1, 2462, Note_on_c, 0, 72, 0
1, 2464, Note_on_c, 0, 76, 85
1, 2481, Note_on_c, 1, 64, 0
1, 2481, Note_on_c, 1, 60, 0
1, 2494, Note_on_c, 0, 76, 0
1, 2496, Note_on_c, 0, 74, 85
1, 2496, Note_on_c, 1, 65, 64
1, 2496, Note_on_c, 1, 55, 64
1, 2526, Note_on_c, 0, 74, 0
1, 2528, Note_on_c, 0, 72, 85
1, 2558, Note_on_c, 0, 72, 0
1, 2560, Note_on_c, 0, 71, 85
1, 2585, Note_on_c, 1, 65, 0
1, 2585, Note_on_c, 1, 55, 0
1, 2590, Note_on_c, 0, 71, 0
1, 2592, Note_on_c, 0, 72, 85
1, 2592, Note_on_c, 1, 64, 64
1, 2592, Note_on_c, 1, 60, 64
1, 2681, Note_on_c, 0, 72, 0
1, 2688, Note_on_c, 0, 67, 85
1, 2718, Note_on_c, 0, 67, 0
1, 2720, Note_on_c, 0, 72, 85
1, 2750, Note_on_c, 0, 72, 0
1, 2752, Note_on_c, 0, 76, 85
1, 2769, Note_on_c, 1, 64, 0
1, 2769, Note_on_c, 1, 60, 0
1, 2782, Note_on_c, 0, 76, 0
1, 2784, Note_on_c, 0, 74, 85
1, 2784, Note_on_c, 1, 65, 64
1, 2784, Note_on_c, 1, 55, 64
1, 2814, Note_on_c, 0, 74, 0
1, 2816, Note_on_c, 0, 72, 85
1, 2846, Note_on_c, 0, 72, 0
1, 2848, Note_on_c, 0, 71, 85
1, 2873, Note_on_c, 1, 65, 0
1, 2873, Note_on_c, 1, 55, 0
1, 2878, Note_on_c, 0, 71, 0
1, 2880, Note_on_c, 0, 72, 85
1, 2880, Note_on_c, 1, 64, 64
1, 2880, Note_on_c, 1, 60, 64
1, 2969, Note_on_c, 0, 72, 0
1, 2969, Note_on_c, 1, 64, 0
1, 2969, Note_on_c, 1, 60, 0
1, 2976, Note_on_c, 0, 79, 85
1, 3006, Note_on_c, 0, 79, 0
1, 3008, Note_on_c, 0, 81, 85
1, 3038, Note_on_c, 0, 81, 0
1, 3040, Note_on_c, 0, 83, 85
1, 3070, Note_on_c, 0, 83, 0
1, 3072, Note_on_c, 0, 84, 85
1, 3072, Note_on_c, 1, 60, 64
1, 3102, Note_on_c, 0, 84, 0
1, 3104, Note_on_c, 0, 79, 85
1, 3134, Note_on_c, 0, 79, 0
1, 3136, Note_on_c, 0, 76, 85
1, 3161, Note_on_c, 1, 60, 0
1, 3166, Note_on_c, 0, 76, 0
1, 3168, Note_on_c, 0, 79, 85
1, 3168, Note_on_c, 1, 62, 64
1, 3257, Note_on_c, 1, 62, 0
1, 3264, Note_on_c, 1, 55, 64
1, 3276, Note_on_c, 0, 79, 0
1, 3276, Note_on_c, 0, 77, 85
1, 3288, Note_on_c, 0, 77, 0
1, 3288, Note_on_c, 0, 79, 85
1, 3300, Note_on_c, 0, 79, 0
1, 3300, Note_on_c, 0, 77, 85
1, 3312, Note_on_c, 0, 77, 0
1, 3312, Note_on_c, 0, 79, 85
1, 3324, Note_on_c, 0, 79, 0
1, 3324, Note_on_c, 0, 77, 85
1, 3336, Note_on_c, 0, 77, 0
1, 3336, Note_on_c, 0, 76, 85
1, 3348, Note_on_c, 0, 76, 0
1, 3348, Note_on_c, 0, 77, 85
1, 3353, Note_on_c, 1, 55, 0
1, 3360, Note_on_c, 0, 77, 0
1, 3360, Note_on_c, 0, 76, 85
1, 3360, Note_on_c, 1, 60, 64
1, 3449, Note_on_c, 0, 76, 0
1, 3449, Note_on_c, 1, 60, 0
1, 3456, Note_on_c, 0, 74, 85
1, 3456, Note_on_c, 1, 53, 64
1, 3545, Note_on_c, 0, 74, 0
1, 3545, Note_on_c, 1, 53, 0
1, 3552, Note_on_c, 0, 81, 85
1, 3582, Note_on_c, 0, 81, 0
1, 3584, Note_on_c, 0, 79, 85
1, 3614, Note_on_c, 0, 79, 0
1, 3616, Note_on_c, 0, 77, 85
1, 3646, Note_on_c, 0, 77, 0
1, 3648, Note_on_c, 0, 76, 85
1, 3678, Note_on_c, 0, 76, 0
1, 3680, Note_on_c, 0, 74, 85
1, 3710, Note_on_c, 0, 74, 0
1, 3712, Note_on_c, 0, 72, 85
1, 3742, Note_on_c, 0, 72, 0
1, 3744, Note_on_c, 0, 72, 85
1, 3744, Note_on_c, 1, 55, 64
1, 3833, Note_on_c, 1, 55, 0
1, 3840, Note_on_c, 1, 53, 64
1, 3852, Note_on_c, 0, 72, 0
1, 3852, Note_on_c, 0, 71, 85
1, 3864, Note_on_c, 0, 71, 0
1, 3864, Note_on_c, 0, 72, 85
1, 3876, Note_on_c, 0, 72, 0
1, 3876, Note_on_c, 0, 71, 85
1, 3888, Note_on_c, 0, 71, 0
1, 3888, Note_on_c, 0, 72, 85
1, 3900, Note_on_c, 0, 72, 0
1, 3900, Note_on_c, 0, 71, 85
1, 3912, Note_on_c, 0, 71, 0
1, 3912, Note_on_c, 0, 69, 85
1, 3924, Note_on_c, 0, 69, 0
1, 3924, Note_on_c, 0, 71, 85
1, 3929, Note_on_c, 1, 53, 0
1, 3936, Note_on_c, 0, 71, 0
1, 3936, Note_on_c, 0, 72, 85
1, 3936, Note_on_c, 1, 52, 64
1, 4025, Note_on_c, 0, 72, 0
1, 4025, Note_on_c, 1, 52, 0
1, 4032, Note_on_c, 0, 67, 85
1, 4121, Note_on_c, 0, 67, 0
1, 4128, Note_on_c, 0, 77, 101
1, 4128, Note_on_c, 0, 74, 101
1, 4128, Note_on_c, 1, 59, 64
1, 4217, Note_on_c, 1, 59, 0
1, 4224, Note_on_c, 0, 77, 0
1, 4224, Note_on_c, 0, 74, 0
1, 4224, Note_on_c, 0, 76, 85
1, 4224, Note_on_c, 0, 72, 85
1, 4224, Note_on_c, 1, 60, 64
1, 4313, Note_on_c, 0, 76, 0
1, 4313, Note_on_c, 0, 72, 0
1, 4313, Note_on_c, 1, 60, 0
1, 4320, Note_on_c, 0, 76, 85
1, 4320, Note_on_c, 0, 72, 85
1, 4320, Note_on_c, 1, 55, 64
1, 4409, Note_on_c, 1, 55, 0
1, 4416, Note_on_c, 0, 76, 0
1, 4416, Note_on_c, 0, 72, 0
1, 4416, Note_on_c, 0, 74, 85
1, 4416, Note_on_c, 0, 71, 85
1, 4416, Note_on_c, 1, 67, 64
1, 4505, Note_on_c, 0, 74, 0
1, 4505, Note_on_c, 0, 71, 0
1, 4505, Note_on_c, 1, 67, 0
1, 4512, Note_on_c, 1, 55, 64
1, 4601, Note_on_c, 1, 55, 0
1, 4608, Note_on_c, 0, 79, 85
1, 4608, Note_on_c, 1, 60, 64
1, 4608, Note_on_c, 1, 52, 64
1, 4697, Note_on_c, 0, 79, 0
1, 4704, Note_on_c, 0, 72, 85
1, 4734, Note_on_c, 0, 72, 0
1, 4736, Note_on_c, 0, 76, 85
1, 4766, Note_on_c, 0, 76, 0
1, 4768, Note_on_c, 0, 79, 85
1, 4785, Note_on_c, 1, 60, 0
1, 4785, Note_on_c, 1, 52, 0
1, 4798, Note_on_c, 0, 79, 0
1, 4800, Note_on_c, 0, 76, 85
1, 4800, Note_on_c, 1, 60, 64
1, 4800, Note_on_c, 1, 52, 64
1, 4830, Note_on_c, 0, 76, 0
1, 4832, Note_on_c, 0, 79, 85
1, 4862, Note_on_c, 0, 79, 0
1, 4864, Note_on_c, 0, 82, 85
1, 4889, Note_on_c, 1, 60, 0
1, 4889, Note_on_c, 1, 52, 0
1, 4894, Note_on_c, 0, 82, 0
1, 4896, Note_on_c, 0, 82, 85
1, 4896, Note_on_c, 1, 53, 64
1, 4985, Note_on_c, 0, 82, 0
1, 4985, Note_on_c, 1, 53, 0
1, 4992, Note_on_c, 0, 81, 85
1, 4992, Note_on_c, 1, 65, 64
1, 5081, Note_on_c, 0, 81, 0
1, 5081, Note_on_c, 1, 65, 0
1, 5088, Note_on_c, 0, 79, 85
1, 5088, Note_on_c, 1, 64, 64
1, 5177, Note_on_c, 0, 79, 0
1, 5177, Note_on_c, 1, 64, 0
1, 5184, Note_on_c, 0, 77, 85
1, 5184, Note_on_c, 1, 62, 64
1, 5214, Note_on_c, 0, 77, 0
1, 5216, Note_on_c, 0, 76, 85
1, 5246, Note_on_c, 0, 76, 0
1, 5248, Note_on_c, 0, 77, 85
1, 5273, Note_on_c, 1, 62, 0
1, 5278, Note_on_c, 0, 77, 0
1, 5280, Note_on_c, 0, 81, 85
1, 5280, Note_on_c, 1, 65, 64
1, 5310, Note_on_c, 0, 81, 0
1, 5312, Note_on_c, 0, 79, 85
1, 5342, Note_on_c, 0, 79, 0
1, 5344, Note_on_c, 0, 77, 85
1, 5369, Note_on_c, 1, 65, 0
1, 5374, Note_on_c, 0, 77, 0
1, 5376, Note_on_c, 0, 76, 85
1, 5376, Note_on_c, 1, 66, 64
1, 5406, Note_on_c, 0, 76, 0
1, 5408, Note_on_c, 0, 74, 85
1, 5438, Note_on_c, 0, 74, 0
1, 5440, Note_on_c, 0, 72, 85
1, 5465, Note_on_c, 1, 66, 0
1, 5470, Note_on_c, 0, 72, 0
1, 5472, Note_on_c, 0, 72, 85
1, 5472, Note_on_c, 1, 67, 64
1, 5561, Note_on_c, 1, 67, 0
1, 5568, Note_on_c, 1, 62, 64
1, 5649, Note_on_c, 0, 72, 0
1, 5657, Note_on_c, 1, 62, 0
1, 5664, Note_on_c, 0, 71, 85
1, 5664, Note_on_c, 1, 55, 64
1, 5753, Note_on_c, 0, 71, 0
1, 5753, Note_on_c, 1, 55, 0
1, 5760, Note_on_c, 0, 74, 85
1, 5760, Note_on_c, 1, 64, 64
1, 5760, Note_on_c, 1, 60, 64
1, 5772, Note_on_c, 0, 74, 0
1, 5772, Note_on_c, 0, 72, 85
1, 5784, Note_on_c, 0, 72, 0
1, 5784, Note_on_c, 0, 71, 85
1, 5796, Note_on_c, 0, 71, 0
1, 5796, Note_on_c, 0, 72, 85
1, 5853, Note_on_c, 0, 72, 0
1, 5856, Note_on_c, 0, 67, 85
1, 5886, Note_on_c, 0, 67, 0
1, 5888, Note_on_c, 0, 72, 85
1, 5918, Note_on_c, 0, 72, 0
1, 5920, Note_on_c, 0, 76, 85
1, 5937, Note_on_c, 1, 64, 0
1, 5937, Note_on_c, 1, 60, 0
1, 5950, Note_on_c, 0, 76, 0
1, 5952, Note_on_c, 0, 74, 85
1, 5952, Note_on_c, 1, 65, 64
1, 5952, Note_on_c, 1, 55, 64
1, 5982, Note_on_c, 0, 74, 0
1, 5984, Note_on_c, 0, 72, 85
1, 6014, Note_on_c, 0, 72, 0
1, 6016, Note_on_c, 0, 71, 85
1, 6041, Note_on_c, 1, 65, 0
1, 6041, Note_on_c, 1, 55, 0
1, 6046, Note_on_c, 0, 71, 0
1, 6048, Note_on_c, 0, 72, 85
1, 6048, Note_on_c, 1, 64, 64
1, 6048, Note_on_c, 1, 60, 64
1, 6137, Note_on_c, 0, 72, 0
1, 6144, Note_on_c, 0, 67, 85
1, 6174, Note_on_c, 0, 67, 0
1, 6176, Note_on_c, 0, 72, 85
1, 6206, Note_on_c, 0, 72, 0
1, 6208, Note_on_c, 0, 76, 85
1, 6225, Note_on_c, 1, 64, 0
1, 6225, Note_on_c, 1, 60, 0
1, 6238, Note_on_c, 0, 76, 0
1, 6240, Note_on_c, 0, 74, 85
1, 6240, Note_on_c, 1, 65, 64
1, 6240, Note_on_c, 1, 55, 64
1, 6270, Note_on_c, 0, 74, 0
1, 6272, Note_on_c, 0, 72, 85
1, 6302, Note_on_c, 0, 72, 0
1, 6304, Note_on_c, 0, 71, 85
1, 6329, Note_on_c, 1, 65, 0
1, 6329, Note_on_c, 1, 55, 0
1, 6334, Note_on_c, 0, 71, 0
1, 6336, Note_on_c, 0, 72, 85
1, 6336, Note_on_c, 1, 64, 64
1, 6336, Note_on_c, 1, 60, 64
1, 6425, Note_on_c, 0, 72, 0
1, 6425, Note_on_c, 1, 64, 0
1, 6425, Note_on_c, 1, 60, 0
1, 6432, Note_on_c, 0, 79, 85
1, 6462, Note_on_c, 0, 79, 0
1, 6464, Note_on_c, 0, 81, 85
1, 6494, Note_on_c, 0, 81, 0
1, 6496, Note_on_c, 0, 83, 85
1, 6526, Note_on_c, 0, 83, 0
1, 6528, Note_on_c, 0, 84, 85
1, 6528, Note_on_c, 1, 60, 64
1, 6558, Note_on_c, 0, 84, 0
1, 6560, Note_on_c, 0, 79, 85
1, 6590, Note_on_c, 0, 79, 0
1, 6592, Note_on_c, 0, 76, 85
1, 6617, Note_on_c, 1, 60, 0
1, 6622, Note_on_c, 0, 76, 0
1, 6624, Note_on_c, 0, 79, 85
1, 6624, Note_on_c, 1, 62, 64
1, 6713, Note_on_c, 1, 62, 0
1, 6720, Note_on_c, 1, 55, 64
1, 6732, Note_on_c, 0, 79, 0
1, 6732, Note_on_c, 0, 77, 85
1, 6744, Note_on_c, 0, 77, 0
1, 6744, Note_on_c, 0, 79, 85
1, 6756, Note_on_c, 0, 79, 0
1, 6756, Note_on_c, 0, 77, 85
1, 6768, Note_on_c, 0, 77, 0
1, 6768, Note_on_c, 0, 79, 85
1, 6780, Note_on_c, 0, 79, 0
1, 6780, Note_on_c, 0, 77, 85
1, 6792, Note_on_c, 0, 77, 0
1, 6792, Note_on_c, 0, 76, 85
1, 6804, Note_on_c, 0, 76, 0
1, 6804, Note_on_c, 0, 77, 85
1, 6809, Note_on_c, 1, 55, 0
1, 6816, Note_on_c, 0, 77, 0
1, 6816, Note_on_c, 0, 76, 85
1, 6816, Note_on_c, 1, 60, 64
1, 6905, Note_on_c, 0, 76, 0
1, 6905, Note_on_c, 1, 60, 0
1, 6912, Note_on_c, 0, 74, 85
1, 6912, Note_on_c, 1, 53, 64
1, 7001, Note_on_c, 0, 74, 0
1, 7001, Note_on_c, 1, 53, 0
1, 7008, Note_on_c, 0, 81, 85
1, 7038, Note_on_c, 0, 81, 0
1, 7040, Note_on_c, 0, 79, 85
1, 7070, Note_on_c, 0, 79, 0
1, 7072, Note_on_c, 0, 77, 85
1, 7102, Note_on_c, 0, 77, 0
1, 7104, Note_on_c, 0, 76, 85
1, 7134, Note_on_c, 0, 76, 0
1, 7136, Note_on_c, 0, 74, 85
1, 7166, Note_on_c, 0, 74, 0
1, 7168, Note_on_c, 0, 72, 85
1, 7198, Note_on_c, 0, 72, 0
1, 7200, Note_on_c, 0, 72, 85
1, 7200, Note_on_c, 1, 55, 64
1, 7289, Note_on_c, 1, 55, 0
1, 7296, Note_on_c, 1, 53, 64
1, 7308, Note_on_c, 0, 72, 0
1, 7308, Note_on_c, 0, 71, 85
1, 7320, Note_on_c, 0, 71, 0
1, 7320, Note_on_c, 0, 72, 85
1, 7332, Note_on_c, 0, 72, 0
1, 7332, Note_on_c, 0, 71, 85
1, 7344, Note_on_c, 0, 71, 0
1, 7344, Note_on_c, 0, 72, 85
1, 7356, Note_on_c, 0, 72, 0
1, 7356, Note_on_c, 0, 71, 85
1, 7368, Note_on_c, 0, 71, 0
1, 7368, Note_on_c, 0, 69, 85
1, 7380, Note_on_c, 0, 69, 0
1, 7380, Note_on_c, 0, 71, 85
1, 7385, Note_on_c, 1, 53, 0
1, 7392, Note_on_c, 0, 71, 0
1, 7392, Note_on_c, 0, 72, 85
1, 7392, Note_on_c, 1, 52, 64
1, 7481, Note_on_c, 0, 72, 0
1, 7481, Note_on_c, 1, 52, 0
1, 7488, Note_on_c, 0, 83, 85
1, 7488, Note_on_c, 1, 53, 64
1, 7511, Note_on_c, 0, 83, 0
1, 7512, Note_on_c, 0, 81, 85
1, 7535, Note_on_c, 0, 81, 0
1, 7536, Note_on_c, 0, 79, 85
1, 7559, Note_on_c, 0, 79, 0
1, 7560, Note_on_c, 0, 77, 85
1, 7577, Note_on_c, 1, 53, 0
1, 7583, Note_on_c, 0, 77, 0
1, 7584, Note_on_c, 0, 76, 85
1, 7584, Note_on_c, 1, 55, 64
1, 7673, Note_on_c, 1, 55, 0
1, 7680, Note_on_c, 1, 43, 64
1, 7692, Note_on_c, 0, 76, 0
1, 7692, Note_on_c, 0, 74, 85
1, 7704, Note_on_c, 0, 74, 0
1, 7704, Note_on_c, 0, 76, 85
1, 7716, Note_on_c, 0, 76, 0
1, 7716, Note_on_c, 0, 74, 85
1, 7728, Note_on_c, 0, 74, 0
1, 7728, Note_on_c, 0, 76, 85
1, 7740, Note_on_c, 0, 76, 0
1, 7740, Note_on_c, 0, 74, 85
1, 7752, Note_on_c, 0, 74, 0
1, 7752, Note_on_c, 0, 72, 85
1, 7764, Note_on_c, 0, 72, 0
1, 7764, Note_on_c, 0, 74, 85
1, 7769, Note_on_c, 1, 43, 0
1, 7776, Note_on_c, 0, 74, 0
1, 7776, Note_on_c, 0, 72, 85
1, 7776, Note_on_c, 1, 48, 64
1, 7865, Note_on_c, 0, 72, 0
1, 7865, Note_on_c, 1, 48, 0
1, 7872, Note_on_c, 1, 43, 64
1, 7961, Note_on_c, 1, 43, 0
1, 7968, Note_on_c, 1, 36, 64
1, 8057, Note_on_c, 1, 36, 0
1, 8064, Note_on_c, 0, 79, 85
1, 8064, Note_on_c, 1, 60, 64
1, 8064, Note_on_c, 1, 52, 64
1, 8153, Note_on_c, 0, 79, 0
1, 8160, Note_on_c, 0, 72, 85
1, 8190, Note_on_c, 0, 72, 0
1, 8192, Note_on_c, 0, 76, 85
1, 8222, Note_on_c, 0, 76, 0
1, 8224, Note_on_c, 0, 79, 85
1, 8241, Note_on_c, 1, 60, 0
1, 8241, Note_on_c, 1, 52, 0
1, 8254, Note_on_c, 0, 79, 0
1, 8256, Note_on_c, 0, 76, 85
1, 8256, Note_on_c, 1, 60, 64
1, 8256, Note_on_c, 1, 52, 64
1, 8286, Note_on_c, 0, 76, 0
1, 8288, Note_on_c, 0, 79, 85
1, 8318, Note_on_c, 0, 79, 0
1, 8320, Note_on_c, 0, 82, 85
1, 8345, Note_on_c, 1, 60, 0
1, 8345, Note_on_c, 1, 52, 0
1, 8350, Note_on_c, 0, 82, 0
1, 8352, Note_on_c, 0, 82, 85
1, 8352, Note_on_c, 1, 53, 64
1, 8441, Note_on_c, 0, 82, 0
1, 8441, Note_on_c, 1, 53, 0
1, 8448, Note_on_c, 0, 81, 85
1, 8448, Note_on_c, 1, 65, 64
1, 8537, Note_on_c, 0, 81, 0
1, 8537, Note_on_c, 1, 65, 0
1, 8544, Note_on_c, 0, 79, 85
1, 8544, Note_on_c, 1, 64, 64
1, 8633, Note_on_c, 0, 79, 0
1, 8633, Note_on_c, 1, 64, 0
1, 8640, Note_on_c, 0, 77, 85
1, 8640, Note_on_c, 1, 62, 64
1, 8670, Note_on_c, 0, 77, 0
1, 8672, Note_on_c, 0, 76, 85
1, 8702, Note_on_c, 0, 76, 0
1, 8704, Note_on_c, 0, 77, 85
1, 8729, Note_on_c, 1, 62, 0
1, 8734, Note_on_c, 0, 77, 0
1, 8736, Note_on_c, 0, 81, 85
1, 8736, Note_on_c, 1, 65, 64
1, 8766, Note_on_c, 0, 81, 0
1, 8768, Note_on_c, 0, 79, 85
1, 8798, Note_on_c, 0, 79, 0
1, 8800, Note_on_c, 0, 77, 85
1, 8825, Note_on_c, 1, 65, 0
1, 8830, Note_on_c, 0, 77, 0
1, 8832, Note_on_c, 0, 76, 85
1, 8832, Note_on_c, 1, 66, 64
1, 8862, Note_on_c, 0, 76, 0
1, 8864, Note_on_c, 0, 74, 85
1, 8894, Note_on_c, 0, 74, 0
1, 8896, Note_on_c, 0, 72, 85
1, 8921, Note_on_c, 1, 66, 0
1, 8926, Note_on_c, 0, 72, 0
1, 8928, Note_on_c, 0, 72, 85
1, 8928, Note_on_c, 1, 67, 64
1, 9017, Note_on_c, 1, 67, 0
1, 9024, Note_on_c, 1, 62, 64
1, 9105, Note_on_c, 0, 72, 0
1, 9113, Note_on_c, 1, 62, 0
1, 9120, Note_on_c, 0, 71, 85
1, 9120, Note_on_c, 1, 55, 64
1, 9209, Note_on_c, 0, 71, 0
1, 9209, Note_on_c, 1, 55, 0
1, 9216, Note_on_c, 0, 74, 85
1, 9216, Note_on_c, 1, 64, 64
1, 9216, Note_on_c, 1, 60, 64
1, 9228, Note_on_c, 0, 74, 0
1, 9228, Note_on_c, 0, 72, 85
1, 9240, Note_on_c, 0, 72, 0
1, 9240, Note_on_c, 0, 71, 85
1, 9252, Note_on_c, 0, 71, 0
1, 9252, Note_on_c, 0, 72, 85
1, 9309, Note_on_c, 0, 72, 0
1, 9312, Note_on_c, 0, 67, 85
1, 9342, Note_on_c, 0, 67, 0
1, 9344, Note_on_c, 0, 72, 85
1, 9374, Note_on_c, 0, 72, 0
1, 9376, Note_on_c, 0, 76, 85
1, 9393, Note_on_c, 1, 64, 0
1, 9393, Note_on_c, 1, 60, 0
1, 9406, Note_on_c, 0, 76, 0
1, 9408, Note_on_c, 0, 74, 85
1, 9408, Note_on_c, 1, 65, 64
1, 9408, Note_on_c, 1, 55, 64
1, 9438, Note_on_c, 0, 74, 0
1, 9440, Note_on_c, 0, 72, 85
1, 9470, Note_on_c, 0, 72, 0
1, 9472, Note_on_c, 0, 71, 85
1, 9497, Note_on_c, 1, 65, 0
1, 9497, Note_on_c, 1, 55, 0
1, 9502, Note_on_c, 0, 71, 0
1, 9504, Note_on_c, 0, 72, 85
1, 9504, Note_on_c, 1, 64, 64
1, 9504, Note_on_c, 1, 60, 64
1, 9593, Note_on_c, 0, 72, 0
1, 9600, Note_on_c, 0, 67, 85
1, 9630, Note_on_c, 0, 67, 0
1, 9632, Note_on_c, 0, 72, 85
1, 9662, Note_on_c, 0, 72, 0
1, 9664, Note_on_c, 0, 76, 85
1, 9681, Note_on_c, 1, 64, 0
1, 9681, Note_on_c, 1, 60, 0
1, 9694, Note_on_c, 0, 76, 0
1, 9696, Note_on_c, 0, 74, 85
1, 9696, Note_on_c, 1, 65, 64
1, 9696, Note_on_c, 1, 55, 64
1, 9726, Note_on_c, 0, 74, 0
1, 9728, Note_on_c, 0, 72, 85
1, 9758, Note_on_c, 0, 72, 0
1, 9760, Note_on_c, 0, 71, 85
1, 9785, Note_on_c, 1, 65, 0
1, 9785, Note_on_c, 1, 55, 0
1, 9790, Note_on_c, 0, 71, 0
1, 9792, Note_on_c, 0, 72, 85
1, 9792, Note_on_c, 1, 64, 64
1, 9792, Note_on_c, 1, 60, 64
1, 9881, Note_on_c, 0, 72, 0
1, 9881, Note_on_c, 1, 64, 0
1, 9881, Note_on_c, 1, 60, 0
1, 9888, Note_on_c, 0, 79, 85
1, 9918, Note_on_c, 0, 79, 0
1, 9920, Note_on_c, 0, 81, 85
1, 9950, Note_on_c, 0, 81, 0
1, 9952, Note_on_c, 0, 83, 85
1, 9982, Note_on_c, 0, 83, 0
1, 9984, Note_on_c, 0, 84, 85
1, 9984, Note_on_c, 1, 60, 64
1, 10014, Note_on_c, 0, 84, 0
1, 10016, Note_on_c, 0, 79, 85
1, 10046, Note_on_c, 0, 79, 0
1, 10048, Note_on_c, 0, 76, 85
1, 10073, Note_on_c, 1, 60, 0
1, 10078, Note_on_c, 0, 76, 0
1, 10080, Note_on_c, 0, 79, 85
1, 10080, Note_on_c, 1, 62, 64
1, 10169, Note_on_c, 1, 62, 0
1, 10176, Note_on_c, 1, 55, 64
1, 10188, Note_on_c, 0, 79, 0
1, 10188, Note_on_c, 0, 77, 85
1, 10200, Note_on_c, 0, 77, 0
1, 10200, Note_on_c, 0, 79, 85
1, 10212, Note_on_c, 0, 79, 0
1, 10212, Note_on_c, 0, 77, 85
1, 10224, Note_on_c, 0, 77, 0
1, 10224, Note_on_c, 0, 79, 85
1, 10236, Note_on_c, 0, 79, 0
1, 10236, Note_on_c, 0, 77, 85
1, 10248, Note_on_c, 0, 77, 0
1, 10248, Note_on_c, 0, 76, 85
1, 10260, Note_on_c, 0, 76, 0
1, 10260, Note_on_c, 0, 77, 85
1, 10265, Note_on_c, 1, 55, 0
1, 10272, Note_on_c, 0, 77, 0
1, 10272, Note_on_c, 0, 76, 85
1, 10272, Note_on_c, 1, 60, 64
1, 10361, Note_on_c, 0, 76, 0
1, 10361, Note_on_c, 1, 60, 0
1, 10368, Note_on_c, 0, 74, 85
1, 10368, Note_on_c, 1, 53, 64
1, 10457, Note_on_c, 0, 74, 0
1, 10457, Note_on_c, 1, 53, 0
1, 10464, Note_on_c, 0, 81, 85
1, 10494, Note_on_c, 0, 81, 0
1, 10496, Note_on_c, 0, 79, 85
1, 10526, Note_on_c, 0, 79, 0
1, 10528, Note_on_c, 0, 77, 85
1, 10558, Note_on_c, 0, 77, 0
1, 10560, Note_on_c, 0, 76, 85
1, 10590, Note_on_c, 0, 76, 0
1, 10592, Note_on_c, 0, 74, 85
1, 10622, Note_on_c, 0, 74, 0
1, 10624, Note_on_c, 0, 72, 85
1, 10654, Note_on_c, 0, 72, 0
1, 10656, Note_on_c, 0, 72, 85
1, 10656, Note_on_c, 1, 55, 64
1, 10745, Note_on_c, 1, 55, 0
1, 10752, Note_on_c, 1, 53, 64
1, 10764, Note_on_c, 0, 72, 0
1, 10764, Note_on_c, 0, 71, 85
1, 10776, Note_on_c, 0, 71, 0
1, 10776, Note_on_c, 0, 72, 85
1, 10788, Note_on_c, 0, 72, 0
1, 10788, Note_on_c, 0, 71, 85
1, 10800, Note_on_c, 0, 71, 0
1, 10800, Note_on_c, 0, 72, 85
1, 10812, Note_on_c, 0, 72, 0
1, 10812, Note_on_c, 0, 71, 85
1, 10824, Note_on_c, 0, 71, 0
1, 10824, Note_on_c, 0, 69, 85
1, 10836, Note_on_c, 0, 69, 0
1, 10836, Note_on_c, 0, 71, 85
1, 10841, Note_on_c, 1, 53, 0
1, 10848, Note_on_c, 0, 71, 0
1, 10848, Note_on_c, 0, 72, 85
1, 10848, Note_on_c, 1, 52, 64
1, 10937, Note_on_c, 0, 72, 0
1, 10937, Note_on_c, 1, 52, 0
1, 10944, Note_on_c, 0, 83, 85
1, 10944, Note_on_c, 1, 53, 64
1, 10967, Note_on_c, 0, 83, 0
1, 10968, Note_on_c, 0, 81, 85
1, 10991, Note_on_c, 0, 81, 0
1, 10992, Note_on_c, 0, 79, 85
1, 11015, Note_on_c, 0, 79, 0
1, 11016, Note_on_c, 0, 77, 85
1, 11033, Note_on_c, 1, 53, 0
1, 11039, Note_on_c, 0, 77, 0
1, 11040, Note_on_c, 0, 76, 85
1, 11040, Note_on_c, 1, 55, 64
1, 11129, Note_on_c, 1, 55, 0
1, 11136, Note_on_c, 1, 43, 64
1, 11148, Note_on_c, 0, 76, 0
1, 11148, Note_on_c, 0, 74, 85
1, 11160, Note_on_c, 0, 74, 0
1, 11160, Note_on_c, 0, 76, 85
1, 11172, Note_on_c, 0, 76, 0
1, 11172, Note_on_c, 0, 74, 85
1, 11184, Note_on_c, 0, 74, 0
1, 11184, Note_on_c, 0, 76, 85
1, 11196, Note_on_c, 0, 76, 0
1, 11196, Note_on_c, 0, 74, 85
1, 11208, Note_on_c, 0, 74, 0
1, 11208, Note_on_c, 0, 72, 85
1, 11220, Note_on_c, 0, 72, 0
1, 11220, Note_on_c, 0, 74, 85
1, 11225, Note_on_c, 1, 43, 0
1, 11232, Note_on_c, 0, 74, 0
1, 11232, Note_on_c, 0, 72, 85
1, 11232, Note_on_c, 1, 48, 64
1, 11321, Note_on_c, 0, 72, 0
1, 11321, Note_on_c, 1, 48, 0
1, 11328, Note_on_c, 1, 43, 64
1, 11417, Note_on_c, 1, 43, 0
1, 11424, Note_on_c, 1, 36, 64
1, 11513, Note_on_c, 1, 36, 0
1, 11520, Note_on_c, 1, 51, 64
1, 11520, Note_on_c, 1, 48, 64
1, 11568, Note_on_c, 0, 67, 85
1, 11609, Note_on_c, 1, 51, 0
1, 11609, Note_on_c, 1, 48, 0
1, 11613, Note_on_c, 0, 67, 0
1, 11616, Note_on_c, 0, 65, 85
1, 11661, Note_on_c, 0, 65, 0
1, 11664, Note_on_c, 0, 63, 85
1, 11709, Note_on_c, 0, 63, 0
1, 11712, Note_on_c, 0, 62, 85
1, 11757, Note_on_c, 0, 62, 0
1, 11760, Note_on_c, 0, 60, 85
1, 11805, Note_on_c, 0, 60, 0
1, 11808, Note_on_c, 0, 60, 85
1, 11904, Note_on_c, 1, 53, 64
1, 11904, Note_on_c, 1, 50, 64
1, 11993, Note_on_c, 1, 53, 0
1, 11993, Note_on_c, 1, 50, 0
1, 12000, Note_on_c, 0, 60, 0
1, 12000, Note_on_c, 0, 59, 85
1, 12000, Note_on_c, 1, 53, 64
1, 12000, Note_on_c, 1, 50, 64
1, 12089, Note_on_c, 0, 59, 0
1, 12089, Note_on_c, 1, 53, 0
1, 12089, Note_on_c, 1, 50, 0
1, 12096, Note_on_c, 1, 53, 64
1, 12096, Note_on_c, 1, 50, 64
1, 12144, Note_on_c, 0, 65, 85
1, 12185, Note_on_c, 1, 53, 0
1, 12185, Note_on_c, 1, 50, 0
1, 12189, Note_on_c, 0, 65, 0
1, 12192, Note_on_c, 0, 63, 85
1, 12237, Note_on_c, 0, 63, 0
1, 12240, Note_on_c, 0, 62, 85
1, 12285, Note_on_c, 0, 62, 0
1, 12288, Note_on_c, 0, 60, 85
1, 12333, Note_on_c, 0, 60, 0
1, 12336, Note_on_c, 0, 59, 85
1, 12381, Note_on_c, 0, 59, 0
1, 12384, Note_on_c, 0, 62, 85
1, 12480, Note_on_c, 1, 55, 64
1, 12480, Note_on_c, 1, 51, 64
1, 12569, Note_on_c, 1, 55, 0
1, 12569, Note_on_c, 1, 51, 0
1, 12576, Note_on_c, 0, 62, 0
1, 12576, Note_on_c, 0, 60, 85
1, 12576, Note_on_c, 1, 55, 64
1, 12576, Note_on_c, 1, 51, 64
1, 12665, Note_on_c, 0, 60, 0
1, 12665, Note_on_c, 1, 55, 0
1, 12665, Note_on_c, 1, 51, 0
1, 12672, Note_on_c, 1, 55, 64
1, 12672, Note_on_c, 1, 51, 64
1, 12720, Note_on_c, 0, 67, 85
1, 12761, Note_on_c, 1, 55, 0
1, 12761, Note_on_c, 1, 51, 0
1, 12765, Note_on_c, 0, 67, 0
1, 12768, Note_on_c, 0, 65, 85
1, 12813, Note_on_c, 0, 65, 0
1, 12816, Note_on_c, 0, 63, 85
1, 12861, Note_on_c, 0, 63, 0
1, 12864, Note_on_c, 0, 62, 85
1, 12909, Note_on_c, 0, 62, 0
1, 12912, Note_on_c, 0, 60, 85
1, 12957, Note_on_c, 0, 60, 0
1, 12960, Note_on_c, 1, 56, 64
1, 12960, Note_on_c, 1, 53, 64
1, 13008, Note_on_c, 0, 62, 85
1, 13049, Note_on_c, 1, 56, 0
1, 13049, Note_on_c, 1, 53, 0
1, 13053, Note_on_c, 0, 62, 0
1, 13056, Note_on_c, 0, 65, 85
1, 13101, Note_on_c, 0, 65, 0
1, 13104, Note_on_c, 0, 62, 85
1, 13149, Note_on_c, 0, 62, 0
1, 13152, Note_on_c, 0, 60, 85
1, 13197, Note_on_c, 0, 60, 0
1, 13200, Note_on_c, 0, 59, 85
1, 13245, Note_on_c, 0, 59, 0
1, 13248, Note_on_c, 0, 60, 85
1, 13248, Note_on_c, 1, 51, 64
1, 13337, Note_on_c, 0, 60, 0
1, 13337, Note_on_c, 1, 51, 0
1, 13344, Note_on_c, 0, 63, 85
1, 13344, Note_on_c, 1, 53, 64
1, 13389, Note_on_c, 0, 63, 0
1, 13392, Note_on_c, 0, 62, 85
1, 13433, Note_on_c, 1, 53, 0
1, 13437, Note_on_c, 0, 62, 0
1, 13440, Note_on_c, 0, 60, 85
1, 13440, Note_on_c, 1, 55, 64
1, 13485, Note_on_c, 0, 60, 0
1, 13488, Note_on_c, 0, 59, 85
1, 13529, Note_on_c, 1, 55, 0
1, 13533, Note_on_c, 0, 59, 0
1, 13536, Note_on_c, 0, 60, 85
1, 13536, Note_on_c, 1, 48, 64
1, 13625, Note_on_c, 0, 60, 0
1, 13625, Note_on_c, 1, 48, 0
1, 13632, Note_on_c, 1, 43, 64
1, 13721, Note_on_c, 1, 43, 0
1, 13728, Note_on_c, 1, 36, 64
1, 13817, Note_on_c, 1, 36, 0
1, 13824, Note_on_c, 1, 51, 64
1, 13824, Note_on_c, 1, 48, 64
1, 13872, Note_on_c, 0, 67, 85
1, 13913, Note_on_c, 1, 51, 0
1, 13913, Note_on_c, 1, 48, 0
1, 13917, Note_on_c, 0, 67, 0
1, 13920, Note_on_c, 0, 65, 85
1, 13965, Note_on_c, 0, 65, 0
1, 13968, Note_on_c, 0, 63, 85
1, 14013, Note_on_c, 0, 63, 0
1, 14016, Note_on_c, 0, 62, 85
1, 14061, Note_on_c, 0, 62, 0
1, 14064, Note_on_c, 0, 60, 85
1, 14109, Note_on_c, 0, 60, 0
1, 14112, Note_on_c, 0, 60, 85
1, 14208, Note_on_c, 1, 53, 64
1, 14208, Note_on_c, 1, 50, 64
1, 14297, Note_on_c, 1, 53, 0
1, 14297, Note_on_c, 1, 50, 0
1, 14304, Note_on_c, 0, 60, 0
1, 14304, Note_on_c, 0, 59, 85
1, 14304, Note_on_c, 1, 53, 64
1, 14304, Note_on_c, 1, 50, 64
1, 14393, Note_on_c, 0, 59, 0
1, 14393, Note_on_c, 1, 53, 0
1, 14393, Note_on_c, 1, 50, 0
1, 14400, Note_on_c, 1, 53, 64
1, 14400, Note_on_c, 1, 50, 64
1, 14448, Note_on_c, 0, 65, 85
1, 14489, Note_on_c, 1, 53, 0
1, 14489, Note_on_c, 1, 50, 0
1, 14493, Note_on_c, 0, 65, 0
1, 14496, Note_on_c, 0, 63, 85
1, 14541, Note_on_c, 0, 63, 0
1, 14544, Note_on_c, 0, 62, 85
1, 14589, Note_on_c, 0, 62, 0
1, 14592, Note_on_c, 0, 60, 85
1, 14637, Note_on_c, 0, 60, 0
1, 14640, Note_on_c, 0, 59, 85
1, 14685, Note_on_c, 0, 59, 0
1, 14688, Note_on_c, 0, 62, 85
1, 14784, Note_on_c, 1, 55, 64
1, 14784, Note_on_c, 1, 51, 64
1, 14873, Note_on_c, 1, 55, 0
1, 14873, Note_on_c, 1, 51, 0
1, 14880, Note_on_c, 0, 62, 0
1, 14880, Note_on_c, 0, 60, 85
1, 14880, Note_on_c, 1, 55, 64
1, 14880, Note_on_c, 1, 51, 64
1, 14969, Note_on_c, 0, 60, 0
1, 14969, Note_on_c, 1, 55, 0
1, 14969, Note_on_c, 1, 51, 0
1, 14976, Note_on_c, 1, 55, 64
1, 14976, Note_on_c, 1, 51, 64
1, 15024, Note_on_c, 0, 67, 85
1, 15065, Note_on_c, 1, 55, 0
1, 15065, Note_on_c, 1, 51, 0
1, 15069, Note_on_c, 0, 67, 0
1, 15072, Note_on_c, 0, 65, 85
1, 15117, Note_on_c, 0, 65, 0
1, 15120, Note_on_c, 0, 63, 85
1, 15165, Note_on_c, 0, 63, 0
1, 15168, Note_on_c, 0, 62, 85
1, 15213, Note_on_c, 0, 62, 0
1, 15216, Note_on_c, 0, 60, 85
1, 15261, Note_on_c, 0, 60, 0
1, 15264, Note_on_c, 1, 56, 64
1, 15264, Note_on_c, 1, 53, 64
1, 15312, Note_on_c, 0, 62, 85
1, 15353, Note_on_c, 1, 56, 0
1, 15353, Note_on_c, 1, 53, 0
1, 15357, Note_on_c, 0, 62, 0
1, 15360, Note_on_c, 0, 65, 85
1, 15405, Note_on_c, 0, 65, 0
1, 15408, Note_on_c, 0, 62, 85
1, 15453, Note_on_c, 0, 62, 0
1, 15456, Note_on_c, 0, 60, 85
1, 15501, Note_on_c, 0, 60, 0
1, 15504, Note_on_c, 0, 59, 85
1, 15549, Note_on_c, 0, 59, 0
1, 15552, Note_on_c, 0, 60, 85
1, 15552, Note_on_c, 1, 51, 64
1, 15641, Note_on_c, 0, 60, 0
1, 15641, Note_on_c, 1, 51, 0
1, 15648, Note_on_c, 0, 63, 85
1, 15648, Note_on_c, 1, 53, 64
1, 15693, Note_on_c, 0, 63, 0
1, 15696, Note_on_c, 0, 62, 85
1, 15737, Note_on_c, 1, 53, 0
1, 15741, Note_on_c, 0, 62, 0
1, 15744, Note_on_c, 0, 60, 85
1, 15744, Note_on_c, 1, 55, 64
1, 15789, Note_on_c, 0, 60, 0
1, 15792, Note_on_c, 0, 59, 85
1, 15833, Note_on_c, 1, 55, 0
1, 15837, Note_on_c, 0, 59, 0
1, 15840, Note_on_c, 0, 60, 85
1, 15840, Note_on_c, 1, 48, 64
1, 15929, Note_on_c, 0, 60, 0
1, 15929, Note_on_c, 1, 48, 0
1, 15936, Note_on_c, 1, 43, 64
1, 16025, Note_on_c, 1, 43, 0
1, 16032, Note_on_c, 1, 36, 64
1, 16121, Note_on_c, 1, 36, 0
1, 16128, Note_on_c, 1, 51, 64
1, 16128, Note_on_c, 1, 43, 64
1, 16176, Note_on_c, 0, 70, 85
1, 16217, Note_on_c, 1, 51, 0
1, 16217, Note_on_c, 1, 43, 0
1, 16221, Note_on_c, 0, 70, 0
1, 16224, Note_on_c, 0, 68, 85
1, 16269, Note_on_c, 0, 68, 0
1, 16272, Note_on_c, 0, 67, 85
1, 16317, Note_on_c, 0, 67, 0
1, 16320, Note_on_c, 0, 65, 85
1, 16365, Note_on_c, 0, 65, 0
1, 16368, Note_on_c, 0, 63, 85
1, 16413, Note_on_c, 0, 63, 0
1, 16416, Note_on_c, 1, 51, 64
1, 16416, Note_on_c, 1, 44, 64
1, 16464, Note_on_c, 0, 72, 85
1, 16505, Note_on_c, 1, 51, 0
1, 16505, Note_on_c, 1, 44, 0
1, 16509, Note_on_c, 0, 72, 0
1, 16512, Note_on_c, 0, 70, 85
1, 16557, Note_on_c, 0, 70, 0
1, 16560, Note_on_c, 0, 68, 85
1, 16605, Note_on_c, 0, 68, 0
1, 16608, Note_on_c, 0, 67, 85
1, 16653, Note_on_c, 0, 67, 0
1, 16656, Note_on_c, 0, 65, 85
1, 16701, Note_on_c, 0, 65, 0
1, 16704, Note_on_c, 1, 50, 64
1, 16704, Note_on_c, 1, 46, 64
1, 16752, Note_on_c, 0, 68, 85
1, 16793, Note_on_c, 1, 50, 0
1, 16793, Note_on_c, 1, 46, 0
1, 16797, Note_on_c, 0, 68, 0
1, 16800, Note_on_c, 0, 67, 85
1, 16845, Note_on_c, 0, 67, 0
1, 16848, Note_on_c, 0, 65, 85
1, 16893, Note_on_c, 0, 65, 0
1, 16896, Note_on_c, 0, 63, 85
1, 16941, Note_on_c, 0, 63, 0
1, 16944, Note_on_c, 0, 62, 85
1, 16989, Note_on_c, 0, 62, 0
1, 16992, Note_on_c, 1, 48, 64
1, 17040, Note_on_c, 0, 63, 85
1, 17081, Note_on_c, 1, 48, 0
1, 17088, Note_on_c, 1, 60, 64
1, 17129, Note_on_c, 0, 63, 0
1, 17136, Note_on_c, 0, 68, 85
1, 17177, Note_on_c, 1, 60, 0
1, 17184, Note_on_c, 1, 58, 64
1, 17225, Note_on_c, 0, 68, 0
1, 17232, Note_on_c, 0, 67, 85
1, 17273, Note_on_c, 1, 58, 0
1, 17277, Note_on_c, 0, 67, 0
1, 17280, Note_on_c, 1, 44, 64
1, 17328, Note_on_c, 0, 65, 85
1, 17369, Note_on_c, 1, 44, 0
1, 17376, Note_on_c, 1, 56, 64
1, 17417, Note_on_c, 0, 65, 0
1, 17424, Note_on_c, 0, 72, 85
1, 17465, Note_on_c, 1, 56, 0
1, 17472, Note_on_c, 1, 55, 64
1, 17513, Note_on_c, 0, 72, 0
1, 17520, Note_on_c, 0, 70, 85
1, 17561, Note_on_c, 1, 55, 0
1, 17568, Note_on_c, 1, 56, 64
1, 17613, Note_on_c, 0, 70, 0
1, 17616, Note_on_c, 0, 68, 85
1, 17657, Note_on_c, 1, 56, 0
1, 17664, Note_on_c, 1, 58, 64
1, 17705, Note_on_c, 0, 68, 0
1, 17712, Note_on_c, 0, 67, 85
1, 17753, Note_on_c, 1, 58, 0
1, 17760, Note_on_c, 1, 46, 64
1, 17801, Note_on_c, 0, 67, 0
1, 17808, Note_on_c, 0, 65, 85
1, 17849, Note_on_c, 1, 46, 0
1, 17853, Note_on_c, 0, 65, 0
1, 17856, Note_on_c, 0, 65, 85
1, 17856, Note_on_c, 1, 51, 64
1, 17945, Note_on_c, 0, 65, 0
1, 17952, Note_on_c, 0, 63, 85
1, 17989, Note_on_c, 1, 51, 0
1, 18000, Note_on_c, 1, 53, 64
1, 18041, Note_on_c, 0, 63, 0
1, 18045, Note_on_c, 1, 53, 0
1, 18048, Note_on_c, 1, 51, 64
1, 18093, Note_on_c, 1, 51, 0
1, 18096, Note_on_c, 1, 50, 64
1, 18141, Note_on_c, 1, 50, 0
1, 18144, Note_on_c, 1, 51, 64
1, 18144, Note_on_c, 1, 48, 64
1, 18192, Note_on_c, 0, 67, 85
1, 18233, Note_on_c, 1, 51, 0
1, 18233, Note_on_c, 1, 48, 0
1, 18237, Note_on_c, 0, 67, 0
1, 18240, Note_on_c, 0, 65, 85
1, 18285, Note_on_c, 0, 65, 0
1, 18288, Note_on_c, 0, 63, 85
1, 18333, Note_on_c, 0, 63, 0
1, 18336, Note_on_c, 0, 62, 85
1, 18381, Note_on_c, 0, 62, 0
1, 18384, Note_on_c, 0, 60, 85
1, 18429, Note_on_c, 0, 60, 0
1, 18432, Note_on_c, 0, 60, 85
1, 18528, Note_on_c, 1, 53, 64
1, 18528, Note_on_c, 1, 50, 64
1, 18617, Note_on_c, 1, 53, 0
1, 18617, Note_on_c, 1, 50, 0
1, 18624, Note_on_c, 0, 60, 0
1, 18624, Note_on_c, 0, 59, 85
1, 18624, Note_on_c, 1, 53, 64
1, 18624, Note_on_c, 1, 50, 64
1, 18713, Note_on_c, 0, 59, 0
1, 18713, Note_on_c, 1, 53, 0
1, 18713, Note_on_c, 1, 50, 0
1, 18720, Note_on_c, 1, 53, 64
1, 18720, Note_on_c, 1, 50, 64
1, 18768, Note_on_c, 0, 65, 85
1, 18809, Note_on_c, 1, 53, 0
1, 18809, Note_on_c, 1, 50, 0
1, 18813, Note_on_c, 0, 65, 0
1, 18816, Note_on_c, 0, 63, 85
1, 18861, Note_on_c, 0, 63, 0
1, 18864, Note_on_c, 0, 62, 85
1, 18909, Note_on_c, 0, 62, 0
1, 18912, Note_on_c, 0, 60, 85
1, 18957, Note_on_c, 0, 60, 0
1, 18960, Note_on_c, 0, 59, 85
1, 19005, Note_on_c, 0, 59, 0
1, 19008, Note_on_c, 0, 62, 85
1, 19104, Note_on_c, 1, 55, 64
1, 19104, Note_on_c, 1, 51, 64
1, 19193, Note_on_c, 1, 55, 0
1, 19193, Note_on_c, 1, 51, 0
1, 19200, Note_on_c, 0, 62, 0
1, 19200, Note_on_c, 0, 60, 85
1, 19200, Note_on_c, 1, 55, 64
1, 19200, Note_on_c, 1, 51, 64
1, 19289, Note_on_c, 0, 60, 0
1, 19289, Note_on_c, 1, 55, 0
1, 19289, Note_on_c, 1, 51, 0
1, 19296, Note_on_c, 1, 55, 64
1, 19296, Note_on_c, 1, 51, 64
1, 19344, Note_on_c, 0, 67, 85
1, 19385, Note_on_c, 1, 55, 0
1, 19385, Note_on_c, 1, 51, 0
1, 19389, Note_on_c, 0, 67, 0
1, 19392, Note_on_c, 0, 65, 85
1, 19437, Note_on_c, 0, 65, 0
1, 19440, Note_on_c, 0, 63, 85
1, 19485, Note_on_c, 0, 63, 0
1, 19488, Note_on_c, 0, 62, 85
1, 19533, Note_on_c, 0, 62, 0
1, 19536, Note_on_c, 0, 60, 85
1, 19581, Note_on_c, 0, 60, 0
1, 19584, Note_on_c, 1, 56, 64
1, 19584, Note_on_c, 1, 53, 64
1, 19632, Note_on_c, 0, 62, 85
1, 19673, Note_on_c, 1, 56, 0
1, 19673, Note_on_c, 1, 53, 0
1, 19677, Note_on_c, 0, 62, 0
1, 19680, Note_on_c, 0, 65, 85
1, 19725, Note_on_c, 0, 65, 0
1, 19728, Note_on_c, 0, 62, 85
1, 19773, Note_on_c, 0, 62, 0
1, 19776, Note_on_c, 0, 60, 85
1, 19821, Note_on_c, 0, 60, 0
1, 19824, Note_on_c, 0, 59, 85
1, 19869, Note_on_c, 0, 59, 0
1, 19872, Note_on_c, 0, 60, 85
1, 19872, Note_on_c, 1, 51, 64
1, 19961, Note_on_c, 0, 60, 0
1, 19961, Note_on_c, 1, 51, 0
1, 19968, Note_on_c, 0, 63, 85
1, 19968, Note_on_c, 1, 53, 64
1, 20013, Note_on_c, 0, 63, 0
1, 20016, Note_on_c, 0, 62, 85
1, 20057, Note_on_c, 1, 53, 0
1, 20061, Note_on_c, 0, 62, 0
1, 20064, Note_on_c, 0, 60, 85
1, 20064, Note_on_c, 1, 55, 64
1, 20109, Note_on_c, 0, 60, 0
1, 20112, Note_on_c, 0, 59, 85
1, 20153, Note_on_c, 1, 55, 0
1, 20157, Note_on_c, 0, 59, 0
1, 20160, Note_on_c, 0, 60, 85
1, 20160, Note_on_c, 1, 48, 64
1, 20249, Note_on_c, 0, 60, 0
1, 20249, Note_on_c, 1, 48, 0
1, 20256, Note_on_c, 1, 43, 64
1, 20345, Note_on_c, 1, 43, 0
1, 20352, Note_on_c, 1, 36, 64
1, 20441, Note_on_c, 1, 36, 0
1, 20448, Note_on_c, 1, 51, 64
1, 20448, Note_on_c, 1, 43, 64
1, 20496, Note_on_c, 0, 70, 85
1, 20537, Note_on_c, 1, 51, 0
1, 20537, Note_on_c, 1, 43, 0
1, 20541, Note_on_c, 0, 70, 0
1, 20544, Note_on_c, 0, 68, 85
1, 20589, Note_on_c, 0, 68, 0
1, 20592, Note_on_c, 0, 67, 85
1, 20637, Note_on_c, 0, 67, 0
1, 20640, Note_on_c, 0, 65, 85
1, 20685, Note_on_c, 0, 65, 0
1, 20688, Note_on_c, 0, 63, 85
1, 20733, Note_on_c, 0, 63, 0
1, 20736, Note_on_c, 1, 51, 64
1, 20736, Note_on_c, 1, 44, 64
1, 20784, Note_on_c, 0, 72, 85
1, 20825, Note_on_c, 1, 51, 0
1, 20825, Note_on_c, 1, 44, 0
1, 20829, Note_on_c, 0, 72, 0
1, 20832, Note_on_c, 0, 70, 85
1, 20877, Note_on_c, 0, 70, 0
1, 20880, Note_on_c, 0, 68, 85
1, 20925, Note_on_c, 0, 68, 0
1, 20928, Note_on_c, 0, 67, 85
1, 20973, Note_on_c, 0, 67, 0
1, 20976, Note_on_c, 0, 65, 85
1, 21021, Note_on_c, 0, 65, 0
1, 21024, Note_on_c, 1, 50, 64
1, 21024, Note_on_c, 1, 46, 64
1, 21072, Note_on_c, 0, 68, 85
1, 21113, Note_on_c, 1, 50, 0
1, 21113, Note_on_c, 1, 46, 0
1, 21117, Note_on_c, 0, 68, 0
1, 21120, Note_on_c, 0, 67, 85
1, 21165, Note_on_c, 0, 67, 0
1, 21168, Note_on_c, 0, 65, 85
1, 21213, Note_on_c, 0, 65, 0
1, 21216, Note_on_c, 0, 63, 85
1, 21261, Note_on_c, 0, 63, 0
1, 21264, Note_on_c, 0, 62, 85
1, 21309, Note_on_c, 0, 62, 0
1, 21312, Note_on_c, 1, 48, 64
1, 21360, Note_on_c, 0, 63, 85
1, 21401, Note_on_c, 1, 48, 0
1, 21408, Note_on_c, 1, 60, 64
1, 21449, Note_on_c, 0, 63, 0
1, 21456, Note_on_c, 0, 68, 85
1, 21497, Note_on_c, 1, 60, 0
1, 21504, Note_on_c, 1, 58, 64
1, 21545, Note_on_c, 0, 68, 0
1, 21552, Note_on_c, 0, 67, 85
1, 21593, Note_on_c, 1, 58, 0
1, 21597, Note_on_c, 0, 67, 0
1, 21600, Note_on_c, 1, 44, 64
1, 21648, Note_on_c, 0, 65, 85
1, 21689, Note_on_c, 1, 44, 0
1, 21696, Note_on_c, 1, 56, 64
1, 21737, Note_on_c, 0, 65, 0
1, 21744, Note_on_c, 0, 72, 85
1, 21785, Note_on_c, 1, 56, 0
1, 21792, Note_on_c, 1, 55, 64
1, 21833, Note_on_c, 0, 72, 0
1, 21840, Note_on_c, 0, 70, 85
1, 21881, Note_on_c, 1, 55, 0
1, 21888, Note_on_c, 1, 56, 64
1, 21933, Note_on_c, 0, 70, 0
1, 21936, Note_on_c, 0, 68, 85
1, 21977, Note_on_c, 1, 56, 0
1, 21984, Note_on_c, 1, 58, 64
1, 22025, Note_on_c, 0, 68, 0
1, 22032, Note_on_c, 0, 67, 85
1, 22073, Note_on_c, 1, 58, 0
1, 22080, Note_on_c, 1, 46, 64
1, 22121, Note_on_c, 0, 67, 0
1, 22128, Note_on_c, 0, 65, 85
1, 22169, Note_on_c, 1, 46, 0
1, 22173, Note_on_c, 0, 65, 0
1, 22176, Note_on_c, 0, 65, 85
1, 22176, Note_on_c, 1, 51, 64
1, 22265, Note_on_c, 0, 65, 0
1, 22272, Note_on_c, 0, 63, 85
1, 22309, Note_on_c, 1, 51, 0
1, 22320, Note_on_c, 1, 53, 64
1, 22361, Note_on_c, 0, 63, 0
1, 22365, Note_on_c, 1, 53, 0
1, 22368, Note_on_c, 1, 51, 64
1, 22413, Note_on_c, 1, 51, 0
1, 22416, Note_on_c, 1, 50, 64
1, 22461, Note_on_c, 1, 50, 0
1, 22464, Note_on_c, 1, 51, 64
1, 22464, Note_on_c, 1, 48, 64
1, 22512, Note_on_c, 0, 67, 85
1, 22553, Note_on_c, 1, 51, 0
1, 22553, Note_on_c, 1, 48, 0
1, 22557, Note_on_c, 0, 67, 0
1, 22560, Note_on_c, 0, 65, 85
1, 22605, Note_on_c, 0, 65, 0
1, 22608, Note_on_c, 0, 63, 85
1, 22653, Note_on_c, 0, 63, 0
1, 22656, Note_on_c, 0, 62, 85
1, 22701, Note_on_c, 0, 62, 0
1, 22704, Note_on_c, 0, 60, 85
1, 22749, Note_on_c, 0, 60, 0
1, 22752, Note_on_c, 0, 60, 85
1, 22848, Note_on_c, 1, 53, 64
1, 22848, Note_on_c, 1, 50, 64
1, 22937, Note_on_c, 1, 53, 0
1, 22937, Note_on_c, 1, 50, 0
1, 22944, Note_on_c, 0, 60, 0
1, 22944, Note_on_c, 0, 59, 85
1, 22944, Note_on_c, 1, 53, 64
1, 22944, Note_on_c, 1, 50, 64
1, 23033, Note_on_c, 0, 59, 0
1, 23033, Note_on_c, 1, 53, 0
1, 23033, Note_on_c, 1, 50, 0
1, 23040, Note_on_c, 1, 53, 64
1, 23040, Note_on_c, 1, 50, 64
1, 23088, Note_on_c, 0, 65, 85
1, 23129, Note_on_c, 1, 53, 0
1, 23129, Note_on_c, 1, 50, 0
1, 23133, Note_on_c, 0, 65, 0
1, 23136, Note_on_c, 0, 63, 85
1, 23181, Note_on_c, 0, 63, 0
1, 23184, Note_on_c, 0, 62, 85
1, 23229, Note_on_c, 0, 62, 0
1, 23232, Note_on_c, 0, 60, 85
1, 23277, Note_on_c, 0, 60, 0
1, 23280, Note_on_c, 0, 59, 85
1, 23325, Note_on_c, 0, 59, 0
1, 23328, Note_on_c, 0, 62, 85
1, 23424, Note_on_c, 1, 55, 64
1, 23424, Note_on_c, 1, 51, 64
1, 23513, Note_on_c, 1, 55, 0
1, 23513, Note_on_c, 1, 51, 0
1, 23520, Note_on_c, 0, 62, 0
1, 23520, Note_on_c, 0, 60, 85
1, 23520, Note_on_c, 1, 55, 64
1, 23520, Note_on_c, 1, 51, 64
1, 23609, Note_on_c, 0, 60, 0
1, 23609, Note_on_c, 1, 55, 0
1, 23609, Note_on_c, 1, 51, 0
1, 23616, Note_on_c, 1, 55, 64
1, 23616, Note_on_c, 1, 51, 64
1, 23664, Note_on_c, 0, 67, 85
1, 23705, Note_on_c, 1, 55, 0
1, 23705, Note_on_c, 1, 51, 0
1, 23709, Note_on_c, 0, 67, 0
1, 23712, Note_on_c, 0, 65, 85
1, 23757, Note_on_c, 0, 65, 0
1, 23760, Note_on_c, 0, 63, 85
1, 23805, Note_on_c, 0, 63, 0
1, 23808, Note_on_c, 0, 62, 85
1, 23853, Note_on_c, 0, 62, 0
1, 23856, Note_on_c, 0, 60, 85
1, 23901, Note_on_c, 0, 60, 0
1, 23904, Note_on_c, 1, 56, 64
1, 23904, Note_on_c, 1, 53, 64
1, 23952, Note_on_c, 0, 62, 85
1, 23993, Note_on_c, 1, 56, 0
1, 23993, Note_on_c, 1, 53, 0
1, 23997, Note_on_c, 0, 62, 0
1, 24000, Note_on_c, 0, 65, 85
1, 24045, Note_on_c, 0, 65, 0
1, 24048, Note_on_c, 0, 62, 85
1, 24093, Note_on_c, 0, 62, 0
1, 24096, Note_on_c, 0, 60, 85
1, 24141, Note_on_c, 0, 60, 0
1, 24144, Note_on_c, 0, 59, 85
1, 24189, Note_on_c, 0, 59, 0
1, 24192, Note_on_c, 0, 60, 85
1, 24192, Note_on_c, 1, 51, 64
1, 24281, Note_on_c, 0, 60, 0
1, 24281, Note_on_c, 1, 51, 0
1, 24288, Note_on_c, 0, 63, 85
1, 24288, Note_on_c, 1, 53, 64
1, 24333, Note_on_c, 0, 63, 0
1, 24336, Note_on_c, 0, 62, 85
1, 24377, Note_on_c, 1, 53, 0
1, 24381, Note_on_c, 0, 62, 0
1, 24384, Note_on_c, 0, 60, 85
1, 24384, Note_on_c, 1, 55, 64
1, 24429, Note_on_c, 0, 60, 0
1, 24432, Note_on_c, 0, 59, 85
1, 24473, Note_on_c, 1, 55, 0
1, 24477, Note_on_c, 0, 59, 0
1, 24480, Note_on_c, 0, 60, 85
1, 24480, Note_on_c, 1, 48, 64
1, 24569, Note_on_c, 0, 60, 0
1, 24569, Note_on_c, 1, 48, 0
1, 24576, Note_on_c, 1, 43, 64
1, 24665, Note_on_c, 1, 43, 0
1, 24672, Note_on_c, 1, 36, 64
1, 24761, Note_on_c, 1, 36, 0
1, 24768, Note_on_c, 0, 74, 85
1, 24768, Note_on_c, 1, 64, 64
1, 24768, Note_on_c, 1, 60, 64
1, 24780, Note_on_c, 0, 74, 0
1, 24780, Note_on_c, 0, 72, 85
1, 24792, Note_on_c, 0, 72, 0
1, 24792, Note_on_c, 0, 71, 85
1, 24804, Note_on_c, 0, 71, 0
1, 24804, Note_on_c, 0, 72, 85
1, 24861, Note_on_c, 0, 72, 0
1, 24864, Note_on_c, 0, 67, 85
1, 24894, Note_on_c, 0, 67, 0
1, 24896, Note_on_c, 0, 72, 85
1, 24926, Note_on_c, 0, 72, 0
1, 24928, Note_on_c, 0, 76, 85
1, 24945, Note_on_c, 1, 64, 0
1, 24945, Note_on_c, 1, 60, 0
1, 24958, Note_on_c, 0, 76, 0
1, 24960, Note_on_c, 0, 74, 85
1, 24960, Note_on_c, 1, 65, 64
1, 24960, Note_on_c, 1, 55, 64
1, 24990, Note_on_c, 0, 74, 0
1, 24992, Note_on_c, 0, 72, 85
1, 25022, Note_on_c, 0, 72, 0
1, 25024, Note_on_c, 0, 71, 85
1, 25049, Note_on_c, 1, 65, 0
1, 25049, Note_on_c, 1, 55, 0
1, 25054, Note_on_c, 0, 71, 0
1, 25056, Note_on_c, 0, 72, 85
1, 25056, Note_on_c, 1, 64, 64
1, 25056, Note_on_c, 1, 60, 64
1, 25145, Note_on_c, 0, 72, 0
1, 25152, Note_on_c, 0, 67, 85
1, 25182, Note_on_c, 0, 67, 0
1, 25184, Note_on_c, 0, 72, 85
1, 25214, Note_on_c, 0, 72, 0
1, 25216, Note_on_c, 0, 76, 85
1, 25233, Note_on_c, 1, 64, 0
1, 25233, Note_on_c, 1, 60, 0
1, 25246, Note_on_c, 0, 76, 0
1, 25248, Note_on_c, 0, 74, 85
1, 25248, Note_on_c, 1, 65, 64
1, 25248, Note_on_c, 1, 55, 64
1, 25278, Note_on_c, 0, 74, 0
1, 25280, Note_on_c, 0, 72, 85
1, 25310, Note_on_c, 0, 72, 0
1, 25312, Note_on_c, 0, 71, 85
1, 25337, Note_on_c, 1, 65, 0
1, 25337, Note_on_c, 1, 55, 0
1, 25342, Note_on_c, 0, 71, 0
1, 25344, Note_on_c, 0, 72, 85
1, 25344, Note_on_c, 1, 64, 64
1, 25344, Note_on_c, 1, 60, 64
1, 25433, Note_on_c, 0, 72, 0
1, 25433, Note_on_c, 1, 64, 0
1, 25433, Note_on_c, 1, 60, 0
1, 25440, Note_on_c, 0, 79, 85
1, 25470, Note_on_c, 0, 79, 0
1, 25472, Note_on_c, 0, 81, 85
1, 25502, Note_on_c, 0, 81, 0
1, 25504, Note_on_c, 0, 83, 85
1, 25534, Note_on_c, 0, 83, 0
1, 25536, Note_on_c, 0, 84, 85
1, 25536, Note_on_c, 1, 60, 64
1, 25566, Note_on_c, 0, 84, 0
1, 25568, Note_on_c, 0, 79, 85
1, 25598, Note_on_c, 0, 79, 0
1, 25600, Note_on_c, 0, 76, 85
1, 25625, Note_on_c, 1, 60, 0
1, 25630, Note_on_c, 0, 76, 0
1, 25632, Note_on_c, 0, 79, 85
1, 25632, Note_on_c, 1, 62, 64
1, 25721, Note_on_c, 1, 62, 0
1, 25728, Note_on_c, 1, 55, 64
1, 25740, Note_on_c, 0, 79, 0
1, 25740, Note_on_c, 0, 77, 85
1, 25752, Note_on_c, 0, 77, 0
1, 25752, Note_on_c, 0, 79, 85
1, 25764, Note_on_c, 0, 79, 0
1, 25764, Note_on_c, 0, 77, 85
1, 25776, Note_on_c, 0, 77, 0
1, 25776, Note_on_c, 0, 79, 85
1, 25788, Note_on_c, 0, 79, 0
1, 25788, Note_on_c, 0, 77, 85
1, 25800, Note_on_c, 0, 77, 0
1, 25800, Note_on_c, 0, 76, 85
1, 25812, Note_on_c, 0, 76, 0
1, 25812, Note_on_c, 0, 77, 85
1, 25817, Note_on_c, 1, 55, 0
1, 25824, Note_on_c, 0, 77, 0
1, 25824, Note_on_c, 0, 76, 85
1, 25824, Note_on_c, 1, 60, 64
1, 25913, Note_on_c, 0, 76, 0
1, 25913, Note_on_c, 1, 60, 0
1, 25920, Note_on_c, 0, 74, 85
1, 25920, Note_on_c, 1, 53, 64
1, 26009, Note_on_c, 0, 74, 0
1, 26009, Note_on_c, 1, 53, 0
1, 26016, Note_on_c, 0, 81, 85
1, 26046, Note_on_c, 0, 81, 0
1, 26048, Note_on_c, 0, 79, 85
1, 26078, Note_on_c, 0, 79, 0
1, 26080, Note_on_c, 0, 77, 85
1, 26110, Note_on_c, 0, 77, 0
1, 26112, Note_on_c, 0, 76, 85
1, 26142, Note_on_c, 0, 76, 0
1, 26144, Note_on_c, 0, 74, 85
1, 26174, Note_on_c, 0, 74, 0
1, 26176, Note_on_c, 0, 72, 85
1, 26206, Note_on_c, 0, 72, 0
1, 26208, Note_on_c, 0, 72, 85
1, 26208, Note_on_c, 1, 55, 64
1, 26297, Note_on_c, 1, 55, 0
1, 26304, Note_on_c, 1, 53, 64
1, 26316, Note_on_c, 0, 72, 0
1, 26316, Note_on_c, 0, 71, 85
1, 26328, Note_on_c, 0, 71, 0
1, 26328, Note_on_c, 0, 72, 85
1, 26340, Note_on_c, 0, 72, 0
1, 26340, Note_on_c, 0, 71, 85
1, 26352, Note_on_c, 0, 71, 0
1, 26352, Note_on_c, 0, 72, 85
1, 26364, Note_on_c, 0, 72, 0
1, 26364, Note_on_c, 0, 71, 85
1, 26376, Note_on_c, 0, 71, 0
1, 26376, Note_on_c, 0, 69, 85
1, 26388, Note_on_c, 0, 69, 0
1, 26388, Note_on_c, 0, 71, 85
1, 26393, Note_on_c, 1, 53, 0
1, 26400, Note_on_c, 0, 71, 0
1, 26400, Note_on_c, 0, 72, 85
1, 26400, Note_on_c, 1, 52, 64
1, 26489, Note_on_c, 0, 72, 0
1, 26489, Note_on_c, 1, 52, 0
1, 26496, Note_on_c, 0, 67, 85
1, 26585, Note_on_c, 0, 67, 0
1, 26592, Note_on_c, 0, 77, 85
1, 26592, Note_on_c, 0, 74, 85
1, 26592, Note_on_c, 1, 59, 64
1, 26681, Note_on_c, 0, 77, 0
1, 26681, Note_on_c, 0, 74, 0
1, 26681, Note_on_c, 1, 59, 0
1, 26688, Note_on_c, 0, 76, 85
1, 26688, Note_on_c, 0, 72, 85
1, 26688, Note_on_c, 1, 60, 64
1, 26777, Note_on_c, 0, 76, 0
1, 26777, Note_on_c, 0, 72, 0
1, 26777, Note_on_c, 1, 60, 0
1, 26784, Note_on_c, 0, 76, 85
1, 26784, Note_on_c, 0, 72, 85
1, 26784, Note_on_c, 1, 55, 64
1, 26873, Note_on_c, 0, 76, 0
1, 26873, Note_on_c, 0, 72, 0
1, 26873, Note_on_c, 1, 55, 0
1, 26880, Note_on_c, 0, 74, 85
1, 26880, Note_on_c, 0, 71, 85
1, 26880, Note_on_c, 1, 67, 64
1, 26969, Note_on_c, 0, 74, 0
1, 26969, Note_on_c, 0, 71, 0
1, 26969, Note_on_c, 1, 67, 0
1, 26976, Note_on_c, 1, 55, 64
1, 27065, Note_on_c, 1, 55, 0
1, 27072, Note_on_c, 0, 74, 85
1, 27072, Note_on_c, 1, 64, 64
1, 27072, Note_on_c, 1, 60, 64
1, 27084, Note_on_c, 0, 74, 0
1, 27084, Note_on_c, 0, 72, 85
1, 27096, Note_on_c, 0, 72, 0
1, 27096, Note_on_c, 0, 71, 85
1, 27108, Note_on_c, 0, 71, 0
1, 27108, Note_on_c, 0, 72, 85
1, 27165, Note_on_c, 0, 72, 0
1, 27168, Note_on_c, 0, 67, 85
1, 27198, Note_on_c, 0, 67, 0
1, 27200, Note_on_c, 0, 72, 85
1, 27230, Note_on_c, 0, 72, 0
1, 27232, Note_on_c, 0, 76, 85
1, 27249, Note_on_c, 1, 64, 0
1, 27249, Note_on_c, 1, 60, 0
1, 27262, Note_on_c, 0, 76, 0
1, 27264, Note_on_c, 0, 74, 85
1, 27264, Note_on_c, 1, 65, 64
1, 27264, Note_on_c, 1, 55, 64
1, 27294, Note_on_c, 0, 74, 0
1, 27296, Note_on_c, 0, 72, 85
1, 27326, Note_on_c, 0, 72, 0
1, 27328, Note_on_c, 0, 71, 85
1, 27353, Note_on_c, 1, 65, 0
1, 27353, Note_on_c, 1, 55, 0
1, 27358, Note_on_c, 0, 71, 0
1, 27360, Note_on_c, 0, 72, 85
1, 27360, Note_on_c, 1, 64, 64
1, 27360, Note_on_c, 1, 60, 64
1, 27449, Note_on_c, 0, 72, 0
1, 27456, Note_on_c, 0, 67, 85
1, 27486, Note_on_c, 0, 67, 0
1, 27488, Note_on_c, 0, 72, 85
1, 27518, Note_on_c, 0, 72, 0
1, 27520, Note_on_c, 0, 76, 85
1, 27537, Note_on_c, 1, 64, 0
1, 27537, Note_on_c, 1, 60, 0
1, 27550, Note_on_c, 0, 76, 0
1, 27552, Note_on_c, 0, 74, 85
1, 27552, Note_on_c, 1, 65, 64
1, 27552, Note_on_c, 1, 55, 64
1, 27582, Note_on_c, 0, 74, 0
1, 27584, Note_on_c, 0, 72, 85
1, 27614, Note_on_c, 0, 72, 0
1, 27616, Note_on_c, 0, 71, 85
1, 27641, Note_on_c, 1, 65, 0
1, 27641, Note_on_c, 1, 55, 0
1, 27646, Note_on_c, 0, 71, 0
1, 27648, Note_on_c, 0, 72, 85
1, 27648, Note_on_c, 1, 64, 64
1, 27648, Note_on_c, 1, 60, 64
1, 27737, Note_on_c, 0, 72, 0
1, 27737, Note_on_c, 1, 64, 0
1, 27737, Note_on_c, 1, 60, 0
1, 27744, Note_on_c, 0, 79, 85
1, 27774, Note_on_c, 0, 79, 0
1, 27776, Note_on_c, 0, 81, 85
1, 27806, Note_on_c, 0, 81, 0
1, 27808, Note_on_c, 0, 83, 85
1, 27838, Note_on_c, 0, 83, 0
1, 27840, Note_on_c, 0, 84, 85
1, 27840, Note_on_c, 1, 60, 64
1, 27870, Note_on_c, 0, 84, 0
1, 27872, Note_on_c, 0, 79, 85
1, 27902, Note_on_c, 0, 79, 0
1, 27904, Note_on_c, 0, 76, 85
1, 27929, Note_on_c, 1, 60, 0
1, 27934, Note_on_c, 0, 76, 0
1, 27936, Note_on_c, 0, 79, 85
1, 27936, Note_on_c, 1, 62, 64
1, 28025, Note_on_c, 1, 62, 0
1, 28032, Note_on_c, 1, 55, 64
1, 28044, Note_on_c, 0, 79, 0
1, 28044, Note_on_c, 0, 77, 85
1, 28056, Note_on_c, 0, 77, 0
1, 28056, Note_on_c, 0, 79, 85
1, 28068, Note_on_c, 0, 79, 0
1, 28068, Note_on_c, 0, 77, 85
1, 28080, Note_on_c, 0, 77, 0
1, 28080, Note_on_c, 0, 79, 85
1, 28092, Note_on_c, 0, 79, 0
1, 28092, Note_on_c, 0, 77, 85
1, 28104, Note_on_c, 0, 77, 0
1, 28104, Note_on_c, 0, 76, 85
1, 28116, Note_on_c, 0, 76, 0
1, 28116, Note_on_c, 0, 77, 85
1, 28121, Note_on_c, 1, 55, 0
1, 28128, Note_on_c, 0, 77, 0
1, 28128, Note_on_c, 0, 76, 85
1, 28128, Note_on_c, 1, 60, 64
1, 28217, Note_on_c, 0, 76, 0
1, 28217, Note_on_c, 1, 60, 0
1, 28224, Note_on_c, 0, 74, 85
1, 28224, Note_on_c, 1, 53, 64
1, 28313, Note_on_c, 0, 74, 0
1, 28313, Note_on_c, 1, 53, 0
1, 28320, Note_on_c, 0, 81, 85
1, 28350, Note_on_c, 0, 81, 0
1, 28352, Note_on_c, 0, 79, 85
1, 28382, Note_on_c, 0, 79, 0
1, 28384, Note_on_c, 0, 77, 85
1, 28414, Note_on_c, 0, 77, 0
1, 28416, Note_on_c, 0, 76, 85
1, 28446, Note_on_c, 0, 76, 0
1, 28448, Note_on_c, 0, 74, 85
1, 28478, Note_on_c, 0, 74, 0
1, 28480, Note_on_c, 0, 72, 85
1, 28510, Note_on_c, 0, 72, 0
1, 28512, Note_on_c, 0, 72, 85
1, 28512, Note_on_c, 1, 55, 64
1, 28601, Note_on_c, 1, 55, 0
1, 28608, Note_on_c, 1, 53, 64
1, 28620, Note_on_c, 0, 72, 0
1, 28620, Note_on_c, 0, 71, 85
1, 28632, Note_on_c, 0, 71, 0
1, 28632, Note_on_c, 0, 72, 85
1, 28644, Note_on_c, 0, 72, 0
1, 28644, Note_on_c, 0, 71, 85
1, 28656, Note_on_c, 0, 71, 0
1, 28656, Note_on_c, 0, 72, 85
1, 28668, Note_on_c, 0, 72, 0
1, 28668, Note_on_c, 0, 71, 85
1, 28680, Note_on_c, 0, 71, 0
1, 28680, Note_on_c, 0, 69, 85
1, 28692, Note_on_c, 0, 69, 0
1, 28692, Note_on_c, 0, 71, 85
1, 28697, Note_on_c, 1, 53, 0
1, 28704, Note_on_c, 0, 71, 0
1, 28704, Note_on_c, 0, 72, 85
1, 28704, Note_on_c, 1, 52, 64
1, 28793, Note_on_c, 0, 72, 0
1, 28793, Note_on_c, 1, 52, 0
1, 28800, Note_on_c, 0, 67, 85
1, 28889, Note_on_c, 0, 67, 0
1, 28896, Note_on_c, 0, 77, 85
1, 28896, Note_on_c, 0, 74, 85
1, 28896, Note_on_c, 1, 59, 64
1, 28985, Note_on_c, 0, 77, 0
1, 28985, Note_on_c, 0, 74, 0
1, 28985, Note_on_c, 1, 59, 0
1, 28992, Note_on_c, 0, 76, 85
1, 28992, Note_on_c, 0, 72, 85
1, 28992, Note_on_c, 1, 60, 64
1, 29081, Note_on_c, 0, 76, 0
1, 29081, Note_on_c, 0, 72, 0
1, 29081, Note_on_c, 1, 60, 0
1, 29088, Note_on_c, 0, 76, 85
1, 29088, Note_on_c, 0, 72, 85
1, 29088, Note_on_c, 1, 55, 64
1, 29177, Note_on_c, 0, 76, 0
1, 29177, Note_on_c, 0, 72, 0
1, 29177, Note_on_c, 1, 55, 0
1, 29184, Note_on_c, 0, 74, 85
1, 29184, Note_on_c, 0, 71, 85
1, 29184, Note_on_c, 1, 67, 64
1, 29273, Note_on_c, 0, 74, 0
1, 29273, Note_on_c, 0, 71, 0
1, 29273, Note_on_c, 1, 67, 0
1, 29280, Note_on_c, 1, 55, 64
1, 29369, Note_on_c, 1, 55, 0
1, 29376, Note_on_c, 0, 79, 85
1, 29376, Note_on_c, 1, 60, 64
1, 29376, Note_on_c, 1, 52, 64
1, 29465, Note_on_c, 0, 79, 0
1, 29472, Note_on_c, 0, 72, 85
1, 29502, Note_on_c, 0, 72, 0
1, 29504, Note_on_c, 0, 76, 85
1, 29534, Note_on_c, 0, 76, 0
1, 29536, Note_on_c, 0, 79, 85
1, 29553, Note_on_c, 1, 60, 0
1, 29553, Note_on_c, 1, 52, 0
1, 29566, Note_on_c, 0, 79, 0
1, 29568, Note_on_c, 0, 76, 85
1, 29568, Note_on_c, 1, 60, 64
1, 29568, Note_on_c, 1, 52, 64
1, 29598, Note_on_c, 0, 76, 0
1, 29600, Note_on_c, 0, 79, 85
1, 29630, Note_on_c, 0, 79, 0
1, 29632, Note_on_c, 0, 82, 85
1, 29657, Note_on_c, 1, 60, 0
1, 29657, Note_on_c, 1, 52, 0
1, 29662, Note_on_c, 0, 82, 0
1, 29664, Note_on_c, 0, 82, 85
1, 29664, Note_on_c, 1, 53, 64
1, 29753, Note_on_c, 0, 82, 0
1, 29753, Note_on_c, 1, 53, 0
1, 29760, Note_on_c, 0, 81, 85
1, 29760, Note_on_c, 1, 65, 64
1, 29849, Note_on_c, 0, 81, 0
1, 29849, Note_on_c, 1, 65, 0
1, 29856, Note_on_c, 0, 79, 85
1, 29856, Note_on_c, 1, 64, 64
1, 29945, Note_on_c, 0, 79, 0
1, 29945, Note_on_c, 1, 64, 0
1, 29952, Note_on_c, 0, 77, 85
1, 29952, Note_on_c, 1, 62, 64
1, 29982, Note_on_c, 0, 77, 0
1, 29984, Note_on_c, 0, 76, 85
1, 30014, Note_on_c, 0, 76, 0
1, 30016, Note_on_c, 0, 77, 85
1, 30041, Note_on_c, 1, 62, 0
1, 30046, Note_on_c, 0, 77, 0
1, 30048, Note_on_c, 0, 81, 85
1, 30048, Note_on_c, 1, 65, 64
1, 30078, Note_on_c, 0, 81, 0
1, 30080, Note_on_c, 0, 79, 85
1, 30110, Note_on_c, 0, 79, 0
1, 30112, Note_on_c, 0, 77, 85
1, 30137, Note_on_c, 1, 65, 0
1, 30142, Note_on_c, 0, 77, 0
1, 30144, Note_on_c, 0, 76, 85
1, 30144, Note_on_c, 1, 66, 64
1, 30174, Note_on_c, 0, 76, 0
1, 30176, Note_on_c, 0, 74, 85
1, 30206, Note_on_c, 0, 74, 0
1, 30208, Note_on_c, 0, 72, 85
1, 30233, Note_on_c, 1, 66, 0
1, 30238, Note_on_c, 0, 72, 0
1, 30240, Note_on_c, 0, 72, 85
1, 30240, Note_on_c, 1, 67, 64
1, 30329, Note_on_c, 1, 67, 0
1, 30336, Note_on_c, 1, 62, 64
1, 30417, Note_on_c, 0, 72, 0
1, 30425, Note_on_c, 1, 62, 0
1, 30432, Note_on_c, 0, 71, 85
1, 30432, Note_on_c, 1, 55, 64
1, 30521, Note_on_c, 0, 71, 0
1, 30521, Note_on_c, 1, 55, 0
1, 30528, Note_on_c, 0, 74, 85
1, 30528, Note_on_c, 1, 64, 64
1, 30528, Note_on_c, 1, 60, 64
1, 30540, Note_on_c, 0, 74, 0
1, 30540, Note_on_c, 0, 72, 85
1, 30552, Note_on_c, 0, 72, 0
1, 30552, Note_on_c, 0, 71, 85
1, 30564, Note_on_c, 0, 71, 0
1, 30564, Note_on_c, 0, 72, 85
1, 30621, Note_on_c, 0, 72, 0
1, 30624, Note_on_c, 0, 67, 85
1, 30654, Note_on_c, 0, 67, 0
1, 30656, Note_on_c, 0, 72, 85
1, 30686, Note_on_c, 0, 72, 0
1, 30688, Note_on_c, 0, 76, 85
1, 30705, Note_on_c, 1, 64, 0
1, 30705, Note_on_c, 1, 60, 0
1, 30718, Note_on_c, 0, 76, 0
1, 30720, Note_on_c, 0, 74, 85
1, 30720, Note_on_c, 1, 65, 64
1, 30720, Note_on_c, 1, 55, 64
1, 30750, Note_on_c, 0, 74, 0
1, 30752, Note_on_c, 0, 72, 85
1, 30782, Note_on_c, 0, 72, 0
1, 30784, Note_on_c, 0, 71, 85
1, 30809, Note_on_c, 1, 65, 0
1, 30809, Note_on_c, 1, 55, 0
1, 30814, Note_on_c, 0, 71, 0
1, 30816, Note_on_c, 0, 72, 85
1, 30816, Note_on_c, 1, 64, 64
1, 30816, Note_on_c, 1, 60, 64
1, 30905, Note_on_c, 0, 72, 0
1, 30912, Note_on_c, 0, 67, 85
1, 30942, Note_on_c, 0, 67, 0
1, 30944, Note_on_c, 0, 72, 85
1, 30974, Note_on_c, 0, 72, 0
1, 30976, Note_on_c, 0, 76, 85
1, 30993, Note_on_c, 1, 64, 0
1, 30993, Note_on_c, 1, 60, 0
1, 31006, Note_on_c, 0, 76, 0
1, 31008, Note_on_c, 0, 74, 85
1, 31008, Note_on_c, 1, 65, 64
1, 31008, Note_on_c, 1, 55, 64
1, 31038, Note_on_c, 0, 74, 0
1, 31040, Note_on_c, 0, 72, 85
1, 31070, Note_on_c, 0, 72, 0
1, 31072, Note_on_c, 0, 71, 85
1, 31097, Note_on_c, 1, 65, 0
1, 31097, Note_on_c, 1, 55, 0
1, 31102, Note_on_c, 0, 71, 0
1, 31104, Note_on_c, 0, 72, 85
1, 31104, Note_on_c, 1, 64, 64
1, 31104, Note_on_c, 1, 60, 64
1, 31193, Note_on_c, 0, 72, 0
1, 31193, Note_on_c, 1, 64, 0
1, 31193, Note_on_c, 1, 60, 0
1, 31200, Note_on_c, 0, 79, 85
1, 31230, Note_on_c, 0, 79, 0
1, 31232, Note_on_c, 0, 81, 85
1, 31262, Note_on_c, 0, 81, 0
1, 31264, Note_on_c, 0, 83, 85
1, 31294, Note_on_c, 0, 83, 0
1, 31296, Note_on_c, 0, 84, 85
1, 31296, Note_on_c, 1, 60, 64
1, 31326, Note_on_c, 0, 84, 0
1, 31328, Note_on_c, 0, 79, 85
1, 31358, Note_on_c, 0, 79, 0
1, 31360, Note_on_c, 0, 76, 85
1, 31385, Note_on_c, 1, 60, 0
1, 31390, Note_on_c, 0, 76, 0
1, 31392, Note_on_c, 0, 79, 85
1, 31392, Note_on_c, 1, 62, 64
1, 31481, Note_on_c, 1, 62, 0
1, 31488, Note_on_c, 1, 55, 64
1, 31500, Note_on_c, 0, 79, 0
1, 31500, Note_on_c, 0, 77, 85
1, 31512, Note_on_c, 0, 77, 0
1, 31512, Note_on_c, 0, 79, 85
1, 31524, Note_on_c, 0, 79, 0
1, 31524, Note_on_c, 0, 77, 85
1, 31536, Note_on_c, 0, 77, 0
1, 31536, Note_on_c, 0, 79, 85
1, 31548, Note_on_c, 0, 79, 0
1, 31548, Note_on_c, 0, 77, 85
1, 31560, Note_on_c, 0, 77, 0
1, 31560, Note_on_c, 0, 76, 85
1, 31572, Note_on_c, 0, 76, 0
1, 31572, Note_on_c, 0, 77, 85
1, 31577, Note_on_c, 1, 55, 0
1, 31584, Note_on_c, 0, 77, 0
1, 31584, Note_on_c, 0, 76, 85
1, 31584, Note_on_c, 1, 60, 64
1, 31673, Note_on_c, 0, 76, 0
1, 31673, Note_on_c, 1, 60, 0
1, 31680, Note_on_c, 0, 74, 85
1, 31680, Note_on_c, 1, 53, 64
1, 31769, Note_on_c, 0, 74, 0
1, 31769, Note_on_c, 1, 53, 0
1, 31776, Note_on_c, 0, 81, 85
1, 31806, Note_on_c, 0, 81, 0
1, 31808, Note_on_c, 0, 79, 85
1, 31838, Note_on_c, 0, 79, 0
1, 31840, Note_on_c, 0, 77, 85
1, 31870, Note_on_c, 0, 77, 0
1, 31872, Note_on_c, 0, 76, 85
1, 31902, Note_on_c, 0, 76, 0
1, 31904, Note_on_c, 0, 74, 85
1, 31934, Note_on_c, 0, 74, 0
1, 31936, Note_on_c, 0, 72, 85
1, 31966, Note_on_c, 0, 72, 0
1, 31968, Note_on_c, 0, 72, 85
1, 31968, Note_on_c, 1, 55, 64
1, 32057, Note_on_c, 1, 55, 0
1, 32064, Note_on_c, 1, 53, 64
1, 32076, Note_on_c, 0, 72, 0
1, 32076, Note_on_c, 0, 71, 85
1, 32088, Note_on_c, 0, 71, 0
1, 32088, Note_on_c, 0, 72, 85
1, 32100, Note_on_c, 0, 72, 0
1, 32100, Note_on_c, 0, 71, 85
1, 32112, Note_on_c, 0, 71, 0
1, 32112, Note_on_c, 0, 72, 85
1, 32124, Note_on_c, 0, 72, 0
1, 32124, Note_on_c, 0, 71, 85
1, 32136, Note_on_c, 0, 71, 0
1, 32136, Note_on_c, 0, 69, 85
1, 32148, Note_on_c, 0, 69, 0
1, 32148, Note_on_c, 0, 71, 85
1, 32153, Note_on_c, 1, 53, 0
1, 32160, Note_on_c, 0, 71, 0
1, 32160, Note_on_c, 0, 72, 85
1, 32160, Note_on_c, 1, 52, 64
1, 32249, Note_on_c, 0, 72, 0
1, 32249, Note_on_c, 1, 52, 0
1, 32256, Note_on_c, 0, 83, 85
1, 32256, Note_on_c, 1, 53, 64
1, 32279, Note_on_c, 0, 83, 0
1, 32280, Note_on_c, 0, 81, 85
1, 32303, Note_on_c, 0, 81, 0
1, 32304, Note_on_c, 0, 79, 85
1, 32327, Note_on_c, 0, 79, 0
1, 32328, Note_on_c, 0, 77, 85
1, 32345, Note_on_c, 1, 53, 0
1, 32351, Note_on_c, 0, 77, 0
1, 32352, Note_on_c, 0, 76, 85
1, 32352, Note_on_c, 1, 55, 64
1, 32441, Note_on_c, 1, 55, 0
1, 32448, Note_on_c, 1, 43, 64
1, 32460, Note_on_c, 0, 76, 0
1, 32460, Note_on_c, 0, 74, 85
1, 32472, Note_on_c, 0, 74, 0
1, 32472, Note_on_c, 0, 76, 85
1, 32484, Note_on_c, 0, 76, 0
1, 32484, Note_on_c, 0, 74, 85
1, 32496, Note_on_c, 0, 74, 0
1, 32496, Note_on_c, 0, 76, 85
1, 32508, Note_on_c, 0, 76, 0
1, 32508, Note_on_c, 0, 74, 85
1, 32520, Note_on_c, 0, 74, 0
1, 32520, Note_on_c, 0, 72, 85
1, 32532, Note_on_c, 0, 72, 0
1, 32532, Note_on_c, 0, 74, 85
1, 32537, Note_on_c, 1, 43, 0
1, 32544, Note_on_c, 0, 74, 0
1, 32544, Note_on_c, 0, 72, 85
1, 32544, Note_on_c, 1, 48, 64
1, 32633, Note_on_c, 0, 72, 0
1, 32633, Note_on_c, 1, 48, 0
1, 32640, Note_on_c, 1, 43, 64
1, 32729, Note_on_c, 1, 43, 0
1, 32736, Note_on_c, 1, 36, 64
1, 32825, Note_on_c, 1, 36, 0
1, 32832, Note_on_c, 0, 79, 85
1, 32832, Note_on_c, 1, 60, 64
1, 32832, Note_on_c, 1, 52, 64
1, 32921, Note_on_c, 0, 79, 0
1, 32928, Note_on_c, 0, 72, 85
1, 32958, Note_on_c, 0, 72, 0
1, 32960, Note_on_c, 0, 76, 85
1, 32990, Note_on_c, 0, 76, 0
1, 32992, Note_on_c, 0, 79, 85
1, 33009, Note_on_c, 1, 60, 0
1, 33009, Note_on_c, 1, 52, 0
1, 33022, Note_on_c, 0, 79, 0
1, 33024, Note_on_c, 0, 76, 85
1, 33024, Note_on_c, 1, 60, 64
1, 33024, Note_on_c, 1, 52, 64
1, 33054, Note_on_c, 0, 76, 0
1, 33056, Note_on_c, 0, 79, 85
1, 33086, Note_on_c, 0, 79, 0
1, 33088, Note_on_c, 0, 82, 85
1, 33113, Note_on_c, 1, 60, 0
1, 33113, Note_on_c, 1, 52, 0
1, 33118, Note_on_c, 0, 82, 0
1, 33120, Note_on_c, 0, 82, 85
1, 33120, Note_on_c, 1, 53, 64
1, 33209, Note_on_c, 0, 82, 0
1, 33209, Note_on_c, 1, 53, 0
1, 33216, Note_on_c, 0, 81, 85
1, 33216, Note_on_c, 1, 65, 64
1, 33305, Note_on_c, 0, 81, 0
1, 33305, Note_on_c, 1, 65, 0
1, 33312, Note_on_c, 0, 79, 85
1, 33312, Note_on_c, 1, 64, 64
1, 33401, Note_on_c, 0, 79, 0
1, 33401, Note_on_c, 1, 64, 0
1, 33408, Note_on_c, 0, 77, 85
1, 33408, Note_on_c, 1, 62, 64
1, 33438, Note_on_c, 0, 77, 0
1, 33440, Note_on_c, 0, 76, 85
1, 33470, Note_on_c, 0, 76, 0
1, 33472, Note_on_c, 0, 77, 85
1, 33497, Note_on_c, 1, 62, 0
1, 33502, Note_on_c, 0, 77, 0
1, 33504, Note_on_c, 0, 81, 85
1, 33504, Note_on_c, 1, 65, 64
1, 33534, Note_on_c, 0, 81, 0
1, 33536, Note_on_c, 0, 79, 85
1, 33566, Note_on_c, 0, 79, 0
1, 33568, Note_on_c, 0, 77, 85
1, 33593, Note_on_c, 1, 65, 0
1, 33598, Note_on_c, 0, 77, 0
1, 33600, Note_on_c, 0, 76, 85
1, 33600, Note_on_c, 1, 66, 64
1, 33630, Note_on_c, 0, 76, 0
1, 33632, Note_on_c, 0, 74, 85
1, 33662, Note_on_c, 0, 74, 0
1, 33664, Note_on_c, 0, 72, 85
1, 33689, Note_on_c, 1, 66, 0
1, 33694, Note_on_c, 0, 72, 0
1, 33696, Note_on_c, 0, 72, 85
1, 33696, Note_on_c, 1, 67, 64
1, 33785, Note_on_c, 1, 67, 0
1, 33792, Note_on_c, 1, 62, 64
1, 33873, Note_on_c, 0, 72, 0
1, 33881, Note_on_c, 1, 62, 0
1, 33888, Note_on_c, 0, 71, 85
1, 33888, Note_on_c, 1, 55, 64
1, 33977, Note_on_c, 0, 71, 0
1, 33977, Note_on_c, 1, 55, 0
1, 33984, Note_on_c, 0, 74, 85
1, 33984, Note_on_c, 1, 64, 64
1, 33984, Note_on_c, 1, 60, 64
1, 33996, Note_on_c, 0, 74, 0
1, 33996, Note_on_c, 0, 72, 85
1, 34008, Note_on_c, 0, 72, 0
1, 34008, Note_on_c, 0, 71, 85
1, 34020, Note_on_c, 0, 71, 0
1, 34020, Note_on_c, 0, 72, 85
1, 34077, Note_on_c, 0, 72, 0
1, 34080, Note_on_c, 0, 67, 85
1, 34110, Note_on_c, 0, 67, 0
1, 34112, Note_on_c, 0, 72, 85
1, 34142, Note_on_c, 0, 72, 0
1, 34144, Note_on_c, 0, 76, 85
1, 34161, Note_on_c, 1, 64, 0
1, 34161, Note_on_c, 1, 60, 0
1, 34174, Note_on_c, 0, 76, 0
1, 34176, Note_on_c, 0, 74, 85
1, 34176, Note_on_c, 1, 65, 64
1, 34176, Note_on_c, 1, 55, 64
1, 34206, Note_on_c, 0, 74, 0
1, 34208, Note_on_c, 0, 72, 85
1, 34238, Note_on_c, 0, 72, 0
1, 34240, Note_on_c, 0, 71, 85
1, 34265, Note_on_c, 1, 65, 0
1, 34265, Note_on_c, 1, 55, 0
1, 34270, Note_on_c, 0, 71, 0
1, 34272, Note_on_c, 0, 72, 85
1, 34272, Note_on_c, 1, 64, 64
1, 34272, Note_on_c, 1, 60, 64
1, 34361, Note_on_c, 0, 72, 0
1, 34368, Note_on_c, 0, 67, 85
1, 34398, Note_on_c, 0, 67, 0
1, 34400, Note_on_c, 0, 72, 85
1, 34430, Note_on_c, 0, 72, 0
1, 34432, Note_on_c, 0, 76, 85
1, 34449, Note_on_c, 1, 64, 0
1, 34449, Note_on_c, 1, 60, 0
1, 34462, Note_on_c, 0, 76, 0
1, 34464, Note_on_c, 0, 74, 85
1, 34464, Note_on_c, 1, 65, 64
1, 34464, Note_on_c, 1, 55, 64
1, 34494, Note_on_c, 0, 74, 0
1, 34496, Note_on_c, 0, 72, 85
1, 34526, Note_on_c, 0, 72, 0
1, 34528, Note_on_c, 0, 71, 85
1, 34553, Note_on_c, 1, 65, 0
1, 34553, Note_on_c, 1, 55, 0
1, 34558, Note_on_c, 0, 71, 0
1, 34560, Note_on_c, 0, 72, 85
1, 34560, Note_on_c, 1, 64, 64
1, 34560, Note_on_c, 1, 60, 64
1, 34649, Note_on_c, 0, 72, 0
1, 34649, Note_on_c, 1, 64, 0
1, 34649, Note_on_c, 1, 60, 0
1, 34656, Note_on_c, 0, 79, 85
1, 34686, Note_on_c, 0, 79, 0
1, 34688, Note_on_c, 0, 81, 85
1, 34718, Note_on_c, 0, 81, 0
1, 34720, Note_on_c, 0, 83, 85
1, 34750, Note_on_c, 0, 83, 0
1, 34752, Note_on_c, 0, 84, 85
1, 34752, Note_on_c, 1, 60, 64
1, 34782, Note_on_c, 0, 84, 0
1, 34784, Note_on_c, 0, 79, 85
1, 34814, Note_on_c, 0, 79, 0
1, 34816, Note_on_c, 0, 76, 85
1, 34841, Note_on_c, 1, 60, 0
1, 34846, Note_on_c, 0, 76, 0
1, 34848, Note_on_c, 0, 79, 85
1, 34848, Note_on_c, 1, 62, 64
1, 34937, Note_on_c, 1, 62, 0
1, 34944, Note_on_c, 1, 55, 64
1, 34956, Note_on_c, 0, 79, 0
1, 34956, Note_on_c, 0, 77, 85
1, 34968, Note_on_c, 0, 77, 0
1, 34968, Note_on_c, 0, 79, 85
1, 34980, Note_on_c, 0, 79, 0
1, 34980, Note_on_c, 0, 77, 85
1, 34992, Note_on_c, 0, 77, 0
1, 34992, Note_on_c, 0, 79, 85
1, 35004, Note_on_c, 0, 79, 0
1, 35004, Note_on_c, 0, 77, 85
1, 35016, Note_on_c, 0, 77, 0
1, 35016, Note_on_c, 0, 76, 85
1, 35028, Note_on_c, 0, 76, 0
1, 35028, Note_on_c, 0, 77, 85
1, 35033, Note_on_c, 1, 55, 0
1, 35040, Note_on_c, 0, 77, 0
1, 35040, Note_on_c, 0, 76, 85
1, 35040, Note_on_c, 1, 60, 64
1, 35129, Note_on_c, 0, 76, 0
1, 35129, Note_on_c, 1, 60, 0
1, 35136, Note_on_c, 0, 74, 85
1, 35136, Note_on_c, 1, 53, 64
1, 35225, Note_on_c, 0, 74, 0
1, 35225, Note_on_c, 1, 53, 0
1, 35232, Note_on_c, 0, 81, 85
1, 35262, Note_on_c, 0, 81, 0
1, 35264, Note_on_c, 0, 79, 85
1, 35294, Note_on_c, 0, 79, 0
1, 35296, Note_on_c, 0, 77, 85
1, 35326, Note_on_c, 0, 77, 0
1, 35328, Note_on_c, 0, 76, 85
1, 35358, Note_on_c, 0, 76, 0
1, 35360, Note_on_c, 0, 74, 85
1, 35390, Note_on_c, 0, 74, 0
1, 35392, Note_on_c, 0, 72, 85
1, 35422, Note_on_c, 0, 72, 0
1, 35424, Note_on_c, 0, 72, 85
1, 35424, Note_on_c, 1, 55, 64
1, 35513, Note_on_c, 1, 55, 0
1, 35520, Note_on_c, 1, 53, 64
1, 35532, Note_on_c, 0, 72, 0
1, 35532, Note_on_c, 0, 71, 85
1, 35544, Note_on_c, 0, 71, 0
1, 35544, Note_on_c, 0, 72, 85
1, 35556, Note_on_c, 0, 72, 0
1, 35556, Note_on_c, 0, 71, 85
1, 35568, Note_on_c, 0, 71, 0
1, 35568, Note_on_c, 0, 72, 85
1, 35580, Note_on_c, 0, 72, 0
1, 35580, Note_on_c, 0, 71, 85
1, 35592, Note_on_c, 0, 71, 0
1, 35592, Note_on_c, 0, 69, 85
1, 35604, Note_on_c, 0, 69, 0
1, 35604, Note_on_c, 0, 71, 85
1, 35609, Note_on_c, 1, 53, 0
1, 35616, Note_on_c, 0, 71, 0
1, 35616, Note_on_c, 0, 72, 85
1, 35616, Note_on_c, 1, 52, 64
1, 35705, Note_on_c, 0, 72, 0
1, 35705, Note_on_c, 1, 52, 0
1, 35712, Note_on_c, 0, 83, 85
1, 35712, Note_on_c, 1, 53, 64
1, 35735, Note_on_c, 0, 83, 0
1, 35736, Note_on_c, 0, 81, 85
1, 35759, Note_on_c, 0, 81, 0
1, 35760, Note_on_c, 0, 79, 85
1, 35783, Note_on_c, 0, 79, 0
1, 35784, Note_on_c, 0, 77, 85
1, 35801, Note_on_c, 1, 53, 0
1, 35807, Note_on_c, 0, 77, 0
1, 35808, Note_on_c, 0, 76, 85
1, 35808, Note_on_c, 1, 55, 64
1, 35897, Note_on_c, 1, 55, 0
1, 35904, Note_on_c, 1, 43, 64
1, 35916, Note_on_c, 0, 76, 0
1, 35916, Note_on_c, 0, 74, 85
1, 35928, Note_on_c, 0, 74, 0
1, 35928, Note_on_c, 0, 76, 85
1, 35940, Note_on_c, 0, 76, 0
1, 35940, Note_on_c, 0, 74, 85
1, 35952, Note_on_c, 0, 74, 0
1, 35952, Note_on_c, 0, 76, 85
1, 35964, Note_on_c, 0, 76, 0
1, 35964, Note_on_c, 0, 74, 85
1, 35976, Note_on_c, 0, 74, 0
1, 35976, Note_on_c, 0, 72, 85
1, 35988, Note_on_c, 0, 72, 0
1, 35988, Note_on_c, 0, 74, 85
1, 35993, Note_on_c, 1, 43, 0
1, 36000, Note_on_c, 0, 74, 0
1, 36000, Note_on_c, 0, 72, 85
1, 36000, Note_on_c, 1, 48, 64
1, 36089, Note_on_c, 0, 72, 0
1, 36089, Note_on_c, 1, 48, 0
1, 36096, Note_on_c, 1, 43, 64
1, 36185, Note_on_c, 1, 43, 0
1, 36192, Note_on_c, 1, 36, 64
1, 36281, Note_on_c, 1, 36, 0
1, 36288, Note_on_c, 1, 36, 0
1, 36377, Note_on_c, 1, 36, 0
1, 36387, End_track
0, 0, End_of_file