0, 0, Header, 0, 1, 96
1, 0, Start_track
1, 0, Tempo, 500000
1, 144, Note_on_c, 0, 62, 75
1, 189, Note_on_c, 0, 62, 0
1, 192, Note_on_c, 0, 67, 75
1, 192, Note_on_c, 1, 59, 75
1, 192, Note_on_c, 1, 55, 75
1, 237, Note_on_c, 0, 67, 0
1, 240, Note_on_c, 0, 69, 75
1, 250, Note_on_c, 0, 69, 0
1, 250, Note_on_c, 0, 67, 75
1, 260, Note_on_c, 0, 67, 0
1, 260, Note_on_c, 0, 66, 75
1, 270, Note_on_c, 0, 66, 0
1, 270, Note_on_c, 0, 67, 75
1, 279, Note_on_c, 0, 67, 0
1, 279, Note_on_c, 0, 69, 75
1, 281, Note_on_c, 1, 59, 0
1, 281, Note_on_c, 1, 55, 0
1, 288, Note_on_c, 0, 69, 0
1, 288, Note_on_c, 0, 71, 75
1, 333, Note_on_c, 0, 71, 0
1, 336, Note_on_c, 0, 72, 75
1, 346, Note_on_c, 0, 72, 0
1, 346, Note_on_c, 0, 71, 75
1, 356, Note_on_c, 0, 71, 0
1, 356, Note_on_c, 0, 69, 75
1, 366, Note_on_c, 0, 69, 0
1, 366, Note_on_c, 0, 71, 75
1, 375, Note_on_c, 0, 71, 0
1, 375, Note_on_c, 0, 72, 75
1, 384, Note_on_c, 0, 72, 0
1, 384, Note_on_c, 0, 74, 75
1, 429, Note_on_c, 0, 74, 0
1, 432, Note_on_c, 0, 74, 75
1, 432, Note_on_c, 1, 71, 75
1, 432, Note_on_c, 1, 67, 75
1, 477, Note_on_c, 0, 74, 0
1, 477, Note_on_c, 1, 71, 0
1, 477, Note_on_c, 1, 67, 0
1, 480, Note_on_c, 0, 74, 75
1, 480, Note_on_c, 1, 69, 75
1, 480, Note_on_c, 1, 66, 75
1, 525, Note_on_c, 0, 74, 0
1, 525, Note_on_c, 1, 69, 0
1, 525, Note_on_c, 1, 66, 0
1, 528, Note_on_c, 0, 74, 75
1, 528, Note_on_c, 1, 72, 75
1, 528, Note_on_c, 1, 69, 75
1, 573, Note_on_c, 0, 74, 0
1, 573, Note_on_c, 1, 72, 0
1, 573, Note_on_c, 1, 69, 0
1, 576, Note_on_c, 0, 74, 75
1, 576, Note_on_c, 1, 71, 75
1, 576, Note_on_c, 1, 67, 75
1, 621, Note_on_c, 0, 74, 0
1, 624, Note_on_c, 0, 76, 77
1, 647, Note_on_c, 0, 76, 0
1, 648, Note_on_c, 0, 78, 78
1, 665, Note_on_c, 1, 71, 0
1, 665, Note_on_c, 1, 67, 0
1, 671, Note_on_c, 0, 78, 0
1, 672, Note_on_c, 0, 81, 80
1, 695, Note_on_c, 0, 81, 0
1, 696, Note_on_c, 0, 79, 78
1, 719, Note_on_c, 0, 79, 0
1, 720, Note_on_c, 0, 78, 77
1, 743, Note_on_c, 0, 78, 0
1, 744, Note_on_c, 0, 76, 76
1, 767, Note_on_c, 0, 76, 0
1, 768, Note_on_c, 0, 74, 75
1, 813, Note_on_c, 0, 74, 0
1, 816, Note_on_c, 0, 74, 75
1, 816, Note_on_c, 1, 71, 75
1, 816, Note_on_c, 1, 67, 75
1, 861, Note_on_c, 0, 74, 0
1, 861, Note_on_c, 1, 71, 0
1, 861, Note_on_c, 1, 67, 0
1, 864, Note_on_c, 0, 74, 75
1, 864, Note_on_c, 1, 69, 75
1, 864, Note_on_c, 1, 66, 75
1, 909, Note_on_c, 0, 74, 0
1, 909, Note_on_c, 1, 69, 0
1, 909, Note_on_c, 1, 66, 0
1, 912, Note_on_c, 0, 74, 75
1, 912, Note_on_c, 1, 72, 75
1, 912, Note_on_c, 1, 69, 75
1, 957, Note_on_c, 0, 74, 0
1, 957, Note_on_c, 1, 72, 0
1, 957, Note_on_c, 1, 69, 0
1, 960, Note_on_c, 0, 74, 75
1, 960, Note_on_c, 1, 71, 75
1, 960, Note_on_c, 1, 67, 75
1, 1005, Note_on_c, 0, 74, 0
1, 1008, Note_on_c, 0, 76, 75
1, 1031, Note_on_c, 0, 76, 0
1, 1032, Note_on_c, 0, 78, 75
1, 1049, Note_on_c, 1, 71, 0
1, 1049, Note_on_c, 1, 67, 0
1, 1055, Note_on_c, 0, 78, 0
1, 1056, Note_on_c, 0, 81, 75
1, 1079, Note_on_c, 0, 81, 0
1, 1080, Note_on_c, 0, 79, 75
1, 1103, Note_on_c, 0, 79, 0
1, 1104, Note_on_c, 0, 78, 75
1, 1104, Note_on_c, 1, 72, 75
1, 1104, Note_on_c, 1, 67, 75
1, 1127, Note_on_c, 0, 78, 0
1, 1128, Note_on_c, 0, 76, 75
1, 1149, Note_on_c, 1, 72, 0
1, 1149, Note_on_c, 1, 67, 0
1, 1151, Note_on_c, 0, 76, 0
1, 1152, Note_on_c, 0, 74, 75
1, 1152, Note_on_c, 1, 71, 75
1, 1152, Note_on_c, 1, 67, 75
1, 1197, Note_on_c, 0, 74, 0
1, 1200, Note_on_c, 0, 79, 75
1, 1223, Note_on_c, 0, 79, 0
1, 1224, Note_on_c, 0, 83, 75
1, 1241, Note_on_c, 1, 71, 0
1, 1241, Note_on_c, 1, 67, 0
1, 1247, Note_on_c, 0, 83, 0
1, 1248, Note_on_c, 0, 81, 75
1, 1271, Note_on_c, 0, 81, 0
1, 1272, Note_on_c, 0, 79, 75
1, 1295, Note_on_c, 0, 79, 0
1, 1296, Note_on_c, 0, 78, 75
1, 1319, Note_on_c, 0, 78, 0
1, 1320, Note_on_c, 0, 76, 75
1, 1343, Note_on_c, 0, 76, 0
1, 1344, Note_on_c, 0, 74, 75
1, 1392, Note_on_c, 1, 71, 75
1, 1433, Note_on_c, 0, 74, 0
1, 1437, Note_on_c, 1, 71, 0
1, 1440, Note_on_c, 0, 72, 75
1, 1440, Note_on_c, 1, 69, 75
1, 1453, Note_on_c, 0, 72, 0
1, 1454, Note_on_c, 0, 74, 75
1, 1467, Note_on_c, 0, 74, 0
1, 1468, Note_on_c, 0, 72, 75
1, 1481, Note_on_c, 0, 72, 0
1, 1482, Note_on_c, 0, 74, 75
1, 1485, Note_on_c, 1, 69, 0
1, 1488, Note_on_c, 1, 62, 75
1, 1495, Note_on_c, 0, 74, 0
1, 1496, Note_on_c, 0, 72, 75
1, 1509, Note_on_c, 0, 72, 0
1, 1510, Note_on_c, 0, 71, 75
1, 1522, Note_on_c, 0, 71, 0
1, 1523, Note_on_c, 0, 72, 75
1, 1533, Note_on_c, 1, 62, 0
1, 1535, Note_on_c, 0, 72, 0
1, 1536, Note_on_c, 0, 71, 75
1, 1536, Note_on_c, 1, 67, 75
1, 1536, Note_on_c, 1, 67, 64
1, 1625, Note_on_c, 0, 71, 0
1, 1625, Note_on_c, 1, 67, 0
1, 1625, Note_on_c, 1, 67, 0
1, 1680, Note_on_c, 0, 67, 80
1, 1680, Note_on_c, 1, 55, 80
1, 1680, Note_on_c, 1, 43, 80
1, 1725, Note_on_c, 0, 67, 0
1, 1725, Note_on_c, 1, 55, 0
1, 1725, Note_on_c, 1, 43, 0
1, 1728, Note_on_c, 0, 66, 80
1, 1728, Note_on_c, 1, 54, 80
1, 1728, Note_on_c, 1, 42, 80
1, 1740, Note_on_c, 0, 66, 0
1, 1740, Note_on_c, 0, 67, 80
1, 1752, Note_on_c, 0, 67, 0
1, 1752, Note_on_c, 0, 66, 80
1, 1773, Note_on_c, 0, 66, 0
1, 1773, Note_on_c, 1, 54, 0
1, 1773, Note_on_c, 1, 42, 0
1, 1776, Note_on_c, 0, 64, 80
1, 1776, Note_on_c, 1, 52, 80
1, 1776, Note_on_c, 1, 40, 80
1, 1821, Note_on_c, 0, 64, 0
1, 1821, Note_on_c, 1, 52, 0
1, 1821, Note_on_c, 1, 40, 0
1, 1824, Note_on_c, 0, 62, 80
1, 1824, Note_on_c, 1, 50, 80
1, 1824, Note_on_c, 1, 38, 80
1, 1836, Note_on_c, 0, 62, 0
1, 1836, Note_on_c, 0, 64, 80
1, 1848, Note_on_c, 0, 64, 0
1, 1848, Note_on_c, 0, 62, 80
1, 1869, Note_on_c, 0, 62, 0
1, 1869, Note_on_c, 1, 50, 0
1, 1869, Note_on_c, 1, 38, 0
1, 1872, Note_on_c, 0, 60, 80
1, 1872, Note_on_c, 1, 48, 80
1, 1872, Note_on_c, 1, 36, 80
1, 1917, Note_on_c, 0, 60, 0
1, 1917, Note_on_c, 1, 48, 0
1, 1917, Note_on_c, 1, 36, 0
1, 1920, Note_on_c, 0, 59, 80
1, 1920, Note_on_c, 1, 47, 80
1, 1920, Note_on_c, 1, 35, 80
1, 2009, Note_on_c, 0, 59, 0
1, 2009, Note_on_c, 1, 47, 0
1, 2009, Note_on_c, 1, 35, 0
1, 2064, Note_on_c, 0, 64, 75
1, 2064, Note_on_c, 1, 52, 75
1, 2079, Note_on_c, 0, 64, 0
1, 2079, Note_on_c, 1, 52, 0
1, 2080, Note_on_c, 0, 66, 75
1, 2080, Note_on_c, 1, 54, 75
1, 2095, Note_on_c, 0, 66, 0
1, 2095, Note_on_c, 1, 54, 0
1, 2096, Note_on_c, 0, 64, 75
1, 2096, Note_on_c, 1, 52, 75
1, 2111, Note_on_c, 0, 64, 0
1, 2111, Note_on_c, 1, 52, 0
1, 2112, Note_on_c, 0, 62, 75
1, 2112, Note_on_c, 1, 50, 75
1, 2157, Note_on_c, 0, 62, 0
1, 2157, Note_on_c, 1, 50, 0
1, 2160, Note_on_c, 0, 60, 75
1, 2160, Note_on_c, 1, 48, 75
1, 2175, Note_on_c, 0, 60, 0
1, 2175, Note_on_c, 1, 48, 0
1, 2176, Note_on_c, 0, 62, 75
1, 2176, Note_on_c, 1, 50, 75
1, 2191, Note_on_c, 0, 62, 0
1, 2191, Note_on_c, 1, 50, 0
1, 2192, Note_on_c, 0, 60, 75
1, 2192, Note_on_c, 1, 48, 75
1, 2207, Note_on_c, 0, 60, 0
1, 2207, Note_on_c, 1, 48, 0
1, 2208, Note_on_c, 0, 59, 75
1, 2208, Note_on_c, 1, 47, 75
1, 2253, Note_on_c, 0, 59, 0
1, 2253, Note_on_c, 1, 47, 0
1, 2256, Note_on_c, 0, 57, 75
1, 2256, Note_on_c, 1, 45, 75
1, 2271, Note_on_c, 0, 57, 0
1, 2271, Note_on_c, 1, 45, 0
1, 2272, Note_on_c, 0, 59, 75
1, 2272, Note_on_c, 1, 47, 75
1, 2287, Note_on_c, 0, 59, 0
1, 2287, Note_on_c, 1, 47, 0
1, 2288, Note_on_c, 0, 57, 75
1, 2288, Note_on_c, 1, 45, 75
1, 2303, Note_on_c, 0, 57, 0
1, 2303, Note_on_c, 1, 45, 0
1, 2304, Note_on_c, 0, 55, 75
1, 2304, Note_on_c, 1, 43, 75
1, 2393, Note_on_c, 0, 55, 0
1, 2393, Note_on_c, 1, 43, 0
1, 2448, Note_on_c, 0, 62, 75
1, 2493, Note_on_c, 0, 62, 0
1, 2496, Note_on_c, 0, 67, 75
1, 2496, Note_on_c, 1, 59, 75
1, 2496, Note_on_c, 1, 55, 75
1, 2520, Note_on_c, 0, 67, 0
1, 2520, Note_on_c, 0, 66, 75
1, 2543, Note_on_c, 0, 66, 0
1, 2544, Note_on_c, 0, 69, 75
1, 2568, Note_on_c, 0, 69, 0
1, 2568, Note_on_c, 0, 67, 75
1, 2585, Note_on_c, 1, 59, 0
1, 2585, Note_on_c, 1, 55, 0
1, 2591, Note_on_c, 0, 67, 0
1, 2592, Note_on_c, 0, 71, 75
1, 2616, Note_on_c, 0, 71, 0
1, 2616, Note_on_c, 0, 69, 75
1, 2639, Note_on_c, 0, 69, 0
1, 2640, Note_on_c, 0, 72, 75
1, 2664, Note_on_c, 0, 72, 0
1, 2664, Note_on_c, 0, 71, 75
1, 2687, Note_on_c, 0, 71, 0
1, 2688, Note_on_c, 0, 74, 75
1, 2733, Note_on_c, 0, 74, 0
1, 2736, Note_on_c, 0, 74, 75
1, 2736, Note_on_c, 1, 71, 75
1, 2736, Note_on_c, 1, 67, 75
1, 2781, Note_on_c, 0, 74, 0
1, 2781, Note_on_c, 1, 71, 0
1, 2781, Note_on_c, 1, 67, 0
1, 2784, Note_on_c, 0, 74, 75
1, 2784, Note_on_c, 1, 69, 75
1, 2784, Note_on_c, 1, 66, 75
1, 2829, Note_on_c, 0, 74, 0
1, 2829, Note_on_c, 1, 69, 0
1, 2829, Note_on_c, 1, 66, 0
1, 2832, Note_on_c, 0, 74, 75
1, 2832, Note_on_c, 1, 72, 75
1, 2832, Note_on_c, 1, 69, 75
1, 2877, Note_on_c, 0, 74, 0
1, 2877, Note_on_c, 1, 72, 0
1, 2877, Note_on_c, 1, 69, 0
1, 2880, Note_on_c, 0, 74, 75
1, 2880, Note_on_c, 1, 71, 75
1, 2880, Note_on_c, 1, 67, 75
1, 2925, Note_on_c, 0, 74, 0
1, 2928, Note_on_c, 0, 76, 75
1, 2951, Note_on_c, 0, 76, 0
1, 2952, Note_on_c, 0, 78, 77
1, 2969, Note_on_c, 1, 71, 0
1, 2969, Note_on_c, 1, 67, 0
1, 2975, Note_on_c, 0, 78, 0
1, 2976, Note_on_c, 0, 81, 80
1, 2999, Note_on_c, 0, 81, 0
1, 3000, Note_on_c, 0, 79, 78
1, 3023, Note_on_c, 0, 79, 0
1, 3024, Note_on_c, 0, 78, 77
1, 3047, Note_on_c, 0, 78, 0
1, 3048, Note_on_c, 0, 76, 76
1, 3071, Note_on_c, 0, 76, 0
1, 3072, Note_on_c, 0, 74, 75
1, 3117, Note_on_c, 0, 74, 0
1, 3120, Note_on_c, 0, 74, 75
1, 3120, Note_on_c, 1, 71, 75
1, 3120, Note_on_c, 1, 67, 75
1, 3165, Note_on_c, 0, 74, 0
1, 3165, Note_on_c, 1, 71, 0
1, 3165, Note_on_c, 1, 67, 0
1, 3168, Note_on_c, 0, 74, 75
1, 3168, Note_on_c, 1, 69, 75
1, 3168, Note_on_c, 1, 66, 75
1, 3213, Note_on_c, 0, 74, 0
1, 3213, Note_on_c, 1, 69, 0
1, 3213, Note_on_c, 1, 66, 0
1, 3216, Note_on_c, 0, 74, 75
1, 3216, Note_on_c, 1, 72, 75
1, 3216, Note_on_c, 1, 69, 75
1, 3261, Note_on_c, 0, 74, 0
1, 3261, Note_on_c, 1, 72, 0
1, 3261, Note_on_c, 1, 69, 0
1, 3264, Note_on_c, 0, 74, 75
1, 3264, Note_on_c, 1, 71, 75
1, 3264, Note_on_c, 1, 67, 75
1, 3309, Note_on_c, 0, 74, 0
1, 3312, Note_on_c, 0, 79, 75
1, 3357, Note_on_c, 0, 79, 0
1, 3360, Note_on_c, 0, 77, 75
1, 3405, Note_on_c, 0, 77, 0
1, 3408, Note_on_c, 0, 74, 75
1, 3453, Note_on_c, 0, 74, 0
1, 3456, Note_on_c, 0, 75, 75
1, 3501, Note_on_c, 1, 71, 0
1, 3501, Note_on_c, 1, 67, 0
1, 3504, Note_on_c, 1, 72, 75
1, 3504, Note_on_c, 1, 67, 75
1, 3524, Note_on_c, 1, 72, 0
1, 3524, Note_on_c, 1, 67, 0
1, 3545, Note_on_c, 0, 75, 0
1, 3552, Note_on_c, 0, 76, 75
1, 3552, Note_on_c, 1, 72, 75
1, 3552, Note_on_c, 1, 67, 75
1, 3572, Note_on_c, 1, 72, 0
1, 3572, Note_on_c, 1, 67, 0
1, 3600, Note_on_c, 1, 72, 75
1, 3600, Note_on_c, 1, 67, 75
1, 3620, Note_on_c, 1, 72, 0
1, 3620, Note_on_c, 1, 67, 0
1, 3648, Note_on_c, 1, 72, 75
1, 3648, Note_on_c, 1, 67, 75
1, 3693, Note_on_c, 0, 76, 0
1, 3696, Note_on_c, 0, 79, 75
1, 3737, Note_on_c, 1, 72, 0
1, 3737, Note_on_c, 1, 67, 0
1, 3741, Note_on_c, 0, 79, 0
1, 3744, Note_on_c, 0, 76, 75
1, 3789, Note_on_c, 0, 76, 0
1, 3792, Note_on_c, 0, 72, 75
1, 3837, Note_on_c, 0, 72, 0
1, 3840, Note_on_c, 0, 73, 75
1, 3888, Note_on_c, 1, 71, 75
1, 3888, Note_on_c, 1, 67, 75
1, 3908, Note_on_c, 1, 71, 0
1, 3908, Note_on_c, 1, 67, 0
1, 3929, Note_on_c, 0, 73, 0
1, 3936, Note_on_c, 0, 74, 75
1, 3936, Note_on_c, 1, 71, 75
1, 3936, Note_on_c, 1, 67, 75
1, 3956, Note_on_c, 1, 71, 0
1, 3956, Note_on_c, 1, 67, 0
1, 3984, Note_on_c, 1, 71, 75
1, 3984, Note_on_c, 1, 67, 75
1, 4004, Note_on_c, 1, 71, 0
1, 4004, Note_on_c, 1, 67, 0
1, 4032, Note_on_c, 1, 71, 75
1, 4032, Note_on_c, 1, 67, 75
1, 4077, Note_on_c, 0, 74, 0
1, 4080, Note_on_c, 0, 79, 75
1, 4092, Note_on_c, 0, 79, 0
1, 4092, Note_on_c, 0, 83, 75
1, 4121, Note_on_c, 1, 71, 0
1, 4121, Note_on_c, 1, 67, 0
1, 4125, Note_on_c, 0, 83, 0
1, 4128, Note_on_c, 0, 81, 75
1, 4140, Note_on_c, 0, 81, 0
1, 4140, Note_on_c, 0, 79, 75
1, 4174, Note_on_c, 0, 79, 0
1, 4176, Note_on_c, 0, 78, 75
1, 4188, Note_on_c, 0, 78, 0
1, 4188, Note_on_c, 0, 76, 75
1, 4222, Note_on_c, 0, 76, 0
1, 4224, Note_on_c, 0, 74, 75
1, 4272, Note_on_c, 1, 69, 75
1, 4317, Note_on_c, 1, 69, 0
1, 4320, Note_on_c, 0, 74, 0
1, 4320, Note_on_c, 0, 72, 75
1, 4320, Note_on_c, 1, 66, 75
1, 4332, Note_on_c, 0, 72, 0
1, 4332, Note_on_c, 0, 74, 75
1, 4344, Note_on_c, 0, 74, 0
1, 4344, Note_on_c, 0, 72, 75
1, 4365, Note_on_c, 0, 72, 0
1, 4365, Note_on_c, 1, 66, 0
1, 4368, Note_on_c, 0, 71, 75
1, 4368, Note_on_c, 1, 67, 75
1, 4413, Note_on_c, 0, 71, 0
1, 4413, Note_on_c, 1, 67, 0
1, 4416, Note_on_c, 0, 71, 75
1, 4416, Note_on_c, 1, 60, 75
1, 4439, Note_on_c, 0, 71, 0
1, 4440, Note_on_c, 0, 69, 76
1, 4463, Note_on_c, 0, 69, 0
1, 4464, Note_on_c, 0, 75, 77
1, 4487, Note_on_c, 0, 75, 0
1, 4488, Note_on_c, 0, 76, 78
1, 4511, Note_on_c, 0, 76, 0
1, 4512, Note_on_c, 0, 74, 80
1, 4535, Note_on_c, 0, 74, 0
1, 4536, Note_on_c, 0, 72, 78
1, 4549, Note_on_c, 1, 60, 0
1, 4559, Note_on_c, 0, 72, 0
1, 4560, Note_on_c, 0, 71, 77
1, 4560, Note_on_c, 1, 61, 75
1, 4583, Note_on_c, 0, 71, 0
1, 4584, Note_on_c, 0, 69, 76
1, 4605, Note_on_c, 1, 61, 0
1, 4607, Note_on_c, 0, 69, 0
1, 4608, Note_on_c, 0, 67, 75
1, 4608, Note_on_c, 1, 62, 75
1, 4653, Note_on_c, 1, 62, 0
1, 4656, Note_on_c, 1, 57, 75
1, 4701, Note_on_c, 1, 57, 0
1, 4704, Note_on_c, 0, 67, 0
1, 4704, Note_on_c, 0, 66, 75
1, 4704, Note_on_c, 1, 50, 75
1, 4749, Note_on_c, 0, 66, 0
1, 4752, Note_on_c, 0, 69, 75
1, 4793, Note_on_c, 1, 50, 0
1, 4797, Note_on_c, 0, 69, 0
1, 4800, Note_on_c, 0, 74, 75
1, 4800, Note_on_c, 1, 50, 75
1, 4823, Note_on_c, 1, 50, 0
1, 4824, Note_on_c, 1, 57, 75
1, 4847, Note_on_c, 1, 57, 0
1, 4848, Note_on_c, 1, 54, 75
1, 4871, Note_on_c, 1, 54, 0
1, 4872, Note_on_c, 1, 57, 75
1, 4889, Note_on_c, 0, 74, 0
1, 4895, Note_on_c, 1, 57, 0
1, 4896, Note_on_c, 0, 79, 75
1, 4896, Note_on_c, 1, 50, 75
1, 4919, Note_on_c, 0, 79, 0
1, 4919, Note_on_c, 1, 50, 0
1, 4920, Note_on_c, 0, 78, 75
1, 4920, Note_on_c, 1, 57, 75
1, 4943, Note_on_c, 0, 78, 0
1, 4943, Note_on_c, 1, 57, 0
1, 4944, Note_on_c, 0, 76, 75
1, 4944, Note_on_c, 1, 54, 75
1, 4967, Note_on_c, 0, 76, 0
1, 4967, Note_on_c, 1, 54, 0
1, 4968, Note_on_c, 0, 74, 75
1, 4968, Note_on_c, 1, 57, 75
1, 4991, Note_on_c, 0, 74, 0
1, 4991, Note_on_c, 1, 57, 0
1, 4992, Note_on_c, 0, 74, 75
1, 4992, Note_on_c, 1, 52, 75
1, 5015, Note_on_c, 1, 52, 0
1, 5016, Note_on_c, 1, 57, 75
1, 5037, Note_on_c, 0, 74, 0
1, 5039, Note_on_c, 1, 57, 0
1, 5040, Note_on_c, 0, 73, 75
1, 5040, Note_on_c, 1, 55, 75
1, 5063, Note_on_c, 1, 55, 0
1, 5064, Note_on_c, 1, 57, 75
1, 5085, Note_on_c, 0, 73, 0
1, 5087, Note_on_c, 1, 57, 0
1, 5088, Note_on_c, 1, 52, 75
1, 5111, Note_on_c, 1, 52, 0
1, 5112, Note_on_c, 1, 57, 75
1, 5135, Note_on_c, 1, 57, 0
1, 5136, Note_on_c, 0, 69, 75
1, 5136, Note_on_c, 1, 55, 75
1, 5159, Note_on_c, 1, 55, 0
1, 5160, Note_on_c, 1, 57, 75
1, 5181, Note_on_c, 0, 69, 0
1, 5183, Note_on_c, 1, 57, 0
1, 5184, Note_on_c, 0, 76, 75
1, 5184, Note_on_c, 1, 49, 75
1, 5207, Note_on_c, 1, 49, 0
1, 5208, Note_on_c, 1, 57, 75
1, 5231, Note_on_c, 1, 57, 0
1, 5232, Note_on_c, 1, 52, 75
1, 5255, Note_on_c, 1, 52, 0
1, 5256, Note_on_c, 1, 57, 75
1, 5273, Note_on_c, 0, 76, 0
1, 5279, Note_on_c, 1, 57, 0
1, 5280, Note_on_c, 0, 81, 75
1, 5280, Note_on_c, 1, 49, 75
1, 5303, Note_on_c, 0, 81, 0
1, 5303, Note_on_c, 1, 49, 0
1, 5304, Note_on_c, 0, 79, 75
1, 5304, Note_on_c, 1, 57, 75
1, 5327, Note_on_c, 0, 79, 0
1, 5327, Note_on_c, 1, 57, 0
1, 5328, Note_on_c, 0, 78, 75
1, 5328, Note_on_c, 1, 52, 75
1, 5351, Note_on_c, 0, 78, 0
1, 5351, Note_on_c, 1, 52, 0
1, 5352, Note_on_c, 0, 76, 75
1, 5352, Note_on_c, 1, 57, 75
1, 5375, Note_on_c, 0, 76, 0
1, 5375, Note_on_c, 1, 57, 0
1, 5376, Note_on_c, 0, 76, 75
1, 5376, Note_on_c, 1, 50, 75
1, 5399, Note_on_c, 1, 50, 0
1, 5400, Note_on_c, 1, 57, 75
1, 5421, Note_on_c, 0, 76, 0
1, 5423, Note_on_c, 1, 57, 0
1, 5424, Note_on_c, 0, 78, 75
1, 5424, Note_on_c, 1, 54, 75
1, 5447, Note_on_c, 1, 54, 0
1, 5448, Note_on_c, 1, 57, 75
1, 5469, Note_on_c, 0, 78, 0
1, 5471, Note_on_c, 1, 57, 0
1, 5472, Note_on_c, 1, 50, 75
1, 5495, Note_on_c, 1, 50, 0
1, 5496, Note_on_c, 1, 57, 75
1, 5519, Note_on_c, 1, 57, 0
1, 5520, Note_on_c, 0, 69, 75
1, 5520, Note_on_c, 1, 54, 75
1, 5543, Note_on_c, 1, 54, 0
1, 5544, Note_on_c, 1, 57, 75
1, 5565, Note_on_c, 0, 69, 0
1, 5567, Note_on_c, 1, 57, 0
1, 5568, Note_on_c, 0, 69, 75
1, 5568, Note_on_c, 1, 54, 75
1, 5591, Note_on_c, 0, 69, 0
1, 5592, Note_on_c, 0, 81, 75
1, 5615, Note_on_c, 0, 81, 0
1, 5616, Note_on_c, 0, 79, 75
1, 5639, Note_on_c, 0, 79, 0
1, 5640, Note_on_c, 0, 78, 75
1, 5657, Note_on_c, 1, 54, 0
1, 5663, Note_on_c, 0, 78, 0
1, 5664, Note_on_c, 0, 76, 75
1, 5687, Note_on_c, 0, 76, 0
1, 5688, Note_on_c, 0, 74, 75
1, 5711, Note_on_c, 0, 74, 0
1, 5712, Note_on_c, 0, 73, 75
1, 5735, Note_on_c, 0, 73, 0
1, 5736, Note_on_c, 0, 74, 75
1, 5759, Note_on_c, 0, 74, 0
1, 5760, Note_on_c, 0, 71, 75
1, 5760, Note_on_c, 1, 55, 75
1, 5783, Note_on_c, 1, 55, 0
1, 5784, Note_on_c, 1, 67, 75
1, 5805, Note_on_c, 0, 71, 0
1, 5807, Note_on_c, 1, 67, 0
1, 5808, Note_on_c, 0, 75, 76
1, 5808, Note_on_c, 1, 54, 75
1, 5831, Note_on_c, 1, 54, 0
1, 5832, Note_on_c, 1, 66, 75
1, 5853, Note_on_c, 0, 75, 0
1, 5855, Note_on_c, 1, 66, 0
1, 5856, Note_on_c, 0, 76, 77
1, 5856, Note_on_c, 1, 52, 75
1, 5879, Note_on_c, 1, 52, 0
1, 5880, Note_on_c, 1, 64, 75
1, 5901, Note_on_c, 0, 76, 0
1, 5903, Note_on_c, 1, 64, 0
1, 5904, Note_on_c, 0, 78, 78
1, 5904, Note_on_c, 1, 51, 75
1, 5927, Note_on_c, 1, 51, 0
1, 5928, Note_on_c, 1, 63, 75
1, 5949, Note_on_c, 0, 78, 0
1, 5951, Note_on_c, 1, 63, 0
1, 5952, Note_on_c, 1, 52, 75
1, 5976, Note_on_c, 0, 79, 79
1, 5999, Note_on_c, 0, 79, 0
1, 6000, Note_on_c, 0, 78, 78
1, 6023, Note_on_c, 0, 78, 0
1, 6024, Note_on_c, 0, 76, 78
1, 6041, Note_on_c, 1, 52, 0
1, 6047, Note_on_c, 0, 76, 0
1, 6048, Note_on_c, 0, 74, 77
1, 6071, Note_on_c, 0, 74, 0
1, 6072, Note_on_c, 0, 73, 76
1, 6095, Note_on_c, 0, 73, 0
1, 6096, Note_on_c, 0, 71, 76
1, 6119, Note_on_c, 0, 71, 0
1, 6120, Note_on_c, 0, 73, 75
1, 6143, Note_on_c, 0, 73, 0
1, 6144, Note_on_c, 0, 69, 75
1, 6144, Note_on_c, 1, 54, 75
1, 6167, Note_on_c, 1, 54, 0
1, 6168, Note_on_c, 1, 66, 75
1, 6189, Note_on_c, 0, 69, 0
1, 6191, Note_on_c, 1, 66, 0
1, 6192, Note_on_c, 0, 73, 76
1, 6192, Note_on_c, 1, 52, 75
1, 6215, Note_on_c, 1, 52, 0
1, 6216, Note_on_c, 1, 64, 75
1, 6237, Note_on_c, 0, 73, 0
1, 6239, Note_on_c, 1, 64, 0
1, 6240, Note_on_c, 0, 74, 77
1, 6240, Note_on_c, 1, 50, 75
1, 6263, Note_on_c, 1, 50, 0
1, 6264, Note_on_c, 1, 62, 75
1, 6285, Note_on_c, 0, 74, 0
1, 6287, Note_on_c, 1, 62, 0
1, 6288, Note_on_c, 0, 76, 78
1, 6288, Note_on_c, 1, 49, 75
1, 6311, Note_on_c, 1, 49, 0
1, 6312, Note_on_c, 1, 61, 75
1, 6333, Note_on_c, 0, 76, 0
1, 6335, Note_on_c, 1, 61, 0
1, 6336, Note_on_c, 1, 50, 75
1, 6360, Note_on_c, 0, 78, 79
1, 6383, Note_on_c, 0, 78, 0
1, 6384, Note_on_c, 0, 76, 78
1, 6407, Note_on_c, 0, 76, 0
1, 6408, Note_on_c, 0, 74, 78
1, 6425, Note_on_c, 1, 50, 0
1, 6431, Note_on_c, 0, 74, 0
1, 6432, Note_on_c, 0, 73, 77
1, 6455, Note_on_c, 0, 73, 0
1, 6456, Note_on_c, 0, 71, 76
1, 6479, Note_on_c, 0, 71, 0
1, 6480, Note_on_c, 0, 69, 76
1, 6503, Note_on_c, 0, 69, 0
1, 6504, Note_on_c, 0, 71, 75
1, 6527, Note_on_c, 0, 71, 0
1, 6528, Note_on_c, 0, 67, 75
1, 6528, Note_on_c, 1, 52, 75
1, 6551, Note_on_c, 1, 52, 0
1, 6552, Note_on_c, 1, 64, 75
1, 6573, Note_on_c, 0, 67, 0
1, 6575, Note_on_c, 1, 64, 0
1, 6576, Note_on_c, 0, 71, 75
1, 6576, Note_on_c, 1, 50, 75
1, 6599, Note_on_c, 1, 50, 0
1, 6600, Note_on_c, 1, 62, 75
1, 6621, Note_on_c, 0, 71, 0
1, 6623, Note_on_c, 1, 62, 0
1, 6624, Note_on_c, 0, 73, 76
1, 6624, Note_on_c, 1, 49, 75
1, 6647, Note_on_c, 1, 49, 0
1, 6648, Note_on_c, 1, 61, 75
1, 6669, Note_on_c, 0, 73, 0
1, 6671, Note_on_c, 1, 61, 0
1, 6672, Note_on_c, 0, 74, 77
1, 6672, Note_on_c, 1, 47, 75
1, 6695, Note_on_c, 1, 47, 0
1, 6696, Note_on_c, 1, 59, 75
1, 6717, Note_on_c, 0, 74, 0
1, 6719, Note_on_c, 1, 59, 0
1, 6720, Note_on_c, 1, 45, 75
1, 6744, Note_on_c, 0, 76, 80
1, 6767, Note_on_c, 0, 76, 0
1, 6768, Note_on_c, 0, 74, 79
1, 6791, Note_on_c, 0, 74, 0
1, 6792, Note_on_c, 0, 73, 78
1, 6809, Note_on_c, 1, 45, 0
1, 6815, Note_on_c, 0, 73, 0
1, 6816, Note_on_c, 0, 71, 77
1, 6839, Note_on_c, 0, 71, 0
1, 6840, Note_on_c, 0, 69, 77
1, 6863, Note_on_c, 0, 69, 0
1, 6864, Note_on_c, 0, 71, 76
1, 6864, Note_on_c, 1, 49, 75
1, 6887, Note_on_c, 0, 71, 0
1, 6888, Note_on_c, 0, 67, 75
1, 6909, Note_on_c, 1, 49, 0
1, 6911, Note_on_c, 0, 67, 0
1, 6912, Note_on_c, 0, 66, 75
1, 6912, Note_on_c, 1, 50, 75
1, 6935, Note_on_c, 1, 50, 0
1, 6936, Note_on_c, 1, 57, 75
1, 6959, Note_on_c, 1, 57, 0
1, 6960, Note_on_c, 0, 66, 0
1, 6960, Note_on_c, 0, 74, 75
1, 6960, Note_on_c, 1, 54, 75
1, 6983, Note_on_c, 1, 54, 0
1, 6984, Note_on_c, 1, 57, 75
1, 7005, Note_on_c, 0, 74, 0
1, 7007, Note_on_c, 1, 57, 0
1, 7008, Note_on_c, 0, 73, 75
1, 7008, Note_on_c, 1, 52, 75
1, 7031, Note_on_c, 1, 52, 0
1, 7032, Note_on_c, 1, 57, 75
1, 7055, Note_on_c, 1, 57, 0
1, 7056, Note_on_c, 0, 73, 0
1, 7056, Note_on_c, 0, 81, 75
1, 7056, Note_on_c, 1, 55, 75
1, 7079, Note_on_c, 1, 55, 0
1, 7080, Note_on_c, 1, 57, 75
1, 7101, Note_on_c, 0, 81, 0
1, 7103, Note_on_c, 1, 57, 0
1, 7104, Note_on_c, 0, 78, 75
1, 7104, Note_on_c, 1, 50, 75
1, 7127, Note_on_c, 1, 50, 0
1, 7128, Note_on_c, 1, 57, 75
1, 7151, Note_on_c, 1, 57, 0
1, 7152, Note_on_c, 0, 78, 0
1, 7152, Note_on_c, 0, 74, 75
1, 7152, Note_on_c, 1, 54, 75
1, 7175, Note_on_c, 1, 54, 0
1, 7176, Note_on_c, 1, 57, 75
1, 7197, Note_on_c, 0, 74, 0
1, 7199, Note_on_c, 1, 57, 0
1, 7200, Note_on_c, 0, 73, 75
1, 7200, Note_on_c, 1, 52, 75
1, 7223, Note_on_c, 1, 52, 0
1, 7224, Note_on_c, 1, 57, 75
1, 7247, Note_on_c, 1, 57, 0
1, 7248, Note_on_c, 0, 73, 0
1, 7248, Note_on_c, 0, 67, 75
1, 7248, Note_on_c, 1, 55, 75
1, 7271, Note_on_c, 1, 55, 0
1, 7272, Note_on_c, 1, 57, 75
1, 7293, Note_on_c, 0, 67, 0
1, 7295, Note_on_c, 1, 57, 0
1, 7296, Note_on_c, 0, 66, 75
1, 7296, Note_on_c, 1, 50, 75
1, 7316, Note_on_c, 0, 66, 0
1, 7319, Note_on_c, 1, 50, 0
1, 7320, Note_on_c, 1, 57, 75
1, 7343, Note_on_c, 1, 57, 0
1, 7344, Note_on_c, 0, 74, 75
1, 7344, Note_on_c, 1, 54, 75
1, 7364, Note_on_c, 0, 74, 0
1, 7367, Note_on_c, 1, 54, 0
1, 7368, Note_on_c, 1, 57, 75
1, 7391, Note_on_c, 1, 57, 0
1, 7392, Note_on_c, 0, 73, 75
1, 7392, Note_on_c, 1, 52, 75
1, 7412, Note_on_c, 0, 73, 0
1, 7415, Note_on_c, 1, 52, 0
1, 7416, Note_on_c, 1, 57, 75
1, 7439, Note_on_c, 1, 57, 0
1, 7440, Note_on_c, 0, 81, 75
1, 7440, Note_on_c, 1, 55, 75
1, 7460, Note_on_c, 0, 81, 0
1, 7463, Note_on_c, 1, 55, 0
1, 7464, Note_on_c, 1, 57, 75
1, 7487, Note_on_c, 1, 57, 0
1, 7488, Note_on_c, 0, 78, 75
1, 7488, Note_on_c, 1, 50, 75
1, 7508, Note_on_c, 0, 78, 0
1, 7511, Note_on_c, 1, 50, 0
1, 7512, Note_on_c, 1, 57, 75
1, 7535, Note_on_c, 1, 57, 0
1, 7536, Note_on_c, 0, 74, 75
1, 7536, Note_on_c, 1, 54, 75
1, 7556, Note_on_c, 0, 74, 0
1, 7559, Note_on_c, 1, 54, 0
1, 7560, Note_on_c, 1, 57, 75
1, 7583, Note_on_c, 1, 57, 0
1, 7584, Note_on_c, 0, 73, 75
1, 7584, Note_on_c, 1, 52, 75
1, 7604, Note_on_c, 0, 73, 0
1, 7607, Note_on_c, 1, 52, 0
1, 7608, Note_on_c, 1, 57, 75
1, 7631, Note_on_c, 1, 57, 0
1, 7632, Note_on_c, 0, 67, 75
1, 7632, Note_on_c, 1, 55, 75
1, 7652, Note_on_c, 0, 67, 0
1, 7655, Note_on_c, 1, 55, 0
1, 7656, Note_on_c, 1, 57, 75
1, 7679, Note_on_c, 1, 57, 0
1, 7680, Note_on_c, 0, 66, 75
1, 7680, Note_on_c, 1, 50, 75
1, 7700, Note_on_c, 0, 66, 0
1, 7703, Note_on_c, 1, 50, 0
1, 7704, Note_on_c, 1, 57, 75
1, 7727, Note_on_c, 1, 57, 0
1, 7728, Note_on_c, 0, 74, 75
1, 7728, Note_on_c, 1, 54, 75
1, 7751, Note_on_c, 1, 54, 0
1, 7752, Note_on_c, 1, 57, 75
1, 7775, Note_on_c, 1, 57, 0
1, 7776, Note_on_c, 0, 74, 0
1, 7776, Note_on_c, 0, 72, 75
1, 7776, Note_on_c, 1, 54, 75
1, 7799, Note_on_c, 1, 54, 0
1, 7800, Note_on_c, 1, 62, 75
1, 7821, Note_on_c, 0, 72, 0
1, 7823, Note_on_c, 1, 62, 0
1, 7824, Note_on_c, 0, 69, 75
1, 7824, Note_on_c, 1, 57, 75
1, 7847, Note_on_c, 1, 57, 0
1, 7848, Note_on_c, 1, 62, 75
1, 7869, Note_on_c, 0, 69, 0
1, 7871, Note_on_c, 1, 62, 0
1, 7872, Note_on_c, 0, 70, 75
1, 7872, Note_on_c, 1, 55, 75
1, 7895, Note_on_c, 1, 55, 0
1, 7896, Note_on_c, 1, 62, 75
1, 7919, Note_on_c, 1, 62, 0
1, 7920, Note_on_c, 1, 59, 75
1, 7943, Note_on_c, 1, 59, 0
1, 7944, Note_on_c, 1, 62, 75
1, 7967, Note_on_c, 1, 62, 0
1, 7968, Note_on_c, 0, 70, 0
1, 7968, Note_on_c, 0, 71, 75
1, 7968, Note_on_c, 1, 55, 75
1, 7988, Note_on_c, 0, 71, 0
1, 8013, Note_on_c, 1, 55, 0
1, 8016, Note_on_c, 0, 83, 75
1, 8039, Note_on_c, 0, 83, 0
1, 8040, Note_on_c, 0, 79, 75
1, 8063, Note_on_c, 0, 79, 0
1, 8064, Note_on_c, 0, 81, 75
1, 8087, Note_on_c, 0, 81, 0
1, 8088, Note_on_c, 0, 78, 75
1, 8111, Note_on_c, 0, 78, 0
1, 8112, Note_on_c, 0, 79, 75
1, 8135, Note_on_c, 0, 79, 0
1, 8136, Note_on_c, 0, 76, 75
1, 8159, Note_on_c, 0, 76, 0
1, 8160, Note_on_c, 0, 78, 75
1, 8183, Note_on_c, 0, 78, 0
1, 8184, Note_on_c, 0, 74, 75
1, 8207, Note_on_c, 0, 74, 0
1, 8208, Note_on_c, 0, 76, 75
1, 8208, Note_on_c, 1, 57, 75
1, 8231, Note_on_c, 0, 76, 0
1, 8232, Note_on_c, 0, 73, 75
1, 8253, Note_on_c, 1, 57, 0
1, 8255, Note_on_c, 0, 73, 0
1, 8256, Note_on_c, 0, 74, 75
1, 8256, Note_on_c, 1, 59, 75
1, 8279, Note_on_c, 1, 59, 0
1, 8280, Note_on_c, 1, 68, 75
1, 8301, Note_on_c, 0, 74, 0
1, 8303, Note_on_c, 1, 68, 0
1, 8304, Note_on_c, 0, 86, 75
1, 8304, Note_on_c, 1, 62, 75
1, 8327, Note_on_c, 1, 62, 0
1, 8328, Note_on_c, 1, 68, 75
1, 8349, Note_on_c, 0, 86, 0
1, 8351, Note_on_c, 1, 68, 0
1, 8352, Note_on_c, 0, 86, 75
1, 8352, Note_on_c, 1, 59, 75
1, 8375, Note_on_c, 1, 59, 0
1, 8376, Note_on_c, 1, 68, 75
1, 8397, Note_on_c, 0, 86, 0
1, 8399, Note_on_c, 1, 68, 0
1, 8400, Note_on_c, 0, 88, 75
1, 8400, Note_on_c, 1, 62, 75
1, 8412, Note_on_c, 0, 88, 0
1, 8412, Note_on_c, 0, 86, 75
1, 8423, Note_on_c, 1, 62, 0
1, 8424, Note_on_c, 0, 86, 0
1, 8424, Note_on_c, 0, 85, 75
1, 8424, Note_on_c, 1, 68, 75
1, 8436, Note_on_c, 0, 85, 0
1, 8436, Note_on_c, 0, 86, 75
1, 8447, Note_on_c, 1, 68, 0
1, 8448, Note_on_c, 0, 86, 0
1, 8448, Note_on_c, 0, 85, 75
1, 8448, Note_on_c, 1, 57, 75
1, 8468, Note_on_c, 0, 85, 0
1, 8471, Note_on_c, 1, 57, 0
1, 8472, Note_on_c, 1, 69, 75
1, 8495, Note_on_c, 1, 69, 0
1, 8496, Note_on_c, 0, 79, 75
1, 8496, Note_on_c, 1, 61, 75
1, 8519, Note_on_c, 1, 61, 0
1, 8520, Note_on_c, 1, 69, 75
1, 8541, Note_on_c, 0, 79, 0
1, 8543, Note_on_c, 1, 69, 0
1, 8544, Note_on_c, 0, 79, 75
1, 8544, Note_on_c, 1, 57, 75
1, 8567, Note_on_c, 1, 57, 0
1, 8568, Note_on_c, 1, 69, 75
1, 8589, Note_on_c, 0, 79, 0
1, 8591, Note_on_c, 1, 69, 0
1, 8592, Note_on_c, 0, 81, 75
1, 8592, Note_on_c, 1, 61, 75
1, 8604, Note_on_c, 0, 81, 0
1, 8604, Note_on_c, 0, 79, 75
1, 8615, Note_on_c, 1, 61, 0
1, 8616, Note_on_c, 0, 79, 0
1, 8616, Note_on_c, 0, 78, 75
1, 8616, Note_on_c, 1, 69, 75
1, 8628, Note_on_c, 0, 78, 0
1, 8628, Note_on_c, 0, 79, 75
1, 8639, Note_on_c, 1, 69, 0
1, 8640, Note_on_c, 0, 79, 0
1, 8640, Note_on_c, 0, 78, 75
1, 8640, Note_on_c, 1, 62, 75
1, 8660, Note_on_c, 0, 78, 0
1, 8663, Note_on_c, 1, 62, 0
1, 8664, Note_on_c, 1, 69, 75
1, 8687, Note_on_c, 1, 69, 0
1, 8688, Note_on_c, 0, 72, 75
1, 8688, Note_on_c, 1, 66, 75
1, 8711, Note_on_c, 1, 66, 0
1, 8712, Note_on_c, 1, 69, 75
1, 8733, Note_on_c, 0, 72, 0
1, 8735, Note_on_c, 1, 69, 0
1, 8736, Note_on_c, 0, 72, 75
1, 8736, Note_on_c, 1, 62, 75
1, 8759, Note_on_c, 1, 62, 0
1, 8760, Note_on_c, 1, 69, 75
1, 8781, Note_on_c, 0, 72, 0
1, 8783, Note_on_c, 1, 69, 0
1, 8784, Note_on_c, 0, 74, 75
1, 8784, Note_on_c, 1, 66, 75
1, 8796, Note_on_c, 0, 74, 0
1, 8796, Note_on_c, 0, 72, 75
1, 8807, Note_on_c, 1, 66, 0
1, 8808, Note_on_c, 0, 72, 0
1, 8808, Note_on_c, 0, 71, 75
1, 8808, Note_on_c, 1, 69, 75
1, 8820, Note_on_c, 0, 71, 0
1, 8820, Note_on_c, 0, 72, 75
1, 8831, Note_on_c, 1, 69, 0
1, 8832, Note_on_c, 0, 72, 0
1, 8832, Note_on_c, 0, 71, 75
1, 8832, Note_on_c, 1, 67, 75
1, 8877, Note_on_c, 0, 71, 0
1, 8880, Note_on_c, 0, 82, 75
1, 8903, Note_on_c, 0, 82, 0
1, 8904, Note_on_c, 0, 83, 75
1, 8921, Note_on_c, 1, 67, 0
1, 8927, Note_on_c, 0, 83, 0
1, 8928, Note_on_c, 0, 81, 75
1, 8951, Note_on_c, 0, 81, 0
1, 8952, Note_on_c, 0, 79, 75
1, 8975, Note_on_c, 0, 79, 0
1, 8976, Note_on_c, 0, 78, 75
1, 8999, Note_on_c, 0, 78, 0
1, 9000, Note_on_c, 0, 76, 75
1, 9023, Note_on_c, 0, 76, 0
1, 9024, Note_on_c, 0, 74, 75
1, 9072, Note_on_c, 1, 54, 75
1, 9113, Note_on_c, 0, 74, 0
1, 9117, Note_on_c, 1, 54, 0
1, 9120, Note_on_c, 0, 76, 75
1, 9120, Note_on_c, 1, 55, 75
1, 9133, Note_on_c, 0, 76, 0
1, 9134, Note_on_c, 0, 78, 75
1, 9147, Note_on_c, 0, 78, 0
1, 9148, Note_on_c, 0, 76, 75
1, 9161, Note_on_c, 0, 76, 0
1, 9162, Note_on_c, 0, 78, 75
1, 9165, Note_on_c, 1, 55, 0
1, 9168, Note_on_c, 1, 57, 75
1, 9175, Note_on_c, 0, 78, 0
1, 9176, Note_on_c, 0, 76, 75
1, 9189, Note_on_c, 0, 76, 0
1, 9190, Note_on_c, 0, 74, 75
1, 9202, Note_on_c, 0, 74, 0
1, 9203, Note_on_c, 0, 76, 75
1, 9213, Note_on_c, 1, 57, 0
1, 9215, Note_on_c, 0, 76, 0
1, 9216, Note_on_c, 0, 74, 75
1, 9216, Note_on_c, 1, 59, 75
1, 9239, Note_on_c, 1, 59, 0
1, 9240, Note_on_c, 1, 68, 75
1, 9261, Note_on_c, 0, 74, 0
1, 9263, Note_on_c, 1, 68, 0
1, 9264, Note_on_c, 0, 86, 75
1, 9264, Note_on_c, 1, 62, 75
1, 9287, Note_on_c, 1, 62, 0
1, 9288, Note_on_c, 1, 68, 75
1, 9309, Note_on_c, 0, 86, 0
1, 9311, Note_on_c, 1, 68, 0
1, 9312, Note_on_c, 0, 86, 75
1, 9312, Note_on_c, 1, 59, 75
1, 9335, Note_on_c, 1, 59, 0
1, 9336, Note_on_c, 1, 68, 75
1, 9357, Note_on_c, 0, 86, 0
1, 9359, Note_on_c, 1, 68, 0
1, 9360, Note_on_c, 0, 88, 75
1, 9360, Note_on_c, 1, 62, 75
1, 9372, Note_on_c, 0, 88, 0
1, 9372, Note_on_c, 0, 86, 75
1, 9383, Note_on_c, 1, 62, 0
1, 9384, Note_on_c, 0, 86, 0
1, 9384, Note_on_c, 0, 85, 75
1, 9384, Note_on_c, 1, 68, 75
1, 9396, Note_on_c, 0, 85, 0
1, 9396, Note_on_c, 0, 86, 75
1, 9407, Note_on_c, 1, 68, 0
1, 9408, Note_on_c, 0, 86, 0
1, 9408, Note_on_c, 0, 85, 75
1, 9408, Note_on_c, 1, 57, 75
1, 9428, Note_on_c, 0, 85, 0
1, 9431, Note_on_c, 1, 57, 0
1, 9432, Note_on_c, 1, 69, 75
1, 9455, Note_on_c, 1, 69, 0
1, 9456, Note_on_c, 0, 79, 75
1, 9456, Note_on_c, 1, 61, 75
1, 9479, Note_on_c, 1, 61, 0
1, 9480, Note_on_c, 1, 69, 75
1, 9501, Note_on_c, 0, 79, 0
1, 9503, Note_on_c, 1, 69, 0
1, 9504, Note_on_c, 0, 79, 75
1, 9504, Note_on_c, 1, 57, 75
1, 9527, Note_on_c, 1, 57, 0
1, 9528, Note_on_c, 1, 69, 75
1, 9549, Note_on_c, 0, 79, 0
1, 9551, Note_on_c, 1, 69, 0
1, 9552, Note_on_c, 0, 81, 75
1, 9552, Note_on_c, 1, 61, 75
1, 9564, Note_on_c, 0, 81, 0
1, 9564, Note_on_c, 0, 79, 75
1, 9575, Note_on_c, 1, 61, 0
1, 9576, Note_on_c, 0, 79, 0
1, 9576, Note_on_c, 0, 78, 75
1, 9576, Note_on_c, 1, 69, 75
1, 9588, Note_on_c, 0, 78, 0
1, 9588, Note_on_c, 0, 79, 75
1, 9599, Note_on_c, 1, 69, 0
1, 9600, Note_on_c, 0, 79, 0
1, 9600, Note_on_c, 0, 78, 75
1, 9600, Note_on_c, 1, 62, 75
1, 9620, Note_on_c, 0, 78, 0
1, 9623, Note_on_c, 1, 62, 0
1, 9624, Note_on_c, 1, 69, 75
1, 9647, Note_on_c, 1, 69, 0
1, 9648, Note_on_c, 0, 72, 75
1, 9648, Note_on_c, 1, 66, 75
1, 9671, Note_on_c, 1, 66, 0
1, 9672, Note_on_c, 1, 69, 75
1, 9693, Note_on_c, 0, 72, 0
1, 9695, Note_on_c, 1, 69, 0
1, 9696, Note_on_c, 0, 72, 75
1, 9696, Note_on_c, 1, 62, 75
1, 9719, Note_on_c, 1, 62, 0
1, 9720, Note_on_c, 1, 69, 75
1, 9741, Note_on_c, 0, 72, 0
1, 9743, Note_on_c, 1, 69, 0
1, 9744, Note_on_c, 0, 74, 75
1, 9744, Note_on_c, 1, 66, 75
1, 9756, Note_on_c, 0, 74, 0
1, 9756, Note_on_c, 0, 72, 75
1, 9767, Note_on_c, 1, 66, 0
1, 9768, Note_on_c, 0, 72, 0
1, 9768, Note_on_c, 0, 71, 75
1, 9768, Note_on_c, 1, 69, 75
1, 9780, Note_on_c, 0, 71, 0
1, 9780, Note_on_c, 0, 72, 75
1, 9791, Note_on_c, 1, 69, 0
1, 9792, Note_on_c, 0, 72, 0
1, 9792, Note_on_c, 0, 71, 75
1, 9792, Note_on_c, 1, 67, 75
1, 9837, Note_on_c, 0, 71, 0
1, 9840, Note_on_c, 0, 82, 75
1, 9863, Note_on_c, 0, 82, 0
1, 9864, Note_on_c, 0, 83, 75
1, 9881, Note_on_c, 1, 67, 0
1, 9887, Note_on_c, 0, 83, 0
1, 9888, Note_on_c, 0, 81, 75
1, 9911, Note_on_c, 0, 81, 0
1, 9912, Note_on_c, 0, 79, 75
1, 9935, Note_on_c, 0, 79, 0
1, 9936, Note_on_c, 0, 78, 75
1, 9959, Note_on_c, 0, 78, 0
1, 9960, Note_on_c, 0, 76, 75
1, 9983, Note_on_c, 0, 76, 0
1, 9984, Note_on_c, 0, 74, 75
1, 10032, Note_on_c, 1, 54, 75
1, 10073, Note_on_c, 0, 74, 0
1, 10077, Note_on_c, 1, 54, 0
1, 10080, Note_on_c, 0, 76, 75
1, 10080, Note_on_c, 1, 55, 75
1, 10093, Note_on_c, 0, 76, 0
1, 10094, Note_on_c, 0, 78, 75
1, 10107, Note_on_c, 0, 78, 0
1, 10108, Note_on_c, 0, 76, 75
1, 10121, Note_on_c, 0, 76, 0
1, 10122, Note_on_c, 0, 78, 75
1, 10125, Note_on_c, 1, 55, 0
1, 10128, Note_on_c, 1, 57, 75
1, 10135, Note_on_c, 0, 78, 0
1, 10136, Note_on_c, 0, 76, 75
1, 10149, Note_on_c, 0, 76, 0
1, 10150, Note_on_c, 0, 74, 75
1, 10162, Note_on_c, 0, 74, 0
1, 10163, Note_on_c, 0, 76, 75
1, 10173, Note_on_c, 1, 57, 0
1, 10175, Note_on_c, 0, 76, 0
1, 10176, Note_on_c, 0, 78, 75
1, 10176, Note_on_c, 1, 50, 75
1, 10199, Note_on_c, 0, 78, 0
1, 10200, Note_on_c, 0, 74, 75
1, 10221, Note_on_c, 1, 50, 0
1, 10223, Note_on_c, 0, 74, 0
1, 10224, Note_on_c, 0, 86, 75
1, 10224, Note_on_c, 1, 54, 75
1, 10247, Note_on_c, 0, 86, 0
1, 10248, Note_on_c, 0, 81, 75
1, 10269, Note_on_c, 1, 54, 0
1, 10271, Note_on_c, 0, 81, 0
1, 10272, Note_on_c, 0, 83, 75
1, 10272, Note_on_c, 1, 55, 75
1, 10295, Note_on_c, 0, 83, 0
1, 10296, Note_on_c, 0, 78, 75
1, 10319, Note_on_c, 0, 78, 0
1, 10320, Note_on_c, 0, 79, 75
1, 10343, Note_on_c, 0, 79, 0
1, 10344, Note_on_c, 0, 76, 75
1, 10361, Note_on_c, 1, 55, 0
1, 10367, Note_on_c, 0, 76, 0
1, 10368, Note_on_c, 0, 74, 75
1, 10416, Note_on_c, 1, 54, 75
1, 10457, Note_on_c, 0, 74, 0
1, 10461, Note_on_c, 1, 54, 0
1, 10464, Note_on_c, 0, 76, 75
1, 10464, Note_on_c, 1, 55, 75
1, 10477, Note_on_c, 0, 76, 0
1, 10478, Note_on_c, 0, 78, 75
1, 10491, Note_on_c, 0, 78, 0
1, 10492, Note_on_c, 0, 76, 75
1, 10505, Note_on_c, 0, 76, 0
1, 10506, Note_on_c, 0, 78, 75
1, 10509, Note_on_c, 1, 55, 0
1, 10512, Note_on_c, 1, 57, 75
1, 10519, Note_on_c, 0, 78, 0
1, 10520, Note_on_c, 0, 76, 75
1, 10533, Note_on_c, 0, 76, 0
1, 10534, Note_on_c, 0, 74, 75
1, 10546, Note_on_c, 0, 74, 0
1, 10547, Note_on_c, 0, 76, 75
1, 10557, Note_on_c, 1, 57, 0
1, 10559, Note_on_c, 0, 76, 0
1, 10560, Note_on_c, 0, 74, 75
1, 10560, Note_on_c, 1, 50, 75
1, 10583, Note_on_c, 1, 50, 0
1, 10584, Note_on_c, 1, 62, 75
1, 10605, Note_on_c, 0, 74, 0
1, 10607, Note_on_c, 1, 62, 0
1, 10608, Note_on_c, 1, 50, 75
1, 10631, Note_on_c, 1, 50, 0
1, 10632, Note_on_c, 1, 62, 75
1, 10655, Note_on_c, 1, 62, 0
1, 10656, Note_on_c, 0, 79, 75
1, 10656, Note_on_c, 0, 73, 75
1, 10656, Note_on_c, 1, 50, 75
1, 10676, Note_on_c, 0, 79, 0
1, 10676, Note_on_c, 0, 73, 0
1, 10679, Note_on_c, 1, 50, 0
1, 10680, Note_on_c, 1, 62, 75
1, 10703, Note_on_c, 1, 62, 0
1, 10704, Note_on_c, 1, 50, 75
1, 10727, Note_on_c, 1, 50, 0
1, 10728, Note_on_c, 1, 62, 75
1, 10751, Note_on_c, 1, 62, 0
1, 10752, Note_on_c, 0, 78, 75
1, 10752, Note_on_c, 0, 74, 75
1, 10752, Note_on_c, 1, 50, 75
1, 10772, Note_on_c, 0, 78, 0
1, 10772, Note_on_c, 0, 74, 0
1, 10775, Note_on_c, 1, 50, 0
1, 10776, Note_on_c, 1, 62, 75
1, 10799, Note_on_c, 1, 62, 0
1, 10800, Note_on_c, 1, 50, 75
1, 10823, Note_on_c, 1, 50, 0
1, 10824, Note_on_c, 1, 62, 75
1, 10847, Note_on_c, 1, 62, 0
1, 10848, Note_on_c, 0, 73, 75
1, 10848, Note_on_c, 0, 67, 75
1, 10848, Note_on_c, 1, 50, 75
1, 10868, Note_on_c, 0, 73, 0
1, 10868, Note_on_c, 0, 67, 0
1, 10871, Note_on_c, 1, 50, 0
1, 10872, Note_on_c, 1, 62, 75
1, 10895, Note_on_c, 1, 62, 0
1, 10896, Note_on_c, 1, 50, 75
1, 10919, Note_on_c, 1, 50, 0
1, 10920, Note_on_c, 1, 62, 75
1, 10943, Note_on_c, 1, 62, 0
1, 10944, Note_on_c, 0, 74, 75
1, 10944, Note_on_c, 0, 66, 75
1, 10944, Note_on_c, 1, 50, 75
1, 11033, Note_on_c, 0, 74, 0
1, 11033, Note_on_c, 0, 66, 0
1, 11033, Note_on_c, 1, 50, 0
1, 11088, Note_on_c, 0, 62, 75
1, 11133, Note_on_c, 0, 62, 0
1, 11136, Note_on_c, 0, 67, 75
1, 11136, Note_on_c, 1, 59, 75
1, 11136, Note_on_c, 1, 55, 75
1, 11181, Note_on_c, 0, 67, 0
1, 11184, Note_on_c, 0, 69, 75
1, 11194, Note_on_c, 0, 69, 0
1, 11194, Note_on_c, 0, 67, 75
1, 11204, Note_on_c, 0, 67, 0
1, 11204, Note_on_c, 0, 66, 75
1, 11214, Note_on_c, 0, 66, 0
1, 11214, Note_on_c, 0, 67, 75
1, 11223, Note_on_c, 0, 67, 0
1, 11223, Note_on_c, 0, 69, 75
1, 11225, Note_on_c, 1, 59, 0
1, 11225, Note_on_c, 1, 55, 0
1, 11232, Note_on_c, 0, 69, 0
1, 11232, Note_on_c, 0, 71, 75
1, 11277, Note_on_c, 0, 71, 0
1, 11280, Note_on_c, 0, 72, 75
1, 11290, Note_on_c, 0, 72, 0
1, 11290, Note_on_c, 0, 71, 75
1, 11300, Note_on_c, 0, 71, 0
1, 11300, Note_on_c, 0, 69, 75
1, 11310, Note_on_c, 0, 69, 0
1, 11310, Note_on_c, 0, 71, 75
1, 11319, Note_on_c, 0, 71, 0
1, 11319, Note_on_c, 0, 72, 75
1, 11328, Note_on_c, 0, 72, 0
1, 11328, Note_on_c, 0, 74, 75
1, 11373, Note_on_c, 0, 74, 0
1, 11376, Note_on_c, 0, 74, 75
1, 11376, Note_on_c, 1, 71, 75
1, 11376, Note_on_c, 1, 67, 75
1, 11421, Note_on_c, 0, 74, 0
1, 11421, Note_on_c, 1, 71, 0
1, 11421, Note_on_c, 1, 67, 0
1, 11424, Note_on_c, 0, 74, 75
1, 11424, Note_on_c, 1, 69, 75
1, 11424, Note_on_c, 1, 66, 75
1, 11469, Note_on_c, 0, 74, 0
1, 11469, Note_on_c, 1, 69, 0
1, 11469, Note_on_c, 1, 66, 0
1, 11472, Note_on_c, 0, 74, 75
1, 11472, Note_on_c, 1, 72, 75
1, 11472, Note_on_c, 1, 69, 75
1, 11517, Note_on_c, 0, 74, 0
1, 11517, Note_on_c, 1, 72, 0
1, 11517, Note_on_c, 1, 69, 0
1, 11520, Note_on_c, 0, 74, 75
1, 11520, Note_on_c, 1, 71, 75
1, 11520, Note_on_c, 1, 67, 75
1, 11565, Note_on_c, 0, 74, 0
1, 11568, Note_on_c, 0, 76, 77
1, 11591, Note_on_c, 0, 76, 0
1, 11592, Note_on_c, 0, 78, 78
1, 11609, Note_on_c, 1, 71, 0
1, 11609, Note_on_c, 1, 67, 0
1, 11615, Note_on_c, 0, 78, 0
1, 11616, Note_on_c, 0, 81, 80
1, 11639, Note_on_c, 0, 81, 0
1, 11640, Note_on_c, 0, 79, 78
1, 11663, Note_on_c, 0, 79, 0
1, 11664, Note_on_c, 0, 78, 77
1, 11687, Note_on_c, 0, 78, 0
1, 11688, Note_on_c, 0, 76, 76
1, 11711, Note_on_c, 0, 76, 0
1, 11712, Note_on_c, 0, 74, 75
1, 11757, Note_on_c, 0, 74, 0
1, 11760, Note_on_c, 0, 74, 75
1, 11760, Note_on_c, 1, 71, 75
1, 11760, Note_on_c, 1, 67, 75
1, 11805, Note_on_c, 0, 74, 0
1, 11805, Note_on_c, 1, 71, 0
1, 11805, Note_on_c, 1, 67, 0
1, 11808, Note_on_c, 0, 74, 75
1, 11808, Note_on_c, 1, 69, 75
1, 11808, Note_on_c, 1, 66, 75
1, 11853, Note_on_c, 0, 74, 0
1, 11853, Note_on_c, 1, 69, 0
1, 11853, Note_on_c, 1, 66, 0
1, 11856, Note_on_c, 0, 74, 75
1, 11856, Note_on_c, 1, 72, 75
1, 11856, Note_on_c, 1, 69, 75
1, 11901, Note_on_c, 0, 74, 0
1, 11901, Note_on_c, 1, 72, 0
1, 11901, Note_on_c, 1, 69, 0
1, 11904, Note_on_c, 0, 74, 75
1, 11904, Note_on_c, 1, 71, 75
1, 11904, Note_on_c, 1, 67, 75
1, 11949, Note_on_c, 0, 74, 0
1, 11952, Note_on_c, 0, 76, 75
1, 11975, Note_on_c, 0, 76, 0
1, 11976, Note_on_c, 0, 78, 75
1, 11993, Note_on_c, 1, 71, 0
1, 11993, Note_on_c, 1, 67, 0
1, 11999, Note_on_c, 0, 78, 0
1, 12000, Note_on_c, 0, 81, 75
1, 12023, Note_on_c, 0, 81, 0
1, 12024, Note_on_c, 0, 79, 75
1, 12047, Note_on_c, 0, 79, 0
1, 12048, Note_on_c, 0, 78, 75
1, 12048, Note_on_c, 1, 72, 75
1, 12048, Note_on_c, 1, 67, 75
1, 12071, Note_on_c, 0, 78, 0
1, 12072, Note_on_c, 0, 76, 75
1, 12093, Note_on_c, 1, 72, 0
1, 12093, Note_on_c, 1, 67, 0
1, 12095, Note_on_c, 0, 76, 0
1, 12096, Note_on_c, 0, 74, 75
1, 12096, Note_on_c, 1, 71, 75
1, 12096, Note_on_c, 1, 67, 75
1, 12141, Note_on_c, 0, 74, 0
1, 12144, Note_on_c, 0, 79, 75
1, 12167, Note_on_c, 0, 79, 0
1, 12168, Note_on_c, 0, 83, 75
1, 12185, Note_on_c, 1, 71, 0
1, 12185, Note_on_c, 1, 67, 0
1, 12191, Note_on_c, 0, 83, 0
1, 12192, Note_on_c, 0, 81, 75
1, 12215, Note_on_c, 0, 81, 0
1, 12216, Note_on_c, 0, 79, 75
1, 12239, Note_on_c, 0, 79, 0
1, 12240, Note_on_c, 0, 78, 75
1, 12263, Note_on_c, 0, 78, 0
1, 12264, Note_on_c, 0, 76, 75
1, 12287, Note_on_c, 0, 76, 0
1, 12288, Note_on_c, 0, 74, 75
1, 12336, Note_on_c, 1, 71, 75
1, 12377, Note_on_c, 0, 74, 0
1, 12381, Note_on_c, 1, 71, 0
1, 12384, Note_on_c, 0, 72, 75
1, 12384, Note_on_c, 1, 69, 75
1, 12397, Note_on_c, 0, 72, 0
1, 12398, Note_on_c, 0, 74, 75
1, 12411, Note_on_c, 0, 74, 0
1, 12412, Note_on_c, 0, 72, 75
1, 12425, Note_on_c, 0, 72, 0
1, 12426, Note_on_c, 0, 74, 75
1, 12429, Note_on_c, 1, 69, 0
1, 12432, Note_on_c, 1, 62, 75
1, 12439, Note_on_c, 0, 74, 0
1, 12440, Note_on_c, 0, 72, 75
1, 12453, Note_on_c, 0, 72, 0
1, 12454, Note_on_c, 0, 71, 75
1, 12466, Note_on_c, 0, 71, 0
1, 12467, Note_on_c, 0, 72, 75
1, 12477, Note_on_c, 1, 62, 0
1, 12479, Note_on_c, 0, 72, 0
1, 12480, Note_on_c, 0, 71, 75
1, 12480, Note_on_c, 1, 67, 75
1, 12480, Note_on_c, 1, 67, 64
1, 12569, Note_on_c, 0, 71, 0
1, 12569, Note_on_c, 1, 67, 0
1, 12569, Note_on_c, 1, 67, 0
1, 12624, Note_on_c, 0, 67, 80
1, 12624, Note_on_c, 1, 55, 80
1, 12624, Note_on_c, 1, 43, 80
1, 12669, Note_on_c, 0, 67, 0
1, 12669, Note_on_c, 1, 55, 0
1, 12669, Note_on_c, 1, 43, 0
1, 12672, Note_on_c, 0, 66, 80
1, 12672, Note_on_c, 1, 54, 80
1, 12672, Note_on_c, 1, 42, 80
1, 12684, Note_on_c, 0, 66, 0
1, 12684, Note_on_c, 0, 67, 80
1, 12696, Note_on_c, 0, 67, 0
1, 12696, Note_on_c, 0, 66, 80
1, 12717, Note_on_c, 0, 66, 0
1, 12717, Note_on_c, 1, 54, 0
1, 12717, Note_on_c, 1, 42, 0
1, 12720, Note_on_c, 0, 64, 80
1, 12720, Note_on_c, 1, 52, 80
1, 12720, Note_on_c, 1, 40, 80
1, 12765, Note_on_c, 0, 64, 0
1, 12765, Note_on_c, 1, 52, 0
1, 12765, Note_on_c, 1, 40, 0
1, 12768, Note_on_c, 0, 62, 80
1, 12768, Note_on_c, 1, 50, 80
1, 12768, Note_on_c, 1, 38, 80
1, 12780, Note_on_c, 0, 62, 0
1, 12780, Note_on_c, 0, 64, 80
1, 12792, Note_on_c, 0, 64, 0
1, 12792, Note_on_c, 0, 62, 80
1, 12813, Note_on_c, 0, 62, 0
1, 12813, Note_on_c, 1, 50, 0
1, 12813, Note_on_c, 1, 38, 0
1, 12816, Note_on_c, 0, 60, 80
1, 12816, Note_on_c, 1, 48, 80
1, 12816, Note_on_c, 1, 36, 80
1, 12861, Note_on_c, 0, 60, 0
1, 12861, Note_on_c, 1, 48, 0
1, 12861, Note_on_c, 1, 36, 0
1, 12864, Note_on_c, 0, 59, 80
1, 12864, Note_on_c, 1, 47, 80
1, 12864, Note_on_c, 1, 35, 80
1, 12953, Note_on_c, 0, 59, 0
1, 12953, Note_on_c, 1, 47, 0
1, 12953, Note_on_c, 1, 35, 0
1, 13008, Note_on_c, 0, 64, 75
1, 13008, Note_on_c, 1, 52, 75
1, 13023, Note_on_c, 0, 64, 0
1, 13023, Note_on_c, 1, 52, 0
1, 13024, Note_on_c, 0, 66, 75
1, 13024, Note_on_c, 1, 54, 75
1, 13039, Note_on_c, 0, 66, 0
1, 13039, Note_on_c, 1, 54, 0
1, 13040, Note_on_c, 0, 64, 75
1, 13040, Note_on_c, 1, 52, 75
1, 13055, Note_on_c, 0, 64, 0
1, 13055, Note_on_c, 1, 52, 0
1, 13056, Note_on_c, 0, 62, 75
1, 13056, Note_on_c, 1, 50, 75
1, 13101, Note_on_c, 0, 62, 0
1, 13101, Note_on_c, 1, 50, 0
1, 13104, Note_on_c, 0, 60, 75
1, 13104, Note_on_c, 1, 48, 75
1, 13119, Note_on_c, 0, 60, 0
1, 13119, Note_on_c, 1, 48, 0
1, 13120, Note_on_c, 0, 62, 75
1, 13120, Note_on_c, 1, 50, 75
1, 13135, Note_on_c, 0, 62, 0
1, 13135, Note_on_c, 1, 50, 0
1, 13136, Note_on_c, 0, 60, 75
1, 13136, Note_on_c, 1, 48, 75
1, 13151, Note_on_c, 0, 60, 0
1, 13151, Note_on_c, 1, 48, 0
1, 13152, Note_on_c, 0, 59, 75
1, 13152, Note_on_c, 1, 47, 75
1, 13197, Note_on_c, 0, 59, 0
1, 13197, Note_on_c, 1, 47, 0
1, 13200, Note_on_c, 0, 57, 75
1, 13200, Note_on_c, 1, 45, 75
1, 13215, Note_on_c, 0, 57, 0
1, 13215, Note_on_c, 1, 45, 0
1, 13216, Note_on_c, 0, 59, 75
1, 13216, Note_on_c, 1, 47, 75
1, 13231, Note_on_c, 0, 59, 0
1, 13231, Note_on_c, 1, 47, 0
1, 13232, Note_on_c, 0, 57, 75
1, 13232, Note_on_c, 1, 45, 75
1, 13247, Note_on_c, 0, 57, 0
1, 13247, Note_on_c, 1, 45, 0
1, 13248, Note_on_c, 0, 55, 75
1, 13248, Note_on_c, 1, 43, 75
1, 13337, Note_on_c, 0, 55, 0
1, 13337, Note_on_c, 1, 43, 0
1, 13392, Note_on_c, 0, 62, 75
1, 13437, Note_on_c, 0, 62, 0
1, 13440, Note_on_c, 0, 67, 75
1, 13440, Note_on_c, 1, 59, 75
1, 13440, Note_on_c, 1, 55, 75
1, 13464, Note_on_c, 0, 67, 0
1, 13464, Note_on_c, 0, 66, 75
1, 13487, Note_on_c, 0, 66, 0
1, 13488, Note_on_c, 0, 69, 75
1, 13512, Note_on_c, 0, 69, 0
1, 13512, Note_on_c, 0, 67, 75
1, 13529, Note_on_c, 1, 59, 0
1, 13529, Note_on_c, 1, 55, 0
1, 13535, Note_on_c, 0, 67, 0
1, 13536, Note_on_c, 0, 71, 75
1, 13560, Note_on_c, 0, 71, 0
1, 13560, Note_on_c, 0, 69, 75
1, 13583, Note_on_c, 0, 69, 0
1, 13584, Note_on_c, 0, 72, 75
1, 13608, Note_on_c, 0, 72, 0
1, 13608, Note_on_c, 0, 71, 75
1, 13631, Note_on_c, 0, 71, 0
1, 13632, Note_on_c, 0, 74, 75
1, 13677, Note_on_c, 0, 74, 0
1, 13680, Note_on_c, 0, 74, 75
1, 13680, Note_on_c, 1, 71, 75
1, 13680, Note_on_c, 1, 67, 75
1, 13725, Note_on_c, 0, 74, 0
1, 13725, Note_on_c, 1, 71, 0
1, 13725, Note_on_c, 1, 67, 0
1, 13728, Note_on_c, 0, 74, 75
1, 13728, Note_on_c, 1, 69, 75
1, 13728, Note_on_c, 1, 66, 75
1, 13773, Note_on_c, 0, 74, 0
1, 13773, Note_on_c, 1, 69, 0
1, 13773, Note_on_c, 1, 66, 0
1, 13776, Note_on_c, 0, 74, 75
1, 13776, Note_on_c, 1, 72, 75
1, 13776, Note_on_c, 1, 69, 75
1, 13821, Note_on_c, 0, 74, 0
1, 13821, Note_on_c, 1, 72, 0
1, 13821, Note_on_c, 1, 69, 0
1, 13824, Note_on_c, 0, 74, 75
1, 13824, Note_on_c, 1, 71, 75
1, 13824, Note_on_c, 1, 67, 75
1, 13869, Note_on_c, 0, 74, 0
1, 13872, Note_on_c, 0, 76, 75
1, 13895, Note_on_c, 0, 76, 0
1, 13896, Note_on_c, 0, 78, 77
1, 13913, Note_on_c, 1, 71, 0
1, 13913, Note_on_c, 1, 67, 0
1, 13919, Note_on_c, 0, 78, 0
1, 13920, Note_on_c, 0, 81, 80
1, 13943, Note_on_c, 0, 81, 0
1, 13944, Note_on_c, 0, 79, 78
1, 13967, Note_on_c, 0, 79, 0
1, 13968, Note_on_c, 0, 78, 77
1, 13991, Note_on_c, 0, 78, 0
1, 13992, Note_on_c, 0, 76, 76
1, 14015, Note_on_c, 0, 76, 0
1, 14016, Note_on_c, 0, 74, 75
1, 14061, Note_on_c, 0, 74, 0
1, 14064, Note_on_c, 0, 74, 75
1, 14064, Note_on_c, 1, 71, 75
1, 14064, Note_on_c, 1, 67, 75
1, 14109, Note_on_c, 0, 74, 0
1, 14109, Note_on_c, 1, 71, 0
1, 14109, Note_on_c, 1, 67, 0
1, 14112, Note_on_c, 0, 74, 75
1, 14112, Note_on_c, 1, 69, 75
1, 14112, Note_on_c, 1, 66, 75
1, 14157, Note_on_c, 0, 74, 0
1, 14157, Note_on_c, 1, 69, 0
1, 14157, Note_on_c, 1, 66, 0
1, 14160, Note_on_c, 0, 74, 75
1, 14160, Note_on_c, 1, 72, 75
1, 14160, Note_on_c, 1, 69, 75
1, 14205, Note_on_c, 0, 74, 0
1, 14205, Note_on_c, 1, 72, 0
1, 14205, Note_on_c, 1, 69, 0
1, 14208, Note_on_c, 0, 74, 75
1, 14208, Note_on_c, 1, 71, 75
1, 14208, Note_on_c, 1, 67, 75
1, 14253, Note_on_c, 0, 74, 0
1, 14256, Note_on_c, 0, 79, 75
1, 14301, Note_on_c, 0, 79, 0
1, 14304, Note_on_c, 0, 77, 75
1, 14349, Note_on_c, 0, 77, 0
1, 14352, Note_on_c, 0, 74, 75
1, 14397, Note_on_c, 0, 74, 0
1, 14400, Note_on_c, 0, 75, 75
1, 14445, Note_on_c, 1, 71, 0
1, 14445, Note_on_c, 1, 67, 0
1, 14448, Note_on_c, 1, 72, 75
1, 14448, Note_on_c, 1, 67, 75
1, 14468, Note_on_c, 1, 72, 0
1, 14468, Note_on_c, 1, 67, 0
1, 14489, Note_on_c, 0, 75, 0
1, 14496, Note_on_c, 0, 76, 75
1, 14496, Note_on_c, 1, 72, 75
1, 14496, Note_on_c, 1, 67, 75
1, 14516, Note_on_c, 1, 72, 0
1, 14516, Note_on_c, 1, 67, 0
1, 14544, Note_on_c, 1, 72, 75
1, 14544, Note_on_c, 1, 67, 75
1, 14564, Note_on_c, 1, 72, 0
1, 14564, Note_on_c, 1, 67, 0
1, 14592, Note_on_c, 1, 72, 75
1, 14592, Note_on_c, 1, 67, 75
1, 14637, Note_on_c, 0, 76, 0
1, 14640, Note_on_c, 0, 79, 75
1, 14681, Note_on_c, 1, 72, 0
1, 14681, Note_on_c, 1, 67, 0
1, 14685, Note_on_c, 0, 79, 0
1, 14688, Note_on_c, 0, 76, 75
1, 14733, Note_on_c, 0, 76, 0
1, 14736, Note_on_c, 0, 72, 75
1, 14781, Note_on_c, 0, 72, 0
1, 14784, Note_on_c, 0, 73, 75
1, 14832, Note_on_c, 1, 71, 75
1, 14832, Note_on_c, 1, 67, 75
1, 14852, Note_on_c, 1, 71, 0
1, 14852, Note_on_c, 1, 67, 0
1, 14873, Note_on_c, 0, 73, 0
1, 14880, Note_on_c, 0, 74, 75
1, 14880, Note_on_c, 1, 71, 75
1, 14880, Note_on_c, 1, 67, 75
1, 14900, Note_on_c, 1, 71, 0
1, 14900, Note_on_c, 1, 67, 0
1, 14928, Note_on_c, 1, 71, 75
1, 14928, Note_on_c, 1, 67, 75
1, 14948, Note_on_c, 1, 71, 0
1, 14948, Note_on_c, 1, 67, 0
1, 14976, Note_on_c, 1, 71, 75
1, 14976, Note_on_c, 1, 67, 75
1, 15021, Note_on_c, 0, 74, 0
1, 15024, Note_on_c, 0, 79, 75
1, 15036, Note_on_c, 0, 79, 0
1, 15036, Note_on_c, 0, 83, 75
1, 15065, Note_on_c, 1, 71, 0
1, 15065, Note_on_c, 1, 67, 0
1, 15069, Note_on_c, 0, 83, 0
1, 15072, Note_on_c, 0, 81, 75
1, 15084, Note_on_c, 0, 81, 0
1, 15084, Note_on_c, 0, 79, 75
1, 15118, Note_on_c, 0, 79, 0
1, 15120, Note_on_c, 0, 78, 75
1, 15132, Note_on_c, 0, 78, 0
1, 15132, Note_on_c, 0, 76, 75
1, 15166, Note_on_c, 0, 76, 0
1, 15168, Note_on_c, 0, 74, 75
1, 15216, Note_on_c, 1, 69, 75
1, 15261, Note_on_c, 1, 69, 0
1, 15264, Note_on_c, 0, 74, 0
1, 15264, Note_on_c, 0, 72, 75
1, 15264, Note_on_c, 1, 66, 75
1, 15276, Note_on_c, 0, 72, 0
1, 15276, Note_on_c, 0, 74, 75
1, 15288, Note_on_c, 0, 74, 0
1, 15288, Note_on_c, 0, 72, 75
1, 15309, Note_on_c, 0, 72, 0
1, 15309, Note_on_c, 1, 66, 0
1, 15312, Note_on_c, 0, 71, 75
1, 15312, Note_on_c, 1, 67, 75
1, 15357, Note_on_c, 0, 71, 0
1, 15357, Note_on_c, 1, 67, 0
1, 15360, Note_on_c, 0, 71, 75
1, 15360, Note_on_c, 1, 60, 75
1, 15383, Note_on_c, 0, 71, 0
1, 15384, Note_on_c, 0, 69, 76
1, 15407, Note_on_c, 0, 69, 0
1, 15408, Note_on_c, 0, 75, 77
1, 15431, Note_on_c, 0, 75, 0
1, 15432, Note_on_c, 0, 76, 78
1, 15455, Note_on_c, 0, 76, 0
1, 15456, Note_on_c, 0, 74, 80
1, 15479, Note_on_c, 0, 74, 0
1, 15480, Note_on_c, 0, 72, 78
1, 15493, Note_on_c, 1, 60, 0
1, 15503, Note_on_c, 0, 72, 0
1, 15504, Note_on_c, 0, 71, 77
1, 15504, Note_on_c, 1, 61, 75
1, 15527, Note_on_c, 0, 71, 0
1, 15528, Note_on_c, 0, 69, 76
1, 15549, Note_on_c, 1, 61, 0
1, 15551, Note_on_c, 0, 69, 0
1, 15552, Note_on_c, 0, 67, 75
1, 15552, Note_on_c, 1, 62, 75
1, 15597, Note_on_c, 1, 62, 0
1, 15600, Note_on_c, 1, 57, 75
1, 15645, Note_on_c, 1, 57, 0
1, 15648, Note_on_c, 0, 67, 0
1, 15648, Note_on_c, 0, 66, 75
1, 15648, Note_on_c, 1, 50, 75
1, 15693, Note_on_c, 0, 66, 0
1, 15696, Note_on_c, 0, 69, 75
1, 15737, Note_on_c, 1, 50, 0
1, 15741, Note_on_c, 0, 69, 0
1, 15744, Note_on_c, 0, 74, 75
1, 15744, Note_on_c, 1, 50, 75
1, 15767, Note_on_c, 1, 50, 0
1, 15768, Note_on_c, 1, 57, 75
1, 15791, Note_on_c, 1, 57, 0
1, 15792, Note_on_c, 1, 54, 75
1, 15815, Note_on_c, 1, 54, 0
1, 15816, Note_on_c, 1, 57, 75
1, 15833, Note_on_c, 0, 74, 0
1, 15839, Note_on_c, 1, 57, 0
1, 15840, Note_on_c, 0, 79, 75
1, 15840, Note_on_c, 1, 50, 75
1, 15863, Note_on_c, 0, 79, 0
1, 15863, Note_on_c, 1, 50, 0
1, 15864, Note_on_c, 0, 78, 75
1, 15864, Note_on_c, 1, 57, 75
1, 15887, Note_on_c, 0, 78, 0
1, 15887, Note_on_c, 1, 57, 0
1, 15888, Note_on_c, 0, 76, 75
1, 15888, Note_on_c, 1, 54, 75
1, 15911, Note_on_c, 0, 76, 0
1, 15911, Note_on_c, 1, 54, 0
1, 15912, Note_on_c, 0, 74, 75
1, 15912, Note_on_c, 1, 57, 75
1, 15935, Note_on_c, 0, 74, 0
1, 15935, Note_on_c, 1, 57, 0
1, 15936, Note_on_c, 0, 74, 75
1, 15936, Note_on_c, 1, 52, 75
1, 15959, Note_on_c, 1, 52, 0
1, 15960, Note_on_c, 1, 57, 75
1, 15981, Note_on_c, 0, 74, 0
1, 15983, Note_on_c, 1, 57, 0
1, 15984, Note_on_c, 0, 73, 75
1, 15984, Note_on_c, 1, 55, 75
1, 16007, Note_on_c, 1, 55, 0
1, 16008, Note_on_c, 1, 57, 75
1, 16029, Note_on_c, 0, 73, 0
1, 16031, Note_on_c, 1, 57, 0
1, 16032, Note_on_c, 1, 52, 75
1, 16055, Note_on_c, 1, 52, 0
1, 16056, Note_on_c, 1, 57, 75
1, 16079, Note_on_c, 1, 57, 0
1, 16080, Note_on_c, 0, 69, 75
1, 16080, Note_on_c, 1, 55, 75
1, 16103, Note_on_c, 1, 55, 0
1, 16104, Note_on_c, 1, 57, 75
1, 16125, Note_on_c, 0, 69, 0
1, 16127, Note_on_c, 1, 57, 0
1, 16128, Note_on_c, 0, 76, 75
1, 16128, Note_on_c, 1, 49, 75
1, 16151, Note_on_c, 1, 49, 0
1, 16152, Note_on_c, 1, 57, 75
1, 16175, Note_on_c, 1, 57, 0
1, 16176, Note_on_c, 1, 52, 75
1, 16199, Note_on_c, 1, 52, 0
1, 16200, Note_on_c, 1, 57, 75
1, 16217, Note_on_c, 0, 76, 0
1, 16223, Note_on_c, 1, 57, 0
1, 16224, Note_on_c, 0, 81, 75
1, 16224, Note_on_c, 1, 49, 75
1, 16247, Note_on_c, 0, 81, 0
1, 16247, Note_on_c, 1, 49, 0
1, 16248, Note_on_c, 0, 79, 75
1, 16248, Note_on_c, 1, 57, 75
1, 16271, Note_on_c, 0, 79, 0
1, 16271, Note_on_c, 1, 57, 0
1, 16272, Note_on_c, 0, 78, 75
1, 16272, Note_on_c, 1, 52, 75
1, 16295, Note_on_c, 0, 78, 0
1, 16295, Note_on_c, 1, 52, 0
1, 16296, Note_on_c, 0, 76, 75
1, 16296, Note_on_c, 1, 57, 75
1, 16319, Note_on_c, 0, 76, 0
1, 16319, Note_on_c, 1, 57, 0
1, 16320, Note_on_c, 0, 76, 75
1, 16320, Note_on_c, 1, 50, 75
1, 16343, Note_on_c, 1, 50, 0
1, 16344, Note_on_c, 1, 57, 75
1, 16365, Note_on_c, 0, 76, 0
1, 16367, Note_on_c, 1, 57, 0
1, 16368, Note_on_c, 0, 78, 75
1, 16368, Note_on_c, 1, 54, 75
1, 16391, Note_on_c, 1, 54, 0
1, 16392, Note_on_c, 1, 57, 75
1, 16413, Note_on_c, 0, 78, 0
1, 16415, Note_on_c, 1, 57, 0
1, 16416, Note_on_c, 1, 50, 75
1, 16439, Note_on_c, 1, 50, 0
1, 16440, Note_on_c, 1, 57, 75
1, 16463, Note_on_c, 1, 57, 0
1, 16464, Note_on_c, 0, 69, 75
1, 16464, Note_on_c, 1, 54, 75
1, 16487, Note_on_c, 1, 54, 0
1, 16488, Note_on_c, 1, 57, 75
1, 16509, Note_on_c, 0, 69, 0
1, 16511, Note_on_c, 1, 57, 0
1, 16512, Note_on_c, 0, 69, 75
1, 16512, Note_on_c, 1, 54, 75
1, 16535, Note_on_c, 0, 69, 0
1, 16536, Note_on_c, 0, 81, 75
1, 16559, Note_on_c, 0, 81, 0
1, 16560, Note_on_c, 0, 79, 75
1, 16583, Note_on_c, 0, 79, 0
1, 16584, Note_on_c, 0, 78, 75
1, 16601, Note_on_c, 1, 54, 0
1, 16607, Note_on_c, 0, 78, 0
1, 16608, Note_on_c, 0, 76, 75
1, 16631, Note_on_c, 0, 76, 0
1, 16632, Note_on_c, 0, 74, 75
1, 16655, Note_on_c, 0, 74, 0
1, 16656, Note_on_c, 0, 73, 75
1, 16679, Note_on_c, 0, 73, 0
1, 16680, Note_on_c, 0, 74, 75
1, 16703, Note_on_c, 0, 74, 0
1, 16704, Note_on_c, 0, 71, 75
1, 16704, Note_on_c, 1, 55, 75
1, 16727, Note_on_c, 1, 55, 0
1, 16728, Note_on_c, 1, 67, 75
1, 16749, Note_on_c, 0, 71, 0
1, 16751, Note_on_c, 1, 67, 0
1, 16752, Note_on_c, 0, 75, 76
1, 16752, Note_on_c, 1, 54, 75
1, 16775, Note_on_c, 1, 54, 0
1, 16776, Note_on_c, 1, 66, 75
1, 16797, Note_on_c, 0, 75, 0
1, 16799, Note_on_c, 1, 66, 0
1, 16800, Note_on_c, 0, 76, 77
1, 16800, Note_on_c, 1, 52, 75
1, 16823, Note_on_c, 1, 52, 0
1, 16824, Note_on_c, 1, 64, 75
1, 16845, Note_on_c, 0, 76, 0
1, 16847, Note_on_c, 1, 64, 0
1, 16848, Note_on_c, 0, 78, 78
1, 16848, Note_on_c, 1, 51, 75
1, 16871, Note_on_c, 1, 51, 0
1, 16872, Note_on_c, 1, 63, 75
1, 16893, Note_on_c, 0, 78, 0
1, 16895, Note_on_c, 1, 63, 0
1, 16896, Note_on_c, 1, 52, 75
1, 16920, Note_on_c, 0, 79, 79
1, 16943, Note_on_c, 0, 79, 0
1, 16944, Note_on_c, 0, 78, 78
1, 16967, Note_on_c, 0, 78, 0
1, 16968, Note_on_c, 0, 76, 78
1, 16985, Note_on_c, 1, 52, 0
1, 16991, Note_on_c, 0, 76, 0
1, 16992, Note_on_c, 0, 74, 77
1, 17015, Note_on_c, 0, 74, 0
1, 17016, Note_on_c, 0, 73, 76
1, 17039, Note_on_c, 0, 73, 0
1, 17040, Note_on_c, 0, 71, 76
1, 17063, Note_on_c, 0, 71, 0
1, 17064, Note_on_c, 0, 73, 75
1, 17087, Note_on_c, 0, 73, 0
1, 17088, Note_on_c, 0, 69, 75
1, 17088, Note_on_c, 1, 54, 75
1, 17111, Note_on_c, 1, 54, 0
1, 17112, Note_on_c, 1, 66, 75
1, 17133, Note_on_c, 0, 69, 0
1, 17135, Note_on_c, 1, 66, 0
1, 17136, Note_on_c, 0, 73, 76
1, 17136, Note_on_c, 1, 52, 75
1, 17159, Note_on_c, 1, 52, 0
1, 17160, Note_on_c, 1, 64, 75
1, 17181, Note_on_c, 0, 73, 0
1, 17183, Note_on_c, 1, 64, 0
1, 17184, Note_on_c, 0, 74, 77
1, 17184, Note_on_c, 1, 50, 75
1, 17207, Note_on_c, 1, 50, 0
1, 17208, Note_on_c, 1, 62, 75
1, 17229, Note_on_c, 0, 74, 0
1, 17231, Note_on_c, 1, 62, 0
1, 17232, Note_on_c, 0, 76, 78
1, 17232, Note_on_c, 1, 49, 75
1, 17255, Note_on_c, 1, 49, 0
1, 17256, Note_on_c, 1, 61, 75
1, 17277, Note_on_c, 0, 76, 0
1, 17279, Note_on_c, 1, 61, 0
1, 17280, Note_on_c, 1, 50, 75
1, 17304, Note_on_c, 0, 78, 79
1, 17327, Note_on_c, 0, 78, 0
1, 17328, Note_on_c, 0, 76, 78
1, 17351, Note_on_c, 0, 76, 0
1, 17352, Note_on_c, 0, 74, 78
1, 17369, Note_on_c, 1, 50, 0
1, 17375, Note_on_c, 0, 74, 0
1, 17376, Note_on_c, 0, 73, 77
1, 17399, Note_on_c, 0, 73, 0
1, 17400, Note_on_c, 0, 71, 76
1, 17423, Note_on_c, 0, 71, 0
1, 17424, Note_on_c, 0, 69, 76
1, 17447, Note_on_c, 0, 69, 0
1, 17448, Note_on_c, 0, 71, 75
1, 17471, Note_on_c, 0, 71, 0
1, 17472, Note_on_c, 0, 67, 75
1, 17472, Note_on_c, 1, 52, 75
1, 17495, Note_on_c, 1, 52, 0
1, 17496, Note_on_c, 1, 64, 75
1, 17517, Note_on_c, 0, 67, 0
1, 17519, Note_on_c, 1, 64, 0
1, 17520, Note_on_c, 0, 71, 75
1, 17520, Note_on_c, 1, 50, 75
1, 17543, Note_on_c, 1, 50, 0
1, 17544, Note_on_c, 1, 62, 75
1, 17565, Note_on_c, 0, 71, 0
1, 17567, Note_on_c, 1, 62, 0
1, 17568, Note_on_c, 0, 73, 76
1, 17568, Note_on_c, 1, 49, 75
1, 17591, Note_on_c, 1, 49, 0
1, 17592, Note_on_c, 1, 61, 75
1, 17613, Note_on_c, 0, 73, 0
1, 17615, Note_on_c, 1, 61, 0
1, 17616, Note_on_c, 0, 74, 77
1, 17616, Note_on_c, 1, 47, 75
1, 17639, Note_on_c, 1, 47, 0
1, 17640, Note_on_c, 1, 59, 75
1, 17661, Note_on_c, 0, 74, 0
1, 17663, Note_on_c, 1, 59, 0
1, 17664, Note_on_c, 1, 45, 75
1, 17688, Note_on_c, 0, 76, 80
1, 17711, Note_on_c, 0, 76, 0
1, 17712, Note_on_c, 0, 74, 79
1, 17735, Note_on_c, 0, 74, 0
1, 17736, Note_on_c, 0, 73, 78
1, 17753, Note_on_c, 1, 45, 0
1, 17759, Note_on_c, 0, 73, 0
1, 17760, Note_on_c, 0, 71, 77
1, 17783, Note_on_c, 0, 71, 0
1, 17784, Note_on_c, 0, 69, 77
1, 17807, Note_on_c, 0, 69, 0
1, 17808, Note_on_c, 0, 71, 76
1, 17808, Note_on_c, 1, 49, 75
1, 17831, Note_on_c, 0, 71, 0
1, 17832, Note_on_c, 0, 67, 75
1, 17853, Note_on_c, 1, 49, 0
1, 17855, Note_on_c, 0, 67, 0
1, 17856, Note_on_c, 0, 66, 75
1, 17856, Note_on_c, 1, 50, 75
1, 17879, Note_on_c, 1, 50, 0
1, 17880, Note_on_c, 1, 57, 75
1, 17903, Note_on_c, 1, 57, 0
1, 17904, Note_on_c, 0, 66, 0
1, 17904, Note_on_c, 0, 74, 75
1, 17904, Note_on_c, 1, 54, 75
1, 17927, Note_on_c, 1, 54, 0
1, 17928, Note_on_c, 1, 57, 75
1, 17949, Note_on_c, 0, 74, 0
1, 17951, Note_on_c, 1, 57, 0
1, 17952, Note_on_c, 0, 73, 75
1, 17952, Note_on_c, 1, 52, 75
1, 17975, Note_on_c, 1, 52, 0
1, 17976, Note_on_c, 1, 57, 75
1, 17999, Note_on_c, 1, 57, 0
1, 18000, Note_on_c, 0, 73, 0
1, 18000, Note_on_c, 0, 81, 75
1, 18000, Note_on_c, 1, 55, 75
1, 18023, Note_on_c, 1, 55, 0
1, 18024, Note_on_c, 1, 57, 75
1, 18045, Note_on_c, 0, 81, 0
1, 18047, Note_on_c, 1, 57, 0
1, 18048, Note_on_c, 0, 78, 75
1, 18048, Note_on_c, 1, 50, 75
1, 18071, Note_on_c, 1, 50, 0
1, 18072, Note_on_c, 1, 57, 75
1, 18095, Note_on_c, 1, 57, 0
1, 18096, Note_on_c, 0, 78, 0
1, 18096, Note_on_c, 0, 74, 75
1, 18096, Note_on_c, 1, 54, 75
1, 18119, Note_on_c, 1, 54, 0
1, 18120, Note_on_c, 1, 57, 75
1, 18141, Note_on_c, 0, 74, 0
1, 18143, Note_on_c, 1, 57, 0
1, 18144, Note_on_c, 0, 73, 75
1, 18144, Note_on_c, 1, 52, 75
1, 18167, Note_on_c, 1, 52, 0
1, 18168, Note_on_c, 1, 57, 75
1, 18191, Note_on_c, 1, 57, 0
1, 18192, Note_on_c, 0, 73, 0
1, 18192, Note_on_c, 0, 67, 75
1, 18192, Note_on_c, 1, 55, 75
1, 18215, Note_on_c, 1, 55, 0
1, 18216, Note_on_c, 1, 57, 75
1, 18237, Note_on_c, 0, 67, 0
1, 18239, Note_on_c, 1, 57, 0
1, 18240, Note_on_c, 0, 66, 75
1, 18240, Note_on_c, 1, 50, 75
1, 18260, Note_on_c, 0, 66, 0
1, 18263, Note_on_c, 1, 50, 0
1, 18264, Note_on_c, 1, 57, 75
1, 18287, Note_on_c, 1, 57, 0
1, 18288, Note_on_c, 0, 74, 75
1, 18288, Note_on_c, 1, 54, 75
1, 18308, Note_on_c, 0, 74, 0
1, 18311, Note_on_c, 1, 54, 0
1, 18312, Note_on_c, 1, 57, 75
1, 18335, Note_on_c, 1, 57, 0
1, 18336, Note_on_c, 0, 73, 75
1, 18336, Note_on_c, 1, 52, 75
1, 18356, Note_on_c, 0, 73, 0
1, 18359, Note_on_c, 1, 52, 0
1, 18360, Note_on_c, 1, 57, 75
1, 18383, Note_on_c, 1, 57, 0
1, 18384, Note_on_c, 0, 81, 75
1, 18384, Note_on_c, 1, 55, 75
1, 18404, Note_on_c, 0, 81, 0
1, 18407, Note_on_c, 1, 55, 0
1, 18408, Note_on_c, 1, 57, 75
1, 18431, Note_on_c, 1, 57, 0
1, 18432, Note_on_c, 0, 78, 75
1, 18432, Note_on_c, 1, 50, 75
1, 18452, Note_on_c, 0, 78, 0
1, 18455, Note_on_c, 1, 50, 0
1, 18456, Note_on_c, 1, 57, 75
1, 18479, Note_on_c, 1, 57, 0
1, 18480, Note_on_c, 0, 74, 75
1, 18480, Note_on_c, 1, 54, 75
1, 18500, Note_on_c, 0, 74, 0
1, 18503, Note_on_c, 1, 54, 0
1, 18504, Note_on_c, 1, 57, 75
1, 18527, Note_on_c, 1, 57, 0
1, 18528, Note_on_c, 0, 73, 75
1, 18528, Note_on_c, 1, 52, 75
1, 18548, Note_on_c, 0, 73, 0
1, 18551, Note_on_c, 1, 52, 0
1, 18552, Note_on_c, 1, 57, 75
1, 18575, Note_on_c, 1, 57, 0
1, 18576, Note_on_c, 0, 67, 75
1, 18576, Note_on_c, 1, 55, 75
1, 18596, Note_on_c, 0, 67, 0
1, 18599, Note_on_c, 1, 55, 0
1, 18600, Note_on_c, 1, 57, 75
1, 18623, Note_on_c, 1, 57, 0
1, 18624, Note_on_c, 0, 66, 75
1, 18624, Note_on_c, 1, 50, 75
1, 18644, Note_on_c, 0, 66, 0
1, 18647, Note_on_c, 1, 50, 0
1, 18648, Note_on_c, 1, 57, 75
1, 18671, Note_on_c, 1, 57, 0
1, 18672, Note_on_c, 0, 74, 75
1, 18672, Note_on_c, 1, 54, 75
1, 18695, Note_on_c, 1, 54, 0
1, 18696, Note_on_c, 1, 57, 75
1, 18719, Note_on_c, 1, 57, 0
1, 18720, Note_on_c, 0, 74, 0
1, 18720, Note_on_c, 0, 72, 75
1, 18720, Note_on_c, 1, 54, 75
1, 18743, Note_on_c, 1, 54, 0
1, 18744, Note_on_c, 1, 62, 75
1, 18765, Note_on_c, 0, 72, 0
1, 18767, Note_on_c, 1, 62, 0
1, 18768, Note_on_c, 0, 69, 75
1, 18768, Note_on_c, 1, 57, 75
1, 18791, Note_on_c, 1, 57, 0
1, 18792, Note_on_c, 1, 62, 75
1, 18813, Note_on_c, 0, 69, 0
1, 18815, Note_on_c, 1, 62, 0
1, 18816, Note_on_c, 0, 70, 75
1, 18816, Note_on_c, 1, 55, 75
1, 18839, Note_on_c, 1, 55, 0
1, 18840, Note_on_c, 1, 62, 75
1, 18863, Note_on_c, 1, 62, 0
1, 18864, Note_on_c, 1, 59, 75
1, 18887, Note_on_c, 1, 59, 0
1, 18888, Note_on_c, 1, 62, 75
1, 18911, Note_on_c, 1, 62, 0
1, 18912, Note_on_c, 0, 70, 0
1, 18912, Note_on_c, 0, 71, 75
1, 18912, Note_on_c, 1, 55, 75
1, 18932, Note_on_c, 0, 71, 0
1, 18957, Note_on_c, 1, 55, 0
1, 18960, Note_on_c, 0, 83, 75
1, 18983, Note_on_c, 0, 83, 0
1, 18984, Note_on_c, 0, 79, 75
1, 19007, Note_on_c, 0, 79, 0
1, 19008, Note_on_c, 0, 81, 75
1, 19031, Note_on_c, 0, 81, 0
1, 19032, Note_on_c, 0, 78, 75
1, 19055, Note_on_c, 0, 78, 0
1, 19056, Note_on_c, 0, 79, 75
1, 19079, Note_on_c, 0, 79, 0
1, 19080, Note_on_c, 0, 76, 75
1, 19103, Note_on_c, 0, 76, 0
1, 19104, Note_on_c, 0, 78, 75
1, 19127, Note_on_c, 0, 78, 0
1, 19128, Note_on_c, 0, 74, 75
1, 19151, Note_on_c, 0, 74, 0
1, 19152, Note_on_c, 0, 76, 75
1, 19152, Note_on_c, 1, 57, 75
1, 19175, Note_on_c, 0, 76, 0
1, 19176, Note_on_c, 0, 73, 75
1, 19197, Note_on_c, 1, 57, 0
1, 19199, Note_on_c, 0, 73, 0
1, 19200, Note_on_c, 0, 74, 75
1, 19200, Note_on_c, 1, 59, 75
1, 19223, Note_on_c, 1, 59, 0
1, 19224, Note_on_c, 1, 68, 75
1, 19245, Note_on_c, 0, 74, 0
1, 19247, Note_on_c, 1, 68, 0
1, 19248, Note_on_c, 0, 86, 75
1, 19248, Note_on_c, 1, 62, 75
1, 19271, Note_on_c, 1, 62, 0
1, 19272, Note_on_c, 1, 68, 75
1, 19293, Note_on_c, 0, 86, 0
1, 19295, Note_on_c, 1, 68, 0
1, 19296, Note_on_c, 0, 86, 75
1, 19296, Note_on_c, 1, 59, 75
1, 19319, Note_on_c, 1, 59, 0
1, 19320, Note_on_c, 1, 68, 75
1, 19341, Note_on_c, 0, 86, 0
1, 19343, Note_on_c, 1, 68, 0
1, 19344, Note_on_c, 0, 88, 75
1, 19344, Note_on_c, 1, 62, 75
1, 19356, Note_on_c, 0, 88, 0
1, 19356, Note_on_c, 0, 86, 75
1, 19367, Note_on_c, 1, 62, 0
1, 19368, Note_on_c, 0, 86, 0
1, 19368, Note_on_c, 0, 85, 75
1, 19368, Note_on_c, 1, 68, 75
1, 19380, Note_on_c, 0, 85, 0
1, 19380, Note_on_c, 0, 86, 75
1, 19391, Note_on_c, 1, 68, 0
1, 19392, Note_on_c, 0, 86, 0
1, 19392, Note_on_c, 0, 85, 75
1, 19392, Note_on_c, 1, 57, 75
1, 19412, Note_on_c, 0, 85, 0
1, 19415, Note_on_c, 1, 57, 0
1, 19416, Note_on_c, 1, 69, 75
1, 19439, Note_on_c, 1, 69, 0
1, 19440, Note_on_c, 0, 79, 75
1, 19440, Note_on_c, 1, 61, 75
1, 19463, Note_on_c, 1, 61, 0
1, 19464, Note_on_c, 1, 69, 75
1, 19485, Note_on_c, 0, 79, 0
1, 19487, Note_on_c, 1, 69, 0
1, 19488, Note_on_c, 0, 79, 75
1, 19488, Note_on_c, 1, 57, 75
1, 19511, Note_on_c, 1, 57, 0
1, 19512, Note_on_c, 1, 69, 75
1, 19533, Note_on_c, 0, 79, 0
1, 19535, Note_on_c, 1, 69, 0
1, 19536, Note_on_c, 0, 81, 75
1, 19536, Note_on_c, 1, 61, 75
1, 19548, Note_on_c, 0, 81, 0
1, 19548, Note_on_c, 0, 79, 75
1, 19559, Note_on_c, 1, 61, 0
1, 19560, Note_on_c, 0, 79, 0
1, 19560, Note_on_c, 0, 78, 75
1, 19560, Note_on_c, 1, 69, 75
1, 19572, Note_on_c, 0, 78, 0
1, 19572, Note_on_c, 0, 79, 75
1, 19583, Note_on_c, 1, 69, 0
1, 19584, Note_on_c, 0, 79, 0
1, 19584, Note_on_c, 0, 78, 75
1, 19584, Note_on_c, 1, 62, 75
1, 19604, Note_on_c, 0, 78, 0
1, 19607, Note_on_c, 1, 62, 0
1, 19608, Note_on_c, 1, 69, 75
1, 19631, Note_on_c, 1, 69, 0
1, 19632, Note_on_c, 0, 72, 75
1, 19632, Note_on_c, 1, 66, 75
1, 19655, Note_on_c, 1, 66, 0
1, 19656, Note_on_c, 1, 69, 75
1, 19677, Note_on_c, 0, 72, 0
1, 19679, Note_on_c, 1, 69, 0
1, 19680, Note_on_c, 0, 72, 75
1, 19680, Note_on_c, 1, 62, 75
1, 19703, Note_on_c, 1, 62, 0
1, 19704, Note_on_c, 1, 69, 75
1, 19725, Note_on_c, 0, 72, 0
1, 19727, Note_on_c, 1, 69, 0
1, 19728, Note_on_c, 0, 74, 75
1, 19728, Note_on_c, 1, 66, 75
1, 19740, Note_on_c, 0, 74, 0
1, 19740, Note_on_c, 0, 72, 75
1, 19751, Note_on_c, 1, 66, 0
1, 19752, Note_on_c, 0, 72, 0
1, 19752, Note_on_c, 0, 71, 75
1, 19752, Note_on_c, 1, 69, 75
1, 19764, Note_on_c, 0, 71, 0
1, 19764, Note_on_c, 0, 72, 75
1, 19775, Note_on_c, 1, 69, 0
1, 19776, Note_on_c, 0, 72, 0
1, 19776, Note_on_c, 0, 71, 75
1, 19776, Note_on_c, 1, 67, 75
1, 19821, Note_on_c, 0, 71, 0
1, 19824, Note_on_c, 0, 82, 75
1, 19847, Note_on_c, 0, 82, 0
1, 19848, Note_on_c, 0, 83, 75
1, 19865, Note_on_c, 1, 67, 0
1, 19871, Note_on_c, 0, 83, 0
1, 19872, Note_on_c, 0, 81, 75
1, 19895, Note_on_c, 0, 81, 0
1, 19896, Note_on_c, 0, 79, 75
1, 19919, Note_on_c, 0, 79, 0
1, 19920, Note_on_c, 0, 78, 75
1, 19943, Note_on_c, 0, 78, 0
1, 19944, Note_on_c, 0, 76, 75
1, 19967, Note_on_c, 0, 76, 0
1, 19968, Note_on_c, 0, 74, 75
1, 20016, Note_on_c, 1, 54, 75
1, 20057, Note_on_c, 0, 74, 0
1, 20061, Note_on_c, 1, 54, 0
1, 20064, Note_on_c, 0, 76, 75
1, 20064, Note_on_c, 1, 55, 75
1, 20077, Note_on_c, 0, 76, 0
1, 20078, Note_on_c, 0, 78, 75
1, 20091, Note_on_c, 0, 78, 0
1, 20092, Note_on_c, 0, 76, 75
1, 20105, Note_on_c, 0, 76, 0
1, 20106, Note_on_c, 0, 78, 75
1, 20109, Note_on_c, 1, 55, 0
1, 20112, Note_on_c, 1, 57, 75
1, 20119, Note_on_c, 0, 78, 0
1, 20120, Note_on_c, 0, 76, 75
1, 20133, Note_on_c, 0, 76, 0
1, 20134, Note_on_c, 0, 74, 75
1, 20146, Note_on_c, 0, 74, 0
1, 20147, Note_on_c, 0, 76, 75
1, 20157, Note_on_c, 1, 57, 0
1, 20159, Note_on_c, 0, 76, 0
1, 20160, Note_on_c, 0, 74, 75
1, 20160, Note_on_c, 1, 59, 75
1, 20183, Note_on_c, 1, 59, 0
1, 20184, Note_on_c, 1, 68, 75
1, 20205, Note_on_c, 0, 74, 0
1, 20207, Note_on_c, 1, 68, 0
1, 20208, Note_on_c, 0, 86, 75
1, 20208, Note_on_c, 1, 62, 75
1, 20231, Note_on_c, 1, 62, 0
1, 20232, Note_on_c, 1, 68, 75
1, 20253, Note_on_c, 0, 86, 0
1, 20255, Note_on_c, 1, 68, 0
1, 20256, Note_on_c, 0, 86, 75
1, 20256, Note_on_c, 1, 59, 75
1, 20279, Note_on_c, 1, 59, 0
1, 20280, Note_on_c, 1, 68, 75
1, 20301, Note_on_c, 0, 86, 0
1, 20303, Note_on_c, 1, 68, 0
1, 20304, Note_on_c, 0, 88, 75
1, 20304, Note_on_c, 1, 62, 75
1, 20316, Note_on_c, 0, 88, 0
1, 20316, Note_on_c, 0, 86, 75
1, 20327, Note_on_c, 1, 62, 0
1, 20328, Note_on_c, 0, 86, 0
1, 20328, Note_on_c, 0, 85, 75
1, 20328, Note_on_c, 1, 68, 75
1, 20340, Note_on_c, 0, 85, 0
1, 20340, Note_on_c, 0, 86, 75
1, 20351, Note_on_c, 1, 68, 0
1, 20352, Note_on_c, 0, 86, 0
1, 20352, Note_on_c, 0, 85, 75
1, 20352, Note_on_c, 1, 57, 75
1, 20372, Note_on_c, 0, 85, 0
1, 20375, Note_on_c, 1, 57, 0
1, 20376, Note_on_c, 1, 69, 75
1, 20399, Note_on_c, 1, 69, 0
1, 20400, Note_on_c, 0, 79, 75
1, 20400, Note_on_c, 1, 61, 75
1, 20423, Note_on_c, 1, 61, 0
1, 20424, Note_on_c, 1, 69, 75
1, 20445, Note_on_c, 0, 79, 0
1, 20447, Note_on_c, 1, 69, 0
1, 20448, Note_on_c, 0, 79, 75
1, 20448, Note_on_c, 1, 57, 75
1, 20471, Note_on_c, 1, 57, 0
1, 20472, Note_on_c, 1, 69, 75
1, 20493, Note_on_c, 0, 79, 0
1, 20495, Note_on_c, 1, 69, 0
1, 20496, Note_on_c, 0, 81, 75
1, 20496, Note_on_c, 1, 61, 75
1, 20508, Note_on_c, 0, 81, 0
1, 20508, Note_on_c, 0, 79, 75
1, 20519, Note_on_c, 1, 61, 0
1, 20520, Note_on_c, 0, 79, 0
1, 20520, Note_on_c, 0, 78, 75
1, 20520, Note_on_c, 1, 69, 75
1, 20532, Note_on_c, 0, 78, 0
1, 20532, Note_on_c, 0, 79, 75
1, 20543, Note_on_c, 1, 69, 0
1, 20544, Note_on_c, 0, 79, 0
1, 20544, Note_on_c, 0, 78, 75
1, 20544, Note_on_c, 1, 62, 75
1, 20564, Note_on_c, 0, 78, 0
1, 20567, Note_on_c, 1, 62, 0
1, 20568, Note_on_c, 1, 69, 75
1, 20591, Note_on_c, 1, 69, 0
1, 20592, Note_on_c, 0, 72, 75
1, 20592, Note_on_c, 1, 66, 75
1, 20615, Note_on_c, 1, 66, 0
1, 20616, Note_on_c, 1, 69, 75
1, 20637, Note_on_c, 0, 72, 0
1, 20639, Note_on_c, 1, 69, 0
1, 20640, Note_on_c, 0, 72, 75
1, 20640, Note_on_c, 1, 62, 75
1, 20663, Note_on_c, 1, 62, 0
1, 20664, Note_on_c, 1, 69, 75
1, 20685, Note_on_c, 0, 72, 0
1, 20687, Note_on_c, 1, 69, 0
1, 20688, Note_on_c, 0, 74, 75
1, 20688, Note_on_c, 1, 66, 75
1, 20700, Note_on_c, 0, 74, 0
1, 20700, Note_on_c, 0, 72, 75
1, 20711, Note_on_c, 1, 66, 0
1, 20712, Note_on_c, 0, 72, 0
1, 20712, Note_on_c, 0, 71, 75
1, 20712, Note_on_c, 1, 69, 75
1, 20724, Note_on_c, 0, 71, 0
1, 20724, Note_on_c, 0, 72, 75
1, 20735, Note_on_c, 1, 69, 0
1, 20736, Note_on_c, 0, 72, 0
1, 20736, Note_on_c, 0, 71, 75
1, 20736, Note_on_c, 1, 67, 75
1, 20781, Note_on_c, 0, 71, 0
1, 20784, Note_on_c, 0, 82, 75
1, 20807, Note_on_c, 0, 82, 0
1, 20808, Note_on_c, 0, 83, 75
1, 20825, Note_on_c, 1, 67, 0
1, 20831, Note_on_c, 0, 83, 0
1, 20832, Note_on_c, 0, 81, 75
1, 20855, Note_on_c, 0, 81, 0
1, 20856, Note_on_c, 0, 79, 75
1, 20879, Note_on_c, 0, 79, 0
1, 20880, Note_on_c, 0, 78, 75
1, 20903, Note_on_c, 0, 78, 0
1, 20904, Note_on_c, 0, 76, 75
1, 20927, Note_on_c, 0, 76, 0
1, 20928, Note_on_c, 0, 74, 75
1, 20976, Note_on_c, 1, 54, 75
1, 21017, Note_on_c, 0, 74, 0
1, 21021, Note_on_c, 1, 54, 0
1, 21024, Note_on_c, 0, 76, 75
1, 21024, Note_on_c, 1, 55, 75
1, 21037, Note_on_c, 0, 76, 0
1, 21038, Note_on_c, 0, 78, 75
1, 21051, Note_on_c, 0, 78, 0
1, 21052, Note_on_c, 0, 76, 75
1, 21065, Note_on_c, 0, 76, 0
1, 21066, Note_on_c, 0, 78, 75
1, 21069, Note_on_c, 1, 55, 0
1, 21072, Note_on_c, 1, 57, 75
1, 21079, Note_on_c, 0, 78, 0
1, 21080, Note_on_c, 0, 76, 75
1, 21093, Note_on_c, 0, 76, 0
1, 21094, Note_on_c, 0, 74, 75
1, 21106, Note_on_c, 0, 74, 0
1, 21107, Note_on_c, 0, 76, 75
1, 21117, Note_on_c, 1, 57, 0
1, 21119, Note_on_c, 0, 76, 0
1, 21120, Note_on_c, 0, 78, 75
1, 21120, Note_on_c, 1, 50, 75
1, 21143, Note_on_c, 0, 78, 0
1, 21144, Note_on_c, 0, 74, 75
1, 21165, Note_on_c, 1, 50, 0
1, 21167, Note_on_c, 0, 74, 0
1, 21168, Note_on_c, 0, 86, 75
1, 21168, Note_on_c, 1, 54, 75
1, 21191, Note_on_c, 0, 86, 0
1, 21192, Note_on_c, 0, 81, 75
1, 21213, Note_on_c, 1, 54, 0
1, 21215, Note_on_c, 0, 81, 0
1, 21216, Note_on_c, 0, 83, 75
1, 21216, Note_on_c, 1, 55, 75
1, 21239, Note_on_c, 0, 83, 0
1, 21240, Note_on_c, 0, 78, 75
1, 21263, Note_on_c, 0, 78, 0
1, 21264, Note_on_c, 0, 79, 75
1, 21287, Note_on_c, 0, 79, 0
1, 21288, Note_on_c, 0, 76, 75
1, 21305, Note_on_c, 1, 55, 0
1, 21311, Note_on_c, 0, 76, 0
1, 21312, Note_on_c, 0, 74, 75
1, 21360, Note_on_c, 1, 54, 75
1, 21401, Note_on_c, 0, 74, 0
1, 21405, Note_on_c, 1, 54, 0
1, 21408, Note_on_c, 0, 76, 75
1, 21408, Note_on_c, 1, 55, 75
1, 21421, Note_on_c, 0, 76, 0
1, 21422, Note_on_c, 0, 78, 75
1, 21435, Note_on_c, 0, 78, 0
1, 21436, Note_on_c, 0, 76, 75
1, 21449, Note_on_c, 0, 76, 0
1, 21450, Note_on_c, 0, 78, 75
1, 21453, Note_on_c, 1, 55, 0
1, 21456, Note_on_c, 1, 57, 75
1, 21463, Note_on_c, 0, 78, 0
1, 21464, Note_on_c, 0, 76, 75
1, 21477, Note_on_c, 0, 76, 0
1, 21478, Note_on_c, 0, 74, 75
1, 21490, Note_on_c, 0, 74, 0
1, 21491, Note_on_c, 0, 76, 75
1, 21501, Note_on_c, 1, 57, 0
1, 21503, Note_on_c, 0, 76, 0
1, 21504, Note_on_c, 0, 74, 75
1, 21504, Note_on_c, 1, 50, 75
1, 21527, Note_on_c, 1, 50, 0
1, 21528, Note_on_c, 1, 62, 75
1, 21549, Note_on_c, 0, 74, 0
1, 21551, Note_on_c, 1, 62, 0
1, 21552, Note_on_c, 1, 50, 75
1, 21575, Note_on_c, 1, 50, 0
1, 21576, Note_on_c, 1, 62, 75
1, 21599, Note_on_c, 1, 62, 0
1, 21600, Note_on_c, 0, 79, 75
1, 21600, Note_on_c, 0, 73, 75
1, 21600, Note_on_c, 1, 50, 75
1, 21620, Note_on_c, 0, 79, 0
1, 21620, Note_on_c, 0, 73, 0
1, 21623, Note_on_c, 1, 50, 0
1, 21624, Note_on_c, 1, 62, 75
1, 21647, Note_on_c, 1, 62, 0
1, 21648, Note_on_c, 1, 50, 75
1, 21671, Note_on_c, 1, 50, 0
1, 21672, Note_on_c, 1, 62, 75
1, 21695, Note_on_c, 1, 62, 0
1, 21696, Note_on_c, 0, 78, 75
1, 21696, Note_on_c, 0, 74, 75
1, 21696, Note_on_c, 1, 50, 75
1, 21716, Note_on_c, 0, 78, 0
1, 21716, Note_on_c, 0, 74, 0
1, 21719, Note_on_c, 1, 50, 0
1, 21720, Note_on_c, 1, 62, 75
1, 21743, Note_on_c, 1, 62, 0
1, 21744, Note_on_c, 1, 50, 75
1, 21767, Note_on_c, 1, 50, 0
1, 21768, Note_on_c, 1, 62, 75
1, 21791, Note_on_c, 1, 62, 0
1, 21792, Note_on_c, 0, 73, 75
1, 21792, Note_on_c, 0, 67, 75
1, 21792, Note_on_c, 1, 50, 75
1, 21812, Note_on_c, 0, 73, 0
1, 21812, Note_on_c, 0, 67, 0
1, 21815, Note_on_c, 1, 50, 0
1, 21816, Note_on_c, 1, 62, 75
1, 21839, Note_on_c, 1, 62, 0
1, 21840, Note_on_c, 1, 50, 75
1, 21863, Note_on_c, 1, 50, 0
1, 21864, Note_on_c, 1, 62, 75
1, 21887, Note_on_c, 1, 62, 0
1, 21888, Note_on_c, 0, 74, 75
1, 21888, Note_on_c, 0, 66, 75
1, 21888, Note_on_c, 1, 50, 75
1, 21977, Note_on_c, 0, 74, 0
1, 21977, Note_on_c, 0, 66, 0
1, 21977, Note_on_c, 1, 50, 0
1, 22032, Note_on_c, 0, 62, 75
1, 22077, Note_on_c, 0, 62, 0
1, 22080, Note_on_c, 0, 65, 80
1, 22080, Note_on_c, 1, 50, 80
1, 22100, Note_on_c, 0, 65, 0
1, 22103, Note_on_c, 1, 50, 0
1, 22104, Note_on_c, 1, 57, 80
1, 22127, Note_on_c, 1, 57, 0
1, 22128, Note_on_c, 0, 69, 80
1, 22128, Note_on_c, 1, 53, 80
1, 22148, Note_on_c, 0, 69, 0
1, 22151, Note_on_c, 1, 53, 0
1, 22152, Note_on_c, 1, 57, 80
1, 22175, Note_on_c, 1, 57, 0
1, 22176, Note_on_c, 0, 74, 80
1, 22176, Note_on_c, 1, 50, 80
1, 22196, Note_on_c, 0, 74, 0
1, 22199, Note_on_c, 1, 50, 0
1, 22200, Note_on_c, 1, 57, 80
1, 22223, Note_on_c, 1, 57, 0
1, 22224, Note_on_c, 0, 77, 80
1, 22224, Note_on_c, 1, 53, 80
1, 22244, Note_on_c, 0, 77, 0
1, 22247, Note_on_c, 1, 53, 0
1, 22248, Note_on_c, 1, 57, 80
1, 22271, Note_on_c, 1, 57, 0
1, 22272, Note_on_c, 0, 68, 80
1, 22272, Note_on_c, 1, 50, 80
1, 22295, Note_on_c, 1, 50, 0
1, 22296, Note_on_c, 1, 59, 80
1, 22319, Note_on_c, 1, 59, 0
1, 22320, Note_on_c, 1, 56, 80
1, 22343, Note_on_c, 1, 56, 0
1, 22344, Note_on_c, 1, 59, 80
1, 22361, Note_on_c, 0, 68, 0
1, 22367, Note_on_c, 1, 59, 0
1, 22368, Note_on_c, 1, 50, 80
1, 22391, Note_on_c, 1, 50, 0
1, 22392, Note_on_c, 1, 59, 80
1, 22415, Note_on_c, 1, 59, 0
1, 22416, Note_on_c, 0, 64, 80
1, 22416, Note_on_c, 1, 56, 80
1, 22439, Note_on_c, 1, 56, 0
1, 22440, Note_on_c, 1, 59, 80
1, 22461, Note_on_c, 0, 64, 0
1, 22463, Note_on_c, 1, 59, 0
1, 22464, Note_on_c, 0, 68, 80
1, 22464, Note_on_c, 1, 50, 80
1, 22484, Note_on_c, 0, 68, 0
1, 22487, Note_on_c, 1, 50, 0
1, 22488, Note_on_c, 1, 59, 80
1, 22511, Note_on_c, 1, 59, 0
1, 22512, Note_on_c, 0, 71, 80
1, 22512, Note_on_c, 1, 56, 80
1, 22532, Note_on_c, 0, 71, 0
1, 22535, Note_on_c, 1, 56, 0
1, 22536, Note_on_c, 1, 59, 80
1, 22559, Note_on_c, 1, 59, 0
1, 22560, Note_on_c, 0, 76, 80
1, 22560, Note_on_c, 1, 50, 80
1, 22580, Note_on_c, 0, 76, 0
1, 22583, Note_on_c, 1, 50, 0
1, 22584, Note_on_c, 1, 59, 80
1, 22607, Note_on_c, 1, 59, 0
1, 22608, Note_on_c, 0, 80, 80
1, 22608, Note_on_c, 1, 56, 80
1, 22628, Note_on_c, 0, 80, 0
1, 22631, Note_on_c, 1, 56, 0
1, 22632, Note_on_c, 1, 59, 80
1, 22655, Note_on_c, 1, 59, 0
1, 22656, Note_on_c, 0, 81, 80
1, 22656, Note_on_c, 1, 48, 80
1, 22679, Note_on_c, 1, 48, 0
1, 22680, Note_on_c, 1, 57, 80
1, 22703, Note_on_c, 1, 57, 0
1, 22704, Note_on_c, 1, 52, 80
1, 22727, Note_on_c, 1, 52, 0
1, 22728, Note_on_c, 1, 57, 80
1, 22745, Note_on_c, 0, 81, 0
1, 22751, Note_on_c, 1, 57, 0
1, 22752, Note_on_c, 1, 48, 80
1, 22775, Note_on_c, 1, 48, 0
1, 22776, Note_on_c, 1, 57, 80
1, 22799, Note_on_c, 1, 57, 0
1, 22800, Note_on_c, 0, 69, 80
1, 22800, Note_on_c, 1, 52, 80
1, 22823, Note_on_c, 1, 52, 0
1, 22824, Note_on_c, 1, 57, 80
1, 22845, Note_on_c, 0, 69, 0
1, 22847, Note_on_c, 1, 57, 0
1, 22848, Note_on_c, 0, 72, 80
1, 22848, Note_on_c, 1, 48, 80
1, 22868, Note_on_c, 0, 72, 0
1, 22871, Note_on_c, 1, 48, 0
1, 22872, Note_on_c, 1, 57, 80
1, 22895, Note_on_c, 1, 57, 0
1, 22896, Note_on_c, 0, 76, 80
1, 22896, Note_on_c, 1, 52, 80
1, 22916, Note_on_c, 0, 76, 0
1, 22919, Note_on_c, 1, 52, 0
1, 22920, Note_on_c, 1, 57, 80
1, 22943, Note_on_c, 1, 57, 0
1, 22944, Note_on_c, 0, 81, 80
1, 22944, Note_on_c, 1, 48, 80
1, 22964, Note_on_c, 0, 81, 0
1, 22967, Note_on_c, 1, 48, 0
1, 22968, Note_on_c, 1, 57, 80
1, 22991, Note_on_c, 1, 57, 0
1, 22992, Note_on_c, 0, 84, 80
1, 22992, Note_on_c, 1, 52, 80
1, 23012, Note_on_c, 0, 84, 0
1, 23015, Note_on_c, 1, 52, 0
1, 23016, Note_on_c, 1, 57, 80
1, 23039, Note_on_c, 1, 57, 0
1, 23040, Note_on_c, 0, 75, 80
1, 23040, Note_on_c, 1, 47, 80
1, 23063, Note_on_c, 1, 47, 0
1, 23064, Note_on_c, 1, 57, 80
1, 23087, Note_on_c, 1, 57, 0
1, 23088, Note_on_c, 1, 54, 80
1, 23111, Note_on_c, 1, 54, 0
1, 23112, Note_on_c, 1, 57, 80
1, 23129, Note_on_c, 0, 75, 0
1, 23135, Note_on_c, 1, 57, 0
1, 23136, Note_on_c, 1, 47, 80
1, 23159, Note_on_c, 1, 47, 0
1, 23160, Note_on_c, 1, 57, 80
1, 23183, Note_on_c, 1, 57, 0
1, 23184, Note_on_c, 0, 81, 80
1, 23184, Note_on_c, 1, 54, 80
1, 23207, Note_on_c, 1, 54, 0
1, 23208, Note_on_c, 1, 57, 80
1, 23229, Note_on_c, 0, 81, 0
1, 23231, Note_on_c, 1, 57, 0
1, 23232, Note_on_c, 0, 78, 80
1, 23232, Note_on_c, 1, 51, 80
1, 23252, Note_on_c, 0, 78, 0
1, 23255, Note_on_c, 1, 51, 0
1, 23256, Note_on_c, 1, 57, 80
1, 23279, Note_on_c, 1, 57, 0
1, 23280, Note_on_c, 0, 75, 80
1, 23280, Note_on_c, 1, 54, 80
1, 23300, Note_on_c, 0, 75, 0
1, 23303, Note_on_c, 1, 54, 0
1, 23304, Note_on_c, 1, 57, 80
1, 23327, Note_on_c, 1, 57, 0
1, 23328, Note_on_c, 0, 71, 80
1, 23328, Note_on_c, 1, 51, 80
1, 23348, Note_on_c, 0, 71, 0
1, 23351, Note_on_c, 1, 51, 0
1, 23352, Note_on_c, 1, 57, 80
1, 23375, Note_on_c, 1, 57, 0
1, 23376, Note_on_c, 0, 69, 80
1, 23376, Note_on_c, 1, 54, 80
1, 23396, Note_on_c, 0, 69, 0
1, 23399, Note_on_c, 1, 54, 0
1, 23400, Note_on_c, 1, 57, 80
1, 23423, Note_on_c, 1, 57, 0
1, 23424, Note_on_c, 0, 67, 80
1, 23424, Note_on_c, 1, 52, 80
1, 23447, Note_on_c, 1, 52, 0
1, 23448, Note_on_c, 1, 59, 80
1, 23471, Note_on_c, 1, 59, 0
1, 23472, Note_on_c, 1, 55, 80
1, 23495, Note_on_c, 1, 55, 0
1, 23496, Note_on_c, 1, 59, 80
1, 23513, Note_on_c, 0, 67, 0
1, 23519, Note_on_c, 1, 59, 0
1, 23520, Note_on_c, 1, 52, 80
1, 23543, Note_on_c, 1, 52, 0
1, 23544, Note_on_c, 1, 59, 80
1, 23567, Note_on_c, 1, 59, 0
1, 23568, Note_on_c, 0, 64, 80
1, 23568, Note_on_c, 1, 55, 80
1, 23591, Note_on_c, 1, 55, 0
1, 23592, Note_on_c, 1, 59, 80
1, 23613, Note_on_c, 0, 64, 0
1, 23615, Note_on_c, 1, 59, 0
1, 23616, Note_on_c, 0, 67, 80
1, 23616, Note_on_c, 1, 52, 80
1, 23636, Note_on_c, 0, 67, 0
1, 23639, Note_on_c, 1, 52, 0
1, 23640, Note_on_c, 1, 59, 80
1, 23663, Note_on_c, 1, 59, 0
1, 23664, Note_on_c, 0, 71, 80
1, 23664, Note_on_c, 1, 55, 80
1, 23684, Note_on_c, 0, 71, 0
1, 23687, Note_on_c, 1, 55, 0
1, 23688, Note_on_c, 1, 59, 80
1, 23711, Note_on_c, 1, 59, 0
1, 23712, Note_on_c, 0, 76, 80
1, 23712, Note_on_c, 1, 52, 80
1, 23732, Note_on_c, 0, 76, 0
1, 23735, Note_on_c, 1, 52, 0
1, 23736, Note_on_c, 1, 59, 80
1, 23759, Note_on_c, 1, 59, 0
1, 23760, Note_on_c, 0, 79, 80
1, 23760, Note_on_c, 1, 55, 80
1, 23780, Note_on_c, 0, 79, 0
1, 23783, Note_on_c, 1, 55, 0
1, 23784, Note_on_c, 1, 59, 80
1, 23807, Note_on_c, 1, 59, 0
1, 23808, Note_on_c, 0, 78, 80
1, 23808, Note_on_c, 1, 51, 80
1, 23831, Note_on_c, 1, 51, 0
1, 23832, Note_on_c, 1, 59, 80
1, 23855, Note_on_c, 1, 59, 0
1, 23856, Note_on_c, 1, 54, 80
1, 23879, Note_on_c, 1, 54, 0
1, 23880, Note_on_c, 1, 59, 80
1, 23897, Note_on_c, 0, 78, 0
1, 23903, Note_on_c, 1, 59, 0
1, 23904, Note_on_c, 1, 51, 80
1, 23927, Note_on_c, 1, 51, 0
1, 23928, Note_on_c, 1, 59, 80
1, 23951, Note_on_c, 1, 59, 0
1, 23952, Note_on_c, 0, 66, 80
1, 23952, Note_on_c, 1, 54, 80
1, 23975, Note_on_c, 1, 54, 0
1, 23976, Note_on_c, 1, 59, 80
1, 23997, Note_on_c, 0, 66, 0
1, 23999, Note_on_c, 1, 59, 0
1, 24000, Note_on_c, 0, 69, 80
1, 24000, Note_on_c, 1, 51, 80
1, 24020, Note_on_c, 0, 69, 0
1, 24023, Note_on_c, 1, 51, 0
1, 24024, Note_on_c, 1, 59, 80
1, 24047, Note_on_c, 1, 59, 0
1, 24048, Note_on_c, 0, 75, 80
1, 24048, Note_on_c, 1, 54, 80
1, 24068, Note_on_c, 0, 75, 0
1, 24071, Note_on_c, 1, 54, 0
1, 24072, Note_on_c, 1, 59, 80
1, 24095, Note_on_c, 1, 59, 0
1, 24096, Note_on_c, 0, 78, 80
1, 24096, Note_on_c, 1, 51, 80
1, 24116, Note_on_c, 0, 78, 0
1, 24119, Note_on_c, 1, 51, 0
1, 24120, Note_on_c, 1, 59, 80
1, 24143, Note_on_c, 1, 59, 0
1, 24144, Note_on_c, 0, 81, 80
1, 24144, Note_on_c, 1, 54, 80
1, 24164, Note_on_c, 0, 81, 0
1, 24167, Note_on_c, 1, 54, 0
1, 24168, Note_on_c, 1, 59, 80
1, 24191, Note_on_c, 1, 59, 0
1, 24192, Note_on_c, 0, 79, 80
1, 24192, Note_on_c, 1, 52, 80
1, 24215, Note_on_c, 1, 52, 0
1, 24216, Note_on_c, 1, 59, 80
1, 24239, Note_on_c, 1, 59, 0
1, 24240, Note_on_c, 1, 55, 80
1, 24263, Note_on_c, 1, 55, 0
1, 24264, Note_on_c, 1, 59, 80
1, 24281, Note_on_c, 0, 79, 0
1, 24287, Note_on_c, 1, 59, 0
1, 24288, Note_on_c, 1, 52, 80
1, 24311, Note_on_c, 1, 52, 0
1, 24312, Note_on_c, 1, 59, 80
1, 24335, Note_on_c, 1, 59, 0
1, 24336, Note_on_c, 0, 64, 80
1, 24336, Note_on_c, 1, 55, 80
1, 24359, Note_on_c, 1, 55, 0
1, 24360, Note_on_c, 1, 59, 80
1, 24381, Note_on_c, 0, 64, 0
1, 24383, Note_on_c, 1, 59, 0
1, 24384, Note_on_c, 0, 67, 80
1, 24384, Note_on_c, 1, 52, 80
1, 24404, Note_on_c, 0, 67, 0
1, 24407, Note_on_c, 1, 52, 0
1, 24408, Note_on_c, 1, 59, 80
1, 24431, Note_on_c, 1, 59, 0
1, 24432, Note_on_c, 0, 71, 80
1, 24432, Note_on_c, 1, 55, 80
1, 24452, Note_on_c, 0, 71, 0
1, 24455, Note_on_c, 1, 55, 0
1, 24456, Note_on_c, 1, 59, 80
1, 24479, Note_on_c, 1, 59, 0
1, 24480, Note_on_c, 0, 76, 80
1, 24480, Note_on_c, 1, 52, 80
1, 24500, Note_on_c, 0, 76, 0
1, 24503, Note_on_c, 1, 52, 0
1, 24504, Note_on_c, 1, 59, 80
1, 24527, Note_on_c, 1, 59, 0
1, 24528, Note_on_c, 0, 79, 80
1, 24528, Note_on_c, 1, 55, 80
1, 24548, Note_on_c, 0, 79, 0
1, 24551, Note_on_c, 1, 55, 0
1, 24552, Note_on_c, 1, 59, 80
1, 24575, Note_on_c, 1, 59, 0
1, 24576, Note_on_c, 0, 70, 80
1, 24576, Note_on_c, 1, 48, 80
1, 24599, Note_on_c, 1, 48, 0
1, 24600, Note_on_c, 1, 58, 80
1, 24623, Note_on_c, 1, 58, 0
1, 24624, Note_on_c, 1, 52, 80
1, 24647, Note_on_c, 1, 52, 0
1, 24648, Note_on_c, 1, 58, 80
1, 24665, Note_on_c, 0, 70, 0
1, 24671, Note_on_c, 1, 58, 0
1, 24672, Note_on_c, 1, 48, 80
1, 24695, Note_on_c, 1, 48, 0
1, 24696, Note_on_c, 1, 58, 80
1, 24719, Note_on_c, 1, 58, 0
1, 24720, Note_on_c, 0, 79, 80
1, 24720, Note_on_c, 1, 52, 80
1, 24740, Note_on_c, 0, 79, 0
1, 24743, Note_on_c, 1, 52, 0
1, 24744, Note_on_c, 1, 58, 80
1, 24767, Note_on_c, 1, 58, 0
1, 24768, Note_on_c, 0, 78, 80
1, 24768, Note_on_c, 1, 48, 80
1, 24780, Note_on_c, 0, 78, 0
1, 24780, Note_on_c, 0, 79, 80
1, 24791, Note_on_c, 1, 48, 0
1, 24792, Note_on_c, 0, 79, 0
1, 24792, Note_on_c, 0, 78, 80
1, 24792, Note_on_c, 1, 58, 80
1, 24804, Note_on_c, 0, 78, 0
1, 24804, Note_on_c, 0, 79, 80
1, 24813, Note_on_c, 0, 79, 0
1, 24815, Note_on_c, 1, 58, 0
1, 24816, Note_on_c, 0, 76, 80
1, 24816, Note_on_c, 1, 52, 80
1, 24839, Note_on_c, 1, 52, 0
1, 24840, Note_on_c, 1, 58, 80
1, 24861, Note_on_c, 0, 76, 0
1, 24863, Note_on_c, 1, 58, 0
1, 24864, Note_on_c, 0, 75, 80
1, 24864, Note_on_c, 1, 48, 80
1, 24887, Note_on_c, 1, 48, 0
1, 24888, Note_on_c, 1, 58, 80
1, 24909, Note_on_c, 0, 75, 0
1, 24911, Note_on_c, 1, 58, 0
1, 24912, Note_on_c, 0, 76, 80
1, 24912, Note_on_c, 1, 52, 80
1, 24935, Note_on_c, 1, 52, 0
1, 24936, Note_on_c, 1, 58, 80
1, 24957, Note_on_c, 0, 76, 0
1, 24959, Note_on_c, 1, 58, 0
1, 24960, Note_on_c, 0, 75, 80
1, 24960, Note_on_c, 1, 47, 80
1, 24980, Note_on_c, 0, 75, 0
1, 24983, Note_on_c, 1, 47, 0
1, 24984, Note_on_c, 1, 57, 80
1, 25007, Note_on_c, 1, 57, 0
1, 25008, Note_on_c, 0, 84, 80
1, 25008, Note_on_c, 1, 51, 80
1, 25031, Note_on_c, 1, 51, 0
1, 25032, Note_on_c, 1, 57, 80
1, 25053, Note_on_c, 0, 84, 0
1, 25055, Note_on_c, 1, 57, 0
1, 25056, Note_on_c, 0, 83, 80
1, 25056, Note_on_c, 1, 47, 80
1, 25068, Note_on_c, 0, 83, 0
1, 25068, Note_on_c, 0, 84, 80
1, 25079, Note_on_c, 1, 47, 0
1, 25080, Note_on_c, 0, 84, 0
1, 25080, Note_on_c, 0, 83, 80
1, 25080, Note_on_c, 1, 57, 80
1, 25092, Note_on_c, 0, 83, 0
1, 25092, Note_on_c, 0, 84, 80
1, 25101, Note_on_c, 0, 84, 0
1, 25103, Note_on_c, 1, 57, 0
1, 25104, Note_on_c, 0, 81, 80
1, 25104, Note_on_c, 1, 51, 80
1, 25127, Note_on_c, 1, 51, 0
1, 25128, Note_on_c, 1, 57, 80
1, 25149, Note_on_c, 0, 81, 0
1, 25151, Note_on_c, 1, 57, 0
1, 25152, Note_on_c, 0, 80, 80
1, 25152, Note_on_c, 1, 52, 80
1, 25164, Note_on_c, 0, 80, 0
1, 25164, Note_on_c, 0, 81, 80
1, 25175, Note_on_c, 1, 52, 0
1, 25176, Note_on_c, 0, 81, 0
1, 25176, Note_on_c, 0, 80, 80
1, 25176, Note_on_c, 1, 62, 80
1, 25188, Note_on_c, 0, 80, 0
1, 25188, Note_on_c, 0, 81, 80
1, 25197, Note_on_c, 0, 81, 0
1, 25199, Note_on_c, 1, 62, 0
1, 25200, Note_on_c, 0, 77, 80
1, 25200, Note_on_c, 1, 56, 80
1, 25223, Note_on_c, 1, 56, 0
1, 25224, Note_on_c, 1, 62, 80
1, 25245, Note_on_c, 0, 77, 0
1, 25247, Note_on_c, 1, 62, 0
1, 25248, Note_on_c, 0, 76, 80
1, 25248, Note_on_c, 1, 52, 80
1, 25271, Note_on_c, 1, 52, 0
1, 25272, Note_on_c, 1, 62, 80
1, 25293, Note_on_c, 0, 76, 0
1, 25295, Note_on_c, 1, 62, 0
1, 25296, Note_on_c, 0, 74, 80
1, 25296, Note_on_c, 1, 56, 80
1, 25319, Note_on_c, 1, 56, 0
1, 25320, Note_on_c, 1, 62, 80
1, 25341, Note_on_c, 0, 74, 0
1, 25343, Note_on_c, 1, 62, 0
1, 25344, Note_on_c, 0, 73, 80
1, 25344, Note_on_c, 1, 57, 80
1, 25364, Note_on_c, 0, 73, 0
1, 25367, Note_on_c, 1, 57, 0
1, 25368, Note_on_c, 1, 67, 80
1, 25391, Note_on_c, 1, 67, 0
1, 25392, Note_on_c, 0, 82, 80
1, 25392, Note_on_c, 1, 61, 80
1, 25415, Note_on_c, 1, 61, 0
1, 25416, Note_on_c, 1, 67, 80
1, 25437, Note_on_c, 0, 82, 0
1, 25439, Note_on_c, 1, 67, 0
1, 25440, Note_on_c, 0, 82, 80
1, 25440, Note_on_c, 1, 57, 80
1, 25452, Note_on_c, 0, 82, 0
1, 25452, Note_on_c, 0, 81, 80
1, 25463, Note_on_c, 1, 57, 0
1, 25464, Note_on_c, 0, 81, 0
1, 25464, Note_on_c, 0, 82, 80
1, 25464, Note_on_c, 1, 67, 80
1, 25476, Note_on_c, 0, 82, 0
1, 25476, Note_on_c, 0, 81, 80
1, 25487, Note_on_c, 1, 67, 0
1, 25488, Note_on_c, 0, 81, 0
1, 25488, Note_on_c, 0, 79, 80
1, 25488, Note_on_c, 1, 61, 80
1, 25511, Note_on_c, 1, 61, 0
1, 25512, Note_on_c, 1, 67, 80
1, 25533, Note_on_c, 0, 79, 0
1, 25535, Note_on_c, 1, 67, 0
1, 25536, Note_on_c, 0, 78, 80
1, 25536, Note_on_c, 1, 60, 80
1, 25556, Note_on_c, 0, 78, 0
1, 25559, Note_on_c, 1, 60, 0
1, 25560, Note_on_c, 1, 69, 80
1, 25583, Note_on_c, 1, 69, 0
1, 25584, Note_on_c, 0, 81, 80
1, 25584, Note_on_c, 1, 66, 80
1, 25604, Note_on_c, 0, 81, 0
1, 25607, Note_on_c, 1, 66, 0
1, 25608, Note_on_c, 1, 69, 80
1, 25631, Note_on_c, 1, 69, 0
1, 25632, Note_on_c, 0, 86, 80
1, 25632, Note_on_c, 1, 60, 80
1, 25652, Note_on_c, 0, 86, 0
1, 25655, Note_on_c, 1, 60, 0
1, 25656, Note_on_c, 1, 69, 80
1, 25679, Note_on_c, 1, 69, 0
1, 25680, Note_on_c, 0, 78, 80
1, 25680, Note_on_c, 1, 66, 80
1, 25700, Note_on_c, 0, 78, 0
1, 25703, Note_on_c, 1, 66, 0
1, 25704, Note_on_c, 1, 69, 80
1, 25727, Note_on_c, 1, 69, 0
1, 25728, Note_on_c, 0, 79, 80
1, 25728, Note_on_c, 1, 59, 80
1, 25748, Note_on_c, 0, 79, 0
1, 25751, Note_on_c, 1, 59, 0
1, 25752, Note_on_c, 1, 67, 80
1, 25775, Note_on_c, 1, 67, 0
1, 25776, Note_on_c, 0, 83, 80
1, 25776, Note_on_c, 1, 62, 80
1, 25796, Note_on_c, 0, 83, 0
1, 25799, Note_on_c, 1, 62, 0
1, 25800, Note_on_c, 1, 67, 80
1, 25823, Note_on_c, 1, 67, 0
1, 25824, Note_on_c, 0, 86, 80
1, 25824, Note_on_c, 1, 59, 80
1, 25844, Note_on_c, 0, 86, 0
1, 25847, Note_on_c, 1, 59, 0
1, 25848, Note_on_c, 1, 67, 80
1, 25871, Note_on_c, 1, 67, 0
1, 25872, Note_on_c, 0, 79, 80
1, 25872, Note_on_c, 1, 62, 80
1, 25892, Note_on_c, 0, 79, 0
1, 25895, Note_on_c, 1, 62, 0
1, 25896, Note_on_c, 1, 67, 80
1, 25919, Note_on_c, 1, 67, 0
1, 25920, Note_on_c, 0, 78, 80
1, 25920, Note_on_c, 1, 60, 80
1, 25940, Note_on_c, 0, 78, 0
1, 25943, Note_on_c, 1, 60, 0
1, 25944, Note_on_c, 1, 69, 80
1, 25967, Note_on_c, 1, 69, 0
1, 25968, Note_on_c, 0, 81, 80
1, 25968, Note_on_c, 1, 66, 80
1, 25988, Note_on_c, 0, 81, 0
1, 25991, Note_on_c, 1, 66, 0
1, 25992, Note_on_c, 1, 69, 80
1, 26015, Note_on_c, 1, 69, 0
1, 26016, Note_on_c, 0, 86, 80
1, 26016, Note_on_c, 1, 60, 80
1, 26036, Note_on_c, 0, 86, 0
1, 26039, Note_on_c, 1, 60, 0
1, 26040, Note_on_c, 1, 69, 80
1, 26063, Note_on_c, 1, 69, 0
1, 26064, Note_on_c, 0, 78, 80
1, 26064, Note_on_c, 1, 66, 80
1, 26084, Note_on_c, 0, 78, 0
1, 26087, Note_on_c, 1, 66, 0
1, 26088, Note_on_c, 1, 69, 80
1, 26111, Note_on_c, 1, 69, 0
1, 26112, Note_on_c, 0, 79, 80
1, 26112, Note_on_c, 1, 58, 80
1, 26132, Note_on_c, 0, 79, 0
1, 26135, Note_on_c, 1, 58, 0
1, 26136, Note_on_c, 1, 67, 80
1, 26159, Note_on_c, 1, 67, 0
1, 26160, Note_on_c, 0, 82, 80
1, 26160, Note_on_c, 1, 62, 80
1, 26180, Note_on_c, 0, 82, 0
1, 26183, Note_on_c, 1, 62, 0
1, 26184, Note_on_c, 1, 67, 80
1, 26207, Note_on_c, 1, 67, 0
1, 26208, Note_on_c, 0, 86, 80
1, 26208, Note_on_c, 1, 58, 80
1, 26228, Note_on_c, 0, 86, 0
1, 26231, Note_on_c, 1, 58, 0
1, 26232, Note_on_c, 1, 67, 80
1, 26255, Note_on_c, 1, 67, 0
1, 26256, Note_on_c, 0, 74, 80
1, 26256, Note_on_c, 1, 62, 80
1, 26279, Note_on_c, 1, 62, 0
1, 26280, Note_on_c, 1, 67, 80
1, 26303, Note_on_c, 1, 67, 0
1, 26304, Note_on_c, 0, 74, 0
1, 26304, Note_on_c, 0, 75, 80
1, 26304, Note_on_c, 1, 60, 80
1, 26327, Note_on_c, 1, 60, 0
1, 26328, Note_on_c, 1, 67, 80
1, 26349, Note_on_c, 0, 75, 0
1, 26351, Note_on_c, 1, 67, 0
1, 26352, Note_on_c, 0, 86, 80
1, 26352, Note_on_c, 1, 63, 80
1, 26375, Note_on_c, 1, 63, 0
1, 26376, Note_on_c, 1, 67, 80
1, 26399, Note_on_c, 1, 67, 0
1, 26400, Note_on_c, 0, 86, 0
1, 26400, Note_on_c, 0, 84, 80
1, 26400, Note_on_c, 1, 57, 80
1, 26423, Note_on_c, 1, 57, 0
1, 26424, Note_on_c, 1, 65, 80
1, 26445, Note_on_c, 0, 84, 0
1, 26447, Note_on_c, 1, 65, 0
1, 26448, Note_on_c, 0, 75, 80
1, 26448, Note_on_c, 1, 60, 80
1, 26471, Note_on_c, 1, 60, 0
1, 26472, Note_on_c, 1, 65, 80
1, 26495, Note_on_c, 1, 65, 0
1, 26496, Note_on_c, 0, 75, 0
1, 26496, Note_on_c, 0, 74, 80
1, 26496, Note_on_c, 1, 58, 80
1, 26519, Note_on_c, 1, 58, 0
1, 26520, Note_on_c, 1, 65, 80
1, 26541, Note_on_c, 0, 74, 0
1, 26543, Note_on_c, 1, 65, 0
1, 26544, Note_on_c, 0, 84, 80
1, 26544, Note_on_c, 1, 62, 80
1, 26567, Note_on_c, 1, 62, 0
1, 26568, Note_on_c, 1, 65, 80
1, 26591, Note_on_c, 1, 65, 0
1, 26592, Note_on_c, 0, 84, 0
1, 26592, Note_on_c, 0, 82, 80
1, 26592, Note_on_c, 1, 55, 80
1, 26615, Note_on_c, 1, 55, 0
1, 26616, Note_on_c, 1, 63, 80
1, 26637, Note_on_c, 0, 82, 0
1, 26639, Note_on_c, 1, 63, 0
1, 26640, Note_on_c, 0, 74, 80
1, 26640, Note_on_c, 1, 58, 80
1, 26663, Note_on_c, 1, 58, 0
1, 26664, Note_on_c, 1, 63, 80
1, 26687, Note_on_c, 1, 63, 0
1, 26688, Note_on_c, 0, 74, 0
1, 26688, Note_on_c, 0, 72, 80
1, 26688, Note_on_c, 1, 57, 80
1, 26711, Note_on_c, 1, 57, 0
1, 26712, Note_on_c, 1, 63, 80
1, 26733, Note_on_c, 0, 72, 0
1, 26735, Note_on_c, 1, 63, 0
1, 26736, Note_on_c, 0, 82, 80
1, 26736, Note_on_c, 1, 60, 80
1, 26759, Note_on_c, 1, 60, 0
1, 26760, Note_on_c, 1, 63, 80
1, 26783, Note_on_c, 1, 63, 0
1, 26784, Note_on_c, 0, 82, 0
1, 26784, Note_on_c, 0, 81, 80
1, 26784, Note_on_c, 1, 54, 80
1, 26807, Note_on_c, 1, 54, 0
1, 26808, Note_on_c, 1, 62, 80
1, 26829, Note_on_c, 0, 81, 0
1, 26831, Note_on_c, 1, 62, 0
1, 26832, Note_on_c, 0, 72, 80
1, 26832, Note_on_c, 1, 57, 80
1, 26855, Note_on_c, 1, 57, 0
1, 26856, Note_on_c, 1, 62, 80
1, 26879, Note_on_c, 1, 62, 0
1, 26880, Note_on_c, 0, 72, 0
1, 26880, Note_on_c, 0, 70, 80
1, 26880, Note_on_c, 1, 55, 80
1, 26903, Note_on_c, 1, 55, 0
1, 26904, Note_on_c, 1, 62, 80
1, 26925, Note_on_c, 0, 70, 0
1, 26927, Note_on_c, 1, 62, 0
1, 26928, Note_on_c, 0, 79, 80
1, 26928, Note_on_c, 1, 58, 80
1, 26951, Note_on_c, 1, 58, 0
1, 26952, Note_on_c, 1, 62, 80
1, 26973, Note_on_c, 0, 79, 0
1, 26975, Note_on_c, 1, 62, 0
1, 26976, Note_on_c, 0, 69, 80
1, 26976, Note_on_c, 1, 53, 80
1, 26999, Note_on_c, 1, 53, 0
1, 27000, Note_on_c, 1, 62, 80
1, 27021, Note_on_c, 0, 69, 0
1, 27023, Note_on_c, 1, 62, 0
1, 27024, Note_on_c, 0, 79, 80
1, 27024, Note_on_c, 1, 57, 80
1, 27047, Note_on_c, 1, 57, 0
1, 27048, Note_on_c, 1, 62, 80
1, 27069, Note_on_c, 0, 79, 0
1, 27071, Note_on_c, 1, 62, 0
1, 27072, Note_on_c, 0, 67, 80
1, 27072, Note_on_c, 1, 51, 80
1, 27095, Note_on_c, 1, 51, 0
1, 27096, Note_on_c, 1, 61, 80
1, 27117, Note_on_c, 0, 67, 0
1, 27119, Note_on_c, 1, 61, 0
1, 27120, Note_on_c, 0, 82, 80
1, 27120, Note_on_c, 1, 55, 80
1, 27143, Note_on_c, 1, 55, 0
1, 27144, Note_on_c, 1, 61, 80
1, 27165, Note_on_c, 0, 82, 0
1, 27167, Note_on_c, 1, 61, 0
1, 27168, Note_on_c, 0, 82, 80
1, 27168, Note_on_c, 1, 51, 80
1, 27180, Note_on_c, 0, 82, 0
1, 27180, Note_on_c, 0, 81, 80
1, 27191, Note_on_c, 1, 51, 0
1, 27192, Note_on_c, 0, 81, 0
1, 27192, Note_on_c, 0, 82, 80
1, 27192, Note_on_c, 1, 61, 80
1, 27204, Note_on_c, 0, 82, 0
1, 27204, Note_on_c, 0, 81, 80
1, 27215, Note_on_c, 1, 61, 0
1, 27216, Note_on_c, 0, 81, 0
1, 27216, Note_on_c, 0, 79, 80
1, 27216, Note_on_c, 1, 55, 80
1, 27239, Note_on_c, 1, 55, 0
1, 27240, Note_on_c, 1, 61, 80
1, 27261, Note_on_c, 0, 79, 0
1, 27263, Note_on_c, 1, 61, 0
1, 27264, Note_on_c, 0, 78, 80
1, 27264, Note_on_c, 1, 50, 80
1, 27287, Note_on_c, 1, 50, 0
1, 27288, Note_on_c, 1, 60, 80
1, 27309, Note_on_c, 0, 78, 0
1, 27311, Note_on_c, 1, 60, 0
1, 27312, Note_on_c, 0, 81, 80
1, 27312, Note_on_c, 1, 54, 80
1, 27335, Note_on_c, 1, 54, 0
1, 27336, Note_on_c, 1, 60, 80
1, 27357, Note_on_c, 0, 81, 0
1, 27359, Note_on_c, 1, 60, 0
1, 27360, Note_on_c, 0, 84, 80
1, 27360, Note_on_c, 1, 50, 80
1, 27383, Note_on_c, 0, 84, 0
1, 27383, Note_on_c, 1, 50, 0
1, 27384, Note_on_c, 0, 81, 80
1, 27384, Note_on_c, 1, 60, 80
1, 27407, Note_on_c, 0, 81, 0
1, 27407, Note_on_c, 1, 60, 0
1, 27408, Note_on_c, 0, 78, 80
1, 27408, Note_on_c, 1, 54, 80
1, 27431, Note_on_c, 0, 78, 0
1, 27431, Note_on_c, 1, 54, 0
1, 27432, Note_on_c, 0, 74, 80
1, 27432, Note_on_c, 1, 60, 80
1, 27455, Note_on_c, 0, 74, 0
1, 27455, Note_on_c, 1, 60, 0
1, 27456, Note_on_c, 0, 72, 80
1, 27456, Note_on_c, 0, 69, 80
1, 27456, Note_on_c, 1, 60, 80
1, 27456, Note_on_c, 1, 54, 80
1, 27456, Note_on_c, 1, 50, 80
1, 27693, Note_on_c, 0, 72, 0
1, 27693, Note_on_c, 0, 69, 0
1, 27693, Note_on_c, 1, 60, 0
1, 27693, Note_on_c, 1, 54, 0
1, 27693, Note_on_c, 1, 50, 0
1, 27696, Note_on_c, 0, 71, 80
1, 27719, Note_on_c, 0, 71, 0
1, 27720, Note_on_c, 0, 72, 80
1, 27743, Note_on_c, 0, 72, 0
1, 27744, Note_on_c, 0, 74, 80
1, 27767, Note_on_c, 0, 74, 0
1, 27768, Note_on_c, 0, 72, 78
1, 27791, Note_on_c, 0, 72, 0
1, 27792, Note_on_c, 0, 71, 77
1, 27815, Note_on_c, 0, 71, 0
1, 27816, Note_on_c, 0, 69, 76
1, 27839, Note_on_c, 0, 69, 0
1, 27840, Note_on_c, 0, 67, 75
1, 27840, Note_on_c, 1, 59, 80
1, 27840, Note_on_c, 1, 55, 80
1, 27864, Note_on_c, 0, 67, 0
1, 27864, Note_on_c, 0, 66, 75
1, 27887, Note_on_c, 0, 66, 0
1, 27888, Note_on_c, 0, 69, 75
1, 27912, Note_on_c, 0, 69, 0
1, 27912, Note_on_c, 0, 67, 75
1, 27929, Note_on_c, 1, 59, 0
1, 27929, Note_on_c, 1, 55, 0
1, 27935, Note_on_c, 0, 67, 0
1, 27936, Note_on_c, 0, 71, 75
1, 27960, Note_on_c, 0, 71, 0
1, 27960, Note_on_c, 0, 69, 75
1, 27983, Note_on_c, 0, 69, 0
1, 27984, Note_on_c, 0, 72, 75
1, 28008, Note_on_c, 0, 72, 0
1, 28008, Note_on_c, 0, 71, 75
1, 28031, Note_on_c, 0, 71, 0
1, 28032, Note_on_c, 0, 74, 75
1, 28077, Note_on_c, 0, 74, 0
1, 28080, Note_on_c, 0, 74, 75
1, 28080, Note_on_c, 1, 71, 80
1, 28080, Note_on_c, 1, 67, 80
1, 28125, Note_on_c, 0, 74, 0
1, 28125, Note_on_c, 1, 71, 0
1, 28125, Note_on_c, 1, 67, 0
1, 28128, Note_on_c, 0, 74, 75
1, 28128, Note_on_c, 1, 69, 80
1, 28128, Note_on_c, 1, 66, 80
1, 28173, Note_on_c, 0, 74, 0
1, 28173, Note_on_c, 1, 69, 0
1, 28173, Note_on_c, 1, 66, 0
1, 28176, Note_on_c, 0, 74, 75
1, 28176, Note_on_c, 1, 72, 80
1, 28176, Note_on_c, 1, 69, 80
1, 28221, Note_on_c, 0, 74, 0
1, 28221, Note_on_c, 1, 72, 0
1, 28221, Note_on_c, 1, 69, 0
1, 28224, Note_on_c, 0, 74, 75
1, 28224, Note_on_c, 1, 71, 80
1, 28224, Note_on_c, 1, 67, 80
1, 28269, Note_on_c, 0, 74, 0
1, 28272, Note_on_c, 0, 76, 77
1, 28295, Note_on_c, 0, 76, 0
1, 28296, Note_on_c, 0, 78, 78
1, 28313, Note_on_c, 1, 71, 0
1, 28313, Note_on_c, 1, 67, 0
1, 28319, Note_on_c, 0, 78, 0
1, 28320, Note_on_c, 0, 81, 80
1, 28343, Note_on_c, 0, 81, 0
1, 28344, Note_on_c, 0, 79, 78
1, 28367, Note_on_c, 0, 79, 0
1, 28368, Note_on_c, 0, 78, 77
1, 28391, Note_on_c, 0, 78, 0
1, 28392, Note_on_c, 0, 76, 76
1, 28415, Note_on_c, 0, 76, 0
1, 28416, Note_on_c, 0, 74, 75
1, 28461, Note_on_c, 0, 74, 0
1, 28464, Note_on_c, 0, 74, 75
1, 28464, Note_on_c, 1, 71, 80
1, 28464, Note_on_c, 1, 67, 80
1, 28509, Note_on_c, 0, 74, 0
1, 28509, Note_on_c, 1, 71, 0
1, 28509, Note_on_c, 1, 67, 0
1, 28512, Note_on_c, 0, 74, 75
1, 28512, Note_on_c, 1, 69, 80
1, 28512, Note_on_c, 1, 66, 80
1, 28557, Note_on_c, 0, 74, 0
1, 28557, Note_on_c, 1, 69, 0
1, 28557, Note_on_c, 1, 66, 0
1, 28560, Note_on_c, 0, 74, 75
1, 28560, Note_on_c, 1, 72, 80
1, 28560, Note_on_c, 1, 69, 80
1, 28605, Note_on_c, 0, 74, 0
1, 28605, Note_on_c, 1, 72, 0
1, 28605, Note_on_c, 1, 69, 0
1, 28608, Note_on_c, 0, 74, 75
1, 28608, Note_on_c, 1, 71, 80
1, 28608, Note_on_c, 1, 67, 80
1, 28653, Note_on_c, 0, 74, 0
1, 28656, Note_on_c, 0, 76, 75
1, 28679, Note_on_c, 0, 76, 0
1, 28680, Note_on_c, 0, 78, 75
1, 28697, Note_on_c, 1, 71, 0
1, 28697, Note_on_c, 1, 67, 0
1, 28703, Note_on_c, 0, 78, 0
1, 28704, Note_on_c, 0, 81, 75
1, 28727, Note_on_c, 0, 81, 0
1, 28728, Note_on_c, 0, 79, 75
1, 28751, Note_on_c, 0, 79, 0
1, 28752, Note_on_c, 0, 78, 75
1, 28752, Note_on_c, 1, 72, 80
1, 28752, Note_on_c, 1, 67, 80
1, 28775, Note_on_c, 0, 78, 0
1, 28776, Note_on_c, 0, 76, 75
1, 28797, Note_on_c, 1, 72, 0
1, 28797, Note_on_c, 1, 67, 0
1, 28799, Note_on_c, 0, 76, 0
1, 28800, Note_on_c, 0, 74, 75
1, 28800, Note_on_c, 1, 71, 80
1, 28800, Note_on_c, 1, 67, 80
1, 28845, Note_on_c, 0, 74, 0
1, 28848, Note_on_c, 0, 79, 75
1, 28871, Note_on_c, 0, 79, 0
1, 28872, Note_on_c, 0, 83, 75
1, 28889, Note_on_c, 1, 71, 0
1, 28889, Note_on_c, 1, 67, 0
1, 28895, Note_on_c, 0, 83, 0
1, 28896, Note_on_c, 0, 81, 75
1, 28919, Note_on_c, 0, 81, 0
1, 28920, Note_on_c, 0, 79, 75
1, 28943, Note_on_c, 0, 79, 0
1, 28944, Note_on_c, 0, 78, 75
1, 28967, Note_on_c, 0, 78, 0
1, 28968, Note_on_c, 0, 76, 75
1, 28991, Note_on_c, 0, 76, 0
1, 28992, Note_on_c, 0, 74, 75
1, 29040, Note_on_c, 1, 71, 80
1, 29081, Note_on_c, 0, 74, 0
1, 29085, Note_on_c, 1, 71, 0
1, 29088, Note_on_c, 0, 72, 75
1, 29088, Note_on_c, 1, 69, 80
1, 29101, Note_on_c, 0, 72, 0
1, 29102, Note_on_c, 0, 74, 75
1, 29115, Note_on_c, 0, 74, 0
1, 29116, Note_on_c, 0, 72, 75
1, 29129, Note_on_c, 0, 72, 0
1, 29130, Note_on_c, 0, 74, 75
1, 29133, Note_on_c, 1, 69, 0
1, 29136, Note_on_c, 1, 62, 80
1, 29143, Note_on_c, 0, 74, 0
1, 29144, Note_on_c, 0, 72, 75
1, 29157, Note_on_c, 0, 72, 0
1, 29158, Note_on_c, 0, 71, 75
1, 29170, Note_on_c, 0, 71, 0
1, 29171, Note_on_c, 0, 72, 75
1, 29181, Note_on_c, 1, 62, 0
1, 29183, Note_on_c, 0, 72, 0
1, 29184, Note_on_c, 0, 71, 75
1, 29184, Note_on_c, 1, 67, 80
1, 29229, Note_on_c, 1, 67, 0
1, 29232, Note_on_c, 1, 62, 80
1, 29273, Note_on_c, 0, 71, 0
1, 29277, Note_on_c, 1, 62, 0
1, 29280, Note_on_c, 1, 55, 80
1, 29325, Note_on_c, 1, 55, 0
1, 29328, Note_on_c, 0, 67, 80
1, 29328, Note_on_c, 1, 55, 80
1, 29328, Note_on_c, 1, 43, 80
1, 29373, Note_on_c, 0, 67, 0
1, 29373, Note_on_c, 1, 55, 0
1, 29373, Note_on_c, 1, 43, 0
1, 29376, Note_on_c, 0, 66, 80
1, 29376, Note_on_c, 1, 54, 80
1, 29376, Note_on_c, 1, 42, 80
1, 29388, Note_on_c, 0, 66, 0
1, 29388, Note_on_c, 0, 67, 80
1, 29400, Note_on_c, 0, 67, 0
1, 29400, Note_on_c, 0, 66, 80
1, 29421, Note_on_c, 0, 66, 0
1, 29421, Note_on_c, 1, 54, 0
1, 29421, Note_on_c, 1, 42, 0
1, 29424, Note_on_c, 0, 64, 80
1, 29424, Note_on_c, 1, 52, 80
1, 29424, Note_on_c, 1, 40, 80
1, 29469, Note_on_c, 0, 64, 0
1, 29469, Note_on_c, 1, 52, 0
1, 29469, Note_on_c, 1, 40, 0
1, 29472, Note_on_c, 0, 62, 80
1, 29472, Note_on_c, 1, 50, 80
1, 29472, Note_on_c, 1, 38, 80
1, 29484, Note_on_c, 0, 62, 0
1, 29484, Note_on_c, 0, 64, 80
1, 29496, Note_on_c, 0, 64, 0
1, 29496, Note_on_c, 0, 62, 80
1, 29517, Note_on_c, 0, 62, 0
1, 29517, Note_on_c, 1, 50, 0
1, 29517, Note_on_c, 1, 38, 0
1, 29520, Note_on_c, 0, 60, 80
1, 29520, Note_on_c, 1, 48, 80
1, 29520, Note_on_c, 1, 36, 80
1, 29565, Note_on_c, 0, 60, 0
1, 29565, Note_on_c, 1, 48, 0
1, 29565, Note_on_c, 1, 36, 0
1, 29568, Note_on_c, 0, 59, 80
1, 29568, Note_on_c, 1, 47, 80
1, 29568, Note_on_c, 1, 35, 80
1, 29657, Note_on_c, 0, 59, 0
1, 29657, Note_on_c, 1, 47, 0
1, 29657, Note_on_c, 1, 35, 0
1, 29712, Note_on_c, 0, 64, 80
1, 29712, Note_on_c, 1, 52, 80
1, 29727, Note_on_c, 0, 64, 0
1, 29728, Note_on_c, 0, 66, 80
1, 29743, Note_on_c, 0, 66, 0
1, 29744, Note_on_c, 0, 64, 80
1, 29757, Note_on_c, 1, 52, 0
1, 29759, Note_on_c, 0, 64, 0
1, 29760, Note_on_c, 0, 62, 80
1, 29760, Note_on_c, 1, 50, 80
1, 29775, Note_on_c, 0, 62, 0
1, 29776, Note_on_c, 0, 64, 80
1, 29791, Note_on_c, 0, 64, 0
1, 29792, Note_on_c, 0, 62, 80
1, 29805, Note_on_c, 1, 50, 0
1, 29807, Note_on_c, 0, 62, 0
1, 29808, Note_on_c, 0, 60, 80
1, 29808, Note_on_c, 1, 48, 80
1, 29823, Note_on_c, 0, 60, 0
1, 29824, Note_on_c, 0, 62, 80
1, 29839, Note_on_c, 0, 62, 0
1, 29840, Note_on_c, 0, 60, 80
1, 29853, Note_on_c, 1, 48, 0
1, 29855, Note_on_c, 0, 60, 0
1, 29856, Note_on_c, 0, 59, 80
1, 29856, Note_on_c, 1, 47, 80
1, 29871, Note_on_c, 0, 59, 0
1, 29872, Note_on_c, 0, 60, 80
1, 29887, Note_on_c, 0, 60, 0
1, 29888, Note_on_c, 0, 59, 80
1, 29901, Note_on_c, 1, 47, 0
1, 29903, Note_on_c, 0, 59, 0
1, 29904, Note_on_c, 0, 57, 80
1, 29904, Note_on_c, 1, 45, 80
1, 29919, Note_on_c, 0, 57, 0
1, 29920, Note_on_c, 0, 59, 80
1, 29935, Note_on_c, 0, 59, 0
1, 29936, Note_on_c, 0, 57, 80
1, 29949, Note_on_c, 1, 45, 0
1, 29951, Note_on_c, 0, 57, 0
1, 29952, Note_on_c, 0, 56, 80
1, 29952, Note_on_c, 1, 44, 80
1, 29972, Note_on_c, 0, 56, 0
1, 29975, Note_on_c, 1, 44, 0
1, 29976, Note_on_c, 1, 52, 80
1, 29999, Note_on_c, 1, 52, 0
1, 30000, Note_on_c, 0, 59, 80
1, 30000, Note_on_c, 1, 47, 80
1, 30020, Note_on_c, 0, 59, 0
1, 30023, Note_on_c, 1, 47, 0
1, 30024, Note_on_c, 1, 52, 80
1, 30047, Note_on_c, 1, 52, 0
1, 30048, Note_on_c, 0, 62, 80
1, 30048, Note_on_c, 1, 44, 80
1, 30068, Note_on_c, 0, 62, 0
1, 30071, Note_on_c, 1, 44, 0
1, 30072, Note_on_c, 1, 52, 80
1, 30095, Note_on_c, 1, 52, 0
1, 30096, Note_on_c, 0, 68, 80
1, 30096, Note_on_c, 1, 47, 80
1, 30116, Note_on_c, 0, 68, 0
1, 30119, Note_on_c, 1, 47, 0
1, 30120, Note_on_c, 1, 52, 80
1, 30143, Note_on_c, 1, 52, 0
1, 30144, Note_on_c, 0, 71, 80
1, 30144, Note_on_c, 1, 44, 80
1, 30164, Note_on_c, 0, 71, 0
1, 30167, Note_on_c, 1, 44, 0
1, 30168, Note_on_c, 1, 52, 80
1, 30191, Note_on_c, 1, 52, 0
1, 30192, Note_on_c, 0, 74, 80
1, 30192, Note_on_c, 1, 47, 80
1, 30212, Note_on_c, 0, 74, 0
1, 30215, Note_on_c, 1, 47, 0
1, 30216, Note_on_c, 1, 52, 80
1, 30239, Note_on_c, 1, 52, 0
1, 30240, Note_on_c, 0, 83, 80
1, 30240, Note_on_c, 1, 44, 80
1, 30263, Note_on_c, 1, 44, 0
1, 30264, Note_on_c, 1, 52, 80
1, 30287, Note_on_c, 1, 52, 0
1, 30288, Note_on_c, 1, 47, 80
1, 30307, Note_on_c, 0, 83, 0
1, 30311, Note_on_c, 1, 47, 0
1, 30312, Note_on_c, 0, 74, 80
1, 30312, Note_on_c, 1, 52, 80
1, 30335, Note_on_c, 0, 74, 0
1, 30335, Note_on_c, 1, 52, 0
1, 30336, Note_on_c, 0, 74, 80
1, 30336, Note_on_c, 1, 45, 80
1, 30359, Note_on_c, 0, 74, 0
1, 30359, Note_on_c, 1, 45, 0
1, 30360, Note_on_c, 0, 72, 80
1, 30360, Note_on_c, 1, 52, 80
1, 30383, Note_on_c, 0, 72, 0
1, 30383, Note_on_c, 1, 52, 0
1, 30384, Note_on_c, 0, 71, 80
1, 30384, Note_on_c, 1, 48, 80
1, 30407, Note_on_c, 0, 71, 0
1, 30407, Note_on_c, 1, 48, 0
1, 30408, Note_on_c, 0, 69, 80
1, 30408, Note_on_c, 1, 52, 80
1, 30431, Note_on_c, 0, 69, 0
1, 30431, Note_on_c, 1, 52, 0
1, 30432, Note_on_c, 0, 69, 80
1, 30432, Note_on_c, 1, 45, 80
1, 30455, Note_on_c, 1, 45, 0
1, 30456, Note_on_c, 1, 52, 80
1, 30477, Note_on_c, 0, 69, 0
1, 30479, Note_on_c, 1, 52, 0
1, 30480, Note_on_c, 0, 69, 80
1, 30480, Note_on_c, 1, 48, 80
1, 30503, Note_on_c, 1, 48, 0
1, 30504, Note_on_c, 1, 52, 80
1, 30525, Note_on_c, 0, 69, 0
1, 30527, Note_on_c, 1, 52, 0
1, 30528, Note_on_c, 0, 81, 80
1, 30528, Note_on_c, 0, 72, 80
1, 30528, Note_on_c, 1, 42, 80
1, 30551, Note_on_c, 1, 42, 0
1, 30552, Note_on_c, 1, 50, 80
1, 30575, Note_on_c, 1, 50, 0
1, 30576, Note_on_c, 1, 45, 80
1, 30599, Note_on_c, 1, 45, 0
1, 30600, Note_on_c, 1, 50, 80
1, 30623, Note_on_c, 1, 50, 0
1, 30624, Note_on_c, 1, 42, 80
1, 30647, Note_on_c, 1, 42, 0
1, 30648, Note_on_c, 1, 50, 80
1, 30661, Note_on_c, 0, 81, 0
1, 30661, Note_on_c, 0, 72, 0
1, 30671, Note_on_c, 1, 50, 0
1, 30672, Note_on_c, 0, 72, 80
1, 30672, Note_on_c, 1, 45, 80
1, 30695, Note_on_c, 1, 45, 0
1, 30696, Note_on_c, 1, 50, 80
1, 30717, Note_on_c, 0, 72, 0
1, 30719, Note_on_c, 1, 50, 0
1, 30720, Note_on_c, 0, 72, 80
1, 30720, Note_on_c, 1, 43, 80
1, 30743, Note_on_c, 0, 72, 0
1, 30743, Note_on_c, 1, 43, 0
1, 30744, Note_on_c, 0, 71, 80
1, 30744, Note_on_c, 1, 50, 80
1, 30767, Note_on_c, 0, 71, 0
1, 30767, Note_on_c, 1, 50, 0
1, 30768, Note_on_c, 0, 69, 80
1, 30768, Note_on_c, 1, 47, 80
1, 30791, Note_on_c, 0, 69, 0
1, 30791, Note_on_c, 1, 47, 0
1, 30792, Note_on_c, 0, 67, 80
1, 30792, Note_on_c, 1, 50, 80
1, 30815, Note_on_c, 0, 67, 0
1, 30815, Note_on_c, 1, 50, 0
1, 30816, Note_on_c, 0, 67, 80
1, 30816, Note_on_c, 1, 43, 80
1, 30836, Note_on_c, 0, 67, 0
1, 30839, Note_on_c, 1, 43, 0
1, 30840, Note_on_c, 1, 50, 80
1, 30863, Note_on_c, 1, 50, 0
1, 30864, Note_on_c, 0, 74, 80
1, 30864, Note_on_c, 1, 47, 80
1, 30884, Note_on_c, 0, 74, 0
1, 30887, Note_on_c, 1, 47, 0
1, 30888, Note_on_c, 1, 50, 80
1, 30911, Note_on_c, 1, 50, 0
1, 30912, Note_on_c, 0, 74, 80
1, 30912, Note_on_c, 1, 42, 80
1, 30935, Note_on_c, 0, 74, 0
1, 30935, Note_on_c, 1, 42, 0
1, 30936, Note_on_c, 0, 72, 80
1, 30936, Note_on_c, 1, 50, 80
1, 30959, Note_on_c, 0, 72, 0
1, 30959, Note_on_c, 1, 50, 0
1, 30960, Note_on_c, 0, 71, 80
1, 30960, Note_on_c, 1, 45, 80
1, 30983, Note_on_c, 0, 71, 0
1, 30983, Note_on_c, 1, 45, 0
1, 30984, Note_on_c, 0, 69, 80
1, 30984, Note_on_c, 1, 50, 80
1, 31007, Note_on_c, 0, 69, 0
1, 31007, Note_on_c, 1, 50, 0
1, 31008, Note_on_c, 0, 69, 80
1, 31008, Note_on_c, 1, 42, 80
1, 31028, Note_on_c, 0, 69, 0
1, 31031, Note_on_c, 1, 42, 0
1, 31032, Note_on_c, 1, 50, 80
1, 31055, Note_on_c, 1, 50, 0
1, 31056, Note_on_c, 0, 72, 80
1, 31056, Note_on_c, 1, 45, 80
1, 31076, Note_on_c, 0, 72, 0
1, 31079, Note_on_c, 1, 45, 0
1, 31080, Note_on_c, 1, 50, 80
1, 31103, Note_on_c, 1, 50, 0
1, 31104, Note_on_c, 0, 72, 80
1, 31104, Note_on_c, 1, 43, 80
1, 31127, Note_on_c, 0, 72, 0
1, 31127, Note_on_c, 1, 43, 0
1, 31128, Note_on_c, 0, 71, 80
1, 31128, Note_on_c, 1, 50, 80
1, 31151, Note_on_c, 0, 71, 0
1, 31151, Note_on_c, 1, 50, 0
1, 31152, Note_on_c, 0, 69, 80
1, 31152, Note_on_c, 1, 47, 80
1, 31175, Note_on_c, 0, 69, 0
1, 31175, Note_on_c, 1, 47, 0
1, 31176, Note_on_c, 0, 67, 80
1, 31176, Note_on_c, 1, 50, 80
1, 31199, Note_on_c, 0, 67, 0
1, 31199, Note_on_c, 1, 50, 0
1, 31200, Note_on_c, 0, 67, 80
1, 31200, Note_on_c, 1, 47, 80
1, 31220, Note_on_c, 0, 67, 0
1, 31223, Note_on_c, 1, 47, 0
1, 31224, Note_on_c, 1, 55, 80
1, 31247, Note_on_c, 1, 55, 0
1, 31248, Note_on_c, 0, 79, 80
1, 31248, Note_on_c, 1, 50, 80
1, 31271, Note_on_c, 1, 50, 0
1, 31272, Note_on_c, 1, 55, 80
1, 31293, Note_on_c, 0, 79, 0
1, 31295, Note_on_c, 1, 55, 0
1, 31296, Note_on_c, 0, 78, 80
1, 31296, Note_on_c, 1, 48, 80
1, 31319, Note_on_c, 0, 78, 0
1, 31320, Note_on_c, 0, 76, 80
1, 31343, Note_on_c, 0, 76, 0
1, 31344, Note_on_c, 0, 74, 80
1, 31367, Note_on_c, 0, 74, 0
1, 31368, Note_on_c, 0, 72, 80
1, 31385, Note_on_c, 1, 48, 0
1, 31391, Note_on_c, 0, 72, 0
1, 31392, Note_on_c, 0, 71, 80
1, 31415, Note_on_c, 0, 71, 0
1, 31416, Note_on_c, 0, 69, 80
1, 31439, Note_on_c, 0, 69, 0
1, 31440, Note_on_c, 0, 72, 80
1, 31463, Note_on_c, 0, 72, 0
1, 31464, Note_on_c, 0, 69, 80
1, 31487, Note_on_c, 0, 69, 0
1, 31488, Note_on_c, 0, 67, 80
1, 31488, Note_on_c, 1, 50, 80
1, 31533, Note_on_c, 1, 50, 0
1, 31536, Note_on_c, 1, 45, 80
1, 31581, Note_on_c, 1, 45, 0
1, 31584, Note_on_c, 0, 67, 0
1, 31584, Note_on_c, 0, 66, 80
1, 31584, Note_on_c, 1, 38, 80
1, 31629, Note_on_c, 0, 66, 0
1, 31629, Note_on_c, 1, 38, 0
1, 31632, Note_on_c, 0, 62, 75
1, 31677, Note_on_c, 0, 62, 0
1, 31680, Note_on_c, 0, 67, 75
1, 31680, Note_on_c, 1, 55, 75
1, 31703, Note_on_c, 1, 55, 0
1, 31704, Note_on_c, 1, 62, 75
1, 31727, Note_on_c, 1, 62, 0
1, 31728, Note_on_c, 1, 59, 75
1, 31751, Note_on_c, 1, 59, 0
1, 31752, Note_on_c, 1, 62, 75
1, 31769, Note_on_c, 0, 67, 0
1, 31775, Note_on_c, 1, 62, 0
1, 31776, Note_on_c, 0, 72, 75
1, 31776, Note_on_c, 1, 55, 75
1, 31799, Note_on_c, 0, 72, 0
1, 31799, Note_on_c, 1, 55, 0
1, 31800, Note_on_c, 0, 71, 75
1, 31800, Note_on_c, 1, 62, 75
1, 31823, Note_on_c, 0, 71, 0
1, 31823, Note_on_c, 1, 62, 0
1, 31824, Note_on_c, 0, 69, 75
1, 31824, Note_on_c, 1, 59, 75
1, 31847, Note_on_c, 0, 69, 0
1, 31847, Note_on_c, 1, 59, 0
1, 31848, Note_on_c, 0, 67, 75
1, 31848, Note_on_c, 1, 62, 75
1, 31871, Note_on_c, 0, 67, 0
1, 31871, Note_on_c, 1, 62, 0
1, 31872, Note_on_c, 0, 67, 75
1, 31872, Note_on_c, 1, 57, 75
1, 31895, Note_on_c, 1, 57, 0
1, 31896, Note_on_c, 1, 62, 75
1, 31917, Note_on_c, 0, 67, 0
1, 31919, Note_on_c, 1, 62, 0
1, 31920, Note_on_c, 0, 66, 75
1, 31920, Note_on_c, 1, 60, 75
1, 31943, Note_on_c, 1, 60, 0
1, 31944, Note_on_c, 1, 62, 75
1, 31965, Note_on_c, 0, 66, 0
1, 31967, Note_on_c, 1, 62, 0
1, 31968, Note_on_c, 1, 57, 75
1, 31991, Note_on_c, 1, 57, 0
1, 31992, Note_on_c, 1, 62, 75
1, 32015, Note_on_c, 1, 62, 0
1, 32016, Note_on_c, 0, 62, 75
1, 32016, Note_on_c, 1, 60, 75
1, 32039, Note_on_c, 1, 60, 0
1, 32040, Note_on_c, 1, 62, 75
1, 32061, Note_on_c, 0, 62, 0
1, 32063, Note_on_c, 1, 62, 0
1, 32064, Note_on_c, 0, 69, 75
1, 32064, Note_on_c, 1, 54, 75
1, 32087, Note_on_c, 1, 54, 0
1, 32088, Note_on_c, 1, 62, 75
1, 32111, Note_on_c, 1, 62, 0
1, 32112, Note_on_c, 1, 57, 75
1, 32135, Note_on_c, 1, 57, 0
1, 32136, Note_on_c, 1, 62, 75
1, 32153, Note_on_c, 0, 69, 0
1, 32159, Note_on_c, 1, 62, 0
1, 32160, Note_on_c, 0, 74, 75
1, 32160, Note_on_c, 1, 54, 75
1, 32183, Note_on_c, 0, 74, 0
1, 32183, Note_on_c, 1, 54, 0
1, 32184, Note_on_c, 0, 72, 75
1, 32184, Note_on_c, 1, 62, 75
1, 32207, Note_on_c, 0, 72, 0
1, 32207, Note_on_c, 1, 62, 0
1, 32208, Note_on_c, 0, 71, 75
1, 32208, Note_on_c, 1, 57, 75
1, 32231, Note_on_c, 0, 71, 0
1, 32231, Note_on_c, 1, 57, 0
1, 32232, Note_on_c, 0, 69, 75
1, 32232, Note_on_c, 1, 62, 75
1, 32255, Note_on_c, 0, 69, 0
1, 32255, Note_on_c, 1, 62, 0
1, 32256, Note_on_c, 0, 69, 75
1, 32256, Note_on_c, 1, 55, 75
1, 32279, Note_on_c, 1, 55, 0
1, 32280, Note_on_c, 1, 62, 75
1, 32301, Note_on_c, 0, 69, 0
1, 32303, Note_on_c, 1, 62, 0
1, 32304, Note_on_c, 0, 71, 75
1, 32304, Note_on_c, 1, 59, 75
1, 32327, Note_on_c, 1, 59, 0
1, 32328, Note_on_c, 1, 62, 75
1, 32349, Note_on_c, 0, 71, 0
1, 32351, Note_on_c, 1, 62, 0
1, 32352, Note_on_c, 1, 55, 75
1, 32375, Note_on_c, 1, 55, 0
1, 32376, Note_on_c, 1, 62, 75
1, 32399, Note_on_c, 1, 62, 0
1, 32400, Note_on_c, 0, 74, 75
1, 32400, Note_on_c, 1, 59, 75
1, 32423, Note_on_c, 1, 59, 0
1, 32424, Note_on_c, 1, 62, 75
1, 32445, Note_on_c, 0, 74, 0
1, 32447, Note_on_c, 1, 62, 0
1, 32448, Note_on_c, 0, 79, 75
1, 32448, Note_on_c, 1, 55, 75
1, 32471, Note_on_c, 1, 55, 0
1, 32472, Note_on_c, 1, 62, 75
1, 32495, Note_on_c, 1, 62, 0
1, 32496, Note_on_c, 1, 59, 75
1, 32519, Note_on_c, 1, 59, 0
1, 32520, Note_on_c, 1, 62, 75
1, 32537, Note_on_c, 0, 79, 0
1, 32543, Note_on_c, 1, 62, 0
1, 32544, Note_on_c, 0, 84, 75
1, 32544, Note_on_c, 1, 55, 75
1, 32567, Note_on_c, 0, 84, 0
1, 32567, Note_on_c, 1, 55, 0
1, 32568, Note_on_c, 0, 83, 75
1, 32568, Note_on_c, 1, 62, 75
1, 32591, Note_on_c, 0, 83, 0
1, 32591, Note_on_c, 1, 62, 0
1, 32592, Note_on_c, 0, 81, 75
1, 32592, Note_on_c, 1, 59, 75
1, 32615, Note_on_c, 0, 81, 0
1, 32615, Note_on_c, 1, 59, 0
1, 32616, Note_on_c, 0, 79, 75
1, 32616, Note_on_c, 1, 62, 75
1, 32639, Note_on_c, 0, 79, 0
1, 32639, Note_on_c, 1, 62, 0
1, 32640, Note_on_c, 0, 79, 75
1, 32640, Note_on_c, 1, 57, 75
1, 32663, Note_on_c, 1, 57, 0
1, 32664, Note_on_c, 1, 62, 75
1, 32685, Note_on_c, 0, 79, 0
1, 32687, Note_on_c, 1, 62, 0
1, 32688, Note_on_c, 0, 78, 75
1, 32688, Note_on_c, 1, 60, 75
1, 32711, Note_on_c, 1, 60, 0
1, 32712, Note_on_c, 1, 62, 75
1, 32733, Note_on_c, 0, 78, 0
1, 32735, Note_on_c, 1, 62, 0
1, 32736, Note_on_c, 1, 57, 75
1, 32759, Note_on_c, 1, 57, 0
1, 32760, Note_on_c, 1, 62, 75
1, 32783, Note_on_c, 1, 62, 0
1, 32784, Note_on_c, 0, 74, 75
1, 32784, Note_on_c, 1, 60, 75
1, 32807, Note_on_c, 1, 60, 0
1, 32808, Note_on_c, 1, 62, 75
1, 32829, Note_on_c, 0, 74, 0
1, 32831, Note_on_c, 1, 62, 0
1, 32832, Note_on_c, 0, 81, 75
1, 32832, Note_on_c, 1, 54, 75
1, 32855, Note_on_c, 1, 54, 0
1, 32856, Note_on_c, 1, 62, 75
1, 32879, Note_on_c, 1, 62, 0
1, 32880, Note_on_c, 1, 57, 75
1, 32903, Note_on_c, 1, 57, 0
1, 32904, Note_on_c, 1, 62, 75
1, 32921, Note_on_c, 0, 81, 0
1, 32927, Note_on_c, 1, 62, 0
1, 32928, Note_on_c, 0, 86, 75
1, 32928, Note_on_c, 1, 54, 75
1, 32951, Note_on_c, 0, 86, 0
1, 32951, Note_on_c, 1, 54, 0
1, 32952, Note_on_c, 0, 84, 75
1, 32952, Note_on_c, 1, 62, 75
1, 32975, Note_on_c, 0, 84, 0
1, 32975, Note_on_c, 1, 62, 0
1, 32976, Note_on_c, 0, 83, 75
1, 32976, Note_on_c, 1, 57, 75
1, 32999, Note_on_c, 0, 83, 0
1, 32999, Note_on_c, 1, 57, 0
1, 33000, Note_on_c, 0, 81, 75
1, 33000, Note_on_c, 1, 62, 75
1, 33023, Note_on_c, 0, 81, 0
1, 33023, Note_on_c, 1, 62, 0
1, 33024, Note_on_c, 0, 81, 75
1, 33024, Note_on_c, 1, 55, 75
1, 33047, Note_on_c, 1, 55, 0
1, 33048, Note_on_c, 1, 62, 75
1, 33069, Note_on_c, 0, 81, 0
1, 33071, Note_on_c, 1, 62, 0
1, 33072, Note_on_c, 0, 83, 75
1, 33072, Note_on_c, 1, 59, 75
1, 33095, Note_on_c, 1, 59, 0
1, 33096, Note_on_c, 1, 62, 75
1, 33117, Note_on_c, 0, 83, 0
1, 33119, Note_on_c, 1, 62, 0
1, 33120, Note_on_c, 1, 55, 75
1, 33143, Note_on_c, 1, 55, 0
1, 33144, Note_on_c, 1, 62, 75
1, 33167, Note_on_c, 1, 62, 0
1, 33168, Note_on_c, 0, 74, 75
1, 33168, Note_on_c, 1, 59, 75
1, 33191, Note_on_c, 1, 59, 0
1, 33192, Note_on_c, 1, 62, 75
1, 33213, Note_on_c, 0, 74, 0
1, 33215, Note_on_c, 1, 62, 0
1, 33216, Note_on_c, 0, 74, 75
1, 33216, Note_on_c, 1, 59, 75
1, 33239, Note_on_c, 0, 74, 0
1, 33240, Note_on_c, 0, 86, 75
1, 33263, Note_on_c, 0, 86, 0
1, 33264, Note_on_c, 0, 84, 75
1, 33287, Note_on_c, 0, 84, 0
1, 33288, Note_on_c, 0, 83, 75
1, 33305, Note_on_c, 1, 59, 0
1, 33311, Note_on_c, 0, 83, 0
1, 33312, Note_on_c, 0, 81, 75
1, 33335, Note_on_c, 0, 81, 0
1, 33336, Note_on_c, 0, 79, 75
1, 33359, Note_on_c, 0, 79, 0
1, 33360, Note_on_c, 0, 78, 75
1, 33383, Note_on_c, 0, 78, 0
1, 33384, Note_on_c, 0, 79, 75
1, 33407, Note_on_c, 0, 79, 0
1, 33408, Note_on_c, 0, 76, 75
1, 33408, Note_on_c, 1, 60, 75
1, 33431, Note_on_c, 1, 60, 0
1, 33432, Note_on_c, 1, 72, 75
1, 33453, Note_on_c, 0, 76, 0
1, 33455, Note_on_c, 1, 72, 0
1, 33456, Note_on_c, 0, 80, 76
1, 33456, Note_on_c, 1, 59, 75
1, 33479, Note_on_c, 1, 59, 0
1, 33480, Note_on_c, 1, 71, 75
1, 33501, Note_on_c, 0, 80, 0
1, 33503, Note_on_c, 1, 71, 0
1, 33504, Note_on_c, 0, 81, 77
1, 33504, Note_on_c, 1, 57, 75
1, 33527, Note_on_c, 1, 57, 0
1, 33528, Note_on_c, 1, 69, 75
1, 33549, Note_on_c, 0, 81, 0
1, 33551, Note_on_c, 1, 69, 0
1, 33552, Note_on_c, 0, 83, 78
1, 33552, Note_on_c, 1, 56, 75
1, 33575, Note_on_c, 1, 56, 0
1, 33576, Note_on_c, 1, 68, 75
1, 33597, Note_on_c, 0, 83, 0
1, 33599, Note_on_c, 1, 68, 0
1, 33600, Note_on_c, 1, 57, 75
1, 33624, Note_on_c, 0, 84, 79
1, 33647, Note_on_c, 0, 84, 0
1, 33648, Note_on_c, 0, 83, 78
1, 33671, Note_on_c, 0, 83, 0
1, 33672, Note_on_c, 0, 81, 78
1, 33689, Note_on_c, 1, 57, 0
1, 33695, Note_on_c, 0, 81, 0
1, 33696, Note_on_c, 0, 79, 77
1, 33719, Note_on_c, 0, 79, 0
1, 33720, Note_on_c, 0, 78, 76
1, 33743, Note_on_c, 0, 78, 0
1, 33744, Note_on_c, 0, 76, 76
1, 33767, Note_on_c, 0, 76, 0
1, 33768, Note_on_c, 0, 78, 75
1, 33791, Note_on_c, 0, 78, 0
1, 33792, Note_on_c, 0, 74, 75
1, 33792, Note_on_c, 1, 59, 75
1, 33815, Note_on_c, 1, 59, 0
1, 33816, Note_on_c, 1, 71, 75
1, 33837, Note_on_c, 0, 74, 0
1, 33839, Note_on_c, 1, 71, 0
1, 33840, Note_on_c, 0, 78, 76
1, 33840, Note_on_c, 1, 57, 75
1, 33863, Note_on_c, 1, 57, 0
1, 33864, Note_on_c, 1, 69, 75
1, 33885, Note_on_c, 0, 78, 0
1, 33887, Note_on_c, 1, 69, 0
1, 33888, Note_on_c, 0, 79, 77
1, 33888, Note_on_c, 1, 55, 75
1, 33911, Note_on_c, 1, 55, 0
1, 33912, Note_on_c, 1, 67, 75
1, 33933, Note_on_c, 0, 79, 0
1, 33935, Note_on_c, 1, 67, 0
1, 33936, Note_on_c, 0, 81, 78
1, 33936, Note_on_c, 1, 54, 75
1, 33959, Note_on_c, 1, 54, 0
1, 33960, Note_on_c, 1, 66, 75
1, 33981, Note_on_c, 0, 81, 0
1, 33983, Note_on_c, 1, 66, 0
1, 33984, Note_on_c, 1, 55, 75
1, 34008, Note_on_c, 0, 83, 79
1, 34031, Note_on_c, 0, 83, 0
1, 34032, Note_on_c, 0, 81, 78
1, 34055, Note_on_c, 0, 81, 0
1, 34056, Note_on_c, 0, 79, 78
1, 34073, Note_on_c, 1, 55, 0
1, 34079, Note_on_c, 0, 79, 0
1, 34080, Note_on_c, 0, 78, 77
1, 34103, Note_on_c, 0, 78, 0
1, 34104, Note_on_c, 0, 76, 76
1, 34127, Note_on_c, 0, 76, 0
1, 34128, Note_on_c, 0, 74, 76
1, 34151, Note_on_c, 0, 74, 0
1, 34152, Note_on_c, 0, 76, 75
1, 34175, Note_on_c, 0, 76, 0
1, 34176, Note_on_c, 0, 72, 75
1, 34176, Note_on_c, 1, 57, 75
1, 34199, Note_on_c, 1, 57, 0
1, 34200, Note_on_c, 1, 69, 75
1, 34221, Note_on_c, 0, 72, 0
1, 34223, Note_on_c, 1, 69, 0
1, 34224, Note_on_c, 0, 76, 76
1, 34224, Note_on_c, 1, 55, 75
1, 34247, Note_on_c, 1, 55, 0
1, 34248, Note_on_c, 1, 67, 75
1, 34269, Note_on_c, 0, 76, 0
1, 34271, Note_on_c, 1, 67, 0
1, 34272, Note_on_c, 0, 78, 77
1, 34272, Note_on_c, 1, 54, 75
1, 34295, Note_on_c, 1, 54, 0
1, 34296, Note_on_c, 1, 66, 75
1, 34317, Note_on_c, 0, 78, 0
1, 34319, Note_on_c, 1, 66, 0
1, 34320, Note_on_c, 0, 79, 78
1, 34320, Note_on_c, 1, 52, 75
1, 34343, Note_on_c, 1, 52, 0
1, 34344, Note_on_c, 1, 64, 75
1, 34365, Note_on_c, 0, 79, 0
1, 34367, Note_on_c, 1, 64, 0
1, 34368, Note_on_c, 1, 54, 75
1, 34392, Note_on_c, 0, 81, 79
1, 34415, Note_on_c, 0, 81, 0
1, 34416, Note_on_c, 0, 79, 78
1, 34439, Note_on_c, 0, 79, 0
1, 34440, Note_on_c, 0, 78, 78
1, 34457, Note_on_c, 1, 54, 0
1, 34463, Note_on_c, 0, 78, 0
1, 34464, Note_on_c, 0, 76, 77
1, 34487, Note_on_c, 0, 76, 0
1, 34488, Note_on_c, 0, 74, 76
1, 34511, Note_on_c, 0, 74, 0
1, 34512, Note_on_c, 0, 76, 76
1, 34535, Note_on_c, 0, 76, 0
1, 34536, Note_on_c, 0, 72, 75
1, 34559, Note_on_c, 0, 72, 0
1, 34560, Note_on_c, 0, 71, 75
1, 34560, Note_on_c, 1, 55, 75
1, 34583, Note_on_c, 1, 55, 0
1, 34584, Note_on_c, 1, 62, 75
1, 34605, Note_on_c, 0, 71, 0
1, 34607, Note_on_c, 1, 62, 0
1, 34608, Note_on_c, 0, 79, 75
1, 34608, Note_on_c, 1, 59, 75
1, 34631, Note_on_c, 1, 59, 0
1, 34632, Note_on_c, 1, 62, 75
1, 34653, Note_on_c, 0, 79, 0
1, 34655, Note_on_c, 1, 62, 0
1, 34656, Note_on_c, 0, 78, 75
1, 34656, Note_on_c, 1, 57, 75
1, 34679, Note_on_c, 1, 57, 0
1, 34680, Note_on_c, 1, 62, 75
1, 34701, Note_on_c, 0, 78, 0
1, 34703, Note_on_c, 1, 62, 0
1, 34704, Note_on_c, 0, 86, 75
1, 34704, Note_on_c, 1, 60, 75
1, 34727, Note_on_c, 1, 60, 0
1, 34728, Note_on_c, 1, 62, 75
1, 34749, Note_on_c, 0, 86, 0
1, 34751, Note_on_c, 1, 62, 0
1, 34752, Note_on_c, 0, 83, 75
1, 34752, Note_on_c, 1, 55, 75
1, 34775, Note_on_c, 1, 55, 0
1, 34776, Note_on_c, 1, 62, 75
1, 34797, Note_on_c, 0, 83, 0
1, 34799, Note_on_c, 1, 62, 0
1, 34800, Note_on_c, 0, 79, 75
1, 34800, Note_on_c, 1, 59, 75
1, 34823, Note_on_c, 1, 59, 0
1, 34824, Note_on_c, 1, 62, 75
1, 34845, Note_on_c, 0, 79, 0
1, 34847, Note_on_c, 1, 62, 0
1, 34848, Note_on_c, 0, 78, 75
1, 34848, Note_on_c, 1, 57, 75
1, 34871, Note_on_c, 1, 57, 0
1, 34872, Note_on_c, 1, 62, 75
1, 34893, Note_on_c, 0, 78, 0
1, 34895, Note_on_c, 1, 62, 0
1, 34896, Note_on_c, 0, 72, 75
1, 34896, Note_on_c, 1, 60, 75
1, 34919, Note_on_c, 1, 60, 0
1, 34920, Note_on_c, 1, 62, 75
1, 34941, Note_on_c, 0, 72, 0
1, 34943, Note_on_c, 1, 62, 0
1, 34944, Note_on_c, 0, 71, 75
1, 34944, Note_on_c, 1, 55, 75
1, 34967, Note_on_c, 1, 55, 0
1, 34968, Note_on_c, 1, 62, 75
1, 34989, Note_on_c, 0, 71, 0
1, 34991, Note_on_c, 1, 62, 0
1, 34992, Note_on_c, 0, 79, 75
1, 34992, Note_on_c, 1, 59, 75
1, 35007, Note_on_c, 0, 79, 0
1, 35008, Note_on_c, 0, 81, 75
1, 35015, Note_on_c, 1, 59, 0
1, 35016, Note_on_c, 1, 62, 75
1, 35023, Note_on_c, 0, 81, 0
1, 35024, Note_on_c, 0, 79, 75
1, 35039, Note_on_c, 0, 79, 0
1, 35039, Note_on_c, 1, 62, 0
1, 35040, Note_on_c, 0, 78, 75
1, 35040, Note_on_c, 1, 57, 75
1, 35063, Note_on_c, 1, 57, 0
1, 35064, Note_on_c, 1, 62, 75
1, 35085, Note_on_c, 0, 78, 0
1, 35087, Note_on_c, 1, 62, 0
1, 35088, Note_on_c, 0, 86, 75
1, 35088, Note_on_c, 1, 60, 75
1, 35111, Note_on_c, 1, 60, 0
1, 35112, Note_on_c, 1, 62, 75
1, 35133, Note_on_c, 0, 86, 0
1, 35135, Note_on_c, 1, 62, 0
1, 35136, Note_on_c, 0, 83, 75
1, 35136, Note_on_c, 1, 55, 75
1, 35159, Note_on_c, 1, 55, 0
1, 35160, Note_on_c, 1, 62, 75
1, 35181, Note_on_c, 0, 83, 0
1, 35183, Note_on_c, 1, 62, 0
1, 35184, Note_on_c, 0, 79, 75
1, 35184, Note_on_c, 1, 59, 75
1, 35207, Note_on_c, 1, 59, 0
1, 35208, Note_on_c, 1, 62, 75
1, 35229, Note_on_c, 0, 79, 0
1, 35231, Note_on_c, 1, 62, 0
1, 35232, Note_on_c, 0, 78, 75
1, 35232, Note_on_c, 1, 57, 75
1, 35255, Note_on_c, 1, 57, 0
1, 35256, Note_on_c, 1, 62, 75
1, 35277, Note_on_c, 0, 78, 0
1, 35279, Note_on_c, 1, 62, 0
1, 35280, Note_on_c, 0, 72, 75
1, 35280, Note_on_c, 1, 60, 75
1, 35303, Note_on_c, 1, 60, 0
1, 35304, Note_on_c, 1, 62, 75
1, 35325, Note_on_c, 0, 72, 0
1, 35327, Note_on_c, 1, 62, 0
1, 35328, Note_on_c, 0, 71, 75
1, 35328, Note_on_c, 1, 55, 75
1, 35351, Note_on_c, 1, 55, 0
1, 35352, Note_on_c, 1, 62, 75
1, 35373, Note_on_c, 0, 71, 0
1, 35375, Note_on_c, 1, 62, 0
1, 35376, Note_on_c, 0, 79, 75
1, 35376, Note_on_c, 1, 59, 75
1, 35399, Note_on_c, 1, 59, 0
1, 35400, Note_on_c, 1, 62, 75
1, 35421, Note_on_c, 0, 79, 0
1, 35423, Note_on_c, 1, 62, 0
1, 35424, Note_on_c, 0, 77, 75
1, 35424, Note_on_c, 1, 59, 75
1, 35447, Note_on_c, 1, 59, 0
1, 35448, Note_on_c, 1, 67, 75
1, 35469, Note_on_c, 0, 77, 0
1, 35471, Note_on_c, 1, 67, 0
1, 35472, Note_on_c, 0, 74, 75
1, 35472, Note_on_c, 1, 62, 75
1, 35495, Note_on_c, 1, 62, 0
1, 35496, Note_on_c, 1, 67, 75
1, 35517, Note_on_c, 0, 74, 0
1, 35519, Note_on_c, 1, 67, 0
1, 35520, Note_on_c, 0, 75, 75
1, 35520, Note_on_c, 1, 60, 75
1, 35543, Note_on_c, 1, 60, 0
1, 35544, Note_on_c, 1, 67, 75
1, 35567, Note_on_c, 1, 67, 0
1, 35568, Note_on_c, 1, 64, 75
1, 35591, Note_on_c, 1, 64, 0
1, 35592, Note_on_c, 1, 67, 75
1, 35615, Note_on_c, 1, 67, 0
1, 35616, Note_on_c, 0, 75, 0
1, 35616, Note_on_c, 0, 76, 75
1, 35616, Note_on_c, 1, 60, 75
1, 35636, Note_on_c, 0, 76, 0
1, 35661, Note_on_c, 1, 60, 0
1, 35664, Note_on_c, 0, 76, 75
1, 35687, Note_on_c, 0, 76, 0
1, 35688, Note_on_c, 0, 72, 75
1, 35711, Note_on_c, 0, 72, 0
1, 35712, Note_on_c, 0, 74, 75
1, 35735, Note_on_c, 0, 74, 0
1, 35736, Note_on_c, 0, 71, 75
1, 35759, Note_on_c, 0, 71, 0
1, 35760, Note_on_c, 0, 72, 75
1, 35783, Note_on_c, 0, 72, 0
1, 35784, Note_on_c, 0, 69, 75
1, 35807, Note_on_c, 0, 69, 0
1, 35808, Note_on_c, 0, 71, 75
1, 35831, Note_on_c, 0, 71, 0
1, 35832, Note_on_c, 0, 67, 75
1, 35855, Note_on_c, 0, 67, 0
1, 35856, Note_on_c, 0, 69, 75
1, 35856, Note_on_c, 1, 50, 75
1, 35879, Note_on_c, 0, 69, 0
1, 35880, Note_on_c, 0, 66, 75
1, 35901, Note_on_c, 1, 50, 0
1, 35903, Note_on_c, 0, 66, 0
1, 35904, Note_on_c, 0, 67, 75
1, 35904, Note_on_c, 1, 52, 75
1, 35927, Note_on_c, 1, 52, 0
1, 35928, Note_on_c, 1, 61, 75
1, 35949, Note_on_c, 0, 67, 0
1, 35951, Note_on_c, 1, 61, 0
1, 35952, Note_on_c, 0, 79, 75
1, 35952, Note_on_c, 1, 55, 75
1, 35975, Note_on_c, 1, 55, 0
1, 35976, Note_on_c, 1, 61, 75
1, 35997, Note_on_c, 0, 79, 0
1, 35999, Note_on_c, 1, 61, 0
1, 36000, Note_on_c, 0, 79, 75
1, 36000, Note_on_c, 1, 52, 75
1, 36023, Note_on_c, 1, 52, 0
1, 36024, Note_on_c, 1, 61, 75
1, 36045, Note_on_c, 0, 79, 0
1, 36047, Note_on_c, 1, 61, 0
1, 36048, Note_on_c, 0, 81, 75
1, 36048, Note_on_c, 1, 55, 75
1, 36060, Note_on_c, 0, 81, 0
1, 36060, Note_on_c, 0, 79, 75
1, 36071, Note_on_c, 1, 55, 0
1, 36072, Note_on_c, 0, 79, 0
1, 36072, Note_on_c, 0, 78, 75
1, 36072, Note_on_c, 1, 61, 75
1, 36084, Note_on_c, 0, 78, 0
1, 36084, Note_on_c, 0, 79, 75
1, 36095, Note_on_c, 1, 61, 0
1, 36096, Note_on_c, 0, 79, 0
1, 36096, Note_on_c, 0, 78, 75
1, 36096, Note_on_c, 1, 50, 75
1, 36116, Note_on_c, 0, 78, 0
1, 36119, Note_on_c, 1, 50, 0
1, 36120, Note_on_c, 1, 62, 75
1, 36143, Note_on_c, 1, 62, 0
1, 36144, Note_on_c, 0, 72, 75
1, 36144, Note_on_c, 1, 54, 75
1, 36167, Note_on_c, 1, 54, 0
1, 36168, Note_on_c, 1, 62, 75
1, 36189, Note_on_c, 0, 72, 0
1, 36191, Note_on_c, 1, 62, 0
1, 36192, Note_on_c, 0, 72, 75
1, 36192, Note_on_c, 1, 50, 75
1, 36215, Note_on_c, 1, 50, 0
1, 36216, Note_on_c, 1, 62, 75
1, 36237, Note_on_c, 0, 72, 0
1, 36239, Note_on_c, 1, 62, 0
1, 36240, Note_on_c, 0, 74, 75
1, 36240, Note_on_c, 1, 54, 75
1, 36252, Note_on_c, 0, 74, 0
1, 36252, Note_on_c, 0, 72, 75
1, 36263, Note_on_c, 1, 54, 0
1, 36264, Note_on_c, 0, 72, 0
1, 36264, Note_on_c, 0, 71, 75
1, 36264, Note_on_c, 1, 62, 75
1, 36276, Note_on_c, 0, 71, 0
1, 36276, Note_on_c, 0, 72, 75
1, 36287, Note_on_c, 1, 62, 0
1, 36288, Note_on_c, 0, 72, 0
1, 36288, Note_on_c, 0, 71, 75
1, 36288, Note_on_c, 1, 55, 75
1, 36308, Note_on_c, 0, 71, 0
1, 36311, Note_on_c, 1, 55, 0
1, 36312, Note_on_c, 1, 62, 75
1, 36335, Note_on_c, 1, 62, 0
1, 36336, Note_on_c, 0, 65, 75
1, 36336, Note_on_c, 1, 59, 75
1, 36359, Note_on_c, 1, 59, 0
1, 36360, Note_on_c, 1, 62, 75
1, 36381, Note_on_c, 0, 65, 0
1, 36383, Note_on_c, 1, 62, 0
1, 36384, Note_on_c, 0, 65, 75
1, 36384, Note_on_c, 1, 55, 75
1, 36407, Note_on_c, 1, 55, 0
1, 36408, Note_on_c, 1, 62, 75
1, 36429, Note_on_c, 0, 65, 0
1, 36431, Note_on_c, 1, 62, 0
1, 36432, Note_on_c, 0, 67, 75
1, 36432, Note_on_c, 1, 59, 75
1, 36444, Note_on_c, 0, 67, 0
1, 36444, Note_on_c, 0, 65, 75
1, 36455, Note_on_c, 1, 59, 0
1, 36456, Note_on_c, 0, 65, 0
1, 36456, Note_on_c, 0, 64, 75
1, 36456, Note_on_c, 1, 62, 75
1, 36468, Note_on_c, 0, 64, 0
1, 36468, Note_on_c, 0, 65, 75
1, 36479, Note_on_c, 1, 62, 0
1, 36480, Note_on_c, 0, 65, 0
1, 36480, Note_on_c, 0, 64, 75
1, 36480, Note_on_c, 1, 60, 75
1, 36525, Note_on_c, 0, 64, 0
1, 36528, Note_on_c, 0, 75, 75
1, 36551, Note_on_c, 0, 75, 0
1, 36552, Note_on_c, 0, 76, 75
1, 36569, Note_on_c, 1, 60, 0
1, 36575, Note_on_c, 0, 76, 0
1, 36576, Note_on_c, 0, 74, 75
1, 36599, Note_on_c, 0, 74, 0
1, 36600, Note_on_c, 0, 72, 75
1, 36623, Note_on_c, 0, 72, 0
1, 36624, Note_on_c, 0, 71, 75
1, 36647, Note_on_c, 0, 71, 0
1, 36648, Note_on_c, 0, 69, 75
1, 36671, Note_on_c, 0, 69, 0
1, 36672, Note_on_c, 0, 67, 75
1, 36720, Note_on_c, 1, 47, 75
1, 36761, Note_on_c, 0, 67, 0
1, 36765, Note_on_c, 1, 47, 0
1, 36768, Note_on_c, 0, 69, 75
1, 36768, Note_on_c, 1, 48, 75
1, 36781, Note_on_c, 0, 69, 0
1, 36782, Note_on_c, 0, 71, 75
1, 36795, Note_on_c, 0, 71, 0
1, 36796, Note_on_c, 0, 69, 75
1, 36809, Note_on_c, 0, 69, 0
1, 36810, Note_on_c, 0, 71, 75
1, 36813, Note_on_c, 1, 48, 0
1, 36816, Note_on_c, 1, 50, 75
1, 36823, Note_on_c, 0, 71, 0
1, 36824, Note_on_c, 0, 69, 75
1, 36837, Note_on_c, 0, 69, 0
1, 36838, Note_on_c, 0, 67, 75
1, 36850, Note_on_c, 0, 67, 0
1, 36851, Note_on_c, 0, 69, 75
1, 36861, Note_on_c, 1, 50, 0
1, 36863, Note_on_c, 0, 69, 0
1, 36864, Note_on_c, 0, 67, 75
1, 36864, Note_on_c, 1, 52, 75
1, 36887, Note_on_c, 1, 52, 0
1, 36888, Note_on_c, 1, 61, 75
1, 36909, Note_on_c, 0, 67, 0
1, 36911, Note_on_c, 1, 61, 0
1, 36912, Note_on_c, 0, 79, 75
1, 36912, Note_on_c, 1, 55, 75
1, 36935, Note_on_c, 1, 55, 0
1, 36936, Note_on_c, 1, 61, 75
1, 36957, Note_on_c, 0, 79, 0
1, 36959, Note_on_c, 1, 61, 0
1, 36960, Note_on_c, 0, 79, 75
1, 36960, Note_on_c, 1, 52, 75
1, 36983, Note_on_c, 1, 52, 0
1, 36984, Note_on_c, 1, 61, 75
1, 37005, Note_on_c, 0, 79, 0
1, 37007, Note_on_c, 1, 61, 0
1, 37008, Note_on_c, 0, 81, 75
1, 37008, Note_on_c, 1, 55, 75
1, 37020, Note_on_c, 0, 81, 0
1, 37020, Note_on_c, 0, 79, 75
1, 37031, Note_on_c, 1, 55, 0
1, 37032, Note_on_c, 0, 79, 0
1, 37032, Note_on_c, 0, 78, 75
1, 37032, Note_on_c, 1, 61, 75
1, 37044, Note_on_c, 0, 78, 0
1, 37044, Note_on_c, 0, 79, 75
1, 37055, Note_on_c, 1, 61, 0
1, 37056, Note_on_c, 0, 79, 0
1, 37056, Note_on_c, 0, 78, 75
1, 37056, Note_on_c, 1, 50, 75
1, 37076, Note_on_c, 0, 78, 0
1, 37079, Note_on_c, 1, 50, 0
1, 37080, Note_on_c, 1, 62, 75
1, 37103, Note_on_c, 1, 62, 0
1, 37104, Note_on_c, 0, 72, 75
1, 37104, Note_on_c, 1, 54, 75
1, 37127, Note_on_c, 1, 54, 0
1, 37128, Note_on_c, 1, 62, 75
1, 37149, Note_on_c, 0, 72, 0
1, 37151, Note_on_c, 1, 62, 0
1, 37152, Note_on_c, 0, 72, 75
1, 37152, Note_on_c, 1, 50, 75
1, 37175, Note_on_c, 1, 50, 0
1, 37176, Note_on_c, 1, 62, 75
1, 37197, Note_on_c, 0, 72, 0
1, 37199, Note_on_c, 1, 62, 0
1, 37200, Note_on_c, 0, 74, 75
1, 37200, Note_on_c, 1, 54, 75
1, 37212, Note_on_c, 0, 74, 0
1, 37212, Note_on_c, 0, 72, 75
1, 37223, Note_on_c, 1, 54, 0
1, 37224, Note_on_c, 0, 72, 0
1, 37224, Note_on_c, 0, 71, 75
1, 37224, Note_on_c, 1, 62, 75
1, 37236, Note_on_c, 0, 71, 0
1, 37236, Note_on_c, 0, 72, 75
1, 37247, Note_on_c, 1, 62, 0
1, 37248, Note_on_c, 0, 72, 0
1, 37248, Note_on_c, 0, 71, 75
1, 37248, Note_on_c, 1, 55, 75
1, 37268, Note_on_c, 0, 71, 0
1, 37271, Note_on_c, 1, 55, 0
1, 37272, Note_on_c, 1, 62, 75
1, 37295, Note_on_c, 1, 62, 0
1, 37296, Note_on_c, 0, 65, 75
1, 37296, Note_on_c, 1, 59, 75
1, 37319, Note_on_c, 1, 59, 0
1, 37320, Note_on_c, 1, 62, 75
1, 37341, Note_on_c, 0, 65, 0
1, 37343, Note_on_c, 1, 62, 0
1, 37344, Note_on_c, 0, 65, 75
1, 37344, Note_on_c, 1, 55, 75
1, 37367, Note_on_c, 1, 55, 0
1, 37368, Note_on_c, 1, 62, 75
1, 37389, Note_on_c, 0, 65, 0
1, 37391, Note_on_c, 1, 62, 0
1, 37392, Note_on_c, 0, 67, 75
1, 37392, Note_on_c, 1, 59, 75
1, 37404, Note_on_c, 0, 67, 0
1, 37404, Note_on_c, 0, 65, 75
1, 37415, Note_on_c, 1, 59, 0
1, 37416, Note_on_c, 0, 65, 0
1, 37416, Note_on_c, 0, 64, 75
1, 37416, Note_on_c, 1, 62, 75
1, 37428, Note_on_c, 0, 64, 0
1, 37428, Note_on_c, 0, 65, 75
1, 37439, Note_on_c, 1, 62, 0
1, 37440, Note_on_c, 0, 65, 0
1, 37440, Note_on_c, 0, 64, 75
1, 37440, Note_on_c, 1, 60, 75
1, 37485, Note_on_c, 0, 64, 0
1, 37488, Note_on_c, 0, 75, 75
1, 37511, Note_on_c, 0, 75, 0
1, 37512, Note_on_c, 0, 76, 75
1, 37529, Note_on_c, 1, 60, 0
1, 37535, Note_on_c, 0, 76, 0
1, 37536, Note_on_c, 0, 74, 75
1, 37559, Note_on_c, 0, 74, 0
1, 37560, Note_on_c, 0, 72, 75
1, 37583, Note_on_c, 0, 72, 0
1, 37584, Note_on_c, 0, 71, 75
1, 37607, Note_on_c, 0, 71, 0
1, 37608, Note_on_c, 0, 69, 75
1, 37631, Note_on_c, 0, 69, 0
1, 37632, Note_on_c, 0, 67, 75
1, 37680, Note_on_c, 1, 47, 75
1, 37721, Note_on_c, 0, 67, 0
1, 37725, Note_on_c, 1, 47, 0
1, 37728, Note_on_c, 0, 69, 75
1, 37728, Note_on_c, 1, 48, 75
1, 37741, Note_on_c, 0, 69, 0
1, 37742, Note_on_c, 0, 71, 75
1, 37755, Note_on_c, 0, 71, 0
1, 37756, Note_on_c, 0, 69, 75
1, 37769, Note_on_c, 0, 69, 0
1, 37770, Note_on_c, 0, 71, 75
1, 37773, Note_on_c, 1, 48, 0
1, 37776, Note_on_c, 1, 50, 75
1, 37783, Note_on_c, 0, 71, 0
1, 37784, Note_on_c, 0, 69, 75
1, 37797, Note_on_c, 0, 69, 0
1, 37798, Note_on_c, 0, 67, 75
1, 37810, Note_on_c, 0, 67, 0
1, 37811, Note_on_c, 0, 69, 75
1, 37821, Note_on_c, 1, 50, 0
1, 37823, Note_on_c, 0, 69, 0
1, 37824, Note_on_c, 0, 71, 75
1, 37824, Note_on_c, 1, 55, 75
1, 37847, Note_on_c, 0, 71, 0
1, 37848, Note_on_c, 0, 67, 75
1, 37869, Note_on_c, 1, 55, 0
1, 37871, Note_on_c, 0, 67, 0
1, 37872, Note_on_c, 0, 79, 75
1, 37872, Note_on_c, 1, 47, 75
1, 37895, Note_on_c, 0, 79, 0
1, 37896, Note_on_c, 0, 74, 75
1, 37917, Note_on_c, 1, 47, 0
1, 37919, Note_on_c, 0, 74, 0
1, 37920, Note_on_c, 0, 76, 75
1, 37920, Note_on_c, 1, 48, 75
1, 37943, Note_on_c, 0, 76, 0
1, 37944, Note_on_c, 0, 71, 75
1, 37965, Note_on_c, 1, 48, 0
1, 37967, Note_on_c, 0, 71, 0
1, 37968, Note_on_c, 0, 72, 75
1, 37991, Note_on_c, 0, 72, 0
1, 37992, Note_on_c, 0, 69, 75
1, 38015, Note_on_c, 0, 69, 0
1, 38016, Note_on_c, 0, 67, 75
1, 38064, Note_on_c, 1, 47, 75
1, 38105, Note_on_c, 0, 67, 0
1, 38109, Note_on_c, 1, 47, 0
1, 38112, Note_on_c, 0, 69, 75
1, 38112, Note_on_c, 1, 48, 75
1, 38125, Note_on_c, 0, 69, 0
1, 38126, Note_on_c, 0, 71, 75
1, 38139, Note_on_c, 0, 71, 0
1, 38140, Note_on_c, 0, 69, 75
1, 38153, Note_on_c, 0, 69, 0
1, 38154, Note_on_c, 0, 71, 75
1, 38157, Note_on_c, 1, 48, 0
1, 38160, Note_on_c, 1, 50, 75
1, 38167, Note_on_c, 0, 71, 0
1, 38168, Note_on_c, 0, 69, 75
1, 38181, Note_on_c, 0, 69, 0
1, 38182, Note_on_c, 0, 67, 75
1, 38194, Note_on_c, 0, 67, 0
1, 38195, Note_on_c, 0, 69, 75
1, 38205, Note_on_c, 1, 50, 0
1, 38207, Note_on_c, 0, 69, 0
1, 38208, Note_on_c, 0, 67, 75
1, 38208, Note_on_c, 1, 43, 75
1, 38231, Note_on_c, 1, 43, 0
1, 38232, Note_on_c, 1, 55, 75
1, 38253, Note_on_c, 0, 67, 0
1, 38255, Note_on_c, 1, 55, 0
1, 38256, Note_on_c, 1, 43, 75
1, 38279, Note_on_c, 1, 43, 0
1, 38280, Note_on_c, 1, 55, 75
1, 38303, Note_on_c, 1, 55, 0
1, 38304, Note_on_c, 0, 72, 75
1, 38304, Note_on_c, 0, 66, 75
1, 38304, Note_on_c, 1, 43, 75
1, 38324, Note_on_c, 0, 72, 0
1, 38324, Note_on_c, 0, 66, 0
1, 38327, Note_on_c, 1, 43, 0
1, 38328, Note_on_c, 1, 55, 75
1, 38351, Note_on_c, 1, 55, 0
1, 38352, Note_on_c, 1, 43, 75
1, 38375, Note_on_c, 1, 43, 0
1, 38376, Note_on_c, 1, 55, 75
1, 38399, Note_on_c, 1, 55, 0
1, 38400, Note_on_c, 0, 71, 75
1, 38400, Note_on_c, 0, 67, 75
1, 38400, Note_on_c, 1, 43, 75
1, 38420, Note_on_c, 0, 71, 0
1, 38420, Note_on_c, 0, 67, 0
1, 38423, Note_on_c, 1, 43, 0
1, 38424, Note_on_c, 1, 55, 75
1, 38447, Note_on_c, 1, 55, 0
1, 38448, Note_on_c, 1, 43, 75
1, 38471, Note_on_c, 1, 43, 0
1, 38472, Note_on_c, 1, 55, 75
1, 38495, Note_on_c, 1, 55, 0
1, 38496, Note_on_c, 0, 66, 75
1, 38496, Note_on_c, 0, 60, 75
1, 38496, Note_on_c, 1, 43, 75
1, 38516, Note_on_c, 0, 66, 0
1, 38516, Note_on_c, 0, 60, 0
1, 38519, Note_on_c, 1, 43, 0
1, 38520, Note_on_c, 1, 55, 75
1, 38543, Note_on_c, 1, 55, 0
1, 38544, Note_on_c, 1, 43, 75
1, 38567, Note_on_c, 1, 43, 0
1, 38568, Note_on_c, 1, 55, 75
1, 38591, Note_on_c, 1, 55, 0
1, 38592, Note_on_c, 0, 67, 75
1, 38592, Note_on_c, 0, 62, 75
1, 38592, Note_on_c, 0, 59, 75
1, 38592, Note_on_c, 1, 43, 75
1, 38681, Note_on_c, 0, 67, 0
1, 38681, Note_on_c, 0, 62, 0
1, 38681, Note_on_c, 0, 59, 0
1, 38681, Note_on_c, 1, 43, 0
1, 38736, Note_on_c, 0, 62, 75
1, 38781, Note_on_c, 0, 62, 0
1, 38784, Note_on_c, 0, 65, 80
1, 38784, Note_on_c, 1, 50, 80
1, 38804, Note_on_c, 0, 65, 0
1, 38807, Note_on_c, 1, 50, 0
1, 38808, Note_on_c, 1, 57, 80
1, 38831, Note_on_c, 1, 57, 0
1, 38832, Note_on_c, 0, 69, 80
1, 38832, Note_on_c, 1, 53, 80
1, 38852, Note_on_c, 0, 69, 0
1, 38855, Note_on_c, 1, 53, 0
1, 38856, Note_on_c, 1, 57, 80
1, 38879, Note_on_c, 1, 57, 0
1, 38880, Note_on_c, 0, 74, 80
1, 38880, Note_on_c, 1, 50, 80
1, 38900, Note_on_c, 0, 74, 0
1, 38903, Note_on_c, 1, 50, 0
1, 38904, Note_on_c, 1, 57, 80
1, 38927, Note_on_c, 1, 57, 0
1, 38928, Note_on_c, 0, 77, 80
1, 38928, Note_on_c, 1, 53, 80
1, 38948, Note_on_c, 0, 77, 0
1, 38951, Note_on_c, 1, 53, 0
1, 38952, Note_on_c, 1, 57, 80
1, 38975, Note_on_c, 1, 57, 0
1, 38976, Note_on_c, 0, 68, 80
1, 38976, Note_on_c, 1, 50, 80
1, 38999, Note_on_c, 1, 50, 0
1, 39000, Note_on_c, 1, 59, 80
1, 39023, Note_on_c, 1, 59, 0
1, 39024, Note_on_c, 1, 56, 80
1, 39047, Note_on_c, 1, 56, 0
1, 39048, Note_on_c, 1, 59, 80
1, 39065, Note_on_c, 0, 68, 0
1, 39071, Note_on_c, 1, 59, 0
1, 39072, Note_on_c, 1, 50, 80
1, 39095, Note_on_c, 1, 50, 0
1, 39096, Note_on_c, 1, 59, 80
1, 39119, Note_on_c, 1, 59, 0
1, 39120, Note_on_c, 0, 64, 80
1, 39120, Note_on_c, 1, 56, 80
1, 39143, Note_on_c, 1, 56, 0
1, 39144, Note_on_c, 1, 59, 80
1, 39165, Note_on_c, 0, 64, 0
1, 39167, Note_on_c, 1, 59, 0
1, 39168, Note_on_c, 0, 68, 80
1, 39168, Note_on_c, 1, 50, 80
1, 39188, Note_on_c, 0, 68, 0
1, 39191, Note_on_c, 1, 50, 0
1, 39192, Note_on_c, 1, 59, 80
1, 39215, Note_on_c, 1, 59, 0
1, 39216, Note_on_c, 0, 71, 80
1, 39216, Note_on_c, 1, 56, 80
1, 39236, Note_on_c, 0, 71, 0
1, 39239, Note_on_c, 1, 56, 0
1, 39240, Note_on_c, 1, 59, 80
1, 39263, Note_on_c, 1, 59, 0
1, 39264, Note_on_c, 0, 76, 80
1, 39264, Note_on_c, 1, 50, 80
1, 39284, Note_on_c, 0, 76, 0
1, 39287, Note_on_c, 1, 50, 0
1, 39288, Note_on_c, 1, 59, 80
1, 39311, Note_on_c, 1, 59, 0
1, 39312, Note_on_c, 0, 80, 80
1, 39312, Note_on_c, 1, 56, 80
1, 39332, Note_on_c, 0, 80, 0
1, 39335, Note_on_c, 1, 56, 0
1, 39336, Note_on_c, 1, 59, 80
1, 39359, Note_on_c, 1, 59, 0
1, 39360, Note_on_c, 0, 81, 80
1, 39360, Note_on_c, 1, 48, 80
1, 39383, Note_on_c, 1, 48, 0
1, 39384, Note_on_c, 1, 57, 80
1, 39407, Note_on_c, 1, 57, 0
1, 39408, Note_on_c, 1, 52, 80
1, 39431, Note_on_c, 1, 52, 0
1, 39432, Note_on_c, 1, 57, 80
1, 39449, Note_on_c, 0, 81, 0
1, 39455, Note_on_c, 1, 57, 0
1, 39456, Note_on_c, 1, 48, 80
1, 39479, Note_on_c, 1, 48, 0
1, 39480, Note_on_c, 1, 57, 80
1, 39503, Note_on_c, 1, 57, 0
1, 39504, Note_on_c, 0, 69, 80
1, 39504, Note_on_c, 1, 52, 80
1, 39527, Note_on_c, 1, 52, 0
1, 39528, Note_on_c, 1, 57, 80
1, 39549, Note_on_c, 0, 69, 0
1, 39551, Note_on_c, 1, 57, 0
1, 39552, Note_on_c, 0, 72, 80
1, 39552, Note_on_c, 1, 48, 80
1, 39572, Note_on_c, 0, 72, 0
1, 39575, Note_on_c, 1, 48, 0
1, 39576, Note_on_c, 1, 57, 80
1, 39599, Note_on_c, 1, 57, 0
1, 39600, Note_on_c, 0, 76, 80
1, 39600, Note_on_c, 1, 52, 80
1, 39620, Note_on_c, 0, 76, 0
1, 39623, Note_on_c, 1, 52, 0
1, 39624, Note_on_c, 1, 57, 80
1, 39647, Note_on_c, 1, 57, 0
1, 39648, Note_on_c, 0, 81, 80
1, 39648, Note_on_c, 1, 48, 80
1, 39668, Note_on_c, 0, 81, 0
1, 39671, Note_on_c, 1, 48, 0
1, 39672, Note_on_c, 1, 57, 80
1, 39695, Note_on_c, 1, 57, 0
1, 39696, Note_on_c, 0, 84, 80
1, 39696, Note_on_c, 1, 52, 80
1, 39716, Note_on_c, 0, 84, 0
1, 39719, Note_on_c, 1, 52, 0
1, 39720, Note_on_c, 1, 57, 80
1, 39743, Note_on_c, 1, 57, 0
1, 39744, Note_on_c, 0, 75, 80
1, 39744, Note_on_c, 1, 47, 80
1, 39767, Note_on_c, 1, 47, 0
1, 39768, Note_on_c, 1, 57, 80
1, 39791, Note_on_c, 1, 57, 0
1, 39792, Note_on_c, 1, 54, 80
1, 39815, Note_on_c, 1, 54, 0
1, 39816, Note_on_c, 1, 57, 80
1, 39833, Note_on_c, 0, 75, 0
1, 39839, Note_on_c, 1, 57, 0
1, 39840, Note_on_c, 1, 47, 80
1, 39863, Note_on_c, 1, 47, 0
1, 39864, Note_on_c, 1, 57, 80
1, 39887, Note_on_c, 1, 57, 0
1, 39888, Note_on_c, 0, 81, 80
1, 39888, Note_on_c, 1, 54, 80
1, 39911, Note_on_c, 1, 54, 0
1, 39912, Note_on_c, 1, 57, 80
1, 39933, Note_on_c, 0, 81, 0
1, 39935, Note_on_c, 1, 57, 0
1, 39936, Note_on_c, 0, 78, 80
1, 39936, Note_on_c, 1, 51, 80
1, 39956, Note_on_c, 0, 78, 0
1, 39959, Note_on_c, 1, 51, 0
1, 39960, Note_on_c, 1, 57, 80
1, 39983, Note_on_c, 1, 57, 0
1, 39984, Note_on_c, 0, 75, 80
1, 39984, Note_on_c, 1, 54, 80
1, 40004, Note_on_c, 0, 75, 0
1, 40007, Note_on_c, 1, 54, 0
1, 40008, Note_on_c, 1, 57, 80
1, 40031, Note_on_c, 1, 57, 0
1, 40032, Note_on_c, 0, 71, 80
1, 40032, Note_on_c, 1, 51, 80
1, 40052, Note_on_c, 0, 71, 0
1, 40055, Note_on_c, 1, 51, 0
1, 40056, Note_on_c, 1, 57, 80
1, 40079, Note_on_c, 1, 57, 0
1, 40080, Note_on_c, 0, 69, 80
1, 40080, Note_on_c, 1, 54, 80
1, 40100, Note_on_c, 0, 69, 0
1, 40103, Note_on_c, 1, 54, 0
1, 40104, Note_on_c, 1, 57, 80
1, 40127, Note_on_c, 1, 57, 0
1, 40128, Note_on_c, 0, 67, 80
1, 40128, Note_on_c, 1, 52, 80
1, 40151, Note_on_c, 1, 52, 0
1, 40152, Note_on_c, 1, 59, 80
1, 40175, Note_on_c, 1, 59, 0
1, 40176, Note_on_c, 1, 55, 80
1, 40199, Note_on_c, 1, 55, 0
1, 40200, Note_on_c, 1, 59, 80
1, 40217, Note_on_c, 0, 67, 0
1, 40223, Note_on_c, 1, 59, 0
1, 40224, Note_on_c, 1, 52, 80
1, 40247, Note_on_c, 1, 52, 0
1, 40248, Note_on_c, 1, 59, 80
1, 40271, Note_on_c, 1, 59, 0
1, 40272, Note_on_c, 0, 64, 80
1, 40272, Note_on_c, 1, 55, 80
1, 40295, Note_on_c, 1, 55, 0
1, 40296, Note_on_c, 1, 59, 80
1, 40317, Note_on_c, 0, 64, 0
1, 40319, Note_on_c, 1, 59, 0
1, 40320, Note_on_c, 0, 67, 80
1, 40320, Note_on_c, 1, 52, 80
1, 40340, Note_on_c, 0, 67, 0
1, 40343, Note_on_c, 1, 52, 0
1, 40344, Note_on_c, 1, 59, 80
1, 40367, Note_on_c, 1, 59, 0
1, 40368, Note_on_c, 0, 71, 80
1, 40368, Note_on_c, 1, 55, 80
1, 40388, Note_on_c, 0, 71, 0
1, 40391, Note_on_c, 1, 55, 0
1, 40392, Note_on_c, 1, 59, 80
1, 40415, Note_on_c, 1, 59, 0
1, 40416, Note_on_c, 0, 76, 80
1, 40416, Note_on_c, 1, 52, 80
1, 40436, Note_on_c, 0, 76, 0
1, 40439, Note_on_c, 1, 52, 0
1, 40440, Note_on_c, 1, 59, 80
1, 40463, Note_on_c, 1, 59, 0
1, 40464, Note_on_c, 0, 79, 80
1, 40464, Note_on_c, 1, 55, 80
1, 40484, Note_on_c, 0, 79, 0
1, 40487, Note_on_c, 1, 55, 0
1, 40488, Note_on_c, 1, 59, 80
1, 40511, Note_on_c, 1, 59, 0
1, 40512, Note_on_c, 0, 78, 80
1, 40512, Note_on_c, 1, 51, 80
1, 40535, Note_on_c, 1, 51, 0
1, 40536, Note_on_c, 1, 59, 80
1, 40559, Note_on_c, 1, 59, 0
1, 40560, Note_on_c, 1, 54, 80
1, 40583, Note_on_c, 1, 54, 0
1, 40584, Note_on_c, 1, 59, 80
1, 40601, Note_on_c, 0, 78, 0
1, 40607, Note_on_c, 1, 59, 0
1, 40608, Note_on_c, 1, 51, 80
1, 40631, Note_on_c, 1, 51, 0
1, 40632, Note_on_c, 1, 59, 80
1, 40655, Note_on_c, 1, 59, 0
1, 40656, Note_on_c, 0, 66, 80
1, 40656, Note_on_c, 1, 54, 80
1, 40679, Note_on_c, 1, 54, 0
1, 40680, Note_on_c, 1, 59, 80
1, 40701, Note_on_c, 0, 66, 0
1, 40703, Note_on_c, 1, 59, 0
1, 40704, Note_on_c, 0, 69, 80
1, 40704, Note_on_c, 1, 51, 80
1, 40724, Note_on_c, 0, 69, 0
1, 40727, Note_on_c, 1, 51, 0
1, 40728, Note_on_c, 1, 59, 80
1, 40751, Note_on_c, 1, 59, 0
1, 40752, Note_on_c, 0, 75, 80
1, 40752, Note_on_c, 1, 54, 80
1, 40772, Note_on_c, 0, 75, 0
1, 40775, Note_on_c, 1, 54, 0
1, 40776, Note_on_c, 1, 59, 80
1, 40799, Note_on_c, 1, 59, 0
1, 40800, Note_on_c, 0, 78, 80
1, 40800, Note_on_c, 1, 51, 80
1, 40820, Note_on_c, 0, 78, 0
1, 40823, Note_on_c, 1, 51, 0
1, 40824, Note_on_c, 1, 59, 80
1, 40847, Note_on_c, 1, 59, 0
1, 40848, Note_on_c, 0, 81, 80
1, 40848, Note_on_c, 1, 54, 80
1, 40868, Note_on_c, 0, 81, 0
1, 40871, Note_on_c, 1, 54, 0
1, 40872, Note_on_c, 1, 59, 80
1, 40895, Note_on_c, 1, 59, 0
1, 40896, Note_on_c, 0, 79, 80
1, 40896, Note_on_c, 1, 52, 80
1, 40919, Note_on_c, 1, 52, 0
1, 40920, Note_on_c, 1, 59, 80
1, 40943, Note_on_c, 1, 59, 0
1, 40944, Note_on_c, 1, 55, 80
1, 40967, Note_on_c, 1, 55, 0
1, 40968, Note_on_c, 1, 59, 80
1, 40985, Note_on_c, 0, 79, 0
1, 40991, Note_on_c, 1, 59, 0
1, 40992, Note_on_c, 1, 52, 80
1, 41015, Note_on_c, 1, 52, 0
1, 41016, Note_on_c, 1, 59, 80
1, 41039, Note_on_c, 1, 59, 0
1, 41040, Note_on_c, 0, 64, 80
1, 41040, Note_on_c, 1, 55, 80
1, 41063, Note_on_c, 1, 55, 0
1, 41064, Note_on_c, 1, 59, 80
1, 41085, Note_on_c, 0, 64, 0
1, 41087, Note_on_c, 1, 59, 0
1, 41088, Note_on_c, 0, 67, 80
1, 41088, Note_on_c, 1, 52, 80
1, 41108, Note_on_c, 0, 67, 0
1, 41111, Note_on_c, 1, 52, 0
1, 41112, Note_on_c, 1, 59, 80
1, 41135, Note_on_c, 1, 59, 0
1, 41136, Note_on_c, 0, 71, 80
1, 41136, Note_on_c, 1, 55, 80
1, 41156, Note_on_c, 0, 71, 0
1, 41159, Note_on_c, 1, 55, 0
1, 41160, Note_on_c, 1, 59, 80
1, 41183, Note_on_c, 1, 59, 0
1, 41184, Note_on_c, 0, 76, 80
1, 41184, Note_on_c, 1, 52, 80
1, 41204, Note_on_c, 0, 76, 0
1, 41207, Note_on_c, 1, 52, 0
1, 41208, Note_on_c, 1, 59, 80
1, 41231, Note_on_c, 1, 59, 0
1, 41232, Note_on_c, 0, 79, 80
1, 41232, Note_on_c, 1, 55, 80
1, 41252, Note_on_c, 0, 79, 0
1, 41255, Note_on_c, 1, 55, 0
1, 41256, Note_on_c, 1, 59, 80
1, 41279, Note_on_c, 1, 59, 0
1, 41280, Note_on_c, 0, 70, 80
1, 41280, Note_on_c, 1, 48, 80
1, 41303, Note_on_c, 1, 48, 0
1, 41304, Note_on_c, 1, 58, 80
1, 41327, Note_on_c, 1, 58, 0
1, 41328, Note_on_c, 1, 52, 80
1, 41351, Note_on_c, 1, 52, 0
1, 41352, Note_on_c, 1, 58, 80
1, 41369, Note_on_c, 0, 70, 0
1, 41375, Note_on_c, 1, 58, 0
1, 41376, Note_on_c, 1, 48, 80
1, 41399, Note_on_c, 1, 48, 0
1, 41400, Note_on_c, 1, 58, 80
1, 41423, Note_on_c, 1, 58, 0
1, 41424, Note_on_c, 0, 79, 80
1, 41424, Note_on_c, 1, 52, 80
1, 41444, Note_on_c, 0, 79, 0
1, 41447, Note_on_c, 1, 52, 0
1, 41448, Note_on_c, 1, 58, 80
1, 41471, Note_on_c, 1, 58, 0
1, 41472, Note_on_c, 0, 78, 80
1, 41472, Note_on_c, 1, 48, 80
1, 41484, Note_on_c, 0, 78, 0
1, 41484, Note_on_c, 0, 79, 80
1, 41495, Note_on_c, 1, 48, 0
1, 41496, Note_on_c, 0, 79, 0
1, 41496, Note_on_c, 0, 78, 80
1, 41496, Note_on_c, 1, 58, 80
1, 41508, Note_on_c, 0, 78, 0
1, 41508, Note_on_c, 0, 79, 80
1, 41517, Note_on_c, 0, 79, 0
1, 41519, Note_on_c, 1, 58, 0
1, 41520, Note_on_c, 0, 76, 80
1, 41520, Note_on_c, 1, 52, 80
1, 41543, Note_on_c, 1, 52, 0
1, 41544, Note_on_c, 1, 58, 80
1, 41565, Note_on_c, 0, 76, 0
1, 41567, Note_on_c, 1, 58, 0
1, 41568, Note_on_c, 0, 75, 80
1, 41568, Note_on_c, 1, 48, 80
1, 41591, Note_on_c, 1, 48, 0
1, 41592, Note_on_c, 1, 58, 80
1, 41613, Note_on_c, 0, 75, 0
1, 41615, Note_on_c, 1, 58, 0
1, 41616, Note_on_c, 0, 76, 80
1, 41616, Note_on_c, 1, 52, 80
1, 41639, Note_on_c, 1, 52, 0
1, 41640, Note_on_c, 1, 58, 80
1, 41661, Note_on_c, 0, 76, 0
1, 41663, Note_on_c, 1, 58, 0
1, 41664, Note_on_c, 0, 75, 80
1, 41664, Note_on_c, 1, 47, 80
1, 41684, Note_on_c, 0, 75, 0
1, 41687, Note_on_c, 1, 47, 0
1, 41688, Note_on_c, 1, 57, 80
1, 41711, Note_on_c, 1, 57, 0
1, 41712, Note_on_c, 0, 84, 80
1, 41712, Note_on_c, 1, 51, 80
1, 41735, Note_on_c, 1, 51, 0
1, 41736, Note_on_c, 1, 57, 80
1, 41757, Note_on_c, 0, 84, 0
1, 41759, Note_on_c, 1, 57, 0
1, 41760, Note_on_c, 0, 83, 80
1, 41760, Note_on_c, 1, 47, 80
1, 41772, Note_on_c, 0, 83, 0
1, 41772, Note_on_c, 0, 84, 80
1, 41783, Note_on_c, 1, 47, 0
1, 41784, Note_on_c, 0, 84, 0
1, 41784, Note_on_c, 0, 83, 80
1, 41784, Note_on_c, 1, 57, 80
1, 41796, Note_on_c, 0, 83, 0
1, 41796, Note_on_c, 0, 84, 80
1, 41805, Note_on_c, 0, 84, 0
1, 41807, Note_on_c, 1, 57, 0
1, 41808, Note_on_c, 0, 81, 80
1, 41808, Note_on_c, 1, 51, 80
1, 41831, Note_on_c, 1, 51, 0
1, 41832, Note_on_c, 1, 57, 80
1, 41853, Note_on_c, 0, 81, 0
1, 41855, Note_on_c, 1, 57, 0
1, 41856, Note_on_c, 0, 80, 80
1, 41856, Note_on_c, 1, 52, 80
1, 41868, Note_on_c, 0, 80, 0
1, 41868, Note_on_c, 0, 81, 80
1, 41879, Note_on_c, 1, 52, 0
1, 41880, Note_on_c, 0, 81, 0
1, 41880, Note_on_c, 0, 80, 80
1, 41880, Note_on_c, 1, 62, 80
1, 41892, Note_on_c, 0, 80, 0
1, 41892, Note_on_c, 0, 81, 80
1, 41901, Note_on_c, 0, 81, 0
1, 41903, Note_on_c, 1, 62, 0
1, 41904, Note_on_c, 0, 77, 80
1, 41904, Note_on_c, 1, 56, 80
1, 41927, Note_on_c, 1, 56, 0
1, 41928, Note_on_c, 1, 62, 80
1, 41949, Note_on_c, 0, 77, 0
1, 41951, Note_on_c, 1, 62, 0
1, 41952, Note_on_c, 0, 76, 80
1, 41952, Note_on_c, 1, 52, 80
1, 41975, Note_on_c, 1, 52, 0
1, 41976, Note_on_c, 1, 62, 80
1, 41997, Note_on_c, 0, 76, 0
1, 41999, Note_on_c, 1, 62, 0
1, 42000, Note_on_c, 0, 74, 80
1, 42000, Note_on_c, 1, 56, 80
1, 42023, Note_on_c, 1, 56, 0
1, 42024, Note_on_c, 1, 62, 80
1, 42045, Note_on_c, 0, 74, 0
1, 42047, Note_on_c, 1, 62, 0
1, 42048, Note_on_c, 0, 73, 80
1, 42048, Note_on_c, 1, 57, 80
1, 42068, Note_on_c, 0, 73, 0
1, 42071, Note_on_c, 1, 57, 0
1, 42072, Note_on_c, 1, 67, 80
1, 42095, Note_on_c, 1, 67, 0
1, 42096, Note_on_c, 0, 82, 80
1, 42096, Note_on_c, 1, 61, 80
1, 42119, Note_on_c, 1, 61, 0
1, 42120, Note_on_c, 1, 67, 80
1, 42141, Note_on_c, 0, 82, 0
1, 42143, Note_on_c, 1, 67, 0
1, 42144, Note_on_c, 0, 82, 80
1, 42144, Note_on_c, 1, 57, 80
1, 42156, Note_on_c, 0, 82, 0
1, 42156, Note_on_c, 0, 81, 80
1, 42167, Note_on_c, 1, 57, 0
1, 42168, Note_on_c, 0, 81, 0
1, 42168, Note_on_c, 0, 82, 80
1, 42168, Note_on_c, 1, 67, 80
1, 42180, Note_on_c, 0, 82, 0
1, 42180, Note_on_c, 0, 81, 80
1, 42191, Note_on_c, 1, 67, 0
1, 42192, Note_on_c, 0, 81, 0
1, 42192, Note_on_c, 0, 79, 80
1, 42192, Note_on_c, 1, 61, 80
1, 42215, Note_on_c, 1, 61, 0
1, 42216, Note_on_c, 1, 67, 80
1, 42237, Note_on_c, 0, 79, 0
1, 42239, Note_on_c, 1, 67, 0
1, 42240, Note_on_c, 0, 78, 80
1, 42240, Note_on_c, 1, 60, 80
1, 42260, Note_on_c, 0, 78, 0
1, 42263, Note_on_c, 1, 60, 0
1, 42264, Note_on_c, 1, 69, 80
1, 42287, Note_on_c, 1, 69, 0
1, 42288, Note_on_c, 0, 81, 80
1, 42288, Note_on_c, 1, 66, 80
1, 42308, Note_on_c, 0, 81, 0
1, 42311, Note_on_c, 1, 66, 0
1, 42312, Note_on_c, 1, 69, 80
1, 42335, Note_on_c, 1, 69, 0
1, 42336, Note_on_c, 0, 86, 80
1, 42336, Note_on_c, 1, 60, 80
1, 42356, Note_on_c, 0, 86, 0
1, 42359, Note_on_c, 1, 60, 0
1, 42360, Note_on_c, 1, 69, 80
1, 42383, Note_on_c, 1, 69, 0
1, 42384, Note_on_c, 0, 78, 80
1, 42384, Note_on_c, 1, 66, 80
1, 42404, Note_on_c, 0, 78, 0
1, 42407, Note_on_c, 1, 66, 0
1, 42408, Note_on_c, 1, 69, 80
1, 42431, Note_on_c, 1, 69, 0
1, 42432, Note_on_c, 0, 79, 80
1, 42432, Note_on_c, 1, 59, 80
1, 42452, Note_on_c, 0, 79, 0
1, 42455, Note_on_c, 1, 59, 0
1, 42456, Note_on_c, 1, 67, 80
1, 42479, Note_on_c, 1, 67, 0
1, 42480, Note_on_c, 0, 83, 80
1, 42480, Note_on_c, 1, 62, 80
1, 42500, Note_on_c, 0, 83, 0
1, 42503, Note_on_c, 1, 62, 0
1, 42504, Note_on_c, 1, 67, 80
1, 42527, Note_on_c, 1, 67, 0
1, 42528, Note_on_c, 0, 86, 80
1, 42528, Note_on_c, 1, 59, 80
1, 42548, Note_on_c, 0, 86, 0
1, 42551, Note_on_c, 1, 59, 0
1, 42552, Note_on_c, 1, 67, 80
1, 42575, Note_on_c, 1, 67, 0
1, 42576, Note_on_c, 0, 79, 80
1, 42576, Note_on_c, 1, 62, 80
1, 42596, Note_on_c, 0, 79, 0
1, 42599, Note_on_c, 1, 62, 0
1, 42600, Note_on_c, 1, 67, 80
1, 42623, Note_on_c, 1, 67, 0
1, 42624, Note_on_c, 0, 78, 80
1, 42624, Note_on_c, 1, 60, 80
1, 42644, Note_on_c, 0, 78, 0
1, 42647, Note_on_c, 1, 60, 0
1, 42648, Note_on_c, 1, 69, 80
1, 42671, Note_on_c, 1, 69, 0
1, 42672, Note_on_c, 0, 81, 80
1, 42672, Note_on_c, 1, 66, 80
1, 42692, Note_on_c, 0, 81, 0
1, 42695, Note_on_c, 1, 66, 0
1, 42696, Note_on_c, 1, 69, 80
1, 42719, Note_on_c, 1, 69, 0
1, 42720, Note_on_c, 0, 86, 80
1, 42720, Note_on_c, 1, 60, 80
1, 42740, Note_on_c, 0, 86, 0
1, 42743, Note_on_c, 1, 60, 0
1, 42744, Note_on_c, 1, 69, 80
1, 42767, Note_on_c, 1, 69, 0
1, 42768, Note_on_c, 0, 78, 80
1, 42768, Note_on_c, 1, 66, 80
1, 42788, Note_on_c, 0, 78, 0
1, 42791, Note_on_c, 1, 66, 0
1, 42792, Note_on_c, 1, 69, 80
1, 42815, Note_on_c, 1, 69, 0
1, 42816, Note_on_c, 0, 79, 80
1, 42816, Note_on_c, 1, 58, 80
1, 42836, Note_on_c, 0, 79, 0
1, 42839, Note_on_c, 1, 58, 0
1, 42840, Note_on_c, 1, 67, 80
1, 42863, Note_on_c, 1, 67, 0
1, 42864, Note_on_c, 0, 82, 80
1, 42864, Note_on_c, 1, 62, 80
1, 42884, Note_on_c, 0, 82, 0
1, 42887, Note_on_c, 1, 62, 0
1, 42888, Note_on_c, 1, 67, 80
1, 42911, Note_on_c, 1, 67, 0
1, 42912, Note_on_c, 0, 86, 80
1, 42912, Note_on_c, 1, 58, 80
1, 42932, Note_on_c, 0, 86, 0
1, 42935, Note_on_c, 1, 58, 0
1, 42936, Note_on_c, 1, 67, 80
1, 42959, Note_on_c, 1, 67, 0
1, 42960, Note_on_c, 0, 74, 80
1, 42960, Note_on_c, 1, 62, 80
1, 42983, Note_on_c, 1, 62, 0
1, 42984, Note_on_c, 1, 67, 80
1, 43007, Note_on_c, 1, 67, 0
1, 43008, Note_on_c, 0, 74, 0
1, 43008, Note_on_c, 0, 75, 80
1, 43008, Note_on_c, 1, 60, 80
1, 43031, Note_on_c, 1, 60, 0
1, 43032, Note_on_c, 1, 67, 80
1, 43053, Note_on_c, 0, 75, 0
1, 43055, Note_on_c, 1, 67, 0
1, 43056, Note_on_c, 0, 86, 80
1, 43056, Note_on_c, 1, 63, 80
1, 43079, Note_on_c, 1, 63, 0
1, 43080, Note_on_c, 1, 67, 80
1, 43103, Note_on_c, 1, 67, 0
1, 43104, Note_on_c, 0, 86, 0
1, 43104, Note_on_c, 0, 84, 80
1, 43104, Note_on_c, 1, 57, 80
1, 43127, Note_on_c, 1, 57, 0
1, 43128, Note_on_c, 1, 65, 80
1, 43149, Note_on_c, 0, 84, 0
1, 43151, Note_on_c, 1, 65, 0
1, 43152, Note_on_c, 0, 75, 80
1, 43152, Note_on_c, 1, 60, 80
1, 43175, Note_on_c, 1, 60, 0
1, 43176, Note_on_c, 1, 65, 80
1, 43199, Note_on_c, 1, 65, 0
1, 43200, Note_on_c, 0, 75, 0
1, 43200, Note_on_c, 0, 74, 80
1, 43200, Note_on_c, 1, 58, 80
1, 43223, Note_on_c, 1, 58, 0
1, 43224, Note_on_c, 1, 65, 80
1, 43245, Note_on_c, 0, 74, 0
1, 43247, Note_on_c, 1, 65, 0
1, 43248, Note_on_c, 0, 84, 80
1, 43248, Note_on_c, 1, 62, 80
1, 43271, Note_on_c, 1, 62, 0
1, 43272, Note_on_c, 1, 65, 80
1, 43295, Note_on_c, 1, 65, 0
1, 43296, Note_on_c, 0, 84, 0
1, 43296, Note_on_c, 0, 82, 80
1, 43296, Note_on_c, 1, 55, 80
1, 43319, Note_on_c, 1, 55, 0
1, 43320, Note_on_c, 1, 63, 80
1, 43341, Note_on_c, 0, 82, 0
1, 43343, Note_on_c, 1, 63, 0
1, 43344, Note_on_c, 0, 74, 80
1, 43344, Note_on_c, 1, 58, 80
1, 43367, Note_on_c, 1, 58, 0
1, 43368, Note_on_c, 1, 63, 80
1, 43391, Note_on_c, 1, 63, 0
1, 43392, Note_on_c, 0, 74, 0
1, 43392, Note_on_c, 0, 72, 80
1, 43392, Note_on_c, 1, 57, 80
1, 43415, Note_on_c, 1, 57, 0
1, 43416, Note_on_c, 1, 63, 80
1, 43437, Note_on_c, 0, 72, 0
1, 43439, Note_on_c, 1, 63, 0
1, 43440, Note_on_c, 0, 82, 80
1, 43440, Note_on_c, 1, 60, 80
1, 43463, Note_on_c, 1, 60, 0
1, 43464, Note_on_c, 1, 63, 80
1, 43487, Note_on_c, 1, 63, 0
1, 43488, Note_on_c, 0, 82, 0
1, 43488, Note_on_c, 0, 81, 80
1, 43488, Note_on_c, 1, 54, 80
1, 43511, Note_on_c, 1, 54, 0
1, 43512, Note_on_c, 1, 62, 80
1, 43533, Note_on_c, 0, 81, 0
1, 43535, Note_on_c, 1, 62, 0
1, 43536, Note_on_c, 0, 72, 80
1, 43536, Note_on_c, 1, 57, 80
1, 43559, Note_on_c, 1, 57, 0
1, 43560, Note_on_c, 1, 62, 80
1, 43583, Note_on_c, 1, 62, 0
1, 43584, Note_on_c, 0, 72, 0
1, 43584, Note_on_c, 0, 70, 80
1, 43584, Note_on_c, 1, 55, 80
1, 43607, Note_on_c, 1, 55, 0
1, 43608, Note_on_c, 1, 62, 80
1, 43629, Note_on_c, 0, 70, 0
1, 43631, Note_on_c, 1, 62, 0
1, 43632, Note_on_c, 0, 79, 80
1, 43632, Note_on_c, 1, 58, 80
1, 43655, Note_on_c, 1, 58, 0
1, 43656, Note_on_c, 1, 62, 80
1, 43677, Note_on_c, 0, 79, 0
1, 43679, Note_on_c, 1, 62, 0
1, 43680, Note_on_c, 0, 69, 80
1, 43680, Note_on_c, 1, 53, 80
1, 43703, Note_on_c, 1, 53, 0
1, 43704, Note_on_c, 1, 62, 80
1, 43725, Note_on_c, 0, 69, 0
1, 43727, Note_on_c, 1, 62, 0
1, 43728, Note_on_c, 0, 79, 80
1, 43728, Note_on_c, 1, 57, 80
1, 43751, Note_on_c, 1, 57, 0
1, 43752, Note_on_c, 1, 62, 80
1, 43773, Note_on_c, 0, 79, 0
1, 43775, Note_on_c, 1, 62, 0
1, 43776, Note_on_c, 0, 67, 80
1, 43776, Note_on_c, 1, 51, 80
1, 43799, Note_on_c, 1, 51, 0
1, 43800, Note_on_c, 1, 61, 80
1, 43821, Note_on_c, 0, 67, 0
1, 43823, Note_on_c, 1, 61, 0
1, 43824, Note_on_c, 0, 82, 80
1, 43824, Note_on_c, 1, 55, 80
1, 43847, Note_on_c, 1, 55, 0
1, 43848, Note_on_c, 1, 61, 80
1, 43869, Note_on_c, 0, 82, 0
1, 43871, Note_on_c, 1, 61, 0
1, 43872, Note_on_c, 0, 82, 80
1, 43872, Note_on_c, 1, 51, 80
1, 43884, Note_on_c, 0, 82, 0
1, 43884, Note_on_c, 0, 81, 80
1, 43895, Note_on_c, 1, 51, 0
1, 43896, Note_on_c, 0, 81, 0
1, 43896, Note_on_c, 0, 82, 80
1, 43896, Note_on_c, 1, 61, 80
1, 43908, Note_on_c, 0, 82, 0
1, 43908, Note_on_c, 0, 81, 80
1, 43919, Note_on_c, 1, 61, 0
1, 43920, Note_on_c, 0, 81, 0
1, 43920, Note_on_c, 0, 79, 80
1, 43920, Note_on_c, 1, 55, 80
1, 43943, Note_on_c, 1, 55, 0
1, 43944, Note_on_c, 1, 61, 80
1, 43965, Note_on_c, 0, 79, 0
1, 43967, Note_on_c, 1, 61, 0
1, 43968, Note_on_c, 0, 78, 80
1, 43968, Note_on_c, 1, 50, 80
1, 43991, Note_on_c, 1, 50, 0
1, 43992, Note_on_c, 1, 60, 80
1, 44013, Note_on_c, 0, 78, 0
1, 44015, Note_on_c, 1, 60, 0
1, 44016, Note_on_c, 0, 81, 80
1, 44016, Note_on_c, 1, 54, 80
1, 44039, Note_on_c, 1, 54, 0
1, 44040, Note_on_c, 1, 60, 80
1, 44061, Note_on_c, 0, 81, 0
1, 44063, Note_on_c, 1, 60, 0
1, 44064, Note_on_c, 0, 84, 80
1, 44064, Note_on_c, 1, 50, 80
1, 44087, Note_on_c, 0, 84, 0
1, 44087, Note_on_c, 1, 50, 0
1, 44088, Note_on_c, 0, 81, 80
1, 44088, Note_on_c, 1, 60, 80
1, 44111, Note_on_c, 0, 81, 0
1, 44111, Note_on_c, 1, 60, 0
1, 44112, Note_on_c, 0, 78, 80
1, 44112, Note_on_c, 1, 54, 80
1, 44135, Note_on_c, 0, 78, 0
1, 44135, Note_on_c, 1, 54, 0
1, 44136, Note_on_c, 0, 74, 80
1, 44136, Note_on_c, 1, 60, 80
1, 44159, Note_on_c, 0, 74, 0
1, 44159, Note_on_c, 1, 60, 0
1, 44160, Note_on_c, 0, 72, 80
1, 44160, Note_on_c, 0, 69, 80
1, 44160, Note_on_c, 1, 60, 80
1, 44160, Note_on_c, 1, 54, 80
1, 44160, Note_on_c, 1, 50, 80
1, 44397, Note_on_c, 0, 72, 0
1, 44397, Note_on_c, 0, 69, 0
1, 44397, Note_on_c, 1, 60, 0
1, 44397, Note_on_c, 1, 54, 0
1, 44397, Note_on_c, 1, 50, 0
1, 44400, Note_on_c, 0, 71, 80
1, 44423, Note_on_c, 0, 71, 0
1, 44424, Note_on_c, 0, 72, 80
1, 44447, Note_on_c, 0, 72, 0
1, 44448, Note_on_c, 0, 74, 80
1, 44471, Note_on_c, 0, 74, 0
1, 44472, Note_on_c, 0, 72, 78
1, 44495, Note_on_c, 0, 72, 0
1, 44496, Note_on_c, 0, 71, 77
1, 44519, Note_on_c, 0, 71, 0
1, 44520, Note_on_c, 0, 69, 76
1, 44543, Note_on_c, 0, 69, 0
1, 44544, Note_on_c, 0, 67, 75
1, 44544, Note_on_c, 1, 59, 80
1, 44544, Note_on_c, 1, 55, 80
1, 44568, Note_on_c, 0, 67, 0
1, 44568, Note_on_c, 0, 66, 75
1, 44591, Note_on_c, 0, 66, 0
1, 44592, Note_on_c, 0, 69, 75
1, 44616, Note_on_c, 0, 69, 0
1, 44616, Note_on_c, 0, 67, 75
1, 44633, Note_on_c, 1, 59, 0
1, 44633, Note_on_c, 1, 55, 0
1, 44639, Note_on_c, 0, 67, 0
1, 44640, Note_on_c, 0, 71, 75
1, 44664, Note_on_c, 0, 71, 0
1, 44664, Note_on_c, 0, 69, 75
1, 44687, Note_on_c, 0, 69, 0
1, 44688, Note_on_c, 0, 72, 75
1, 44712, Note_on_c, 0, 72, 0
1, 44712, Note_on_c, 0, 71, 75
1, 44735, Note_on_c, 0, 71, 0
1, 44736, Note_on_c, 0, 74, 75
1, 44781, Note_on_c, 0, 74, 0
1, 44784, Note_on_c, 0, 74, 75
1, 44784, Note_on_c, 1, 71, 80
1, 44784, Note_on_c, 1, 67, 80
1, 44829, Note_on_c, 0, 74, 0
1, 44829, Note_on_c, 1, 71, 0
1, 44829, Note_on_c, 1, 67, 0
1, 44832, Note_on_c, 0, 74, 75
1, 44832, Note_on_c, 1, 69, 80
1, 44832, Note_on_c, 1, 66, 80
1, 44877, Note_on_c, 0, 74, 0
1, 44877, Note_on_c, 1, 69, 0
1, 44877, Note_on_c, 1, 66, 0
1, 44880, Note_on_c, 0, 74, 75
1, 44880, Note_on_c, 1, 72, 80
1, 44880, Note_on_c, 1, 69, 80
1, 44925, Note_on_c, 0, 74, 0
1, 44925, Note_on_c, 1, 72, 0
1, 44925, Note_on_c, 1, 69, 0
1, 44928, Note_on_c, 0, 74, 75
1, 44928, Note_on_c, 1, 71, 80
1, 44928, Note_on_c, 1, 67, 80
1, 44973, Note_on_c, 0, 74, 0
1, 44976, Note_on_c, 0, 76, 77
1, 44999, Note_on_c, 0, 76, 0
1, 45000, Note_on_c, 0, 78, 78
1, 45017, Note_on_c, 1, 71, 0
1, 45017, Note_on_c, 1, 67, 0
1, 45023, Note_on_c, 0, 78, 0
1, 45024, Note_on_c, 0, 81, 80
1, 45047, Note_on_c, 0, 81, 0
1, 45048, Note_on_c, 0, 79, 78
1, 45071, Note_on_c, 0, 79, 0
1, 45072, Note_on_c, 0, 78, 77
1, 45095, Note_on_c, 0, 78, 0
1, 45096, Note_on_c, 0, 76, 76
1, 45119, Note_on_c, 0, 76, 0
1, 45120, Note_on_c, 0, 74, 75
1, 45165, Note_on_c, 0, 74, 0
1, 45168, Note_on_c, 0, 74, 75
1, 45168, Note_on_c, 1, 71, 80
1, 45168, Note_on_c, 1, 67, 80
1, 45213, Note_on_c, 0, 74, 0
1, 45213, Note_on_c, 1, 71, 0
1, 45213, Note_on_c, 1, 67, 0
1, 45216, Note_on_c, 0, 74, 75
1, 45216, Note_on_c, 1, 69, 80
1, 45216, Note_on_c, 1, 66, 80
1, 45261, Note_on_c, 0, 74, 0
1, 45261, Note_on_c, 1, 69, 0
1, 45261, Note_on_c, 1, 66, 0
1, 45264, Note_on_c, 0, 74, 75
1, 45264, Note_on_c, 1, 72, 80
1, 45264, Note_on_c, 1, 69, 80
1, 45309, Note_on_c, 0, 74, 0
1, 45309, Note_on_c, 1, 72, 0
1, 45309, Note_on_c, 1, 69, 0
1, 45312, Note_on_c, 0, 74, 75
1, 45312, Note_on_c, 1, 71, 80
1, 45312, Note_on_c, 1, 67, 80
1, 45357, Note_on_c, 0, 74, 0
1, 45360, Note_on_c, 0, 76, 75
1, 45383, Note_on_c, 0, 76, 0
1, 45384, Note_on_c, 0, 78, 75
1, 45401, Note_on_c, 1, 71, 0
1, 45401, Note_on_c, 1, 67, 0
1, 45407, Note_on_c, 0, 78, 0
1, 45408, Note_on_c, 0, 81, 75
1, 45431, Note_on_c, 0, 81, 0
1, 45432, Note_on_c, 0, 79, 75
1, 45455, Note_on_c, 0, 79, 0
1, 45456, Note_on_c, 0, 78, 75
1, 45456, Note_on_c, 1, 72, 80
1, 45456, Note_on_c, 1, 67, 80
1, 45479, Note_on_c, 0, 78, 0
1, 45480, Note_on_c, 0, 76, 75
1, 45501, Note_on_c, 1, 72, 0
1, 45501, Note_on_c, 1, 67, 0
1, 45503, Note_on_c, 0, 76, 0
1, 45504, Note_on_c, 0, 74, 75
1, 45504, Note_on_c, 1, 71, 80
1, 45504, Note_on_c, 1, 67, 80
1, 45549, Note_on_c, 0, 74, 0
1, 45552, Note_on_c, 0, 79, 75
1, 45575, Note_on_c, 0, 79, 0
1, 45576, Note_on_c, 0, 83, 75
1, 45593, Note_on_c, 1, 71, 0
1, 45593, Note_on_c, 1, 67, 0
1, 45599, Note_on_c, 0, 83, 0
1, 45600, Note_on_c, 0, 81, 75
1, 45623, Note_on_c, 0, 81, 0
1, 45624, Note_on_c, 0, 79, 75
1, 45647, Note_on_c, 0, 79, 0
1, 45648, Note_on_c, 0, 78, 75
1, 45671, Note_on_c, 0, 78, 0
1, 45672, Note_on_c, 0, 76, 75
1, 45695, Note_on_c, 0, 76, 0
1, 45696, Note_on_c, 0, 74, 75
1, 45744, Note_on_c, 1, 71, 80
1, 45785, Note_on_c, 0, 74, 0
1, 45789, Note_on_c, 1, 71, 0
1, 45792, Note_on_c, 0, 72, 75
1, 45792, Note_on_c, 1, 69, 80
1, 45805, Note_on_c, 0, 72, 0
1, 45806, Note_on_c, 0, 74, 75
1, 45819, Note_on_c, 0, 74, 0
1, 45820, Note_on_c, 0, 72, 75
1, 45833, Note_on_c, 0, 72, 0
1, 45834, Note_on_c, 0, 74, 75
1, 45837, Note_on_c, 1, 69, 0
1, 45840, Note_on_c, 1, 62, 80
1, 45847, Note_on_c, 0, 74, 0
1, 45848, Note_on_c, 0, 72, 75
1, 45861, Note_on_c, 0, 72, 0
1, 45862, Note_on_c, 0, 71, 75
1, 45874, Note_on_c, 0, 71, 0
1, 45875, Note_on_c, 0, 72, 75
1, 45885, Note_on_c, 1, 62, 0
1, 45887, Note_on_c, 0, 72, 0
1, 45888, Note_on_c, 0, 71, 75
1, 45888, Note_on_c, 1, 67, 80
1, 45933, Note_on_c, 1, 67, 0
1, 45936, Note_on_c, 1, 62, 80
1, 45977, Note_on_c, 0, 71, 0
1, 45981, Note_on_c, 1, 62, 0
1, 45984, Note_on_c, 1, 55, 80
1, 46029, Note_on_c, 1, 55, 0
1, 46032, Note_on_c, 0, 67, 80
1, 46032, Note_on_c, 1, 55, 80
1, 46032, Note_on_c, 1, 43, 80
1, 46077, Note_on_c, 0, 67, 0
1, 46077, Note_on_c, 1, 55, 0
1, 46077, Note_on_c, 1, 43, 0
1, 46080, Note_on_c, 0, 66, 80
1, 46080, Note_on_c, 1, 54, 80
1, 46080, Note_on_c, 1, 42, 80
1, 46092, Note_on_c, 0, 66, 0
1, 46092, Note_on_c, 0, 67, 80
1, 46104, Note_on_c, 0, 67, 0
1, 46104, Note_on_c, 0, 66, 80
1, 46125, Note_on_c, 0, 66, 0
1, 46125, Note_on_c, 1, 54, 0
1, 46125, Note_on_c, 1, 42, 0
1, 46128, Note_on_c, 0, 64, 80
1, 46128, Note_on_c, 1, 52, 80
1, 46128, Note_on_c, 1, 40, 80
1, 46173, Note_on_c, 0, 64, 0
1, 46173, Note_on_c, 1, 52, 0
1, 46173, Note_on_c, 1, 40, 0
1, 46176, Note_on_c, 0, 62, 80
1, 46176, Note_on_c, 1, 50, 80
1, 46176, Note_on_c, 1, 38, 80
1, 46188, Note_on_c, 0, 62, 0
1, 46188, Note_on_c, 0, 64, 80
1, 46200, Note_on_c, 0, 64, 0
1, 46200, Note_on_c, 0, 62, 80
1, 46221, Note_on_c, 0, 62, 0
1, 46221, Note_on_c, 1, 50, 0
1, 46221, Note_on_c, 1, 38, 0
1, 46224, Note_on_c, 0, 60, 80
1, 46224, Note_on_c, 1, 48, 80
1, 46224, Note_on_c, 1, 36, 80
1, 46269, Note_on_c, 0, 60, 0
1, 46269, Note_on_c, 1, 48, 0
1, 46269, Note_on_c, 1, 36, 0
1, 46272, Note_on_c, 0, 59, 80
1, 46272, Note_on_c, 1, 47, 80
1, 46272, Note_on_c, 1, 35, 80
1, 46361, Note_on_c, 0, 59, 0
1, 46361, Note_on_c, 1, 47, 0
1, 46361, Note_on_c, 1, 35, 0
1, 46416, Note_on_c, 0, 64, 80
1, 46416, Note_on_c, 1, 52, 80
1, 46431, Note_on_c, 0, 64, 0
1, 46432, Note_on_c, 0, 66, 80
1, 46447, Note_on_c, 0, 66, 0
1, 46448, Note_on_c, 0, 64, 80
1, 46461, Note_on_c, 1, 52, 0
1, 46463, Note_on_c, 0, 64, 0
1, 46464, Note_on_c, 0, 62, 80
1, 46464, Note_on_c, 1, 50, 80
1, 46479, Note_on_c, 0, 62, 0
1, 46480, Note_on_c, 0, 64, 80
1, 46495, Note_on_c, 0, 64, 0
1, 46496, Note_on_c, 0, 62, 80
1, 46509, Note_on_c, 1, 50, 0
1, 46511, Note_on_c, 0, 62, 0
1, 46512, Note_on_c, 0, 60, 80
1, 46512, Note_on_c, 1, 48, 80
1, 46527, Note_on_c, 0, 60, 0
1, 46528, Note_on_c, 0, 62, 80
1, 46543, Note_on_c, 0, 62, 0
1, 46544, Note_on_c, 0, 60, 80
1, 46557, Note_on_c, 1, 48, 0
1, 46559, Note_on_c, 0, 60, 0
1, 46560, Note_on_c, 0, 59, 80
1, 46560, Note_on_c, 1, 47, 80
1, 46575, Note_on_c, 0, 59, 0
1, 46576, Note_on_c, 0, 60, 80
1, 46591, Note_on_c, 0, 60, 0
1, 46592, Note_on_c, 0, 59, 80
1, 46605, Note_on_c, 1, 47, 0
1, 46607, Note_on_c, 0, 59, 0
1, 46608, Note_on_c, 0, 57, 80
1, 46608, Note_on_c, 1, 45, 80
1, 46623, Note_on_c, 0, 57, 0
1, 46624, Note_on_c, 0, 59, 80
1, 46639, Note_on_c, 0, 59, 0
1, 46640, Note_on_c, 0, 57, 80
1, 46653, Note_on_c, 1, 45, 0
1, 46655, Note_on_c, 0, 57, 0
1, 46656, Note_on_c, 0, 56, 80
1, 46656, Note_on_c, 1, 44, 80
1, 46676, Note_on_c, 0, 56, 0
1, 46679, Note_on_c, 1, 44, 0
1, 46680, Note_on_c, 1, 52, 80
1, 46703, Note_on_c, 1, 52, 0
1, 46704, Note_on_c, 0, 59, 80
1, 46704, Note_on_c, 1, 47, 80
1, 46724, Note_on_c, 0, 59, 0
1, 46727, Note_on_c, 1, 47, 0
1, 46728, Note_on_c, 1, 52, 80
1, 46751, Note_on_c, 1, 52, 0
1, 46752, Note_on_c, 0, 62, 80
1, 46752, Note_on_c, 1, 44, 80
1, 46772, Note_on_c, 0, 62, 0
1, 46775, Note_on_c, 1, 44, 0
1, 46776, Note_on_c, 1, 52, 80
1, 46799, Note_on_c, 1, 52, 0
1, 46800, Note_on_c, 0, 68, 80
1, 46800, Note_on_c, 1, 47, 80
1, 46820, Note_on_c, 0, 68, 0
1, 46823, Note_on_c, 1, 47, 0
1, 46824, Note_on_c, 1, 52, 80
1, 46847, Note_on_c, 1, 52, 0
1, 46848, Note_on_c, 0, 71, 80
1, 46848, Note_on_c, 1, 44, 80
1, 46868, Note_on_c, 0, 71, 0
1, 46871, Note_on_c, 1, 44, 0
1, 46872, Note_on_c, 1, 52, 80
1, 46895, Note_on_c, 1, 52, 0
1, 46896, Note_on_c, 0, 74, 80
1, 46896, Note_on_c, 1, 47, 80
1, 46916, Note_on_c, 0, 74, 0
1, 46919, Note_on_c, 1, 47, 0
1, 46920, Note_on_c, 1, 52, 80
1, 46943, Note_on_c, 1, 52, 0
1, 46944, Note_on_c, 0, 83, 80
1, 46944, Note_on_c, 1, 44, 80
1, 46967, Note_on_c, 1, 44, 0
1, 46968, Note_on_c, 1, 52, 80
1, 46991, Note_on_c, 1, 52, 0
1, 46992, Note_on_c, 1, 47, 80
1, 47011, Note_on_c, 0, 83, 0
1, 47015, Note_on_c, 1, 47, 0
1, 47016, Note_on_c, 0, 74, 80
1, 47016, Note_on_c, 1, 52, 80
1, 47039, Note_on_c, 0, 74, 0
1, 47039, Note_on_c, 1, 52, 0
1, 47040, Note_on_c, 0, 74, 80
1, 47040, Note_on_c, 1, 45, 80
1, 47063, Note_on_c, 0, 74, 0
1, 47063, Note_on_c, 1, 45, 0
1, 47064, Note_on_c, 0, 72, 80
1, 47064, Note_on_c, 1, 52, 80
1, 47087, Note_on_c, 0, 72, 0
1, 47087, Note_on_c, 1, 52, 0
1, 47088, Note_on_c, 0, 71, 80
1, 47088, Note_on_c, 1, 48, 80
1, 47111, Note_on_c, 0, 71, 0
1, 47111, Note_on_c, 1, 48, 0
1, 47112, Note_on_c, 0, 69, 80
1, 47112, Note_on_c, 1, 52, 80
1, 47135, Note_on_c, 0, 69, 0
1, 47135, Note_on_c, 1, 52, 0
1, 47136, Note_on_c, 0, 69, 80
1, 47136, Note_on_c, 1, 45, 80
1, 47159, Note_on_c, 1, 45, 0
1, 47160, Note_on_c, 1, 52, 80
1, 47181, Note_on_c, 0, 69, 0
1, 47183, Note_on_c, 1, 52, 0
1, 47184, Note_on_c, 0, 69, 80
1, 47184, Note_on_c, 1, 48, 80
1, 47207, Note_on_c, 1, 48, 0
1, 47208, Note_on_c, 1, 52, 80
1, 47229, Note_on_c, 0, 69, 0
1, 47231, Note_on_c, 1, 52, 0
1, 47232, Note_on_c, 0, 81, 80
1, 47232, Note_on_c, 0, 72, 80
1, 47232, Note_on_c, 1, 42, 80
1, 47255, Note_on_c, 1, 42, 0
1, 47256, Note_on_c, 1, 50, 80
1, 47279, Note_on_c, 1, 50, 0
1, 47280, Note_on_c, 1, 45, 80
1, 47303, Note_on_c, 1, 45, 0
1, 47304, Note_on_c, 1, 50, 80
1, 47327, Note_on_c, 1, 50, 0
1, 47328, Note_on_c, 1, 42, 80
1, 47351, Note_on_c, 1, 42, 0
1, 47352, Note_on_c, 1, 50, 80
1, 47365, Note_on_c, 0, 81, 0
1, 47365, Note_on_c, 0, 72, 0
1, 47375, Note_on_c, 1, 50, 0
1, 47376, Note_on_c, 0, 72, 80
1, 47376, Note_on_c, 1, 45, 80
1, 47399, Note_on_c, 1, 45, 0
1, 47400, Note_on_c, 1, 50, 80
1, 47421, Note_on_c, 0, 72, 0
1, 47423, Note_on_c, 1, 50, 0
1, 47424, Note_on_c, 0, 72, 80
1, 47424, Note_on_c, 1, 43, 80
1, 47447, Note_on_c, 0, 72, 0
1, 47447, Note_on_c, 1, 43, 0
1, 47448, Note_on_c, 0, 71, 80
1, 47448, Note_on_c, 1, 50, 80
1, 47471, Note_on_c, 0, 71, 0
1, 47471, Note_on_c, 1, 50, 0
1, 47472, Note_on_c, 0, 69, 80
1, 47472, Note_on_c, 1, 47, 80
1, 47495, Note_on_c, 0, 69, 0
1, 47495, Note_on_c, 1, 47, 0
1, 47496, Note_on_c, 0, 67, 80
1, 47496, Note_on_c, 1, 50, 80
1, 47519, Note_on_c, 0, 67, 0
1, 47519, Note_on_c, 1, 50, 0
1, 47520, Note_on_c, 0, 67, 80
1, 47520, Note_on_c, 1, 43, 80
1, 47540, Note_on_c, 0, 67, 0
1, 47543, Note_on_c, 1, 43, 0
1, 47544, Note_on_c, 1, 50, 80
1, 47567, Note_on_c, 1, 50, 0
1, 47568, Note_on_c, 0, 74, 80
1, 47568, Note_on_c, 1, 47, 80
1, 47588, Note_on_c, 0, 74, 0
1, 47591, Note_on_c, 1, 47, 0
1, 47592, Note_on_c, 1, 50, 80
1, 47615, Note_on_c, 1, 50, 0
1, 47616, Note_on_c, 0, 74, 80
1, 47616, Note_on_c, 1, 42, 80
1, 47639, Note_on_c, 0, 74, 0
1, 47639, Note_on_c, 1, 42, 0
1, 47640, Note_on_c, 0, 72, 80
1, 47640, Note_on_c, 1, 50, 80
1, 47663, Note_on_c, 0, 72, 0
1, 47663, Note_on_c, 1, 50, 0
1, 47664, Note_on_c, 0, 71, 80
1, 47664, Note_on_c, 1, 45, 80
1, 47687, Note_on_c, 0, 71, 0
1, 47687, Note_on_c, 1, 45, 0
1, 47688, Note_on_c, 0, 69, 80
1, 47688, Note_on_c, 1, 50, 80
1, 47711, Note_on_c, 0, 69, 0
1, 47711, Note_on_c, 1, 50, 0
1, 47712, Note_on_c, 0, 69, 80
1, 47712, Note_on_c, 1, 42, 80
1, 47732, Note_on_c, 0, 69, 0
1, 47735, Note_on_c, 1, 42, 0
1, 47736, Note_on_c, 1, 50, 80
1, 47759, Note_on_c, 1, 50, 0
1, 47760, Note_on_c, 0, 72, 80
1, 47760, Note_on_c, 1, 45, 80
1, 47780, Note_on_c, 0, 72, 0
1, 47783, Note_on_c, 1, 45, 0
1, 47784, Note_on_c, 1, 50, 80
1, 47807, Note_on_c, 1, 50, 0
1, 47808, Note_on_c, 0, 72, 80
1, 47808, Note_on_c, 1, 43, 80
1, 47831, Note_on_c, 0, 72, 0
1, 47831, Note_on_c, 1, 43, 0
1, 47832, Note_on_c, 0, 71, 80
1, 47832, Note_on_c, 1, 50, 80
1, 47855, Note_on_c, 0, 71, 0
1, 47855, Note_on_c, 1, 50, 0
1, 47856, Note_on_c, 0, 69, 80
1, 47856, Note_on_c, 1, 47, 80
1, 47879, Note_on_c, 0, 69, 0
1, 47879, Note_on_c, 1, 47, 0
1, 47880, Note_on_c, 0, 67, 80
1, 47880, Note_on_c, 1, 50, 80
1, 47903, Note_on_c, 0, 67, 0
1, 47903, Note_on_c, 1, 50, 0
1, 47904, Note_on_c, 0, 67, 80
1, 47904, Note_on_c, 1, 47, 80
1, 47924, Note_on_c, 0, 67, 0
1, 47927, Note_on_c, 1, 47, 0
1, 47928, Note_on_c, 1, 55, 80
1, 47951, Note_on_c, 1, 55, 0
1, 47952, Note_on_c, 0, 79, 80
1, 47952, Note_on_c, 1, 50, 80
1, 47975, Note_on_c, 1, 50, 0
1, 47976, Note_on_c, 1, 55, 80
1, 47997, Note_on_c, 0, 79, 0
1, 47999, Note_on_c, 1, 55, 0
1, 48000, Note_on_c, 0, 78, 80
1, 48000, Note_on_c, 1, 48, 80
1, 48023, Note_on_c, 0, 78, 0
1, 48024, Note_on_c, 0, 76, 80
1, 48047, Note_on_c, 0, 76, 0
1, 48048, Note_on_c, 0, 74, 80
1, 48071, Note_on_c, 0, 74, 0
1, 48072, Note_on_c, 0, 72, 80
1, 48089, Note_on_c, 1, 48, 0
1, 48095, Note_on_c, 0, 72, 0
1, 48096, Note_on_c, 0, 71, 80
1, 48119, Note_on_c, 0, 71, 0
1, 48120, Note_on_c, 0, 69, 80
1, 48143, Note_on_c, 0, 69, 0
1, 48144, Note_on_c, 0, 72, 80
1, 48167, Note_on_c, 0, 72, 0
1, 48168, Note_on_c, 0, 69, 80
1, 48191, Note_on_c, 0, 69, 0
1, 48192, Note_on_c, 0, 67, 80
1, 48192, Note_on_c, 1, 50, 80
1, 48237, Note_on_c, 1, 50, 0
1, 48240, Note_on_c, 1, 45, 80
1, 48285, Note_on_c, 1, 45, 0
1, 48288, Note_on_c, 0, 67, 0
1, 48288, Note_on_c, 0, 66, 80
1, 48288, Note_on_c, 1, 38, 80
1, 48333, Note_on_c, 0, 66, 0
1, 48333, Note_on_c, 1, 38, 0
1, 48336, Note_on_c, 0, 62, 75
1, 48381, Note_on_c, 0, 62, 0
1, 48384, Note_on_c, 0, 67, 75
1, 48384, Note_on_c, 1, 55, 75
1, 48407, Note_on_c, 1, 55, 0
1, 48408, Note_on_c, 1, 62, 75
1, 48431, Note_on_c, 1, 62, 0
1, 48432, Note_on_c, 1, 59, 75
1, 48455, Note_on_c, 1, 59, 0
1, 48456, Note_on_c, 1, 62, 75
1, 48473, Note_on_c, 0, 67, 0
1, 48479, Note_on_c, 1, 62, 0
1, 48480, Note_on_c, 0, 72, 75
1, 48480, Note_on_c, 1, 55, 75
1, 48503, Note_on_c, 0, 72, 0
1, 48503, Note_on_c, 1, 55, 0
1, 48504, Note_on_c, 0, 71, 75
1, 48504, Note_on_c, 1, 62, 75
1, 48527, Note_on_c, 0, 71, 0
1, 48527, Note_on_c, 1, 62, 0
1, 48528, Note_on_c, 0, 69, 75
1, 48528, Note_on_c, 1, 59, 75
1, 48551, Note_on_c, 0, 69, 0
1, 48551, Note_on_c, 1, 59, 0
1, 48552, Note_on_c, 0, 67, 75
1, 48552, Note_on_c, 1, 62, 75
1, 48575, Note_on_c, 0, 67, 0
1, 48575, Note_on_c, 1, 62, 0
1, 48576, Note_on_c, 0, 67, 75
1, 48576, Note_on_c, 1, 57, 75
1, 48599, Note_on_c, 1, 57, 0
1, 48600, Note_on_c, 1, 62, 75
1, 48621, Note_on_c, 0, 67, 0
1, 48623, Note_on_c, 1, 62, 0
1, 48624, Note_on_c, 0, 66, 75
1, 48624, Note_on_c, 1, 60, 75
1, 48647, Note_on_c, 1, 60, 0
1, 48648, Note_on_c, 1, 62, 75
1, 48669, Note_on_c, 0, 66, 0
1, 48671, Note_on_c, 1, 62, 0
1, 48672, Note_on_c, 1, 57, 75
1, 48695, Note_on_c, 1, 57, 0
1, 48696, Note_on_c, 1, 62, 75
1, 48719, Note_on_c, 1, 62, 0
1, 48720, Note_on_c, 0, 62, 75
1, 48720, Note_on_c, 1, 60, 75
1, 48743, Note_on_c, 1, 60, 0
1, 48744, Note_on_c, 1, 62, 75
1, 48765, Note_on_c, 0, 62, 0
1, 48767, Note_on_c, 1, 62, 0
1, 48768, Note_on_c, 0, 69, 75
1, 48768, Note_on_c, 1, 54, 75
1, 48791, Note_on_c, 1, 54, 0
1, 48792, Note_on_c, 1, 62, 75
1, 48815, Note_on_c, 1, 62, 0
1, 48816, Note_on_c, 1, 57, 75
1, 48839, Note_on_c, 1, 57, 0
1, 48840, Note_on_c, 1, 62, 75
1, 48857, Note_on_c, 0, 69, 0
1, 48863, Note_on_c, 1, 62, 0
1, 48864, Note_on_c, 0, 74, 75
1, 48864, Note_on_c, 1, 54, 75
1, 48887, Note_on_c, 0, 74, 0
1, 48887, Note_on_c, 1, 54, 0
1, 48888, Note_on_c, 0, 72, 75
1, 48888, Note_on_c, 1, 62, 75
1, 48911, Note_on_c, 0, 72, 0
1, 48911, Note_on_c, 1, 62, 0
1, 48912, Note_on_c, 0, 71, 75
1, 48912, Note_on_c, 1, 57, 75
1, 48935, Note_on_c, 0, 71, 0
1, 48935, Note_on_c, 1, 57, 0
1, 48936, Note_on_c, 0, 69, 75
1, 48936, Note_on_c, 1, 62, 75
1, 48959, Note_on_c, 0, 69, 0
1, 48959, Note_on_c, 1, 62, 0
1, 48960, Note_on_c, 0, 69, 75
1, 48960, Note_on_c, 1, 55, 75
1, 48983, Note_on_c, 1, 55, 0
1, 48984, Note_on_c, 1, 62, 75
1, 49005, Note_on_c, 0, 69, 0
1, 49007, Note_on_c, 1, 62, 0
1, 49008, Note_on_c, 0, 71, 75
1, 49008, Note_on_c, 1, 59, 75
1, 49031, Note_on_c, 1, 59, 0
1, 49032, Note_on_c, 1, 62, 75
1, 49053, Note_on_c, 0, 71, 0
1, 49055, Note_on_c, 1, 62, 0
1, 49056, Note_on_c, 1, 55, 75
1, 49079, Note_on_c, 1, 55, 0
1, 49080, Note_on_c, 1, 62, 75
1, 49103, Note_on_c, 1, 62, 0
1, 49104, Note_on_c, 0, 74, 75
1, 49104, Note_on_c, 1, 59, 75
1, 49127, Note_on_c, 1, 59, 0
1, 49128, Note_on_c, 1, 62, 75
1, 49149, Note_on_c, 0, 74, 0
1, 49151, Note_on_c, 1, 62, 0
1, 49152, Note_on_c, 0, 79, 75
1, 49152, Note_on_c, 1, 55, 75
1, 49175, Note_on_c, 1, 55, 0
1, 49176, Note_on_c, 1, 62, 75
1, 49199, Note_on_c, 1, 62, 0
1, 49200, Note_on_c, 1, 59, 75
1, 49223, Note_on_c, 1, 59, 0
1, 49224, Note_on_c, 1, 62, 75
1, 49241, Note_on_c, 0, 79, 0
1, 49247, Note_on_c, 1, 62, 0
1, 49248, Note_on_c, 0, 84, 75
1, 49248, Note_on_c, 1, 55, 75
1, 49271, Note_on_c, 0, 84, 0
1, 49271, Note_on_c, 1, 55, 0
1, 49272, Note_on_c, 0, 83, 75
1, 49272, Note_on_c, 1, 62, 75
1, 49295, Note_on_c, 0, 83, 0
1, 49295, Note_on_c, 1, 62, 0
1, 49296, Note_on_c, 0, 81, 75
1, 49296, Note_on_c, 1, 59, 75
1, 49319, Note_on_c, 0, 81, 0
1, 49319, Note_on_c, 1, 59, 0
1, 49320, Note_on_c, 0, 79, 75
1, 49320, Note_on_c, 1, 62, 75
1, 49343, Note_on_c, 0, 79, 0
1, 49343, Note_on_c, 1, 62, 0
1, 49344, Note_on_c, 0, 79, 75
1, 49344, Note_on_c, 1, 57, 75
1, 49367, Note_on_c, 1, 57, 0
1, 49368, Note_on_c, 1, 62, 75
1, 49389, Note_on_c, 0, 79, 0
1, 49391, Note_on_c, 1, 62, 0
1, 49392, Note_on_c, 0, 78, 75
1, 49392, Note_on_c, 1, 60, 75
1, 49415, Note_on_c, 1, 60, 0
1, 49416, Note_on_c, 1, 62, 75
1, 49437, Note_on_c, 0, 78, 0
1, 49439, Note_on_c, 1, 62, 0
1, 49440, Note_on_c, 1, 57, 75
1, 49463, Note_on_c, 1, 57, 0
1, 49464, Note_on_c, 1, 62, 75
1, 49487, Note_on_c, 1, 62, 0
1, 49488, Note_on_c, 0, 74, 75
1, 49488, Note_on_c, 1, 60, 75
1, 49511, Note_on_c, 1, 60, 0
1, 49512, Note_on_c, 1, 62, 75
1, 49533, Note_on_c, 0, 74, 0
1, 49535, Note_on_c, 1, 62, 0
1, 49536, Note_on_c, 0, 81, 75
1, 49536, Note_on_c, 1, 54, 75
1, 49559, Note_on_c, 1, 54, 0
1, 49560, Note_on_c, 1, 62, 75
1, 49583, Note_on_c, 1, 62, 0
1, 49584, Note_on_c, 1, 57, 75
1, 49607, Note_on_c, 1, 57, 0
1, 49608, Note_on_c, 1, 62, 75
1, 49625, Note_on_c, 0, 81, 0
1, 49631, Note_on_c, 1, 62, 0
1, 49632, Note_on_c, 0, 86, 75
1, 49632, Note_on_c, 1, 54, 75
1, 49655, Note_on_c, 0, 86, 0
1, 49655, Note_on_c, 1, 54, 0
1, 49656, Note_on_c, 0, 84, 75
1, 49656, Note_on_c, 1, 62, 75
1, 49679, Note_on_c, 0, 84, 0
1, 49679, Note_on_c, 1, 62, 0
1, 49680, Note_on_c, 0, 83, 75
1, 49680, Note_on_c, 1, 57, 75
1, 49703, Note_on_c, 0, 83, 0
1, 49703, Note_on_c, 1, 57, 0
1, 49704, Note_on_c, 0, 81, 75
1, 49704, Note_on_c, 1, 62, 75
1, 49727, Note_on_c, 0, 81, 0
1, 49727, Note_on_c, 1, 62, 0
1, 49728, Note_on_c, 0, 81, 75
1, 49728, Note_on_c, 1, 55, 75
1, 49751, Note_on_c, 1, 55, 0
1, 49752, Note_on_c, 1, 62, 75
1, 49773, Note_on_c, 0, 81, 0
1, 49775, Note_on_c, 1, 62, 0
1, 49776, Note_on_c, 0, 83, 75
1, 49776, Note_on_c, 1, 59, 75
1, 49799, Note_on_c, 1, 59, 0
1, 49800, Note_on_c, 1, 62, 75
1, 49821, Note_on_c, 0, 83, 0
1, 49823, Note_on_c, 1, 62, 0
1, 49824, Note_on_c, 1, 55, 75
1, 49847, Note_on_c, 1, 55, 0
1, 49848, Note_on_c, 1, 62, 75
1, 49871, Note_on_c, 1, 62, 0
1, 49872, Note_on_c, 0, 74, 75
1, 49872, Note_on_c, 1, 59, 75
1, 49895, Note_on_c, 1, 59, 0
1, 49896, Note_on_c, 1, 62, 75
1, 49917, Note_on_c, 0, 74, 0
1, 49919, Note_on_c, 1, 62, 0
1, 49920, Note_on_c, 0, 74, 75
1, 49920, Note_on_c, 1, 59, 75
1, 49943, Note_on_c, 0, 74, 0
1, 49944, Note_on_c, 0, 86, 75
1, 49967, Note_on_c, 0, 86, 0
1, 49968, Note_on_c, 0, 84, 75
1, 49991, Note_on_c, 0, 84, 0
1, 49992, Note_on_c, 0, 83, 75
1, 50009, Note_on_c, 1, 59, 0
1, 50015, Note_on_c, 0, 83, 0
1, 50016, Note_on_c, 0, 81, 75
1, 50039, Note_on_c, 0, 81, 0
1, 50040, Note_on_c, 0, 79, 75
1, 50063, Note_on_c, 0, 79, 0
1, 50064, Note_on_c, 0, 78, 75
1, 50087, Note_on_c, 0, 78, 0
1, 50088, Note_on_c, 0, 79, 75
1, 50111, Note_on_c, 0, 79, 0
1, 50112, Note_on_c, 0, 76, 75
1, 50112, Note_on_c, 1, 60, 75
1, 50135, Note_on_c, 1, 60, 0
1, 50136, Note_on_c, 1, 72, 75
1, 50157, Note_on_c, 0, 76, 0
1, 50159, Note_on_c, 1, 72, 0
1, 50160, Note_on_c, 0, 80, 76
1, 50160, Note_on_c, 1, 59, 75
1, 50183, Note_on_c, 1, 59, 0
1, 50184, Note_on_c, 1, 71, 75
1, 50205, Note_on_c, 0, 80, 0
1, 50207, Note_on_c, 1, 71, 0
1, 50208, Note_on_c, 0, 81, 77
1, 50208, Note_on_c, 1, 57, 75
1, 50231, Note_on_c, 1, 57, 0
1, 50232, Note_on_c, 1, 69, 75
1, 50253, Note_on_c, 0, 81, 0
1, 50255, Note_on_c, 1, 69, 0
1, 50256, Note_on_c, 0, 83, 78
1, 50256, Note_on_c, 1, 56, 75
1, 50279, Note_on_c, 1, 56, 0
1, 50280, Note_on_c, 1, 68, 75
1, 50301, Note_on_c, 0, 83, 0
1, 50303, Note_on_c, 1, 68, 0
1, 50304, Note_on_c, 1, 57, 75
1, 50328, Note_on_c, 0, 84, 79
1, 50351, Note_on_c, 0, 84, 0
1, 50352, Note_on_c, 0, 83, 78
1, 50375, Note_on_c, 0, 83, 0
1, 50376, Note_on_c, 0, 81, 78
1, 50393, Note_on_c, 1, 57, 0
1, 50399, Note_on_c, 0, 81, 0
1, 50400, Note_on_c, 0, 79, 77
1, 50423, Note_on_c, 0, 79, 0
1, 50424, Note_on_c, 0, 78, 76
1, 50447, Note_on_c, 0, 78, 0
1, 50448, Note_on_c, 0, 76, 76
1, 50471, Note_on_c, 0, 76, 0
1, 50472, Note_on_c, 0, 78, 75
1, 50495, Note_on_c, 0, 78, 0
1, 50496, Note_on_c, 0, 74, 75
1, 50496, Note_on_c, 1, 59, 75
1, 50519, Note_on_c, 1, 59, 0
1, 50520, Note_on_c, 1, 71, 75
1, 50541, Note_on_c, 0, 74, 0
1, 50543, Note_on_c, 1, 71, 0
1, 50544, Note_on_c, 0, 78, 76
1, 50544, Note_on_c, 1, 57, 75
1, 50567, Note_on_c, 1, 57, 0
1, 50568, Note_on_c, 1, 69, 75
1, 50589, Note_on_c, 0, 78, 0
1, 50591, Note_on_c, 1, 69, 0
1, 50592, Note_on_c, 0, 79, 77
1, 50592, Note_on_c, 1, 55, 75
1, 50615, Note_on_c, 1, 55, 0
1, 50616, Note_on_c, 1, 67, 75
1, 50637, Note_on_c, 0, 79, 0
1, 50639, Note_on_c, 1, 67, 0
1, 50640, Note_on_c, 0, 81, 78
1, 50640, Note_on_c, 1, 54, 75
1, 50663, Note_on_c, 1, 54, 0
1, 50664, Note_on_c, 1, 66, 75
1, 50685, Note_on_c, 0, 81, 0
1, 50687, Note_on_c, 1, 66, 0
1, 50688, Note_on_c, 1, 55, 75
1, 50712, Note_on_c, 0, 83, 79
1, 50735, Note_on_c, 0, 83, 0
1, 50736, Note_on_c, 0, 81, 78
1, 50759, Note_on_c, 0, 81, 0
1, 50760, Note_on_c, 0, 79, 78
1, 50777, Note_on_c, 1, 55, 0
1, 50783, Note_on_c, 0, 79, 0
1, 50784, Note_on_c, 0, 78, 77
1, 50807, Note_on_c, 0, 78, 0
1, 50808, Note_on_c, 0, 76, 76
1, 50831, Note_on_c, 0, 76, 0
1, 50832, Note_on_c, 0, 74, 76
1, 50855, Note_on_c, 0, 74, 0
1, 50856, Note_on_c, 0, 76, 75
1, 50879, Note_on_c, 0, 76, 0
1, 50880, Note_on_c, 0, 72, 75
1, 50880, Note_on_c, 1, 57, 75
1, 50903, Note_on_c, 1, 57, 0
1, 50904, Note_on_c, 1, 69, 75
1, 50925, Note_on_c, 0, 72, 0
1, 50927, Note_on_c, 1, 69, 0
1, 50928, Note_on_c, 0, 76, 76
1, 50928, Note_on_c, 1, 55, 75
1, 50951, Note_on_c, 1, 55, 0
1, 50952, Note_on_c, 1, 67, 75
1, 50973, Note_on_c, 0, 76, 0
1, 50975, Note_on_c, 1, 67, 0
1, 50976, Note_on_c, 0, 78, 77
1, 50976, Note_on_c, 1, 54, 75
1, 50999, Note_on_c, 1, 54, 0
1, 51000, Note_on_c, 1, 66, 75
1, 51021, Note_on_c, 0, 78, 0
1, 51023, Note_on_c, 1, 66, 0
1, 51024, Note_on_c, 0, 79, 78
1, 51024, Note_on_c, 1, 52, 75
1, 51047, Note_on_c, 1, 52, 0
1, 51048, Note_on_c, 1, 64, 75
1, 51069, Note_on_c, 0, 79, 0
1, 51071, Note_on_c, 1, 64, 0
1, 51072, Note_on_c, 1, 54, 75
1, 51096, Note_on_c, 0, 81, 79
1, 51119, Note_on_c, 0, 81, 0
1, 51120, Note_on_c, 0, 79, 78
1, 51143, Note_on_c, 0, 79, 0
1, 51144, Note_on_c, 0, 78, 78
1, 51161, Note_on_c, 1, 54, 0
1, 51167, Note_on_c, 0, 78, 0
1, 51168, Note_on_c, 0, 76, 77
1, 51191, Note_on_c, 0, 76, 0
1, 51192, Note_on_c, 0, 74, 76
1, 51215, Note_on_c, 0, 74, 0
1, 51216, Note_on_c, 0, 76, 76
1, 51239, Note_on_c, 0, 76, 0
1, 51240, Note_on_c, 0, 72, 75
1, 51263, Note_on_c, 0, 72, 0
1, 51264, Note_on_c, 0, 71, 75
1, 51264, Note_on_c, 1, 55, 75
1, 51287, Note_on_c, 1, 55, 0
1, 51288, Note_on_c, 1, 62, 75
1, 51309, Note_on_c, 0, 71, 0
1, 51311, Note_on_c, 1, 62, 0
1, 51312, Note_on_c, 0, 79, 75
1, 51312, Note_on_c, 1, 59, 75
1, 51335, Note_on_c, 1, 59, 0
1, 51336, Note_on_c, 1, 62, 75
1, 51357, Note_on_c, 0, 79, 0
1, 51359, Note_on_c, 1, 62, 0
1, 51360, Note_on_c, 0, 78, 75
1, 51360, Note_on_c, 1, 57, 75
1, 51383, Note_on_c, 1, 57, 0
1, 51384, Note_on_c, 1, 62, 75
1, 51405, Note_on_c, 0, 78, 0
1, 51407, Note_on_c, 1, 62, 0
1, 51408, Note_on_c, 0, 86, 75
1, 51408, Note_on_c, 1, 60, 75
1, 51431, Note_on_c, 1, 60, 0
1, 51432, Note_on_c, 1, 62, 75
1, 51453, Note_on_c, 0, 86, 0
1, 51455, Note_on_c, 1, 62, 0
1, 51456, Note_on_c, 0, 83, 75
1, 51456, Note_on_c, 1, 55, 75
1, 51479, Note_on_c, 1, 55, 0
1, 51480, Note_on_c, 1, 62, 75
1, 51501, Note_on_c, 0, 83, 0
1, 51503, Note_on_c, 1, 62, 0
1, 51504, Note_on_c, 0, 79, 75
1, 51504, Note_on_c, 1, 59, 75
1, 51527, Note_on_c, 1, 59, 0
1, 51528, Note_on_c, 1, 62, 75
1, 51549, Note_on_c, 0, 79, 0
1, 51551, Note_on_c, 1, 62, 0
1, 51552, Note_on_c, 0, 78, 75
1, 51552, Note_on_c, 1, 57, 75
1, 51575, Note_on_c, 1, 57, 0
1, 51576, Note_on_c, 1, 62, 75
1, 51597, Note_on_c, 0, 78, 0
1, 51599, Note_on_c, 1, 62, 0
1, 51600, Note_on_c, 0, 72, 75
1, 51600, Note_on_c, 1, 60, 75
1, 51623, Note_on_c, 1, 60, 0
1, 51624, Note_on_c, 1, 62, 75
1, 51645, Note_on_c, 0, 72, 0
1, 51647, Note_on_c, 1, 62, 0
1, 51648, Note_on_c, 0, 71, 75
1, 51648, Note_on_c, 1, 55, 75
1, 51671, Note_on_c, 1, 55, 0
1, 51672, Note_on_c, 1, 62, 75
1, 51693, Note_on_c, 0, 71, 0
1, 51695, Note_on_c, 1, 62, 0
1, 51696, Note_on_c, 0, 79, 75
1, 51696, Note_on_c, 1, 59, 75
1, 51711, Note_on_c, 0, 79, 0
1, 51712, Note_on_c, 0, 81, 75
1, 51719, Note_on_c, 1, 59, 0
1, 51720, Note_on_c, 1, 62, 75
1, 51727, Note_on_c, 0, 81, 0
1, 51728, Note_on_c, 0, 79, 75
1, 51743, Note_on_c, 0, 79, 0
1, 51743, Note_on_c, 1, 62, 0
1, 51744, Note_on_c, 0, 78, 75
1, 51744, Note_on_c, 1, 57, 75
1, 51767, Note_on_c, 1, 57, 0
1, 51768, Note_on_c, 1, 62, 75
1, 51789, Note_on_c, 0, 78, 0
1, 51791, Note_on_c, 1, 62, 0
1, 51792, Note_on_c, 0, 86, 75
1, 51792, Note_on_c, 1, 60, 75
1, 51815, Note_on_c, 1, 60, 0
1, 51816, Note_on_c, 1, 62, 75
1, 51837, Note_on_c, 0, 86, 0
1, 51839, Note_on_c, 1, 62, 0
1, 51840, Note_on_c, 0, 83, 75
1, 51840, Note_on_c, 1, 55, 75
1, 51863, Note_on_c, 1, 55, 0
1, 51864, Note_on_c, 1, 62, 75
1, 51885, Note_on_c, 0, 83, 0
1, 51887, Note_on_c, 1, 62, 0
1, 51888, Note_on_c, 0, 79, 75
1, 51888, Note_on_c, 1, 59, 75
1, 51911, Note_on_c, 1, 59, 0
1, 51912, Note_on_c, 1, 62, 75
1, 51933, Note_on_c, 0, 79, 0
1, 51935, Note_on_c, 1, 62, 0
1, 51936, Note_on_c, 0, 78, 75
1, 51936, Note_on_c, 1, 57, 75
1, 51959, Note_on_c, 1, 57, 0
1, 51960, Note_on_c, 1, 62, 75
1, 51981, Note_on_c, 0, 78, 0
1, 51983, Note_on_c, 1, 62, 0
1, 51984, Note_on_c, 0, 72, 75
1, 51984, Note_on_c, 1, 60, 75
1, 52007, Note_on_c, 1, 60, 0
1, 52008, Note_on_c, 1, 62, 75
1, 52029, Note_on_c, 0, 72, 0
1, 52031, Note_on_c, 1, 62, 0
1, 52032, Note_on_c, 0, 71, 75
1, 52032, Note_on_c, 1, 55, 75
1, 52055, Note_on_c, 1, 55, 0
1, 52056, Note_on_c, 1, 62, 75
1, 52077, Note_on_c, 0, 71, 0
1, 52079, Note_on_c, 1, 62, 0
1, 52080, Note_on_c, 0, 79, 75
1, 52080, Note_on_c, 1, 59, 75
1, 52103, Note_on_c, 1, 59, 0
1, 52104, Note_on_c, 1, 62, 75
1, 52125, Note_on_c, 0, 79, 0
1, 52127, Note_on_c, 1, 62, 0
1, 52128, Note_on_c, 0, 77, 75
1, 52128, Note_on_c, 1, 59, 75
1, 52151, Note_on_c, 1, 59, 0
1, 52152, Note_on_c, 1, 67, 75
1, 52173, Note_on_c, 0, 77, 0
1, 52175, Note_on_c, 1, 67, 0
1, 52176, Note_on_c, 0, 74, 75
1, 52176, Note_on_c, 1, 62, 75
1, 52199, Note_on_c, 1, 62, 0
1, 52200, Note_on_c, 1, 67, 75
1, 52221, Note_on_c, 0, 74, 0
1, 52223, Note_on_c, 1, 67, 0
1, 52224, Note_on_c, 0, 75, 75
1, 52224, Note_on_c, 1, 60, 75
1, 52247, Note_on_c, 1, 60, 0
1, 52248, Note_on_c, 1, 67, 75
1, 52271, Note_on_c, 1, 67, 0
1, 52272, Note_on_c, 1, 64, 75
1, 52295, Note_on_c, 1, 64, 0
1, 52296, Note_on_c, 1, 67, 75
1, 52319, Note_on_c, 1, 67, 0
1, 52320, Note_on_c, 0, 75, 0
1, 52320, Note_on_c, 0, 76, 75
1, 52320, Note_on_c, 1, 60, 75
1, 52340, Note_on_c, 0, 76, 0
1, 52365, Note_on_c, 1, 60, 0
1, 52368, Note_on_c, 0, 76, 75
1, 52391, Note_on_c, 0, 76, 0
1, 52392, Note_on_c, 0, 72, 75
1, 52415, Note_on_c, 0, 72, 0
1, 52416, Note_on_c, 0, 74, 75
1, 52439, Note_on_c, 0, 74, 0
1, 52440, Note_on_c, 0, 71, 75
1, 52463, Note_on_c, 0, 71, 0
1, 52464, Note_on_c, 0, 72, 75
1, 52487, Note_on_c, 0, 72, 0
1, 52488, Note_on_c, 0, 69, 75
1, 52511, Note_on_c, 0, 69, 0
1, 52512, Note_on_c, 0, 71, 75
1, 52535, Note_on_c, 0, 71, 0
1, 52536, Note_on_c, 0, 67, 75
1, 52559, Note_on_c, 0, 67, 0
1, 52560, Note_on_c, 0, 69, 75
1, 52560, Note_on_c, 1, 50, 75
1, 52583, Note_on_c, 0, 69, 0
1, 52584, Note_on_c, 0, 66, 75
1, 52605, Note_on_c, 1, 50, 0
1, 52607, Note_on_c, 0, 66, 0
1, 52608, Note_on_c, 0, 67, 75
1, 52608, Note_on_c, 1, 52, 75
1, 52631, Note_on_c, 1, 52, 0
1, 52632, Note_on_c, 1, 61, 75
1, 52653, Note_on_c, 0, 67, 0
1, 52655, Note_on_c, 1, 61, 0
1, 52656, Note_on_c, 0, 79, 75
1, 52656, Note_on_c, 1, 55, 75
1, 52679, Note_on_c, 1, 55, 0
1, 52680, Note_on_c, 1, 61, 75
1, 52701, Note_on_c, 0, 79, 0
1, 52703, Note_on_c, 1, 61, 0
1, 52704, Note_on_c, 0, 79, 75
1, 52704, Note_on_c, 1, 52, 75
1, 52727, Note_on_c, 1, 52, 0
1, 52728, Note_on_c, 1, 61, 75
1, 52749, Note_on_c, 0, 79, 0
1, 52751, Note_on_c, 1, 61, 0
1, 52752, Note_on_c, 0, 81, 75
1, 52752, Note_on_c, 1, 55, 75
1, 52764, Note_on_c, 0, 81, 0
1, 52764, Note_on_c, 0, 79, 75
1, 52775, Note_on_c, 1, 55, 0
1, 52776, Note_on_c, 0, 79, 0
1, 52776, Note_on_c, 0, 78, 75
1, 52776, Note_on_c, 1, 61, 75
1, 52788, Note_on_c, 0, 78, 0
1, 52788, Note_on_c, 0, 79, 75
1, 52799, Note_on_c, 1, 61, 0
1, 52800, Note_on_c, 0, 79, 0
1, 52800, Note_on_c, 0, 78, 75
1, 52800, Note_on_c, 1, 50, 75
1, 52820, Note_on_c, 0, 78, 0
1, 52823, Note_on_c, 1, 50, 0
1, 52824, Note_on_c, 1, 62, 75
1, 52847, Note_on_c, 1, 62, 0
1, 52848, Note_on_c, 0, 72, 75
1, 52848, Note_on_c, 1, 54, 75
1, 52871, Note_on_c, 1, 54, 0
1, 52872, Note_on_c, 1, 62, 75
1, 52893, Note_on_c, 0, 72, 0
1, 52895, Note_on_c, 1, 62, 0
1, 52896, Note_on_c, 0, 72, 75
1, 52896, Note_on_c, 1, 50, 75
1, 52919, Note_on_c, 1, 50, 0
1, 52920, Note_on_c, 1, 62, 75
1, 52941, Note_on_c, 0, 72, 0
1, 52943, Note_on_c, 1, 62, 0
1, 52944, Note_on_c, 0, 74, 75
1, 52944, Note_on_c, 1, 54, 75
1, 52956, Note_on_c, 0, 74, 0
1, 52956, Note_on_c, 0, 72, 75
1, 52967, Note_on_c, 1, 54, 0
1, 52968, Note_on_c, 0, 72, 0
1, 52968, Note_on_c, 0, 71, 75
1, 52968, Note_on_c, 1, 62, 75
1, 52980, Note_on_c, 0, 71, 0
1, 52980, Note_on_c, 0, 72, 75
1, 52991, Note_on_c, 1, 62, 0
1, 52992, Note_on_c, 0, 72, 0
1, 52992, Note_on_c, 0, 71, 75
1, 52992, Note_on_c, 1, 55, 75
1, 53012, Note_on_c, 0, 71, 0
1, 53015, Note_on_c, 1, 55, 0
1, 53016, Note_on_c, 1, 62, 75
1, 53039, Note_on_c, 1, 62, 0
1, 53040, Note_on_c, 0, 65, 75
1, 53040, Note_on_c, 1, 59, 75
1, 53063, Note_on_c, 1, 59, 0
1, 53064, Note_on_c, 1, 62, 75
1, 53085, Note_on_c, 0, 65, 0
1, 53087, Note_on_c, 1, 62, 0
1, 53088, Note_on_c, 0, 65, 75
1, 53088, Note_on_c, 1, 55, 75
1, 53111, Note_on_c, 1, 55, 0
1, 53112, Note_on_c, 1, 62, 75
1, 53133, Note_on_c, 0, 65, 0
1, 53135, Note_on_c, 1, 62, 0
1, 53136, Note_on_c, 0, 67, 75
1, 53136, Note_on_c, 1, 59, 75
1, 53148, Note_on_c, 0, 67, 0
1, 53148, Note_on_c, 0, 65, 75
1, 53159, Note_on_c, 1, 59, 0
1, 53160, Note_on_c, 0, 65, 0
1, 53160, Note_on_c, 0, 64, 75
1, 53160, Note_on_c, 1, 62, 75
1, 53172, Note_on_c, 0, 64, 0
1, 53172, Note_on_c, 0, 65, 75
1, 53183, Note_on_c, 1, 62, 0
1, 53184, Note_on_c, 0, 65, 0
1, 53184, Note_on_c, 0, 64, 75
1, 53184, Note_on_c, 1, 60, 75
1, 53229, Note_on_c, 0, 64, 0
1, 53232, Note_on_c, 0, 75, 75
1, 53255, Note_on_c, 0, 75, 0
1, 53256, Note_on_c, 0, 76, 75
1, 53273, Note_on_c, 1, 60, 0
1, 53279, Note_on_c, 0, 76, 0
1, 53280, Note_on_c, 0, 74, 75
1, 53303, Note_on_c, 0, 74, 0
1, 53304, Note_on_c, 0, 72, 75
1, 53327, Note_on_c, 0, 72, 0
1, 53328, Note_on_c, 0, 71, 75
1, 53351, Note_on_c, 0, 71, 0
1, 53352, Note_on_c, 0, 69, 75
1, 53375, Note_on_c, 0, 69, 0
1, 53376, Note_on_c, 0, 67, 75
1, 53424, Note_on_c, 1, 47, 75
1, 53465, Note_on_c, 0, 67, 0
1, 53469, Note_on_c, 1, 47, 0
1, 53472, Note_on_c, 0, 69, 75
1, 53472, Note_on_c, 1, 48, 75
1, 53485, Note_on_c, 0, 69, 0
1, 53486, Note_on_c, 0, 71, 75
1, 53499, Note_on_c, 0, 71, 0
1, 53500, Note_on_c, 0, 69, 75
1, 53513, Note_on_c, 0, 69, 0
1, 53514, Note_on_c, 0, 71, 75
1, 53517, Note_on_c, 1, 48, 0
1, 53520, Note_on_c, 1, 50, 75
1, 53527, Note_on_c, 0, 71, 0
1, 53528, Note_on_c, 0, 69, 75
1, 53541, Note_on_c, 0, 69, 0
1, 53542, Note_on_c, 0, 67, 75
1, 53554, Note_on_c, 0, 67, 0
1, 53555, Note_on_c, 0, 69, 75
1, 53565, Note_on_c, 1, 50, 0
1, 53567, Note_on_c, 0, 69, 0
1, 53568, Note_on_c, 0, 67, 75
1, 53568, Note_on_c, 1, 52, 75
1, 53591, Note_on_c, 1, 52, 0
1, 53592, Note_on_c, 1, 61, 75
1, 53613, Note_on_c, 0, 67, 0
1, 53615, Note_on_c, 1, 61, 0
1, 53616, Note_on_c, 0, 79, 75
1, 53616, Note_on_c, 1, 55, 75
1, 53639, Note_on_c, 1, 55, 0
1, 53640, Note_on_c, 1, 61, 75
1, 53661, Note_on_c, 0, 79, 0
1, 53663, Note_on_c, 1, 61, 0
1, 53664, Note_on_c, 0, 79, 75
1, 53664, Note_on_c, 1, 52, 75
1, 53687, Note_on_c, 1, 52, 0
1, 53688, Note_on_c, 1, 61, 75
1, 53709, Note_on_c, 0, 79, 0
1, 53711, Note_on_c, 1, 61, 0
1, 53712, Note_on_c, 0, 81, 75
1, 53712, Note_on_c, 1, 55, 75
1, 53724, Note_on_c, 0, 81, 0
1, 53724, Note_on_c, 0, 79, 75
1, 53735, Note_on_c, 1, 55, 0
1, 53736, Note_on_c, 0, 79, 0
1, 53736, Note_on_c, 0, 78, 75
1, 53736, Note_on_c, 1, 61, 75
1, 53748, Note_on_c, 0, 78, 0
1, 53748, Note_on_c, 0, 79, 75
1, 53759, Note_on_c, 1, 61, 0
1, 53760, Note_on_c, 0, 79, 0
1, 53760, Note_on_c, 0, 78, 75
1, 53760, Note_on_c, 1, 50, 75
1, 53780, Note_on_c, 0, 78, 0
1, 53783, Note_on_c, 1, 50, 0
1, 53784, Note_on_c, 1, 62, 75
1, 53807, Note_on_c, 1, 62, 0
1, 53808, Note_on_c, 0, 72, 75
1, 53808, Note_on_c, 1, 54, 75
1, 53831, Note_on_c, 1, 54, 0
1, 53832, Note_on_c, 1, 62, 75
1, 53853, Note_on_c, 0, 72, 0
1, 53855, Note_on_c, 1, 62, 0
1, 53856, Note_on_c, 0, 72, 75
1, 53856, Note_on_c, 1, 50, 75
1, 53879, Note_on_c, 1, 50, 0
1, 53880, Note_on_c, 1, 62, 75
1, 53901, Note_on_c, 0, 72, 0
1, 53903, Note_on_c, 1, 62, 0
1, 53904, Note_on_c, 0, 74, 75
1, 53904, Note_on_c, 1, 54, 75
1, 53916, Note_on_c, 0, 74, 0
1, 53916, Note_on_c, 0, 72, 75
1, 53927, Note_on_c, 1, 54, 0
1, 53928, Note_on_c, 0, 72, 0
1, 53928, Note_on_c, 0, 71, 75
1, 53928, Note_on_c, 1, 62, 75
1, 53940, Note_on_c, 0, 71, 0
1, 53940, Note_on_c, 0, 72, 75
1, 53951, Note_on_c, 1, 62, 0
1, 53952, Note_on_c, 0, 72, 0
1, 53952, Note_on_c, 0, 71, 75
1, 53952, Note_on_c, 1, 55, 75
1, 53972, Note_on_c, 0, 71, 0
1, 53975, Note_on_c, 1, 55, 0
1, 53976, Note_on_c, 1, 62, 75
1, 53999, Note_on_c, 1, 62, 0
1, 54000, Note_on_c, 0, 65, 75
1, 54000, Note_on_c, 1, 59, 75
1, 54023, Note_on_c, 1, 59, 0
1, 54024, Note_on_c, 1, 62, 75
1, 54045, Note_on_c, 0, 65, 0
1, 54047, Note_on_c, 1, 62, 0
1, 54048, Note_on_c, 0, 65, 75
1, 54048, Note_on_c, 1, 55, 75
1, 54071, Note_on_c, 1, 55, 0
1, 54072, Note_on_c, 1, 62, 75
1, 54093, Note_on_c, 0, 65, 0
1, 54095, Note_on_c, 1, 62, 0
1, 54096, Note_on_c, 0, 67, 75
1, 54096, Note_on_c, 1, 59, 75
1, 54108, Note_on_c, 0, 67, 0
1, 54108, Note_on_c, 0, 65, 75
1, 54119, Note_on_c, 1, 59, 0
1, 54120, Note_on_c, 0, 65, 0
1, 54120, Note_on_c, 0, 64, 75
1, 54120, Note_on_c, 1, 62, 75
1, 54132, Note_on_c, 0, 64, 0
1, 54132, Note_on_c, 0, 65, 75
1, 54143, Note_on_c, 1, 62, 0
1, 54144, Note_on_c, 0, 65, 0
1, 54144, Note_on_c, 0, 64, 75
1, 54144, Note_on_c, 1, 60, 75
1, 54189, Note_on_c, 0, 64, 0
1, 54192, Note_on_c, 0, 75, 75
1, 54215, Note_on_c, 0, 75, 0
1, 54216, Note_on_c, 0, 76, 75
1, 54233, Note_on_c, 1, 60, 0
1, 54239, Note_on_c, 0, 76, 0
1, 54240, Note_on_c, 0, 74, 75
1, 54263, Note_on_c, 0, 74, 0
1, 54264, Note_on_c, 0, 72, 75
1, 54287, Note_on_c, 0, 72, 0
1, 54288, Note_on_c, 0, 71, 75
1, 54311, Note_on_c, 0, 71, 0
1, 54312, Note_on_c, 0, 69, 75
1, 54335, Note_on_c, 0, 69, 0
1, 54336, Note_on_c, 0, 67, 75
1, 54384, Note_on_c, 1, 47, 75
1, 54425, Note_on_c, 0, 67, 0
1, 54429, Note_on_c, 1, 47, 0
1, 54432, Note_on_c, 0, 69, 75
1, 54432, Note_on_c, 1, 48, 75
1, 54445, Note_on_c, 0, 69, 0
1, 54446, Note_on_c, 0, 71, 75
1, 54459, Note_on_c, 0, 71, 0
1, 54460, Note_on_c, 0, 69, 75
1, 54473, Note_on_c, 0, 69, 0
1, 54474, Note_on_c, 0, 71, 75
1, 54477, Note_on_c, 1, 48, 0
1, 54480, Note_on_c, 1, 50, 75
1, 54487, Note_on_c, 0, 71, 0
1, 54488, Note_on_c, 0, 69, 75
1, 54501, Note_on_c, 0, 69, 0
1, 54502, Note_on_c, 0, 67, 75
1, 54514, Note_on_c, 0, 67, 0
1, 54515, Note_on_c, 0, 69, 75
1, 54525, Note_on_c, 1, 50, 0
1, 54527, Note_on_c, 0, 69, 0
1, 54528, Note_on_c, 0, 71, 75
1, 54528, Note_on_c, 1, 55, 75
1, 54551, Note_on_c, 0, 71, 0
1, 54552, Note_on_c, 0, 67, 75
1, 54573, Note_on_c, 1, 55, 0
1, 54575, Note_on_c, 0, 67, 0
1, 54576, Note_on_c, 0, 79, 75
1, 54576, Note_on_c, 1, 47, 75
1, 54599, Note_on_c, 0, 79, 0
1, 54600, Note_on_c, 0, 74, 75
1, 54621, Note_on_c, 1, 47, 0
1, 54623, Note_on_c, 0, 74, 0
1, 54624, Note_on_c, 0, 76, 75
1, 54624, Note_on_c, 1, 48, 75
1, 54647, Note_on_c, 0, 76, 0
1, 54648, Note_on_c, 0, 71, 75
1, 54669, Note_on_c, 1, 48, 0
1, 54671, Note_on_c, 0, 71, 0
1, 54672, Note_on_c, 0, 72, 75
1, 54695, Note_on_c, 0, 72, 0
1, 54696, Note_on_c, 0, 69, 75
1, 54719, Note_on_c, 0, 69, 0
1, 54720, Note_on_c, 0, 67, 75
1, 54768, Note_on_c, 1, 47, 75
1, 54809, Note_on_c, 0, 67, 0
1, 54813, Note_on_c, 1, 47, 0
1, 54816, Note_on_c, 0, 69, 75
1, 54816, Note_on_c, 1, 48, 75
1, 54829, Note_on_c, 0, 69, 0
1, 54830, Note_on_c, 0, 71, 75
1, 54843, Note_on_c, 0, 71, 0
1, 54844, Note_on_c, 0, 69, 75
1, 54857, Note_on_c, 0, 69, 0
1, 54858, Note_on_c, 0, 71, 75
1, 54861, Note_on_c, 1, 48, 0
1, 54864, Note_on_c, 1, 50, 75
1, 54871, Note_on_c, 0, 71, 0
1, 54872, Note_on_c, 0, 69, 75
1, 54885, Note_on_c, 0, 69, 0
1, 54886, Note_on_c, 0, 67, 75
1, 54898, Note_on_c, 0, 67, 0
1, 54899, Note_on_c, 0, 69, 75
1, 54909, Note_on_c, 1, 50, 0
1, 54911, Note_on_c, 0, 69, 0
1, 54912, Note_on_c, 0, 67, 75
1, 54912, Note_on_c, 1, 43, 75
1, 54935, Note_on_c, 1, 43, 0
1, 54936, Note_on_c, 1, 55, 75
1, 54957, Note_on_c, 0, 67, 0
1, 54959, Note_on_c, 1, 55, 0
1, 54960, Note_on_c, 1, 43, 75
1, 54983, Note_on_c, 1, 43, 0
1, 54984, Note_on_c, 1, 55, 75
1, 55007, Note_on_c, 1, 55, 0
1, 55008, Note_on_c, 0, 72, 75
1, 55008, Note_on_c, 0, 66, 75
1, 55008, Note_on_c, 1, 43, 75
1, 55028, Note_on_c, 0, 72, 0
1, 55028, Note_on_c, 0, 66, 0
1, 55031, Note_on_c, 1, 43, 0
1, 55032, Note_on_c, 1, 55, 75
1, 55055, Note_on_c, 1, 55, 0
1, 55056, Note_on_c, 1, 43, 75
1, 55079, Note_on_c, 1, 43, 0
1, 55080, Note_on_c, 1, 55, 75
1, 55103, Note_on_c, 1, 55, 0
1, 55104, Note_on_c, 0, 71, 75
1, 55104, Note_on_c, 0, 67, 75
1, 55104, Note_on_c, 1, 43, 75
1, 55124, Note_on_c, 0, 71, 0
1, 55124, Note_on_c, 0, 67, 0
1, 55127, Note_on_c, 1, 43, 0
1, 55128, Note_on_c, 1, 55, 75
1, 55151, Note_on_c, 1, 55, 0
1, 55152, Note_on_c, 1, 43, 75
1, 55175, Note_on_c, 1, 43, 0
1, 55176, Note_on_c, 1, 55, 75
1, 55199, Note_on_c, 1, 55, 0
1, 55200, Note_on_c, 0, 66, 75
1, 55200, Note_on_c, 0, 60, 75
1, 55200, Note_on_c, 1, 43, 75
1, 55220, Note_on_c, 0, 66, 0
1, 55220, Note_on_c, 0, 60, 0
1, 55223, Note_on_c, 1, 43, 0
1, 55224, Note_on_c, 1, 55, 75
1, 55247, Note_on_c, 1, 55, 0
1, 55248, Note_on_c, 1, 43, 75
1, 55271, Note_on_c, 1, 43, 0
1, 55272, Note_on_c, 1, 55, 75
1, 55295, Note_on_c, 1, 55, 0
1, 55296, Note_on_c, 0, 67, 75
1, 55296, Note_on_c, 0, 62, 75
1, 55296, Note_on_c, 0, 59, 75
1, 55296, Note_on_c, 1, 43, 75
1, 55429, Note_on_c, 0, 67, 0
1, 55429, Note_on_c, 0, 62, 0
1, 55429, Note_on_c, 0, 59, 0
1, 55429, Note_on_c, 1, 43, 0
1, 55488, Note_on_c, 1, 43, 0
1, 55577, Note_on_c, 1, 43, 0
1, 55587, End_track
0, 0, End_of_file