0, 0, Header, 0, 1, 96
1, 0, Start_track
1, 0, Tempo, 800000
1, 0, Note_on_c, 0, 68, 80
1, 0, Note_on_c, 1, 52, 80
1, 6, Note_on_c, 1, 56, 80
1, 8, Note_on_c, 0, 71, 80
1, 12, Note_on_c, 1, 59, 80
1, 16, Note_on_c, 0, 76, 80
1, 18, Note_on_c, 1, 64, 80
1, 93, Note_on_c, 0, 76, 0
1, 93, Note_on_c, 0, 71, 0
1, 93, Note_on_c, 0, 68, 0
1, 93, Note_on_c, 1, 64, 0
1, 93, Note_on_c, 1, 59, 0
1, 93, Note_on_c, 1, 56, 0
1, 93, Note_on_c, 1, 52, 0
1, 96, Note_on_c, 0, 71, 75
1, 119, Note_on_c, 0, 71, 0
1, 120, Note_on_c, 0, 73, 75
1, 128, Note_on_c, 0, 73, 0
1, 128, Note_on_c, 0, 71, 75
1, 136, Note_on_c, 0, 71, 0
1, 136, Note_on_c, 0, 69, 75
1, 144, Note_on_c, 0, 69, 0
1, 144, Note_on_c, 0, 71, 75
1, 144, Note_on_c, 1, 68, 75
1, 167, Note_on_c, 0, 71, 0
1, 168, Note_on_c, 0, 73, 75
1, 189, Note_on_c, 1, 68, 0
1, 191, Note_on_c, 0, 73, 0
1, 192, Note_on_c, 0, 71, 75
1, 192, Note_on_c, 1, 66, 75
1, 215, Note_on_c, 0, 71, 0
1, 216, Note_on_c, 0, 69, 75
1, 239, Note_on_c, 0, 69, 0
1, 240, Note_on_c, 0, 68, 75
1, 240, Note_on_c, 1, 66, 0
1, 240, Note_on_c, 1, 63, 75
1, 263, Note_on_c, 0, 68, 0
1, 264, Note_on_c, 0, 69, 75
1, 285, Note_on_c, 1, 63, 0
1, 287, Note_on_c, 0, 69, 0
1, 288, Note_on_c, 0, 69, 75
1, 288, Note_on_c, 1, 64, 75
1, 311, Note_on_c, 0, 69, 0
1, 312, Note_on_c, 0, 68, 75
1, 333, Note_on_c, 1, 64, 0
1, 335, Note_on_c, 0, 68, 0
1, 336, Note_on_c, 0, 66, 75
1, 336, Note_on_c, 1, 56, 75
1, 359, Note_on_c, 0, 66, 0
1, 360, Note_on_c, 0, 68, 75
1, 381, Note_on_c, 1, 56, 0
1, 383, Note_on_c, 0, 68, 0
1, 384, Note_on_c, 0, 68, 75
1, 384, Note_on_c, 1, 57, 75
1, 407, Note_on_c, 0, 68, 0
1, 408, Note_on_c, 0, 66, 75
1, 429, Note_on_c, 1, 57, 0
1, 431, Note_on_c, 0, 66, 0
1, 432, Note_on_c, 0, 64, 75
1, 432, Note_on_c, 1, 59, 75
1, 455, Note_on_c, 0, 64, 0
1, 456, Note_on_c, 0, 63, 75
1, 477, Note_on_c, 1, 59, 0
1, 479, Note_on_c, 0, 63, 0
1, 480, Note_on_c, 0, 64, 75
1, 480, Note_on_c, 1, 52, 75
1, 525, Note_on_c, 0, 64, 0
1, 525, Note_on_c, 1, 52, 0
1, 528, Note_on_c, 0, 69, 75
1, 528, Note_on_c, 0, 61, 64
1, 548, Note_on_c, 0, 69, 0
1, 573, Note_on_c, 0, 61, 0
1, 576, Note_on_c, 0, 68, 75
1, 576, Note_on_c, 0, 59, 64
1, 596, Note_on_c, 0, 68, 0
1, 621, Note_on_c, 0, 59, 0
1, 624, Note_on_c, 0, 64, 64
1, 639, Note_on_c, 0, 64, 0
1, 640, Note_on_c, 0, 69, 64
1, 655, Note_on_c, 0, 69, 0
1, 656, Note_on_c, 0, 73, 64
1, 671, Note_on_c, 0, 73, 0
1, 672, Note_on_c, 0, 71, 75
1, 672, Note_on_c, 0, 68, 64
1, 692, Note_on_c, 0, 71, 0
1, 717, Note_on_c, 0, 68, 0
1, 768, Note_on_c, 0, 69, 80
1, 768, Note_on_c, 1, 47, 80
1, 774, Note_on_c, 0, 75, 80
1, 774, Note_on_c, 1, 51, 80
1, 780, Note_on_c, 0, 78, 80
1, 780, Note_on_c, 1, 54, 80
1, 786, Note_on_c, 0, 81, 80
1, 786, Note_on_c, 1, 59, 80
1, 861, Note_on_c, 0, 81, 0
1, 861, Note_on_c, 0, 78, 0
1, 861, Note_on_c, 0, 75, 0
1, 861, Note_on_c, 0, 69, 0
1, 861, Note_on_c, 1, 59, 0
1, 861, Note_on_c, 1, 54, 0
1, 861, Note_on_c, 1, 51, 0
1, 861, Note_on_c, 1, 47, 0
1, 864, Note_on_c, 0, 69, 75
1, 887, Note_on_c, 0, 69, 0
1, 888, Note_on_c, 0, 71, 75
1, 896, Note_on_c, 0, 71, 0
1, 896, Note_on_c, 0, 69, 75
1, 904, Note_on_c, 0, 69, 0
1, 904, Note_on_c, 0, 68, 75
1, 912, Note_on_c, 0, 68, 0
1, 912, Note_on_c, 0, 69, 75
1, 912, Note_on_c, 1, 61, 75
1, 935, Note_on_c, 0, 69, 0
1, 936, Note_on_c, 0, 73, 75
1, 957, Note_on_c, 1, 61, 0
1, 959, Note_on_c, 0, 73, 0
1, 960, Note_on_c, 0, 71, 75
1, 960, Note_on_c, 1, 63, 75
1, 983, Note_on_c, 0, 71, 0
1, 984, Note_on_c, 0, 69, 75
1, 1005, Note_on_c, 1, 63, 0
1, 1007, Note_on_c, 0, 69, 0
1, 1008, Note_on_c, 0, 68, 75
1, 1008, Note_on_c, 1, 59, 75
1, 1031, Note_on_c, 0, 68, 0
1, 1032, Note_on_c, 0, 69, 75
1, 1053, Note_on_c, 1, 59, 0
1, 1055, Note_on_c, 0, 69, 0
1, 1056, Note_on_c, 0, 69, 75
1, 1056, Note_on_c, 1, 64, 75
1, 1079, Note_on_c, 0, 69, 0
1, 1080, Note_on_c, 0, 68, 75
1, 1101, Note_on_c, 1, 64, 0
1, 1103, Note_on_c, 0, 68, 0
1, 1104, Note_on_c, 0, 66, 75
1, 1104, Note_on_c, 1, 56, 75
1, 1127, Note_on_c, 0, 66, 0
1, 1128, Note_on_c, 0, 68, 75
1, 1149, Note_on_c, 1, 56, 0
1, 1151, Note_on_c, 0, 68, 0
1, 1152, Note_on_c, 0, 68, 75
1, 1152, Note_on_c, 1, 57, 75
1, 1175, Note_on_c, 0, 68, 0
1, 1176, Note_on_c, 0, 66, 75
1, 1199, Note_on_c, 0, 66, 0
1, 1200, Note_on_c, 0, 69, 75
1, 1223, Note_on_c, 0, 69, 0
1, 1224, Note_on_c, 0, 73, 75
1, 1241, Note_on_c, 1, 57, 0
1, 1247, Note_on_c, 0, 73, 0
1, 1248, Note_on_c, 0, 61, 75
1, 1293, Note_on_c, 0, 61, 0
1, 1296, Note_on_c, 0, 63, 75
1, 1296, Note_on_c, 0, 57, 75
1, 1296, Note_on_c, 1, 54, 75
1, 1296, Note_on_c, 1, 42, 75
1, 1316, Note_on_c, 0, 63, 0
1, 1316, Note_on_c, 0, 57, 0
1, 1316, Note_on_c, 1, 54, 0
1, 1316, Note_on_c, 1, 42, 0
1, 1344, Note_on_c, 0, 64, 75
1, 1344, Note_on_c, 0, 56, 75
1, 1344, Note_on_c, 1, 52, 75
1, 1344, Note_on_c, 1, 40, 75
1, 1383, Note_on_c, 0, 64, 0
1, 1383, Note_on_c, 0, 56, 0
1, 1383, Note_on_c, 1, 52, 0
1, 1383, Note_on_c, 1, 40, 0
1, 1536, Note_on_c, 0, 68, 80
1, 1536, Note_on_c, 1, 52, 80
1, 1542, Note_on_c, 1, 56, 80
1, 1544, Note_on_c, 0, 71, 80
1, 1548, Note_on_c, 1, 59, 80
1, 1552, Note_on_c, 0, 76, 80
1, 1554, Note_on_c, 1, 64, 80
1, 1604, Note_on_c, 0, 76, 0
1, 1604, Note_on_c, 0, 71, 0
1, 1604, Note_on_c, 0, 68, 0
1, 1608, Note_on_c, 0, 71, 75
1, 1629, Note_on_c, 1, 64, 0
1, 1629, Note_on_c, 1, 59, 0
1, 1629, Note_on_c, 1, 56, 0
1, 1629, Note_on_c, 1, 52, 0
1, 1631, Note_on_c, 0, 71, 0
1, 1632, Note_on_c, 0, 70, 75
1, 1655, Note_on_c, 0, 70, 0
1, 1656, Note_on_c, 0, 71, 75
1, 1679, Note_on_c, 0, 71, 0
1, 1680, Note_on_c, 0, 73, 75
1, 1680, Note_on_c, 1, 68, 75
1, 1703, Note_on_c, 0, 73, 0
1, 1704, Note_on_c, 0, 71, 75
1, 1725, Note_on_c, 1, 68, 0
1, 1727, Note_on_c, 0, 71, 0
1, 1728, Note_on_c, 0, 68, 75
1, 1728, Note_on_c, 1, 66, 75
1, 1751, Note_on_c, 0, 68, 0
1, 1752, Note_on_c, 0, 69, 75
1, 1775, Note_on_c, 0, 69, 0
1, 1776, Note_on_c, 0, 71, 75
1, 1776, Note_on_c, 1, 66, 0
1, 1776, Note_on_c, 1, 63, 75
1, 1799, Note_on_c, 0, 71, 0
1, 1800, Note_on_c, 0, 69, 75
1, 1821, Note_on_c, 1, 63, 0
1, 1823, Note_on_c, 0, 69, 0
1, 1824, Note_on_c, 0, 66, 75
1, 1824, Note_on_c, 1, 64, 75
1, 1847, Note_on_c, 0, 66, 0
1, 1848, Note_on_c, 0, 68, 75
1, 1869, Note_on_c, 1, 64, 0
1, 1871, Note_on_c, 0, 68, 0
1, 1872, Note_on_c, 0, 69, 75
1, 1872, Note_on_c, 1, 56, 75
1, 1895, Note_on_c, 0, 69, 0
1, 1896, Note_on_c, 0, 68, 75
1, 1917, Note_on_c, 1, 56, 0
1, 1919, Note_on_c, 0, 68, 0
1, 1920, Note_on_c, 0, 68, 75
1, 1920, Note_on_c, 1, 57, 75
1, 1943, Note_on_c, 0, 68, 0
1, 1944, Note_on_c, 0, 66, 75
1, 1965, Note_on_c, 1, 57, 0
1, 1967, Note_on_c, 0, 66, 0
1, 1968, Note_on_c, 0, 64, 75
1, 1968, Note_on_c, 1, 59, 75
1, 1991, Note_on_c, 0, 64, 0
1, 1992, Note_on_c, 0, 63, 75
1, 2013, Note_on_c, 1, 59, 0
1, 2015, Note_on_c, 0, 63, 0
1, 2016, Note_on_c, 0, 64, 75
1, 2016, Note_on_c, 1, 52, 75
1, 2061, Note_on_c, 0, 64, 0
1, 2061, Note_on_c, 1, 52, 0
1, 2064, Note_on_c, 0, 69, 75
1, 2064, Note_on_c, 0, 61, 75
1, 2109, Note_on_c, 0, 69, 0
1, 2109, Note_on_c, 0, 61, 0
1, 2112, Note_on_c, 0, 69, 75
1, 2112, Note_on_c, 0, 61, 75
1, 2160, Note_on_c, 1, 40, 75
1, 2205, Note_on_c, 1, 40, 0
1, 2208, Note_on_c, 0, 69, 0
1, 2208, Note_on_c, 0, 61, 0
1, 2208, Note_on_c, 0, 68, 75
1, 2208, Note_on_c, 0, 59, 75
1, 2208, Note_on_c, 1, 52, 75
1, 2228, Note_on_c, 0, 68, 0
1, 2228, Note_on_c, 0, 59, 0
1, 2253, Note_on_c, 1, 52, 0
1, 2256, Note_on_c, 0, 64, 75
1, 2271, Note_on_c, 0, 64, 0
1, 2272, Note_on_c, 0, 69, 75
1, 2287, Note_on_c, 0, 69, 0
1, 2288, Note_on_c, 0, 73, 75
1, 2303, Note_on_c, 0, 73, 0
1, 2304, Note_on_c, 0, 73, 75
1, 2304, Note_on_c, 0, 69, 75
1, 2352, Note_on_c, 1, 40, 75
1, 2397, Note_on_c, 1, 40, 0
1, 2400, Note_on_c, 0, 73, 0
1, 2400, Note_on_c, 0, 69, 0
1, 2400, Note_on_c, 0, 71, 75
1, 2400, Note_on_c, 0, 68, 75
1, 2400, Note_on_c, 1, 52, 75
1, 2420, Note_on_c, 0, 71, 0
1, 2420, Note_on_c, 0, 68, 0
1, 2445, Note_on_c, 1, 52, 0
1, 2448, Note_on_c, 0, 71, 70
1, 2471, Note_on_c, 0, 71, 0
1, 2472, Note_on_c, 0, 83, 70
1, 2482, Note_on_c, 0, 83, 0
1, 2496, Note_on_c, 0, 83, 86
1, 2544, Note_on_c, 1, 64, 64
1, 2544, Note_on_c, 1, 56, 64
1, 2564, Note_on_c, 1, 64, 0
1, 2564, Note_on_c, 1, 56, 0
1, 2592, Note_on_c, 1, 64, 64
1, 2592, Note_on_c, 1, 56, 64
1, 2639, Note_on_c, 1, 64, 0
1, 2639, Note_on_c, 1, 56, 0
1, 2640, Note_on_c, 0, 83, 0
1, 2640, Note_on_c, 0, 73, 70
1, 2663, Note_on_c, 0, 73, 0
1, 2664, Note_on_c, 0, 85, 70
1, 2674, Note_on_c, 0, 85, 0
1, 2688, Note_on_c, 0, 85, 70
1, 2736, Note_on_c, 1, 64, 64
1, 2736, Note_on_c, 1, 57, 64
1, 2756, Note_on_c, 1, 64, 0
1, 2756, Note_on_c, 1, 57, 0
1, 2784, Note_on_c, 1, 64, 64
1, 2784, Note_on_c, 1, 57, 64
1, 2818, Note_on_c, 0, 85, 0
1, 2820, Note_on_c, 0, 83, 70
1, 2831, Note_on_c, 1, 64, 0
1, 2831, Note_on_c, 1, 57, 0
1, 2832, Note_on_c, 0, 83, 0
1, 2832, Note_on_c, 0, 81, 70
1, 2844, Note_on_c, 0, 81, 0
1, 2844, Note_on_c, 0, 80, 70
1, 2856, Note_on_c, 0, 80, 0
1, 2856, Note_on_c, 0, 78, 70
1, 2868, Note_on_c, 0, 78, 0
1, 2868, Note_on_c, 0, 76, 70
1, 2880, Note_on_c, 0, 76, 0
1, 2880, Note_on_c, 0, 75, 70
1, 2880, Note_on_c, 1, 69, 64
1, 2880, Note_on_c, 1, 66, 64
1, 2880, Note_on_c, 1, 59, 64
1, 2914, Note_on_c, 0, 75, 0
1, 2916, Note_on_c, 0, 76, 70
1, 2922, Note_on_c, 0, 76, 0
1, 2922, Note_on_c, 0, 78, 70
1, 2925, Note_on_c, 1, 69, 0
1, 2925, Note_on_c, 1, 66, 0
1, 2925, Note_on_c, 1, 59, 0
1, 2928, Note_on_c, 0, 78, 0
1, 2928, Note_on_c, 0, 76, 70
1, 2928, Note_on_c, 1, 68, 64
1, 2928, Note_on_c, 1, 64, 64
1, 2948, Note_on_c, 0, 76, 0
1, 2973, Note_on_c, 1, 68, 0
1, 2973, Note_on_c, 1, 64, 0
1, 3072, Note_on_c, 0, 73, 64
1, 3078, Note_on_c, 0, 73, 0
1, 3078, Note_on_c, 0, 71, 64
1, 3084, Note_on_c, 0, 71, 0
1, 3084, Note_on_c, 0, 69, 64
1, 3090, Note_on_c, 0, 69, 0
1, 3090, Note_on_c, 0, 71, 64
1, 3120, Note_on_c, 1, 66, 64
1, 3120, Note_on_c, 1, 63, 64
1, 3161, Note_on_c, 0, 71, 0
1, 3165, Note_on_c, 1, 66, 0
1, 3165, Note_on_c, 1, 63, 0
1, 3168, Note_on_c, 0, 70, 64
1, 3191, Note_on_c, 0, 70, 0
1, 3192, Note_on_c, 0, 71, 64
1, 3215, Note_on_c, 0, 71, 0
1, 3216, Note_on_c, 0, 73, 64
1, 3216, Note_on_c, 1, 66, 64
1, 3216, Note_on_c, 1, 63, 64
1, 3239, Note_on_c, 0, 73, 0
1, 3240, Note_on_c, 0, 71, 64
1, 3261, Note_on_c, 1, 66, 0
1, 3261, Note_on_c, 1, 63, 0
1, 3263, Note_on_c, 0, 71, 0
1, 3264, Note_on_c, 0, 71, 65
1, 3312, Note_on_c, 1, 66, 64
1, 3312, Note_on_c, 1, 63, 64
1, 3357, Note_on_c, 1, 66, 0
1, 3357, Note_on_c, 1, 63, 0
1, 3360, Note_on_c, 1, 66, 64
1, 3360, Note_on_c, 1, 63, 64
1, 3397, Note_on_c, 0, 71, 0
1, 3405, Note_on_c, 1, 66, 0
1, 3405, Note_on_c, 1, 63, 0
1, 3408, Note_on_c, 0, 72, 67
1, 3408, Note_on_c, 1, 66, 64
1, 3408, Note_on_c, 1, 63, 64
1, 3453, Note_on_c, 0, 72, 0
1, 3453, Note_on_c, 1, 66, 0
1, 3453, Note_on_c, 1, 63, 0
1, 3456, Note_on_c, 0, 75, 67
1, 3462, Note_on_c, 0, 75, 0
1, 3462, Note_on_c, 0, 73, 67
1, 3468, Note_on_c, 0, 73, 0
1, 3468, Note_on_c, 0, 71, 67
1, 3474, Note_on_c, 0, 71, 0
1, 3474, Note_on_c, 0, 73, 67
1, 3504, Note_on_c, 1, 68, 64
1, 3504, Note_on_c, 1, 64, 64
1, 3545, Note_on_c, 0, 73, 0
1, 3549, Note_on_c, 1, 68, 0
1, 3549, Note_on_c, 1, 64, 0
1, 3552, Note_on_c, 0, 72, 68
1, 3575, Note_on_c, 0, 72, 0
1, 3576, Note_on_c, 0, 73, 69
1, 3599, Note_on_c, 0, 73, 0
1, 3600, Note_on_c, 0, 75, 69
1, 3600, Note_on_c, 1, 68, 64
1, 3600, Note_on_c, 1, 64, 64
1, 3623, Note_on_c, 0, 75, 0
1, 3624, Note_on_c, 0, 73, 69
1, 3645, Note_on_c, 1, 68, 0
1, 3645, Note_on_c, 1, 64, 0
1, 3647, Note_on_c, 0, 73, 0
1, 3648, Note_on_c, 0, 73, 70
1, 3696, Note_on_c, 1, 68, 64
1, 3696, Note_on_c, 1, 65, 64
1, 3741, Note_on_c, 1, 68, 0
1, 3741, Note_on_c, 1, 65, 0
1, 3744, Note_on_c, 1, 68, 64
1, 3744, Note_on_c, 1, 65, 64
1, 3781, Note_on_c, 0, 73, 0
1, 3789, Note_on_c, 1, 68, 0
1, 3789, Note_on_c, 1, 65, 0
1, 3792, Note_on_c, 0, 74, 71
1, 3792, Note_on_c, 1, 68, 64
1, 3792, Note_on_c, 1, 65, 64
1, 3837, Note_on_c, 0, 74, 0
1, 3837, Note_on_c, 1, 68, 0
1, 3837, Note_on_c, 1, 65, 0
1, 3840, Note_on_c, 0, 76, 72
1, 3846, Note_on_c, 0, 76, 0
1, 3846, Note_on_c, 0, 75, 72
1, 3852, Note_on_c, 0, 75, 0
1, 3852, Note_on_c, 0, 73, 72
1, 3858, Note_on_c, 0, 73, 0
1, 3858, Note_on_c, 0, 75, 72
1, 3888, Note_on_c, 1, 70, 64
1, 3888, Note_on_c, 1, 66, 64
1, 3929, Note_on_c, 0, 75, 0
1, 3933, Note_on_c, 1, 70, 0
1, 3933, Note_on_c, 1, 66, 0
1, 3936, Note_on_c, 0, 74, 73
1, 3959, Note_on_c, 0, 74, 0
1, 3960, Note_on_c, 0, 75, 73
1, 3983, Note_on_c, 0, 75, 0
1, 3984, Note_on_c, 0, 76, 74
1, 3984, Note_on_c, 1, 70, 64
1, 3984, Note_on_c, 1, 66, 64
1, 4007, Note_on_c, 0, 76, 0
1, 4008, Note_on_c, 0, 75, 74
1, 4029, Note_on_c, 1, 70, 0
1, 4029, Note_on_c, 1, 66, 0
1, 4031, Note_on_c, 0, 75, 0
1, 4032, Note_on_c, 0, 75, 74
1, 4080, Note_on_c, 1, 70, 64
1, 4080, Note_on_c, 1, 66, 64
1, 4125, Note_on_c, 1, 70, 0
1, 4125, Note_on_c, 1, 66, 0
1, 4128, Note_on_c, 1, 70, 64
1, 4128, Note_on_c, 1, 66, 64
1, 4173, Note_on_c, 1, 70, 0
1, 4173, Note_on_c, 1, 66, 0
1, 4176, Note_on_c, 1, 70, 64
1, 4176, Note_on_c, 1, 66, 64
1, 4195, Note_on_c, 0, 75, 0
1, 4200, Note_on_c, 0, 78, 76
1, 4210, Note_on_c, 0, 78, 0
1, 4221, Note_on_c, 1, 70, 0
1, 4221, Note_on_c, 1, 66, 0
1, 4224, Note_on_c, 0, 78, 77
1, 4224, Note_on_c, 1, 68, 64
1, 4247, Note_on_c, 1, 68, 0
1, 4248, Note_on_c, 0, 78, 0
1, 4248, Note_on_c, 0, 76, 77
1, 4248, Note_on_c, 1, 71, 64
1, 4271, Note_on_c, 0, 76, 0
1, 4271, Note_on_c, 1, 71, 0
1, 4272, Note_on_c, 0, 76, 77
1, 4272, Note_on_c, 1, 66, 64
1, 4295, Note_on_c, 1, 66, 0
1, 4296, Note_on_c, 0, 76, 0
1, 4296, Note_on_c, 0, 75, 78
1, 4296, Note_on_c, 1, 71, 64
1, 4319, Note_on_c, 0, 75, 0
1, 4319, Note_on_c, 1, 71, 0
1, 4320, Note_on_c, 0, 75, 78
1, 4320, Note_on_c, 1, 64, 64
1, 4343, Note_on_c, 1, 64, 0
1, 4344, Note_on_c, 0, 75, 0
1, 4344, Note_on_c, 0, 73, 78
1, 4344, Note_on_c, 1, 71, 64
1, 4367, Note_on_c, 0, 73, 0
1, 4367, Note_on_c, 1, 71, 0
1, 4368, Note_on_c, 0, 73, 79
1, 4368, Note_on_c, 1, 66, 64
1, 4391, Note_on_c, 1, 66, 0
1, 4392, Note_on_c, 0, 73, 0
1, 4392, Note_on_c, 0, 75, 79
1, 4392, Note_on_c, 1, 71, 64
1, 4415, Note_on_c, 0, 75, 0
1, 4415, Note_on_c, 1, 71, 0
1, 4416, Note_on_c, 0, 78, 79
1, 4416, Note_on_c, 1, 68, 64
1, 4439, Note_on_c, 1, 68, 0
1, 4440, Note_on_c, 0, 78, 0
1, 4440, Note_on_c, 0, 76, 80
1, 4440, Note_on_c, 1, 71, 64
1, 4463, Note_on_c, 0, 76, 0
1, 4463, Note_on_c, 1, 71, 0
1, 4464, Note_on_c, 0, 76, 80
1, 4464, Note_on_c, 1, 66, 64
1, 4487, Note_on_c, 1, 66, 0
1, 4488, Note_on_c, 0, 76, 0
1, 4488, Note_on_c, 0, 75, 80
1, 4488, Note_on_c, 1, 71, 64
1, 4511, Note_on_c, 0, 75, 0
1, 4511, Note_on_c, 1, 71, 0
1, 4512, Note_on_c, 0, 75, 80
1, 4512, Note_on_c, 1, 64, 64
1, 4535, Note_on_c, 1, 64, 0
1, 4536, Note_on_c, 0, 75, 0
1, 4536, Note_on_c, 0, 73, 80
1, 4536, Note_on_c, 1, 71, 64
1, 4559, Note_on_c, 0, 73, 0
1, 4559, Note_on_c, 1, 71, 0
1, 4560, Note_on_c, 0, 73, 80
1, 4560, Note_on_c, 1, 66, 64
1, 4583, Note_on_c, 1, 66, 0
1, 4584, Note_on_c, 0, 73, 0
1, 4584, Note_on_c, 0, 75, 80
1, 4584, Note_on_c, 1, 71, 64
1, 4607, Note_on_c, 0, 75, 0
1, 4607, Note_on_c, 1, 71, 0
1, 4608, Note_on_c, 0, 78, 80
1, 4608, Note_on_c, 1, 68, 64
1, 4631, Note_on_c, 1, 68, 0
1, 4632, Note_on_c, 0, 78, 0
1, 4632, Note_on_c, 0, 76, 80
1, 4632, Note_on_c, 1, 71, 64
1, 4655, Note_on_c, 0, 76, 0
1, 4655, Note_on_c, 1, 71, 0
1, 4656, Note_on_c, 0, 76, 80
1, 4656, Note_on_c, 1, 66, 64
1, 4679, Note_on_c, 1, 66, 0
1, 4680, Note_on_c, 0, 76, 0
1, 4680, Note_on_c, 0, 75, 80
1, 4680, Note_on_c, 1, 71, 64
1, 4703, Note_on_c, 0, 75, 0
1, 4703, Note_on_c, 1, 71, 0
1, 4704, Note_on_c, 0, 75, 80
1, 4704, Note_on_c, 1, 65, 64
1, 4727, Note_on_c, 1, 65, 0
1, 4728, Note_on_c, 0, 75, 0
1, 4728, Note_on_c, 0, 73, 80
1, 4728, Note_on_c, 1, 71, 64
1, 4751, Note_on_c, 0, 73, 0
1, 4751, Note_on_c, 1, 71, 0
1, 4752, Note_on_c, 0, 73, 80
1, 4752, Note_on_c, 1, 65, 64
1, 4762, Note_on_c, 0, 73, 0
1, 4775, Note_on_c, 1, 65, 0
1, 4776, Note_on_c, 0, 80, 80
1, 4776, Note_on_c, 1, 71, 64
1, 4786, Note_on_c, 0, 80, 0
1, 4799, Note_on_c, 1, 71, 0
1, 4800, Note_on_c, 0, 75, 80
1, 4800, Note_on_c, 1, 65, 64
1, 4823, Note_on_c, 1, 65, 0
1, 4824, Note_on_c, 0, 75, 0
1, 4824, Note_on_c, 0, 73, 80
1, 4824, Note_on_c, 1, 71, 64
1, 4847, Note_on_c, 0, 73, 0
1, 4847, Note_on_c, 1, 71, 0
1, 4848, Note_on_c, 0, 73, 80
1, 4848, Note_on_c, 1, 65, 64
1, 4858, Note_on_c, 0, 73, 0
1, 4871, Note_on_c, 1, 65, 0
1, 4872, Note_on_c, 0, 80, 80
1, 4872, Note_on_c, 1, 71, 64
1, 4882, Note_on_c, 0, 80, 0
1, 4895, Note_on_c, 1, 71, 0
1, 4896, Note_on_c, 0, 75, 80
1, 4896, Note_on_c, 1, 65, 64
1, 4919, Note_on_c, 1, 65, 0
1, 4920, Note_on_c, 0, 75, 0
1, 4920, Note_on_c, 0, 73, 80
1, 4920, Note_on_c, 1, 71, 64
1, 4943, Note_on_c, 0, 73, 0
1, 4943, Note_on_c, 1, 71, 0
1, 4944, Note_on_c, 0, 73, 80
1, 4944, Note_on_c, 1, 65, 64
1, 4954, Note_on_c, 0, 73, 0
1, 4967, Note_on_c, 1, 65, 0
1, 4968, Note_on_c, 0, 80, 80
1, 4968, Note_on_c, 1, 71, 64
1, 4978, Note_on_c, 0, 80, 0
1, 4992, Note_on_c, 0, 73, 80
1, 4992, Note_on_c, 1, 66, 64
1, 5081, Note_on_c, 1, 71, 0
1, 5088, Note_on_c, 1, 70, 64
1, 5111, Note_on_c, 0, 73, 0
1, 5112, Note_on_c, 0, 75, 80
1, 5135, Note_on_c, 0, 75, 0
1, 5136, Note_on_c, 0, 76, 80
1, 5159, Note_on_c, 0, 76, 0
1, 5160, Note_on_c, 0, 75, 80
1, 5169, Note_on_c, 1, 66, 0
1, 5177, Note_on_c, 1, 70, 0
1, 5183, Note_on_c, 0, 75, 0
1, 5184, Note_on_c, 0, 78, 80
1, 5207, Note_on_c, 0, 78, 0
1, 5208, Note_on_c, 0, 76, 80
1, 5231, Note_on_c, 0, 76, 0
1, 5232, Note_on_c, 0, 75, 80
1, 5255, Note_on_c, 0, 75, 0
1, 5256, Note_on_c, 0, 73, 80
1, 5279, Note_on_c, 0, 73, 0
1, 5280, Note_on_c, 0, 71, 80
1, 5303, Note_on_c, 0, 71, 0
1, 5304, Note_on_c, 0, 70, 80
1, 5327, Note_on_c, 0, 70, 0
1, 5328, Note_on_c, 0, 76, 80
1, 5351, Note_on_c, 0, 76, 0
1, 5352, Note_on_c, 0, 73, 80
1, 5375, Note_on_c, 0, 73, 0
1, 5376, Note_on_c, 0, 70, 80
1, 5399, Note_on_c, 0, 70, 0
1, 5400, Note_on_c, 0, 67, 80
1, 5423, Note_on_c, 0, 67, 0
1, 5424, Note_on_c, 0, 76, 80
1, 5447, Note_on_c, 0, 76, 0
1, 5448, Note_on_c, 0, 73, 80
1, 5471, Note_on_c, 0, 73, 0
1, 5472, Note_on_c, 0, 70, 80
1, 5472, Note_on_c, 1, 64, 64
1, 5495, Note_on_c, 0, 70, 0
1, 5496, Note_on_c, 0, 67, 80
1, 5519, Note_on_c, 0, 67, 0
1, 5520, Note_on_c, 0, 76, 80
1, 5543, Note_on_c, 0, 76, 0
1, 5544, Note_on_c, 0, 73, 80
1, 5561, Note_on_c, 1, 64, 0
1, 5567, Note_on_c, 0, 73, 0
1, 5568, Note_on_c, 0, 70, 80
1, 5568, Note_on_c, 1, 61, 64
1, 5591, Note_on_c, 0, 70, 0
1, 5592, Note_on_c, 0, 67, 80
1, 5615, Note_on_c, 0, 67, 0
1, 5616, Note_on_c, 0, 76, 80
1, 5639, Note_on_c, 0, 76, 0
1, 5640, Note_on_c, 0, 73, 80
1, 5657, Note_on_c, 1, 61, 0
1, 5663, Note_on_c, 0, 73, 0
1, 5664, Note_on_c, 0, 70, 80
1, 5664, Note_on_c, 1, 58, 64
1, 5687, Note_on_c, 0, 70, 0
1, 5688, Note_on_c, 0, 67, 80
1, 5711, Note_on_c, 0, 67, 0
1, 5712, Note_on_c, 0, 76, 80
1, 5727, Note_on_c, 0, 76, 0
1, 5728, Note_on_c, 0, 73, 80
1, 5743, Note_on_c, 0, 73, 0
1, 5744, Note_on_c, 0, 70, 80
1, 5753, Note_on_c, 1, 58, 0
1, 5759, Note_on_c, 0, 70, 0
1, 5760, Note_on_c, 0, 66, 80
1, 5760, Note_on_c, 1, 54, 64
1, 5816, Note_on_c, 0, 66, 0
1, 5816, Note_on_c, 0, 70, 80
1, 5816, Note_on_c, 1, 54, 0
1, 5816, Note_on_c, 1, 58, 64
1, 5824, Note_on_c, 0, 70, 0
1, 5824, Note_on_c, 0, 73, 80
1, 5824, Note_on_c, 1, 58, 0
1, 5824, Note_on_c, 1, 61, 64
1, 5832, Note_on_c, 0, 73, 0
1, 5832, Note_on_c, 0, 76, 80
1, 5832, Note_on_c, 1, 61, 0
1, 5832, Note_on_c, 1, 64, 64
1, 5840, Note_on_c, 0, 76, 0
1, 5840, Note_on_c, 0, 73, 80
1, 5840, Note_on_c, 1, 64, 0
1, 5840, Note_on_c, 1, 61, 64
1, 5848, Note_on_c, 0, 73, 0
1, 5848, Note_on_c, 0, 70, 80
1, 5848, Note_on_c, 1, 61, 0
1, 5848, Note_on_c, 1, 58, 64
1, 5856, Note_on_c, 0, 70, 0
1, 5856, Note_on_c, 0, 66, 80
1, 5856, Note_on_c, 1, 58, 0
1, 5856, Note_on_c, 1, 54, 64
1, 5901, Note_on_c, 0, 66, 0
1, 5901, Note_on_c, 1, 54, 0
1, 5904, Note_on_c, 0, 82, 80
1, 5904, Note_on_c, 0, 73, 80
1, 5904, Note_on_c, 1, 64, 64
1, 5924, Note_on_c, 0, 82, 0
1, 5924, Note_on_c, 0, 73, 0
1, 5924, Note_on_c, 1, 64, 0
1, 5952, Note_on_c, 0, 82, 96
1, 5952, Note_on_c, 0, 73, 96
1, 5952, Note_on_c, 1, 64, 64
1, 6048, Note_on_c, 0, 82, 0
1, 6048, Note_on_c, 0, 73, 0
1, 6048, Note_on_c, 0, 83, 80
1, 6048, Note_on_c, 0, 71, 80
1, 6048, Note_on_c, 1, 64, 0
1, 6048, Note_on_c, 1, 63, 64
1, 6068, Note_on_c, 0, 83, 0
1, 6068, Note_on_c, 0, 71, 0
1, 6068, Note_on_c, 1, 63, 0
1, 6096, Note_on_c, 0, 75, 64
1, 6119, Note_on_c, 0, 75, 0
1, 6120, Note_on_c, 0, 81, 64
1, 6143, Note_on_c, 0, 81, 0
1, 6144, Note_on_c, 0, 76, 64
1, 6167, Note_on_c, 0, 76, 0
1, 6168, Note_on_c, 0, 80, 64
1, 6191, Note_on_c, 0, 80, 0
1, 6192, Note_on_c, 0, 72, 64
1, 6215, Note_on_c, 0, 72, 0
1, 6216, Note_on_c, 0, 78, 64
1, 6239, Note_on_c, 0, 78, 0
1, 6240, Note_on_c, 0, 73, 64
1, 6263, Note_on_c, 0, 73, 0
1, 6264, Note_on_c, 0, 76, 64
1, 6287, Note_on_c, 0, 76, 0
1, 6288, Note_on_c, 0, 63, 64
1, 6311, Note_on_c, 0, 63, 0
1, 6312, Note_on_c, 0, 72, 64
1, 6335, Note_on_c, 0, 72, 0
1, 6336, Note_on_c, 0, 64, 64
1, 6359, Note_on_c, 0, 64, 0
1, 6360, Note_on_c, 0, 73, 64
1, 6383, Note_on_c, 0, 73, 0
1, 6384, Note_on_c, 0, 68, 64
1, 6407, Note_on_c, 0, 68, 0
1, 6408, Note_on_c, 0, 76, 64
1, 6431, Note_on_c, 0, 76, 0
1, 6432, Note_on_c, 0, 66, 64
1, 6455, Note_on_c, 0, 66, 0
1, 6456, Note_on_c, 0, 71, 64
1, 6479, Note_on_c, 0, 71, 0
1, 6480, Note_on_c, 0, 64, 64
1, 6503, Note_on_c, 0, 64, 0
1, 6504, Note_on_c, 0, 70, 64
1, 6527, Note_on_c, 0, 70, 0
1, 6528, Note_on_c, 0, 66, 80
1, 6528, Note_on_c, 1, 54, 80
1, 6584, Note_on_c, 0, 66, 0
1, 6584, Note_on_c, 0, 70, 80
1, 6584, Note_on_c, 1, 54, 0
1, 6584, Note_on_c, 1, 58, 80
1, 6592, Note_on_c, 0, 70, 0
1, 6592, Note_on_c, 0, 73, 80
1, 6592, Note_on_c, 1, 58, 0
1, 6592, Note_on_c, 1, 61, 80
1, 6600, Note_on_c, 0, 73, 0
1, 6600, Note_on_c, 0, 76, 80
1, 6600, Note_on_c, 1, 61, 0
1, 6600, Note_on_c, 1, 64, 80
1, 6608, Note_on_c, 0, 76, 0
1, 6608, Note_on_c, 0, 73, 80
1, 6608, Note_on_c, 1, 64, 0
1, 6608, Note_on_c, 1, 61, 80
1, 6616, Note_on_c, 0, 73, 0
1, 6616, Note_on_c, 0, 70, 80
1, 6616, Note_on_c, 1, 61, 0
1, 6616, Note_on_c, 1, 58, 80
1, 6624, Note_on_c, 0, 70, 0
1, 6624, Note_on_c, 0, 66, 80
1, 6624, Note_on_c, 1, 58, 0
1, 6624, Note_on_c, 1, 54, 80
1, 6669, Note_on_c, 0, 66, 0
1, 6669, Note_on_c, 1, 54, 0
1, 6672, Note_on_c, 0, 82, 80
1, 6672, Note_on_c, 0, 73, 80
1, 6672, Note_on_c, 1, 67, 80
1, 6672, Note_on_c, 1, 64, 80
1, 6692, Note_on_c, 0, 82, 0
1, 6692, Note_on_c, 0, 73, 0
1, 6692, Note_on_c, 1, 67, 0
1, 6692, Note_on_c, 1, 64, 0
1, 6720, Note_on_c, 0, 82, 96
1, 6720, Note_on_c, 0, 73, 96
1, 6720, Note_on_c, 1, 67, 80
1, 6720, Note_on_c, 1, 64, 80
1, 6816, Note_on_c, 0, 82, 0
1, 6816, Note_on_c, 0, 73, 0
1, 6816, Note_on_c, 0, 83, 80
1, 6816, Note_on_c, 0, 71, 80
1, 6816, Note_on_c, 1, 67, 0
1, 6816, Note_on_c, 1, 64, 0
1, 6816, Note_on_c, 1, 66, 80
1, 6816, Note_on_c, 1, 63, 80
1, 6836, Note_on_c, 0, 83, 0
1, 6836, Note_on_c, 0, 71, 0
1, 6836, Note_on_c, 1, 66, 0
1, 6836, Note_on_c, 1, 63, 0
1, 6864, Note_on_c, 0, 63, 86
1, 6866, Note_on_c, 0, 66, 86
1, 6868, Note_on_c, 0, 71, 86
1, 6870, Note_on_c, 0, 78, 86
1, 6872, Note_on_c, 0, 81, 86
1, 6884, Note_on_c, 0, 81, 0
1, 6884, Note_on_c, 0, 78, 0
1, 6884, Note_on_c, 0, 71, 0
1, 6884, Note_on_c, 0, 66, 0
1, 6884, Note_on_c, 0, 63, 0
1, 6912, Note_on_c, 0, 64, 80
1, 6914, Note_on_c, 0, 68, 80
1, 6916, Note_on_c, 0, 71, 80
1, 6918, Note_on_c, 0, 76, 80
1, 6920, Note_on_c, 0, 80, 80
1, 6932, Note_on_c, 0, 80, 0
1, 6932, Note_on_c, 0, 76, 0
1, 6932, Note_on_c, 0, 71, 0
1, 6932, Note_on_c, 0, 68, 0
1, 6932, Note_on_c, 0, 64, 0
1, 6960, Note_on_c, 0, 66, 75
1, 6962, Note_on_c, 0, 69, 75
1, 6964, Note_on_c, 0, 71, 75
1, 6966, Note_on_c, 0, 75, 75
1, 6968, Note_on_c, 0, 78, 75
1, 6980, Note_on_c, 0, 78, 0
1, 6980, Note_on_c, 0, 75, 0
1, 6980, Note_on_c, 0, 71, 0
1, 6980, Note_on_c, 0, 69, 0
1, 6980, Note_on_c, 0, 66, 0
1, 7008, Note_on_c, 0, 75, 75
1, 7008, Note_on_c, 1, 71, 80
1, 7008, Note_on_c, 1, 68, 80
1, 7020, Note_on_c, 0, 75, 0
1, 7020, Note_on_c, 0, 76, 75
1, 7053, Note_on_c, 0, 76, 0
1, 7056, Note_on_c, 0, 80, 75
1, 7071, Note_on_c, 0, 80, 0
1, 7072, Note_on_c, 0, 76, 75
1, 7087, Note_on_c, 0, 76, 0
1, 7088, Note_on_c, 0, 73, 75
1, 7097, Note_on_c, 1, 71, 0
1, 7097, Note_on_c, 1, 68, 0
1, 7103, Note_on_c, 0, 73, 0
1, 7104, Note_on_c, 0, 75, 91
1, 7104, Note_on_c, 0, 71, 91
1, 7200, Note_on_c, 0, 71, 0
1, 7200, Note_on_c, 0, 78, 75
1, 7200, Note_on_c, 1, 54, 80
1, 7245, Note_on_c, 0, 78, 0
1, 7245, Note_on_c, 0, 75, 0
1, 7248, Note_on_c, 0, 70, 75
1, 7248, Note_on_c, 0, 64, 75
1, 7289, Note_on_c, 1, 54, 0
1, 7293, Note_on_c, 0, 70, 0
1, 7293, Note_on_c, 0, 64, 0
1, 7296, Note_on_c, 0, 71, 75
1, 7296, Note_on_c, 0, 63, 75
1, 7296, Note_on_c, 1, 47, 80
1, 7385, Note_on_c, 0, 71, 0
1, 7385, Note_on_c, 0, 63, 0
1, 7385, Note_on_c, 1, 47, 0
1, 7392, Note_on_c, 0, 59, 64
1, 7416, Note_on_c, 0, 59, 0
1, 7416, Note_on_c, 0, 58, 64
1, 7439, Note_on_c, 0, 58, 0
1, 7440, Note_on_c, 0, 59, 64
1, 7440, Note_on_c, 1, 51, 64
1, 7464, Note_on_c, 0, 59, 0
1, 7464, Note_on_c, 0, 63, 64
1, 7485, Note_on_c, 1, 51, 0
1, 7487, Note_on_c, 0, 63, 0
1, 7488, Note_on_c, 0, 63, 64
1, 7488, Note_on_c, 1, 52, 64
1, 7512, Note_on_c, 0, 63, 0
1, 7512, Note_on_c, 0, 56, 64
1, 7535, Note_on_c, 0, 56, 0
1, 7536, Note_on_c, 0, 56, 64
1, 7560, Note_on_c, 0, 56, 0
1, 7560, Note_on_c, 0, 64, 64
1, 7583, Note_on_c, 0, 64, 0
1, 7584, Note_on_c, 0, 64, 64
1, 7584, Note_on_c, 1, 52, 0
1, 7584, Note_on_c, 1, 54, 64
1, 7608, Note_on_c, 0, 64, 0
1, 7608, Note_on_c, 0, 58, 64
1, 7631, Note_on_c, 0, 58, 0
1, 7632, Note_on_c, 0, 58, 64
1, 7656, Note_on_c, 0, 58, 0
1, 7656, Note_on_c, 0, 66, 64
1, 7673, Note_on_c, 1, 54, 0
1, 7679, Note_on_c, 0, 66, 0
1, 7680, Note_on_c, 0, 64, 64
1, 7680, Note_on_c, 1, 56, 64
1, 7704, Note_on_c, 0, 64, 0
1, 7704, Note_on_c, 0, 63, 64
1, 7725, Note_on_c, 1, 56, 0
1, 7727, Note_on_c, 0, 63, 0
1, 7728, Note_on_c, 0, 71, 64
1, 7728, Note_on_c, 1, 63, 64
1, 7752, Note_on_c, 0, 71, 0
1, 7752, Note_on_c, 0, 70, 64
1, 7773, Note_on_c, 1, 63, 0
1, 7775, Note_on_c, 0, 70, 0
1, 7776, Note_on_c, 0, 70, 64
1, 7776, Note_on_c, 1, 61, 64
1, 7800, Note_on_c, 0, 70, 0
1, 7800, Note_on_c, 0, 68, 64
1, 7821, Note_on_c, 1, 61, 0
1, 7823, Note_on_c, 0, 68, 0
1, 7824, Note_on_c, 0, 68, 64
1, 7824, Note_on_c, 1, 59, 64
1, 7848, Note_on_c, 0, 68, 0
1, 7848, Note_on_c, 0, 66, 64
1, 7869, Note_on_c, 1, 59, 0
1, 7871, Note_on_c, 0, 66, 0
1, 7872, Note_on_c, 0, 66, 64
1, 7872, Note_on_c, 1, 58, 64
1, 7896, Note_on_c, 0, 66, 0
1, 7896, Note_on_c, 0, 64, 64
1, 7917, Note_on_c, 1, 58, 0
1, 7919, Note_on_c, 0, 64, 0
1, 7920, Note_on_c, 0, 64, 64
1, 7920, Note_on_c, 1, 56, 64
1, 7944, Note_on_c, 0, 64, 0
1, 7944, Note_on_c, 0, 63, 64
1, 7965, Note_on_c, 1, 56, 0
1, 7967, Note_on_c, 0, 63, 0
1, 7968, Note_on_c, 0, 63, 64
1, 7968, Note_on_c, 1, 54, 64
1, 7992, Note_on_c, 0, 63, 0
1, 7992, Note_on_c, 0, 61, 64
1, 8013, Note_on_c, 1, 54, 0
1, 8015, Note_on_c, 0, 61, 0
1, 8016, Note_on_c, 0, 61, 64
1, 8016, Note_on_c, 1, 52, 64
1, 8040, Note_on_c, 0, 61, 0
1, 8040, Note_on_c, 0, 59, 64
1, 8061, Note_on_c, 1, 52, 0
1, 8063, Note_on_c, 0, 59, 0
1, 8064, Note_on_c, 0, 59, 64
1, 8064, Note_on_c, 1, 51, 64
1, 8109, Note_on_c, 1, 51, 0
1, 8112, Note_on_c, 1, 53, 64
1, 8157, Note_on_c, 1, 53, 0
1, 8160, Note_on_c, 1, 54, 64
1, 8197, Note_on_c, 0, 59, 0
1, 8205, Note_on_c, 1, 54, 0
1, 8208, Note_on_c, 0, 63, 64
1, 8208, Note_on_c, 1, 42, 64
1, 8214, Note_on_c, 0, 63, 0
1, 8214, Note_on_c, 0, 61, 64
1, 8231, Note_on_c, 0, 61, 0
1, 8232, Note_on_c, 0, 59, 64
1, 8253, Note_on_c, 1, 42, 0
1, 8255, Note_on_c, 0, 59, 0
1, 8256, Note_on_c, 0, 59, 64
1, 8256, Note_on_c, 1, 44, 64
1, 8323, Note_on_c, 0, 59, 0
1, 8328, Note_on_c, 0, 64, 64
1, 8340, Note_on_c, 0, 64, 0
1, 8340, Note_on_c, 0, 68, 64
1, 8345, Note_on_c, 1, 44, 0
1, 8352, Note_on_c, 0, 68, 0
1, 8352, Note_on_c, 0, 71, 75
1, 8372, Note_on_c, 0, 71, 0
1, 8400, Note_on_c, 0, 71, 75
1, 8420, Note_on_c, 0, 71, 0
1, 8448, Note_on_c, 0, 71, 75
1, 8487, Note_on_c, 0, 71, 0
1, 8592, Note_on_c, 0, 68, 64
1, 8604, Note_on_c, 0, 68, 0
1, 8604, Note_on_c, 0, 64, 64
1, 8638, Note_on_c, 0, 64, 0
1, 8640, Note_on_c, 0, 66, 64
1, 8652, Note_on_c, 0, 66, 0
1, 8652, Note_on_c, 0, 63, 64
1, 8686, Note_on_c, 0, 63, 0
1, 8688, Note_on_c, 0, 64, 64
1, 8700, Note_on_c, 0, 64, 0
1, 8700, Note_on_c, 0, 61, 64
1, 8734, Note_on_c, 0, 61, 0
1, 8736, Note_on_c, 0, 63, 64
1, 8748, Note_on_c, 0, 63, 0
1, 8748, Note_on_c, 0, 59, 64
1, 8782, Note_on_c, 0, 59, 0
1, 8784, Note_on_c, 0, 58, 64
1, 8784, Note_on_c, 1, 42, 64
1, 8796, Note_on_c, 0, 58, 0
1, 8796, Note_on_c, 0, 52, 64
1, 8829, Note_on_c, 1, 42, 0
1, 8830, Note_on_c, 0, 52, 0
1, 8832, Note_on_c, 1, 59, 64
1, 8832, Note_on_c, 1, 51, 64
1, 8832, Note_on_c, 1, 47, 64
1, 8832, Note_on_c, 1, 35, 64
1, 8877, Note_on_c, 1, 59, 0
1, 8877, Note_on_c, 1, 51, 0
1, 8877, Note_on_c, 1, 47, 0
1, 8877, Note_on_c, 1, 35, 0
1, 8880, Note_on_c, 1, 58, 64
1, 8880, Note_on_c, 1, 42, 64
1, 8892, Note_on_c, 1, 58, 0
1, 8892, Note_on_c, 1, 52, 64
1, 8925, Note_on_c, 1, 42, 0
1, 8926, Note_on_c, 1, 52, 0
1, 8928, Note_on_c, 1, 59, 64
1, 8928, Note_on_c, 1, 51, 64
1, 8928, Note_on_c, 1, 47, 64
1, 8928, Note_on_c, 1, 35, 64
1, 8973, Note_on_c, 1, 59, 0
1, 8973, Note_on_c, 1, 51, 0
1, 8973, Note_on_c, 1, 47, 0
1, 8973, Note_on_c, 1, 35, 0
1, 8976, Note_on_c, 1, 58, 64
1, 8976, Note_on_c, 1, 42, 64
1, 8988, Note_on_c, 1, 58, 0
1, 8988, Note_on_c, 1, 52, 64
1, 9021, Note_on_c, 1, 42, 0
1, 9022, Note_on_c, 1, 52, 0
1, 9024, Note_on_c, 1, 59, 64
1, 9024, Note_on_c, 1, 51, 64
1, 9024, Note_on_c, 1, 47, 64
1, 9024, Note_on_c, 1, 35, 64
1, 9113, Note_on_c, 1, 59, 0
1, 9113, Note_on_c, 1, 51, 0
1, 9113, Note_on_c, 1, 47, 0
1, 9113, Note_on_c, 1, 35, 0
1, 9216, Note_on_c, 0, 68, 80
1, 9216, Note_on_c, 1, 52, 80
1, 9222, Note_on_c, 1, 56, 80
1, 9224, Note_on_c, 0, 71, 80
1, 9228, Note_on_c, 1, 59, 80
1, 9232, Note_on_c, 0, 76, 80
1, 9234, Note_on_c, 1, 64, 80
1, 9309, Note_on_c, 0, 76, 0
1, 9309, Note_on_c, 0, 71, 0
1, 9309, Note_on_c, 0, 68, 0
1, 9309, Note_on_c, 1, 64, 0
1, 9309, Note_on_c, 1, 59, 0
1, 9309, Note_on_c, 1, 56, 0
1, 9309, Note_on_c, 1, 52, 0
1, 9312, Note_on_c, 0, 71, 75
1, 9335, Note_on_c, 0, 71, 0
1, 9336, Note_on_c, 0, 73, 75
1, 9344, Note_on_c, 0, 73, 0
1, 9344, Note_on_c, 0, 71, 75
1, 9352, Note_on_c, 0, 71, 0
1, 9352, Note_on_c, 0, 69, 75
1, 9360, Note_on_c, 0, 69, 0
1, 9360, Note_on_c, 0, 71, 75
1, 9360, Note_on_c, 1, 68, 75
1, 9383, Note_on_c, 0, 71, 0
1, 9384, Note_on_c, 0, 73, 75
1, 9405, Note_on_c, 1, 68, 0
1, 9407, Note_on_c, 0, 73, 0
1, 9408, Note_on_c, 0, 71, 75
1, 9408, Note_on_c, 1, 66, 75
1, 9431, Note_on_c, 0, 71, 0
1, 9432, Note_on_c, 0, 69, 75
1, 9455, Note_on_c, 0, 69, 0
1, 9456, Note_on_c, 0, 68, 75
1, 9456, Note_on_c, 1, 66, 0
1, 9456, Note_on_c, 1, 63, 75
1, 9479, Note_on_c, 0, 68, 0
1, 9480, Note_on_c, 0, 69, 75
1, 9501, Note_on_c, 1, 63, 0
1, 9503, Note_on_c, 0, 69, 0
1, 9504, Note_on_c, 0, 69, 75
1, 9504, Note_on_c, 1, 64, 75
1, 9527, Note_on_c, 0, 69, 0
1, 9528, Note_on_c, 0, 68, 75
1, 9549, Note_on_c, 1, 64, 0
1, 9551, Note_on_c, 0, 68, 0
1, 9552, Note_on_c, 0, 66, 75
1, 9552, Note_on_c, 1, 56, 75
1, 9575, Note_on_c, 0, 66, 0
1, 9576, Note_on_c, 0, 68, 75
1, 9597, Note_on_c, 1, 56, 0
1, 9599, Note_on_c, 0, 68, 0
1, 9600, Note_on_c, 0, 68, 75
1, 9600, Note_on_c, 1, 57, 75
1, 9623, Note_on_c, 0, 68, 0
1, 9624, Note_on_c, 0, 66, 75
1, 9645, Note_on_c, 1, 57, 0
1, 9647, Note_on_c, 0, 66, 0
1, 9648, Note_on_c, 0, 64, 75
1, 9648, Note_on_c, 1, 59, 75
1, 9671, Note_on_c, 0, 64, 0
1, 9672, Note_on_c, 0, 63, 75
1, 9693, Note_on_c, 1, 59, 0
1, 9695, Note_on_c, 0, 63, 0
1, 9696, Note_on_c, 0, 64, 75
1, 9696, Note_on_c, 1, 52, 75
1, 9741, Note_on_c, 0, 64, 0
1, 9741, Note_on_c, 1, 52, 0
1, 9744, Note_on_c, 0, 69, 75
1, 9744, Note_on_c, 0, 61, 64
1, 9764, Note_on_c, 0, 69, 0
1, 9789, Note_on_c, 0, 61, 0
1, 9792, Note_on_c, 0, 68, 75
1, 9792, Note_on_c, 0, 59, 64
1, 9812, Note_on_c, 0, 68, 0
1, 9837, Note_on_c, 0, 59, 0
1, 9840, Note_on_c, 0, 64, 64
1, 9855, Note_on_c, 0, 64, 0
1, 9856, Note_on_c, 0, 69, 64
1, 9871, Note_on_c, 0, 69, 0
1, 9872, Note_on_c, 0, 73, 64
1, 9887, Note_on_c, 0, 73, 0
1, 9888, Note_on_c, 0, 71, 75
1, 9888, Note_on_c, 0, 68, 64
1, 9908, Note_on_c, 0, 71, 0
1, 9933, Note_on_c, 0, 68, 0
1, 9984, Note_on_c, 0, 69, 80
1, 9984, Note_on_c, 1, 47, 80
1, 9990, Note_on_c, 0, 75, 80
1, 9990, Note_on_c, 1, 51, 80
1, 9996, Note_on_c, 0, 78, 80
1, 9996, Note_on_c, 1, 54, 80
1, 10002, Note_on_c, 0, 81, 80
1, 10002, Note_on_c, 1, 59, 80
1, 10077, Note_on_c, 0, 81, 0
1, 10077, Note_on_c, 0, 78, 0
1, 10077, Note_on_c, 0, 75, 0
1, 10077, Note_on_c, 0, 69, 0
1, 10077, Note_on_c, 1, 59, 0
1, 10077, Note_on_c, 1, 54, 0
1, 10077, Note_on_c, 1, 51, 0
1, 10077, Note_on_c, 1, 47, 0
1, 10080, Note_on_c, 0, 69, 75
1, 10103, Note_on_c, 0, 69, 0
1, 10104, Note_on_c, 0, 71, 75
1, 10112, Note_on_c, 0, 71, 0
1, 10112, Note_on_c, 0, 69, 75
1, 10120, Note_on_c, 0, 69, 0
1, 10120, Note_on_c, 0, 68, 75
1, 10128, Note_on_c, 0, 68, 0
1, 10128, Note_on_c, 0, 69, 75
1, 10128, Note_on_c, 1, 61, 75
1, 10151, Note_on_c, 0, 69, 0
1, 10152, Note_on_c, 0, 73, 75
1, 10173, Note_on_c, 1, 61, 0
1, 10175, Note_on_c, 0, 73, 0
1, 10176, Note_on_c, 0, 71, 75
1, 10176, Note_on_c, 1, 63, 75
1, 10199, Note_on_c, 0, 71, 0
1, 10200, Note_on_c, 0, 69, 75
1, 10221, Note_on_c, 1, 63, 0
1, 10223, Note_on_c, 0, 69, 0
1, 10224, Note_on_c, 0, 68, 75
1, 10224, Note_on_c, 1, 59, 75
1, 10247, Note_on_c, 0, 68, 0
1, 10248, Note_on_c, 0, 69, 75
1, 10269, Note_on_c, 1, 59, 0
1, 10271, Note_on_c, 0, 69, 0
1, 10272, Note_on_c, 0, 69, 75
1, 10272, Note_on_c, 1, 64, 75
1, 10295, Note_on_c, 0, 69, 0
1, 10296, Note_on_c, 0, 68, 75
1, 10317, Note_on_c, 1, 64, 0
1, 10319, Note_on_c, 0, 68, 0
1, 10320, Note_on_c, 0, 66, 75
1, 10320, Note_on_c, 1, 56, 75
1, 10343, Note_on_c, 0, 66, 0
1, 10344, Note_on_c, 0, 68, 75
1, 10365, Note_on_c, 1, 56, 0
1, 10367, Note_on_c, 0, 68, 0
1, 10368, Note_on_c, 0, 68, 75
1, 10368, Note_on_c, 1, 57, 75
1, 10391, Note_on_c, 0, 68, 0
1, 10392, Note_on_c, 0, 66, 75
1, 10415, Note_on_c, 0, 66, 0
1, 10416, Note_on_c, 0, 69, 75
1, 10439, Note_on_c, 0, 69, 0
1, 10440, Note_on_c, 0, 73, 75
1, 10457, Note_on_c, 1, 57, 0
1, 10463, Note_on_c, 0, 73, 0
1, 10464, Note_on_c, 0, 61, 75
1, 10509, Note_on_c, 0, 61, 0
1, 10512, Note_on_c, 0, 63, 75
1, 10512, Note_on_c, 0, 57, 75
1, 10512, Note_on_c, 1, 54, 75
1, 10512, Note_on_c, 1, 42, 75
1, 10532, Note_on_c, 0, 63, 0
1, 10532, Note_on_c, 0, 57, 0
1, 10532, Note_on_c, 1, 54, 0
1, 10532, Note_on_c, 1, 42, 0
1, 10560, Note_on_c, 0, 64, 75
1, 10560, Note_on_c, 0, 56, 75
1, 10560, Note_on_c, 1, 52, 75
1, 10560, Note_on_c, 1, 40, 75
1, 10599, Note_on_c, 0, 64, 0
1, 10599, Note_on_c, 0, 56, 0
1, 10599, Note_on_c, 1, 52, 0
1, 10599, Note_on_c, 1, 40, 0
1, 10752, Note_on_c, 0, 68, 80
1, 10752, Note_on_c, 1, 52, 80
1, 10758, Note_on_c, 1, 56, 80
1, 10760, Note_on_c, 0, 71, 80
1, 10764, Note_on_c, 1, 59, 80
1, 10768, Note_on_c, 0, 76, 80
1, 10770, Note_on_c, 1, 64, 80
1, 10820, Note_on_c, 0, 76, 0
1, 10820, Note_on_c, 0, 71, 0
1, 10820, Note_on_c, 0, 68, 0
1, 10824, Note_on_c, 0, 71, 75
1, 10845, Note_on_c, 1, 64, 0
1, 10845, Note_on_c, 1, 59, 0
1, 10845, Note_on_c, 1, 56, 0
1, 10845, Note_on_c, 1, 52, 0
1, 10847, Note_on_c, 0, 71, 0
1, 10848, Note_on_c, 0, 70, 75
1, 10871, Note_on_c, 0, 70, 0
1, 10872, Note_on_c, 0, 71, 75
1, 10895, Note_on_c, 0, 71, 0
1, 10896, Note_on_c, 0, 73, 75
1, 10896, Note_on_c, 1, 68, 75
1, 10919, Note_on_c, 0, 73, 0
1, 10920, Note_on_c, 0, 71, 75
1, 10941, Note_on_c, 1, 68, 0
1, 10943, Note_on_c, 0, 71, 0
1, 10944, Note_on_c, 0, 68, 75
1, 10944, Note_on_c, 1, 66, 75
1, 10967, Note_on_c, 0, 68, 0
1, 10968, Note_on_c, 0, 69, 75
1, 10991, Note_on_c, 0, 69, 0
1, 10992, Note_on_c, 0, 71, 75
1, 10992, Note_on_c, 1, 66, 0
1, 10992, Note_on_c, 1, 63, 75
1, 11015, Note_on_c, 0, 71, 0
1, 11016, Note_on_c, 0, 69, 75
1, 11037, Note_on_c, 1, 63, 0
1, 11039, Note_on_c, 0, 69, 0
1, 11040, Note_on_c, 0, 66, 75
1, 11040, Note_on_c, 1, 64, 75
1, 11063, Note_on_c, 0, 66, 0
1, 11064, Note_on_c, 0, 68, 75
1, 11085, Note_on_c, 1, 64, 0
1, 11087, Note_on_c, 0, 68, 0
1, 11088, Note_on_c, 0, 69, 75
1, 11088, Note_on_c, 1, 56, 75
1, 11111, Note_on_c, 0, 69, 0
1, 11112, Note_on_c, 0, 68, 75
1, 11133, Note_on_c, 1, 56, 0
1, 11135, Note_on_c, 0, 68, 0
1, 11136, Note_on_c, 0, 68, 75
1, 11136, Note_on_c, 1, 57, 75
1, 11159, Note_on_c, 0, 68, 0
1, 11160, Note_on_c, 0, 66, 75
1, 11181, Note_on_c, 1, 57, 0
1, 11183, Note_on_c, 0, 66, 0
1, 11184, Note_on_c, 0, 64, 75
1, 11184, Note_on_c, 1, 59, 75
1, 11207, Note_on_c, 0, 64, 0
1, 11208, Note_on_c, 0, 63, 75
1, 11229, Note_on_c, 1, 59, 0
1, 11231, Note_on_c, 0, 63, 0
1, 11232, Note_on_c, 0, 64, 75
1, 11232, Note_on_c, 1, 52, 75
1, 11277, Note_on_c, 0, 64, 0
1, 11277, Note_on_c, 1, 52, 0
1, 11280, Note_on_c, 0, 69, 75
1, 11280, Note_on_c, 0, 61, 75
1, 11325, Note_on_c, 0, 69, 0
1, 11325, Note_on_c, 0, 61, 0
1, 11328, Note_on_c, 0, 69, 75
1, 11328, Note_on_c, 0, 61, 75
1, 11376, Note_on_c, 1, 40, 75
1, 11421, Note_on_c, 1, 40, 0
1, 11424, Note_on_c, 0, 69, 0
1, 11424, Note_on_c, 0, 61, 0
1, 11424, Note_on_c, 0, 68, 75
1, 11424, Note_on_c, 0, 59, 75
1, 11424, Note_on_c, 1, 52, 75
1, 11444, Note_on_c, 0, 68, 0
1, 11444, Note_on_c, 0, 59, 0
1, 11469, Note_on_c, 1, 52, 0
1, 11472, Note_on_c, 0, 64, 75
1, 11487, Note_on_c, 0, 64, 0
1, 11488, Note_on_c, 0, 69, 75
1, 11503, Note_on_c, 0, 69, 0
1, 11504, Note_on_c, 0, 73, 75
1, 11519, Note_on_c, 0, 73, 0
1, 11520, Note_on_c, 0, 73, 75
1, 11520, Note_on_c, 0, 69, 75
1, 11568, Note_on_c, 1, 40, 75
1, 11613, Note_on_c, 1, 40, 0
1, 11616, Note_on_c, 0, 73, 0
1, 11616, Note_on_c, 0, 69, 0
1, 11616, Note_on_c, 0, 71, 75
1, 11616, Note_on_c, 0, 68, 75
1, 11616, Note_on_c, 1, 52, 75
1, 11636, Note_on_c, 0, 71, 0
1, 11636, Note_on_c, 0, 68, 0
1, 11661, Note_on_c, 1, 52, 0
1, 11664, Note_on_c, 0, 71, 70
1, 11687, Note_on_c, 0, 71, 0
1, 11688, Note_on_c, 0, 83, 70
1, 11698, Note_on_c, 0, 83, 0
1, 11712, Note_on_c, 0, 83, 86
1, 11760, Note_on_c, 1, 64, 64
1, 11760, Note_on_c, 1, 56, 64
1, 11780, Note_on_c, 1, 64, 0
1, 11780, Note_on_c, 1, 56, 0
1, 11808, Note_on_c, 1, 64, 64
1, 11808, Note_on_c, 1, 56, 64
1, 11855, Note_on_c, 1, 64, 0
1, 11855, Note_on_c, 1, 56, 0
1, 11856, Note_on_c, 0, 83, 0
1, 11856, Note_on_c, 0, 73, 70
1, 11879, Note_on_c, 0, 73, 0
1, 11880, Note_on_c, 0, 85, 70
1, 11890, Note_on_c, 0, 85, 0
1, 11904, Note_on_c, 0, 85, 70
1, 11952, Note_on_c, 1, 64, 64
1, 11952, Note_on_c, 1, 57, 64
1, 11972, Note_on_c, 1, 64, 0
1, 11972, Note_on_c, 1, 57, 0
1, 12000, Note_on_c, 1, 64, 64
1, 12000, Note_on_c, 1, 57, 64
1, 12034, Note_on_c, 0, 85, 0
1, 12036, Note_on_c, 0, 83, 70
1, 12047, Note_on_c, 1, 64, 0
1, 12047, Note_on_c, 1, 57, 0
1, 12048, Note_on_c, 0, 83, 0
1, 12048, Note_on_c, 0, 81, 70
1, 12060, Note_on_c, 0, 81, 0
1, 12060, Note_on_c, 0, 80, 70
1, 12072, Note_on_c, 0, 80, 0
1, 12072, Note_on_c, 0, 78, 70
1, 12084, Note_on_c, 0, 78, 0
1, 12084, Note_on_c, 0, 76, 70
1, 12096, Note_on_c, 0, 76, 0
1, 12096, Note_on_c, 0, 75, 70
1, 12096, Note_on_c, 1, 69, 64
1, 12096, Note_on_c, 1, 66, 64
1, 12096, Note_on_c, 1, 59, 64
1, 12130, Note_on_c, 0, 75, 0
1, 12132, Note_on_c, 0, 76, 70
1, 12138, Note_on_c, 0, 76, 0
1, 12138, Note_on_c, 0, 78, 70
1, 12141, Note_on_c, 1, 69, 0
1, 12141, Note_on_c, 1, 66, 0
1, 12141, Note_on_c, 1, 59, 0
1, 12144, Note_on_c, 0, 78, 0
1, 12144, Note_on_c, 0, 76, 70
1, 12144, Note_on_c, 1, 68, 64
1, 12144, Note_on_c, 1, 64, 64
1, 12164, Note_on_c, 0, 76, 0
1, 12189, Note_on_c, 1, 68, 0
1, 12189, Note_on_c, 1, 64, 0
1, 12288, Note_on_c, 0, 73, 64
1, 12294, Note_on_c, 0, 73, 0
1, 12294, Note_on_c, 0, 71, 64
1, 12300, Note_on_c, 0, 71, 0
1, 12300, Note_on_c, 0, 69, 64
1, 12306, Note_on_c, 0, 69, 0
1, 12306, Note_on_c, 0, 71, 64
1, 12336, Note_on_c, 1, 66, 64
1, 12336, Note_on_c, 1, 63, 64
1, 12377, Note_on_c, 0, 71, 0
1, 12381, Note_on_c, 1, 66, 0
1, 12381, Note_on_c, 1, 63, 0
1, 12384, Note_on_c, 0, 70, 64
1, 12407, Note_on_c, 0, 70, 0
1, 12408, Note_on_c, 0, 71, 64
1, 12431, Note_on_c, 0, 71, 0
1, 12432, Note_on_c, 0, 73, 64
1, 12432, Note_on_c, 1, 66, 64
1, 12432, Note_on_c, 1, 63, 64
1, 12455, Note_on_c, 0, 73, 0
1, 12456, Note_on_c, 0, 71, 64
1, 12477, Note_on_c, 1, 66, 0
1, 12477, Note_on_c, 1, 63, 0
1, 12479, Note_on_c, 0, 71, 0
1, 12480, Note_on_c, 0, 71, 65
1, 12528, Note_on_c, 1, 66, 64
1, 12528, Note_on_c, 1, 63, 64
1, 12573, Note_on_c, 1, 66, 0
1, 12573, Note_on_c, 1, 63, 0
1, 12576, Note_on_c, 1, 66, 64
1, 12576, Note_on_c, 1, 63, 64
1, 12613, Note_on_c, 0, 71, 0
1, 12621, Note_on_c, 1, 66, 0
1, 12621, Note_on_c, 1, 63, 0
1, 12624, Note_on_c, 0, 72, 67
1, 12624, Note_on_c, 1, 66, 64
1, 12624, Note_on_c, 1, 63, 64
1, 12669, Note_on_c, 0, 72, 0
1, 12669, Note_on_c, 1, 66, 0
1, 12669, Note_on_c, 1, 63, 0
1, 12672, Note_on_c, 0, 75, 67
1, 12678, Note_on_c, 0, 75, 0
1, 12678, Note_on_c, 0, 73, 67
1, 12684, Note_on_c, 0, 73, 0
1, 12684, Note_on_c, 0, 71, 67
1, 12690, Note_on_c, 0, 71, 0
1, 12690, Note_on_c, 0, 73, 67
1, 12720, Note_on_c, 1, 68, 64
1, 12720, Note_on_c, 1, 64, 64
1, 12761, Note_on_c, 0, 73, 0
1, 12765, Note_on_c, 1, 68, 0
1, 12765, Note_on_c, 1, 64, 0
1, 12768, Note_on_c, 0, 72, 68
1, 12791, Note_on_c, 0, 72, 0
1, 12792, Note_on_c, 0, 73, 69
1, 12815, Note_on_c, 0, 73, 0
1, 12816, Note_on_c, 0, 75, 69
1, 12816, Note_on_c, 1, 68, 64
1, 12816, Note_on_c, 1, 64, 64
1, 12839, Note_on_c, 0, 75, 0
1, 12840, Note_on_c, 0, 73, 69
1, 12861, Note_on_c, 1, 68, 0
1, 12861, Note_on_c, 1, 64, 0
1, 12863, Note_on_c, 0, 73, 0
1, 12864, Note_on_c, 0, 73, 70
1, 12912, Note_on_c, 1, 68, 64
1, 12912, Note_on_c, 1, 65, 64
1, 12957, Note_on_c, 1, 68, 0
1, 12957, Note_on_c, 1, 65, 0
1, 12960, Note_on_c, 1, 68, 64
1, 12960, Note_on_c, 1, 65, 64
1, 12997, Note_on_c, 0, 73, 0
1, 13005, Note_on_c, 1, 68, 0
1, 13005, Note_on_c, 1, 65, 0
1, 13008, Note_on_c, 0, 74, 71
1, 13008, Note_on_c, 1, 68, 64
1, 13008, Note_on_c, 1, 65, 64
1, 13053, Note_on_c, 0, 74, 0
1, 13053, Note_on_c, 1, 68, 0
1, 13053, Note_on_c, 1, 65, 0
1, 13056, Note_on_c, 0, 76, 72
1, 13062, Note_on_c, 0, 76, 0
1, 13062, Note_on_c, 0, 75, 72
1, 13068, Note_on_c, 0, 75, 0
1, 13068, Note_on_c, 0, 73, 72
1, 13074, Note_on_c, 0, 73, 0
1, 13074, Note_on_c, 0, 75, 72
1, 13104, Note_on_c, 1, 70, 64
1, 13104, Note_on_c, 1, 66, 64
1, 13145, Note_on_c, 0, 75, 0
1, 13149, Note_on_c, 1, 70, 0
1, 13149, Note_on_c, 1, 66, 0
1, 13152, Note_on_c, 0, 74, 73
1, 13175, Note_on_c, 0, 74, 0
1, 13176, Note_on_c, 0, 75, 73
1, 13199, Note_on_c, 0, 75, 0
1, 13200, Note_on_c, 0, 76, 74
1, 13200, Note_on_c, 1, 70, 64
1, 13200, Note_on_c, 1, 66, 64
1, 13223, Note_on_c, 0, 76, 0
1, 13224, Note_on_c, 0, 75, 74
1, 13245, Note_on_c, 1, 70, 0
1, 13245, Note_on_c, 1, 66, 0
1, 13247, Note_on_c, 0, 75, 0
1, 13248, Note_on_c, 0, 75, 74
1, 13296, Note_on_c, 1, 70, 64
1, 13296, Note_on_c, 1, 66, 64
1, 13341, Note_on_c, 1, 70, 0
1, 13341, Note_on_c, 1, 66, 0
1, 13344, Note_on_c, 1, 70, 64
1, 13344, Note_on_c, 1, 66, 64
1, 13389, Note_on_c, 1, 70, 0
1, 13389, Note_on_c, 1, 66, 0
1, 13392, Note_on_c, 1, 70, 64
1, 13392, Note_on_c, 1, 66, 64
1, 13411, Note_on_c, 0, 75, 0
1, 13416, Note_on_c, 0, 78, 76
1, 13426, Note_on_c, 0, 78, 0
1, 13437, Note_on_c, 1, 70, 0
1, 13437, Note_on_c, 1, 66, 0
1, 13440, Note_on_c, 0, 78, 77
1, 13440, Note_on_c, 1, 68, 64
1, 13463, Note_on_c, 1, 68, 0
1, 13464, Note_on_c, 0, 78, 0
1, 13464, Note_on_c, 0, 76, 77
1, 13464, Note_on_c, 1, 71, 64
1, 13487, Note_on_c, 0, 76, 0
1, 13487, Note_on_c, 1, 71, 0
1, 13488, Note_on_c, 0, 76, 77
1, 13488, Note_on_c, 1, 66, 64
1, 13511, Note_on_c, 1, 66, 0
1, 13512, Note_on_c, 0, 76, 0
1, 13512, Note_on_c, 0, 75, 78
1, 13512, Note_on_c, 1, 71, 64
1, 13535, Note_on_c, 0, 75, 0
1, 13535, Note_on_c, 1, 71, 0
1, 13536, Note_on_c, 0, 75, 78
1, 13536, Note_on_c, 1, 64, 64
1, 13559, Note_on_c, 1, 64, 0
1, 13560, Note_on_c, 0, 75, 0
1, 13560, Note_on_c, 0, 73, 78
1, 13560, Note_on_c, 1, 71, 64
1, 13583, Note_on_c, 0, 73, 0
1, 13583, Note_on_c, 1, 71, 0
1, 13584, Note_on_c, 0, 73, 79
1, 13584, Note_on_c, 1, 66, 64
1, 13607, Note_on_c, 1, 66, 0
1, 13608, Note_on_c, 0, 73, 0
1, 13608, Note_on_c, 0, 75, 79
1, 13608, Note_on_c, 1, 71, 64
1, 13631, Note_on_c, 0, 75, 0
1, 13631, Note_on_c, 1, 71, 0
1, 13632, Note_on_c, 0, 78, 79
1, 13632, Note_on_c, 1, 68, 64
1, 13655, Note_on_c, 1, 68, 0
1, 13656, Note_on_c, 0, 78, 0
1, 13656, Note_on_c, 0, 76, 80
1, 13656, Note_on_c, 1, 71, 64
1, 13679, Note_on_c, 0, 76, 0
1, 13679, Note_on_c, 1, 71, 0
1, 13680, Note_on_c, 0, 76, 80
1, 13680, Note_on_c, 1, 66, 64
1, 13703, Note_on_c, 1, 66, 0
1, 13704, Note_on_c, 0, 76, 0
1, 13704, Note_on_c, 0, 75, 80
1, 13704, Note_on_c, 1, 71, 64
1, 13727, Note_on_c, 0, 75, 0
1, 13727, Note_on_c, 1, 71, 0
1, 13728, Note_on_c, 0, 75, 80
1, 13728, Note_on_c, 1, 64, 64
1, 13751, Note_on_c, 1, 64, 0
1, 13752, Note_on_c, 0, 75, 0
1, 13752, Note_on_c, 0, 73, 80
1, 13752, Note_on_c, 1, 71, 64
1, 13775, Note_on_c, 0, 73, 0
1, 13775, Note_on_c, 1, 71, 0
1, 13776, Note_on_c, 0, 73, 80
1, 13776, Note_on_c, 1, 66, 64
1, 13799, Note_on_c, 1, 66, 0
1, 13800, Note_on_c, 0, 73, 0
1, 13800, Note_on_c, 0, 75, 80
1, 13800, Note_on_c, 1, 71, 64
1, 13823, Note_on_c, 0, 75, 0
1, 13823, Note_on_c, 1, 71, 0
1, 13824, Note_on_c, 0, 78, 80
1, 13824, Note_on_c, 1, 68, 64
1, 13847, Note_on_c, 1, 68, 0
1, 13848, Note_on_c, 0, 78, 0
1, 13848, Note_on_c, 0, 76, 80
1, 13848, Note_on_c, 1, 71, 64
1, 13871, Note_on_c, 0, 76, 0
1, 13871, Note_on_c, 1, 71, 0
1, 13872, Note_on_c, 0, 76, 80
1, 13872, Note_on_c, 1, 66, 64
1, 13895, Note_on_c, 1, 66, 0
1, 13896, Note_on_c, 0, 76, 0
1, 13896, Note_on_c, 0, 75, 80
1, 13896, Note_on_c, 1, 71, 64
1, 13919, Note_on_c, 0, 75, 0
1, 13919, Note_on_c, 1, 71, 0
1, 13920, Note_on_c, 0, 75, 80
1, 13920, Note_on_c, 1, 65, 64
1, 13943, Note_on_c, 1, 65, 0
1, 13944, Note_on_c, 0, 75, 0
1, 13944, Note_on_c, 0, 73, 80
1, 13944, Note_on_c, 1, 71, 64
1, 13967, Note_on_c, 0, 73, 0
1, 13967, Note_on_c, 1, 71, 0
1, 13968, Note_on_c, 0, 73, 80
1, 13968, Note_on_c, 1, 65, 64
1, 13978, Note_on_c, 0, 73, 0
1, 13991, Note_on_c, 1, 65, 0
1, 13992, Note_on_c, 0, 80, 80
1, 13992, Note_on_c, 1, 71, 64
1, 14002, Note_on_c, 0, 80, 0
1, 14015, Note_on_c, 1, 71, 0
1, 14016, Note_on_c, 0, 75, 80
1, 14016, Note_on_c, 1, 65, 64
1, 14039, Note_on_c, 1, 65, 0
1, 14040, Note_on_c, 0, 75, 0
1, 14040, Note_on_c, 0, 73, 80
1, 14040, Note_on_c, 1, 71, 64
1, 14063, Note_on_c, 0, 73, 0
1, 14063, Note_on_c, 1, 71, 0
1, 14064, Note_on_c, 0, 73, 80
1, 14064, Note_on_c, 1, 65, 64
1, 14074, Note_on_c, 0, 73, 0
1, 14087, Note_on_c, 1, 65, 0
1, 14088, Note_on_c, 0, 80, 80
1, 14088, Note_on_c, 1, 71, 64
1, 14098, Note_on_c, 0, 80, 0
1, 14111, Note_on_c, 1, 71, 0
1, 14112, Note_on_c, 0, 75, 80
1, 14112, Note_on_c, 1, 65, 64
1, 14135, Note_on_c, 1, 65, 0
1, 14136, Note_on_c, 0, 75, 0
1, 14136, Note_on_c, 0, 73, 80
1, 14136, Note_on_c, 1, 71, 64
1, 14159, Note_on_c, 0, 73, 0
1, 14159, Note_on_c, 1, 71, 0
1, 14160, Note_on_c, 0, 73, 80
1, 14160, Note_on_c, 1, 65, 64
1, 14170, Note_on_c, 0, 73, 0
1, 14183, Note_on_c, 1, 65, 0
1, 14184, Note_on_c, 0, 80, 80
1, 14184, Note_on_c, 1, 71, 64
1, 14194, Note_on_c, 0, 80, 0
1, 14208, Note_on_c, 0, 73, 80
1, 14208, Note_on_c, 1, 66, 64
1, 14297, Note_on_c, 1, 71, 0
1, 14304, Note_on_c, 1, 70, 64
1, 14327, Note_on_c, 0, 73, 0
1, 14328, Note_on_c, 0, 75, 80
1, 14351, Note_on_c, 0, 75, 0
1, 14352, Note_on_c, 0, 76, 80
1, 14375, Note_on_c, 0, 76, 0
1, 14376, Note_on_c, 0, 75, 80
1, 14385, Note_on_c, 1, 66, 0
1, 14393, Note_on_c, 1, 70, 0
1, 14399, Note_on_c, 0, 75, 0
1, 14400, Note_on_c, 0, 78, 80
1, 14423, Note_on_c, 0, 78, 0
1, 14424, Note_on_c, 0, 76, 80
1, 14447, Note_on_c, 0, 76, 0
1, 14448, Note_on_c, 0, 75, 80
1, 14471, Note_on_c, 0, 75, 0
1, 14472, Note_on_c, 0, 73, 80
1, 14495, Note_on_c, 0, 73, 0
1, 14496, Note_on_c, 0, 71, 80
1, 14519, Note_on_c, 0, 71, 0
1, 14520, Note_on_c, 0, 70, 80
1, 14543, Note_on_c, 0, 70, 0
1, 14544, Note_on_c, 0, 76, 80
1, 14567, Note_on_c, 0, 76, 0
1, 14568, Note_on_c, 0, 73, 80
1, 14591, Note_on_c, 0, 73, 0
1, 14592, Note_on_c, 0, 70, 80
1, 14615, Note_on_c, 0, 70, 0
1, 14616, Note_on_c, 0, 67, 80
1, 14639, Note_on_c, 0, 67, 0
1, 14640, Note_on_c, 0, 76, 80
1, 14663, Note_on_c, 0, 76, 0
1, 14664, Note_on_c, 0, 73, 80
1, 14687, Note_on_c, 0, 73, 0
1, 14688, Note_on_c, 0, 70, 80
1, 14688, Note_on_c, 1, 64, 64
1, 14711, Note_on_c, 0, 70, 0
1, 14712, Note_on_c, 0, 67, 80
1, 14735, Note_on_c, 0, 67, 0
1, 14736, Note_on_c, 0, 76, 80
1, 14759, Note_on_c, 0, 76, 0
1, 14760, Note_on_c, 0, 73, 80
1, 14777, Note_on_c, 1, 64, 0
1, 14783, Note_on_c, 0, 73, 0
1, 14784, Note_on_c, 0, 70, 80
1, 14784, Note_on_c, 1, 61, 64
1, 14807, Note_on_c, 0, 70, 0
1, 14808, Note_on_c, 0, 67, 80
1, 14831, Note_on_c, 0, 67, 0
1, 14832, Note_on_c, 0, 76, 80
1, 14855, Note_on_c, 0, 76, 0
1, 14856, Note_on_c, 0, 73, 80
1, 14873, Note_on_c, 1, 61, 0
1, 14879, Note_on_c, 0, 73, 0
1, 14880, Note_on_c, 0, 70, 80
1, 14880, Note_on_c, 1, 58, 64
1, 14903, Note_on_c, 0, 70, 0
1, 14904, Note_on_c, 0, 67, 80
1, 14927, Note_on_c, 0, 67, 0
1, 14928, Note_on_c, 0, 76, 80
1, 14943, Note_on_c, 0, 76, 0
1, 14944, Note_on_c, 0, 73, 80
1, 14959, Note_on_c, 0, 73, 0
1, 14960, Note_on_c, 0, 70, 80
1, 14969, Note_on_c, 1, 58, 0
1, 14975, Note_on_c, 0, 70, 0
1, 14976, Note_on_c, 0, 66, 80
1, 14976, Note_on_c, 1, 54, 64
1, 15032, Note_on_c, 0, 66, 0
1, 15032, Note_on_c, 0, 70, 80
1, 15032, Note_on_c, 1, 54, 0
1, 15032, Note_on_c, 1, 58, 64
1, 15040, Note_on_c, 0, 70, 0
1, 15040, Note_on_c, 0, 73, 80
1, 15040, Note_on_c, 1, 58, 0
1, 15040, Note_on_c, 1, 61, 64
1, 15048, Note_on_c, 0, 73, 0
1, 15048, Note_on_c, 0, 76, 80
1, 15048, Note_on_c, 1, 61, 0
1, 15048, Note_on_c, 1, 64, 64
1, 15056, Note_on_c, 0, 76, 0
1, 15056, Note_on_c, 0, 73, 80
1, 15056, Note_on_c, 1, 64, 0
1, 15056, Note_on_c, 1, 61, 64
1, 15064, Note_on_c, 0, 73, 0
1, 15064, Note_on_c, 0, 70, 80
1, 15064, Note_on_c, 1, 61, 0
1, 15064, Note_on_c, 1, 58, 64
1, 15072, Note_on_c, 0, 70, 0
1, 15072, Note_on_c, 0, 66, 80
1, 15072, Note_on_c, 1, 58, 0
1, 15072, Note_on_c, 1, 54, 64
1, 15117, Note_on_c, 0, 66, 0
1, 15117, Note_on_c, 1, 54, 0
1, 15120, Note_on_c, 0, 82, 80
1, 15120, Note_on_c, 0, 73, 80
1, 15120, Note_on_c, 1, 64, 64
1, 15140, Note_on_c, 0, 82, 0
1, 15140, Note_on_c, 0, 73, 0
1, 15140, Note_on_c, 1, 64, 0
1, 15168, Note_on_c, 0, 82, 96
1, 15168, Note_on_c, 0, 73, 96
1, 15168, Note_on_c, 1, 64, 64
1, 15264, Note_on_c, 0, 82, 0
1, 15264, Note_on_c, 0, 73, 0
1, 15264, Note_on_c, 0, 83, 80
1, 15264, Note_on_c, 0, 71, 80
1, 15264, Note_on_c, 1, 64, 0
1, 15264, Note_on_c, 1, 63, 64
1, 15284, Note_on_c, 0, 83, 0
1, 15284, Note_on_c, 0, 71, 0
1, 15284, Note_on_c, 1, 63, 0
1, 15312, Note_on_c, 0, 75, 64
1, 15335, Note_on_c, 0, 75, 0
1, 15336, Note_on_c, 0, 81, 64
1, 15359, Note_on_c, 0, 81, 0
1, 15360, Note_on_c, 0, 76, 64
1, 15383, Note_on_c, 0, 76, 0
1, 15384, Note_on_c, 0, 80, 64
1, 15407, Note_on_c, 0, 80, 0
1, 15408, Note_on_c, 0, 72, 64
1, 15431, Note_on_c, 0, 72, 0
1, 15432, Note_on_c, 0, 78, 64
1, 15455, Note_on_c, 0, 78, 0
1, 15456, Note_on_c, 0, 73, 64
1, 15479, Note_on_c, 0, 73, 0
1, 15480, Note_on_c, 0, 76, 64
1, 15503, Note_on_c, 0, 76, 0
1, 15504, Note_on_c, 0, 63, 64
1, 15527, Note_on_c, 0, 63, 0
1, 15528, Note_on_c, 0, 72, 64
1, 15551, Note_on_c, 0, 72, 0
1, 15552, Note_on_c, 0, 64, 64
1, 15575, Note_on_c, 0, 64, 0
1, 15576, Note_on_c, 0, 73, 64
1, 15599, Note_on_c, 0, 73, 0
1, 15600, Note_on_c, 0, 68, 64
1, 15623, Note_on_c, 0, 68, 0
1, 15624, Note_on_c, 0, 76, 64
1, 15647, Note_on_c, 0, 76, 0
1, 15648, Note_on_c, 0, 66, 64
1, 15671, Note_on_c, 0, 66, 0
1, 15672, Note_on_c, 0, 71, 64
1, 15695, Note_on_c, 0, 71, 0
1, 15696, Note_on_c, 0, 64, 64
1, 15719, Note_on_c, 0, 64, 0
1, 15720, Note_on_c, 0, 70, 64
1, 15743, Note_on_c, 0, 70, 0
1, 15744, Note_on_c, 0, 66, 80
1, 15744, Note_on_c, 1, 54, 80
1, 15800, Note_on_c, 0, 66, 0
1, 15800, Note_on_c, 0, 70, 80
1, 15800, Note_on_c, 1, 54, 0
1, 15800, Note_on_c, 1, 58, 80
1, 15808, Note_on_c, 0, 70, 0
1, 15808, Note_on_c, 0, 73, 80
1, 15808, Note_on_c, 1, 58, 0
1, 15808, Note_on_c, 1, 61, 80
1, 15816, Note_on_c, 0, 73, 0
1, 15816, Note_on_c, 0, 76, 80
1, 15816, Note_on_c, 1, 61, 0
1, 15816, Note_on_c, 1, 64, 80
1, 15824, Note_on_c, 0, 76, 0
1, 15824, Note_on_c, 0, 73, 80
1, 15824, Note_on_c, 1, 64, 0
1, 15824, Note_on_c, 1, 61, 80
1, 15832, Note_on_c, 0, 73, 0
1, 15832, Note_on_c, 0, 70, 80
1, 15832, Note_on_c, 1, 61, 0
1, 15832, Note_on_c, 1, 58, 80
1, 15840, Note_on_c, 0, 70, 0
1, 15840, Note_on_c, 0, 66, 80
1, 15840, Note_on_c, 1, 58, 0
1, 15840, Note_on_c, 1, 54, 80
1, 15885, Note_on_c, 0, 66, 0
1, 15885, Note_on_c, 1, 54, 0
1, 15888, Note_on_c, 0, 82, 80
1, 15888, Note_on_c, 0, 73, 80
1, 15888, Note_on_c, 1, 67, 80
1, 15888, Note_on_c, 1, 64, 80
1, 15908, Note_on_c, 0, 82, 0
1, 15908, Note_on_c, 0, 73, 0
1, 15908, Note_on_c, 1, 67, 0
1, 15908, Note_on_c, 1, 64, 0
1, 15936, Note_on_c, 0, 82, 96
1, 15936, Note_on_c, 0, 73, 96
1, 15936, Note_on_c, 1, 67, 80
1, 15936, Note_on_c, 1, 64, 80
1, 16032, Note_on_c, 0, 82, 0
1, 16032, Note_on_c, 0, 73, 0
1, 16032, Note_on_c, 0, 83, 80
1, 16032, Note_on_c, 0, 71, 80
1, 16032, Note_on_c, 1, 67, 0
1, 16032, Note_on_c, 1, 64, 0
1, 16032, Note_on_c, 1, 66, 80
1, 16032, Note_on_c, 1, 63, 80
1, 16052, Note_on_c, 0, 83, 0
1, 16052, Note_on_c, 0, 71, 0
1, 16052, Note_on_c, 1, 66, 0
1, 16052, Note_on_c, 1, 63, 0
1, 16080, Note_on_c, 0, 63, 86
1, 16082, Note_on_c, 0, 66, 86
1, 16084, Note_on_c, 0, 71, 86
1, 16086, Note_on_c, 0, 78, 86
1, 16088, Note_on_c, 0, 81, 86
1, 16100, Note_on_c, 0, 81, 0
1, 16100, Note_on_c, 0, 78, 0
1, 16100, Note_on_c, 0, 71, 0
1, 16100, Note_on_c, 0, 66, 0
1, 16100, Note_on_c, 0, 63, 0
1, 16128, Note_on_c, 0, 64, 80
1, 16130, Note_on_c, 0, 68, 80
1, 16132, Note_on_c, 0, 71, 80
1, 16134, Note_on_c, 0, 76, 80
1, 16136, Note_on_c, 0, 80, 80
1, 16148, Note_on_c, 0, 80, 0
1, 16148, Note_on_c, 0, 76, 0
1, 16148, Note_on_c, 0, 71, 0
1, 16148, Note_on_c, 0, 68, 0
1, 16148, Note_on_c, 0, 64, 0
1, 16176, Note_on_c, 0, 66, 75
1, 16178, Note_on_c, 0, 69, 75
1, 16180, Note_on_c, 0, 71, 75
1, 16182, Note_on_c, 0, 75, 75
1, 16184, Note_on_c, 0, 78, 75
1, 16196, Note_on_c, 0, 78, 0
1, 16196, Note_on_c, 0, 75, 0
1, 16196, Note_on_c, 0, 71, 0
1, 16196, Note_on_c, 0, 69, 0
1, 16196, Note_on_c, 0, 66, 0
1, 16224, Note_on_c, 0, 75, 75
1, 16224, Note_on_c, 1, 71, 80
1, 16224, Note_on_c, 1, 68, 80
1, 16236, Note_on_c, 0, 75, 0
1, 16236, Note_on_c, 0, 76, 75
1, 16269, Note_on_c, 0, 76, 0
1, 16272, Note_on_c, 0, 80, 75
1, 16287, Note_on_c, 0, 80, 0
1, 16288, Note_on_c, 0, 76, 75
1, 16303, Note_on_c, 0, 76, 0
1, 16304, Note_on_c, 0, 73, 75
1, 16313, Note_on_c, 1, 71, 0
1, 16313, Note_on_c, 1, 68, 0
1, 16319, Note_on_c, 0, 73, 0
1, 16320, Note_on_c, 0, 75, 91
1, 16320, Note_on_c, 0, 71, 91
1, 16416, Note_on_c, 0, 71, 0
1, 16416, Note_on_c, 0, 78, 75
1, 16416, Note_on_c, 1, 54, 80
1, 16461, Note_on_c, 0, 78, 0
1, 16461, Note_on_c, 0, 75, 0
1, 16464, Note_on_c, 0, 70, 75
1, 16464, Note_on_c, 0, 64, 75
1, 16505, Note_on_c, 1, 54, 0
1, 16509, Note_on_c, 0, 70, 0
1, 16509, Note_on_c, 0, 64, 0
1, 16512, Note_on_c, 0, 71, 75
1, 16512, Note_on_c, 0, 63, 75
1, 16512, Note_on_c, 1, 47, 80
1, 16601, Note_on_c, 0, 71, 0
1, 16601, Note_on_c, 0, 63, 0
1, 16601, Note_on_c, 1, 47, 0
1, 16608, Note_on_c, 0, 59, 64
1, 16632, Note_on_c, 0, 59, 0
1, 16632, Note_on_c, 0, 58, 64
1, 16655, Note_on_c, 0, 58, 0
1, 16656, Note_on_c, 0, 59, 64
1, 16656, Note_on_c, 1, 51, 64
1, 16680, Note_on_c, 0, 59, 0
1, 16680, Note_on_c, 0, 63, 64
1, 16701, Note_on_c, 1, 51, 0
1, 16703, Note_on_c, 0, 63, 0
1, 16704, Note_on_c, 0, 63, 64
1, 16704, Note_on_c, 1, 52, 64
1, 16728, Note_on_c, 0, 63, 0
1, 16728, Note_on_c, 0, 56, 64
1, 16751, Note_on_c, 0, 56, 0
1, 16752, Note_on_c, 0, 56, 64
1, 16776, Note_on_c, 0, 56, 0
1, 16776, Note_on_c, 0, 64, 64
1, 16799, Note_on_c, 0, 64, 0
1, 16800, Note_on_c, 0, 64, 64
1, 16800, Note_on_c, 1, 52, 0
1, 16800, Note_on_c, 1, 54, 64
1, 16824, Note_on_c, 0, 64, 0
1, 16824, Note_on_c, 0, 58, 64
1, 16847, Note_on_c, 0, 58, 0
1, 16848, Note_on_c, 0, 58, 64
1, 16872, Note_on_c, 0, 58, 0
1, 16872, Note_on_c, 0, 66, 64
1, 16889, Note_on_c, 1, 54, 0
1, 16895, Note_on_c, 0, 66, 0
1, 16896, Note_on_c, 0, 64, 64
1, 16896, Note_on_c, 1, 56, 64
1, 16920, Note_on_c, 0, 64, 0
1, 16920, Note_on_c, 0, 63, 64
1, 16941, Note_on_c, 1, 56, 0
1, 16943, Note_on_c, 0, 63, 0
1, 16944, Note_on_c, 0, 71, 64
1, 16944, Note_on_c, 1, 63, 64
1, 16968, Note_on_c, 0, 71, 0
1, 16968, Note_on_c, 0, 70, 64
1, 16989, Note_on_c, 1, 63, 0
1, 16991, Note_on_c, 0, 70, 0
1, 16992, Note_on_c, 0, 70, 64
1, 16992, Note_on_c, 1, 61, 64
1, 17016, Note_on_c, 0, 70, 0
1, 17016, Note_on_c, 0, 68, 64
1, 17037, Note_on_c, 1, 61, 0
1, 17039, Note_on_c, 0, 68, 0
1, 17040, Note_on_c, 0, 68, 64
1, 17040, Note_on_c, 1, 59, 64
1, 17064, Note_on_c, 0, 68, 0
1, 17064, Note_on_c, 0, 66, 64
1, 17085, Note_on_c, 1, 59, 0
1, 17087, Note_on_c, 0, 66, 0
1, 17088, Note_on_c, 0, 66, 64
1, 17088, Note_on_c, 1, 58, 64
1, 17112, Note_on_c, 0, 66, 0
1, 17112, Note_on_c, 0, 64, 64
1, 17133, Note_on_c, 1, 58, 0
1, 17135, Note_on_c, 0, 64, 0
1, 17136, Note_on_c, 0, 64, 64
1, 17136, Note_on_c, 1, 56, 64
1, 17160, Note_on_c, 0, 64, 0
1, 17160, Note_on_c, 0, 63, 64
1, 17181, Note_on_c, 1, 56, 0
1, 17183, Note_on_c, 0, 63, 0
1, 17184, Note_on_c, 0, 63, 64
1, 17184, Note_on_c, 1, 54, 64
1, 17208, Note_on_c, 0, 63, 0
1, 17208, Note_on_c, 0, 61, 64
1, 17229, Note_on_c, 1, 54, 0
1, 17231, Note_on_c, 0, 61, 0
1, 17232, Note_on_c, 0, 61, 64
1, 17232, Note_on_c, 1, 52, 64
1, 17256, Note_on_c, 0, 61, 0
1, 17256, Note_on_c, 0, 59, 64
1, 17277, Note_on_c, 1, 52, 0
1, 17279, Note_on_c, 0, 59, 0
1, 17280, Note_on_c, 0, 59, 64
1, 17280, Note_on_c, 1, 51, 64
1, 17325, Note_on_c, 1, 51, 0
1, 17328, Note_on_c, 1, 53, 64
1, 17373, Note_on_c, 1, 53, 0
1, 17376, Note_on_c, 1, 54, 64
1, 17413, Note_on_c, 0, 59, 0
1, 17421, Note_on_c, 1, 54, 0
1, 17424, Note_on_c, 0, 63, 64
1, 17424, Note_on_c, 1, 42, 64
1, 17430, Note_on_c, 0, 63, 0
1, 17430, Note_on_c, 0, 61, 64
1, 17447, Note_on_c, 0, 61, 0
1, 17448, Note_on_c, 0, 59, 64
1, 17469, Note_on_c, 1, 42, 0
1, 17471, Note_on_c, 0, 59, 0
1, 17472, Note_on_c, 0, 59, 64
1, 17472, Note_on_c, 1, 44, 64
1, 17539, Note_on_c, 0, 59, 0
1, 17544, Note_on_c, 0, 64, 64
1, 17556, Note_on_c, 0, 64, 0
1, 17556, Note_on_c, 0, 68, 64
1, 17561, Note_on_c, 1, 44, 0
1, 17568, Note_on_c, 0, 68, 0
1, 17568, Note_on_c, 0, 71, 75
1, 17588, Note_on_c, 0, 71, 0
1, 17616, Note_on_c, 0, 71, 75
1, 17636, Note_on_c, 0, 71, 0
1, 17664, Note_on_c, 0, 71, 75
1, 17703, Note_on_c, 0, 71, 0
1, 17808, Note_on_c, 0, 68, 64
1, 17820, Note_on_c, 0, 68, 0
1, 17820, Note_on_c, 0, 64, 64
1, 17854, Note_on_c, 0, 64, 0
1, 17856, Note_on_c, 0, 66, 64
1, 17868, Note_on_c, 0, 66, 0
1, 17868, Note_on_c, 0, 63, 64
1, 17902, Note_on_c, 0, 63, 0
1, 17904, Note_on_c, 0, 64, 64
1, 17916, Note_on_c, 0, 64, 0
1, 17916, Note_on_c, 0, 61, 64
1, 17950, Note_on_c, 0, 61, 0
1, 17952, Note_on_c, 0, 63, 64
1, 17964, Note_on_c, 0, 63, 0
1, 17964, Note_on_c, 0, 59, 64
1, 17998, Note_on_c, 0, 59, 0
1, 18000, Note_on_c, 0, 58, 64
1, 18000, Note_on_c, 1, 42, 64
1, 18012, Note_on_c, 0, 58, 0
1, 18012, Note_on_c, 0, 52, 64
1, 18045, Note_on_c, 1, 42, 0
1, 18046, Note_on_c, 0, 52, 0
1, 18048, Note_on_c, 1, 59, 64
1, 18048, Note_on_c, 1, 51, 64
1, 18048, Note_on_c, 1, 47, 64
1, 18048, Note_on_c, 1, 35, 64
1, 18093, Note_on_c, 1, 59, 0
1, 18093, Note_on_c, 1, 51, 0
1, 18093, Note_on_c, 1, 47, 0
1, 18093, Note_on_c, 1, 35, 0
1, 18096, Note_on_c, 1, 58, 64
1, 18096, Note_on_c, 1, 42, 64
1, 18108, Note_on_c, 1, 58, 0
1, 18108, Note_on_c, 1, 52, 64
1, 18141, Note_on_c, 1, 42, 0
1, 18142, Note_on_c, 1, 52, 0
1, 18144, Note_on_c, 1, 59, 64
1, 18144, Note_on_c, 1, 51, 64
1, 18144, Note_on_c, 1, 47, 64
1, 18144, Note_on_c, 1, 35, 64
1, 18189, Note_on_c, 1, 59, 0
1, 18189, Note_on_c, 1, 51, 0
1, 18189, Note_on_c, 1, 47, 0
1, 18189, Note_on_c, 1, 35, 0
1, 18192, Note_on_c, 1, 58, 64
1, 18192, Note_on_c, 1, 42, 64
1, 18204, Note_on_c, 1, 58, 0
1, 18204, Note_on_c, 1, 52, 64
1, 18237, Note_on_c, 1, 42, 0
1, 18238, Note_on_c, 1, 52, 0
1, 18240, Note_on_c, 1, 59, 64
1, 18240, Note_on_c, 1, 51, 64
1, 18240, Note_on_c, 1, 47, 64
1, 18240, Note_on_c, 1, 35, 64
1, 18329, Note_on_c, 1, 59, 0
1, 18329, Note_on_c, 1, 51, 0
1, 18329, Note_on_c, 1, 47, 0
1, 18329, Note_on_c, 1, 35, 0
1, 18432, Note_on_c, 0, 68, 80
1, 18432, Note_on_c, 1, 48, 80
1, 18438, Note_on_c, 1, 51, 80
1, 18440, Note_on_c, 0, 75, 80
1, 18444, Note_on_c, 1, 56, 80
1, 18448, Note_on_c, 0, 80, 80
1, 18450, Note_on_c, 1, 60, 80
1, 18525, Note_on_c, 0, 80, 0
1, 18525, Note_on_c, 0, 75, 0
1, 18525, Note_on_c, 0, 68, 0
1, 18525, Note_on_c, 1, 60, 0
1, 18525, Note_on_c, 1, 56, 0
1, 18525, Note_on_c, 1, 51, 0
1, 18525, Note_on_c, 1, 48, 0
1, 18528, Note_on_c, 0, 75, 75
1, 18551, Note_on_c, 0, 75, 0
1, 18552, Note_on_c, 0, 76, 75
1, 18560, Note_on_c, 0, 76, 0
1, 18560, Note_on_c, 0, 75, 75
1, 18568, Note_on_c, 0, 75, 0
1, 18568, Note_on_c, 0, 73, 75
1, 18576, Note_on_c, 0, 73, 0
1, 18576, Note_on_c, 0, 75, 75
1, 18576, Note_on_c, 1, 68, 75
1, 18576, Note_on_c, 1, 60, 75
1, 18599, Note_on_c, 0, 75, 0
1, 18600, Note_on_c, 0, 78, 75
1, 18621, Note_on_c, 1, 68, 0
1, 18621, Note_on_c, 1, 60, 0
1, 18623, Note_on_c, 0, 78, 0
1, 18624, Note_on_c, 0, 78, 75
1, 18624, Note_on_c, 1, 61, 75
1, 18647, Note_on_c, 1, 61, 0
1, 18648, Note_on_c, 0, 78, 0
1, 18648, Note_on_c, 0, 76, 75
1, 18648, Note_on_c, 1, 68, 75
1, 18671, Note_on_c, 0, 76, 0
1, 18671, Note_on_c, 1, 68, 0
1, 18672, Note_on_c, 0, 76, 75
1, 18672, Note_on_c, 1, 63, 75
1, 18695, Note_on_c, 1, 63, 0
1, 18696, Note_on_c, 0, 76, 0
1, 18696, Note_on_c, 0, 75, 75
1, 18696, Note_on_c, 1, 68, 75
1, 18719, Note_on_c, 0, 75, 0
1, 18719, Note_on_c, 1, 68, 0
1, 18720, Note_on_c, 0, 75, 75
1, 18720, Note_on_c, 1, 64, 75
1, 18743, Note_on_c, 1, 64, 0
1, 18744, Note_on_c, 0, 75, 0
1, 18744, Note_on_c, 0, 73, 75
1, 18744, Note_on_c, 1, 68, 75
1, 18767, Note_on_c, 0, 73, 0
1, 18767, Note_on_c, 1, 68, 0
1, 18768, Note_on_c, 0, 73, 75
1, 18768, Note_on_c, 1, 63, 75
1, 18791, Note_on_c, 1, 63, 0
1, 18792, Note_on_c, 0, 73, 0
1, 18792, Note_on_c, 0, 75, 75
1, 18792, Note_on_c, 1, 68, 75
1, 18815, Note_on_c, 0, 75, 0
1, 18815, Note_on_c, 1, 68, 0
1, 18816, Note_on_c, 0, 78, 75
1, 18816, Note_on_c, 1, 61, 75
1, 18839, Note_on_c, 1, 61, 0
1, 18840, Note_on_c, 0, 78, 0
1, 18840, Note_on_c, 0, 76, 75
1, 18840, Note_on_c, 1, 68, 75
1, 18863, Note_on_c, 0, 76, 0
1, 18863, Note_on_c, 1, 68, 0
1, 18864, Note_on_c, 0, 76, 75
1, 18864, Note_on_c, 1, 63, 75
1, 18887, Note_on_c, 1, 63, 0
1, 18888, Note_on_c, 0, 76, 0
1, 18888, Note_on_c, 0, 75, 75
1, 18888, Note_on_c, 1, 68, 75
1, 18911, Note_on_c, 0, 75, 0
1, 18911, Note_on_c, 1, 68, 0
1, 18912, Note_on_c, 0, 75, 75
1, 18912, Note_on_c, 1, 64, 75
1, 18935, Note_on_c, 1, 64, 0
1, 18936, Note_on_c, 0, 75, 0
1, 18936, Note_on_c, 0, 73, 75
1, 18936, Note_on_c, 1, 68, 75
1, 18959, Note_on_c, 0, 73, 0
1, 18959, Note_on_c, 1, 68, 0
1, 18960, Note_on_c, 0, 73, 75
1, 18960, Note_on_c, 1, 63, 75
1, 18983, Note_on_c, 1, 63, 0
1, 18984, Note_on_c, 0, 73, 0
1, 18984, Note_on_c, 0, 75, 75
1, 18984, Note_on_c, 1, 68, 75
1, 19007, Note_on_c, 0, 75, 0
1, 19007, Note_on_c, 1, 68, 0
1, 19008, Note_on_c, 0, 78, 75
1, 19008, Note_on_c, 1, 61, 75
1, 19031, Note_on_c, 1, 61, 0
1, 19032, Note_on_c, 0, 78, 0
1, 19032, Note_on_c, 0, 76, 75
1, 19032, Note_on_c, 1, 68, 75
1, 19055, Note_on_c, 0, 76, 0
1, 19055, Note_on_c, 1, 68, 0
1, 19056, Note_on_c, 0, 76, 75
1, 19056, Note_on_c, 1, 63, 75
1, 19079, Note_on_c, 1, 63, 0
1, 19080, Note_on_c, 0, 76, 0
1, 19080, Note_on_c, 0, 75, 75
1, 19080, Note_on_c, 1, 68, 75
1, 19103, Note_on_c, 0, 75, 0
1, 19103, Note_on_c, 1, 68, 0
1, 19104, Note_on_c, 0, 75, 75
1, 19104, Note_on_c, 1, 64, 75
1, 19127, Note_on_c, 1, 64, 0
1, 19128, Note_on_c, 0, 75, 0
1, 19128, Note_on_c, 0, 73, 75
1, 19128, Note_on_c, 1, 68, 75
1, 19151, Note_on_c, 0, 73, 0
1, 19151, Note_on_c, 1, 68, 0
1, 19152, Note_on_c, 0, 73, 75
1, 19152, Note_on_c, 1, 65, 75
1, 19175, Note_on_c, 1, 65, 0
1, 19176, Note_on_c, 0, 73, 0
1, 19176, Note_on_c, 0, 71, 75
1, 19176, Note_on_c, 1, 68, 75
1, 19199, Note_on_c, 0, 71, 0
1, 19199, Note_on_c, 1, 68, 0
1, 19200, Note_on_c, 0, 71, 75
1, 19200, Note_on_c, 1, 66, 75
1, 19224, Note_on_c, 0, 71, 0
1, 19224, Note_on_c, 0, 70, 75
1, 19247, Note_on_c, 0, 70, 0
1, 19248, Note_on_c, 0, 70, 75
1, 19272, Note_on_c, 0, 70, 0
1, 19272, Note_on_c, 0, 80, 75
1, 19289, Note_on_c, 1, 66, 0
1, 19295, Note_on_c, 0, 80, 0
1, 19296, Note_on_c, 0, 80, 75
1, 19320, Note_on_c, 0, 80, 0
1, 19320, Note_on_c, 0, 78, 75
1, 19343, Note_on_c, 0, 78, 0
1, 19344, Note_on_c, 0, 78, 75
1, 19344, Note_on_c, 1, 58, 75
1, 19368, Note_on_c, 0, 78, 0
1, 19368, Note_on_c, 0, 76, 75
1, 19389, Note_on_c, 1, 58, 0
1, 19391, Note_on_c, 0, 76, 0
1, 19392, Note_on_c, 0, 76, 75
1, 19392, Note_on_c, 1, 59, 75
1, 19416, Note_on_c, 0, 76, 0
1, 19416, Note_on_c, 0, 75, 75
1, 19437, Note_on_c, 1, 59, 0
1, 19439, Note_on_c, 0, 75, 0
1, 19440, Note_on_c, 0, 75, 75
1, 19440, Note_on_c, 1, 61, 75
1, 19464, Note_on_c, 0, 75, 0
1, 19464, Note_on_c, 0, 73, 75
1, 19485, Note_on_c, 1, 61, 0
1, 19487, Note_on_c, 0, 73, 0
1, 19488, Note_on_c, 0, 73, 75
1, 19488, Note_on_c, 1, 63, 75
1, 19512, Note_on_c, 0, 73, 0
1, 19512, Note_on_c, 0, 71, 75
1, 19533, Note_on_c, 1, 63, 0
1, 19535, Note_on_c, 0, 71, 0
1, 19536, Note_on_c, 0, 71, 75
1, 19536, Note_on_c, 1, 59, 75
1, 19560, Note_on_c, 0, 71, 0
1, 19560, Note_on_c, 0, 69, 75
1, 19581, Note_on_c, 1, 59, 0
1, 19583, Note_on_c, 0, 69, 0
1, 19584, Note_on_c, 0, 69, 75
1, 19584, Note_on_c, 1, 64, 75
1, 19608, Note_on_c, 0, 69, 0
1, 19608, Note_on_c, 0, 68, 75
1, 19631, Note_on_c, 0, 68, 0
1, 19632, Note_on_c, 0, 68, 75
1, 19656, Note_on_c, 0, 68, 0
1, 19656, Note_on_c, 0, 78, 75
1, 19673, Note_on_c, 1, 64, 0
1, 19679, Note_on_c, 0, 78, 0
1, 19680, Note_on_c, 0, 78, 75
1, 19704, Note_on_c, 0, 78, 0
1, 19704, Note_on_c, 0, 76, 75
1, 19727, Note_on_c, 0, 76, 0
1, 19728, Note_on_c, 0, 76, 75
1, 19728, Note_on_c, 1, 68, 75
1, 19752, Note_on_c, 0, 76, 0
1, 19752, Note_on_c, 0, 75, 75
1, 19773, Note_on_c, 1, 68, 0
1, 19775, Note_on_c, 0, 75, 0
1, 19776, Note_on_c, 0, 75, 75
1, 19776, Note_on_c, 1, 69, 75
1, 19800, Note_on_c, 0, 75, 0
1, 19800, Note_on_c, 0, 73, 75
1, 19821, Note_on_c, 1, 69, 0
1, 19823, Note_on_c, 0, 73, 0
1, 19824, Note_on_c, 0, 73, 75
1, 19824, Note_on_c, 1, 57, 75
1, 19848, Note_on_c, 0, 73, 0
1, 19848, Note_on_c, 0, 80, 75
1, 19869, Note_on_c, 1, 57, 0
1, 19871, Note_on_c, 0, 80, 0
1, 19872, Note_on_c, 0, 80, 75
1, 19896, Note_on_c, 0, 80, 0
1, 19896, Note_on_c, 0, 78, 75
1, 19919, Note_on_c, 0, 78, 0
1, 19920, Note_on_c, 0, 78, 75
1, 19920, Note_on_c, 1, 70, 75
1, 19944, Note_on_c, 0, 78, 0
1, 19944, Note_on_c, 0, 76, 75
1, 19965, Note_on_c, 1, 70, 0
1, 19967, Note_on_c, 0, 76, 0
1, 19968, Note_on_c, 0, 76, 75
1, 19968, Note_on_c, 1, 71, 75
1, 19992, Note_on_c, 0, 76, 0
1, 19992, Note_on_c, 0, 75, 75
1, 20013, Note_on_c, 1, 71, 0
1, 20015, Note_on_c, 0, 75, 0
1, 20016, Note_on_c, 0, 75, 75
1, 20016, Note_on_c, 1, 59, 75
1, 20040, Note_on_c, 0, 75, 0
1, 20040, Note_on_c, 0, 81, 75
1, 20061, Note_on_c, 1, 59, 0
1, 20063, Note_on_c, 0, 81, 0
1, 20064, Note_on_c, 0, 81, 75
1, 20088, Note_on_c, 0, 81, 0
1, 20088, Note_on_c, 0, 80, 75
1, 20111, Note_on_c, 0, 80, 0
1, 20112, Note_on_c, 0, 80, 75
1, 20112, Note_on_c, 1, 60, 75
1, 20136, Note_on_c, 0, 80, 0
1, 20136, Note_on_c, 0, 78, 75
1, 20157, Note_on_c, 1, 60, 0
1, 20159, Note_on_c, 0, 78, 0
1, 20160, Note_on_c, 0, 76, 75
1, 20160, Note_on_c, 1, 61, 75
1, 20183, Note_on_c, 1, 61, 0
1, 20184, Note_on_c, 1, 68, 75
1, 20207, Note_on_c, 1, 68, 0
1, 20208, Note_on_c, 1, 61, 75
1, 20231, Note_on_c, 1, 61, 0
1, 20232, Note_on_c, 1, 68, 75
1, 20255, Note_on_c, 1, 68, 0
1, 20256, Note_on_c, 1, 61, 75
1, 20279, Note_on_c, 1, 61, 0
1, 20280, Note_on_c, 1, 68, 75
1, 20293, Note_on_c, 0, 76, 0
1, 20303, Note_on_c, 1, 68, 0
1, 20304, Note_on_c, 0, 80, 75
1, 20304, Note_on_c, 1, 61, 75
1, 20310, Note_on_c, 0, 80, 0
1, 20310, Note_on_c, 0, 78, 75
1, 20327, Note_on_c, 1, 61, 0
1, 20328, Note_on_c, 1, 68, 75
1, 20349, Note_on_c, 0, 78, 0
1, 20351, Note_on_c, 1, 68, 0
1, 20352, Note_on_c, 0, 76, 75
1, 20352, Note_on_c, 1, 59, 75
1, 20375, Note_on_c, 0, 76, 0
1, 20375, Note_on_c, 1, 59, 0
1, 20376, Note_on_c, 0, 74, 75
1, 20376, Note_on_c, 1, 68, 75
1, 20399, Note_on_c, 0, 74, 0
1, 20399, Note_on_c, 1, 68, 0
1, 20400, Note_on_c, 0, 73, 75
1, 20400, Note_on_c, 1, 59, 75
1, 20423, Note_on_c, 0, 73, 0
1, 20423, Note_on_c, 1, 59, 0
1, 20424, Note_on_c, 0, 74, 75
1, 20424, Note_on_c, 1, 68, 75
1, 20447, Note_on_c, 0, 74, 0
1, 20447, Note_on_c, 1, 68, 0
1, 20448, Note_on_c, 0, 86, 91
1, 20448, Note_on_c, 1, 59, 75
1, 20471, Note_on_c, 1, 59, 0
1, 20472, Note_on_c, 1, 68, 75
1, 20495, Note_on_c, 1, 68, 0
1, 20496, Note_on_c, 1, 59, 75
1, 20519, Note_on_c, 1, 59, 0
1, 20520, Note_on_c, 1, 68, 75
1, 20543, Note_on_c, 1, 68, 0
1, 20544, Note_on_c, 1, 56, 75
1, 20567, Note_on_c, 0, 86, 0
1, 20567, Note_on_c, 1, 56, 0
1, 20568, Note_on_c, 0, 85, 75
1, 20568, Note_on_c, 1, 64, 75
1, 20591, Note_on_c, 0, 85, 0
1, 20591, Note_on_c, 1, 64, 0
1, 20592, Note_on_c, 0, 83, 75
1, 20592, Note_on_c, 1, 56, 75
1, 20615, Note_on_c, 0, 83, 0
1, 20615, Note_on_c, 1, 56, 0
1, 20616, Note_on_c, 0, 81, 75
1, 20616, Note_on_c, 1, 64, 75
1, 20639, Note_on_c, 0, 81, 0
1, 20639, Note_on_c, 1, 64, 0
1, 20640, Note_on_c, 0, 80, 75
1, 20640, Note_on_c, 1, 56, 75
1, 20663, Note_on_c, 0, 80, 0
1, 20663, Note_on_c, 1, 56, 0
1, 20664, Note_on_c, 0, 78, 75
1, 20664, Note_on_c, 1, 64, 75
1, 20687, Note_on_c, 0, 78, 0
1, 20687, Note_on_c, 1, 64, 0
1, 20688, Note_on_c, 0, 76, 75
1, 20688, Note_on_c, 1, 56, 75
1, 20711, Note_on_c, 0, 76, 0
1, 20711, Note_on_c, 1, 56, 0
1, 20712, Note_on_c, 0, 74, 75
1, 20712, Note_on_c, 1, 64, 75
1, 20735, Note_on_c, 0, 74, 0
1, 20735, Note_on_c, 1, 64, 0
1, 20736, Note_on_c, 0, 73, 80
1, 20736, Note_on_c, 1, 57, 80
1, 20742, Note_on_c, 1, 61, 80
1, 20744, Note_on_c, 0, 76, 80
1, 20748, Note_on_c, 1, 64, 80
1, 20752, Note_on_c, 0, 81, 80
1, 20754, Note_on_c, 1, 69, 80
1, 20829, Note_on_c, 0, 81, 0
1, 20829, Note_on_c, 0, 76, 0
1, 20829, Note_on_c, 0, 73, 0
1, 20829, Note_on_c, 1, 69, 0
1, 20829, Note_on_c, 1, 64, 0
1, 20829, Note_on_c, 1, 61, 0
1, 20829, Note_on_c, 1, 57, 0
1, 20832, Note_on_c, 0, 76, 75
1, 20855, Note_on_c, 0, 76, 0
1, 20856, Note_on_c, 0, 78, 75
1, 20864, Note_on_c, 0, 78, 0
1, 20864, Note_on_c, 0, 76, 75
1, 20872, Note_on_c, 0, 76, 0
1, 20872, Note_on_c, 0, 75, 75
1, 20880, Note_on_c, 0, 75, 0
1, 20880, Note_on_c, 0, 76, 75
1, 20880, Note_on_c, 1, 73, 75
1, 20903, Note_on_c, 0, 76, 0
1, 20904, Note_on_c, 0, 78, 75
1, 20925, Note_on_c, 1, 73, 0
1, 20927, Note_on_c, 0, 78, 0
1, 20928, Note_on_c, 0, 76, 75
1, 20928, Note_on_c, 1, 71, 75
1, 20951, Note_on_c, 0, 76, 0
1, 20952, Note_on_c, 0, 74, 75
1, 20973, Note_on_c, 1, 71, 0
1, 20975, Note_on_c, 0, 74, 0
1, 20976, Note_on_c, 0, 73, 75
1, 20976, Note_on_c, 1, 68, 75
1, 20999, Note_on_c, 0, 73, 0
1, 21000, Note_on_c, 0, 74, 75
1, 21021, Note_on_c, 1, 68, 0
1, 21023, Note_on_c, 0, 74, 0
1, 21024, Note_on_c, 0, 74, 75
1, 21024, Note_on_c, 1, 69, 75
1, 21047, Note_on_c, 0, 74, 0
1, 21048, Note_on_c, 0, 73, 75
1, 21069, Note_on_c, 1, 69, 0
1, 21071, Note_on_c, 0, 73, 0
1, 21072, Note_on_c, 0, 71, 75
1, 21072, Note_on_c, 1, 61, 75
1, 21095, Note_on_c, 0, 71, 0
1, 21096, Note_on_c, 0, 73, 75
1, 21117, Note_on_c, 1, 61, 0
1, 21119, Note_on_c, 0, 73, 0
1, 21120, Note_on_c, 0, 73, 75
1, 21120, Note_on_c, 1, 62, 75
1, 21143, Note_on_c, 0, 73, 0
1, 21144, Note_on_c, 0, 71, 75
1, 21165, Note_on_c, 1, 62, 0
1, 21167, Note_on_c, 0, 71, 0
1, 21168, Note_on_c, 0, 69, 75
1, 21168, Note_on_c, 1, 64, 75
1, 21191, Note_on_c, 0, 69, 0
1, 21192, Note_on_c, 0, 68, 75
1, 21213, Note_on_c, 1, 64, 0
1, 21215, Note_on_c, 0, 68, 0
1, 21216, Note_on_c, 0, 69, 75
1, 21216, Note_on_c, 1, 57, 75
1, 21261, Note_on_c, 0, 69, 0
1, 21264, Note_on_c, 0, 74, 75
1, 21264, Note_on_c, 0, 66, 75
1, 21284, Note_on_c, 0, 74, 0
1, 21284, Note_on_c, 0, 66, 0
1, 21305, Note_on_c, 1, 57, 0
1, 21312, Note_on_c, 0, 74, 91
1, 21312, Note_on_c, 0, 66, 91
1, 21360, Note_on_c, 1, 45, 75
1, 21405, Note_on_c, 1, 45, 0
1, 21408, Note_on_c, 0, 74, 0
1, 21408, Note_on_c, 0, 66, 0
1, 21408, Note_on_c, 0, 73, 75
1, 21408, Note_on_c, 0, 64, 75
1, 21408, Note_on_c, 1, 57, 75
1, 21428, Note_on_c, 0, 73, 0
1, 21428, Note_on_c, 0, 64, 0
1, 21453, Note_on_c, 1, 57, 0
1, 21456, Note_on_c, 0, 69, 75
1, 21471, Note_on_c, 0, 69, 0
1, 21472, Note_on_c, 0, 74, 75
1, 21487, Note_on_c, 0, 74, 0
1, 21488, Note_on_c, 0, 78, 75
1, 21503, Note_on_c, 0, 78, 0
1, 21504, Note_on_c, 0, 78, 75
1, 21504, Note_on_c, 0, 74, 75
1, 21552, Note_on_c, 1, 45, 75
1, 21597, Note_on_c, 1, 45, 0
1, 21600, Note_on_c, 0, 78, 0
1, 21600, Note_on_c, 0, 74, 0
1, 21600, Note_on_c, 0, 76, 75
1, 21600, Note_on_c, 0, 73, 75
1, 21600, Note_on_c, 1, 57, 75
1, 21645, Note_on_c, 0, 76, 0
1, 21645, Note_on_c, 0, 73, 0
1, 21645, Note_on_c, 1, 57, 0
1, 21648, Note_on_c, 0, 69, 64
1, 21671, Note_on_c, 0, 69, 0
1, 21672, Note_on_c, 0, 81, 64
1, 21682, Note_on_c, 0, 81, 0
1, 21696, Note_on_c, 0, 81, 80
1, 21744, Note_on_c, 1, 64, 65
1, 21744, Note_on_c, 1, 61, 65
1, 21764, Note_on_c, 1, 64, 0
1, 21764, Note_on_c, 1, 61, 0
1, 21792, Note_on_c, 1, 64, 65
1, 21792, Note_on_c, 1, 61, 65
1, 21839, Note_on_c, 1, 64, 0
1, 21839, Note_on_c, 1, 61, 0
1, 21840, Note_on_c, 0, 81, 0
1, 21840, Note_on_c, 0, 70, 66
1, 21863, Note_on_c, 0, 70, 0
1, 21864, Note_on_c, 0, 79, 66
1, 21874, Note_on_c, 0, 79, 0
1, 21888, Note_on_c, 0, 79, 82
1, 21936, Note_on_c, 1, 70, 67
1, 21936, Note_on_c, 1, 64, 67
1, 21956, Note_on_c, 1, 70, 0
1, 21956, Note_on_c, 1, 64, 0
1, 21984, Note_on_c, 1, 70, 68
1, 21984, Note_on_c, 1, 64, 68
1, 22031, Note_on_c, 1, 70, 0
1, 22031, Note_on_c, 1, 64, 0
1, 22032, Note_on_c, 0, 79, 0
1, 22032, Note_on_c, 0, 71, 68
1, 22055, Note_on_c, 0, 71, 0
1, 22056, Note_on_c, 0, 83, 68
1, 22066, Note_on_c, 0, 83, 0
1, 22080, Note_on_c, 0, 83, 84
1, 22128, Note_on_c, 1, 66, 70
1, 22128, Note_on_c, 1, 63, 70
1, 22148, Note_on_c, 1, 66, 0
1, 22148, Note_on_c, 1, 63, 0
1, 22176, Note_on_c, 1, 66, 70
1, 22176, Note_on_c, 1, 63, 70
1, 22223, Note_on_c, 1, 66, 0
1, 22223, Note_on_c, 1, 63, 0
1, 22224, Note_on_c, 0, 83, 0
1, 22224, Note_on_c, 0, 72, 70
1, 22247, Note_on_c, 0, 72, 0
1, 22248, Note_on_c, 0, 81, 70
1, 22258, Note_on_c, 0, 81, 0
1, 22272, Note_on_c, 0, 81, 87
1, 22320, Note_on_c, 1, 72, 72
1, 22320, Note_on_c, 1, 66, 72
1, 22340, Note_on_c, 1, 72, 0
1, 22340, Note_on_c, 1, 66, 0
1, 22368, Note_on_c, 1, 72, 73
1, 22368, Note_on_c, 1, 66, 73
1, 22415, Note_on_c, 1, 72, 0
1, 22415, Note_on_c, 1, 66, 0
1, 22416, Note_on_c, 0, 81, 0
1, 22416, Note_on_c, 0, 73, 72
1, 22439, Note_on_c, 0, 73, 0
1, 22440, Note_on_c, 0, 85, 73
1, 22450, Note_on_c, 0, 85, 0
1, 22464, Note_on_c, 0, 85, 89
1, 22512, Note_on_c, 1, 68, 75
1, 22512, Note_on_c, 1, 65, 75
1, 22532, Note_on_c, 1, 68, 0
1, 22532, Note_on_c, 1, 65, 0
1, 22560, Note_on_c, 1, 68, 75
1, 22560, Note_on_c, 1, 65, 75
1, 22607, Note_on_c, 1, 68, 0
1, 22607, Note_on_c, 1, 65, 0
1, 22608, Note_on_c, 0, 85, 0
1, 22608, Note_on_c, 0, 74, 75
1, 22631, Note_on_c, 0, 74, 0
1, 22632, Note_on_c, 0, 86, 75
1, 22642, Note_on_c, 0, 86, 0
1, 22656, Note_on_c, 0, 86, 91
1, 22704, Note_on_c, 1, 68, 77
1, 22704, Note_on_c, 1, 64, 77
1, 22724, Note_on_c, 1, 68, 0
1, 22724, Note_on_c, 1, 64, 0
1, 22752, Note_on_c, 1, 68, 78
1, 22752, Note_on_c, 1, 64, 78
1, 22799, Note_on_c, 1, 68, 0
1, 22799, Note_on_c, 1, 64, 0
1, 22800, Note_on_c, 0, 86, 0
1, 22800, Note_on_c, 0, 75, 77
1, 22823, Note_on_c, 0, 75, 0
1, 22824, Note_on_c, 0, 87, 77
1, 22834, Note_on_c, 0, 87, 0
1, 22848, Note_on_c, 0, 87, 93
1, 22896, Note_on_c, 1, 67, 80
1, 22896, Note_on_c, 1, 63, 80
1, 22916, Note_on_c, 1, 67, 0
1, 22916, Note_on_c, 1, 63, 0
1, 22944, Note_on_c, 1, 67, 80
1, 22944, Note_on_c, 1, 63, 80
1, 23040, Tempo, 352941
1, 23394, Note_on_c, 0, 87, 0
1, 23394, Note_on_c, 1, 67, 0
1, 23394, Note_on_c, 1, 63, 0
1, 23424, Tempo, 800000
1, 23424, Note_on_c, 0, 63, 80
1, 23424, Note_on_c, 1, 51, 80
1, 23480, Note_on_c, 0, 63, 0
1, 23480, Note_on_c, 0, 67, 80
1, 23480, Note_on_c, 1, 51, 0
1, 23480, Note_on_c, 1, 55, 80
1, 23488, Note_on_c, 0, 67, 0
1, 23488, Note_on_c, 0, 70, 80
1, 23488, Note_on_c, 1, 55, 0
1, 23488, Note_on_c, 1, 58, 80
1, 23496, Note_on_c, 0, 70, 0
1, 23496, Note_on_c, 0, 73, 80
1, 23496, Note_on_c, 1, 58, 0
1, 23496, Note_on_c, 1, 61, 80
1, 23504, Note_on_c, 0, 73, 0
1, 23504, Note_on_c, 0, 70, 80
1, 23504, Note_on_c, 1, 61, 0
1, 23504, Note_on_c, 1, 58, 80
1, 23512, Note_on_c, 0, 70, 0
1, 23512, Note_on_c, 0, 67, 80
1, 23512, Note_on_c, 1, 58, 0
1, 23512, Note_on_c, 1, 55, 80
1, 23520, Note_on_c, 0, 67, 0
1, 23520, Note_on_c, 0, 63, 80
1, 23520, Note_on_c, 1, 55, 0
1, 23520, Note_on_c, 1, 51, 80
1, 23565, Note_on_c, 0, 63, 0
1, 23565, Note_on_c, 1, 51, 0
1, 23568, Note_on_c, 0, 79, 64
1, 23568, Note_on_c, 0, 75, 64
1, 23568, Note_on_c, 1, 73, 64
1, 23588, Note_on_c, 0, 79, 0
1, 23588, Note_on_c, 0, 75, 0
1, 23588, Note_on_c, 1, 73, 0
1, 23616, Note_on_c, 0, 79, 80
1, 23616, Note_on_c, 0, 75, 80
1, 23616, Note_on_c, 1, 73, 64
1, 23712, Note_on_c, 0, 79, 0
1, 23712, Note_on_c, 0, 80, 64
1, 23712, Note_on_c, 1, 73, 0
1, 23712, Note_on_c, 1, 71, 64
1, 23732, Note_on_c, 0, 80, 0
1, 23732, Note_on_c, 0, 75, 0
1, 23732, Note_on_c, 1, 71, 0
1, 23808, Note_on_c, 0, 63, 80
1, 23808, Note_on_c, 1, 51, 80
1, 23864, Note_on_c, 0, 63, 0
1, 23864, Note_on_c, 0, 67, 80
1, 23864, Note_on_c, 1, 51, 0
1, 23864, Note_on_c, 1, 55, 80
1, 23872, Note_on_c, 0, 67, 0
1, 23872, Note_on_c, 0, 70, 80
1, 23872, Note_on_c, 1, 55, 0
1, 23872, Note_on_c, 1, 58, 80
1, 23880, Note_on_c, 0, 70, 0
1, 23880, Note_on_c, 0, 73, 80
1, 23880, Note_on_c, 1, 58, 0
1, 23880, Note_on_c, 1, 61, 80
1, 23888, Note_on_c, 0, 73, 0
1, 23888, Note_on_c, 0, 70, 80
1, 23888, Note_on_c, 1, 61, 0
1, 23888, Note_on_c, 1, 58, 80
1, 23896, Note_on_c, 0, 70, 0
1, 23896, Note_on_c, 0, 67, 80
1, 23896, Note_on_c, 1, 58, 0
1, 23896, Note_on_c, 1, 55, 80
1, 23904, Note_on_c, 0, 67, 0
1, 23904, Note_on_c, 0, 63, 80
1, 23904, Note_on_c, 1, 55, 0
1, 23904, Note_on_c, 1, 51, 80
1, 23949, Note_on_c, 0, 63, 0
1, 23949, Note_on_c, 1, 51, 0
1, 23952, Note_on_c, 0, 76, 64
1, 23952, Note_on_c, 1, 67, 64
1, 23972, Note_on_c, 0, 76, 0
1, 23972, Note_on_c, 1, 67, 0
1, 24000, Note_on_c, 0, 76, 80
1, 24000, Note_on_c, 0, 73, 80
1, 24000, Note_on_c, 1, 67, 64
1, 24096, Note_on_c, 0, 76, 0
1, 24096, Note_on_c, 0, 73, 0
1, 24096, Note_on_c, 0, 75, 64
1, 24096, Note_on_c, 0, 71, 64
1, 24096, Note_on_c, 1, 67, 0
1, 24096, Note_on_c, 1, 68, 64
1, 24116, Note_on_c, 0, 75, 0
1, 24116, Note_on_c, 0, 71, 0
1, 24116, Note_on_c, 1, 68, 0
1, 24144, Note_on_c, 0, 88, 64
1, 24144, Note_on_c, 0, 85, 64
1, 24144, Note_on_c, 1, 79, 64
1, 24164, Note_on_c, 0, 88, 0
1, 24164, Note_on_c, 0, 85, 0
1, 24164, Note_on_c, 1, 79, 0
1, 24192, Note_on_c, 0, 88, 80
1, 24192, Note_on_c, 0, 85, 80
1, 24192, Note_on_c, 1, 79, 64
1, 24288, Note_on_c, 0, 88, 0
1, 24288, Note_on_c, 0, 85, 0
1, 24288, Note_on_c, 0, 87, 64
1, 24288, Note_on_c, 0, 83, 64
1, 24288, Note_on_c, 1, 79, 0
1, 24288, Note_on_c, 1, 80, 64
1, 24308, Note_on_c, 0, 87, 0
1, 24308, Note_on_c, 0, 83, 0
1, 24308, Note_on_c, 1, 80, 0
1, 24384, Note_on_c, 1, 61, 64
1, 24404, Note_on_c, 1, 61, 0
1, 24408, Note_on_c, 0, 69, 64
1, 24431, Note_on_c, 0, 69, 0
1, 24432, Note_on_c, 1, 64, 64
1, 24452, Note_on_c, 1, 64, 0
1, 24456, Note_on_c, 0, 73, 64
1, 24479, Note_on_c, 0, 73, 0
1, 24480, Note_on_c, 1, 63, 64
1, 24500, Note_on_c, 1, 63, 0
1, 24504, Note_on_c, 0, 71, 64
1, 24527, Note_on_c, 0, 71, 0
1, 24528, Note_on_c, 1, 51, 64
1, 24548, Note_on_c, 1, 51, 0
1, 24552, Note_on_c, 0, 67, 64
1, 24575, Note_on_c, 0, 67, 0
1, 24576, Note_on_c, 1, 56, 64
1, 24600, Note_on_c, 0, 68, 64
1, 24623, Note_on_c, 0, 68, 0
1, 24624, Note_on_c, 1, 59, 64
1, 24648, Note_on_c, 0, 68, 64
1, 24669, Note_on_c, 1, 59, 0
1, 24671, Note_on_c, 0, 68, 0
1, 24672, Note_on_c, 1, 63, 64
1, 24696, Note_on_c, 0, 68, 64
1, 24717, Note_on_c, 1, 63, 0
1, 24719, Note_on_c, 0, 68, 0
1, 24720, Note_on_c, 1, 59, 64
1, 24744, Note_on_c, 0, 68, 64
1, 24753, Note_on_c, 1, 56, 0
1, 24765, Note_on_c, 1, 59, 0
1, 24767, Note_on_c, 0, 68, 0
1, 24768, Note_on_c, 1, 56, 69
1, 24792, Note_on_c, 0, 68, 64
1, 24815, Note_on_c, 0, 68, 0
1, 24816, Note_on_c, 0, 80, 64
1, 24816, Note_on_c, 1, 59, 64
1, 24839, Note_on_c, 0, 80, 0
1, 24840, Note_on_c, 0, 68, 64
1, 24861, Note_on_c, 1, 59, 0
1, 24863, Note_on_c, 0, 68, 0
1, 24864, Note_on_c, 1, 63, 64
1, 24888, Note_on_c, 0, 68, 64
1, 24909, Note_on_c, 1, 63, 0
1, 24911, Note_on_c, 0, 68, 0
1, 24912, Note_on_c, 1, 59, 64
1, 24936, Note_on_c, 0, 68, 64
1, 24945, Note_on_c, 1, 56, 0
1, 24957, Note_on_c, 1, 59, 0
1, 24959, Note_on_c, 0, 68, 0
1, 24960, Note_on_c, 1, 54, 74
1, 24984, Note_on_c, 0, 69, 64
1, 25007, Note_on_c, 0, 69, 0
1, 25008, Note_on_c, 1, 59, 64
1, 25032, Note_on_c, 0, 69, 64
1, 25053, Note_on_c, 1, 59, 0
1, 25055, Note_on_c, 0, 69, 0
1, 25056, Note_on_c, 1, 63, 64
1, 25080, Note_on_c, 0, 69, 64
1, 25101, Note_on_c, 1, 63, 0
1, 25103, Note_on_c, 0, 69, 0
1, 25104, Note_on_c, 1, 59, 64
1, 25128, Note_on_c, 0, 69, 64
1, 25137, Note_on_c, 1, 54, 0
1, 25149, Note_on_c, 1, 59, 0
1, 25151, Note_on_c, 0, 69, 0
1, 25152, Note_on_c, 1, 54, 80
1, 25176, Note_on_c, 0, 69, 64
1, 25199, Note_on_c, 0, 69, 0
1, 25200, Note_on_c, 0, 81, 64
1, 25200, Note_on_c, 1, 59, 64
1, 25223, Note_on_c, 0, 81, 0
1, 25224, Note_on_c, 0, 69, 64
1, 25245, Note_on_c, 1, 59, 0
1, 25247, Note_on_c, 0, 69, 0
1, 25248, Note_on_c, 1, 63, 64
1, 25272, Note_on_c, 0, 69, 64
1, 25293, Note_on_c, 1, 63, 0
1, 25295, Note_on_c, 0, 69, 0
1, 25296, Note_on_c, 1, 59, 64
1, 25320, Note_on_c, 0, 69, 64
1, 25329, Note_on_c, 1, 54, 0
1, 25341, Note_on_c, 1, 59, 0
1, 25343, Note_on_c, 0, 69, 0
1, 25344, Note_on_c, 0, 68, 80
1, 25344, Note_on_c, 1, 52, 80
1, 25350, Note_on_c, 1, 56, 80
1, 25352, Note_on_c, 0, 71, 80
1, 25356, Note_on_c, 1, 59, 80
1, 25360, Note_on_c, 0, 76, 80
1, 25362, Note_on_c, 1, 64, 80
1, 25437, Note_on_c, 0, 76, 0
1, 25437, Note_on_c, 0, 71, 0
1, 25437, Note_on_c, 0, 68, 0
1, 25437, Note_on_c, 1, 64, 0
1, 25437, Note_on_c, 1, 59, 0
1, 25437, Note_on_c, 1, 56, 0
1, 25437, Note_on_c, 1, 52, 0
1, 25440, Note_on_c, 0, 71, 75
1, 25463, Note_on_c, 0, 71, 0
1, 25464, Note_on_c, 0, 73, 75
1, 25472, Note_on_c, 0, 73, 0
1, 25472, Note_on_c, 0, 71, 75
1, 25480, Note_on_c, 0, 71, 0
1, 25480, Note_on_c, 0, 69, 75
1, 25488, Note_on_c, 0, 69, 0
1, 25488, Note_on_c, 0, 71, 75
1, 25488, Note_on_c, 1, 68, 75
1, 25511, Note_on_c, 0, 71, 0
1, 25512, Note_on_c, 0, 73, 75
1, 25533, Note_on_c, 1, 68, 0
1, 25535, Note_on_c, 0, 73, 0
1, 25536, Note_on_c, 0, 71, 75
1, 25536, Note_on_c, 1, 66, 75
1, 25559, Note_on_c, 0, 71, 0
1, 25560, Note_on_c, 0, 69, 75
1, 25583, Note_on_c, 0, 69, 0
1, 25584, Note_on_c, 0, 68, 75
1, 25584, Note_on_c, 1, 66, 0
1, 25584, Note_on_c, 1, 63, 75
1, 25607, Note_on_c, 0, 68, 0
1, 25608, Note_on_c, 0, 69, 75
1, 25629, Note_on_c, 1, 63, 0
1, 25631, Note_on_c, 0, 69, 0
1, 25632, Note_on_c, 0, 69, 75
1, 25632, Note_on_c, 1, 64, 75
1, 25655, Note_on_c, 0, 69, 0
1, 25656, Note_on_c, 0, 68, 75
1, 25677, Note_on_c, 1, 64, 0
1, 25679, Note_on_c, 0, 68, 0
1, 25680, Note_on_c, 0, 66, 75
1, 25680, Note_on_c, 1, 56, 75
1, 25703, Note_on_c, 0, 66, 0
1, 25704, Note_on_c, 0, 68, 75
1, 25725, Note_on_c, 1, 56, 0
1, 25727, Note_on_c, 0, 68, 0
1, 25728, Note_on_c, 0, 68, 75
1, 25728, Note_on_c, 1, 57, 75
1, 25751, Note_on_c, 0, 68, 0
1, 25752, Note_on_c, 0, 66, 75
1, 25773, Note_on_c, 1, 57, 0
1, 25775, Note_on_c, 0, 66, 0
1, 25776, Note_on_c, 0, 64, 75
1, 25776, Note_on_c, 1, 59, 75
1, 25799, Note_on_c, 0, 64, 0
1, 25800, Note_on_c, 0, 63, 75
1, 25821, Note_on_c, 1, 59, 0
1, 25823, Note_on_c, 0, 63, 0
1, 25824, Note_on_c, 0, 64, 75
1, 25824, Note_on_c, 1, 52, 75
1, 25869, Note_on_c, 0, 64, 0
1, 25869, Note_on_c, 1, 52, 0
1, 25872, Note_on_c, 0, 69, 75
1, 25872, Note_on_c, 0, 61, 64
1, 25892, Note_on_c, 0, 69, 0
1, 25917, Note_on_c, 0, 61, 0
1, 25920, Note_on_c, 0, 68, 75
1, 25920, Note_on_c, 0, 59, 64
1, 25940, Note_on_c, 0, 68, 0
1, 25965, Note_on_c, 0, 59, 0
1, 25968, Note_on_c, 0, 64, 64
1, 25983, Note_on_c, 0, 64, 0
1, 25984, Note_on_c, 0, 69, 64
1, 25999, Note_on_c, 0, 69, 0
1, 26000, Note_on_c, 0, 73, 64
1, 26015, Note_on_c, 0, 73, 0
1, 26016, Note_on_c, 0, 71, 75
1, 26016, Note_on_c, 0, 68, 64
1, 26036, Note_on_c, 0, 71, 0
1, 26061, Note_on_c, 0, 68, 0
1, 26112, Note_on_c, 0, 69, 80
1, 26112, Note_on_c, 1, 47, 80
1, 26118, Note_on_c, 0, 75, 80
1, 26118, Note_on_c, 1, 51, 80
1, 26124, Note_on_c, 0, 78, 80
1, 26124, Note_on_c, 1, 54, 80
1, 26130, Note_on_c, 0, 81, 80
1, 26130, Note_on_c, 1, 59, 80
1, 26205, Note_on_c, 0, 81, 0
1, 26205, Note_on_c, 0, 78, 0
1, 26205, Note_on_c, 0, 75, 0
1, 26205, Note_on_c, 0, 69, 0
1, 26205, Note_on_c, 1, 59, 0
1, 26205, Note_on_c, 1, 54, 0
1, 26205, Note_on_c, 1, 51, 0
1, 26205, Note_on_c, 1, 47, 0
1, 26208, Note_on_c, 0, 69, 75
1, 26231, Note_on_c, 0, 69, 0
1, 26232, Note_on_c, 0, 71, 75
1, 26240, Note_on_c, 0, 71, 0
1, 26240, Note_on_c, 0, 69, 75
1, 26248, Note_on_c, 0, 69, 0
1, 26248, Note_on_c, 0, 68, 75
1, 26256, Note_on_c, 0, 68, 0
1, 26256, Note_on_c, 0, 69, 75
1, 26256, Note_on_c, 1, 61, 75
1, 26279, Note_on_c, 0, 69, 0
1, 26280, Note_on_c, 0, 73, 75
1, 26301, Note_on_c, 1, 61, 0
1, 26303, Note_on_c, 0, 73, 0
1, 26304, Note_on_c, 0, 71, 75
1, 26304, Note_on_c, 1, 63, 75
1, 26327, Note_on_c, 0, 71, 0
1, 26328, Note_on_c, 0, 69, 75
1, 26349, Note_on_c, 1, 63, 0
1, 26351, Note_on_c, 0, 69, 0
1, 26352, Note_on_c, 0, 68, 75
1, 26352, Note_on_c, 1, 59, 75
1, 26375, Note_on_c, 0, 68, 0
1, 26376, Note_on_c, 0, 69, 75
1, 26397, Note_on_c, 1, 59, 0
1, 26399, Note_on_c, 0, 69, 0
1, 26400, Note_on_c, 0, 69, 75
1, 26400, Note_on_c, 1, 64, 75
1, 26423, Note_on_c, 0, 69, 0
1, 26424, Note_on_c, 0, 68, 75
1, 26445, Note_on_c, 1, 64, 0
1, 26447, Note_on_c, 0, 68, 0
1, 26448, Note_on_c, 0, 66, 75
1, 26448, Note_on_c, 1, 56, 75
1, 26471, Note_on_c, 0, 66, 0
1, 26472, Note_on_c, 0, 68, 75
1, 26493, Note_on_c, 1, 56, 0
1, 26495, Note_on_c, 0, 68, 0
1, 26496, Note_on_c, 0, 68, 75
1, 26496, Note_on_c, 1, 57, 75
1, 26519, Note_on_c, 0, 68, 0
1, 26520, Note_on_c, 0, 66, 75
1, 26543, Note_on_c, 0, 66, 0
1, 26544, Note_on_c, 0, 69, 75
1, 26567, Note_on_c, 0, 69, 0
1, 26568, Note_on_c, 0, 73, 75
1, 26585, Note_on_c, 1, 57, 0
1, 26591, Note_on_c, 0, 73, 0
1, 26592, Note_on_c, 0, 61, 75
1, 26637, Note_on_c, 0, 61, 0
1, 26640, Note_on_c, 0, 63, 75
1, 26640, Note_on_c, 0, 57, 75
1, 26640, Note_on_c, 1, 54, 75
1, 26640, Note_on_c, 1, 42, 75
1, 26660, Note_on_c, 0, 63, 0
1, 26660, Note_on_c, 0, 57, 0
1, 26660, Note_on_c, 1, 54, 0
1, 26660, Note_on_c, 1, 42, 0
1, 26688, Note_on_c, 0, 64, 75
1, 26688, Note_on_c, 0, 56, 75
1, 26688, Note_on_c, 1, 52, 75
1, 26688, Note_on_c, 1, 40, 75
1, 26727, Note_on_c, 0, 64, 0
1, 26727, Note_on_c, 0, 56, 0
1, 26727, Note_on_c, 1, 52, 0
1, 26727, Note_on_c, 1, 40, 0
1, 26880, Note_on_c, 0, 68, 80
1, 26880, Note_on_c, 1, 52, 80
1, 26886, Note_on_c, 1, 56, 80
1, 26888, Note_on_c, 0, 71, 80
1, 26892, Note_on_c, 1, 59, 80
1, 26896, Note_on_c, 0, 76, 80
1, 26898, Note_on_c, 1, 64, 80
1, 26952, Note_on_c, 0, 71, 64
1, 26973, Note_on_c, 0, 76, 0
1, 26973, Note_on_c, 0, 71, 0
1, 26973, Note_on_c, 0, 68, 0
1, 26973, Note_on_c, 1, 64, 0
1, 26973, Note_on_c, 1, 59, 0
1, 26973, Note_on_c, 1, 56, 0
1, 26973, Note_on_c, 1, 52, 0
1, 26975, Note_on_c, 0, 71, 0
1, 26976, Note_on_c, 0, 73, 64
1, 27000, Note_on_c, 0, 73, 0
1, 27000, Note_on_c, 0, 71, 64
1, 27023, Note_on_c, 0, 71, 0
1, 27024, Note_on_c, 1, 68, 75
1, 27048, Note_on_c, 0, 71, 64
1, 27069, Note_on_c, 1, 68, 0
1, 27071, Note_on_c, 0, 71, 0
1, 27072, Note_on_c, 0, 71, 75
1, 27072, Note_on_c, 1, 66, 75
1, 27096, Note_on_c, 0, 71, 0
1, 27096, Note_on_c, 0, 69, 75
1, 27119, Note_on_c, 0, 69, 0
1, 27120, Note_on_c, 1, 66, 0
1, 27120, Note_on_c, 1, 63, 75
1, 27144, Note_on_c, 0, 69, 75
1, 27165, Note_on_c, 1, 63, 0
1, 27167, Note_on_c, 0, 69, 0
1, 27168, Note_on_c, 0, 69, 75
1, 27168, Note_on_c, 1, 64, 75
1, 27192, Note_on_c, 0, 69, 0
1, 27192, Note_on_c, 0, 68, 75
1, 27213, Note_on_c, 1, 64, 0
1, 27215, Note_on_c, 0, 68, 0
1, 27216, Note_on_c, 1, 56, 75
1, 27240, Note_on_c, 0, 68, 75
1, 27261, Note_on_c, 1, 56, 0
1, 27263, Note_on_c, 0, 68, 0
1, 27264, Note_on_c, 0, 68, 75
1, 27264, Note_on_c, 1, 57, 75
1, 27287, Note_on_c, 0, 68, 0
1, 27288, Note_on_c, 0, 66, 75
1, 27309, Note_on_c, 1, 57, 0
1, 27311, Note_on_c, 0, 66, 0
1, 27312, Note_on_c, 0, 64, 75
1, 27312, Note_on_c, 1, 59, 75
1, 27335, Note_on_c, 0, 64, 0
1, 27336, Note_on_c, 0, 63, 75
1, 27357, Note_on_c, 1, 59, 0
1, 27359, Note_on_c, 0, 63, 0
1, 27360, Note_on_c, 0, 64, 75
1, 27360, Note_on_c, 1, 52, 75
1, 27405, Note_on_c, 0, 64, 0
1, 27405, Note_on_c, 1, 52, 0
1, 27408, Note_on_c, 0, 69, 75
1, 27408, Note_on_c, 0, 61, 75
1, 27428, Note_on_c, 0, 69, 0
1, 27428, Note_on_c, 0, 61, 0
1, 27456, Note_on_c, 0, 69, 91
1, 27456, Note_on_c, 0, 61, 91
1, 27504, Note_on_c, 1, 40, 75
1, 27549, Note_on_c, 1, 40, 0
1, 27552, Note_on_c, 0, 69, 0
1, 27552, Note_on_c, 0, 61, 0
1, 27552, Note_on_c, 0, 68, 75
1, 27552, Note_on_c, 0, 59, 75
1, 27552, Note_on_c, 1, 52, 75
1, 27572, Note_on_c, 0, 68, 0
1, 27572, Note_on_c, 0, 59, 0
1, 27597, Note_on_c, 1, 52, 0
1, 27600, Note_on_c, 0, 64, 75
1, 27615, Note_on_c, 0, 64, 0
1, 27616, Note_on_c, 0, 69, 75
1, 27631, Note_on_c, 0, 69, 0
1, 27632, Note_on_c, 0, 73, 75
1, 27647, Note_on_c, 0, 73, 0
1, 27648, Note_on_c, 0, 73, 75
1, 27648, Note_on_c, 0, 69, 64
1, 27696, Note_on_c, 1, 40, 75
1, 27741, Note_on_c, 1, 40, 0
1, 27744, Note_on_c, 0, 73, 0
1, 27744, Note_on_c, 0, 71, 75
1, 27744, Note_on_c, 0, 69, 0
1, 27744, Note_on_c, 0, 68, 64
1, 27744, Note_on_c, 1, 52, 75
1, 27764, Note_on_c, 0, 71, 0
1, 27789, Note_on_c, 1, 52, 0
1, 27791, Note_on_c, 0, 68, 0
1, 27792, Note_on_c, 0, 76, 75
1, 27792, Note_on_c, 0, 68, 64
1, 27812, Note_on_c, 0, 76, 0
1, 27812, Note_on_c, 0, 68, 0
1, 27840, Note_on_c, 0, 76, 91
1, 27840, Note_on_c, 0, 68, 64
1, 27888, Note_on_c, 1, 47, 75
1, 27933, Note_on_c, 1, 47, 0
1, 27936, Note_on_c, 0, 76, 0
1, 27936, Note_on_c, 0, 75, 75
1, 27936, Note_on_c, 0, 68, 0
1, 27936, Note_on_c, 0, 66, 64
1, 27936, Note_on_c, 1, 59, 75
1, 27956, Note_on_c, 0, 75, 0
1, 27956, Note_on_c, 0, 66, 0
1, 27981, Note_on_c, 1, 59, 0
1, 27984, Note_on_c, 0, 71, 64
1, 27999, Note_on_c, 0, 71, 0
1, 28000, Note_on_c, 0, 76, 64
1, 28015, Note_on_c, 0, 76, 0
1, 28016, Note_on_c, 0, 80, 64
1, 28031, Note_on_c, 0, 80, 0
1, 28032, Note_on_c, 0, 80, 75
1, 28032, Note_on_c, 0, 76, 64
1, 28080, Note_on_c, 1, 47, 75
1, 28121, Note_on_c, 0, 76, 0
1, 28125, Note_on_c, 1, 47, 0
1, 28128, Note_on_c, 0, 80, 0
1, 28128, Note_on_c, 0, 78, 75
1, 28128, Note_on_c, 0, 75, 64
1, 28128, Note_on_c, 1, 59, 75
1, 28148, Note_on_c, 0, 78, 0
1, 28148, Note_on_c, 0, 75, 0
1, 28173, Note_on_c, 1, 59, 0
1, 28176, Note_on_c, 0, 71, 64
1, 28191, Note_on_c, 0, 71, 0
1, 28192, Note_on_c, 0, 75, 64
1, 28207, Note_on_c, 0, 75, 0
1, 28208, Note_on_c, 0, 78, 64
1, 28223, Note_on_c, 0, 78, 0
1, 28224, Note_on_c, 0, 81, 75
1, 28224, Note_on_c, 0, 78, 64
1, 28291, Note_on_c, 0, 81, 0
1, 28291, Note_on_c, 0, 78, 0
1, 28296, Note_on_c, 0, 80, 75
1, 28296, Note_on_c, 0, 77, 64
1, 28319, Note_on_c, 0, 80, 0
1, 28319, Note_on_c, 0, 77, 0
1, 28320, Note_on_c, 0, 81, 75
1, 28320, Note_on_c, 0, 78, 64
1, 28387, Note_on_c, 0, 81, 0
1, 28387, Note_on_c, 0, 78, 0
1, 28392, Note_on_c, 0, 80, 75
1, 28392, Note_on_c, 0, 77, 64
1, 28415, Note_on_c, 0, 80, 0
1, 28415, Note_on_c, 0, 77, 0
1, 28416, Note_on_c, 0, 78, 75
1, 28416, Note_on_c, 1, 57, 75
1, 28416, Note_on_c, 1, 54, 75
1, 28416, Note_on_c, 1, 51, 75
1, 28416, Note_on_c, 1, 47, 75
1, 28483, Note_on_c, 0, 78, 0
1, 28488, Note_on_c, 0, 80, 75
1, 28511, Note_on_c, 0, 80, 0
1, 28512, Note_on_c, 0, 83, 75
1, 28535, Note_on_c, 0, 83, 0
1, 28536, Note_on_c, 0, 81, 75
1, 28559, Note_on_c, 0, 81, 0
1, 28560, Note_on_c, 0, 85, 75
1, 28583, Note_on_c, 0, 85, 0
1, 28584, Note_on_c, 0, 83, 75
1, 28607, Note_on_c, 0, 83, 0
1, 28608, Note_on_c, 0, 81, 75
1, 28631, Note_on_c, 0, 81, 0
1, 28632, Note_on_c, 0, 80, 75
1, 28655, Note_on_c, 0, 80, 0
1, 28656, Note_on_c, 0, 78, 75
1, 28679, Note_on_c, 0, 78, 0
1, 28680, Note_on_c, 0, 77, 75
1, 28703, Note_on_c, 0, 77, 0
1, 28704, Note_on_c, 0, 80, 75
1, 28727, Note_on_c, 0, 80, 0
1, 28728, Note_on_c, 0, 78, 75
1, 28751, Note_on_c, 0, 78, 0
1, 28752, Note_on_c, 0, 81, 75
1, 28775, Note_on_c, 0, 81, 0
1, 28776, Note_on_c, 0, 80, 75
1, 28799, Note_on_c, 0, 80, 0
1, 28800, Note_on_c, 0, 78, 75
1, 28823, Note_on_c, 0, 78, 0
1, 28824, Note_on_c, 0, 76, 75
1, 28847, Note_on_c, 0, 76, 0
1, 28848, Note_on_c, 0, 75, 75
1, 28871, Note_on_c, 0, 75, 0
1, 28872, Note_on_c, 0, 73, 75
1, 28895, Note_on_c, 0, 73, 0
1, 28896, Note_on_c, 0, 76, 75
1, 28919, Note_on_c, 0, 76, 0
1, 28920, Note_on_c, 0, 75, 75
1, 28943, Note_on_c, 0, 75, 0
1, 28944, Note_on_c, 0, 78, 75
1, 28967, Note_on_c, 0, 78, 0
1, 28968, Note_on_c, 0, 76, 75
1, 28991, Note_on_c, 0, 76, 0
1, 28992, Note_on_c, 0, 75, 75
1, 29015, Note_on_c, 0, 75, 0
1, 29016, Note_on_c, 0, 73, 75
1, 29039, Note_on_c, 0, 73, 0
1, 29040, Note_on_c, 0, 71, 75
1, 29063, Note_on_c, 0, 71, 0
1, 29064, Note_on_c, 0, 70, 75
1, 29087, Note_on_c, 0, 70, 0
1, 29088, Note_on_c, 0, 71, 75
1, 29111, Note_on_c, 0, 71, 0
1, 29112, Note_on_c, 0, 69, 75
1, 29135, Note_on_c, 0, 69, 0
1, 29136, Note_on_c, 0, 73, 75
1, 29159, Note_on_c, 0, 73, 0
1, 29160, Note_on_c, 0, 71, 75
1, 29183, Note_on_c, 0, 71, 0
1, 29184, Note_on_c, 0, 69, 75
1, 29207, Note_on_c, 0, 69, 0
1, 29208, Note_on_c, 0, 68, 75
1, 29231, Note_on_c, 0, 68, 0
1, 29232, Note_on_c, 0, 66, 75
1, 29255, Note_on_c, 0, 66, 0
1, 29256, Note_on_c, 0, 65, 75
1, 29279, Note_on_c, 0, 65, 0
1, 29280, Note_on_c, 0, 66, 75
1, 29303, Note_on_c, 0, 66, 0
1, 29304, Note_on_c, 0, 67, 75
1, 29327, Note_on_c, 0, 67, 0
1, 29328, Note_on_c, 0, 68, 75
1, 29351, Note_on_c, 0, 68, 0
1, 29352, Note_on_c, 0, 69, 75
1, 29361, Note_on_c, 1, 57, 0
1, 29361, Note_on_c, 1, 54, 0
1, 29361, Note_on_c, 1, 51, 0
1, 29361, Note_on_c, 1, 47, 0
1, 29375, Note_on_c, 0, 69, 0
1, 29376, Note_on_c, 0, 70, 75
1, 29399, Note_on_c, 0, 70, 0
1, 29400, Note_on_c, 0, 71, 75
1, 29423, Note_on_c, 0, 71, 0
1, 29424, Note_on_c, 0, 72, 75
1, 29447, Note_on_c, 0, 72, 0
1, 29448, Note_on_c, 0, 73, 75
1, 29471, Note_on_c, 0, 73, 0
1, 29472, Note_on_c, 0, 73, 75
1, 29517, Note_on_c, 0, 73, 0
1, 29520, Note_on_c, 0, 73, 75
1, 29565, Note_on_c, 0, 73, 0
1, 29568, Note_on_c, 0, 71, 75
1, 29568, Note_on_c, 1, 63, 64
1, 29574, Note_on_c, 0, 71, 0
1, 29574, Note_on_c, 0, 73, 75
1, 29580, Note_on_c, 0, 73, 0
1, 29580, Note_on_c, 0, 75, 75
1, 29586, Note_on_c, 0, 75, 0
1, 29586, Note_on_c, 0, 73, 75
1, 29591, Note_on_c, 1, 63, 0
1, 29592, Note_on_c, 1, 64, 64
1, 29615, Note_on_c, 1, 64, 0
1, 29616, Note_on_c, 1, 65, 64
1, 29639, Note_on_c, 1, 65, 0
1, 29640, Note_on_c, 1, 66, 64
1, 29663, Note_on_c, 1, 66, 0
1, 29664, Note_on_c, 1, 67, 64
1, 29687, Note_on_c, 1, 67, 0
1, 29688, Note_on_c, 1, 68, 64
1, 29711, Note_on_c, 1, 68, 0
1, 29712, Note_on_c, 1, 69, 64
1, 29735, Note_on_c, 1, 69, 0
1, 29736, Note_on_c, 1, 68, 64
1, 29745, Note_on_c, 0, 73, 0
1, 29759, Note_on_c, 1, 68, 0
1, 29760, Note_on_c, 0, 73, 75
1, 29760, Note_on_c, 1, 69, 64
1, 29827, Note_on_c, 0, 73, 0
1, 29827, Note_on_c, 1, 69, 0
1, 29832, Note_on_c, 0, 72, 75
1, 29832, Note_on_c, 1, 68, 64
1, 29855, Note_on_c, 0, 72, 0
1, 29855, Note_on_c, 1, 68, 0
1, 29856, Note_on_c, 0, 73, 75
1, 29856, Note_on_c, 1, 69, 64
1, 29923, Note_on_c, 0, 73, 0
1, 29923, Note_on_c, 1, 69, 0
1, 29928, Note_on_c, 0, 72, 75
1, 29928, Note_on_c, 1, 68, 64
1, 29951, Note_on_c, 0, 72, 0
1, 29951, Note_on_c, 1, 68, 0
1, 29952, Note_on_c, 0, 73, 75
1, 29952, Note_on_c, 1, 69, 64
1, 29952, Note_on_c, 1, 63, 64
1, 30129, Note_on_c, 0, 73, 0
1, 30144, Note_on_c, 0, 72, 75
1, 30189, Note_on_c, 0, 72, 0
1, 30192, Note_on_c, 0, 73, 75
1, 30237, Note_on_c, 0, 73, 0
1, 30240, Note_on_c, 0, 75, 75
1, 30285, Note_on_c, 0, 75, 0
1, 30288, Note_on_c, 0, 73, 75
1, 30333, Note_on_c, 0, 73, 0
1, 30336, Note_on_c, 0, 73, 75
1, 30513, Note_on_c, 1, 69, 0
1, 30513, Note_on_c, 1, 63, 0
1, 30601, Note_on_c, 0, 73, 0
1, 30624, Note_on_c, 0, 71, 75
1, 30647, Note_on_c, 0, 71, 0
1, 30648, Note_on_c, 0, 69, 75
1, 30671, Note_on_c, 0, 69, 0
1, 30672, Note_on_c, 0, 68, 75
1, 30695, Note_on_c, 0, 68, 0
1, 30696, Note_on_c, 0, 66, 75
1, 30719, Note_on_c, 0, 66, 0
1, 30720, Note_on_c, 0, 64, 64
1, 30768, Note_on_c, 1, 59, 64
1, 30768, Note_on_c, 1, 56, 64
1, 30809, Note_on_c, 0, 64, 0
1, 30813, Note_on_c, 1, 59, 0
1, 30813, Note_on_c, 1, 56, 0
1, 30816, Note_on_c, 0, 63, 65
1, 30839, Note_on_c, 0, 63, 0
1, 30840, Note_on_c, 0, 64, 65
1, 30863, Note_on_c, 0, 64, 0
1, 30864, Note_on_c, 0, 66, 65
1, 30864, Note_on_c, 1, 59, 64
1, 30864, Note_on_c, 1, 56, 64
1, 30887, Note_on_c, 0, 66, 0
1, 30888, Note_on_c, 0, 64, 65
1, 30909, Note_on_c, 1, 59, 0
1, 30909, Note_on_c, 1, 56, 0
1, 30911, Note_on_c, 0, 64, 0
1, 30912, Note_on_c, 0, 64, 66
1, 30960, Note_on_c, 1, 59, 64
1, 30960, Note_on_c, 1, 56, 64
1, 31005, Note_on_c, 1, 59, 0
1, 31005, Note_on_c, 1, 56, 0
1, 31008, Note_on_c, 1, 59, 64
1, 31008, Note_on_c, 1, 56, 64
1, 31045, Note_on_c, 0, 64, 0
1, 31053, Note_on_c, 1, 59, 0
1, 31053, Note_on_c, 1, 56, 0
1, 31056, Note_on_c, 0, 65, 67
1, 31056, Note_on_c, 1, 59, 64
1, 31056, Note_on_c, 1, 56, 64
1, 31101, Note_on_c, 0, 65, 0
1, 31101, Note_on_c, 1, 59, 0
1, 31101, Note_on_c, 1, 56, 0
1, 31104, Note_on_c, 0, 68, 68
1, 31110, Note_on_c, 0, 68, 0
1, 31110, Note_on_c, 0, 66, 68
1, 31116, Note_on_c, 0, 66, 0
1, 31116, Note_on_c, 0, 65, 68
1, 31122, Note_on_c, 0, 65, 0
1, 31122, Note_on_c, 0, 66, 68
1, 31152, Note_on_c, 1, 61, 64
1, 31152, Note_on_c, 1, 57, 64
1, 31193, Note_on_c, 0, 66, 0
1, 31197, Note_on_c, 1, 61, 0
1, 31197, Note_on_c, 1, 57, 0
1, 31200, Note_on_c, 0, 65, 69
1, 31223, Note_on_c, 0, 65, 0
1, 31224, Note_on_c, 0, 66, 69
1, 31247, Note_on_c, 0, 66, 0
1, 31248, Note_on_c, 0, 68, 70
1, 31248, Note_on_c, 1, 61, 64
1, 31248, Note_on_c, 1, 57, 64
1, 31271, Note_on_c, 0, 68, 0
1, 31272, Note_on_c, 0, 66, 70
1, 31293, Note_on_c, 1, 61, 0
1, 31293, Note_on_c, 1, 57, 0
1, 31295, Note_on_c, 0, 66, 0
1, 31296, Note_on_c, 0, 66, 70
1, 31344, Note_on_c, 1, 61, 64
1, 31344, Note_on_c, 1, 58, 64
1, 31389, Note_on_c, 1, 61, 0
1, 31389, Note_on_c, 1, 58, 0
1, 31392, Note_on_c, 1, 61, 64
1, 31392, Note_on_c, 1, 58, 64
1, 31429, Note_on_c, 0, 66, 0
1, 31437, Note_on_c, 1, 61, 0
1, 31437, Note_on_c, 1, 58, 0
1, 31440, Note_on_c, 0, 67, 72
1, 31440, Note_on_c, 1, 61, 64
1, 31440, Note_on_c, 1, 58, 64
1, 31485, Note_on_c, 0, 67, 0
1, 31485, Note_on_c, 1, 61, 0
1, 31485, Note_on_c, 1, 58, 0
1, 31488, Note_on_c, 0, 69, 72
1, 31494, Note_on_c, 0, 69, 0
1, 31494, Note_on_c, 0, 68, 72
1, 31500, Note_on_c, 0, 68, 0
1, 31500, Note_on_c, 0, 67, 72
1, 31506, Note_on_c, 0, 67, 0
1, 31506, Note_on_c, 0, 68, 72
1, 31536, Note_on_c, 1, 63, 80
1, 31536, Note_on_c, 1, 59, 80
1, 31577, Note_on_c, 0, 68, 0
1, 31581, Note_on_c, 1, 63, 0
1, 31581, Note_on_c, 1, 59, 0
1, 31584, Note_on_c, 0, 67, 74
1, 31607, Note_on_c, 0, 67, 0
1, 31608, Note_on_c, 0, 68, 74
1, 31631, Note_on_c, 0, 68, 0
1, 31632, Note_on_c, 0, 69, 74
1, 31632, Note_on_c, 1, 63, 80
1, 31632, Note_on_c, 1, 59, 80
1, 31655, Note_on_c, 0, 69, 0
1, 31656, Note_on_c, 0, 68, 74
1, 31677, Note_on_c, 1, 63, 0
1, 31677, Note_on_c, 1, 59, 0
1, 31679, Note_on_c, 0, 68, 0
1, 31680, Note_on_c, 0, 68, 75
1, 31728, Note_on_c, 1, 63, 80
1, 31728, Note_on_c, 1, 59, 80
1, 31773, Note_on_c, 1, 63, 0
1, 31773, Note_on_c, 1, 59, 0
1, 31776, Note_on_c, 1, 63, 80
1, 31776, Note_on_c, 1, 59, 80
1, 31821, Note_on_c, 1, 63, 0
1, 31821, Note_on_c, 1, 59, 0
1, 31824, Note_on_c, 1, 63, 80
1, 31824, Note_on_c, 1, 59, 80
1, 31848, Note_on_c, 0, 68, 0
1, 31848, Note_on_c, 0, 71, 77
1, 31869, Note_on_c, 1, 63, 0
1, 31869, Note_on_c, 1, 59, 0
1, 31871, Note_on_c, 0, 71, 0
1, 31872, Note_on_c, 0, 71, 77
1, 31872, Note_on_c, 1, 61, 64
1, 31895, Note_on_c, 1, 61, 0
1, 31896, Note_on_c, 0, 71, 0
1, 31896, Note_on_c, 0, 69, 77
1, 31896, Note_on_c, 1, 64, 64
1, 31919, Note_on_c, 0, 69, 0
1, 31919, Note_on_c, 1, 64, 0
1, 31920, Note_on_c, 0, 69, 78
1, 31920, Note_on_c, 1, 59, 64
1, 31943, Note_on_c, 1, 59, 0
1, 31944, Note_on_c, 0, 69, 0
1, 31944, Note_on_c, 0, 68, 78
1, 31944, Note_on_c, 1, 64, 64
1, 31967, Note_on_c, 0, 68, 0
1, 31967, Note_on_c, 1, 64, 0
1, 31968, Note_on_c, 0, 68, 78
1, 31968, Note_on_c, 1, 57, 64
1, 31991, Note_on_c, 1, 57, 0
1, 31992, Note_on_c, 0, 68, 0
1, 31992, Note_on_c, 0, 66, 78
1, 31992, Note_on_c, 1, 64, 64
1, 32015, Note_on_c, 0, 66, 0
1, 32015, Note_on_c, 1, 64, 0
1, 32016, Note_on_c, 0, 66, 79
1, 32016, Note_on_c, 1, 59, 64
1, 32039, Note_on_c, 1, 59, 0
1, 32040, Note_on_c, 0, 66, 0
1, 32040, Note_on_c, 0, 68, 79
1, 32040, Note_on_c, 1, 64, 64
1, 32063, Note_on_c, 0, 68, 0
1, 32063, Note_on_c, 1, 64, 0
1, 32064, Note_on_c, 0, 71, 79
1, 32064, Note_on_c, 1, 61, 64
1, 32087, Note_on_c, 1, 61, 0
1, 32088, Note_on_c, 0, 71, 0
1, 32088, Note_on_c, 0, 69, 80
1, 32088, Note_on_c, 1, 64, 64
1, 32111, Note_on_c, 0, 69, 0
1, 32111, Note_on_c, 1, 64, 0
1, 32112, Note_on_c, 0, 69, 80
1, 32112, Note_on_c, 1, 59, 64
1, 32135, Note_on_c, 1, 59, 0
1, 32136, Note_on_c, 0, 69, 0
1, 32136, Note_on_c, 0, 68, 80
1, 32136, Note_on_c, 1, 64, 64
1, 32159, Note_on_c, 0, 68, 0
1, 32159, Note_on_c, 1, 64, 0
1, 32160, Note_on_c, 0, 68, 80
1, 32160, Note_on_c, 1, 57, 64
1, 32183, Note_on_c, 1, 57, 0
1, 32184, Note_on_c, 0, 68, 0
1, 32184, Note_on_c, 0, 66, 80
1, 32184, Note_on_c, 1, 64, 64
1, 32207, Note_on_c, 0, 66, 0
1, 32207, Note_on_c, 1, 64, 0
1, 32208, Note_on_c, 0, 66, 80
1, 32208, Note_on_c, 1, 59, 64
1, 32231, Note_on_c, 1, 59, 0
1, 32232, Note_on_c, 0, 66, 0
1, 32232, Note_on_c, 0, 68, 80
1, 32232, Note_on_c, 1, 64, 64
1, 32255, Note_on_c, 0, 68, 0
1, 32255, Note_on_c, 1, 64, 0
1, 32256, Note_on_c, 0, 71, 80
1, 32256, Note_on_c, 1, 61, 64
1, 32279, Note_on_c, 1, 61, 0
1, 32280, Note_on_c, 0, 71, 0
1, 32280, Note_on_c, 0, 69, 80
1, 32280, Note_on_c, 1, 64, 64
1, 32303, Note_on_c, 0, 69, 0
1, 32303, Note_on_c, 1, 64, 0
1, 32304, Note_on_c, 0, 69, 80
1, 32304, Note_on_c, 1, 59, 64
1, 32327, Note_on_c, 1, 59, 0
1, 32328, Note_on_c, 0, 69, 0
1, 32328, Note_on_c, 0, 68, 80
1, 32328, Note_on_c, 1, 64, 64
1, 32351, Note_on_c, 0, 68, 0
1, 32351, Note_on_c, 1, 64, 0
1, 32352, Note_on_c, 0, 68, 80
1, 32352, Note_on_c, 1, 58, 64
1, 32375, Note_on_c, 1, 58, 0
1, 32376, Note_on_c, 0, 68, 0
1, 32376, Note_on_c, 0, 66, 80
1, 32376, Note_on_c, 1, 64, 64
1, 32399, Note_on_c, 0, 66, 0
1, 32399, Note_on_c, 1, 64, 0
1, 32400, Note_on_c, 0, 66, 80
1, 32400, Note_on_c, 1, 58, 64
1, 32410, Note_on_c, 0, 66, 0
1, 32423, Note_on_c, 1, 58, 0
1, 32424, Note_on_c, 0, 73, 80
1, 32424, Note_on_c, 1, 64, 64
1, 32434, Note_on_c, 0, 73, 0
1, 32447, Note_on_c, 1, 64, 0
1, 32448, Note_on_c, 0, 68, 80
1, 32448, Note_on_c, 1, 58, 64
1, 32471, Note_on_c, 1, 58, 0
1, 32472, Note_on_c, 0, 68, 0
1, 32472, Note_on_c, 0, 66, 80
1, 32472, Note_on_c, 1, 64, 64
1, 32495, Note_on_c, 0, 66, 0
1, 32495, Note_on_c, 1, 64, 0
1, 32496, Note_on_c, 0, 66, 80
1, 32496, Note_on_c, 1, 58, 64
1, 32506, Note_on_c, 0, 66, 0
1, 32519, Note_on_c, 1, 58, 0
1, 32520, Note_on_c, 0, 73, 80
1, 32520, Note_on_c, 1, 64, 64
1, 32530, Note_on_c, 0, 73, 0
1, 32543, Note_on_c, 1, 64, 0
1, 32544, Note_on_c, 0, 68, 80
1, 32544, Note_on_c, 1, 58, 64
1, 32567, Note_on_c, 1, 58, 0
1, 32568, Note_on_c, 0, 68, 0
1, 32568, Note_on_c, 0, 66, 80
1, 32568, Note_on_c, 1, 64, 64
1, 32591, Note_on_c, 0, 66, 0
1, 32591, Note_on_c, 1, 64, 0
1, 32592, Note_on_c, 0, 66, 80
1, 32592, Note_on_c, 1, 58, 64
1, 32602, Note_on_c, 0, 66, 0
1, 32615, Note_on_c, 1, 58, 0
1, 32616, Note_on_c, 0, 73, 80
1, 32616, Note_on_c, 1, 64, 64
1, 32626, Note_on_c, 0, 73, 0
1, 32640, Note_on_c, 0, 66, 80
1, 32640, Note_on_c, 1, 59, 80
1, 32729, Note_on_c, 1, 64, 0
1, 32736, Note_on_c, 1, 63, 64
1, 32759, Note_on_c, 0, 66, 0
1, 32760, Note_on_c, 0, 68, 80
1, 32783, Note_on_c, 0, 68, 0
1, 32784, Note_on_c, 0, 69, 78
1, 32807, Note_on_c, 0, 69, 0
1, 32808, Note_on_c, 0, 68, 76
1, 32817, Note_on_c, 1, 59, 0
1, 32825, Note_on_c, 1, 63, 0
1, 32831, Note_on_c, 0, 68, 0
1, 32832, Note_on_c, 0, 71, 74
1, 32855, Note_on_c, 0, 71, 0
1, 32856, Note_on_c, 0, 69, 72
1, 32879, Note_on_c, 0, 69, 0
1, 32880, Note_on_c, 0, 68, 70
1, 32903, Note_on_c, 0, 68, 0
1, 32904, Note_on_c, 0, 66, 68
1, 32927, Note_on_c, 0, 66, 0
1, 32928, Note_on_c, 0, 64, 66
1, 32951, Note_on_c, 0, 64, 0
1, 32952, Note_on_c, 0, 63, 64
1, 32975, Note_on_c, 0, 63, 0
1, 32976, Note_on_c, 0, 69, 64
1, 32999, Note_on_c, 0, 69, 0
1, 33000, Note_on_c, 0, 66, 64
1, 33023, Note_on_c, 0, 66, 0
1, 33024, Note_on_c, 0, 63, 64
1, 33047, Note_on_c, 0, 63, 0
1, 33048, Note_on_c, 0, 60, 64
1, 33071, Note_on_c, 0, 60, 0
1, 33072, Note_on_c, 0, 69, 65
1, 33095, Note_on_c, 0, 69, 0
1, 33096, Note_on_c, 0, 66, 66
1, 33119, Note_on_c, 0, 66, 0
1, 33120, Note_on_c, 0, 63, 67
1, 33120, Note_on_c, 1, 57, 80
1, 33143, Note_on_c, 0, 63, 0
1, 33144, Note_on_c, 0, 60, 68
1, 33167, Note_on_c, 0, 60, 0
1, 33168, Note_on_c, 0, 69, 69
1, 33191, Note_on_c, 0, 69, 0
1, 33192, Note_on_c, 0, 66, 70
1, 33209, Note_on_c, 1, 57, 0
1, 33215, Note_on_c, 0, 66, 0
1, 33216, Note_on_c, 0, 63, 71
1, 33216, Note_on_c, 1, 54, 80
1, 33239, Note_on_c, 0, 63, 0
1, 33240, Note_on_c, 0, 60, 72
1, 33263, Note_on_c, 0, 60, 0
1, 33264, Note_on_c, 0, 69, 73
1, 33287, Note_on_c, 0, 69, 0
1, 33288, Note_on_c, 0, 66, 74
1, 33305, Note_on_c, 1, 54, 0
1, 33311, Note_on_c, 0, 66, 0
1, 33312, Note_on_c, 0, 63, 75
1, 33312, Note_on_c, 1, 51, 80
1, 33335, Note_on_c, 0, 63, 0
1, 33336, Note_on_c, 0, 60, 76
1, 33359, Note_on_c, 0, 60, 0
1, 33360, Note_on_c, 0, 71, 77
1, 33383, Note_on_c, 0, 71, 0
1, 33384, Note_on_c, 0, 68, 78
1, 33401, Note_on_c, 1, 51, 0
1, 33407, Note_on_c, 0, 68, 0
1, 33408, Note_on_c, 0, 65, 79
1, 33431, Note_on_c, 0, 65, 0
1, 33432, Note_on_c, 0, 62, 80
1, 33455, Note_on_c, 0, 62, 0
1, 33456, Note_on_c, 0, 71, 80
1, 33479, Note_on_c, 0, 71, 0
1, 33480, Note_on_c, 0, 68, 80
1, 33503, Note_on_c, 0, 68, 0
1, 33504, Note_on_c, 0, 65, 80
1, 33504, Note_on_c, 1, 59, 80
1, 33504, Note_on_c, 1, 47, 80
1, 33527, Note_on_c, 0, 65, 0
1, 33528, Note_on_c, 0, 62, 80
1, 33551, Note_on_c, 0, 62, 0
1, 33552, Note_on_c, 0, 71, 80
1, 33575, Note_on_c, 0, 71, 0
1, 33576, Note_on_c, 0, 68, 80
1, 33593, Note_on_c, 1, 59, 0
1, 33593, Note_on_c, 1, 47, 0
1, 33599, Note_on_c, 0, 68, 0
1, 33600, Note_on_c, 0, 65, 80
1, 33600, Note_on_c, 1, 56, 80
1, 33600, Note_on_c, 1, 44, 80
1, 33623, Note_on_c, 0, 65, 0
1, 33624, Note_on_c, 0, 62, 80
1, 33647, Note_on_c, 0, 62, 0
1, 33648, Note_on_c, 0, 71, 80
1, 33671, Note_on_c, 0, 71, 0
1, 33672, Note_on_c, 0, 68, 80
1, 33689, Note_on_c, 1, 56, 0
1, 33689, Note_on_c, 1, 44, 0
1, 33695, Note_on_c, 0, 68, 0
1, 33696, Note_on_c, 0, 65, 80
1, 33696, Note_on_c, 1, 53, 80
1, 33696, Note_on_c, 1, 41, 80
1, 33719, Note_on_c, 0, 65, 0
1, 33720, Note_on_c, 0, 62, 80
1, 33743, Note_on_c, 0, 62, 0
1, 33744, Note_on_c, 0, 73, 80
1, 33767, Note_on_c, 0, 73, 0
1, 33768, Note_on_c, 0, 70, 80
1, 33785, Note_on_c, 1, 53, 0
1, 33785, Note_on_c, 1, 41, 0
1, 33791, Note_on_c, 0, 70, 0
1, 33792, Note_on_c, 0, 67, 86
1, 33815, Note_on_c, 0, 67, 0
1, 33816, Note_on_c, 0, 64, 86
1, 33839, Note_on_c, 0, 64, 0
1, 33840, Note_on_c, 0, 73, 86
1, 33863, Note_on_c, 0, 73, 0
1, 33864, Note_on_c, 0, 70, 86
1, 33887, Note_on_c, 0, 70, 0
1, 33888, Note_on_c, 0, 67, 86
1, 33888, Note_on_c, 1, 61, 86
1, 33888, Note_on_c, 1, 49, 86
1, 33911, Note_on_c, 0, 67, 0
1, 33912, Note_on_c, 0, 64, 86
1, 33935, Note_on_c, 0, 64, 0
1, 33936, Note_on_c, 0, 73, 86
1, 33959, Note_on_c, 0, 73, 0
1, 33960, Note_on_c, 0, 70, 86
1, 33977, Note_on_c, 1, 61, 0
1, 33977, Note_on_c, 1, 49, 0
1, 33983, Note_on_c, 0, 70, 0
1, 33984, Note_on_c, 0, 67, 86
1, 33984, Note_on_c, 1, 58, 86
1, 33984, Note_on_c, 1, 46, 86
1, 34007, Note_on_c, 0, 67, 0
1, 34008, Note_on_c, 0, 64, 86
1, 34031, Note_on_c, 0, 64, 0
1, 34032, Note_on_c, 0, 73, 86
1, 34055, Note_on_c, 0, 73, 0
1, 34056, Note_on_c, 0, 70, 86
1, 34073, Note_on_c, 1, 58, 0
1, 34073, Note_on_c, 1, 46, 0
1, 34079, Note_on_c, 0, 70, 0
1, 34080, Note_on_c, 0, 67, 86
1, 34080, Note_on_c, 1, 55, 86
1, 34080, Note_on_c, 1, 43, 86
1, 34103, Note_on_c, 0, 67, 0
1, 34104, Note_on_c, 0, 64, 86
1, 34127, Note_on_c, 0, 64, 0
1, 34128, Note_on_c, 0, 76, 86
1, 34151, Note_on_c, 0, 76, 0
1, 34152, Note_on_c, 0, 73, 86
1, 34169, Note_on_c, 1, 55, 0
1, 34169, Note_on_c, 1, 43, 0
1, 34175, Note_on_c, 0, 73, 0
1, 34176, Note_on_c, 0, 70, 86
1, 34199, Note_on_c, 0, 70, 0
1, 34200, Note_on_c, 0, 67, 86
1, 34223, Note_on_c, 0, 67, 0
1, 34224, Note_on_c, 0, 76, 86
1, 34247, Note_on_c, 0, 76, 0
1, 34248, Note_on_c, 0, 73, 86
1, 34271, Note_on_c, 0, 73, 0
1, 34272, Note_on_c, 0, 70, 86
1, 34272, Note_on_c, 1, 42, 86
1, 34272, Note_on_c, 1, 30, 86
1, 34295, Note_on_c, 0, 70, 0
1, 34296, Note_on_c, 0, 67, 86
1, 34319, Note_on_c, 0, 67, 0
1, 34320, Note_on_c, 0, 76, 86
1, 34343, Note_on_c, 0, 76, 0
1, 34344, Note_on_c, 0, 73, 86
1, 34361, Note_on_c, 1, 42, 0
1, 34361, Note_on_c, 1, 30, 0
1, 34367, Note_on_c, 0, 73, 0
1, 34368, Note_on_c, 0, 70, 86
1, 34368, Note_on_c, 1, 49, 86
1, 34368, Note_on_c, 1, 37, 86
1, 34391, Note_on_c, 0, 70, 0
1, 34392, Note_on_c, 0, 67, 86
1, 34415, Note_on_c, 0, 67, 0
1, 34416, Note_on_c, 0, 76, 86
1, 34439, Note_on_c, 0, 76, 0
1, 34440, Note_on_c, 0, 73, 86
1, 34457, Note_on_c, 1, 49, 0
1, 34457, Note_on_c, 1, 37, 0
1, 34463, Note_on_c, 0, 73, 0
1, 34464, Note_on_c, 0, 70, 86
1, 34464, Note_on_c, 1, 52, 86
1, 34464, Note_on_c, 1, 40, 86
1, 34487, Note_on_c, 0, 70, 0
1, 34488, Note_on_c, 0, 67, 86
1, 34511, Note_on_c, 0, 67, 0
1, 34512, Note_on_c, 0, 71, 86
1, 34535, Note_on_c, 0, 71, 0
1, 34536, Note_on_c, 0, 69, 86
1, 34553, Note_on_c, 1, 52, 0
1, 34553, Note_on_c, 1, 40, 0
1, 34559, Note_on_c, 0, 69, 0
1, 34560, Note_on_c, 0, 66, 86
1, 34583, Note_on_c, 0, 66, 0
1, 34584, Note_on_c, 0, 59, 86
1, 34607, Note_on_c, 0, 59, 0
1, 34608, Note_on_c, 0, 71, 86
1, 34631, Note_on_c, 0, 71, 0
1, 34632, Note_on_c, 0, 69, 86
1, 34655, Note_on_c, 0, 69, 0
1, 34656, Note_on_c, 0, 66, 86
1, 34656, Note_on_c, 1, 51, 86
1, 34656, Note_on_c, 1, 39, 86
1, 34679, Note_on_c, 0, 66, 0
1, 34680, Note_on_c, 0, 59, 86
1, 34703, Note_on_c, 0, 59, 0
1, 34704, Note_on_c, 0, 71, 86
1, 34727, Note_on_c, 0, 71, 0
1, 34728, Note_on_c, 0, 69, 86
1, 34745, Note_on_c, 1, 51, 0
1, 34745, Note_on_c, 1, 39, 0
1, 34751, Note_on_c, 0, 69, 0
1, 34752, Note_on_c, 0, 66, 86
1, 34752, Note_on_c, 1, 54, 86
1, 34752, Note_on_c, 1, 42, 86
1, 34775, Note_on_c, 0, 66, 0
1, 34776, Note_on_c, 0, 59, 86
1, 34799, Note_on_c, 0, 59, 0
1, 34800, Note_on_c, 0, 71, 86
1, 34823, Note_on_c, 0, 71, 0
1, 34824, Note_on_c, 0, 69, 86
1, 34841, Note_on_c, 1, 54, 0
1, 34841, Note_on_c, 1, 42, 0
1, 34847, Note_on_c, 0, 69, 0
1, 34848, Note_on_c, 0, 66, 86
1, 34848, Note_on_c, 1, 57, 86
1, 34848, Note_on_c, 1, 45, 86
1, 34871, Note_on_c, 0, 66, 0
1, 34872, Note_on_c, 0, 59, 86
1, 34895, Note_on_c, 0, 59, 0
1, 34896, Note_on_c, 0, 69, 86
1, 34919, Note_on_c, 0, 69, 0
1, 34920, Note_on_c, 0, 66, 86
1, 34937, Note_on_c, 1, 57, 0
1, 34937, Note_on_c, 1, 45, 0
1, 34943, Note_on_c, 0, 66, 0
1, 34944, Note_on_c, 0, 63, 86
1, 34967, Note_on_c, 0, 63, 0
1, 34968, Note_on_c, 0, 60, 86
1, 34991, Note_on_c, 0, 60, 0
1, 34992, Note_on_c, 0, 69, 86
1, 35015, Note_on_c, 0, 69, 0
1, 35016, Note_on_c, 0, 66, 86
1, 35039, Note_on_c, 0, 66, 0
1, 35040, Note_on_c, 0, 63, 86
1, 35040, Note_on_c, 1, 57, 86
1, 35063, Note_on_c, 0, 63, 0
1, 35064, Note_on_c, 0, 60, 86
1, 35087, Note_on_c, 0, 60, 0
1, 35088, Note_on_c, 0, 69, 86
1, 35111, Note_on_c, 0, 69, 0
1, 35112, Note_on_c, 0, 66, 86
1, 35129, Note_on_c, 1, 57, 0
1, 35135, Note_on_c, 0, 66, 0
1, 35136, Note_on_c, 0, 63, 86
1, 35136, Note_on_c, 1, 54, 86
1, 35159, Note_on_c, 0, 63, 0
1, 35160, Note_on_c, 0, 60, 86
1, 35183, Note_on_c, 0, 60, 0
1, 35184, Note_on_c, 0, 69, 86
1, 35207, Note_on_c, 0, 69, 0
1, 35208, Note_on_c, 0, 66, 86
1, 35225, Note_on_c, 1, 54, 0
1, 35231, Note_on_c, 0, 66, 0
1, 35232, Note_on_c, 0, 63, 86
1, 35232, Note_on_c, 1, 51, 86
1, 35255, Note_on_c, 0, 63, 0
1, 35256, Note_on_c, 0, 60, 86
1, 35279, Note_on_c, 0, 60, 0
1, 35280, Note_on_c, 0, 69, 86
1, 35295, Note_on_c, 0, 69, 0
1, 35296, Note_on_c, 0, 66, 86
1, 35311, Note_on_c, 0, 66, 0
1, 35312, Note_on_c, 0, 63, 86
1, 35321, Note_on_c, 1, 51, 0
1, 35327, Note_on_c, 0, 63, 0
1, 35328, Note_on_c, 0, 59, 86
1, 35328, Note_on_c, 1, 47, 80
1, 35384, Note_on_c, 0, 59, 0
1, 35384, Note_on_c, 0, 63, 86
1, 35384, Note_on_c, 1, 47, 0
1, 35384, Note_on_c, 1, 51, 80
1, 35392, Note_on_c, 0, 63, 0
1, 35392, Note_on_c, 0, 66, 86
1, 35392, Note_on_c, 1, 51, 0
1, 35392, Note_on_c, 1, 54, 80
1, 35400, Note_on_c, 0, 66, 0
1, 35400, Note_on_c, 0, 69, 86
1, 35400, Note_on_c, 1, 54, 0
1, 35400, Note_on_c, 1, 57, 80
1, 35408, Note_on_c, 0, 69, 0
1, 35408, Note_on_c, 0, 66, 86
1, 35408, Note_on_c, 1, 57, 0
1, 35408, Note_on_c, 1, 54, 80
1, 35416, Note_on_c, 0, 66, 0
1, 35416, Note_on_c, 0, 63, 86
1, 35416, Note_on_c, 1, 54, 0
1, 35416, Note_on_c, 1, 51, 80
1, 35424, Note_on_c, 0, 63, 0
1, 35424, Note_on_c, 0, 59, 86
1, 35424, Note_on_c, 1, 51, 0
1, 35424, Note_on_c, 1, 47, 80
1, 35469, Note_on_c, 0, 59, 0
1, 35469, Note_on_c, 1, 47, 0
1, 35472, Note_on_c, 0, 75, 86
1, 35472, Note_on_c, 0, 66, 86
1, 35472, Note_on_c, 1, 57, 80
1, 35492, Note_on_c, 0, 75, 0
1, 35492, Note_on_c, 0, 66, 0
1, 35492, Note_on_c, 1, 57, 0
1, 35520, Note_on_c, 0, 75, 102
1, 35520, Note_on_c, 0, 66, 102
1, 35520, Note_on_c, 1, 57, 80
1, 35616, Note_on_c, 0, 75, 0
1, 35616, Note_on_c, 0, 66, 0
1, 35616, Note_on_c, 0, 76, 86
1, 35616, Note_on_c, 0, 64, 86
1, 35616, Note_on_c, 1, 57, 0
1, 35616, Note_on_c, 1, 56, 80
1, 35636, Note_on_c, 0, 76, 0
1, 35636, Note_on_c, 0, 64, 0
1, 35636, Note_on_c, 1, 56, 0
1, 35664, Note_on_c, 0, 68, 64
1, 35687, Note_on_c, 0, 68, 0
1, 35688, Note_on_c, 0, 74, 64
1, 35711, Note_on_c, 0, 74, 0
1, 35712, Note_on_c, 0, 69, 64
1, 35735, Note_on_c, 0, 69, 0
1, 35736, Note_on_c, 0, 73, 64
1, 35759, Note_on_c, 0, 73, 0
1, 35760, Note_on_c, 0, 65, 64
1, 35783, Note_on_c, 0, 65, 0
1, 35784, Note_on_c, 0, 71, 64
1, 35807, Note_on_c, 0, 71, 0
1, 35808, Note_on_c, 0, 66, 64
1, 35831, Note_on_c, 0, 66, 0
1, 35832, Note_on_c, 0, 69, 64
1, 35855, Note_on_c, 0, 69, 0
1, 35856, Note_on_c, 0, 56, 64
1, 35879, Note_on_c, 0, 56, 0
1, 35880, Note_on_c, 0, 65, 64
1, 35903, Note_on_c, 0, 65, 0
1, 35904, Note_on_c, 0, 57, 64
1, 35927, Note_on_c, 0, 57, 0
1, 35928, Note_on_c, 0, 66, 64
1, 35951, Note_on_c, 0, 66, 0
1, 35952, Note_on_c, 0, 61, 64
1, 35975, Note_on_c, 0, 61, 0
1, 35976, Note_on_c, 0, 69, 64
1, 35999, Note_on_c, 0, 69, 0
1, 36000, Note_on_c, 0, 59, 64
1, 36023, Note_on_c, 0, 59, 0
1, 36024, Note_on_c, 0, 64, 64
1, 36047, Note_on_c, 0, 64, 0
1, 36048, Note_on_c, 0, 57, 64
1, 36071, Note_on_c, 0, 57, 0
1, 36072, Note_on_c, 0, 63, 64
1, 36095, Note_on_c, 0, 63, 0
1, 36096, Note_on_c, 0, 59, 80
1, 36096, Note_on_c, 1, 47, 80
1, 36152, Note_on_c, 0, 59, 0
1, 36152, Note_on_c, 0, 63, 80
1, 36152, Note_on_c, 1, 47, 0
1, 36152, Note_on_c, 1, 51, 80
1, 36160, Note_on_c, 0, 63, 0
1, 36160, Note_on_c, 0, 66, 80
1, 36160, Note_on_c, 1, 51, 0
1, 36160, Note_on_c, 1, 54, 80
1, 36168, Note_on_c, 0, 66, 0
1, 36168, Note_on_c, 0, 69, 80
1, 36168, Note_on_c, 1, 54, 0
1, 36168, Note_on_c, 1, 57, 80
1, 36176, Note_on_c, 0, 69, 0
1, 36176, Note_on_c, 0, 66, 80
1, 36176, Note_on_c, 1, 57, 0
1, 36176, Note_on_c, 1, 54, 80
1, 36184, Note_on_c, 0, 66, 0
1, 36184, Note_on_c, 0, 63, 80
1, 36184, Note_on_c, 1, 54, 0
1, 36184, Note_on_c, 1, 51, 80
1, 36192, Note_on_c, 0, 63, 0
1, 36192, Note_on_c, 0, 59, 80
1, 36192, Note_on_c, 1, 51, 0
1, 36192, Note_on_c, 1, 47, 80
1, 36237, Note_on_c, 0, 59, 0
1, 36237, Note_on_c, 1, 47, 0
1, 36240, Note_on_c, 0, 75, 80
1, 36240, Note_on_c, 0, 66, 80
1, 36240, Note_on_c, 1, 60, 80
1, 36240, Note_on_c, 1, 57, 80
1, 36260, Note_on_c, 0, 75, 0
1, 36260, Note_on_c, 0, 66, 0
1, 36260, Note_on_c, 1, 60, 0
1, 36260, Note_on_c, 1, 57, 0
1, 36288, Note_on_c, 0, 75, 96
1, 36288, Note_on_c, 0, 66, 96
1, 36288, Note_on_c, 1, 60, 80
1, 36288, Note_on_c, 1, 57, 80
1, 36384, Note_on_c, 0, 75, 0
1, 36384, Note_on_c, 0, 66, 0
1, 36384, Note_on_c, 0, 76, 80
1, 36384, Note_on_c, 0, 64, 80
1, 36384, Note_on_c, 1, 60, 0
1, 36384, Note_on_c, 1, 57, 0
1, 36384, Note_on_c, 1, 59, 80
1, 36384, Note_on_c, 1, 56, 80
1, 36404, Note_on_c, 0, 76, 0
1, 36404, Note_on_c, 0, 64, 0
1, 36404, Note_on_c, 1, 59, 0
1, 36404, Note_on_c, 1, 56, 0
1, 36432, Note_on_c, 0, 56, 86
1, 36434, Note_on_c, 0, 59, 86
1, 36436, Note_on_c, 0, 64, 86
1, 36438, Note_on_c, 0, 71, 86
1, 36440, Note_on_c, 0, 74, 86
1, 36452, Note_on_c, 0, 74, 0
1, 36452, Note_on_c, 0, 71, 0
1, 36452, Note_on_c, 0, 64, 0
1, 36452, Note_on_c, 0, 59, 0
1, 36452, Note_on_c, 0, 56, 0
1, 36480, Note_on_c, 0, 57, 80
1, 36482, Note_on_c, 0, 61, 80
1, 36484, Note_on_c, 0, 64, 80
1, 36486, Note_on_c, 0, 69, 80
1, 36488, Note_on_c, 0, 73, 80
1, 36500, Note_on_c, 0, 73, 0
1, 36500, Note_on_c, 0, 69, 0
1, 36500, Note_on_c, 0, 64, 0
1, 36500, Note_on_c, 0, 61, 0
1, 36500, Note_on_c, 0, 57, 0
1, 36528, Note_on_c, 0, 59, 75
1, 36530, Note_on_c, 0, 62, 75
1, 36532, Note_on_c, 0, 64, 75
1, 36534, Note_on_c, 0, 68, 75
1, 36536, Note_on_c, 0, 71, 75
1, 36548, Note_on_c, 0, 71, 0
1, 36548, Note_on_c, 0, 68, 0
1, 36548, Note_on_c, 0, 64, 0
1, 36548, Note_on_c, 0, 62, 0
1, 36548, Note_on_c, 0, 59, 0
1, 36576, Note_on_c, 0, 68, 75
1, 36576, Note_on_c, 1, 64, 80
1, 36576, Note_on_c, 1, 61, 80
1, 36588, Note_on_c, 0, 68, 0
1, 36588, Note_on_c, 0, 69, 75
1, 36621, Note_on_c, 0, 69, 0
1, 36621, Note_on_c, 1, 64, 0
1, 36621, Note_on_c, 1, 61, 0
1, 36624, Note_on_c, 0, 73, 75
1, 36639, Note_on_c, 0, 73, 0
1, 36640, Note_on_c, 0, 69, 75
1, 36655, Note_on_c, 0, 69, 0
1, 36656, Note_on_c, 0, 66, 75
1, 36671, Note_on_c, 0, 66, 0
1, 36672, Note_on_c, 0, 68, 75
1, 36672, Note_on_c, 0, 64, 75
1, 36768, Note_on_c, 0, 64, 0
1, 36768, Note_on_c, 0, 71, 75
1, 36768, Note_on_c, 1, 47, 80
1, 36813, Note_on_c, 0, 71, 0
1, 36813, Note_on_c, 0, 68, 0
1, 36816, Note_on_c, 0, 63, 75
1, 36816, Note_on_c, 0, 57, 75
1, 36857, Note_on_c, 1, 47, 0
1, 36861, Note_on_c, 0, 63, 0
1, 36861, Note_on_c, 0, 57, 0
1, 36864, Note_on_c, 0, 64, 75
1, 36864, Note_on_c, 0, 56, 75
1, 36864, Note_on_c, 1, 52, 80
1, 36864, Note_on_c, 1, 40, 80
1, 36953, Note_on_c, 0, 64, 0
1, 36953, Note_on_c, 0, 56, 0
1, 36953, Note_on_c, 1, 52, 0
1, 36953, Note_on_c, 1, 40, 0
1, 36960, Note_on_c, 0, 64, 64
1, 36984, Note_on_c, 0, 64, 0
1, 36984, Note_on_c, 0, 63, 64
1, 37007, Note_on_c, 0, 63, 0
1, 37008, Note_on_c, 0, 64, 64
1, 37008, Note_on_c, 1, 56, 64
1, 37032, Note_on_c, 0, 64, 0
1, 37032, Note_on_c, 0, 68, 64
1, 37053, Note_on_c, 1, 56, 0
1, 37055, Note_on_c, 0, 68, 0
1, 37056, Note_on_c, 0, 68, 64
1, 37056, Note_on_c, 1, 57, 64
1, 37080, Note_on_c, 0, 68, 0
1, 37080, Note_on_c, 0, 61, 65
1, 37103, Note_on_c, 0, 61, 0
1, 37104, Note_on_c, 0, 61, 66
1, 37128, Note_on_c, 0, 61, 0
1, 37128, Note_on_c, 0, 69, 67
1, 37151, Note_on_c, 0, 69, 0
1, 37152, Note_on_c, 0, 69, 68
1, 37152, Note_on_c, 1, 57, 0
1, 37152, Note_on_c, 1, 59, 68
1, 37176, Note_on_c, 0, 69, 0
1, 37176, Note_on_c, 0, 63, 69
1, 37199, Note_on_c, 0, 63, 0
1, 37200, Note_on_c, 0, 63, 70
1, 37224, Note_on_c, 0, 63, 0
1, 37224, Note_on_c, 0, 71, 71
1, 37241, Note_on_c, 1, 59, 0
1, 37247, Note_on_c, 0, 71, 0
1, 37248, Note_on_c, 0, 69, 72
1, 37248, Note_on_c, 1, 61, 72
1, 37272, Note_on_c, 0, 69, 0
1, 37272, Note_on_c, 0, 68, 73
1, 37293, Note_on_c, 1, 61, 0
1, 37295, Note_on_c, 0, 68, 0
1, 37296, Note_on_c, 0, 76, 74
1, 37296, Note_on_c, 1, 68, 74
1, 37320, Note_on_c, 0, 76, 0
1, 37320, Note_on_c, 0, 75, 75
1, 37341, Note_on_c, 1, 68, 0
1, 37343, Note_on_c, 0, 75, 0
1, 37344, Note_on_c, 0, 75, 76
1, 37344, Note_on_c, 1, 66, 76
1, 37368, Note_on_c, 0, 75, 0
1, 37368, Note_on_c, 0, 73, 77
1, 37389, Note_on_c, 1, 66, 0
1, 37391, Note_on_c, 0, 73, 0
1, 37392, Note_on_c, 0, 73, 78
1, 37392, Note_on_c, 1, 64, 78
1, 37416, Note_on_c, 0, 73, 0
1, 37416, Note_on_c, 0, 71, 80
1, 37437, Note_on_c, 1, 64, 0
1, 37439, Note_on_c, 0, 71, 0
1, 37440, Note_on_c, 0, 71, 79
1, 37440, Note_on_c, 1, 63, 80
1, 37464, Note_on_c, 0, 71, 0
1, 37464, Note_on_c, 0, 69, 78
1, 37485, Note_on_c, 1, 63, 0
1, 37487, Note_on_c, 0, 69, 0
1, 37488, Note_on_c, 0, 69, 77
1, 37488, Note_on_c, 1, 61, 78
1, 37512, Note_on_c, 0, 69, 0
1, 37512, Note_on_c, 0, 68, 76
1, 37533, Note_on_c, 1, 61, 0
1, 37535, Note_on_c, 0, 68, 0
1, 37536, Note_on_c, 0, 68, 76
1, 37536, Note_on_c, 1, 59, 76
1, 37560, Note_on_c, 0, 68, 0
1, 37560, Note_on_c, 0, 66, 75
1, 37581, Note_on_c, 1, 59, 0
1, 37583, Note_on_c, 0, 66, 0
1, 37584, Note_on_c, 0, 66, 74
1, 37584, Note_on_c, 1, 57, 75
1, 37608, Note_on_c, 0, 66, 0
1, 37608, Note_on_c, 0, 64, 73
1, 37629, Note_on_c, 1, 57, 0
1, 37631, Note_on_c, 0, 64, 0
1, 37632, Note_on_c, 0, 64, 72
1, 37632, Note_on_c, 1, 56, 73
1, 37677, Note_on_c, 1, 56, 0
1, 37680, Note_on_c, 1, 58, 72
1, 37725, Note_on_c, 1, 58, 0
1, 37728, Note_on_c, 1, 59, 70
1, 37765, Note_on_c, 0, 64, 0
1, 37773, Note_on_c, 1, 59, 0
1, 37776, Note_on_c, 0, 68, 68
1, 37776, Note_on_c, 1, 47, 68
1, 37782, Note_on_c, 0, 68, 0
1, 37782, Note_on_c, 0, 66, 68
1, 37799, Note_on_c, 0, 66, 0
1, 37800, Note_on_c, 0, 64, 67
1, 37821, Note_on_c, 1, 47, 0
1, 37823, Note_on_c, 0, 64, 0
1, 37824, Note_on_c, 0, 64, 66
1, 37824, Note_on_c, 1, 49, 67
1, 37891, Note_on_c, 0, 64, 0
1, 37896, Note_on_c, 0, 69, 64
1, 37908, Note_on_c, 0, 69, 0
1, 37908, Note_on_c, 0, 73, 64
1, 37913, Note_on_c, 1, 49, 0
1, 37920, Note_on_c, 0, 73, 0
1, 37920, Note_on_c, 0, 76, 75
1, 37940, Note_on_c, 0, 76, 0
1, 37968, Note_on_c, 0, 76, 75
1, 37988, Note_on_c, 0, 76, 0
1, 38016, Note_on_c, 0, 76, 75
1, 38055, Note_on_c, 0, 76, 0
1, 38160, Note_on_c, 0, 73, 64
1, 38172, Note_on_c, 0, 73, 0
1, 38172, Note_on_c, 0, 69, 64
1, 38206, Note_on_c, 0, 69, 0
1, 38208, Note_on_c, 0, 71, 64
1, 38220, Note_on_c, 0, 71, 0
1, 38220, Note_on_c, 0, 68, 64
1, 38254, Note_on_c, 0, 68, 0
1, 38256, Note_on_c, 0, 69, 64
1, 38268, Note_on_c, 0, 69, 0
1, 38268, Note_on_c, 0, 66, 64
1, 38302, Note_on_c, 0, 66, 0
1, 38304, Note_on_c, 0, 68, 64
1, 38316, Note_on_c, 0, 68, 0
1, 38316, Note_on_c, 0, 64, 64
1, 38350, Note_on_c, 0, 64, 0
1, 38352, Note_on_c, 0, 63, 64
1, 38352, Note_on_c, 1, 47, 64
1, 38364, Note_on_c, 0, 63, 0
1, 38364, Note_on_c, 0, 57, 64
1, 38397, Note_on_c, 1, 47, 0
1, 38398, Note_on_c, 0, 57, 0
1, 38400, Note_on_c, 0, 64, 64
1, 38400, Note_on_c, 0, 56, 64
1, 38400, Note_on_c, 1, 52, 64
1, 38400, Note_on_c, 1, 40, 64
1, 38445, Note_on_c, 0, 64, 0
1, 38445, Note_on_c, 0, 56, 0
1, 38445, Note_on_c, 1, 52, 0
1, 38445, Note_on_c, 1, 40, 0
1, 38448, Note_on_c, 0, 63, 64
1, 38448, Note_on_c, 1, 47, 64
1, 38460, Note_on_c, 0, 63, 0
1, 38460, Note_on_c, 0, 57, 64
1, 38493, Note_on_c, 1, 47, 0
1, 38494, Note_on_c, 0, 57, 0
1, 38496, Note_on_c, 0, 64, 64
1, 38496, Note_on_c, 0, 56, 64
1, 38496, Note_on_c, 1, 52, 64
1, 38496, Note_on_c, 1, 40, 64
1, 38541, Note_on_c, 0, 64, 0
1, 38541, Note_on_c, 0, 56, 0
1, 38541, Note_on_c, 1, 52, 0
1, 38541, Note_on_c, 1, 40, 0
1, 38544, Note_on_c, 0, 63, 64
1, 38544, Note_on_c, 1, 47, 64
1, 38556, Note_on_c, 0, 63, 0
1, 38556, Note_on_c, 0, 57, 64
1, 38589, Note_on_c, 1, 47, 0
1, 38590, Note_on_c, 0, 57, 0
1, 38592, Note_on_c, 0, 64, 64
1, 38592, Note_on_c, 0, 56, 64
1, 38592, Note_on_c, 1, 52, 64
1, 38592, Note_on_c, 1, 40, 64
1, 38681, Note_on_c, 0, 64, 0
1, 38681, Note_on_c, 0, 56, 0
1, 38681, Note_on_c, 1, 52, 0
1, 38681, Note_on_c, 1, 40, 0
1, 38784, Note_on_c, 0, 68, 80
1, 38784, Note_on_c, 1, 48, 80
1, 38790, Note_on_c, 1, 51, 80
1, 38792, Note_on_c, 0, 75, 80
1, 38796, Note_on_c, 1, 56, 80
1, 38800, Note_on_c, 0, 80, 80
1, 38802, Note_on_c, 1, 60, 80
1, 38877, Note_on_c, 0, 80, 0
1, 38877, Note_on_c, 0, 75, 0
1, 38877, Note_on_c, 0, 68, 0
1, 38877, Note_on_c, 1, 60, 0
1, 38877, Note_on_c, 1, 56, 0
1, 38877, Note_on_c, 1, 51, 0
1, 38877, Note_on_c, 1, 48, 0
1, 38880, Note_on_c, 0, 75, 75
1, 38903, Note_on_c, 0, 75, 0
1, 38904, Note_on_c, 0, 76, 75
1, 38912, Note_on_c, 0, 76, 0
1, 38912, Note_on_c, 0, 75, 75
1, 38920, Note_on_c, 0, 75, 0
1, 38920, Note_on_c, 0, 73, 75
1, 38928, Note_on_c, 0, 73, 0
1, 38928, Note_on_c, 0, 75, 75
1, 38928, Note_on_c, 1, 68, 75
1, 38928, Note_on_c, 1, 60, 75
1, 38951, Note_on_c, 0, 75, 0
1, 38952, Note_on_c, 0, 78, 75
1, 38973, Note_on_c, 1, 68, 0
1, 38973, Note_on_c, 1, 60, 0
1, 38975, Note_on_c, 0, 78, 0
1, 38976, Note_on_c, 0, 78, 75
1, 38976, Note_on_c, 1, 61, 75
1, 38999, Note_on_c, 1, 61, 0
1, 39000, Note_on_c, 0, 78, 0
1, 39000, Note_on_c, 0, 76, 75
1, 39000, Note_on_c, 1, 68, 75
1, 39023, Note_on_c, 0, 76, 0
1, 39023, Note_on_c, 1, 68, 0
1, 39024, Note_on_c, 0, 76, 75
1, 39024, Note_on_c, 1, 63, 75
1, 39047, Note_on_c, 1, 63, 0
1, 39048, Note_on_c, 0, 76, 0
1, 39048, Note_on_c, 0, 75, 75
1, 39048, Note_on_c, 1, 68, 75
1, 39071, Note_on_c, 0, 75, 0
1, 39071, Note_on_c, 1, 68, 0
1, 39072, Note_on_c, 0, 75, 75
1, 39072, Note_on_c, 1, 64, 75
1, 39095, Note_on_c, 1, 64, 0
1, 39096, Note_on_c, 0, 75, 0
1, 39096, Note_on_c, 0, 73, 75
1, 39096, Note_on_c, 1, 68, 75
1, 39119, Note_on_c, 0, 73, 0
1, 39119, Note_on_c, 1, 68, 0
1, 39120, Note_on_c, 0, 73, 75
1, 39120, Note_on_c, 1, 63, 75
1, 39143, Note_on_c, 1, 63, 0
1, 39144, Note_on_c, 0, 73, 0
1, 39144, Note_on_c, 0, 75, 75
1, 39144, Note_on_c, 1, 68, 75
1, 39167, Note_on_c, 0, 75, 0
1, 39167, Note_on_c, 1, 68, 0
1, 39168, Note_on_c, 0, 78, 75
1, 39168, Note_on_c, 1, 61, 75
1, 39191, Note_on_c, 1, 61, 0
1, 39192, Note_on_c, 0, 78, 0
1, 39192, Note_on_c, 0, 76, 75
1, 39192, Note_on_c, 1, 68, 75
1, 39215, Note_on_c, 0, 76, 0
1, 39215, Note_on_c, 1, 68, 0
1, 39216, Note_on_c, 0, 76, 75
1, 39216, Note_on_c, 1, 63, 75
1, 39239, Note_on_c, 1, 63, 0
1, 39240, Note_on_c, 0, 76, 0
1, 39240, Note_on_c, 0, 75, 75
1, 39240, Note_on_c, 1, 68, 75
1, 39263, Note_on_c, 0, 75, 0
1, 39263, Note_on_c, 1, 68, 0
1, 39264, Note_on_c, 0, 75, 75
1, 39264, Note_on_c, 1, 64, 75
1, 39287, Note_on_c, 1, 64, 0
1, 39288, Note_on_c, 0, 75, 0
1, 39288, Note_on_c, 0, 73, 75
1, 39288, Note_on_c, 1, 68, 75
1, 39311, Note_on_c, 0, 73, 0
1, 39311, Note_on_c, 1, 68, 0
1, 39312, Note_on_c, 0, 73, 75
1, 39312, Note_on_c, 1, 63, 75
1, 39335, Note_on_c, 1, 63, 0
1, 39336, Note_on_c, 0, 73, 0
1, 39336, Note_on_c, 0, 75, 75
1, 39336, Note_on_c, 1, 68, 75
1, 39359, Note_on_c, 0, 75, 0
1, 39359, Note_on_c, 1, 68, 0
1, 39360, Note_on_c, 0, 78, 75
1, 39360, Note_on_c, 1, 61, 75
1, 39383, Note_on_c, 1, 61, 0
1, 39384, Note_on_c, 0, 78, 0
1, 39384, Note_on_c, 0, 76, 75
1, 39384, Note_on_c, 1, 68, 75
1, 39407, Note_on_c, 0, 76, 0
1, 39407, Note_on_c, 1, 68, 0
1, 39408, Note_on_c, 0, 76, 75
1, 39408, Note_on_c, 1, 63, 75
1, 39431, Note_on_c, 1, 63, 0
1, 39432, Note_on_c, 0, 76, 0
1, 39432, Note_on_c, 0, 75, 75
1, 39432, Note_on_c, 1, 68, 75
1, 39455, Note_on_c, 0, 75, 0
1, 39455, Note_on_c, 1, 68, 0
1, 39456, Note_on_c, 0, 75, 75
1, 39456, Note_on_c, 1, 64, 75
1, 39479, Note_on_c, 1, 64, 0
1, 39480, Note_on_c, 0, 75, 0
1, 39480, Note_on_c, 0, 73, 75
1, 39480, Note_on_c, 1, 68, 75
1, 39503, Note_on_c, 0, 73, 0
1, 39503, Note_on_c, 1, 68, 0
1, 39504, Note_on_c, 0, 73, 75
1, 39504, Note_on_c, 1, 65, 75
1, 39527, Note_on_c, 1, 65, 0
1, 39528, Note_on_c, 0, 73, 0
1, 39528, Note_on_c, 0, 71, 75
1, 39528, Note_on_c, 1, 68, 75
1, 39551, Note_on_c, 0, 71, 0
1, 39551, Note_on_c, 1, 68, 0
1, 39552, Note_on_c, 0, 71, 75
1, 39552, Note_on_c, 1, 66, 75
1, 39576, Note_on_c, 0, 71, 0
1, 39576, Note_on_c, 0, 70, 75
1, 39599, Note_on_c, 0, 70, 0
1, 39600, Note_on_c, 0, 70, 75
1, 39624, Note_on_c, 0, 70, 0
1, 39624, Note_on_c, 0, 80, 75
1, 39641, Note_on_c, 1, 66, 0
1, 39647, Note_on_c, 0, 80, 0
1, 39648, Note_on_c, 0, 80, 75
1, 39672, Note_on_c, 0, 80, 0
1, 39672, Note_on_c, 0, 78, 75
1, 39695, Note_on_c, 0, 78, 0
1, 39696, Note_on_c, 0, 78, 75
1, 39696, Note_on_c, 1, 58, 75
1, 39720, Note_on_c, 0, 78, 0
1, 39720, Note_on_c, 0, 76, 75
1, 39741, Note_on_c, 1, 58, 0
1, 39743, Note_on_c, 0, 76, 0
1, 39744, Note_on_c, 0, 76, 75
1, 39744, Note_on_c, 1, 59, 75
1, 39768, Note_on_c, 0, 76, 0
1, 39768, Note_on_c, 0, 75, 75
1, 39789, Note_on_c, 1, 59, 0
1, 39791, Note_on_c, 0, 75, 0
1, 39792, Note_on_c, 0, 75, 75
1, 39792, Note_on_c, 1, 61, 75
1, 39816, Note_on_c, 0, 75, 0
1, 39816, Note_on_c, 0, 73, 75
1, 39837, Note_on_c, 1, 61, 0
1, 39839, Note_on_c, 0, 73, 0
1, 39840, Note_on_c, 0, 73, 75
1, 39840, Note_on_c, 1, 63, 75
1, 39864, Note_on_c, 0, 73, 0
1, 39864, Note_on_c, 0, 71, 75
1, 39885, Note_on_c, 1, 63, 0
1, 39887, Note_on_c, 0, 71, 0
1, 39888, Note_on_c, 0, 71, 75
1, 39888, Note_on_c, 1, 59, 75
1, 39912, Note_on_c, 0, 71, 0
1, 39912, Note_on_c, 0, 69, 75
1, 39933, Note_on_c, 1, 59, 0
1, 39935, Note_on_c, 0, 69, 0
1, 39936, Note_on_c, 0, 69, 75
1, 39936, Note_on_c, 1, 64, 75
1, 39960, Note_on_c, 0, 69, 0
1, 39960, Note_on_c, 0, 68, 75
1, 39983, Note_on_c, 0, 68, 0
1, 39984, Note_on_c, 0, 68, 75
1, 40008, Note_on_c, 0, 68, 0
1, 40008, Note_on_c, 0, 78, 75
1, 40025, Note_on_c, 1, 64, 0
1, 40031, Note_on_c, 0, 78, 0
1, 40032, Note_on_c, 0, 78, 75
1, 40056, Note_on_c, 0, 78, 0
1, 40056, Note_on_c, 0, 76, 75
1, 40079, Note_on_c, 0, 76, 0
1, 40080, Note_on_c, 0, 76, 75
1, 40080, Note_on_c, 1, 68, 75
1, 40104, Note_on_c, 0, 76, 0
1, 40104, Note_on_c, 0, 75, 75
1, 40125, Note_on_c, 1, 68, 0
1, 40127, Note_on_c, 0, 75, 0
1, 40128, Note_on_c, 0, 75, 75
1, 40128, Note_on_c, 1, 69, 75
1, 40152, Note_on_c, 0, 75, 0
1, 40152, Note_on_c, 0, 73, 75
1, 40173, Note_on_c, 1, 69, 0
1, 40175, Note_on_c, 0, 73, 0
1, 40176, Note_on_c, 0, 73, 75
1, 40176, Note_on_c, 1, 57, 75
1, 40200, Note_on_c, 0, 73, 0
1, 40200, Note_on_c, 0, 80, 75
1, 40221, Note_on_c, 1, 57, 0
1, 40223, Note_on_c, 0, 80, 0
1, 40224, Note_on_c, 0, 80, 75
1, 40248, Note_on_c, 0, 80, 0
1, 40248, Note_on_c, 0, 78, 75
1, 40271, Note_on_c, 0, 78, 0
1, 40272, Note_on_c, 0, 78, 75
1, 40272, Note_on_c, 1, 70, 75
1, 40296, Note_on_c, 0, 78, 0
1, 40296, Note_on_c, 0, 76, 75
1, 40317, Note_on_c, 1, 70, 0
1, 40319, Note_on_c, 0, 76, 0
1, 40320, Note_on_c, 0, 76, 75
1, 40320, Note_on_c, 1, 71, 75
1, 40344, Note_on_c, 0, 76, 0
1, 40344, Note_on_c, 0, 75, 75
1, 40365, Note_on_c, 1, 71, 0
1, 40367, Note_on_c, 0, 75, 0
1, 40368, Note_on_c, 0, 75, 75
1, 40368, Note_on_c, 1, 59, 75
1, 40392, Note_on_c, 0, 75, 0
1, 40392, Note_on_c, 0, 81, 75
1, 40413, Note_on_c, 1, 59, 0
1, 40415, Note_on_c, 0, 81, 0
1, 40416, Note_on_c, 0, 81, 75
1, 40440, Note_on_c, 0, 81, 0
1, 40440, Note_on_c, 0, 80, 75
1, 40463, Note_on_c, 0, 80, 0
1, 40464, Note_on_c, 0, 80, 75
1, 40464, Note_on_c, 1, 60, 75
1, 40488, Note_on_c, 0, 80, 0
1, 40488, Note_on_c, 0, 78, 75
1, 40509, Note_on_c, 1, 60, 0
1, 40511, Note_on_c, 0, 78, 0
1, 40512, Note_on_c, 0, 76, 75
1, 40512, Note_on_c, 1, 61, 75
1, 40535, Note_on_c, 1, 61, 0
1, 40536, Note_on_c, 1, 68, 75
1, 40559, Note_on_c, 1, 68, 0
1, 40560, Note_on_c, 1, 61, 75
1, 40583, Note_on_c, 1, 61, 0
1, 40584, Note_on_c, 1, 68, 75
1, 40607, Note_on_c, 1, 68, 0
1, 40608, Note_on_c, 1, 61, 75
1, 40631, Note_on_c, 1, 61, 0
1, 40632, Note_on_c, 1, 68, 75
1, 40645, Note_on_c, 0, 76, 0
1, 40655, Note_on_c, 1, 68, 0
1, 40656, Note_on_c, 0, 80, 75
1, 40656, Note_on_c, 1, 61, 75
1, 40662, Note_on_c, 0, 80, 0
1, 40662, Note_on_c, 0, 78, 75
1, 40679, Note_on_c, 1, 61, 0
1, 40680, Note_on_c, 1, 68, 75
1, 40701, Note_on_c, 0, 78, 0
1, 40703, Note_on_c, 1, 68, 0
1, 40704, Note_on_c, 0, 76, 75
1, 40704, Note_on_c, 1, 59, 75
1, 40727, Note_on_c, 0, 76, 0
1, 40727, Note_on_c, 1, 59, 0
1, 40728, Note_on_c, 0, 74, 75
1, 40728, Note_on_c, 1, 68, 75
1, 40751, Note_on_c, 0, 74, 0
1, 40751, Note_on_c, 1, 68, 0
1, 40752, Note_on_c, 0, 73, 75
1, 40752, Note_on_c, 1, 59, 75
1, 40775, Note_on_c, 0, 73, 0
1, 40775, Note_on_c, 1, 59, 0
1, 40776, Note_on_c, 0, 74, 75
1, 40776, Note_on_c, 1, 68, 75
1, 40799, Note_on_c, 0, 74, 0
1, 40799, Note_on_c, 1, 68, 0
1, 40800, Note_on_c, 0, 86, 91
1, 40800, Note_on_c, 1, 59, 75
1, 40823, Note_on_c, 1, 59, 0
1, 40824, Note_on_c, 1, 68, 75
1, 40847, Note_on_c, 1, 68, 0
1, 40848, Note_on_c, 1, 59, 75
1, 40871, Note_on_c, 1, 59, 0
1, 40872, Note_on_c, 1, 68, 75
1, 40895, Note_on_c, 1, 68, 0
1, 40896, Note_on_c, 1, 56, 75
1, 40919, Note_on_c, 0, 86, 0
1, 40919, Note_on_c, 1, 56, 0
1, 40920, Note_on_c, 0, 85, 75
1, 40920, Note_on_c, 1, 64, 75
1, 40943, Note_on_c, 0, 85, 0
1, 40943, Note_on_c, 1, 64, 0
1, 40944, Note_on_c, 0, 83, 75
1, 40944, Note_on_c, 1, 56, 75
1, 40967, Note_on_c, 0, 83, 0
1, 40967, Note_on_c, 1, 56, 0
1, 40968, Note_on_c, 0, 81, 75
1, 40968, Note_on_c, 1, 64, 75
1, 40991, Note_on_c, 0, 81, 0
1, 40991, Note_on_c, 1, 64, 0
1, 40992, Note_on_c, 0, 80, 75
1, 40992, Note_on_c, 1, 56, 75
1, 41015, Note_on_c, 0, 80, 0
1, 41015, Note_on_c, 1, 56, 0
1, 41016, Note_on_c, 0, 78, 75
1, 41016, Note_on_c, 1, 64, 75
1, 41039, Note_on_c, 0, 78, 0
1, 41039, Note_on_c, 1, 64, 0
1, 41040, Note_on_c, 0, 76, 75
1, 41040, Note_on_c, 1, 56, 75
1, 41063, Note_on_c, 0, 76, 0
1, 41063, Note_on_c, 1, 56, 0
1, 41064, Note_on_c, 0, 74, 75
1, 41064, Note_on_c, 1, 64, 75
1, 41087, Note_on_c, 0, 74, 0
1, 41087, Note_on_c, 1, 64, 0
1, 41088, Note_on_c, 0, 73, 80
1, 41088, Note_on_c, 1, 57, 80
1, 41094, Note_on_c, 1, 61, 80
1, 41096, Note_on_c, 0, 76, 80
1, 41100, Note_on_c, 1, 64, 80
1, 41104, Note_on_c, 0, 81, 80
1, 41106, Note_on_c, 1, 69, 80
1, 41181, Note_on_c, 0, 81, 0
1, 41181, Note_on_c, 0, 76, 0
1, 41181, Note_on_c, 0, 73, 0
1, 41181, Note_on_c, 1, 69, 0
1, 41181, Note_on_c, 1, 64, 0
1, 41181, Note_on_c, 1, 61, 0
1, 41181, Note_on_c, 1, 57, 0
1, 41184, Note_on_c, 0, 76, 75
1, 41207, Note_on_c, 0, 76, 0
1, 41208, Note_on_c, 0, 78, 75
1, 41216, Note_on_c, 0, 78, 0
1, 41216, Note_on_c, 0, 76, 75
1, 41224, Note_on_c, 0, 76, 0
1, 41224, Note_on_c, 0, 75, 75
1, 41232, Note_on_c, 0, 75, 0
1, 41232, Note_on_c, 0, 76, 75
1, 41232, Note_on_c, 1, 73, 75
1, 41255, Note_on_c, 0, 76, 0
1, 41256, Note_on_c, 0, 78, 75
1, 41277, Note_on_c, 1, 73, 0
1, 41279, Note_on_c, 0, 78, 0
1, 41280, Note_on_c, 0, 76, 75
1, 41280, Note_on_c, 1, 71, 75
1, 41303, Note_on_c, 0, 76, 0
1, 41304, Note_on_c, 0, 74, 75
1, 41325, Note_on_c, 1, 71, 0
1, 41327, Note_on_c, 0, 74, 0
1, 41328, Note_on_c, 0, 73, 75
1, 41328, Note_on_c, 1, 68, 75
1, 41351, Note_on_c, 0, 73, 0
1, 41352, Note_on_c, 0, 74, 75
1, 41373, Note_on_c, 1, 68, 0
1, 41375, Note_on_c, 0, 74, 0
1, 41376, Note_on_c, 0, 74, 75
1, 41376, Note_on_c, 1, 69, 75
1, 41399, Note_on_c, 0, 74, 0
1, 41400, Note_on_c, 0, 73, 75
1, 41421, Note_on_c, 1, 69, 0
1, 41423, Note_on_c, 0, 73, 0
1, 41424, Note_on_c, 0, 71, 75
1, 41424, Note_on_c, 1, 61, 75
1, 41447, Note_on_c, 0, 71, 0
1, 41448, Note_on_c, 0, 73, 75
1, 41469, Note_on_c, 1, 61, 0
1, 41471, Note_on_c, 0, 73, 0
1, 41472, Note_on_c, 0, 73, 75
1, 41472, Note_on_c, 1, 62, 75
1, 41495, Note_on_c, 0, 73, 0
1, 41496, Note_on_c, 0, 71, 75
1, 41517, Note_on_c, 1, 62, 0
1, 41519, Note_on_c, 0, 71, 0
1, 41520, Note_on_c, 0, 69, 75
1, 41520, Note_on_c, 1, 64, 75
1, 41543, Note_on_c, 0, 69, 0
1, 41544, Note_on_c, 0, 68, 75
1, 41565, Note_on_c, 1, 64, 0
1, 41567, Note_on_c, 0, 68, 0
1, 41568, Note_on_c, 0, 69, 75
1, 41568, Note_on_c, 1, 57, 75
1, 41613, Note_on_c, 0, 69, 0
1, 41616, Note_on_c, 0, 74, 75
1, 41616, Note_on_c, 0, 66, 75
1, 41636, Note_on_c, 0, 74, 0
1, 41636, Note_on_c, 0, 66, 0
1, 41657, Note_on_c, 1, 57, 0
1, 41664, Note_on_c, 0, 74, 91
1, 41664, Note_on_c, 0, 66, 91
1, 41712, Note_on_c, 1, 45, 75
1, 41757, Note_on_c, 1, 45, 0
1, 41760, Note_on_c, 0, 74, 0
1, 41760, Note_on_c, 0, 66, 0
1, 41760, Note_on_c, 0, 73, 75
1, 41760, Note_on_c, 0, 64, 75
1, 41760, Note_on_c, 1, 57, 75
1, 41780, Note_on_c, 0, 73, 0
1, 41780, Note_on_c, 0, 64, 0
1, 41805, Note_on_c, 1, 57, 0
1, 41808, Note_on_c, 0, 69, 75
1, 41823, Note_on_c, 0, 69, 0
1, 41824, Note_on_c, 0, 74, 75
1, 41839, Note_on_c, 0, 74, 0
1, 41840, Note_on_c, 0, 78, 75
1, 41855, Note_on_c, 0, 78, 0
1, 41856, Note_on_c, 0, 78, 75
1, 41856, Note_on_c, 0, 74, 75
1, 41904, Note_on_c, 1, 45, 75
1, 41949, Note_on_c, 1, 45, 0
1, 41952, Note_on_c, 0, 78, 0
1, 41952, Note_on_c, 0, 74, 0
1, 41952, Note_on_c, 0, 76, 75
1, 41952, Note_on_c, 0, 73, 75
1, 41952, Note_on_c, 1, 57, 75
1, 41997, Note_on_c, 0, 76, 0
1, 41997, Note_on_c, 0, 73, 0
1, 41997, Note_on_c, 1, 57, 0
1, 42000, Note_on_c, 0, 69, 64
1, 42023, Note_on_c, 0, 69, 0
1, 42024, Note_on_c, 0, 81, 64
1, 42034, Note_on_c, 0, 81, 0
1, 42048, Note_on_c, 0, 81, 80
1, 42096, Note_on_c, 1, 64, 65
1, 42096, Note_on_c, 1, 61, 65
1, 42116, Note_on_c, 1, 64, 0
1, 42116, Note_on_c, 1, 61, 0
1, 42144, Note_on_c, 1, 64, 65
1, 42144, Note_on_c, 1, 61, 65
1, 42191, Note_on_c, 1, 64, 0
1, 42191, Note_on_c, 1, 61, 0
1, 42192, Note_on_c, 0, 81, 0
1, 42192, Note_on_c, 0, 70, 66
1, 42215, Note_on_c, 0, 70, 0
1, 42216, Note_on_c, 0, 79, 66
1, 42226, Note_on_c, 0, 79, 0
1, 42240, Note_on_c, 0, 79, 82
1, 42288, Note_on_c, 1, 70, 67
1, 42288, Note_on_c, 1, 64, 67
1, 42308, Note_on_c, 1, 70, 0
1, 42308, Note_on_c, 1, 64, 0
1, 42336, Note_on_c, 1, 70, 68
1, 42336, Note_on_c, 1, 64, 68
1, 42383, Note_on_c, 1, 70, 0
1, 42383, Note_on_c, 1, 64, 0
1, 42384, Note_on_c, 0, 79, 0
1, 42384, Note_on_c, 0, 71, 68
1, 42407, Note_on_c, 0, 71, 0
1, 42408, Note_on_c, 0, 83, 68
1, 42418, Note_on_c, 0, 83, 0
1, 42432, Note_on_c, 0, 83, 84
1, 42480, Note_on_c, 1, 66, 70
1, 42480, Note_on_c, 1, 63, 70
1, 42500, Note_on_c, 1, 66, 0
1, 42500, Note_on_c, 1, 63, 0
1, 42528, Note_on_c, 1, 66, 70
1, 42528, Note_on_c, 1, 63, 70
1, 42575, Note_on_c, 1, 66, 0
1, 42575, Note_on_c, 1, 63, 0
1, 42576, Note_on_c, 0, 83, 0
1, 42576, Note_on_c, 0, 72, 70
1, 42599, Note_on_c, 0, 72, 0
1, 42600, Note_on_c, 0, 81, 70
1, 42610, Note_on_c, 0, 81, 0
1, 42624, Note_on_c, 0, 81, 87
1, 42672, Note_on_c, 1, 72, 72
1, 42672, Note_on_c, 1, 66, 72
1, 42692, Note_on_c, 1, 72, 0
1, 42692, Note_on_c, 1, 66, 0
1, 42720, Note_on_c, 1, 72, 73
1, 42720, Note_on_c, 1, 66, 73
1, 42767, Note_on_c, 1, 72, 0
1, 42767, Note_on_c, 1, 66, 0
1, 42768, Note_on_c, 0, 81, 0
1, 42768, Note_on_c, 0, 73, 72
1, 42791, Note_on_c, 0, 73, 0
1, 42792, Note_on_c, 0, 85, 73
1, 42802, Note_on_c, 0, 85, 0
1, 42816, Note_on_c, 0, 85, 89
1, 42864, Note_on_c, 1, 68, 75
1, 42864, Note_on_c, 1, 65, 75
1, 42884, Note_on_c, 1, 68, 0
1, 42884, Note_on_c, 1, 65, 0
1, 42912, Note_on_c, 1, 68, 75
1, 42912, Note_on_c, 1, 65, 75
1, 42959, Note_on_c, 1, 68, 0
1, 42959, Note_on_c, 1, 65, 0
1, 42960, Note_on_c, 0, 85, 0
1, 42960, Note_on_c, 0, 74, 75
1, 42983, Note_on_c, 0, 74, 0
1, 42984, Note_on_c, 0, 86, 75
1, 42994, Note_on_c, 0, 86, 0
1, 43008, Note_on_c, 0, 86, 91
1, 43056, Note_on_c, 1, 68, 77
1, 43056, Note_on_c, 1, 64, 77
1, 43076, Note_on_c, 1, 68, 0
1, 43076, Note_on_c, 1, 64, 0
1, 43104, Note_on_c, 1, 68, 78
1, 43104, Note_on_c, 1, 64, 78
1, 43151, Note_on_c, 1, 68, 0
1, 43151, Note_on_c, 1, 64, 0
1, 43152, Note_on_c, 0, 86, 0
1, 43152, Note_on_c, 0, 75, 77
1, 43175, Note_on_c, 0, 75, 0
1, 43176, Note_on_c, 0, 87, 77
1, 43186, Note_on_c, 0, 87, 0
1, 43200, Note_on_c, 0, 87, 93
1, 43248, Note_on_c, 1, 67, 80
1, 43248, Note_on_c, 1, 63, 80
1, 43268, Note_on_c, 1, 67, 0
1, 43268, Note_on_c, 1, 63, 0
1, 43296, Note_on_c, 1, 67, 80
1, 43296, Note_on_c, 1, 63, 80
1, 43392, Tempo, 352941
1, 43746, Note_on_c, 0, 87, 0
1, 43746, Note_on_c, 1, 67, 0
1, 43746, Note_on_c, 1, 63, 0
1, 43776, Tempo, 800000
1, 43776, Note_on_c, 0, 63, 80
1, 43776, Note_on_c, 1, 51, 80
1, 43832, Note_on_c, 0, 63, 0
1, 43832, Note_on_c, 0, 67, 80
1, 43832, Note_on_c, 1, 51, 0
1, 43832, Note_on_c, 1, 55, 80
1, 43840, Note_on_c, 0, 67, 0
1, 43840, Note_on_c, 0, 70, 80
1, 43840, Note_on_c, 1, 55, 0
1, 43840, Note_on_c, 1, 58, 80
1, 43848, Note_on_c, 0, 70, 0
1, 43848, Note_on_c, 0, 73, 80
1, 43848, Note_on_c, 1, 58, 0
1, 43848, Note_on_c, 1, 61, 80
1, 43856, Note_on_c, 0, 73, 0
1, 43856, Note_on_c, 0, 70, 80
1, 43856, Note_on_c, 1, 61, 0
1, 43856, Note_on_c, 1, 58, 80
1, 43864, Note_on_c, 0, 70, 0
1, 43864, Note_on_c, 0, 67, 80
1, 43864, Note_on_c, 1, 58, 0
1, 43864, Note_on_c, 1, 55, 80
1, 43872, Note_on_c, 0, 67, 0
1, 43872, Note_on_c, 0, 63, 80
1, 43872, Note_on_c, 1, 55, 0
1, 43872, Note_on_c, 1, 51, 80
1, 43917, Note_on_c, 0, 63, 0
1, 43917, Note_on_c, 1, 51, 0
1, 43920, Note_on_c, 0, 79, 64
1, 43920, Note_on_c, 0, 75, 64
1, 43920, Note_on_c, 1, 73, 64
1, 43940, Note_on_c, 0, 79, 0
1, 43940, Note_on_c, 0, 75, 0
1, 43940, Note_on_c, 1, 73, 0
1, 43968, Note_on_c, 0, 79, 80
1, 43968, Note_on_c, 0, 75, 80
1, 43968, Note_on_c, 1, 73, 64
1, 44064, Note_on_c, 0, 79, 0
1, 44064, Note_on_c, 0, 80, 64
1, 44064, Note_on_c, 1, 73, 0
1, 44064, Note_on_c, 1, 71, 64
1, 44084, Note_on_c, 0, 80, 0
1, 44084, Note_on_c, 0, 75, 0
1, 44084, Note_on_c, 1, 71, 0
1, 44160, Note_on_c, 0, 63, 80
1, 44160, Note_on_c, 1, 51, 80
1, 44216, Note_on_c, 0, 63, 0
1, 44216, Note_on_c, 0, 67, 80
1, 44216, Note_on_c, 1, 51, 0
1, 44216, Note_on_c, 1, 55, 80
1, 44224, Note_on_c, 0, 67, 0
1, 44224, Note_on_c, 0, 70, 80
1, 44224, Note_on_c, 1, 55, 0
1, 44224, Note_on_c, 1, 58, 80
1, 44232, Note_on_c, 0, 70, 0
1, 44232, Note_on_c, 0, 73, 80
1, 44232, Note_on_c, 1, 58, 0
1, 44232, Note_on_c, 1, 61, 80
1, 44240, Note_on_c, 0, 73, 0
1, 44240, Note_on_c, 0, 70, 80
1, 44240, Note_on_c, 1, 61, 0
1, 44240, Note_on_c, 1, 58, 80
1, 44248, Note_on_c, 0, 70, 0
1, 44248, Note_on_c, 0, 67, 80
1, 44248, Note_on_c, 1, 58, 0
1, 44248, Note_on_c, 1, 55, 80
1, 44256, Note_on_c, 0, 67, 0
1, 44256, Note_on_c, 0, 63, 80
1, 44256, Note_on_c, 1, 55, 0
1, 44256, Note_on_c, 1, 51, 80
1, 44301, Note_on_c, 0, 63, 0
1, 44301, Note_on_c, 1, 51, 0
1, 44304, Note_on_c, 0, 76, 64
1, 44304, Note_on_c, 1, 67, 64
1, 44324, Note_on_c, 0, 76, 0
1, 44324, Note_on_c, 1, 67, 0
1, 44352, Note_on_c, 0, 76, 80
1, 44352, Note_on_c, 0, 73, 80
1, 44352, Note_on_c, 1, 67, 64
1, 44448, Note_on_c, 0, 76, 0
1, 44448, Note_on_c, 0, 73, 0
1, 44448, Note_on_c, 0, 75, 64
1, 44448, Note_on_c, 0, 71, 64
1, 44448, Note_on_c, 1, 67, 0
1, 44448, Note_on_c, 1, 68, 64
1, 44468, Note_on_c, 0, 75, 0
1, 44468, Note_on_c, 0, 71, 0
1, 44468, Note_on_c, 1, 68, 0
1, 44496, Note_on_c, 0, 88, 64
1, 44496, Note_on_c, 0, 85, 64
1, 44496, Note_on_c, 1, 79, 64
1, 44516, Note_on_c, 0, 88, 0
1, 44516, Note_on_c, 0, 85, 0
1, 44516, Note_on_c, 1, 79, 0
1, 44544, Note_on_c, 0, 88, 80
1, 44544, Note_on_c, 0, 85, 80
1, 44544, Note_on_c, 1, 79, 64
1, 44640, Note_on_c, 0, 88, 0
1, 44640, Note_on_c, 0, 85, 0
1, 44640, Note_on_c, 0, 87, 64
1, 44640, Note_on_c, 0, 83, 64
1, 44640, Note_on_c, 1, 79, 0
1, 44640, Note_on_c, 1, 80, 64
1, 44660, Note_on_c, 0, 87, 0
1, 44660, Note_on_c, 0, 83, 0
1, 44660, Note_on_c, 1, 80, 0
1, 44736, Note_on_c, 1, 61, 64
1, 44756, Note_on_c, 1, 61, 0
1, 44760, Note_on_c, 0, 69, 64
1, 44783, Note_on_c, 0, 69, 0
1, 44784, Note_on_c, 1, 64, 64
1, 44804, Note_on_c, 1, 64, 0
1, 44808, Note_on_c, 0, 73, 64
1, 44831, Note_on_c, 0, 73, 0
1, 44832, Note_on_c, 1, 63, 64
1, 44852, Note_on_c, 1, 63, 0
1, 44856, Note_on_c, 0, 71, 64
1, 44879, Note_on_c, 0, 71, 0
1, 44880, Note_on_c, 1, 51, 64
1, 44900, Note_on_c, 1, 51, 0
1, 44904, Note_on_c, 0, 67, 64
1, 44927, Note_on_c, 0, 67, 0
1, 44928, Note_on_c, 1, 56, 64
1, 44952, Note_on_c, 0, 68, 64
1, 44975, Note_on_c, 0, 68, 0
1, 44976, Note_on_c, 1, 59, 64
1, 45000, Note_on_c, 0, 68, 64
1, 45021, Note_on_c, 1, 59, 0
1, 45023, Note_on_c, 0, 68, 0
1, 45024, Note_on_c, 1, 63, 64
1, 45048, Note_on_c, 0, 68, 64
1, 45069, Note_on_c, 1, 63, 0
1, 45071, Note_on_c, 0, 68, 0
1, 45072, Note_on_c, 1, 59, 64
1, 45096, Note_on_c, 0, 68, 64
1, 45105, Note_on_c, 1, 56, 0
1, 45117, Note_on_c, 1, 59, 0
1, 45119, Note_on_c, 0, 68, 0
1, 45120, Note_on_c, 1, 56, 69
1, 45144, Note_on_c, 0, 68, 64
1, 45167, Note_on_c, 0, 68, 0
1, 45168, Note_on_c, 0, 80, 64
1, 45168, Note_on_c, 1, 59, 64
1, 45191, Note_on_c, 0, 80, 0
1, 45192, Note_on_c, 0, 68, 64
1, 45213, Note_on_c, 1, 59, 0
1, 45215, Note_on_c, 0, 68, 0
1, 45216, Note_on_c, 1, 63, 64
1, 45240, Note_on_c, 0, 68, 64
1, 45261, Note_on_c, 1, 63, 0
1, 45263, Note_on_c, 0, 68, 0
1, 45264, Note_on_c, 1, 59, 64
1, 45288, Note_on_c, 0, 68, 64
1, 45297, Note_on_c, 1, 56, 0
1, 45309, Note_on_c, 1, 59, 0
1, 45311, Note_on_c, 0, 68, 0
1, 45312, Note_on_c, 1, 54, 74
1, 45336, Note_on_c, 0, 69, 64
1, 45359, Note_on_c, 0, 69, 0
1, 45360, Note_on_c, 1, 59, 64
1, 45384, Note_on_c, 0, 69, 64
1, 45405, Note_on_c, 1, 59, 0
1, 45407, Note_on_c, 0, 69, 0
1, 45408, Note_on_c, 1, 63, 64
1, 45432, Note_on_c, 0, 69, 64
1, 45453, Note_on_c, 1, 63, 0
1, 45455, Note_on_c, 0, 69, 0
1, 45456, Note_on_c, 1, 59, 64
1, 45480, Note_on_c, 0, 69, 64
1, 45489, Note_on_c, 1, 54, 0
1, 45501, Note_on_c, 1, 59, 0
1, 45503, Note_on_c, 0, 69, 0
1, 45504, Note_on_c, 1, 54, 80
1, 45528, Note_on_c, 0, 69, 64
1, 45551, Note_on_c, 0, 69, 0
1, 45552, Note_on_c, 0, 81, 64
1, 45552, Note_on_c, 1, 59, 64
1, 45575, Note_on_c, 0, 81, 0
1, 45576, Note_on_c, 0, 69, 64
1, 45597, Note_on_c, 1, 59, 0
1, 45599, Note_on_c, 0, 69, 0
1, 45600, Note_on_c, 1, 63, 64
1, 45624, Note_on_c, 0, 69, 64
1, 45645, Note_on_c, 1, 63, 0
1, 45647, Note_on_c, 0, 69, 0
1, 45648, Note_on_c, 1, 59, 64
1, 45672, Note_on_c, 0, 69, 64
1, 45681, Note_on_c, 1, 54, 0
1, 45693, Note_on_c, 1, 59, 0
1, 45695, Note_on_c, 0, 69, 0
1, 45696, Note_on_c, 0, 68, 80
1, 45696, Note_on_c, 1, 52, 80
1, 45702, Note_on_c, 1, 56, 80
1, 45704, Note_on_c, 0, 71, 80
1, 45708, Note_on_c, 1, 59, 80
1, 45712, Note_on_c, 0, 76, 80
1, 45714, Note_on_c, 1, 64, 80
1, 45789, Note_on_c, 0, 76, 0
1, 45789, Note_on_c, 0, 71, 0
1, 45789, Note_on_c, 0, 68, 0
1, 45789, Note_on_c, 1, 64, 0
1, 45789, Note_on_c, 1, 59, 0
1, 45789, Note_on_c, 1, 56, 0
1, 45789, Note_on_c, 1, 52, 0
1, 45792, Note_on_c, 0, 71, 75
1, 45815, Note_on_c, 0, 71, 0
1, 45816, Note_on_c, 0, 73, 75
1, 45824, Note_on_c, 0, 73, 0
1, 45824, Note_on_c, 0, 71, 75
1, 45832, Note_on_c, 0, 71, 0
1, 45832, Note_on_c, 0, 69, 75
1, 45840, Note_on_c, 0, 69, 0
1, 45840, Note_on_c, 0, 71, 75
1, 45840, Note_on_c, 1, 68, 75
1, 45863, Note_on_c, 0, 71, 0
1, 45864, Note_on_c, 0, 73, 75
1, 45885, Note_on_c, 1, 68, 0
1, 45887, Note_on_c, 0, 73, 0
1, 45888, Note_on_c, 0, 71, 75
1, 45888, Note_on_c, 1, 66, 75
1, 45911, Note_on_c, 0, 71, 0
1, 45912, Note_on_c, 0, 69, 75
1, 45935, Note_on_c, 0, 69, 0
1, 45936, Note_on_c, 0, 68, 75
1, 45936, Note_on_c, 1, 66, 0
1, 45936, Note_on_c, 1, 63, 75
1, 45959, Note_on_c, 0, 68, 0
1, 45960, Note_on_c, 0, 69, 75
1, 45981, Note_on_c, 1, 63, 0
1, 45983, Note_on_c, 0, 69, 0
1, 45984, Note_on_c, 0, 69, 75
1, 45984, Note_on_c, 1, 64, 75
1, 46007, Note_on_c, 0, 69, 0
1, 46008, Note_on_c, 0, 68, 75
1, 46029, Note_on_c, 1, 64, 0
1, 46031, Note_on_c, 0, 68, 0
1, 46032, Note_on_c, 0, 66, 75
1, 46032, Note_on_c, 1, 56, 75
1, 46055, Note_on_c, 0, 66, 0
1, 46056, Note_on_c, 0, 68, 75
1, 46077, Note_on_c, 1, 56, 0
1, 46079, Note_on_c, 0, 68, 0
1, 46080, Note_on_c, 0, 68, 75
1, 46080, Note_on_c, 1, 57, 75
1, 46103, Note_on_c, 0, 68, 0
1, 46104, Note_on_c, 0, 66, 75
1, 46125, Note_on_c, 1, 57, 0
1, 46127, Note_on_c, 0, 66, 0
1, 46128, Note_on_c, 0, 64, 75
1, 46128, Note_on_c, 1, 59, 75
1, 46151, Note_on_c, 0, 64, 0
1, 46152, Note_on_c, 0, 63, 75
1, 46173, Note_on_c, 1, 59, 0
1, 46175, Note_on_c, 0, 63, 0
1, 46176, Note_on_c, 0, 64, 75
1, 46176, Note_on_c, 1, 52, 75
1, 46221, Note_on_c, 0, 64, 0
1, 46221, Note_on_c, 1, 52, 0
1, 46224, Note_on_c, 0, 69, 75
1, 46224, Note_on_c, 0, 61, 64
1, 46244, Note_on_c, 0, 69, 0
1, 46269, Note_on_c, 0, 61, 0
1, 46272, Note_on_c, 0, 68, 75
1, 46272, Note_on_c, 0, 59, 64
1, 46292, Note_on_c, 0, 68, 0
1, 46317, Note_on_c, 0, 59, 0
1, 46320, Note_on_c, 0, 64, 64
1, 46335, Note_on_c, 0, 64, 0
1, 46336, Note_on_c, 0, 69, 64
1, 46351, Note_on_c, 0, 69, 0
1, 46352, Note_on_c, 0, 73, 64
1, 46367, Note_on_c, 0, 73, 0
1, 46368, Note_on_c, 0, 71, 75
1, 46368, Note_on_c, 0, 68, 64
1, 46388, Note_on_c, 0, 71, 0
1, 46413, Note_on_c, 0, 68, 0
1, 46464, Note_on_c, 0, 69, 80
1, 46464, Note_on_c, 1, 47, 80
1, 46470, Note_on_c, 0, 75, 80
1, 46470, Note_on_c, 1, 51, 80
1, 46476, Note_on_c, 0, 78, 80
1, 46476, Note_on_c, 1, 54, 80
1, 46482, Note_on_c, 0, 81, 80
1, 46482, Note_on_c, 1, 59, 80
1, 46557, Note_on_c, 0, 81, 0
1, 46557, Note_on_c, 0, 78, 0
1, 46557, Note_on_c, 0, 75, 0
1, 46557, Note_on_c, 0, 69, 0
1, 46557, Note_on_c, 1, 59, 0
1, 46557, Note_on_c, 1, 54, 0
1, 46557, Note_on_c, 1, 51, 0
1, 46557, Note_on_c, 1, 47, 0
1, 46560, Note_on_c, 0, 69, 75
1, 46583, Note_on_c, 0, 69, 0
1, 46584, Note_on_c, 0, 71, 75
1, 46592, Note_on_c, 0, 71, 0
1, 46592, Note_on_c, 0, 69, 75
1, 46600, Note_on_c, 0, 69, 0
1, 46600, Note_on_c, 0, 68, 75
1, 46608, Note_on_c, 0, 68, 0
1, 46608, Note_on_c, 0, 69, 75
1, 46608, Note_on_c, 1, 61, 75
1, 46631, Note_on_c, 0, 69, 0
1, 46632, Note_on_c, 0, 73, 75
1, 46653, Note_on_c, 1, 61, 0
1, 46655, Note_on_c, 0, 73, 0
1, 46656, Note_on_c, 0, 71, 75
1, 46656, Note_on_c, 1, 63, 75
1, 46679, Note_on_c, 0, 71, 0
1, 46680, Note_on_c, 0, 69, 75
1, 46701, Note_on_c, 1, 63, 0
1, 46703, Note_on_c, 0, 69, 0
1, 46704, Note_on_c, 0, 68, 75
1, 46704, Note_on_c, 1, 59, 75
1, 46727, Note_on_c, 0, 68, 0
1, 46728, Note_on_c, 0, 69, 75
1, 46749, Note_on_c, 1, 59, 0
1, 46751, Note_on_c, 0, 69, 0
1, 46752, Note_on_c, 0, 69, 75
1, 46752, Note_on_c, 1, 64, 75
1, 46775, Note_on_c, 0, 69, 0
1, 46776, Note_on_c, 0, 68, 75
1, 46797, Note_on_c, 1, 64, 0
1, 46799, Note_on_c, 0, 68, 0
1, 46800, Note_on_c, 0, 66, 75
1, 46800, Note_on_c, 1, 56, 75
1, 46823, Note_on_c, 0, 66, 0
1, 46824, Note_on_c, 0, 68, 75
1, 46845, Note_on_c, 1, 56, 0
1, 46847, Note_on_c, 0, 68, 0
1, 46848, Note_on_c, 0, 68, 75
1, 46848, Note_on_c, 1, 57, 75
1, 46871, Note_on_c, 0, 68, 0
1, 46872, Note_on_c, 0, 66, 75
1, 46895, Note_on_c, 0, 66, 0
1, 46896, Note_on_c, 0, 69, 75
1, 46919, Note_on_c, 0, 69, 0
1, 46920, Note_on_c, 0, 73, 75
1, 46937, Note_on_c, 1, 57, 0
1, 46943, Note_on_c, 0, 73, 0
1, 46944, Note_on_c, 0, 61, 75
1, 46989, Note_on_c, 0, 61, 0
1, 46992, Note_on_c, 0, 63, 75
1, 46992, Note_on_c, 0, 57, 75
1, 46992, Note_on_c, 1, 54, 75
1, 46992, Note_on_c, 1, 42, 75
1, 47012, Note_on_c, 0, 63, 0
1, 47012, Note_on_c, 0, 57, 0
1, 47012, Note_on_c, 1, 54, 0
1, 47012, Note_on_c, 1, 42, 0
1, 47040, Note_on_c, 0, 64, 75
1, 47040, Note_on_c, 0, 56, 75
1, 47040, Note_on_c, 1, 52, 75
1, 47040, Note_on_c, 1, 40, 75
1, 47079, Note_on_c, 0, 64, 0
1, 47079, Note_on_c, 0, 56, 0
1, 47079, Note_on_c, 1, 52, 0
1, 47079, Note_on_c, 1, 40, 0
1, 47232, Note_on_c, 0, 68, 80
1, 47232, Note_on_c, 1, 52, 80
1, 47238, Note_on_c, 1, 56, 80
1, 47240, Note_on_c, 0, 71, 80
1, 47244, Note_on_c, 1, 59, 80
1, 47248, Note_on_c, 0, 76, 80
1, 47250, Note_on_c, 1, 64, 80
1, 47304, Note_on_c, 0, 71, 64
1, 47325, Note_on_c, 0, 76, 0
1, 47325, Note_on_c, 0, 71, 0
1, 47325, Note_on_c, 0, 68, 0
1, 47325, Note_on_c, 1, 64, 0
1, 47325, Note_on_c, 1, 59, 0
1, 47325, Note_on_c, 1, 56, 0
1, 47325, Note_on_c, 1, 52, 0
1, 47327, Note_on_c, 0, 71, 0
1, 47328, Note_on_c, 0, 73, 64
1, 47352, Note_on_c, 0, 73, 0
1, 47352, Note_on_c, 0, 71, 64
1, 47375, Note_on_c, 0, 71, 0
1, 47376, Note_on_c, 1, 68, 75
1, 47400, Note_on_c, 0, 71, 64
1, 47421, Note_on_c, 1, 68, 0
1, 47423, Note_on_c, 0, 71, 0
1, 47424, Note_on_c, 0, 71, 75
1, 47424, Note_on_c, 1, 66, 75
1, 47448, Note_on_c, 0, 71, 0
1, 47448, Note_on_c, 0, 69, 75
1, 47471, Note_on_c, 0, 69, 0
1, 47472, Note_on_c, 1, 66, 0
1, 47472, Note_on_c, 1, 63, 75
1, 47496, Note_on_c, 0, 69, 75
1, 47517, Note_on_c, 1, 63, 0
1, 47519, Note_on_c, 0, 69, 0
1, 47520, Note_on_c, 0, 69, 75
1, 47520, Note_on_c, 1, 64, 75
1, 47544, Note_on_c, 0, 69, 0
1, 47544, Note_on_c, 0, 68, 75
1, 47565, Note_on_c, 1, 64, 0
1, 47567, Note_on_c, 0, 68, 0
1, 47568, Note_on_c, 1, 56, 75
1, 47592, Note_on_c, 0, 68, 75
1, 47613, Note_on_c, 1, 56, 0
1, 47615, Note_on_c, 0, 68, 0
1, 47616, Note_on_c, 0, 68, 75
1, 47616, Note_on_c, 1, 57, 75
1, 47639, Note_on_c, 0, 68, 0
1, 47640, Note_on_c, 0, 66, 75
1, 47661, Note_on_c, 1, 57, 0
1, 47663, Note_on_c, 0, 66, 0
1, 47664, Note_on_c, 0, 64, 75
1, 47664, Note_on_c, 1, 59, 75
1, 47687, Note_on_c, 0, 64, 0
1, 47688, Note_on_c, 0, 63, 75
1, 47709, Note_on_c, 1, 59, 0
1, 47711, Note_on_c, 0, 63, 0
1, 47712, Note_on_c, 0, 64, 75
1, 47712, Note_on_c, 1, 52, 75
1, 47757, Note_on_c, 0, 64, 0
1, 47757, Note_on_c, 1, 52, 0
1, 47760, Note_on_c, 0, 69, 75
1, 47760, Note_on_c, 0, 61, 75
1, 47780, Note_on_c, 0, 69, 0
1, 47780, Note_on_c, 0, 61, 0
1, 47808, Note_on_c, 0, 69, 91
1, 47808, Note_on_c, 0, 61, 91
1, 47856, Note_on_c, 1, 40, 75
1, 47901, Note_on_c, 1, 40, 0
1, 47904, Note_on_c, 0, 69, 0
1, 47904, Note_on_c, 0, 61, 0
1, 47904, Note_on_c, 0, 68, 75
1, 47904, Note_on_c, 0, 59, 75
1, 47904, Note_on_c, 1, 52, 75
1, 47924, Note_on_c, 0, 68, 0
1, 47924, Note_on_c, 0, 59, 0
1, 47949, Note_on_c, 1, 52, 0
1, 47952, Note_on_c, 0, 64, 75
1, 47967, Note_on_c, 0, 64, 0
1, 47968, Note_on_c, 0, 69, 75
1, 47983, Note_on_c, 0, 69, 0
1, 47984, Note_on_c, 0, 73, 75
1, 47999, Note_on_c, 0, 73, 0
1, 48000, Note_on_c, 0, 73, 75
1, 48000, Note_on_c, 0, 69, 64
1, 48048, Note_on_c, 1, 40, 75
1, 48093, Note_on_c, 1, 40, 0
1, 48096, Note_on_c, 0, 73, 0
1, 48096, Note_on_c, 0, 71, 75
1, 48096, Note_on_c, 0, 69, 0
1, 48096, Note_on_c, 0, 68, 64
1, 48096, Note_on_c, 1, 52, 75
1, 48116, Note_on_c, 0, 71, 0
1, 48141, Note_on_c, 1, 52, 0
1, 48143, Note_on_c, 0, 68, 0
1, 48144, Note_on_c, 0, 76, 75
1, 48144, Note_on_c, 0, 68, 64
1, 48164, Note_on_c, 0, 76, 0
1, 48164, Note_on_c, 0, 68, 0
1, 48192, Note_on_c, 0, 76, 91
1, 48192, Note_on_c, 0, 68, 64
1, 48240, Note_on_c, 1, 47, 75
1, 48285, Note_on_c, 1, 47, 0
1, 48288, Note_on_c, 0, 76, 0
1, 48288, Note_on_c, 0, 75, 75
1, 48288, Note_on_c, 0, 68, 0
1, 48288, Note_on_c, 0, 66, 64
1, 48288, Note_on_c, 1, 59, 75
1, 48308, Note_on_c, 0, 75, 0
1, 48308, Note_on_c, 0, 66, 0
1, 48333, Note_on_c, 1, 59, 0
1, 48336, Note_on_c, 0, 71, 64
1, 48351, Note_on_c, 0, 71, 0
1, 48352, Note_on_c, 0, 76, 64
1, 48367, Note_on_c, 0, 76, 0
1, 48368, Note_on_c, 0, 80, 64
1, 48383, Note_on_c, 0, 80, 0
1, 48384, Note_on_c, 0, 80, 75
1, 48384, Note_on_c, 0, 76, 64
1, 48432, Note_on_c, 1, 47, 75
1, 48473, Note_on_c, 0, 76, 0
1, 48477, Note_on_c, 1, 47, 0
1, 48480, Note_on_c, 0, 80, 0
1, 48480, Note_on_c, 0, 78, 75
1, 48480, Note_on_c, 0, 75, 64
1, 48480, Note_on_c, 1, 59, 75
1, 48500, Note_on_c, 0, 78, 0
1, 48500, Note_on_c, 0, 75, 0
1, 48525, Note_on_c, 1, 59, 0
1, 48528, Note_on_c, 0, 71, 64
1, 48543, Note_on_c, 0, 71, 0
1, 48544, Note_on_c, 0, 75, 64
1, 48559, Note_on_c, 0, 75, 0
1, 48560, Note_on_c, 0, 78, 64
1, 48575, Note_on_c, 0, 78, 0
1, 48576, Note_on_c, 0, 81, 75
1, 48576, Note_on_c, 0, 78, 64
1, 48643, Note_on_c, 0, 81, 0
1, 48643, Note_on_c, 0, 78, 0
1, 48648, Note_on_c, 0, 80, 75
1, 48648, Note_on_c, 0, 77, 64
1, 48671, Note_on_c, 0, 80, 0
1, 48671, Note_on_c, 0, 77, 0
1, 48672, Note_on_c, 0, 81, 75
1, 48672, Note_on_c, 0, 78, 64
1, 48739, Note_on_c, 0, 81, 0
1, 48739, Note_on_c, 0, 78, 0
1, 48744, Note_on_c, 0, 80, 75
1, 48744, Note_on_c, 0, 77, 64
1, 48767, Note_on_c, 0, 80, 0
1, 48767, Note_on_c, 0, 77, 0
1, 48768, Note_on_c, 0, 78, 75
1, 48768, Note_on_c, 1, 57, 75
1, 48768, Note_on_c, 1, 54, 75
1, 48768, Note_on_c, 1, 51, 75
1, 48768, Note_on_c, 1, 47, 75
1, 48835, Note_on_c, 0, 78, 0
1, 48840, Note_on_c, 0, 80, 75
1, 48863, Note_on_c, 0, 80, 0
1, 48864, Note_on_c, 0, 83, 75
1, 48887, Note_on_c, 0, 83, 0
1, 48888, Note_on_c, 0, 81, 75
1, 48911, Note_on_c, 0, 81, 0
1, 48912, Note_on_c, 0, 85, 75
1, 48935, Note_on_c, 0, 85, 0
1, 48936, Note_on_c, 0, 83, 75
1, 48959, Note_on_c, 0, 83, 0
1, 48960, Note_on_c, 0, 81, 75
1, 48983, Note_on_c, 0, 81, 0
1, 48984, Note_on_c, 0, 80, 75
1, 49007, Note_on_c, 0, 80, 0
1, 49008, Note_on_c, 0, 78, 75
1, 49031, Note_on_c, 0, 78, 0
1, 49032, Note_on_c, 0, 77, 75
1, 49055, Note_on_c, 0, 77, 0
1, 49056, Note_on_c, 0, 80, 75
1, 49079, Note_on_c, 0, 80, 0
1, 49080, Note_on_c, 0, 78, 75
1, 49103, Note_on_c, 0, 78, 0
1, 49104, Note_on_c, 0, 81, 75
1, 49127, Note_on_c, 0, 81, 0
1, 49128, Note_on_c, 0, 80, 75
1, 49151, Note_on_c, 0, 80, 0
1, 49152, Note_on_c, 0, 78, 75
1, 49175, Note_on_c, 0, 78, 0
1, 49176, Note_on_c, 0, 76, 75
1, 49199, Note_on_c, 0, 76, 0
1, 49200, Note_on_c, 0, 75, 75
1, 49223, Note_on_c, 0, 75, 0
1, 49224, Note_on_c, 0, 73, 75
1, 49247, Note_on_c, 0, 73, 0
1, 49248, Note_on_c, 0, 76, 75
1, 49271, Note_on_c, 0, 76, 0
1, 49272, Note_on_c, 0, 75, 75
1, 49295, Note_on_c, 0, 75, 0
1, 49296, Note_on_c, 0, 78, 75
1, 49319, Note_on_c, 0, 78, 0
1, 49320, Note_on_c, 0, 76, 75
1, 49343, Note_on_c, 0, 76, 0
1, 49344, Note_on_c, 0, 75, 75
1, 49367, Note_on_c, 0, 75, 0
1, 49368, Note_on_c, 0, 73, 75
1, 49391, Note_on_c, 0, 73, 0
1, 49392, Note_on_c, 0, 71, 75
1, 49415, Note_on_c, 0, 71, 0
1, 49416, Note_on_c, 0, 70, 75
1, 49439, Note_on_c, 0, 70, 0
1, 49440, Note_on_c, 0, 71, 75
1, 49463, Note_on_c, 0, 71, 0
1, 49464, Note_on_c, 0, 69, 75
1, 49487, Note_on_c, 0, 69, 0
1, 49488, Note_on_c, 0, 73, 75
1, 49511, Note_on_c, 0, 73, 0
1, 49512, Note_on_c, 0, 71, 75
1, 49535, Note_on_c, 0, 71, 0
1, 49536, Note_on_c, 0, 69, 75
1, 49559, Note_on_c, 0, 69, 0
1, 49560, Note_on_c, 0, 68, 75
1, 49583, Note_on_c, 0, 68, 0
1, 49584, Note_on_c, 0, 66, 75
1, 49607, Note_on_c, 0, 66, 0
1, 49608, Note_on_c, 0, 65, 75
1, 49631, Note_on_c, 0, 65, 0
1, 49632, Note_on_c, 0, 66, 75
1, 49655, Note_on_c, 0, 66, 0
1, 49656, Note_on_c, 0, 67, 75
1, 49679, Note_on_c, 0, 67, 0
1, 49680, Note_on_c, 0, 68, 75
1, 49703, Note_on_c, 0, 68, 0
1, 49704, Note_on_c, 0, 69, 75
1, 49713, Note_on_c, 1, 57, 0
1, 49713, Note_on_c, 1, 54, 0
1, 49713, Note_on_c, 1, 51, 0
1, 49713, Note_on_c, 1, 47, 0
1, 49727, Note_on_c, 0, 69, 0
1, 49728, Note_on_c, 0, 70, 75
1, 49751, Note_on_c, 0, 70, 0
1, 49752, Note_on_c, 0, 71, 75
1, 49775, Note_on_c, 0, 71, 0
1, 49776, Note_on_c, 0, 72, 75
1, 49799, Note_on_c, 0, 72, 0
1, 49800, Note_on_c, 0, 73, 75
1, 49823, Note_on_c, 0, 73, 0
1, 49824, Note_on_c, 0, 73, 75
1, 49869, Note_on_c, 0, 73, 0
1, 49872, Note_on_c, 0, 73, 75
1, 49917, Note_on_c, 0, 73, 0
1, 49920, Note_on_c, 0, 71, 75
1, 49920, Note_on_c, 1, 63, 64
1, 49926, Note_on_c, 0, 71, 0
1, 49926, Note_on_c, 0, 73, 75
1, 49932, Note_on_c, 0, 73, 0
1, 49932, Note_on_c, 0, 75, 75
1, 49938, Note_on_c, 0, 75, 0
1, 49938, Note_on_c, 0, 73, 75
1, 49943, Note_on_c, 1, 63, 0
1, 49944, Note_on_c, 1, 64, 64
1, 49967, Note_on_c, 1, 64, 0
1, 49968, Note_on_c, 1, 65, 64
1, 49991, Note_on_c, 1, 65, 0
1, 49992, Note_on_c, 1, 66, 64
1, 50015, Note_on_c, 1, 66, 0
1, 50016, Note_on_c, 1, 67, 64
1, 50039, Note_on_c, 1, 67, 0
1, 50040, Note_on_c, 1, 68, 64
1, 50063, Note_on_c, 1, 68, 0
1, 50064, Note_on_c, 1, 69, 64
1, 50087, Note_on_c, 1, 69, 0
1, 50088, Note_on_c, 1, 68, 64
1, 50097, Note_on_c, 0, 73, 0
1, 50111, Note_on_c, 1, 68, 0
1, 50112, Note_on_c, 0, 73, 75
1, 50112, Note_on_c, 1, 69, 64
1, 50179, Note_on_c, 0, 73, 0
1, 50179, Note_on_c, 1, 69, 0
1, 50184, Note_on_c, 0, 72, 75
1, 50184, Note_on_c, 1, 68, 64
1, 50207, Note_on_c, 0, 72, 0
1, 50207, Note_on_c, 1, 68, 0
1, 50208, Note_on_c, 0, 73, 75
1, 50208, Note_on_c, 1, 69, 64
1, 50275, Note_on_c, 0, 73, 0
1, 50275, Note_on_c, 1, 69, 0
1, 50280, Note_on_c, 0, 72, 75
1, 50280, Note_on_c, 1, 68, 64
1, 50303, Note_on_c, 0, 72, 0
1, 50303, Note_on_c, 1, 68, 0
1, 50304, Note_on_c, 0, 73, 75
1, 50304, Note_on_c, 1, 69, 64
1, 50304, Note_on_c, 1, 63, 64
1, 50481, Note_on_c, 0, 73, 0
1, 50496, Note_on_c, 0, 72, 75
1, 50541, Note_on_c, 0, 72, 0
1, 50544, Note_on_c, 0, 73, 75
1, 50589, Note_on_c, 0, 73, 0
1, 50592, Note_on_c, 0, 75, 75
1, 50637, Note_on_c, 0, 75, 0
1, 50640, Note_on_c, 0, 73, 75
1, 50685, Note_on_c, 0, 73, 0
1, 50688, Note_on_c, 0, 73, 75
1, 50865, Note_on_c, 1, 69, 0
1, 50865, Note_on_c, 1, 63, 0
1, 50953, Note_on_c, 0, 73, 0
1, 50976, Note_on_c, 0, 71, 75
1, 50999, Note_on_c, 0, 71, 0
1, 51000, Note_on_c, 0, 69, 75
1, 51023, Note_on_c, 0, 69, 0
1, 51024, Note_on_c, 0, 68, 75
1, 51047, Note_on_c, 0, 68, 0
1, 51048, Note_on_c, 0, 66, 75
1, 51071, Note_on_c, 0, 66, 0
1, 51072, Note_on_c, 0, 64, 64
1, 51120, Note_on_c, 1, 59, 64
1, 51120, Note_on_c, 1, 56, 64
1, 51161, Note_on_c, 0, 64, 0
1, 51165, Note_on_c, 1, 59, 0
1, 51165, Note_on_c, 1, 56, 0
1, 51168, Note_on_c, 0, 63, 65
1, 51191, Note_on_c, 0, 63, 0
1, 51192, Note_on_c, 0, 64, 65
1, 51215, Note_on_c, 0, 64, 0
1, 51216, Note_on_c, 0, 66, 65
1, 51216, Note_on_c, 1, 59, 64
1, 51216, Note_on_c, 1, 56, 64
1, 51239, Note_on_c, 0, 66, 0
1, 51240, Note_on_c, 0, 64, 65
1, 51261, Note_on_c, 1, 59, 0
1, 51261, Note_on_c, 1, 56, 0
1, 51263, Note_on_c, 0, 64, 0
1, 51264, Note_on_c, 0, 64, 66
1, 51312, Note_on_c, 1, 59, 64
1, 51312, Note_on_c, 1, 56, 64
1, 51357, Note_on_c, 1, 59, 0
1, 51357, Note_on_c, 1, 56, 0
1, 51360, Note_on_c, 1, 59, 64
1, 51360, Note_on_c, 1, 56, 64
1, 51397, Note_on_c, 0, 64, 0
1, 51405, Note_on_c, 1, 59, 0
1, 51405, Note_on_c, 1, 56, 0
1, 51408, Note_on_c, 0, 65, 67
1, 51408, Note_on_c, 1, 59, 64
1, 51408, Note_on_c, 1, 56, 64
1, 51453, Note_on_c, 0, 65, 0
1, 51453, Note_on_c, 1, 59, 0
1, 51453, Note_on_c, 1, 56, 0
1, 51456, Note_on_c, 0, 68, 68
1, 51462, Note_on_c, 0, 68, 0
1, 51462, Note_on_c, 0, 66, 68
1, 51468, Note_on_c, 0, 66, 0
1, 51468, Note_on_c, 0, 65, 68
1, 51474, Note_on_c, 0, 65, 0
1, 51474, Note_on_c, 0, 66, 68
1, 51504, Note_on_c, 1, 61, 64
1, 51504, Note_on_c, 1, 57, 64
1, 51545, Note_on_c, 0, 66, 0
1, 51549, Note_on_c, 1, 61, 0
1, 51549, Note_on_c, 1, 57, 0
1, 51552, Note_on_c, 0, 65, 69
1, 51575, Note_on_c, 0, 65, 0
1, 51576, Note_on_c, 0, 66, 69
1, 51599, Note_on_c, 0, 66, 0
1, 51600, Note_on_c, 0, 68, 70
1, 51600, Note_on_c, 1, 61, 64
1, 51600, Note_on_c, 1, 57, 64
1, 51623, Note_on_c, 0, 68, 0
1, 51624, Note_on_c, 0, 66, 70
1, 51645, Note_on_c, 1, 61, 0
1, 51645, Note_on_c, 1, 57, 0
1, 51647, Note_on_c, 0, 66, 0
1, 51648, Note_on_c, 0, 66, 70
1, 51696, Note_on_c, 1, 61, 64
1, 51696, Note_on_c, 1, 58, 64
1, 51741, Note_on_c, 1, 61, 0
1, 51741, Note_on_c, 1, 58, 0
1, 51744, Note_on_c, 1, 61, 64
1, 51744, Note_on_c, 1, 58, 64
1, 51781, Note_on_c, 0, 66, 0
1, 51789, Note_on_c, 1, 61, 0
1, 51789, Note_on_c, 1, 58, 0
1, 51792, Note_on_c, 0, 67, 72
1, 51792, Note_on_c, 1, 61, 64
1, 51792, Note_on_c, 1, 58, 64
1, 51837, Note_on_c, 0, 67, 0
1, 51837, Note_on_c, 1, 61, 0
1, 51837, Note_on_c, 1, 58, 0
1, 51840, Note_on_c, 0, 69, 72
1, 51846, Note_on_c, 0, 69, 0
1, 51846, Note_on_c, 0, 68, 72
1, 51852, Note_on_c, 0, 68, 0
1, 51852, Note_on_c, 0, 67, 72
1, 51858, Note_on_c, 0, 67, 0
1, 51858, Note_on_c, 0, 68, 72
1, 51888, Note_on_c, 1, 63, 80
1, 51888, Note_on_c, 1, 59, 80
1, 51929, Note_on_c, 0, 68, 0
1, 51933, Note_on_c, 1, 63, 0
1, 51933, Note_on_c, 1, 59, 0
1, 51936, Note_on_c, 0, 67, 74
1, 51959, Note_on_c, 0, 67, 0
1, 51960, Note_on_c, 0, 68, 74
1, 51983, Note_on_c, 0, 68, 0
1, 51984, Note_on_c, 0, 69, 74
1, 51984, Note_on_c, 1, 63, 80
1, 51984, Note_on_c, 1, 59, 80
1, 52007, Note_on_c, 0, 69, 0
1, 52008, Note_on_c, 0, 68, 74
1, 52029, Note_on_c, 1, 63, 0
1, 52029, Note_on_c, 1, 59, 0
1, 52031, Note_on_c, 0, 68, 0
1, 52032, Note_on_c, 0, 68, 75
1, 52080, Note_on_c, 1, 63, 80
1, 52080, Note_on_c, 1, 59, 80
1, 52125, Note_on_c, 1, 63, 0
1, 52125, Note_on_c, 1, 59, 0
1, 52128, Note_on_c, 1, 63, 80
1, 52128, Note_on_c, 1, 59, 80
1, 52173, Note_on_c, 1, 63, 0
1, 52173, Note_on_c, 1, 59, 0
1, 52176, Note_on_c, 1, 63, 80
1, 52176, Note_on_c, 1, 59, 80
1, 52200, Note_on_c, 0, 68, 0
1, 52200, Note_on_c, 0, 71, 77
1, 52221, Note_on_c, 1, 63, 0
1, 52221, Note_on_c, 1, 59, 0
1, 52223, Note_on_c, 0, 71, 0
1, 52224, Note_on_c, 0, 71, 77
1, 52224, Note_on_c, 1, 61, 64
1, 52247, Note_on_c, 1, 61, 0
1, 52248, Note_on_c, 0, 71, 0
1, 52248, Note_on_c, 0, 69, 77
1, 52248, Note_on_c, 1, 64, 64
1, 52271, Note_on_c, 0, 69, 0
1, 52271, Note_on_c, 1, 64, 0
1, 52272, Note_on_c, 0, 69, 78
1, 52272, Note_on_c, 1, 59, 64
1, 52295, Note_on_c, 1, 59, 0
1, 52296, Note_on_c, 0, 69, 0
1, 52296, Note_on_c, 0, 68, 78
1, 52296, Note_on_c, 1, 64, 64
1, 52319, Note_on_c, 0, 68, 0
1, 52319, Note_on_c, 1, 64, 0
1, 52320, Note_on_c, 0, 68, 78
1, 52320, Note_on_c, 1, 57, 64
1, 52343, Note_on_c, 1, 57, 0
1, 52344, Note_on_c, 0, 68, 0
1, 52344, Note_on_c, 0, 66, 78
1, 52344, Note_on_c, 1, 64, 64
1, 52367, Note_on_c, 0, 66, 0
1, 52367, Note_on_c, 1, 64, 0
1, 52368, Note_on_c, 0, 66, 79
1, 52368, Note_on_c, 1, 59, 64
1, 52391, Note_on_c, 1, 59, 0
1, 52392, Note_on_c, 0, 66, 0
1, 52392, Note_on_c, 0, 68, 79
1, 52392, Note_on_c, 1, 64, 64
1, 52415, Note_on_c, 0, 68, 0
1, 52415, Note_on_c, 1, 64, 0
1, 52416, Note_on_c, 0, 71, 79
1, 52416, Note_on_c, 1, 61, 64
1, 52439, Note_on_c, 1, 61, 0
1, 52440, Note_on_c, 0, 71, 0
1, 52440, Note_on_c, 0, 69, 80
1, 52440, Note_on_c, 1, 64, 64
1, 52463, Note_on_c, 0, 69, 0
1, 52463, Note_on_c, 1, 64, 0
1, 52464, Note_on_c, 0, 69, 80
1, 52464, Note_on_c, 1, 59, 64
1, 52487, Note_on_c, 1, 59, 0
1, 52488, Note_on_c, 0, 69, 0
1, 52488, Note_on_c, 0, 68, 80
1, 52488, Note_on_c, 1, 64, 64
1, 52511, Note_on_c, 0, 68, 0
1, 52511, Note_on_c, 1, 64, 0
1, 52512, Note_on_c, 0, 68, 80
1, 52512, Note_on_c, 1, 57, 64
1, 52535, Note_on_c, 1, 57, 0
1, 52536, Note_on_c, 0, 68, 0
1, 52536, Note_on_c, 0, 66, 80
1, 52536, Note_on_c, 1, 64, 64
1, 52559, Note_on_c, 0, 66, 0
1, 52559, Note_on_c, 1, 64, 0
1, 52560, Note_on_c, 0, 66, 80
1, 52560, Note_on_c, 1, 59, 64
1, 52583, Note_on_c, 1, 59, 0
1, 52584, Note_on_c, 0, 66, 0
1, 52584, Note_on_c, 0, 68, 80
1, 52584, Note_on_c, 1, 64, 64
1, 52607, Note_on_c, 0, 68, 0
1, 52607, Note_on_c, 1, 64, 0
1, 52608, Note_on_c, 0, 71, 80
1, 52608, Note_on_c, 1, 61, 64
1, 52631, Note_on_c, 1, 61, 0
1, 52632, Note_on_c, 0, 71, 0
1, 52632, Note_on_c, 0, 69, 80
1, 52632, Note_on_c, 1, 64, 64
1, 52655, Note_on_c, 0, 69, 0
1, 52655, Note_on_c, 1, 64, 0
1, 52656, Note_on_c, 0, 69, 80
1, 52656, Note_on_c, 1, 59, 64
1, 52679, Note_on_c, 1, 59, 0
1, 52680, Note_on_c, 0, 69, 0
1, 52680, Note_on_c, 0, 68, 80
1, 52680, Note_on_c, 1, 64, 64
1, 52703, Note_on_c, 0, 68, 0
1, 52703, Note_on_c, 1, 64, 0
1, 52704, Note_on_c, 0, 68, 80
1, 52704, Note_on_c, 1, 58, 64
1, 52727, Note_on_c, 1, 58, 0
1, 52728, Note_on_c, 0, 68, 0
1, 52728, Note_on_c, 0, 66, 80
1, 52728, Note_on_c, 1, 64, 64
1, 52751, Note_on_c, 0, 66, 0
1, 52751, Note_on_c, 1, 64, 0
1, 52752, Note_on_c, 0, 66, 80
1, 52752, Note_on_c, 1, 58, 64
1, 52762, Note_on_c, 0, 66, 0
1, 52775, Note_on_c, 1, 58, 0
1, 52776, Note_on_c, 0, 73, 80
1, 52776, Note_on_c, 1, 64, 64
1, 52786, Note_on_c, 0, 73, 0
1, 52799, Note_on_c, 1, 64, 0
1, 52800, Note_on_c, 0, 68, 80
1, 52800, Note_on_c, 1, 58, 64
1, 52823, Note_on_c, 1, 58, 0
1, 52824, Note_on_c, 0, 68, 0
1, 52824, Note_on_c, 0, 66, 80
1, 52824, Note_on_c, 1, 64, 64
1, 52847, Note_on_c, 0, 66, 0
1, 52847, Note_on_c, 1, 64, 0
1, 52848, Note_on_c, 0, 66, 80
1, 52848, Note_on_c, 1, 58, 64
1, 52858, Note_on_c, 0, 66, 0
1, 52871, Note_on_c, 1, 58, 0
1, 52872, Note_on_c, 0, 73, 80
1, 52872, Note_on_c, 1, 64, 64
1, 52882, Note_on_c, 0, 73, 0
1, 52895, Note_on_c, 1, 64, 0
1, 52896, Note_on_c, 0, 68, 80
1, 52896, Note_on_c, 1, 58, 64
1, 52919, Note_on_c, 1, 58, 0
1, 52920, Note_on_c, 0, 68, 0
1, 52920, Note_on_c, 0, 66, 80
1, 52920, Note_on_c, 1, 64, 64
1, 52943, Note_on_c, 0, 66, 0
1, 52943, Note_on_c, 1, 64, 0
1, 52944, Note_on_c, 0, 66, 80
1, 52944, Note_on_c, 1, 58, 64
1, 52954, Note_on_c, 0, 66, 0
1, 52967, Note_on_c, 1, 58, 0
1, 52968, Note_on_c, 0, 73, 80
1, 52968, Note_on_c, 1, 64, 64
1, 52978, Note_on_c, 0, 73, 0
1, 52992, Note_on_c, 0, 66, 80
1, 52992, Note_on_c, 1, 59, 80
1, 53081, Note_on_c, 1, 64, 0
1, 53088, Note_on_c, 1, 63, 64
1, 53111, Note_on_c, 0, 66, 0
1, 53112, Note_on_c, 0, 68, 80
1, 53135, Note_on_c, 0, 68, 0
1, 53136, Note_on_c, 0, 69, 78
1, 53159, Note_on_c, 0, 69, 0
1, 53160, Note_on_c, 0, 68, 76
1, 53169, Note_on_c, 1, 59, 0
1, 53177, Note_on_c, 1, 63, 0
1, 53183, Note_on_c, 0, 68, 0
1, 53184, Note_on_c, 0, 71, 74
1, 53207, Note_on_c, 0, 71, 0
1, 53208, Note_on_c, 0, 69, 72
1, 53231, Note_on_c, 0, 69, 0
1, 53232, Note_on_c, 0, 68, 70
1, 53255, Note_on_c, 0, 68, 0
1, 53256, Note_on_c, 0, 66, 68
1, 53279, Note_on_c, 0, 66, 0
1, 53280, Note_on_c, 0, 64, 66
1, 53303, Note_on_c, 0, 64, 0
1, 53304, Note_on_c, 0, 63, 64
1, 53327, Note_on_c, 0, 63, 0
1, 53328, Note_on_c, 0, 69, 64
1, 53351, Note_on_c, 0, 69, 0
1, 53352, Note_on_c, 0, 66, 64
1, 53375, Note_on_c, 0, 66, 0
1, 53376, Note_on_c, 0, 63, 64
1, 53399, Note_on_c, 0, 63, 0
1, 53400, Note_on_c, 0, 60, 64
1, 53423, Note_on_c, 0, 60, 0
1, 53424, Note_on_c, 0, 69, 65
1, 53447, Note_on_c, 0, 69, 0
1, 53448, Note_on_c, 0, 66, 66
1, 53471, Note_on_c, 0, 66, 0
1, 53472, Note_on_c, 0, 63, 67
1, 53472, Note_on_c, 1, 57, 80
1, 53495, Note_on_c, 0, 63, 0
1, 53496, Note_on_c, 0, 60, 68
1, 53519, Note_on_c, 0, 60, 0
1, 53520, Note_on_c, 0, 69, 69
1, 53543, Note_on_c, 0, 69, 0
1, 53544, Note_on_c, 0, 66, 70
1, 53561, Note_on_c, 1, 57, 0
1, 53567, Note_on_c, 0, 66, 0
1, 53568, Note_on_c, 0, 63, 71
1, 53568, Note_on_c, 1, 54, 80
1, 53591, Note_on_c, 0, 63, 0
1, 53592, Note_on_c, 0, 60, 72
1, 53615, Note_on_c, 0, 60, 0
1, 53616, Note_on_c, 0, 69, 73
1, 53639, Note_on_c, 0, 69, 0
1, 53640, Note_on_c, 0, 66, 74
1, 53657, Note_on_c, 1, 54, 0
1, 53663, Note_on_c, 0, 66, 0
1, 53664, Note_on_c, 0, 63, 75
1, 53664, Note_on_c, 1, 51, 80
1, 53687, Note_on_c, 0, 63, 0
1, 53688, Note_on_c, 0, 60, 76
1, 53711, Note_on_c, 0, 60, 0
1, 53712, Note_on_c, 0, 71, 77
1, 53735, Note_on_c, 0, 71, 0
1, 53736, Note_on_c, 0, 68, 78
1, 53753, Note_on_c, 1, 51, 0
1, 53759, Note_on_c, 0, 68, 0
1, 53760, Note_on_c, 0, 65, 79
1, 53783, Note_on_c, 0, 65, 0
1, 53784, Note_on_c, 0, 62, 80
1, 53807, Note_on_c, 0, 62, 0
1, 53808, Note_on_c, 0, 71, 80
1, 53831, Note_on_c, 0, 71, 0
1, 53832, Note_on_c, 0, 68, 80
1, 53855, Note_on_c, 0, 68, 0
1, 53856, Note_on_c, 0, 65, 80
1, 53856, Note_on_c, 1, 59, 80
1, 53856, Note_on_c, 1, 47, 80
1, 53879, Note_on_c, 0, 65, 0
1, 53880, Note_on_c, 0, 62, 80
1, 53903, Note_on_c, 0, 62, 0
1, 53904, Note_on_c, 0, 71, 80
1, 53927, Note_on_c, 0, 71, 0
1, 53928, Note_on_c, 0, 68, 80
1, 53945, Note_on_c, 1, 59, 0
1, 53945, Note_on_c, 1, 47, 0
1, 53951, Note_on_c, 0, 68, 0
1, 53952, Note_on_c, 0, 65, 80
1, 53952, Note_on_c, 1, 56, 80
1, 53952, Note_on_c, 1, 44, 80
1, 53975, Note_on_c, 0, 65, 0
1, 53976, Note_on_c, 0, 62, 80
1, 53999, Note_on_c, 0, 62, 0
1, 54000, Note_on_c, 0, 71, 80
1, 54023, Note_on_c, 0, 71, 0
1, 54024, Note_on_c, 0, 68, 80
1, 54041, Note_on_c, 1, 56, 0
1, 54041, Note_on_c, 1, 44, 0
1, 54047, Note_on_c, 0, 68, 0
1, 54048, Note_on_c, 0, 65, 80
1, 54048, Note_on_c, 1, 53, 80
1, 54048, Note_on_c, 1, 41, 80
1, 54071, Note_on_c, 0, 65, 0
1, 54072, Note_on_c, 0, 62, 80
1, 54095, Note_on_c, 0, 62, 0
1, 54096, Note_on_c, 0, 73, 80
1, 54119, Note_on_c, 0, 73, 0
1, 54120, Note_on_c, 0, 70, 80
1, 54137, Note_on_c, 1, 53, 0
1, 54137, Note_on_c, 1, 41, 0
1, 54143, Note_on_c, 0, 70, 0
1, 54144, Note_on_c, 0, 67, 86
1, 54167, Note_on_c, 0, 67, 0
1, 54168, Note_on_c, 0, 64, 86
1, 54191, Note_on_c, 0, 64, 0
1, 54192, Note_on_c, 0, 73, 86
1, 54215, Note_on_c, 0, 73, 0
1, 54216, Note_on_c, 0, 70, 86
1, 54239, Note_on_c, 0, 70, 0
1, 54240, Note_on_c, 0, 67, 86
1, 54240, Note_on_c, 1, 61, 86
1, 54240, Note_on_c, 1, 49, 86
1, 54263, Note_on_c, 0, 67, 0
1, 54264, Note_on_c, 0, 64, 86
1, 54287, Note_on_c, 0, 64, 0
1, 54288, Note_on_c, 0, 73, 86
1, 54311, Note_on_c, 0, 73, 0
1, 54312, Note_on_c, 0, 70, 86
1, 54329, Note_on_c, 1, 61, 0
1, 54329, Note_on_c, 1, 49, 0
1, 54335, Note_on_c, 0, 70, 0
1, 54336, Note_on_c, 0, 67, 86
1, 54336, Note_on_c, 1, 58, 86
1, 54336, Note_on_c, 1, 46, 86
1, 54359, Note_on_c, 0, 67, 0
1, 54360, Note_on_c, 0, 64, 86
1, 54383, Note_on_c, 0, 64, 0
1, 54384, Note_on_c, 0, 73, 86
1, 54407, Note_on_c, 0, 73, 0
1, 54408, Note_on_c, 0, 70, 86
1, 54425, Note_on_c, 1, 58, 0
1, 54425, Note_on_c, 1, 46, 0
1, 54431, Note_on_c, 0, 70, 0
1, 54432, Note_on_c, 0, 67, 86
1, 54432, Note_on_c, 1, 55, 86
1, 54432, Note_on_c, 1, 43, 86
1, 54455, Note_on_c, 0, 67, 0
1, 54456, Note_on_c, 0, 64, 86
1, 54479, Note_on_c, 0, 64, 0
1, 54480, Note_on_c, 0, 76, 86
1, 54503, Note_on_c, 0, 76, 0
1, 54504, Note_on_c, 0, 73, 86
1, 54521, Note_on_c, 1, 55, 0
1, 54521, Note_on_c, 1, 43, 0
1, 54527, Note_on_c, 0, 73, 0
1, 54528, Note_on_c, 0, 70, 86
1, 54551, Note_on_c, 0, 70, 0
1, 54552, Note_on_c, 0, 67, 86
1, 54575, Note_on_c, 0, 67, 0
1, 54576, Note_on_c, 0, 76, 86
1, 54599, Note_on_c, 0, 76, 0
1, 54600, Note_on_c, 0, 73, 86
1, 54623, Note_on_c, 0, 73, 0
1, 54624, Note_on_c, 0, 70, 86
1, 54624, Note_on_c, 1, 42, 86
1, 54624, Note_on_c, 1, 30, 86
1, 54647, Note_on_c, 0, 70, 0
1, 54648, Note_on_c, 0, 67, 86
1, 54671, Note_on_c, 0, 67, 0
1, 54672, Note_on_c, 0, 76, 86
1, 54695, Note_on_c, 0, 76, 0
1, 54696, Note_on_c, 0, 73, 86
1, 54713, Note_on_c, 1, 42, 0
1, 54713, Note_on_c, 1, 30, 0
1, 54719, Note_on_c, 0, 73, 0
1, 54720, Note_on_c, 0, 70, 86
1, 54720, Note_on_c, 1, 49, 86
1, 54720, Note_on_c, 1, 37, 86
1, 54743, Note_on_c, 0, 70, 0
1, 54744, Note_on_c, 0, 67, 86
1, 54767, Note_on_c, 0, 67, 0
1, 54768, Note_on_c, 0, 76, 86
1, 54791, Note_on_c, 0, 76, 0
1, 54792, Note_on_c, 0, 73, 86
1, 54809, Note_on_c, 1, 49, 0
1, 54809, Note_on_c, 1, 37, 0
1, 54815, Note_on_c, 0, 73, 0
1, 54816, Note_on_c, 0, 70, 86
1, 54816, Note_on_c, 1, 52, 86
1, 54816, Note_on_c, 1, 40, 86
1, 54839, Note_on_c, 0, 70, 0
1, 54840, Note_on_c, 0, 67, 86
1, 54863, Note_on_c, 0, 67, 0
1, 54864, Note_on_c, 0, 71, 86
1, 54887, Note_on_c, 0, 71, 0
1, 54888, Note_on_c, 0, 69, 86
1, 54905, Note_on_c, 1, 52, 0
1, 54905, Note_on_c, 1, 40, 0
1, 54911, Note_on_c, 0, 69, 0
1, 54912, Note_on_c, 0, 66, 86
1, 54935, Note_on_c, 0, 66, 0
1, 54936, Note_on_c, 0, 59, 86
1, 54959, Note_on_c, 0, 59, 0
1, 54960, Note_on_c, 0, 71, 86
1, 54983, Note_on_c, 0, 71, 0
1, 54984, Note_on_c, 0, 69, 86
1, 55007, Note_on_c, 0, 69, 0
1, 55008, Note_on_c, 0, 66, 86
1, 55008, Note_on_c, 1, 51, 86
1, 55008, Note_on_c, 1, 39, 86
1, 55031, Note_on_c, 0, 66, 0
1, 55032, Note_on_c, 0, 59, 86
1, 55055, Note_on_c, 0, 59, 0
1, 55056, Note_on_c, 0, 71, 86
1, 55079, Note_on_c, 0, 71, 0
1, 55080, Note_on_c, 0, 69, 86
1, 55097, Note_on_c, 1, 51, 0
1, 55097, Note_on_c, 1, 39, 0
1, 55103, Note_on_c, 0, 69, 0
1, 55104, Note_on_c, 0, 66, 86
1, 55104, Note_on_c, 1, 54, 86
1, 55104, Note_on_c, 1, 42, 86
1, 55127, Note_on_c, 0, 66, 0
1, 55128, Note_on_c, 0, 59, 86
1, 55151, Note_on_c, 0, 59, 0
1, 55152, Note_on_c, 0, 71, 86
1, 55175, Note_on_c, 0, 71, 0
1, 55176, Note_on_c, 0, 69, 86
1, 55193, Note_on_c, 1, 54, 0
1, 55193, Note_on_c, 1, 42, 0
1, 55199, Note_on_c, 0, 69, 0
1, 55200, Note_on_c, 0, 66, 86
1, 55200, Note_on_c, 1, 57, 86
1, 55200, Note_on_c, 1, 45, 86
1, 55223, Note_on_c, 0, 66, 0
1, 55224, Note_on_c, 0, 59, 86
1, 55247, Note_on_c, 0, 59, 0
1, 55248, Note_on_c, 0, 69, 86
1, 55271, Note_on_c, 0, 69, 0
1, 55272, Note_on_c, 0, 66, 86
1, 55289, Note_on_c, 1, 57, 0
1, 55289, Note_on_c, 1, 45, 0
1, 55295, Note_on_c, 0, 66, 0
1, 55296, Note_on_c, 0, 63, 86
1, 55319, Note_on_c, 0, 63, 0
1, 55320, Note_on_c, 0, 60, 86
1, 55343, Note_on_c, 0, 60, 0
1, 55344, Note_on_c, 0, 69, 86
1, 55367, Note_on_c, 0, 69, 0
1, 55368, Note_on_c, 0, 66, 86
1, 55391, Note_on_c, 0, 66, 0
1, 55392, Note_on_c, 0, 63, 86
1, 55392, Note_on_c, 1, 57, 86
1, 55415, Note_on_c, 0, 63, 0
1, 55416, Note_on_c, 0, 60, 86
1, 55439, Note_on_c, 0, 60, 0
1, 55440, Note_on_c, 0, 69, 86
1, 55463, Note_on_c, 0, 69, 0
1, 55464, Note_on_c, 0, 66, 86
1, 55481, Note_on_c, 1, 57, 0
1, 55487, Note_on_c, 0, 66, 0
1, 55488, Note_on_c, 0, 63, 86
1, 55488, Note_on_c, 1, 54, 86
1, 55511, Note_on_c, 0, 63, 0
1, 55512, Note_on_c, 0, 60, 86
1, 55535, Note_on_c, 0, 60, 0
1, 55536, Note_on_c, 0, 69, 86
1, 55559, Note_on_c, 0, 69, 0
1, 55560, Note_on_c, 0, 66, 86
1, 55577, Note_on_c, 1, 54, 0
1, 55583, Note_on_c, 0, 66, 0
1, 55584, Note_on_c, 0, 63, 86
1, 55584, Note_on_c, 1, 51, 86
1, 55607, Note_on_c, 0, 63, 0
1, 55608, Note_on_c, 0, 60, 86
1, 55631, Note_on_c, 0, 60, 0
1, 55632, Note_on_c, 0, 69, 86
1, 55647, Note_on_c, 0, 69, 0
1, 55648, Note_on_c, 0, 66, 86
1, 55663, Note_on_c, 0, 66, 0
1, 55664, Note_on_c, 0, 63, 86
1, 55673, Note_on_c, 1, 51, 0
1, 55679, Note_on_c, 0, 63, 0
1, 55680, Note_on_c, 0, 59, 86
1, 55680, Note_on_c, 1, 47, 80
1, 55736, Note_on_c, 0, 59, 0
1, 55736, Note_on_c, 0, 63, 86
1, 55736, Note_on_c, 1, 47, 0
1, 55736, Note_on_c, 1, 51, 80
1, 55744, Note_on_c, 0, 63, 0
1, 55744, Note_on_c, 0, 66, 86
1, 55744, Note_on_c, 1, 51, 0
1, 55744, Note_on_c, 1, 54, 80
1, 55752, Note_on_c, 0, 66, 0
1, 55752, Note_on_c, 0, 69, 86
1, 55752, Note_on_c, 1, 54, 0
1, 55752, Note_on_c, 1, 57, 80
1, 55760, Note_on_c, 0, 69, 0
1, 55760, Note_on_c, 0, 66, 86
1, 55760, Note_on_c, 1, 57, 0
1, 55760, Note_on_c, 1, 54, 80
1, 55768, Note_on_c, 0, 66, 0
1, 55768, Note_on_c, 0, 63, 86
1, 55768, Note_on_c, 1, 54, 0
1, 55768, Note_on_c, 1, 51, 80
1, 55776, Note_on_c, 0, 63, 0
1, 55776, Note_on_c, 0, 59, 86
1, 55776, Note_on_c, 1, 51, 0
1, 55776, Note_on_c, 1, 47, 80
1, 55821, Note_on_c, 0, 59, 0
1, 55821, Note_on_c, 1, 47, 0
1, 55824, Note_on_c, 0, 75, 86
1, 55824, Note_on_c, 0, 66, 86
1, 55824, Note_on_c, 1, 57, 80
1, 55844, Note_on_c, 0, 75, 0
1, 55844, Note_on_c, 0, 66, 0
1, 55844, Note_on_c, 1, 57, 0
1, 55872, Note_on_c, 0, 75, 102
1, 55872, Note_on_c, 0, 66, 102
1, 55872, Note_on_c, 1, 57, 80
1, 55968, Note_on_c, 0, 75, 0
1, 55968, Note_on_c, 0, 66, 0
1, 55968, Note_on_c, 0, 76, 86
1, 55968, Note_on_c, 0, 64, 86
1, 55968, Note_on_c, 1, 57, 0
1, 55968, Note_on_c, 1, 56, 80
1, 55988, Note_on_c, 0, 76, 0
1, 55988, Note_on_c, 0, 64, 0
1, 55988, Note_on_c, 1, 56, 0
1, 56016, Note_on_c, 0, 68, 64
1, 56039, Note_on_c, 0, 68, 0
1, 56040, Note_on_c, 0, 74, 64
1, 56063, Note_on_c, 0, 74, 0
1, 56064, Note_on_c, 0, 69, 64
1, 56087, Note_on_c, 0, 69, 0
1, 56088, Note_on_c, 0, 73, 64
1, 56111, Note_on_c, 0, 73, 0
1, 56112, Note_on_c, 0, 65, 64
1, 56135, Note_on_c, 0, 65, 0
1, 56136, Note_on_c, 0, 71, 64
1, 56159, Note_on_c, 0, 71, 0
1, 56160, Note_on_c, 0, 66, 64
1, 56183, Note_on_c, 0, 66, 0
1, 56184, Note_on_c, 0, 69, 64
1, 56207, Note_on_c, 0, 69, 0
1, 56208, Note_on_c, 0, 56, 64
1, 56231, Note_on_c, 0, 56, 0
1, 56232, Note_on_c, 0, 65, 64
1, 56255, Note_on_c, 0, 65, 0
1, 56256, Note_on_c, 0, 57, 64
1, 56279, Note_on_c, 0, 57, 0
1, 56280, Note_on_c, 0, 66, 64
1, 56303, Note_on_c, 0, 66, 0
1, 56304, Note_on_c, 0, 61, 64
1, 56327, Note_on_c, 0, 61, 0
1, 56328, Note_on_c, 0, 69, 64
1, 56351, Note_on_c, 0, 69, 0
1, 56352, Note_on_c, 0, 59, 64
1, 56375, Note_on_c, 0, 59, 0
1, 56376, Note_on_c, 0, 64, 64
1, 56399, Note_on_c, 0, 64, 0
1, 56400, Note_on_c, 0, 57, 64
1, 56423, Note_on_c, 0, 57, 0
1, 56424, Note_on_c, 0, 63, 64
1, 56447, Note_on_c, 0, 63, 0
1, 56448, Note_on_c, 0, 59, 80
1, 56448, Note_on_c, 1, 47, 80
1, 56504, Note_on_c, 0, 59, 0
1, 56504, Note_on_c, 0, 63, 80
1, 56504, Note_on_c, 1, 47, 0
1, 56504, Note_on_c, 1, 51, 80
1, 56512, Note_on_c, 0, 63, 0
1, 56512, Note_on_c, 0, 66, 80
1, 56512, Note_on_c, 1, 51, 0
1, 56512, Note_on_c, 1, 54, 80
1, 56520, Note_on_c, 0, 66, 0
1, 56520, Note_on_c, 0, 69, 80
1, 56520, Note_on_c, 1, 54, 0
1, 56520, Note_on_c, 1, 57, 80
1, 56528, Note_on_c, 0, 69, 0
1, 56528, Note_on_c, 0, 66, 80
1, 56528, Note_on_c, 1, 57, 0
1, 56528, Note_on_c, 1, 54, 80
1, 56536, Note_on_c, 0, 66, 0
1, 56536, Note_on_c, 0, 63, 80
1, 56536, Note_on_c, 1, 54, 0
1, 56536, Note_on_c, 1, 51, 80
1, 56544, Note_on_c, 0, 63, 0
1, 56544, Note_on_c, 0, 59, 80
1, 56544, Note_on_c, 1, 51, 0
1, 56544, Note_on_c, 1, 47, 80
1, 56589, Note_on_c, 0, 59, 0
1, 56589, Note_on_c, 1, 47, 0
1, 56592, Note_on_c, 0, 75, 80
1, 56592, Note_on_c, 0, 66, 80
1, 56592, Note_on_c, 1, 60, 80
1, 56592, Note_on_c, 1, 57, 80
1, 56612, Note_on_c, 0, 75, 0
1, 56612, Note_on_c, 0, 66, 0
1, 56612, Note_on_c, 1, 60, 0
1, 56612, Note_on_c, 1, 57, 0
1, 56640, Note_on_c, 0, 75, 96
1, 56640, Note_on_c, 0, 66, 96
1, 56640, Note_on_c, 1, 60, 80
1, 56640, Note_on_c, 1, 57, 80
1, 56736, Note_on_c, 0, 75, 0
1, 56736, Note_on_c, 0, 66, 0
1, 56736, Note_on_c, 0, 76, 80
1, 56736, Note_on_c, 0, 64, 80
1, 56736, Note_on_c, 1, 60, 0
1, 56736, Note_on_c, 1, 57, 0
1, 56736, Note_on_c, 1, 59, 80
1, 56736, Note_on_c, 1, 56, 80
1, 56756, Note_on_c, 0, 76, 0
1, 56756, Note_on_c, 0, 64, 0
1, 56756, Note_on_c, 1, 59, 0
1, 56756, Note_on_c, 1, 56, 0
1, 56784, Note_on_c, 0, 56, 86
1, 56786, Note_on_c, 0, 59, 86
1, 56788, Note_on_c, 0, 64, 86
1, 56790, Note_on_c, 0, 71, 86
1, 56792, Note_on_c, 0, 74, 86
1, 56804, Note_on_c, 0, 74, 0
1, 56804, Note_on_c, 0, 71, 0
1, 56804, Note_on_c, 0, 64, 0
1, 56804, Note_on_c, 0, 59, 0
1, 56804, Note_on_c, 0, 56, 0
1, 56832, Note_on_c, 0, 57, 80
1, 56834, Note_on_c, 0, 61, 80
1, 56836, Note_on_c, 0, 64, 80
1, 56838, Note_on_c, 0, 69, 80
1, 56840, Note_on_c, 0, 73, 80
1, 56852, Note_on_c, 0, 73, 0
1, 56852, Note_on_c, 0, 69, 0
1, 56852, Note_on_c, 0, 64, 0
1, 56852, Note_on_c, 0, 61, 0
1, 56852, Note_on_c, 0, 57, 0
1, 56880, Note_on_c, 0, 59, 75
1, 56882, Note_on_c, 0, 62, 75
1, 56884, Note_on_c, 0, 64, 75
1, 56886, Note_on_c, 0, 68, 75
1, 56888, Note_on_c, 0, 71, 75
1, 56900, Note_on_c, 0, 71, 0
1, 56900, Note_on_c, 0, 68, 0
1, 56900, Note_on_c, 0, 64, 0
1, 56900, Note_on_c, 0, 62, 0
1, 56900, Note_on_c, 0, 59, 0
1, 56928, Note_on_c, 0, 68, 75
1, 56928, Note_on_c, 1, 64, 80
1, 56928, Note_on_c, 1, 61, 80
1, 56940, Note_on_c, 0, 68, 0
1, 56940, Note_on_c, 0, 69, 75
1, 56973, Note_on_c, 0, 69, 0
1, 56973, Note_on_c, 1, 64, 0
1, 56973, Note_on_c, 1, 61, 0
1, 56976, Note_on_c, 0, 73, 75
1, 56991, Note_on_c, 0, 73, 0
1, 56992, Note_on_c, 0, 69, 75
1, 57007, Note_on_c, 0, 69, 0
1, 57008, Note_on_c, 0, 66, 75
1, 57023, Note_on_c, 0, 66, 0
1, 57024, Note_on_c, 0, 68, 75
1, 57024, Note_on_c, 0, 64, 75
1, 57120, Note_on_c, 0, 64, 0
1, 57120, Note_on_c, 0, 71, 75
1, 57120, Note_on_c, 1, 47, 80
1, 57165, Note_on_c, 0, 71, 0
1, 57165, Note_on_c, 0, 68, 0
1, 57168, Note_on_c, 0, 63, 75
1, 57168, Note_on_c, 0, 57, 75
1, 57209, Note_on_c, 1, 47, 0
1, 57213, Note_on_c, 0, 63, 0
1, 57213, Note_on_c, 0, 57, 0
1, 57216, Note_on_c, 0, 64, 75
1, 57216, Note_on_c, 0, 56, 75
1, 57216, Note_on_c, 1, 52, 80
1, 57216, Note_on_c, 1, 40, 80
1, 57305, Note_on_c, 0, 64, 0
1, 57305, Note_on_c, 0, 56, 0
1, 57305, Note_on_c, 1, 52, 0
1, 57305, Note_on_c, 1, 40, 0
1, 57312, Note_on_c, 0, 64, 64
1, 57336, Note_on_c, 0, 64, 0
1, 57336, Note_on_c, 0, 63, 64
1, 57359, Note_on_c, 0, 63, 0
1, 57360, Note_on_c, 0, 64, 64
1, 57360, Note_on_c, 1, 56, 64
1, 57384, Note_on_c, 0, 64, 0
1, 57384, Note_on_c, 0, 68, 64
1, 57405, Note_on_c, 1, 56, 0
1, 57407, Note_on_c, 0, 68, 0
1, 57408, Note_on_c, 0, 68, 64
1, 57408, Note_on_c, 1, 57, 64
1, 57432, Note_on_c, 0, 68, 0
1, 57432, Note_on_c, 0, 61, 65
1, 57455, Note_on_c, 0, 61, 0
1, 57456, Note_on_c, 0, 61, 66
1, 57480, Note_on_c, 0, 61, 0
1, 57480, Note_on_c, 0, 69, 67
1, 57503, Note_on_c, 0, 69, 0
1, 57504, Note_on_c, 0, 69, 68
1, 57504, Note_on_c, 1, 57, 0
1, 57504, Note_on_c, 1, 59, 68
1, 57528, Note_on_c, 0, 69, 0
1, 57528, Note_on_c, 0, 63, 69
1, 57551, Note_on_c, 0, 63, 0
1, 57552, Note_on_c, 0, 63, 70
1, 57576, Note_on_c, 0, 63, 0
1, 57576, Note_on_c, 0, 71, 71
1, 57593, Note_on_c, 1, 59, 0
1, 57599, Note_on_c, 0, 71, 0
1, 57600, Note_on_c, 0, 69, 72
1, 57600, Note_on_c, 1, 61, 72
1, 57624, Note_on_c, 0, 69, 0
1, 57624, Note_on_c, 0, 68, 73
1, 57645, Note_on_c, 1, 61, 0
1, 57647, Note_on_c, 0, 68, 0
1, 57648, Note_on_c, 0, 76, 74
1, 57648, Note_on_c, 1, 68, 74
1, 57672, Note_on_c, 0, 76, 0
1, 57672, Note_on_c, 0, 75, 75
1, 57693, Note_on_c, 1, 68, 0
1, 57695, Note_on_c, 0, 75, 0
1, 57696, Note_on_c, 0, 75, 76
1, 57696, Note_on_c, 1, 66, 76
1, 57720, Note_on_c, 0, 75, 0
1, 57720, Note_on_c, 0, 73, 77
1, 57741, Note_on_c, 1, 66, 0
1, 57743, Note_on_c, 0, 73, 0
1, 57744, Note_on_c, 0, 73, 78
1, 57744, Note_on_c, 1, 64, 78
1, 57768, Note_on_c, 0, 73, 0
1, 57768, Note_on_c, 0, 71, 80
1, 57789, Note_on_c, 1, 64, 0
1, 57791, Note_on_c, 0, 71, 0
1, 57792, Note_on_c, 0, 71, 79
1, 57792, Note_on_c, 1, 63, 80
1, 57816, Note_on_c, 0, 71, 0
1, 57816, Note_on_c, 0, 69, 78
1, 57837, Note_on_c, 1, 63, 0
1, 57839, Note_on_c, 0, 69, 0
1, 57840, Note_on_c, 0, 69, 77
1, 57840, Note_on_c, 1, 61, 78
1, 57864, Note_on_c, 0, 69, 0
1, 57864, Note_on_c, 0, 68, 76
1, 57885, Note_on_c, 1, 61, 0
1, 57887, Note_on_c, 0, 68, 0
1, 57888, Note_on_c, 0, 68, 76
1, 57888, Note_on_c, 1, 59, 76
1, 57912, Note_on_c, 0, 68, 0
1, 57912, Note_on_c, 0, 66, 75
1, 57933, Note_on_c, 1, 59, 0
1, 57935, Note_on_c, 0, 66, 0
1, 57936, Note_on_c, 0, 66, 74
1, 57936, Note_on_c, 1, 57, 75
1, 57960, Note_on_c, 0, 66, 0
1, 57960, Note_on_c, 0, 64, 73
1, 57981, Note_on_c, 1, 57, 0
1, 57983, Note_on_c, 0, 64, 0
1, 57984, Note_on_c, 0, 64, 72
1, 57984, Note_on_c, 1, 56, 73
1, 58029, Note_on_c, 1, 56, 0
1, 58032, Note_on_c, 1, 58, 72
1, 58077, Note_on_c, 1, 58, 0
1, 58080, Note_on_c, 1, 59, 70
1, 58117, Note_on_c, 0, 64, 0
1, 58125, Note_on_c, 1, 59, 0
1, 58128, Note_on_c, 0, 68, 68
1, 58128, Note_on_c, 1, 47, 68
1, 58134, Note_on_c, 0, 68, 0
1, 58134, Note_on_c, 0, 66, 68
1, 58151, Note_on_c, 0, 66, 0
1, 58152, Note_on_c, 0, 64, 67
1, 58173, Note_on_c, 1, 47, 0
1, 58175, Note_on_c, 0, 64, 0
1, 58176, Note_on_c, 0, 64, 66
1, 58176, Note_on_c, 1, 49, 67
1, 58243, Note_on_c, 0, 64, 0
1, 58248, Note_on_c, 0, 69, 64
1, 58260, Note_on_c, 0, 69, 0
1, 58260, Note_on_c, 0, 73, 64
1, 58265, Note_on_c, 1, 49, 0
1, 58272, Note_on_c, 0, 73, 0
1, 58272, Note_on_c, 0, 76, 75
1, 58292, Note_on_c, 0, 76, 0
1, 58320, Note_on_c, 0, 76, 75
1, 58340, Note_on_c, 0, 76, 0
1, 58368, Note_on_c, 0, 76, 75
1, 58407, Note_on_c, 0, 76, 0
1, 58512, Note_on_c, 0, 73, 64
1, 58524, Note_on_c, 0, 73, 0
1, 58524, Note_on_c, 0, 69, 64
1, 58558, Note_on_c, 0, 69, 0
1, 58560, Note_on_c, 0, 71, 64
1, 58572, Note_on_c, 0, 71, 0
1, 58572, Note_on_c, 0, 68, 64
1, 58606, Note_on_c, 0, 68, 0
1, 58608, Note_on_c, 0, 69, 64
1, 58620, Note_on_c, 0, 69, 0
1, 58620, Note_on_c, 0, 66, 64
1, 58654, Note_on_c, 0, 66, 0
1, 58656, Note_on_c, 0, 68, 64
1, 58668, Note_on_c, 0, 68, 0
1, 58668, Note_on_c, 0, 64, 64
1, 58702, Note_on_c, 0, 64, 0
1, 58704, Note_on_c, 0, 63, 64
1, 58704, Note_on_c, 1, 47, 64
1, 58716, Note_on_c, 0, 63, 0
1, 58716, Note_on_c, 0, 57, 64
1, 58749, Note_on_c, 1, 47, 0
1, 58750, Note_on_c, 0, 57, 0
1, 58752, Note_on_c, 0, 64, 64
1, 58752, Note_on_c, 0, 56, 64
1, 58752, Note_on_c, 1, 52, 64
1, 58752, Note_on_c, 1, 40, 64
1, 58797, Note_on_c, 0, 64, 0
1, 58797, Note_on_c, 0, 56, 0
1, 58797, Note_on_c, 1, 52, 0
1, 58797, Note_on_c, 1, 40, 0
1, 58800, Note_on_c, 0, 63, 64
1, 58800, Note_on_c, 1, 47, 64
1, 58812, Note_on_c, 0, 63, 0
1, 58812, Note_on_c, 0, 57, 64
1, 58845, Note_on_c, 1, 47, 0
1, 58846, Note_on_c, 0, 57, 0
1, 58848, Note_on_c, 0, 64, 64
1, 58848, Note_on_c, 0, 56, 64
1, 58848, Note_on_c, 1, 52, 64
1, 58848, Note_on_c, 1, 40, 64
1, 58893, Note_on_c, 0, 64, 0
1, 58893, Note_on_c, 0, 56, 0
1, 58893, Note_on_c, 1, 52, 0
1, 58893, Note_on_c, 1, 40, 0
1, 58896, Note_on_c, 0, 63, 64
1, 58896, Note_on_c, 1, 47, 64
1, 58908, Note_on_c, 0, 63, 0
1, 58908, Note_on_c, 0, 57, 64
1, 58941, Note_on_c, 1, 47, 0
1, 58942, Note_on_c, 0, 57, 0
1, 58944, Note_on_c, 0, 64, 64
1, 58944, Note_on_c, 0, 56, 64
1, 58944, Note_on_c, 1, 52, 64
1, 58944, Note_on_c, 1, 40, 64
1, 59033, Note_on_c, 0, 64, 0
1, 59033, Note_on_c, 0, 56, 0
1, 59033, Note_on_c, 1, 52, 0
1, 59033, Note_on_c, 1, 40, 0
1, 59136, Note_on_c, 1, 40, 0
1, 59225, Note_on_c, 1, 40, 0
1, 59235, End_track
0, 0, End_of_file