0, 0, Header, 0, 1, 96
1, 0, Start_track
1, 0, Tempo, 394736
1, 144, Note_on_c, 0, 67, 64
1, 189, Note_on_c, 0, 67, 0
1, 192, Note_on_c, 0, 67, 64
1, 237, Note_on_c, 0, 67, 0
1, 240, Note_on_c, 0, 67, 64
1, 285, Note_on_c, 0, 67, 0
1, 288, Note_on_c, 0, 67, 64
1, 333, Note_on_c, 0, 67, 0
1, 336, Note_on_c, 0, 67, 64
1, 381, Note_on_c, 0, 67, 0
1, 384, Note_on_c, 0, 67, 64
1, 384, Note_on_c, 1, 39, 64
1, 384, Note_on_c, 1, 39, 64
1, 429, Note_on_c, 1, 39, 0
1, 432, Note_on_c, 1, 51, 64
1, 477, Note_on_c, 1, 51, 0
1, 480, Note_on_c, 0, 67, 0
1, 480, Note_on_c, 0, 70, 64
1, 480, Note_on_c, 1, 51, 64
1, 525, Note_on_c, 0, 70, 0
1, 525, Note_on_c, 1, 51, 0
1, 528, Note_on_c, 0, 63, 64
1, 528, Note_on_c, 1, 51, 64
1, 573, Note_on_c, 0, 63, 0
1, 573, Note_on_c, 1, 51, 0
1, 576, Note_on_c, 0, 62, 64
1, 576, Note_on_c, 1, 51, 64
1, 621, Note_on_c, 0, 62, 0
1, 621, Note_on_c, 1, 51, 0
1, 624, Note_on_c, 0, 65, 64
1, 624, Note_on_c, 1, 51, 64
1, 669, Note_on_c, 0, 65, 0
1, 669, Note_on_c, 1, 51, 0
1, 672, Note_on_c, 0, 68, 64
1, 672, Note_on_c, 1, 51, 64
1, 717, Note_on_c, 0, 68, 0
1, 717, Note_on_c, 1, 51, 0
1, 720, Note_on_c, 0, 62, 64
1, 720, Note_on_c, 1, 51, 64
1, 753, Note_on_c, 1, 39, 0
1, 765, Note_on_c, 0, 62, 0
1, 765, Note_on_c, 1, 51, 0
1, 768, Note_on_c, 0, 63, 64
1, 768, Note_on_c, 1, 39, 64
1, 813, Note_on_c, 0, 63, 0
1, 816, Note_on_c, 0, 67, 64
1, 816, Note_on_c, 1, 51, 64
1, 861, Note_on_c, 0, 67, 0
1, 861, Note_on_c, 1, 51, 0
1, 864, Note_on_c, 0, 58, 64
1, 864, Note_on_c, 1, 51, 64
1, 909, Note_on_c, 0, 58, 0
1, 909, Note_on_c, 1, 51, 0
1, 912, Note_on_c, 0, 58, 64
1, 912, Note_on_c, 1, 51, 64
1, 957, Note_on_c, 0, 58, 0
1, 957, Note_on_c, 1, 51, 0
1, 960, Note_on_c, 0, 56, 64
1, 960, Note_on_c, 1, 51, 64
1, 1005, Note_on_c, 0, 56, 0
1, 1005, Note_on_c, 1, 51, 0
1, 1008, Note_on_c, 0, 62, 64
1, 1008, Note_on_c, 1, 51, 64
1, 1053, Note_on_c, 0, 62, 0
1, 1053, Note_on_c, 1, 51, 0
1, 1056, Note_on_c, 0, 65, 64
1, 1056, Note_on_c, 1, 51, 64
1, 1101, Note_on_c, 0, 65, 0
1, 1101, Note_on_c, 1, 51, 0
1, 1104, Note_on_c, 0, 62, 64
1, 1104, Note_on_c, 1, 51, 64
1, 1137, Note_on_c, 1, 39, 0
1, 1149, Note_on_c, 0, 62, 0
1, 1149, Note_on_c, 1, 51, 0
1, 1152, Note_on_c, 0, 63, 64
1, 1152, Note_on_c, 1, 39, 64
1, 1197, Note_on_c, 0, 63, 0
1, 1200, Note_on_c, 0, 67, 64
1, 1200, Note_on_c, 1, 51, 64
1, 1245, Note_on_c, 0, 67, 0
1, 1245, Note_on_c, 1, 51, 0
1, 1248, Note_on_c, 0, 58, 64
1, 1248, Note_on_c, 1, 51, 64
1, 1293, Note_on_c, 0, 58, 0
1, 1293, Note_on_c, 1, 51, 0
1, 1296, Note_on_c, 0, 58, 64
1, 1296, Note_on_c, 1, 51, 64
1, 1341, Note_on_c, 0, 58, 0
1, 1341, Note_on_c, 1, 51, 0
1, 1344, Note_on_c, 0, 56, 64
1, 1344, Note_on_c, 1, 51, 64
1, 1389, Note_on_c, 0, 56, 0
1, 1389, Note_on_c, 1, 51, 0
1, 1392, Note_on_c, 0, 62, 64
1, 1392, Note_on_c, 1, 51, 64
1, 1437, Note_on_c, 0, 62, 0
1, 1437, Note_on_c, 1, 51, 0
1, 1440, Note_on_c, 0, 65, 64
1, 1440, Note_on_c, 1, 51, 64
1, 1485, Note_on_c, 0, 65, 0
1, 1485, Note_on_c, 1, 51, 0
1, 1488, Note_on_c, 0, 62, 64
1, 1488, Note_on_c, 1, 51, 64
1, 1521, Note_on_c, 1, 39, 0
1, 1533, Note_on_c, 0, 62, 0
1, 1533, Note_on_c, 1, 51, 0
1, 1536, Note_on_c, 0, 63, 64
1, 1536, Note_on_c, 1, 39, 64
1, 1625, Note_on_c, 0, 63, 0
1, 1625, Note_on_c, 1, 39, 0
1, 1680, Note_on_c, 0, 68, 64
1, 1725, Note_on_c, 0, 68, 0
1, 1728, Note_on_c, 0, 68, 64
1, 1773, Note_on_c, 0, 68, 0
1, 1776, Note_on_c, 0, 68, 64
1, 1821, Note_on_c, 0, 68, 0
1, 1824, Note_on_c, 0, 68, 64
1, 1869, Note_on_c, 0, 68, 0
1, 1872, Note_on_c, 0, 68, 64
1, 1917, Note_on_c, 0, 68, 0
1, 1920, Note_on_c, 0, 68, 64
1, 1920, Note_on_c, 1, 41, 64
1, 1968, Note_on_c, 1, 53, 64
1, 2013, Note_on_c, 1, 53, 0
1, 2016, Note_on_c, 0, 68, 0
1, 2016, Note_on_c, 0, 72, 64
1, 2016, Note_on_c, 1, 53, 64
1, 2061, Note_on_c, 0, 72, 0
1, 2061, Note_on_c, 1, 53, 0
1, 2064, Note_on_c, 0, 65, 64
1, 2064, Note_on_c, 1, 53, 64
1, 2109, Note_on_c, 0, 65, 0
1, 2109, Note_on_c, 1, 53, 0
1, 2112, Note_on_c, 0, 64, 64
1, 2112, Note_on_c, 1, 53, 64
1, 2157, Note_on_c, 0, 64, 0
1, 2157, Note_on_c, 1, 53, 0
1, 2160, Note_on_c, 0, 67, 64
1, 2160, Note_on_c, 1, 53, 64
1, 2205, Note_on_c, 0, 67, 0
1, 2205, Note_on_c, 1, 53, 0
1, 2208, Note_on_c, 0, 70, 64
1, 2208, Note_on_c, 1, 53, 64
1, 2253, Note_on_c, 0, 70, 0
1, 2253, Note_on_c, 1, 53, 0
1, 2256, Note_on_c, 0, 64, 64
1, 2256, Note_on_c, 1, 53, 64
1, 2289, Note_on_c, 1, 41, 0
1, 2301, Note_on_c, 0, 64, 0
1, 2301, Note_on_c, 1, 53, 0
1, 2304, Note_on_c, 0, 65, 64
1, 2304, Note_on_c, 1, 41, 64
1, 2349, Note_on_c, 0, 65, 0
1, 2352, Note_on_c, 0, 68, 64
1, 2352, Note_on_c, 1, 53, 64
1, 2397, Note_on_c, 0, 68, 0
1, 2397, Note_on_c, 1, 53, 0
1, 2400, Note_on_c, 0, 60, 64
1, 2400, Note_on_c, 1, 53, 64
1, 2445, Note_on_c, 0, 60, 0
1, 2445, Note_on_c, 1, 53, 0
1, 2448, Note_on_c, 0, 60, 64
1, 2448, Note_on_c, 1, 53, 64
1, 2493, Note_on_c, 0, 60, 0
1, 2493, Note_on_c, 1, 53, 0
1, 2496, Note_on_c, 0, 58, 64
1, 2496, Note_on_c, 1, 53, 64
1, 2541, Note_on_c, 0, 58, 0
1, 2541, Note_on_c, 1, 53, 0
1, 2544, Note_on_c, 0, 64, 64
1, 2544, Note_on_c, 1, 53, 64
1, 2589, Note_on_c, 0, 64, 0
1, 2589, Note_on_c, 1, 53, 0
1, 2592, Note_on_c, 0, 67, 64
1, 2592, Note_on_c, 1, 53, 64
1, 2637, Note_on_c, 0, 67, 0
1, 2637, Note_on_c, 1, 53, 0
1, 2640, Note_on_c, 0, 64, 64
1, 2640, Note_on_c, 1, 53, 64
1, 2673, Note_on_c, 1, 41, 0
1, 2685, Note_on_c, 0, 64, 0
1, 2685, Note_on_c, 1, 53, 0
1, 2688, Note_on_c, 0, 65, 64
1, 2688, Note_on_c, 1, 41, 64
1, 2733, Note_on_c, 0, 65, 0
1, 2736, Note_on_c, 0, 68, 64
1, 2736, Note_on_c, 1, 53, 64
1, 2781, Note_on_c, 0, 68, 0
1, 2781, Note_on_c, 1, 53, 0
1, 2784, Note_on_c, 0, 60, 64
1, 2784, Note_on_c, 1, 53, 64
1, 2829, Note_on_c, 0, 60, 0
1, 2829, Note_on_c, 1, 53, 0
1, 2832, Note_on_c, 0, 60, 64
1, 2832, Note_on_c, 1, 53, 64
1, 2877, Note_on_c, 0, 60, 0
1, 2877, Note_on_c, 1, 53, 0
1, 2880, Note_on_c, 0, 58, 64
1, 2880, Note_on_c, 1, 53, 64
1, 2925, Note_on_c, 0, 58, 0
1, 2925, Note_on_c, 1, 53, 0
1, 2928, Note_on_c, 0, 64, 64
1, 2928, Note_on_c, 1, 53, 64
1, 2973, Note_on_c, 0, 64, 0
1, 2973, Note_on_c, 1, 53, 0
1, 2976, Note_on_c, 0, 67, 64
1, 2976, Note_on_c, 1, 53, 64
1, 3021, Note_on_c, 0, 67, 0
1, 3021, Note_on_c, 1, 53, 0
1, 3024, Note_on_c, 0, 64, 64
1, 3024, Note_on_c, 1, 53, 64
1, 3057, Note_on_c, 1, 41, 0
1, 3069, Note_on_c, 0, 64, 0
1, 3069, Note_on_c, 1, 53, 0
1, 3072, Note_on_c, 0, 65, 64
1, 3072, Note_on_c, 1, 41, 64
1, 3161, Note_on_c, 0, 65, 0
1, 3161, Note_on_c, 1, 41, 0
1, 3216, Note_on_c, 1, 46, 80
1, 3216, Note_on_c, 1, 34, 80
1, 3261, Note_on_c, 1, 46, 0
1, 3261, Note_on_c, 1, 34, 0
1, 3264, Note_on_c, 1, 46, 80
1, 3264, Note_on_c, 1, 34, 80
1, 3309, Note_on_c, 1, 46, 0
1, 3309, Note_on_c, 1, 34, 0
1, 3312, Note_on_c, 1, 46, 80
1, 3312, Note_on_c, 1, 34, 80
1, 3357, Note_on_c, 1, 46, 0
1, 3357, Note_on_c, 1, 34, 0
1, 3360, Note_on_c, 1, 46, 80
1, 3360, Note_on_c, 1, 34, 80
1, 3405, Note_on_c, 1, 46, 0
1, 3405, Note_on_c, 1, 34, 0
1, 3408, Note_on_c, 0, 84, 80
1, 3408, Note_on_c, 1, 46, 80
1, 3408, Note_on_c, 1, 34, 80
1, 3431, Note_on_c, 0, 84, 0
1, 3432, Note_on_c, 0, 82, 80
1, 3453, Note_on_c, 1, 46, 0
1, 3453, Note_on_c, 1, 34, 0
1, 3455, Note_on_c, 0, 82, 0
1, 3456, Note_on_c, 0, 80, 80
1, 3456, Note_on_c, 1, 46, 80
1, 3456, Note_on_c, 1, 34, 80
1, 3479, Note_on_c, 0, 80, 0
1, 3480, Note_on_c, 0, 79, 80
1, 3503, Note_on_c, 0, 79, 0
1, 3504, Note_on_c, 0, 77, 80
1, 3527, Note_on_c, 0, 77, 0
1, 3528, Note_on_c, 0, 75, 80
1, 3545, Note_on_c, 1, 46, 0
1, 3545, Note_on_c, 1, 34, 0
1, 3551, Note_on_c, 0, 75, 0
1, 3552, Note_on_c, 0, 74, 80
1, 3552, Note_on_c, 1, 53, 80
1, 3575, Note_on_c, 0, 74, 0
1, 3576, Note_on_c, 0, 75, 79
1, 3597, Note_on_c, 1, 53, 0
1, 3599, Note_on_c, 0, 75, 0
1, 3600, Note_on_c, 0, 77, 78
1, 3600, Note_on_c, 1, 44, 78
1, 3623, Note_on_c, 0, 77, 0
1, 3624, Note_on_c, 0, 74, 77
1, 3645, Note_on_c, 1, 44, 0
1, 3647, Note_on_c, 0, 74, 0
1, 3648, Note_on_c, 0, 75, 76
1, 3648, Note_on_c, 1, 43, 76
1, 3671, Note_on_c, 0, 75, 0
1, 3672, Note_on_c, 0, 79, 75
1, 3693, Note_on_c, 1, 43, 0
1, 3695, Note_on_c, 0, 79, 0
1, 3696, Note_on_c, 0, 77, 75
1, 3696, Note_on_c, 1, 46, 75
1, 3719, Note_on_c, 0, 77, 0
1, 3720, Note_on_c, 0, 75, 74
1, 3741, Note_on_c, 1, 46, 0
1, 3743, Note_on_c, 0, 75, 0
1, 3744, Note_on_c, 0, 74, 73
1, 3744, Note_on_c, 1, 51, 73
1, 3767, Note_on_c, 0, 74, 0
1, 3768, Note_on_c, 0, 72, 72
1, 3789, Note_on_c, 1, 51, 0
1, 3791, Note_on_c, 0, 72, 0
1, 3792, Note_on_c, 0, 70, 71
1, 3792, Note_on_c, 1, 43, 71
1, 3815, Note_on_c, 0, 70, 0
1, 3816, Note_on_c, 0, 75, 70
1, 3837, Note_on_c, 1, 43, 0
1, 3839, Note_on_c, 0, 75, 0
1, 3840, Note_on_c, 0, 74, 70
1, 3840, Note_on_c, 1, 44, 70
1, 3863, Note_on_c, 0, 74, 0
1, 3864, Note_on_c, 0, 75, 70
1, 3885, Note_on_c, 1, 44, 0
1, 3887, Note_on_c, 0, 75, 0
1, 3888, Note_on_c, 0, 77, 70
1, 3888, Note_on_c, 1, 50, 70
1, 3911, Note_on_c, 0, 77, 0
1, 3912, Note_on_c, 0, 79, 70
1, 3933, Note_on_c, 1, 50, 0
1, 3935, Note_on_c, 0, 79, 0
1, 3936, Note_on_c, 0, 80, 70
1, 3936, Note_on_c, 1, 53, 70
1, 3959, Note_on_c, 0, 80, 0
1, 3960, Note_on_c, 0, 77, 70
1, 3981, Note_on_c, 1, 53, 0
1, 3983, Note_on_c, 0, 77, 0
1, 3984, Note_on_c, 0, 75, 70
1, 3984, Note_on_c, 1, 44, 70
1, 4007, Note_on_c, 0, 75, 0
1, 4008, Note_on_c, 0, 74, 70
1, 4029, Note_on_c, 1, 44, 0
1, 4031, Note_on_c, 0, 74, 0
1, 4032, Note_on_c, 0, 75, 70
1, 4032, Note_on_c, 1, 43, 70
1, 4055, Note_on_c, 0, 75, 0
1, 4056, Note_on_c, 0, 79, 70
1, 4077, Note_on_c, 1, 43, 0
1, 4079, Note_on_c, 0, 79, 0
1, 4080, Note_on_c, 0, 77, 70
1, 4080, Note_on_c, 1, 46, 70
1, 4103, Note_on_c, 0, 77, 0
1, 4104, Note_on_c, 0, 75, 70
1, 4125, Note_on_c, 1, 46, 0
1, 4127, Note_on_c, 0, 75, 0
1, 4128, Note_on_c, 0, 74, 70
1, 4128, Note_on_c, 1, 51, 70
1, 4151, Note_on_c, 0, 74, 0
1, 4152, Note_on_c, 0, 72, 70
1, 4173, Note_on_c, 1, 51, 0
1, 4175, Note_on_c, 0, 72, 0
1, 4176, Note_on_c, 0, 70, 70
1, 4176, Note_on_c, 1, 43, 70
1, 4199, Note_on_c, 0, 70, 0
1, 4200, Note_on_c, 0, 75, 70
1, 4221, Note_on_c, 1, 43, 0
1, 4223, Note_on_c, 0, 75, 0
1, 4224, Note_on_c, 0, 74, 70
1, 4224, Note_on_c, 1, 44, 70
1, 4247, Note_on_c, 0, 74, 0
1, 4248, Note_on_c, 0, 75, 70
1, 4269, Note_on_c, 1, 44, 0
1, 4271, Note_on_c, 0, 75, 0
1, 4272, Note_on_c, 0, 77, 70
1, 4272, Note_on_c, 1, 50, 70
1, 4295, Note_on_c, 0, 77, 0
1, 4296, Note_on_c, 0, 79, 71
1, 4317, Note_on_c, 1, 50, 0
1, 4319, Note_on_c, 0, 79, 0
1, 4320, Note_on_c, 0, 80, 71
1, 4320, Note_on_c, 1, 53, 71
1, 4343, Note_on_c, 0, 80, 0
1, 4344, Note_on_c, 0, 77, 72
1, 4365, Note_on_c, 1, 53, 0
1, 4367, Note_on_c, 0, 77, 0
1, 4368, Note_on_c, 0, 75, 72
1, 4368, Note_on_c, 1, 44, 72
1, 4391, Note_on_c, 0, 75, 0
1, 4392, Note_on_c, 0, 74, 72
1, 4413, Note_on_c, 1, 44, 0
1, 4415, Note_on_c, 0, 74, 0
1, 4416, Note_on_c, 0, 75, 73
1, 4416, Note_on_c, 1, 43, 73
1, 4439, Note_on_c, 0, 75, 0
1, 4440, Note_on_c, 0, 77, 73
1, 4461, Note_on_c, 1, 43, 0
1, 4463, Note_on_c, 0, 77, 0
1, 4464, Note_on_c, 0, 79, 74
1, 4464, Note_on_c, 1, 46, 73
1, 4487, Note_on_c, 0, 79, 0
1, 4488, Note_on_c, 0, 77, 74
1, 4509, Note_on_c, 1, 46, 0
1, 4511, Note_on_c, 0, 77, 0
1, 4512, Note_on_c, 0, 75, 74
1, 4512, Note_on_c, 1, 51, 74
1, 4535, Note_on_c, 0, 75, 0
1, 4536, Note_on_c, 0, 74, 75
1, 4557, Note_on_c, 1, 51, 0
1, 4559, Note_on_c, 0, 74, 0
1, 4560, Note_on_c, 0, 72, 75
1, 4560, Note_on_c, 1, 55, 75
1, 4583, Note_on_c, 0, 72, 0
1, 4584, Note_on_c, 0, 70, 76
1, 4605, Note_on_c, 1, 55, 0
1, 4607, Note_on_c, 0, 70, 0
1, 4608, Note_on_c, 0, 72, 76
1, 4608, Note_on_c, 1, 44, 76
1, 4631, Note_on_c, 0, 72, 0
1, 4632, Note_on_c, 0, 75, 76
1, 4653, Note_on_c, 1, 44, 0
1, 4655, Note_on_c, 0, 75, 0
1, 4656, Note_on_c, 0, 77, 77
1, 4656, Note_on_c, 1, 48, 76
1, 4679, Note_on_c, 0, 77, 0
1, 4680, Note_on_c, 0, 75, 77
1, 4701, Note_on_c, 1, 48, 0
1, 4703, Note_on_c, 0, 75, 0
1, 4704, Note_on_c, 0, 74, 78
1, 4704, Note_on_c, 1, 53, 77
1, 4727, Note_on_c, 0, 74, 0
1, 4728, Note_on_c, 0, 72, 78
1, 4749, Note_on_c, 1, 53, 0
1, 4751, Note_on_c, 0, 72, 0
1, 4752, Note_on_c, 0, 70, 78
1, 4752, Note_on_c, 1, 56, 78
1, 4775, Note_on_c, 0, 70, 0
1, 4776, Note_on_c, 0, 68, 79
1, 4797, Note_on_c, 1, 56, 0
1, 4799, Note_on_c, 0, 68, 0
1, 4800, Note_on_c, 0, 67, 79
1, 4800, Note_on_c, 1, 58, 79
1, 4823, Note_on_c, 0, 67, 0
1, 4824, Note_on_c, 0, 70, 80
1, 4845, Note_on_c, 1, 58, 0
1, 4847, Note_on_c, 0, 70, 0
1, 4848, Note_on_c, 0, 67, 80
1, 4848, Note_on_c, 1, 58, 80
1, 4871, Note_on_c, 0, 67, 0
1, 4872, Note_on_c, 0, 70, 80
1, 4893, Note_on_c, 1, 58, 0
1, 4895, Note_on_c, 0, 70, 0
1, 4896, Note_on_c, 0, 65, 80
1, 4896, Note_on_c, 1, 58, 80
1, 4919, Note_on_c, 0, 65, 0
1, 4920, Note_on_c, 0, 68, 80
1, 4941, Note_on_c, 1, 58, 0
1, 4943, Note_on_c, 0, 68, 0
1, 4944, Note_on_c, 0, 65, 80
1, 4944, Note_on_c, 1, 58, 80
1, 4967, Note_on_c, 0, 65, 0
1, 4968, Note_on_c, 0, 68, 80
1, 4989, Note_on_c, 1, 58, 0
1, 4991, Note_on_c, 0, 68, 0
1, 4992, Note_on_c, 0, 63, 80
1, 4992, Note_on_c, 1, 46, 80
1, 5015, Note_on_c, 0, 63, 0
1, 5016, Note_on_c, 0, 67, 80
1, 5037, Note_on_c, 1, 46, 0
1, 5039, Note_on_c, 0, 67, 0
1, 5040, Note_on_c, 0, 63, 80
1, 5040, Note_on_c, 1, 46, 80
1, 5063, Note_on_c, 0, 63, 0
1, 5064, Note_on_c, 0, 67, 80
1, 5085, Note_on_c, 1, 46, 0
1, 5087, Note_on_c, 0, 67, 0
1, 5088, Note_on_c, 0, 62, 80
1, 5088, Note_on_c, 1, 46, 80
1, 5111, Note_on_c, 0, 62, 0
1, 5112, Note_on_c, 0, 65, 80
1, 5133, Note_on_c, 1, 46, 0
1, 5135, Note_on_c, 0, 65, 0
1, 5136, Note_on_c, 0, 62, 80
1, 5136, Note_on_c, 1, 46, 80
1, 5159, Note_on_c, 0, 62, 0
1, 5160, Note_on_c, 0, 65, 80
1, 5181, Note_on_c, 1, 46, 0
1, 5183, Note_on_c, 0, 65, 0
1, 5184, Note_on_c, 0, 63, 80
1, 5184, Note_on_c, 1, 51, 80
1, 5207, Note_on_c, 0, 63, 0
1, 5208, Note_on_c, 0, 58, 80
1, 5229, Note_on_c, 1, 51, 0
1, 5231, Note_on_c, 0, 58, 0
1, 5232, Note_on_c, 0, 63, 80
1, 5232, Note_on_c, 1, 55, 80
1, 5255, Note_on_c, 0, 63, 0
1, 5256, Note_on_c, 0, 58, 80
1, 5277, Note_on_c, 1, 55, 0
1, 5279, Note_on_c, 0, 58, 0
1, 5280, Note_on_c, 0, 63, 80
1, 5280, Note_on_c, 1, 51, 80
1, 5303, Note_on_c, 0, 63, 0
1, 5304, Note_on_c, 0, 58, 80
1, 5325, Note_on_c, 1, 51, 0
1, 5327, Note_on_c, 0, 58, 0
1, 5328, Note_on_c, 0, 63, 80
1, 5328, Note_on_c, 1, 55, 80
1, 5351, Note_on_c, 0, 63, 0
1, 5352, Note_on_c, 0, 58, 80
1, 5373, Note_on_c, 1, 55, 0
1, 5375, Note_on_c, 0, 58, 0
1, 5376, Note_on_c, 0, 63, 80
1, 5376, Note_on_c, 1, 51, 80
1, 5465, Note_on_c, 0, 63, 0
1, 5465, Note_on_c, 1, 51, 0
1, 5520, Note_on_c, 0, 79, 64
1, 5565, Note_on_c, 0, 79, 0
1, 5568, Note_on_c, 0, 80, 64
1, 5613, Note_on_c, 0, 80, 0
1, 5616, Note_on_c, 0, 81, 64
1, 5661, Note_on_c, 0, 81, 0
1, 5664, Note_on_c, 0, 82, 64
1, 5709, Note_on_c, 0, 82, 0
1, 5712, Note_on_c, 0, 83, 64
1, 5757, Note_on_c, 0, 83, 0
1, 5760, Note_on_c, 0, 84, 64
1, 5760, Note_on_c, 1, 63, 64
1, 5808, Note_on_c, 0, 84, 0
1, 5808, Note_on_c, 0, 79, 64
1, 5808, Note_on_c, 1, 67, 64
1, 5853, Note_on_c, 0, 79, 0
1, 5853, Note_on_c, 1, 67, 0
1, 5856, Note_on_c, 1, 72, 64
1, 5901, Note_on_c, 1, 72, 0
1, 5904, Note_on_c, 0, 79, 64
1, 5904, Note_on_c, 1, 67, 64
1, 5937, Note_on_c, 1, 63, 0
1, 5949, Note_on_c, 0, 79, 0
1, 5949, Note_on_c, 1, 67, 0
1, 5952, Note_on_c, 0, 79, 64
1, 5952, Note_on_c, 1, 62, 64
1, 5997, Note_on_c, 0, 79, 0
1, 6000, Note_on_c, 0, 77, 64
1, 6000, Note_on_c, 1, 67, 64
1, 6045, Note_on_c, 0, 77, 0
1, 6045, Note_on_c, 1, 67, 0
1, 6048, Note_on_c, 0, 80, 64
1, 6048, Note_on_c, 1, 71, 64
1, 6093, Note_on_c, 0, 80, 0
1, 6093, Note_on_c, 1, 71, 0
1, 6096, Note_on_c, 0, 77, 64
1, 6096, Note_on_c, 1, 67, 64
1, 6129, Note_on_c, 1, 62, 0
1, 6141, Note_on_c, 0, 77, 0
1, 6141, Note_on_c, 1, 67, 0
1, 6144, Note_on_c, 0, 77, 64
1, 6144, Note_on_c, 1, 60, 64
1, 6192, Note_on_c, 0, 77, 0
1, 6192, Note_on_c, 0, 75, 64
1, 6192, Note_on_c, 1, 63, 64
1, 6237, Note_on_c, 0, 75, 0
1, 6237, Note_on_c, 1, 63, 0
1, 6240, Note_on_c, 1, 67, 64
1, 6285, Note_on_c, 1, 67, 0
1, 6288, Note_on_c, 0, 79, 64
1, 6288, Note_on_c, 1, 63, 64
1, 6321, Note_on_c, 1, 60, 0
1, 6333, Note_on_c, 0, 79, 0
1, 6333, Note_on_c, 1, 63, 0
1, 6336, Note_on_c, 0, 80, 66
1, 6336, Note_on_c, 1, 58, 64
1, 6381, Note_on_c, 0, 80, 0
1, 6384, Note_on_c, 0, 81, 69
1, 6384, Note_on_c, 1, 63, 69
1, 6429, Note_on_c, 0, 81, 0
1, 6429, Note_on_c, 1, 63, 0
1, 6432, Note_on_c, 0, 82, 72
1, 6432, Note_on_c, 1, 67, 72
1, 6477, Note_on_c, 0, 82, 0
1, 6477, Note_on_c, 1, 67, 0
1, 6480, Note_on_c, 0, 83, 74
1, 6480, Note_on_c, 1, 63, 74
1, 6513, Note_on_c, 1, 58, 0
1, 6525, Note_on_c, 0, 83, 0
1, 6525, Note_on_c, 1, 63, 0
1, 6528, Note_on_c, 0, 84, 77
1, 6528, Note_on_c, 1, 57, 72
1, 6573, Note_on_c, 0, 84, 0
1, 6576, Note_on_c, 0, 84, 80
1, 6576, Note_on_c, 1, 60, 80
1, 6588, Note_on_c, 0, 84, 0
1, 6588, Note_on_c, 0, 83, 80
1, 6600, Note_on_c, 0, 83, 0
1, 6600, Note_on_c, 0, 84, 80
1, 6612, Note_on_c, 0, 84, 0
1, 6612, Note_on_c, 0, 86, 80
1, 6621, Note_on_c, 1, 60, 0
1, 6624, Note_on_c, 0, 86, 0
1, 6624, Note_on_c, 0, 87, 80
1, 6624, Note_on_c, 1, 65, 80
1, 6669, Note_on_c, 1, 65, 0
1, 6672, Note_on_c, 1, 60, 80
1, 6705, Note_on_c, 1, 57, 0
1, 6717, Note_on_c, 1, 60, 0
1, 6720, Note_on_c, 1, 57, 80
1, 6743, Note_on_c, 0, 87, 0
1, 6744, Note_on_c, 0, 86, 80
1, 6767, Note_on_c, 0, 86, 0
1, 6768, Note_on_c, 0, 84, 80
1, 6768, Note_on_c, 1, 60, 80
1, 6791, Note_on_c, 0, 84, 0
1, 6792, Note_on_c, 0, 82, 80
1, 6813, Note_on_c, 1, 60, 0
1, 6815, Note_on_c, 0, 82, 0
1, 6816, Note_on_c, 0, 81, 80
1, 6816, Note_on_c, 1, 65, 80
1, 6839, Note_on_c, 0, 81, 0
1, 6840, Note_on_c, 0, 79, 80
1, 6861, Note_on_c, 1, 65, 0
1, 6863, Note_on_c, 0, 79, 0
1, 6864, Note_on_c, 0, 77, 80
1, 6864, Note_on_c, 1, 60, 80
1, 6887, Note_on_c, 0, 77, 0
1, 6888, Note_on_c, 0, 75, 80
1, 6897, Note_on_c, 1, 57, 0
1, 6909, Note_on_c, 1, 60, 0
1, 6911, Note_on_c, 0, 75, 0
1, 6912, Note_on_c, 0, 74, 80
1, 6912, Note_on_c, 1, 58, 80
1, 6932, Note_on_c, 0, 74, 0
1, 6957, Note_on_c, 1, 58, 0
1, 6960, Note_on_c, 0, 89, 96
1, 6960, Note_on_c, 1, 62, 80
1, 7005, Note_on_c, 1, 62, 0
1, 7008, Note_on_c, 1, 60, 80
1, 7053, Note_on_c, 1, 60, 0
1, 7056, Note_on_c, 0, 89, 0
1, 7056, Note_on_c, 0, 81, 80
1, 7056, Note_on_c, 1, 63, 80
1, 7101, Note_on_c, 1, 63, 0
1, 7104, Note_on_c, 1, 62, 80
1, 7149, Note_on_c, 0, 81, 0
1, 7149, Note_on_c, 1, 62, 0
1, 7152, Note_on_c, 0, 82, 80
1, 7152, Note_on_c, 1, 65, 80
1, 7197, Note_on_c, 1, 65, 0
1, 7200, Note_on_c, 1, 50, 80
1, 7241, Note_on_c, 0, 82, 0
1, 7245, Note_on_c, 1, 50, 0
1, 7248, Note_on_c, 0, 80, 80
1, 7248, Note_on_c, 1, 58, 80
1, 7293, Note_on_c, 1, 58, 0
1, 7296, Note_on_c, 1, 51, 80
1, 7341, Note_on_c, 0, 80, 0
1, 7341, Note_on_c, 1, 51, 0
1, 7344, Note_on_c, 0, 79, 80
1, 7344, Note_on_c, 1, 58, 80
1, 7389, Note_on_c, 1, 58, 0
1, 7392, Note_on_c, 1, 53, 80
1, 7433, Note_on_c, 0, 79, 0
1, 7437, Note_on_c, 1, 53, 0
1, 7440, Note_on_c, 0, 77, 80
1, 7440, Note_on_c, 1, 58, 80
1, 7485, Note_on_c, 1, 58, 0
1, 7488, Note_on_c, 1, 55, 80
1, 7533, Note_on_c, 0, 77, 0
1, 7533, Note_on_c, 1, 55, 0
1, 7536, Note_on_c, 0, 76, 80
1, 7536, Note_on_c, 1, 58, 80
1, 7581, Note_on_c, 1, 58, 0
1, 7584, Note_on_c, 1, 54, 80
1, 7625, Note_on_c, 0, 76, 0
1, 7629, Note_on_c, 1, 54, 0
1, 7632, Note_on_c, 0, 75, 80
1, 7632, Note_on_c, 1, 58, 80
1, 7677, Note_on_c, 1, 58, 0
1, 7680, Note_on_c, 1, 53, 80
1, 7725, Note_on_c, 0, 75, 0
1, 7725, Note_on_c, 1, 53, 0
1, 7728, Note_on_c, 0, 74, 78
1, 7728, Note_on_c, 1, 58, 78
1, 7773, Note_on_c, 1, 58, 0
1, 7776, Note_on_c, 1, 52, 77
1, 7817, Note_on_c, 0, 74, 0
1, 7821, Note_on_c, 1, 52, 0
1, 7824, Note_on_c, 0, 73, 76
1, 7824, Note_on_c, 1, 58, 76
1, 7869, Note_on_c, 1, 58, 0
1, 7872, Note_on_c, 1, 52, 75
1, 7917, Note_on_c, 0, 73, 0
1, 7917, Note_on_c, 1, 52, 0
1, 7920, Note_on_c, 0, 72, 73
1, 7920, Note_on_c, 1, 60, 74
1, 7965, Note_on_c, 1, 60, 0
1, 7968, Note_on_c, 1, 52, 73
1, 8009, Note_on_c, 0, 72, 0
1, 8013, Note_on_c, 1, 52, 0
1, 8016, Note_on_c, 0, 70, 71
1, 8016, Note_on_c, 1, 61, 72
1, 8061, Note_on_c, 1, 61, 0
1, 8064, Note_on_c, 1, 53, 70
1, 8109, Note_on_c, 0, 70, 0
1, 8109, Note_on_c, 1, 53, 0
1, 8112, Note_on_c, 0, 69, 68
1, 8112, Note_on_c, 1, 60, 69
1, 8157, Note_on_c, 1, 60, 0
1, 8160, Note_on_c, 1, 52, 68
1, 8201, Note_on_c, 0, 69, 0
1, 8205, Note_on_c, 1, 52, 0
1, 8208, Note_on_c, 0, 70, 66
1, 8208, Note_on_c, 1, 61, 67
1, 8253, Note_on_c, 0, 70, 0
1, 8253, Note_on_c, 1, 61, 0
1, 8256, Note_on_c, 0, 69, 65
1, 8256, Note_on_c, 1, 60, 66
1, 8256, Note_on_c, 1, 53, 66
1, 8301, Note_on_c, 0, 69, 0
1, 8304, Note_on_c, 0, 77, 64
1, 8345, Note_on_c, 1, 60, 0
1, 8345, Note_on_c, 1, 53, 0
1, 8349, Note_on_c, 0, 77, 0
1, 8352, Note_on_c, 0, 77, 64
1, 8397, Note_on_c, 0, 77, 0
1, 8400, Note_on_c, 0, 77, 80
1, 8445, Note_on_c, 0, 77, 0
1, 8448, Note_on_c, 0, 77, 64
1, 8493, Note_on_c, 0, 77, 0
1, 8496, Note_on_c, 0, 77, 64
1, 8541, Note_on_c, 0, 77, 0
1, 8544, Note_on_c, 0, 77, 64
1, 8589, Note_on_c, 0, 77, 0
1, 8592, Note_on_c, 0, 77, 80
1, 8592, Note_on_c, 0, 76, 80
1, 8637, Note_on_c, 0, 77, 0
1, 8637, Note_on_c, 0, 76, 0
1, 8640, Note_on_c, 0, 77, 64
1, 8640, Note_on_c, 0, 76, 64
1, 8685, Note_on_c, 0, 77, 0
1, 8685, Note_on_c, 0, 76, 0
1, 8688, Note_on_c, 0, 77, 64
1, 8688, Note_on_c, 0, 76, 64
1, 8733, Note_on_c, 0, 77, 0
1, 8733, Note_on_c, 0, 76, 0
1, 8736, Note_on_c, 0, 77, 64
1, 8736, Note_on_c, 0, 76, 64
1, 8781, Note_on_c, 0, 77, 0
1, 8781, Note_on_c, 0, 76, 0
1, 8784, Note_on_c, 0, 77, 80
1, 8784, Note_on_c, 0, 75, 80
1, 8784, Note_on_c, 1, 65, 80
1, 8829, Note_on_c, 0, 77, 0
1, 8829, Note_on_c, 0, 75, 0
1, 8829, Note_on_c, 1, 65, 0
1, 8832, Note_on_c, 0, 77, 64
1, 8832, Note_on_c, 0, 75, 64
1, 8832, Note_on_c, 1, 66, 64
1, 8877, Note_on_c, 0, 77, 0
1, 8877, Note_on_c, 0, 75, 0
1, 8877, Note_on_c, 1, 66, 0
1, 8880, Note_on_c, 0, 77, 64
1, 8880, Note_on_c, 0, 75, 64
1, 8880, Note_on_c, 1, 67, 64
1, 8925, Note_on_c, 0, 77, 0
1, 8925, Note_on_c, 0, 75, 0
1, 8925, Note_on_c, 1, 67, 0
1, 8928, Note_on_c, 0, 77, 64
1, 8928, Note_on_c, 0, 75, 64
1, 8928, Note_on_c, 1, 68, 64
1, 8973, Note_on_c, 0, 77, 0
1, 8973, Note_on_c, 0, 75, 0
1, 8973, Note_on_c, 1, 68, 0
1, 8976, Note_on_c, 0, 77, 80
1, 8976, Note_on_c, 0, 75, 80
1, 8976, Note_on_c, 1, 69, 80
1, 9021, Note_on_c, 0, 77, 0
1, 9021, Note_on_c, 0, 75, 0
1, 9021, Note_on_c, 1, 69, 0
1, 9024, Note_on_c, 0, 77, 64
1, 9024, Note_on_c, 0, 74, 64
1, 9024, Note_on_c, 1, 70, 64
1, 9069, Note_on_c, 0, 77, 0
1, 9069, Note_on_c, 0, 74, 0
1, 9072, Note_on_c, 0, 77, 64
1, 9072, Note_on_c, 0, 74, 64
1, 9117, Note_on_c, 0, 77, 0
1, 9117, Note_on_c, 0, 74, 0
1, 9120, Note_on_c, 0, 77, 64
1, 9120, Note_on_c, 0, 74, 64
1, 9157, Note_on_c, 1, 70, 0
1, 9165, Note_on_c, 0, 77, 0
1, 9165, Note_on_c, 0, 74, 0
1, 9168, Note_on_c, 0, 89, 86
1, 9168, Note_on_c, 0, 86, 86
1, 9168, Note_on_c, 0, 82, 86
1, 9168, Note_on_c, 0, 77, 86
1, 9168, Note_on_c, 1, 65, 86
1, 9168, Note_on_c, 1, 62, 86
1, 9168, Note_on_c, 1, 58, 86
1, 9213, Note_on_c, 0, 89, 0
1, 9213, Note_on_c, 0, 86, 0
1, 9213, Note_on_c, 0, 82, 0
1, 9213, Note_on_c, 0, 77, 0
1, 9213, Note_on_c, 1, 65, 0
1, 9213, Note_on_c, 1, 62, 0
1, 9213, Note_on_c, 1, 58, 0
1, 9216, Note_on_c, 0, 89, 86
1, 9216, Note_on_c, 0, 86, 86
1, 9216, Note_on_c, 0, 82, 86
1, 9216, Note_on_c, 0, 77, 86
1, 9216, Note_on_c, 1, 65, 86
1, 9216, Note_on_c, 1, 62, 86
1, 9216, Note_on_c, 1, 58, 86
1, 9261, Note_on_c, 0, 89, 0
1, 9261, Note_on_c, 0, 86, 0
1, 9261, Note_on_c, 0, 82, 0
1, 9261, Note_on_c, 0, 77, 0
1, 9261, Note_on_c, 1, 65, 0
1, 9261, Note_on_c, 1, 62, 0
1, 9261, Note_on_c, 1, 58, 0
1, 9264, Note_on_c, 0, 89, 86
1, 9264, Note_on_c, 0, 86, 86
1, 9264, Note_on_c, 0, 82, 86
1, 9264, Note_on_c, 0, 77, 86
1, 9264, Note_on_c, 1, 65, 86
1, 9264, Note_on_c, 1, 62, 86
1, 9264, Note_on_c, 1, 58, 86
1, 9309, Note_on_c, 0, 89, 0
1, 9309, Note_on_c, 0, 86, 0
1, 9309, Note_on_c, 0, 82, 0
1, 9309, Note_on_c, 0, 77, 0
1, 9309, Note_on_c, 1, 65, 0
1, 9309, Note_on_c, 1, 62, 0
1, 9309, Note_on_c, 1, 58, 0
1, 9312, Note_on_c, 0, 89, 86
1, 9312, Note_on_c, 0, 86, 86
1, 9312, Note_on_c, 0, 82, 86
1, 9312, Note_on_c, 0, 77, 86
1, 9312, Note_on_c, 1, 65, 86
1, 9312, Note_on_c, 1, 62, 86
1, 9312, Note_on_c, 1, 58, 86
1, 9357, Note_on_c, 0, 89, 0
1, 9357, Note_on_c, 0, 86, 0
1, 9357, Note_on_c, 0, 82, 0
1, 9357, Note_on_c, 0, 77, 0
1, 9357, Note_on_c, 1, 65, 0
1, 9357, Note_on_c, 1, 62, 0
1, 9357, Note_on_c, 1, 58, 0
1, 9360, Note_on_c, 0, 89, 86
1, 9360, Note_on_c, 0, 86, 86
1, 9360, Note_on_c, 0, 82, 86
1, 9360, Note_on_c, 0, 77, 86
1, 9360, Note_on_c, 1, 65, 86
1, 9360, Note_on_c, 1, 62, 86
1, 9360, Note_on_c, 1, 58, 86
1, 9405, Note_on_c, 0, 89, 0
1, 9405, Note_on_c, 0, 86, 0
1, 9405, Note_on_c, 0, 82, 0
1, 9405, Note_on_c, 0, 77, 0
1, 9405, Note_on_c, 1, 65, 0
1, 9405, Note_on_c, 1, 62, 0
1, 9405, Note_on_c, 1, 58, 0
1, 9408, Note_on_c, 0, 81, 102
1, 9408, Note_on_c, 0, 75, 102
1, 9408, Note_on_c, 1, 60, 102
1, 9408, Note_on_c, 1, 53, 102
1, 9504, Note_on_c, 0, 81, 0
1, 9504, Note_on_c, 0, 75, 0
1, 9504, Note_on_c, 0, 82, 86
1, 9504, Note_on_c, 0, 74, 86
1, 9504, Note_on_c, 1, 60, 0
1, 9504, Note_on_c, 1, 53, 0
1, 9504, Note_on_c, 1, 62, 86
1, 9504, Note_on_c, 1, 58, 86
1, 9549, Note_on_c, 0, 82, 0
1, 9549, Note_on_c, 0, 74, 0
1, 9549, Note_on_c, 1, 62, 0
1, 9549, Note_on_c, 1, 58, 0
1, 9552, Note_on_c, 0, 77, 86
1, 9552, Note_on_c, 0, 74, 86
1, 9552, Note_on_c, 1, 62, 86
1, 9552, Note_on_c, 1, 58, 86
1, 9597, Note_on_c, 0, 77, 0
1, 9597, Note_on_c, 0, 74, 0
1, 9597, Note_on_c, 1, 62, 0
1, 9597, Note_on_c, 1, 58, 0
1, 9600, Note_on_c, 0, 81, 102
1, 9600, Note_on_c, 0, 75, 102
1, 9600, Note_on_c, 1, 60, 102
1, 9600, Note_on_c, 1, 53, 102
1, 9696, Note_on_c, 0, 81, 0
1, 9696, Note_on_c, 0, 75, 0
1, 9696, Note_on_c, 0, 82, 86
1, 9696, Note_on_c, 0, 74, 86
1, 9696, Note_on_c, 1, 60, 0
1, 9696, Note_on_c, 1, 53, 0
1, 9696, Note_on_c, 1, 62, 86
1, 9696, Note_on_c, 1, 58, 86
1, 9741, Note_on_c, 0, 82, 0
1, 9741, Note_on_c, 0, 74, 0
1, 9741, Note_on_c, 1, 62, 0
1, 9741, Note_on_c, 1, 58, 0
1, 9744, Note_on_c, 0, 77, 86
1, 9744, Note_on_c, 0, 74, 86
1, 9744, Note_on_c, 1, 62, 86
1, 9744, Note_on_c, 1, 58, 86
1, 9789, Note_on_c, 0, 77, 0
1, 9789, Note_on_c, 0, 74, 0
1, 9789, Note_on_c, 1, 62, 0
1, 9789, Note_on_c, 1, 58, 0
1, 9792, Note_on_c, 0, 81, 102
1, 9792, Note_on_c, 0, 75, 102
1, 9792, Note_on_c, 1, 60, 102
1, 9792, Note_on_c, 1, 53, 102
1, 9888, Note_on_c, 0, 81, 0
1, 9888, Note_on_c, 0, 75, 0
1, 9888, Note_on_c, 0, 82, 86
1, 9888, Note_on_c, 0, 74, 86
1, 9888, Note_on_c, 1, 60, 0
1, 9888, Note_on_c, 1, 53, 0
1, 9888, Note_on_c, 1, 62, 86
1, 9888, Note_on_c, 1, 58, 86
1, 9933, Note_on_c, 0, 82, 0
1, 9933, Note_on_c, 0, 74, 0
1, 9933, Note_on_c, 1, 62, 0
1, 9933, Note_on_c, 1, 58, 0
1, 9936, Note_on_c, 0, 83, 86
1, 9936, Note_on_c, 0, 74, 86
1, 9936, Note_on_c, 1, 65, 86
1, 9936, Note_on_c, 1, 56, 86
1, 9981, Note_on_c, 0, 83, 0
1, 9981, Note_on_c, 0, 74, 0
1, 9981, Note_on_c, 1, 65, 0
1, 9981, Note_on_c, 1, 56, 0
1, 9984, Note_on_c, 0, 83, 86
1, 9984, Note_on_c, 0, 74, 86
1, 9984, Note_on_c, 1, 65, 86
1, 9984, Note_on_c, 1, 56, 86
1, 10161, Note_on_c, 0, 83, 0
1, 10161, Note_on_c, 0, 74, 0
1, 10176, Note_on_c, 0, 84, 86
1, 10176, Note_on_c, 0, 72, 64
1, 10176, Note_on_c, 1, 65, 0
1, 10176, Note_on_c, 1, 63, 80
1, 10265, Note_on_c, 0, 84, 0
1, 10265, Note_on_c, 1, 56, 0
1, 10272, Note_on_c, 0, 82, 86
1, 10272, Note_on_c, 1, 54, 86
1, 10361, Note_on_c, 0, 82, 0
1, 10361, Note_on_c, 1, 54, 0
1, 10368, Note_on_c, 0, 81, 86
1, 10368, Note_on_c, 1, 53, 86
1, 10560, Note_on_c, 0, 81, 0
1, 10560, Note_on_c, 0, 82, 70
1, 10560, Note_on_c, 0, 72, 0
1, 10560, Note_on_c, 0, 70, 70
1, 10560, Note_on_c, 1, 53, 0
1, 10560, Note_on_c, 1, 55, 70
1, 10560, Note_on_c, 1, 63, 0
1, 10560, Note_on_c, 1, 62, 80
1, 10627, Note_on_c, 0, 82, 0
1, 10627, Note_on_c, 0, 70, 0
1, 10627, Note_on_c, 1, 55, 0
1, 10627, Note_on_c, 1, 62, 0
1, 10656, Note_on_c, 0, 78, 70
1, 10656, Note_on_c, 0, 70, 64
1, 10656, Note_on_c, 1, 74, 70
1, 10745, Note_on_c, 0, 78, 0
1, 10745, Note_on_c, 0, 70, 0
1, 10745, Note_on_c, 1, 74, 0
1, 10752, Note_on_c, 0, 78, 70
1, 10752, Note_on_c, 0, 70, 64
1, 10752, Note_on_c, 1, 74, 70
1, 10929, Note_on_c, 1, 74, 0
1, 10944, Note_on_c, 0, 78, 0
1, 10944, Note_on_c, 0, 79, 70
1, 10944, Note_on_c, 1, 75, 70
1, 11033, Note_on_c, 0, 79, 0
1, 11033, Note_on_c, 0, 70, 0
1, 11033, Note_on_c, 1, 75, 0
1, 11040, Note_on_c, 0, 79, 80
1, 11040, Note_on_c, 0, 71, 80
1, 11040, Note_on_c, 1, 51, 80
1, 11129, Note_on_c, 0, 79, 0
1, 11129, Note_on_c, 0, 71, 0
1, 11129, Note_on_c, 1, 51, 0
1, 11136, Note_on_c, 0, 79, 80
1, 11136, Note_on_c, 0, 71, 80
1, 11136, Note_on_c, 1, 63, 80
1, 11136, Note_on_c, 1, 51, 80
1, 11328, Note_on_c, 0, 71, 0
1, 11328, Note_on_c, 0, 74, 80
1, 11373, Note_on_c, 0, 74, 0
1, 11376, Note_on_c, 0, 72, 80
1, 11421, Note_on_c, 0, 72, 0
1, 11424, Note_on_c, 0, 75, 80
1, 11469, Note_on_c, 0, 75, 0
1, 11472, Note_on_c, 0, 74, 80
1, 11517, Note_on_c, 0, 74, 0
1, 11520, Note_on_c, 0, 77, 80
1, 11565, Note_on_c, 0, 77, 0
1, 11568, Note_on_c, 0, 75, 80
1, 11609, Note_on_c, 0, 79, 0
1, 11613, Note_on_c, 0, 75, 0
1, 11616, Note_on_c, 0, 80, 80
1, 11616, Note_on_c, 0, 77, 80
1, 11661, Note_on_c, 0, 80, 0
1, 11661, Note_on_c, 0, 77, 0
1, 11664, Note_on_c, 0, 79, 80
1, 11664, Note_on_c, 0, 75, 80
1, 11709, Note_on_c, 0, 79, 0
1, 11709, Note_on_c, 0, 75, 0
1, 11712, Note_on_c, 0, 78, 96
1, 11712, Note_on_c, 0, 74, 96
1, 11760, Note_on_c, 0, 78, 0
1, 11760, Note_on_c, 0, 74, 0
1, 11760, Note_on_c, 0, 79, 80
1, 11760, Note_on_c, 0, 75, 80
1, 11805, Note_on_c, 0, 79, 0
1, 11805, Note_on_c, 0, 75, 0
1, 11808, Note_on_c, 0, 77, 80
1, 11808, Note_on_c, 0, 74, 80
1, 11853, Note_on_c, 0, 77, 0
1, 11853, Note_on_c, 0, 74, 0
1, 11856, Note_on_c, 0, 75, 80
1, 11856, Note_on_c, 0, 72, 80
1, 11889, Note_on_c, 1, 63, 0
1, 11889, Note_on_c, 1, 51, 0
1, 11901, Note_on_c, 0, 75, 0
1, 11901, Note_on_c, 0, 72, 0
1, 11904, Note_on_c, 0, 74, 80
1, 11904, Note_on_c, 0, 70, 80
1, 11904, Note_on_c, 1, 65, 80
1, 11904, Note_on_c, 1, 53, 80
1, 12037, Note_on_c, 0, 74, 0
1, 12037, Note_on_c, 0, 70, 0
1, 12048, Note_on_c, 0, 77, 80
1, 12048, Note_on_c, 0, 74, 80
1, 12081, Note_on_c, 1, 65, 0
1, 12081, Note_on_c, 1, 53, 0
1, 12093, Note_on_c, 0, 77, 0
1, 12093, Note_on_c, 0, 74, 0
1, 12096, Note_on_c, 0, 77, 80
1, 12096, Note_on_c, 0, 74, 80
1, 12096, Note_on_c, 1, 53, 80
1, 12096, Note_on_c, 1, 41, 80
1, 12141, Note_on_c, 0, 77, 0
1, 12141, Note_on_c, 0, 74, 0
1, 12144, Note_on_c, 0, 75, 80
1, 12144, Note_on_c, 0, 72, 80
1, 12189, Note_on_c, 0, 75, 0
1, 12189, Note_on_c, 0, 72, 0
1, 12192, Note_on_c, 0, 74, 80
1, 12192, Note_on_c, 0, 70, 80
1, 12237, Note_on_c, 0, 74, 0
1, 12237, Note_on_c, 0, 70, 0
1, 12240, Note_on_c, 0, 72, 80
1, 12240, Note_on_c, 0, 69, 80
1, 12273, Note_on_c, 1, 53, 0
1, 12273, Note_on_c, 1, 41, 0
1, 12285, Note_on_c, 0, 72, 0
1, 12285, Note_on_c, 0, 69, 0
1, 12288, Note_on_c, 0, 70, 80
1, 12311, Note_on_c, 0, 70, 0
1, 12312, Note_on_c, 0, 77, 79
1, 12335, Note_on_c, 0, 77, 0
1, 12336, Note_on_c, 0, 74, 78
1, 12359, Note_on_c, 0, 74, 0
1, 12360, Note_on_c, 0, 70, 77
1, 12383, Note_on_c, 0, 70, 0
1, 12384, Note_on_c, 0, 65, 76
1, 12407, Note_on_c, 0, 65, 0
1, 12408, Note_on_c, 0, 62, 75
1, 12431, Note_on_c, 0, 62, 0
1, 12432, Note_on_c, 0, 58, 74
1, 12455, Note_on_c, 0, 58, 0
1, 12456, Note_on_c, 0, 62, 73
1, 12479, Note_on_c, 0, 62, 0
1, 12480, Note_on_c, 0, 69, 72
1, 12503, Note_on_c, 0, 69, 0
1, 12504, Note_on_c, 0, 77, 71
1, 12527, Note_on_c, 0, 77, 0
1, 12528, Note_on_c, 0, 75, 70
1, 12551, Note_on_c, 0, 75, 0
1, 12552, Note_on_c, 0, 72, 69
1, 12575, Note_on_c, 0, 72, 0
1, 12576, Note_on_c, 0, 69, 68
1, 12599, Note_on_c, 0, 69, 0
1, 12600, Note_on_c, 0, 65, 67
1, 12623, Note_on_c, 0, 65, 0
1, 12624, Note_on_c, 0, 60, 66
1, 12647, Note_on_c, 0, 60, 0
1, 12648, Note_on_c, 0, 63, 65
1, 12671, Note_on_c, 0, 63, 0
1, 12672, Note_on_c, 0, 70, 64
1, 12695, Note_on_c, 0, 70, 0
1, 12696, Note_on_c, 0, 77, 64
1, 12719, Note_on_c, 0, 77, 0
1, 12720, Note_on_c, 0, 74, 64
1, 12743, Note_on_c, 0, 74, 0
1, 12744, Note_on_c, 0, 70, 64
1, 12767, Note_on_c, 0, 70, 0
1, 12768, Note_on_c, 0, 65, 64
1, 12791, Note_on_c, 0, 65, 0
1, 12792, Note_on_c, 0, 62, 64
1, 12815, Note_on_c, 0, 62, 0
1, 12816, Note_on_c, 0, 58, 64
1, 12839, Note_on_c, 0, 58, 0
1, 12840, Note_on_c, 0, 62, 64
1, 12863, Note_on_c, 0, 62, 0
1, 12864, Note_on_c, 0, 69, 64
1, 12887, Note_on_c, 0, 69, 0
1, 12888, Note_on_c, 0, 77, 64
1, 12911, Note_on_c, 0, 77, 0
1, 12912, Note_on_c, 0, 75, 64
1, 12935, Note_on_c, 0, 75, 0
1, 12936, Note_on_c, 0, 72, 64
1, 12959, Note_on_c, 0, 72, 0
1, 12960, Note_on_c, 0, 69, 64
1, 12983, Note_on_c, 0, 69, 0
1, 12984, Note_on_c, 0, 65, 64
1, 13007, Note_on_c, 0, 65, 0
1, 13008, Note_on_c, 0, 60, 64
1, 13031, Note_on_c, 0, 60, 0
1, 13032, Note_on_c, 0, 63, 64
1, 13055, Note_on_c, 0, 63, 0
1, 13056, Note_on_c, 0, 77, 64
1, 13079, Note_on_c, 0, 77, 0
1, 13080, Note_on_c, 0, 74, 64
1, 13103, Note_on_c, 0, 74, 0
1, 13104, Note_on_c, 0, 62, 65
1, 13127, Note_on_c, 0, 62, 0
1, 13128, Note_on_c, 0, 70, 66
1, 13151, Note_on_c, 0, 70, 0
1, 13152, Note_on_c, 0, 79, 67
1, 13175, Note_on_c, 0, 79, 0
1, 13176, Note_on_c, 0, 70, 68
1, 13199, Note_on_c, 0, 70, 0
1, 13200, Note_on_c, 0, 63, 69
1, 13223, Note_on_c, 0, 63, 0
1, 13224, Note_on_c, 0, 70, 69
1, 13247, Note_on_c, 0, 70, 0
1, 13248, Note_on_c, 0, 81, 70
1, 13271, Note_on_c, 0, 81, 0
1, 13272, Note_on_c, 0, 70, 71
1, 13295, Note_on_c, 0, 70, 0
1, 13296, Note_on_c, 0, 65, 72
1, 13319, Note_on_c, 0, 65, 0
1, 13320, Note_on_c, 0, 70, 73
1, 13343, Note_on_c, 0, 70, 0
1, 13344, Note_on_c, 0, 82, 74
1, 13367, Note_on_c, 0, 82, 0
1, 13368, Note_on_c, 0, 70, 75
1, 13391, Note_on_c, 0, 70, 0
1, 13392, Note_on_c, 0, 67, 75
1, 13415, Note_on_c, 0, 67, 0
1, 13416, Note_on_c, 0, 70, 75
1, 13439, Note_on_c, 0, 70, 0
1, 13440, Note_on_c, 0, 77, 75
1, 13463, Note_on_c, 0, 77, 0
1, 13464, Note_on_c, 0, 74, 75
1, 13487, Note_on_c, 0, 74, 0
1, 13488, Note_on_c, 0, 62, 75
1, 13511, Note_on_c, 0, 62, 0
1, 13512, Note_on_c, 0, 70, 76
1, 13535, Note_on_c, 0, 70, 0
1, 13536, Note_on_c, 0, 79, 76
1, 13559, Note_on_c, 0, 79, 0
1, 13560, Note_on_c, 0, 70, 77
1, 13583, Note_on_c, 0, 70, 0
1, 13584, Note_on_c, 0, 63, 77
1, 13607, Note_on_c, 0, 63, 0
1, 13608, Note_on_c, 0, 70, 78
1, 13631, Note_on_c, 0, 70, 0
1, 13632, Note_on_c, 0, 81, 78
1, 13655, Note_on_c, 0, 81, 0
1, 13656, Note_on_c, 0, 70, 78
1, 13679, Note_on_c, 0, 70, 0
1, 13680, Note_on_c, 0, 65, 79
1, 13703, Note_on_c, 0, 65, 0
1, 13704, Note_on_c, 0, 70, 79
1, 13727, Note_on_c, 0, 70, 0
1, 13728, Note_on_c, 0, 82, 80
1, 13751, Note_on_c, 0, 82, 0
1, 13752, Note_on_c, 0, 70, 80
1, 13775, Note_on_c, 0, 70, 0
1, 13776, Note_on_c, 0, 67, 81
1, 13799, Note_on_c, 0, 67, 0
1, 13800, Note_on_c, 0, 70, 81
1, 13823, Note_on_c, 0, 70, 0
1, 13824, Note_on_c, 0, 85, 82
1, 13847, Note_on_c, 0, 85, 0
1, 13848, Note_on_c, 0, 73, 82
1, 13871, Note_on_c, 0, 73, 0
1, 13872, Note_on_c, 0, 66, 82
1, 13895, Note_on_c, 0, 66, 0
1, 13896, Note_on_c, 0, 70, 83
1, 13919, Note_on_c, 0, 70, 0
1, 13920, Note_on_c, 0, 82, 83
1, 13943, Note_on_c, 0, 82, 0
1, 13944, Note_on_c, 0, 70, 84
1, 13967, Note_on_c, 0, 70, 0
1, 13968, Note_on_c, 0, 66, 84
1, 13991, Note_on_c, 0, 66, 0
1, 13992, Note_on_c, 0, 70, 85
1, 14015, Note_on_c, 0, 70, 0
1, 14016, Note_on_c, 0, 88, 85
1, 14039, Note_on_c, 0, 88, 0
1, 14040, Note_on_c, 0, 76, 86
1, 14063, Note_on_c, 0, 76, 0
1, 14064, Note_on_c, 0, 66, 86
1, 14087, Note_on_c, 0, 66, 0
1, 14088, Note_on_c, 0, 70, 86
1, 14111, Note_on_c, 0, 70, 0
1, 14112, Note_on_c, 0, 82, 86
1, 14135, Note_on_c, 0, 82, 0
1, 14136, Note_on_c, 0, 70, 86
1, 14159, Note_on_c, 0, 70, 0
1, 14160, Note_on_c, 0, 66, 86
1, 14183, Note_on_c, 0, 66, 0
1, 14184, Note_on_c, 0, 70, 86
1, 14207, Note_on_c, 0, 70, 0
1, 14208, Note_on_c, 0, 81, 86
1, 14231, Note_on_c, 0, 81, 0
1, 14232, Note_on_c, 0, 69, 86
1, 14255, Note_on_c, 0, 69, 0
1, 14256, Note_on_c, 0, 65, 86
1, 14279, Note_on_c, 0, 65, 0
1, 14280, Note_on_c, 0, 53, 86
1, 14303, Note_on_c, 0, 53, 0
1, 14304, Note_on_c, 0, 77, 86
1, 14327, Note_on_c, 0, 77, 0
1, 14328, Note_on_c, 0, 65, 86
1, 14351, Note_on_c, 0, 65, 0
1, 14352, Note_on_c, 1, 60, 80
1, 14375, Note_on_c, 1, 60, 0
1, 14376, Note_on_c, 1, 48, 80
1, 14399, Note_on_c, 1, 48, 0
1, 14400, Note_on_c, 0, 72, 86
1, 14423, Note_on_c, 0, 72, 0
1, 14424, Note_on_c, 0, 60, 86
1, 14447, Note_on_c, 0, 60, 0
1, 14448, Note_on_c, 1, 57, 80
1, 14471, Note_on_c, 1, 57, 0
1, 14472, Note_on_c, 1, 45, 80
1, 14495, Note_on_c, 1, 45, 0
1, 14496, Note_on_c, 0, 69, 86
1, 14519, Note_on_c, 0, 69, 0
1, 14520, Note_on_c, 0, 57, 86
1, 14543, Note_on_c, 0, 57, 0
1, 14544, Note_on_c, 1, 53, 80
1, 14567, Note_on_c, 1, 53, 0
1, 14568, Note_on_c, 1, 41, 80
1, 14592, Note_on_c, 1, 29, 80
1, 14681, Note_on_c, 1, 41, 0
1, 14681, Note_on_c, 1, 29, 0
1, 14736, Note_on_c, 1, 63, 64
1, 14781, Note_on_c, 1, 63, 0
1, 14784, Note_on_c, 1, 63, 64
1, 14829, Note_on_c, 1, 63, 0
1, 14832, Note_on_c, 1, 63, 64
1, 14877, Note_on_c, 1, 63, 0
1, 14880, Note_on_c, 1, 63, 64
1, 14925, Note_on_c, 1, 63, 0
1, 14928, Note_on_c, 0, 72, 80
1, 14928, Note_on_c, 1, 63, 64
1, 14973, Note_on_c, 0, 72, 0
1, 14973, Note_on_c, 1, 63, 0
1, 14976, Note_on_c, 0, 65, 64
1, 14976, Note_on_c, 1, 63, 64
1, 15021, Note_on_c, 0, 65, 0
1, 15021, Note_on_c, 1, 63, 0
1, 15024, Note_on_c, 0, 66, 65
1, 15024, Note_on_c, 1, 63, 65
1, 15069, Note_on_c, 0, 66, 0
1, 15069, Note_on_c, 1, 63, 0
1, 15072, Note_on_c, 0, 65, 66
1, 15072, Note_on_c, 1, 63, 66
1, 15117, Note_on_c, 0, 65, 0
1, 15117, Note_on_c, 1, 63, 0
1, 15120, Note_on_c, 0, 75, 83
1, 15120, Note_on_c, 1, 63, 67
1, 15140, Note_on_c, 0, 75, 0
1, 15165, Note_on_c, 1, 63, 0
1, 15168, Note_on_c, 0, 69, 68
1, 15168, Note_on_c, 1, 63, 68
1, 15213, Note_on_c, 0, 69, 0
1, 15213, Note_on_c, 1, 63, 0
1, 15216, Note_on_c, 0, 70, 69
1, 15216, Note_on_c, 1, 63, 69
1, 15261, Note_on_c, 0, 70, 0
1, 15261, Note_on_c, 1, 63, 0
1, 15264, Note_on_c, 0, 69, 70
1, 15264, Note_on_c, 1, 63, 70
1, 15309, Note_on_c, 0, 69, 0
1, 15309, Note_on_c, 1, 63, 0
1, 15312, Note_on_c, 0, 78, 87
1, 15312, Note_on_c, 1, 63, 71
1, 15332, Note_on_c, 0, 78, 0
1, 15357, Note_on_c, 1, 63, 0
1, 15360, Note_on_c, 0, 72, 72
1, 15360, Note_on_c, 1, 63, 72
1, 15405, Note_on_c, 0, 72, 0
1, 15405, Note_on_c, 1, 63, 0
1, 15408, Note_on_c, 0, 73, 73
1, 15408, Note_on_c, 1, 63, 73
1, 15453, Note_on_c, 0, 73, 0
1, 15453, Note_on_c, 1, 63, 0
1, 15456, Note_on_c, 0, 72, 74
1, 15456, Note_on_c, 1, 63, 74
1, 15501, Note_on_c, 0, 72, 0
1, 15501, Note_on_c, 1, 63, 0
1, 15504, Note_on_c, 0, 81, 91
1, 15504, Note_on_c, 1, 63, 75
1, 15524, Note_on_c, 0, 81, 0
1, 15549, Note_on_c, 1, 63, 0
1, 15552, Note_on_c, 0, 77, 76
1, 15552, Note_on_c, 1, 63, 76
1, 15597, Note_on_c, 0, 77, 0
1, 15597, Note_on_c, 1, 63, 0
1, 15600, Note_on_c, 0, 78, 77
1, 15600, Note_on_c, 1, 63, 77
1, 15645, Note_on_c, 0, 78, 0
1, 15645, Note_on_c, 1, 63, 0
1, 15648, Note_on_c, 0, 77, 78
1, 15648, Note_on_c, 1, 63, 78
1, 15693, Note_on_c, 0, 77, 0
1, 15693, Note_on_c, 1, 63, 0
1, 15696, Note_on_c, 0, 89, 96
1, 15696, Note_on_c, 1, 63, 80
1, 15716, Note_on_c, 0, 89, 0
1, 15741, Note_on_c, 1, 63, 0
1, 15744, Note_on_c, 1, 62, 69
1, 15764, Note_on_c, 1, 62, 0
1, 15792, Note_on_c, 0, 89, 58
1, 15792, Note_on_c, 0, 86, 58
1, 15812, Note_on_c, 0, 89, 0
1, 15812, Note_on_c, 0, 86, 0
1, 15840, Note_on_c, 1, 63, 58
1, 15860, Note_on_c, 1, 63, 0
1, 15888, Note_on_c, 0, 87, 58
1, 15888, Note_on_c, 0, 84, 58
1, 15908, Note_on_c, 0, 87, 0
1, 15908, Note_on_c, 0, 84, 0
1, 15936, Note_on_c, 1, 65, 58
1, 15956, Note_on_c, 1, 65, 0
1, 15984, Note_on_c, 0, 86, 58
1, 15984, Note_on_c, 0, 82, 58
1, 16004, Note_on_c, 0, 86, 0
1, 16004, Note_on_c, 0, 82, 0
1, 16032, Note_on_c, 1, 65, 58
1, 16052, Note_on_c, 1, 65, 0
1, 16080, Note_on_c, 0, 84, 58
1, 16080, Note_on_c, 0, 81, 58
1, 16100, Note_on_c, 0, 84, 0
1, 16100, Note_on_c, 0, 81, 0
1, 16128, Note_on_c, 0, 82, 58
1, 16128, Note_on_c, 1, 58, 58
1, 16173, Note_on_c, 0, 82, 0
1, 16176, Note_on_c, 0, 63, 64
1, 16217, Note_on_c, 1, 58, 0
1, 16221, Note_on_c, 0, 63, 0
1, 16224, Note_on_c, 0, 63, 64
1, 16269, Note_on_c, 0, 63, 0
1, 16272, Note_on_c, 0, 63, 64
1, 16317, Note_on_c, 0, 63, 0
1, 16320, Note_on_c, 0, 63, 64
1, 16365, Note_on_c, 0, 63, 0
1, 16368, Note_on_c, 0, 63, 64
1, 16413, Note_on_c, 0, 63, 0
1, 16416, Note_on_c, 0, 63, 64
1, 16461, Note_on_c, 0, 63, 0
1, 16464, Note_on_c, 0, 63, 64
1, 16464, Note_on_c, 1, 48, 80
1, 16484, Note_on_c, 1, 48, 0
1, 16509, Note_on_c, 0, 63, 0
1, 16512, Note_on_c, 0, 63, 64
1, 16512, Note_on_c, 1, 41, 64
1, 16557, Note_on_c, 0, 63, 0
1, 16557, Note_on_c, 1, 41, 0
1, 16560, Note_on_c, 0, 63, 65
1, 16560, Note_on_c, 1, 42, 65
1, 16605, Note_on_c, 0, 63, 0
1, 16605, Note_on_c, 1, 42, 0
1, 16608, Note_on_c, 0, 63, 66
1, 16608, Note_on_c, 1, 41, 66
1, 16653, Note_on_c, 0, 63, 0
1, 16653, Note_on_c, 1, 41, 0
1, 16656, Note_on_c, 0, 63, 67
1, 16656, Note_on_c, 1, 51, 83
1, 16676, Note_on_c, 1, 51, 0
1, 16701, Note_on_c, 0, 63, 0
1, 16704, Note_on_c, 0, 63, 68
1, 16704, Note_on_c, 1, 45, 68
1, 16749, Note_on_c, 0, 63, 0
1, 16749, Note_on_c, 1, 45, 0
1, 16752, Note_on_c, 0, 63, 69
1, 16752, Note_on_c, 1, 46, 69
1, 16797, Note_on_c, 0, 63, 0
1, 16797, Note_on_c, 1, 46, 0
1, 16800, Note_on_c, 0, 63, 70
1, 16800, Note_on_c, 1, 45, 70
1, 16845, Note_on_c, 0, 63, 0
1, 16845, Note_on_c, 1, 45, 0
1, 16848, Note_on_c, 0, 63, 71
1, 16848, Note_on_c, 1, 54, 87
1, 16868, Note_on_c, 1, 54, 0
1, 16893, Note_on_c, 0, 63, 0
1, 16896, Note_on_c, 0, 63, 72
1, 16896, Note_on_c, 1, 48, 72
1, 16941, Note_on_c, 0, 63, 0
1, 16941, Note_on_c, 1, 48, 0
1, 16944, Note_on_c, 0, 63, 73
1, 16944, Note_on_c, 1, 49, 73
1, 16989, Note_on_c, 0, 63, 0
1, 16989, Note_on_c, 1, 49, 0
1, 16992, Note_on_c, 0, 63, 74
1, 16992, Note_on_c, 1, 48, 74
1, 17037, Note_on_c, 0, 63, 0
1, 17037, Note_on_c, 1, 48, 0
1, 17040, Note_on_c, 0, 63, 75
1, 17040, Note_on_c, 1, 57, 91
1, 17060, Note_on_c, 1, 57, 0
1, 17085, Note_on_c, 0, 63, 0
1, 17088, Note_on_c, 0, 63, 76
1, 17088, Note_on_c, 1, 53, 76
1, 17133, Note_on_c, 0, 63, 0
1, 17133, Note_on_c, 1, 53, 0
1, 17136, Note_on_c, 0, 63, 77
1, 17136, Note_on_c, 1, 54, 77
1, 17181, Note_on_c, 0, 63, 0
1, 17181, Note_on_c, 1, 54, 0
1, 17184, Note_on_c, 0, 63, 78
1, 17184, Note_on_c, 1, 53, 78
1, 17229, Note_on_c, 0, 63, 0
1, 17229, Note_on_c, 1, 53, 0
1, 17232, Note_on_c, 0, 63, 80
1, 17232, Note_on_c, 1, 57, 96
1, 17252, Note_on_c, 1, 57, 0
1, 17277, Note_on_c, 0, 63, 0
1, 17280, Note_on_c, 0, 62, 80
1, 17280, Note_on_c, 1, 58, 80
1, 17303, Note_on_c, 0, 62, 0
1, 17304, Note_on_c, 0, 70, 80
1, 17325, Note_on_c, 1, 58, 0
1, 17327, Note_on_c, 0, 70, 0
1, 17328, Note_on_c, 0, 62, 80
1, 17328, Note_on_c, 1, 46, 80
1, 17351, Note_on_c, 0, 62, 0
1, 17352, Note_on_c, 0, 70, 80
1, 17373, Note_on_c, 1, 46, 0
1, 17375, Note_on_c, 0, 70, 0
1, 17376, Note_on_c, 0, 63, 80
1, 17376, Note_on_c, 1, 58, 80
1, 17399, Note_on_c, 0, 63, 0
1, 17400, Note_on_c, 0, 69, 80
1, 17421, Note_on_c, 1, 58, 0
1, 17423, Note_on_c, 0, 69, 0
1, 17424, Note_on_c, 0, 63, 80
1, 17424, Note_on_c, 1, 46, 80
1, 17447, Note_on_c, 0, 63, 0
1, 17448, Note_on_c, 0, 69, 80
1, 17469, Note_on_c, 1, 46, 0
1, 17471, Note_on_c, 0, 69, 0
1, 17472, Note_on_c, 0, 69, 80
1, 17472, Note_on_c, 1, 58, 80
1, 17495, Note_on_c, 0, 69, 0
1, 17496, Note_on_c, 0, 75, 80
1, 17517, Note_on_c, 1, 58, 0
1, 17519, Note_on_c, 0, 75, 0
1, 17520, Note_on_c, 0, 69, 80
1, 17520, Note_on_c, 1, 46, 80
1, 17543, Note_on_c, 0, 69, 0
1, 17544, Note_on_c, 0, 75, 80
1, 17565, Note_on_c, 1, 46, 0
1, 17567, Note_on_c, 0, 75, 0
1, 17568, Note_on_c, 0, 70, 80
1, 17568, Note_on_c, 1, 58, 80
1, 17591, Note_on_c, 0, 70, 0
1, 17592, Note_on_c, 0, 74, 80
1, 17613, Note_on_c, 1, 58, 0
1, 17615, Note_on_c, 0, 74, 0
1, 17616, Note_on_c, 0, 70, 80
1, 17616, Note_on_c, 1, 46, 80
1, 17639, Note_on_c, 0, 70, 0
1, 17640, Note_on_c, 0, 74, 80
1, 17661, Note_on_c, 1, 46, 0
1, 17663, Note_on_c, 0, 74, 0
1, 17664, Note_on_c, 0, 74, 80
1, 17664, Note_on_c, 1, 58, 80
1, 17687, Note_on_c, 0, 74, 0
1, 17688, Note_on_c, 0, 82, 80
1, 17709, Note_on_c, 1, 58, 0
1, 17711, Note_on_c, 0, 82, 0
1, 17712, Note_on_c, 0, 74, 80
1, 17712, Note_on_c, 1, 46, 80
1, 17735, Note_on_c, 0, 74, 0
1, 17736, Note_on_c, 0, 82, 80
1, 17757, Note_on_c, 1, 46, 0
1, 17759, Note_on_c, 0, 82, 0
1, 17760, Note_on_c, 0, 75, 80
1, 17760, Note_on_c, 1, 58, 80
1, 17783, Note_on_c, 0, 75, 0
1, 17784, Note_on_c, 0, 81, 80
1, 17805, Note_on_c, 1, 58, 0
1, 17807, Note_on_c, 0, 81, 0
1, 17808, Note_on_c, 0, 75, 80
1, 17808, Note_on_c, 1, 46, 80
1, 17831, Note_on_c, 0, 75, 0
1, 17832, Note_on_c, 0, 81, 80
1, 17853, Note_on_c, 1, 46, 0
1, 17855, Note_on_c, 0, 81, 0
1, 17856, Note_on_c, 0, 81, 80
1, 17856, Note_on_c, 1, 58, 80
1, 17879, Note_on_c, 0, 81, 0
1, 17880, Note_on_c, 0, 87, 80
1, 17901, Note_on_c, 1, 58, 0
1, 17903, Note_on_c, 0, 87, 0
1, 17904, Note_on_c, 0, 81, 80
1, 17904, Note_on_c, 1, 46, 80
1, 17927, Note_on_c, 0, 81, 0
1, 17928, Note_on_c, 0, 87, 80
1, 17949, Note_on_c, 1, 46, 0
1, 17951, Note_on_c, 0, 87, 0
1, 17952, Note_on_c, 0, 82, 80
1, 17952, Note_on_c, 1, 58, 80
1, 17975, Note_on_c, 0, 82, 0
1, 17976, Note_on_c, 0, 86, 80
1, 17999, Note_on_c, 0, 86, 0
1, 18000, Note_on_c, 0, 82, 80
1, 18023, Note_on_c, 0, 82, 0
1, 18024, Note_on_c, 0, 86, 80
1, 18041, Note_on_c, 1, 58, 0
1, 18047, Note_on_c, 0, 86, 0
1, 18048, Note_on_c, 0, 89, 80
1, 18048, Note_on_c, 0, 86, 80
1, 18048, Note_on_c, 0, 82, 80
1, 18048, Note_on_c, 0, 77, 80
1, 18048, Note_on_c, 1, 62, 80
1, 18048, Note_on_c, 1, 58, 80
1, 18048, Note_on_c, 1, 53, 80
1, 18048, Note_on_c, 1, 50, 80
1, 18093, Note_on_c, 0, 89, 0
1, 18093, Note_on_c, 0, 86, 0
1, 18093, Note_on_c, 0, 82, 0
1, 18093, Note_on_c, 0, 77, 0
1, 18093, Note_on_c, 1, 62, 0
1, 18093, Note_on_c, 1, 58, 0
1, 18093, Note_on_c, 1, 53, 0
1, 18093, Note_on_c, 1, 50, 0
1, 18144, Note_on_c, 0, 87, 80
1, 18144, Note_on_c, 0, 84, 80
1, 18144, Note_on_c, 0, 79, 80
1, 18144, Note_on_c, 1, 60, 80
1, 18144, Note_on_c, 1, 55, 80
1, 18144, Note_on_c, 1, 51, 80
1, 18189, Note_on_c, 0, 87, 0
1, 18189, Note_on_c, 0, 84, 0
1, 18189, Note_on_c, 0, 79, 0
1, 18189, Note_on_c, 1, 60, 0
1, 18189, Note_on_c, 1, 55, 0
1, 18189, Note_on_c, 1, 51, 0
1, 18240, Note_on_c, 0, 86, 80
1, 18240, Note_on_c, 0, 82, 80
1, 18240, Note_on_c, 0, 77, 80
1, 18240, Note_on_c, 1, 62, 80
1, 18240, Note_on_c, 1, 58, 80
1, 18240, Note_on_c, 1, 53, 80
1, 18285, Note_on_c, 0, 86, 0
1, 18285, Note_on_c, 0, 82, 0
1, 18285, Note_on_c, 0, 77, 0
1, 18285, Note_on_c, 1, 62, 0
1, 18285, Note_on_c, 1, 58, 0
1, 18285, Note_on_c, 1, 53, 0
1, 18336, Note_on_c, 0, 81, 80
1, 18336, Note_on_c, 0, 75, 80
1, 18336, Note_on_c, 0, 72, 80
1, 18336, Note_on_c, 1, 60, 80
1, 18336, Note_on_c, 1, 57, 80
1, 18336, Note_on_c, 1, 53, 80
1, 18381, Note_on_c, 0, 81, 0
1, 18381, Note_on_c, 0, 75, 0
1, 18381, Note_on_c, 0, 72, 0
1, 18381, Note_on_c, 1, 60, 0
1, 18381, Note_on_c, 1, 57, 0
1, 18381, Note_on_c, 1, 53, 0
1, 18432, Note_on_c, 0, 82, 80
1, 18432, Note_on_c, 0, 77, 80
1, 18432, Note_on_c, 0, 74, 80
1, 18432, Note_on_c, 1, 58, 80
1, 18455, Note_on_c, 1, 58, 0
1, 18456, Note_on_c, 1, 57, 80
1, 18479, Note_on_c, 1, 57, 0
1, 18480, Note_on_c, 1, 58, 80
1, 18503, Note_on_c, 1, 58, 0
1, 18504, Note_on_c, 1, 57, 80
1, 18521, Note_on_c, 0, 82, 0
1, 18521, Note_on_c, 0, 77, 0
1, 18521, Note_on_c, 0, 74, 0
1, 18527, Note_on_c, 1, 57, 0
1, 18528, Note_on_c, 1, 58, 80
1, 18551, Note_on_c, 1, 58, 0
1, 18552, Note_on_c, 1, 57, 80
1, 18575, Note_on_c, 1, 57, 0
1, 18576, Note_on_c, 0, 79, 80
1, 18576, Note_on_c, 0, 75, 80
1, 18576, Note_on_c, 1, 58, 80
1, 18599, Note_on_c, 1, 58, 0
1, 18600, Note_on_c, 1, 57, 80
1, 18621, Note_on_c, 0, 79, 0
1, 18621, Note_on_c, 0, 75, 0
1, 18623, Note_on_c, 1, 57, 0
1, 18624, Note_on_c, 0, 77, 80
1, 18624, Note_on_c, 0, 74, 80
1, 18624, Note_on_c, 1, 58, 80
1, 18647, Note_on_c, 1, 58, 0
1, 18648, Note_on_c, 1, 57, 80
1, 18669, Note_on_c, 0, 77, 0
1, 18669, Note_on_c, 0, 74, 0
1, 18671, Note_on_c, 1, 57, 0
1, 18672, Note_on_c, 0, 75, 80
1, 18672, Note_on_c, 0, 72, 80
1, 18672, Note_on_c, 1, 58, 80
1, 18695, Note_on_c, 1, 58, 0
1, 18696, Note_on_c, 1, 57, 80
1, 18717, Note_on_c, 0, 75, 0
1, 18717, Note_on_c, 0, 72, 0
1, 18719, Note_on_c, 1, 57, 0
1, 18720, Note_on_c, 0, 74, 80
1, 18720, Note_on_c, 0, 70, 80
1, 18720, Note_on_c, 1, 58, 80
1, 18743, Note_on_c, 1, 58, 0
1, 18744, Note_on_c, 1, 57, 80
1, 18765, Note_on_c, 0, 74, 0
1, 18765, Note_on_c, 0, 70, 0
1, 18767, Note_on_c, 1, 57, 0
1, 18768, Note_on_c, 0, 72, 80
1, 18768, Note_on_c, 0, 69, 80
1, 18768, Note_on_c, 1, 58, 80
1, 18791, Note_on_c, 1, 58, 0
1, 18792, Note_on_c, 1, 57, 80
1, 18813, Note_on_c, 0, 72, 0
1, 18813, Note_on_c, 0, 69, 0
1, 18815, Note_on_c, 1, 57, 0
1, 18816, Note_on_c, 0, 70, 80
1, 18816, Note_on_c, 1, 58, 80
1, 18839, Note_on_c, 0, 70, 0
1, 18840, Note_on_c, 0, 69, 80
1, 18863, Note_on_c, 0, 69, 0
1, 18864, Note_on_c, 0, 70, 80
1, 18887, Note_on_c, 0, 70, 0
1, 18888, Note_on_c, 0, 69, 80
1, 18905, Note_on_c, 1, 58, 0
1, 18911, Note_on_c, 0, 69, 0
1, 18912, Note_on_c, 0, 70, 80
1, 18935, Note_on_c, 0, 70, 0
1, 18936, Note_on_c, 0, 69, 80
1, 18959, Note_on_c, 0, 69, 0
1, 18960, Note_on_c, 0, 70, 80
1, 18960, Note_on_c, 1, 55, 80
1, 18960, Note_on_c, 1, 51, 80
1, 18983, Note_on_c, 0, 70, 0
1, 18984, Note_on_c, 0, 69, 80
1, 19005, Note_on_c, 1, 55, 0
1, 19005, Note_on_c, 1, 51, 0
1, 19007, Note_on_c, 0, 69, 0
1, 19008, Note_on_c, 0, 70, 80
1, 19008, Note_on_c, 1, 53, 80
1, 19008, Note_on_c, 1, 50, 80
1, 19031, Note_on_c, 0, 70, 0
1, 19032, Note_on_c, 0, 69, 80
1, 19053, Note_on_c, 1, 53, 0
1, 19053, Note_on_c, 1, 50, 0
1, 19055, Note_on_c, 0, 69, 0
1, 19056, Note_on_c, 0, 70, 80
1, 19056, Note_on_c, 1, 55, 80
1, 19056, Note_on_c, 1, 51, 80
1, 19079, Note_on_c, 0, 70, 0
1, 19080, Note_on_c, 0, 69, 80
1, 19101, Note_on_c, 1, 55, 0
1, 19101, Note_on_c, 1, 51, 0
1, 19103, Note_on_c, 0, 69, 0
1, 19104, Note_on_c, 0, 70, 80
1, 19104, Note_on_c, 1, 53, 80
1, 19104, Note_on_c, 1, 50, 80
1, 19127, Note_on_c, 0, 70, 0
1, 19128, Note_on_c, 0, 69, 80
1, 19149, Note_on_c, 1, 53, 0
1, 19149, Note_on_c, 1, 50, 0
1, 19151, Note_on_c, 0, 69, 0
1, 19152, Note_on_c, 0, 70, 80
1, 19152, Note_on_c, 1, 51, 80
1, 19152, Note_on_c, 1, 48, 80
1, 19175, Note_on_c, 0, 70, 0
1, 19176, Note_on_c, 0, 69, 80
1, 19197, Note_on_c, 1, 51, 0
1, 19197, Note_on_c, 1, 48, 0
1, 19199, Note_on_c, 0, 69, 0
1, 19200, Note_on_c, 0, 70, 80
1, 19200, Note_on_c, 1, 50, 80
1, 19200, Note_on_c, 1, 46, 80
1, 19289, Note_on_c, 0, 70, 0
1, 19289, Note_on_c, 1, 50, 0
1, 19289, Note_on_c, 1, 46, 0
1, 19296, Note_on_c, 0, 82, 80
1, 19296, Note_on_c, 0, 77, 80
1, 19296, Note_on_c, 0, 74, 80
1, 19296, Note_on_c, 1, 58, 80
1, 19296, Note_on_c, 1, 53, 80
1, 19296, Note_on_c, 1, 50, 80
1, 19296, Note_on_c, 1, 46, 80
1, 19385, Note_on_c, 0, 82, 0
1, 19385, Note_on_c, 0, 77, 0
1, 19385, Note_on_c, 0, 74, 0
1, 19385, Note_on_c, 1, 58, 0
1, 19385, Note_on_c, 1, 53, 0
1, 19385, Note_on_c, 1, 50, 0
1, 19385, Note_on_c, 1, 46, 0
1, 19536, Note_on_c, 0, 67, 64
1, 19581, Note_on_c, 0, 67, 0
1, 19584, Note_on_c, 0, 67, 64
1, 19629, Note_on_c, 0, 67, 0
1, 19632, Note_on_c, 0, 67, 64
1, 19677, Note_on_c, 0, 67, 0
1, 19680, Note_on_c, 0, 67, 64
1, 19725, Note_on_c, 0, 67, 0
1, 19728, Note_on_c, 0, 67, 64
1, 19773, Note_on_c, 0, 67, 0
1, 19776, Note_on_c, 0, 67, 64
1, 19776, Note_on_c, 1, 39, 64
1, 19776, Note_on_c, 1, 39, 64
1, 19821, Note_on_c, 1, 39, 0
1, 19824, Note_on_c, 1, 51, 64
1, 19869, Note_on_c, 1, 51, 0
1, 19872, Note_on_c, 0, 67, 0
1, 19872, Note_on_c, 0, 70, 64
1, 19872, Note_on_c, 1, 51, 64
1, 19917, Note_on_c, 0, 70, 0
1, 19917, Note_on_c, 1, 51, 0
1, 19920, Note_on_c, 0, 63, 64
1, 19920, Note_on_c, 1, 51, 64
1, 19965, Note_on_c, 0, 63, 0
1, 19965, Note_on_c, 1, 51, 0
1, 19968, Note_on_c, 0, 62, 64
1, 19968, Note_on_c, 1, 51, 64
1, 20013, Note_on_c, 0, 62, 0
1, 20013, Note_on_c, 1, 51, 0
1, 20016, Note_on_c, 0, 65, 64
1, 20016, Note_on_c, 1, 51, 64
1, 20061, Note_on_c, 0, 65, 0
1, 20061, Note_on_c, 1, 51, 0
1, 20064, Note_on_c, 0, 68, 64
1, 20064, Note_on_c, 1, 51, 64
1, 20109, Note_on_c, 0, 68, 0
1, 20109, Note_on_c, 1, 51, 0
1, 20112, Note_on_c, 0, 62, 64
1, 20112, Note_on_c, 1, 51, 64
1, 20145, Note_on_c, 1, 39, 0
1, 20157, Note_on_c, 0, 62, 0
1, 20157, Note_on_c, 1, 51, 0
1, 20160, Note_on_c, 0, 63, 64
1, 20160, Note_on_c, 1, 39, 64
1, 20205, Note_on_c, 0, 63, 0
1, 20208, Note_on_c, 0, 67, 64
1, 20208, Note_on_c, 1, 51, 64
1, 20253, Note_on_c, 0, 67, 0
1, 20253, Note_on_c, 1, 51, 0
1, 20256, Note_on_c, 0, 58, 64
1, 20256, Note_on_c, 1, 51, 64
1, 20301, Note_on_c, 0, 58, 0
1, 20301, Note_on_c, 1, 51, 0
1, 20304, Note_on_c, 0, 58, 64
1, 20304, Note_on_c, 1, 51, 64
1, 20349, Note_on_c, 0, 58, 0
1, 20349, Note_on_c, 1, 51, 0
1, 20352, Note_on_c, 0, 56, 64
1, 20352, Note_on_c, 1, 51, 64
1, 20397, Note_on_c, 0, 56, 0
1, 20397, Note_on_c, 1, 51, 0
1, 20400, Note_on_c, 0, 62, 64
1, 20400, Note_on_c, 1, 51, 64
1, 20445, Note_on_c, 0, 62, 0
1, 20445, Note_on_c, 1, 51, 0
1, 20448, Note_on_c, 0, 65, 64
1, 20448, Note_on_c, 1, 51, 64
1, 20493, Note_on_c, 0, 65, 0
1, 20493, Note_on_c, 1, 51, 0
1, 20496, Note_on_c, 0, 62, 64
1, 20496, Note_on_c, 1, 51, 64
1, 20529, Note_on_c, 1, 39, 0
1, 20541, Note_on_c, 0, 62, 0
1, 20541, Note_on_c, 1, 51, 0
1, 20544, Note_on_c, 0, 63, 64
1, 20544, Note_on_c, 1, 39, 64
1, 20589, Note_on_c, 0, 63, 0
1, 20592, Note_on_c, 0, 67, 64
1, 20592, Note_on_c, 1, 51, 64
1, 20637, Note_on_c, 0, 67, 0
1, 20637, Note_on_c, 1, 51, 0
1, 20640, Note_on_c, 0, 58, 64
1, 20640, Note_on_c, 1, 51, 64
1, 20685, Note_on_c, 0, 58, 0
1, 20685, Note_on_c, 1, 51, 0
1, 20688, Note_on_c, 0, 58, 64
1, 20688, Note_on_c, 1, 51, 64
1, 20733, Note_on_c, 0, 58, 0
1, 20733, Note_on_c, 1, 51, 0
1, 20736, Note_on_c, 0, 56, 64
1, 20736, Note_on_c, 1, 51, 64
1, 20781, Note_on_c, 0, 56, 0
1, 20781, Note_on_c, 1, 51, 0
1, 20784, Note_on_c, 0, 62, 64
1, 20784, Note_on_c, 1, 51, 64
1, 20829, Note_on_c, 0, 62, 0
1, 20829, Note_on_c, 1, 51, 0
1, 20832, Note_on_c, 0, 65, 64
1, 20832, Note_on_c, 1, 51, 64
1, 20877, Note_on_c, 0, 65, 0
1, 20877, Note_on_c, 1, 51, 0
1, 20880, Note_on_c, 0, 62, 64
1, 20880, Note_on_c, 1, 51, 64
1, 20913, Note_on_c, 1, 39, 0
1, 20925, Note_on_c, 0, 62, 0
1, 20925, Note_on_c, 1, 51, 0
1, 20928, Note_on_c, 0, 63, 64
1, 20928, Note_on_c, 1, 39, 64
1, 21017, Note_on_c, 0, 63, 0
1, 21017, Note_on_c, 1, 39, 0
1, 21072, Note_on_c, 0, 68, 64
1, 21117, Note_on_c, 0, 68, 0
1, 21120, Note_on_c, 0, 68, 64
1, 21165, Note_on_c, 0, 68, 0
1, 21168, Note_on_c, 0, 68, 64
1, 21213, Note_on_c, 0, 68, 0
1, 21216, Note_on_c, 0, 68, 64
1, 21261, Note_on_c, 0, 68, 0
1, 21264, Note_on_c, 0, 68, 64
1, 21309, Note_on_c, 0, 68, 0
1, 21312, Note_on_c, 0, 68, 64
1, 21312, Note_on_c, 1, 41, 64
1, 21360, Note_on_c, 1, 53, 64
1, 21405, Note_on_c, 1, 53, 0
1, 21408, Note_on_c, 0, 68, 0
1, 21408, Note_on_c, 0, 72, 64
1, 21408, Note_on_c, 1, 53, 64
1, 21453, Note_on_c, 0, 72, 0
1, 21453, Note_on_c, 1, 53, 0
1, 21456, Note_on_c, 0, 65, 64
1, 21456, Note_on_c, 1, 53, 64
1, 21501, Note_on_c, 0, 65, 0
1, 21501, Note_on_c, 1, 53, 0
1, 21504, Note_on_c, 0, 64, 64
1, 21504, Note_on_c, 1, 53, 64
1, 21549, Note_on_c, 0, 64, 0
1, 21549, Note_on_c, 1, 53, 0
1, 21552, Note_on_c, 0, 67, 64
1, 21552, Note_on_c, 1, 53, 64
1, 21597, Note_on_c, 0, 67, 0
1, 21597, Note_on_c, 1, 53, 0
1, 21600, Note_on_c, 0, 70, 64
1, 21600, Note_on_c, 1, 53, 64
1, 21645, Note_on_c, 0, 70, 0
1, 21645, Note_on_c, 1, 53, 0
1, 21648, Note_on_c, 0, 64, 64
1, 21648, Note_on_c, 1, 53, 64
1, 21681, Note_on_c, 1, 41, 0
1, 21693, Note_on_c, 0, 64, 0
1, 21693, Note_on_c, 1, 53, 0
1, 21696, Note_on_c, 0, 65, 64
1, 21696, Note_on_c, 1, 41, 64
1, 21741, Note_on_c, 0, 65, 0
1, 21744, Note_on_c, 0, 68, 64
1, 21744, Note_on_c, 1, 53, 64
1, 21789, Note_on_c, 0, 68, 0
1, 21789, Note_on_c, 1, 53, 0
1, 21792, Note_on_c, 0, 60, 64
1, 21792, Note_on_c, 1, 53, 64
1, 21837, Note_on_c, 0, 60, 0
1, 21837, Note_on_c, 1, 53, 0
1, 21840, Note_on_c, 0, 60, 64
1, 21840, Note_on_c, 1, 53, 64
1, 21885, Note_on_c, 0, 60, 0
1, 21885, Note_on_c, 1, 53, 0
1, 21888, Note_on_c, 0, 58, 64
1, 21888, Note_on_c, 1, 53, 64
1, 21933, Note_on_c, 0, 58, 0
1, 21933, Note_on_c, 1, 53, 0
1, 21936, Note_on_c, 0, 64, 64
1, 21936, Note_on_c, 1, 53, 64
1, 21981, Note_on_c, 0, 64, 0
1, 21981, Note_on_c, 1, 53, 0
1, 21984, Note_on_c, 0, 67, 64
1, 21984, Note_on_c, 1, 53, 64
1, 22029, Note_on_c, 0, 67, 0
1, 22029, Note_on_c, 1, 53, 0
1, 22032, Note_on_c, 0, 64, 64
1, 22032, Note_on_c, 1, 53, 64
1, 22065, Note_on_c, 1, 41, 0
1, 22077, Note_on_c, 0, 64, 0
1, 22077, Note_on_c, 1, 53, 0
1, 22080, Note_on_c, 0, 65, 64
1, 22080, Note_on_c, 1, 41, 64
1, 22125, Note_on_c, 0, 65, 0
1, 22128, Note_on_c, 0, 68, 64
1, 22128, Note_on_c, 1, 53, 64
1, 22173, Note_on_c, 0, 68, 0
1, 22173, Note_on_c, 1, 53, 0
1, 22176, Note_on_c, 0, 60, 64
1, 22176, Note_on_c, 1, 53, 64
1, 22221, Note_on_c, 0, 60, 0
1, 22221, Note_on_c, 1, 53, 0
1, 22224, Note_on_c, 0, 60, 64
1, 22224, Note_on_c, 1, 53, 64
1, 22269, Note_on_c, 0, 60, 0
1, 22269, Note_on_c, 1, 53, 0
1, 22272, Note_on_c, 0, 58, 64
1, 22272, Note_on_c, 1, 53, 64
1, 22317, Note_on_c, 0, 58, 0
1, 22317, Note_on_c, 1, 53, 0
1, 22320, Note_on_c, 0, 64, 64
1, 22320, Note_on_c, 1, 53, 64
1, 22365, Note_on_c, 0, 64, 0
1, 22365, Note_on_c, 1, 53, 0
1, 22368, Note_on_c, 0, 67, 64
1, 22368, Note_on_c, 1, 53, 64
1, 22413, Note_on_c, 0, 67, 0
1, 22413, Note_on_c, 1, 53, 0
1, 22416, Note_on_c, 0, 64, 64
1, 22416, Note_on_c, 1, 53, 64
1, 22449, Note_on_c, 1, 41, 0
1, 22461, Note_on_c, 0, 64, 0
1, 22461, Note_on_c, 1, 53, 0
1, 22464, Note_on_c, 0, 65, 64
1, 22464, Note_on_c, 1, 41, 64
1, 22553, Note_on_c, 0, 65, 0
1, 22553, Note_on_c, 1, 41, 0
1, 22608, Note_on_c, 1, 46, 80
1, 22608, Note_on_c, 1, 34, 80
1, 22653, Note_on_c, 1, 46, 0
1, 22653, Note_on_c, 1, 34, 0
1, 22656, Note_on_c, 1, 46, 80
1, 22656, Note_on_c, 1, 34, 80
1, 22701, Note_on_c, 1, 46, 0
1, 22701, Note_on_c, 1, 34, 0
1, 22704, Note_on_c, 1, 46, 80
1, 22704, Note_on_c, 1, 34, 80
1, 22749, Note_on_c, 1, 46, 0
1, 22749, Note_on_c, 1, 34, 0
1, 22752, Note_on_c, 1, 46, 80
1, 22752, Note_on_c, 1, 34, 80
1, 22797, Note_on_c, 1, 46, 0
1, 22797, Note_on_c, 1, 34, 0
1, 22800, Note_on_c, 0, 84, 80
1, 22800, Note_on_c, 1, 46, 80
1, 22800, Note_on_c, 1, 34, 80
1, 22823, Note_on_c, 0, 84, 0
1, 22824, Note_on_c, 0, 82, 80
1, 22845, Note_on_c, 1, 46, 0
1, 22845, Note_on_c, 1, 34, 0
1, 22847, Note_on_c, 0, 82, 0
1, 22848, Note_on_c, 0, 80, 80
1, 22848, Note_on_c, 1, 46, 80
1, 22848, Note_on_c, 1, 34, 80
1, 22871, Note_on_c, 0, 80, 0
1, 22872, Note_on_c, 0, 79, 80
1, 22895, Note_on_c, 0, 79, 0
1, 22896, Note_on_c, 0, 77, 80
1, 22919, Note_on_c, 0, 77, 0
1, 22920, Note_on_c, 0, 75, 80
1, 22937, Note_on_c, 1, 46, 0
1, 22937, Note_on_c, 1, 34, 0
1, 22943, Note_on_c, 0, 75, 0
1, 22944, Note_on_c, 0, 74, 80
1, 22944, Note_on_c, 1, 53, 80
1, 22967, Note_on_c, 0, 74, 0
1, 22968, Note_on_c, 0, 75, 79
1, 22989, Note_on_c, 1, 53, 0
1, 22991, Note_on_c, 0, 75, 0
1, 22992, Note_on_c, 0, 77, 78
1, 22992, Note_on_c, 1, 44, 78
1, 23015, Note_on_c, 0, 77, 0
1, 23016, Note_on_c, 0, 74, 77
1, 23037, Note_on_c, 1, 44, 0
1, 23039, Note_on_c, 0, 74, 0
1, 23040, Note_on_c, 0, 75, 76
1, 23040, Note_on_c, 1, 43, 76
1, 23063, Note_on_c, 0, 75, 0
1, 23064, Note_on_c, 0, 79, 75
1, 23085, Note_on_c, 1, 43, 0
1, 23087, Note_on_c, 0, 79, 0
1, 23088, Note_on_c, 0, 77, 75
1, 23088, Note_on_c, 1, 46, 75
1, 23111, Note_on_c, 0, 77, 0
1, 23112, Note_on_c, 0, 75, 74
1, 23133, Note_on_c, 1, 46, 0
1, 23135, Note_on_c, 0, 75, 0
1, 23136, Note_on_c, 0, 74, 73
1, 23136, Note_on_c, 1, 51, 73
1, 23159, Note_on_c, 0, 74, 0
1, 23160, Note_on_c, 0, 72, 72
1, 23181, Note_on_c, 1, 51, 0
1, 23183, Note_on_c, 0, 72, 0
1, 23184, Note_on_c, 0, 70, 71
1, 23184, Note_on_c, 1, 43, 71
1, 23207, Note_on_c, 0, 70, 0
1, 23208, Note_on_c, 0, 75, 70
1, 23229, Note_on_c, 1, 43, 0
1, 23231, Note_on_c, 0, 75, 0
1, 23232, Note_on_c, 0, 74, 70
1, 23232, Note_on_c, 1, 44, 70
1, 23255, Note_on_c, 0, 74, 0
1, 23256, Note_on_c, 0, 75, 70
1, 23277, Note_on_c, 1, 44, 0
1, 23279, Note_on_c, 0, 75, 0
1, 23280, Note_on_c, 0, 77, 70
1, 23280, Note_on_c, 1, 50, 70
1, 23303, Note_on_c, 0, 77, 0
1, 23304, Note_on_c, 0, 79, 70
1, 23325, Note_on_c, 1, 50, 0
1, 23327, Note_on_c, 0, 79, 0
1, 23328, Note_on_c, 0, 80, 70
1, 23328, Note_on_c, 1, 53, 70
1, 23351, Note_on_c, 0, 80, 0
1, 23352, Note_on_c, 0, 77, 70
1, 23373, Note_on_c, 1, 53, 0
1, 23375, Note_on_c, 0, 77, 0
1, 23376, Note_on_c, 0, 75, 70
1, 23376, Note_on_c, 1, 44, 70
1, 23399, Note_on_c, 0, 75, 0
1, 23400, Note_on_c, 0, 74, 70
1, 23421, Note_on_c, 1, 44, 0
1, 23423, Note_on_c, 0, 74, 0
1, 23424, Note_on_c, 0, 75, 70
1, 23424, Note_on_c, 1, 43, 70
1, 23447, Note_on_c, 0, 75, 0
1, 23448, Note_on_c, 0, 79, 70
1, 23469, Note_on_c, 1, 43, 0
1, 23471, Note_on_c, 0, 79, 0
1, 23472, Note_on_c, 0, 77, 70
1, 23472, Note_on_c, 1, 46, 70
1, 23495, Note_on_c, 0, 77, 0
1, 23496, Note_on_c, 0, 75, 70
1, 23517, Note_on_c, 1, 46, 0
1, 23519, Note_on_c, 0, 75, 0
1, 23520, Note_on_c, 0, 74, 70
1, 23520, Note_on_c, 1, 51, 70
1, 23543, Note_on_c, 0, 74, 0
1, 23544, Note_on_c, 0, 72, 70
1, 23565, Note_on_c, 1, 51, 0
1, 23567, Note_on_c, 0, 72, 0
1, 23568, Note_on_c, 0, 70, 70
1, 23568, Note_on_c, 1, 43, 70
1, 23591, Note_on_c, 0, 70, 0
1, 23592, Note_on_c, 0, 75, 70
1, 23613, Note_on_c, 1, 43, 0
1, 23615, Note_on_c, 0, 75, 0
1, 23616, Note_on_c, 0, 74, 70
1, 23616, Note_on_c, 1, 44, 70
1, 23639, Note_on_c, 0, 74, 0
1, 23640, Note_on_c, 0, 75, 70
1, 23661, Note_on_c, 1, 44, 0
1, 23663, Note_on_c, 0, 75, 0
1, 23664, Note_on_c, 0, 77, 70
1, 23664, Note_on_c, 1, 50, 70
1, 23687, Note_on_c, 0, 77, 0
1, 23688, Note_on_c, 0, 79, 71
1, 23709, Note_on_c, 1, 50, 0
1, 23711, Note_on_c, 0, 79, 0
1, 23712, Note_on_c, 0, 80, 71
1, 23712, Note_on_c, 1, 53, 71
1, 23735, Note_on_c, 0, 80, 0
1, 23736, Note_on_c, 0, 77, 72
1, 23757, Note_on_c, 1, 53, 0
1, 23759, Note_on_c, 0, 77, 0
1, 23760, Note_on_c, 0, 75, 72
1, 23760, Note_on_c, 1, 44, 72
1, 23783, Note_on_c, 0, 75, 0
1, 23784, Note_on_c, 0, 74, 72
1, 23805, Note_on_c, 1, 44, 0
1, 23807, Note_on_c, 0, 74, 0
1, 23808, Note_on_c, 0, 75, 73
1, 23808, Note_on_c, 1, 43, 73
1, 23831, Note_on_c, 0, 75, 0
1, 23832, Note_on_c, 0, 77, 73
1, 23853, Note_on_c, 1, 43, 0
1, 23855, Note_on_c, 0, 77, 0
1, 23856, Note_on_c, 0, 79, 74
1, 23856, Note_on_c, 1, 46, 73
1, 23879, Note_on_c, 0, 79, 0
1, 23880, Note_on_c, 0, 77, 74
1, 23901, Note_on_c, 1, 46, 0
1, 23903, Note_on_c, 0, 77, 0
1, 23904, Note_on_c, 0, 75, 74
1, 23904, Note_on_c, 1, 51, 74
1, 23927, Note_on_c, 0, 75, 0
1, 23928, Note_on_c, 0, 74, 75
1, 23949, Note_on_c, 1, 51, 0
1, 23951, Note_on_c, 0, 74, 0
1, 23952, Note_on_c, 0, 72, 75
1, 23952, Note_on_c, 1, 55, 75
1, 23975, Note_on_c, 0, 72, 0
1, 23976, Note_on_c, 0, 70, 76
1, 23997, Note_on_c, 1, 55, 0
1, 23999, Note_on_c, 0, 70, 0
1, 24000, Note_on_c, 0, 72, 76
1, 24000, Note_on_c, 1, 44, 76
1, 24023, Note_on_c, 0, 72, 0
1, 24024, Note_on_c, 0, 75, 76
1, 24045, Note_on_c, 1, 44, 0
1, 24047, Note_on_c, 0, 75, 0
1, 24048, Note_on_c, 0, 77, 77
1, 24048, Note_on_c, 1, 48, 76
1, 24071, Note_on_c, 0, 77, 0
1, 24072, Note_on_c, 0, 75, 77
1, 24093, Note_on_c, 1, 48, 0
1, 24095, Note_on_c, 0, 75, 0
1, 24096, Note_on_c, 0, 74, 78
1, 24096, Note_on_c, 1, 53, 77
1, 24119, Note_on_c, 0, 74, 0
1, 24120, Note_on_c, 0, 72, 78
1, 24141, Note_on_c, 1, 53, 0
1, 24143, Note_on_c, 0, 72, 0
1, 24144, Note_on_c, 0, 70, 78
1, 24144, Note_on_c, 1, 56, 78
1, 24167, Note_on_c, 0, 70, 0
1, 24168, Note_on_c, 0, 68, 79
1, 24189, Note_on_c, 1, 56, 0
1, 24191, Note_on_c, 0, 68, 0
1, 24192, Note_on_c, 0, 67, 79
1, 24192, Note_on_c, 1, 58, 79
1, 24215, Note_on_c, 0, 67, 0
1, 24216, Note_on_c, 0, 70, 80
1, 24237, Note_on_c, 1, 58, 0
1, 24239, Note_on_c, 0, 70, 0
1, 24240, Note_on_c, 0, 67, 80
1, 24240, Note_on_c, 1, 58, 80
1, 24263, Note_on_c, 0, 67, 0
1, 24264, Note_on_c, 0, 70, 80
1, 24285, Note_on_c, 1, 58, 0
1, 24287, Note_on_c, 0, 70, 0
1, 24288, Note_on_c, 0, 65, 80
1, 24288, Note_on_c, 1, 58, 80
1, 24311, Note_on_c, 0, 65, 0
1, 24312, Note_on_c, 0, 68, 80
1, 24333, Note_on_c, 1, 58, 0
1, 24335, Note_on_c, 0, 68, 0
1, 24336, Note_on_c, 0, 65, 80
1, 24336, Note_on_c, 1, 58, 80
1, 24359, Note_on_c, 0, 65, 0
1, 24360, Note_on_c, 0, 68, 80
1, 24381, Note_on_c, 1, 58, 0
1, 24383, Note_on_c, 0, 68, 0
1, 24384, Note_on_c, 0, 63, 80
1, 24384, Note_on_c, 1, 46, 80
1, 24407, Note_on_c, 0, 63, 0
1, 24408, Note_on_c, 0, 67, 80
1, 24429, Note_on_c, 1, 46, 0
1, 24431, Note_on_c, 0, 67, 0
1, 24432, Note_on_c, 0, 63, 80
1, 24432, Note_on_c, 1, 46, 80
1, 24455, Note_on_c, 0, 63, 0
1, 24456, Note_on_c, 0, 67, 80
1, 24477, Note_on_c, 1, 46, 0
1, 24479, Note_on_c, 0, 67, 0
1, 24480, Note_on_c, 0, 62, 80
1, 24480, Note_on_c, 1, 46, 80
1, 24503, Note_on_c, 0, 62, 0
1, 24504, Note_on_c, 0, 65, 80
1, 24525, Note_on_c, 1, 46, 0
1, 24527, Note_on_c, 0, 65, 0
1, 24528, Note_on_c, 0, 62, 80
1, 24528, Note_on_c, 1, 46, 80
1, 24551, Note_on_c, 0, 62, 0
1, 24552, Note_on_c, 0, 65, 80
1, 24573, Note_on_c, 1, 46, 0
1, 24575, Note_on_c, 0, 65, 0
1, 24576, Note_on_c, 0, 63, 80
1, 24576, Note_on_c, 1, 51, 80
1, 24599, Note_on_c, 0, 63, 0
1, 24600, Note_on_c, 0, 58, 80
1, 24621, Note_on_c, 1, 51, 0
1, 24623, Note_on_c, 0, 58, 0
1, 24624, Note_on_c, 0, 63, 80
1, 24624, Note_on_c, 1, 55, 80
1, 24647, Note_on_c, 0, 63, 0
1, 24648, Note_on_c, 0, 58, 80
1, 24669, Note_on_c, 1, 55, 0
1, 24671, Note_on_c, 0, 58, 0
1, 24672, Note_on_c, 0, 63, 80
1, 24672, Note_on_c, 1, 51, 80
1, 24695, Note_on_c, 0, 63, 0
1, 24696, Note_on_c, 0, 58, 80
1, 24717, Note_on_c, 1, 51, 0
1, 24719, Note_on_c, 0, 58, 0
1, 24720, Note_on_c, 0, 63, 80
1, 24720, Note_on_c, 1, 55, 80
1, 24743, Note_on_c, 0, 63, 0
1, 24744, Note_on_c, 0, 58, 80
1, 24765, Note_on_c, 1, 55, 0
1, 24767, Note_on_c, 0, 58, 0
1, 24768, Note_on_c, 0, 63, 80
1, 24768, Note_on_c, 1, 51, 80
1, 24857, Note_on_c, 0, 63, 0
1, 24857, Note_on_c, 1, 51, 0
1, 24912, Note_on_c, 0, 79, 64
1, 24957, Note_on_c, 0, 79, 0
1, 24960, Note_on_c, 0, 80, 64
1, 25005, Note_on_c, 0, 80, 0
1, 25008, Note_on_c, 0, 81, 64
1, 25053, Note_on_c, 0, 81, 0
1, 25056, Note_on_c, 0, 82, 64
1, 25101, Note_on_c, 0, 82, 0
1, 25104, Note_on_c, 0, 83, 64
1, 25149, Note_on_c, 0, 83, 0
1, 25152, Note_on_c, 0, 84, 64
1, 25152, Note_on_c, 1, 63, 64
1, 25200, Note_on_c, 0, 84, 0
1, 25200, Note_on_c, 0, 79, 64
1, 25200, Note_on_c, 1, 67, 64
1, 25245, Note_on_c, 0, 79, 0
1, 25245, Note_on_c, 1, 67, 0
1, 25248, Note_on_c, 1, 72, 64
1, 25293, Note_on_c, 1, 72, 0
1, 25296, Note_on_c, 0, 79, 64
1, 25296, Note_on_c, 1, 67, 64
1, 25329, Note_on_c, 1, 63, 0
1, 25341, Note_on_c, 0, 79, 0
1, 25341, Note_on_c, 1, 67, 0
1, 25344, Note_on_c, 0, 79, 64
1, 25344, Note_on_c, 1, 62, 64
1, 25389, Note_on_c, 0, 79, 0
1, 25392, Note_on_c, 0, 77, 64
1, 25392, Note_on_c, 1, 67, 64
1, 25437, Note_on_c, 0, 77, 0
1, 25437, Note_on_c, 1, 67, 0
1, 25440, Note_on_c, 0, 80, 64
1, 25440, Note_on_c, 1, 71, 64
1, 25485, Note_on_c, 0, 80, 0
1, 25485, Note_on_c, 1, 71, 0
1, 25488, Note_on_c, 0, 77, 64
1, 25488, Note_on_c, 1, 67, 64
1, 25521, Note_on_c, 1, 62, 0
1, 25533, Note_on_c, 0, 77, 0
1, 25533, Note_on_c, 1, 67, 0
1, 25536, Note_on_c, 0, 77, 64
1, 25536, Note_on_c, 1, 60, 64
1, 25584, Note_on_c, 0, 77, 0
1, 25584, Note_on_c, 0, 75, 64
1, 25584, Note_on_c, 1, 63, 64
1, 25629, Note_on_c, 0, 75, 0
1, 25629, Note_on_c, 1, 63, 0
1, 25632, Note_on_c, 1, 67, 64
1, 25677, Note_on_c, 1, 67, 0
1, 25680, Note_on_c, 0, 79, 64
1, 25680, Note_on_c, 1, 63, 64
1, 25713, Note_on_c, 1, 60, 0
1, 25725, Note_on_c, 0, 79, 0
1, 25725, Note_on_c, 1, 63, 0
1, 25728, Note_on_c, 0, 80, 66
1, 25728, Note_on_c, 1, 58, 64
1, 25773, Note_on_c, 0, 80, 0
1, 25776, Note_on_c, 0, 81, 69
1, 25776, Note_on_c, 1, 63, 69
1, 25821, Note_on_c, 0, 81, 0
1, 25821, Note_on_c, 1, 63, 0
1, 25824, Note_on_c, 0, 82, 72
1, 25824, Note_on_c, 1, 67, 72
1, 25869, Note_on_c, 0, 82, 0
1, 25869, Note_on_c, 1, 67, 0
1, 25872, Note_on_c, 0, 83, 74
1, 25872, Note_on_c, 1, 63, 74
1, 25905, Note_on_c, 1, 58, 0
1, 25917, Note_on_c, 0, 83, 0
1, 25917, Note_on_c, 1, 63, 0
1, 25920, Note_on_c, 0, 84, 77
1, 25920, Note_on_c, 1, 57, 72
1, 25965, Note_on_c, 0, 84, 0
1, 25968, Note_on_c, 0, 84, 80
1, 25968, Note_on_c, 1, 60, 80
1, 25980, Note_on_c, 0, 84, 0
1, 25980, Note_on_c, 0, 83, 80
1, 25992, Note_on_c, 0, 83, 0
1, 25992, Note_on_c, 0, 84, 80
1, 26004, Note_on_c, 0, 84, 0
1, 26004, Note_on_c, 0, 86, 80
1, 26013, Note_on_c, 1, 60, 0
1, 26016, Note_on_c, 0, 86, 0
1, 26016, Note_on_c, 0, 87, 80
1, 26016, Note_on_c, 1, 65, 80
1, 26061, Note_on_c, 1, 65, 0
1, 26064, Note_on_c, 1, 60, 80
1, 26097, Note_on_c, 1, 57, 0
1, 26109, Note_on_c, 1, 60, 0
1, 26112, Note_on_c, 1, 57, 80
1, 26135, Note_on_c, 0, 87, 0
1, 26136, Note_on_c, 0, 86, 80
1, 26159, Note_on_c, 0, 86, 0
1, 26160, Note_on_c, 0, 84, 80
1, 26160, Note_on_c, 1, 60, 80
1, 26183, Note_on_c, 0, 84, 0
1, 26184, Note_on_c, 0, 82, 80
1, 26205, Note_on_c, 1, 60, 0
1, 26207, Note_on_c, 0, 82, 0
1, 26208, Note_on_c, 0, 81, 80
1, 26208, Note_on_c, 1, 65, 80
1, 26231, Note_on_c, 0, 81, 0
1, 26232, Note_on_c, 0, 79, 80
1, 26253, Note_on_c, 1, 65, 0
1, 26255, Note_on_c, 0, 79, 0
1, 26256, Note_on_c, 0, 77, 80
1, 26256, Note_on_c, 1, 60, 80
1, 26279, Note_on_c, 0, 77, 0
1, 26280, Note_on_c, 0, 75, 80
1, 26289, Note_on_c, 1, 57, 0
1, 26301, Note_on_c, 1, 60, 0
1, 26303, Note_on_c, 0, 75, 0
1, 26304, Note_on_c, 0, 74, 80
1, 26304, Note_on_c, 1, 58, 80
1, 26324, Note_on_c, 0, 74, 0
1, 26349, Note_on_c, 1, 58, 0
1, 26352, Note_on_c, 0, 89, 96
1, 26352, Note_on_c, 1, 62, 80
1, 26397, Note_on_c, 1, 62, 0
1, 26400, Note_on_c, 1, 60, 80
1, 26445, Note_on_c, 1, 60, 0
1, 26448, Note_on_c, 0, 89, 0
1, 26448, Note_on_c, 0, 81, 80
1, 26448, Note_on_c, 1, 63, 80
1, 26493, Note_on_c, 1, 63, 0
1, 26496, Note_on_c, 1, 62, 80
1, 26541, Note_on_c, 0, 81, 0
1, 26541, Note_on_c, 1, 62, 0
1, 26544, Note_on_c, 0, 82, 80
1, 26544, Note_on_c, 1, 65, 80
1, 26589, Note_on_c, 1, 65, 0
1, 26592, Note_on_c, 1, 50, 80
1, 26633, Note_on_c, 0, 82, 0
1, 26637, Note_on_c, 1, 50, 0
1, 26640, Note_on_c, 0, 80, 80
1, 26640, Note_on_c, 1, 58, 80
1, 26685, Note_on_c, 1, 58, 0
1, 26688, Note_on_c, 1, 51, 80
1, 26733, Note_on_c, 0, 80, 0
1, 26733, Note_on_c, 1, 51, 0
1, 26736, Note_on_c, 0, 79, 80
1, 26736, Note_on_c, 1, 58, 80
1, 26781, Note_on_c, 1, 58, 0
1, 26784, Note_on_c, 1, 53, 80
1, 26825, Note_on_c, 0, 79, 0
1, 26829, Note_on_c, 1, 53, 0
1, 26832, Note_on_c, 0, 77, 80
1, 26832, Note_on_c, 1, 58, 80
1, 26877, Note_on_c, 1, 58, 0
1, 26880, Note_on_c, 1, 55, 80
1, 26925, Note_on_c, 0, 77, 0
1, 26925, Note_on_c, 1, 55, 0
1, 26928, Note_on_c, 0, 76, 80
1, 26928, Note_on_c, 1, 58, 80
1, 26973, Note_on_c, 1, 58, 0
1, 26976, Note_on_c, 1, 54, 80
1, 27017, Note_on_c, 0, 76, 0
1, 27021, Note_on_c, 1, 54, 0
1, 27024, Note_on_c, 0, 75, 80
1, 27024, Note_on_c, 1, 58, 80
1, 27069, Note_on_c, 1, 58, 0
1, 27072, Note_on_c, 1, 53, 80
1, 27117, Note_on_c, 0, 75, 0
1, 27117, Note_on_c, 1, 53, 0
1, 27120, Note_on_c, 0, 74, 78
1, 27120, Note_on_c, 1, 58, 78
1, 27165, Note_on_c, 1, 58, 0
1, 27168, Note_on_c, 1, 52, 77
1, 27209, Note_on_c, 0, 74, 0
1, 27213, Note_on_c, 1, 52, 0
1, 27216, Note_on_c, 0, 73, 76
1, 27216, Note_on_c, 1, 58, 76
1, 27261, Note_on_c, 1, 58, 0
1, 27264, Note_on_c, 1, 52, 75
1, 27309, Note_on_c, 0, 73, 0
1, 27309, Note_on_c, 1, 52, 0
1, 27312, Note_on_c, 0, 72, 73
1, 27312, Note_on_c, 1, 60, 74
1, 27357, Note_on_c, 1, 60, 0
1, 27360, Note_on_c, 1, 52, 73
1, 27401, Note_on_c, 0, 72, 0
1, 27405, Note_on_c, 1, 52, 0
1, 27408, Note_on_c, 0, 70, 71
1, 27408, Note_on_c, 1, 61, 72
1, 27453, Note_on_c, 1, 61, 0
1, 27456, Note_on_c, 1, 53, 70
1, 27501, Note_on_c, 0, 70, 0
1, 27501, Note_on_c, 1, 53, 0
1, 27504, Note_on_c, 0, 69, 68
1, 27504, Note_on_c, 1, 60, 69
1, 27549, Note_on_c, 1, 60, 0
1, 27552, Note_on_c, 1, 52, 68
1, 27593, Note_on_c, 0, 69, 0
1, 27597, Note_on_c, 1, 52, 0
1, 27600, Note_on_c, 0, 70, 66
1, 27600, Note_on_c, 1, 61, 67
1, 27645, Note_on_c, 0, 70, 0
1, 27645, Note_on_c, 1, 61, 0
1, 27648, Note_on_c, 0, 69, 65
1, 27648, Note_on_c, 1, 60, 66
1, 27648, Note_on_c, 1, 53, 66
1, 27693, Note_on_c, 0, 69, 0
1, 27696, Note_on_c, 0, 77, 64
1, 27737, Note_on_c, 1, 60, 0
1, 27737, Note_on_c, 1, 53, 0
1, 27741, Note_on_c, 0, 77, 0
1, 27744, Note_on_c, 0, 77, 64
1, 27789, Note_on_c, 0, 77, 0
1, 27792, Note_on_c, 0, 77, 80
1, 27837, Note_on_c, 0, 77, 0
1, 27840, Note_on_c, 0, 77, 64
1, 27885, Note_on_c, 0, 77, 0
1, 27888, Note_on_c, 0, 77, 64
1, 27933, Note_on_c, 0, 77, 0
1, 27936, Note_on_c, 0, 77, 64
1, 27981, Note_on_c, 0, 77, 0
1, 27984, Note_on_c, 0, 77, 80
1, 27984, Note_on_c, 0, 76, 80
1, 28029, Note_on_c, 0, 77, 0
1, 28029, Note_on_c, 0, 76, 0
1, 28032, Note_on_c, 0, 77, 64
1, 28032, Note_on_c, 0, 76, 64
1, 28077, Note_on_c, 0, 77, 0
1, 28077, Note_on_c, 0, 76, 0
1, 28080, Note_on_c, 0, 77, 64
1, 28080, Note_on_c, 0, 76, 64
1, 28125, Note_on_c, 0, 77, 0
1, 28125, Note_on_c, 0, 76, 0
1, 28128, Note_on_c, 0, 77, 64
1, 28128, Note_on_c, 0, 76, 64
1, 28173, Note_on_c, 0, 77, 0
1, 28173, Note_on_c, 0, 76, 0
1, 28176, Note_on_c, 0, 77, 80
1, 28176, Note_on_c, 0, 75, 80
1, 28176, Note_on_c, 1, 65, 80
1, 28221, Note_on_c, 0, 77, 0
1, 28221, Note_on_c, 0, 75, 0
1, 28221, Note_on_c, 1, 65, 0
1, 28224, Note_on_c, 0, 77, 64
1, 28224, Note_on_c, 0, 75, 64
1, 28224, Note_on_c, 1, 66, 64
1, 28269, Note_on_c, 0, 77, 0
1, 28269, Note_on_c, 0, 75, 0
1, 28269, Note_on_c, 1, 66, 0
1, 28272, Note_on_c, 0, 77, 64
1, 28272, Note_on_c, 0, 75, 64
1, 28272, Note_on_c, 1, 67, 64
1, 28317, Note_on_c, 0, 77, 0
1, 28317, Note_on_c, 0, 75, 0
1, 28317, Note_on_c, 1, 67, 0
1, 28320, Note_on_c, 0, 77, 64
1, 28320, Note_on_c, 0, 75, 64
1, 28320, Note_on_c, 1, 68, 64
1, 28365, Note_on_c, 0, 77, 0
1, 28365, Note_on_c, 0, 75, 0
1, 28365, Note_on_c, 1, 68, 0
1, 28368, Note_on_c, 0, 77, 80
1, 28368, Note_on_c, 0, 75, 80
1, 28368, Note_on_c, 1, 69, 80
1, 28413, Note_on_c, 0, 77, 0
1, 28413, Note_on_c, 0, 75, 0
1, 28413, Note_on_c, 1, 69, 0
1, 28416, Note_on_c, 0, 77, 64
1, 28416, Note_on_c, 0, 74, 64
1, 28416, Note_on_c, 1, 70, 64
1, 28461, Note_on_c, 0, 77, 0
1, 28461, Note_on_c, 0, 74, 0
1, 28464, Note_on_c, 0, 77, 64
1, 28464, Note_on_c, 0, 74, 64
1, 28509, Note_on_c, 0, 77, 0
1, 28509, Note_on_c, 0, 74, 0
1, 28512, Note_on_c, 0, 77, 64
1, 28512, Note_on_c, 0, 74, 64
1, 28549, Note_on_c, 1, 70, 0
1, 28557, Note_on_c, 0, 77, 0
1, 28557, Note_on_c, 0, 74, 0
1, 28560, Note_on_c, 0, 89, 86
1, 28560, Note_on_c, 0, 86, 86
1, 28560, Note_on_c, 0, 82, 86
1, 28560, Note_on_c, 0, 77, 86
1, 28560, Note_on_c, 1, 65, 86
1, 28560, Note_on_c, 1, 62, 86
1, 28560, Note_on_c, 1, 58, 86
1, 28605, Note_on_c, 0, 89, 0
1, 28605, Note_on_c, 0, 86, 0
1, 28605, Note_on_c, 0, 82, 0
1, 28605, Note_on_c, 0, 77, 0
1, 28605, Note_on_c, 1, 65, 0
1, 28605, Note_on_c, 1, 62, 0
1, 28605, Note_on_c, 1, 58, 0
1, 28608, Note_on_c, 0, 89, 86
1, 28608, Note_on_c, 0, 86, 86
1, 28608, Note_on_c, 0, 82, 86
1, 28608, Note_on_c, 0, 77, 86
1, 28608, Note_on_c, 1, 65, 86
1, 28608, Note_on_c, 1, 62, 86
1, 28608, Note_on_c, 1, 58, 86
1, 28653, Note_on_c, 0, 89, 0
1, 28653, Note_on_c, 0, 86, 0
1, 28653, Note_on_c, 0, 82, 0
1, 28653, Note_on_c, 0, 77, 0
1, 28653, Note_on_c, 1, 65, 0
1, 28653, Note_on_c, 1, 62, 0
1, 28653, Note_on_c, 1, 58, 0
1, 28656, Note_on_c, 0, 89, 86
1, 28656, Note_on_c, 0, 86, 86
1, 28656, Note_on_c, 0, 82, 86
1, 28656, Note_on_c, 0, 77, 86
1, 28656, Note_on_c, 1, 65, 86
1, 28656, Note_on_c, 1, 62, 86
1, 28656, Note_on_c, 1, 58, 86
1, 28701, Note_on_c, 0, 89, 0
1, 28701, Note_on_c, 0, 86, 0
1, 28701, Note_on_c, 0, 82, 0
1, 28701, Note_on_c, 0, 77, 0
1, 28701, Note_on_c, 1, 65, 0
1, 28701, Note_on_c, 1, 62, 0
1, 28701, Note_on_c, 1, 58, 0
1, 28704, Note_on_c, 0, 89, 86
1, 28704, Note_on_c, 0, 86, 86
1, 28704, Note_on_c, 0, 82, 86
1, 28704, Note_on_c, 0, 77, 86
1, 28704, Note_on_c, 1, 65, 86
1, 28704, Note_on_c, 1, 62, 86
1, 28704, Note_on_c, 1, 58, 86
1, 28749, Note_on_c, 0, 89, 0
1, 28749, Note_on_c, 0, 86, 0
1, 28749, Note_on_c, 0, 82, 0
1, 28749, Note_on_c, 0, 77, 0
1, 28749, Note_on_c, 1, 65, 0
1, 28749, Note_on_c, 1, 62, 0
1, 28749, Note_on_c, 1, 58, 0
1, 28752, Note_on_c, 0, 89, 86
1, 28752, Note_on_c, 0, 86, 86
1, 28752, Note_on_c, 0, 82, 86
1, 28752, Note_on_c, 0, 77, 86
1, 28752, Note_on_c, 1, 65, 86
1, 28752, Note_on_c, 1, 62, 86
1, 28752, Note_on_c, 1, 58, 86
1, 28797, Note_on_c, 0, 89, 0
1, 28797, Note_on_c, 0, 86, 0
1, 28797, Note_on_c, 0, 82, 0
1, 28797, Note_on_c, 0, 77, 0
1, 28797, Note_on_c, 1, 65, 0
1, 28797, Note_on_c, 1, 62, 0
1, 28797, Note_on_c, 1, 58, 0
1, 28800, Note_on_c, 0, 81, 102
1, 28800, Note_on_c, 0, 75, 102
1, 28800, Note_on_c, 1, 60, 102
1, 28800, Note_on_c, 1, 53, 102
1, 28896, Note_on_c, 0, 81, 0
1, 28896, Note_on_c, 0, 75, 0
1, 28896, Note_on_c, 0, 82, 86
1, 28896, Note_on_c, 0, 74, 86
1, 28896, Note_on_c, 1, 60, 0
1, 28896, Note_on_c, 1, 53, 0
1, 28896, Note_on_c, 1, 62, 86
1, 28896, Note_on_c, 1, 58, 86
1, 28941, Note_on_c, 0, 82, 0
1, 28941, Note_on_c, 0, 74, 0
1, 28941, Note_on_c, 1, 62, 0
1, 28941, Note_on_c, 1, 58, 0
1, 28944, Note_on_c, 0, 77, 86
1, 28944, Note_on_c, 0, 74, 86
1, 28944, Note_on_c, 1, 62, 86
1, 28944, Note_on_c, 1, 58, 86
1, 28989, Note_on_c, 0, 77, 0
1, 28989, Note_on_c, 0, 74, 0
1, 28989, Note_on_c, 1, 62, 0
1, 28989, Note_on_c, 1, 58, 0
1, 28992, Note_on_c, 0, 81, 102
1, 28992, Note_on_c, 0, 75, 102
1, 28992, Note_on_c, 1, 60, 102
1, 28992, Note_on_c, 1, 53, 102
1, 29088, Note_on_c, 0, 81, 0
1, 29088, Note_on_c, 0, 75, 0
1, 29088, Note_on_c, 0, 82, 86
1, 29088, Note_on_c, 0, 74, 86
1, 29088, Note_on_c, 1, 60, 0
1, 29088, Note_on_c, 1, 53, 0
1, 29088, Note_on_c, 1, 62, 86
1, 29088, Note_on_c, 1, 58, 86
1, 29133, Note_on_c, 0, 82, 0
1, 29133, Note_on_c, 0, 74, 0
1, 29133, Note_on_c, 1, 62, 0
1, 29133, Note_on_c, 1, 58, 0
1, 29136, Note_on_c, 0, 77, 86
1, 29136, Note_on_c, 0, 74, 86
1, 29136, Note_on_c, 1, 62, 86
1, 29136, Note_on_c, 1, 58, 86
1, 29181, Note_on_c, 0, 77, 0
1, 29181, Note_on_c, 0, 74, 0
1, 29181, Note_on_c, 1, 62, 0
1, 29181, Note_on_c, 1, 58, 0
1, 29184, Note_on_c, 0, 81, 102
1, 29184, Note_on_c, 0, 75, 102
1, 29184, Note_on_c, 1, 60, 102
1, 29184, Note_on_c, 1, 53, 102
1, 29280, Note_on_c, 0, 81, 0
1, 29280, Note_on_c, 0, 75, 0
1, 29280, Note_on_c, 0, 82, 86
1, 29280, Note_on_c, 0, 74, 86
1, 29280, Note_on_c, 1, 60, 0
1, 29280, Note_on_c, 1, 53, 0
1, 29280, Note_on_c, 1, 62, 86
1, 29280, Note_on_c, 1, 58, 86
1, 29325, Note_on_c, 0, 82, 0
1, 29325, Note_on_c, 0, 74, 0
1, 29325, Note_on_c, 1, 62, 0
1, 29325, Note_on_c, 1, 58, 0
1, 29328, Note_on_c, 0, 83, 86
1, 29328, Note_on_c, 0, 74, 86
1, 29328, Note_on_c, 1, 65, 86
1, 29328, Note_on_c, 1, 56, 86
1, 29373, Note_on_c, 0, 83, 0
1, 29373, Note_on_c, 0, 74, 0
1, 29373, Note_on_c, 1, 65, 0
1, 29373, Note_on_c, 1, 56, 0
1, 29376, Note_on_c, 0, 83, 86
1, 29376, Note_on_c, 0, 74, 86
1, 29376, Note_on_c, 1, 65, 86
1, 29376, Note_on_c, 1, 56, 86
1, 29553, Note_on_c, 0, 83, 0
1, 29553, Note_on_c, 0, 74, 0
1, 29568, Note_on_c, 0, 84, 86
1, 29568, Note_on_c, 0, 72, 64
1, 29568, Note_on_c, 1, 65, 0
1, 29568, Note_on_c, 1, 63, 80
1, 29657, Note_on_c, 0, 84, 0
1, 29657, Note_on_c, 1, 56, 0
1, 29664, Note_on_c, 0, 82, 86
1, 29664, Note_on_c, 1, 54, 86
1, 29753, Note_on_c, 0, 82, 0
1, 29753, Note_on_c, 1, 54, 0
1, 29760, Note_on_c, 0, 81, 86
1, 29760, Note_on_c, 1, 53, 86
1, 29952, Note_on_c, 0, 81, 0
1, 29952, Note_on_c, 0, 82, 70
1, 29952, Note_on_c, 0, 72, 0
1, 29952, Note_on_c, 0, 70, 70
1, 29952, Note_on_c, 1, 53, 0
1, 29952, Note_on_c, 1, 55, 70
1, 29952, Note_on_c, 1, 63, 0
1, 29952, Note_on_c, 1, 62, 80
1, 30019, Note_on_c, 0, 82, 0
1, 30019, Note_on_c, 0, 70, 0
1, 30019, Note_on_c, 1, 55, 0
1, 30019, Note_on_c, 1, 62, 0
1, 30048, Note_on_c, 0, 78, 70
1, 30048, Note_on_c, 0, 70, 64
1, 30048, Note_on_c, 1, 74, 70
1, 30137, Note_on_c, 0, 78, 0
1, 30137, Note_on_c, 0, 70, 0
1, 30137, Note_on_c, 1, 74, 0
1, 30144, Note_on_c, 0, 78, 70
1, 30144, Note_on_c, 0, 70, 64
1, 30144, Note_on_c, 1, 74, 70
1, 30321, Note_on_c, 1, 74, 0
1, 30336, Note_on_c, 0, 78, 0
1, 30336, Note_on_c, 0, 79, 70
1, 30336, Note_on_c, 1, 75, 70
1, 30425, Note_on_c, 0, 79, 0
1, 30425, Note_on_c, 0, 70, 0
1, 30425, Note_on_c, 1, 75, 0
1, 30432, Note_on_c, 0, 79, 80
1, 30432, Note_on_c, 0, 71, 80
1, 30432, Note_on_c, 1, 51, 80
1, 30521, Note_on_c, 0, 79, 0
1, 30521, Note_on_c, 0, 71, 0
1, 30521, Note_on_c, 1, 51, 0
1, 30528, Note_on_c, 0, 79, 80
1, 30528, Note_on_c, 0, 71, 80
1, 30528, Note_on_c, 1, 63, 80
1, 30528, Note_on_c, 1, 51, 80
1, 30720, Note_on_c, 0, 71, 0
1, 30720, Note_on_c, 0, 74, 80
1, 30765, Note_on_c, 0, 74, 0
1, 30768, Note_on_c, 0, 72, 80
1, 30813, Note_on_c, 0, 72, 0
1, 30816, Note_on_c, 0, 75, 80
1, 30861, Note_on_c, 0, 75, 0
1, 30864, Note_on_c, 0, 74, 80
1, 30909, Note_on_c, 0, 74, 0
1, 30912, Note_on_c, 0, 77, 80
1, 30957, Note_on_c, 0, 77, 0
1, 30960, Note_on_c, 0, 75, 80
1, 31001, Note_on_c, 0, 79, 0
1, 31005, Note_on_c, 0, 75, 0
1, 31008, Note_on_c, 0, 80, 80
1, 31008, Note_on_c, 0, 77, 80
1, 31053, Note_on_c, 0, 80, 0
1, 31053, Note_on_c, 0, 77, 0
1, 31056, Note_on_c, 0, 79, 80
1, 31056, Note_on_c, 0, 75, 80
1, 31101, Note_on_c, 0, 79, 0
1, 31101, Note_on_c, 0, 75, 0
1, 31104, Note_on_c, 0, 78, 96
1, 31104, Note_on_c, 0, 74, 96
1, 31152, Note_on_c, 0, 78, 0
1, 31152, Note_on_c, 0, 74, 0
1, 31152, Note_on_c, 0, 79, 80
1, 31152, Note_on_c, 0, 75, 80
1, 31197, Note_on_c, 0, 79, 0
1, 31197, Note_on_c, 0, 75, 0
1, 31200, Note_on_c, 0, 77, 80
1, 31200, Note_on_c, 0, 74, 80
1, 31245, Note_on_c, 0, 77, 0
1, 31245, Note_on_c, 0, 74, 0
1, 31248, Note_on_c, 0, 75, 80
1, 31248, Note_on_c, 0, 72, 80
1, 31281, Note_on_c, 1, 63, 0
1, 31281, Note_on_c, 1, 51, 0
1, 31293, Note_on_c, 0, 75, 0
1, 31293, Note_on_c, 0, 72, 0
1, 31296, Note_on_c, 0, 74, 80
1, 31296, Note_on_c, 0, 70, 80
1, 31296, Note_on_c, 1, 65, 80
1, 31296, Note_on_c, 1, 53, 80
1, 31429, Note_on_c, 0, 74, 0
1, 31429, Note_on_c, 0, 70, 0
1, 31440, Note_on_c, 0, 77, 80
1, 31440, Note_on_c, 0, 74, 80
1, 31473, Note_on_c, 1, 65, 0
1, 31473, Note_on_c, 1, 53, 0
1, 31485, Note_on_c, 0, 77, 0
1, 31485, Note_on_c, 0, 74, 0
1, 31488, Note_on_c, 0, 77, 80
1, 31488, Note_on_c, 0, 74, 80
1, 31488, Note_on_c, 1, 53, 80
1, 31488, Note_on_c, 1, 41, 80
1, 31533, Note_on_c, 0, 77, 0
1, 31533, Note_on_c, 0, 74, 0
1, 31536, Note_on_c, 0, 75, 80
1, 31536, Note_on_c, 0, 72, 80
1, 31581, Note_on_c, 0, 75, 0
1, 31581, Note_on_c, 0, 72, 0
1, 31584, Note_on_c, 0, 74, 80
1, 31584, Note_on_c, 0, 70, 80
1, 31629, Note_on_c, 0, 74, 0
1, 31629, Note_on_c, 0, 70, 0
1, 31632, Note_on_c, 0, 72, 80
1, 31632, Note_on_c, 0, 69, 80
1, 31665, Note_on_c, 1, 53, 0
1, 31665, Note_on_c, 1, 41, 0
1, 31677, Note_on_c, 0, 72, 0
1, 31677, Note_on_c, 0, 69, 0
1, 31680, Note_on_c, 0, 70, 80
1, 31703, Note_on_c, 0, 70, 0
1, 31704, Note_on_c, 0, 77, 79
1, 31727, Note_on_c, 0, 77, 0
1, 31728, Note_on_c, 0, 74, 78
1, 31751, Note_on_c, 0, 74, 0
1, 31752, Note_on_c, 0, 70, 77
1, 31775, Note_on_c, 0, 70, 0
1, 31776, Note_on_c, 0, 65, 76
1, 31799, Note_on_c, 0, 65, 0
1, 31800, Note_on_c, 0, 62, 75
1, 31823, Note_on_c, 0, 62, 0
1, 31824, Note_on_c, 0, 58, 74
1, 31847, Note_on_c, 0, 58, 0
1, 31848, Note_on_c, 0, 62, 73
1, 31871, Note_on_c, 0, 62, 0
1, 31872, Note_on_c, 0, 69, 72
1, 31895, Note_on_c, 0, 69, 0
1, 31896, Note_on_c, 0, 77, 71
1, 31919, Note_on_c, 0, 77, 0
1, 31920, Note_on_c, 0, 75, 70
1, 31943, Note_on_c, 0, 75, 0
1, 31944, Note_on_c, 0, 72, 69
1, 31967, Note_on_c, 0, 72, 0
1, 31968, Note_on_c, 0, 69, 68
1, 31991, Note_on_c, 0, 69, 0
1, 31992, Note_on_c, 0, 65, 67
1, 32015, Note_on_c, 0, 65, 0
1, 32016, Note_on_c, 0, 60, 66
1, 32039, Note_on_c, 0, 60, 0
1, 32040, Note_on_c, 0, 63, 65
1, 32063, Note_on_c, 0, 63, 0
1, 32064, Note_on_c, 0, 70, 64
1, 32087, Note_on_c, 0, 70, 0
1, 32088, Note_on_c, 0, 77, 64
1, 32111, Note_on_c, 0, 77, 0
1, 32112, Note_on_c, 0, 74, 64
1, 32135, Note_on_c, 0, 74, 0
1, 32136, Note_on_c, 0, 70, 64
1, 32159, Note_on_c, 0, 70, 0
1, 32160, Note_on_c, 0, 65, 64
1, 32183, Note_on_c, 0, 65, 0
1, 32184, Note_on_c, 0, 62, 64
1, 32207, Note_on_c, 0, 62, 0
1, 32208, Note_on_c, 0, 58, 64
1, 32231, Note_on_c, 0, 58, 0
1, 32232, Note_on_c, 0, 62, 64
1, 32255, Note_on_c, 0, 62, 0
1, 32256, Note_on_c, 0, 69, 64
1, 32279, Note_on_c, 0, 69, 0
1, 32280, Note_on_c, 0, 77, 64
1, 32303, Note_on_c, 0, 77, 0
1, 32304, Note_on_c, 0, 75, 64
1, 32327, Note_on_c, 0, 75, 0
1, 32328, Note_on_c, 0, 72, 64
1, 32351, Note_on_c, 0, 72, 0
1, 32352, Note_on_c, 0, 69, 64
1, 32375, Note_on_c, 0, 69, 0
1, 32376, Note_on_c, 0, 65, 64
1, 32399, Note_on_c, 0, 65, 0
1, 32400, Note_on_c, 0, 60, 64
1, 32423, Note_on_c, 0, 60, 0
1, 32424, Note_on_c, 0, 63, 64
1, 32447, Note_on_c, 0, 63, 0
1, 32448, Note_on_c, 0, 77, 64
1, 32471, Note_on_c, 0, 77, 0
1, 32472, Note_on_c, 0, 74, 64
1, 32495, Note_on_c, 0, 74, 0
1, 32496, Note_on_c, 0, 62, 65
1, 32519, Note_on_c, 0, 62, 0
1, 32520, Note_on_c, 0, 70, 66
1, 32543, Note_on_c, 0, 70, 0
1, 32544, Note_on_c, 0, 79, 67
1, 32567, Note_on_c, 0, 79, 0
1, 32568, Note_on_c, 0, 70, 68
1, 32591, Note_on_c, 0, 70, 0
1, 32592, Note_on_c, 0, 63, 69
1, 32615, Note_on_c, 0, 63, 0
1, 32616, Note_on_c, 0, 70, 69
1, 32639, Note_on_c, 0, 70, 0
1, 32640, Note_on_c, 0, 81, 70
1, 32663, Note_on_c, 0, 81, 0
1, 32664, Note_on_c, 0, 70, 71
1, 32687, Note_on_c, 0, 70, 0
1, 32688, Note_on_c, 0, 65, 72
1, 32711, Note_on_c, 0, 65, 0
1, 32712, Note_on_c, 0, 70, 73
1, 32735, Note_on_c, 0, 70, 0
1, 32736, Note_on_c, 0, 82, 74
1, 32759, Note_on_c, 0, 82, 0
1, 32760, Note_on_c, 0, 70, 75
1, 32783, Note_on_c, 0, 70, 0
1, 32784, Note_on_c, 0, 67, 75
1, 32807, Note_on_c, 0, 67, 0
1, 32808, Note_on_c, 0, 70, 75
1, 32831, Note_on_c, 0, 70, 0
1, 32832, Note_on_c, 0, 77, 75
1, 32855, Note_on_c, 0, 77, 0
1, 32856, Note_on_c, 0, 74, 75
1, 32879, Note_on_c, 0, 74, 0
1, 32880, Note_on_c, 0, 62, 75
1, 32903, Note_on_c, 0, 62, 0
1, 32904, Note_on_c, 0, 70, 76
1, 32927, Note_on_c, 0, 70, 0
1, 32928, Note_on_c, 0, 79, 76
1, 32951, Note_on_c, 0, 79, 0
1, 32952, Note_on_c, 0, 70, 77
1, 32975, Note_on_c, 0, 70, 0
1, 32976, Note_on_c, 0, 63, 77
1, 32999, Note_on_c, 0, 63, 0
1, 33000, Note_on_c, 0, 70, 78
1, 33023, Note_on_c, 0, 70, 0
1, 33024, Note_on_c, 0, 81, 78
1, 33047, Note_on_c, 0, 81, 0
1, 33048, Note_on_c, 0, 70, 78
1, 33071, Note_on_c, 0, 70, 0
1, 33072, Note_on_c, 0, 65, 79
1, 33095, Note_on_c, 0, 65, 0
1, 33096, Note_on_c, 0, 70, 79
1, 33119, Note_on_c, 0, 70, 0
1, 33120, Note_on_c, 0, 82, 80
1, 33143, Note_on_c, 0, 82, 0
1, 33144, Note_on_c, 0, 70, 80
1, 33167, Note_on_c, 0, 70, 0
1, 33168, Note_on_c, 0, 67, 81
1, 33191, Note_on_c, 0, 67, 0
1, 33192, Note_on_c, 0, 70, 81
1, 33215, Note_on_c, 0, 70, 0
1, 33216, Note_on_c, 0, 85, 82
1, 33239, Note_on_c, 0, 85, 0
1, 33240, Note_on_c, 0, 73, 82
1, 33263, Note_on_c, 0, 73, 0
1, 33264, Note_on_c, 0, 66, 82
1, 33287, Note_on_c, 0, 66, 0
1, 33288, Note_on_c, 0, 70, 83
1, 33311, Note_on_c, 0, 70, 0
1, 33312, Note_on_c, 0, 82, 83
1, 33335, Note_on_c, 0, 82, 0
1, 33336, Note_on_c, 0, 70, 84
1, 33359, Note_on_c, 0, 70, 0
1, 33360, Note_on_c, 0, 66, 84
1, 33383, Note_on_c, 0, 66, 0
1, 33384, Note_on_c, 0, 70, 85
1, 33407, Note_on_c, 0, 70, 0
1, 33408, Note_on_c, 0, 88, 85
1, 33431, Note_on_c, 0, 88, 0
1, 33432, Note_on_c, 0, 76, 86
1, 33455, Note_on_c, 0, 76, 0
1, 33456, Note_on_c, 0, 66, 86
1, 33479, Note_on_c, 0, 66, 0
1, 33480, Note_on_c, 0, 70, 86
1, 33503, Note_on_c, 0, 70, 0
1, 33504, Note_on_c, 0, 82, 86
1, 33527, Note_on_c, 0, 82, 0
1, 33528, Note_on_c, 0, 70, 86
1, 33551, Note_on_c, 0, 70, 0
1, 33552, Note_on_c, 0, 66, 86
1, 33575, Note_on_c, 0, 66, 0
1, 33576, Note_on_c, 0, 70, 86
1, 33599, Note_on_c, 0, 70, 0
1, 33600, Note_on_c, 0, 81, 86
1, 33623, Note_on_c, 0, 81, 0
1, 33624, Note_on_c, 0, 69, 86
1, 33647, Note_on_c, 0, 69, 0
1, 33648, Note_on_c, 0, 65, 86
1, 33671, Note_on_c, 0, 65, 0
1, 33672, Note_on_c, 0, 53, 86
1, 33695, Note_on_c, 0, 53, 0
1, 33696, Note_on_c, 0, 77, 86
1, 33719, Note_on_c, 0, 77, 0
1, 33720, Note_on_c, 0, 65, 86
1, 33743, Note_on_c, 0, 65, 0
1, 33744, Note_on_c, 1, 60, 80
1, 33767, Note_on_c, 1, 60, 0
1, 33768, Note_on_c, 1, 48, 80
1, 33791, Note_on_c, 1, 48, 0
1, 33792, Note_on_c, 0, 72, 86
1, 33815, Note_on_c, 0, 72, 0
1, 33816, Note_on_c, 0, 60, 86
1, 33839, Note_on_c, 0, 60, 0
1, 33840, Note_on_c, 1, 57, 80
1, 33863, Note_on_c, 1, 57, 0
1, 33864, Note_on_c, 1, 45, 80
1, 33887, Note_on_c, 1, 45, 0
1, 33888, Note_on_c, 0, 69, 86
1, 33911, Note_on_c, 0, 69, 0
1, 33912, Note_on_c, 0, 57, 86
1, 33935, Note_on_c, 0, 57, 0
1, 33936, Note_on_c, 1, 53, 80
1, 33959, Note_on_c, 1, 53, 0
1, 33960, Note_on_c, 1, 41, 80
1, 33984, Note_on_c, 1, 29, 80
1, 34073, Note_on_c, 1, 41, 0
1, 34073, Note_on_c, 1, 29, 0
1, 34128, Note_on_c, 1, 63, 64
1, 34173, Note_on_c, 1, 63, 0
1, 34176, Note_on_c, 1, 63, 64
1, 34221, Note_on_c, 1, 63, 0
1, 34224, Note_on_c, 1, 63, 64
1, 34269, Note_on_c, 1, 63, 0
1, 34272, Note_on_c, 1, 63, 64
1, 34317, Note_on_c, 1, 63, 0
1, 34320, Note_on_c, 0, 72, 80
1, 34320, Note_on_c, 1, 63, 64
1, 34365, Note_on_c, 0, 72, 0
1, 34365, Note_on_c, 1, 63, 0
1, 34368, Note_on_c, 0, 65, 64
1, 34368, Note_on_c, 1, 63, 64
1, 34413, Note_on_c, 0, 65, 0
1, 34413, Note_on_c, 1, 63, 0
1, 34416, Note_on_c, 0, 66, 65
1, 34416, Note_on_c, 1, 63, 65
1, 34461, Note_on_c, 0, 66, 0
1, 34461, Note_on_c, 1, 63, 0
1, 34464, Note_on_c, 0, 65, 66
1, 34464, Note_on_c, 1, 63, 66
1, 34509, Note_on_c, 0, 65, 0
1, 34509, Note_on_c, 1, 63, 0
1, 34512, Note_on_c, 0, 75, 83
1, 34512, Note_on_c, 1, 63, 67
1, 34532, Note_on_c, 0, 75, 0
1, 34557, Note_on_c, 1, 63, 0
1, 34560, Note_on_c, 0, 69, 68
1, 34560, Note_on_c, 1, 63, 68
1, 34605, Note_on_c, 0, 69, 0
1, 34605, Note_on_c, 1, 63, 0
1, 34608, Note_on_c, 0, 70, 69
1, 34608, Note_on_c, 1, 63, 69
1, 34653, Note_on_c, 0, 70, 0
1, 34653, Note_on_c, 1, 63, 0
1, 34656, Note_on_c, 0, 69, 70
1, 34656, Note_on_c, 1, 63, 70
1, 34701, Note_on_c, 0, 69, 0
1, 34701, Note_on_c, 1, 63, 0
1, 34704, Note_on_c, 0, 78, 87
1, 34704, Note_on_c, 1, 63, 71
1, 34724, Note_on_c, 0, 78, 0
1, 34749, Note_on_c, 1, 63, 0
1, 34752, Note_on_c, 0, 72, 72
1, 34752, Note_on_c, 1, 63, 72
1, 34797, Note_on_c, 0, 72, 0
1, 34797, Note_on_c, 1, 63, 0
1, 34800, Note_on_c, 0, 73, 73
1, 34800, Note_on_c, 1, 63, 73
1, 34845, Note_on_c, 0, 73, 0
1, 34845, Note_on_c, 1, 63, 0
1, 34848, Note_on_c, 0, 72, 74
1, 34848, Note_on_c, 1, 63, 74
1, 34893, Note_on_c, 0, 72, 0
1, 34893, Note_on_c, 1, 63, 0
1, 34896, Note_on_c, 0, 81, 91
1, 34896, Note_on_c, 1, 63, 75
1, 34916, Note_on_c, 0, 81, 0
1, 34941, Note_on_c, 1, 63, 0
1, 34944, Note_on_c, 0, 77, 76
1, 34944, Note_on_c, 1, 63, 76
1, 34989, Note_on_c, 0, 77, 0
1, 34989, Note_on_c, 1, 63, 0
1, 34992, Note_on_c, 0, 78, 77
1, 34992, Note_on_c, 1, 63, 77
1, 35037, Note_on_c, 0, 78, 0
1, 35037, Note_on_c, 1, 63, 0
1, 35040, Note_on_c, 0, 77, 78
1, 35040, Note_on_c, 1, 63, 78
1, 35085, Note_on_c, 0, 77, 0
1, 35085, Note_on_c, 1, 63, 0
1, 35088, Note_on_c, 0, 89, 96
1, 35088, Note_on_c, 1, 63, 80
1, 35108, Note_on_c, 0, 89, 0
1, 35133, Note_on_c, 1, 63, 0
1, 35136, Note_on_c, 1, 62, 69
1, 35156, Note_on_c, 1, 62, 0
1, 35184, Note_on_c, 0, 89, 58
1, 35184, Note_on_c, 0, 86, 58
1, 35204, Note_on_c, 0, 89, 0
1, 35204, Note_on_c, 0, 86, 0
1, 35232, Note_on_c, 1, 63, 58
1, 35252, Note_on_c, 1, 63, 0
1, 35280, Note_on_c, 0, 87, 58
1, 35280, Note_on_c, 0, 84, 58
1, 35300, Note_on_c, 0, 87, 0
1, 35300, Note_on_c, 0, 84, 0
1, 35328, Note_on_c, 1, 65, 58
1, 35348, Note_on_c, 1, 65, 0
1, 35376, Note_on_c, 0, 86, 58
1, 35376, Note_on_c, 0, 82, 58
1, 35396, Note_on_c, 0, 86, 0
1, 35396, Note_on_c, 0, 82, 0
1, 35424, Note_on_c, 1, 65, 58
1, 35444, Note_on_c, 1, 65, 0
1, 35472, Note_on_c, 0, 84, 58
1, 35472, Note_on_c, 0, 81, 58
1, 35492, Note_on_c, 0, 84, 0
1, 35492, Note_on_c, 0, 81, 0
1, 35520, Note_on_c, 0, 82, 58
1, 35520, Note_on_c, 1, 58, 58
1, 35565, Note_on_c, 0, 82, 0
1, 35568, Note_on_c, 0, 63, 64
1, 35609, Note_on_c, 1, 58, 0
1, 35613, Note_on_c, 0, 63, 0
1, 35616, Note_on_c, 0, 63, 64
1, 35661, Note_on_c, 0, 63, 0
1, 35664, Note_on_c, 0, 63, 64
1, 35709, Note_on_c, 0, 63, 0
1, 35712, Note_on_c, 0, 63, 64
1, 35757, Note_on_c, 0, 63, 0
1, 35760, Note_on_c, 0, 63, 64
1, 35805, Note_on_c, 0, 63, 0
1, 35808, Note_on_c, 0, 63, 64
1, 35853, Note_on_c, 0, 63, 0
1, 35856, Note_on_c, 0, 63, 64
1, 35856, Note_on_c, 1, 48, 80
1, 35876, Note_on_c, 1, 48, 0
1, 35901, Note_on_c, 0, 63, 0
1, 35904, Note_on_c, 0, 63, 64
1, 35904, Note_on_c, 1, 41, 64
1, 35949, Note_on_c, 0, 63, 0
1, 35949, Note_on_c, 1, 41, 0
1, 35952, Note_on_c, 0, 63, 65
1, 35952, Note_on_c, 1, 42, 65
1, 35997, Note_on_c, 0, 63, 0
1, 35997, Note_on_c, 1, 42, 0
1, 36000, Note_on_c, 0, 63, 66
1, 36000, Note_on_c, 1, 41, 66
1, 36045, Note_on_c, 0, 63, 0
1, 36045, Note_on_c, 1, 41, 0
1, 36048, Note_on_c, 0, 63, 67
1, 36048, Note_on_c, 1, 51, 83
1, 36068, Note_on_c, 1, 51, 0
1, 36093, Note_on_c, 0, 63, 0
1, 36096, Note_on_c, 0, 63, 68
1, 36096, Note_on_c, 1, 45, 68
1, 36141, Note_on_c, 0, 63, 0
1, 36141, Note_on_c, 1, 45, 0
1, 36144, Note_on_c, 0, 63, 69
1, 36144, Note_on_c, 1, 46, 69
1, 36189, Note_on_c, 0, 63, 0
1, 36189, Note_on_c, 1, 46, 0
1, 36192, Note_on_c, 0, 63, 70
1, 36192, Note_on_c, 1, 45, 70
1, 36237, Note_on_c, 0, 63, 0
1, 36237, Note_on_c, 1, 45, 0
1, 36240, Note_on_c, 0, 63, 71
1, 36240, Note_on_c, 1, 54, 87
1, 36260, Note_on_c, 1, 54, 0
1, 36285, Note_on_c, 0, 63, 0
1, 36288, Note_on_c, 0, 63, 72
1, 36288, Note_on_c, 1, 48, 72
1, 36333, Note_on_c, 0, 63, 0
1, 36333, Note_on_c, 1, 48, 0
1, 36336, Note_on_c, 0, 63, 73
1, 36336, Note_on_c, 1, 49, 73
1, 36381, Note_on_c, 0, 63, 0
1, 36381, Note_on_c, 1, 49, 0
1, 36384, Note_on_c, 0, 63, 74
1, 36384, Note_on_c, 1, 48, 74
1, 36429, Note_on_c, 0, 63, 0
1, 36429, Note_on_c, 1, 48, 0
1, 36432, Note_on_c, 0, 63, 75
1, 36432, Note_on_c, 1, 57, 91
1, 36452, Note_on_c, 1, 57, 0
1, 36477, Note_on_c, 0, 63, 0
1, 36480, Note_on_c, 0, 63, 76
1, 36480, Note_on_c, 1, 53, 76
1, 36525, Note_on_c, 0, 63, 0
1, 36525, Note_on_c, 1, 53, 0
1, 36528, Note_on_c, 0, 63, 77
1, 36528, Note_on_c, 1, 54, 77
1, 36573, Note_on_c, 0, 63, 0
1, 36573, Note_on_c, 1, 54, 0
1, 36576, Note_on_c, 0, 63, 78
1, 36576, Note_on_c, 1, 53, 78
1, 36621, Note_on_c, 0, 63, 0
1, 36621, Note_on_c, 1, 53, 0
1, 36624, Note_on_c, 0, 63, 80
1, 36624, Note_on_c, 1, 57, 96
1, 36644, Note_on_c, 1, 57, 0
1, 36669, Note_on_c, 0, 63, 0
1, 36672, Note_on_c, 0, 62, 80
1, 36672, Note_on_c, 1, 58, 80
1, 36695, Note_on_c, 0, 62, 0
1, 36696, Note_on_c, 0, 70, 80
1, 36717, Note_on_c, 1, 58, 0
1, 36719, Note_on_c, 0, 70, 0
1, 36720, Note_on_c, 0, 62, 80
1, 36720, Note_on_c, 1, 46, 80
1, 36743, Note_on_c, 0, 62, 0
1, 36744, Note_on_c, 0, 70, 80
1, 36765, Note_on_c, 1, 46, 0
1, 36767, Note_on_c, 0, 70, 0
1, 36768, Note_on_c, 0, 63, 80
1, 36768, Note_on_c, 1, 58, 80
1, 36791, Note_on_c, 0, 63, 0
1, 36792, Note_on_c, 0, 69, 80
1, 36813, Note_on_c, 1, 58, 0
1, 36815, Note_on_c, 0, 69, 0
1, 36816, Note_on_c, 0, 63, 80
1, 36816, Note_on_c, 1, 46, 80
1, 36839, Note_on_c, 0, 63, 0
1, 36840, Note_on_c, 0, 69, 80
1, 36861, Note_on_c, 1, 46, 0
1, 36863, Note_on_c, 0, 69, 0
1, 36864, Note_on_c, 0, 69, 80
1, 36864, Note_on_c, 1, 58, 80
1, 36887, Note_on_c, 0, 69, 0
1, 36888, Note_on_c, 0, 75, 80
1, 36909, Note_on_c, 1, 58, 0
1, 36911, Note_on_c, 0, 75, 0
1, 36912, Note_on_c, 0, 69, 80
1, 36912, Note_on_c, 1, 46, 80
1, 36935, Note_on_c, 0, 69, 0
1, 36936, Note_on_c, 0, 75, 80
1, 36957, Note_on_c, 1, 46, 0
1, 36959, Note_on_c, 0, 75, 0
1, 36960, Note_on_c, 0, 70, 80
1, 36960, Note_on_c, 1, 58, 80
1, 36983, Note_on_c, 0, 70, 0
1, 36984, Note_on_c, 0, 74, 80
1, 37005, Note_on_c, 1, 58, 0
1, 37007, Note_on_c, 0, 74, 0
1, 37008, Note_on_c, 0, 70, 80
1, 37008, Note_on_c, 1, 46, 80
1, 37031, Note_on_c, 0, 70, 0
1, 37032, Note_on_c, 0, 74, 80
1, 37053, Note_on_c, 1, 46, 0
1, 37055, Note_on_c, 0, 74, 0
1, 37056, Note_on_c, 0, 74, 80
1, 37056, Note_on_c, 1, 58, 80
1, 37079, Note_on_c, 0, 74, 0
1, 37080, Note_on_c, 0, 82, 80
1, 37101, Note_on_c, 1, 58, 0
1, 37103, Note_on_c, 0, 82, 0
1, 37104, Note_on_c, 0, 74, 80
1, 37104, Note_on_c, 1, 46, 80
1, 37127, Note_on_c, 0, 74, 0
1, 37128, Note_on_c, 0, 82, 80
1, 37149, Note_on_c, 1, 46, 0
1, 37151, Note_on_c, 0, 82, 0
1, 37152, Note_on_c, 0, 75, 80
1, 37152, Note_on_c, 1, 58, 80
1, 37175, Note_on_c, 0, 75, 0
1, 37176, Note_on_c, 0, 81, 80
1, 37197, Note_on_c, 1, 58, 0
1, 37199, Note_on_c, 0, 81, 0
1, 37200, Note_on_c, 0, 75, 80
1, 37200, Note_on_c, 1, 46, 80
1, 37223, Note_on_c, 0, 75, 0
1, 37224, Note_on_c, 0, 81, 80
1, 37245, Note_on_c, 1, 46, 0
1, 37247, Note_on_c, 0, 81, 0
1, 37248, Note_on_c, 0, 81, 80
1, 37248, Note_on_c, 1, 58, 80
1, 37271, Note_on_c, 0, 81, 0
1, 37272, Note_on_c, 0, 87, 80
1, 37293, Note_on_c, 1, 58, 0
1, 37295, Note_on_c, 0, 87, 0
1, 37296, Note_on_c, 0, 81, 80
1, 37296, Note_on_c, 1, 46, 80
1, 37319, Note_on_c, 0, 81, 0
1, 37320, Note_on_c, 0, 87, 80
1, 37341, Note_on_c, 1, 46, 0
1, 37343, Note_on_c, 0, 87, 0
1, 37344, Note_on_c, 0, 82, 80
1, 37344, Note_on_c, 1, 58, 80
1, 37367, Note_on_c, 0, 82, 0
1, 37368, Note_on_c, 0, 86, 80
1, 37391, Note_on_c, 0, 86, 0
1, 37392, Note_on_c, 0, 82, 80
1, 37415, Note_on_c, 0, 82, 0
1, 37416, Note_on_c, 0, 86, 80
1, 37433, Note_on_c, 1, 58, 0
1, 37439, Note_on_c, 0, 86, 0
1, 37440, Note_on_c, 0, 89, 80
1, 37440, Note_on_c, 0, 86, 80
1, 37440, Note_on_c, 0, 82, 80
1, 37440, Note_on_c, 0, 77, 80
1, 37440, Note_on_c, 1, 62, 80
1, 37440, Note_on_c, 1, 58, 80
1, 37440, Note_on_c, 1, 53, 80
1, 37440, Note_on_c, 1, 50, 80
1, 37485, Note_on_c, 0, 89, 0
1, 37485, Note_on_c, 0, 86, 0
1, 37485, Note_on_c, 0, 82, 0
1, 37485, Note_on_c, 0, 77, 0
1, 37485, Note_on_c, 1, 62, 0
1, 37485, Note_on_c, 1, 58, 0
1, 37485, Note_on_c, 1, 53, 0
1, 37485, Note_on_c, 1, 50, 0
1, 37536, Note_on_c, 0, 87, 80
1, 37536, Note_on_c, 0, 84, 80
1, 37536, Note_on_c, 0, 79, 80
1, 37536, Note_on_c, 1, 60, 80
1, 37536, Note_on_c, 1, 55, 80
1, 37536, Note_on_c, 1, 51, 80
1, 37581, Note_on_c, 0, 87, 0
1, 37581, Note_on_c, 0, 84, 0
1, 37581, Note_on_c, 0, 79, 0
1, 37581, Note_on_c, 1, 60, 0
1, 37581, Note_on_c, 1, 55, 0
1, 37581, Note_on_c, 1, 51, 0
1, 37632, Note_on_c, 0, 86, 80
1, 37632, Note_on_c, 0, 82, 80
1, 37632, Note_on_c, 0, 77, 80
1, 37632, Note_on_c, 1, 62, 80
1, 37632, Note_on_c, 1, 58, 80
1, 37632, Note_on_c, 1, 53, 80
1, 37677, Note_on_c, 0, 86, 0
1, 37677, Note_on_c, 0, 82, 0
1, 37677, Note_on_c, 0, 77, 0
1, 37677, Note_on_c, 1, 62, 0
1, 37677, Note_on_c, 1, 58, 0
1, 37677, Note_on_c, 1, 53, 0
1, 37728, Note_on_c, 0, 81, 80
1, 37728, Note_on_c, 0, 75, 80
1, 37728, Note_on_c, 0, 72, 80
1, 37728, Note_on_c, 1, 60, 80
1, 37728, Note_on_c, 1, 57, 80
1, 37728, Note_on_c, 1, 53, 80
1, 37773, Note_on_c, 0, 81, 0
1, 37773, Note_on_c, 0, 75, 0
1, 37773, Note_on_c, 0, 72, 0
1, 37773, Note_on_c, 1, 60, 0
1, 37773, Note_on_c, 1, 57, 0
1, 37773, Note_on_c, 1, 53, 0
1, 37824, Note_on_c, 0, 82, 80
1, 37824, Note_on_c, 0, 77, 80
1, 37824, Note_on_c, 0, 74, 80
1, 37824, Note_on_c, 1, 58, 80
1, 37847, Note_on_c, 1, 58, 0
1, 37848, Note_on_c, 1, 57, 80
1, 37871, Note_on_c, 1, 57, 0
1, 37872, Note_on_c, 1, 58, 80
1, 37895, Note_on_c, 1, 58, 0
1, 37896, Note_on_c, 1, 57, 80
1, 37913, Note_on_c, 0, 82, 0
1, 37913, Note_on_c, 0, 77, 0
1, 37913, Note_on_c, 0, 74, 0
1, 37919, Note_on_c, 1, 57, 0
1, 37920, Note_on_c, 1, 58, 80
1, 37943, Note_on_c, 1, 58, 0
1, 37944, Note_on_c, 1, 57, 80
1, 37967, Note_on_c, 1, 57, 0
1, 37968, Note_on_c, 0, 79, 80
1, 37968, Note_on_c, 0, 75, 80
1, 37968, Note_on_c, 1, 58, 80
1, 37991, Note_on_c, 1, 58, 0
1, 37992, Note_on_c, 1, 57, 80
1, 38013, Note_on_c, 0, 79, 0
1, 38013, Note_on_c, 0, 75, 0
1, 38015, Note_on_c, 1, 57, 0
1, 38016, Note_on_c, 0, 77, 80
1, 38016, Note_on_c, 0, 74, 80
1, 38016, Note_on_c, 1, 58, 80
1, 38039, Note_on_c, 1, 58, 0
1, 38040, Note_on_c, 1, 57, 80
1, 38061, Note_on_c, 0, 77, 0
1, 38061, Note_on_c, 0, 74, 0
1, 38063, Note_on_c, 1, 57, 0
1, 38064, Note_on_c, 0, 75, 80
1, 38064, Note_on_c, 0, 72, 80
1, 38064, Note_on_c, 1, 58, 80
1, 38087, Note_on_c, 1, 58, 0
1, 38088, Note_on_c, 1, 57, 80
1, 38109, Note_on_c, 0, 75, 0
1, 38109, Note_on_c, 0, 72, 0
1, 38111, Note_on_c, 1, 57, 0
1, 38112, Note_on_c, 0, 74, 80
1, 38112, Note_on_c, 0, 70, 80
1, 38112, Note_on_c, 1, 58, 80
1, 38135, Note_on_c, 1, 58, 0
1, 38136, Note_on_c, 1, 57, 80
1, 38157, Note_on_c, 0, 74, 0
1, 38157, Note_on_c, 0, 70, 0
1, 38159, Note_on_c, 1, 57, 0
1, 38160, Note_on_c, 0, 72, 80
1, 38160, Note_on_c, 0, 69, 80
1, 38160, Note_on_c, 1, 58, 80
1, 38183, Note_on_c, 1, 58, 0
1, 38184, Note_on_c, 1, 57, 80
1, 38205, Note_on_c, 0, 72, 0
1, 38205, Note_on_c, 0, 69, 0
1, 38207, Note_on_c, 1, 57, 0
1, 38208, Note_on_c, 0, 70, 80
1, 38208, Note_on_c, 1, 58, 80
1, 38231, Note_on_c, 0, 70, 0
1, 38232, Note_on_c, 0, 69, 80
1, 38255, Note_on_c, 0, 69, 0
1, 38256, Note_on_c, 0, 70, 80
1, 38279, Note_on_c, 0, 70, 0
1, 38280, Note_on_c, 0, 69, 80
1, 38297, Note_on_c, 1, 58, 0
1, 38303, Note_on_c, 0, 69, 0
1, 38304, Note_on_c, 0, 70, 80
1, 38327, Note_on_c, 0, 70, 0
1, 38328, Note_on_c, 0, 69, 80
1, 38351, Note_on_c, 0, 69, 0
1, 38352, Note_on_c, 0, 70, 80
1, 38352, Note_on_c, 1, 55, 80
1, 38352, Note_on_c, 1, 51, 80
1, 38375, Note_on_c, 0, 70, 0
1, 38376, Note_on_c, 0, 69, 80
1, 38397, Note_on_c, 1, 55, 0
1, 38397, Note_on_c, 1, 51, 0
1, 38399, Note_on_c, 0, 69, 0
1, 38400, Note_on_c, 0, 70, 80
1, 38400, Note_on_c, 1, 53, 80
1, 38400, Note_on_c, 1, 50, 80
1, 38423, Note_on_c, 0, 70, 0
1, 38424, Note_on_c, 0, 69, 80
1, 38445, Note_on_c, 1, 53, 0
1, 38445, Note_on_c, 1, 50, 0
1, 38447, Note_on_c, 0, 69, 0
1, 38448, Note_on_c, 0, 70, 80
1, 38448, Note_on_c, 1, 55, 80
1, 38448, Note_on_c, 1, 51, 80
1, 38471, Note_on_c, 0, 70, 0
1, 38472, Note_on_c, 0, 69, 80
1, 38493, Note_on_c, 1, 55, 0
1, 38493, Note_on_c, 1, 51, 0
1, 38495, Note_on_c, 0, 69, 0
1, 38496, Note_on_c, 0, 70, 80
1, 38496, Note_on_c, 1, 53, 80
1, 38496, Note_on_c, 1, 50, 80
1, 38519, Note_on_c, 0, 70, 0
1, 38520, Note_on_c, 0, 69, 80
1, 38541, Note_on_c, 1, 53, 0
1, 38541, Note_on_c, 1, 50, 0
1, 38543, Note_on_c, 0, 69, 0
1, 38544, Note_on_c, 0, 70, 80
1, 38544, Note_on_c, 1, 51, 80
1, 38544, Note_on_c, 1, 48, 80
1, 38567, Note_on_c, 0, 70, 0
1, 38568, Note_on_c, 0, 69, 80
1, 38589, Note_on_c, 1, 51, 0
1, 38589, Note_on_c, 1, 48, 0
1, 38591, Note_on_c, 0, 69, 0
1, 38592, Note_on_c, 0, 70, 80
1, 38592, Note_on_c, 1, 50, 80
1, 38592, Note_on_c, 1, 46, 80
1, 38681, Note_on_c, 0, 70, 0
1, 38681, Note_on_c, 1, 50, 0
1, 38681, Note_on_c, 1, 46, 0
1, 38688, Note_on_c, 0, 82, 80
1, 38688, Note_on_c, 0, 77, 80
1, 38688, Note_on_c, 0, 74, 80
1, 38688, Note_on_c, 1, 58, 80
1, 38688, Note_on_c, 1, 53, 80
1, 38688, Note_on_c, 1, 50, 80
1, 38688, Note_on_c, 1, 46, 80
1, 38777, Note_on_c, 0, 82, 0
1, 38777, Note_on_c, 0, 77, 0
1, 38777, Note_on_c, 0, 74, 0
1, 38777, Note_on_c, 1, 58, 0
1, 38777, Note_on_c, 1, 53, 0
1, 38777, Note_on_c, 1, 50, 0
1, 38777, Note_on_c, 1, 46, 0
1, 38928, Note_on_c, 0, 65, 64
1, 38948, Note_on_c, 0, 65, 0
1, 38976, Note_on_c, 0, 56, 64
1, 38976, Note_on_c, 1, 48, 64
1, 38976, Note_on_c, 1, 36, 64
1, 39021, Note_on_c, 0, 56, 0
1, 39024, Note_on_c, 0, 58, 64
1, 39069, Note_on_c, 0, 58, 0
1, 39072, Note_on_c, 0, 56, 64
1, 39117, Note_on_c, 0, 56, 0
1, 39120, Note_on_c, 0, 65, 64
1, 39140, Note_on_c, 0, 65, 0
1, 39153, Note_on_c, 1, 48, 0
1, 39153, Note_on_c, 1, 36, 0
1, 39168, Note_on_c, 0, 55, 64
1, 39168, Note_on_c, 1, 47, 64
1, 39168, Note_on_c, 1, 35, 64
1, 39213, Note_on_c, 0, 55, 0
1, 39216, Note_on_c, 0, 56, 64
1, 39261, Note_on_c, 0, 56, 0
1, 39264, Note_on_c, 0, 55, 64
1, 39301, Note_on_c, 1, 47, 0
1, 39301, Note_on_c, 1, 35, 0
1, 39309, Note_on_c, 0, 55, 0
1, 39312, Note_on_c, 0, 68, 64
1, 39312, Note_on_c, 1, 60, 64
1, 39332, Note_on_c, 0, 68, 0
1, 39357, Note_on_c, 1, 60, 0
1, 39360, Note_on_c, 0, 67, 64
1, 39360, Note_on_c, 1, 59, 64
1, 39405, Note_on_c, 0, 67, 0
1, 39405, Note_on_c, 1, 59, 0
1, 39408, Note_on_c, 0, 68, 64
1, 39408, Note_on_c, 1, 60, 64
1, 39453, Note_on_c, 0, 68, 0
1, 39453, Note_on_c, 1, 60, 0
1, 39456, Note_on_c, 0, 67, 64
1, 39456, Note_on_c, 1, 59, 64
1, 39501, Note_on_c, 0, 67, 0
1, 39501, Note_on_c, 1, 59, 0
1, 39504, Note_on_c, 0, 65, 64
1, 39504, Note_on_c, 1, 62, 64
1, 39549, Note_on_c, 0, 65, 0
1, 39549, Note_on_c, 1, 62, 0
1, 39552, Note_on_c, 0, 63, 64
1, 39552, Note_on_c, 1, 60, 64
1, 39597, Note_on_c, 0, 63, 0
1, 39600, Note_on_c, 0, 72, 64
1, 39641, Note_on_c, 1, 60, 0
1, 39645, Note_on_c, 0, 72, 0
1, 39648, Note_on_c, 0, 72, 64
1, 39693, Note_on_c, 0, 72, 0
1, 39696, Note_on_c, 0, 72, 80
1, 39696, Note_on_c, 1, 63, 80
1, 39741, Note_on_c, 0, 72, 0
1, 39741, Note_on_c, 1, 63, 0
1, 39744, Note_on_c, 0, 72, 64
1, 39744, Note_on_c, 1, 64, 64
1, 39789, Note_on_c, 0, 72, 0
1, 39789, Note_on_c, 1, 64, 0
1, 39792, Note_on_c, 0, 72, 64
1, 39792, Note_on_c, 1, 65, 64
1, 39837, Note_on_c, 0, 72, 0
1, 39837, Note_on_c, 1, 65, 0
1, 39840, Note_on_c, 0, 72, 64
1, 39840, Note_on_c, 1, 66, 64
1, 39885, Note_on_c, 0, 72, 0
1, 39885, Note_on_c, 1, 66, 0
1, 39888, Note_on_c, 0, 72, 64
1, 39888, Note_on_c, 1, 67, 64
1, 39933, Note_on_c, 0, 72, 0
1, 39933, Note_on_c, 1, 67, 0
1, 39936, Note_on_c, 0, 72, 64
1, 39936, Note_on_c, 1, 68, 64
1, 39981, Note_on_c, 0, 72, 0
1, 39984, Note_on_c, 0, 72, 64
1, 40029, Note_on_c, 0, 72, 0
1, 40032, Note_on_c, 0, 72, 64
1, 40069, Note_on_c, 1, 68, 0
1, 40077, Note_on_c, 0, 72, 0
1, 40080, Note_on_c, 0, 74, 80
1, 40080, Note_on_c, 0, 72, 80
1, 40080, Note_on_c, 1, 65, 80
1, 40125, Note_on_c, 0, 74, 0
1, 40125, Note_on_c, 0, 72, 0
1, 40125, Note_on_c, 1, 65, 0
1, 40128, Note_on_c, 0, 75, 64
1, 40128, Note_on_c, 0, 72, 64
1, 40128, Note_on_c, 1, 66, 64
1, 40173, Note_on_c, 0, 75, 0
1, 40173, Note_on_c, 0, 72, 0
1, 40173, Note_on_c, 1, 66, 0
1, 40176, Note_on_c, 0, 76, 68
1, 40176, Note_on_c, 0, 72, 68
1, 40176, Note_on_c, 1, 67, 68
1, 40221, Note_on_c, 0, 76, 0
1, 40221, Note_on_c, 0, 72, 0
1, 40221, Note_on_c, 1, 67, 0
1, 40224, Note_on_c, 0, 77, 72
1, 40224, Note_on_c, 0, 72, 72
1, 40224, Note_on_c, 1, 68, 72
1, 40269, Note_on_c, 0, 77, 0
1, 40269, Note_on_c, 0, 72, 0
1, 40269, Note_on_c, 1, 68, 0
1, 40272, Note_on_c, 0, 78, 76
1, 40272, Note_on_c, 0, 72, 76
1, 40272, Note_on_c, 1, 69, 76
1, 40317, Note_on_c, 0, 78, 0
1, 40317, Note_on_c, 0, 72, 0
1, 40317, Note_on_c, 1, 69, 0
1, 40320, Note_on_c, 0, 79, 80
1, 40320, Note_on_c, 0, 72, 80
1, 40320, Note_on_c, 1, 70, 80
1, 40365, Note_on_c, 0, 72, 0
1, 40368, Note_on_c, 0, 72, 80
1, 40413, Note_on_c, 0, 72, 0
1, 40416, Note_on_c, 0, 72, 80
1, 40453, Note_on_c, 0, 79, 0
1, 40453, Note_on_c, 1, 70, 0
1, 40461, Note_on_c, 0, 72, 0
1, 40464, Note_on_c, 0, 76, 96
1, 40464, Note_on_c, 0, 72, 96
1, 40464, Note_on_c, 1, 67, 96
1, 40509, Note_on_c, 0, 76, 0
1, 40509, Note_on_c, 0, 72, 0
1, 40509, Note_on_c, 1, 67, 0
1, 40512, Note_on_c, 0, 77, 64
1, 40512, Note_on_c, 0, 72, 64
1, 40512, Note_on_c, 1, 68, 64
1, 40557, Note_on_c, 0, 77, 0
1, 40557, Note_on_c, 0, 72, 0
1, 40557, Note_on_c, 1, 68, 0
1, 40560, Note_on_c, 0, 79, 68
1, 40560, Note_on_c, 0, 72, 68
1, 40560, Note_on_c, 1, 64, 68
1, 40605, Note_on_c, 0, 79, 0
1, 40605, Note_on_c, 0, 72, 0
1, 40605, Note_on_c, 1, 64, 0
1, 40608, Note_on_c, 0, 80, 72
1, 40608, Note_on_c, 0, 72, 72
1, 40608, Note_on_c, 1, 65, 72
1, 40653, Note_on_c, 0, 80, 0
1, 40653, Note_on_c, 0, 72, 0
1, 40653, Note_on_c, 1, 65, 0
1, 40656, Note_on_c, 0, 82, 76
1, 40656, Note_on_c, 0, 72, 76
1, 40656, Note_on_c, 1, 67, 76
1, 40701, Note_on_c, 0, 82, 0
1, 40701, Note_on_c, 0, 72, 0
1, 40701, Note_on_c, 1, 67, 0
1, 40704, Note_on_c, 0, 84, 80
1, 40704, Note_on_c, 0, 72, 80
1, 40704, Note_on_c, 1, 68, 80
1, 40749, Note_on_c, 0, 72, 0
1, 40752, Note_on_c, 0, 72, 78
1, 40797, Note_on_c, 0, 72, 0
1, 40800, Note_on_c, 0, 72, 76
1, 40837, Note_on_c, 0, 84, 0
1, 40837, Note_on_c, 1, 68, 0
1, 40845, Note_on_c, 0, 72, 0
1, 40848, Note_on_c, 0, 80, 74
1, 40848, Note_on_c, 0, 72, 74
1, 40848, Note_on_c, 1, 65, 76
1, 40893, Note_on_c, 0, 80, 0
1, 40893, Note_on_c, 0, 72, 0
1, 40893, Note_on_c, 1, 65, 0
1, 40896, Note_on_c, 0, 82, 72
1, 40896, Note_on_c, 0, 72, 72
1, 40896, Note_on_c, 1, 67, 75
1, 40941, Note_on_c, 0, 72, 0
1, 40944, Note_on_c, 0, 72, 70
1, 40989, Note_on_c, 0, 72, 0
1, 40992, Note_on_c, 0, 72, 68
1, 41029, Note_on_c, 0, 82, 0
1, 41029, Note_on_c, 1, 67, 0
1, 41037, Note_on_c, 0, 72, 0
1, 41040, Note_on_c, 0, 79, 66
1, 41040, Note_on_c, 0, 72, 66
1, 41040, Note_on_c, 1, 64, 71
1, 41085, Note_on_c, 0, 79, 0
1, 41085, Note_on_c, 0, 72, 0
1, 41085, Note_on_c, 1, 64, 0
1, 41088, Note_on_c, 0, 80, 64
1, 41088, Note_on_c, 0, 72, 64
1, 41088, Note_on_c, 1, 65, 70
1, 41133, Note_on_c, 0, 72, 0
1, 41136, Note_on_c, 0, 72, 64
1, 41181, Note_on_c, 0, 72, 0
1, 41184, Note_on_c, 0, 72, 65
1, 41229, Note_on_c, 0, 72, 0
1, 41232, Note_on_c, 0, 72, 66
1, 41277, Note_on_c, 0, 72, 0
1, 41280, Note_on_c, 0, 73, 67
1, 41325, Note_on_c, 0, 73, 0
1, 41328, Note_on_c, 0, 73, 68
1, 41373, Note_on_c, 0, 73, 0
1, 41376, Note_on_c, 0, 73, 69
1, 41421, Note_on_c, 0, 73, 0
1, 41424, Note_on_c, 0, 73, 70
1, 41457, Note_on_c, 0, 80, 0
1, 41457, Note_on_c, 1, 65, 0
1, 41469, Note_on_c, 0, 73, 0
1, 41472, Note_on_c, 0, 79, 69
1, 41472, Note_on_c, 0, 73, 71
1, 41472, Note_on_c, 1, 64, 69
1, 41517, Note_on_c, 0, 73, 0
1, 41520, Note_on_c, 0, 73, 72
1, 41565, Note_on_c, 0, 73, 0
1, 41568, Note_on_c, 0, 72, 73
1, 41568, Note_on_c, 1, 64, 0
1, 41568, Note_on_c, 1, 63, 72
1, 41613, Note_on_c, 0, 72, 0
1, 41616, Note_on_c, 0, 72, 74
1, 41649, Note_on_c, 0, 79, 0
1, 41657, Note_on_c, 1, 63, 0
1, 41661, Note_on_c, 0, 72, 0
1, 41664, Note_on_c, 0, 77, 74
1, 41664, Note_on_c, 0, 72, 75
1, 41664, Note_on_c, 1, 62, 74
1, 41709, Note_on_c, 0, 72, 0
1, 41712, Note_on_c, 0, 72, 76
1, 41757, Note_on_c, 0, 72, 0
1, 41760, Note_on_c, 0, 71, 77
1, 41760, Note_on_c, 1, 62, 0
1, 41760, Note_on_c, 1, 61, 77
1, 41805, Note_on_c, 0, 71, 0
1, 41808, Note_on_c, 0, 71, 78
1, 41841, Note_on_c, 0, 77, 0
1, 41849, Note_on_c, 1, 61, 0
1, 41853, Note_on_c, 0, 71, 0
1, 41856, Note_on_c, 0, 76, 80
1, 41856, Note_on_c, 0, 72, 80
1, 41856, Note_on_c, 1, 60, 80
1, 41879, Note_on_c, 1, 60, 0
1, 41880, Note_on_c, 1, 59, 80
1, 41903, Note_on_c, 1, 59, 0
1, 41904, Note_on_c, 1, 60, 80
1, 41927, Note_on_c, 1, 60, 0
1, 41928, Note_on_c, 1, 59, 80
1, 41945, Note_on_c, 0, 76, 0
1, 41945, Note_on_c, 0, 72, 0
1, 41951, Note_on_c, 1, 59, 0
1, 41952, Note_on_c, 1, 60, 80
1, 41975, Note_on_c, 1, 60, 0
1, 41976, Note_on_c, 1, 59, 80
1, 41999, Note_on_c, 1, 59, 0
1, 42000, Note_on_c, 0, 84, 96
1, 42000, Note_on_c, 0, 80, 96
1, 42000, Note_on_c, 1, 60, 80
1, 42023, Note_on_c, 1, 60, 0
1, 42024, Note_on_c, 1, 59, 80
1, 42047, Note_on_c, 1, 59, 0
1, 42048, Note_on_c, 0, 84, 0
1, 42048, Note_on_c, 0, 80, 0
1, 42048, Note_on_c, 0, 82, 80
1, 42048, Note_on_c, 0, 79, 80
1, 42048, Note_on_c, 1, 60, 80
1, 42071, Note_on_c, 1, 60, 0
1, 42072, Note_on_c, 1, 59, 80
1, 42093, Note_on_c, 0, 82, 0
1, 42093, Note_on_c, 0, 79, 0
1, 42095, Note_on_c, 1, 59, 0
1, 42096, Note_on_c, 0, 84, 80
1, 42096, Note_on_c, 0, 80, 80
1, 42096, Note_on_c, 1, 60, 80
1, 42119, Note_on_c, 1, 60, 0
1, 42120, Note_on_c, 1, 59, 80
1, 42141, Note_on_c, 0, 84, 0
1, 42141, Note_on_c, 0, 80, 0
1, 42143, Note_on_c, 1, 59, 0
1, 42144, Note_on_c, 0, 82, 80
1, 42144, Note_on_c, 0, 79, 80
1, 42144, Note_on_c, 1, 60, 80
1, 42167, Note_on_c, 1, 60, 0
1, 42168, Note_on_c, 1, 59, 80
1, 42189, Note_on_c, 0, 82, 0
1, 42189, Note_on_c, 0, 79, 0
1, 42191, Note_on_c, 1, 59, 0
1, 42192, Note_on_c, 0, 80, 80
1, 42192, Note_on_c, 0, 77, 80
1, 42192, Note_on_c, 1, 60, 80
1, 42215, Note_on_c, 1, 60, 0
1, 42216, Note_on_c, 1, 59, 80
1, 42237, Note_on_c, 0, 80, 0
1, 42237, Note_on_c, 0, 77, 0
1, 42239, Note_on_c, 1, 59, 0
1, 42240, Note_on_c, 0, 79, 80
1, 42240, Note_on_c, 0, 76, 80
1, 42240, Note_on_c, 1, 60, 80
1, 42263, Note_on_c, 1, 60, 0
1, 42264, Note_on_c, 1, 59, 77
1, 42285, Note_on_c, 0, 79, 0
1, 42285, Note_on_c, 0, 76, 0
1, 42287, Note_on_c, 1, 59, 0
1, 42288, Note_on_c, 1, 60, 75
1, 42311, Note_on_c, 1, 60, 0
1, 42312, Note_on_c, 1, 59, 73
1, 42335, Note_on_c, 1, 59, 0
1, 42336, Note_on_c, 1, 60, 70
1, 42359, Note_on_c, 1, 60, 0
1, 42360, Note_on_c, 1, 59, 68
1, 42383, Note_on_c, 1, 59, 0
1, 42384, Note_on_c, 0, 48, 96
1, 42384, Note_on_c, 0, 44, 96
1, 42384, Note_on_c, 1, 60, 66
1, 42404, Note_on_c, 0, 48, 0
1, 42404, Note_on_c, 0, 44, 0
1, 42407, Note_on_c, 1, 60, 0
1, 42408, Note_on_c, 1, 59, 64
1, 42431, Note_on_c, 1, 59, 0
1, 42432, Note_on_c, 0, 46, 80
1, 42432, Note_on_c, 0, 43, 80
1, 42432, Note_on_c, 1, 60, 64
1, 42452, Note_on_c, 0, 46, 0
1, 42452, Note_on_c, 0, 43, 0
1, 42455, Note_on_c, 1, 60, 0
1, 42456, Note_on_c, 1, 59, 64
1, 42479, Note_on_c, 1, 59, 0
1, 42480, Note_on_c, 0, 44, 80
1, 42480, Note_on_c, 0, 41, 80
1, 42480, Note_on_c, 1, 60, 64
1, 42500, Note_on_c, 0, 44, 0
1, 42500, Note_on_c, 0, 41, 0
1, 42503, Note_on_c, 1, 60, 0
1, 42504, Note_on_c, 1, 59, 64
1, 42527, Note_on_c, 1, 59, 0
1, 42528, Note_on_c, 0, 43, 80
1, 42528, Note_on_c, 0, 40, 80
1, 42528, Note_on_c, 1, 60, 64
1, 42548, Note_on_c, 0, 43, 0
1, 42548, Note_on_c, 0, 40, 0
1, 42551, Note_on_c, 1, 60, 0
1, 42552, Note_on_c, 1, 59, 64
1, 42575, Note_on_c, 1, 59, 0
1, 42576, Note_on_c, 0, 41, 80
1, 42576, Note_on_c, 0, 38, 80
1, 42576, Note_on_c, 1, 60, 64
1, 42596, Note_on_c, 0, 41, 0
1, 42596, Note_on_c, 0, 38, 0
1, 42599, Note_on_c, 1, 60, 0
1, 42600, Note_on_c, 1, 59, 64
1, 42623, Note_on_c, 1, 59, 0
1, 42624, Note_on_c, 0, 40, 80
1, 42624, Note_on_c, 0, 36, 80
1, 42624, Note_on_c, 1, 60, 64
1, 42713, Note_on_c, 0, 40, 0
1, 42713, Note_on_c, 0, 36, 0
1, 42713, Note_on_c, 1, 60, 0
1, 42768, Note_on_c, 0, 84, 64
1, 42813, Note_on_c, 0, 84, 0
1, 42816, Note_on_c, 0, 84, 66
1, 42861, Note_on_c, 0, 84, 0
1, 42864, Note_on_c, 0, 84, 68
1, 42909, Note_on_c, 0, 84, 0
1, 42912, Note_on_c, 0, 84, 70
1, 42957, Note_on_c, 0, 84, 0
1, 42960, Note_on_c, 0, 84, 73
1, 43005, Note_on_c, 0, 84, 0
1, 43008, Note_on_c, 0, 84, 75
1, 43008, Note_on_c, 1, 60, 64
1, 43008, Note_on_c, 1, 56, 70
1, 43053, Note_on_c, 1, 60, 0
1, 43056, Note_on_c, 1, 63, 64
1, 43097, Note_on_c, 0, 84, 0
1, 43097, Note_on_c, 1, 56, 0
1, 43101, Note_on_c, 1, 63, 0
1, 43104, Note_on_c, 0, 87, 80
1, 43104, Note_on_c, 1, 60, 64
1, 43104, Note_on_c, 1, 56, 70
1, 43149, Note_on_c, 0, 87, 0
1, 43149, Note_on_c, 1, 60, 0
1, 43152, Note_on_c, 0, 80, 80
1, 43152, Note_on_c, 1, 63, 64
1, 43193, Note_on_c, 1, 56, 0
1, 43197, Note_on_c, 0, 80, 0
1, 43197, Note_on_c, 1, 63, 0
1, 43200, Note_on_c, 0, 79, 80
1, 43200, Note_on_c, 1, 61, 64
1, 43200, Note_on_c, 1, 58, 64
1, 43200, Note_on_c, 1, 56, 70
1, 43245, Note_on_c, 0, 79, 0
1, 43245, Note_on_c, 1, 61, 0
1, 43245, Note_on_c, 1, 58, 0
1, 43248, Note_on_c, 0, 82, 80
1, 43248, Note_on_c, 1, 63, 64
1, 43289, Note_on_c, 1, 56, 0
1, 43293, Note_on_c, 0, 82, 0
1, 43293, Note_on_c, 1, 63, 0
1, 43296, Note_on_c, 0, 85, 80
1, 43296, Note_on_c, 1, 61, 64
1, 43296, Note_on_c, 1, 58, 64
1, 43296, Note_on_c, 1, 56, 70
1, 43341, Note_on_c, 0, 85, 0
1, 43341, Note_on_c, 1, 61, 0
1, 43341, Note_on_c, 1, 58, 0
1, 43344, Note_on_c, 0, 79, 80
1, 43344, Note_on_c, 1, 63, 64
1, 43385, Note_on_c, 1, 56, 0
1, 43389, Note_on_c, 0, 79, 0
1, 43389, Note_on_c, 1, 63, 0
1, 43392, Note_on_c, 0, 80, 80
1, 43392, Note_on_c, 1, 60, 64
1, 43392, Note_on_c, 1, 56, 70
1, 43437, Note_on_c, 0, 80, 0
1, 43437, Note_on_c, 1, 60, 0
1, 43440, Note_on_c, 0, 84, 80
1, 43440, Note_on_c, 1, 63, 64
1, 43481, Note_on_c, 1, 56, 0
1, 43485, Note_on_c, 0, 84, 0
1, 43485, Note_on_c, 1, 63, 0
1, 43488, Note_on_c, 0, 75, 80
1, 43488, Note_on_c, 1, 60, 64
1, 43488, Note_on_c, 1, 56, 70
1, 43533, Note_on_c, 0, 75, 0
1, 43533, Note_on_c, 1, 60, 0
1, 43536, Note_on_c, 0, 75, 80
1, 43536, Note_on_c, 1, 63, 64
1, 43577, Note_on_c, 1, 56, 0
1, 43581, Note_on_c, 0, 75, 0
1, 43581, Note_on_c, 1, 63, 0
1, 43584, Note_on_c, 0, 73, 80
1, 43584, Note_on_c, 1, 61, 64
1, 43584, Note_on_c, 1, 58, 64
1, 43584, Note_on_c, 1, 56, 70
1, 43629, Note_on_c, 0, 73, 0
1, 43629, Note_on_c, 1, 61, 0
1, 43629, Note_on_c, 1, 58, 0
1, 43632, Note_on_c, 0, 79, 80
1, 43632, Note_on_c, 1, 63, 64
1, 43673, Note_on_c, 1, 56, 0
1, 43677, Note_on_c, 0, 79, 0
1, 43677, Note_on_c, 1, 63, 0
1, 43680, Note_on_c, 0, 82, 80
1, 43680, Note_on_c, 1, 61, 64
1, 43680, Note_on_c, 1, 58, 64
1, 43680, Note_on_c, 1, 56, 70
1, 43725, Note_on_c, 0, 82, 0
1, 43725, Note_on_c, 1, 61, 0
1, 43725, Note_on_c, 1, 58, 0
1, 43728, Note_on_c, 0, 79, 80
1, 43728, Note_on_c, 1, 63, 64
1, 43769, Note_on_c, 1, 56, 0
1, 43773, Note_on_c, 0, 79, 0
1, 43773, Note_on_c, 1, 63, 0
1, 43776, Note_on_c, 0, 80, 80
1, 43776, Note_on_c, 1, 60, 75
1, 43776, Note_on_c, 1, 56, 75
1, 43799, Note_on_c, 0, 80, 0
1, 43800, Note_on_c, 0, 82, 80
1, 43823, Note_on_c, 0, 82, 0
1, 43824, Note_on_c, 0, 84, 80
1, 43847, Note_on_c, 0, 84, 0
1, 43848, Note_on_c, 0, 82, 80
1, 43865, Note_on_c, 1, 60, 0
1, 43865, Note_on_c, 1, 56, 0
1, 43871, Note_on_c, 0, 82, 0
1, 43872, Note_on_c, 0, 80, 80
1, 43895, Note_on_c, 0, 80, 0
1, 43896, Note_on_c, 0, 79, 80
1, 43919, Note_on_c, 0, 79, 0
1, 43920, Note_on_c, 0, 77, 80
1, 43943, Note_on_c, 0, 77, 0
1, 43944, Note_on_c, 0, 75, 80
1, 43967, Note_on_c, 0, 75, 0
1, 43968, Note_on_c, 0, 73, 80
1, 43968, Note_on_c, 1, 61, 75
1, 43968, Note_on_c, 1, 58, 75
1, 43968, Note_on_c, 1, 55, 75
1, 43968, Note_on_c, 1, 51, 75
1, 43991, Note_on_c, 0, 73, 0
1, 43992, Note_on_c, 0, 72, 80
1, 44015, Note_on_c, 0, 72, 0
1, 44016, Note_on_c, 0, 70, 80
1, 44039, Note_on_c, 0, 70, 0
1, 44040, Note_on_c, 0, 68, 80
1, 44057, Note_on_c, 1, 61, 0
1, 44057, Note_on_c, 1, 58, 0
1, 44057, Note_on_c, 1, 55, 0
1, 44057, Note_on_c, 1, 51, 0
1, 44063, Note_on_c, 0, 68, 0
1, 44064, Note_on_c, 0, 67, 80
1, 44087, Note_on_c, 0, 67, 0
1, 44088, Note_on_c, 0, 65, 80
1, 44111, Note_on_c, 0, 65, 0
1, 44112, Note_on_c, 0, 63, 80
1, 44135, Note_on_c, 0, 63, 0
1, 44136, Note_on_c, 0, 61, 80
1, 44159, Note_on_c, 0, 61, 0
1, 44160, Note_on_c, 0, 60, 80
1, 44160, Note_on_c, 1, 56, 75
1, 44160, Note_on_c, 1, 44, 75
1, 44183, Note_on_c, 0, 60, 0
1, 44184, Note_on_c, 0, 61, 80
1, 44207, Note_on_c, 0, 61, 0
1, 44208, Note_on_c, 0, 63, 80
1, 44231, Note_on_c, 0, 63, 0
1, 44232, Note_on_c, 0, 61, 80
1, 44249, Note_on_c, 1, 56, 0
1, 44249, Note_on_c, 1, 44, 0
1, 44255, Note_on_c, 0, 61, 0
1, 44256, Note_on_c, 0, 60, 80
1, 44279, Note_on_c, 0, 60, 0
1, 44280, Note_on_c, 0, 72, 80
1, 44303, Note_on_c, 0, 72, 0
1, 44304, Note_on_c, 0, 70, 79
1, 44304, Note_on_c, 1, 60, 80
1, 44304, Note_on_c, 1, 56, 80
1, 44327, Note_on_c, 0, 70, 0
1, 44328, Note_on_c, 0, 68, 78
1, 44349, Note_on_c, 1, 60, 0
1, 44349, Note_on_c, 1, 56, 0
1, 44351, Note_on_c, 0, 68, 0
1, 44352, Note_on_c, 0, 67, 78
1, 44352, Note_on_c, 1, 61, 78
1, 44352, Note_on_c, 1, 58, 78
1, 44375, Note_on_c, 0, 67, 0
1, 44376, Note_on_c, 0, 68, 77
1, 44399, Note_on_c, 0, 68, 0
1, 44400, Note_on_c, 0, 70, 76
1, 44423, Note_on_c, 0, 70, 0
1, 44424, Note_on_c, 0, 68, 76
1, 44441, Note_on_c, 1, 61, 0
1, 44441, Note_on_c, 1, 58, 0
1, 44447, Note_on_c, 0, 68, 0
1, 44448, Note_on_c, 0, 67, 75
1, 44471, Note_on_c, 0, 67, 0
1, 44472, Note_on_c, 0, 77, 75
1, 44495, Note_on_c, 0, 77, 0
1, 44496, Note_on_c, 0, 75, 74
1, 44496, Note_on_c, 1, 58, 72
1, 44496, Note_on_c, 1, 55, 72
1, 44519, Note_on_c, 0, 75, 0
1, 44520, Note_on_c, 0, 73, 73
1, 44541, Note_on_c, 1, 58, 0
1, 44541, Note_on_c, 1, 55, 0
1, 44543, Note_on_c, 0, 73, 0
1, 44544, Note_on_c, 0, 72, 73
1, 44544, Note_on_c, 1, 60, 70
1, 44544, Note_on_c, 1, 56, 70
1, 44567, Note_on_c, 0, 72, 0
1, 44568, Note_on_c, 0, 73, 72
1, 44591, Note_on_c, 0, 73, 0
1, 44592, Note_on_c, 0, 75, 71
1, 44615, Note_on_c, 0, 75, 0
1, 44616, Note_on_c, 0, 73, 71
1, 44633, Note_on_c, 1, 60, 0
1, 44633, Note_on_c, 1, 56, 0
1, 44639, Note_on_c, 0, 73, 0
1, 44640, Note_on_c, 0, 72, 70
1, 44663, Note_on_c, 0, 72, 0
1, 44664, Note_on_c, 0, 84, 70
1, 44687, Note_on_c, 0, 84, 0
1, 44688, Note_on_c, 0, 82, 70
1, 44688, Note_on_c, 1, 60, 64
1, 44688, Note_on_c, 1, 56, 64
1, 44711, Note_on_c, 0, 82, 0
1, 44712, Note_on_c, 0, 80, 70
1, 44733, Note_on_c, 1, 60, 0
1, 44733, Note_on_c, 1, 56, 0
1, 44735, Note_on_c, 0, 80, 0
1, 44736, Note_on_c, 0, 79, 70
1, 44736, Note_on_c, 1, 61, 64
1, 44736, Note_on_c, 1, 58, 64
1, 44759, Note_on_c, 0, 79, 0
1, 44760, Note_on_c, 0, 80, 70
1, 44783, Note_on_c, 0, 80, 0
1, 44784, Note_on_c, 0, 82, 70
1, 44807, Note_on_c, 0, 82, 0
1, 44808, Note_on_c, 0, 80, 70
1, 44825, Note_on_c, 1, 61, 0
1, 44825, Note_on_c, 1, 58, 0
1, 44831, Note_on_c, 0, 80, 0
1, 44832, Note_on_c, 0, 79, 70
1, 44855, Note_on_c, 0, 79, 0
1, 44856, Note_on_c, 0, 89, 70
1, 44879, Note_on_c, 0, 89, 0
1, 44880, Note_on_c, 0, 87, 70
1, 44880, Note_on_c, 1, 58, 64
1, 44880, Note_on_c, 1, 55, 64
1, 44903, Note_on_c, 0, 87, 0
1, 44904, Note_on_c, 0, 85, 70
1, 44925, Note_on_c, 1, 58, 0
1, 44925, Note_on_c, 1, 55, 0
1, 44927, Note_on_c, 0, 85, 0
1, 44928, Note_on_c, 0, 84, 70
1, 44928, Note_on_c, 1, 60, 64
1, 44928, Note_on_c, 1, 56, 64
1, 44951, Note_on_c, 0, 84, 0
1, 44952, Note_on_c, 0, 85, 70
1, 44975, Note_on_c, 0, 85, 0
1, 44976, Note_on_c, 0, 87, 70
1, 44999, Note_on_c, 0, 87, 0
1, 45000, Note_on_c, 0, 85, 70
1, 45017, Note_on_c, 1, 60, 0
1, 45017, Note_on_c, 1, 56, 0
1, 45023, Note_on_c, 0, 85, 0
1, 45024, Note_on_c, 0, 84, 70
1, 45047, Note_on_c, 0, 84, 0
1, 45048, Note_on_c, 0, 82, 70
1, 45071, Note_on_c, 0, 82, 0
1, 45072, Note_on_c, 0, 80, 70
1, 45072, Note_on_c, 1, 61, 64
1, 45072, Note_on_c, 1, 58, 64
1, 45095, Note_on_c, 0, 80, 0
1, 45096, Note_on_c, 0, 79, 70
1, 45117, Note_on_c, 1, 61, 0
1, 45117, Note_on_c, 1, 58, 0
1, 45119, Note_on_c, 0, 79, 0
1, 45120, Note_on_c, 0, 80, 70
1, 45120, Note_on_c, 1, 63, 64
1, 45120, Note_on_c, 1, 60, 64
1, 45143, Note_on_c, 0, 80, 0
1, 45144, Note_on_c, 0, 82, 70
1, 45167, Note_on_c, 0, 82, 0
1, 45168, Note_on_c, 0, 84, 70
1, 45191, Note_on_c, 0, 84, 0
1, 45192, Note_on_c, 0, 82, 70
1, 45209, Note_on_c, 1, 63, 0
1, 45209, Note_on_c, 1, 60, 0
1, 45215, Note_on_c, 0, 82, 0
1, 45216, Note_on_c, 0, 80, 70
1, 45239, Note_on_c, 0, 80, 0
1, 45240, Note_on_c, 0, 79, 70
1, 45263, Note_on_c, 0, 79, 0
1, 45264, Note_on_c, 0, 77, 70
1, 45264, Note_on_c, 1, 68, 64
1, 45264, Note_on_c, 1, 59, 64
1, 45287, Note_on_c, 0, 77, 0
1, 45288, Note_on_c, 0, 75, 70
1, 45309, Note_on_c, 1, 68, 0
1, 45309, Note_on_c, 1, 59, 0
1, 45311, Note_on_c, 0, 75, 0
1, 45312, Note_on_c, 0, 74, 70
1, 45312, Note_on_c, 1, 68, 64
1, 45312, Note_on_c, 1, 58, 64
1, 45335, Note_on_c, 0, 74, 0
1, 45336, Note_on_c, 0, 75, 70
1, 45359, Note_on_c, 0, 75, 0
1, 45360, Note_on_c, 0, 77, 70
1, 45383, Note_on_c, 0, 77, 0
1, 45384, Note_on_c, 0, 75, 71
1, 45407, Note_on_c, 0, 75, 0
1, 45408, Note_on_c, 0, 74, 71
1, 45431, Note_on_c, 0, 74, 0
1, 45432, Note_on_c, 0, 80, 71
1, 45445, Note_on_c, 1, 68, 0
1, 45445, Note_on_c, 1, 58, 0
1, 45455, Note_on_c, 0, 80, 0
1, 45456, Note_on_c, 0, 77, 72
1, 45456, Note_on_c, 1, 68, 66
1, 45456, Note_on_c, 1, 59, 66
1, 45479, Note_on_c, 0, 77, 0
1, 45480, Note_on_c, 0, 75, 72
1, 45501, Note_on_c, 1, 68, 0
1, 45501, Note_on_c, 1, 59, 0
1, 45503, Note_on_c, 0, 75, 0
1, 45504, Note_on_c, 0, 74, 72
1, 45504, Note_on_c, 1, 68, 67
1, 45504, Note_on_c, 1, 58, 67
1, 45527, Note_on_c, 0, 74, 0
1, 45528, Note_on_c, 0, 75, 72
1, 45551, Note_on_c, 0, 75, 0
1, 45552, Note_on_c, 0, 77, 73
1, 45575, Note_on_c, 0, 77, 0
1, 45576, Note_on_c, 0, 75, 73
1, 45599, Note_on_c, 0, 75, 0
1, 45600, Note_on_c, 0, 74, 73
1, 45623, Note_on_c, 0, 74, 0
1, 45624, Note_on_c, 0, 80, 74
1, 45637, Note_on_c, 1, 68, 0
1, 45637, Note_on_c, 1, 58, 0
1, 45647, Note_on_c, 0, 80, 0
1, 45648, Note_on_c, 0, 77, 74
1, 45648, Note_on_c, 1, 68, 70
1, 45648, Note_on_c, 1, 59, 70
1, 45671, Note_on_c, 0, 77, 0
1, 45672, Note_on_c, 0, 75, 74
1, 45693, Note_on_c, 1, 68, 0
1, 45693, Note_on_c, 1, 59, 0
1, 45695, Note_on_c, 0, 75, 0
1, 45696, Note_on_c, 0, 74, 75
1, 45696, Note_on_c, 1, 68, 71
1, 45696, Note_on_c, 1, 58, 71
1, 45719, Note_on_c, 0, 74, 0
1, 45720, Note_on_c, 0, 77, 75
1, 45743, Note_on_c, 0, 77, 0
1, 45744, Note_on_c, 0, 75, 75
1, 45767, Note_on_c, 0, 75, 0
1, 45768, Note_on_c, 0, 79, 75
1, 45791, Note_on_c, 0, 79, 0
1, 45792, Note_on_c, 0, 77, 76
1, 45815, Note_on_c, 0, 77, 0
1, 45816, Note_on_c, 0, 80, 76
1, 45839, Note_on_c, 0, 80, 0
1, 45840, Note_on_c, 0, 79, 76
1, 45863, Note_on_c, 0, 79, 0
1, 45864, Note_on_c, 0, 82, 77
1, 45887, Note_on_c, 0, 82, 0
1, 45888, Note_on_c, 0, 80, 77
1, 45888, Note_on_c, 1, 68, 0
1, 45888, Note_on_c, 1, 62, 74
1, 45911, Note_on_c, 0, 80, 0
1, 45912, Note_on_c, 0, 79, 77
1, 45935, Note_on_c, 0, 79, 0
1, 45936, Note_on_c, 0, 77, 77
1, 45959, Note_on_c, 0, 77, 0
1, 45960, Note_on_c, 0, 75, 78
1, 45983, Note_on_c, 0, 75, 0
1, 45984, Note_on_c, 0, 74, 78
1, 46007, Note_on_c, 0, 74, 0
1, 46008, Note_on_c, 0, 72, 78
1, 46031, Note_on_c, 0, 72, 0
1, 46032, Note_on_c, 0, 70, 79
1, 46055, Note_on_c, 0, 70, 0
1, 46056, Note_on_c, 0, 68, 79
1, 46065, Note_on_c, 1, 62, 0
1, 46065, Note_on_c, 1, 58, 0
1, 46079, Note_on_c, 0, 68, 0
1, 46080, Note_on_c, 0, 67, 79
1, 46080, Note_on_c, 1, 63, 78
1, 46080, Note_on_c, 1, 58, 78
1, 46080, Note_on_c, 1, 55, 78
1, 46080, Note_on_c, 1, 51, 78
1, 46103, Note_on_c, 0, 67, 0
1, 46104, Note_on_c, 0, 70, 80
1, 46127, Note_on_c, 0, 70, 0
1, 46128, Note_on_c, 0, 72, 80
1, 46151, Note_on_c, 0, 72, 0
1, 46152, Note_on_c, 0, 70, 80
1, 46169, Note_on_c, 1, 63, 0
1, 46169, Note_on_c, 1, 58, 0
1, 46169, Note_on_c, 1, 55, 0
1, 46169, Note_on_c, 1, 51, 0
1, 46175, Note_on_c, 0, 70, 0
1, 46176, Note_on_c, 0, 68, 80
1, 46199, Note_on_c, 0, 68, 0
1, 46200, Note_on_c, 0, 67, 80
1, 46223, Note_on_c, 0, 67, 0
1, 46224, Note_on_c, 0, 65, 80
1, 46247, Note_on_c, 0, 65, 0
1, 46248, Note_on_c, 0, 63, 80
1, 46271, Note_on_c, 0, 63, 0
1, 46272, Note_on_c, 0, 62, 80
1, 46272, Note_on_c, 1, 56, 80
1, 46272, Note_on_c, 1, 46, 80
1, 46295, Note_on_c, 0, 62, 0
1, 46296, Note_on_c, 0, 63, 80
1, 46319, Note_on_c, 0, 63, 0
1, 46320, Note_on_c, 0, 65, 80
1, 46343, Note_on_c, 0, 65, 0
1, 46344, Note_on_c, 0, 63, 80
1, 46361, Note_on_c, 1, 56, 0
1, 46361, Note_on_c, 1, 46, 0
1, 46367, Note_on_c, 0, 63, 0
1, 46368, Note_on_c, 0, 62, 80
1, 46391, Note_on_c, 0, 62, 0
1, 46392, Note_on_c, 0, 60, 80
1, 46415, Note_on_c, 0, 60, 0
1, 46416, Note_on_c, 0, 58, 80
1, 46439, Note_on_c, 0, 58, 0
1, 46440, Note_on_c, 0, 56, 80
1, 46463, Note_on_c, 0, 56, 0
1, 46464, Note_on_c, 0, 55, 80
1, 46464, Note_on_c, 1, 51, 80
1, 46464, Note_on_c, 1, 39, 80
1, 46487, Note_on_c, 0, 55, 0
1, 46488, Note_on_c, 0, 56, 80
1, 46511, Note_on_c, 0, 56, 0
1, 46512, Note_on_c, 0, 58, 80
1, 46535, Note_on_c, 0, 58, 0
1, 46536, Note_on_c, 0, 56, 80
1, 46553, Note_on_c, 1, 51, 0
1, 46553, Note_on_c, 1, 39, 0
1, 46559, Note_on_c, 0, 56, 0
1, 46560, Note_on_c, 0, 55, 80
1, 46583, Note_on_c, 0, 55, 0
1, 46584, Note_on_c, 0, 67, 80
1, 46607, Note_on_c, 0, 67, 0
1, 46608, Note_on_c, 0, 65, 78
1, 46608, Note_on_c, 1, 55, 80
1, 46608, Note_on_c, 1, 51, 80
1, 46631, Note_on_c, 0, 65, 0
1, 46632, Note_on_c, 0, 63, 77
1, 46653, Note_on_c, 1, 55, 0
1, 46653, Note_on_c, 1, 51, 0
1, 46655, Note_on_c, 0, 63, 0
1, 46656, Note_on_c, 0, 62, 76
1, 46656, Note_on_c, 1, 56, 77
1, 46656, Note_on_c, 1, 53, 77
1, 46679, Note_on_c, 0, 62, 0
1, 46680, Note_on_c, 0, 63, 75
1, 46703, Note_on_c, 0, 63, 0
1, 46704, Note_on_c, 0, 65, 74
1, 46727, Note_on_c, 0, 65, 0
1, 46728, Note_on_c, 0, 63, 73
1, 46745, Note_on_c, 1, 56, 0
1, 46745, Note_on_c, 1, 53, 0
1, 46751, Note_on_c, 0, 63, 0
1, 46752, Note_on_c, 0, 62, 72
1, 46775, Note_on_c, 0, 62, 0
1, 46776, Note_on_c, 0, 72, 71
1, 46799, Note_on_c, 0, 72, 0
1, 46800, Note_on_c, 0, 70, 70
1, 46800, Note_on_c, 1, 53, 70
1, 46800, Note_on_c, 1, 50, 70
1, 46823, Note_on_c, 0, 70, 0
1, 46824, Note_on_c, 0, 68, 69
1, 46845, Note_on_c, 1, 53, 0
1, 46845, Note_on_c, 1, 50, 0
1, 46847, Note_on_c, 0, 68, 0
1, 46848, Note_on_c, 0, 67, 68
1, 46848, Note_on_c, 1, 55, 68
1, 46848, Note_on_c, 1, 51, 68
1, 46871, Note_on_c, 0, 67, 0
1, 46872, Note_on_c, 0, 68, 67
1, 46895, Note_on_c, 0, 68, 0
1, 46896, Note_on_c, 0, 70, 66
1, 46919, Note_on_c, 0, 70, 0
1, 46920, Note_on_c, 0, 68, 65
1, 46937, Note_on_c, 1, 55, 0
1, 46937, Note_on_c, 1, 51, 0
1, 46943, Note_on_c, 0, 68, 0
1, 46944, Note_on_c, 0, 67, 64
1, 46967, Note_on_c, 0, 67, 0
1, 46968, Note_on_c, 0, 79, 63
1, 46991, Note_on_c, 0, 79, 0
1, 46992, Note_on_c, 0, 77, 63
1, 46992, Note_on_c, 1, 67, 64
1, 46992, Note_on_c, 1, 63, 64
1, 47015, Note_on_c, 0, 77, 0
1, 47016, Note_on_c, 0, 75, 62
1, 47037, Note_on_c, 1, 67, 0
1, 47037, Note_on_c, 1, 63, 0
1, 47039, Note_on_c, 0, 75, 0
1, 47040, Note_on_c, 0, 74, 62
1, 47040, Note_on_c, 1, 68, 64
1, 47040, Note_on_c, 1, 65, 64
1, 47063, Note_on_c, 0, 74, 0
1, 47064, Note_on_c, 0, 75, 61
1, 47087, Note_on_c, 0, 75, 0
1, 47088, Note_on_c, 0, 77, 61
1, 47111, Note_on_c, 0, 77, 0
1, 47112, Note_on_c, 0, 75, 60
1, 47129, Note_on_c, 1, 68, 0
1, 47129, Note_on_c, 1, 65, 0
1, 47135, Note_on_c, 0, 75, 0
1, 47136, Note_on_c, 0, 74, 60
1, 47159, Note_on_c, 0, 74, 0
1, 47160, Note_on_c, 0, 84, 59
1, 47183, Note_on_c, 0, 84, 0
1, 47184, Note_on_c, 0, 80, 59
1, 47207, Note_on_c, 0, 80, 0
1, 47208, Note_on_c, 0, 77, 58
1, 47231, Note_on_c, 0, 77, 0
1, 47232, Note_on_c, 0, 79, 58
1, 47255, Note_on_c, 0, 79, 0
1, 47256, Note_on_c, 0, 75, 58
1, 47279, Note_on_c, 0, 75, 0
1, 47280, Note_on_c, 0, 74, 58
1, 47303, Note_on_c, 0, 74, 0
1, 47304, Note_on_c, 0, 75, 58
1, 47327, Note_on_c, 0, 75, 0
1, 47328, Note_on_c, 0, 79, 58
1, 47351, Note_on_c, 0, 79, 0
1, 47352, Note_on_c, 0, 75, 58
1, 47375, Note_on_c, 0, 75, 0
1, 47376, Note_on_c, 0, 74, 58
1, 47399, Note_on_c, 0, 74, 0
1, 47400, Note_on_c, 0, 75, 58
1, 47423, Note_on_c, 0, 75, 0
1, 47424, Note_on_c, 0, 80, 58
1, 47447, Note_on_c, 0, 80, 0
1, 47448, Note_on_c, 0, 75, 58
1, 47471, Note_on_c, 0, 75, 0
1, 47472, Note_on_c, 0, 72, 58
1, 47495, Note_on_c, 0, 72, 0
1, 47496, Note_on_c, 0, 75, 58
1, 47519, Note_on_c, 0, 75, 0
1, 47520, Note_on_c, 0, 80, 58
1, 47543, Note_on_c, 0, 80, 0
1, 47544, Note_on_c, 0, 75, 58
1, 47567, Note_on_c, 0, 75, 0
1, 47568, Note_on_c, 0, 72, 58
1, 47591, Note_on_c, 0, 72, 0
1, 47592, Note_on_c, 0, 75, 58
1, 47615, Note_on_c, 0, 75, 0
1, 47616, Note_on_c, 0, 82, 58
1, 47639, Note_on_c, 0, 82, 0
1, 47640, Note_on_c, 0, 75, 58
1, 47663, Note_on_c, 0, 75, 0
1, 47664, Note_on_c, 0, 67, 58
1, 47687, Note_on_c, 0, 67, 0
1, 47688, Note_on_c, 0, 75, 58
1, 47711, Note_on_c, 0, 75, 0
1, 47712, Note_on_c, 0, 82, 58
1, 47735, Note_on_c, 0, 82, 0
1, 47736, Note_on_c, 0, 75, 58
1, 47759, Note_on_c, 0, 75, 0
1, 47760, Note_on_c, 0, 67, 58
1, 47783, Note_on_c, 0, 67, 0
1, 47784, Note_on_c, 0, 75, 58
1, 47807, Note_on_c, 0, 75, 0
1, 47808, Note_on_c, 0, 84, 58
1, 47831, Note_on_c, 0, 84, 0
1, 47832, Note_on_c, 0, 75, 58
1, 47855, Note_on_c, 0, 75, 0
1, 47856, Note_on_c, 0, 68, 58
1, 47879, Note_on_c, 0, 68, 0
1, 47880, Note_on_c, 0, 75, 58
1, 47903, Note_on_c, 0, 75, 0
1, 47904, Note_on_c, 0, 82, 58
1, 47927, Note_on_c, 0, 82, 0
1, 47928, Note_on_c, 0, 75, 58
1, 47951, Note_on_c, 0, 75, 0
1, 47952, Note_on_c, 0, 66, 58
1, 47975, Note_on_c, 0, 66, 0
1, 47976, Note_on_c, 0, 75, 58
1, 47999, Note_on_c, 0, 75, 0
1, 48000, Note_on_c, 0, 81, 58
1, 48023, Note_on_c, 0, 81, 0
1, 48024, Note_on_c, 0, 75, 58
1, 48047, Note_on_c, 0, 75, 0
1, 48048, Note_on_c, 0, 65, 58
1, 48071, Note_on_c, 0, 65, 0
1, 48072, Note_on_c, 0, 75, 58
1, 48095, Note_on_c, 0, 75, 0
1, 48096, Note_on_c, 0, 82, 58
1, 48119, Note_on_c, 0, 82, 0
1, 48120, Note_on_c, 0, 75, 58
1, 48143, Note_on_c, 0, 75, 0
1, 48144, Note_on_c, 0, 66, 58
1, 48167, Note_on_c, 0, 66, 0
1, 48168, Note_on_c, 0, 75, 58
1, 48191, Note_on_c, 0, 75, 0
1, 48192, Note_on_c, 0, 81, 58
1, 48215, Note_on_c, 0, 81, 0
1, 48216, Note_on_c, 0, 75, 58
1, 48239, Note_on_c, 0, 75, 0
1, 48240, Note_on_c, 0, 65, 58
1, 48263, Note_on_c, 0, 65, 0
1, 48264, Note_on_c, 0, 75, 58
1, 48287, Note_on_c, 0, 75, 0
1, 48288, Note_on_c, 0, 84, 58
1, 48311, Note_on_c, 0, 84, 0
1, 48312, Note_on_c, 0, 75, 58
1, 48335, Note_on_c, 0, 75, 0
1, 48336, Note_on_c, 0, 69, 58
1, 48359, Note_on_c, 0, 69, 0
1, 48360, Note_on_c, 0, 75, 58
1, 48383, Note_on_c, 0, 75, 0
1, 48384, Note_on_c, 0, 77, 58
1, 48407, Note_on_c, 0, 77, 0
1, 48408, Note_on_c, 0, 74, 58
1, 48431, Note_on_c, 0, 74, 0
1, 48432, Note_on_c, 0, 70, 58
1, 48455, Note_on_c, 0, 70, 0
1, 48456, Note_on_c, 0, 74, 59
1, 48479, Note_on_c, 0, 74, 0
1, 48480, Note_on_c, 0, 79, 59
1, 48503, Note_on_c, 0, 79, 0
1, 48504, Note_on_c, 0, 75, 59
1, 48527, Note_on_c, 0, 75, 0
1, 48528, Note_on_c, 0, 70, 60
1, 48551, Note_on_c, 0, 70, 0
1, 48552, Note_on_c, 0, 75, 60
1, 48575, Note_on_c, 0, 75, 0
1, 48576, Note_on_c, 0, 80, 60
1, 48599, Note_on_c, 0, 80, 0
1, 48600, Note_on_c, 0, 77, 61
1, 48623, Note_on_c, 0, 77, 0
1, 48624, Note_on_c, 0, 70, 61
1, 48647, Note_on_c, 0, 70, 0
1, 48648, Note_on_c, 0, 77, 61
1, 48671, Note_on_c, 0, 77, 0
1, 48672, Note_on_c, 0, 77, 62
1, 48695, Note_on_c, 0, 77, 0
1, 48696, Note_on_c, 0, 74, 62
1, 48719, Note_on_c, 0, 74, 0
1, 48720, Note_on_c, 0, 70, 63
1, 48743, Note_on_c, 0, 70, 0
1, 48744, Note_on_c, 0, 74, 63
1, 48767, Note_on_c, 0, 74, 0
1, 48768, Note_on_c, 0, 79, 63
1, 48791, Note_on_c, 0, 79, 0
1, 48792, Note_on_c, 0, 70, 64
1, 48815, Note_on_c, 0, 70, 0
1, 48816, Note_on_c, 0, 63, 64
1, 48839, Note_on_c, 0, 63, 0
1, 48840, Note_on_c, 0, 70, 64
1, 48863, Note_on_c, 0, 70, 0
1, 48864, Note_on_c, 0, 77, 65
1, 48887, Note_on_c, 0, 77, 0
1, 48888, Note_on_c, 0, 68, 65
1, 48911, Note_on_c, 0, 68, 0
1, 48912, Note_on_c, 0, 63, 65
1, 48935, Note_on_c, 0, 63, 0
1, 48936, Note_on_c, 0, 68, 66
1, 48959, Note_on_c, 0, 68, 0
1, 48960, Note_on_c, 0, 75, 66
1, 48983, Note_on_c, 0, 75, 0
1, 48984, Note_on_c, 0, 67, 67
1, 49007, Note_on_c, 0, 67, 0
1, 49008, Note_on_c, 0, 63, 67
1, 49031, Note_on_c, 0, 63, 0
1, 49032, Note_on_c, 0, 67, 67
1, 49055, Note_on_c, 0, 67, 0
1, 49056, Note_on_c, 0, 79, 68
1, 49079, Note_on_c, 0, 79, 0
1, 49080, Note_on_c, 0, 70, 68
1, 49103, Note_on_c, 0, 70, 0
1, 49104, Note_on_c, 0, 63, 68
1, 49127, Note_on_c, 0, 63, 0
1, 49128, Note_on_c, 0, 70, 69
1, 49151, Note_on_c, 0, 70, 0
1, 49152, Note_on_c, 0, 80, 69
1, 49175, Note_on_c, 0, 80, 0
1, 49176, Note_on_c, 0, 72, 69
1, 49199, Note_on_c, 0, 72, 0
1, 49200, Note_on_c, 0, 63, 70
1, 49223, Note_on_c, 0, 63, 0
1, 49224, Note_on_c, 0, 72, 70
1, 49247, Note_on_c, 0, 72, 0
1, 49248, Note_on_c, 0, 79, 70
1, 49271, Note_on_c, 0, 79, 0
1, 49272, Note_on_c, 0, 70, 71
1, 49295, Note_on_c, 0, 70, 0
1, 49296, Note_on_c, 0, 63, 71
1, 49319, Note_on_c, 0, 63, 0
1, 49320, Note_on_c, 0, 70, 72
1, 49343, Note_on_c, 0, 70, 0
1, 49344, Note_on_c, 0, 77, 72
1, 49367, Note_on_c, 0, 77, 0
1, 49368, Note_on_c, 0, 68, 72
1, 49391, Note_on_c, 0, 68, 0
1, 49392, Note_on_c, 0, 63, 73
1, 49415, Note_on_c, 0, 63, 0
1, 49416, Note_on_c, 0, 68, 73
1, 49439, Note_on_c, 0, 68, 0
1, 49440, Note_on_c, 0, 80, 73
1, 49463, Note_on_c, 0, 80, 0
1, 49464, Note_on_c, 0, 72, 74
1, 49487, Note_on_c, 0, 72, 0
1, 49488, Note_on_c, 0, 63, 74
1, 49511, Note_on_c, 0, 63, 0
1, 49512, Note_on_c, 0, 72, 74
1, 49535, Note_on_c, 0, 72, 0
1, 49536, Note_on_c, 0, 79, 75
1, 49559, Note_on_c, 0, 79, 0
1, 49560, Note_on_c, 0, 70, 75
1, 49583, Note_on_c, 0, 70, 0
1, 49584, Note_on_c, 0, 63, 76
1, 49607, Note_on_c, 0, 63, 0
1, 49608, Note_on_c, 0, 70, 76
1, 49631, Note_on_c, 0, 70, 0
1, 49632, Note_on_c, 0, 77, 76
1, 49655, Note_on_c, 0, 77, 0
1, 49656, Note_on_c, 0, 68, 77
1, 49679, Note_on_c, 0, 68, 0
1, 49680, Note_on_c, 0, 63, 77
1, 49703, Note_on_c, 0, 63, 0
1, 49704, Note_on_c, 0, 68, 77
1, 49727, Note_on_c, 0, 68, 0
1, 49728, Note_on_c, 0, 75, 78
1, 49751, Note_on_c, 0, 75, 0
1, 49752, Note_on_c, 0, 67, 78
1, 49775, Note_on_c, 0, 67, 0
1, 49776, Note_on_c, 0, 63, 78
1, 49799, Note_on_c, 0, 63, 0
1, 49800, Note_on_c, 0, 67, 79
1, 49823, Note_on_c, 0, 67, 0
1, 49824, Note_on_c, 0, 82, 79
1, 49847, Note_on_c, 0, 82, 0
1, 49848, Note_on_c, 0, 79, 80
1, 49871, Note_on_c, 0, 79, 0
1, 49872, Note_on_c, 0, 75, 80
1, 49895, Note_on_c, 0, 75, 0
1, 49896, Note_on_c, 0, 79, 80
1, 49919, Note_on_c, 0, 79, 0
1, 49920, Note_on_c, 0, 82, 80
1, 49943, Note_on_c, 0, 82, 0
1, 49944, Note_on_c, 0, 77, 80
1, 49967, Note_on_c, 0, 77, 0
1, 49968, Note_on_c, 0, 74, 80
1, 49991, Note_on_c, 0, 74, 0
1, 49992, Note_on_c, 0, 77, 80
1, 50015, Note_on_c, 0, 77, 0
1, 50016, Note_on_c, 0, 82, 80
1, 50039, Note_on_c, 0, 82, 0
1, 50040, Note_on_c, 0, 75, 80
1, 50063, Note_on_c, 0, 75, 0
1, 50064, Note_on_c, 0, 72, 80
1, 50087, Note_on_c, 0, 72, 0
1, 50088, Note_on_c, 0, 75, 80
1, 50111, Note_on_c, 0, 75, 0
1, 50112, Note_on_c, 0, 82, 80
1, 50135, Note_on_c, 0, 82, 0
1, 50136, Note_on_c, 0, 74, 80
1, 50159, Note_on_c, 0, 74, 0
1, 50160, Note_on_c, 0, 70, 76
1, 50183, Note_on_c, 0, 70, 0
1, 50184, Note_on_c, 0, 74, 72
1, 50207, Note_on_c, 0, 74, 0
1, 50208, Note_on_c, 0, 82, 68
1, 50231, Note_on_c, 0, 82, 0
1, 50232, Note_on_c, 0, 79, 64
1, 50255, Note_on_c, 0, 79, 0
1, 50256, Note_on_c, 0, 75, 64
1, 50279, Note_on_c, 0, 75, 0
1, 50280, Note_on_c, 0, 79, 64
1, 50303, Note_on_c, 0, 79, 0
1, 50304, Note_on_c, 0, 82, 64
1, 50327, Note_on_c, 0, 82, 0
1, 50328, Note_on_c, 0, 77, 64
1, 50351, Note_on_c, 0, 77, 0
1, 50352, Note_on_c, 0, 74, 64
1, 50375, Note_on_c, 0, 74, 0
1, 50376, Note_on_c, 0, 77, 64
1, 50399, Note_on_c, 0, 77, 0
1, 50400, Note_on_c, 0, 82, 64
1, 50423, Note_on_c, 0, 82, 0
1, 50424, Note_on_c, 0, 75, 64
1, 50447, Note_on_c, 0, 75, 0
1, 50448, Note_on_c, 0, 72, 64
1, 50471, Note_on_c, 0, 72, 0
1, 50472, Note_on_c, 0, 75, 64
1, 50495, Note_on_c, 0, 75, 0
1, 50496, Note_on_c, 0, 82, 64
1, 50519, Note_on_c, 0, 82, 0
1, 50520, Note_on_c, 0, 74, 64
1, 50543, Note_on_c, 0, 74, 0
1, 50544, Note_on_c, 0, 70, 64
1, 50567, Note_on_c, 0, 70, 0
1, 50568, Note_on_c, 0, 74, 64
1, 50591, Note_on_c, 0, 74, 0
1, 50592, Note_on_c, 0, 82, 64
1, 50615, Note_on_c, 0, 82, 0
1, 50616, Note_on_c, 0, 74, 64
1, 50639, Note_on_c, 0, 74, 0
1, 50640, Note_on_c, 0, 68, 64
1, 50663, Note_on_c, 0, 68, 0
1, 50664, Note_on_c, 0, 74, 64
1, 50687, Note_on_c, 0, 74, 0
1, 50688, Note_on_c, 0, 83, 64
1, 50711, Note_on_c, 0, 83, 0
1, 50712, Note_on_c, 0, 74, 64
1, 50735, Note_on_c, 0, 74, 0
1, 50736, Note_on_c, 0, 67, 65
1, 50759, Note_on_c, 0, 67, 0
1, 50760, Note_on_c, 0, 74, 66
1, 50783, Note_on_c, 0, 74, 0
1, 50784, Note_on_c, 0, 83, 66
1, 50807, Note_on_c, 0, 83, 0
1, 50808, Note_on_c, 0, 74, 67
1, 50831, Note_on_c, 0, 74, 0
1, 50832, Note_on_c, 0, 67, 68
1, 50855, Note_on_c, 0, 67, 0
1, 50856, Note_on_c, 0, 74, 68
1, 50879, Note_on_c, 0, 74, 0
1, 50880, Note_on_c, 0, 84, 69
1, 50903, Note_on_c, 0, 84, 0
1, 50904, Note_on_c, 0, 75, 70
1, 50927, Note_on_c, 0, 75, 0
1, 50928, Note_on_c, 0, 66, 70
1, 50951, Note_on_c, 0, 66, 0
1, 50952, Note_on_c, 0, 75, 71
1, 50975, Note_on_c, 0, 75, 0
1, 50976, Note_on_c, 0, 84, 72
1, 50999, Note_on_c, 0, 84, 0
1, 51000, Note_on_c, 0, 75, 72
1, 51023, Note_on_c, 0, 75, 0
1, 51024, Note_on_c, 0, 66, 73
1, 51047, Note_on_c, 0, 66, 0
1, 51048, Note_on_c, 0, 75, 74
1, 51071, Note_on_c, 0, 75, 0
1, 51072, Note_on_c, 0, 83, 74
1, 51095, Note_on_c, 0, 83, 0
1, 51096, Note_on_c, 0, 74, 75
1, 51119, Note_on_c, 0, 74, 0
1, 51120, Note_on_c, 0, 67, 76
1, 51143, Note_on_c, 0, 67, 0
1, 51144, Note_on_c, 0, 74, 76
1, 51167, Note_on_c, 0, 74, 0
1, 51168, Note_on_c, 0, 83, 77
1, 51191, Note_on_c, 0, 83, 0
1, 51192, Note_on_c, 0, 74, 78
1, 51215, Note_on_c, 0, 74, 0
1, 51216, Note_on_c, 0, 67, 78
1, 51239, Note_on_c, 0, 67, 0
1, 51240, Note_on_c, 0, 74, 79
1, 51263, Note_on_c, 0, 74, 0
1, 51264, Note_on_c, 0, 84, 80
1, 51287, Note_on_c, 0, 84, 0
1, 51288, Note_on_c, 0, 75, 80
1, 51311, Note_on_c, 0, 75, 0
1, 51312, Note_on_c, 0, 66, 81
1, 51335, Note_on_c, 0, 66, 0
1, 51336, Note_on_c, 0, 75, 82
1, 51359, Note_on_c, 0, 75, 0
1, 51360, Note_on_c, 0, 84, 82
1, 51383, Note_on_c, 0, 84, 0
1, 51384, Note_on_c, 0, 75, 83
1, 51407, Note_on_c, 0, 75, 0
1, 51408, Note_on_c, 0, 66, 84
1, 51431, Note_on_c, 0, 66, 0
1, 51432, Note_on_c, 0, 75, 84
1, 51455, Note_on_c, 0, 75, 0
1, 51456, Note_on_c, 0, 83, 85
1, 51479, Note_on_c, 0, 83, 0
1, 51480, Note_on_c, 0, 71, 86
1, 51503, Note_on_c, 0, 71, 0
1, 51504, Note_on_c, 1, 67, 86
1, 51527, Note_on_c, 1, 67, 0
1, 51528, Note_on_c, 1, 55, 86
1, 51551, Note_on_c, 1, 55, 0
1, 51552, Note_on_c, 0, 79, 86
1, 51575, Note_on_c, 0, 79, 0
1, 51576, Note_on_c, 0, 67, 86
1, 51599, Note_on_c, 0, 67, 0
1, 51600, Note_on_c, 1, 62, 86
1, 51623, Note_on_c, 1, 62, 0
1, 51624, Note_on_c, 1, 50, 86
1, 51647, Note_on_c, 1, 50, 0
1, 51648, Note_on_c, 0, 74, 86
1, 51671, Note_on_c, 0, 74, 0
1, 51672, Note_on_c, 0, 62, 86
1, 51695, Note_on_c, 0, 62, 0
1, 51696, Note_on_c, 1, 59, 86
1, 51719, Note_on_c, 1, 59, 0
1, 51720, Note_on_c, 1, 47, 86
1, 51743, Note_on_c, 1, 47, 0
1, 51744, Note_on_c, 0, 71, 86
1, 51767, Note_on_c, 0, 71, 0
1, 51768, Note_on_c, 0, 59, 86
1, 51791, Note_on_c, 0, 59, 0
1, 51792, Note_on_c, 1, 55, 86
1, 51815, Note_on_c, 1, 55, 0
1, 51816, Note_on_c, 1, 43, 86
1, 51840, Note_on_c, 1, 31, 86
1, 51929, Note_on_c, 1, 43, 0
1, 51929, Note_on_c, 1, 31, 0
1, 51984, Note_on_c, 0, 67, 80
1, 52029, Note_on_c, 0, 67, 0
1, 52032, Note_on_c, 0, 67, 64
1, 52077, Note_on_c, 0, 67, 0
1, 52080, Note_on_c, 0, 67, 64
1, 52125, Note_on_c, 0, 67, 0
1, 52128, Note_on_c, 0, 67, 64
1, 52173, Note_on_c, 0, 67, 0
1, 52176, Note_on_c, 0, 68, 80
1, 52176, Note_on_c, 0, 67, 80
1, 52221, Note_on_c, 0, 68, 0
1, 52221, Note_on_c, 0, 67, 0
1, 52224, Note_on_c, 0, 68, 64
1, 52224, Note_on_c, 0, 67, 64
1, 52269, Note_on_c, 0, 68, 0
1, 52269, Note_on_c, 0, 67, 0
1, 52272, Note_on_c, 0, 68, 64
1, 52272, Note_on_c, 0, 67, 64
1, 52317, Note_on_c, 0, 68, 0
1, 52317, Note_on_c, 0, 67, 0
1, 52320, Note_on_c, 0, 68, 64
1, 52320, Note_on_c, 0, 67, 64
1, 52365, Note_on_c, 0, 68, 0
1, 52365, Note_on_c, 0, 67, 0
1, 52368, Note_on_c, 0, 68, 80
1, 52368, Note_on_c, 0, 65, 80
1, 52368, Note_on_c, 1, 53, 80
1, 52413, Note_on_c, 0, 68, 0
1, 52413, Note_on_c, 0, 65, 0
1, 52413, Note_on_c, 1, 53, 0
1, 52416, Note_on_c, 0, 68, 64
1, 52416, Note_on_c, 0, 65, 64
1, 52416, Note_on_c, 1, 63, 64
1, 52461, Note_on_c, 0, 68, 0
1, 52461, Note_on_c, 0, 65, 0
1, 52461, Note_on_c, 1, 63, 0
1, 52464, Note_on_c, 0, 68, 64
1, 52464, Note_on_c, 0, 65, 64
1, 52464, Note_on_c, 1, 62, 64
1, 52509, Note_on_c, 0, 68, 0
1, 52509, Note_on_c, 0, 65, 0
1, 52509, Note_on_c, 1, 62, 0
1, 52512, Note_on_c, 0, 68, 64
1, 52512, Note_on_c, 0, 65, 64
1, 52512, Note_on_c, 1, 61, 64
1, 52557, Note_on_c, 0, 68, 0
1, 52557, Note_on_c, 0, 65, 0
1, 52557, Note_on_c, 1, 61, 0
1, 52560, Note_on_c, 0, 68, 64
1, 52560, Note_on_c, 0, 65, 64
1, 52560, Note_on_c, 1, 60, 64
1, 52605, Note_on_c, 0, 68, 0
1, 52605, Note_on_c, 0, 65, 0
1, 52605, Note_on_c, 1, 60, 0
1, 52608, Note_on_c, 0, 67, 64
1, 52608, Note_on_c, 0, 65, 64
1, 52608, Note_on_c, 1, 59, 64
1, 52697, Note_on_c, 0, 67, 0
1, 52697, Note_on_c, 0, 65, 0
1, 52697, Note_on_c, 1, 59, 0
1, 52752, Note_on_c, 0, 72, 80
1, 52797, Note_on_c, 0, 72, 0
1, 52800, Note_on_c, 0, 72, 64
1, 52845, Note_on_c, 0, 72, 0
1, 52848, Note_on_c, 0, 72, 64
1, 52893, Note_on_c, 0, 72, 0
1, 52896, Note_on_c, 0, 72, 64
1, 52941, Note_on_c, 0, 72, 0
1, 52944, Note_on_c, 0, 73, 80
1, 52944, Note_on_c, 0, 72, 80
1, 52989, Note_on_c, 0, 73, 0
1, 52989, Note_on_c, 0, 72, 0
1, 52992, Note_on_c, 0, 73, 64
1, 52992, Note_on_c, 0, 72, 64
1, 53037, Note_on_c, 0, 73, 0
1, 53037, Note_on_c, 0, 72, 0
1, 53040, Note_on_c, 0, 73, 64
1, 53040, Note_on_c, 0, 72, 64
1, 53085, Note_on_c, 0, 73, 0
1, 53085, Note_on_c, 0, 72, 0
1, 53088, Note_on_c, 0, 73, 64
1, 53088, Note_on_c, 0, 72, 64
1, 53133, Note_on_c, 0, 73, 0
1, 53133, Note_on_c, 0, 72, 0
1, 53136, Note_on_c, 0, 73, 80
1, 53136, Note_on_c, 0, 70, 80
1, 53136, Note_on_c, 1, 51, 80
1, 53181, Note_on_c, 0, 73, 0
1, 53181, Note_on_c, 0, 70, 0
1, 53181, Note_on_c, 1, 51, 0
1, 53184, Note_on_c, 0, 73, 64
1, 53184, Note_on_c, 0, 70, 64
1, 53184, Note_on_c, 1, 52, 64
1, 53229, Note_on_c, 0, 73, 0
1, 53229, Note_on_c, 0, 70, 0
1, 53229, Note_on_c, 1, 52, 0
1, 53232, Note_on_c, 0, 73, 64
1, 53232, Note_on_c, 0, 70, 64
1, 53232, Note_on_c, 1, 53, 64
1, 53277, Note_on_c, 0, 73, 0
1, 53277, Note_on_c, 0, 70, 0
1, 53277, Note_on_c, 1, 53, 0
1, 53280, Note_on_c, 0, 73, 64
1, 53280, Note_on_c, 0, 70, 64
1, 53280, Note_on_c, 1, 54, 64
1, 53325, Note_on_c, 0, 73, 0
1, 53325, Note_on_c, 0, 70, 0
1, 53325, Note_on_c, 1, 54, 0
1, 53328, Note_on_c, 0, 73, 64
1, 53328, Note_on_c, 0, 70, 64
1, 53328, Note_on_c, 1, 55, 64
1, 53373, Note_on_c, 0, 73, 0
1, 53373, Note_on_c, 0, 70, 0
1, 53373, Note_on_c, 1, 55, 0
1, 53376, Note_on_c, 0, 72, 64
1, 53376, Note_on_c, 0, 68, 64
1, 53376, Note_on_c, 1, 56, 64
1, 53421, Note_on_c, 0, 72, 0
1, 53421, Note_on_c, 0, 68, 0
1, 53424, Note_on_c, 0, 72, 64
1, 53424, Note_on_c, 0, 68, 64
1, 53465, Note_on_c, 1, 56, 0
1, 53469, Note_on_c, 0, 72, 0
1, 53469, Note_on_c, 0, 68, 0
1, 53472, Note_on_c, 0, 72, 58
1, 53472, Note_on_c, 0, 68, 58
1, 53517, Note_on_c, 0, 72, 0
1, 53517, Note_on_c, 0, 68, 0
1, 53520, Note_on_c, 0, 84, 86
1, 53520, Note_on_c, 0, 80, 86
1, 53520, Note_on_c, 0, 75, 86
1, 53520, Note_on_c, 1, 63, 86
1, 53520, Note_on_c, 1, 60, 86
1, 53520, Note_on_c, 1, 56, 86
1, 53565, Note_on_c, 0, 84, 0
1, 53565, Note_on_c, 0, 80, 0
1, 53565, Note_on_c, 0, 75, 0
1, 53565, Note_on_c, 1, 63, 0
1, 53565, Note_on_c, 1, 60, 0
1, 53565, Note_on_c, 1, 56, 0
1, 53568, Note_on_c, 0, 84, 86
1, 53568, Note_on_c, 0, 80, 86
1, 53568, Note_on_c, 0, 75, 86
1, 53568, Note_on_c, 1, 56, 86
1, 53613, Note_on_c, 0, 84, 0
1, 53613, Note_on_c, 0, 80, 0
1, 53613, Note_on_c, 0, 75, 0
1, 53613, Note_on_c, 1, 56, 0
1, 53616, Note_on_c, 0, 84, 86
1, 53616, Note_on_c, 0, 80, 86
1, 53616, Note_on_c, 0, 75, 86
1, 53616, Note_on_c, 1, 56, 86
1, 53661, Note_on_c, 0, 84, 0
1, 53661, Note_on_c, 0, 80, 0
1, 53661, Note_on_c, 0, 75, 0
1, 53661, Note_on_c, 1, 56, 0
1, 53664, Note_on_c, 0, 84, 86
1, 53664, Note_on_c, 0, 80, 86
1, 53664, Note_on_c, 0, 75, 86
1, 53664, Note_on_c, 1, 56, 86
1, 53709, Note_on_c, 0, 84, 0
1, 53709, Note_on_c, 0, 80, 0
1, 53709, Note_on_c, 0, 75, 0
1, 53709, Note_on_c, 1, 56, 0
1, 53712, Note_on_c, 0, 84, 86
1, 53712, Note_on_c, 0, 80, 86
1, 53712, Note_on_c, 0, 75, 86
1, 53712, Note_on_c, 1, 56, 86
1, 53757, Note_on_c, 0, 84, 0
1, 53757, Note_on_c, 0, 80, 0
1, 53757, Note_on_c, 0, 75, 0
1, 53757, Note_on_c, 1, 56, 0
1, 53760, Note_on_c, 0, 79, 86
1, 53760, Note_on_c, 0, 73, 86
1, 53760, Note_on_c, 1, 58, 86
1, 53849, Note_on_c, 1, 58, 0
1, 53856, Note_on_c, 0, 79, 0
1, 53856, Note_on_c, 0, 73, 0
1, 53856, Note_on_c, 0, 80, 86
1, 53856, Note_on_c, 0, 72, 86
1, 53856, Note_on_c, 1, 60, 86
1, 53903, Note_on_c, 0, 80, 0
1, 53903, Note_on_c, 0, 72, 0
1, 53904, Note_on_c, 0, 87, 64
1, 53904, Note_on_c, 0, 84, 64
1, 53945, Note_on_c, 1, 60, 0
1, 53949, Note_on_c, 0, 87, 0
1, 53949, Note_on_c, 0, 84, 0
1, 53952, Note_on_c, 0, 87, 64
1, 53952, Note_on_c, 0, 84, 64
1, 53997, Note_on_c, 0, 87, 0
1, 53997, Note_on_c, 0, 84, 0
1, 54000, Note_on_c, 0, 87, 64
1, 54000, Note_on_c, 0, 84, 64
1, 54045, Note_on_c, 0, 87, 0
1, 54045, Note_on_c, 0, 84, 0
1, 54048, Note_on_c, 0, 87, 64
1, 54048, Note_on_c, 0, 84, 64
1, 54093, Note_on_c, 0, 87, 0
1, 54093, Note_on_c, 0, 84, 0
1, 54096, Note_on_c, 0, 87, 64
1, 54096, Note_on_c, 0, 84, 64
1, 54141, Note_on_c, 0, 87, 0
1, 54141, Note_on_c, 0, 84, 0
1, 54144, Note_on_c, 0, 82, 64
1, 54144, Note_on_c, 0, 79, 64
1, 54144, Note_on_c, 1, 75, 64
1, 54240, Note_on_c, 0, 82, 0
1, 54240, Note_on_c, 0, 79, 0
1, 54240, Note_on_c, 0, 84, 64
1, 54240, Note_on_c, 0, 80, 64
1, 54240, Note_on_c, 1, 75, 0
1, 54240, Note_on_c, 1, 68, 64
1, 54285, Note_on_c, 1, 68, 0
1, 54287, Note_on_c, 0, 84, 0
1, 54287, Note_on_c, 0, 80, 0
1, 54288, Note_on_c, 0, 84, 64
1, 54288, Note_on_c, 0, 80, 64
1, 54333, Note_on_c, 0, 84, 0
1, 54333, Note_on_c, 0, 80, 0
1, 54336, Note_on_c, 0, 84, 64
1, 54336, Note_on_c, 0, 80, 64
1, 54381, Note_on_c, 0, 84, 0
1, 54381, Note_on_c, 0, 80, 0
1, 54384, Note_on_c, 0, 84, 64
1, 54384, Note_on_c, 0, 80, 64
1, 54429, Note_on_c, 0, 84, 0
1, 54429, Note_on_c, 0, 80, 0
1, 54432, Note_on_c, 0, 84, 64
1, 54432, Note_on_c, 0, 80, 64
1, 54477, Note_on_c, 0, 84, 0
1, 54477, Note_on_c, 0, 80, 0
1, 54480, Note_on_c, 0, 84, 64
1, 54480, Note_on_c, 0, 80, 64
1, 54525, Note_on_c, 0, 84, 0
1, 54525, Note_on_c, 0, 80, 0
1, 54528, Note_on_c, 0, 79, 64
1, 54528, Note_on_c, 0, 76, 64
1, 54528, Note_on_c, 1, 72, 64
1, 54624, Note_on_c, 0, 79, 0
1, 54624, Note_on_c, 0, 76, 0
1, 54624, Note_on_c, 0, 80, 64
1, 54624, Note_on_c, 0, 77, 64
1, 54624, Note_on_c, 1, 72, 0
1, 54624, Note_on_c, 1, 65, 64
1, 54669, Note_on_c, 1, 65, 0
1, 54671, Note_on_c, 0, 80, 0
1, 54671, Note_on_c, 0, 77, 0
1, 54864, Note_on_c, 0, 80, 64
1, 54864, Note_on_c, 0, 77, 64
1, 54864, Note_on_c, 1, 65, 80
1, 54909, Note_on_c, 0, 80, 0
1, 54909, Note_on_c, 0, 77, 0
1, 54909, Note_on_c, 1, 65, 0
1, 54912, Note_on_c, 0, 80, 64
1, 54912, Note_on_c, 0, 77, 64
1, 54912, Note_on_c, 1, 64, 64
1, 54957, Note_on_c, 0, 80, 0
1, 54957, Note_on_c, 0, 77, 0
1, 54957, Note_on_c, 1, 64, 0
1, 54960, Note_on_c, 0, 80, 64
1, 54960, Note_on_c, 0, 77, 64
1, 54960, Note_on_c, 1, 63, 64
1, 55005, Note_on_c, 0, 80, 0
1, 55005, Note_on_c, 0, 77, 0
1, 55005, Note_on_c, 1, 63, 0
1, 55008, Note_on_c, 0, 80, 64
1, 55008, Note_on_c, 0, 77, 64
1, 55008, Note_on_c, 1, 62, 64
1, 55053, Note_on_c, 0, 80, 0
1, 55053, Note_on_c, 0, 77, 0
1, 55053, Note_on_c, 1, 62, 0
1, 55056, Note_on_c, 0, 80, 64
1, 55056, Note_on_c, 0, 77, 64
1, 55056, Note_on_c, 1, 61, 64
1, 55101, Note_on_c, 0, 80, 0
1, 55101, Note_on_c, 0, 77, 0
1, 55101, Note_on_c, 1, 61, 0
1, 55104, Note_on_c, 0, 80, 64
1, 55104, Note_on_c, 0, 77, 64
1, 55104, Note_on_c, 1, 60, 64
1, 55149, Note_on_c, 1, 60, 0
1, 55152, Note_on_c, 1, 59, 64
1, 55197, Note_on_c, 1, 59, 0
1, 55200, Note_on_c, 0, 80, 0
1, 55200, Note_on_c, 0, 77, 0
1, 55200, Note_on_c, 0, 79, 64
1, 55200, Note_on_c, 0, 76, 64
1, 55200, Note_on_c, 1, 60, 64
1, 55245, Note_on_c, 0, 79, 0
1, 55245, Note_on_c, 0, 76, 0
1, 55245, Note_on_c, 1, 60, 0
1, 55248, Note_on_c, 0, 78, 64
1, 55248, Note_on_c, 0, 75, 64
1, 55248, Note_on_c, 1, 63, 80
1, 55293, Note_on_c, 0, 78, 0
1, 55293, Note_on_c, 0, 75, 0
1, 55293, Note_on_c, 1, 63, 0
1, 55296, Note_on_c, 0, 78, 64
1, 55296, Note_on_c, 0, 75, 64
1, 55296, Note_on_c, 1, 62, 64
1, 55341, Note_on_c, 0, 78, 0
1, 55341, Note_on_c, 0, 75, 0
1, 55341, Note_on_c, 1, 62, 0
1, 55344, Note_on_c, 0, 78, 64
1, 55344, Note_on_c, 0, 75, 64
1, 55344, Note_on_c, 1, 61, 64
1, 55389, Note_on_c, 0, 78, 0
1, 55389, Note_on_c, 0, 75, 0
1, 55389, Note_on_c, 1, 61, 0
1, 55392, Note_on_c, 0, 78, 64
1, 55392, Note_on_c, 0, 75, 64
1, 55392, Note_on_c, 1, 60, 64
1, 55437, Note_on_c, 0, 78, 0
1, 55437, Note_on_c, 0, 75, 0
1, 55437, Note_on_c, 1, 60, 0
1, 55440, Note_on_c, 0, 78, 64
1, 55440, Note_on_c, 0, 75, 64
1, 55440, Note_on_c, 1, 59, 64
1, 55485, Note_on_c, 0, 78, 0
1, 55485, Note_on_c, 0, 75, 0
1, 55485, Note_on_c, 1, 59, 0
1, 55488, Note_on_c, 0, 78, 64
1, 55488, Note_on_c, 0, 75, 64
1, 55488, Note_on_c, 1, 58, 64
1, 55533, Note_on_c, 1, 58, 0
1, 55536, Note_on_c, 1, 57, 64
1, 55581, Note_on_c, 1, 57, 0
1, 55584, Note_on_c, 0, 78, 0
1, 55584, Note_on_c, 0, 75, 0
1, 55584, Note_on_c, 0, 77, 64
1, 55584, Note_on_c, 0, 74, 64
1, 55584, Note_on_c, 1, 58, 64
1, 55629, Note_on_c, 0, 77, 0
1, 55629, Note_on_c, 0, 74, 0
1, 55629, Note_on_c, 1, 58, 0
1, 55632, Note_on_c, 0, 82, 80
1, 55632, Note_on_c, 1, 74, 64
1, 55632, Note_on_c, 1, 70, 64
1, 55677, Note_on_c, 0, 82, 0
1, 55677, Note_on_c, 1, 74, 0
1, 55677, Note_on_c, 1, 70, 0
1, 55680, Note_on_c, 0, 81, 64
1, 55680, Note_on_c, 1, 73, 64
1, 55680, Note_on_c, 1, 70, 64
1, 55725, Note_on_c, 0, 81, 0
1, 55725, Note_on_c, 1, 73, 0
1, 55725, Note_on_c, 1, 70, 0
1, 55728, Note_on_c, 0, 80, 64
1, 55728, Note_on_c, 1, 73, 64
1, 55728, Note_on_c, 1, 70, 64
1, 55773, Note_on_c, 0, 80, 0
1, 55773, Note_on_c, 1, 73, 0
1, 55773, Note_on_c, 1, 70, 0
1, 55776, Note_on_c, 0, 79, 64
1, 55776, Note_on_c, 1, 73, 64
1, 55776, Note_on_c, 1, 70, 64
1, 55821, Note_on_c, 0, 79, 0
1, 55821, Note_on_c, 1, 73, 0
1, 55821, Note_on_c, 1, 70, 0
1, 55824, Note_on_c, 0, 78, 64
1, 55824, Note_on_c, 1, 73, 64
1, 55824, Note_on_c, 1, 70, 64
1, 55869, Note_on_c, 0, 78, 0
1, 55869, Note_on_c, 1, 73, 0
1, 55869, Note_on_c, 1, 70, 0
1, 55872, Note_on_c, 0, 77, 64
1, 55872, Note_on_c, 1, 73, 64
1, 55872, Note_on_c, 1, 70, 64
1, 55917, Note_on_c, 0, 77, 0
1, 55920, Note_on_c, 0, 76, 64
1, 55965, Note_on_c, 0, 76, 0
1, 55968, Note_on_c, 0, 77, 64
1, 55968, Note_on_c, 1, 73, 0
1, 55968, Note_on_c, 1, 70, 0
1, 55968, Note_on_c, 1, 72, 64
1, 55968, Note_on_c, 1, 68, 64
1, 56013, Note_on_c, 0, 77, 0
1, 56013, Note_on_c, 1, 72, 0
1, 56013, Note_on_c, 1, 68, 0
1, 56016, Note_on_c, 0, 80, 80
1, 56016, Note_on_c, 1, 71, 64
1, 56016, Note_on_c, 1, 68, 64
1, 56061, Note_on_c, 0, 80, 0
1, 56061, Note_on_c, 1, 71, 0
1, 56061, Note_on_c, 1, 68, 0
1, 56064, Note_on_c, 0, 79, 64
1, 56064, Note_on_c, 1, 71, 64
1, 56064, Note_on_c, 1, 68, 64
1, 56109, Note_on_c, 0, 79, 0
1, 56109, Note_on_c, 1, 71, 0
1, 56109, Note_on_c, 1, 68, 0
1, 56112, Note_on_c, 0, 78, 64
1, 56112, Note_on_c, 1, 71, 64
1, 56112, Note_on_c, 1, 68, 64
1, 56157, Note_on_c, 0, 78, 0
1, 56157, Note_on_c, 1, 71, 0
1, 56157, Note_on_c, 1, 68, 0
1, 56160, Note_on_c, 0, 77, 64
1, 56160, Note_on_c, 1, 71, 64
1, 56160, Note_on_c, 1, 68, 64
1, 56205, Note_on_c, 0, 77, 0
1, 56205, Note_on_c, 1, 71, 0
1, 56205, Note_on_c, 1, 68, 0
1, 56208, Note_on_c, 0, 76, 64
1, 56208, Note_on_c, 1, 71, 64
1, 56208, Note_on_c, 1, 68, 64
1, 56253, Note_on_c, 0, 76, 0
1, 56253, Note_on_c, 1, 71, 0
1, 56253, Note_on_c, 1, 68, 0
1, 56256, Note_on_c, 0, 75, 64
1, 56256, Note_on_c, 1, 71, 64
1, 56256, Note_on_c, 1, 68, 64
1, 56301, Note_on_c, 0, 75, 0
1, 56304, Note_on_c, 0, 74, 64
1, 56349, Note_on_c, 0, 74, 0
1, 56352, Note_on_c, 0, 75, 64
1, 56352, Note_on_c, 1, 71, 0
1, 56352, Note_on_c, 1, 68, 0
1, 56352, Note_on_c, 1, 70, 64
1, 56352, Note_on_c, 1, 67, 64
1, 56397, Note_on_c, 0, 75, 0
1, 56397, Note_on_c, 1, 70, 0
1, 56397, Note_on_c, 1, 67, 0
1, 56400, Note_on_c, 0, 87, 80
1, 56445, Note_on_c, 0, 87, 0
1, 56448, Note_on_c, 0, 86, 80
1, 56493, Note_on_c, 0, 86, 0
1, 56496, Note_on_c, 0, 85, 80
1, 56541, Note_on_c, 0, 85, 0
1, 56544, Note_on_c, 0, 84, 80
1, 56589, Note_on_c, 0, 84, 0
1, 56592, Note_on_c, 0, 83, 80
1, 56637, Note_on_c, 0, 83, 0
1, 56640, Note_on_c, 0, 82, 80
1, 56640, Note_on_c, 1, 63, 64
1, 56640, Note_on_c, 1, 60, 64
1, 56817, Note_on_c, 0, 82, 0
1, 56817, Note_on_c, 1, 63, 0
1, 56817, Note_on_c, 1, 60, 0
1, 56832, Note_on_c, 0, 72, 80
1, 56832, Note_on_c, 1, 60, 64
1, 56838, Note_on_c, 0, 75, 80
1, 56838, Note_on_c, 1, 63, 64
1, 56844, Note_on_c, 0, 77, 80
1, 56844, Note_on_c, 1, 65, 64
1, 56850, Note_on_c, 0, 81, 80
1, 56850, Note_on_c, 1, 69, 64
1, 57017, Note_on_c, 0, 81, 0
1, 57017, Note_on_c, 0, 77, 0
1, 57017, Note_on_c, 0, 75, 0
1, 57017, Note_on_c, 0, 72, 0
1, 57017, Note_on_c, 1, 69, 0
1, 57017, Note_on_c, 1, 65, 0
1, 57017, Note_on_c, 1, 63, 0
1, 57017, Note_on_c, 1, 60, 0
1, 57168, Note_on_c, 0, 80, 80
1, 57188, Note_on_c, 0, 80, 0
1, 57216, Note_on_c, 0, 79, 80
1, 57261, Note_on_c, 0, 79, 0
1, 57264, Note_on_c, 0, 78, 80
1, 57309, Note_on_c, 0, 78, 0
1, 57312, Note_on_c, 0, 77, 80
1, 57357, Note_on_c, 0, 77, 0
1, 57360, Note_on_c, 0, 76, 80
1, 57405, Note_on_c, 0, 76, 0
1, 57408, Note_on_c, 0, 75, 80
1, 57408, Note_on_c, 1, 68, 64
1, 57408, Note_on_c, 1, 65, 64
1, 57408, Note_on_c, 1, 58, 64
1, 57541, Note_on_c, 0, 75, 0
1, 57541, Note_on_c, 1, 68, 0
1, 57541, Note_on_c, 1, 65, 0
1, 57541, Note_on_c, 1, 58, 0
1, 57552, Note_on_c, 0, 74, 80
1, 57575, Note_on_c, 0, 74, 0
1, 57576, Note_on_c, 0, 84, 80
1, 57599, Note_on_c, 0, 84, 0
1, 57600, Note_on_c, 0, 83, 80
1, 57623, Note_on_c, 0, 83, 0
1, 57624, Note_on_c, 0, 82, 80
1, 57647, Note_on_c, 0, 82, 0
1, 57648, Note_on_c, 0, 81, 80
1, 57671, Note_on_c, 0, 81, 0
1, 57672, Note_on_c, 0, 80, 80
1, 57695, Note_on_c, 0, 80, 0
1, 57696, Note_on_c, 0, 79, 80
1, 57719, Note_on_c, 0, 79, 0
1, 57720, Note_on_c, 0, 78, 80
1, 57743, Note_on_c, 0, 78, 0
1, 57744, Note_on_c, 0, 77, 80
1, 57767, Note_on_c, 0, 77, 0
1, 57768, Note_on_c, 0, 76, 80
1, 57791, Note_on_c, 0, 76, 0
1, 57792, Note_on_c, 0, 75, 86
1, 57792, Note_on_c, 1, 68, 86
1, 57792, Note_on_c, 1, 65, 86
1, 57792, Note_on_c, 1, 58, 86
1, 57886, Note_on_c, 0, 75, 0
1, 57888, Note_on_c, 0, 74, 86
1, 57900, Note_on_c, 0, 74, 0
1, 57900, Note_on_c, 0, 75, 86
1, 57912, Note_on_c, 0, 75, 0
1, 57912, Note_on_c, 0, 77, 86
1, 57924, Note_on_c, 0, 77, 0
1, 57924, Note_on_c, 0, 75, 86
1, 57936, Note_on_c, 0, 75, 0
1, 57936, Note_on_c, 0, 74, 86
1, 57959, Note_on_c, 0, 74, 0
1, 57960, Note_on_c, 0, 77, 86
1, 57983, Note_on_c, 0, 77, 0
1, 57984, Note_on_c, 0, 75, 86
1, 58007, Note_on_c, 0, 75, 0
1, 58008, Note_on_c, 0, 74, 86
1, 58031, Note_on_c, 0, 74, 0
1, 58032, Note_on_c, 0, 74, 86
1, 58165, Note_on_c, 1, 68, 0
1, 58165, Note_on_c, 1, 65, 0
1, 58165, Note_on_c, 1, 58, 0
1, 58265, Note_on_c, 0, 74, 0
1, 58320, Note_on_c, 0, 67, 64
1, 58365, Note_on_c, 0, 67, 0
1, 58368, Note_on_c, 0, 67, 64
1, 58413, Note_on_c, 0, 67, 0
1, 58416, Note_on_c, 0, 67, 64
1, 58461, Note_on_c, 0, 67, 0
1, 58464, Note_on_c, 0, 67, 64
1, 58509, Note_on_c, 0, 67, 0
1, 58512, Note_on_c, 0, 67, 64
1, 58557, Note_on_c, 0, 67, 0
1, 58560, Note_on_c, 0, 67, 64
1, 58560, Note_on_c, 1, 39, 64
1, 58560, Note_on_c, 1, 39, 70
1, 58605, Note_on_c, 1, 39, 0
1, 58608, Note_on_c, 1, 51, 64
1, 58653, Note_on_c, 1, 51, 0
1, 58656, Note_on_c, 0, 67, 0
1, 58656, Note_on_c, 0, 70, 64
1, 58656, Note_on_c, 1, 51, 64
1, 58701, Note_on_c, 0, 70, 0
1, 58701, Note_on_c, 1, 51, 0
1, 58704, Note_on_c, 0, 63, 64
1, 58704, Note_on_c, 1, 51, 64
1, 58749, Note_on_c, 0, 63, 0
1, 58749, Note_on_c, 1, 51, 0
1, 58752, Note_on_c, 0, 62, 64
1, 58752, Note_on_c, 1, 51, 64
1, 58797, Note_on_c, 0, 62, 0
1, 58797, Note_on_c, 1, 51, 0
1, 58800, Note_on_c, 0, 65, 64
1, 58800, Note_on_c, 1, 51, 64
1, 58845, Note_on_c, 0, 65, 0
1, 58845, Note_on_c, 1, 51, 0
1, 58848, Note_on_c, 0, 68, 64
1, 58848, Note_on_c, 1, 51, 64
1, 58893, Note_on_c, 0, 68, 0
1, 58893, Note_on_c, 1, 51, 0
1, 58896, Note_on_c, 0, 62, 64
1, 58896, Note_on_c, 1, 51, 64
1, 58929, Note_on_c, 1, 39, 0
1, 58941, Note_on_c, 0, 62, 0
1, 58941, Note_on_c, 1, 51, 0
1, 58944, Note_on_c, 0, 63, 64
1, 58944, Note_on_c, 1, 39, 70
1, 58989, Note_on_c, 0, 63, 0
1, 58992, Note_on_c, 0, 67, 64
1, 58992, Note_on_c, 1, 51, 64
1, 59037, Note_on_c, 0, 67, 0
1, 59037, Note_on_c, 1, 51, 0
1, 59040, Note_on_c, 0, 58, 64
1, 59040, Note_on_c, 1, 51, 64
1, 59085, Note_on_c, 0, 58, 0
1, 59085, Note_on_c, 1, 51, 0
1, 59088, Note_on_c, 0, 58, 64
1, 59088, Note_on_c, 1, 51, 64
1, 59133, Note_on_c, 0, 58, 0
1, 59133, Note_on_c, 1, 51, 0
1, 59136, Note_on_c, 0, 56, 64
1, 59136, Note_on_c, 1, 51, 64
1, 59181, Note_on_c, 0, 56, 0
1, 59181, Note_on_c, 1, 51, 0
1, 59184, Note_on_c, 0, 62, 64
1, 59184, Note_on_c, 1, 51, 64
1, 59229, Note_on_c, 0, 62, 0
1, 59229, Note_on_c, 1, 51, 0
1, 59232, Note_on_c, 0, 65, 64
1, 59232, Note_on_c, 1, 51, 64
1, 59277, Note_on_c, 0, 65, 0
1, 59277, Note_on_c, 1, 51, 0
1, 59280, Note_on_c, 0, 62, 64
1, 59280, Note_on_c, 1, 51, 64
1, 59313, Note_on_c, 1, 39, 0
1, 59325, Note_on_c, 0, 62, 0
1, 59325, Note_on_c, 1, 51, 0
1, 59328, Note_on_c, 0, 63, 64
1, 59328, Note_on_c, 1, 39, 70
1, 59373, Note_on_c, 0, 63, 0
1, 59376, Note_on_c, 0, 67, 64
1, 59376, Note_on_c, 1, 51, 64
1, 59421, Note_on_c, 0, 67, 0
1, 59421, Note_on_c, 1, 51, 0
1, 59424, Note_on_c, 0, 58, 64
1, 59424, Note_on_c, 1, 51, 64
1, 59469, Note_on_c, 0, 58, 0
1, 59469, Note_on_c, 1, 51, 0
1, 59472, Note_on_c, 0, 58, 64
1, 59472, Note_on_c, 1, 51, 64
1, 59517, Note_on_c, 0, 58, 0
1, 59517, Note_on_c, 1, 51, 0
1, 59520, Note_on_c, 0, 56, 64
1, 59520, Note_on_c, 1, 51, 64
1, 59565, Note_on_c, 0, 56, 0
1, 59565, Note_on_c, 1, 51, 0
1, 59568, Note_on_c, 0, 62, 64
1, 59568, Note_on_c, 1, 51, 64
1, 59613, Note_on_c, 0, 62, 0
1, 59613, Note_on_c, 1, 51, 0
1, 59616, Note_on_c, 0, 65, 64
1, 59616, Note_on_c, 1, 51, 64
1, 59661, Note_on_c, 0, 65, 0
1, 59661, Note_on_c, 1, 51, 0
1, 59664, Note_on_c, 0, 62, 64
1, 59664, Note_on_c, 1, 51, 64
1, 59697, Note_on_c, 1, 39, 0
1, 59709, Note_on_c, 0, 62, 0
1, 59709, Note_on_c, 1, 51, 0
1, 59712, Note_on_c, 0, 63, 64
1, 59712, Note_on_c, 1, 39, 70
1, 59801, Note_on_c, 0, 63, 0
1, 59801, Note_on_c, 1, 39, 0
1, 59856, Note_on_c, 0, 68, 64
1, 59901, Note_on_c, 0, 68, 0
1, 59904, Note_on_c, 0, 68, 64
1, 59949, Note_on_c, 0, 68, 0
1, 59952, Note_on_c, 0, 68, 64
1, 59997, Note_on_c, 0, 68, 0
1, 60000, Note_on_c, 0, 68, 64
1, 60045, Note_on_c, 0, 68, 0
1, 60048, Note_on_c, 0, 68, 64
1, 60093, Note_on_c, 0, 68, 0
1, 60096, Note_on_c, 0, 68, 64
1, 60096, Note_on_c, 1, 41, 70
1, 60144, Note_on_c, 1, 53, 64
1, 60189, Note_on_c, 1, 53, 0
1, 60192, Note_on_c, 0, 68, 0
1, 60192, Note_on_c, 0, 72, 64
1, 60192, Note_on_c, 1, 53, 64
1, 60237, Note_on_c, 0, 72, 0
1, 60237, Note_on_c, 1, 53, 0
1, 60240, Note_on_c, 0, 65, 64
1, 60240, Note_on_c, 1, 53, 64
1, 60273, Note_on_c, 1, 41, 0
1, 60285, Note_on_c, 0, 65, 0
1, 60285, Note_on_c, 1, 53, 0
1, 60288, Note_on_c, 0, 64, 64
1, 60288, Note_on_c, 0, 61, 64
1, 60288, Note_on_c, 1, 41, 70
1, 60333, Note_on_c, 0, 64, 0
1, 60336, Note_on_c, 0, 67, 64
1, 60336, Note_on_c, 1, 55, 64
1, 60381, Note_on_c, 0, 67, 0
1, 60381, Note_on_c, 1, 55, 0
1, 60384, Note_on_c, 0, 70, 64
1, 60384, Note_on_c, 1, 55, 64
1, 60429, Note_on_c, 0, 70, 0
1, 60429, Note_on_c, 1, 55, 0
1, 60432, Note_on_c, 0, 64, 64
1, 60432, Note_on_c, 1, 55, 64
1, 60465, Note_on_c, 1, 41, 0
1, 60477, Note_on_c, 0, 64, 0
1, 60477, Note_on_c, 1, 55, 0
1, 60480, Note_on_c, 0, 65, 64
1, 60480, Note_on_c, 0, 61, 0
1, 60480, Note_on_c, 0, 60, 64
1, 60480, Note_on_c, 1, 41, 70
1, 60525, Note_on_c, 0, 65, 0
1, 60528, Note_on_c, 0, 68, 64
1, 60528, Note_on_c, 1, 56, 64
1, 60569, Note_on_c, 0, 60, 0
1, 60573, Note_on_c, 0, 68, 0
1, 60573, Note_on_c, 1, 56, 0
1, 60576, Note_on_c, 0, 60, 64
1, 60576, Note_on_c, 1, 56, 64
1, 60621, Note_on_c, 0, 60, 0
1, 60621, Note_on_c, 1, 56, 0
1, 60624, Note_on_c, 0, 60, 64
1, 60624, Note_on_c, 1, 56, 64
1, 60657, Note_on_c, 1, 41, 0
1, 60669, Note_on_c, 0, 60, 0
1, 60669, Note_on_c, 1, 56, 0
1, 60672, Note_on_c, 0, 64, 64
1, 60672, Note_on_c, 0, 61, 64
1, 60672, Note_on_c, 1, 41, 70
1, 60717, Note_on_c, 0, 64, 0
1, 60720, Note_on_c, 0, 67, 64
1, 60720, Note_on_c, 1, 55, 64
1, 60765, Note_on_c, 0, 67, 0
1, 60765, Note_on_c, 1, 55, 0
1, 60768, Note_on_c, 0, 70, 64
1, 60768, Note_on_c, 1, 55, 64
1, 60813, Note_on_c, 0, 70, 0
1, 60813, Note_on_c, 1, 55, 0
1, 60816, Note_on_c, 0, 64, 64
1, 60816, Note_on_c, 1, 55, 64
1, 60849, Note_on_c, 1, 41, 0
1, 60861, Note_on_c, 0, 64, 0
1, 60861, Note_on_c, 1, 55, 0
1, 60864, Note_on_c, 0, 65, 64
1, 60864, Note_on_c, 0, 61, 0
1, 60864, Note_on_c, 0, 60, 64
1, 60864, Note_on_c, 1, 41, 70
1, 60909, Note_on_c, 0, 65, 0
1, 60912, Note_on_c, 0, 68, 64
1, 60912, Note_on_c, 1, 56, 64
1, 60953, Note_on_c, 0, 60, 0
1, 60957, Note_on_c, 0, 68, 0
1, 60957, Note_on_c, 1, 56, 0
1, 60960, Note_on_c, 0, 60, 64
1, 60960, Note_on_c, 1, 56, 64
1, 61005, Note_on_c, 0, 60, 0
1, 61005, Note_on_c, 1, 56, 0
1, 61008, Note_on_c, 0, 60, 64
1, 61008, Note_on_c, 1, 56, 64
1, 61041, Note_on_c, 1, 41, 0
1, 61053, Note_on_c, 0, 60, 0
1, 61053, Note_on_c, 1, 56, 0
1, 61056, Note_on_c, 0, 64, 64
1, 61056, Note_on_c, 0, 61, 64
1, 61056, Note_on_c, 1, 41, 70
1, 61101, Note_on_c, 0, 64, 0
1, 61104, Note_on_c, 0, 67, 64
1, 61104, Note_on_c, 1, 55, 64
1, 61149, Note_on_c, 0, 67, 0
1, 61149, Note_on_c, 1, 55, 0
1, 61152, Note_on_c, 0, 70, 64
1, 61152, Note_on_c, 1, 55, 64
1, 61197, Note_on_c, 0, 70, 0
1, 61197, Note_on_c, 1, 55, 0
1, 61200, Note_on_c, 0, 64, 64
1, 61200, Note_on_c, 1, 55, 64
1, 61233, Note_on_c, 1, 41, 0
1, 61245, Note_on_c, 0, 64, 0
1, 61245, Note_on_c, 1, 55, 0
1, 61248, Note_on_c, 0, 65, 64
1, 61248, Note_on_c, 0, 61, 0
1, 61248, Note_on_c, 0, 60, 64
1, 61248, Note_on_c, 1, 56, 64
1, 61248, Note_on_c, 1, 41, 64
1, 61337, Note_on_c, 0, 65, 0
1, 61337, Note_on_c, 0, 60, 0
1, 61337, Note_on_c, 1, 56, 0
1, 61337, Note_on_c, 1, 41, 0
1, 61392, Note_on_c, 1, 46, 80
1, 61392, Note_on_c, 1, 34, 80
1, 61437, Note_on_c, 1, 46, 0
1, 61437, Note_on_c, 1, 34, 0
1, 61440, Note_on_c, 1, 46, 80
1, 61440, Note_on_c, 1, 34, 80
1, 61485, Note_on_c, 1, 46, 0
1, 61485, Note_on_c, 1, 34, 0
1, 61488, Note_on_c, 1, 46, 80
1, 61488, Note_on_c, 1, 34, 80
1, 61533, Note_on_c, 1, 46, 0
1, 61533, Note_on_c, 1, 34, 0
1, 61536, Note_on_c, 1, 46, 80
1, 61536, Note_on_c, 1, 34, 80
1, 61581, Note_on_c, 1, 46, 0
1, 61581, Note_on_c, 1, 34, 0
1, 61584, Note_on_c, 0, 84, 80
1, 61584, Note_on_c, 1, 46, 80
1, 61584, Note_on_c, 1, 34, 80
1, 61607, Note_on_c, 0, 84, 0
1, 61608, Note_on_c, 0, 82, 80
1, 61629, Note_on_c, 1, 46, 0
1, 61629, Note_on_c, 1, 34, 0
1, 61631, Note_on_c, 0, 82, 0
1, 61632, Note_on_c, 0, 80, 80
1, 61632, Note_on_c, 1, 46, 80
1, 61632, Note_on_c, 1, 34, 80
1, 61655, Note_on_c, 0, 80, 0
1, 61656, Note_on_c, 0, 79, 80
1, 61679, Note_on_c, 0, 79, 0
1, 61680, Note_on_c, 0, 77, 80
1, 61703, Note_on_c, 0, 77, 0
1, 61704, Note_on_c, 0, 75, 80
1, 61721, Note_on_c, 1, 46, 0
1, 61721, Note_on_c, 1, 34, 0
1, 61727, Note_on_c, 0, 75, 0
1, 61728, Note_on_c, 0, 74, 80
1, 61728, Note_on_c, 1, 53, 80
1, 61751, Note_on_c, 0, 74, 0
1, 61752, Note_on_c, 0, 75, 79
1, 61773, Note_on_c, 1, 53, 0
1, 61775, Note_on_c, 0, 75, 0
1, 61776, Note_on_c, 0, 77, 78
1, 61776, Note_on_c, 1, 44, 78
1, 61799, Note_on_c, 0, 77, 0
1, 61800, Note_on_c, 0, 74, 77
1, 61821, Note_on_c, 1, 44, 0
1, 61823, Note_on_c, 0, 74, 0
1, 61824, Note_on_c, 0, 75, 76
1, 61824, Note_on_c, 1, 43, 76
1, 61847, Note_on_c, 0, 75, 0
1, 61848, Note_on_c, 0, 79, 75
1, 61869, Note_on_c, 1, 43, 0
1, 61871, Note_on_c, 0, 79, 0
1, 61872, Note_on_c, 0, 77, 75
1, 61872, Note_on_c, 1, 46, 75
1, 61895, Note_on_c, 0, 77, 0
1, 61896, Note_on_c, 0, 75, 74
1, 61917, Note_on_c, 1, 46, 0
1, 61919, Note_on_c, 0, 75, 0
1, 61920, Note_on_c, 0, 74, 73
1, 61920, Note_on_c, 1, 51, 73
1, 61943, Note_on_c, 0, 74, 0
1, 61944, Note_on_c, 0, 72, 72
1, 61965, Note_on_c, 1, 51, 0
1, 61967, Note_on_c, 0, 72, 0
1, 61968, Note_on_c, 0, 70, 71
1, 61968, Note_on_c, 1, 43, 71
1, 61991, Note_on_c, 0, 70, 0
1, 61992, Note_on_c, 0, 75, 70
1, 62013, Note_on_c, 1, 43, 0
1, 62015, Note_on_c, 0, 75, 0
1, 62016, Note_on_c, 0, 74, 70
1, 62016, Note_on_c, 1, 44, 70
1, 62039, Note_on_c, 0, 74, 0
1, 62040, Note_on_c, 0, 75, 70
1, 62061, Note_on_c, 1, 44, 0
1, 62063, Note_on_c, 0, 75, 0
1, 62064, Note_on_c, 0, 77, 70
1, 62064, Note_on_c, 1, 50, 70
1, 62087, Note_on_c, 0, 77, 0
1, 62088, Note_on_c, 0, 79, 70
1, 62109, Note_on_c, 1, 50, 0
1, 62111, Note_on_c, 0, 79, 0
1, 62112, Note_on_c, 0, 80, 70
1, 62112, Note_on_c, 1, 53, 70
1, 62135, Note_on_c, 0, 80, 0
1, 62136, Note_on_c, 0, 77, 70
1, 62157, Note_on_c, 1, 53, 0
1, 62159, Note_on_c, 0, 77, 0
1, 62160, Note_on_c, 0, 75, 70
1, 62160, Note_on_c, 1, 44, 70
1, 62183, Note_on_c, 0, 75, 0
1, 62184, Note_on_c, 0, 74, 70
1, 62205, Note_on_c, 1, 44, 0
1, 62207, Note_on_c, 0, 74, 0
1, 62208, Note_on_c, 0, 75, 70
1, 62208, Note_on_c, 1, 43, 70
1, 62231, Note_on_c, 0, 75, 0
1, 62232, Note_on_c, 0, 79, 70
1, 62253, Note_on_c, 1, 43, 0
1, 62255, Note_on_c, 0, 79, 0
1, 62256, Note_on_c, 0, 77, 70
1, 62256, Note_on_c, 1, 46, 70
1, 62279, Note_on_c, 0, 77, 0
1, 62280, Note_on_c, 0, 75, 70
1, 62301, Note_on_c, 1, 46, 0
1, 62303, Note_on_c, 0, 75, 0
1, 62304, Note_on_c, 0, 74, 70
1, 62304, Note_on_c, 1, 51, 70
1, 62327, Note_on_c, 0, 74, 0
1, 62328, Note_on_c, 0, 72, 70
1, 62349, Note_on_c, 1, 51, 0
1, 62351, Note_on_c, 0, 72, 0
1, 62352, Note_on_c, 0, 70, 70
1, 62352, Note_on_c, 1, 43, 70
1, 62375, Note_on_c, 0, 70, 0
1, 62376, Note_on_c, 0, 75, 70
1, 62397, Note_on_c, 1, 43, 0
1, 62399, Note_on_c, 0, 75, 0
1, 62400, Note_on_c, 0, 74, 70
1, 62400, Note_on_c, 1, 44, 70
1, 62423, Note_on_c, 0, 74, 0
1, 62424, Note_on_c, 0, 75, 70
1, 62445, Note_on_c, 1, 44, 0
1, 62447, Note_on_c, 0, 75, 0
1, 62448, Note_on_c, 0, 77, 70
1, 62448, Note_on_c, 1, 50, 70
1, 62471, Note_on_c, 0, 77, 0
1, 62472, Note_on_c, 0, 79, 71
1, 62493, Note_on_c, 1, 50, 0
1, 62495, Note_on_c, 0, 79, 0
1, 62496, Note_on_c, 0, 80, 71
1, 62496, Note_on_c, 1, 53, 71
1, 62519, Note_on_c, 0, 80, 0
1, 62520, Note_on_c, 0, 77, 72
1, 62541, Note_on_c, 1, 53, 0
1, 62543, Note_on_c, 0, 77, 0
1, 62544, Note_on_c, 0, 75, 72
1, 62544, Note_on_c, 1, 44, 72
1, 62567, Note_on_c, 0, 75, 0
1, 62568, Note_on_c, 0, 74, 72
1, 62589, Note_on_c, 1, 44, 0
1, 62591, Note_on_c, 0, 74, 0
1, 62592, Note_on_c, 0, 75, 73
1, 62592, Note_on_c, 1, 43, 73
1, 62615, Note_on_c, 0, 75, 0
1, 62616, Note_on_c, 0, 77, 73
1, 62637, Note_on_c, 1, 43, 0
1, 62639, Note_on_c, 0, 77, 0
1, 62640, Note_on_c, 0, 79, 74
1, 62640, Note_on_c, 1, 46, 73
1, 62663, Note_on_c, 0, 79, 0
1, 62664, Note_on_c, 0, 77, 74
1, 62685, Note_on_c, 1, 46, 0
1, 62687, Note_on_c, 0, 77, 0
1, 62688, Note_on_c, 0, 75, 74
1, 62688, Note_on_c, 1, 51, 74
1, 62711, Note_on_c, 0, 75, 0
1, 62712, Note_on_c, 0, 74, 75
1, 62733, Note_on_c, 1, 51, 0
1, 62735, Note_on_c, 0, 74, 0
1, 62736, Note_on_c, 0, 72, 75
1, 62736, Note_on_c, 1, 55, 75
1, 62759, Note_on_c, 0, 72, 0
1, 62760, Note_on_c, 0, 70, 76
1, 62781, Note_on_c, 1, 55, 0
1, 62783, Note_on_c, 0, 70, 0
1, 62784, Note_on_c, 0, 72, 76
1, 62784, Note_on_c, 1, 44, 76
1, 62807, Note_on_c, 0, 72, 0
1, 62808, Note_on_c, 0, 75, 76
1, 62829, Note_on_c, 1, 44, 0
1, 62831, Note_on_c, 0, 75, 0
1, 62832, Note_on_c, 0, 77, 77
1, 62832, Note_on_c, 1, 48, 76
1, 62855, Note_on_c, 0, 77, 0
1, 62856, Note_on_c, 0, 75, 77
1, 62877, Note_on_c, 1, 48, 0
1, 62879, Note_on_c, 0, 75, 0
1, 62880, Note_on_c, 0, 74, 78
1, 62880, Note_on_c, 1, 53, 77
1, 62903, Note_on_c, 0, 74, 0
1, 62904, Note_on_c, 0, 72, 78
1, 62925, Note_on_c, 1, 53, 0
1, 62927, Note_on_c, 0, 72, 0
1, 62928, Note_on_c, 0, 70, 78
1, 62928, Note_on_c, 1, 56, 78
1, 62951, Note_on_c, 0, 70, 0
1, 62952, Note_on_c, 0, 68, 79
1, 62973, Note_on_c, 1, 56, 0
1, 62975, Note_on_c, 0, 68, 0
1, 62976, Note_on_c, 0, 67, 79
1, 62976, Note_on_c, 1, 58, 79
1, 62999, Note_on_c, 0, 67, 0
1, 63000, Note_on_c, 0, 70, 80
1, 63021, Note_on_c, 1, 58, 0
1, 63023, Note_on_c, 0, 70, 0
1, 63024, Note_on_c, 0, 67, 80
1, 63024, Note_on_c, 1, 58, 80
1, 63047, Note_on_c, 0, 67, 0
1, 63048, Note_on_c, 0, 70, 80
1, 63069, Note_on_c, 1, 58, 0
1, 63071, Note_on_c, 0, 70, 0
1, 63072, Note_on_c, 0, 65, 80
1, 63072, Note_on_c, 1, 58, 80
1, 63095, Note_on_c, 0, 65, 0
1, 63096, Note_on_c, 0, 68, 80
1, 63117, Note_on_c, 1, 58, 0
1, 63119, Note_on_c, 0, 68, 0
1, 63120, Note_on_c, 0, 65, 80
1, 63120, Note_on_c, 1, 58, 80
1, 63143, Note_on_c, 0, 65, 0
1, 63144, Note_on_c, 0, 68, 80
1, 63165, Note_on_c, 1, 58, 0
1, 63167, Note_on_c, 0, 68, 0
1, 63168, Note_on_c, 0, 63, 80
1, 63168, Note_on_c, 1, 46, 80
1, 63191, Note_on_c, 0, 63, 0
1, 63192, Note_on_c, 0, 67, 80
1, 63213, Note_on_c, 1, 46, 0
1, 63215, Note_on_c, 0, 67, 0
1, 63216, Note_on_c, 0, 63, 80
1, 63216, Note_on_c, 1, 46, 80
1, 63239, Note_on_c, 0, 63, 0
1, 63240, Note_on_c, 0, 67, 80
1, 63261, Note_on_c, 1, 46, 0
1, 63263, Note_on_c, 0, 67, 0
1, 63264, Note_on_c, 0, 62, 80
1, 63264, Note_on_c, 1, 46, 80
1, 63287, Note_on_c, 0, 62, 0
1, 63288, Note_on_c, 0, 65, 80
1, 63309, Note_on_c, 1, 46, 0
1, 63311, Note_on_c, 0, 65, 0
1, 63312, Note_on_c, 0, 62, 80
1, 63312, Note_on_c, 1, 46, 80
1, 63335, Note_on_c, 0, 62, 0
1, 63336, Note_on_c, 0, 65, 80
1, 63357, Note_on_c, 1, 46, 0
1, 63359, Note_on_c, 0, 65, 0
1, 63360, Note_on_c, 0, 63, 80
1, 63360, Note_on_c, 1, 51, 80
1, 63383, Note_on_c, 0, 63, 0
1, 63384, Note_on_c, 0, 58, 80
1, 63405, Note_on_c, 1, 51, 0
1, 63407, Note_on_c, 0, 58, 0
1, 63408, Note_on_c, 0, 63, 80
1, 63408, Note_on_c, 1, 55, 80
1, 63431, Note_on_c, 0, 63, 0
1, 63432, Note_on_c, 0, 58, 80
1, 63453, Note_on_c, 1, 55, 0
1, 63455, Note_on_c, 0, 58, 0
1, 63456, Note_on_c, 0, 63, 80
1, 63456, Note_on_c, 1, 51, 80
1, 63479, Note_on_c, 0, 63, 0
1, 63480, Note_on_c, 0, 58, 80
1, 63501, Note_on_c, 1, 51, 0
1, 63503, Note_on_c, 0, 58, 0
1, 63504, Note_on_c, 0, 63, 80
1, 63504, Note_on_c, 1, 55, 80
1, 63527, Note_on_c, 0, 63, 0
1, 63528, Note_on_c, 0, 58, 80
1, 63549, Note_on_c, 1, 55, 0
1, 63551, Note_on_c, 0, 58, 0
1, 63552, Note_on_c, 0, 63, 80
1, 63552, Note_on_c, 1, 51, 80
1, 63641, Note_on_c, 0, 63, 0
1, 63641, Note_on_c, 1, 51, 0
1, 63696, Note_on_c, 0, 79, 64
1, 63741, Note_on_c, 0, 79, 0
1, 63744, Note_on_c, 0, 80, 64
1, 63789, Note_on_c, 0, 80, 0
1, 63792, Note_on_c, 0, 81, 64
1, 63837, Note_on_c, 0, 81, 0
1, 63840, Note_on_c, 0, 82, 64
1, 63885, Note_on_c, 0, 82, 0
1, 63888, Note_on_c, 0, 83, 64
1, 63933, Note_on_c, 0, 83, 0
1, 63936, Note_on_c, 0, 84, 64
1, 63936, Note_on_c, 1, 63, 64
1, 63984, Note_on_c, 0, 84, 0
1, 63984, Note_on_c, 0, 79, 64
1, 63984, Note_on_c, 1, 67, 64
1, 64029, Note_on_c, 0, 79, 0
1, 64029, Note_on_c, 1, 67, 0
1, 64032, Note_on_c, 1, 72, 64
1, 64077, Note_on_c, 1, 72, 0
1, 64080, Note_on_c, 0, 79, 64
1, 64080, Note_on_c, 1, 67, 64
1, 64113, Note_on_c, 1, 63, 0
1, 64125, Note_on_c, 0, 79, 0
1, 64125, Note_on_c, 1, 67, 0
1, 64128, Note_on_c, 0, 79, 64
1, 64128, Note_on_c, 1, 62, 64
1, 64173, Note_on_c, 0, 79, 0
1, 64176, Note_on_c, 0, 77, 64
1, 64176, Note_on_c, 1, 67, 64
1, 64221, Note_on_c, 0, 77, 0
1, 64221, Note_on_c, 1, 67, 0
1, 64224, Note_on_c, 0, 80, 64
1, 64224, Note_on_c, 1, 71, 64
1, 64269, Note_on_c, 0, 80, 0
1, 64269, Note_on_c, 1, 71, 0
1, 64272, Note_on_c, 0, 77, 64
1, 64272, Note_on_c, 1, 67, 64
1, 64305, Note_on_c, 1, 62, 0
1, 64317, Note_on_c, 0, 77, 0
1, 64317, Note_on_c, 1, 67, 0
1, 64320, Note_on_c, 0, 77, 64
1, 64320, Note_on_c, 1, 60, 64
1, 64368, Note_on_c, 0, 77, 0
1, 64368, Note_on_c, 0, 75, 64
1, 64368, Note_on_c, 1, 63, 64
1, 64413, Note_on_c, 0, 75, 0
1, 64413, Note_on_c, 1, 63, 0
1, 64416, Note_on_c, 1, 67, 64
1, 64461, Note_on_c, 1, 67, 0
1, 64464, Note_on_c, 0, 75, 64
1, 64464, Note_on_c, 1, 63, 64
1, 64497, Note_on_c, 1, 60, 0
1, 64509, Note_on_c, 0, 75, 0
1, 64509, Note_on_c, 1, 63, 0
1, 64512, Note_on_c, 0, 76, 64
1, 64512, Note_on_c, 1, 58, 64
1, 64557, Note_on_c, 0, 76, 0
1, 64560, Note_on_c, 0, 77, 65
1, 64560, Note_on_c, 1, 61, 65
1, 64605, Note_on_c, 0, 77, 0
1, 64605, Note_on_c, 1, 61, 0
1, 64608, Note_on_c, 0, 78, 66
1, 64608, Note_on_c, 1, 67, 66
1, 64653, Note_on_c, 0, 78, 0
1, 64653, Note_on_c, 1, 67, 0
1, 64656, Note_on_c, 0, 79, 67
1, 64656, Note_on_c, 1, 61, 67
1, 64689, Note_on_c, 1, 58, 0
1, 64701, Note_on_c, 0, 79, 0
1, 64701, Note_on_c, 1, 61, 0
1, 64704, Note_on_c, 0, 80, 68
1, 64704, Note_on_c, 1, 56, 64
1, 64752, Note_on_c, 0, 80, 0
1, 64752, Note_on_c, 0, 75, 70
1, 64752, Note_on_c, 1, 60, 70
1, 64797, Note_on_c, 0, 75, 0
1, 64797, Note_on_c, 1, 60, 0
1, 64800, Note_on_c, 1, 63, 71
1, 64845, Note_on_c, 1, 63, 0
1, 64848, Note_on_c, 0, 75, 72
1, 64848, Note_on_c, 1, 60, 72
1, 64881, Note_on_c, 1, 56, 0
1, 64893, Note_on_c, 0, 75, 0
1, 64893, Note_on_c, 1, 60, 0
1, 64896, Note_on_c, 0, 75, 73
1, 64896, Note_on_c, 1, 55, 64
1, 64941, Note_on_c, 0, 75, 0
1, 64944, Note_on_c, 0, 73, 75
1, 64944, Note_on_c, 1, 58, 75
1, 64989, Note_on_c, 0, 73, 0
1, 64989, Note_on_c, 1, 58, 0
1, 64992, Note_on_c, 0, 77, 76
1, 64992, Note_on_c, 1, 63, 76
1, 65037, Note_on_c, 0, 77, 0
1, 65037, Note_on_c, 1, 63, 0
1, 65040, Note_on_c, 0, 73, 77
1, 65040, Note_on_c, 1, 58, 77
1, 65073, Note_on_c, 1, 55, 0
1, 65085, Note_on_c, 0, 73, 0
1, 65085, Note_on_c, 1, 58, 0
1, 65088, Note_on_c, 0, 72, 78
1, 65088, Note_on_c, 1, 56, 78
1, 65108, Note_on_c, 0, 72, 0
1, 65133, Note_on_c, 1, 56, 0
1, 65136, Note_on_c, 0, 84, 96
1, 65136, Note_on_c, 1, 63, 80
1, 65181, Note_on_c, 1, 63, 0
1, 65184, Note_on_c, 1, 55, 80
1, 65229, Note_on_c, 1, 55, 0
1, 65232, Note_on_c, 0, 84, 0
1, 65232, Note_on_c, 0, 82, 80
1, 65232, Note_on_c, 1, 64, 80
1, 65277, Note_on_c, 1, 64, 0
1, 65280, Note_on_c, 1, 53, 80
1, 65325, Note_on_c, 0, 82, 0
1, 65325, Note_on_c, 1, 53, 0
1, 65328, Note_on_c, 0, 80, 80
1, 65328, Note_on_c, 1, 65, 80
1, 65373, Note_on_c, 1, 65, 0
1, 65376, Note_on_c, 1, 55, 80
1, 65417, Note_on_c, 0, 80, 0
1, 65421, Note_on_c, 1, 55, 0
1, 65424, Note_on_c, 0, 79, 80
1, 65424, Note_on_c, 1, 58, 80
1, 65469, Note_on_c, 1, 58, 0
1, 65472, Note_on_c, 1, 56, 80
1, 65517, Note_on_c, 0, 79, 0
1, 65517, Note_on_c, 1, 56, 0
1, 65520, Note_on_c, 0, 77, 80
1, 65520, Note_on_c, 1, 60, 80
1, 65565, Note_on_c, 1, 60, 0
1, 65568, Note_on_c, 1, 57, 80
1, 65609, Note_on_c, 0, 77, 0
1, 65613, Note_on_c, 1, 57, 0
1, 65616, Note_on_c, 0, 75, 80
1, 65616, Note_on_c, 1, 65, 80
1, 65661, Note_on_c, 1, 65, 0
1, 65664, Note_on_c, 1, 58, 79
1, 65709, Note_on_c, 0, 75, 0
1, 65709, Note_on_c, 1, 58, 0
1, 65712, Note_on_c, 0, 74, 78
1, 65712, Note_on_c, 1, 65, 78
1, 65757, Note_on_c, 1, 65, 0
1, 65760, Note_on_c, 1, 60, 77
1, 65801, Note_on_c, 0, 74, 0
1, 65805, Note_on_c, 1, 60, 0
1, 65808, Note_on_c, 0, 72, 76
1, 65808, Note_on_c, 1, 63, 76
1, 65853, Note_on_c, 1, 63, 0
1, 65856, Note_on_c, 1, 62, 75
1, 65901, Note_on_c, 0, 72, 0
1, 65901, Note_on_c, 1, 62, 0
1, 65904, Note_on_c, 0, 70, 74
1, 65904, Note_on_c, 1, 65, 74
1, 65949, Note_on_c, 1, 65, 0
1, 65952, Note_on_c, 1, 63, 74
1, 65993, Note_on_c, 0, 70, 0
1, 65997, Note_on_c, 1, 63, 0
1, 66000, Note_on_c, 0, 69, 72
1, 66000, Note_on_c, 1, 66, 73
1, 66045, Note_on_c, 1, 66, 0
1, 66048, Note_on_c, 1, 62, 72
1, 66093, Note_on_c, 0, 69, 0
1, 66093, Note_on_c, 1, 62, 0
1, 66096, Note_on_c, 0, 70, 71
1, 66096, Note_on_c, 1, 65, 71
1, 66141, Note_on_c, 1, 65, 0
1, 66144, Note_on_c, 1, 63, 70
1, 66185, Note_on_c, 0, 70, 0
1, 66189, Note_on_c, 1, 63, 0
1, 66192, Note_on_c, 0, 69, 69
1, 66192, Note_on_c, 1, 66, 69
1, 66237, Note_on_c, 1, 66, 0
1, 66240, Note_on_c, 1, 62, 69
1, 66285, Note_on_c, 0, 69, 0
1, 66285, Note_on_c, 1, 62, 0
1, 66288, Note_on_c, 0, 70, 67
1, 66288, Note_on_c, 1, 65, 68
1, 66333, Note_on_c, 1, 65, 0
1, 66336, Note_on_c, 1, 63, 67
1, 66377, Note_on_c, 0, 70, 0
1, 66381, Note_on_c, 1, 63, 0
1, 66384, Note_on_c, 0, 69, 65
1, 66384, Note_on_c, 1, 66, 66
1, 66429, Note_on_c, 0, 69, 0
1, 66429, Note_on_c, 1, 66, 0
1, 66432, Note_on_c, 0, 70, 64
1, 66432, Note_on_c, 1, 65, 65
1, 66432, Note_on_c, 1, 62, 65
1, 66477, Note_on_c, 0, 70, 0
1, 66480, Note_on_c, 0, 82, 64
1, 66521, Note_on_c, 1, 65, 0
1, 66521, Note_on_c, 1, 62, 0
1, 66525, Note_on_c, 0, 82, 0
1, 66528, Note_on_c, 0, 82, 64
1, 66573, Note_on_c, 0, 82, 0
1, 66576, Note_on_c, 0, 82, 80
1, 66621, Note_on_c, 0, 82, 0
1, 66624, Note_on_c, 0, 82, 64
1, 66669, Note_on_c, 0, 82, 0
1, 66672, Note_on_c, 0, 82, 64
1, 66717, Note_on_c, 0, 82, 0
1, 66720, Note_on_c, 0, 82, 64
1, 66765, Note_on_c, 0, 82, 0
1, 66768, Note_on_c, 0, 82, 80
1, 66768, Note_on_c, 0, 81, 80
1, 66813, Note_on_c, 0, 82, 0
1, 66813, Note_on_c, 0, 81, 0
1, 66816, Note_on_c, 0, 82, 64
1, 66816, Note_on_c, 0, 81, 64
1, 66861, Note_on_c, 0, 82, 0
1, 66861, Note_on_c, 0, 81, 0
1, 66864, Note_on_c, 0, 82, 64
1, 66864, Note_on_c, 0, 81, 64
1, 66909, Note_on_c, 0, 82, 0
1, 66909, Note_on_c, 0, 81, 0
1, 66912, Note_on_c, 0, 82, 64
1, 66912, Note_on_c, 0, 81, 64
1, 66957, Note_on_c, 0, 82, 0
1, 66957, Note_on_c, 0, 81, 0
1, 66960, Note_on_c, 0, 82, 80
1, 66960, Note_on_c, 0, 80, 80
1, 67005, Note_on_c, 0, 82, 0
1, 67005, Note_on_c, 0, 80, 0
1, 67008, Note_on_c, 0, 82, 64
1, 67008, Note_on_c, 0, 80, 64
1, 67053, Note_on_c, 0, 82, 0
1, 67053, Note_on_c, 0, 80, 0
1, 67056, Note_on_c, 0, 82, 64
1, 67056, Note_on_c, 0, 80, 64
1, 67101, Note_on_c, 0, 82, 0
1, 67101, Note_on_c, 0, 80, 0
1, 67104, Note_on_c, 0, 82, 64
1, 67104, Note_on_c, 0, 80, 64
1, 67149, Note_on_c, 0, 82, 0
1, 67149, Note_on_c, 0, 80, 0
1, 67152, Note_on_c, 0, 82, 80
1, 67152, Note_on_c, 0, 80, 80
1, 67152, Note_on_c, 1, 70, 80
1, 67197, Note_on_c, 0, 82, 0
1, 67197, Note_on_c, 0, 80, 0
1, 67197, Note_on_c, 1, 70, 0
1, 67200, Note_on_c, 0, 82, 64
1, 67200, Note_on_c, 0, 80, 64
1, 67200, Note_on_c, 1, 71, 64
1, 67245, Note_on_c, 0, 82, 0
1, 67245, Note_on_c, 0, 80, 0
1, 67245, Note_on_c, 1, 71, 0
1, 67248, Note_on_c, 0, 82, 64
1, 67248, Note_on_c, 0, 80, 64
1, 67248, Note_on_c, 1, 72, 64
1, 67293, Note_on_c, 0, 82, 0
1, 67293, Note_on_c, 0, 80, 0
1, 67293, Note_on_c, 1, 72, 0
1, 67296, Note_on_c, 0, 82, 64
1, 67296, Note_on_c, 0, 80, 64
1, 67296, Note_on_c, 1, 73, 64
1, 67341, Note_on_c, 0, 82, 0
1, 67341, Note_on_c, 0, 80, 0
1, 67341, Note_on_c, 1, 73, 0
1, 67344, Note_on_c, 0, 82, 80
1, 67344, Note_on_c, 0, 80, 80
1, 67344, Note_on_c, 1, 74, 64
1, 67389, Note_on_c, 0, 82, 0
1, 67389, Note_on_c, 0, 80, 0
1, 67389, Note_on_c, 1, 74, 0
1, 67392, Note_on_c, 0, 82, 64
1, 67392, Note_on_c, 0, 79, 64
1, 67392, Note_on_c, 1, 75, 64
1, 67437, Note_on_c, 0, 82, 0
1, 67437, Note_on_c, 0, 79, 0
1, 67440, Note_on_c, 0, 82, 64
1, 67440, Note_on_c, 0, 79, 64
1, 67485, Note_on_c, 0, 82, 0
1, 67485, Note_on_c, 0, 79, 0
1, 67488, Note_on_c, 0, 82, 58
1, 67488, Note_on_c, 0, 79, 58
1, 67525, Note_on_c, 1, 75, 0
1, 67533, Note_on_c, 0, 82, 0
1, 67533, Note_on_c, 0, 79, 0
1, 67536, Note_on_c, 0, 79, 102
1, 67536, Note_on_c, 0, 75, 102
1, 67536, Note_on_c, 0, 70, 102
1, 67536, Note_on_c, 1, 51, 102
1, 67581, Note_on_c, 0, 79, 0
1, 67581, Note_on_c, 0, 75, 0
1, 67581, Note_on_c, 0, 70, 0
1, 67581, Note_on_c, 1, 51, 0
1, 67584, Note_on_c, 0, 79, 86
1, 67584, Note_on_c, 0, 75, 86
1, 67584, Note_on_c, 0, 70, 86
1, 67584, Note_on_c, 1, 51, 86
1, 67629, Note_on_c, 0, 79, 0
1, 67629, Note_on_c, 0, 75, 0
1, 67629, Note_on_c, 0, 70, 0
1, 67629, Note_on_c, 1, 51, 0
1, 67632, Note_on_c, 0, 79, 86
1, 67632, Note_on_c, 0, 75, 86
1, 67632, Note_on_c, 0, 70, 86
1, 67632, Note_on_c, 1, 51, 86
1, 67677, Note_on_c, 0, 79, 0
1, 67677, Note_on_c, 0, 75, 0
1, 67677, Note_on_c, 0, 70, 0
1, 67677, Note_on_c, 1, 51, 0
1, 67680, Note_on_c, 0, 79, 86
1, 67680, Note_on_c, 0, 75, 86
1, 67680, Note_on_c, 0, 70, 86
1, 67680, Note_on_c, 1, 51, 86
1, 67725, Note_on_c, 0, 79, 0
1, 67725, Note_on_c, 0, 75, 0
1, 67725, Note_on_c, 0, 70, 0
1, 67725, Note_on_c, 1, 51, 0
1, 67728, Note_on_c, 0, 79, 86
1, 67728, Note_on_c, 0, 75, 86
1, 67728, Note_on_c, 0, 70, 86
1, 67728, Note_on_c, 1, 51, 86
1, 67773, Note_on_c, 0, 79, 0
1, 67773, Note_on_c, 0, 75, 0
1, 67773, Note_on_c, 0, 70, 0
1, 67773, Note_on_c, 1, 51, 0
1, 67776, Note_on_c, 0, 74, 102
1, 67776, Note_on_c, 0, 70, 102
1, 67776, Note_on_c, 0, 68, 102
1, 67776, Note_on_c, 1, 62, 86
1, 67776, Note_on_c, 1, 58, 86
1, 67776, Note_on_c, 1, 56, 86
1, 67776, Note_on_c, 1, 53, 86
1, 67872, Note_on_c, 0, 74, 0
1, 67872, Note_on_c, 0, 68, 0
1, 67872, Note_on_c, 0, 75, 86
1, 67872, Note_on_c, 0, 67, 86
1, 67872, Note_on_c, 1, 62, 0
1, 67872, Note_on_c, 1, 56, 0
1, 67872, Note_on_c, 1, 53, 0
1, 67872, Note_on_c, 1, 63, 86
1, 67872, Note_on_c, 1, 55, 86
1, 67917, Note_on_c, 0, 75, 0
1, 67917, Note_on_c, 0, 70, 0
1, 67917, Note_on_c, 0, 67, 0
1, 67917, Note_on_c, 1, 63, 0
1, 67917, Note_on_c, 1, 58, 0
1, 67917, Note_on_c, 1, 55, 0
1, 67920, Note_on_c, 0, 79, 86
1, 67920, Note_on_c, 0, 75, 86
1, 67965, Note_on_c, 0, 79, 0
1, 67965, Note_on_c, 0, 75, 0
1, 67968, Note_on_c, 0, 80, 102
1, 67968, Note_on_c, 0, 77, 102
1, 67968, Note_on_c, 0, 74, 102
1, 67968, Note_on_c, 1, 65, 86
1, 67968, Note_on_c, 1, 58, 86
1, 68064, Note_on_c, 0, 80, 0
1, 68064, Note_on_c, 0, 77, 0
1, 68064, Note_on_c, 0, 74, 0
1, 68064, Note_on_c, 0, 79, 86
1, 68064, Note_on_c, 0, 75, 86
1, 68064, Note_on_c, 1, 65, 0
1, 68064, Note_on_c, 1, 58, 0
1, 68064, Note_on_c, 1, 67, 86
1, 68064, Note_on_c, 1, 63, 86
1, 68109, Note_on_c, 0, 79, 0
1, 68109, Note_on_c, 0, 75, 0
1, 68109, Note_on_c, 1, 67, 0
1, 68109, Note_on_c, 1, 63, 0
1, 68112, Note_on_c, 0, 82, 86
1, 68112, Note_on_c, 0, 79, 86
1, 68157, Note_on_c, 0, 82, 0
1, 68157, Note_on_c, 0, 79, 0
1, 68160, Note_on_c, 0, 86, 102
1, 68160, Note_on_c, 0, 80, 102
1, 68160, Note_on_c, 0, 77, 102
1, 68160, Note_on_c, 1, 65, 86
1, 68160, Note_on_c, 1, 58, 86
1, 68256, Note_on_c, 0, 86, 0
1, 68256, Note_on_c, 0, 80, 0
1, 68256, Note_on_c, 0, 77, 0
1, 68256, Note_on_c, 0, 87, 86
1, 68256, Note_on_c, 0, 79, 86
1, 68256, Note_on_c, 1, 65, 0
1, 68256, Note_on_c, 1, 58, 0
1, 68256, Note_on_c, 1, 67, 86
1, 68256, Note_on_c, 1, 63, 86
1, 68301, Note_on_c, 0, 87, 0
1, 68301, Note_on_c, 0, 79, 0
1, 68301, Note_on_c, 1, 67, 0
1, 68301, Note_on_c, 1, 63, 0
1, 68304, Note_on_c, 0, 88, 86
1, 68304, Note_on_c, 0, 79, 86
1, 68304, Note_on_c, 1, 70, 86
1, 68304, Note_on_c, 1, 61, 86
1, 68349, Note_on_c, 0, 88, 0
1, 68349, Note_on_c, 0, 79, 0
1, 68349, Note_on_c, 1, 70, 0
1, 68349, Note_on_c, 1, 61, 0
1, 68352, Note_on_c, 0, 88, 86
1, 68352, Note_on_c, 0, 79, 86
1, 68352, Note_on_c, 1, 70, 86
1, 68352, Note_on_c, 1, 61, 64
1, 68529, Note_on_c, 0, 88, 0
1, 68529, Note_on_c, 0, 79, 0
1, 68529, Note_on_c, 1, 70, 0
1, 68529, Note_on_c, 1, 61, 0
1, 68544, Note_on_c, 0, 77, 86
1, 68544, Note_on_c, 0, 89, 64
1, 68544, Note_on_c, 1, 68, 86
1, 68544, Note_on_c, 1, 61, 64
1, 68633, Note_on_c, 0, 89, 0
1, 68633, Note_on_c, 1, 61, 0
1, 68640, Note_on_c, 0, 87, 64
1, 68640, Note_on_c, 1, 59, 64
1, 68729, Note_on_c, 0, 87, 0
1, 68729, Note_on_c, 1, 59, 0
1, 68736, Note_on_c, 0, 86, 86
1, 68736, Note_on_c, 1, 58, 64
1, 68913, Note_on_c, 0, 86, 0
1, 68913, Note_on_c, 0, 77, 0
1, 68913, Note_on_c, 1, 68, 0
1, 68913, Note_on_c, 1, 58, 0
1, 68928, Note_on_c, 0, 87, 70
1, 68928, Note_on_c, 0, 75, 70
1, 68928, Note_on_c, 1, 67, 70
1, 68928, Note_on_c, 1, 60, 64
1, 69017, Note_on_c, 1, 67, 0
1, 69017, Note_on_c, 1, 60, 0
1, 69022, Note_on_c, 0, 87, 0
1, 69022, Note_on_c, 0, 75, 0
1, 69024, Note_on_c, 0, 83, 64
1, 69024, Note_on_c, 0, 75, 64
1, 69024, Note_on_c, 1, 79, 64
1, 69113, Note_on_c, 0, 83, 0
1, 69113, Note_on_c, 0, 75, 0
1, 69113, Note_on_c, 1, 79, 0
1, 69120, Note_on_c, 0, 83, 64
1, 69120, Note_on_c, 0, 75, 64
1, 69120, Note_on_c, 1, 79, 64
1, 69297, Note_on_c, 1, 79, 0
1, 69312, Note_on_c, 0, 83, 0
1, 69312, Note_on_c, 0, 84, 64
1, 69312, Note_on_c, 0, 75, 64
1, 69312, Note_on_c, 1, 80, 64
1, 69401, Note_on_c, 0, 84, 0
1, 69401, Note_on_c, 0, 75, 0
1, 69401, Note_on_c, 0, 75, 0
1, 69401, Note_on_c, 1, 80, 0
1, 69408, Note_on_c, 0, 84, 80
1, 69408, Note_on_c, 0, 76, 80
1, 69408, Note_on_c, 1, 68, 80
1, 69408, Note_on_c, 1, 56, 80
1, 69497, Note_on_c, 0, 84, 0
1, 69497, Note_on_c, 0, 76, 0
1, 69497, Note_on_c, 1, 68, 0
1, 69497, Note_on_c, 1, 56, 0
1, 69504, Note_on_c, 0, 84, 80
1, 69504, Note_on_c, 0, 76, 80
1, 69504, Note_on_c, 1, 68, 80
1, 69504, Note_on_c, 1, 56, 80
1, 69696, Note_on_c, 0, 76, 0
1, 69696, Note_on_c, 0, 79, 80
1, 69741, Note_on_c, 0, 79, 0
1, 69744, Note_on_c, 0, 77, 80
1, 69789, Note_on_c, 0, 77, 0
1, 69792, Note_on_c, 0, 80, 80
1, 69837, Note_on_c, 0, 80, 0
1, 69840, Note_on_c, 0, 79, 80
1, 69885, Note_on_c, 0, 79, 0
1, 69888, Note_on_c, 0, 82, 80
1, 69933, Note_on_c, 0, 82, 0
1, 69936, Note_on_c, 0, 80, 80
1, 69977, Note_on_c, 0, 84, 0
1, 69981, Note_on_c, 0, 80, 0
1, 69984, Note_on_c, 0, 85, 80
1, 69984, Note_on_c, 0, 82, 80
1, 70029, Note_on_c, 0, 85, 0
1, 70029, Note_on_c, 0, 82, 0
1, 70032, Note_on_c, 0, 84, 80
1, 70032, Note_on_c, 0, 80, 80
1, 70077, Note_on_c, 0, 84, 0
1, 70077, Note_on_c, 0, 80, 0
1, 70080, Note_on_c, 0, 83, 96
1, 70080, Note_on_c, 0, 79, 96
1, 70128, Note_on_c, 0, 83, 0
1, 70128, Note_on_c, 0, 79, 0
1, 70128, Note_on_c, 0, 84, 80
1, 70128, Note_on_c, 0, 80, 80
1, 70173, Note_on_c, 0, 84, 0
1, 70173, Note_on_c, 0, 80, 0
1, 70176, Note_on_c, 0, 82, 80
1, 70176, Note_on_c, 0, 79, 80
1, 70221, Note_on_c, 0, 82, 0
1, 70221, Note_on_c, 0, 79, 0
1, 70224, Note_on_c, 0, 80, 80
1, 70224, Note_on_c, 0, 77, 80
1, 70257, Note_on_c, 1, 68, 0
1, 70257, Note_on_c, 1, 56, 0
1, 70269, Note_on_c, 0, 80, 0
1, 70269, Note_on_c, 0, 77, 0
1, 70272, Note_on_c, 0, 79, 80
1, 70272, Note_on_c, 0, 75, 80
1, 70272, Note_on_c, 1, 70, 80
1, 70272, Note_on_c, 1, 58, 80
1, 70405, Note_on_c, 0, 79, 0
1, 70405, Note_on_c, 0, 75, 0
1, 70416, Note_on_c, 0, 82, 80
1, 70416, Note_on_c, 0, 79, 80
1, 70461, Note_on_c, 0, 82, 0
1, 70461, Note_on_c, 0, 79, 0
1, 70464, Note_on_c, 0, 82, 80
1, 70464, Note_on_c, 0, 79, 80
1, 70509, Note_on_c, 0, 82, 0
1, 70509, Note_on_c, 0, 79, 0
1, 70512, Note_on_c, 0, 80, 80
1, 70512, Note_on_c, 0, 77, 80
1, 70557, Note_on_c, 0, 80, 0
1, 70557, Note_on_c, 0, 77, 0
1, 70560, Note_on_c, 0, 79, 80
1, 70560, Note_on_c, 0, 75, 80
1, 70605, Note_on_c, 0, 79, 0
1, 70605, Note_on_c, 0, 75, 0
1, 70608, Note_on_c, 0, 77, 80
1, 70608, Note_on_c, 0, 74, 80
1, 70641, Note_on_c, 1, 70, 0
1, 70641, Note_on_c, 1, 58, 0
1, 70653, Note_on_c, 0, 77, 0
1, 70653, Note_on_c, 0, 74, 0
1, 70656, Note_on_c, 0, 75, 80
1, 70679, Note_on_c, 0, 75, 0
1, 70680, Note_on_c, 0, 79, 80
1, 70703, Note_on_c, 0, 79, 0
1, 70704, Note_on_c, 0, 75, 79
1, 70727, Note_on_c, 0, 75, 0
1, 70728, Note_on_c, 0, 70, 78
1, 70751, Note_on_c, 0, 70, 0
1, 70752, Note_on_c, 0, 67, 77
1, 70775, Note_on_c, 0, 67, 0
1, 70776, Note_on_c, 0, 63, 76
1, 70799, Note_on_c, 0, 63, 0
1, 70800, Note_on_c, 0, 51, 75
1, 70823, Note_on_c, 0, 51, 0
1, 70824, Note_on_c, 0, 63, 74
1, 70847, Note_on_c, 0, 63, 0
1, 70848, Note_on_c, 0, 74, 73
1, 70871, Note_on_c, 0, 74, 0
1, 70872, Note_on_c, 0, 80, 72
1, 70895, Note_on_c, 0, 80, 0
1, 70896, Note_on_c, 0, 77, 71
1, 70919, Note_on_c, 0, 77, 0
1, 70920, Note_on_c, 0, 74, 70
1, 70943, Note_on_c, 0, 74, 0
1, 70944, Note_on_c, 0, 70, 69
1, 70967, Note_on_c, 0, 70, 0
1, 70968, Note_on_c, 0, 68, 68
1, 70991, Note_on_c, 0, 68, 0
1, 70992, Note_on_c, 0, 62, 67
1, 71015, Note_on_c, 0, 62, 0
1, 71016, Note_on_c, 0, 65, 66
1, 71039, Note_on_c, 0, 65, 0
1, 71040, Note_on_c, 0, 75, 65
1, 71063, Note_on_c, 0, 75, 0
1, 71064, Note_on_c, 0, 79, 64
1, 71087, Note_on_c, 0, 79, 0
1, 71088, Note_on_c, 0, 75, 64
1, 71111, Note_on_c, 0, 75, 0
1, 71112, Note_on_c, 0, 70, 64
1, 71135, Note_on_c, 0, 70, 0
1, 71136, Note_on_c, 0, 67, 64
1, 71159, Note_on_c, 0, 67, 0
1, 71160, Note_on_c, 0, 63, 64
1, 71183, Note_on_c, 0, 63, 0
1, 71184, Note_on_c, 0, 51, 64
1, 71207, Note_on_c, 0, 51, 0
1, 71208, Note_on_c, 0, 63, 64
1, 71231, Note_on_c, 0, 63, 0
1, 71232, Note_on_c, 0, 74, 64
1, 71255, Note_on_c, 0, 74, 0
1, 71256, Note_on_c, 0, 80, 64
1, 71279, Note_on_c, 0, 80, 0
1, 71280, Note_on_c, 0, 77, 64
1, 71303, Note_on_c, 0, 77, 0
1, 71304, Note_on_c, 0, 74, 64
1, 71327, Note_on_c, 0, 74, 0
1, 71328, Note_on_c, 0, 70, 64
1, 71351, Note_on_c, 0, 70, 0
1, 71352, Note_on_c, 0, 68, 64
1, 71375, Note_on_c, 0, 68, 0
1, 71376, Note_on_c, 0, 62, 64
1, 71399, Note_on_c, 0, 62, 0
1, 71400, Note_on_c, 0, 65, 64
1, 71423, Note_on_c, 0, 65, 0
1, 71424, Note_on_c, 0, 82, 64
1, 71447, Note_on_c, 0, 82, 0
1, 71448, Note_on_c, 0, 75, 65
1, 71471, Note_on_c, 0, 75, 0
1, 71472, Note_on_c, 0, 67, 66
1, 71495, Note_on_c, 0, 67, 0
1, 71496, Note_on_c, 0, 75, 67
1, 71519, Note_on_c, 0, 75, 0
1, 71520, Note_on_c, 0, 84, 68
1, 71543, Note_on_c, 0, 84, 0
1, 71544, Note_on_c, 0, 75, 70
1, 71567, Note_on_c, 0, 75, 0
1, 71568, Note_on_c, 0, 68, 71
1, 71591, Note_on_c, 0, 68, 0
1, 71592, Note_on_c, 0, 75, 72
1, 71615, Note_on_c, 0, 75, 0
1, 71616, Note_on_c, 0, 86, 73
1, 71639, Note_on_c, 0, 86, 0
1, 71640, Note_on_c, 0, 75, 75
1, 71663, Note_on_c, 0, 75, 0
1, 71664, Note_on_c, 0, 70, 76
1, 71687, Note_on_c, 0, 70, 0
1, 71688, Note_on_c, 0, 75, 77
1, 71711, Note_on_c, 0, 75, 0
1, 71712, Note_on_c, 0, 87, 78
1, 71735, Note_on_c, 0, 87, 0
1, 71736, Note_on_c, 0, 75, 80
1, 71759, Note_on_c, 0, 75, 0
1, 71760, Note_on_c, 0, 72, 64
1, 71783, Note_on_c, 0, 72, 0
1, 71784, Note_on_c, 0, 75, 65
1, 71807, Note_on_c, 0, 75, 0
1, 71808, Note_on_c, 0, 82, 66
1, 71831, Note_on_c, 0, 82, 0
1, 71832, Note_on_c, 0, 75, 67
1, 71855, Note_on_c, 0, 75, 0
1, 71856, Note_on_c, 0, 67, 68
1, 71879, Note_on_c, 0, 67, 0
1, 71880, Note_on_c, 0, 75, 69
1, 71903, Note_on_c, 0, 75, 0
1, 71904, Note_on_c, 0, 84, 70
1, 71927, Note_on_c, 0, 84, 0
1, 71928, Note_on_c, 0, 75, 72
1, 71951, Note_on_c, 0, 75, 0
1, 71952, Note_on_c, 0, 68, 73
1, 71975, Note_on_c, 0, 68, 0
1, 71976, Note_on_c, 0, 75, 74
1, 71999, Note_on_c, 0, 75, 0
1, 72000, Note_on_c, 0, 86, 75
1, 72023, Note_on_c, 0, 86, 0
1, 72024, Note_on_c, 0, 75, 76
1, 72047, Note_on_c, 0, 75, 0
1, 72048, Note_on_c, 0, 70, 77
1, 72071, Note_on_c, 0, 70, 0
1, 72072, Note_on_c, 0, 75, 78
1, 72095, Note_on_c, 0, 75, 0
1, 72096, Note_on_c, 0, 87, 80
1, 72119, Note_on_c, 0, 87, 0
1, 72120, Note_on_c, 0, 75, 80
1, 72143, Note_on_c, 0, 75, 0
1, 72144, Note_on_c, 0, 72, 64
1, 72167, Note_on_c, 0, 72, 0
1, 72168, Note_on_c, 0, 75, 64
1, 72191, Note_on_c, 0, 75, 0
1, 72192, Note_on_c, 0, 85, 65
1, 72215, Note_on_c, 0, 85, 0
1, 72216, Note_on_c, 0, 75, 65
1, 72239, Note_on_c, 0, 75, 0
1, 72240, Note_on_c, 0, 67, 66
1, 72263, Note_on_c, 0, 67, 0
1, 72264, Note_on_c, 0, 75, 67
1, 72287, Note_on_c, 0, 75, 0
1, 72288, Note_on_c, 0, 84, 67
1, 72311, Note_on_c, 0, 84, 0
1, 72312, Note_on_c, 0, 75, 68
1, 72335, Note_on_c, 0, 75, 0
1, 72336, Note_on_c, 0, 68, 69
1, 72359, Note_on_c, 0, 68, 0
1, 72360, Note_on_c, 0, 75, 69
1, 72383, Note_on_c, 0, 75, 0
1, 72384, Note_on_c, 0, 82, 70
1, 72407, Note_on_c, 0, 82, 0
1, 72408, Note_on_c, 0, 72, 70
1, 72431, Note_on_c, 0, 72, 0
1, 72432, Note_on_c, 0, 64, 71
1, 72455, Note_on_c, 0, 64, 0
1, 72456, Note_on_c, 0, 72, 72
1, 72479, Note_on_c, 0, 72, 0
1, 72480, Note_on_c, 0, 80, 72
1, 72503, Note_on_c, 0, 80, 0
1, 72504, Note_on_c, 0, 72, 73
1, 72527, Note_on_c, 0, 72, 0
1, 72528, Note_on_c, 0, 65, 74
1, 72551, Note_on_c, 0, 65, 0
1, 72552, Note_on_c, 0, 72, 74
1, 72575, Note_on_c, 0, 72, 0
1, 72576, Note_on_c, 0, 76, 75
1, 72599, Note_on_c, 0, 76, 0
1, 72600, Note_on_c, 0, 72, 75
1, 72623, Note_on_c, 0, 72, 0
1, 72624, Note_on_c, 0, 67, 76
1, 72647, Note_on_c, 0, 67, 0
1, 72648, Note_on_c, 0, 72, 77
1, 72671, Note_on_c, 0, 72, 0
1, 72672, Note_on_c, 0, 77, 77
1, 72695, Note_on_c, 0, 77, 0
1, 72696, Note_on_c, 0, 72, 78
1, 72719, Note_on_c, 0, 72, 0
1, 72720, Note_on_c, 0, 68, 79
1, 72743, Note_on_c, 0, 68, 0
1, 72744, Note_on_c, 0, 72, 79
1, 72767, Note_on_c, 0, 72, 0
1, 72768, Note_on_c, 0, 84, 80
1, 72791, Note_on_c, 0, 84, 0
1, 72792, Note_on_c, 0, 75, 80
1, 72815, Note_on_c, 0, 75, 0
1, 72816, Note_on_c, 0, 69, 81
1, 72839, Note_on_c, 0, 69, 0
1, 72840, Note_on_c, 0, 75, 82
1, 72863, Note_on_c, 0, 75, 0
1, 72864, Note_on_c, 0, 87, 82
1, 72887, Note_on_c, 0, 87, 0
1, 72888, Note_on_c, 0, 75, 83
1, 72911, Note_on_c, 0, 75, 0
1, 72912, Note_on_c, 0, 69, 84
1, 72935, Note_on_c, 0, 69, 0
1, 72936, Note_on_c, 0, 75, 84
1, 72959, Note_on_c, 0, 75, 0
1, 72960, Note_on_c, 0, 86, 85
1, 72983, Note_on_c, 0, 86, 0
1, 72984, Note_on_c, 0, 74, 86
1, 73007, Note_on_c, 0, 74, 0
1, 73008, Note_on_c, 0, 70, 86
1, 73031, Note_on_c, 0, 70, 0
1, 73032, Note_on_c, 0, 58, 86
1, 73055, Note_on_c, 0, 58, 0
1, 73056, Note_on_c, 0, 82, 86
1, 73079, Note_on_c, 0, 82, 0
1, 73080, Note_on_c, 0, 70, 86
1, 73103, Note_on_c, 0, 70, 0
1, 73104, Note_on_c, 0, 65, 86
1, 73127, Note_on_c, 0, 65, 0
1, 73128, Note_on_c, 0, 53, 86
1, 73151, Note_on_c, 0, 53, 0
1, 73152, Note_on_c, 0, 77, 86
1, 73175, Note_on_c, 0, 77, 0
1, 73176, Note_on_c, 0, 65, 86
1, 73199, Note_on_c, 0, 65, 0
1, 73200, Note_on_c, 1, 62, 86
1, 73223, Note_on_c, 1, 62, 0
1, 73224, Note_on_c, 1, 50, 86
1, 73247, Note_on_c, 1, 50, 0
1, 73248, Note_on_c, 0, 74, 86
1, 73271, Note_on_c, 0, 74, 0
1, 73272, Note_on_c, 0, 62, 86
1, 73295, Note_on_c, 0, 62, 0
1, 73296, Note_on_c, 1, 58, 86
1, 73319, Note_on_c, 1, 58, 0
1, 73320, Note_on_c, 1, 46, 86
1, 73344, Note_on_c, 1, 34, 86
1, 73433, Note_on_c, 1, 46, 0
1, 73433, Note_on_c, 1, 34, 0
1, 73488, Note_on_c, 1, 56, 64
1, 73533, Note_on_c, 1, 56, 0
1, 73536, Note_on_c, 1, 56, 64
1, 73581, Note_on_c, 1, 56, 0
1, 73584, Note_on_c, 1, 56, 64
1, 73629, Note_on_c, 1, 56, 0
1, 73632, Note_on_c, 1, 56, 64
1, 73677, Note_on_c, 1, 56, 0
1, 73680, Note_on_c, 0, 65, 80
1, 73680, Note_on_c, 1, 56, 64
1, 73700, Note_on_c, 0, 65, 0
1, 73725, Note_on_c, 1, 56, 0
1, 73728, Note_on_c, 0, 58, 64
1, 73728, Note_on_c, 1, 56, 64
1, 73773, Note_on_c, 0, 58, 0
1, 73773, Note_on_c, 1, 56, 0
1, 73776, Note_on_c, 0, 59, 65
1, 73776, Note_on_c, 1, 56, 65
1, 73821, Note_on_c, 0, 59, 0
1, 73821, Note_on_c, 1, 56, 0
1, 73824, Note_on_c, 0, 58, 66
1, 73824, Note_on_c, 1, 56, 66
1, 73869, Note_on_c, 0, 58, 0
1, 73869, Note_on_c, 1, 56, 0
1, 73872, Note_on_c, 0, 68, 83
1, 73872, Note_on_c, 1, 56, 67
1, 73892, Note_on_c, 0, 68, 0
1, 73917, Note_on_c, 1, 56, 0
1, 73920, Note_on_c, 0, 62, 68
1, 73920, Note_on_c, 1, 56, 68
1, 73965, Note_on_c, 0, 62, 0
1, 73965, Note_on_c, 1, 56, 0
1, 73968, Note_on_c, 0, 63, 69
1, 73968, Note_on_c, 1, 56, 69
1, 74013, Note_on_c, 0, 63, 0
1, 74013, Note_on_c, 1, 56, 0
1, 74016, Note_on_c, 0, 62, 70
1, 74016, Note_on_c, 1, 56, 70
1, 74061, Note_on_c, 0, 62, 0
1, 74061, Note_on_c, 1, 56, 0
1, 74064, Note_on_c, 0, 71, 87
1, 74064, Note_on_c, 1, 56, 71
1, 74084, Note_on_c, 0, 71, 0
1, 74109, Note_on_c, 1, 56, 0
1, 74112, Note_on_c, 0, 65, 72
1, 74112, Note_on_c, 1, 56, 72
1, 74157, Note_on_c, 0, 65, 0
1, 74157, Note_on_c, 1, 56, 0
1, 74160, Note_on_c, 0, 66, 73
1, 74160, Note_on_c, 1, 56, 73
1, 74205, Note_on_c, 0, 66, 0
1, 74205, Note_on_c, 1, 56, 0
1, 74208, Note_on_c, 0, 65, 74
1, 74208, Note_on_c, 1, 56, 74
1, 74253, Note_on_c, 0, 65, 0
1, 74253, Note_on_c, 1, 56, 0
1, 74256, Note_on_c, 0, 74, 91
1, 74256, Note_on_c, 1, 56, 75
1, 74276, Note_on_c, 0, 74, 0
1, 74301, Note_on_c, 1, 56, 0
1, 74304, Note_on_c, 0, 70, 76
1, 74304, Note_on_c, 1, 56, 76
1, 74349, Note_on_c, 0, 70, 0
1, 74349, Note_on_c, 1, 56, 0
1, 74352, Note_on_c, 0, 71, 77
1, 74352, Note_on_c, 1, 56, 77
1, 74397, Note_on_c, 0, 71, 0
1, 74397, Note_on_c, 1, 56, 0
1, 74400, Note_on_c, 0, 70, 78
1, 74400, Note_on_c, 1, 56, 78
1, 74445, Note_on_c, 0, 70, 0
1, 74445, Note_on_c, 1, 56, 0
1, 74448, Note_on_c, 0, 82, 58
1, 74448, Note_on_c, 1, 56, 80
1, 74468, Note_on_c, 0, 82, 0
1, 74493, Note_on_c, 1, 56, 0
1, 74496, Note_on_c, 1, 55, 58
1, 74516, Note_on_c, 1, 55, 0
1, 74544, Note_on_c, 0, 82, 58
1, 74544, Note_on_c, 0, 79, 58
1, 74564, Note_on_c, 0, 82, 0
1, 74564, Note_on_c, 0, 79, 0
1, 74592, Note_on_c, 1, 56, 58
1, 74612, Note_on_c, 1, 56, 0
1, 74640, Note_on_c, 0, 80, 58
1, 74640, Note_on_c, 0, 77, 58
1, 74660, Note_on_c, 0, 80, 0
1, 74660, Note_on_c, 0, 77, 0
1, 74688, Note_on_c, 1, 58, 58
1, 74708, Note_on_c, 1, 58, 0
1, 74736, Note_on_c, 0, 79, 58
1, 74736, Note_on_c, 0, 75, 58
1, 74756, Note_on_c, 0, 79, 0
1, 74756, Note_on_c, 0, 75, 0
1, 74784, Note_on_c, 1, 46, 58
1, 74804, Note_on_c, 1, 46, 0
1, 74832, Note_on_c, 0, 77, 58
1, 74832, Note_on_c, 0, 74, 58
1, 74852, Note_on_c, 0, 77, 0
1, 74852, Note_on_c, 0, 74, 0
1, 74880, Note_on_c, 0, 75, 58
1, 74880, Note_on_c, 1, 51, 58
1, 74925, Note_on_c, 0, 75, 0
1, 74928, Note_on_c, 0, 68, 64
1, 74969, Note_on_c, 1, 51, 0
1, 74973, Note_on_c, 0, 68, 0
1, 74976, Note_on_c, 0, 68, 64
1, 75021, Note_on_c, 0, 68, 0
1, 75024, Note_on_c, 0, 68, 64
1, 75069, Note_on_c, 0, 68, 0
1, 75072, Note_on_c, 0, 68, 64
1, 75117, Note_on_c, 0, 68, 0
1, 75120, Note_on_c, 0, 68, 64
1, 75165, Note_on_c, 0, 68, 0
1, 75168, Note_on_c, 0, 68, 64
1, 75213, Note_on_c, 0, 68, 0
1, 75216, Note_on_c, 0, 68, 64
1, 75216, Note_on_c, 1, 53, 80
1, 75236, Note_on_c, 1, 53, 0
1, 75261, Note_on_c, 0, 68, 0
1, 75264, Note_on_c, 0, 70, 58
1, 75264, Note_on_c, 1, 46, 70
1, 75283, Note_on_c, 0, 70, 0
1, 75284, Note_on_c, 0, 68, 58
1, 75303, Note_on_c, 0, 68, 0
1, 75304, Note_on_c, 0, 70, 58
1, 75309, Note_on_c, 1, 46, 0
1, 75312, Note_on_c, 1, 47, 70
1, 75322, Note_on_c, 0, 70, 0
1, 75323, Note_on_c, 0, 68, 58
1, 75341, Note_on_c, 0, 68, 0
1, 75342, Note_on_c, 0, 70, 58
1, 75357, Note_on_c, 1, 47, 0
1, 75360, Note_on_c, 0, 70, 0
1, 75360, Note_on_c, 1, 46, 71
1, 75361, Note_on_c, 0, 68, 58
1, 75379, Note_on_c, 0, 68, 0
1, 75380, Note_on_c, 0, 70, 58
1, 75398, Note_on_c, 0, 70, 0
1, 75399, Note_on_c, 0, 68, 58
1, 75405, Note_on_c, 1, 46, 0
1, 75408, Note_on_c, 1, 56, 88
1, 75417, Note_on_c, 0, 68, 0
1, 75418, Note_on_c, 0, 70, 59
1, 75428, Note_on_c, 1, 56, 0
1, 75436, Note_on_c, 0, 70, 0
1, 75437, Note_on_c, 0, 68, 59
1, 75455, Note_on_c, 0, 68, 0
1, 75456, Note_on_c, 0, 70, 59
1, 75456, Note_on_c, 1, 50, 72
1, 75475, Note_on_c, 0, 70, 0
1, 75476, Note_on_c, 0, 68, 59
1, 75495, Note_on_c, 0, 68, 0
1, 75496, Note_on_c, 0, 70, 59
1, 75501, Note_on_c, 1, 50, 0
1, 75504, Note_on_c, 1, 51, 73
1, 75514, Note_on_c, 0, 70, 0
1, 75515, Note_on_c, 0, 68, 59
1, 75533, Note_on_c, 0, 68, 0
1, 75534, Note_on_c, 0, 70, 59
1, 75549, Note_on_c, 1, 51, 0
1, 75552, Note_on_c, 0, 70, 0
1, 75552, Note_on_c, 1, 50, 74
1, 75553, Note_on_c, 0, 68, 60
1, 75571, Note_on_c, 0, 68, 0
1, 75572, Note_on_c, 0, 70, 60
1, 75590, Note_on_c, 0, 70, 0
1, 75591, Note_on_c, 0, 68, 60
1, 75597, Note_on_c, 1, 50, 0
1, 75600, Note_on_c, 1, 59, 90
1, 75609, Note_on_c, 0, 68, 0
1, 75610, Note_on_c, 0, 70, 60
1, 75620, Note_on_c, 1, 59, 0
1, 75628, Note_on_c, 0, 70, 0
1, 75629, Note_on_c, 0, 68, 60
1, 75647, Note_on_c, 0, 68, 0
1, 75648, Note_on_c, 0, 70, 60
1, 75648, Note_on_c, 1, 53, 75
1, 75667, Note_on_c, 0, 70, 0
1, 75668, Note_on_c, 0, 68, 60
1, 75687, Note_on_c, 0, 68, 0
1, 75688, Note_on_c, 0, 70, 61
1, 75693, Note_on_c, 1, 53, 0
1, 75696, Note_on_c, 1, 54, 76
1, 75706, Note_on_c, 0, 70, 0
1, 75707, Note_on_c, 0, 68, 61
1, 75725, Note_on_c, 0, 68, 0
1, 75726, Note_on_c, 0, 70, 61
1, 75741, Note_on_c, 1, 54, 0
1, 75744, Note_on_c, 0, 70, 0
1, 75744, Note_on_c, 1, 53, 76
1, 75745, Note_on_c, 0, 68, 61
1, 75763, Note_on_c, 0, 68, 0
1, 75764, Note_on_c, 0, 70, 61
1, 75782, Note_on_c, 0, 70, 0
1, 75783, Note_on_c, 0, 68, 61
1, 75789, Note_on_c, 1, 53, 0
1, 75792, Note_on_c, 1, 62, 93
1, 75801, Note_on_c, 0, 68, 0
1, 75802, Note_on_c, 0, 70, 61
1, 75812, Note_on_c, 1, 62, 0
1, 75820, Note_on_c, 0, 70, 0
1, 75821, Note_on_c, 0, 68, 62
1, 75839, Note_on_c, 0, 68, 0
1, 75840, Note_on_c, 0, 70, 62
1, 75840, Note_on_c, 1, 58, 78
1, 75859, Note_on_c, 0, 70, 0
1, 75860, Note_on_c, 0, 68, 62
1, 75879, Note_on_c, 0, 68, 0
1, 75880, Note_on_c, 0, 70, 62
1, 75885, Note_on_c, 1, 58, 0
1, 75888, Note_on_c, 1, 59, 78
1, 75898, Note_on_c, 0, 70, 0
1, 75899, Note_on_c, 0, 68, 62
1, 75917, Note_on_c, 0, 68, 0
1, 75918, Note_on_c, 0, 70, 62
1, 75933, Note_on_c, 1, 59, 0
1, 75936, Note_on_c, 0, 70, 0
1, 75936, Note_on_c, 1, 58, 79
1, 75937, Note_on_c, 0, 68, 62
1, 75955, Note_on_c, 0, 68, 0
1, 75956, Note_on_c, 0, 70, 63
1, 75974, Note_on_c, 0, 70, 0
1, 75975, Note_on_c, 0, 68, 63
1, 75981, Note_on_c, 1, 58, 0
1, 75984, Note_on_c, 1, 62, 96
1, 75993, Note_on_c, 0, 68, 0
1, 75994, Note_on_c, 0, 67, 63
1, 76004, Note_on_c, 1, 62, 0
1, 76012, Note_on_c, 0, 67, 0
1, 76013, Note_on_c, 0, 68, 63
1, 76031, Note_on_c, 0, 68, 0
1, 76032, Note_on_c, 0, 67, 64
1, 76032, Note_on_c, 1, 63, 80
1, 76055, Note_on_c, 0, 67, 0
1, 76056, Note_on_c, 0, 75, 64
1, 76077, Note_on_c, 1, 63, 0
1, 76079, Note_on_c, 0, 75, 0
1, 76080, Note_on_c, 0, 67, 64
1, 76080, Note_on_c, 1, 51, 80
1, 76103, Note_on_c, 0, 67, 0
1, 76104, Note_on_c, 0, 75, 64
1, 76125, Note_on_c, 1, 51, 0
1, 76127, Note_on_c, 0, 75, 0
1, 76128, Note_on_c, 0, 68, 64
1, 76128, Note_on_c, 1, 63, 80
1, 76151, Note_on_c, 0, 68, 0
1, 76152, Note_on_c, 0, 74, 64
1, 76173, Note_on_c, 1, 63, 0
1, 76175, Note_on_c, 0, 74, 0
1, 76176, Note_on_c, 0, 68, 64
1, 76176, Note_on_c, 1, 51, 80
1, 76199, Note_on_c, 0, 68, 0
1, 76200, Note_on_c, 0, 74, 64
1, 76221, Note_on_c, 1, 51, 0
1, 76223, Note_on_c, 0, 74, 0
1, 76224, Note_on_c, 0, 74, 64
1, 76224, Note_on_c, 1, 63, 80
1, 76247, Note_on_c, 0, 74, 0
1, 76248, Note_on_c, 0, 80, 64
1, 76269, Note_on_c, 1, 63, 0
1, 76271, Note_on_c, 0, 80, 0
1, 76272, Note_on_c, 0, 74, 64
1, 76272, Note_on_c, 1, 51, 80
1, 76295, Note_on_c, 0, 74, 0
1, 76296, Note_on_c, 0, 80, 64
1, 76317, Note_on_c, 1, 51, 0
1, 76319, Note_on_c, 0, 80, 0
1, 76320, Note_on_c, 0, 75, 64
1, 76320, Note_on_c, 1, 63, 80
1, 76343, Note_on_c, 0, 75, 0
1, 76344, Note_on_c, 0, 79, 64
1, 76365, Note_on_c, 1, 63, 0
1, 76367, Note_on_c, 0, 79, 0
1, 76368, Note_on_c, 0, 75, 64
1, 76368, Note_on_c, 1, 51, 80
1, 76391, Note_on_c, 0, 75, 0
1, 76392, Note_on_c, 0, 79, 64
1, 76413, Note_on_c, 1, 51, 0
1, 76415, Note_on_c, 0, 79, 0
1, 76416, Note_on_c, 0, 80, 64
1, 76416, Note_on_c, 1, 63, 80
1, 76439, Note_on_c, 0, 80, 0
1, 76440, Note_on_c, 0, 84, 64
1, 76461, Note_on_c, 1, 63, 0
1, 76463, Note_on_c, 0, 84, 0
1, 76464, Note_on_c, 0, 80, 64
1, 76464, Note_on_c, 1, 51, 80
1, 76487, Note_on_c, 0, 80, 0
1, 76488, Note_on_c, 0, 84, 64
1, 76509, Note_on_c, 1, 51, 0
1, 76511, Note_on_c, 0, 84, 0
1, 76512, Note_on_c, 0, 79, 64
1, 76512, Note_on_c, 1, 63, 80
1, 76535, Note_on_c, 0, 79, 0
1, 76536, Note_on_c, 0, 82, 64
1, 76557, Note_on_c, 1, 63, 0
1, 76559, Note_on_c, 0, 82, 0
1, 76560, Note_on_c, 0, 79, 64
1, 76560, Note_on_c, 1, 51, 80
1, 76583, Note_on_c, 0, 79, 0
1, 76584, Note_on_c, 0, 82, 64
1, 76605, Note_on_c, 1, 51, 0
1, 76607, Note_on_c, 0, 82, 0
1, 76608, Note_on_c, 0, 80, 64
1, 76608, Note_on_c, 1, 63, 80
1, 76631, Note_on_c, 0, 80, 0
1, 76632, Note_on_c, 0, 86, 64
1, 76653, Note_on_c, 1, 63, 0
1, 76655, Note_on_c, 0, 86, 0
1, 76656, Note_on_c, 0, 80, 64
1, 76656, Note_on_c, 1, 51, 80
1, 76679, Note_on_c, 0, 80, 0
1, 76680, Note_on_c, 0, 86, 64
1, 76701, Note_on_c, 1, 51, 0
1, 76703, Note_on_c, 0, 86, 0
1, 76704, Note_on_c, 0, 79, 64
1, 76704, Note_on_c, 1, 63, 80
1, 76727, Note_on_c, 0, 79, 0
1, 76728, Note_on_c, 0, 87, 64
1, 76749, Note_on_c, 1, 63, 0
1, 76751, Note_on_c, 0, 87, 0
1, 76752, Note_on_c, 0, 79, 64
1, 76752, Note_on_c, 1, 51, 80
1, 76775, Note_on_c, 0, 79, 0
1, 76776, Note_on_c, 0, 87, 64
1, 76797, Note_on_c, 1, 51, 0
1, 76799, Note_on_c, 0, 87, 0
1, 76800, Note_on_c, 0, 87, 64
1, 76800, Note_on_c, 0, 84, 64
1, 76800, Note_on_c, 1, 63, 80
1, 76800, Note_on_c, 1, 56, 80
1, 76889, Note_on_c, 0, 87, 0
1, 76889, Note_on_c, 0, 84, 0
1, 76889, Note_on_c, 1, 63, 0
1, 76889, Note_on_c, 1, 56, 0
1, 76992, Note_on_c, 0, 74, 64
1, 76992, Note_on_c, 0, 68, 64
1, 76992, Note_on_c, 0, 65, 64
1, 76992, Note_on_c, 1, 58, 80
1, 76992, Note_on_c, 1, 46, 80
1, 77081, Note_on_c, 0, 74, 0
1, 77081, Note_on_c, 0, 68, 0
1, 77081, Note_on_c, 0, 65, 0
1, 77081, Note_on_c, 1, 58, 0
1, 77081, Note_on_c, 1, 46, 0
1, 77184, Note_on_c, 0, 75, 64
1, 77184, Note_on_c, 0, 70, 64
1, 77184, Note_on_c, 0, 67, 64
1, 77184, Note_on_c, 1, 63, 80
1, 77207, Note_on_c, 1, 63, 0
1, 77208, Note_on_c, 1, 62, 80
1, 77231, Note_on_c, 1, 62, 0
1, 77232, Note_on_c, 1, 63, 80
1, 77255, Note_on_c, 1, 63, 0
1, 77256, Note_on_c, 1, 62, 80
1, 77273, Note_on_c, 0, 75, 0
1, 77273, Note_on_c, 0, 70, 0
1, 77273, Note_on_c, 0, 67, 0
1, 77279, Note_on_c, 1, 62, 0
1, 77280, Note_on_c, 1, 63, 80
1, 77303, Note_on_c, 1, 63, 0
1, 77304, Note_on_c, 1, 62, 80
1, 77327, Note_on_c, 1, 62, 0
1, 77328, Note_on_c, 0, 84, 64
1, 77328, Note_on_c, 0, 80, 64
1, 77328, Note_on_c, 1, 63, 80
1, 77351, Note_on_c, 1, 63, 0
1, 77352, Note_on_c, 1, 62, 80
1, 77373, Note_on_c, 0, 84, 0
1, 77373, Note_on_c, 0, 80, 0
1, 77375, Note_on_c, 1, 62, 0
1, 77376, Note_on_c, 0, 82, 64
1, 77376, Note_on_c, 0, 79, 64
1, 77376, Note_on_c, 1, 63, 80
1, 77399, Note_on_c, 1, 63, 0
1, 77400, Note_on_c, 1, 62, 80
1, 77421, Note_on_c, 0, 82, 0
1, 77421, Note_on_c, 0, 79, 0
1, 77423, Note_on_c, 1, 62, 0
1, 77424, Note_on_c, 0, 80, 64
1, 77424, Note_on_c, 0, 77, 64
1, 77424, Note_on_c, 1, 63, 80
1, 77447, Note_on_c, 1, 63, 0
1, 77448, Note_on_c, 1, 62, 80
1, 77469, Note_on_c, 0, 80, 0
1, 77469, Note_on_c, 0, 77, 0
1, 77471, Note_on_c, 1, 62, 0
1, 77472, Note_on_c, 0, 79, 64
1, 77472, Note_on_c, 0, 75, 64
1, 77472, Note_on_c, 1, 63, 80
1, 77495, Note_on_c, 1, 63, 0
1, 77496, Note_on_c, 1, 62, 80
1, 77517, Note_on_c, 0, 79, 0
1, 77517, Note_on_c, 0, 75, 0
1, 77519, Note_on_c, 1, 62, 0
1, 77520, Note_on_c, 0, 77, 64
1, 77520, Note_on_c, 0, 74, 64
1, 77520, Note_on_c, 1, 63, 80
1, 77543, Note_on_c, 1, 63, 0
1, 77544, Note_on_c, 1, 62, 80
1, 77565, Note_on_c, 0, 77, 0
1, 77565, Note_on_c, 0, 74, 0
1, 77567, Note_on_c, 1, 62, 0
1, 77568, Note_on_c, 0, 75, 64
1, 77568, Note_on_c, 1, 63, 80
1, 77591, Note_on_c, 0, 75, 0
1, 77592, Note_on_c, 0, 74, 64
1, 77615, Note_on_c, 0, 74, 0
1, 77616, Note_on_c, 0, 75, 64
1, 77639, Note_on_c, 0, 75, 0
1, 77640, Note_on_c, 0, 74, 64
1, 77657, Note_on_c, 1, 63, 0
1, 77663, Note_on_c, 0, 74, 0
1, 77664, Note_on_c, 0, 75, 64
1, 77687, Note_on_c, 0, 75, 0
1, 77688, Note_on_c, 0, 74, 64
1, 77711, Note_on_c, 0, 74, 0
1, 77712, Note_on_c, 0, 75, 64
1, 77712, Note_on_c, 1, 60, 80
1, 77712, Note_on_c, 1, 56, 80
1, 77735, Note_on_c, 0, 75, 0
1, 77736, Note_on_c, 0, 74, 64
1, 77757, Note_on_c, 1, 60, 0
1, 77757, Note_on_c, 1, 56, 0
1, 77759, Note_on_c, 0, 74, 0
1, 77760, Note_on_c, 0, 75, 64
1, 77760, Note_on_c, 1, 58, 80
1, 77760, Note_on_c, 1, 55, 80
1, 77783, Note_on_c, 0, 75, 0
1, 77784, Note_on_c, 0, 74, 64
1, 77805, Note_on_c, 1, 58, 0
1, 77805, Note_on_c, 1, 55, 0
1, 77807, Note_on_c, 0, 74, 0
1, 77808, Note_on_c, 0, 75, 64
1, 77808, Note_on_c, 1, 60, 80
1, 77808, Note_on_c, 1, 56, 80
1, 77831, Note_on_c, 0, 75, 0
1, 77832, Note_on_c, 0, 74, 64
1, 77853, Note_on_c, 1, 60, 0
1, 77853, Note_on_c, 1, 56, 0
1, 77855, Note_on_c, 0, 74, 0
1, 77856, Note_on_c, 0, 75, 64
1, 77856, Note_on_c, 1, 58, 80
1, 77856, Note_on_c, 1, 55, 80
1, 77879, Note_on_c, 0, 75, 0
1, 77880, Note_on_c, 0, 74, 64
1, 77901, Note_on_c, 1, 58, 0
1, 77901, Note_on_c, 1, 55, 0
1, 77903, Note_on_c, 0, 74, 0
1, 77904, Note_on_c, 0, 75, 64
1, 77904, Note_on_c, 1, 56, 80
1, 77904, Note_on_c, 1, 53, 80
1, 77927, Note_on_c, 0, 75, 0
1, 77928, Note_on_c, 0, 74, 64
1, 77949, Note_on_c, 1, 56, 0
1, 77949, Note_on_c, 1, 53, 0
1, 77951, Note_on_c, 0, 74, 0
1, 77952, Note_on_c, 0, 75, 64
1, 77952, Note_on_c, 1, 55, 80
1, 77952, Note_on_c, 1, 51, 80
1, 78041, Note_on_c, 0, 75, 0
1, 78041, Note_on_c, 1, 55, 0
1, 78041, Note_on_c, 1, 51, 0
1, 78144, Note_on_c, 0, 87, 86
1, 78144, Note_on_c, 0, 82, 86
1, 78144, Note_on_c, 0, 79, 86
1, 78144, Note_on_c, 1, 51, 86
1, 78144, Note_on_c, 1, 46, 86
1, 78144, Note_on_c, 1, 43, 86
1, 78144, Note_on_c, 1, 39, 86
1, 78233, Note_on_c, 0, 87, 0
1, 78233, Note_on_c, 0, 82, 0
1, 78233, Note_on_c, 0, 79, 0
1, 78233, Note_on_c, 1, 51, 0
1, 78233, Note_on_c, 1, 46, 0
1, 78233, Note_on_c, 1, 43, 0
1, 78233, Note_on_c, 1, 39, 0
1, 78336, Note_on_c, 0, 63, 86
1, 78336, Note_on_c, 0, 58, 86
1, 78336, Note_on_c, 0, 55, 86
1, 78336, Note_on_c, 1, 51, 86
1, 78336, Note_on_c, 1, 46, 86
1, 78336, Note_on_c, 1, 43, 86
1, 78336, Note_on_c, 1, 39, 86
1, 78425, Note_on_c, 0, 63, 0
1, 78425, Note_on_c, 0, 58, 0
1, 78425, Note_on_c, 0, 55, 0
1, 78425, Note_on_c, 1, 51, 0
1, 78425, Note_on_c, 1, 46, 0
1, 78425, Note_on_c, 1, 43, 0
1, 78425, Note_on_c, 1, 39, 0
1, 78528, Note_on_c, 1, 39, 0
1, 78617, Note_on_c, 1, 39, 0
1, 78627, End_track
0, 0, End_of_file