0, 0, Header, 0, 1, 96
1, 0, Start_track
1, 0, Tempo, 461538
1, 0, Note_on_c, 0, 68, 75
1, 96, Note_on_c, 1, 59, 75
1, 96, Note_on_c, 1, 52, 75
1, 177, Note_on_c, 0, 68, 0
1, 185, Note_on_c, 1, 59, 0
1, 185, Note_on_c, 1, 52, 0
1, 192, Note_on_c, 0, 71, 75
1, 192, Note_on_c, 1, 57, 75
1, 192, Note_on_c, 1, 47, 75
1, 215, Note_on_c, 0, 71, 0
1, 216, Note_on_c, 0, 69, 75
1, 239, Note_on_c, 0, 69, 0
1, 240, Note_on_c, 0, 68, 75
1, 263, Note_on_c, 0, 68, 0
1, 264, Note_on_c, 0, 66, 75
1, 281, Note_on_c, 1, 57, 0
1, 281, Note_on_c, 1, 47, 0
1, 287, Note_on_c, 0, 66, 0
1, 288, Note_on_c, 0, 64, 75
1, 288, Note_on_c, 1, 56, 75
1, 288, Note_on_c, 1, 52, 75
1, 377, Note_on_c, 0, 64, 0
1, 384, Note_on_c, 0, 59, 75
1, 465, Note_on_c, 1, 56, 0
1, 465, Note_on_c, 1, 52, 0
1, 473, Note_on_c, 0, 59, 0
1, 480, Note_on_c, 0, 76, 75
1, 569, Note_on_c, 0, 76, 0
1, 576, Note_on_c, 0, 75, 75
1, 665, Note_on_c, 0, 75, 0
1, 672, Note_on_c, 0, 73, 75
1, 672, Note_on_c, 1, 64, 75
1, 672, Note_on_c, 1, 57, 75
1, 685, Note_on_c, 0, 73, 0
1, 686, Note_on_c, 0, 75, 75
1, 699, Note_on_c, 0, 75, 0
1, 700, Note_on_c, 0, 73, 75
1, 713, Note_on_c, 0, 73, 0
1, 714, Note_on_c, 0, 75, 75
1, 727, Note_on_c, 0, 75, 0
1, 728, Note_on_c, 0, 73, 75
1, 741, Note_on_c, 0, 73, 0
1, 742, Note_on_c, 0, 71, 75
1, 754, Note_on_c, 0, 71, 0
1, 755, Note_on_c, 0, 73, 75
1, 761, Note_on_c, 1, 64, 0
1, 761, Note_on_c, 1, 57, 0
1, 767, Note_on_c, 0, 73, 0
1, 768, Note_on_c, 0, 71, 75
1, 768, Note_on_c, 1, 64, 75
1, 768, Note_on_c, 1, 56, 75
1, 791, Note_on_c, 0, 71, 0
1, 792, Note_on_c, 0, 75, 76
1, 815, Note_on_c, 0, 75, 0
1, 816, Note_on_c, 0, 76, 78
1, 839, Note_on_c, 0, 76, 0
1, 840, Note_on_c, 0, 80, 80
1, 863, Note_on_c, 0, 80, 0
1, 864, Note_on_c, 0, 71, 79
1, 864, Note_on_c, 1, 56, 0
1, 864, Note_on_c, 1, 54, 64
1, 953, Note_on_c, 1, 64, 0
1, 960, Note_on_c, 1, 63, 75
1, 1027, Note_on_c, 0, 71, 0
1, 1032, Note_on_c, 0, 69, 75
1, 1038, Note_on_c, 0, 69, 0
1, 1038, Note_on_c, 0, 71, 75
1, 1041, Note_on_c, 1, 54, 0
1, 1044, Note_on_c, 0, 71, 0
1, 1044, Note_on_c, 0, 69, 75
1, 1049, Note_on_c, 1, 63, 0
1, 1055, Note_on_c, 0, 69, 0
1, 1056, Note_on_c, 0, 68, 75
1, 1056, Note_on_c, 1, 64, 75
1, 1056, Note_on_c, 1, 52, 64
1, 1095, Note_on_c, 0, 68, 0
1, 1145, Note_on_c, 1, 64, 0
1, 1145, Note_on_c, 1, 52, 0
1, 1152, Note_on_c, 0, 80, 75
1, 1248, Note_on_c, 1, 71, 75
1, 1248, Note_on_c, 1, 64, 64
1, 1315, Note_on_c, 0, 80, 0
1, 1320, Note_on_c, 0, 82, 79
1, 1337, Note_on_c, 1, 71, 0
1, 1337, Note_on_c, 1, 64, 0
1, 1343, Note_on_c, 0, 82, 0
1, 1344, Note_on_c, 0, 83, 80
1, 1344, Note_on_c, 1, 71, 75
1, 1344, Note_on_c, 1, 63, 64
1, 1367, Note_on_c, 0, 83, 0
1, 1368, Note_on_c, 0, 82, 78
1, 1391, Note_on_c, 0, 82, 0
1, 1392, Note_on_c, 0, 80, 77
1, 1415, Note_on_c, 0, 80, 0
1, 1416, Note_on_c, 0, 78, 76
1, 1433, Note_on_c, 1, 63, 0
1, 1439, Note_on_c, 0, 78, 0
1, 1440, Note_on_c, 0, 78, 75
1, 1440, Note_on_c, 1, 61, 64
1, 1529, Note_on_c, 0, 78, 0
1, 1529, Note_on_c, 1, 71, 0
1, 1536, Note_on_c, 0, 76, 75
1, 1536, Note_on_c, 1, 70, 75
1, 1549, Note_on_c, 0, 76, 0
1, 1550, Note_on_c, 0, 78, 75
1, 1563, Note_on_c, 0, 78, 0
1, 1564, Note_on_c, 0, 76, 75
1, 1577, Note_on_c, 0, 76, 0
1, 1578, Note_on_c, 0, 78, 75
1, 1591, Note_on_c, 0, 78, 0
1, 1592, Note_on_c, 0, 76, 75
1, 1605, Note_on_c, 0, 76, 0
1, 1606, Note_on_c, 0, 75, 75
1, 1617, Note_on_c, 1, 61, 0
1, 1618, Note_on_c, 0, 75, 0
1, 1619, Note_on_c, 0, 76, 75
1, 1625, Note_on_c, 1, 70, 0
1, 1631, Note_on_c, 0, 76, 0
1, 1632, Note_on_c, 0, 75, 75
1, 1632, Note_on_c, 1, 71, 75
1, 1632, Note_on_c, 1, 59, 64
1, 1721, Note_on_c, 0, 75, 0
1, 1721, Note_on_c, 1, 71, 0
1, 1721, Note_on_c, 1, 59, 0
1, 1728, Note_on_c, 0, 72, 75
1, 1728, Note_on_c, 1, 68, 75
1, 1728, Note_on_c, 1, 64, 75
1, 1751, Note_on_c, 0, 72, 0
1, 1752, Note_on_c, 0, 73, 77
1, 1775, Note_on_c, 0, 73, 0
1, 1776, Note_on_c, 0, 76, 80
1, 1799, Note_on_c, 0, 76, 0
1, 1800, Note_on_c, 0, 80, 79
1, 1817, Note_on_c, 1, 68, 0
1, 1817, Note_on_c, 1, 64, 0
1, 1823, Note_on_c, 0, 80, 0
1, 1824, Note_on_c, 0, 71, 79
1, 1824, Note_on_c, 1, 63, 75
1, 1824, Note_on_c, 1, 54, 75
1, 1863, Note_on_c, 0, 71, 0
1, 1913, Note_on_c, 1, 63, 0
1, 1913, Note_on_c, 1, 54, 0
1, 1920, Note_on_c, 0, 71, 77
1, 1920, Note_on_c, 1, 61, 75
1, 1920, Note_on_c, 1, 54, 75
1, 1944, Note_on_c, 0, 71, 0
1, 1944, Note_on_c, 0, 70, 77
1, 1968, Note_on_c, 0, 70, 0
1, 1968, Note_on_c, 0, 68, 77
1, 1992, Note_on_c, 0, 68, 0
1, 1992, Note_on_c, 0, 70, 77
1, 2009, Note_on_c, 1, 61, 0
1, 2009, Note_on_c, 1, 54, 0
1, 2016, Note_on_c, 0, 70, 0
1, 2016, Note_on_c, 0, 70, 75
1, 2016, Note_on_c, 0, 64, 64
1, 2016, Note_on_c, 1, 59, 75
1, 2105, Note_on_c, 1, 59, 0
1, 2112, Note_on_c, 1, 54, 75
1, 2193, Note_on_c, 0, 64, 0
1, 2201, Note_on_c, 1, 54, 0
1, 2208, Note_on_c, 0, 70, 0
1, 2208, Note_on_c, 0, 71, 70
1, 2208, Note_on_c, 0, 63, 70
1, 2208, Note_on_c, 1, 47, 75
1, 2247, Note_on_c, 0, 71, 0
1, 2297, Note_on_c, 0, 63, 0
1, 2297, Note_on_c, 1, 47, 0
1, 2304, Note_on_c, 0, 68, 75
1, 2400, Note_on_c, 1, 59, 75
1, 2400, Note_on_c, 1, 52, 75
1, 2481, Note_on_c, 0, 68, 0
1, 2489, Note_on_c, 1, 59, 0
1, 2489, Note_on_c, 1, 52, 0
1, 2496, Note_on_c, 0, 71, 75
1, 2496, Note_on_c, 1, 57, 75
1, 2496, Note_on_c, 1, 47, 75
1, 2519, Note_on_c, 0, 71, 0
1, 2520, Note_on_c, 0, 69, 75
1, 2543, Note_on_c, 0, 69, 0
1, 2544, Note_on_c, 0, 68, 75
1, 2567, Note_on_c, 0, 68, 0
1, 2568, Note_on_c, 0, 66, 75
1, 2585, Note_on_c, 1, 57, 0
1, 2585, Note_on_c, 1, 47, 0
1, 2591, Note_on_c, 0, 66, 0
1, 2592, Note_on_c, 0, 64, 75
1, 2592, Note_on_c, 1, 56, 75
1, 2592, Note_on_c, 1, 52, 75
1, 2681, Note_on_c, 0, 64, 0
1, 2688, Note_on_c, 0, 59, 75
1, 2769, Note_on_c, 1, 56, 0
1, 2769, Note_on_c, 1, 52, 0
1, 2777, Note_on_c, 0, 59, 0
1, 2784, Note_on_c, 0, 76, 75
1, 2873, Note_on_c, 0, 76, 0
1, 2880, Note_on_c, 0, 75, 75
1, 2969, Note_on_c, 0, 75, 0
1, 2976, Note_on_c, 0, 73, 75
1, 2976, Note_on_c, 1, 64, 75
1, 2976, Note_on_c, 1, 57, 75
1, 2989, Note_on_c, 0, 73, 0
1, 2990, Note_on_c, 0, 75, 75
1, 3003, Note_on_c, 0, 75, 0
1, 3004, Note_on_c, 0, 73, 75
1, 3017, Note_on_c, 0, 73, 0
1, 3018, Note_on_c, 0, 75, 75
1, 3031, Note_on_c, 0, 75, 0
1, 3032, Note_on_c, 0, 73, 75
1, 3045, Note_on_c, 0, 73, 0
1, 3046, Note_on_c, 0, 71, 75
1, 3058, Note_on_c, 0, 71, 0
1, 3059, Note_on_c, 0, 73, 75
1, 3065, Note_on_c, 1, 64, 0
1, 3065, Note_on_c, 1, 57, 0
1, 3071, Note_on_c, 0, 73, 0
1, 3072, Note_on_c, 0, 71, 75
1, 3072, Note_on_c, 1, 64, 75
1, 3072, Note_on_c, 1, 56, 75
1, 3095, Note_on_c, 0, 71, 0
1, 3096, Note_on_c, 0, 75, 76
1, 3119, Note_on_c, 0, 75, 0
1, 3120, Note_on_c, 0, 76, 78
1, 3143, Note_on_c, 0, 76, 0
1, 3144, Note_on_c, 0, 80, 80
1, 3167, Note_on_c, 0, 80, 0
1, 3168, Note_on_c, 0, 71, 79
1, 3168, Note_on_c, 1, 56, 0
1, 3168, Note_on_c, 1, 54, 64
1, 3257, Note_on_c, 1, 64, 0
1, 3264, Note_on_c, 1, 63, 75
1, 3331, Note_on_c, 0, 71, 0
1, 3336, Note_on_c, 0, 69, 75
1, 3342, Note_on_c, 0, 69, 0
1, 3342, Note_on_c, 0, 71, 75
1, 3345, Note_on_c, 1, 54, 0
1, 3348, Note_on_c, 0, 71, 0
1, 3348, Note_on_c, 0, 69, 75
1, 3353, Note_on_c, 1, 63, 0
1, 3359, Note_on_c, 0, 69, 0
1, 3360, Note_on_c, 0, 68, 75
1, 3360, Note_on_c, 1, 64, 75
1, 3360, Note_on_c, 1, 52, 64
1, 3399, Note_on_c, 0, 68, 0
1, 3449, Note_on_c, 1, 64, 0
1, 3449, Note_on_c, 1, 52, 0
1, 3456, Note_on_c, 0, 80, 75
1, 3552, Note_on_c, 1, 71, 75
1, 3552, Note_on_c, 1, 64, 64
1, 3619, Note_on_c, 0, 80, 0
1, 3624, Note_on_c, 0, 82, 79
1, 3641, Note_on_c, 1, 71, 0
1, 3641, Note_on_c, 1, 64, 0
1, 3647, Note_on_c, 0, 82, 0
1, 3648, Note_on_c, 0, 83, 80
1, 3648, Note_on_c, 1, 71, 75
1, 3648, Note_on_c, 1, 63, 64
1, 3671, Note_on_c, 0, 83, 0
1, 3672, Note_on_c, 0, 82, 78
1, 3695, Note_on_c, 0, 82, 0
1, 3696, Note_on_c, 0, 80, 77
1, 3719, Note_on_c, 0, 80, 0
1, 3720, Note_on_c, 0, 78, 76
1, 3737, Note_on_c, 1, 63, 0
1, 3743, Note_on_c, 0, 78, 0
1, 3744, Note_on_c, 0, 78, 75
1, 3744, Note_on_c, 1, 61, 64
1, 3833, Note_on_c, 0, 78, 0
1, 3833, Note_on_c, 1, 71, 0
1, 3840, Note_on_c, 0, 76, 75
1, 3840, Note_on_c, 1, 70, 75
1, 3853, Note_on_c, 0, 76, 0
1, 3854, Note_on_c, 0, 78, 75
1, 3867, Note_on_c, 0, 78, 0
1, 3868, Note_on_c, 0, 76, 75
1, 3881, Note_on_c, 0, 76, 0
1, 3882, Note_on_c, 0, 78, 75
1, 3895, Note_on_c, 0, 78, 0
1, 3896, Note_on_c, 0, 76, 75
1, 3909, Note_on_c, 0, 76, 0
1, 3910, Note_on_c, 0, 75, 75
1, 3921, Note_on_c, 1, 61, 0
1, 3922, Note_on_c, 0, 75, 0
1, 3923, Note_on_c, 0, 76, 75
1, 3929, Note_on_c, 1, 70, 0
1, 3935, Note_on_c, 0, 76, 0
1, 3936, Note_on_c, 0, 75, 75
1, 3936, Note_on_c, 1, 71, 75
1, 3936, Note_on_c, 1, 59, 64
1, 4025, Note_on_c, 0, 75, 0
1, 4025, Note_on_c, 1, 71, 0
1, 4025, Note_on_c, 1, 59, 0
1, 4032, Note_on_c, 0, 72, 75
1, 4032, Note_on_c, 1, 68, 75
1, 4032, Note_on_c, 1, 64, 75
1, 4055, Note_on_c, 0, 72, 0
1, 4056, Note_on_c, 0, 73, 77
1, 4079, Note_on_c, 0, 73, 0
1, 4080, Note_on_c, 0, 76, 80
1, 4103, Note_on_c, 0, 76, 0
1, 4104, Note_on_c, 0, 80, 79
1, 4121, Note_on_c, 1, 68, 0
1, 4121, Note_on_c, 1, 64, 0
1, 4127, Note_on_c, 0, 80, 0
1, 4128, Note_on_c, 0, 71, 79
1, 4128, Note_on_c, 1, 63, 75
1, 4128, Note_on_c, 1, 54, 75
1, 4167, Note_on_c, 0, 71, 0
1, 4217, Note_on_c, 1, 63, 0
1, 4217, Note_on_c, 1, 54, 0
1, 4224, Note_on_c, 0, 71, 77
1, 4224, Note_on_c, 1, 61, 75
1, 4224, Note_on_c, 1, 54, 75
1, 4248, Note_on_c, 0, 71, 0
1, 4248, Note_on_c, 0, 70, 77
1, 4272, Note_on_c, 0, 70, 0
1, 4272, Note_on_c, 0, 68, 77
1, 4296, Note_on_c, 0, 68, 0
1, 4296, Note_on_c, 0, 70, 77
1, 4313, Note_on_c, 1, 61, 0
1, 4313, Note_on_c, 1, 54, 0
1, 4320, Note_on_c, 0, 70, 0
1, 4320, Note_on_c, 0, 70, 75
1, 4320, Note_on_c, 0, 64, 64
1, 4320, Note_on_c, 1, 59, 75
1, 4409, Note_on_c, 1, 59, 0
1, 4416, Note_on_c, 1, 54, 75
1, 4497, Note_on_c, 0, 64, 0
1, 4505, Note_on_c, 1, 54, 0
1, 4512, Note_on_c, 0, 70, 0
1, 4512, Note_on_c, 0, 71, 70
1, 4512, Note_on_c, 0, 63, 70
1, 4512, Note_on_c, 1, 47, 75
1, 4551, Note_on_c, 0, 71, 0
1, 4601, Note_on_c, 0, 63, 0
1, 4601, Note_on_c, 1, 47, 0
1, 4608, Note_on_c, 0, 71, 75
1, 4704, Note_on_c, 1, 59, 75
1, 4704, Note_on_c, 1, 56, 75
1, 4749, Note_on_c, 0, 71, 0
1, 4752, Note_on_c, 0, 74, 79
1, 4775, Note_on_c, 0, 74, 0
1, 4776, Note_on_c, 0, 73, 80
1, 4793, Note_on_c, 1, 59, 0
1, 4793, Note_on_c, 1, 56, 0
1, 4799, Note_on_c, 0, 73, 0
1, 4800, Note_on_c, 0, 76, 79
1, 4800, Note_on_c, 1, 62, 75
1, 4800, Note_on_c, 1, 53, 75
1, 4823, Note_on_c, 0, 76, 0
1, 4824, Note_on_c, 0, 74, 78
1, 4847, Note_on_c, 0, 74, 0
1, 4848, Note_on_c, 0, 73, 77
1, 4871, Note_on_c, 0, 73, 0
1, 4872, Note_on_c, 0, 71, 76
1, 4895, Note_on_c, 0, 71, 0
1, 4896, Note_on_c, 0, 71, 75
1, 4896, Note_on_c, 1, 53, 0
1, 4896, Note_on_c, 1, 54, 64
1, 4992, Note_on_c, 0, 71, 0
1, 4992, Note_on_c, 0, 69, 75
1, 4992, Note_on_c, 1, 62, 0
1, 4992, Note_on_c, 1, 61, 75
1, 5059, Note_on_c, 0, 69, 0
1, 5064, Note_on_c, 0, 71, 76
1, 5073, Note_on_c, 1, 54, 0
1, 5076, Note_on_c, 0, 71, 0
1, 5076, Note_on_c, 0, 69, 76
1, 5081, Note_on_c, 1, 61, 0
1, 5088, Note_on_c, 0, 69, 0
1, 5088, Note_on_c, 0, 68, 76
1, 5088, Note_on_c, 1, 59, 76
1, 5088, Note_on_c, 1, 56, 76
1, 5088, Note_on_c, 1, 56, 64
1, 5155, Note_on_c, 0, 68, 0
1, 5160, Note_on_c, 0, 69, 77
1, 5172, Note_on_c, 0, 69, 0
1, 5172, Note_on_c, 0, 68, 77
1, 5177, Note_on_c, 1, 59, 0
1, 5177, Note_on_c, 1, 56, 0
1, 5177, Note_on_c, 1, 56, 0
1, 5184, Note_on_c, 0, 68, 0
1, 5184, Note_on_c, 0, 66, 77
1, 5184, Note_on_c, 1, 57, 77
1, 5184, Note_on_c, 1, 61, 64
1, 5273, Note_on_c, 0, 66, 0
1, 5280, Note_on_c, 0, 81, 78
1, 5292, Note_on_c, 0, 81, 0
1, 5292, Note_on_c, 0, 83, 78
1, 5304, Note_on_c, 0, 83, 0
1, 5304, Note_on_c, 0, 85, 94
1, 5376, Note_on_c, 0, 85, 0
1, 5376, Note_on_c, 0, 83, 79
1, 5399, Note_on_c, 0, 83, 0
1, 5400, Note_on_c, 0, 81, 79
1, 5421, Note_on_c, 1, 57, 0
1, 5423, Note_on_c, 0, 81, 0
1, 5424, Note_on_c, 0, 80, 79
1, 5424, Note_on_c, 1, 58, 79
1, 5447, Note_on_c, 0, 80, 0
1, 5448, Note_on_c, 0, 78, 79
1, 5449, Note_on_c, 1, 61, 0
1, 5469, Note_on_c, 1, 58, 0
1, 5471, Note_on_c, 0, 78, 0
1, 5472, Note_on_c, 0, 76, 80
1, 5472, Note_on_c, 1, 59, 80
1, 5561, Note_on_c, 0, 76, 0
1, 5561, Note_on_c, 1, 59, 0
1, 5568, Note_on_c, 0, 75, 78
1, 5568, Note_on_c, 1, 47, 78
1, 5657, Note_on_c, 0, 75, 0
1, 5657, Note_on_c, 1, 47, 0
1, 5664, Note_on_c, 0, 71, 76
1, 5664, Note_on_c, 1, 63, 76
1, 5664, Note_on_c, 1, 59, 71
1, 5753, Note_on_c, 1, 63, 0
1, 5760, Note_on_c, 0, 73, 75
1, 5760, Note_on_c, 1, 64, 75
1, 5849, Note_on_c, 1, 64, 0
1, 5856, Note_on_c, 1, 65, 76
1, 5937, Note_on_c, 0, 71, 0
1, 5945, Note_on_c, 1, 65, 0
1, 5952, Note_on_c, 0, 69, 78
1, 5952, Note_on_c, 1, 66, 78
1, 6025, Note_on_c, 0, 73, 0
1, 6025, Note_on_c, 1, 59, 0
1, 6041, Note_on_c, 0, 69, 0
1, 6041, Note_on_c, 1, 66, 0
1, 6048, Note_on_c, 0, 69, 80
1, 6048, Note_on_c, 1, 59, 80
1, 6056, Note_on_c, 0, 75, 80
1, 6056, Note_on_c, 1, 63, 80
1, 6064, Note_on_c, 0, 81, 80
1, 6064, Note_on_c, 1, 66, 80
1, 6144, Note_on_c, 0, 75, 0
1, 6144, Note_on_c, 0, 69, 0
1, 6167, Note_on_c, 0, 81, 0
1, 6168, Note_on_c, 0, 78, 80
1, 6191, Note_on_c, 0, 78, 0
1, 6192, Note_on_c, 0, 75, 80
1, 6215, Note_on_c, 0, 75, 0
1, 6216, Note_on_c, 0, 69, 80
1, 6229, Note_on_c, 1, 66, 0
1, 6229, Note_on_c, 1, 63, 0
1, 6229, Note_on_c, 1, 59, 0
1, 6239, Note_on_c, 0, 69, 0
1, 6240, Note_on_c, 0, 68, 80
1, 6240, Note_on_c, 1, 64, 80
1, 6240, Note_on_c, 1, 61, 80
1, 6279, Note_on_c, 0, 68, 0
1, 6329, Note_on_c, 1, 64, 0
1, 6329, Note_on_c, 1, 61, 0
1, 6336, Note_on_c, 0, 65, 80
1, 6336, Note_on_c, 1, 61, 80
1, 6336, Note_on_c, 1, 57, 80
1, 6359, Note_on_c, 0, 65, 0
1, 6360, Note_on_c, 0, 66, 80
1, 6383, Note_on_c, 0, 66, 0
1, 6384, Note_on_c, 0, 69, 82
1, 6407, Note_on_c, 0, 69, 0
1, 6408, Note_on_c, 0, 73, 84
1, 6425, Note_on_c, 1, 61, 0
1, 6425, Note_on_c, 1, 57, 0
1, 6431, Note_on_c, 0, 73, 0
1, 6432, Note_on_c, 0, 64, 86
1, 6432, Note_on_c, 1, 56, 80
1, 6432, Note_on_c, 1, 47, 80
1, 6471, Note_on_c, 0, 64, 0
1, 6521, Note_on_c, 1, 56, 0
1, 6521, Note_on_c, 1, 47, 0
1, 6528, Note_on_c, 0, 64, 84
1, 6528, Note_on_c, 0, 57, 80
1, 6528, Note_on_c, 1, 54, 83
1, 6528, Note_on_c, 1, 47, 83
1, 6552, Note_on_c, 0, 64, 0
1, 6552, Note_on_c, 0, 63, 84
1, 6576, Note_on_c, 0, 63, 0
1, 6576, Note_on_c, 0, 61, 84
1, 6600, Note_on_c, 0, 61, 0
1, 6600, Note_on_c, 0, 63, 84
1, 6617, Note_on_c, 0, 57, 0
1, 6617, Note_on_c, 1, 54, 0
1, 6617, Note_on_c, 1, 47, 0
1, 6624, Note_on_c, 0, 63, 0
1, 6624, Note_on_c, 0, 63, 83
1, 6624, Note_on_c, 0, 57, 84
1, 6624, Note_on_c, 1, 52, 86
1, 6713, Note_on_c, 1, 52, 0
1, 6720, Note_on_c, 1, 47, 83
1, 6801, Note_on_c, 0, 57, 0
1, 6809, Note_on_c, 1, 47, 0
1, 6816, Note_on_c, 0, 63, 0
1, 6816, Note_on_c, 0, 64, 70
1, 6816, Note_on_c, 0, 56, 70
1, 6816, Note_on_c, 1, 40, 80
1, 6855, Note_on_c, 0, 64, 0
1, 6905, Note_on_c, 0, 56, 0
1, 6905, Note_on_c, 1, 40, 0
1, 6912, Note_on_c, 0, 71, 75
1, 7008, Note_on_c, 1, 59, 75
1, 7008, Note_on_c, 1, 56, 75
1, 7053, Note_on_c, 0, 71, 0
1, 7056, Note_on_c, 0, 74, 79
1, 7079, Note_on_c, 0, 74, 0
1, 7080, Note_on_c, 0, 73, 80
1, 7097, Note_on_c, 1, 59, 0
1, 7097, Note_on_c, 1, 56, 0
1, 7103, Note_on_c, 0, 73, 0
1, 7104, Note_on_c, 0, 76, 79
1, 7104, Note_on_c, 1, 62, 75
1, 7104, Note_on_c, 1, 53, 75
1, 7127, Note_on_c, 0, 76, 0
1, 7128, Note_on_c, 0, 74, 78
1, 7151, Note_on_c, 0, 74, 0
1, 7152, Note_on_c, 0, 73, 77
1, 7175, Note_on_c, 0, 73, 0
1, 7176, Note_on_c, 0, 71, 76
1, 7199, Note_on_c, 0, 71, 0
1, 7200, Note_on_c, 0, 71, 75
1, 7200, Note_on_c, 1, 53, 0
1, 7200, Note_on_c, 1, 54, 64
1, 7296, Note_on_c, 0, 71, 0
1, 7296, Note_on_c, 0, 69, 75
1, 7296, Note_on_c, 1, 62, 0
1, 7296, Note_on_c, 1, 61, 75
1, 7363, Note_on_c, 0, 69, 0
1, 7368, Note_on_c, 0, 71, 76
1, 7377, Note_on_c, 1, 54, 0
1, 7380, Note_on_c, 0, 71, 0
1, 7380, Note_on_c, 0, 69, 76
1, 7385, Note_on_c, 1, 61, 0
1, 7392, Note_on_c, 0, 69, 0
1, 7392, Note_on_c, 0, 68, 76
1, 7392, Note_on_c, 1, 59, 76
1, 7392, Note_on_c, 1, 56, 76
1, 7392, Note_on_c, 1, 56, 64
1, 7459, Note_on_c, 0, 68, 0
1, 7464, Note_on_c, 0, 69, 77
1, 7476, Note_on_c, 0, 69, 0
1, 7476, Note_on_c, 0, 68, 77
1, 7481, Note_on_c, 1, 59, 0
1, 7481, Note_on_c, 1, 56, 0
1, 7481, Note_on_c, 1, 56, 0
1, 7488, Note_on_c, 0, 68, 0
1, 7488, Note_on_c, 0, 66, 77
1, 7488, Note_on_c, 1, 57, 77
1, 7488, Note_on_c, 1, 61, 64
1, 7577, Note_on_c, 0, 66, 0
1, 7584, Note_on_c, 0, 81, 78
1, 7596, Note_on_c, 0, 81, 0
1, 7596, Note_on_c, 0, 83, 78
1, 7608, Note_on_c, 0, 83, 0
1, 7608, Note_on_c, 0, 85, 94
1, 7680, Note_on_c, 0, 85, 0
1, 7680, Note_on_c, 0, 83, 79
1, 7703, Note_on_c, 0, 83, 0
1, 7704, Note_on_c, 0, 81, 79
1, 7725, Note_on_c, 1, 57, 0
1, 7727, Note_on_c, 0, 81, 0
1, 7728, Note_on_c, 0, 80, 79
1, 7728, Note_on_c, 1, 58, 79
1, 7751, Note_on_c, 0, 80, 0
1, 7752, Note_on_c, 0, 78, 79
1, 7753, Note_on_c, 1, 61, 0
1, 7773, Note_on_c, 1, 58, 0
1, 7775, Note_on_c, 0, 78, 0
1, 7776, Note_on_c, 0, 76, 80
1, 7776, Note_on_c, 1, 59, 80
1, 7865, Note_on_c, 0, 76, 0
1, 7865, Note_on_c, 1, 59, 0
1, 7872, Note_on_c, 0, 75, 78
1, 7872, Note_on_c, 1, 47, 78
1, 7961, Note_on_c, 0, 75, 0
1, 7961, Note_on_c, 1, 47, 0
1, 7968, Note_on_c, 0, 71, 76
1, 7968, Note_on_c, 1, 63, 76
1, 7968, Note_on_c, 1, 59, 71
1, 8057, Note_on_c, 1, 63, 0
1, 8064, Note_on_c, 0, 73, 75
1, 8064, Note_on_c, 1, 64, 75
1, 8153, Note_on_c, 1, 64, 0
1, 8160, Note_on_c, 1, 65, 76
1, 8241, Note_on_c, 0, 71, 0
1, 8249, Note_on_c, 1, 65, 0
1, 8256, Note_on_c, 0, 69, 78
1, 8256, Note_on_c, 1, 66, 78
1, 8329, Note_on_c, 0, 73, 0
1, 8329, Note_on_c, 1, 59, 0
1, 8345, Note_on_c, 0, 69, 0
1, 8345, Note_on_c, 1, 66, 0
1, 8352, Note_on_c, 0, 69, 80
1, 8352, Note_on_c, 1, 59, 80
1, 8360, Note_on_c, 0, 75, 80
1, 8360, Note_on_c, 1, 63, 80
1, 8368, Note_on_c, 0, 81, 80
1, 8368, Note_on_c, 1, 66, 80
1, 8448, Note_on_c, 0, 75, 0
1, 8448, Note_on_c, 0, 69, 0
1, 8471, Note_on_c, 0, 81, 0
1, 8472, Note_on_c, 0, 78, 80
1, 8495, Note_on_c, 0, 78, 0
1, 8496, Note_on_c, 0, 75, 80
1, 8519, Note_on_c, 0, 75, 0
1, 8520, Note_on_c, 0, 69, 80
1, 8533, Note_on_c, 1, 66, 0
1, 8533, Note_on_c, 1, 63, 0
1, 8533, Note_on_c, 1, 59, 0
1, 8543, Note_on_c, 0, 69, 0
1, 8544, Note_on_c, 0, 68, 80
1, 8544, Note_on_c, 1, 64, 80
1, 8544, Note_on_c, 1, 61, 80
1, 8583, Note_on_c, 0, 68, 0
1, 8633, Note_on_c, 1, 64, 0
1, 8633, Note_on_c, 1, 61, 0
1, 8640, Note_on_c, 0, 65, 80
1, 8640, Note_on_c, 1, 61, 80
1, 8640, Note_on_c, 1, 57, 80
1, 8663, Note_on_c, 0, 65, 0
1, 8664, Note_on_c, 0, 66, 80
1, 8687, Note_on_c, 0, 66, 0
1, 8688, Note_on_c, 0, 69, 82
1, 8711, Note_on_c, 0, 69, 0
1, 8712, Note_on_c, 0, 73, 84
1, 8729, Note_on_c, 1, 61, 0
1, 8729, Note_on_c, 1, 57, 0
1, 8735, Note_on_c, 0, 73, 0
1, 8736, Note_on_c, 0, 64, 86
1, 8736, Note_on_c, 1, 56, 80
1, 8736, Note_on_c, 1, 47, 80
1, 8775, Note_on_c, 0, 64, 0
1, 8825, Note_on_c, 1, 56, 0
1, 8825, Note_on_c, 1, 47, 0
1, 8832, Note_on_c, 0, 64, 84
1, 8832, Note_on_c, 0, 57, 80
1, 8832, Note_on_c, 1, 54, 83
1, 8832, Note_on_c, 1, 47, 83
1, 8856, Note_on_c, 0, 64, 0
1, 8856, Note_on_c, 0, 63, 84
1, 8880, Note_on_c, 0, 63, 0
1, 8880, Note_on_c, 0, 61, 84
1, 8904, Note_on_c, 0, 61, 0
1, 8904, Note_on_c, 0, 63, 84
1, 8921, Note_on_c, 0, 57, 0
1, 8921, Note_on_c, 1, 54, 0
1, 8921, Note_on_c, 1, 47, 0
1, 8928, Note_on_c, 0, 63, 0
1, 8928, Note_on_c, 0, 63, 83
1, 8928, Note_on_c, 0, 57, 84
1, 8928, Note_on_c, 1, 52, 86
1, 9017, Note_on_c, 1, 52, 0
1, 9024, Note_on_c, 1, 47, 83
1, 9105, Note_on_c, 0, 57, 0
1, 9113, Note_on_c, 1, 47, 0
1, 9120, Note_on_c, 0, 63, 0
1, 9120, Note_on_c, 0, 64, 70
1, 9120, Note_on_c, 0, 56, 70
1, 9120, Note_on_c, 1, 40, 80
1, 9159, Note_on_c, 0, 64, 0
1, 9209, Note_on_c, 0, 56, 0
1, 9209, Note_on_c, 1, 40, 0
1, 9216, Note_on_c, 1, 52, 80
1, 9255, Note_on_c, 1, 52, 0
1, 9264, Note_on_c, 0, 64, 80
1, 9287, Note_on_c, 0, 64, 0
1, 9288, Note_on_c, 0, 66, 80
1, 9311, Note_on_c, 0, 66, 0
1, 9312, Note_on_c, 0, 69, 80
1, 9335, Note_on_c, 0, 69, 0
1, 9336, Note_on_c, 0, 67, 80
1, 9359, Note_on_c, 0, 67, 0
1, 9360, Note_on_c, 0, 66, 80
1, 9383, Note_on_c, 0, 66, 0
1, 9384, Note_on_c, 0, 64, 80
1, 9407, Note_on_c, 0, 64, 0
1, 9408, Note_on_c, 0, 72, 80
1, 9408, Note_on_c, 1, 64, 80
1, 9437, Note_on_c, 0, 72, 0
1, 9447, Note_on_c, 1, 64, 0
1, 9480, Note_on_c, 0, 79, 80
1, 9503, Note_on_c, 0, 79, 0
1, 9504, Note_on_c, 0, 79, 80
1, 9504, Note_on_c, 1, 62, 80
1, 9600, Note_on_c, 0, 79, 0
1, 9600, Note_on_c, 0, 78, 80
1, 9681, Note_on_c, 0, 78, 0
1, 9681, Note_on_c, 1, 62, 0
1, 9696, Note_on_c, 0, 71, 80
1, 9696, Note_on_c, 1, 50, 80
1, 9735, Note_on_c, 0, 71, 0
1, 9792, Note_on_c, 1, 50, 0
1, 9792, Note_on_c, 1, 48, 80
1, 9831, Note_on_c, 1, 48, 0
1, 9840, Note_on_c, 0, 64, 80
1, 9863, Note_on_c, 0, 64, 0
1, 9864, Note_on_c, 0, 66, 80
1, 9887, Note_on_c, 0, 66, 0
1, 9888, Note_on_c, 0, 69, 80
1, 9911, Note_on_c, 0, 69, 0
1, 9912, Note_on_c, 0, 67, 80
1, 9935, Note_on_c, 0, 67, 0
1, 9936, Note_on_c, 0, 66, 80
1, 9959, Note_on_c, 0, 66, 0
1, 9960, Note_on_c, 0, 64, 80
1, 9983, Note_on_c, 0, 64, 0
1, 9984, Note_on_c, 0, 69, 80
1, 9984, Note_on_c, 1, 60, 80
1, 10013, Note_on_c, 0, 69, 0
1, 10056, Note_on_c, 0, 76, 80
1, 10073, Note_on_c, 1, 60, 0
1, 10079, Note_on_c, 0, 76, 0
1, 10080, Note_on_c, 0, 76, 80
1, 10080, Note_on_c, 1, 59, 80
1, 10176, Note_on_c, 0, 76, 0
1, 10176, Note_on_c, 0, 74, 80
1, 10257, Note_on_c, 0, 74, 0
1, 10257, Note_on_c, 1, 59, 0
1, 10272, Note_on_c, 0, 67, 80
1, 10272, Note_on_c, 1, 47, 80
1, 10311, Note_on_c, 0, 67, 0
1, 10368, Note_on_c, 1, 47, 0
1, 10368, Note_on_c, 1, 45, 80
1, 10407, Note_on_c, 1, 45, 0
1, 10416, Note_on_c, 0, 66, 80
1, 10439, Note_on_c, 0, 66, 0
1, 10440, Note_on_c, 0, 69, 80
1, 10463, Note_on_c, 0, 69, 0
1, 10464, Note_on_c, 0, 72, 80
1, 10487, Note_on_c, 0, 72, 0
1, 10488, Note_on_c, 0, 71, 80
1, 10511, Note_on_c, 0, 71, 0
1, 10512, Note_on_c, 0, 69, 80
1, 10535, Note_on_c, 0, 69, 0
1, 10536, Note_on_c, 0, 67, 80
1, 10559, Note_on_c, 0, 67, 0
1, 10560, Note_on_c, 0, 66, 80
1, 10560, Note_on_c, 1, 50, 80
1, 10583, Note_on_c, 0, 66, 0
1, 10584, Note_on_c, 0, 64, 80
1, 10607, Note_on_c, 0, 64, 0
1, 10608, Note_on_c, 0, 62, 80
1, 10631, Note_on_c, 0, 62, 0
1, 10632, Note_on_c, 0, 60, 80
1, 10649, Note_on_c, 1, 50, 0
1, 10655, Note_on_c, 0, 60, 0
1, 10656, Note_on_c, 0, 59, 80
1, 10656, Note_on_c, 1, 43, 80
1, 10676, Note_on_c, 0, 59, 0
1, 10704, Note_on_c, 0, 67, 81
1, 10727, Note_on_c, 0, 67, 0
1, 10728, Note_on_c, 0, 71, 81
1, 10745, Note_on_c, 1, 43, 0
1, 10751, Note_on_c, 0, 71, 0
1, 10752, Note_on_c, 0, 74, 82
1, 10775, Note_on_c, 0, 74, 0
1, 10776, Note_on_c, 0, 72, 82
1, 10799, Note_on_c, 0, 72, 0
1, 10800, Note_on_c, 0, 71, 83
1, 10823, Note_on_c, 0, 71, 0
1, 10824, Note_on_c, 0, 69, 83
1, 10847, Note_on_c, 0, 69, 0
1, 10848, Note_on_c, 0, 67, 84
1, 10848, Note_on_c, 1, 47, 84
1, 10871, Note_on_c, 0, 67, 0
1, 10872, Note_on_c, 0, 66, 84
1, 10895, Note_on_c, 0, 66, 0
1, 10896, Note_on_c, 0, 64, 85
1, 10919, Note_on_c, 0, 64, 0
1, 10920, Note_on_c, 0, 62, 85
1, 10937, Note_on_c, 1, 47, 0
1, 10943, Note_on_c, 0, 62, 0
1, 10944, Note_on_c, 0, 60, 86
1, 10944, Note_on_c, 1, 48, 86
1, 10989, Note_on_c, 0, 60, 0
1, 10989, Note_on_c, 1, 48, 0
1, 10992, Note_on_c, 0, 57, 86
1, 10992, Note_on_c, 1, 45, 86
1, 11015, Note_on_c, 0, 57, 0
1, 11015, Note_on_c, 1, 45, 0
1, 11016, Note_on_c, 0, 59, 86
1, 11016, Note_on_c, 1, 47, 86
1, 11039, Note_on_c, 0, 59, 0
1, 11039, Note_on_c, 1, 47, 0
1, 11040, Note_on_c, 0, 60, 86
1, 11040, Note_on_c, 1, 48, 86
1, 11050, Note_on_c, 0, 60, 0
1, 11050, Note_on_c, 1, 48, 0
1, 11064, Note_on_c, 0, 59, 86
1, 11064, Note_on_c, 1, 47, 86
1, 11087, Note_on_c, 0, 59, 0
1, 11087, Note_on_c, 1, 47, 0
1, 11088, Note_on_c, 0, 60, 86
1, 11088, Note_on_c, 1, 48, 86
1, 11111, Note_on_c, 0, 60, 0
1, 11111, Note_on_c, 1, 48, 0
1, 11112, Note_on_c, 0, 62, 86
1, 11112, Note_on_c, 1, 50, 86
1, 11135, Note_on_c, 0, 62, 0
1, 11135, Note_on_c, 1, 50, 0
1, 11136, Note_on_c, 0, 64, 86
1, 11136, Note_on_c, 1, 52, 86
1, 11146, Note_on_c, 0, 64, 0
1, 11146, Note_on_c, 1, 52, 0
1, 11160, Note_on_c, 0, 62, 86
1, 11160, Note_on_c, 1, 50, 86
1, 11183, Note_on_c, 0, 62, 0
1, 11183, Note_on_c, 1, 50, 0
1, 11184, Note_on_c, 0, 64, 86
1, 11184, Note_on_c, 1, 52, 86
1, 11207, Note_on_c, 0, 64, 0
1, 11207, Note_on_c, 1, 52, 0
1, 11208, Note_on_c, 0, 66, 86
1, 11208, Note_on_c, 1, 54, 86
1, 11231, Note_on_c, 0, 66, 0
1, 11231, Note_on_c, 1, 54, 0
1, 11232, Note_on_c, 0, 67, 86
1, 11232, Note_on_c, 1, 55, 86
1, 11321, Note_on_c, 0, 67, 0
1, 11321, Note_on_c, 1, 55, 0
1, 11328, Note_on_c, 0, 55, 86
1, 11328, Note_on_c, 1, 43, 86
1, 11417, Note_on_c, 0, 55, 0
1, 11417, Note_on_c, 1, 43, 0
1, 11520, Note_on_c, 1, 52, 80
1, 11559, Note_on_c, 1, 52, 0
1, 11568, Note_on_c, 0, 64, 80
1, 11591, Note_on_c, 0, 64, 0
1, 11592, Note_on_c, 0, 66, 80
1, 11615, Note_on_c, 0, 66, 0
1, 11616, Note_on_c, 0, 69, 80
1, 11639, Note_on_c, 0, 69, 0
1, 11640, Note_on_c, 0, 67, 80
1, 11663, Note_on_c, 0, 67, 0
1, 11664, Note_on_c, 0, 66, 80
1, 11687, Note_on_c, 0, 66, 0
1, 11688, Note_on_c, 0, 64, 80
1, 11711, Note_on_c, 0, 64, 0
1, 11712, Note_on_c, 0, 72, 80
1, 11712, Note_on_c, 1, 64, 80
1, 11741, Note_on_c, 0, 72, 0
1, 11751, Note_on_c, 1, 64, 0
1, 11784, Note_on_c, 0, 79, 80
1, 11807, Note_on_c, 0, 79, 0
1, 11808, Note_on_c, 0, 79, 80
1, 11808, Note_on_c, 1, 62, 80
1, 11904, Note_on_c, 0, 79, 0
1, 11904, Note_on_c, 0, 78, 80
1, 11985, Note_on_c, 0, 78, 0
1, 11985, Note_on_c, 1, 62, 0
1, 12000, Note_on_c, 0, 71, 80
1, 12000, Note_on_c, 1, 50, 80
1, 12039, Note_on_c, 0, 71, 0
1, 12096, Note_on_c, 1, 50, 0
1, 12096, Note_on_c, 1, 48, 80
1, 12135, Note_on_c, 1, 48, 0
1, 12144, Note_on_c, 0, 64, 80
1, 12167, Note_on_c, 0, 64, 0
1, 12168, Note_on_c, 0, 66, 80
1, 12191, Note_on_c, 0, 66, 0
1, 12192, Note_on_c, 0, 69, 80
1, 12215, Note_on_c, 0, 69, 0
1, 12216, Note_on_c, 0, 67, 80
1, 12239, Note_on_c, 0, 67, 0
1, 12240, Note_on_c, 0, 66, 80
1, 12263, Note_on_c, 0, 66, 0
1, 12264, Note_on_c, 0, 64, 80
1, 12287, Note_on_c, 0, 64, 0
1, 12288, Note_on_c, 0, 69, 80
1, 12288, Note_on_c, 1, 60, 80
1, 12317, Note_on_c, 0, 69, 0
1, 12360, Note_on_c, 0, 76, 80
1, 12377, Note_on_c, 1, 60, 0
1, 12383, Note_on_c, 0, 76, 0
1, 12384, Note_on_c, 0, 76, 80
1, 12384, Note_on_c, 1, 59, 80
1, 12480, Note_on_c, 0, 76, 0
1, 12480, Note_on_c, 0, 74, 80
1, 12561, Note_on_c, 0, 74, 0
1, 12561, Note_on_c, 1, 59, 0
1, 12576, Note_on_c, 0, 67, 80
1, 12576, Note_on_c, 1, 47, 80
1, 12615, Note_on_c, 0, 67, 0
1, 12672, Note_on_c, 1, 47, 0
1, 12672, Note_on_c, 1, 45, 80
1, 12711, Note_on_c, 1, 45, 0
1, 12720, Note_on_c, 0, 66, 80
1, 12743, Note_on_c, 0, 66, 0
1, 12744, Note_on_c, 0, 69, 80
1, 12767, Note_on_c, 0, 69, 0
1, 12768, Note_on_c, 0, 72, 80
1, 12791, Note_on_c, 0, 72, 0
1, 12792, Note_on_c, 0, 71, 80
1, 12815, Note_on_c, 0, 71, 0
1, 12816, Note_on_c, 0, 69, 80
1, 12839, Note_on_c, 0, 69, 0
1, 12840, Note_on_c, 0, 67, 80
1, 12863, Note_on_c, 0, 67, 0
1, 12864, Note_on_c, 0, 66, 80
1, 12864, Note_on_c, 1, 50, 80
1, 12887, Note_on_c, 0, 66, 0
1, 12888, Note_on_c, 0, 64, 80
1, 12911, Note_on_c, 0, 64, 0
1, 12912, Note_on_c, 0, 62, 80
1, 12935, Note_on_c, 0, 62, 0
1, 12936, Note_on_c, 0, 60, 80
1, 12953, Note_on_c, 1, 50, 0
1, 12959, Note_on_c, 0, 60, 0
1, 12960, Note_on_c, 0, 59, 80
1, 12960, Note_on_c, 1, 43, 80
1, 12980, Note_on_c, 0, 59, 0
1, 13008, Note_on_c, 0, 67, 81
1, 13031, Note_on_c, 0, 67, 0
1, 13032, Note_on_c, 0, 71, 81
1, 13049, Note_on_c, 1, 43, 0
1, 13055, Note_on_c, 0, 71, 0
1, 13056, Note_on_c, 0, 74, 82
1, 13079, Note_on_c, 0, 74, 0
1, 13080, Note_on_c, 0, 72, 82
1, 13103, Note_on_c, 0, 72, 0
1, 13104, Note_on_c, 0, 71, 83
1, 13127, Note_on_c, 0, 71, 0
1, 13128, Note_on_c, 0, 69, 83
1, 13151, Note_on_c, 0, 69, 0
1, 13152, Note_on_c, 0, 67, 84
1, 13152, Note_on_c, 1, 47, 84
1, 13175, Note_on_c, 0, 67, 0
1, 13176, Note_on_c, 0, 66, 84
1, 13199, Note_on_c, 0, 66, 0
1, 13200, Note_on_c, 0, 64, 85
1, 13223, Note_on_c, 0, 64, 0
1, 13224, Note_on_c, 0, 62, 85
1, 13241, Note_on_c, 1, 47, 0
1, 13247, Note_on_c, 0, 62, 0
1, 13248, Note_on_c, 0, 60, 86
1, 13248, Note_on_c, 1, 48, 86
1, 13293, Note_on_c, 0, 60, 0
1, 13293, Note_on_c, 1, 48, 0
1, 13296, Note_on_c, 0, 57, 86
1, 13296, Note_on_c, 1, 45, 86
1, 13319, Note_on_c, 0, 57, 0
1, 13319, Note_on_c, 1, 45, 0
1, 13320, Note_on_c, 0, 59, 86
1, 13320, Note_on_c, 1, 47, 86
1, 13343, Note_on_c, 0, 59, 0
1, 13343, Note_on_c, 1, 47, 0
1, 13344, Note_on_c, 0, 60, 86
1, 13344, Note_on_c, 1, 48, 86
1, 13354, Note_on_c, 0, 60, 0
1, 13354, Note_on_c, 1, 48, 0
1, 13368, Note_on_c, 0, 59, 86
1, 13368, Note_on_c, 1, 47, 86
1, 13391, Note_on_c, 0, 59, 0
1, 13391, Note_on_c, 1, 47, 0
1, 13392, Note_on_c, 0, 60, 86
1, 13392, Note_on_c, 1, 48, 86
1, 13415, Note_on_c, 0, 60, 0
1, 13415, Note_on_c, 1, 48, 0
1, 13416, Note_on_c, 0, 62, 86
1, 13416, Note_on_c, 1, 50, 86
1, 13439, Note_on_c, 0, 62, 0
1, 13439, Note_on_c, 1, 50, 0
1, 13440, Note_on_c, 0, 64, 86
1, 13440, Note_on_c, 1, 52, 86
1, 13450, Note_on_c, 0, 64, 0
1, 13450, Note_on_c, 1, 52, 0
1, 13464, Note_on_c, 0, 62, 86
1, 13464, Note_on_c, 1, 50, 86
1, 13487, Note_on_c, 0, 62, 0
1, 13487, Note_on_c, 1, 50, 0
1, 13488, Note_on_c, 0, 64, 86
1, 13488, Note_on_c, 1, 52, 86
1, 13511, Note_on_c, 0, 64, 0
1, 13511, Note_on_c, 1, 52, 0
1, 13512, Note_on_c, 0, 66, 86
1, 13512, Note_on_c, 1, 54, 86
1, 13535, Note_on_c, 0, 66, 0
1, 13535, Note_on_c, 1, 54, 0
1, 13536, Note_on_c, 0, 67, 86
1, 13536, Note_on_c, 1, 55, 86
1, 13625, Note_on_c, 0, 67, 0
1, 13625, Note_on_c, 1, 55, 0
1, 13632, Note_on_c, 0, 55, 86
1, 13632, Note_on_c, 1, 43, 86
1, 13721, Note_on_c, 0, 55, 0
1, 13721, Note_on_c, 1, 43, 0
1, 13824, Note_on_c, 1, 47, 80
1, 13824, Note_on_c, 1, 35, 80
1, 13872, Note_on_c, 0, 59, 80
1, 13895, Note_on_c, 0, 59, 0
1, 13896, Note_on_c, 0, 61, 79
1, 13913, Note_on_c, 1, 47, 0
1, 13913, Note_on_c, 1, 35, 0
1, 13919, Note_on_c, 0, 61, 0
1, 13920, Note_on_c, 0, 64, 79
1, 13943, Note_on_c, 0, 64, 0
1, 13944, Note_on_c, 0, 63, 79
1, 13967, Note_on_c, 0, 63, 0
1, 13968, Note_on_c, 0, 61, 78
1, 13991, Note_on_c, 0, 61, 0
1, 13992, Note_on_c, 0, 59, 78
1, 14015, Note_on_c, 0, 59, 0
1, 14016, Note_on_c, 0, 71, 78
1, 14016, Note_on_c, 0, 63, 78
1, 14055, Note_on_c, 0, 71, 0
1, 14055, Note_on_c, 0, 63, 0
1, 14112, Note_on_c, 1, 47, 77
1, 14112, Note_on_c, 1, 35, 77
1, 14160, Note_on_c, 0, 64, 76
1, 14183, Note_on_c, 0, 64, 0
1, 14184, Note_on_c, 0, 66, 76
1, 14201, Note_on_c, 1, 47, 0
1, 14201, Note_on_c, 1, 35, 0
1, 14207, Note_on_c, 0, 66, 0
1, 14208, Note_on_c, 0, 69, 75
1, 14231, Note_on_c, 0, 69, 0
1, 14232, Note_on_c, 0, 67, 75
1, 14255, Note_on_c, 0, 67, 0
1, 14256, Note_on_c, 0, 66, 75
1, 14279, Note_on_c, 0, 66, 0
1, 14280, Note_on_c, 0, 64, 74
1, 14303, Note_on_c, 0, 64, 0
1, 14304, Note_on_c, 0, 76, 74
1, 14304, Note_on_c, 0, 70, 74
1, 14343, Note_on_c, 0, 76, 0
1, 14343, Note_on_c, 0, 70, 0
1, 14400, Note_on_c, 1, 47, 73
1, 14400, Note_on_c, 1, 35, 73
1, 14448, Note_on_c, 0, 71, 72
1, 14471, Note_on_c, 0, 71, 0
1, 14472, Note_on_c, 0, 73, 72
1, 14489, Note_on_c, 1, 47, 0
1, 14489, Note_on_c, 1, 35, 0
1, 14495, Note_on_c, 0, 73, 0
1, 14496, Note_on_c, 0, 76, 72
1, 14519, Note_on_c, 0, 76, 0
1, 14520, Note_on_c, 0, 75, 72
1, 14543, Note_on_c, 0, 75, 0
1, 14544, Note_on_c, 0, 73, 71
1, 14567, Note_on_c, 0, 73, 0
1, 14568, Note_on_c, 0, 71, 71
1, 14591, Note_on_c, 0, 71, 0
1, 14592, Note_on_c, 0, 83, 71
1, 14592, Note_on_c, 0, 75, 71
1, 14631, Note_on_c, 0, 83, 0
1, 14631, Note_on_c, 0, 75, 0
1, 14688, Note_on_c, 1, 47, 70
1, 14688, Note_on_c, 1, 35, 70
1, 14736, Note_on_c, 0, 76, 69
1, 14759, Note_on_c, 0, 76, 0
1, 14760, Note_on_c, 0, 78, 69
1, 14777, Note_on_c, 1, 47, 0
1, 14777, Note_on_c, 1, 35, 0
1, 14783, Note_on_c, 0, 78, 0
1, 14784, Note_on_c, 0, 81, 68
1, 14807, Note_on_c, 0, 81, 0
1, 14808, Note_on_c, 0, 79, 68
1, 14831, Note_on_c, 0, 79, 0
1, 14832, Note_on_c, 0, 78, 68
1, 14855, Note_on_c, 0, 78, 0
1, 14856, Note_on_c, 0, 76, 67
1, 14879, Note_on_c, 0, 76, 0
1, 14880, Note_on_c, 0, 88, 67
1, 14880, Note_on_c, 0, 82, 67
1, 14919, Note_on_c, 0, 88, 0
1, 14919, Note_on_c, 0, 82, 0
1, 14976, Note_on_c, 0, 87, 66
1, 14976, Note_on_c, 0, 83, 66
1, 15015, Note_on_c, 0, 87, 0
1, 15015, Note_on_c, 0, 83, 0
1, 15168, Note_on_c, 0, 78, 64
1, 15168, Note_on_c, 0, 75, 64
1, 15207, Note_on_c, 0, 78, 0
1, 15207, Note_on_c, 0, 75, 0
1, 15264, Note_on_c, 0, 75, 64
1, 15264, Note_on_c, 0, 71, 64
1, 15303, Note_on_c, 0, 75, 0
1, 15303, Note_on_c, 0, 71, 0
1, 15552, Note_on_c, 1, 47, 80
1, 15552, Note_on_c, 1, 35, 80
1, 15600, Note_on_c, 0, 59, 80
1, 15623, Note_on_c, 0, 59, 0
1, 15624, Note_on_c, 0, 61, 79
1, 15641, Note_on_c, 1, 47, 0
1, 15641, Note_on_c, 1, 35, 0
1, 15647, Note_on_c, 0, 61, 0
1, 15648, Note_on_c, 0, 64, 79
1, 15671, Note_on_c, 0, 64, 0
1, 15672, Note_on_c, 0, 63, 79
1, 15695, Note_on_c, 0, 63, 0
1, 15696, Note_on_c, 0, 61, 78
1, 15719, Note_on_c, 0, 61, 0
1, 15720, Note_on_c, 0, 59, 78
1, 15743, Note_on_c, 0, 59, 0
1, 15744, Note_on_c, 0, 71, 78
1, 15744, Note_on_c, 0, 63, 78
1, 15783, Note_on_c, 0, 71, 0
1, 15783, Note_on_c, 0, 63, 0
1, 15840, Note_on_c, 1, 47, 77
1, 15840, Note_on_c, 1, 35, 77
1, 15888, Note_on_c, 0, 64, 76
1, 15911, Note_on_c, 0, 64, 0
1, 15912, Note_on_c, 0, 66, 76
1, 15929, Note_on_c, 1, 47, 0
1, 15929, Note_on_c, 1, 35, 0
1, 15935, Note_on_c, 0, 66, 0
1, 15936, Note_on_c, 0, 69, 75
1, 15959, Note_on_c, 0, 69, 0
1, 15960, Note_on_c, 0, 67, 75
1, 15983, Note_on_c, 0, 67, 0
1, 15984, Note_on_c, 0, 66, 75
1, 16007, Note_on_c, 0, 66, 0
1, 16008, Note_on_c, 0, 64, 74
1, 16031, Note_on_c, 0, 64, 0
1, 16032, Note_on_c, 0, 76, 74
1, 16032, Note_on_c, 0, 70, 74
1, 16071, Note_on_c, 0, 76, 0
1, 16071, Note_on_c, 0, 70, 0
1, 16128, Note_on_c, 1, 47, 73
1, 16128, Note_on_c, 1, 35, 73
1, 16176, Note_on_c, 0, 71, 72
1, 16199, Note_on_c, 0, 71, 0
1, 16200, Note_on_c, 0, 73, 72
1, 16217, Note_on_c, 1, 47, 0
1, 16217, Note_on_c, 1, 35, 0
1, 16223, Note_on_c, 0, 73, 0
1, 16224, Note_on_c, 0, 76, 72
1, 16247, Note_on_c, 0, 76, 0
1, 16248, Note_on_c, 0, 75, 72
1, 16271, Note_on_c, 0, 75, 0
1, 16272, Note_on_c, 0, 73, 71
1, 16295, Note_on_c, 0, 73, 0
1, 16296, Note_on_c, 0, 71, 71
1, 16319, Note_on_c, 0, 71, 0
1, 16320, Note_on_c, 0, 83, 71
1, 16320, Note_on_c, 0, 75, 71
1, 16359, Note_on_c, 0, 83, 0
1, 16359, Note_on_c, 0, 75, 0
1, 16416, Note_on_c, 1, 47, 70
1, 16416, Note_on_c, 1, 35, 70
1, 16464, Note_on_c, 0, 76, 69
1, 16487, Note_on_c, 0, 76, 0
1, 16488, Note_on_c, 0, 78, 69
1, 16505, Note_on_c, 1, 47, 0
1, 16505, Note_on_c, 1, 35, 0
1, 16511, Note_on_c, 0, 78, 0
1, 16512, Note_on_c, 0, 81, 68
1, 16535, Note_on_c, 0, 81, 0
1, 16536, Note_on_c, 0, 79, 68
1, 16559, Note_on_c, 0, 79, 0
1, 16560, Note_on_c, 0, 78, 68
1, 16583, Note_on_c, 0, 78, 0
1, 16584, Note_on_c, 0, 76, 67
1, 16607, Note_on_c, 0, 76, 0
1, 16608, Note_on_c, 0, 88, 67
1, 16608, Note_on_c, 0, 82, 67
1, 16647, Note_on_c, 0, 88, 0
1, 16647, Note_on_c, 0, 82, 0
1, 16704, Note_on_c, 0, 87, 66
1, 16704, Note_on_c, 0, 83, 66
1, 16743, Note_on_c, 0, 87, 0
1, 16743, Note_on_c, 0, 83, 0
1, 16896, Note_on_c, 0, 78, 64
1, 16896, Note_on_c, 0, 75, 64
1, 16935, Note_on_c, 0, 78, 0
1, 16935, Note_on_c, 0, 75, 0
1, 16992, Note_on_c, 0, 75, 64
1, 16992, Note_on_c, 0, 71, 64
1, 17031, Note_on_c, 0, 75, 0
1, 17031, Note_on_c, 0, 71, 0
1, 17280, Note_on_c, 0, 68, 75
1, 17376, Note_on_c, 1, 59, 75
1, 17376, Note_on_c, 1, 52, 75
1, 17457, Note_on_c, 0, 68, 0
1, 17465, Note_on_c, 1, 59, 0
1, 17465, Note_on_c, 1, 52, 0
1, 17472, Note_on_c, 0, 71, 75
1, 17472, Note_on_c, 1, 57, 75
1, 17472, Note_on_c, 1, 47, 75
1, 17495, Note_on_c, 0, 71, 0
1, 17496, Note_on_c, 0, 69, 75
1, 17519, Note_on_c, 0, 69, 0
1, 17520, Note_on_c, 0, 68, 75
1, 17543, Note_on_c, 0, 68, 0
1, 17544, Note_on_c, 0, 66, 75
1, 17561, Note_on_c, 1, 57, 0
1, 17561, Note_on_c, 1, 47, 0
1, 17567, Note_on_c, 0, 66, 0
1, 17568, Note_on_c, 0, 64, 75
1, 17568, Note_on_c, 1, 56, 75
1, 17568, Note_on_c, 1, 52, 75
1, 17657, Note_on_c, 0, 64, 0
1, 17664, Note_on_c, 0, 59, 75
1, 17745, Note_on_c, 1, 56, 0
1, 17745, Note_on_c, 1, 52, 0
1, 17753, Note_on_c, 0, 59, 0
1, 17760, Note_on_c, 0, 76, 75
1, 17849, Note_on_c, 0, 76, 0
1, 17856, Note_on_c, 0, 75, 75
1, 17945, Note_on_c, 0, 75, 0
1, 17952, Note_on_c, 0, 73, 75
1, 17952, Note_on_c, 1, 64, 75
1, 17952, Note_on_c, 1, 57, 75
1, 17965, Note_on_c, 0, 73, 0
1, 17966, Note_on_c, 0, 75, 75
1, 17979, Note_on_c, 0, 75, 0
1, 17980, Note_on_c, 0, 73, 75
1, 17993, Note_on_c, 0, 73, 0
1, 17994, Note_on_c, 0, 75, 75
1, 18007, Note_on_c, 0, 75, 0
1, 18008, Note_on_c, 0, 73, 75
1, 18021, Note_on_c, 0, 73, 0
1, 18022, Note_on_c, 0, 71, 75
1, 18034, Note_on_c, 0, 71, 0
1, 18035, Note_on_c, 0, 73, 75
1, 18041, Note_on_c, 1, 64, 0
1, 18041, Note_on_c, 1, 57, 0
1, 18047, Note_on_c, 0, 73, 0
1, 18048, Note_on_c, 0, 71, 75
1, 18048, Note_on_c, 1, 64, 75
1, 18048, Note_on_c, 1, 56, 75
1, 18071, Note_on_c, 0, 71, 0
1, 18072, Note_on_c, 0, 75, 76
1, 18095, Note_on_c, 0, 75, 0
1, 18096, Note_on_c, 0, 76, 78
1, 18119, Note_on_c, 0, 76, 0
1, 18120, Note_on_c, 0, 80, 80
1, 18143, Note_on_c, 0, 80, 0
1, 18144, Note_on_c, 0, 71, 79
1, 18144, Note_on_c, 1, 56, 0
1, 18144, Note_on_c, 1, 54, 75
1, 18233, Note_on_c, 1, 64, 0
1, 18240, Note_on_c, 1, 63, 75
1, 18307, Note_on_c, 0, 71, 0
1, 18312, Note_on_c, 0, 69, 75
1, 18318, Note_on_c, 0, 69, 0
1, 18318, Note_on_c, 0, 71, 75
1, 18321, Note_on_c, 1, 54, 0
1, 18324, Note_on_c, 0, 71, 0
1, 18324, Note_on_c, 0, 69, 75
1, 18329, Note_on_c, 1, 63, 0
1, 18335, Note_on_c, 0, 69, 0
1, 18336, Note_on_c, 0, 68, 75
1, 18336, Note_on_c, 1, 64, 75
1, 18336, Note_on_c, 1, 52, 75
1, 18375, Note_on_c, 0, 68, 0
1, 18425, Note_on_c, 1, 64, 0
1, 18425, Note_on_c, 1, 52, 0
1, 18432, Note_on_c, 0, 80, 75
1, 18528, Note_on_c, 1, 71, 75
1, 18528, Note_on_c, 1, 64, 75
1, 18595, Note_on_c, 0, 80, 0
1, 18600, Note_on_c, 0, 82, 79
1, 18617, Note_on_c, 1, 71, 0
1, 18617, Note_on_c, 1, 64, 0
1, 18623, Note_on_c, 0, 82, 0
1, 18624, Note_on_c, 0, 83, 80
1, 18624, Note_on_c, 1, 71, 75
1, 18624, Note_on_c, 1, 63, 75
1, 18647, Note_on_c, 0, 83, 0
1, 18648, Note_on_c, 0, 82, 78
1, 18671, Note_on_c, 0, 82, 0
1, 18672, Note_on_c, 0, 80, 77
1, 18695, Note_on_c, 0, 80, 0
1, 18696, Note_on_c, 0, 78, 76
1, 18713, Note_on_c, 1, 63, 0
1, 18719, Note_on_c, 0, 78, 0
1, 18720, Note_on_c, 0, 78, 75
1, 18720, Note_on_c, 1, 61, 75
1, 18809, Note_on_c, 0, 78, 0
1, 18809, Note_on_c, 1, 71, 0
1, 18816, Note_on_c, 0, 76, 75
1, 18816, Note_on_c, 1, 70, 75
1, 18829, Note_on_c, 0, 76, 0
1, 18830, Note_on_c, 0, 78, 75
1, 18843, Note_on_c, 0, 78, 0
1, 18844, Note_on_c, 0, 76, 75
1, 18857, Note_on_c, 0, 76, 0
1, 18858, Note_on_c, 0, 78, 75
1, 18871, Note_on_c, 0, 78, 0
1, 18872, Note_on_c, 0, 76, 75
1, 18885, Note_on_c, 0, 76, 0
1, 18886, Note_on_c, 0, 75, 75
1, 18897, Note_on_c, 1, 61, 0
1, 18898, Note_on_c, 0, 75, 0
1, 18899, Note_on_c, 0, 76, 75
1, 18905, Note_on_c, 1, 70, 0
1, 18911, Note_on_c, 0, 76, 0
1, 18912, Note_on_c, 0, 75, 75
1, 18912, Note_on_c, 1, 71, 75
1, 18912, Note_on_c, 1, 59, 75
1, 19001, Note_on_c, 0, 75, 0
1, 19001, Note_on_c, 1, 71, 0
1, 19001, Note_on_c, 1, 59, 0
1, 19008, Note_on_c, 0, 72, 75
1, 19008, Note_on_c, 1, 68, 75
1, 19008, Note_on_c, 1, 64, 75
1, 19031, Note_on_c, 0, 72, 0
1, 19032, Note_on_c, 0, 73, 77
1, 19055, Note_on_c, 0, 73, 0
1, 19056, Note_on_c, 0, 76, 80
1, 19079, Note_on_c, 0, 76, 0
1, 19080, Note_on_c, 0, 80, 79
1, 19097, Note_on_c, 1, 68, 0
1, 19097, Note_on_c, 1, 64, 0
1, 19103, Note_on_c, 0, 80, 0
1, 19104, Note_on_c, 0, 71, 79
1, 19104, Note_on_c, 1, 63, 75
1, 19104, Note_on_c, 1, 54, 75
1, 19143, Note_on_c, 0, 71, 0
1, 19193, Note_on_c, 1, 63, 0
1, 19193, Note_on_c, 1, 54, 0
1, 19200, Note_on_c, 0, 71, 77
1, 19200, Note_on_c, 1, 61, 75
1, 19200, Note_on_c, 1, 54, 75
1, 19224, Note_on_c, 0, 71, 0
1, 19224, Note_on_c, 0, 70, 77
1, 19248, Note_on_c, 0, 70, 0
1, 19248, Note_on_c, 0, 68, 77
1, 19272, Note_on_c, 0, 68, 0
1, 19272, Note_on_c, 0, 70, 77
1, 19289, Note_on_c, 1, 61, 0
1, 19289, Note_on_c, 1, 54, 0
1, 19296, Note_on_c, 0, 70, 0
1, 19296, Note_on_c, 0, 70, 75
1, 19296, Note_on_c, 0, 64, 75
1, 19296, Note_on_c, 1, 59, 75
1, 19385, Note_on_c, 1, 59, 0
1, 19392, Note_on_c, 1, 54, 75
1, 19481, Note_on_c, 1, 54, 0
1, 19488, Note_on_c, 0, 70, 0
1, 19488, Note_on_c, 0, 64, 0
1, 19488, Note_on_c, 0, 71, 70
1, 19488, Note_on_c, 0, 63, 70
1, 19488, Note_on_c, 1, 47, 75
1, 19527, Note_on_c, 0, 71, 0
1, 19527, Note_on_c, 0, 63, 0
1, 19577, Note_on_c, 1, 47, 0
1, 19584, Note_on_c, 1, 56, 75
1, 19584, Note_on_c, 1, 52, 75
1, 19608, Note_on_c, 0, 59, 70
1, 19631, Note_on_c, 0, 59, 0
1, 19632, Note_on_c, 0, 61, 70
1, 19655, Note_on_c, 0, 61, 0
1, 19656, Note_on_c, 0, 63, 70
1, 19673, Note_on_c, 1, 56, 0
1, 19673, Note_on_c, 1, 52, 0
1, 19679, Note_on_c, 0, 63, 0
1, 19680, Note_on_c, 0, 64, 70
1, 19703, Note_on_c, 0, 64, 0
1, 19704, Note_on_c, 0, 66, 70
1, 19727, Note_on_c, 0, 66, 0
1, 19728, Note_on_c, 0, 68, 70
1, 19751, Note_on_c, 0, 68, 0
1, 19752, Note_on_c, 0, 69, 70
1, 19775, Note_on_c, 0, 69, 0
1, 19776, Note_on_c, 0, 71, 70
1, 19776, Note_on_c, 1, 57, 75
1, 19776, Note_on_c, 1, 47, 75
1, 19799, Note_on_c, 0, 71, 0
1, 19800, Note_on_c, 0, 68, 70
1, 19823, Note_on_c, 0, 68, 0
1, 19824, Note_on_c, 0, 69, 70
1, 19847, Note_on_c, 0, 69, 0
1, 19848, Note_on_c, 0, 66, 70
1, 19865, Note_on_c, 1, 57, 0
1, 19865, Note_on_c, 1, 47, 0
1, 19871, Note_on_c, 0, 66, 0
1, 19872, Note_on_c, 0, 68, 70
1, 19872, Note_on_c, 1, 56, 75
1, 19872, Note_on_c, 1, 52, 75
1, 19895, Note_on_c, 0, 68, 0
1, 19896, Note_on_c, 0, 64, 70
1, 19919, Note_on_c, 0, 64, 0
1, 19920, Note_on_c, 0, 66, 70
1, 19943, Note_on_c, 0, 66, 0
1, 19944, Note_on_c, 0, 68, 70
1, 19961, Note_on_c, 1, 56, 0
1, 19961, Note_on_c, 1, 52, 0
1, 19967, Note_on_c, 0, 68, 0
1, 19968, Note_on_c, 0, 69, 70
1, 19991, Note_on_c, 0, 69, 0
1, 19992, Note_on_c, 0, 71, 70
1, 20015, Note_on_c, 0, 71, 0
1, 20016, Note_on_c, 0, 73, 70
1, 20039, Note_on_c, 0, 73, 0
1, 20040, Note_on_c, 0, 75, 70
1, 20063, Note_on_c, 0, 75, 0
1, 20064, Note_on_c, 0, 76, 70
1, 20093, Note_on_c, 0, 76, 0
1, 20136, Note_on_c, 0, 75, 70
1, 20159, Note_on_c, 0, 75, 0
1, 20160, Note_on_c, 0, 75, 70
1, 20160, Note_on_c, 1, 57, 75
1, 20160, Note_on_c, 1, 64, 75
1, 20205, Note_on_c, 0, 75, 0
1, 20208, Note_on_c, 0, 73, 70
1, 20220, Note_on_c, 0, 73, 0
1, 20220, Note_on_c, 0, 75, 70
1, 20232, Note_on_c, 0, 75, 0
1, 20232, Note_on_c, 0, 73, 70
1, 20249, Note_on_c, 1, 57, 0
1, 20253, Note_on_c, 0, 73, 0
1, 20256, Note_on_c, 0, 71, 75
1, 20256, Note_on_c, 1, 56, 75
1, 20279, Note_on_c, 0, 71, 0
1, 20280, Note_on_c, 0, 73, 75
1, 20303, Note_on_c, 0, 73, 0
1, 20304, Note_on_c, 0, 75, 76
1, 20327, Note_on_c, 0, 75, 0
1, 20328, Note_on_c, 0, 76, 77
1, 20337, Note_on_c, 1, 64, 0
1, 20345, Note_on_c, 1, 56, 0
1, 20351, Note_on_c, 0, 76, 0
1, 20352, Note_on_c, 0, 78, 78
1, 20375, Note_on_c, 0, 78, 0
1, 20376, Note_on_c, 0, 80, 79
1, 20399, Note_on_c, 0, 80, 0
1, 20400, Note_on_c, 0, 81, 80
1, 20423, Note_on_c, 0, 81, 0
1, 20424, Note_on_c, 0, 83, 79
1, 20447, Note_on_c, 0, 83, 0
1, 20448, Note_on_c, 0, 71, 79
1, 20544, Note_on_c, 1, 63, 75
1, 20544, Note_on_c, 1, 54, 75
1, 20611, Note_on_c, 0, 71, 0
1, 20616, Note_on_c, 0, 69, 76
1, 20622, Note_on_c, 0, 69, 0
1, 20622, Note_on_c, 0, 71, 76
1, 20628, Note_on_c, 0, 71, 0
1, 20628, Note_on_c, 0, 69, 76
1, 20633, Note_on_c, 1, 63, 0
1, 20633, Note_on_c, 1, 54, 0
1, 20639, Note_on_c, 0, 69, 0
1, 20640, Note_on_c, 0, 68, 76
1, 20640, Note_on_c, 1, 64, 75
1, 20640, Note_on_c, 1, 52, 75
1, 20679, Note_on_c, 0, 68, 0
1, 20729, Note_on_c, 1, 64, 0
1, 20729, Note_on_c, 1, 52, 0
1, 20736, Note_on_c, 0, 80, 75
1, 20832, Note_on_c, 1, 71, 75
1, 20832, Note_on_c, 1, 64, 75
1, 20899, Note_on_c, 0, 80, 0
1, 20904, Note_on_c, 0, 82, 75
1, 20921, Note_on_c, 1, 71, 0
1, 20921, Note_on_c, 1, 64, 0
1, 20927, Note_on_c, 0, 82, 0
1, 20928, Note_on_c, 0, 83, 75
1, 20928, Note_on_c, 1, 71, 75
1, 20928, Note_on_c, 1, 63, 75
1, 20951, Note_on_c, 0, 83, 0
1, 20952, Note_on_c, 0, 82, 75
1, 20975, Note_on_c, 0, 82, 0
1, 20976, Note_on_c, 0, 80, 75
1, 20999, Note_on_c, 0, 80, 0
1, 21000, Note_on_c, 0, 78, 75
1, 21023, Note_on_c, 0, 78, 0
1, 21024, Note_on_c, 0, 78, 75
1, 21024, Note_on_c, 1, 63, 0
1, 21024, Note_on_c, 1, 61, 75
1, 21047, Note_on_c, 0, 78, 0
1, 21048, Note_on_c, 0, 76, 75
1, 21071, Note_on_c, 0, 76, 0
1, 21072, Note_on_c, 0, 75, 76
1, 21095, Note_on_c, 0, 75, 0
1, 21096, Note_on_c, 0, 76, 77
1, 21113, Note_on_c, 1, 71, 0
1, 21119, Note_on_c, 0, 76, 0
1, 21120, Note_on_c, 0, 88, 94
1, 21120, Note_on_c, 1, 70, 76
1, 21201, Note_on_c, 1, 61, 0
1, 21209, Note_on_c, 1, 70, 0
1, 21216, Note_on_c, 1, 71, 78
1, 21216, Note_on_c, 1, 59, 78
1, 21264, Note_on_c, 0, 88, 0
1, 21264, Note_on_c, 0, 87, 84
1, 21305, Note_on_c, 1, 71, 0
1, 21305, Note_on_c, 1, 59, 0
1, 21309, Note_on_c, 0, 87, 0
1, 21312, Note_on_c, 1, 68, 80
1, 21312, Note_on_c, 1, 64, 80
1, 21360, Note_on_c, 0, 85, 84
1, 21401, Note_on_c, 1, 68, 0
1, 21401, Note_on_c, 1, 64, 0
1, 21405, Note_on_c, 0, 85, 0
1, 21408, Note_on_c, 0, 80, 82
1, 21453, Note_on_c, 0, 80, 0
1, 21456, Note_on_c, 0, 76, 80
1, 21501, Note_on_c, 0, 76, 0
1, 21504, Note_on_c, 0, 73, 78
1, 21504, Note_on_c, 1, 54, 76
1, 21504, Note_on_c, 1, 64, 76
1, 21571, Note_on_c, 0, 73, 0
1, 21576, Note_on_c, 0, 70, 75
1, 21593, Note_on_c, 1, 54, 0
1, 21599, Note_on_c, 0, 70, 0
1, 21600, Note_on_c, 0, 70, 75
1, 21600, Note_on_c, 1, 59, 75
1, 21777, Note_on_c, 1, 64, 0
1, 21792, Note_on_c, 0, 70, 0
1, 21792, Note_on_c, 0, 71, 70
1, 21792, Note_on_c, 1, 63, 70
1, 21831, Note_on_c, 0, 71, 0
1, 21865, Note_on_c, 1, 59, 0
1, 21881, Note_on_c, 1, 63, 0
1, 21888, Note_on_c, 0, 71, 75
1, 21984, Note_on_c, 1, 56, 77
1, 21984, Note_on_c, 1, 59, 77
1, 22029, Note_on_c, 0, 71, 0
1, 22032, Note_on_c, 0, 74, 78
1, 22055, Note_on_c, 0, 74, 0
1, 22056, Note_on_c, 0, 73, 79
1, 22073, Note_on_c, 1, 56, 0
1, 22073, Note_on_c, 1, 59, 0
1, 22079, Note_on_c, 0, 73, 0
1, 22080, Note_on_c, 0, 76, 80
1, 22080, Note_on_c, 1, 53, 80
1, 22080, Note_on_c, 1, 62, 80
1, 22103, Note_on_c, 0, 76, 0
1, 22104, Note_on_c, 0, 74, 78
1, 22127, Note_on_c, 0, 74, 0
1, 22128, Note_on_c, 0, 73, 77
1, 22151, Note_on_c, 0, 73, 0
1, 22152, Note_on_c, 0, 71, 76
1, 22169, Note_on_c, 1, 53, 0
1, 22175, Note_on_c, 0, 71, 0
1, 22176, Note_on_c, 0, 71, 75
1, 22176, Note_on_c, 1, 54, 75
1, 22265, Note_on_c, 1, 62, 0
1, 22272, Note_on_c, 0, 71, 0
1, 22272, Note_on_c, 0, 69, 75
1, 22272, Note_on_c, 1, 61, 75
1, 22339, Note_on_c, 0, 69, 0
1, 22344, Note_on_c, 0, 71, 76
1, 22353, Note_on_c, 1, 54, 0
1, 22356, Note_on_c, 0, 71, 0
1, 22356, Note_on_c, 0, 69, 76
1, 22361, Note_on_c, 1, 61, 0
1, 22368, Note_on_c, 0, 69, 0
1, 22368, Note_on_c, 0, 68, 76
1, 22368, Note_on_c, 1, 56, 76
1, 22368, Note_on_c, 1, 59, 75
1, 22435, Note_on_c, 0, 68, 0
1, 22440, Note_on_c, 0, 69, 77
1, 22452, Note_on_c, 0, 69, 0
1, 22452, Note_on_c, 0, 68, 77
1, 22457, Note_on_c, 1, 56, 0
1, 22457, Note_on_c, 1, 59, 0
1, 22464, Note_on_c, 0, 68, 0
1, 22464, Note_on_c, 0, 66, 77
1, 22464, Note_on_c, 1, 57, 77
1, 22464, Note_on_c, 1, 61, 75
1, 22553, Note_on_c, 0, 66, 0
1, 22560, Note_on_c, 0, 81, 78
1, 22572, Note_on_c, 0, 81, 0
1, 22572, Note_on_c, 0, 83, 78
1, 22584, Note_on_c, 0, 83, 0
1, 22584, Note_on_c, 0, 85, 94
1, 22656, Note_on_c, 0, 85, 0
1, 22656, Note_on_c, 0, 83, 79
1, 22679, Note_on_c, 0, 83, 0
1, 22680, Note_on_c, 0, 81, 79
1, 22701, Note_on_c, 1, 57, 0
1, 22703, Note_on_c, 0, 81, 0
1, 22704, Note_on_c, 0, 80, 79
1, 22704, Note_on_c, 1, 58, 79
1, 22727, Note_on_c, 0, 80, 0
1, 22728, Note_on_c, 0, 78, 79
1, 22729, Note_on_c, 1, 61, 0
1, 22749, Note_on_c, 1, 58, 0
1, 22751, Note_on_c, 0, 78, 0
1, 22752, Note_on_c, 0, 76, 80
1, 22752, Note_on_c, 1, 59, 80
1, 22841, Note_on_c, 0, 76, 0
1, 22841, Note_on_c, 1, 59, 0
1, 22848, Note_on_c, 0, 75, 78
1, 22848, Note_on_c, 1, 47, 78
1, 22937, Note_on_c, 0, 75, 0
1, 22937, Note_on_c, 1, 47, 0
1, 22944, Note_on_c, 0, 71, 76
1, 22944, Note_on_c, 1, 63, 76
1, 22944, Note_on_c, 1, 59, 71
1, 23033, Note_on_c, 1, 63, 0
1, 23040, Note_on_c, 0, 73, 75
1, 23040, Note_on_c, 1, 64, 75
1, 23129, Note_on_c, 1, 64, 0
1, 23136, Note_on_c, 1, 65, 76
1, 23217, Note_on_c, 0, 71, 0
1, 23225, Note_on_c, 1, 65, 0
1, 23232, Note_on_c, 0, 69, 78
1, 23232, Note_on_c, 1, 66, 78
1, 23305, Note_on_c, 0, 73, 0
1, 23305, Note_on_c, 1, 59, 0
1, 23321, Note_on_c, 0, 69, 0
1, 23321, Note_on_c, 1, 66, 0
1, 23328, Note_on_c, 0, 69, 80
1, 23328, Note_on_c, 1, 59, 80
1, 23336, Note_on_c, 0, 75, 80
1, 23336, Note_on_c, 1, 63, 80
1, 23344, Note_on_c, 0, 81, 80
1, 23344, Note_on_c, 1, 66, 80
1, 23424, Note_on_c, 0, 75, 0
1, 23424, Note_on_c, 0, 69, 0
1, 23447, Note_on_c, 0, 81, 0
1, 23448, Note_on_c, 0, 78, 80
1, 23471, Note_on_c, 0, 78, 0
1, 23472, Note_on_c, 0, 75, 80
1, 23495, Note_on_c, 0, 75, 0
1, 23496, Note_on_c, 0, 69, 80
1, 23509, Note_on_c, 1, 66, 0
1, 23509, Note_on_c, 1, 63, 0
1, 23509, Note_on_c, 1, 59, 0
1, 23519, Note_on_c, 0, 69, 0
1, 23520, Note_on_c, 0, 68, 80
1, 23520, Note_on_c, 1, 64, 80
1, 23520, Note_on_c, 1, 61, 80
1, 23559, Note_on_c, 0, 68, 0
1, 23609, Note_on_c, 1, 64, 0
1, 23609, Note_on_c, 1, 61, 0
1, 23616, Note_on_c, 0, 65, 80
1, 23616, Note_on_c, 1, 61, 80
1, 23616, Note_on_c, 1, 57, 80
1, 23639, Note_on_c, 0, 65, 0
1, 23640, Note_on_c, 0, 66, 82
1, 23663, Note_on_c, 0, 66, 0
1, 23664, Note_on_c, 0, 69, 84
1, 23687, Note_on_c, 0, 69, 0
1, 23688, Note_on_c, 0, 73, 86
1, 23705, Note_on_c, 1, 61, 0
1, 23705, Note_on_c, 1, 57, 0
1, 23711, Note_on_c, 0, 73, 0
1, 23712, Note_on_c, 0, 64, 85
1, 23712, Note_on_c, 1, 56, 86
1, 23712, Note_on_c, 1, 47, 86
1, 23751, Note_on_c, 0, 64, 0
1, 23801, Note_on_c, 1, 56, 0
1, 23801, Note_on_c, 1, 47, 0
1, 23808, Note_on_c, 0, 64, 82
1, 23808, Note_on_c, 0, 57, 126
1, 23808, Note_on_c, 1, 54, 83
1, 23808, Note_on_c, 1, 47, 83
1, 23832, Note_on_c, 0, 64, 0
1, 23832, Note_on_c, 0, 63, 82
1, 23856, Note_on_c, 0, 63, 0
1, 23856, Note_on_c, 0, 61, 82
1, 23880, Note_on_c, 0, 61, 0
1, 23880, Note_on_c, 0, 63, 82
1, 23897, Note_on_c, 0, 57, 0
1, 23897, Note_on_c, 1, 54, 0
1, 23897, Note_on_c, 1, 47, 0
1, 23904, Note_on_c, 0, 63, 0
1, 23904, Note_on_c, 0, 63, 80
1, 23904, Note_on_c, 0, 57, 80
1, 23904, Note_on_c, 0, 57, 86
1, 23904, Note_on_c, 1, 52, 80
1, 23904, Note_on_c, 1, 52, 75
1, 23993, Note_on_c, 1, 52, 0
1, 23993, Note_on_c, 1, 52, 0
1, 24000, Note_on_c, 1, 47, 80
1, 24081, Note_on_c, 0, 57, 0
1, 24089, Note_on_c, 1, 47, 0
1, 24096, Note_on_c, 0, 63, 0
1, 24096, Note_on_c, 0, 57, 0
1, 24096, Note_on_c, 0, 64, 70
1, 24096, Note_on_c, 0, 56, 70
1, 24096, Note_on_c, 1, 40, 80
1, 24135, Note_on_c, 0, 64, 0
1, 24185, Note_on_c, 0, 56, 0
1, 24185, Note_on_c, 1, 40, 0
1, 24192, Note_on_c, 0, 59, 75
1, 24288, Note_on_c, 1, 56, 75
1, 24311, Note_on_c, 0, 59, 0
1, 24312, Note_on_c, 0, 61, 76
1, 24335, Note_on_c, 0, 61, 0
1, 24336, Note_on_c, 0, 62, 77
1, 24359, Note_on_c, 0, 62, 0
1, 24360, Note_on_c, 0, 61, 78
1, 24377, Note_on_c, 1, 56, 0
1, 24383, Note_on_c, 0, 61, 0
1, 24384, Note_on_c, 0, 64, 80
1, 24384, Note_on_c, 1, 53, 80
1, 24407, Note_on_c, 0, 64, 0
1, 24408, Note_on_c, 0, 62, 78
1, 24431, Note_on_c, 0, 62, 0
1, 24432, Note_on_c, 0, 61, 77
1, 24455, Note_on_c, 0, 61, 0
1, 24456, Note_on_c, 0, 59, 76
1, 24473, Note_on_c, 1, 53, 0
1, 24479, Note_on_c, 0, 59, 0
1, 24480, Note_on_c, 0, 59, 75
1, 24480, Note_on_c, 1, 54, 75
1, 24503, Note_on_c, 0, 59, 0
1, 24504, Note_on_c, 0, 57, 75
1, 24527, Note_on_c, 0, 57, 0
1, 24528, Note_on_c, 0, 56, 75
1, 24551, Note_on_c, 0, 56, 0
1, 24552, Note_on_c, 0, 57, 75
1, 24569, Note_on_c, 1, 54, 0
1, 24575, Note_on_c, 0, 57, 0
1, 24576, Note_on_c, 0, 69, 75
1, 24576, Note_on_c, 1, 51, 75
1, 24665, Note_on_c, 1, 51, 0
1, 24672, Note_on_c, 1, 52, 76
1, 24709, Note_on_c, 0, 69, 0
1, 24720, Note_on_c, 0, 68, 77
1, 24761, Note_on_c, 1, 52, 0
1, 24765, Note_on_c, 0, 68, 0
1, 24768, Note_on_c, 0, 68, 77
1, 24768, Note_on_c, 1, 45, 77
1, 24791, Note_on_c, 0, 68, 0
1, 24792, Note_on_c, 0, 66, 77
1, 24815, Note_on_c, 0, 66, 0
1, 24816, Note_on_c, 0, 65, 77
1, 24839, Note_on_c, 0, 65, 0
1, 24840, Note_on_c, 0, 66, 78
1, 24863, Note_on_c, 0, 66, 0
1, 24864, Note_on_c, 0, 73, 78
1, 24945, Note_on_c, 1, 45, 0
1, 24953, Note_on_c, 0, 73, 0
1, 24960, Note_on_c, 0, 71, 79
1, 24960, Note_on_c, 1, 46, 79
1, 24983, Note_on_c, 0, 71, 0
1, 24984, Note_on_c, 0, 69, 79
1, 25007, Note_on_c, 0, 69, 0
1, 25008, Note_on_c, 0, 68, 79
1, 25031, Note_on_c, 0, 68, 0
1, 25032, Note_on_c, 0, 66, 79
1, 25049, Note_on_c, 1, 46, 0
1, 25055, Note_on_c, 0, 66, 0
1, 25056, Note_on_c, 0, 64, 80
1, 25056, Note_on_c, 1, 47, 80
1, 25145, Note_on_c, 1, 47, 0
1, 25152, Note_on_c, 0, 64, 0
1, 25152, Note_on_c, 0, 63, 80
1, 25152, Note_on_c, 1, 35, 78
1, 25233, Note_on_c, 0, 63, 0
1, 25241, Note_on_c, 1, 35, 0
1, 25248, Note_on_c, 0, 71, 78
1, 25248, Note_on_c, 1, 59, 76
1, 25248, Note_on_c, 1, 63, 72
1, 25337, Note_on_c, 1, 63, 0
1, 25344, Note_on_c, 0, 72, 75
1, 25344, Note_on_c, 1, 64, 71
1, 25367, Note_on_c, 0, 72, 0
1, 25368, Note_on_c, 0, 73, 75
1, 25391, Note_on_c, 0, 73, 0
1, 25392, Note_on_c, 0, 75, 76
1, 25415, Note_on_c, 0, 75, 0
1, 25416, Note_on_c, 0, 73, 77
1, 25433, Note_on_c, 1, 64, 0
1, 25439, Note_on_c, 0, 73, 0
1, 25440, Note_on_c, 0, 73, 78
1, 25440, Note_on_c, 1, 65, 70
1, 25521, Note_on_c, 0, 71, 0
1, 25529, Note_on_c, 1, 65, 0
1, 25536, Note_on_c, 0, 69, 75
1, 25536, Note_on_c, 1, 66, 72
1, 25609, Note_on_c, 1, 59, 0
1, 25617, Note_on_c, 0, 73, 0
1, 25625, Note_on_c, 0, 69, 0
1, 25625, Note_on_c, 1, 66, 0
1, 25632, Note_on_c, 0, 75, 80
1, 25632, Note_on_c, 1, 66, 80
1, 25632, Note_on_c, 1, 63, 80
1, 25632, Note_on_c, 1, 54, 80
1, 25655, Note_on_c, 0, 75, 0
1, 25656, Note_on_c, 0, 76, 80
1, 25679, Note_on_c, 0, 76, 0
1, 25680, Note_on_c, 0, 78, 81
1, 25703, Note_on_c, 0, 78, 0
1, 25704, Note_on_c, 0, 80, 81
1, 25727, Note_on_c, 0, 80, 0
1, 25728, Note_on_c, 0, 81, 82
1, 25751, Note_on_c, 0, 81, 0
1, 25752, Note_on_c, 0, 83, 82
1, 25775, Note_on_c, 0, 83, 0
1, 25776, Note_on_c, 0, 85, 83
1, 25799, Note_on_c, 0, 85, 0
1, 25800, Note_on_c, 0, 87, 83
1, 25809, Note_on_c, 1, 66, 0
1, 25809, Note_on_c, 1, 63, 0
1, 25809, Note_on_c, 1, 54, 0
1, 25823, Note_on_c, 0, 87, 0
1, 25824, Note_on_c, 0, 88, 84
1, 25824, Note_on_c, 1, 64, 84
1, 25824, Note_on_c, 1, 59, 84
1, 25824, Note_on_c, 1, 56, 84
1, 25863, Note_on_c, 0, 88, 0
1, 25913, Note_on_c, 1, 64, 0
1, 25913, Note_on_c, 1, 59, 0
1, 25913, Note_on_c, 1, 56, 0
1, 25920, Note_on_c, 1, 61, 86
1, 25920, Note_on_c, 1, 57, 86
1, 25968, Note_on_c, 0, 78, 84
1, 26009, Note_on_c, 1, 61, 0
1, 26009, Note_on_c, 1, 57, 0
1, 26013, Note_on_c, 0, 78, 0
1, 26016, Note_on_c, 0, 73, 82
1, 26061, Note_on_c, 0, 73, 0
1, 26064, Note_on_c, 0, 69, 81
1, 26109, Note_on_c, 0, 69, 0
1, 26112, Note_on_c, 0, 66, 79
1, 26112, Note_on_c, 1, 47, 80
1, 26112, Note_on_c, 1, 57, 73
1, 26179, Note_on_c, 0, 66, 0
1, 26184, Note_on_c, 0, 63, 77
1, 26201, Note_on_c, 1, 47, 0
1, 26201, Note_on_c, 1, 57, 0
1, 26207, Note_on_c, 0, 63, 0
1, 26208, Note_on_c, 0, 63, 76
1, 26208, Note_on_c, 1, 52, 78
1, 26208, Note_on_c, 1, 57, 72
1, 26400, Note_on_c, 0, 63, 0
1, 26400, Note_on_c, 0, 64, 64
1, 26400, Note_on_c, 1, 57, 0
1, 26400, Note_on_c, 1, 56, 64
1, 26473, Note_on_c, 1, 52, 0
1, 26489, Note_on_c, 0, 64, 0
1, 26489, Note_on_c, 1, 56, 0
1, 26496, Note_on_c, 0, 79, 80
1, 26496, Note_on_c, 0, 71, 80
1, 26544, Note_on_c, 1, 52, 80
1, 26567, Note_on_c, 1, 52, 0
1, 26568, Note_on_c, 1, 54, 80
1, 26591, Note_on_c, 1, 54, 0
1, 26592, Note_on_c, 1, 57, 80
1, 26615, Note_on_c, 1, 57, 0
1, 26616, Note_on_c, 1, 55, 80
1, 26639, Note_on_c, 1, 55, 0
1, 26640, Note_on_c, 1, 54, 80
1, 26663, Note_on_c, 1, 54, 0
1, 26664, Note_on_c, 1, 52, 80
1, 26673, Note_on_c, 0, 71, 0
1, 26687, Note_on_c, 1, 52, 0
1, 26688, Note_on_c, 0, 72, 80
1, 26688, Note_on_c, 1, 64, 80
1, 26717, Note_on_c, 1, 64, 0
1, 26760, Note_on_c, 1, 64, 80
1, 26761, Note_on_c, 0, 79, 0
1, 26783, Note_on_c, 1, 64, 0
1, 26784, Note_on_c, 0, 78, 80
1, 26784, Note_on_c, 1, 64, 80
1, 26873, Note_on_c, 1, 64, 0
1, 26880, Note_on_c, 1, 62, 80
1, 26919, Note_on_c, 1, 62, 0
1, 26961, Note_on_c, 0, 72, 0
1, 26976, Note_on_c, 0, 71, 80
1, 26976, Note_on_c, 1, 50, 80
1, 27015, Note_on_c, 1, 50, 0
1, 27049, Note_on_c, 0, 78, 0
1, 27065, Note_on_c, 0, 71, 0
1, 27072, Note_on_c, 0, 76, 80
1, 27072, Note_on_c, 0, 71, 80
1, 27120, Note_on_c, 1, 48, 80
1, 27143, Note_on_c, 1, 48, 0
1, 27144, Note_on_c, 1, 50, 80
1, 27167, Note_on_c, 1, 50, 0
1, 27168, Note_on_c, 1, 54, 80
1, 27191, Note_on_c, 1, 54, 0
1, 27192, Note_on_c, 1, 52, 80
1, 27215, Note_on_c, 1, 52, 0
1, 27216, Note_on_c, 1, 50, 80
1, 27239, Note_on_c, 1, 50, 0
1, 27240, Note_on_c, 1, 48, 80
1, 27249, Note_on_c, 0, 71, 0
1, 27263, Note_on_c, 1, 48, 0
1, 27264, Note_on_c, 0, 69, 80
1, 27264, Note_on_c, 1, 60, 80
1, 27293, Note_on_c, 1, 60, 0
1, 27336, Note_on_c, 1, 60, 80
1, 27337, Note_on_c, 0, 76, 0
1, 27359, Note_on_c, 1, 60, 0
1, 27360, Note_on_c, 0, 74, 80
1, 27360, Note_on_c, 1, 60, 80
1, 27449, Note_on_c, 1, 60, 0
1, 27456, Note_on_c, 1, 59, 80
1, 27495, Note_on_c, 1, 59, 0
1, 27537, Note_on_c, 0, 69, 0
1, 27552, Note_on_c, 0, 67, 80
1, 27552, Note_on_c, 1, 47, 80
1, 27591, Note_on_c, 1, 47, 0
1, 27625, Note_on_c, 0, 74, 0
1, 27641, Note_on_c, 0, 67, 0
1, 27648, Note_on_c, 0, 72, 80
1, 27648, Note_on_c, 0, 67, 80
1, 27696, Note_on_c, 1, 45, 80
1, 27719, Note_on_c, 1, 45, 0
1, 27720, Note_on_c, 1, 47, 80
1, 27743, Note_on_c, 1, 47, 0
1, 27744, Note_on_c, 1, 50, 80
1, 27767, Note_on_c, 1, 50, 0
1, 27768, Note_on_c, 1, 48, 80
1, 27791, Note_on_c, 1, 48, 0
1, 27792, Note_on_c, 1, 47, 80
1, 27815, Note_on_c, 1, 47, 0
1, 27816, Note_on_c, 1, 45, 80
1, 27825, Note_on_c, 0, 67, 0
1, 27839, Note_on_c, 1, 45, 0
1, 27840, Note_on_c, 0, 66, 80
1, 27840, Note_on_c, 1, 57, 80
1, 27885, Note_on_c, 1, 57, 0
1, 27888, Note_on_c, 1, 50, 80
1, 27913, Note_on_c, 0, 72, 0
1, 27929, Note_on_c, 0, 66, 0
1, 27933, Note_on_c, 1, 50, 0
1, 27936, Note_on_c, 0, 71, 80
1, 27936, Note_on_c, 0, 67, 80
1, 27936, Note_on_c, 0, 62, 80
1, 27984, Note_on_c, 1, 43, 80
1, 28007, Note_on_c, 1, 43, 0
1, 28008, Note_on_c, 1, 45, 80
1, 28031, Note_on_c, 1, 45, 0
1, 28032, Note_on_c, 1, 48, 80
1, 28055, Note_on_c, 1, 48, 0
1, 28056, Note_on_c, 1, 47, 80
1, 28079, Note_on_c, 1, 47, 0
1, 28080, Note_on_c, 1, 45, 80
1, 28103, Note_on_c, 1, 45, 0
1, 28104, Note_on_c, 1, 43, 80
1, 28127, Note_on_c, 1, 43, 0
1, 28128, Note_on_c, 1, 55, 80
1, 28173, Note_on_c, 1, 55, 0
1, 28176, Note_on_c, 1, 47, 80
1, 28216, Note_on_c, 0, 71, 0
1, 28216, Note_on_c, 0, 67, 0
1, 28216, Note_on_c, 0, 62, 0
1, 28221, Note_on_c, 1, 47, 0
1, 28224, Note_on_c, 1, 48, 80
1, 28272, Note_on_c, 0, 57, 80
1, 28295, Note_on_c, 0, 57, 0
1, 28296, Note_on_c, 0, 59, 80
1, 28313, Note_on_c, 1, 48, 0
1, 28319, Note_on_c, 0, 59, 0
1, 28320, Note_on_c, 0, 62, 80
1, 28343, Note_on_c, 0, 62, 0
1, 28344, Note_on_c, 0, 60, 80
1, 28367, Note_on_c, 0, 60, 0
1, 28368, Note_on_c, 0, 59, 80
1, 28391, Note_on_c, 0, 59, 0
1, 28392, Note_on_c, 0, 57, 80
1, 28415, Note_on_c, 0, 57, 0
1, 28416, Note_on_c, 0, 62, 80
1, 28416, Note_on_c, 1, 50, 80
1, 28483, Note_on_c, 0, 62, 0
1, 28488, Note_on_c, 0, 54, 80
1, 28505, Note_on_c, 1, 50, 0
1, 28511, Note_on_c, 0, 54, 0
1, 28512, Note_on_c, 0, 55, 80
1, 28512, Note_on_c, 1, 43, 80
1, 28601, Note_on_c, 0, 55, 0
1, 28601, Note_on_c, 1, 43, 0
1, 28608, Note_on_c, 1, 38, 80
1, 28697, Note_on_c, 1, 38, 0
1, 28704, Note_on_c, 1, 31, 80
1, 28793, Note_on_c, 1, 31, 0
1, 28800, Note_on_c, 0, 79, 80
1, 28800, Note_on_c, 0, 71, 80
1, 28848, Note_on_c, 1, 52, 80
1, 28871, Note_on_c, 1, 52, 0
1, 28872, Note_on_c, 1, 54, 80
1, 28895, Note_on_c, 1, 54, 0
1, 28896, Note_on_c, 1, 57, 80
1, 28919, Note_on_c, 1, 57, 0
1, 28920, Note_on_c, 1, 55, 80
1, 28943, Note_on_c, 1, 55, 0
1, 28944, Note_on_c, 1, 54, 80
1, 28967, Note_on_c, 1, 54, 0
1, 28968, Note_on_c, 1, 52, 80
1, 28977, Note_on_c, 0, 71, 0
1, 28991, Note_on_c, 1, 52, 0
1, 28992, Note_on_c, 0, 72, 80
1, 28992, Note_on_c, 1, 64, 80
1, 29021, Note_on_c, 1, 64, 0
1, 29064, Note_on_c, 1, 64, 80
1, 29065, Note_on_c, 0, 79, 0
1, 29087, Note_on_c, 1, 64, 0
1, 29088, Note_on_c, 0, 78, 80
1, 29088, Note_on_c, 1, 64, 80
1, 29177, Note_on_c, 1, 64, 0
1, 29184, Note_on_c, 1, 62, 80
1, 29223, Note_on_c, 1, 62, 0
1, 29265, Note_on_c, 0, 72, 0
1, 29280, Note_on_c, 0, 71, 80
1, 29280, Note_on_c, 1, 50, 80
1, 29319, Note_on_c, 1, 50, 0
1, 29353, Note_on_c, 0, 78, 0
1, 29369, Note_on_c, 0, 71, 0
1, 29376, Note_on_c, 0, 76, 80
1, 29376, Note_on_c, 0, 71, 80
1, 29424, Note_on_c, 1, 48, 80
1, 29447, Note_on_c, 1, 48, 0
1, 29448, Note_on_c, 1, 50, 80
1, 29471, Note_on_c, 1, 50, 0
1, 29472, Note_on_c, 1, 54, 80
1, 29495, Note_on_c, 1, 54, 0
1, 29496, Note_on_c, 1, 52, 80
1, 29519, Note_on_c, 1, 52, 0
1, 29520, Note_on_c, 1, 50, 80
1, 29543, Note_on_c, 1, 50, 0
1, 29544, Note_on_c, 1, 48, 80
1, 29553, Note_on_c, 0, 71, 0
1, 29567, Note_on_c, 1, 48, 0
1, 29568, Note_on_c, 0, 69, 80
1, 29568, Note_on_c, 1, 60, 80
1, 29597, Note_on_c, 1, 60, 0
1, 29640, Note_on_c, 1, 60, 80
1, 29641, Note_on_c, 0, 76, 0
1, 29663, Note_on_c, 1, 60, 0
1, 29664, Note_on_c, 0, 74, 80
1, 29664, Note_on_c, 1, 60, 80
1, 29753, Note_on_c, 1, 60, 0
1, 29760, Note_on_c, 1, 59, 80
1, 29799, Note_on_c, 1, 59, 0
1, 29841, Note_on_c, 0, 69, 0
1, 29856, Note_on_c, 0, 67, 80
1, 29856, Note_on_c, 1, 47, 80
1, 29895, Note_on_c, 1, 47, 0
1, 29929, Note_on_c, 0, 74, 0
1, 29945, Note_on_c, 0, 67, 0
1, 29952, Note_on_c, 0, 72, 80
1, 29952, Note_on_c, 0, 67, 80
1, 30000, Note_on_c, 1, 45, 80
1, 30023, Note_on_c, 1, 45, 0
1, 30024, Note_on_c, 1, 47, 80
1, 30047, Note_on_c, 1, 47, 0
1, 30048, Note_on_c, 1, 50, 80
1, 30071, Note_on_c, 1, 50, 0
1, 30072, Note_on_c, 1, 48, 80
1, 30095, Note_on_c, 1, 48, 0
1, 30096, Note_on_c, 1, 47, 80
1, 30119, Note_on_c, 1, 47, 0
1, 30120, Note_on_c, 1, 45, 80
1, 30129, Note_on_c, 0, 67, 0
1, 30143, Note_on_c, 1, 45, 0
1, 30144, Note_on_c, 0, 66, 80
1, 30144, Note_on_c, 1, 57, 80
1, 30189, Note_on_c, 1, 57, 0
1, 30192, Note_on_c, 1, 50, 80
1, 30217, Note_on_c, 0, 72, 0
1, 30233, Note_on_c, 0, 66, 0
1, 30237, Note_on_c, 1, 50, 0
1, 30240, Note_on_c, 0, 71, 80
1, 30240, Note_on_c, 0, 67, 80
1, 30240, Note_on_c, 0, 62, 80
1, 30288, Note_on_c, 1, 43, 80
1, 30311, Note_on_c, 1, 43, 0
1, 30312, Note_on_c, 1, 45, 80
1, 30335, Note_on_c, 1, 45, 0
1, 30336, Note_on_c, 1, 48, 80
1, 30359, Note_on_c, 1, 48, 0
1, 30360, Note_on_c, 1, 47, 80
1, 30383, Note_on_c, 1, 47, 0
1, 30384, Note_on_c, 1, 45, 80
1, 30407, Note_on_c, 1, 45, 0
1, 30408, Note_on_c, 1, 43, 80
1, 30431, Note_on_c, 1, 43, 0
1, 30432, Note_on_c, 1, 55, 80
1, 30477, Note_on_c, 1, 55, 0
1, 30480, Note_on_c, 1, 47, 80
1, 30520, Note_on_c, 0, 71, 0
1, 30520, Note_on_c, 0, 67, 0
1, 30520, Note_on_c, 0, 62, 0
1, 30525, Note_on_c, 1, 47, 0
1, 30528, Note_on_c, 1, 48, 80
1, 30576, Note_on_c, 0, 57, 80
1, 30599, Note_on_c, 0, 57, 0
1, 30600, Note_on_c, 0, 59, 80
1, 30617, Note_on_c, 1, 48, 0
1, 30623, Note_on_c, 0, 59, 0
1, 30624, Note_on_c, 0, 62, 80
1, 30647, Note_on_c, 0, 62, 0
1, 30648, Note_on_c, 0, 60, 80
1, 30671, Note_on_c, 0, 60, 0
1, 30672, Note_on_c, 0, 59, 80
1, 30695, Note_on_c, 0, 59, 0
1, 30696, Note_on_c, 0, 57, 80
1, 30719, Note_on_c, 0, 57, 0
1, 30720, Note_on_c, 0, 62, 80
1, 30720, Note_on_c, 1, 50, 80
1, 30787, Note_on_c, 0, 62, 0
1, 30792, Note_on_c, 0, 54, 80
1, 30809, Note_on_c, 1, 50, 0
1, 30815, Note_on_c, 0, 54, 0
1, 30816, Note_on_c, 0, 55, 80
1, 30816, Note_on_c, 1, 43, 80
1, 30905, Note_on_c, 0, 55, 0
1, 30905, Note_on_c, 1, 43, 0
1, 30912, Note_on_c, 1, 38, 80
1, 31001, Note_on_c, 1, 38, 0
1, 31008, Note_on_c, 1, 31, 80
1, 31097, Note_on_c, 1, 31, 0
1, 31104, Note_on_c, 0, 71, 80
1, 31104, Note_on_c, 0, 63, 80
1, 31152, Note_on_c, 1, 47, 79
1, 31175, Note_on_c, 1, 47, 0
1, 31176, Note_on_c, 1, 49, 79
1, 31193, Note_on_c, 0, 71, 0
1, 31193, Note_on_c, 0, 63, 0
1, 31199, Note_on_c, 1, 49, 0
1, 31200, Note_on_c, 1, 52, 78
1, 31223, Note_on_c, 1, 52, 0
1, 31224, Note_on_c, 1, 51, 78
1, 31247, Note_on_c, 1, 51, 0
1, 31248, Note_on_c, 1, 49, 78
1, 31271, Note_on_c, 1, 49, 0
1, 31272, Note_on_c, 1, 47, 77
1, 31295, Note_on_c, 1, 47, 0
1, 31296, Note_on_c, 1, 59, 77
1, 31335, Note_on_c, 1, 59, 0
1, 31344, Note_on_c, 0, 69, 76
1, 31344, Note_on_c, 0, 63, 76
1, 31392, Note_on_c, 0, 69, 0
1, 31392, Note_on_c, 0, 63, 0
1, 31392, Note_on_c, 0, 67, 76
1, 31392, Note_on_c, 0, 64, 76
1, 31440, Note_on_c, 1, 52, 75
1, 31463, Note_on_c, 1, 52, 0
1, 31464, Note_on_c, 1, 54, 75
1, 31481, Note_on_c, 0, 67, 0
1, 31481, Note_on_c, 0, 64, 0
1, 31487, Note_on_c, 1, 54, 0
1, 31488, Note_on_c, 1, 57, 74
1, 31511, Note_on_c, 1, 57, 0
1, 31512, Note_on_c, 1, 55, 74
1, 31535, Note_on_c, 1, 55, 0
1, 31536, Note_on_c, 1, 54, 74
1, 31559, Note_on_c, 1, 54, 0
1, 31560, Note_on_c, 1, 52, 73
1, 31583, Note_on_c, 1, 52, 0
1, 31584, Note_on_c, 1, 64, 73
1, 31623, Note_on_c, 1, 64, 0
1, 31632, Note_on_c, 0, 76, 73
1, 31632, Note_on_c, 0, 70, 73
1, 31680, Note_on_c, 0, 76, 0
1, 31680, Note_on_c, 0, 70, 0
1, 31680, Note_on_c, 0, 75, 72
1, 31680, Note_on_c, 0, 71, 72
1, 31728, Note_on_c, 1, 59, 71
1, 31751, Note_on_c, 1, 59, 0
1, 31752, Note_on_c, 1, 61, 71
1, 31769, Note_on_c, 0, 75, 0
1, 31769, Note_on_c, 0, 71, 0
1, 31775, Note_on_c, 1, 61, 0
1, 31776, Note_on_c, 1, 64, 71
1, 31799, Note_on_c, 1, 64, 0
1, 31800, Note_on_c, 1, 63, 70
1, 31823, Note_on_c, 1, 63, 0
1, 31824, Note_on_c, 1, 61, 70
1, 31847, Note_on_c, 1, 61, 0
1, 31848, Note_on_c, 1, 59, 70
1, 31871, Note_on_c, 1, 59, 0
1, 31872, Note_on_c, 1, 71, 69
1, 31911, Note_on_c, 1, 71, 0
1, 31920, Note_on_c, 0, 81, 69
1, 31920, Note_on_c, 0, 75, 69
1, 31968, Note_on_c, 0, 81, 0
1, 31968, Note_on_c, 0, 75, 0
1, 31968, Note_on_c, 0, 79, 68
1, 31968, Note_on_c, 0, 76, 68
1, 32016, Note_on_c, 1, 64, 67
1, 32039, Note_on_c, 1, 64, 0
1, 32040, Note_on_c, 1, 66, 67
1, 32057, Note_on_c, 0, 79, 0
1, 32057, Note_on_c, 0, 76, 0
1, 32063, Note_on_c, 1, 66, 0
1, 32064, Note_on_c, 1, 69, 67
1, 32087, Note_on_c, 1, 69, 0
1, 32088, Note_on_c, 1, 67, 66
1, 32111, Note_on_c, 1, 67, 0
1, 32112, Note_on_c, 1, 66, 66
1, 32135, Note_on_c, 1, 66, 0
1, 32136, Note_on_c, 1, 64, 66
1, 32159, Note_on_c, 1, 64, 0
1, 32160, Note_on_c, 1, 76, 65
1, 32199, Note_on_c, 1, 76, 0
1, 32208, Note_on_c, 0, 88, 65
1, 32208, Note_on_c, 0, 82, 65
1, 32256, Note_on_c, 0, 88, 0
1, 32256, Note_on_c, 0, 82, 0
1, 32256, Note_on_c, 0, 87, 65
1, 32256, Note_on_c, 0, 83, 65
1, 32304, Note_on_c, 1, 59, 64
1, 32327, Note_on_c, 1, 59, 0
1, 32328, Note_on_c, 1, 61, 64
1, 32345, Note_on_c, 0, 87, 0
1, 32345, Note_on_c, 0, 83, 0
1, 32351, Note_on_c, 1, 61, 0
1, 32352, Note_on_c, 1, 64, 64
1, 32375, Note_on_c, 1, 64, 0
1, 32376, Note_on_c, 1, 63, 64
1, 32399, Note_on_c, 1, 63, 0
1, 32400, Note_on_c, 1, 61, 64
1, 32423, Note_on_c, 1, 61, 0
1, 32424, Note_on_c, 1, 59, 64
1, 32447, Note_on_c, 1, 59, 0
1, 32448, Note_on_c, 1, 71, 64
1, 32487, Note_on_c, 1, 71, 0
1, 32544, Note_on_c, 1, 47, 64
1, 32583, Note_on_c, 1, 47, 0
1, 32832, Note_on_c, 0, 68, 75
1, 32928, Note_on_c, 1, 59, 75
1, 32928, Note_on_c, 1, 52, 75
1, 33009, Note_on_c, 0, 68, 0
1, 33017, Note_on_c, 1, 59, 0
1, 33017, Note_on_c, 1, 52, 0
1, 33024, Note_on_c, 0, 71, 75
1, 33024, Note_on_c, 1, 57, 75
1, 33024, Note_on_c, 1, 47, 75
1, 33047, Note_on_c, 0, 71, 0
1, 33048, Note_on_c, 0, 69, 75
1, 33071, Note_on_c, 0, 69, 0
1, 33072, Note_on_c, 0, 68, 75
1, 33095, Note_on_c, 0, 68, 0
1, 33096, Note_on_c, 0, 66, 75
1, 33113, Note_on_c, 1, 57, 0
1, 33113, Note_on_c, 1, 47, 0
1, 33119, Note_on_c, 0, 66, 0
1, 33120, Note_on_c, 0, 64, 75
1, 33120, Note_on_c, 1, 56, 75
1, 33120, Note_on_c, 1, 52, 75
1, 33209, Note_on_c, 0, 64, 0
1, 33216, Note_on_c, 0, 59, 75
1, 33297, Note_on_c, 1, 56, 0
1, 33297, Note_on_c, 1, 52, 0
1, 33305, Note_on_c, 0, 59, 0
1, 33312, Note_on_c, 0, 76, 75
1, 33401, Note_on_c, 0, 76, 0
1, 33408, Note_on_c, 0, 75, 75
1, 33497, Note_on_c, 0, 75, 0
1, 33504, Note_on_c, 0, 73, 75
1, 33504, Note_on_c, 1, 64, 75
1, 33504, Note_on_c, 1, 57, 75
1, 33517, Note_on_c, 0, 73, 0
1, 33518, Note_on_c, 0, 75, 75
1, 33531, Note_on_c, 0, 75, 0
1, 33532, Note_on_c, 0, 73, 75
1, 33545, Note_on_c, 0, 73, 0
1, 33546, Note_on_c, 0, 75, 75
1, 33559, Note_on_c, 0, 75, 0
1, 33560, Note_on_c, 0, 73, 75
1, 33573, Note_on_c, 0, 73, 0
1, 33574, Note_on_c, 0, 71, 75
1, 33586, Note_on_c, 0, 71, 0
1, 33587, Note_on_c, 0, 73, 75
1, 33593, Note_on_c, 1, 64, 0
1, 33593, Note_on_c, 1, 57, 0
1, 33599, Note_on_c, 0, 73, 0
1, 33600, Note_on_c, 0, 71, 75
1, 33600, Note_on_c, 1, 64, 75
1, 33600, Note_on_c, 1, 56, 75
1, 33623, Note_on_c, 0, 71, 0
1, 33624, Note_on_c, 0, 75, 76
1, 33647, Note_on_c, 0, 75, 0
1, 33648, Note_on_c, 0, 76, 78
1, 33671, Note_on_c, 0, 76, 0
1, 33672, Note_on_c, 0, 80, 80
1, 33695, Note_on_c, 0, 80, 0
1, 33696, Note_on_c, 0, 71, 79
1, 33696, Note_on_c, 1, 56, 0
1, 33696, Note_on_c, 1, 54, 64
1, 33785, Note_on_c, 1, 64, 0
1, 33792, Note_on_c, 1, 63, 75
1, 33859, Note_on_c, 0, 71, 0
1, 33864, Note_on_c, 0, 69, 75
1, 33870, Note_on_c, 0, 69, 0
1, 33870, Note_on_c, 0, 71, 75
1, 33873, Note_on_c, 1, 54, 0
1, 33876, Note_on_c, 0, 71, 0
1, 33876, Note_on_c, 0, 69, 75
1, 33881, Note_on_c, 1, 63, 0
1, 33887, Note_on_c, 0, 69, 0
1, 33888, Note_on_c, 0, 68, 75
1, 33888, Note_on_c, 1, 64, 75
1, 33888, Note_on_c, 1, 52, 64
1, 33927, Note_on_c, 0, 68, 0
1, 33977, Note_on_c, 1, 64, 0
1, 33977, Note_on_c, 1, 52, 0
1, 33984, Note_on_c, 0, 80, 75
1, 34080, Note_on_c, 1, 71, 75
1, 34080, Note_on_c, 1, 64, 64
1, 34147, Note_on_c, 0, 80, 0
1, 34152, Note_on_c, 0, 82, 79
1, 34169, Note_on_c, 1, 71, 0
1, 34169, Note_on_c, 1, 64, 0
1, 34175, Note_on_c, 0, 82, 0
1, 34176, Note_on_c, 0, 83, 80
1, 34176, Note_on_c, 1, 71, 75
1, 34176, Note_on_c, 1, 63, 64
1, 34199, Note_on_c, 0, 83, 0
1, 34200, Note_on_c, 0, 82, 78
1, 34223, Note_on_c, 0, 82, 0
1, 34224, Note_on_c, 0, 80, 77
1, 34247, Note_on_c, 0, 80, 0
1, 34248, Note_on_c, 0, 78, 76
1, 34265, Note_on_c, 1, 63, 0
1, 34271, Note_on_c, 0, 78, 0
1, 34272, Note_on_c, 0, 78, 75
1, 34272, Note_on_c, 1, 61, 64
1, 34361, Note_on_c, 0, 78, 0
1, 34361, Note_on_c, 1, 71, 0
1, 34368, Note_on_c, 0, 76, 75
1, 34368, Note_on_c, 1, 70, 75
1, 34381, Note_on_c, 0, 76, 0
1, 34382, Note_on_c, 0, 78, 75
1, 34395, Note_on_c, 0, 78, 0
1, 34396, Note_on_c, 0, 76, 75
1, 34409, Note_on_c, 0, 76, 0
1, 34410, Note_on_c, 0, 78, 75
1, 34423, Note_on_c, 0, 78, 0
1, 34424, Note_on_c, 0, 76, 75
1, 34437, Note_on_c, 0, 76, 0
1, 34438, Note_on_c, 0, 75, 75
1, 34449, Note_on_c, 1, 61, 0
1, 34450, Note_on_c, 0, 75, 0
1, 34451, Note_on_c, 0, 76, 75
1, 34457, Note_on_c, 1, 70, 0
1, 34463, Note_on_c, 0, 76, 0
1, 34464, Note_on_c, 0, 75, 75
1, 34464, Note_on_c, 1, 71, 75
1, 34464, Note_on_c, 1, 59, 64
1, 34553, Note_on_c, 0, 75, 0
1, 34553, Note_on_c, 1, 71, 0
1, 34553, Note_on_c, 1, 59, 0
1, 34560, Note_on_c, 0, 72, 75
1, 34560, Note_on_c, 1, 68, 75
1, 34560, Note_on_c, 1, 64, 75
1, 34583, Note_on_c, 0, 72, 0
1, 34584, Note_on_c, 0, 73, 76
1, 34607, Note_on_c, 0, 73, 0
1, 34608, Note_on_c, 0, 76, 78
1, 34631, Note_on_c, 0, 76, 0
1, 34632, Note_on_c, 0, 80, 80
1, 34649, Note_on_c, 1, 68, 0
1, 34649, Note_on_c, 1, 64, 0
1, 34655, Note_on_c, 0, 80, 0
1, 34656, Note_on_c, 0, 71, 79
1, 34656, Note_on_c, 1, 63, 75
1, 34656, Note_on_c, 1, 54, 75
1, 34695, Note_on_c, 0, 71, 0
1, 34745, Note_on_c, 1, 63, 0
1, 34745, Note_on_c, 1, 54, 0
1, 34752, Note_on_c, 0, 71, 75
1, 34752, Note_on_c, 0, 64, 80
1, 34752, Note_on_c, 1, 61, 75
1, 34752, Note_on_c, 1, 54, 75
1, 34776, Note_on_c, 0, 71, 0
1, 34776, Note_on_c, 0, 70, 75
1, 34800, Note_on_c, 0, 70, 0
1, 34800, Note_on_c, 0, 68, 75
1, 34824, Note_on_c, 0, 68, 0
1, 34824, Note_on_c, 0, 70, 75
1, 34841, Note_on_c, 0, 64, 0
1, 34841, Note_on_c, 1, 61, 0
1, 34841, Note_on_c, 1, 54, 0
1, 34848, Note_on_c, 0, 70, 0
1, 34848, Note_on_c, 0, 70, 75
1, 34848, Note_on_c, 0, 64, 80
1, 34848, Note_on_c, 1, 59, 75
1, 34848, Note_on_c, 1, 59, 64
1, 34937, Note_on_c, 1, 59, 0
1, 34937, Note_on_c, 1, 59, 0
1, 34944, Note_on_c, 1, 54, 75
1, 35025, Note_on_c, 0, 64, 0
1, 35033, Note_on_c, 1, 54, 0
1, 35040, Note_on_c, 0, 70, 0
1, 35040, Note_on_c, 0, 71, 70
1, 35040, Note_on_c, 0, 63, 70
1, 35040, Note_on_c, 1, 47, 75
1, 35079, Note_on_c, 0, 71, 0
1, 35129, Note_on_c, 0, 63, 0
1, 35129, Note_on_c, 1, 47, 0
1, 35136, Note_on_c, 1, 52, 75
1, 35136, Note_on_c, 1, 59, 64
1, 35184, Note_on_c, 0, 67, 75
1, 35229, Note_on_c, 0, 67, 0
1, 35232, Note_on_c, 0, 68, 77
1, 35277, Note_on_c, 0, 68, 0
1, 35280, Note_on_c, 0, 71, 80
1, 35313, Note_on_c, 1, 52, 0
1, 35313, Note_on_c, 1, 59, 0
1, 35325, Note_on_c, 0, 71, 0
1, 35328, Note_on_c, 0, 66, 78
1, 35328, Note_on_c, 1, 47, 75
1, 35328, Note_on_c, 1, 57, 64
1, 35373, Note_on_c, 0, 66, 0
1, 35376, Note_on_c, 0, 63, 76
1, 35417, Note_on_c, 1, 47, 0
1, 35424, Note_on_c, 1, 52, 75
1, 35469, Note_on_c, 0, 63, 0
1, 35472, Note_on_c, 0, 64, 75
1, 35513, Note_on_c, 1, 57, 0
1, 35517, Note_on_c, 0, 64, 0
1, 35520, Note_on_c, 0, 59, 76
1, 35520, Note_on_c, 1, 56, 64
1, 35565, Note_on_c, 0, 59, 0
1, 35568, Note_on_c, 0, 68, 76
1, 35613, Note_on_c, 0, 68, 0
1, 35616, Note_on_c, 0, 64, 77
1, 35661, Note_on_c, 0, 64, 0
1, 35664, Note_on_c, 0, 71, 78
1, 35689, Note_on_c, 1, 52, 0
1, 35709, Note_on_c, 0, 71, 0
1, 35712, Note_on_c, 0, 68, 78
1, 35712, Note_on_c, 1, 52, 75
1, 35757, Note_on_c, 0, 68, 0
1, 35760, Note_on_c, 0, 76, 79
1, 35805, Note_on_c, 0, 76, 0
1, 35808, Note_on_c, 0, 71, 80
1, 35853, Note_on_c, 0, 71, 0
1, 35856, Note_on_c, 0, 80, 79
1, 35889, Note_on_c, 1, 52, 0
1, 35889, Note_on_c, 1, 56, 0
1, 35901, Note_on_c, 0, 80, 0
1, 35904, Note_on_c, 0, 75, 79
1, 35904, Note_on_c, 1, 56, 75
1, 35904, Note_on_c, 1, 64, 64
1, 35949, Note_on_c, 0, 75, 0
1, 35952, Note_on_c, 0, 76, 78
1, 35993, Note_on_c, 1, 56, 0
1, 35997, Note_on_c, 0, 76, 0
1, 36000, Note_on_c, 0, 71, 78
1, 36000, Note_on_c, 1, 54, 75
1, 36045, Note_on_c, 0, 71, 0
1, 36048, Note_on_c, 0, 70, 77
1, 36089, Note_on_c, 1, 64, 0
1, 36096, Note_on_c, 1, 63, 64
1, 36137, Note_on_c, 0, 70, 0
1, 36144, Note_on_c, 0, 69, 76
1, 36177, Note_on_c, 1, 54, 0
1, 36185, Note_on_c, 1, 63, 0
1, 36192, Note_on_c, 1, 52, 75
1, 36192, Note_on_c, 1, 64, 64
1, 36233, Note_on_c, 0, 69, 0
1, 36240, Note_on_c, 0, 68, 75
1, 36281, Note_on_c, 1, 52, 0
1, 36281, Note_on_c, 1, 64, 0
1, 36285, Note_on_c, 0, 68, 0
1, 36288, Note_on_c, 1, 64, 75
1, 36288, Note_on_c, 1, 71, 64
1, 36336, Note_on_c, 0, 79, 75
1, 36381, Note_on_c, 0, 79, 0
1, 36384, Note_on_c, 0, 80, 76
1, 36429, Note_on_c, 0, 80, 0
1, 36432, Note_on_c, 0, 82, 77
1, 36465, Note_on_c, 1, 64, 0
1, 36477, Note_on_c, 0, 82, 0
1, 36480, Note_on_c, 0, 83, 78
1, 36480, Note_on_c, 1, 63, 75
1, 36525, Note_on_c, 0, 83, 0
1, 36528, Note_on_c, 0, 78, 80
1, 36569, Note_on_c, 1, 63, 0
1, 36576, Note_on_c, 1, 61, 75
1, 36621, Note_on_c, 0, 78, 0
1, 36624, Note_on_c, 0, 77, 78
1, 36665, Note_on_c, 1, 71, 0
1, 36672, Note_on_c, 1, 70, 64
1, 36713, Note_on_c, 0, 77, 0
1, 36720, Note_on_c, 0, 76, 77
1, 36753, Note_on_c, 1, 61, 0
1, 36761, Note_on_c, 1, 70, 0
1, 36768, Note_on_c, 1, 59, 75
1, 36768, Note_on_c, 1, 71, 64
1, 36809, Note_on_c, 0, 76, 0
1, 36816, Note_on_c, 0, 75, 75
1, 36857, Note_on_c, 1, 59, 0
1, 36857, Note_on_c, 1, 71, 0
1, 36861, Note_on_c, 0, 75, 0
1, 36864, Note_on_c, 1, 64, 75
1, 36864, Note_on_c, 1, 68, 64
1, 36912, Note_on_c, 0, 72, 75
1, 36953, Note_on_c, 1, 64, 0
1, 36953, Note_on_c, 1, 68, 0
1, 36957, Note_on_c, 0, 72, 0
1, 36960, Note_on_c, 0, 73, 77
1, 37005, Note_on_c, 0, 73, 0
1, 37008, Note_on_c, 0, 75, 80
1, 37053, Note_on_c, 0, 75, 0
1, 37056, Note_on_c, 0, 76, 78
1, 37056, Note_on_c, 1, 54, 75
1, 37056, Note_on_c, 1, 64, 64
1, 37123, Note_on_c, 0, 76, 0
1, 37128, Note_on_c, 0, 70, 75
1, 37145, Note_on_c, 1, 54, 0
1, 37151, Note_on_c, 0, 70, 0
1, 37152, Note_on_c, 0, 70, 75
1, 37152, Note_on_c, 1, 59, 75
1, 37329, Note_on_c, 1, 64, 0
1, 37344, Note_on_c, 0, 70, 0
1, 37344, Note_on_c, 0, 71, 70
1, 37344, Note_on_c, 1, 63, 70
1, 37383, Note_on_c, 0, 71, 0
1, 37417, Note_on_c, 1, 59, 0
1, 37433, Note_on_c, 1, 63, 0
1, 37440, Note_on_c, 0, 71, 75
1, 37536, Note_on_c, 1, 56, 77
1, 37536, Note_on_c, 1, 59, 70
1, 37581, Note_on_c, 0, 71, 0
1, 37584, Note_on_c, 0, 74, 78
1, 37607, Note_on_c, 0, 74, 0
1, 37608, Note_on_c, 0, 73, 79
1, 37625, Note_on_c, 1, 56, 0
1, 37625, Note_on_c, 1, 59, 0
1, 37631, Note_on_c, 0, 73, 0
1, 37632, Note_on_c, 0, 76, 80
1, 37632, Note_on_c, 1, 53, 80
1, 37632, Note_on_c, 1, 62, 70
1, 37655, Note_on_c, 0, 76, 0
1, 37656, Note_on_c, 0, 74, 78
1, 37679, Note_on_c, 0, 74, 0
1, 37680, Note_on_c, 0, 73, 77
1, 37703, Note_on_c, 0, 73, 0
1, 37704, Note_on_c, 0, 71, 76
1, 37721, Note_on_c, 1, 53, 0
1, 37727, Note_on_c, 0, 71, 0
1, 37728, Note_on_c, 0, 71, 75
1, 37728, Note_on_c, 1, 54, 75
1, 37817, Note_on_c, 1, 62, 0
1, 37824, Note_on_c, 0, 71, 0
1, 37824, Note_on_c, 0, 69, 75
1, 37824, Note_on_c, 1, 61, 70
1, 37891, Note_on_c, 0, 69, 0
1, 37896, Note_on_c, 0, 71, 76
1, 37905, Note_on_c, 1, 54, 0
1, 37908, Note_on_c, 0, 71, 0
1, 37908, Note_on_c, 0, 69, 76
1, 37913, Note_on_c, 1, 61, 0
1, 37920, Note_on_c, 0, 69, 0
1, 37920, Note_on_c, 0, 68, 76
1, 37920, Note_on_c, 1, 59, 70
1, 37987, Note_on_c, 0, 68, 0
1, 37992, Note_on_c, 0, 69, 77
1, 38004, Note_on_c, 0, 69, 0
1, 38004, Note_on_c, 0, 68, 77
1, 38009, Note_on_c, 1, 59, 0
1, 38016, Note_on_c, 0, 68, 0
1, 38016, Note_on_c, 0, 66, 77
1, 38016, Note_on_c, 1, 57, 77
1, 38016, Note_on_c, 1, 61, 70
1, 38105, Note_on_c, 0, 66, 0
1, 38112, Note_on_c, 0, 81, 78
1, 38124, Note_on_c, 0, 81, 0
1, 38124, Note_on_c, 0, 83, 78
1, 38136, Note_on_c, 0, 83, 0
1, 38136, Note_on_c, 0, 85, 94
1, 38208, Note_on_c, 0, 85, 0
1, 38208, Note_on_c, 0, 83, 79
1, 38231, Note_on_c, 0, 83, 0
1, 38232, Note_on_c, 0, 81, 79
1, 38253, Note_on_c, 1, 57, 0
1, 38255, Note_on_c, 0, 81, 0
1, 38256, Note_on_c, 0, 80, 79
1, 38256, Note_on_c, 1, 58, 79
1, 38279, Note_on_c, 0, 80, 0
1, 38280, Note_on_c, 0, 78, 79
1, 38281, Note_on_c, 1, 61, 0
1, 38301, Note_on_c, 1, 58, 0
1, 38303, Note_on_c, 0, 78, 0
1, 38304, Note_on_c, 0, 76, 80
1, 38304, Note_on_c, 1, 59, 80
1, 38393, Note_on_c, 0, 76, 0
1, 38393, Note_on_c, 1, 59, 0
1, 38400, Note_on_c, 0, 75, 78
1, 38400, Note_on_c, 1, 47, 78
1, 38489, Note_on_c, 0, 75, 0
1, 38489, Note_on_c, 1, 47, 0
1, 38496, Note_on_c, 0, 71, 76
1, 38496, Note_on_c, 1, 63, 76
1, 38496, Note_on_c, 1, 59, 60
1, 38585, Note_on_c, 1, 63, 0
1, 38592, Note_on_c, 0, 73, 75
1, 38592, Note_on_c, 1, 64, 75
1, 38681, Note_on_c, 1, 64, 0
1, 38688, Note_on_c, 1, 65, 76
1, 38769, Note_on_c, 0, 71, 0
1, 38777, Note_on_c, 1, 65, 0
1, 38784, Note_on_c, 0, 69, 78
1, 38784, Note_on_c, 1, 66, 78
1, 38857, Note_on_c, 0, 73, 0
1, 38857, Note_on_c, 1, 59, 0
1, 38873, Note_on_c, 0, 69, 0
1, 38873, Note_on_c, 1, 66, 0
1, 38880, Note_on_c, 0, 69, 80
1, 38880, Note_on_c, 1, 59, 80
1, 38888, Note_on_c, 0, 75, 80
1, 38888, Note_on_c, 1, 63, 80
1, 38896, Note_on_c, 0, 81, 80
1, 38896, Note_on_c, 1, 66, 80
1, 38976, Note_on_c, 0, 75, 0
1, 38976, Note_on_c, 0, 69, 0
1, 38999, Note_on_c, 0, 81, 0
1, 39000, Note_on_c, 0, 78, 80
1, 39023, Note_on_c, 0, 78, 0
1, 39024, Note_on_c, 0, 75, 80
1, 39047, Note_on_c, 0, 75, 0
1, 39048, Note_on_c, 0, 69, 80
1, 39061, Note_on_c, 1, 66, 0
1, 39061, Note_on_c, 1, 63, 0
1, 39061, Note_on_c, 1, 59, 0
1, 39071, Note_on_c, 0, 69, 0
1, 39072, Note_on_c, 0, 68, 80
1, 39072, Note_on_c, 1, 64, 80
1, 39072, Note_on_c, 1, 61, 80
1, 39111, Note_on_c, 0, 68, 0
1, 39161, Note_on_c, 1, 64, 0
1, 39161, Note_on_c, 1, 61, 0
1, 39168, Note_on_c, 0, 65, 80
1, 39168, Note_on_c, 1, 61, 80
1, 39168, Note_on_c, 1, 57, 80
1, 39191, Note_on_c, 0, 65, 0
1, 39192, Note_on_c, 0, 66, 82
1, 39215, Note_on_c, 0, 66, 0
1, 39216, Note_on_c, 0, 69, 84
1, 39239, Note_on_c, 0, 69, 0
1, 39240, Note_on_c, 0, 73, 86
1, 39257, Note_on_c, 1, 61, 0
1, 39257, Note_on_c, 1, 57, 0
1, 39263, Note_on_c, 0, 73, 0
1, 39264, Note_on_c, 0, 64, 85
1, 39264, Note_on_c, 1, 56, 86
1, 39264, Note_on_c, 1, 47, 86
1, 39303, Note_on_c, 0, 64, 0
1, 39353, Note_on_c, 1, 56, 0
1, 39353, Note_on_c, 1, 47, 0
1, 39360, Note_on_c, 0, 64, 84
1, 39360, Note_on_c, 0, 57, 126
1, 39360, Note_on_c, 1, 54, 84
1, 39360, Note_on_c, 1, 47, 84
1, 39384, Note_on_c, 0, 64, 0
1, 39384, Note_on_c, 0, 63, 84
1, 39408, Note_on_c, 0, 63, 0
1, 39408, Note_on_c, 0, 61, 84
1, 39432, Note_on_c, 0, 61, 0
1, 39432, Note_on_c, 0, 63, 84
1, 39449, Note_on_c, 0, 57, 0
1, 39449, Note_on_c, 1, 54, 0
1, 39449, Note_on_c, 1, 47, 0
1, 39456, Note_on_c, 0, 63, 0
1, 39456, Note_on_c, 0, 63, 82
1, 39456, Note_on_c, 0, 57, 82
1, 39456, Note_on_c, 0, 57, 112
1, 39456, Note_on_c, 1, 52, 82
1, 39456, Note_on_c, 1, 52, 64
1, 39545, Note_on_c, 1, 52, 0
1, 39545, Note_on_c, 1, 52, 0
1, 39552, Note_on_c, 1, 47, 80
1, 39633, Note_on_c, 0, 57, 0
1, 39641, Note_on_c, 1, 47, 0
1, 39648, Note_on_c, 0, 63, 0
1, 39648, Note_on_c, 0, 57, 0
1, 39648, Note_on_c, 0, 64, 70
1, 39648, Note_on_c, 0, 56, 86
1, 39648, Note_on_c, 1, 40, 70
1, 39687, Note_on_c, 0, 64, 0
1, 39737, Note_on_c, 0, 56, 0
1, 39737, Note_on_c, 1, 40, 0
1, 39744, Note_on_c, 1, 56, 75
1, 39744, Note_on_c, 1, 59, 75
1, 39792, Note_on_c, 0, 74, 75
1, 39837, Note_on_c, 0, 74, 0
1, 39840, Note_on_c, 0, 71, 77
1, 39885, Note_on_c, 0, 71, 0
1, 39888, Note_on_c, 0, 68, 80
1, 39921, Note_on_c, 1, 56, 0
1, 39921, Note_on_c, 1, 59, 0
1, 39933, Note_on_c, 0, 68, 0
1, 39936, Note_on_c, 0, 66, 78
1, 39936, Note_on_c, 1, 59, 75
1, 39936, Note_on_c, 1, 62, 75
1, 39981, Note_on_c, 0, 66, 0
1, 39984, Note_on_c, 0, 65, 76
1, 40025, Note_on_c, 1, 59, 0
1, 40025, Note_on_c, 1, 62, 0
1, 40032, Note_on_c, 1, 57, 75
1, 40032, Note_on_c, 1, 61, 75
1, 40077, Note_on_c, 0, 65, 0
1, 40080, Note_on_c, 0, 66, 75
1, 40125, Note_on_c, 0, 66, 0
1, 40128, Note_on_c, 0, 68, 75
1, 40173, Note_on_c, 0, 68, 0
1, 40176, Note_on_c, 0, 66, 75
1, 40221, Note_on_c, 0, 66, 0
1, 40224, Note_on_c, 0, 69, 75
1, 40269, Note_on_c, 0, 69, 0
1, 40272, Note_on_c, 0, 68, 75
1, 40317, Note_on_c, 0, 68, 0
1, 40320, Note_on_c, 0, 71, 75
1, 40365, Note_on_c, 0, 71, 0
1, 40368, Note_on_c, 0, 69, 75
1, 40413, Note_on_c, 0, 69, 0
1, 40416, Note_on_c, 0, 73, 75
1, 40461, Note_on_c, 0, 73, 0
1, 40464, Note_on_c, 0, 69, 75
1, 40497, Note_on_c, 1, 57, 0
1, 40509, Note_on_c, 0, 69, 0
1, 40512, Note_on_c, 0, 81, 75
1, 40512, Note_on_c, 1, 54, 75
1, 40560, Note_on_c, 0, 81, 0
1, 40560, Note_on_c, 0, 78, 75
1, 40585, Note_on_c, 1, 61, 0
1, 40601, Note_on_c, 1, 54, 0
1, 40605, Note_on_c, 0, 78, 0
1, 40608, Note_on_c, 0, 76, 75
1, 40608, Note_on_c, 1, 59, 75
1, 40656, Note_on_c, 0, 76, 0
1, 40656, Note_on_c, 0, 75, 75
1, 40701, Note_on_c, 0, 75, 0
1, 40704, Note_on_c, 0, 83, 75
1, 40752, Note_on_c, 0, 83, 0
1, 40752, Note_on_c, 0, 71, 75
1, 40797, Note_on_c, 0, 71, 0
1, 40800, Note_on_c, 0, 83, 75
1, 40800, Note_on_c, 1, 63, 75
1, 40848, Note_on_c, 0, 83, 0
1, 40848, Note_on_c, 0, 71, 75
1, 40889, Note_on_c, 1, 63, 0
1, 40893, Note_on_c, 0, 71, 0
1, 40896, Note_on_c, 0, 83, 76
1, 40896, Note_on_c, 1, 64, 75
1, 40944, Note_on_c, 0, 83, 0
1, 40944, Note_on_c, 0, 73, 76
1, 40985, Note_on_c, 1, 64, 0
1, 40989, Note_on_c, 0, 73, 0
1, 40992, Note_on_c, 0, 83, 77
1, 40992, Note_on_c, 1, 65, 76
1, 41040, Note_on_c, 0, 83, 0
1, 41040, Note_on_c, 0, 73, 77
1, 41081, Note_on_c, 1, 65, 0
1, 41085, Note_on_c, 0, 73, 0
1, 41088, Note_on_c, 0, 82, 78
1, 41088, Note_on_c, 1, 66, 77
1, 41136, Note_on_c, 0, 82, 0
1, 41136, Note_on_c, 0, 73, 78
1, 41177, Note_on_c, 1, 66, 0
1, 41181, Note_on_c, 0, 73, 0
1, 41184, Note_on_c, 0, 81, 79
1, 41184, Note_on_c, 1, 63, 78
1, 41232, Note_on_c, 0, 81, 0
1, 41232, Note_on_c, 0, 72, 80
1, 41277, Note_on_c, 0, 72, 0
1, 41280, Note_on_c, 0, 81, 79
1, 41328, Note_on_c, 0, 81, 0
1, 41328, Note_on_c, 0, 71, 78
1, 41361, Note_on_c, 1, 63, 0
1, 41373, Note_on_c, 0, 71, 0
1, 41376, Note_on_c, 0, 80, 77
1, 41376, Note_on_c, 1, 64, 80
1, 41424, Note_on_c, 0, 80, 0
1, 41424, Note_on_c, 0, 71, 76
1, 41449, Note_on_c, 1, 59, 0
1, 41465, Note_on_c, 1, 64, 0
1, 41469, Note_on_c, 0, 71, 0
1, 41472, Note_on_c, 0, 57, 80
1, 41495, Note_on_c, 0, 57, 0
1, 41496, Note_on_c, 0, 61, 80
1, 41508, Note_on_c, 0, 61, 0
1, 41508, Note_on_c, 0, 66, 81
1, 41520, Note_on_c, 0, 66, 0
1, 41520, Note_on_c, 0, 69, 81
1, 41532, Note_on_c, 0, 69, 0
1, 41532, Note_on_c, 0, 73, 81
1, 41544, Note_on_c, 0, 73, 0
1, 41544, Note_on_c, 0, 78, 82
1, 41556, Note_on_c, 0, 78, 0
1, 41556, Note_on_c, 0, 81, 82
1, 41568, Note_on_c, 0, 81, 0
1, 41568, Note_on_c, 0, 85, 99
1, 41664, Note_on_c, 0, 85, 0
1, 41664, Note_on_c, 0, 66, 75
1, 41664, Note_on_c, 1, 59, 75
1, 41664, Note_on_c, 1, 47, 75
1, 41672, Note_on_c, 0, 69, 75
1, 41680, Note_on_c, 0, 75, 75
1, 41753, Note_on_c, 1, 59, 0
1, 41753, Note_on_c, 1, 47, 0
1, 41757, Note_on_c, 0, 75, 0
1, 41757, Note_on_c, 0, 69, 0
1, 41757, Note_on_c, 0, 66, 0
1, 41760, Note_on_c, 0, 68, 75
1, 41760, Note_on_c, 1, 52, 75
1, 41760, Note_on_c, 1, 40, 75
1, 41768, Note_on_c, 0, 71, 75
1, 41776, Note_on_c, 0, 76, 75
1, 41937, Note_on_c, 1, 52, 0
1, 41937, Note_on_c, 1, 40, 0
1, 41941, Note_on_c, 0, 76, 0
1, 41941, Note_on_c, 0, 71, 0
1, 41941, Note_on_c, 0, 68, 0
1, 42048, Note_on_c, 1, 40, 0
1, 42137, Note_on_c, 1, 40, 0
1, 42147, End_track
0, 0, End_of_file