0, 0, Header, 0, 1, 240
1, 0, Start_track
1, 0, Tempo, 454545
1, 0, Note_on_c, 0, 72, 64
1, 0, Note_on_c, 0, 60, 64
1, 120, Note_on_c, 0, 60, 0
1, 120, Note_on_c, 0, 67, 64
1, 240, Note_on_c, 0, 67, 0
1, 240, Note_on_c, 0, 64, 64
1, 360, Note_on_c, 0, 64, 0
1, 360, Note_on_c, 0, 67, 64
1, 480, Note_on_c, 0, 67, 0
1, 480, Note_on_c, 0, 72, 0
1, 480, Note_on_c, 0, 76, 64
1, 480, Note_on_c, 0, 60, 64
1, 600, Note_on_c, 0, 60, 0
1, 600, Note_on_c, 0, 67, 64
1, 720, Note_on_c, 0, 67, 0
1, 720, Note_on_c, 0, 76, 0
1, 720, Note_on_c, 0, 79, 64
1, 720, Note_on_c, 0, 64, 64
1, 840, Note_on_c, 0, 64, 0
1, 840, Note_on_c, 0, 67, 64
1, 960, Note_on_c, 0, 67, 0
1, 960, Note_on_c, 0, 79, 0
1, 960, Note_on_c, 0, 71, 64
1, 960, Note_on_c, 0, 62, 64
1, 1080, Note_on_c, 0, 62, 0
1, 1080, Note_on_c, 0, 67, 64
1, 1200, Note_on_c, 0, 67, 0
1, 1200, Note_on_c, 0, 65, 64
1, 1320, Note_on_c, 0, 65, 0
1, 1320, Note_on_c, 0, 71, 0
1, 1320, Note_on_c, 0, 72, 64
1, 1320, Note_on_c, 0, 67, 64
1, 1380, Note_on_c, 0, 72, 0
1, 1380, Note_on_c, 0, 74, 64
1, 1440, Note_on_c, 0, 74, 0
1, 1440, Note_on_c, 0, 67, 0
1, 1440, Note_on_c, 0, 72, 64
1, 1440, Note_on_c, 0, 60, 64
1, 1560, Note_on_c, 0, 60, 0
1, 1560, Note_on_c, 0, 67, 64
1, 1680, Note_on_c, 0, 67, 0
1, 1680, Note_on_c, 0, 64, 64
1, 1800, Note_on_c, 0, 64, 0
1, 1800, Note_on_c, 0, 67, 64
1, 1920, Note_on_c, 0, 67, 0
1, 1920, Note_on_c, 0, 72, 0
1, 1920, Note_on_c, 0, 81, 64
1, 1920, Note_on_c, 0, 60, 64
1, 2040, Note_on_c, 0, 60, 0
1, 2040, Note_on_c, 0, 69, 64
1, 2160, Note_on_c, 0, 69, 0
1, 2160, Note_on_c, 0, 65, 64
1, 2280, Note_on_c, 0, 65, 0
1, 2280, Note_on_c, 0, 69, 64
1, 2400, Note_on_c, 0, 69, 0
1, 2400, Note_on_c, 0, 81, 0
1, 2400, Note_on_c, 0, 79, 64
1, 2400, Note_on_c, 0, 60, 64
1, 2520, Note_on_c, 0, 60, 0
1, 2520, Note_on_c, 0, 67, 64
1, 2640, Note_on_c, 0, 67, 0
1, 2640, Note_on_c, 0, 79, 0
1, 2640, Note_on_c, 0, 84, 64
1, 2640, Note_on_c, 0, 64, 64
1, 2760, Note_on_c, 0, 64, 0
1, 2760, Note_on_c, 0, 67, 64
1, 2880, Note_on_c, 0, 67, 0
1, 2880, Note_on_c, 0, 84, 0
1, 2880, Note_on_c, 0, 79, 64
1, 2880, Note_on_c, 0, 59, 64
1, 3000, Note_on_c, 0, 59, 0
1, 3000, Note_on_c, 0, 67, 64
1, 3120, Note_on_c, 0, 67, 0
1, 3120, Note_on_c, 0, 79, 0
1, 3120, Note_on_c, 0, 77, 64
1, 3120, Note_on_c, 0, 62, 64
1, 3159, Note_on_c, 0, 77, 0
1, 3159, Note_on_c, 0, 79, 64
1, 3199, Note_on_c, 0, 79, 0
1, 3199, Note_on_c, 0, 77, 64
1, 3239, Note_on_c, 0, 77, 0
1, 3240, Note_on_c, 0, 62, 0
1, 3240, Note_on_c, 0, 76, 64
1, 3240, Note_on_c, 0, 67, 64
1, 3300, Note_on_c, 0, 76, 0
1, 3300, Note_on_c, 0, 77, 64
1, 3360, Note_on_c, 0, 77, 0
1, 3360, Note_on_c, 0, 67, 0
1, 3360, Note_on_c, 0, 76, 64
1, 3360, Note_on_c, 0, 60, 64
1, 3480, Note_on_c, 0, 60, 0
1, 3480, Note_on_c, 0, 67, 64
1, 3600, Note_on_c, 0, 67, 0
1, 3600, Note_on_c, 0, 76, 0
1, 3600, Note_on_c, 0, 64, 64
1, 3720, Note_on_c, 0, 64, 0
1, 3720, Note_on_c, 0, 67, 64
1, 3840, Note_on_c, 0, 67, 0
1, 3840, Note_on_c, 0, 69, 64
1, 3840, Note_on_c, 0, 65, 64
1, 3960, Note_on_c, 0, 69, 0
1, 3960, Note_on_c, 0, 71, 64
1, 4020, Note_on_c, 0, 71, 0
1, 4020, Note_on_c, 0, 72, 64
1, 4080, Note_on_c, 0, 72, 0
1, 4080, Note_on_c, 0, 65, 0
1, 4080, Note_on_c, 0, 74, 64
1, 4140, Note_on_c, 0, 74, 0
1, 4140, Note_on_c, 0, 76, 64
1, 4200, Note_on_c, 0, 76, 0
1, 4200, Note_on_c, 0, 77, 64
1, 4260, Note_on_c, 0, 77, 0
1, 4260, Note_on_c, 0, 79, 64
1, 4320, Note_on_c, 0, 79, 0
1, 4320, Note_on_c, 0, 81, 64
1, 4380, Note_on_c, 0, 81, 0
1, 4380, Note_on_c, 0, 79, 64
1, 4440, Note_on_c, 0, 79, 0
1, 4440, Note_on_c, 0, 77, 64
1, 4500, Note_on_c, 0, 77, 0
1, 4500, Note_on_c, 0, 76, 64
1, 4560, Note_on_c, 0, 76, 0
1, 4560, Note_on_c, 0, 60, 64
1, 4560, Note_on_c, 0, 53, 64
1, 4560, Note_on_c, 0, 74, 64
1, 4620, Note_on_c, 0, 74, 0
1, 4620, Note_on_c, 0, 72, 64
1, 4680, Note_on_c, 0, 72, 0
1, 4680, Note_on_c, 0, 71, 64
1, 4740, Note_on_c, 0, 71, 0
1, 4740, Note_on_c, 0, 69, 64
1, 4800, Note_on_c, 0, 69, 0
1, 4800, Note_on_c, 0, 53, 0
1, 4800, Note_on_c, 0, 60, 0
1, 4800, Note_on_c, 0, 67, 64
1, 4800, Note_on_c, 0, 52, 64
1, 4800, Note_on_c, 0, 60, 64
1, 4920, Note_on_c, 0, 67, 0
1, 4920, Note_on_c, 0, 69, 64
1, 4980, Note_on_c, 0, 69, 0
1, 4980, Note_on_c, 0, 71, 64
1, 5040, Note_on_c, 0, 71, 0
1, 5040, Note_on_c, 0, 60, 0
1, 5040, Note_on_c, 0, 52, 0
1, 5040, Note_on_c, 0, 72, 64
1, 5100, Note_on_c, 0, 72, 0
1, 5100, Note_on_c, 0, 74, 64
1, 5160, Note_on_c, 0, 74, 0
1, 5160, Note_on_c, 0, 76, 64
1, 5220, Note_on_c, 0, 76, 0
1, 5220, Note_on_c, 0, 77, 64
1, 5280, Note_on_c, 0, 77, 0
1, 5280, Note_on_c, 0, 79, 64
1, 5340, Note_on_c, 0, 79, 0
1, 5340, Note_on_c, 0, 77, 64
1, 5400, Note_on_c, 0, 77, 0
1, 5400, Note_on_c, 0, 76, 64
1, 5460, Note_on_c, 0, 76, 0
1, 5460, Note_on_c, 0, 74, 64
1, 5520, Note_on_c, 0, 74, 0
1, 5520, Note_on_c, 0, 60, 64
1, 5520, Note_on_c, 0, 52, 64
1, 5520, Note_on_c, 0, 72, 64
1, 5580, Note_on_c, 0, 72, 0
1, 5580, Note_on_c, 0, 71, 64
1, 5640, Note_on_c, 0, 71, 0
1, 5640, Note_on_c, 0, 69, 64
1, 5700, Note_on_c, 0, 69, 0
1, 5700, Note_on_c, 0, 67, 64
1, 5760, Note_on_c, 0, 67, 0
1, 5760, Note_on_c, 0, 52, 0
1, 5760, Note_on_c, 0, 60, 0
1, 5760, Note_on_c, 0, 65, 64
1, 5760, Note_on_c, 0, 50, 64
1, 5760, Note_on_c, 0, 60, 64
1, 5880, Note_on_c, 0, 65, 0
1, 5880, Note_on_c, 0, 67, 64
1, 5940, Note_on_c, 0, 67, 0
1, 5940, Note_on_c, 0, 69, 64
1, 6000, Note_on_c, 0, 69, 0
1, 6000, Note_on_c, 0, 60, 0
1, 6000, Note_on_c, 0, 50, 0
1, 6000, Note_on_c, 0, 71, 64
1, 6060, Note_on_c, 0, 71, 0
1, 6060, Note_on_c, 0, 72, 64
1, 6120, Note_on_c, 0, 72, 0
1, 6120, Note_on_c, 0, 74, 64
1, 6180, Note_on_c, 0, 74, 0
1, 6180, Note_on_c, 0, 76, 64
1, 6240, Note_on_c, 0, 76, 0
1, 6240, Note_on_c, 0, 77, 64
1, 6300, Note_on_c, 0, 77, 0
1, 6300, Note_on_c, 0, 76, 64
1, 6360, Note_on_c, 0, 76, 0
1, 6360, Note_on_c, 0, 74, 64
1, 6420, Note_on_c, 0, 74, 0
1, 6420, Note_on_c, 0, 72, 64
1, 6480, Note_on_c, 0, 72, 0
1, 6480, Note_on_c, 0, 59, 64
1, 6480, Note_on_c, 0, 50, 64
1, 6480, Note_on_c, 0, 71, 64
1, 6540, Note_on_c, 0, 71, 0
1, 6540, Note_on_c, 0, 69, 64
1, 6600, Note_on_c, 0, 69, 0
1, 6600, Note_on_c, 0, 67, 64
1, 6660, Note_on_c, 0, 67, 0
1, 6660, Note_on_c, 0, 65, 64
1, 6720, Note_on_c, 0, 65, 0
1, 6720, Note_on_c, 0, 50, 0
1, 6720, Note_on_c, 0, 59, 0
1, 6720, Note_on_c, 0, 64, 64
1, 6720, Note_on_c, 0, 48, 64
1, 6720, Note_on_c, 0, 60, 64
1, 6840, Note_on_c, 0, 64, 0
1, 6840, Note_on_c, 0, 65, 64
1, 6900, Note_on_c, 0, 65, 0
1, 6900, Note_on_c, 0, 67, 64
1, 6960, Note_on_c, 0, 67, 0
1, 6960, Note_on_c, 0, 60, 0
1, 6960, Note_on_c, 0, 48, 0
1, 6960, Note_on_c, 0, 69, 64
1, 7020, Note_on_c, 0, 69, 0
1, 7020, Note_on_c, 0, 71, 64
1, 7080, Note_on_c, 0, 71, 0
1, 7080, Note_on_c, 0, 72, 64
1, 7140, Note_on_c, 0, 72, 0
1, 7140, Note_on_c, 0, 74, 64
1, 7200, Note_on_c, 0, 74, 0
1, 7200, Note_on_c, 0, 76, 64
1, 7260, Note_on_c, 0, 76, 0
1, 7260, Note_on_c, 0, 74, 64
1, 7320, Note_on_c, 0, 74, 0
1, 7320, Note_on_c, 0, 72, 64
1, 7380, Note_on_c, 0, 72, 0
1, 7380, Note_on_c, 0, 71, 64
1, 7440, Note_on_c, 0, 71, 0
1, 7440, Note_on_c, 0, 52, 64
1, 7440, Note_on_c, 0, 48, 64
1, 7440, Note_on_c, 0, 69, 64
1, 7500, Note_on_c, 0, 69, 0
1, 7500, Note_on_c, 0, 67, 64
1, 7560, Note_on_c, 0, 67, 0
1, 7560, Note_on_c, 0, 65, 64
1, 7620, Note_on_c, 0, 65, 0
1, 7620, Note_on_c, 0, 64, 64
1, 7680, Note_on_c, 0, 64, 0
1, 7680, Note_on_c, 0, 48, 0
1, 7680, Note_on_c, 0, 52, 0
1, 7680, Note_on_c, 0, 57, 64
1, 7680, Note_on_c, 0, 53, 64
1, 7680, Note_on_c, 0, 62, 64
1, 7800, Note_on_c, 0, 62, 0
1, 7800, Note_on_c, 0, 64, 64
1, 7860, Note_on_c, 0, 64, 0
1, 7860, Note_on_c, 0, 65, 64
1, 7920, Note_on_c, 0, 65, 0
1, 7920, Note_on_c, 0, 67, 64
1, 7980, Note_on_c, 0, 67, 0
1, 7980, Note_on_c, 0, 69, 64
1, 8040, Note_on_c, 0, 69, 0
1, 8040, Note_on_c, 0, 71, 64
1, 8100, Note_on_c, 0, 71, 0
1, 8100, Note_on_c, 0, 73, 64
1, 8160, Note_on_c, 0, 73, 0
1, 8160, Note_on_c, 0, 74, 64
1, 8220, Note_on_c, 0, 74, 0
1, 8220, Note_on_c, 0, 69, 64
1, 8280, Note_on_c, 0, 69, 0
1, 8280, Note_on_c, 0, 71, 64
1, 8340, Note_on_c, 0, 71, 0
1, 8340, Note_on_c, 0, 73, 64
1, 8400, Note_on_c, 0, 73, 0
1, 8400, Note_on_c, 0, 74, 64
1, 8460, Note_on_c, 0, 74, 0
1, 8460, Note_on_c, 0, 76, 64
1, 8520, Note_on_c, 0, 76, 0
1, 8520, Note_on_c, 0, 77, 64
1, 8580, Note_on_c, 0, 77, 0
1, 8580, Note_on_c, 0, 79, 64
1, 8640, Note_on_c, 0, 79, 0
1, 8640, Note_on_c, 0, 53, 0
1, 8640, Note_on_c, 0, 57, 0
1, 8640, Note_on_c, 0, 81, 64
1, 8640, Note_on_c, 0, 53, 64
1, 8700, Note_on_c, 0, 81, 0
1, 8700, Note_on_c, 0, 83, 64
1, 8760, Note_on_c, 0, 83, 0
1, 8760, Note_on_c, 0, 84, 64
1, 8820, Note_on_c, 0, 84, 0
1, 8820, Note_on_c, 0, 83, 64
1, 8880, Note_on_c, 0, 83, 0
1, 8880, Note_on_c, 0, 81, 64
1, 8940, Note_on_c, 0, 81, 0
1, 8940, Note_on_c, 0, 79, 64
1, 9000, Note_on_c, 0, 79, 0
1, 9000, Note_on_c, 0, 53, 0
1, 9000, Note_on_c, 0, 77, 64
1, 9000, Note_on_c, 0, 55, 64
1, 9060, Note_on_c, 0, 77, 0
1, 9060, Note_on_c, 0, 76, 64
1, 9120, Note_on_c, 0, 76, 0
1, 9120, Note_on_c, 0, 55, 0
1, 9120, Note_on_c, 0, 77, 64
1, 9120, Note_on_c, 0, 57, 64
1, 9180, Note_on_c, 0, 77, 0
1, 9180, Note_on_c, 0, 79, 64
1, 9240, Note_on_c, 0, 79, 0
1, 9240, Note_on_c, 0, 81, 64
1, 9300, Note_on_c, 0, 81, 0
1, 9300, Note_on_c, 0, 79, 64
1, 9360, Note_on_c, 0, 79, 0
1, 9360, Note_on_c, 0, 57, 0
1, 9360, Note_on_c, 0, 54, 64
1, 9360, Note_on_c, 0, 77, 64
1, 9420, Note_on_c, 0, 77, 0
1, 9420, Note_on_c, 0, 76, 64
1, 9480, Note_on_c, 0, 76, 0
1, 9480, Note_on_c, 0, 74, 64
1, 9540, Note_on_c, 0, 74, 0
1, 9540, Note_on_c, 0, 72, 64
1, 9600, Note_on_c, 0, 72, 0
1, 9600, Note_on_c, 0, 54, 0
1, 9600, Note_on_c, 0, 71, 64
1, 9600, Note_on_c, 0, 43, 64
1, 9660, Note_on_c, 0, 43, 0
1, 9660, Note_on_c, 0, 47, 64
1, 9720, Note_on_c, 0, 47, 0
1, 9720, Note_on_c, 0, 71, 0
1, 9720, Note_on_c, 0, 79, 64
1, 9720, Note_on_c, 0, 50, 64
1, 9780, Note_on_c, 0, 50, 0
1, 9780, Note_on_c, 0, 55, 64
1, 9840, Note_on_c, 0, 55, 0
1, 9840, Note_on_c, 0, 79, 0
1, 9840, Note_on_c, 0, 76, 64
1, 9840, Note_on_c, 0, 43, 64
1, 9900, Note_on_c, 0, 43, 0
1, 9900, Note_on_c, 0, 48, 64
1, 9930, Note_on_c, 0, 76, 0
1, 9960, Note_on_c, 0, 48, 0
1, 9960, Note_on_c, 0, 72, 64
1, 9960, Note_on_c, 0, 52, 64
1, 10020, Note_on_c, 0, 52, 0
1, 10020, Note_on_c, 0, 55, 64
1, 10050, Note_on_c, 0, 72, 0
1, 10080, Note_on_c, 0, 55, 0
1, 10080, Note_on_c, 0, 74, 64
1, 10080, Note_on_c, 0, 43, 64
1, 10140, Note_on_c, 0, 43, 0
1, 10140, Note_on_c, 0, 47, 64
1, 10200, Note_on_c, 0, 47, 0
1, 10200, Note_on_c, 0, 74, 0
1, 10200, Note_on_c, 0, 79, 64
1, 10200, Note_on_c, 0, 50, 64
1, 10260, Note_on_c, 0, 50, 0
1, 10260, Note_on_c, 0, 55, 64
1, 10320, Note_on_c, 0, 55, 0
1, 10320, Note_on_c, 0, 79, 0
1, 10320, Note_on_c, 0, 76, 64
1, 10320, Note_on_c, 0, 43, 64
1, 10380, Note_on_c, 0, 43, 0
1, 10380, Note_on_c, 0, 48, 64
1, 10410, Note_on_c, 0, 76, 0
1, 10440, Note_on_c, 0, 48, 0
1, 10440, Note_on_c, 0, 72, 64
1, 10440, Note_on_c, 0, 52, 64
1, 10500, Note_on_c, 0, 52, 0
1, 10500, Note_on_c, 0, 55, 64
1, 10530, Note_on_c, 0, 72, 0
1, 10560, Note_on_c, 0, 55, 0
1, 10560, Note_on_c, 0, 43, 64
1, 10560, Note_on_c, 0, 74, 64
1, 10752, Note_on_c, 0, 74, 0
1, 10752, Note_on_c, 0, 43, 0
1, 10800, Note_on_c, 0, 55, 64
1, 10800, Note_on_c, 0, 79, 64
1, 10800, Note_on_c, 0, 74, 64
1, 10800, Note_on_c, 0, 71, 64
1, 10992, Note_on_c, 0, 71, 0
1, 10992, Note_on_c, 0, 74, 0
1, 10992, Note_on_c, 0, 79, 0
1, 10992, Note_on_c, 0, 55, 0
1, 11040, Note_on_c, 0, 43, 64
1, 11040, Note_on_c, 0, 67, 64
1, 11232, Note_on_c, 0, 67, 0
1, 11232, Note_on_c, 0, 43, 0
1, 11520, Note_on_c, 0, 61, 64
1, 11580, Note_on_c, 0, 61, 0
1, 11580, Note_on_c, 0, 62, 64
1, 11640, Note_on_c, 0, 62, 0
1, 11640, Note_on_c, 0, 61, 64
1, 11700, Note_on_c, 0, 61, 0
1, 11700, Note_on_c, 0, 62, 64
1, 11760, Note_on_c, 0, 62, 0
1, 11760, Note_on_c, 0, 61, 64
1, 11820, Note_on_c, 0, 61, 0
1, 11820, Note_on_c, 0, 62, 64
1, 11880, Note_on_c, 0, 62, 0
1, 11880, Note_on_c, 0, 61, 64
1, 11940, Note_on_c, 0, 61, 0
1, 11940, Note_on_c, 0, 62, 64
1, 12000, Note_on_c, 0, 62, 0
1, 12000, Note_on_c, 0, 60, 64
1, 12060, Note_on_c, 0, 60, 0
1, 12060, Note_on_c, 0, 62, 64
1, 12120, Note_on_c, 0, 62, 0
1, 12120, Note_on_c, 0, 60, 64
1, 12180, Note_on_c, 0, 60, 0
1, 12180, Note_on_c, 0, 62, 64
1, 12240, Note_on_c, 0, 62, 0
1, 12240, Note_on_c, 0, 60, 64
1, 12300, Note_on_c, 0, 60, 0
1, 12300, Note_on_c, 0, 62, 64
1, 12360, Note_on_c, 0, 62, 0
1, 12360, Note_on_c, 0, 60, 64
1, 12420, Note_on_c, 0, 60, 0
1, 12420, Note_on_c, 0, 62, 64
1, 12480, Note_on_c, 0, 62, 0
1, 12480, Note_on_c, 0, 86, 64
1, 12480, Note_on_c, 0, 59, 64
1, 12540, Note_on_c, 0, 59, 0
1, 12540, Note_on_c, 0, 62, 64
1, 12600, Note_on_c, 0, 62, 0
1, 12600, Note_on_c, 0, 86, 0
1, 12600, Note_on_c, 0, 83, 64
1, 12600, Note_on_c, 0, 59, 64
1, 12660, Note_on_c, 0, 59, 0
1, 12660, Note_on_c, 0, 62, 64
1, 12720, Note_on_c, 0, 62, 0
1, 12720, Note_on_c, 0, 83, 0
1, 12720, Note_on_c, 0, 79, 64
1, 12720, Note_on_c, 0, 59, 64
1, 12780, Note_on_c, 0, 59, 0
1, 12780, Note_on_c, 0, 62, 64
1, 12840, Note_on_c, 0, 62, 0
1, 12840, Note_on_c, 0, 59, 64
1, 12900, Note_on_c, 0, 59, 0
1, 12900, Note_on_c, 0, 62, 64
1, 12960, Note_on_c, 0, 62, 0
1, 12960, Note_on_c, 0, 59, 64
1, 13020, Note_on_c, 0, 59, 0
1, 13020, Note_on_c, 0, 62, 64
1, 13080, Note_on_c, 0, 62, 0
1, 13080, Note_on_c, 0, 79, 0
1, 13080, Note_on_c, 0, 81, 64
1, 13080, Note_on_c, 0, 59, 64
1, 13140, Note_on_c, 0, 59, 0
1, 13140, Note_on_c, 0, 81, 0
1, 13140, Note_on_c, 0, 83, 64
1, 13140, Note_on_c, 0, 62, 64
1, 13200, Note_on_c, 0, 62, 0
1, 13200, Note_on_c, 0, 83, 0
1, 13200, Note_on_c, 0, 81, 64
1, 13200, Note_on_c, 0, 59, 64
1, 13260, Note_on_c, 0, 59, 0
1, 13260, Note_on_c, 0, 62, 64
1, 13320, Note_on_c, 0, 62, 0
1, 13320, Note_on_c, 0, 81, 0
1, 13320, Note_on_c, 0, 79, 64
1, 13320, Note_on_c, 0, 59, 64
1, 13380, Note_on_c, 0, 59, 0
1, 13380, Note_on_c, 0, 62, 64
1, 13440, Note_on_c, 0, 62, 0
1, 13440, Note_on_c, 0, 79, 0
1, 13440, Note_on_c, 0, 81, 64
1, 13440, Note_on_c, 0, 60, 64
1, 13470, Note_on_c, 0, 81, 0
1, 13470, Note_on_c, 0, 79, 48
1, 13500, Note_on_c, 0, 79, 0
1, 13500, Note_on_c, 0, 60, 0
1, 13500, Note_on_c, 0, 81, 52
1, 13500, Note_on_c, 0, 62, 64
1, 13530, Note_on_c, 0, 81, 0
1, 13530, Note_on_c, 0, 79, 56
1, 13560, Note_on_c, 0, 79, 0
1, 13560, Note_on_c, 0, 62, 0
1, 13560, Note_on_c, 0, 81, 60
1, 13560, Note_on_c, 0, 59, 64
1, 13590, Note_on_c, 0, 81, 0
1, 13590, Note_on_c, 0, 79, 64
1, 13620, Note_on_c, 0, 79, 0
1, 13620, Note_on_c, 0, 59, 0
1, 13620, Note_on_c, 0, 78, 68
1, 13620, Note_on_c, 0, 62, 64
1, 13670, Note_on_c, 0, 78, 0
1, 13680, Note_on_c, 0, 62, 0
1, 13680, Note_on_c, 0, 78, 64
1, 13680, Note_on_c, 0, 57, 64
1, 13740, Note_on_c, 0, 57, 0
1, 13740, Note_on_c, 0, 62, 64
1, 13800, Note_on_c, 0, 62, 0
1, 13800, Note_on_c, 0, 59, 64
1, 13860, Note_on_c, 0, 59, 0
1, 13860, Note_on_c, 0, 62, 64
1, 13920, Note_on_c, 0, 62, 0
1, 13920, Note_on_c, 0, 78, 0
1, 13920, Note_on_c, 0, 60, 64
1, 13980, Note_on_c, 0, 60, 0
1, 13980, Note_on_c, 0, 62, 64
1, 14040, Note_on_c, 0, 62, 0
1, 14040, Note_on_c, 0, 59, 64
1, 14100, Note_on_c, 0, 59, 0
1, 14100, Note_on_c, 0, 62, 64
1, 14160, Note_on_c, 0, 62, 0
1, 14160, Note_on_c, 0, 60, 64
1, 14220, Note_on_c, 0, 60, 0
1, 14220, Note_on_c, 0, 62, 64
1, 14280, Note_on_c, 0, 62, 0
1, 14280, Note_on_c, 0, 57, 64
1, 14340, Note_on_c, 0, 57, 0
1, 14340, Note_on_c, 0, 62, 64
1, 14400, Note_on_c, 0, 62, 0
1, 14400, Note_on_c, 0, 86, 64
1, 14400, Note_on_c, 0, 59, 64
1, 14460, Note_on_c, 0, 59, 0
1, 14460, Note_on_c, 0, 62, 64
1, 14520, Note_on_c, 0, 62, 0
1, 14520, Note_on_c, 0, 86, 0
1, 14520, Note_on_c, 0, 83, 64
1, 14520, Note_on_c, 0, 59, 64
1, 14580, Note_on_c, 0, 59, 0
1, 14580, Note_on_c, 0, 62, 64
1, 14640, Note_on_c, 0, 62, 0
1, 14640, Note_on_c, 0, 83, 0
1, 14640, Note_on_c, 0, 79, 64
1, 14640, Note_on_c, 0, 59, 64
1, 14700, Note_on_c, 0, 59, 0
1, 14700, Note_on_c, 0, 62, 64
1, 14760, Note_on_c, 0, 62, 0
1, 14760, Note_on_c, 0, 59, 64
1, 14820, Note_on_c, 0, 59, 0
1, 14820, Note_on_c, 0, 62, 64
1, 14880, Note_on_c, 0, 62, 0
1, 14880, Note_on_c, 0, 59, 64
1, 14940, Note_on_c, 0, 59, 0
1, 14940, Note_on_c, 0, 62, 64
1, 15000, Note_on_c, 0, 62, 0
1, 15000, Note_on_c, 0, 79, 0
1, 15000, Note_on_c, 0, 81, 64
1, 15000, Note_on_c, 0, 59, 64
1, 15060, Note_on_c, 0, 59, 0
1, 15060, Note_on_c, 0, 81, 0
1, 15060, Note_on_c, 0, 83, 64
1, 15060, Note_on_c, 0, 62, 64
1, 15120, Note_on_c, 0, 62, 0
1, 15120, Note_on_c, 0, 83, 0
1, 15120, Note_on_c, 0, 81, 64
1, 15120, Note_on_c, 0, 59, 64
1, 15180, Note_on_c, 0, 59, 0
1, 15180, Note_on_c, 0, 62, 64
1, 15240, Note_on_c, 0, 62, 0
1, 15240, Note_on_c, 0, 81, 0
1, 15240, Note_on_c, 0, 79, 64
1, 15240, Note_on_c, 0, 59, 64
1, 15300, Note_on_c, 0, 59, 0
1, 15300, Note_on_c, 0, 62, 64
1, 15360, Note_on_c, 0, 62, 0
1, 15360, Note_on_c, 0, 79, 0
1, 15360, Note_on_c, 0, 81, 64
1, 15360, Note_on_c, 0, 60, 64
1, 15390, Note_on_c, 0, 81, 0
1, 15390, Note_on_c, 0, 79, 48
1, 15420, Note_on_c, 0, 79, 0
1, 15420, Note_on_c, 0, 60, 0
1, 15420, Note_on_c, 0, 81, 52
1, 15420, Note_on_c, 0, 62, 64
1, 15450, Note_on_c, 0, 81, 0
1, 15450, Note_on_c, 0, 79, 56
1, 15480, Note_on_c, 0, 79, 0
1, 15480, Note_on_c, 0, 62, 0
1, 15480, Note_on_c, 0, 81, 59
1, 15480, Note_on_c, 0, 59, 64
1, 15510, Note_on_c, 0, 81, 0
1, 15510, Note_on_c, 0, 79, 63
1, 15540, Note_on_c, 0, 79, 0
1, 15540, Note_on_c, 0, 59, 0
1, 15540, Note_on_c, 0, 78, 68
1, 15540, Note_on_c, 0, 62, 64
1, 15590, Note_on_c, 0, 78, 0
1, 15600, Note_on_c, 0, 62, 0
1, 15600, Note_on_c, 0, 78, 64
1, 15600, Note_on_c, 0, 57, 64
1, 15660, Note_on_c, 0, 57, 0
1, 15660, Note_on_c, 0, 62, 64
1, 15720, Note_on_c, 0, 62, 0
1, 15720, Note_on_c, 0, 59, 64
1, 15780, Note_on_c, 0, 59, 0
1, 15780, Note_on_c, 0, 62, 64
1, 15840, Note_on_c, 0, 62, 0
1, 15840, Note_on_c, 0, 78, 0
1, 15840, Note_on_c, 0, 60, 64
1, 15900, Note_on_c, 0, 60, 0
1, 15900, Note_on_c, 0, 62, 64
1, 15960, Note_on_c, 0, 62, 0
1, 15960, Note_on_c, 0, 59, 64
1, 16020, Note_on_c, 0, 59, 0
1, 16020, Note_on_c, 0, 62, 64
1, 16080, Note_on_c, 0, 62, 0
1, 16080, Note_on_c, 0, 60, 64
1, 16140, Note_on_c, 0, 60, 0
1, 16140, Note_on_c, 0, 62, 64
1, 16200, Note_on_c, 0, 62, 0
1, 16200, Note_on_c, 0, 57, 64
1, 16260, Note_on_c, 0, 57, 0
1, 16260, Note_on_c, 0, 62, 64
1, 16320, Note_on_c, 0, 62, 0
1, 16320, Note_on_c, 0, 86, 64
1, 16380, Note_on_c, 0, 59, 64
1, 16440, Note_on_c, 0, 59, 0
1, 16440, Note_on_c, 0, 62, 64
1, 16500, Note_on_c, 0, 62, 0
1, 16500, Note_on_c, 0, 67, 64
1, 16560, Note_on_c, 0, 67, 0
1, 16560, Note_on_c, 0, 86, 0
1, 16560, Note_on_c, 0, 71, 64
1, 16620, Note_on_c, 0, 86, 64
1, 16680, Note_on_c, 0, 86, 0
1, 16680, Note_on_c, 0, 83, 64
1, 16740, Note_on_c, 0, 83, 0
1, 16740, Note_on_c, 0, 79, 64
1, 16800, Note_on_c, 0, 79, 0
1, 16800, Note_on_c, 0, 71, 0
1, 16800, Note_on_c, 0, 76, 64
1, 16860, Note_on_c, 0, 60, 64
1, 16920, Note_on_c, 0, 60, 0
1, 16920, Note_on_c, 0, 64, 64
1, 16980, Note_on_c, 0, 64, 0
1, 16980, Note_on_c, 0, 67, 64
1, 17040, Note_on_c, 0, 67, 0
1, 17040, Note_on_c, 0, 76, 0
1, 17040, Note_on_c, 0, 72, 64
1, 17100, Note_on_c, 0, 76, 64
1, 17160, Note_on_c, 0, 76, 0
1, 17160, Note_on_c, 0, 79, 64
1, 17220, Note_on_c, 0, 79, 0
1, 17220, Note_on_c, 0, 76, 64
1, 17280, Note_on_c, 0, 76, 0
1, 17280, Note_on_c, 0, 72, 0
1, 17280, Note_on_c, 0, 84, 64
1, 17340, Note_on_c, 0, 57, 64
1, 17400, Note_on_c, 0, 57, 0
1, 17400, Note_on_c, 0, 60, 64
1, 17460, Note_on_c, 0, 60, 0
1, 17460, Note_on_c, 0, 66, 64
1, 17520, Note_on_c, 0, 66, 0
1, 17520, Note_on_c, 0, 84, 0
1, 17520, Note_on_c, 0, 69, 64
1, 17580, Note_on_c, 0, 84, 64
1, 17640, Note_on_c, 0, 84, 0
1, 17640, Note_on_c, 0, 81, 64
1, 17700, Note_on_c, 0, 81, 0
1, 17700, Note_on_c, 0, 78, 64
1, 17760, Note_on_c, 0, 78, 0
1, 17760, Note_on_c, 0, 69, 0
1, 17760, Note_on_c, 0, 74, 64
1, 17820, Note_on_c, 0, 59, 64
1, 17880, Note_on_c, 0, 59, 0
1, 17880, Note_on_c, 0, 62, 64
1, 17940, Note_on_c, 0, 62, 0
1, 17940, Note_on_c, 0, 66, 64
1, 18000, Note_on_c, 0, 66, 0
1, 18000, Note_on_c, 0, 74, 0
1, 18000, Note_on_c, 0, 71, 64
1, 18060, Note_on_c, 0, 74, 64
1, 18120, Note_on_c, 0, 74, 0
1, 18120, Note_on_c, 0, 78, 64
1, 18180, Note_on_c, 0, 78, 0
1, 18180, Note_on_c, 0, 74, 64
1, 18240, Note_on_c, 0, 74, 0
1, 18240, Note_on_c, 0, 71, 0
1, 18240, Note_on_c, 0, 83, 64
1, 18300, Note_on_c, 0, 55, 64
1, 18360, Note_on_c, 0, 55, 0
1, 18360, Note_on_c, 0, 59, 64
1, 18420, Note_on_c, 0, 59, 0
1, 18420, Note_on_c, 0, 64, 64
1, 18480, Note_on_c, 0, 64, 0
1, 18480, Note_on_c, 0, 83, 0
1, 18480, Note_on_c, 0, 67, 64
1, 18540, Note_on_c, 0, 83, 64
1, 18600, Note_on_c, 0, 83, 0
1, 18600, Note_on_c, 0, 79, 64
1, 18660, Note_on_c, 0, 79, 0
1, 18660, Note_on_c, 0, 76, 64
1, 18720, Note_on_c, 0, 76, 0
1, 18720, Note_on_c, 0, 67, 0
1, 18720, Note_on_c, 0, 72, 64
1, 18780, Note_on_c, 0, 57, 64
1, 18840, Note_on_c, 0, 57, 0
1, 18840, Note_on_c, 0, 60, 64
1, 18900, Note_on_c, 0, 60, 0
1, 18900, Note_on_c, 0, 64, 64
1, 18960, Note_on_c, 0, 64, 0
1, 18960, Note_on_c, 0, 72, 0
1, 18960, Note_on_c, 0, 69, 64
1, 19020, Note_on_c, 0, 72, 64
1, 19080, Note_on_c, 0, 72, 0
1, 19080, Note_on_c, 0, 76, 64
1, 19140, Note_on_c, 0, 76, 0
1, 19140, Note_on_c, 0, 72, 64
1, 19200, Note_on_c, 0, 72, 0
1, 19200, Note_on_c, 0, 69, 0
1, 19200, Note_on_c, 0, 81, 64
1, 19260, Note_on_c, 0, 54, 64
1, 19320, Note_on_c, 0, 54, 0
1, 19320, Note_on_c, 0, 57, 64
1, 19380, Note_on_c, 0, 57, 0
1, 19380, Note_on_c, 0, 62, 64
1, 19440, Note_on_c, 0, 62, 0
1, 19440, Note_on_c, 0, 81, 0
1, 19440, Note_on_c, 0, 66, 64
1, 19500, Note_on_c, 0, 81, 64
1, 19560, Note_on_c, 0, 81, 0
1, 19560, Note_on_c, 0, 78, 64
1, 19620, Note_on_c, 0, 78, 0
1, 19620, Note_on_c, 0, 74, 64
1, 19680, Note_on_c, 0, 74, 0
1, 19680, Note_on_c, 0, 66, 0
1, 19680, Note_on_c, 0, 71, 64
1, 19740, Note_on_c, 0, 55, 64
1, 19800, Note_on_c, 0, 55, 0
1, 19800, Note_on_c, 0, 59, 64
1, 19860, Note_on_c, 0, 59, 0
1, 19860, Note_on_c, 0, 62, 64
1, 19920, Note_on_c, 0, 62, 0
1, 19920, Note_on_c, 0, 71, 0
1, 19920, Note_on_c, 0, 67, 64
1, 19980, Note_on_c, 0, 79, 64
1, 20040, Note_on_c, 0, 79, 0
1, 20040, Note_on_c, 0, 74, 64
1, 20100, Note_on_c, 0, 74, 0
1, 20100, Note_on_c, 0, 71, 64
1, 20160, Note_on_c, 0, 71, 0
1, 20160, Note_on_c, 0, 67, 0
1, 20160, Note_on_c, 0, 64, 64
1, 20160, Note_on_c, 0, 60, 64
1, 20160, Note_on_c, 0, 69, 64
1, 20256, Note_on_c, 0, 60, 0
1, 20256, Note_on_c, 0, 64, 0
1, 20280, Note_on_c, 0, 64, 64
1, 20280, Note_on_c, 0, 60, 64
1, 20376, Note_on_c, 0, 60, 0
1, 20376, Note_on_c, 0, 64, 0
1, 20400, Note_on_c, 0, 64, 64
1, 20400, Note_on_c, 0, 60, 64
1, 20496, Note_on_c, 0, 60, 0
1, 20496, Note_on_c, 0, 64, 0
1, 20520, Note_on_c, 0, 64, 64
1, 20520, Note_on_c, 0, 60, 64
1, 20616, Note_on_c, 0, 60, 0
1, 20616, Note_on_c, 0, 64, 0
1, 20640, Note_on_c, 0, 69, 0
1, 20640, Note_on_c, 0, 64, 64
1, 20640, Note_on_c, 0, 60, 64
1, 20640, Note_on_c, 0, 71, 72
1, 20670, Note_on_c, 0, 71, 0
1, 20670, Note_on_c, 0, 72, 64
1, 20736, Note_on_c, 0, 60, 0
1, 20736, Note_on_c, 0, 64, 0
1, 20760, Note_on_c, 0, 64, 64
1, 20760, Note_on_c, 0, 60, 64
1, 20856, Note_on_c, 0, 60, 0
1, 20856, Note_on_c, 0, 64, 0
1, 20880, Note_on_c, 0, 72, 0
1, 20880, Note_on_c, 0, 64, 64
1, 20880, Note_on_c, 0, 60, 64
1, 20880, Note_on_c, 0, 75, 72
1, 20910, Note_on_c, 0, 75, 0
1, 20910, Note_on_c, 0, 76, 64
1, 20976, Note_on_c, 0, 60, 0
1, 20976, Note_on_c, 0, 64, 0
1, 21000, Note_on_c, 0, 60, 64
1, 21000, Note_on_c, 0, 64, 64
1, 21096, Note_on_c, 0, 64, 0
1, 21096, Note_on_c, 0, 60, 0
1, 21120, Note_on_c, 0, 76, 0
1, 21120, Note_on_c, 0, 64, 64
1, 21120, Note_on_c, 0, 60, 64
1, 21120, Note_on_c, 0, 80, 72
1, 21150, Note_on_c, 0, 80, 0
1, 21150, Note_on_c, 0, 81, 64
1, 21216, Note_on_c, 0, 60, 0
1, 21216, Note_on_c, 0, 64, 0
1, 21240, Note_on_c, 0, 64, 64
1, 21240, Note_on_c, 0, 60, 64
1, 21336, Note_on_c, 0, 60, 0
1, 21336, Note_on_c, 0, 64, 0
1, 21360, Note_on_c, 0, 64, 64
1, 21360, Note_on_c, 0, 60, 64
1, 21456, Note_on_c, 0, 60, 0
1, 21456, Note_on_c, 0, 64, 0
1, 21480, Note_on_c, 0, 81, 0
1, 21480, Note_on_c, 0, 64, 64
1, 21480, Note_on_c, 0, 60, 64
1, 21480, Note_on_c, 0, 83, 64
1, 21510, Note_on_c, 0, 83, 0
1, 21510, Note_on_c, 0, 81, 64
1, 21540, Note_on_c, 0, 81, 0
1, 21540, Note_on_c, 0, 80, 64
1, 21570, Note_on_c, 0, 80, 0
1, 21570, Note_on_c, 0, 81, 64
1, 21576, Note_on_c, 0, 60, 0
1, 21576, Note_on_c, 0, 64, 0
1, 21600, Note_on_c, 0, 81, 0
1, 21600, Note_on_c, 0, 64, 64
1, 21600, Note_on_c, 0, 60, 64
1, 21600, Note_on_c, 0, 84, 64
1, 21696, Note_on_c, 0, 60, 0
1, 21696, Note_on_c, 0, 64, 0
1, 21720, Note_on_c, 0, 84, 0
1, 21720, Note_on_c, 0, 64, 64
1, 21720, Note_on_c, 0, 60, 64
1, 21720, Note_on_c, 0, 81, 64
1, 21816, Note_on_c, 0, 60, 0
1, 21816, Note_on_c, 0, 64, 0
1, 21840, Note_on_c, 0, 81, 0
1, 21840, Note_on_c, 0, 64, 64
1, 21840, Note_on_c, 0, 60, 64
1, 21840, Note_on_c, 0, 84, 64
1, 21936, Note_on_c, 0, 60, 0
1, 21936, Note_on_c, 0, 64, 0
1, 21960, Note_on_c, 0, 84, 0
1, 21960, Note_on_c, 0, 60, 64
1, 21960, Note_on_c, 0, 64, 64
1, 21960, Note_on_c, 0, 81, 64
1, 22056, Note_on_c, 0, 64, 0
1, 22056, Note_on_c, 0, 60, 0
1, 22080, Note_on_c, 0, 81, 0
1, 22080, Note_on_c, 0, 83, 64
1, 22080, Note_on_c, 0, 62, 64
1, 22140, Note_on_c, 0, 62, 0
1, 22140, Note_on_c, 0, 71, 64
1, 22200, Note_on_c, 0, 71, 0
1, 22200, Note_on_c, 0, 83, 0
1, 22200, Note_on_c, 0, 79, 64
1, 22200, Note_on_c, 0, 67, 64
1, 22260, Note_on_c, 0, 67, 0
1, 22260, Note_on_c, 0, 71, 64
1, 22320, Note_on_c, 0, 71, 0
1, 22320, Note_on_c, 0, 79, 0
1, 22320, Note_on_c, 0, 86, 64
1, 22320, Note_on_c, 0, 62, 64
1, 22380, Note_on_c, 0, 62, 0
1, 22380, Note_on_c, 0, 71, 64
1, 22440, Note_on_c, 0, 71, 0
1, 22440, Note_on_c, 0, 67, 64
1, 22500, Note_on_c, 0, 67, 0
1, 22500, Note_on_c, 0, 71, 64
1, 22560, Note_on_c, 0, 71, 0
1, 22560, Note_on_c, 0, 62, 64
1, 22620, Note_on_c, 0, 62, 0
1, 22620, Note_on_c, 0, 71, 64
1, 22680, Note_on_c, 0, 71, 0
1, 22680, Note_on_c, 0, 67, 64
1, 22740, Note_on_c, 0, 67, 0
1, 22740, Note_on_c, 0, 71, 64
1, 22800, Note_on_c, 0, 71, 0
1, 22800, Note_on_c, 0, 86, 0
1, 22800, Note_on_c, 0, 84, 64
1, 22800, Note_on_c, 0, 62, 64
1, 22860, Note_on_c, 0, 62, 0
1, 22860, Note_on_c, 0, 84, 0
1, 22860, Note_on_c, 0, 83, 64
1, 22860, Note_on_c, 0, 71, 64
1, 22920, Note_on_c, 0, 71, 0
1, 22920, Note_on_c, 0, 83, 0
1, 22920, Note_on_c, 0, 81, 64
1, 22920, Note_on_c, 0, 67, 64
1, 22980, Note_on_c, 0, 67, 0
1, 22980, Note_on_c, 0, 81, 0
1, 22980, Note_on_c, 0, 71, 64
1, 22980, Note_on_c, 0, 79, 64
1, 23040, Note_on_c, 0, 79, 0
1, 23040, Note_on_c, 0, 71, 0
1, 23040, Note_on_c, 0, 83, 64
1, 23040, Note_on_c, 0, 62, 64
1, 23070, Note_on_c, 0, 83, 0
1, 23070, Note_on_c, 0, 81, 48
1, 23100, Note_on_c, 0, 62, 0
1, 23100, Note_on_c, 0, 72, 48
1, 23100, Note_on_c, 0, 83, 48
1, 23103, Note_on_c, 0, 81, 0
1, 23130, Note_on_c, 0, 81, 49
1, 23133, Note_on_c, 0, 83, 0
1, 23160, Note_on_c, 0, 66, 49
1, 23160, Note_on_c, 0, 83, 49
1, 23163, Note_on_c, 0, 81, 0
1, 23166, Note_on_c, 0, 72, 0
1, 23190, Note_on_c, 0, 81, 50
1, 23193, Note_on_c, 0, 83, 0
1, 23220, Note_on_c, 0, 72, 50
1, 23220, Note_on_c, 0, 83, 50
1, 23223, Note_on_c, 0, 81, 0
1, 23226, Note_on_c, 0, 66, 0
1, 23250, Note_on_c, 0, 81, 51
1, 23253, Note_on_c, 0, 83, 0
1, 23280, Note_on_c, 0, 62, 52
1, 23280, Note_on_c, 0, 83, 52
1, 23283, Note_on_c, 0, 81, 0
1, 23286, Note_on_c, 0, 72, 0
1, 23310, Note_on_c, 0, 81, 52
1, 23313, Note_on_c, 0, 83, 0
1, 23340, Note_on_c, 0, 72, 53
1, 23340, Note_on_c, 0, 83, 53
1, 23343, Note_on_c, 0, 81, 0
1, 23346, Note_on_c, 0, 62, 0
1, 23370, Note_on_c, 0, 81, 53
1, 23373, Note_on_c, 0, 83, 0
1, 23400, Note_on_c, 0, 66, 54
1, 23400, Note_on_c, 0, 83, 54
1, 23403, Note_on_c, 0, 81, 0
1, 23406, Note_on_c, 0, 72, 0
1, 23430, Note_on_c, 0, 81, 54
1, 23433, Note_on_c, 0, 83, 0
1, 23460, Note_on_c, 0, 72, 55
1, 23460, Note_on_c, 0, 83, 55
1, 23463, Note_on_c, 0, 81, 0
1, 23466, Note_on_c, 0, 66, 0
1, 23490, Note_on_c, 0, 81, 56
1, 23493, Note_on_c, 0, 83, 0
1, 23520, Note_on_c, 0, 62, 56
1, 23520, Note_on_c, 0, 83, 56
1, 23523, Note_on_c, 0, 81, 0
1, 23526, Note_on_c, 0, 72, 0
1, 23550, Note_on_c, 0, 81, 57
1, 23553, Note_on_c, 0, 83, 0
1, 23580, Note_on_c, 0, 72, 57
1, 23580, Note_on_c, 0, 83, 57
1, 23583, Note_on_c, 0, 81, 0
1, 23586, Note_on_c, 0, 62, 0
1, 23610, Note_on_c, 0, 81, 58
1, 23613, Note_on_c, 0, 83, 0
1, 23640, Note_on_c, 0, 66, 58
1, 23640, Note_on_c, 0, 83, 58
1, 23643, Note_on_c, 0, 81, 0
1, 23646, Note_on_c, 0, 72, 0
1, 23670, Note_on_c, 0, 81, 59
1, 23673, Note_on_c, 0, 83, 0
1, 23700, Note_on_c, 0, 72, 59
1, 23700, Note_on_c, 0, 83, 59
1, 23703, Note_on_c, 0, 81, 0
1, 23706, Note_on_c, 0, 66, 0
1, 23730, Note_on_c, 0, 81, 60
1, 23733, Note_on_c, 0, 83, 0
1, 23760, Note_on_c, 0, 62, 61
1, 23760, Note_on_c, 0, 83, 61
1, 23763, Note_on_c, 0, 81, 0
1, 23766, Note_on_c, 0, 72, 0
1, 23790, Note_on_c, 0, 81, 61
1, 23793, Note_on_c, 0, 83, 0
1, 23820, Note_on_c, 0, 72, 62
1, 23820, Note_on_c, 0, 83, 62
1, 23823, Note_on_c, 0, 81, 0
1, 23826, Note_on_c, 0, 62, 0
1, 23850, Note_on_c, 0, 81, 62
1, 23853, Note_on_c, 0, 83, 0
1, 23880, Note_on_c, 0, 66, 63
1, 23880, Note_on_c, 0, 83, 63
1, 23883, Note_on_c, 0, 81, 0
1, 23886, Note_on_c, 0, 72, 0
1, 23910, Note_on_c, 0, 81, 63
1, 23913, Note_on_c, 0, 83, 0
1, 23940, Note_on_c, 0, 72, 64
1, 23940, Note_on_c, 0, 79, 64
1, 23943, Note_on_c, 0, 81, 0
1, 23946, Note_on_c, 0, 66, 0
1, 23970, Note_on_c, 0, 79, 0
1, 23970, Note_on_c, 0, 81, 64
1, 24000, Note_on_c, 0, 81, 0
1, 24000, Note_on_c, 0, 72, 0
1, 24000, Note_on_c, 0, 79, 64
1, 24000, Note_on_c, 0, 67, 64
1, 24000, Note_on_c, 0, 71, 64
1, 24240, Note_on_c, 0, 71, 0
1, 24240, Note_on_c, 0, 67, 0
1, 24240, Note_on_c, 0, 79, 0
1, 24240, Note_on_c, 0, 79, 64
1, 24300, Note_on_c, 0, 79, 0
1, 24300, Note_on_c, 0, 74, 64
1, 24360, Note_on_c, 0, 74, 0
1, 24360, Note_on_c, 0, 79, 64
1, 24420, Note_on_c, 0, 79, 0
1, 24420, Note_on_c, 0, 83, 64
1, 24480, Note_on_c, 0, 83, 0
1, 24480, Note_on_c, 0, 86, 64
1, 24540, Note_on_c, 0, 86, 0
1, 24540, Note_on_c, 0, 83, 64
1, 24600, Note_on_c, 0, 83, 0
1, 24600, Note_on_c, 0, 79, 64
1, 24660, Note_on_c, 0, 79, 0
1, 24660, Note_on_c, 0, 83, 64
1, 24720, Note_on_c, 0, 83, 0
1, 24720, Note_on_c, 0, 72, 64
1, 24720, Note_on_c, 0, 69, 64
1, 24720, Note_on_c, 0, 62, 64
1, 24720, Note_on_c, 0, 84, 64
1, 24780, Note_on_c, 0, 84, 0
1, 24780, Note_on_c, 0, 81, 64
1, 24840, Note_on_c, 0, 81, 0
1, 24840, Note_on_c, 0, 78, 64
1, 24900, Note_on_c, 0, 78, 0
1, 24900, Note_on_c, 0, 81, 64
1, 24960, Note_on_c, 0, 81, 0
1, 24960, Note_on_c, 0, 62, 0
1, 24960, Note_on_c, 0, 69, 0
1, 24960, Note_on_c, 0, 72, 0
1, 24960, Note_on_c, 0, 67, 64
1, 24960, Note_on_c, 0, 79, 64
1, 24960, Note_on_c, 0, 71, 64
1, 25200, Note_on_c, 0, 71, 0
1, 25200, Note_on_c, 0, 79, 0
1, 25200, Note_on_c, 0, 67, 0
1, 25200, Note_on_c, 0, 67, 64
1, 25260, Note_on_c, 0, 67, 0
1, 25260, Note_on_c, 0, 62, 64
1, 25320, Note_on_c, 0, 62, 0
1, 25320, Note_on_c, 0, 67, 64
1, 25380, Note_on_c, 0, 67, 0
1, 25380, Note_on_c, 0, 71, 64
1, 25440, Note_on_c, 0, 71, 0
1, 25440, Note_on_c, 0, 74, 64
1, 25500, Note_on_c, 0, 74, 0
1, 25500, Note_on_c, 0, 71, 64
1, 25560, Note_on_c, 0, 71, 0
1, 25560, Note_on_c, 0, 67, 64
1, 25620, Note_on_c, 0, 67, 0
1, 25620, Note_on_c, 0, 71, 64
1, 25680, Note_on_c, 0, 71, 0
1, 25680, Note_on_c, 0, 72, 64
1, 25680, Note_on_c, 0, 60, 64
1, 25680, Note_on_c, 0, 57, 64
1, 25680, Note_on_c, 0, 50, 64
1, 25740, Note_on_c, 0, 72, 0
1, 25740, Note_on_c, 0, 69, 64
1, 25800, Note_on_c, 0, 69, 0
1, 25800, Note_on_c, 0, 66, 64
1, 25860, Note_on_c, 0, 66, 0
1, 25860, Note_on_c, 0, 69, 64
1, 25920, Note_on_c, 0, 69, 0
1, 25920, Note_on_c, 0, 50, 0
1, 25920, Note_on_c, 0, 57, 0
1, 25920, Note_on_c, 0, 60, 0
1, 25920, Note_on_c, 0, 59, 64
1, 25920, Note_on_c, 0, 55, 64
1, 25920, Note_on_c, 0, 67, 64
1, 26040, Tempo, 461538
1, 26112, Note_on_c, 0, 67, 0
1, 26112, Note_on_c, 0, 55, 0
1, 26112, Note_on_c, 0, 59, 0
1, 26160, Note_on_c, 0, 55, 64
1, 26160, Note_on_c, 0, 43, 64
1, 26160, Note_on_c, 0, 83, 64
1, 26160, Note_on_c, 0, 74, 64
1, 26208, Tempo, 472441
1, 26352, Note_on_c, 0, 74, 0
1, 26352, Note_on_c, 0, 83, 0
1, 26352, Note_on_c, 0, 43, 0
1, 26352, Note_on_c, 0, 55, 0
1, 26376, Tempo, 483871
1, 26400, Note_on_c, 0, 55, 64
1, 26400, Note_on_c, 0, 43, 64
1, 26400, Note_on_c, 0, 79, 64
1, 26400, Note_on_c, 0, 71, 64
1, 26592, Note_on_c, 0, 71, 0
1, 26592, Note_on_c, 0, 79, 0
1, 26592, Note_on_c, 0, 43, 0
1, 26592, Note_on_c, 0, 55, 0
1, 26880, Tempo, 454545
1, 26880, Note_on_c, 0, 72, 64
1, 26880, Note_on_c, 0, 60, 64
1, 27000, Note_on_c, 0, 60, 0
1, 27000, Note_on_c, 0, 67, 64
1, 27120, Note_on_c, 0, 67, 0
1, 27120, Note_on_c, 0, 64, 64
1, 27240, Note_on_c, 0, 64, 0
1, 27240, Note_on_c, 0, 67, 64
1, 27360, Note_on_c, 0, 67, 0
1, 27360, Note_on_c, 0, 72, 0
1, 27360, Note_on_c, 0, 76, 64
1, 27360, Note_on_c, 0, 60, 64
1, 27480, Note_on_c, 0, 60, 0
1, 27480, Note_on_c, 0, 67, 64
1, 27600, Note_on_c, 0, 67, 0
1, 27600, Note_on_c, 0, 76, 0
1, 27600, Note_on_c, 0, 79, 64
1, 27600, Note_on_c, 0, 64, 64
1, 27720, Note_on_c, 0, 64, 0
1, 27720, Note_on_c, 0, 67, 64
1, 27840, Note_on_c, 0, 67, 0
1, 27840, Note_on_c, 0, 79, 0
1, 27840, Note_on_c, 0, 71, 64
1, 27840, Note_on_c, 0, 62, 64
1, 27960, Note_on_c, 0, 62, 0
1, 27960, Note_on_c, 0, 67, 64
1, 28080, Note_on_c, 0, 67, 0
1, 28080, Note_on_c, 0, 65, 64
1, 28200, Note_on_c, 0, 65, 0
1, 28200, Note_on_c, 0, 71, 0
1, 28200, Note_on_c, 0, 72, 64
1, 28200, Note_on_c, 0, 67, 64
1, 28260, Note_on_c, 0, 72, 0
1, 28260, Note_on_c, 0, 74, 64
1, 28320, Note_on_c, 0, 74, 0
1, 28320, Note_on_c, 0, 67, 0
1, 28320, Note_on_c, 0, 72, 64
1, 28320, Note_on_c, 0, 60, 64
1, 28440, Note_on_c, 0, 60, 0
1, 28440, Note_on_c, 0, 67, 64
1, 28560, Note_on_c, 0, 67, 0
1, 28560, Note_on_c, 0, 64, 64
1, 28680, Note_on_c, 0, 64, 0
1, 28680, Note_on_c, 0, 67, 64
1, 28800, Note_on_c, 0, 67, 0
1, 28800, Note_on_c, 0, 72, 0
1, 28800, Note_on_c, 0, 81, 64
1, 28800, Note_on_c, 0, 60, 64
1, 28920, Note_on_c, 0, 60, 0
1, 28920, Note_on_c, 0, 69, 64
1, 29040, Note_on_c, 0, 69, 0
1, 29040, Note_on_c, 0, 65, 64
1, 29160, Note_on_c, 0, 65, 0
1, 29160, Note_on_c, 0, 69, 64
1, 29280, Note_on_c, 0, 69, 0
1, 29280, Note_on_c, 0, 81, 0
1, 29280, Note_on_c, 0, 79, 64
1, 29280, Note_on_c, 0, 60, 64
1, 29400, Note_on_c, 0, 60, 0
1, 29400, Note_on_c, 0, 67, 64
1, 29520, Note_on_c, 0, 67, 0
1, 29520, Note_on_c, 0, 79, 0
1, 29520, Note_on_c, 0, 84, 64
1, 29520, Note_on_c, 0, 64, 64
1, 29640, Note_on_c, 0, 64, 0
1, 29640, Note_on_c, 0, 67, 64
1, 29760, Note_on_c, 0, 67, 0
1, 29760, Note_on_c, 0, 84, 0
1, 29760, Note_on_c, 0, 79, 64
1, 29760, Note_on_c, 0, 59, 64
1, 29880, Note_on_c, 0, 59, 0
1, 29880, Note_on_c, 0, 67, 64
1, 30000, Note_on_c, 0, 67, 0
1, 30000, Note_on_c, 0, 79, 0
1, 30000, Note_on_c, 0, 77, 64
1, 30000, Note_on_c, 0, 62, 64
1, 30039, Note_on_c, 0, 77, 0
1, 30039, Note_on_c, 0, 79, 64
1, 30079, Note_on_c, 0, 79, 0
1, 30079, Note_on_c, 0, 77, 64
1, 30119, Note_on_c, 0, 77, 0
1, 30120, Note_on_c, 0, 62, 0
1, 30120, Note_on_c, 0, 76, 64
1, 30120, Note_on_c, 0, 67, 64
1, 30180, Note_on_c, 0, 76, 0
1, 30180, Note_on_c, 0, 77, 64
1, 30240, Note_on_c, 0, 77, 0
1, 30240, Note_on_c, 0, 67, 0
1, 30240, Note_on_c, 0, 76, 64
1, 30240, Note_on_c, 0, 60, 64
1, 30360, Note_on_c, 0, 60, 0
1, 30360, Note_on_c, 0, 67, 64
1, 30480, Note_on_c, 0, 67, 0
1, 30480, Note_on_c, 0, 76, 0
1, 30480, Note_on_c, 0, 64, 64
1, 30600, Note_on_c, 0, 64, 0
1, 30600, Note_on_c, 0, 67, 64
1, 30720, Note_on_c, 0, 67, 0
1, 30720, Note_on_c, 0, 69, 64
1, 30720, Note_on_c, 0, 65, 64
1, 30840, Note_on_c, 0, 69, 0
1, 30840, Note_on_c, 0, 71, 64
1, 30900, Note_on_c, 0, 71, 0
1, 30900, Note_on_c, 0, 72, 64
1, 30960, Note_on_c, 0, 72, 0
1, 30960, Note_on_c, 0, 65, 0
1, 30960, Note_on_c, 0, 74, 64
1, 31020, Note_on_c, 0, 74, 0
1, 31020, Note_on_c, 0, 76, 64
1, 31080, Note_on_c, 0, 76, 0
1, 31080, Note_on_c, 0, 77, 64
1, 31140, Note_on_c, 0, 77, 0
1, 31140, Note_on_c, 0, 79, 64
1, 31200, Note_on_c, 0, 79, 0
1, 31200, Note_on_c, 0, 81, 64
1, 31260, Note_on_c, 0, 81, 0
1, 31260, Note_on_c, 0, 79, 64
1, 31320, Note_on_c, 0, 79, 0
1, 31320, Note_on_c, 0, 77, 64
1, 31380, Note_on_c, 0, 77, 0
1, 31380, Note_on_c, 0, 76, 64
1, 31440, Note_on_c, 0, 76, 0
1, 31440, Note_on_c, 0, 60, 64
1, 31440, Note_on_c, 0, 53, 64
1, 31440, Note_on_c, 0, 74, 64
1, 31500, Note_on_c, 0, 74, 0
1, 31500, Note_on_c, 0, 72, 64
1, 31560, Note_on_c, 0, 72, 0
1, 31560, Note_on_c, 0, 71, 64
1, 31620, Note_on_c, 0, 71, 0
1, 31620, Note_on_c, 0, 69, 64
1, 31680, Note_on_c, 0, 69, 0
1, 31680, Note_on_c, 0, 53, 0
1, 31680, Note_on_c, 0, 60, 0
1, 31680, Note_on_c, 0, 67, 64
1, 31680, Note_on_c, 0, 52, 64
1, 31680, Note_on_c, 0, 60, 64
1, 31800, Note_on_c, 0, 67, 0
1, 31800, Note_on_c, 0, 69, 64
1, 31860, Note_on_c, 0, 69, 0
1, 31860, Note_on_c, 0, 71, 64
1, 31920, Note_on_c, 0, 71, 0
1, 31920, Note_on_c, 0, 60, 0
1, 31920, Note_on_c, 0, 52, 0
1, 31920, Note_on_c, 0, 72, 64
1, 31980, Note_on_c, 0, 72, 0
1, 31980, Note_on_c, 0, 74, 64
1, 32040, Note_on_c, 0, 74, 0
1, 32040, Note_on_c, 0, 76, 64
1, 32100, Note_on_c, 0, 76, 0
1, 32100, Note_on_c, 0, 77, 64
1, 32160, Note_on_c, 0, 77, 0
1, 32160, Note_on_c, 0, 79, 64
1, 32220, Note_on_c, 0, 79, 0
1, 32220, Note_on_c, 0, 77, 64
1, 32280, Note_on_c, 0, 77, 0
1, 32280, Note_on_c, 0, 76, 64
1, 32340, Note_on_c, 0, 76, 0
1, 32340, Note_on_c, 0, 74, 64
1, 32400, Note_on_c, 0, 74, 0
1, 32400, Note_on_c, 0, 60, 64
1, 32400, Note_on_c, 0, 52, 64
1, 32400, Note_on_c, 0, 72, 64
1, 32460, Note_on_c, 0, 72, 0
1, 32460, Note_on_c, 0, 71, 64
1, 32520, Note_on_c, 0, 71, 0
1, 32520, Note_on_c, 0, 69, 64
1, 32580, Note_on_c, 0, 69, 0
1, 32580, Note_on_c, 0, 67, 64
1, 32640, Note_on_c, 0, 67, 0
1, 32640, Note_on_c, 0, 52, 0
1, 32640, Note_on_c, 0, 60, 0
1, 32640, Note_on_c, 0, 65, 64
1, 32640, Note_on_c, 0, 50, 64
1, 32640, Note_on_c, 0, 60, 64
1, 32760, Note_on_c, 0, 65, 0
1, 32760, Note_on_c, 0, 67, 64
1, 32820, Note_on_c, 0, 67, 0
1, 32820, Note_on_c, 0, 69, 64
1, 32880, Note_on_c, 0, 69, 0
1, 32880, Note_on_c, 0, 60, 0
1, 32880, Note_on_c, 0, 50, 0
1, 32880, Note_on_c, 0, 71, 64
1, 32940, Note_on_c, 0, 71, 0
1, 32940, Note_on_c, 0, 72, 64
1, 33000, Note_on_c, 0, 72, 0
1, 33000, Note_on_c, 0, 74, 64
1, 33060, Note_on_c, 0, 74, 0
1, 33060, Note_on_c, 0, 76, 64
1, 33120, Note_on_c, 0, 76, 0
1, 33120, Note_on_c, 0, 77, 64
1, 33180, Note_on_c, 0, 77, 0
1, 33180, Note_on_c, 0, 76, 64
1, 33240, Note_on_c, 0, 76, 0
1, 33240, Note_on_c, 0, 74, 64
1, 33300, Note_on_c, 0, 74, 0
1, 33300, Note_on_c, 0, 72, 64
1, 33360, Note_on_c, 0, 72, 0
1, 33360, Note_on_c, 0, 59, 64
1, 33360, Note_on_c, 0, 50, 64
1, 33360, Note_on_c, 0, 71, 64
1, 33420, Note_on_c, 0, 71, 0
1, 33420, Note_on_c, 0, 69, 64
1, 33480, Note_on_c, 0, 69, 0
1, 33480, Note_on_c, 0, 67, 64
1, 33540, Note_on_c, 0, 67, 0
1, 33540, Note_on_c, 0, 65, 64
1, 33600, Note_on_c, 0, 65, 0
1, 33600, Note_on_c, 0, 50, 0
1, 33600, Note_on_c, 0, 59, 0
1, 33600, Note_on_c, 0, 64, 64
1, 33600, Note_on_c, 0, 48, 64
1, 33600, Note_on_c, 0, 60, 64
1, 33720, Note_on_c, 0, 64, 0
1, 33720, Note_on_c, 0, 65, 64
1, 33780, Note_on_c, 0, 65, 0
1, 33780, Note_on_c, 0, 67, 64
1, 33840, Note_on_c, 0, 67, 0
1, 33840, Note_on_c, 0, 60, 0
1, 33840, Note_on_c, 0, 48, 0
1, 33840, Note_on_c, 0, 69, 64
1, 33900, Note_on_c, 0, 69, 0
1, 33900, Note_on_c, 0, 71, 64
1, 33960, Note_on_c, 0, 71, 0
1, 33960, Note_on_c, 0, 72, 64
1, 34020, Note_on_c, 0, 72, 0
1, 34020, Note_on_c, 0, 74, 64
1, 34080, Note_on_c, 0, 74, 0
1, 34080, Note_on_c, 0, 76, 64
1, 34140, Note_on_c, 0, 76, 0
1, 34140, Note_on_c, 0, 74, 64
1, 34200, Note_on_c, 0, 74, 0
1, 34200, Note_on_c, 0, 72, 64
1, 34260, Note_on_c, 0, 72, 0
1, 34260, Note_on_c, 0, 71, 64
1, 34320, Note_on_c, 0, 71, 0
1, 34320, Note_on_c, 0, 52, 64
1, 34320, Note_on_c, 0, 48, 64
1, 34320, Note_on_c, 0, 69, 64
1, 34380, Note_on_c, 0, 69, 0
1, 34380, Note_on_c, 0, 67, 64
1, 34440, Note_on_c, 0, 67, 0
1, 34440, Note_on_c, 0, 65, 64
1, 34500, Note_on_c, 0, 65, 0
1, 34500, Note_on_c, 0, 64, 64
1, 34560, Note_on_c, 0, 64, 0
1, 34560, Note_on_c, 0, 48, 0
1, 34560, Note_on_c, 0, 52, 0
1, 34560, Note_on_c, 0, 57, 64
1, 34560, Note_on_c, 0, 53, 64
1, 34560, Note_on_c, 0, 62, 64
1, 34680, Note_on_c, 0, 62, 0
1, 34680, Note_on_c, 0, 64, 64
1, 34740, Note_on_c, 0, 64, 0
1, 34740, Note_on_c, 0, 65, 64
1, 34800, Note_on_c, 0, 65, 0
1, 34800, Note_on_c, 0, 67, 64
1, 34860, Note_on_c, 0, 67, 0
1, 34860, Note_on_c, 0, 69, 64
1, 34920, Note_on_c, 0, 69, 0
1, 34920, Note_on_c, 0, 71, 64
1, 34980, Note_on_c, 0, 71, 0
1, 34980, Note_on_c, 0, 73, 64
1, 35040, Note_on_c, 0, 73, 0
1, 35040, Note_on_c, 0, 74, 64
1, 35100, Note_on_c, 0, 74, 0
1, 35100, Note_on_c, 0, 69, 64
1, 35160, Note_on_c, 0, 69, 0
1, 35160, Note_on_c, 0, 71, 64
1, 35220, Note_on_c, 0, 71, 0
1, 35220, Note_on_c, 0, 73, 64
1, 35280, Note_on_c, 0, 73, 0
1, 35280, Note_on_c, 0, 74, 64
1, 35340, Note_on_c, 0, 74, 0
1, 35340, Note_on_c, 0, 76, 64
1, 35400, Note_on_c, 0, 76, 0
1, 35400, Note_on_c, 0, 77, 64
1, 35460, Note_on_c, 0, 77, 0
1, 35460, Note_on_c, 0, 79, 64
1, 35520, Note_on_c, 0, 79, 0
1, 35520, Note_on_c, 0, 53, 0
1, 35520, Note_on_c, 0, 57, 0
1, 35520, Note_on_c, 0, 81, 64
1, 35520, Note_on_c, 0, 53, 64
1, 35580, Note_on_c, 0, 81, 0
1, 35580, Note_on_c, 0, 83, 64
1, 35640, Note_on_c, 0, 83, 0
1, 35640, Note_on_c, 0, 84, 64
1, 35700, Note_on_c, 0, 84, 0
1, 35700, Note_on_c, 0, 83, 64
1, 35760, Note_on_c, 0, 83, 0
1, 35760, Note_on_c, 0, 81, 64
1, 35820, Note_on_c, 0, 81, 0
1, 35820, Note_on_c, 0, 79, 64
1, 35880, Note_on_c, 0, 79, 0
1, 35880, Note_on_c, 0, 53, 0
1, 35880, Note_on_c, 0, 77, 64
1, 35880, Note_on_c, 0, 55, 64
1, 35940, Note_on_c, 0, 77, 0
1, 35940, Note_on_c, 0, 76, 64
1, 36000, Note_on_c, 0, 76, 0
1, 36000, Note_on_c, 0, 55, 0
1, 36000, Note_on_c, 0, 77, 64
1, 36000, Note_on_c, 0, 57, 64
1, 36060, Note_on_c, 0, 77, 0
1, 36060, Note_on_c, 0, 79, 64
1, 36120, Note_on_c, 0, 79, 0
1, 36120, Note_on_c, 0, 81, 64
1, 36180, Note_on_c, 0, 81, 0
1, 36180, Note_on_c, 0, 79, 64
1, 36240, Note_on_c, 0, 79, 0
1, 36240, Note_on_c, 0, 57, 0
1, 36240, Note_on_c, 0, 54, 64
1, 36240, Note_on_c, 0, 77, 64
1, 36300, Note_on_c, 0, 77, 0
1, 36300, Note_on_c, 0, 76, 64
1, 36360, Note_on_c, 0, 76, 0
1, 36360, Note_on_c, 0, 74, 64
1, 36420, Note_on_c, 0, 74, 0
1, 36420, Note_on_c, 0, 72, 64
1, 36480, Note_on_c, 0, 72, 0
1, 36480, Note_on_c, 0, 54, 0
1, 36480, Note_on_c, 0, 71, 64
1, 36480, Note_on_c, 0, 43, 64
1, 36540, Note_on_c, 0, 43, 0
1, 36540, Note_on_c, 0, 47, 64
1, 36600, Note_on_c, 0, 47, 0
1, 36600, Note_on_c, 0, 71, 0
1, 36600, Note_on_c, 0, 79, 64
1, 36600, Note_on_c, 0, 50, 64
1, 36660, Note_on_c, 0, 50, 0
1, 36660, Note_on_c, 0, 55, 64
1, 36720, Note_on_c, 0, 55, 0
1, 36720, Note_on_c, 0, 79, 0
1, 36720, Note_on_c, 0, 76, 64
1, 36720, Note_on_c, 0, 43, 64
1, 36780, Note_on_c, 0, 43, 0
1, 36780, Note_on_c, 0, 48, 64
1, 36810, Note_on_c, 0, 76, 0
1, 36840, Note_on_c, 0, 48, 0
1, 36840, Note_on_c, 0, 72, 64
1, 36840, Note_on_c, 0, 52, 64
1, 36900, Note_on_c, 0, 52, 0
1, 36900, Note_on_c, 0, 55, 64
1, 36930, Note_on_c, 0, 72, 0
1, 36960, Note_on_c, 0, 55, 0
1, 36960, Note_on_c, 0, 74, 64
1, 36960, Note_on_c, 0, 43, 64
1, 37020, Note_on_c, 0, 43, 0
1, 37020, Note_on_c, 0, 47, 64
1, 37080, Note_on_c, 0, 47, 0
1, 37080, Note_on_c, 0, 74, 0
1, 37080, Note_on_c, 0, 79, 64
1, 37080, Note_on_c, 0, 50, 64
1, 37140, Note_on_c, 0, 50, 0
1, 37140, Note_on_c, 0, 55, 64
1, 37200, Note_on_c, 0, 55, 0
1, 37200, Note_on_c, 0, 79, 0
1, 37200, Note_on_c, 0, 76, 64
1, 37200, Note_on_c, 0, 43, 64
1, 37260, Note_on_c, 0, 43, 0
1, 37260, Note_on_c, 0, 48, 64
1, 37290, Note_on_c, 0, 76, 0
1, 37320, Note_on_c, 0, 48, 0
1, 37320, Note_on_c, 0, 72, 64
1, 37320, Note_on_c, 0, 52, 64
1, 37380, Note_on_c, 0, 52, 0
1, 37380, Note_on_c, 0, 55, 64
1, 37410, Note_on_c, 0, 72, 0
1, 37440, Note_on_c, 0, 55, 0
1, 37440, Note_on_c, 0, 43, 64
1, 37440, Note_on_c, 0, 74, 64
1, 37632, Note_on_c, 0, 74, 0
1, 37632, Note_on_c, 0, 43, 0
1, 37680, Note_on_c, 0, 55, 64
1, 37680, Note_on_c, 0, 79, 64
1, 37680, Note_on_c, 0, 74, 64
1, 37680, Note_on_c, 0, 71, 64
1, 37872, Note_on_c, 0, 71, 0
1, 37872, Note_on_c, 0, 74, 0
1, 37872, Note_on_c, 0, 79, 0
1, 37872, Note_on_c, 0, 55, 0
1, 37920, Note_on_c, 0, 43, 64
1, 37920, Note_on_c, 0, 67, 64
1, 38112, Note_on_c, 0, 67, 0
1, 38112, Note_on_c, 0, 43, 0
1, 38400, Note_on_c, 0, 61, 64
1, 38460, Note_on_c, 0, 61, 0
1, 38460, Note_on_c, 0, 62, 64
1, 38520, Note_on_c, 0, 62, 0
1, 38520, Note_on_c, 0, 61, 64
1, 38580, Note_on_c, 0, 61, 0
1, 38580, Note_on_c, 0, 62, 64
1, 38640, Note_on_c, 0, 62, 0
1, 38640, Note_on_c, 0, 61, 64
1, 38700, Note_on_c, 0, 61, 0
1, 38700, Note_on_c, 0, 62, 64
1, 38760, Note_on_c, 0, 62, 0
1, 38760, Note_on_c, 0, 61, 64
1, 38820, Note_on_c, 0, 61, 0
1, 38820, Note_on_c, 0, 62, 64
1, 38880, Note_on_c, 0, 62, 0
1, 38880, Note_on_c, 0, 60, 64
1, 38940, Note_on_c, 0, 60, 0
1, 38940, Note_on_c, 0, 62, 64
1, 39000, Note_on_c, 0, 62, 0
1, 39000, Note_on_c, 0, 60, 64
1, 39060, Note_on_c, 0, 60, 0
1, 39060, Note_on_c, 0, 62, 64
1, 39120, Note_on_c, 0, 62, 0
1, 39120, Note_on_c, 0, 60, 64
1, 39180, Note_on_c, 0, 60, 0
1, 39180, Note_on_c, 0, 62, 64
1, 39240, Note_on_c, 0, 62, 0
1, 39240, Note_on_c, 0, 60, 64
1, 39300, Note_on_c, 0, 60, 0
1, 39300, Note_on_c, 0, 62, 64
1, 39360, Note_on_c, 0, 62, 0
1, 39360, Note_on_c, 0, 86, 64
1, 39360, Note_on_c, 0, 59, 64
1, 39420, Note_on_c, 0, 59, 0
1, 39420, Note_on_c, 0, 62, 64
1, 39480, Note_on_c, 0, 62, 0
1, 39480, Note_on_c, 0, 86, 0
1, 39480, Note_on_c, 0, 83, 64
1, 39480, Note_on_c, 0, 59, 64
1, 39540, Note_on_c, 0, 59, 0
1, 39540, Note_on_c, 0, 62, 64
1, 39600, Note_on_c, 0, 62, 0
1, 39600, Note_on_c, 0, 83, 0
1, 39600, Note_on_c, 0, 79, 64
1, 39600, Note_on_c, 0, 59, 64
1, 39660, Note_on_c, 0, 59, 0
1, 39660, Note_on_c, 0, 62, 64
1, 39720, Note_on_c, 0, 62, 0
1, 39720, Note_on_c, 0, 59, 64
1, 39780, Note_on_c, 0, 59, 0
1, 39780, Note_on_c, 0, 62, 64
1, 39840, Note_on_c, 0, 62, 0
1, 39840, Note_on_c, 0, 59, 64
1, 39900, Note_on_c, 0, 59, 0
1, 39900, Note_on_c, 0, 62, 64
1, 39960, Note_on_c, 0, 62, 0
1, 39960, Note_on_c, 0, 79, 0
1, 39960, Note_on_c, 0, 81, 64
1, 39960, Note_on_c, 0, 59, 64
1, 40020, Note_on_c, 0, 59, 0
1, 40020, Note_on_c, 0, 81, 0
1, 40020, Note_on_c, 0, 83, 64
1, 40020, Note_on_c, 0, 62, 64
1, 40080, Note_on_c, 0, 62, 0
1, 40080, Note_on_c, 0, 83, 0
1, 40080, Note_on_c, 0, 81, 64
1, 40080, Note_on_c, 0, 59, 64
1, 40140, Note_on_c, 0, 59, 0
1, 40140, Note_on_c, 0, 62, 64
1, 40200, Note_on_c, 0, 62, 0
1, 40200, Note_on_c, 0, 81, 0
1, 40200, Note_on_c, 0, 79, 64
1, 40200, Note_on_c, 0, 59, 64
1, 40260, Note_on_c, 0, 59, 0
1, 40260, Note_on_c, 0, 62, 64
1, 40320, Note_on_c, 0, 62, 0
1, 40320, Note_on_c, 0, 79, 0
1, 40320, Note_on_c, 0, 81, 64
1, 40320, Note_on_c, 0, 60, 64
1, 40350, Note_on_c, 0, 81, 0
1, 40350, Note_on_c, 0, 79, 48
1, 40380, Note_on_c, 0, 79, 0
1, 40380, Note_on_c, 0, 60, 0
1, 40380, Note_on_c, 0, 81, 52
1, 40380, Note_on_c, 0, 62, 64
1, 40410, Note_on_c, 0, 81, 0
1, 40410, Note_on_c, 0, 79, 56
1, 40440, Note_on_c, 0, 79, 0
1, 40440, Note_on_c, 0, 62, 0
1, 40440, Note_on_c, 0, 81, 60
1, 40440, Note_on_c, 0, 59, 64
1, 40470, Note_on_c, 0, 81, 0
1, 40470, Note_on_c, 0, 79, 64
1, 40500, Note_on_c, 0, 79, 0
1, 40500, Note_on_c, 0, 59, 0
1, 40500, Note_on_c, 0, 78, 68
1, 40500, Note_on_c, 0, 62, 64
1, 40550, Note_on_c, 0, 78, 0
1, 40560, Note_on_c, 0, 62, 0
1, 40560, Note_on_c, 0, 78, 64
1, 40560, Note_on_c, 0, 57, 64
1, 40620, Note_on_c, 0, 57, 0
1, 40620, Note_on_c, 0, 62, 64
1, 40680, Note_on_c, 0, 62, 0
1, 40680, Note_on_c, 0, 59, 64
1, 40740, Note_on_c, 0, 59, 0
1, 40740, Note_on_c, 0, 62, 64
1, 40800, Note_on_c, 0, 62, 0
1, 40800, Note_on_c, 0, 78, 0
1, 40800, Note_on_c, 0, 60, 64
1, 40860, Note_on_c, 0, 60, 0
1, 40860, Note_on_c, 0, 62, 64
1, 40920, Note_on_c, 0, 62, 0
1, 40920, Note_on_c, 0, 59, 64
1, 40980, Note_on_c, 0, 59, 0
1, 40980, Note_on_c, 0, 62, 64
1, 41040, Note_on_c, 0, 62, 0
1, 41040, Note_on_c, 0, 60, 64
1, 41100, Note_on_c, 0, 60, 0
1, 41100, Note_on_c, 0, 62, 64
1, 41160, Note_on_c, 0, 62, 0
1, 41160, Note_on_c, 0, 57, 64
1, 41220, Note_on_c, 0, 57, 0
1, 41220, Note_on_c, 0, 62, 64
1, 41280, Note_on_c, 0, 62, 0
1, 41280, Note_on_c, 0, 86, 64
1, 41280, Note_on_c, 0, 59, 64
1, 41340, Note_on_c, 0, 59, 0
1, 41340, Note_on_c, 0, 62, 64
1, 41400, Note_on_c, 0, 62, 0
1, 41400, Note_on_c, 0, 86, 0
1, 41400, Note_on_c, 0, 83, 64
1, 41400, Note_on_c, 0, 59, 64
1, 41460, Note_on_c, 0, 59, 0
1, 41460, Note_on_c, 0, 62, 64
1, 41520, Note_on_c, 0, 62, 0
1, 41520, Note_on_c, 0, 83, 0
1, 41520, Note_on_c, 0, 79, 64
1, 41520, Note_on_c, 0, 59, 64
1, 41580, Note_on_c, 0, 59, 0
1, 41580, Note_on_c, 0, 62, 64
1, 41640, Note_on_c, 0, 62, 0
1, 41640, Note_on_c, 0, 59, 64
1, 41700, Note_on_c, 0, 59, 0
1, 41700, Note_on_c, 0, 62, 64
1, 41760, Note_on_c, 0, 62, 0
1, 41760, Note_on_c, 0, 59, 64
1, 41820, Note_on_c, 0, 59, 0
1, 41820, Note_on_c, 0, 62, 64
1, 41880, Note_on_c, 0, 62, 0
1, 41880, Note_on_c, 0, 79, 0
1, 41880, Note_on_c, 0, 81, 64
1, 41880, Note_on_c, 0, 59, 64
1, 41940, Note_on_c, 0, 59, 0
1, 41940, Note_on_c, 0, 81, 0
1, 41940, Note_on_c, 0, 83, 64
1, 41940, Note_on_c, 0, 62, 64
1, 42000, Note_on_c, 0, 62, 0
1, 42000, Note_on_c, 0, 83, 0
1, 42000, Note_on_c, 0, 81, 64
1, 42000, Note_on_c, 0, 59, 64
1, 42060, Note_on_c, 0, 59, 0
1, 42060, Note_on_c, 0, 62, 64
1, 42120, Note_on_c, 0, 62, 0
1, 42120, Note_on_c, 0, 81, 0
1, 42120, Note_on_c, 0, 79, 64
1, 42120, Note_on_c, 0, 59, 64
1, 42180, Note_on_c, 0, 59, 0
1, 42180, Note_on_c, 0, 62, 64
1, 42240, Note_on_c, 0, 62, 0
1, 42240, Note_on_c, 0, 79, 0
1, 42240, Note_on_c, 0, 81, 64
1, 42240, Note_on_c, 0, 60, 64
1, 42270, Note_on_c, 0, 81, 0
1, 42270, Note_on_c, 0, 79, 48
1, 42300, Note_on_c, 0, 79, 0
1, 42300, Note_on_c, 0, 60, 0
1, 42300, Note_on_c, 0, 81, 52
1, 42300, Note_on_c, 0, 62, 64
1, 42330, Note_on_c, 0, 81, 0
1, 42330, Note_on_c, 0, 79, 56
1, 42360, Note_on_c, 0, 79, 0
1, 42360, Note_on_c, 0, 62, 0
1, 42360, Note_on_c, 0, 81, 59
1, 42360, Note_on_c, 0, 59, 64
1, 42390, Note_on_c, 0, 81, 0
1, 42390, Note_on_c, 0, 79, 63
1, 42420, Note_on_c, 0, 79, 0
1, 42420, Note_on_c, 0, 59, 0
1, 42420, Note_on_c, 0, 78, 68
1, 42420, Note_on_c, 0, 62, 64
1, 42470, Note_on_c, 0, 78, 0
1, 42480, Note_on_c, 0, 62, 0
1, 42480, Note_on_c, 0, 78, 64
1, 42480, Note_on_c, 0, 57, 64
1, 42540, Note_on_c, 0, 57, 0
1, 42540, Note_on_c, 0, 62, 64
1, 42600, Note_on_c, 0, 62, 0
1, 42600, Note_on_c, 0, 59, 64
1, 42660, Note_on_c, 0, 59, 0
1, 42660, Note_on_c, 0, 62, 64
1, 42720, Note_on_c, 0, 62, 0
1, 42720, Note_on_c, 0, 78, 0
1, 42720, Note_on_c, 0, 60, 64
1, 42780, Note_on_c, 0, 60, 0
1, 42780, Note_on_c, 0, 62, 64
1, 42840, Note_on_c, 0, 62, 0
1, 42840, Note_on_c, 0, 59, 64
1, 42900, Note_on_c, 0, 59, 0
1, 42900, Note_on_c, 0, 62, 64
1, 42960, Note_on_c, 0, 62, 0
1, 42960, Note_on_c, 0, 60, 64
1, 43020, Note_on_c, 0, 60, 0
1, 43020, Note_on_c, 0, 62, 64
1, 43080, Note_on_c, 0, 62, 0
1, 43080, Note_on_c, 0, 57, 64
1, 43140, Note_on_c, 0, 57, 0
1, 43140, Note_on_c, 0, 62, 64
1, 43200, Note_on_c, 0, 62, 0
1, 43200, Note_on_c, 0, 86, 64
1, 43260, Note_on_c, 0, 59, 64
1, 43320, Note_on_c, 0, 59, 0
1, 43320, Note_on_c, 0, 62, 64
1, 43380, Note_on_c, 0, 62, 0
1, 43380, Note_on_c, 0, 67, 64
1, 43440, Note_on_c, 0, 67, 0
1, 43440, Note_on_c, 0, 86, 0
1, 43440, Note_on_c, 0, 71, 64
1, 43500, Note_on_c, 0, 86, 64
1, 43560, Note_on_c, 0, 86, 0
1, 43560, Note_on_c, 0, 83, 64
1, 43620, Note_on_c, 0, 83, 0
1, 43620, Note_on_c, 0, 79, 64
1, 43680, Note_on_c, 0, 79, 0
1, 43680, Note_on_c, 0, 71, 0
1, 43680, Note_on_c, 0, 76, 64
1, 43740, Note_on_c, 0, 60, 64
1, 43800, Note_on_c, 0, 60, 0
1, 43800, Note_on_c, 0, 64, 64
1, 43860, Note_on_c, 0, 64, 0
1, 43860, Note_on_c, 0, 67, 64
1, 43920, Note_on_c, 0, 67, 0
1, 43920, Note_on_c, 0, 76, 0
1, 43920, Note_on_c, 0, 72, 64
1, 43980, Note_on_c, 0, 76, 64
1, 44040, Note_on_c, 0, 76, 0
1, 44040, Note_on_c, 0, 79, 64
1, 44100, Note_on_c, 0, 79, 0
1, 44100, Note_on_c, 0, 76, 64
1, 44160, Note_on_c, 0, 76, 0
1, 44160, Note_on_c, 0, 72, 0
1, 44160, Note_on_c, 0, 84, 64
1, 44220, Note_on_c, 0, 57, 64
1, 44280, Note_on_c, 0, 57, 0
1, 44280, Note_on_c, 0, 60, 64
1, 44340, Note_on_c, 0, 60, 0
1, 44340, Note_on_c, 0, 66, 64
1, 44400, Note_on_c, 0, 66, 0
1, 44400, Note_on_c, 0, 84, 0
1, 44400, Note_on_c, 0, 69, 64
1, 44460, Note_on_c, 0, 84, 64
1, 44520, Note_on_c, 0, 84, 0
1, 44520, Note_on_c, 0, 81, 64
1, 44580, Note_on_c, 0, 81, 0
1, 44580, Note_on_c, 0, 78, 64
1, 44640, Note_on_c, 0, 78, 0
1, 44640, Note_on_c, 0, 69, 0
1, 44640, Note_on_c, 0, 74, 64
1, 44700, Note_on_c, 0, 59, 64
1, 44760, Note_on_c, 0, 59, 0
1, 44760, Note_on_c, 0, 62, 64
1, 44820, Note_on_c, 0, 62, 0
1, 44820, Note_on_c, 0, 66, 64
1, 44880, Note_on_c, 0, 66, 0
1, 44880, Note_on_c, 0, 74, 0
1, 44880, Note_on_c, 0, 71, 64
1, 44940, Note_on_c, 0, 74, 64
1, 45000, Note_on_c, 0, 74, 0
1, 45000, Note_on_c, 0, 78, 64
1, 45060, Note_on_c, 0, 78, 0
1, 45060, Note_on_c, 0, 74, 64
1, 45120, Note_on_c, 0, 74, 0
1, 45120, Note_on_c, 0, 71, 0
1, 45120, Note_on_c, 0, 83, 64
1, 45180, Note_on_c, 0, 55, 64
1, 45240, Note_on_c, 0, 55, 0
1, 45240, Note_on_c, 0, 59, 64
1, 45300, Note_on_c, 0, 59, 0
1, 45300, Note_on_c, 0, 64, 64
1, 45360, Note_on_c, 0, 64, 0
1, 45360, Note_on_c, 0, 83, 0
1, 45360, Note_on_c, 0, 67, 64
1, 45420, Note_on_c, 0, 83, 64
1, 45480, Note_on_c, 0, 83, 0
1, 45480, Note_on_c, 0, 79, 64
1, 45540, Note_on_c, 0, 79, 0
1, 45540, Note_on_c, 0, 76, 64
1, 45600, Note_on_c, 0, 76, 0
1, 45600, Note_on_c, 0, 67, 0
1, 45600, Note_on_c, 0, 72, 64
1, 45660, Note_on_c, 0, 57, 64
1, 45720, Note_on_c, 0, 57, 0
1, 45720, Note_on_c, 0, 60, 64
1, 45780, Note_on_c, 0, 60, 0
1, 45780, Note_on_c, 0, 64, 64
1, 45840, Note_on_c, 0, 64, 0
1, 45840, Note_on_c, 0, 72, 0
1, 45840, Note_on_c, 0, 69, 64
1, 45900, Note_on_c, 0, 72, 64
1, 45960, Note_on_c, 0, 72, 0
1, 45960, Note_on_c, 0, 76, 64
1, 46020, Note_on_c, 0, 76, 0
1, 46020, Note_on_c, 0, 72, 64
1, 46080, Note_on_c, 0, 72, 0
1, 46080, Note_on_c, 0, 69, 0
1, 46080, Note_on_c, 0, 81, 64
1, 46140, Note_on_c, 0, 54, 64
1, 46200, Note_on_c, 0, 54, 0
1, 46200, Note_on_c, 0, 57, 64
1, 46260, Note_on_c, 0, 57, 0
1, 46260, Note_on_c, 0, 62, 64
1, 46320, Note_on_c, 0, 62, 0
1, 46320, Note_on_c, 0, 81, 0
1, 46320, Note_on_c, 0, 66, 64
1, 46380, Note_on_c, 0, 81, 64
1, 46440, Note_on_c, 0, 81, 0
1, 46440, Note_on_c, 0, 78, 64
1, 46500, Note_on_c, 0, 78, 0
1, 46500, Note_on_c, 0, 74, 64
1, 46560, Note_on_c, 0, 74, 0
1, 46560, Note_on_c, 0, 66, 0
1, 46560, Note_on_c, 0, 71, 64
1, 46620, Note_on_c, 0, 55, 64
1, 46680, Note_on_c, 0, 55, 0
1, 46680, Note_on_c, 0, 59, 64
1, 46740, Note_on_c, 0, 59, 0
1, 46740, Note_on_c, 0, 62, 64
1, 46800, Note_on_c, 0, 62, 0
1, 46800, Note_on_c, 0, 71, 0
1, 46800, Note_on_c, 0, 67, 64
1, 46860, Note_on_c, 0, 79, 64
1, 46920, Note_on_c, 0, 79, 0
1, 46920, Note_on_c, 0, 74, 64
1, 46980, Note_on_c, 0, 74, 0
1, 46980, Note_on_c, 0, 71, 64
1, 47040, Note_on_c, 0, 71, 0
1, 47040, Note_on_c, 0, 67, 0
1, 47040, Note_on_c, 0, 64, 64
1, 47040, Note_on_c, 0, 60, 64
1, 47040, Note_on_c, 0, 69, 64
1, 47136, Note_on_c, 0, 60, 0
1, 47136, Note_on_c, 0, 64, 0
1, 47160, Note_on_c, 0, 64, 64
1, 47160, Note_on_c, 0, 60, 64
1, 47256, Note_on_c, 0, 60, 0
1, 47256, Note_on_c, 0, 64, 0
1, 47280, Note_on_c, 0, 64, 64
1, 47280, Note_on_c, 0, 60, 64
1, 47376, Note_on_c, 0, 60, 0
1, 47376, Note_on_c, 0, 64, 0
1, 47400, Note_on_c, 0, 64, 64
1, 47400, Note_on_c, 0, 60, 64
1, 47496, Note_on_c, 0, 60, 0
1, 47496, Note_on_c, 0, 64, 0
1, 47520, Note_on_c, 0, 69, 0
1, 47520, Note_on_c, 0, 64, 64
1, 47520, Note_on_c, 0, 60, 64
1, 47520, Note_on_c, 0, 71, 72
1, 47550, Note_on_c, 0, 71, 0
1, 47550, Note_on_c, 0, 72, 64
1, 47616, Note_on_c, 0, 60, 0
1, 47616, Note_on_c, 0, 64, 0
1, 47640, Note_on_c, 0, 64, 64
1, 47640, Note_on_c, 0, 60, 64
1, 47736, Note_on_c, 0, 60, 0
1, 47736, Note_on_c, 0, 64, 0
1, 47760, Note_on_c, 0, 72, 0
1, 47760, Note_on_c, 0, 64, 64
1, 47760, Note_on_c, 0, 60, 64
1, 47760, Note_on_c, 0, 75, 72
1, 47790, Note_on_c, 0, 75, 0
1, 47790, Note_on_c, 0, 76, 64
1, 47856, Note_on_c, 0, 60, 0
1, 47856, Note_on_c, 0, 64, 0
1, 47880, Note_on_c, 0, 60, 64
1, 47880, Note_on_c, 0, 64, 64
1, 47976, Note_on_c, 0, 64, 0
1, 47976, Note_on_c, 0, 60, 0
1, 48000, Note_on_c, 0, 76, 0
1, 48000, Note_on_c, 0, 64, 64
1, 48000, Note_on_c, 0, 60, 64
1, 48000, Note_on_c, 0, 80, 72
1, 48030, Note_on_c, 0, 80, 0
1, 48030, Note_on_c, 0, 81, 64
1, 48096, Note_on_c, 0, 60, 0
1, 48096, Note_on_c, 0, 64, 0
1, 48120, Note_on_c, 0, 64, 64
1, 48120, Note_on_c, 0, 60, 64
1, 48216, Note_on_c, 0, 60, 0
1, 48216, Note_on_c, 0, 64, 0
1, 48240, Note_on_c, 0, 64, 64
1, 48240, Note_on_c, 0, 60, 64
1, 48336, Note_on_c, 0, 60, 0
1, 48336, Note_on_c, 0, 64, 0
1, 48360, Note_on_c, 0, 81, 0
1, 48360, Note_on_c, 0, 64, 64
1, 48360, Note_on_c, 0, 60, 64
1, 48360, Note_on_c, 0, 83, 64
1, 48390, Note_on_c, 0, 83, 0
1, 48390, Note_on_c, 0, 81, 64
1, 48420, Note_on_c, 0, 81, 0
1, 48420, Note_on_c, 0, 80, 64
1, 48450, Note_on_c, 0, 80, 0
1, 48450, Note_on_c, 0, 81, 64
1, 48456, Note_on_c, 0, 60, 0
1, 48456, Note_on_c, 0, 64, 0
1, 48480, Note_on_c, 0, 81, 0
1, 48480, Note_on_c, 0, 64, 64
1, 48480, Note_on_c, 0, 60, 64
1, 48480, Note_on_c, 0, 84, 64
1, 48576, Note_on_c, 0, 60, 0
1, 48576, Note_on_c, 0, 64, 0
1, 48600, Note_on_c, 0, 84, 0
1, 48600, Note_on_c, 0, 64, 64
1, 48600, Note_on_c, 0, 60, 64
1, 48600, Note_on_c, 0, 81, 64
1, 48696, Note_on_c, 0, 60, 0
1, 48696, Note_on_c, 0, 64, 0
1, 48720, Note_on_c, 0, 81, 0
1, 48720, Note_on_c, 0, 64, 64
1, 48720, Note_on_c, 0, 60, 64
1, 48720, Note_on_c, 0, 84, 64
1, 48816, Note_on_c, 0, 60, 0
1, 48816, Note_on_c, 0, 64, 0
1, 48840, Note_on_c, 0, 84, 0
1, 48840, Note_on_c, 0, 60, 64
1, 48840, Note_on_c, 0, 64, 64
1, 48840, Note_on_c, 0, 81, 64
1, 48936, Note_on_c, 0, 64, 0
1, 48936, Note_on_c, 0, 60, 0
1, 48960, Note_on_c, 0, 81, 0
1, 48960, Note_on_c, 0, 83, 64
1, 48960, Note_on_c, 0, 62, 64
1, 49020, Note_on_c, 0, 62, 0
1, 49020, Note_on_c, 0, 71, 64
1, 49080, Note_on_c, 0, 71, 0
1, 49080, Note_on_c, 0, 83, 0
1, 49080, Note_on_c, 0, 79, 64
1, 49080, Note_on_c, 0, 67, 64
1, 49140, Note_on_c, 0, 67, 0
1, 49140, Note_on_c, 0, 71, 64
1, 49200, Note_on_c, 0, 71, 0
1, 49200, Note_on_c, 0, 79, 0
1, 49200, Note_on_c, 0, 86, 64
1, 49200, Note_on_c, 0, 62, 64
1, 49260, Note_on_c, 0, 62, 0
1, 49260, Note_on_c, 0, 71, 64
1, 49320, Note_on_c, 0, 71, 0
1, 49320, Note_on_c, 0, 67, 64
1, 49380, Note_on_c, 0, 67, 0
1, 49380, Note_on_c, 0, 71, 64
1, 49440, Note_on_c, 0, 71, 0
1, 49440, Note_on_c, 0, 62, 64
1, 49500, Note_on_c, 0, 62, 0
1, 49500, Note_on_c, 0, 71, 64
1, 49560, Note_on_c, 0, 71, 0
1, 49560, Note_on_c, 0, 67, 64
1, 49620, Note_on_c, 0, 67, 0
1, 49620, Note_on_c, 0, 71, 64
1, 49680, Note_on_c, 0, 71, 0
1, 49680, Note_on_c, 0, 86, 0
1, 49680, Note_on_c, 0, 84, 64
1, 49680, Note_on_c, 0, 62, 64
1, 49740, Note_on_c, 0, 62, 0
1, 49740, Note_on_c, 0, 84, 0
1, 49740, Note_on_c, 0, 83, 64
1, 49740, Note_on_c, 0, 71, 64
1, 49800, Note_on_c, 0, 71, 0
1, 49800, Note_on_c, 0, 83, 0
1, 49800, Note_on_c, 0, 81, 64
1, 49800, Note_on_c, 0, 67, 64
1, 49860, Note_on_c, 0, 67, 0
1, 49860, Note_on_c, 0, 81, 0
1, 49860, Note_on_c, 0, 71, 64
1, 49860, Note_on_c, 0, 79, 64
1, 49920, Note_on_c, 0, 79, 0
1, 49920, Note_on_c, 0, 71, 0
1, 49920, Note_on_c, 0, 83, 64
1, 49920, Note_on_c, 0, 62, 64
1, 49950, Note_on_c, 0, 83, 0
1, 49950, Note_on_c, 0, 81, 48
1, 49980, Note_on_c, 0, 62, 0
1, 49980, Note_on_c, 0, 72, 48
1, 49980, Note_on_c, 0, 83, 48
1, 49983, Note_on_c, 0, 81, 0
1, 50010, Note_on_c, 0, 81, 49
1, 50013, Note_on_c, 0, 83, 0
1, 50040, Note_on_c, 0, 66, 49
1, 50040, Note_on_c, 0, 83, 49
1, 50043, Note_on_c, 0, 81, 0
1, 50046, Note_on_c, 0, 72, 0
1, 50070, Note_on_c, 0, 81, 50
1, 50073, Note_on_c, 0, 83, 0
1, 50100, Note_on_c, 0, 72, 50
1, 50100, Note_on_c, 0, 83, 50
1, 50103, Note_on_c, 0, 81, 0
1, 50106, Note_on_c, 0, 66, 0
1, 50130, Note_on_c, 0, 81, 51
1, 50133, Note_on_c, 0, 83, 0
1, 50160, Note_on_c, 0, 62, 52
1, 50160, Note_on_c, 0, 83, 52
1, 50163, Note_on_c, 0, 81, 0
1, 50166, Note_on_c, 0, 72, 0
1, 50190, Note_on_c, 0, 81, 52
1, 50193, Note_on_c, 0, 83, 0
1, 50220, Note_on_c, 0, 72, 53
1, 50220, Note_on_c, 0, 83, 53
1, 50223, Note_on_c, 0, 81, 0
1, 50226, Note_on_c, 0, 62, 0
1, 50250, Note_on_c, 0, 81, 53
1, 50253, Note_on_c, 0, 83, 0
1, 50280, Note_on_c, 0, 66, 54
1, 50280, Note_on_c, 0, 83, 54
1, 50283, Note_on_c, 0, 81, 0
1, 50286, Note_on_c, 0, 72, 0
1, 50310, Note_on_c, 0, 81, 54
1, 50313, Note_on_c, 0, 83, 0
1, 50340, Note_on_c, 0, 72, 55
1, 50340, Note_on_c, 0, 83, 55
1, 50343, Note_on_c, 0, 81, 0
1, 50346, Note_on_c, 0, 66, 0
1, 50370, Note_on_c, 0, 81, 56
1, 50373, Note_on_c, 0, 83, 0
1, 50400, Note_on_c, 0, 62, 56
1, 50400, Note_on_c, 0, 83, 56
1, 50403, Note_on_c, 0, 81, 0
1, 50406, Note_on_c, 0, 72, 0
1, 50430, Note_on_c, 0, 81, 57
1, 50433, Note_on_c, 0, 83, 0
1, 50460, Note_on_c, 0, 72, 57
1, 50460, Note_on_c, 0, 83, 57
1, 50463, Note_on_c, 0, 81, 0
1, 50466, Note_on_c, 0, 62, 0
1, 50490, Note_on_c, 0, 81, 58
1, 50493, Note_on_c, 0, 83, 0
1, 50520, Note_on_c, 0, 66, 58
1, 50520, Note_on_c, 0, 83, 58
1, 50523, Note_on_c, 0, 81, 0
1, 50526, Note_on_c, 0, 72, 0
1, 50550, Note_on_c, 0, 81, 59
1, 50553, Note_on_c, 0, 83, 0
1, 50580, Note_on_c, 0, 72, 59
1, 50580, Note_on_c, 0, 83, 59
1, 50583, Note_on_c, 0, 81, 0
1, 50586, Note_on_c, 0, 66, 0
1, 50610, Note_on_c, 0, 81, 60
1, 50613, Note_on_c, 0, 83, 0
1, 50640, Note_on_c, 0, 62, 61
1, 50640, Note_on_c, 0, 83, 61
1, 50643, Note_on_c, 0, 81, 0
1, 50646, Note_on_c, 0, 72, 0
1, 50670, Note_on_c, 0, 81, 61
1, 50673, Note_on_c, 0, 83, 0
1, 50700, Note_on_c, 0, 72, 62
1, 50700, Note_on_c, 0, 83, 62
1, 50703, Note_on_c, 0, 81, 0
1, 50706, Note_on_c, 0, 62, 0
1, 50730, Note_on_c, 0, 81, 62
1, 50733, Note_on_c, 0, 83, 0
1, 50760, Note_on_c, 0, 66, 63
1, 50760, Note_on_c, 0, 83, 63
1, 50763, Note_on_c, 0, 81, 0
1, 50766, Note_on_c, 0, 72, 0
1, 50790, Note_on_c, 0, 81, 63
1, 50793, Note_on_c, 0, 83, 0
1, 50820, Note_on_c, 0, 72, 64
1, 50820, Note_on_c, 0, 79, 64
1, 50823, Note_on_c, 0, 81, 0
1, 50826, Note_on_c, 0, 66, 0
1, 50850, Note_on_c, 0, 79, 0
1, 50850, Note_on_c, 0, 81, 64
1, 50880, Note_on_c, 0, 81, 0
1, 50880, Note_on_c, 0, 72, 0
1, 50880, Note_on_c, 0, 79, 64
1, 50880, Note_on_c, 0, 67, 64
1, 50880, Note_on_c, 0, 71, 64
1, 51120, Note_on_c, 0, 71, 0
1, 51120, Note_on_c, 0, 67, 0
1, 51120, Note_on_c, 0, 79, 0
1, 51120, Note_on_c, 0, 79, 64
1, 51180, Note_on_c, 0, 79, 0
1, 51180, Note_on_c, 0, 74, 64
1, 51240, Note_on_c, 0, 74, 0
1, 51240, Note_on_c, 0, 79, 64
1, 51300, Note_on_c, 0, 79, 0
1, 51300, Note_on_c, 0, 83, 64
1, 51360, Note_on_c, 0, 83, 0
1, 51360, Note_on_c, 0, 86, 64
1, 51420, Note_on_c, 0, 86, 0
1, 51420, Note_on_c, 0, 83, 64
1, 51480, Note_on_c, 0, 83, 0
1, 51480, Note_on_c, 0, 79, 64
1, 51540, Note_on_c, 0, 79, 0
1, 51540, Note_on_c, 0, 83, 64
1, 51600, Note_on_c, 0, 83, 0
1, 51600, Note_on_c, 0, 72, 64
1, 51600, Note_on_c, 0, 69, 64
1, 51600, Note_on_c, 0, 62, 64
1, 51600, Note_on_c, 0, 84, 64
1, 51660, Note_on_c, 0, 84, 0
1, 51660, Note_on_c, 0, 81, 64
1, 51720, Note_on_c, 0, 81, 0
1, 51720, Note_on_c, 0, 78, 64
1, 51780, Note_on_c, 0, 78, 0
1, 51780, Note_on_c, 0, 81, 64
1, 51840, Note_on_c, 0, 81, 0
1, 51840, Note_on_c, 0, 62, 0
1, 51840, Note_on_c, 0, 69, 0
1, 51840, Note_on_c, 0, 72, 0
1, 51840, Note_on_c, 0, 67, 64
1, 51840, Note_on_c, 0, 79, 64
1, 51840, Note_on_c, 0, 71, 64
1, 52080, Note_on_c, 0, 71, 0
1, 52080, Note_on_c, 0, 79, 0
1, 52080, Note_on_c, 0, 67, 0
1, 52080, Note_on_c, 0, 67, 64
1, 52140, Note_on_c, 0, 67, 0
1, 52140, Note_on_c, 0, 62, 64
1, 52200, Note_on_c, 0, 62, 0
1, 52200, Note_on_c, 0, 67, 64
1, 52260, Note_on_c, 0, 67, 0
1, 52260, Note_on_c, 0, 71, 64
1, 52320, Note_on_c, 0, 71, 0
1, 52320, Note_on_c, 0, 74, 64
1, 52380, Note_on_c, 0, 74, 0
1, 52380, Note_on_c, 0, 71, 64
1, 52440, Note_on_c, 0, 71, 0
1, 52440, Note_on_c, 0, 67, 64
1, 52500, Note_on_c, 0, 67, 0
1, 52500, Note_on_c, 0, 71, 64
1, 52560, Note_on_c, 0, 71, 0
1, 52560, Note_on_c, 0, 72, 64
1, 52560, Note_on_c, 0, 60, 64
1, 52560, Note_on_c, 0, 57, 64
1, 52560, Note_on_c, 0, 50, 64
1, 52620, Note_on_c, 0, 72, 0
1, 52620, Note_on_c, 0, 69, 64
1, 52680, Note_on_c, 0, 69, 0
1, 52680, Note_on_c, 0, 66, 64
1, 52740, Note_on_c, 0, 66, 0
1, 52740, Note_on_c, 0, 69, 64
1, 52800, Note_on_c, 0, 69, 0
1, 52800, Note_on_c, 0, 50, 0
1, 52800, Note_on_c, 0, 57, 0
1, 52800, Note_on_c, 0, 60, 0
1, 52800, Note_on_c, 0, 59, 64
1, 52800, Note_on_c, 0, 55, 64
1, 52800, Note_on_c, 0, 67, 64
1, 52932, Tempo, 465116
1, 52992, Note_on_c, 0, 67, 0
1, 52992, Note_on_c, 0, 55, 0
1, 52992, Note_on_c, 0, 59, 0
1, 53040, Note_on_c, 0, 55, 64
1, 53040, Note_on_c, 0, 43, 64
1, 53040, Note_on_c, 0, 83, 64
1, 53040, Note_on_c, 0, 74, 64
1, 53112, Tempo, 472441
1, 53232, Note_on_c, 0, 74, 0
1, 53232, Note_on_c, 0, 83, 0
1, 53232, Note_on_c, 0, 43, 0
1, 53232, Note_on_c, 0, 55, 0
1, 53268, Tempo, 487805
1, 53280, Note_on_c, 0, 55, 64
1, 53280, Note_on_c, 0, 43, 64
1, 53280, Note_on_c, 0, 79, 64
1, 53280, Note_on_c, 0, 71, 64
1, 53472, Note_on_c, 0, 71, 0
1, 53472, Note_on_c, 0, 79, 0
1, 53472, Note_on_c, 0, 43, 0
1, 53472, Note_on_c, 0, 55, 0
1, 53760, Tempo, 454545
1, 53760, Note_on_c, 0, 67, 64
1, 53760, Note_on_c, 0, 43, 64
1, 53760, Note_on_c, 0, 55, 64
1, 54000, Note_on_c, 0, 55, 0
1, 54000, Note_on_c, 0, 43, 0
1, 54000, Note_on_c, 0, 67, 0
1, 54000, Note_on_c, 0, 79, 64
1, 54060, Note_on_c, 0, 79, 0
1, 54060, Note_on_c, 0, 74, 64
1, 54120, Note_on_c, 0, 74, 0
1, 54120, Note_on_c, 0, 79, 64
1, 54180, Note_on_c, 0, 79, 0
1, 54180, Note_on_c, 0, 82, 64
1, 54240, Note_on_c, 0, 82, 0
1, 54240, Note_on_c, 0, 86, 64
1, 54300, Note_on_c, 0, 86, 0
1, 54300, Note_on_c, 0, 82, 64
1, 54360, Note_on_c, 0, 82, 0
1, 54360, Note_on_c, 0, 79, 64
1, 54420, Note_on_c, 0, 79, 0
1, 54420, Note_on_c, 0, 82, 64
1, 54480, Note_on_c, 0, 82, 0
1, 54480, Note_on_c, 0, 72, 64
1, 54480, Note_on_c, 0, 69, 64
1, 54480, Note_on_c, 0, 62, 64
1, 54480, Note_on_c, 0, 84, 64
1, 54540, Note_on_c, 0, 84, 0
1, 54540, Note_on_c, 0, 81, 64
1, 54600, Note_on_c, 0, 81, 0
1, 54600, Note_on_c, 0, 78, 64
1, 54660, Note_on_c, 0, 78, 0
1, 54660, Note_on_c, 0, 81, 64
1, 54720, Note_on_c, 0, 81, 0
1, 54720, Note_on_c, 0, 62, 0
1, 54720, Note_on_c, 0, 69, 0
1, 54720, Note_on_c, 0, 72, 0
1, 54720, Note_on_c, 0, 67, 64
1, 54720, Note_on_c, 0, 79, 64
1, 54720, Note_on_c, 0, 70, 64
1, 54960, Note_on_c, 0, 70, 0
1, 54960, Note_on_c, 0, 79, 0
1, 54960, Note_on_c, 0, 67, 0
1, 54960, Note_on_c, 0, 67, 64
1, 55020, Note_on_c, 0, 67, 0
1, 55020, Note_on_c, 0, 62, 64
1, 55080, Note_on_c, 0, 62, 0
1, 55080, Note_on_c, 0, 67, 64
1, 55140, Note_on_c, 0, 67, 0
1, 55140, Note_on_c, 0, 70, 64
1, 55200, Note_on_c, 0, 70, 0
1, 55200, Note_on_c, 0, 74, 64
1, 55260, Note_on_c, 0, 74, 0
1, 55260, Note_on_c, 0, 70, 64
1, 55320, Note_on_c, 0, 70, 0
1, 55320, Note_on_c, 0, 67, 64
1, 55380, Note_on_c, 0, 67, 0
1, 55380, Note_on_c, 0, 70, 64
1, 55440, Note_on_c, 0, 70, 0
1, 55440, Note_on_c, 0, 60, 64
1, 55440, Note_on_c, 0, 57, 64
1, 55440, Note_on_c, 0, 50, 64
1, 55440, Note_on_c, 0, 72, 64
1, 55500, Note_on_c, 0, 72, 0
1, 55500, Note_on_c, 0, 69, 64
1, 55560, Note_on_c, 0, 69, 0
1, 55560, Note_on_c, 0, 66, 64
1, 55620, Note_on_c, 0, 66, 0
1, 55620, Note_on_c, 0, 69, 64
1, 55680, Note_on_c, 0, 69, 0
1, 55680, Note_on_c, 0, 50, 0
1, 55680, Note_on_c, 0, 57, 0
1, 55680, Note_on_c, 0, 60, 0
1, 55680, Note_on_c, 0, 67, 64
1, 55740, Note_on_c, 0, 43, 64
1, 55800, Note_on_c, 0, 43, 0
1, 55800, Note_on_c, 0, 45, 64
1, 55860, Note_on_c, 0, 45, 0
1, 55860, Note_on_c, 0, 46, 64
1, 55920, Note_on_c, 0, 46, 0
1, 55920, Note_on_c, 0, 67, 0
1, 55920, Note_on_c, 0, 48, 64
1, 55980, Note_on_c, 0, 48, 0
1, 55980, Note_on_c, 0, 50, 64
1, 56040, Note_on_c, 0, 50, 0
1, 56040, Note_on_c, 0, 52, 64
1, 56100, Note_on_c, 0, 52, 0
1, 56100, Note_on_c, 0, 54, 64
1, 56160, Note_on_c, 0, 54, 0
1, 56160, Note_on_c, 0, 55, 64
1, 56220, Note_on_c, 0, 79, 64
1, 56280, Note_on_c, 0, 79, 0
1, 56280, Note_on_c, 0, 82, 64
1, 56340, Note_on_c, 0, 82, 0
1, 56340, Note_on_c, 0, 81, 64
1, 56400, Note_on_c, 0, 81, 0
1, 56400, Note_on_c, 0, 55, 0
1, 56400, Note_on_c, 0, 79, 64
1, 56460, Note_on_c, 0, 79, 0
1, 56460, Note_on_c, 0, 77, 64
1, 56520, Note_on_c, 0, 77, 0
1, 56520, Note_on_c, 0, 76, 64
1, 56580, Note_on_c, 0, 76, 0
1, 56580, Note_on_c, 0, 74, 64
1, 56640, Note_on_c, 0, 74, 0
1, 56640, Note_on_c, 0, 73, 64
1, 56700, Note_on_c, 0, 45, 64
1, 56760, Note_on_c, 0, 45, 0
1, 56760, Note_on_c, 0, 47, 64
1, 56820, Note_on_c, 0, 47, 0
1, 56820, Note_on_c, 0, 49, 64
1, 56880, Note_on_c, 0, 49, 0
1, 56880, Note_on_c, 0, 73, 0
1, 56880, Note_on_c, 0, 50, 64
1, 56940, Note_on_c, 0, 50, 0
1, 56940, Note_on_c, 0, 52, 64
1, 57000, Note_on_c, 0, 52, 0
1, 57000, Note_on_c, 0, 54, 64
1, 57060, Note_on_c, 0, 54, 0
1, 57060, Note_on_c, 0, 56, 64
1, 57120, Note_on_c, 0, 56, 0
1, 57120, Note_on_c, 0, 57, 64
1, 57180, Note_on_c, 0, 85, 64
1, 57240, Note_on_c, 0, 85, 0
1, 57240, Note_on_c, 0, 88, 64
1, 57300, Note_on_c, 0, 88, 0
1, 57300, Note_on_c, 0, 86, 64
1, 57360, Note_on_c, 0, 86, 0
1, 57360, Note_on_c, 0, 57, 0
1, 57360, Note_on_c, 0, 85, 64
1, 57420, Note_on_c, 0, 85, 0
1, 57420, Note_on_c, 0, 82, 64
1, 57480, Note_on_c, 0, 82, 0
1, 57480, Note_on_c, 0, 81, 64
1, 57540, Note_on_c, 0, 81, 0
1, 57540, Note_on_c, 0, 79, 64
1, 57600, Note_on_c, 0, 79, 0
1, 57600, Note_on_c, 0, 77, 64
1, 57600, Note_on_c, 0, 38, 64
1, 57600, Note_on_c, 0, 50, 64
1, 57840, Note_on_c, 0, 50, 0
1, 57840, Note_on_c, 0, 38, 0
1, 57840, Note_on_c, 0, 77, 0
1, 57840, Note_on_c, 0, 74, 64
1, 57900, Note_on_c, 0, 74, 0
1, 57900, Note_on_c, 0, 69, 64
1, 57960, Note_on_c, 0, 69, 0
1, 57960, Note_on_c, 0, 74, 64
1, 58020, Note_on_c, 0, 74, 0
1, 58020, Note_on_c, 0, 77, 64
1, 58080, Note_on_c, 0, 77, 0
1, 58080, Note_on_c, 0, 81, 64
1, 58140, Note_on_c, 0, 81, 0
1, 58140, Note_on_c, 0, 77, 64
1, 58200, Note_on_c, 0, 77, 0
1, 58200, Note_on_c, 0, 74, 64
1, 58260, Note_on_c, 0, 74, 0
1, 58260, Note_on_c, 0, 77, 64
1, 58320, Note_on_c, 0, 77, 0
1, 58320, Note_on_c, 0, 67, 64
1, 58320, Note_on_c, 0, 64, 64
1, 58320, Note_on_c, 0, 57, 64
1, 58320, Note_on_c, 0, 79, 64
1, 58380, Note_on_c, 0, 79, 0
1, 58380, Note_on_c, 0, 76, 64
1, 58440, Note_on_c, 0, 76, 0
1, 58440, Note_on_c, 0, 73, 64
1, 58500, Note_on_c, 0, 73, 0
1, 58500, Note_on_c, 0, 76, 64
1, 58560, Note_on_c, 0, 76, 0
1, 58560, Note_on_c, 0, 57, 0
1, 58560, Note_on_c, 0, 64, 0
1, 58560, Note_on_c, 0, 67, 0
1, 58560, Note_on_c, 0, 62, 64
1, 58560, Note_on_c, 0, 74, 64
1, 58560, Note_on_c, 0, 65, 64
1, 58800, Note_on_c, 0, 65, 0
1, 58800, Note_on_c, 0, 74, 0
1, 58800, Note_on_c, 0, 62, 0
1, 58800, Note_on_c, 0, 62, 64
1, 58860, Note_on_c, 0, 62, 0
1, 58860, Note_on_c, 0, 57, 64
1, 58920, Note_on_c, 0, 57, 0
1, 58920, Note_on_c, 0, 62, 64
1, 58980, Note_on_c, 0, 62, 0
1, 58980, Note_on_c, 0, 65, 64
1, 59040, Note_on_c, 0, 65, 0
1, 59040, Note_on_c, 0, 69, 64
1, 59100, Note_on_c, 0, 69, 0
1, 59100, Note_on_c, 0, 65, 64
1, 59160, Note_on_c, 0, 65, 0
1, 59160, Note_on_c, 0, 62, 64
1, 59220, Note_on_c, 0, 62, 0
1, 59220, Note_on_c, 0, 65, 64
1, 59280, Note_on_c, 0, 65, 0
1, 59280, Note_on_c, 0, 55, 64
1, 59280, Note_on_c, 0, 52, 64
1, 59280, Note_on_c, 0, 45, 64
1, 59280, Note_on_c, 0, 67, 64
1, 59340, Note_on_c, 0, 67, 0
1, 59340, Note_on_c, 0, 64, 64
1, 59400, Note_on_c, 0, 64, 0
1, 59400, Note_on_c, 0, 61, 64
1, 59460, Note_on_c, 0, 61, 0
1, 59460, Note_on_c, 0, 64, 64
1, 59520, Note_on_c, 0, 64, 0
1, 59520, Note_on_c, 0, 45, 0
1, 59520, Note_on_c, 0, 52, 0
1, 59520, Note_on_c, 0, 55, 0
1, 59520, Note_on_c, 0, 50, 64
1, 59520, Note_on_c, 0, 53, 64
1, 59580, Note_on_c, 0, 62, 64
1, 59640, Note_on_c, 0, 62, 0
1, 59640, Note_on_c, 0, 64, 64
1, 59700, Note_on_c, 0, 64, 0
1, 59700, Note_on_c, 0, 65, 64
1, 59760, Note_on_c, 0, 65, 0
1, 59760, Note_on_c, 0, 53, 0
1, 59760, Note_on_c, 0, 50, 0
1, 59760, Note_on_c, 0, 67, 64
1, 59820, Note_on_c, 0, 67, 0
1, 59820, Note_on_c, 0, 69, 64
1, 59880, Note_on_c, 0, 69, 0
1, 59880, Note_on_c, 0, 71, 64
1, 59940, Note_on_c, 0, 71, 0
1, 59940, Note_on_c, 0, 73, 64
1, 60000, Note_on_c, 0, 73, 0
1, 60000, Note_on_c, 0, 74, 64
1, 60060, Note_on_c, 0, 62, 64
1, 60120, Note_on_c, 0, 62, 0
1, 60120, Note_on_c, 0, 65, 64
1, 60180, Note_on_c, 0, 65, 0
1, 60180, Note_on_c, 0, 64, 64
1, 60240, Note_on_c, 0, 64, 0
1, 60240, Note_on_c, 0, 74, 0
1, 60240, Note_on_c, 0, 62, 64
1, 60300, Note_on_c, 0, 62, 0
1, 60300, Note_on_c, 0, 60, 64
1, 60360, Note_on_c, 0, 60, 0
1, 60360, Note_on_c, 0, 59, 64
1, 60420, Note_on_c, 0, 59, 0
1, 60420, Note_on_c, 0, 57, 64
1, 60480, Note_on_c, 0, 57, 0
1, 60480, Note_on_c, 0, 56, 64
1, 60540, Note_on_c, 0, 71, 64
1, 60600, Note_on_c, 0, 71, 0
1, 60600, Note_on_c, 0, 72, 64
1, 60660, Note_on_c, 0, 72, 0
1, 60660, Note_on_c, 0, 74, 64
1, 60720, Note_on_c, 0, 74, 0
1, 60720, Note_on_c, 0, 56, 0
1, 60720, Note_on_c, 0, 76, 64
1, 60780, Note_on_c, 0, 76, 0
1, 60780, Note_on_c, 0, 78, 64
1, 60840, Note_on_c, 0, 78, 0
1, 60840, Note_on_c, 0, 80, 64
1, 60900, Note_on_c, 0, 80, 0
1, 60900, Note_on_c, 0, 81, 64
1, 60960, Note_on_c, 0, 81, 0
1, 60960, Note_on_c, 0, 83, 64
1, 61020, Note_on_c, 0, 56, 64
1, 61080, Note_on_c, 0, 56, 0
1, 61080, Note_on_c, 0, 59, 64
1, 61140, Note_on_c, 0, 59, 0
1, 61140, Note_on_c, 0, 57, 64
1, 61200, Note_on_c, 0, 57, 0
1, 61200, Note_on_c, 0, 83, 0
1, 61200, Note_on_c, 0, 56, 64
1, 61260, Note_on_c, 0, 56, 0
1, 61260, Note_on_c, 0, 53, 64
1, 61320, Note_on_c, 0, 53, 0
1, 61320, Note_on_c, 0, 52, 64
1, 61380, Note_on_c, 0, 52, 0
1, 61380, Note_on_c, 0, 50, 64
1, 61440, Note_on_c, 0, 50, 0
1, 61440, Note_on_c, 0, 48, 64
1, 61500, Note_on_c, 0, 81, 64
1, 61560, Note_on_c, 0, 81, 0
1, 61560, Note_on_c, 0, 88, 64
1, 61620, Note_on_c, 0, 88, 0
1, 61620, Note_on_c, 0, 86, 64
1, 61680, Note_on_c, 0, 86, 0
1, 61680, Note_on_c, 0, 48, 0
1, 61680, Note_on_c, 0, 84, 64
1, 61740, Note_on_c, 0, 84, 0
1, 61740, Note_on_c, 0, 83, 64
1, 61800, Note_on_c, 0, 83, 0
1, 61800, Note_on_c, 0, 81, 64
1, 61860, Note_on_c, 0, 81, 0
1, 61860, Note_on_c, 0, 79, 64
1, 61920, Note_on_c, 0, 79, 0
1, 61920, Note_on_c, 0, 77, 64
1, 61980, Note_on_c, 0, 62, 64
1, 62040, Note_on_c, 0, 62, 0
1, 62040, Note_on_c, 0, 69, 64
1, 62100, Note_on_c, 0, 69, 0
1, 62100, Note_on_c, 0, 67, 64
1, 62160, Note_on_c, 0, 67, 0
1, 62160, Note_on_c, 0, 77, 0
1, 62160, Note_on_c, 0, 65, 64
1, 62220, Note_on_c, 0, 65, 0
1, 62220, Note_on_c, 0, 64, 64
1, 62280, Note_on_c, 0, 64, 0
1, 62280, Note_on_c, 0, 62, 64
1, 62340, Note_on_c, 0, 62, 0
1, 62340, Note_on_c, 0, 60, 64
1, 62400, Note_on_c, 0, 60, 0
1, 62400, Note_on_c, 0, 59, 64
1, 62460, Note_on_c, 0, 79, 64
1, 62520, Note_on_c, 0, 79, 0
1, 62520, Note_on_c, 0, 86, 64
1, 62580, Note_on_c, 0, 86, 0
1, 62580, Note_on_c, 0, 84, 64
1, 62640, Note_on_c, 0, 84, 0
1, 62640, Note_on_c, 0, 59, 0
1, 62640, Note_on_c, 0, 83, 64
1, 62700, Note_on_c, 0, 83, 0
1, 62700, Note_on_c, 0, 81, 64
1, 62760, Note_on_c, 0, 81, 0
1, 62760, Note_on_c, 0, 79, 64
1, 62820, Note_on_c, 0, 79, 0
1, 62820, Note_on_c, 0, 77, 64
1, 62880, Note_on_c, 0, 77, 0
1, 62880, Note_on_c, 0, 76, 64
1, 62940, Note_on_c, 0, 60, 64
1, 63000, Note_on_c, 0, 60, 0
1, 63000, Note_on_c, 0, 67, 64
1, 63060, Note_on_c, 0, 67, 0
1, 63060, Note_on_c, 0, 65, 64
1, 63120, Note_on_c, 0, 65, 0
1, 63120, Note_on_c, 0, 76, 0
1, 63120, Note_on_c, 0, 64, 64
1, 63180, Note_on_c, 0, 64, 0
1, 63180, Note_on_c, 0, 62, 64
1, 63240, Note_on_c, 0, 62, 0
1, 63240, Note_on_c, 0, 60, 64
1, 63300, Note_on_c, 0, 60, 0
1, 63300, Note_on_c, 0, 59, 64
1, 63360, Note_on_c, 0, 59, 0
1, 63360, Note_on_c, 0, 57, 64
1, 63420, Note_on_c, 0, 77, 64
1, 63480, Note_on_c, 0, 77, 0
1, 63480, Note_on_c, 0, 84, 64
1, 63540, Note_on_c, 0, 84, 0
1, 63540, Note_on_c, 0, 83, 64
1, 63600, Note_on_c, 0, 83, 0
1, 63600, Note_on_c, 0, 57, 0
1, 63600, Note_on_c, 0, 81, 64
1, 63660, Note_on_c, 0, 81, 0
1, 63660, Note_on_c, 0, 79, 64
1, 63720, Note_on_c, 0, 79, 0
1, 63720, Note_on_c, 0, 77, 64
1, 63780, Note_on_c, 0, 77, 0
1, 63780, Note_on_c, 0, 76, 64
1, 63840, Note_on_c, 0, 76, 0
1, 63840, Note_on_c, 0, 74, 64
1, 63900, Note_on_c, 0, 59, 64
1, 63960, Note_on_c, 0, 59, 0
1, 63960, Note_on_c, 0, 65, 64
1, 64020, Note_on_c, 0, 65, 0
1, 64020, Note_on_c, 0, 64, 64
1, 64080, Note_on_c, 0, 64, 0
1, 64080, Note_on_c, 0, 74, 0
1, 64080, Note_on_c, 0, 62, 64
1, 64140, Note_on_c, 0, 62, 0
1, 64140, Note_on_c, 0, 60, 64
1, 64200, Note_on_c, 0, 60, 0
1, 64200, Note_on_c, 0, 59, 64
1, 64260, Note_on_c, 0, 59, 0
1, 64260, Note_on_c, 0, 57, 64
1, 64320, Note_on_c, 0, 57, 0
1, 64320, Note_on_c, 0, 56, 64
1, 64380, Note_on_c, 0, 76, 64
1, 64440, Note_on_c, 0, 76, 0
1, 64440, Note_on_c, 0, 83, 64
1, 64500, Note_on_c, 0, 83, 0
1, 64500, Note_on_c, 0, 81, 64
1, 64560, Note_on_c, 0, 81, 0
1, 64560, Note_on_c, 0, 56, 0
1, 64560, Note_on_c, 0, 80, 64
1, 64620, Note_on_c, 0, 80, 0
1, 64620, Note_on_c, 0, 77, 64
1, 64680, Note_on_c, 0, 77, 0
1, 64680, Note_on_c, 0, 76, 64
1, 64740, Note_on_c, 0, 76, 0
1, 64740, Note_on_c, 0, 74, 64
1, 64800, Note_on_c, 0, 74, 0
1, 64800, Note_on_c, 0, 72, 64
1, 64860, Note_on_c, 0, 57, 64
1, 64920, Note_on_c, 0, 57, 0
1, 64920, Note_on_c, 0, 60, 64
1, 64980, Note_on_c, 0, 60, 0
1, 64980, Note_on_c, 0, 59, 64
1, 65040, Note_on_c, 0, 59, 0
1, 65040, Note_on_c, 0, 72, 0
1, 65040, Note_on_c, 0, 57, 64
1, 65100, Note_on_c, 0, 57, 0
1, 65100, Note_on_c, 0, 55, 64
1, 65160, Note_on_c, 0, 55, 0
1, 65160, Note_on_c, 0, 53, 64
1, 65220, Note_on_c, 0, 53, 0
1, 65220, Note_on_c, 0, 52, 64
1, 65280, Note_on_c, 0, 52, 0
1, 65280, Note_on_c, 0, 50, 64
1, 65340, Note_on_c, 0, 70, 64
1, 65400, Note_on_c, 0, 70, 0
1, 65400, Note_on_c, 0, 74, 64
1, 65460, Note_on_c, 0, 74, 0
1, 65460, Note_on_c, 0, 72, 64
1, 65520, Note_on_c, 0, 72, 0
1, 65520, Note_on_c, 0, 70, 64
1, 65580, Note_on_c, 0, 70, 0
1, 65580, Note_on_c, 0, 69, 64
1, 65640, Note_on_c, 0, 69, 0
1, 65640, Note_on_c, 0, 67, 64
1, 65700, Note_on_c, 0, 67, 0
1, 65700, Note_on_c, 0, 65, 64
1, 65760, Note_on_c, 0, 65, 0
1, 65760, Note_on_c, 0, 50, 0
1, 65760, Note_on_c, 0, 58, 64
1, 65760, Note_on_c, 0, 55, 64
1, 65760, Note_on_c, 0, 48, 64
1, 65760, Note_on_c, 0, 64, 64
1, 65820, Note_on_c, 0, 64, 0
1, 65820, Note_on_c, 0, 65, 64
1, 65880, Note_on_c, 0, 65, 0
1, 65880, Note_on_c, 0, 67, 64
1, 65940, Note_on_c, 0, 67, 0
1, 65940, Note_on_c, 0, 69, 64
1, 66000, Note_on_c, 0, 69, 0
1, 66000, Note_on_c, 0, 70, 64
1, 66060, Note_on_c, 0, 70, 0
1, 66060, Note_on_c, 0, 72, 64
1, 66120, Note_on_c, 0, 72, 0
1, 66120, Note_on_c, 0, 74, 64
1, 66180, Note_on_c, 0, 74, 0
1, 66180, Note_on_c, 0, 76, 64
1, 66240, Note_on_c, 0, 76, 0
1, 66240, Note_on_c, 0, 48, 0
1, 66240, Note_on_c, 0, 55, 0
1, 66240, Note_on_c, 0, 58, 0
1, 66240, Note_on_c, 0, 77, 64
1, 66240, Note_on_c, 0, 65, 64
1, 66360, Note_on_c, 0, 65, 0
1, 66360, Note_on_c, 0, 72, 64
1, 66480, Note_on_c, 0, 72, 0
1, 66480, Note_on_c, 0, 69, 64
1, 66600, Note_on_c, 0, 69, 0
1, 66600, Note_on_c, 0, 72, 64
1, 66720, Note_on_c, 0, 72, 0
1, 66720, Note_on_c, 0, 77, 0
1, 66720, Note_on_c, 0, 81, 64
1, 66720, Note_on_c, 0, 65, 64
1, 66840, Note_on_c, 0, 65, 0
1, 66840, Note_on_c, 0, 72, 64
1, 66960, Note_on_c, 0, 72, 0
1, 66960, Note_on_c, 0, 81, 0
1, 66960, Note_on_c, 0, 84, 64
1, 66960, Note_on_c, 0, 69, 64
1, 67080, Note_on_c, 0, 69, 0
1, 67080, Note_on_c, 0, 72, 64
1, 67200, Note_on_c, 0, 72, 0
1, 67200, Note_on_c, 0, 84, 0
1, 67200, Note_on_c, 0, 76, 64
1, 67200, Note_on_c, 0, 67, 64
1, 67320, Note_on_c, 0, 67, 0
1, 67320, Note_on_c, 0, 72, 64
1, 67440, Note_on_c, 0, 72, 0
1, 67440, Note_on_c, 0, 70, 64
1, 67560, Note_on_c, 0, 70, 0
1, 67560, Note_on_c, 0, 76, 0
1, 67560, Note_on_c, 0, 77, 64
1, 67560, Note_on_c, 0, 72, 64
1, 67620, Note_on_c, 0, 77, 0
1, 67620, Note_on_c, 0, 79, 64
1, 67680, Note_on_c, 0, 79, 0
1, 67680, Note_on_c, 0, 72, 0
1, 67680, Note_on_c, 0, 77, 64
1, 67680, Note_on_c, 0, 65, 64
1, 67800, Note_on_c, 0, 65, 0
1, 67800, Note_on_c, 0, 72, 64
1, 67920, Note_on_c, 0, 72, 0
1, 67920, Note_on_c, 0, 69, 64
1, 68040, Note_on_c, 0, 69, 0
1, 68040, Note_on_c, 0, 72, 64
1, 68160, Note_on_c, 0, 72, 0
1, 68160, Note_on_c, 0, 77, 0
1, 68160, Note_on_c, 0, 86, 64
1, 68160, Note_on_c, 0, 65, 64
1, 68280, Note_on_c, 0, 65, 0
1, 68280, Note_on_c, 0, 74, 64
1, 68400, Note_on_c, 0, 74, 0
1, 68400, Note_on_c, 0, 70, 64
1, 68520, Note_on_c, 0, 70, 0
1, 68520, Note_on_c, 0, 74, 64
1, 68640, Note_on_c, 0, 74, 0
1, 68640, Note_on_c, 0, 86, 0
1, 68640, Note_on_c, 0, 84, 64
1, 68640, Note_on_c, 0, 65, 64
1, 68760, Note_on_c, 0, 65, 0
1, 68760, Note_on_c, 0, 72, 64
1, 68880, Note_on_c, 0, 72, 0
1, 68880, Note_on_c, 0, 84, 0
1, 68880, Note_on_c, 0, 89, 64
1, 68880, Note_on_c, 0, 69, 64
1, 69000, Note_on_c, 0, 69, 0
1, 69000, Note_on_c, 0, 72, 64
1, 69120, Note_on_c, 0, 72, 0
1, 69120, Note_on_c, 0, 89, 0
1, 69120, Note_on_c, 0, 84, 64
1, 69120, Note_on_c, 0, 64, 64
1, 69240, Note_on_c, 0, 64, 0
1, 69240, Note_on_c, 0, 72, 64
1, 69360, Note_on_c, 0, 72, 0
1, 69360, Note_on_c, 0, 84, 0
1, 69360, Note_on_c, 0, 82, 64
1, 69360, Note_on_c, 0, 67, 64
1, 69399, Note_on_c, 0, 82, 0
1, 69399, Note_on_c, 0, 84, 64
1, 69439, Note_on_c, 0, 84, 0
1, 69439, Note_on_c, 0, 82, 64
1, 69479, Note_on_c, 0, 82, 0
1, 69480, Note_on_c, 0, 67, 0
1, 69480, Note_on_c, 0, 81, 64
1, 69480, Note_on_c, 0, 72, 64
1, 69540, Note_on_c, 0, 81, 0
1, 69540, Note_on_c, 0, 82, 64
1, 69600, Note_on_c, 0, 82, 0
1, 69600, Note_on_c, 0, 72, 0
1, 69600, Note_on_c, 0, 81, 64
1, 69600, Note_on_c, 0, 65, 64
1, 69720, Note_on_c, 0, 65, 0
1, 69720, Note_on_c, 0, 72, 64
1, 69840, Note_on_c, 0, 72, 0
1, 69840, Note_on_c, 0, 81, 0
1, 69840, Note_on_c, 0, 69, 64
1, 69960, Note_on_c, 0, 69, 0
1, 69960, Note_on_c, 0, 72, 64
1, 70080, Note_on_c, 0, 72, 0
1, 70080, Note_on_c, 0, 74, 64
1, 70080, Note_on_c, 0, 70, 64
1, 70200, Note_on_c, 0, 74, 0
1, 70200, Note_on_c, 0, 76, 64
1, 70260, Note_on_c, 0, 76, 0
1, 70260, Note_on_c, 0, 77, 64
1, 70320, Note_on_c, 0, 77, 0
1, 70320, Note_on_c, 0, 70, 0
1, 70320, Note_on_c, 0, 79, 64
1, 70380, Note_on_c, 0, 79, 0
1, 70380, Note_on_c, 0, 81, 64
1, 70440, Note_on_c, 0, 81, 0
1, 70440, Note_on_c, 0, 82, 64
1, 70500, Note_on_c, 0, 82, 0
1, 70500, Note_on_c, 0, 84, 64
1, 70560, Note_on_c, 0, 84, 0
1, 70560, Note_on_c, 0, 86, 64
1, 70620, Note_on_c, 0, 86, 0
1, 70620, Note_on_c, 0, 84, 64
1, 70680, Note_on_c, 0, 84, 0
1, 70680, Note_on_c, 0, 82, 64
1, 70740, Note_on_c, 0, 82, 0
1, 70740, Note_on_c, 0, 81, 64
1, 70800, Note_on_c, 0, 81, 0
1, 70800, Note_on_c, 0, 65, 64
1, 70800, Note_on_c, 0, 58, 64
1, 70800, Note_on_c, 0, 79, 64
1, 70860, Note_on_c, 0, 79, 0
1, 70860, Note_on_c, 0, 77, 64
1, 70920, Note_on_c, 0, 77, 0
1, 70920, Note_on_c, 0, 76, 64
1, 70980, Note_on_c, 0, 76, 0
1, 70980, Note_on_c, 0, 74, 64
1, 71040, Note_on_c, 0, 74, 0
1, 71040, Note_on_c, 0, 58, 0
1, 71040, Note_on_c, 0, 65, 0
1, 71040, Note_on_c, 0, 72, 64
1, 71040, Note_on_c, 0, 57, 64
1, 71040, Note_on_c, 0, 65, 64
1, 71160, Note_on_c, 0, 72, 0
1, 71160, Note_on_c, 0, 74, 64
1, 71220, Note_on_c, 0, 74, 0
1, 71220, Note_on_c, 0, 76, 64
1, 71280, Note_on_c, 0, 76, 0
1, 71280, Note_on_c, 0, 65, 0
1, 71280, Note_on_c, 0, 57, 0
1, 71280, Note_on_c, 0, 77, 64
1, 71340, Note_on_c, 0, 77, 0
1, 71340, Note_on_c, 0, 79, 64
1, 71400, Note_on_c, 0, 79, 0
1, 71400, Note_on_c, 0, 81, 64
1, 71460, Note_on_c, 0, 81, 0
1, 71460, Note_on_c, 0, 82, 64
1, 71520, Note_on_c, 0, 82, 0
1, 71520, Note_on_c, 0, 84, 64
1, 71580, Note_on_c, 0, 84, 0
1, 71580, Note_on_c, 0, 82, 64
1, 71640, Note_on_c, 0, 82, 0
1, 71640, Note_on_c, 0, 81, 64
1, 71700, Note_on_c, 0, 81, 0
1, 71700, Note_on_c, 0, 79, 64
1, 71760, Note_on_c, 0, 79, 0
1, 71760, Note_on_c, 0, 65, 64
1, 71760, Note_on_c, 0, 57, 64
1, 71760, Note_on_c, 0, 77, 64
1, 71820, Note_on_c, 0, 77, 0
1, 71820, Note_on_c, 0, 76, 64
1, 71880, Note_on_c, 0, 76, 0
1, 71880, Note_on_c, 0, 74, 64
1, 71940, Note_on_c, 0, 74, 0
1, 71940, Note_on_c, 0, 72, 64
1, 72000, Note_on_c, 0, 72, 0
1, 72000, Note_on_c, 0, 57, 0
1, 72000, Note_on_c, 0, 65, 0
1, 72000, Note_on_c, 0, 70, 64
1, 72000, Note_on_c, 0, 55, 64
1, 72000, Note_on_c, 0, 65, 64
1, 72120, Note_on_c, 0, 70, 0
1, 72120, Note_on_c, 0, 72, 64
1, 72180, Note_on_c, 0, 72, 0
1, 72180, Note_on_c, 0, 74, 64
1, 72240, Note_on_c, 0, 74, 0
1, 72240, Note_on_c, 0, 65, 0
1, 72240, Note_on_c, 0, 55, 0
1, 72240, Note_on_c, 0, 76, 64
1, 72300, Note_on_c, 0, 76, 0
1, 72300, Note_on_c, 0, 77, 64
1, 72360, Note_on_c, 0, 77, 0
1, 72360, Note_on_c, 0, 79, 64
1, 72420, Note_on_c, 0, 79, 0
1, 72420, Note_on_c, 0, 81, 64
1, 72480, Note_on_c, 0, 81, 0
1, 72480, Note_on_c, 0, 82, 64
1, 72540, Note_on_c, 0, 82, 0
1, 72540, Note_on_c, 0, 81, 64
1, 72600, Note_on_c, 0, 81, 0
1, 72600, Note_on_c, 0, 79, 64
1, 72660, Note_on_c, 0, 79, 0
1, 72660, Note_on_c, 0, 77, 64
1, 72720, Note_on_c, 0, 77, 0
1, 72720, Note_on_c, 0, 64, 64
1, 72720, Note_on_c, 0, 55, 64
1, 72720, Note_on_c, 0, 76, 64
1, 72780, Note_on_c, 0, 76, 0
1, 72780, Note_on_c, 0, 74, 64
1, 72840, Note_on_c, 0, 74, 0
1, 72840, Note_on_c, 0, 72, 64
1, 72900, Note_on_c, 0, 72, 0
1, 72900, Note_on_c, 0, 70, 64
1, 72960, Note_on_c, 0, 70, 0
1, 72960, Note_on_c, 0, 55, 0
1, 72960, Note_on_c, 0, 64, 0
1, 72960, Note_on_c, 0, 69, 64
1, 72960, Note_on_c, 0, 53, 64
1, 72960, Note_on_c, 0, 65, 64
1, 73080, Note_on_c, 0, 69, 0
1, 73080, Note_on_c, 0, 70, 64
1, 73140, Note_on_c, 0, 70, 0
1, 73140, Note_on_c, 0, 72, 64
1, 73200, Note_on_c, 0, 72, 0
1, 73200, Note_on_c, 0, 65, 0
1, 73200, Note_on_c, 0, 53, 0
1, 73200, Note_on_c, 0, 74, 64
1, 73260, Note_on_c, 0, 74, 0
1, 73260, Note_on_c, 0, 76, 64
1, 73320, Note_on_c, 0, 76, 0
1, 73320, Note_on_c, 0, 77, 64
1, 73380, Note_on_c, 0, 77, 0
1, 73380, Note_on_c, 0, 79, 64
1, 73440, Note_on_c, 0, 79, 0
1, 73440, Note_on_c, 0, 81, 64
1, 73500, Note_on_c, 0, 81, 0
1, 73500, Note_on_c, 0, 79, 64
1, 73560, Note_on_c, 0, 79, 0
1, 73560, Note_on_c, 0, 77, 64
1, 73620, Note_on_c, 0, 77, 0
1, 73620, Note_on_c, 0, 76, 64
1, 73680, Note_on_c, 0, 76, 0
1, 73680, Note_on_c, 0, 74, 64
1, 73740, Note_on_c, 0, 74, 0
1, 73740, Note_on_c, 0, 72, 64
1, 73800, Note_on_c, 0, 72, 0
1, 73800, Note_on_c, 0, 70, 64
1, 73860, Note_on_c, 0, 70, 0
1, 73860, Note_on_c, 0, 69, 64
1, 73920, Note_on_c, 0, 69, 0
1, 73920, Note_on_c, 0, 81, 64
1, 73920, Note_on_c, 0, 53, 64
1, 74040, Note_on_c, 0, 53, 0
1, 74040, Note_on_c, 0, 55, 64
1, 74100, Note_on_c, 0, 55, 0
1, 74100, Note_on_c, 0, 57, 64
1, 74160, Note_on_c, 0, 57, 0
1, 74160, Note_on_c, 0, 81, 0
1, 74160, Note_on_c, 0, 58, 64
1, 74220, Note_on_c, 0, 58, 0
1, 74220, Note_on_c, 0, 60, 64
1, 74280, Note_on_c, 0, 60, 0
1, 74280, Note_on_c, 0, 62, 64
1, 74340, Note_on_c, 0, 62, 0
1, 74340, Note_on_c, 0, 64, 64
1, 74400, Note_on_c, 0, 64, 0
1, 74400, Note_on_c, 0, 65, 64
1, 74460, Note_on_c, 0, 65, 0
1, 74460, Note_on_c, 0, 64, 64
1, 74520, Note_on_c, 0, 64, 0
1, 74520, Note_on_c, 0, 62, 64
1, 74580, Note_on_c, 0, 62, 0
1, 74580, Note_on_c, 0, 60, 64
1, 74640, Note_on_c, 0, 60, 0
1, 74640, Note_on_c, 0, 81, 64
1, 74640, Note_on_c, 0, 72, 64
1, 74640, Note_on_c, 0, 58, 64
1, 74700, Note_on_c, 0, 58, 0
1, 74700, Note_on_c, 0, 57, 64
1, 74760, Note_on_c, 0, 57, 0
1, 74760, Note_on_c, 0, 55, 64
1, 74820, Note_on_c, 0, 55, 0
1, 74820, Note_on_c, 0, 53, 64
1, 74880, Note_on_c, 0, 53, 0
1, 74880, Note_on_c, 0, 72, 0
1, 74880, Note_on_c, 0, 81, 0
1, 74880, Note_on_c, 0, 72, 64
1, 74880, Note_on_c, 0, 79, 64
1, 74880, Note_on_c, 0, 52, 64
1, 75000, Note_on_c, 0, 52, 0
1, 75000, Note_on_c, 0, 53, 64
1, 75060, Note_on_c, 0, 53, 0
1, 75060, Note_on_c, 0, 55, 64
1, 75120, Note_on_c, 0, 55, 0
1, 75120, Note_on_c, 0, 79, 0
1, 75120, Note_on_c, 0, 72, 0
1, 75120, Note_on_c, 0, 57, 64
1, 75180, Note_on_c, 0, 57, 0
1, 75180, Note_on_c, 0, 59, 64
1, 75240, Note_on_c, 0, 59, 0
1, 75240, Note_on_c, 0, 60, 64
1, 75300, Note_on_c, 0, 60, 0
1, 75300, Note_on_c, 0, 62, 64
1, 75360, Note_on_c, 0, 62, 0
1, 75360, Note_on_c, 0, 64, 64
1, 75420, Note_on_c, 0, 64, 0
1, 75420, Note_on_c, 0, 62, 64
1, 75480, Note_on_c, 0, 62, 0
1, 75480, Note_on_c, 0, 60, 64
1, 75540, Note_on_c, 0, 60, 0
1, 75540, Note_on_c, 0, 59, 64
1, 75600, Note_on_c, 0, 59, 0
1, 75600, Note_on_c, 0, 79, 64
1, 75600, Note_on_c, 0, 72, 64
1, 75600, Note_on_c, 0, 57, 64
1, 75660, Note_on_c, 0, 57, 0
1, 75660, Note_on_c, 0, 55, 64
1, 75720, Note_on_c, 0, 55, 0
1, 75720, Note_on_c, 0, 53, 64
1, 75780, Note_on_c, 0, 53, 0
1, 75780, Note_on_c, 0, 52, 64
1, 75840, Note_on_c, 0, 52, 0
1, 75840, Note_on_c, 0, 72, 0
1, 75840, Note_on_c, 0, 79, 0
1, 75840, Note_on_c, 0, 72, 64
1, 75840, Note_on_c, 0, 77, 64
1, 75840, Note_on_c, 0, 50, 64
1, 75960, Note_on_c, 0, 50, 0
1, 75960, Note_on_c, 0, 52, 64
1, 76020, Note_on_c, 0, 52, 0
1, 76020, Note_on_c, 0, 53, 64
1, 76080, Note_on_c, 0, 53, 0
1, 76080, Note_on_c, 0, 77, 0
1, 76080, Note_on_c, 0, 72, 0
1, 76080, Note_on_c, 0, 55, 64
1, 76140, Note_on_c, 0, 55, 0
1, 76140, Note_on_c, 0, 57, 64
1, 76200, Note_on_c, 0, 57, 0
1, 76200, Note_on_c, 0, 59, 64
1, 76260, Note_on_c, 0, 59, 0
1, 76260, Note_on_c, 0, 60, 64
1, 76320, Note_on_c, 0, 60, 0
1, 76320, Note_on_c, 0, 62, 64
1, 76380, Note_on_c, 0, 62, 0
1, 76380, Note_on_c, 0, 60, 64
1, 76440, Note_on_c, 0, 60, 0
1, 76440, Note_on_c, 0, 59, 64
1, 76500, Note_on_c, 0, 59, 0
1, 76500, Note_on_c, 0, 57, 64
1, 76560, Note_on_c, 0, 57, 0
1, 76560, Note_on_c, 0, 77, 64
1, 76560, Note_on_c, 0, 71, 64
1, 76560, Note_on_c, 0, 55, 64
1, 76620, Note_on_c, 0, 55, 0
1, 76620, Note_on_c, 0, 53, 64
1, 76680, Note_on_c, 0, 53, 0
1, 76680, Note_on_c, 0, 52, 64
1, 76740, Note_on_c, 0, 52, 0
1, 76740, Note_on_c, 0, 50, 64
1, 76800, Note_on_c, 0, 50, 0
1, 76800, Note_on_c, 0, 71, 0
1, 76800, Note_on_c, 0, 77, 0
1, 76800, Note_on_c, 0, 72, 64
1, 76800, Note_on_c, 0, 76, 64
1, 76800, Note_on_c, 0, 48, 64
1, 76920, Note_on_c, 0, 48, 0
1, 76920, Note_on_c, 0, 50, 64
1, 76980, Note_on_c, 0, 50, 0
1, 76980, Note_on_c, 0, 52, 64
1, 77040, Note_on_c, 0, 52, 0
1, 77040, Note_on_c, 0, 76, 0
1, 77040, Note_on_c, 0, 72, 0
1, 77040, Note_on_c, 0, 53, 64
1, 77100, Note_on_c, 0, 53, 0
1, 77100, Note_on_c, 0, 55, 64
1, 77160, Note_on_c, 0, 55, 0
1, 77160, Note_on_c, 0, 57, 64
1, 77220, Note_on_c, 0, 57, 0
1, 77220, Note_on_c, 0, 59, 64
1, 77280, Note_on_c, 0, 59, 0
1, 77280, Note_on_c, 0, 60, 64
1, 77340, Note_on_c, 0, 60, 0
1, 77340, Note_on_c, 0, 59, 64
1, 77400, Note_on_c, 0, 59, 0
1, 77400, Note_on_c, 0, 57, 64
1, 77460, Note_on_c, 0, 57, 0
1, 77460, Note_on_c, 0, 55, 64
1, 77520, Note_on_c, 0, 55, 0
1, 77520, Note_on_c, 0, 76, 64
1, 77520, Note_on_c, 0, 72, 64
1, 77520, Note_on_c, 0, 53, 64
1, 77580, Note_on_c, 0, 53, 0
1, 77580, Note_on_c, 0, 52, 64
1, 77640, Note_on_c, 0, 52, 0
1, 77640, Note_on_c, 0, 50, 64
1, 77700, Note_on_c, 0, 50, 0
1, 77700, Note_on_c, 0, 48, 64
1, 77760, Note_on_c, 0, 48, 0
1, 77760, Note_on_c, 0, 72, 0
1, 77760, Note_on_c, 0, 76, 0
1, 77760, Note_on_c, 0, 57, 64
1, 77760, Note_on_c, 0, 53, 64
1, 77760, Note_on_c, 0, 74, 64
1, 77820, Note_on_c, 0, 74, 0
1, 77820, Note_on_c, 0, 62, 64
1, 77880, Note_on_c, 0, 62, 0
1, 77880, Note_on_c, 0, 64, 64
1, 77940, Note_on_c, 0, 64, 0
1, 77940, Note_on_c, 0, 65, 64
1, 78000, Note_on_c, 0, 65, 0
1, 78000, Note_on_c, 0, 67, 64
1, 78060, Note_on_c, 0, 67, 0
1, 78060, Note_on_c, 0, 69, 64
1, 78120, Note_on_c, 0, 69, 0
1, 78120, Note_on_c, 0, 71, 64
1, 78180, Note_on_c, 0, 71, 0
1, 78180, Note_on_c, 0, 73, 64
1, 78240, Note_on_c, 0, 73, 0
1, 78240, Note_on_c, 0, 74, 64
1, 78300, Note_on_c, 0, 74, 0
1, 78300, Note_on_c, 0, 69, 64
1, 78360, Note_on_c, 0, 69, 0
1, 78360, Note_on_c, 0, 71, 64
1, 78420, Note_on_c, 0, 71, 0
1, 78420, Note_on_c, 0, 73, 64
1, 78480, Note_on_c, 0, 73, 0
1, 78480, Note_on_c, 0, 74, 64
1, 78540, Note_on_c, 0, 74, 0
1, 78540, Note_on_c, 0, 76, 64
1, 78600, Note_on_c, 0, 76, 0
1, 78600, Note_on_c, 0, 77, 64
1, 78660, Note_on_c, 0, 77, 0
1, 78660, Note_on_c, 0, 79, 64
1, 78720, Note_on_c, 0, 79, 0
1, 78720, Note_on_c, 0, 53, 0
1, 78720, Note_on_c, 0, 57, 0
1, 78720, Note_on_c, 0, 81, 64
1, 78720, Note_on_c, 0, 53, 64
1, 78780, Note_on_c, 0, 81, 0
1, 78780, Note_on_c, 0, 83, 64
1, 78840, Note_on_c, 0, 83, 0
1, 78840, Note_on_c, 0, 84, 64
1, 78900, Note_on_c, 0, 84, 0
1, 78900, Note_on_c, 0, 83, 64
1, 78960, Note_on_c, 0, 83, 0
1, 78960, Note_on_c, 0, 81, 64
1, 79020, Note_on_c, 0, 81, 0
1, 79020, Note_on_c, 0, 79, 64
1, 79080, Note_on_c, 0, 79, 0
1, 79080, Note_on_c, 0, 53, 0
1, 79080, Note_on_c, 0, 77, 64
1, 79080, Note_on_c, 0, 55, 64
1, 79140, Note_on_c, 0, 77, 0
1, 79140, Note_on_c, 0, 76, 64
1, 79200, Note_on_c, 0, 76, 0
1, 79200, Note_on_c, 0, 55, 0
1, 79200, Note_on_c, 0, 77, 64
1, 79200, Note_on_c, 0, 57, 64
1, 79260, Note_on_c, 0, 77, 0
1, 79260, Note_on_c, 0, 79, 64
1, 79320, Note_on_c, 0, 79, 0
1, 79320, Note_on_c, 0, 81, 64
1, 79380, Note_on_c, 0, 81, 0
1, 79380, Note_on_c, 0, 79, 64
1, 79440, Note_on_c, 0, 79, 0
1, 79440, Note_on_c, 0, 77, 64
1, 79500, Note_on_c, 0, 77, 0
1, 79500, Note_on_c, 0, 76, 64
1, 79560, Note_on_c, 0, 76, 0
1, 79560, Note_on_c, 0, 57, 0
1, 79560, Note_on_c, 0, 54, 64
1, 79560, Note_on_c, 0, 74, 64
1, 79620, Note_on_c, 0, 74, 0
1, 79620, Note_on_c, 0, 72, 64
1, 79680, Note_on_c, 0, 72, 0
1, 79680, Note_on_c, 0, 54, 0
1, 79680, Note_on_c, 0, 71, 64
1, 79680, Note_on_c, 0, 43, 64
1, 79740, Note_on_c, 0, 43, 0
1, 79740, Note_on_c, 0, 47, 64
1, 79800, Note_on_c, 0, 47, 0
1, 79800, Note_on_c, 0, 71, 0
1, 79800, Note_on_c, 0, 79, 64
1, 79800, Note_on_c, 0, 50, 64
1, 79860, Note_on_c, 0, 50, 0
1, 79860, Note_on_c, 0, 55, 64
1, 79920, Note_on_c, 0, 55, 0
1, 79920, Note_on_c, 0, 79, 0
1, 79920, Note_on_c, 0, 76, 64
1, 79920, Note_on_c, 0, 43, 64
1, 79980, Note_on_c, 0, 43, 0
1, 79980, Note_on_c, 0, 48, 64
1, 80040, Note_on_c, 0, 48, 0
1, 80040, Note_on_c, 0, 76, 0
1, 80040, Note_on_c, 0, 72, 64
1, 80040, Note_on_c, 0, 52, 64
1, 80100, Note_on_c, 0, 52, 0
1, 80100, Note_on_c, 0, 55, 64
1, 80160, Note_on_c, 0, 55, 0
1, 80160, Note_on_c, 0, 72, 0
1, 80160, Note_on_c, 0, 74, 64
1, 80160, Note_on_c, 0, 43, 64
1, 80220, Note_on_c, 0, 43, 0
1, 80220, Note_on_c, 0, 47, 64
1, 80280, Note_on_c, 0, 47, 0
1, 80280, Note_on_c, 0, 74, 0
1, 80280, Note_on_c, 0, 79, 64
1, 80280, Note_on_c, 0, 50, 64
1, 80340, Note_on_c, 0, 50, 0
1, 80340, Note_on_c, 0, 55, 64
1, 80400, Note_on_c, 0, 55, 0
1, 80400, Note_on_c, 0, 79, 0
1, 80400, Note_on_c, 0, 76, 64
1, 80400, Note_on_c, 0, 43, 64
1, 80460, Note_on_c, 0, 43, 0
1, 80460, Note_on_c, 0, 48, 64
1, 80520, Note_on_c, 0, 48, 0
1, 80520, Note_on_c, 0, 76, 0
1, 80520, Note_on_c, 0, 72, 64
1, 80520, Note_on_c, 0, 52, 64
1, 80580, Note_on_c, 0, 52, 0
1, 80580, Note_on_c, 0, 55, 64
1, 80640, Note_on_c, 0, 55, 0
1, 80640, Note_on_c, 0, 72, 0
1, 80640, Note_on_c, 0, 74, 64
1, 80640, Note_on_c, 0, 43, 64
1, 80880, Note_on_c, 0, 43, 0
1, 80880, Note_on_c, 0, 74, 0
1, 80880, Note_on_c, 0, 71, 64
1, 80880, Note_on_c, 0, 74, 64
1, 80880, Note_on_c, 0, 79, 64
1, 80880, Note_on_c, 0, 55, 64
1, 81120, Note_on_c, 0, 55, 0
1, 81120, Note_on_c, 0, 79, 0
1, 81120, Note_on_c, 0, 74, 0
1, 81120, Note_on_c, 0, 71, 0
1, 81120, Note_on_c, 0, 67, 64
1, 81120, Note_on_c, 0, 43, 64
1, 81360, Note_on_c, 0, 43, 0
1, 81360, Note_on_c, 0, 67, 0
1, 81600, Note_on_c, 0, 66, 64
1, 81660, Note_on_c, 0, 66, 0
1, 81660, Note_on_c, 0, 67, 64
1, 81720, Note_on_c, 0, 67, 0
1, 81720, Note_on_c, 0, 66, 64
1, 81780, Note_on_c, 0, 66, 0
1, 81780, Note_on_c, 0, 67, 64
1, 81840, Note_on_c, 0, 67, 0
1, 81840, Note_on_c, 0, 66, 64
1, 81900, Note_on_c, 0, 66, 0
1, 81900, Note_on_c, 0, 67, 64
1, 81960, Note_on_c, 0, 67, 0
1, 81960, Note_on_c, 0, 66, 64
1, 82020, Note_on_c, 0, 66, 0
1, 82020, Note_on_c, 0, 67, 64
1, 82080, Note_on_c, 0, 67, 0
1, 82080, Note_on_c, 0, 65, 64
1, 82140, Note_on_c, 0, 65, 0
1, 82140, Note_on_c, 0, 67, 64
1, 82200, Note_on_c, 0, 67, 0
1, 82200, Note_on_c, 0, 65, 64
1, 82260, Note_on_c, 0, 65, 0
1, 82260, Note_on_c, 0, 67, 64
1, 82320, Note_on_c, 0, 67, 0
1, 82320, Note_on_c, 0, 65, 64
1, 82380, Note_on_c, 0, 65, 0
1, 82380, Note_on_c, 0, 67, 64
1, 82440, Note_on_c, 0, 67, 0
1, 82440, Note_on_c, 0, 65, 64
1, 82500, Note_on_c, 0, 65, 0
1, 82500, Note_on_c, 0, 67, 64
1, 82560, Note_on_c, 0, 67, 0
1, 82560, Note_on_c, 0, 79, 64
1, 82560, Note_on_c, 0, 64, 64
1, 82620, Note_on_c, 0, 64, 0
1, 82620, Note_on_c, 0, 67, 64
1, 82680, Note_on_c, 0, 67, 0
1, 82680, Note_on_c, 0, 79, 0
1, 82680, Note_on_c, 0, 76, 64
1, 82680, Note_on_c, 0, 64, 64
1, 82740, Note_on_c, 0, 64, 0
1, 82740, Note_on_c, 0, 67, 64
1, 82800, Note_on_c, 0, 67, 0
1, 82800, Note_on_c, 0, 76, 0
1, 82800, Note_on_c, 0, 72, 64
1, 82800, Note_on_c, 0, 64, 64
1, 82860, Note_on_c, 0, 64, 0
1, 82860, Note_on_c, 0, 67, 64
1, 82920, Note_on_c, 0, 67, 0
1, 82920, Note_on_c, 0, 64, 64
1, 82980, Note_on_c, 0, 64, 0
1, 82980, Note_on_c, 0, 67, 64
1, 83040, Note_on_c, 0, 67, 0
1, 83040, Note_on_c, 0, 64, 64
1, 83100, Note_on_c, 0, 64, 0
1, 83100, Note_on_c, 0, 67, 64
1, 83160, Note_on_c, 0, 67, 0
1, 83160, Note_on_c, 0, 72, 0
1, 83160, Note_on_c, 0, 74, 64
1, 83160, Note_on_c, 0, 64, 64
1, 83220, Note_on_c, 0, 64, 0
1, 83220, Note_on_c, 0, 74, 0
1, 83220, Note_on_c, 0, 76, 64
1, 83220, Note_on_c, 0, 67, 64
1, 83280, Note_on_c, 0, 67, 0
1, 83280, Note_on_c, 0, 76, 0
1, 83280, Note_on_c, 0, 64, 64
1, 83280, Note_on_c, 0, 74, 64
1, 83340, Note_on_c, 0, 64, 0
1, 83340, Note_on_c, 0, 67, 64
1, 83400, Note_on_c, 0, 67, 0
1, 83400, Note_on_c, 0, 74, 0
1, 83400, Note_on_c, 0, 64, 64
1, 83400, Note_on_c, 0, 72, 64
1, 83460, Note_on_c, 0, 64, 0
1, 83460, Note_on_c, 0, 67, 64
1, 83520, Note_on_c, 0, 67, 0
1, 83520, Note_on_c, 0, 72, 0
1, 83520, Note_on_c, 0, 74, 64
1, 83520, Note_on_c, 0, 65, 64
1, 83550, Note_on_c, 0, 74, 0
1, 83550, Note_on_c, 0, 72, 48
1, 83580, Note_on_c, 0, 72, 0
1, 83580, Note_on_c, 0, 65, 0
1, 83580, Note_on_c, 0, 74, 52
1, 83580, Note_on_c, 0, 67, 64
1, 83610, Note_on_c, 0, 74, 0
1, 83610, Note_on_c, 0, 72, 56
1, 83640, Note_on_c, 0, 72, 0
1, 83640, Note_on_c, 0, 67, 0
1, 83640, Note_on_c, 0, 74, 60
1, 83640, Note_on_c, 0, 64, 64
1, 83670, Note_on_c, 0, 74, 0
1, 83670, Note_on_c, 0, 72, 64
1, 83700, Note_on_c, 0, 72, 0
1, 83700, Note_on_c, 0, 64, 0
1, 83700, Note_on_c, 0, 71, 68
1, 83700, Note_on_c, 0, 67, 64
1, 83750, Note_on_c, 0, 71, 0
1, 83760, Note_on_c, 0, 67, 0
1, 83760, Note_on_c, 0, 71, 64
1, 83760, Note_on_c, 0, 62, 64
1, 83820, Note_on_c, 0, 62, 0
1, 83820, Note_on_c, 0, 67, 64
1, 83880, Note_on_c, 0, 67, 0
1, 83880, Note_on_c, 0, 64, 64
1, 83940, Note_on_c, 0, 64, 0
1, 83940, Note_on_c, 0, 67, 64
1, 84000, Note_on_c, 0, 67, 0
1, 84000, Note_on_c, 0, 65, 64
1, 84060, Note_on_c, 0, 65, 0
1, 84060, Note_on_c, 0, 67, 64
1, 84120, Note_on_c, 0, 67, 0
1, 84120, Note_on_c, 0, 64, 64
1, 84180, Note_on_c, 0, 64, 0
1, 84180, Note_on_c, 0, 67, 64
1, 84240, Note_on_c, 0, 67, 0
1, 84240, Note_on_c, 0, 65, 64
1, 84300, Note_on_c, 0, 65, 0
1, 84300, Note_on_c, 0, 67, 64
1, 84360, Note_on_c, 0, 67, 0
1, 84360, Note_on_c, 0, 62, 64
1, 84420, Note_on_c, 0, 62, 0
1, 84420, Note_on_c, 0, 67, 64
1, 84480, Note_on_c, 0, 67, 0
1, 84480, Note_on_c, 0, 71, 0
1, 84480, Note_on_c, 0, 79, 64
1, 84480, Note_on_c, 0, 64, 64
1, 84540, Note_on_c, 0, 64, 0
1, 84540, Note_on_c, 0, 67, 64
1, 84600, Note_on_c, 0, 67, 0
1, 84600, Note_on_c, 0, 79, 0
1, 84600, Note_on_c, 0, 76, 64
1, 84600, Note_on_c, 0, 64, 64
1, 84660, Note_on_c, 0, 64, 0
1, 84660, Note_on_c, 0, 67, 64
1, 84720, Note_on_c, 0, 67, 0
1, 84720, Note_on_c, 0, 76, 0
1, 84720, Note_on_c, 0, 72, 64
1, 84720, Note_on_c, 0, 64, 64
1, 84780, Note_on_c, 0, 64, 0
1, 84780, Note_on_c, 0, 67, 64
1, 84840, Note_on_c, 0, 67, 0
1, 84840, Note_on_c, 0, 64, 64
1, 84900, Note_on_c, 0, 64, 0
1, 84900, Note_on_c, 0, 67, 64
1, 84960, Note_on_c, 0, 67, 0
1, 84960, Note_on_c, 0, 64, 64
1, 85020, Note_on_c, 0, 64, 0
1, 85020, Note_on_c, 0, 67, 64
1, 85080, Note_on_c, 0, 67, 0
1, 85080, Note_on_c, 0, 72, 0
1, 85080, Note_on_c, 0, 74, 64
1, 85080, Note_on_c, 0, 64, 64
1, 85140, Note_on_c, 0, 64, 0
1, 85140, Note_on_c, 0, 74, 0
1, 85140, Note_on_c, 0, 76, 64
1, 85140, Note_on_c, 0, 67, 64
1, 85200, Note_on_c, 0, 67, 0
1, 85200, Note_on_c, 0, 76, 0
1, 85200, Note_on_c, 0, 74, 64
1, 85200, Note_on_c, 0, 64, 64
1, 85260, Note_on_c, 0, 64, 0
1, 85260, Note_on_c, 0, 67, 64
1, 85320, Note_on_c, 0, 67, 0
1, 85320, Note_on_c, 0, 74, 0
1, 85320, Note_on_c, 0, 72, 64
1, 85320, Note_on_c, 0, 64, 64
1, 85380, Note_on_c, 0, 64, 0
1, 85380, Note_on_c, 0, 67, 64
1, 85440, Note_on_c, 0, 67, 0
1, 85440, Note_on_c, 0, 72, 0
1, 85440, Note_on_c, 0, 74, 64
1, 85440, Note_on_c, 0, 65, 64
1, 85470, Note_on_c, 0, 74, 0
1, 85470, Note_on_c, 0, 72, 48
1, 85500, Note_on_c, 0, 72, 0
1, 85500, Note_on_c, 0, 65, 0
1, 85500, Note_on_c, 0, 74, 52
1, 85500, Note_on_c, 0, 67, 64
1, 85530, Note_on_c, 0, 74, 0
1, 85530, Note_on_c, 0, 72, 56
1, 85560, Note_on_c, 0, 72, 0
1, 85560, Note_on_c, 0, 67, 0
1, 85560, Note_on_c, 0, 74, 60
1, 85560, Note_on_c, 0, 64, 64
1, 85590, Note_on_c, 0, 74, 0
1, 85590, Note_on_c, 0, 72, 64
1, 85620, Note_on_c, 0, 72, 0
1, 85620, Note_on_c, 0, 64, 0
1, 85620, Note_on_c, 0, 71, 68
1, 85620, Note_on_c, 0, 67, 64
1, 85670, Note_on_c, 0, 71, 0
1, 85680, Note_on_c, 0, 67, 0
1, 85680, Note_on_c, 0, 71, 64
1, 85680, Note_on_c, 0, 62, 64
1, 85740, Note_on_c, 0, 62, 0
1, 85740, Note_on_c, 0, 67, 64
1, 85800, Note_on_c, 0, 67, 0
1, 85800, Note_on_c, 0, 64, 64
1, 85860, Note_on_c, 0, 64, 0
1, 85860, Note_on_c, 0, 67, 64
1, 85920, Note_on_c, 0, 67, 0
1, 85920, Note_on_c, 0, 65, 64
1, 85980, Note_on_c, 0, 65, 0
1, 85980, Note_on_c, 0, 67, 64
1, 86040, Note_on_c, 0, 67, 0
1, 86040, Note_on_c, 0, 64, 64
1, 86100, Note_on_c, 0, 64, 0
1, 86100, Note_on_c, 0, 67, 64
1, 86160, Note_on_c, 0, 67, 0
1, 86160, Note_on_c, 0, 71, 0
1, 86160, Note_on_c, 0, 65, 64
1, 86220, Note_on_c, 0, 65, 0
1, 86220, Note_on_c, 0, 67, 64
1, 86280, Note_on_c, 0, 67, 0
1, 86280, Note_on_c, 0, 62, 64
1, 86340, Note_on_c, 0, 62, 0
1, 86340, Note_on_c, 0, 67, 64
1, 86400, Note_on_c, 0, 67, 0
1, 86400, Note_on_c, 0, 79, 64
1, 86460, Note_on_c, 0, 52, 64
1, 86520, Note_on_c, 0, 52, 0
1, 86520, Note_on_c, 0, 55, 64
1, 86580, Note_on_c, 0, 55, 0
1, 86580, Note_on_c, 0, 60, 64
1, 86640, Note_on_c, 0, 60, 0
1, 86640, Note_on_c, 0, 79, 0
1, 86640, Note_on_c, 0, 64, 64
1, 86700, Note_on_c, 0, 79, 64
1, 86760, Note_on_c, 0, 79, 0
1, 86760, Note_on_c, 0, 76, 64
1, 86820, Note_on_c, 0, 76, 0
1, 86820, Note_on_c, 0, 72, 64
1, 86880, Note_on_c, 0, 72, 0
1, 86880, Note_on_c, 0, 64, 0
1, 86880, Note_on_c, 0, 69, 64
1, 86940, Note_on_c, 0, 53, 64
1, 87000, Note_on_c, 0, 53, 0
1, 87000, Note_on_c, 0, 57, 64
1, 87060, Note_on_c, 0, 57, 0
1, 87060, Note_on_c, 0, 60, 64
1, 87120, Note_on_c, 0, 60, 0
1, 87120, Note_on_c, 0, 69, 0
1, 87120, Note_on_c, 0, 65, 64
1, 87180, Note_on_c, 0, 69, 64
1, 87240, Note_on_c, 0, 69, 0
1, 87240, Note_on_c, 0, 72, 64
1, 87300, Note_on_c, 0, 72, 0
1, 87300, Note_on_c, 0, 69, 64
1, 87360, Note_on_c, 0, 69, 0
1, 87360, Note_on_c, 0, 65, 0
1, 87360, Note_on_c, 0, 77, 64
1, 87420, Note_on_c, 0, 50, 64
1, 87480, Note_on_c, 0, 50, 0
1, 87480, Note_on_c, 0, 53, 64
1, 87540, Note_on_c, 0, 53, 0
1, 87540, Note_on_c, 0, 59, 64
1, 87600, Note_on_c, 0, 59, 0
1, 87600, Note_on_c, 0, 77, 0
1, 87600, Note_on_c, 0, 62, 64
1, 87660, Note_on_c, 0, 77, 64
1, 87720, Note_on_c, 0, 77, 0
1, 87720, Note_on_c, 0, 74, 64
1, 87780, Note_on_c, 0, 74, 0
1, 87780, Note_on_c, 0, 71, 64
1, 87840, Note_on_c, 0, 71, 0
1, 87840, Note_on_c, 0, 62, 0
1, 87840, Note_on_c, 0, 67, 64
1, 87900, Note_on_c, 0, 52, 64
1, 87960, Note_on_c, 0, 52, 0
1, 87960, Note_on_c, 0, 55, 64
1, 88020, Note_on_c, 0, 55, 0
1, 88020, Note_on_c, 0, 59, 64
1, 88080, Note_on_c, 0, 59, 0
1, 88080, Note_on_c, 0, 67, 0
1, 88080, Note_on_c, 0, 64, 64
1, 88140, Note_on_c, 0, 79, 64
1, 88200, Note_on_c, 0, 79, 0
1, 88200, Note_on_c, 0, 83, 64
1, 88260, Note_on_c, 0, 83, 0
1, 88260, Note_on_c, 0, 79, 64
1, 88320, Note_on_c, 0, 79, 0
1, 88320, Note_on_c, 0, 64, 0
1, 88320, Note_on_c, 0, 88, 64
1, 88380, Note_on_c, 0, 60, 64
1, 88440, Note_on_c, 0, 60, 0
1, 88440, Note_on_c, 0, 64, 64
1, 88500, Note_on_c, 0, 64, 0
1, 88500, Note_on_c, 0, 69, 64
1, 88560, Note_on_c, 0, 69, 0
1, 88560, Note_on_c, 0, 88, 0
1, 88560, Note_on_c, 0, 72, 64
1, 88620, Note_on_c, 0, 88, 64
1, 88680, Note_on_c, 0, 88, 0
1, 88680, Note_on_c, 0, 84, 64
1, 88740, Note_on_c, 0, 84, 0
1, 88740, Note_on_c, 0, 81, 64
1, 88800, Note_on_c, 0, 81, 0
1, 88800, Note_on_c, 0, 72, 0
1, 88800, Note_on_c, 0, 77, 64
1, 88860, Note_on_c, 0, 62, 64
1, 88920, Note_on_c, 0, 62, 0
1, 88920, Note_on_c, 0, 65, 64
1, 88980, Note_on_c, 0, 65, 0
1, 88980, Note_on_c, 0, 69, 64
1, 89040, Note_on_c, 0, 69, 0
1, 89040, Note_on_c, 0, 77, 0
1, 89040, Note_on_c, 0, 74, 64
1, 89100, Note_on_c, 0, 77, 64
1, 89160, Note_on_c, 0, 77, 0
1, 89160, Note_on_c, 0, 81, 64
1, 89220, Note_on_c, 0, 81, 0
1, 89220, Note_on_c, 0, 77, 64
1, 89280, Note_on_c, 0, 77, 0
1, 89280, Note_on_c, 0, 74, 0
1, 89280, Note_on_c, 0, 86, 64
1, 89340, Note_on_c, 0, 59, 64
1, 89400, Note_on_c, 0, 59, 0
1, 89400, Note_on_c, 0, 62, 64
1, 89460, Note_on_c, 0, 62, 0
1, 89460, Note_on_c, 0, 67, 64
1, 89520, Note_on_c, 0, 67, 0
1, 89520, Note_on_c, 0, 86, 0
1, 89520, Note_on_c, 0, 71, 64
1, 89580, Note_on_c, 0, 86, 64
1, 89640, Note_on_c, 0, 86, 0
1, 89640, Note_on_c, 0, 83, 64
1, 89700, Note_on_c, 0, 83, 0
1, 89700, Note_on_c, 0, 79, 64
1, 89760, Note_on_c, 0, 79, 0
1, 89760, Note_on_c, 0, 71, 0
1, 89760, Note_on_c, 0, 76, 64
1, 89820, Note_on_c, 0, 60, 64
1, 89880, Note_on_c, 0, 60, 0
1, 89880, Note_on_c, 0, 64, 64
1, 89940, Note_on_c, 0, 64, 0
1, 89940, Note_on_c, 0, 67, 64
1, 90000, Note_on_c, 0, 67, 0
1, 90000, Note_on_c, 0, 76, 0
1, 90000, Note_on_c, 0, 72, 64
1, 90060, Note_on_c, 0, 84, 64
1, 90120, Note_on_c, 0, 84, 0
1, 90120, Note_on_c, 0, 79, 64
1, 90180, Note_on_c, 0, 79, 0
1, 90180, Note_on_c, 0, 76, 64
1, 90240, Note_on_c, 0, 76, 0
1, 90240, Note_on_c, 0, 72, 0
1, 90240, Note_on_c, 0, 74, 64
1, 90360, Note_on_c, 0, 69, 64
1, 90360, Note_on_c, 0, 65, 64
1, 90456, Note_on_c, 0, 65, 0
1, 90456, Note_on_c, 0, 69, 0
1, 90480, Note_on_c, 0, 69, 64
1, 90480, Note_on_c, 0, 65, 64
1, 90576, Note_on_c, 0, 65, 0
1, 90576, Note_on_c, 0, 69, 0
1, 90600, Note_on_c, 0, 69, 64
1, 90600, Note_on_c, 0, 65, 64
1, 90696, Note_on_c, 0, 65, 0
1, 90696, Note_on_c, 0, 69, 0
1, 90710, Note_on_c, 0, 74, 0
1, 90720, Note_on_c, 0, 69, 64
1, 90720, Note_on_c, 0, 65, 64
1, 90720, Note_on_c, 0, 73, 72
1, 90750, Note_on_c, 0, 73, 0
1, 90750, Note_on_c, 0, 74, 64
1, 90816, Note_on_c, 0, 65, 0
1, 90816, Note_on_c, 0, 69, 0
1, 90840, Note_on_c, 0, 69, 64
1, 90840, Note_on_c, 0, 65, 64
1, 90936, Note_on_c, 0, 65, 0
1, 90936, Note_on_c, 0, 69, 0
1, 90960, Note_on_c, 0, 74, 0
1, 90960, Note_on_c, 0, 69, 64
1, 90960, Note_on_c, 0, 65, 64
1, 90960, Note_on_c, 0, 73, 72
1, 90990, Note_on_c, 0, 73, 0
1, 90990, Note_on_c, 0, 74, 64
1, 91056, Note_on_c, 0, 65, 0
1, 91056, Note_on_c, 0, 69, 0
1, 91080, Note_on_c, 0, 65, 64
1, 91080, Note_on_c, 0, 69, 64
1, 91176, Note_on_c, 0, 69, 0
1, 91176, Note_on_c, 0, 65, 0
1, 91200, Note_on_c, 0, 74, 0
1, 91200, Note_on_c, 0, 81, 64
1, 91320, Note_on_c, 0, 63, 64
1, 91320, Note_on_c, 0, 60, 64
1, 91320, Note_on_c, 0, 54, 64
1, 91416, Note_on_c, 0, 54, 0
1, 91416, Note_on_c, 0, 60, 0
1, 91416, Note_on_c, 0, 63, 0
1, 91440, Note_on_c, 0, 63, 64
1, 91440, Note_on_c, 0, 60, 64
1, 91440, Note_on_c, 0, 54, 64
1, 91536, Note_on_c, 0, 54, 0
1, 91536, Note_on_c, 0, 60, 0
1, 91536, Note_on_c, 0, 63, 0
1, 91560, Note_on_c, 0, 63, 64
1, 91560, Note_on_c, 0, 60, 64
1, 91560, Note_on_c, 0, 54, 64
1, 91656, Note_on_c, 0, 54, 0
1, 91656, Note_on_c, 0, 60, 0
1, 91656, Note_on_c, 0, 63, 0
1, 91670, Note_on_c, 0, 81, 0
1, 91680, Note_on_c, 0, 63, 64
1, 91680, Note_on_c, 0, 60, 64
1, 91680, Note_on_c, 0, 54, 64
1, 91680, Note_on_c, 0, 80, 72
1, 91710, Note_on_c, 0, 80, 0
1, 91710, Note_on_c, 0, 81, 64
1, 91776, Note_on_c, 0, 54, 0
1, 91776, Note_on_c, 0, 60, 0
1, 91776, Note_on_c, 0, 63, 0
1, 91800, Note_on_c, 0, 63, 64
1, 91800, Note_on_c, 0, 60, 64
1, 91800, Note_on_c, 0, 54, 64
1, 91896, Note_on_c, 0, 54, 0
1, 91896, Note_on_c, 0, 60, 0
1, 91896, Note_on_c, 0, 63, 0
1, 91920, Note_on_c, 0, 81, 0
1, 91920, Note_on_c, 0, 63, 64
1, 91920, Note_on_c, 0, 60, 64
1, 91920, Note_on_c, 0, 54, 64
1, 91920, Note_on_c, 0, 80, 72
1, 91950, Note_on_c, 0, 80, 0
1, 91950, Note_on_c, 0, 81, 64
1, 92016, Note_on_c, 0, 54, 0
1, 92016, Note_on_c, 0, 60, 0
1, 92016, Note_on_c, 0, 63, 0
1, 92040, Note_on_c, 0, 54, 64
1, 92040, Note_on_c, 0, 60, 64
1, 92040, Note_on_c, 0, 63, 64
1, 92136, Note_on_c, 0, 63, 0
1, 92136, Note_on_c, 0, 60, 0
1, 92136, Note_on_c, 0, 54, 0
1, 92160, Note_on_c, 0, 81, 0
1, 92160, Note_on_c, 0, 79, 64
1, 92160, Note_on_c, 0, 55, 64
1, 92220, Note_on_c, 0, 55, 0
1, 92220, Note_on_c, 0, 64, 64
1, 92280, Note_on_c, 0, 64, 0
1, 92280, Note_on_c, 0, 79, 0
1, 92280, Note_on_c, 0, 81, 64
1, 92280, Note_on_c, 0, 60, 64
1, 92340, Note_on_c, 0, 60, 0
1, 92340, Note_on_c, 0, 81, 0
1, 92340, Note_on_c, 0, 83, 64
1, 92340, Note_on_c, 0, 64, 64
1, 92400, Note_on_c, 0, 64, 0
1, 92400, Note_on_c, 0, 83, 0
1, 92400, Note_on_c, 0, 84, 64
1, 92400, Note_on_c, 0, 55, 64
1, 92460, Note_on_c, 0, 55, 0
1, 92460, Note_on_c, 0, 84, 0
1, 92460, Note_on_c, 0, 86, 64
1, 92460, Note_on_c, 0, 64, 64
1, 92520, Note_on_c, 0, 64, 0
1, 92520, Note_on_c, 0, 86, 0
1, 92520, Note_on_c, 0, 88, 64
1, 92520, Note_on_c, 0, 60, 64
1, 92580, Note_on_c, 0, 60, 0
1, 92580, Note_on_c, 0, 88, 0
1, 92580, Note_on_c, 0, 86, 64
1, 92580, Note_on_c, 0, 64, 64
1, 92640, Note_on_c, 0, 64, 0
1, 92640, Note_on_c, 0, 86, 0
1, 92640, Note_on_c, 0, 84, 64
1, 92640, Note_on_c, 0, 55, 64
1, 92700, Note_on_c, 0, 55, 0
1, 92700, Note_on_c, 0, 84, 0
1, 92700, Note_on_c, 0, 83, 64
1, 92700, Note_on_c, 0, 64, 64
1, 92760, Note_on_c, 0, 64, 0
1, 92760, Note_on_c, 0, 83, 0
1, 92760, Note_on_c, 0, 81, 64
1, 92760, Note_on_c, 0, 60, 64
1, 92820, Note_on_c, 0, 60, 0
1, 92820, Note_on_c, 0, 81, 0
1, 92820, Note_on_c, 0, 79, 64
1, 92820, Note_on_c, 0, 64, 64
1, 92880, Note_on_c, 0, 64, 0
1, 92880, Note_on_c, 0, 79, 0
1, 92880, Note_on_c, 0, 77, 64
1, 92880, Note_on_c, 0, 55, 64
1, 92940, Note_on_c, 0, 55, 0
1, 92940, Note_on_c, 0, 77, 0
1, 92940, Note_on_c, 0, 76, 64
1, 92940, Note_on_c, 0, 64, 64
1, 93000, Note_on_c, 0, 64, 0
1, 93000, Note_on_c, 0, 76, 0
1, 93000, Note_on_c, 0, 74, 64
1, 93000, Note_on_c, 0, 60, 64
1, 93060, Note_on_c, 0, 60, 0
1, 93060, Note_on_c, 0, 74, 0
1, 93060, Note_on_c, 0, 64, 64
1, 93060, Note_on_c, 0, 72, 64
1, 93120, Note_on_c, 0, 72, 0
1, 93120, Note_on_c, 0, 64, 0
1, 93120, Note_on_c, 0, 76, 64
1, 93120, Note_on_c, 0, 55, 64
1, 93150, Note_on_c, 0, 76, 0
1, 93150, Note_on_c, 0, 74, 48
1, 93180, Note_on_c, 0, 74, 0
1, 93180, Note_on_c, 0, 55, 0
1, 93180, Note_on_c, 0, 76, 48
1, 93180, Note_on_c, 0, 65, 64
1, 93210, Note_on_c, 0, 76, 0
1, 93210, Note_on_c, 0, 74, 49
1, 93240, Note_on_c, 0, 74, 0
1, 93240, Note_on_c, 0, 65, 0
1, 93240, Note_on_c, 0, 76, 49
1, 93240, Note_on_c, 0, 59, 64
1, 93270, Note_on_c, 0, 76, 0
1, 93270, Note_on_c, 0, 74, 50
1, 93300, Note_on_c, 0, 74, 0
1, 93300, Note_on_c, 0, 59, 0
1, 93300, Note_on_c, 0, 76, 50
1, 93300, Note_on_c, 0, 65, 64
1, 93330, Note_on_c, 0, 76, 0
1, 93330, Note_on_c, 0, 74, 51
1, 93360, Note_on_c, 0, 74, 0
1, 93360, Note_on_c, 0, 65, 0
1, 93360, Note_on_c, 0, 76, 52
1, 93360, Note_on_c, 0, 55, 64
1, 93390, Note_on_c, 0, 76, 0
1, 93390, Note_on_c, 0, 74, 52
1, 93420, Note_on_c, 0, 74, 0
1, 93420, Note_on_c, 0, 55, 0
1, 93420, Note_on_c, 0, 76, 53
1, 93420, Note_on_c, 0, 65, 64
1, 93450, Note_on_c, 0, 76, 0
1, 93450, Note_on_c, 0, 74, 53
1, 93480, Note_on_c, 0, 74, 0
1, 93480, Note_on_c, 0, 65, 0
1, 93480, Note_on_c, 0, 76, 54
1, 93480, Note_on_c, 0, 59, 64
1, 93510, Note_on_c, 0, 76, 0
1, 93510, Note_on_c, 0, 74, 54
1, 93540, Note_on_c, 0, 74, 0
1, 93540, Note_on_c, 0, 59, 0
1, 93540, Note_on_c, 0, 76, 55
1, 93540, Note_on_c, 0, 65, 64
1, 93570, Note_on_c, 0, 76, 0
1, 93570, Note_on_c, 0, 74, 56
1, 93600, Note_on_c, 0, 74, 0
1, 93600, Note_on_c, 0, 65, 0
1, 93600, Note_on_c, 0, 76, 56
1, 93600, Note_on_c, 0, 55, 64
1, 93630, Note_on_c, 0, 76, 0
1, 93630, Note_on_c, 0, 74, 57
1, 93660, Note_on_c, 0, 74, 0
1, 93660, Note_on_c, 0, 55, 0
1, 93660, Note_on_c, 0, 76, 57
1, 93660, Note_on_c, 0, 65, 64
1, 93690, Note_on_c, 0, 76, 0
1, 93690, Note_on_c, 0, 74, 58
1, 93720, Note_on_c, 0, 74, 0
1, 93720, Note_on_c, 0, 65, 0
1, 93720, Note_on_c, 0, 76, 58
1, 93720, Note_on_c, 0, 59, 64
1, 93750, Note_on_c, 0, 76, 0
1, 93750, Note_on_c, 0, 74, 59
1, 93780, Note_on_c, 0, 74, 0
1, 93780, Note_on_c, 0, 59, 0
1, 93780, Note_on_c, 0, 76, 60
1, 93780, Note_on_c, 0, 65, 64
1, 93810, Note_on_c, 0, 76, 0
1, 93810, Note_on_c, 0, 74, 60
1, 93840, Note_on_c, 0, 74, 0
1, 93840, Note_on_c, 0, 65, 0
1, 93840, Note_on_c, 0, 76, 61
1, 93840, Note_on_c, 0, 55, 64
1, 93870, Note_on_c, 0, 76, 0
1, 93870, Note_on_c, 0, 74, 61
1, 93900, Note_on_c, 0, 74, 0
1, 93900, Note_on_c, 0, 55, 0
1, 93900, Note_on_c, 0, 76, 62
1, 93900, Note_on_c, 0, 65, 64
1, 93930, Note_on_c, 0, 76, 0
1, 93930, Note_on_c, 0, 74, 62
1, 93960, Note_on_c, 0, 74, 0
1, 93960, Note_on_c, 0, 65, 0
1, 93960, Note_on_c, 0, 76, 63
1, 93960, Note_on_c, 0, 59, 64
1, 93990, Note_on_c, 0, 76, 0
1, 93990, Note_on_c, 0, 74, 64
1, 94020, Note_on_c, 0, 74, 0
1, 94020, Note_on_c, 0, 59, 0
1, 94020, Note_on_c, 0, 65, 64
1, 94020, Note_on_c, 0, 72, 64
1, 94050, Note_on_c, 0, 72, 0
1, 94050, Note_on_c, 0, 74, 64
1, 94080, Note_on_c, 0, 74, 0
1, 94080, Note_on_c, 0, 65, 0
1, 94080, Note_on_c, 0, 72, 64
1, 94080, Note_on_c, 0, 60, 64
1, 94080, Note_on_c, 0, 64, 64
1, 94320, Note_on_c, 0, 64, 0
1, 94320, Note_on_c, 0, 60, 0
1, 94320, Note_on_c, 0, 72, 0
1, 94320, Note_on_c, 0, 72, 64
1, 94380, Note_on_c, 0, 72, 0
1, 94380, Note_on_c, 0, 67, 64
1, 94440, Note_on_c, 0, 67, 0
1, 94440, Note_on_c, 0, 72, 64
1, 94500, Note_on_c, 0, 72, 0
1, 94500, Note_on_c, 0, 76, 64
1, 94560, Note_on_c, 0, 76, 0
1, 94560, Note_on_c, 0, 79, 64
1, 94620, Note_on_c, 0, 79, 0
1, 94620, Note_on_c, 0, 76, 64
1, 94680, Note_on_c, 0, 76, 0
1, 94680, Note_on_c, 0, 72, 64
1, 94740, Note_on_c, 0, 72, 0
1, 94740, Note_on_c, 0, 76, 64
1, 94800, Note_on_c, 0, 76, 0
1, 94800, Note_on_c, 0, 65, 64
1, 94800, Note_on_c, 0, 62, 64
1, 94800, Note_on_c, 0, 55, 64
1, 94800, Note_on_c, 0, 77, 64
1, 94860, Note_on_c, 0, 77, 0
1, 94860, Note_on_c, 0, 74, 64
1, 94920, Note_on_c, 0, 74, 0
1, 94920, Note_on_c, 0, 71, 64
1, 94980, Note_on_c, 0, 71, 0
1, 94980, Note_on_c, 0, 74, 64
1, 95040, Note_on_c, 0, 74, 0
1, 95040, Note_on_c, 0, 55, 0
1, 95040, Note_on_c, 0, 62, 0
1, 95040, Note_on_c, 0, 65, 0
1, 95040, Note_on_c, 0, 60, 64
1, 95040, Note_on_c, 0, 72, 64
1, 95040, Note_on_c, 0, 64, 64
1, 95280, Note_on_c, 0, 64, 0
1, 95280, Note_on_c, 0, 72, 0
1, 95280, Note_on_c, 0, 60, 0
1, 95280, Note_on_c, 0, 60, 64
1, 95340, Note_on_c, 0, 60, 0
1, 95340, Note_on_c, 0, 55, 64
1, 95400, Note_on_c, 0, 55, 0
1, 95400, Note_on_c, 0, 60, 64
1, 95460, Note_on_c, 0, 60, 0
1, 95460, Note_on_c, 0, 64, 64
1, 95520, Note_on_c, 0, 64, 0
1, 95520, Note_on_c, 0, 67, 64
1, 95580, Note_on_c, 0, 67, 0
1, 95580, Note_on_c, 0, 64, 64
1, 95640, Note_on_c, 0, 64, 0
1, 95640, Note_on_c, 0, 60, 64
1, 95700, Note_on_c, 0, 60, 0
1, 95700, Note_on_c, 0, 64, 64
1, 95760, Note_on_c, 0, 64, 0
1, 95760, Note_on_c, 0, 53, 64
1, 95760, Note_on_c, 0, 50, 64
1, 95760, Note_on_c, 0, 43, 64
1, 95760, Note_on_c, 0, 65, 64
1, 95820, Note_on_c, 0, 65, 0
1, 95820, Note_on_c, 0, 62, 64
1, 95880, Note_on_c, 0, 62, 0
1, 95880, Note_on_c, 0, 59, 64
1, 95940, Note_on_c, 0, 59, 0
1, 95940, Note_on_c, 0, 62, 64
1, 96000, Note_on_c, 0, 62, 0
1, 96000, Note_on_c, 0, 43, 0
1, 96000, Note_on_c, 0, 50, 0
1, 96000, Note_on_c, 0, 53, 0
1, 96000, Note_on_c, 0, 52, 64
1, 96000, Note_on_c, 0, 48, 64
1, 96000, Note_on_c, 0, 60, 64
1, 96192, Note_on_c, 0, 60, 0
1, 96192, Note_on_c, 0, 48, 0
1, 96192, Note_on_c, 0, 52, 0
1, 96240, Note_on_c, 0, 60, 64
1, 96240, Note_on_c, 0, 48, 64
1, 96240, Note_on_c, 0, 79, 64
1, 96240, Note_on_c, 0, 76, 64
1, 96240, Note_on_c, 0, 84, 64
1, 96432, Note_on_c, 0, 76, 0
1, 96432, Note_on_c, 0, 79, 0
1, 96432, Note_on_c, 0, 48, 0
1, 96432, Note_on_c, 0, 60, 0
1, 96480, Note_on_c, 0, 84, 0
1, 96480, Note_on_c, 0, 48, 64
1, 96480, Note_on_c, 0, 72, 64
1, 96480, Note_on_c, 0, 36, 64
1, 96672, Note_on_c, 0, 72, 0
1, 96672, Note_on_c, 0, 48, 0
1, 96720, Note_on_c, 0, 36, 0
1, 96960, Note_on_c, 0, 67, 64
1, 96960, Note_on_c, 0, 43, 64
1, 96960, Note_on_c, 0, 55, 64
1, 97200, Note_on_c, 0, 55, 0
1, 97200, Note_on_c, 0, 43, 0
1, 97200, Note_on_c, 0, 67, 0
1, 97200, Note_on_c, 0, 79, 64
1, 97260, Note_on_c, 0, 79, 0
1, 97260, Note_on_c, 0, 74, 64
1, 97320, Note_on_c, 0, 74, 0
1, 97320, Note_on_c, 0, 79, 64
1, 97380, Note_on_c, 0, 79, 0
1, 97380, Note_on_c, 0, 82, 64
1, 97440, Note_on_c, 0, 82, 0
1, 97440, Note_on_c, 0, 86, 64
1, 97500, Note_on_c, 0, 86, 0
1, 97500, Note_on_c, 0, 82, 64
1, 97560, Note_on_c, 0, 82, 0
1, 97560, Note_on_c, 0, 79, 64
1, 97620, Note_on_c, 0, 79, 0
1, 97620, Note_on_c, 0, 82, 64
1, 97680, Note_on_c, 0, 82, 0
1, 97680, Note_on_c, 0, 72, 64
1, 97680, Note_on_c, 0, 69, 64
1, 97680, Note_on_c, 0, 62, 64
1, 97680, Note_on_c, 0, 84, 64
1, 97740, Note_on_c, 0, 84, 0
1, 97740, Note_on_c, 0, 81, 64
1, 97800, Note_on_c, 0, 81, 0
1, 97800, Note_on_c, 0, 78, 64
1, 97860, Note_on_c, 0, 78, 0
1, 97860, Note_on_c, 0, 81, 64
1, 97920, Note_on_c, 0, 81, 0
1, 97920, Note_on_c, 0, 62, 0
1, 97920, Note_on_c, 0, 69, 0
1, 97920, Note_on_c, 0, 72, 0
1, 97920, Note_on_c, 0, 67, 64
1, 97920, Note_on_c, 0, 79, 64
1, 97920, Note_on_c, 0, 70, 64
1, 98160, Note_on_c, 0, 70, 0
1, 98160, Note_on_c, 0, 79, 0
1, 98160, Note_on_c, 0, 67, 0
1, 98160, Note_on_c, 0, 67, 64
1, 98220, Note_on_c, 0, 67, 0
1, 98220, Note_on_c, 0, 62, 64
1, 98280, Note_on_c, 0, 62, 0
1, 98280, Note_on_c, 0, 67, 64
1, 98340, Note_on_c, 0, 67, 0
1, 98340, Note_on_c, 0, 70, 64
1, 98400, Note_on_c, 0, 70, 0
1, 98400, Note_on_c, 0, 74, 64
1, 98460, Note_on_c, 0, 74, 0
1, 98460, Note_on_c, 0, 70, 64
1, 98520, Note_on_c, 0, 70, 0
1, 98520, Note_on_c, 0, 67, 64
1, 98580, Note_on_c, 0, 67, 0
1, 98580, Note_on_c, 0, 70, 64
1, 98640, Note_on_c, 0, 70, 0
1, 98640, Note_on_c, 0, 60, 64
1, 98640, Note_on_c, 0, 57, 64
1, 98640, Note_on_c, 0, 50, 64
1, 98640, Note_on_c, 0, 72, 64
1, 98700, Note_on_c, 0, 72, 0
1, 98700, Note_on_c, 0, 69, 64
1, 98760, Note_on_c, 0, 69, 0
1, 98760, Note_on_c, 0, 66, 64
1, 98820, Note_on_c, 0, 66, 0
1, 98820, Note_on_c, 0, 69, 64
1, 98880, Note_on_c, 0, 69, 0
1, 98880, Note_on_c, 0, 50, 0
1, 98880, Note_on_c, 0, 57, 0
1, 98880, Note_on_c, 0, 60, 0
1, 98880, Note_on_c, 0, 67, 64
1, 98940, Note_on_c, 0, 43, 64
1, 99000, Note_on_c, 0, 43, 0
1, 99000, Note_on_c, 0, 45, 64
1, 99060, Note_on_c, 0, 45, 0
1, 99060, Note_on_c, 0, 46, 64
1, 99120, Note_on_c, 0, 46, 0
1, 99120, Note_on_c, 0, 67, 0
1, 99120, Note_on_c, 0, 48, 64
1, 99180, Note_on_c, 0, 48, 0
1, 99180, Note_on_c, 0, 50, 64
1, 99240, Note_on_c, 0, 50, 0
1, 99240, Note_on_c, 0, 52, 64
1, 99300, Note_on_c, 0, 52, 0
1, 99300, Note_on_c, 0, 54, 64
1, 99360, Note_on_c, 0, 54, 0
1, 99360, Note_on_c, 0, 55, 64
1, 99420, Note_on_c, 0, 79, 64
1, 99480, Note_on_c, 0, 79, 0
1, 99480, Note_on_c, 0, 82, 64
1, 99540, Note_on_c, 0, 82, 0
1, 99540, Note_on_c, 0, 81, 64
1, 99600, Note_on_c, 0, 81, 0
1, 99600, Note_on_c, 0, 55, 0
1, 99600, Note_on_c, 0, 79, 64
1, 99660, Note_on_c, 0, 79, 0
1, 99660, Note_on_c, 0, 77, 64
1, 99720, Note_on_c, 0, 77, 0
1, 99720, Note_on_c, 0, 76, 64
1, 99780, Note_on_c, 0, 76, 0
1, 99780, Note_on_c, 0, 74, 64
1, 99840, Note_on_c, 0, 74, 0
1, 99840, Note_on_c, 0, 73, 64
1, 99900, Note_on_c, 0, 45, 64
1, 99960, Note_on_c, 0, 45, 0
1, 99960, Note_on_c, 0, 47, 64
1, 100020, Note_on_c, 0, 47, 0
1, 100020, Note_on_c, 0, 49, 64
1, 100080, Note_on_c, 0, 49, 0
1, 100080, Note_on_c, 0, 73, 0
1, 100080, Note_on_c, 0, 50, 64
1, 100140, Note_on_c, 0, 50, 0
1, 100140, Note_on_c, 0, 52, 64
1, 100200, Note_on_c, 0, 52, 0
1, 100200, Note_on_c, 0, 54, 64
1, 100260, Note_on_c, 0, 54, 0
1, 100260, Note_on_c, 0, 56, 64
1, 100320, Note_on_c, 0, 56, 0
1, 100320, Note_on_c, 0, 57, 64
1, 100380, Note_on_c, 0, 85, 64
1, 100440, Note_on_c, 0, 85, 0
1, 100440, Note_on_c, 0, 88, 64
1, 100500, Note_on_c, 0, 88, 0
1, 100500, Note_on_c, 0, 86, 64
1, 100560, Note_on_c, 0, 86, 0
1, 100560, Note_on_c, 0, 57, 0
1, 100560, Note_on_c, 0, 85, 64
1, 100620, Note_on_c, 0, 85, 0
1, 100620, Note_on_c, 0, 82, 64
1, 100680, Note_on_c, 0, 82, 0
1, 100680, Note_on_c, 0, 81, 64
1, 100740, Note_on_c, 0, 81, 0
1, 100740, Note_on_c, 0, 79, 64
1, 100800, Note_on_c, 0, 79, 0
1, 100800, Note_on_c, 0, 77, 64
1, 100800, Note_on_c, 0, 38, 64
1, 100800, Note_on_c, 0, 50, 64
1, 101040, Note_on_c, 0, 50, 0
1, 101040, Note_on_c, 0, 38, 0
1, 101040, Note_on_c, 0, 77, 0
1, 101040, Note_on_c, 0, 74, 64
1, 101100, Note_on_c, 0, 74, 0
1, 101100, Note_on_c, 0, 69, 64
1, 101160, Note_on_c, 0, 69, 0
1, 101160, Note_on_c, 0, 74, 64
1, 101220, Note_on_c, 0, 74, 0
1, 101220, Note_on_c, 0, 77, 64
1, 101280, Note_on_c, 0, 77, 0
1, 101280, Note_on_c, 0, 81, 64
1, 101340, Note_on_c, 0, 81, 0
1, 101340, Note_on_c, 0, 77, 64
1, 101400, Note_on_c, 0, 77, 0
1, 101400, Note_on_c, 0, 74, 64
1, 101460, Note_on_c, 0, 74, 0
1, 101460, Note_on_c, 0, 77, 64
1, 101520, Note_on_c, 0, 77, 0
1, 101520, Note_on_c, 0, 67, 64
1, 101520, Note_on_c, 0, 64, 64
1, 101520, Note_on_c, 0, 57, 64
1, 101520, Note_on_c, 0, 79, 64
1, 101580, Note_on_c, 0, 79, 0
1, 101580, Note_on_c, 0, 76, 64
1, 101640, Note_on_c, 0, 76, 0
1, 101640, Note_on_c, 0, 73, 64
1, 101700, Note_on_c, 0, 73, 0
1, 101700, Note_on_c, 0, 76, 64
1, 101760, Note_on_c, 0, 76, 0
1, 101760, Note_on_c, 0, 57, 0
1, 101760, Note_on_c, 0, 64, 0
1, 101760, Note_on_c, 0, 67, 0
1, 101760, Note_on_c, 0, 62, 64
1, 101760, Note_on_c, 0, 74, 64
1, 101760, Note_on_c, 0, 65, 64
1, 102000, Note_on_c, 0, 65, 0
1, 102000, Note_on_c, 0, 74, 0
1, 102000, Note_on_c, 0, 62, 0
1, 102000, Note_on_c, 0, 62, 64
1, 102060, Note_on_c, 0, 62, 0
1, 102060, Note_on_c, 0, 57, 64
1, 102120, Note_on_c, 0, 57, 0
1, 102120, Note_on_c, 0, 62, 64
1, 102180, Note_on_c, 0, 62, 0
1, 102180, Note_on_c, 0, 65, 64
1, 102240, Note_on_c, 0, 65, 0
1, 102240, Note_on_c, 0, 69, 64
1, 102300, Note_on_c, 0, 69, 0
1, 102300, Note_on_c, 0, 65, 64
1, 102360, Note_on_c, 0, 65, 0
1, 102360, Note_on_c, 0, 62, 64
1, 102420, Note_on_c, 0, 62, 0
1, 102420, Note_on_c, 0, 65, 64
1, 102480, Note_on_c, 0, 65, 0
1, 102480, Note_on_c, 0, 55, 64
1, 102480, Note_on_c, 0, 52, 64
1, 102480, Note_on_c, 0, 45, 64
1, 102480, Note_on_c, 0, 67, 64
1, 102540, Note_on_c, 0, 67, 0
1, 102540, Note_on_c, 0, 64, 64
1, 102600, Note_on_c, 0, 64, 0
1, 102600, Note_on_c, 0, 61, 64
1, 102660, Note_on_c, 0, 61, 0
1, 102660, Note_on_c, 0, 64, 64
1, 102720, Note_on_c, 0, 64, 0
1, 102720, Note_on_c, 0, 45, 0
1, 102720, Note_on_c, 0, 52, 0
1, 102720, Note_on_c, 0, 55, 0
1, 102720, Note_on_c, 0, 50, 64
1, 102720, Note_on_c, 0, 53, 64
1, 102780, Note_on_c, 0, 62, 64
1, 102840, Note_on_c, 0, 62, 0
1, 102840, Note_on_c, 0, 64, 64
1, 102900, Note_on_c, 0, 64, 0
1, 102900, Note_on_c, 0, 65, 64
1, 102960, Note_on_c, 0, 65, 0
1, 102960, Note_on_c, 0, 53, 0
1, 102960, Note_on_c, 0, 50, 0
1, 102960, Note_on_c, 0, 67, 64
1, 103020, Note_on_c, 0, 67, 0
1, 103020, Note_on_c, 0, 69, 64
1, 103080, Note_on_c, 0, 69, 0
1, 103080, Note_on_c, 0, 71, 64
1, 103140, Note_on_c, 0, 71, 0
1, 103140, Note_on_c, 0, 73, 64
1, 103200, Note_on_c, 0, 73, 0
1, 103200, Note_on_c, 0, 74, 64
1, 103260, Note_on_c, 0, 62, 64
1, 103320, Note_on_c, 0, 62, 0
1, 103320, Note_on_c, 0, 65, 64
1, 103380, Note_on_c, 0, 65, 0
1, 103380, Note_on_c, 0, 64, 64
1, 103440, Note_on_c, 0, 64, 0
1, 103440, Note_on_c, 0, 74, 0
1, 103440, Note_on_c, 0, 62, 64
1, 103500, Note_on_c, 0, 62, 0
1, 103500, Note_on_c, 0, 60, 64
1, 103560, Note_on_c, 0, 60, 0
1, 103560, Note_on_c, 0, 59, 64
1, 103620, Note_on_c, 0, 59, 0
1, 103620, Note_on_c, 0, 57, 64
1, 103680, Note_on_c, 0, 57, 0
1, 103680, Note_on_c, 0, 56, 64
1, 103740, Note_on_c, 0, 71, 64
1, 103800, Note_on_c, 0, 71, 0
1, 103800, Note_on_c, 0, 72, 64
1, 103860, Note_on_c, 0, 72, 0
1, 103860, Note_on_c, 0, 74, 64
1, 103920, Note_on_c, 0, 74, 0
1, 103920, Note_on_c, 0, 56, 0
1, 103920, Note_on_c, 0, 76, 64
1, 103980, Note_on_c, 0, 76, 0
1, 103980, Note_on_c, 0, 78, 64
1, 104040, Note_on_c, 0, 78, 0
1, 104040, Note_on_c, 0, 80, 64
1, 104100, Note_on_c, 0, 80, 0
1, 104100, Note_on_c, 0, 81, 64
1, 104160, Note_on_c, 0, 81, 0
1, 104160, Note_on_c, 0, 83, 64
1, 104220, Note_on_c, 0, 56, 64
1, 104280, Note_on_c, 0, 56, 0
1, 104280, Note_on_c, 0, 59, 64
1, 104340, Note_on_c, 0, 59, 0
1, 104340, Note_on_c, 0, 57, 64
1, 104400, Note_on_c, 0, 57, 0
1, 104400, Note_on_c, 0, 83, 0
1, 104400, Note_on_c, 0, 56, 64
1, 104460, Note_on_c, 0, 56, 0
1, 104460, Note_on_c, 0, 53, 64
1, 104520, Note_on_c, 0, 53, 0
1, 104520, Note_on_c, 0, 52, 64
1, 104580, Note_on_c, 0, 52, 0
1, 104580, Note_on_c, 0, 50, 64
1, 104640, Note_on_c, 0, 50, 0
1, 104640, Note_on_c, 0, 48, 64
1, 104700, Note_on_c, 0, 81, 64
1, 104760, Note_on_c, 0, 81, 0
1, 104760, Note_on_c, 0, 88, 64
1, 104820, Note_on_c, 0, 88, 0
1, 104820, Note_on_c, 0, 86, 64
1, 104880, Note_on_c, 0, 86, 0
1, 104880, Note_on_c, 0, 48, 0
1, 104880, Note_on_c, 0, 84, 64
1, 104940, Note_on_c, 0, 84, 0
1, 104940, Note_on_c, 0, 83, 64
1, 105000, Note_on_c, 0, 83, 0
1, 105000, Note_on_c, 0, 81, 64
1, 105060, Note_on_c, 0, 81, 0
1, 105060, Note_on_c, 0, 79, 64
1, 105120, Note_on_c, 0, 79, 0
1, 105120, Note_on_c, 0, 77, 64
1, 105180, Note_on_c, 0, 62, 64
1, 105240, Note_on_c, 0, 62, 0
1, 105240, Note_on_c, 0, 69, 64
1, 105300, Note_on_c, 0, 69, 0
1, 105300, Note_on_c, 0, 67, 64
1, 105360, Note_on_c, 0, 67, 0
1, 105360, Note_on_c, 0, 77, 0
1, 105360, Note_on_c, 0, 65, 64
1, 105420, Note_on_c, 0, 65, 0
1, 105420, Note_on_c, 0, 64, 64
1, 105480, Note_on_c, 0, 64, 0
1, 105480, Note_on_c, 0, 62, 64
1, 105540, Note_on_c, 0, 62, 0
1, 105540, Note_on_c, 0, 60, 64
1, 105600, Note_on_c, 0, 60, 0
1, 105600, Note_on_c, 0, 59, 64
1, 105660, Note_on_c, 0, 79, 64
1, 105720, Note_on_c, 0, 79, 0
1, 105720, Note_on_c, 0, 86, 64
1, 105780, Note_on_c, 0, 86, 0
1, 105780, Note_on_c, 0, 84, 64
1, 105840, Note_on_c, 0, 84, 0
1, 105840, Note_on_c, 0, 59, 0
1, 105840, Note_on_c, 0, 83, 64
1, 105900, Note_on_c, 0, 83, 0
1, 105900, Note_on_c, 0, 81, 64
1, 105960, Note_on_c, 0, 81, 0
1, 105960, Note_on_c, 0, 79, 64
1, 106020, Note_on_c, 0, 79, 0
1, 106020, Note_on_c, 0, 77, 64
1, 106080, Note_on_c, 0, 77, 0
1, 106080, Note_on_c, 0, 76, 64
1, 106140, Note_on_c, 0, 60, 64
1, 106200, Note_on_c, 0, 60, 0
1, 106200, Note_on_c, 0, 67, 64
1, 106260, Note_on_c, 0, 67, 0
1, 106260, Note_on_c, 0, 65, 64
1, 106320, Note_on_c, 0, 65, 0
1, 106320, Note_on_c, 0, 76, 0
1, 106320, Note_on_c, 0, 64, 64
1, 106380, Note_on_c, 0, 64, 0
1, 106380, Note_on_c, 0, 62, 64
1, 106440, Note_on_c, 0, 62, 0
1, 106440, Note_on_c, 0, 60, 64
1, 106500, Note_on_c, 0, 60, 0
1, 106500, Note_on_c, 0, 59, 64
1, 106560, Note_on_c, 0, 59, 0
1, 106560, Note_on_c, 0, 57, 64
1, 106620, Note_on_c, 0, 77, 64
1, 106680, Note_on_c, 0, 77, 0
1, 106680, Note_on_c, 0, 84, 64
1, 106740, Note_on_c, 0, 84, 0
1, 106740, Note_on_c, 0, 83, 64
1, 106800, Note_on_c, 0, 83, 0
1, 106800, Note_on_c, 0, 57, 0
1, 106800, Note_on_c, 0, 81, 64
1, 106860, Note_on_c, 0, 81, 0
1, 106860, Note_on_c, 0, 79, 64
1, 106920, Note_on_c, 0, 79, 0
1, 106920, Note_on_c, 0, 77, 64
1, 106980, Note_on_c, 0, 77, 0
1, 106980, Note_on_c, 0, 76, 64
1, 107040, Note_on_c, 0, 76, 0
1, 107040, Note_on_c, 0, 74, 64
1, 107100, Note_on_c, 0, 59, 64
1, 107160, Note_on_c, 0, 59, 0
1, 107160, Note_on_c, 0, 65, 64
1, 107220, Note_on_c, 0, 65, 0
1, 107220, Note_on_c, 0, 64, 64
1, 107280, Note_on_c, 0, 64, 0
1, 107280, Note_on_c, 0, 74, 0
1, 107280, Note_on_c, 0, 62, 64
1, 107340, Note_on_c, 0, 62, 0
1, 107340, Note_on_c, 0, 60, 64
1, 107400, Note_on_c, 0, 60, 0
1, 107400, Note_on_c, 0, 59, 64
1, 107460, Note_on_c, 0, 59, 0
1, 107460, Note_on_c, 0, 57, 64
1, 107520, Note_on_c, 0, 57, 0
1, 107520, Note_on_c, 0, 56, 64
1, 107580, Note_on_c, 0, 76, 64
1, 107640, Note_on_c, 0, 76, 0
1, 107640, Note_on_c, 0, 83, 64
1, 107700, Note_on_c, 0, 83, 0
1, 107700, Note_on_c, 0, 81, 64
1, 107760, Note_on_c, 0, 81, 0
1, 107760, Note_on_c, 0, 56, 0
1, 107760, Note_on_c, 0, 80, 64
1, 107820, Note_on_c, 0, 80, 0
1, 107820, Note_on_c, 0, 77, 64
1, 107880, Note_on_c, 0, 77, 0
1, 107880, Note_on_c, 0, 76, 64
1, 107940, Note_on_c, 0, 76, 0
1, 107940, Note_on_c, 0, 74, 64
1, 108000, Note_on_c, 0, 74, 0
1, 108000, Note_on_c, 0, 72, 64
1, 108060, Note_on_c, 0, 57, 64
1, 108120, Note_on_c, 0, 57, 0
1, 108120, Note_on_c, 0, 60, 64
1, 108180, Note_on_c, 0, 60, 0
1, 108180, Note_on_c, 0, 59, 64
1, 108240, Note_on_c, 0, 59, 0
1, 108240, Note_on_c, 0, 72, 0
1, 108240, Note_on_c, 0, 57, 64
1, 108300, Note_on_c, 0, 57, 0
1, 108300, Note_on_c, 0, 55, 64
1, 108360, Note_on_c, 0, 55, 0
1, 108360, Note_on_c, 0, 53, 64
1, 108420, Note_on_c, 0, 53, 0
1, 108420, Note_on_c, 0, 52, 64
1, 108480, Note_on_c, 0, 52, 0
1, 108480, Note_on_c, 0, 50, 64
1, 108540, Note_on_c, 0, 70, 64
1, 108600, Note_on_c, 0, 70, 0
1, 108600, Note_on_c, 0, 74, 64
1, 108660, Note_on_c, 0, 74, 0
1, 108660, Note_on_c, 0, 72, 64
1, 108720, Note_on_c, 0, 72, 0
1, 108720, Note_on_c, 0, 70, 64
1, 108780, Note_on_c, 0, 70, 0
1, 108780, Note_on_c, 0, 69, 64
1, 108840, Note_on_c, 0, 69, 0
1, 108840, Note_on_c, 0, 67, 64
1, 108900, Note_on_c, 0, 67, 0
1, 108900, Note_on_c, 0, 65, 64
1, 108960, Note_on_c, 0, 65, 0
1, 108960, Note_on_c, 0, 50, 0
1, 108960, Note_on_c, 0, 58, 64
1, 108960, Note_on_c, 0, 55, 64
1, 108960, Note_on_c, 0, 48, 64
1, 108960, Note_on_c, 0, 64, 64
1, 109020, Note_on_c, 0, 64, 0
1, 109020, Note_on_c, 0, 65, 64
1, 109080, Note_on_c, 0, 65, 0
1, 109080, Note_on_c, 0, 67, 64
1, 109140, Note_on_c, 0, 67, 0
1, 109140, Note_on_c, 0, 69, 64
1, 109200, Note_on_c, 0, 69, 0
1, 109200, Note_on_c, 0, 70, 64
1, 109260, Note_on_c, 0, 70, 0
1, 109260, Note_on_c, 0, 72, 64
1, 109320, Note_on_c, 0, 72, 0
1, 109320, Note_on_c, 0, 74, 64
1, 109380, Note_on_c, 0, 74, 0
1, 109380, Note_on_c, 0, 76, 64
1, 109440, Note_on_c, 0, 76, 0
1, 109440, Note_on_c, 0, 48, 0
1, 109440, Note_on_c, 0, 55, 0
1, 109440, Note_on_c, 0, 58, 0
1, 109440, Note_on_c, 0, 77, 64
1, 109440, Note_on_c, 0, 65, 64
1, 109560, Note_on_c, 0, 65, 0
1, 109560, Note_on_c, 0, 72, 64
1, 109680, Note_on_c, 0, 72, 0
1, 109680, Note_on_c, 0, 69, 64
1, 109800, Note_on_c, 0, 69, 0
1, 109800, Note_on_c, 0, 72, 64
1, 109920, Note_on_c, 0, 72, 0
1, 109920, Note_on_c, 0, 77, 0
1, 109920, Note_on_c, 0, 81, 64
1, 109920, Note_on_c, 0, 65, 64
1, 110040, Note_on_c, 0, 65, 0
1, 110040, Note_on_c, 0, 72, 64
1, 110160, Note_on_c, 0, 72, 0
1, 110160, Note_on_c, 0, 81, 0
1, 110160, Note_on_c, 0, 84, 64
1, 110160, Note_on_c, 0, 69, 64
1, 110280, Note_on_c, 0, 69, 0
1, 110280, Note_on_c, 0, 72, 64
1, 110400, Note_on_c, 0, 72, 0
1, 110400, Note_on_c, 0, 84, 0
1, 110400, Note_on_c, 0, 76, 64
1, 110400, Note_on_c, 0, 67, 64
1, 110520, Note_on_c, 0, 67, 0
1, 110520, Note_on_c, 0, 72, 64
1, 110640, Note_on_c, 0, 72, 0
1, 110640, Note_on_c, 0, 70, 64
1, 110760, Note_on_c, 0, 70, 0
1, 110760, Note_on_c, 0, 76, 0
1, 110760, Note_on_c, 0, 77, 64
1, 110760, Note_on_c, 0, 72, 64
1, 110820, Note_on_c, 0, 77, 0
1, 110820, Note_on_c, 0, 79, 64
1, 110880, Note_on_c, 0, 79, 0
1, 110880, Note_on_c, 0, 72, 0
1, 110880, Note_on_c, 0, 77, 64
1, 110880, Note_on_c, 0, 65, 64
1, 111000, Note_on_c, 0, 65, 0
1, 111000, Note_on_c, 0, 72, 64
1, 111120, Note_on_c, 0, 72, 0
1, 111120, Note_on_c, 0, 69, 64
1, 111240, Note_on_c, 0, 69, 0
1, 111240, Note_on_c, 0, 72, 64
1, 111360, Note_on_c, 0, 72, 0
1, 111360, Note_on_c, 0, 77, 0
1, 111360, Note_on_c, 0, 86, 64
1, 111360, Note_on_c, 0, 65, 64
1, 111480, Note_on_c, 0, 65, 0
1, 111480, Note_on_c, 0, 74, 64
1, 111600, Note_on_c, 0, 74, 0
1, 111600, Note_on_c, 0, 70, 64
1, 111720, Note_on_c, 0, 70, 0
1, 111720, Note_on_c, 0, 74, 64
1, 111840, Note_on_c, 0, 74, 0
1, 111840, Note_on_c, 0, 86, 0
1, 111840, Note_on_c, 0, 84, 64
1, 111840, Note_on_c, 0, 65, 64
1, 111960, Note_on_c, 0, 65, 0
1, 111960, Note_on_c, 0, 72, 64
1, 112080, Note_on_c, 0, 72, 0
1, 112080, Note_on_c, 0, 84, 0
1, 112080, Note_on_c, 0, 89, 64
1, 112080, Note_on_c, 0, 69, 64
1, 112200, Note_on_c, 0, 69, 0
1, 112200, Note_on_c, 0, 72, 64
1, 112320, Note_on_c, 0, 72, 0
1, 112320, Note_on_c, 0, 89, 0
1, 112320, Note_on_c, 0, 84, 64
1, 112320, Note_on_c, 0, 64, 64
1, 112440, Note_on_c, 0, 64, 0
1, 112440, Note_on_c, 0, 72, 64
1, 112560, Note_on_c, 0, 72, 0
1, 112560, Note_on_c, 0, 84, 0
1, 112560, Note_on_c, 0, 82, 64
1, 112560, Note_on_c, 0, 67, 64
1, 112599, Note_on_c, 0, 82, 0
1, 112599, Note_on_c, 0, 84, 64
1, 112639, Note_on_c, 0, 84, 0
1, 112639, Note_on_c, 0, 82, 64
1, 112679, Note_on_c, 0, 82, 0
1, 112680, Note_on_c, 0, 67, 0
1, 112680, Note_on_c, 0, 81, 64
1, 112680, Note_on_c, 0, 72, 64
1, 112740, Note_on_c, 0, 81, 0
1, 112740, Note_on_c, 0, 82, 64
1, 112800, Note_on_c, 0, 82, 0
1, 112800, Note_on_c, 0, 72, 0
1, 112800, Note_on_c, 0, 81, 64
1, 112800, Note_on_c, 0, 65, 64
1, 112920, Note_on_c, 0, 65, 0
1, 112920, Note_on_c, 0, 72, 64
1, 113040, Note_on_c, 0, 72, 0
1, 113040, Note_on_c, 0, 81, 0
1, 113040, Note_on_c, 0, 69, 64
1, 113160, Note_on_c, 0, 69, 0
1, 113160, Note_on_c, 0, 72, 64
1, 113280, Note_on_c, 0, 72, 0
1, 113280, Note_on_c, 0, 74, 64
1, 113280, Note_on_c, 0, 70, 64
1, 113400, Note_on_c, 0, 74, 0
1, 113400, Note_on_c, 0, 76, 64
1, 113460, Note_on_c, 0, 76, 0
1, 113460, Note_on_c, 0, 77, 64
1, 113520, Note_on_c, 0, 77, 0
1, 113520, Note_on_c, 0, 70, 0
1, 113520, Note_on_c, 0, 79, 64
1, 113580, Note_on_c, 0, 79, 0
1, 113580, Note_on_c, 0, 81, 64
1, 113640, Note_on_c, 0, 81, 0
1, 113640, Note_on_c, 0, 82, 64
1, 113700, Note_on_c, 0, 82, 0
1, 113700, Note_on_c, 0, 84, 64
1, 113760, Note_on_c, 0, 84, 0
1, 113760, Note_on_c, 0, 86, 64
1, 113820, Note_on_c, 0, 86, 0
1, 113820, Note_on_c, 0, 84, 64
1, 113880, Note_on_c, 0, 84, 0
1, 113880, Note_on_c, 0, 82, 64
1, 113940, Note_on_c, 0, 82, 0
1, 113940, Note_on_c, 0, 81, 64
1, 114000, Note_on_c, 0, 81, 0
1, 114000, Note_on_c, 0, 65, 64
1, 114000, Note_on_c, 0, 58, 64
1, 114000, Note_on_c, 0, 79, 64
1, 114060, Note_on_c, 0, 79, 0
1, 114060, Note_on_c, 0, 77, 64
1, 114120, Note_on_c, 0, 77, 0
1, 114120, Note_on_c, 0, 76, 64
1, 114180, Note_on_c, 0, 76, 0
1, 114180, Note_on_c, 0, 74, 64
1, 114240, Note_on_c, 0, 74, 0
1, 114240, Note_on_c, 0, 58, 0
1, 114240, Note_on_c, 0, 65, 0
1, 114240, Note_on_c, 0, 72, 64
1, 114240, Note_on_c, 0, 57, 64
1, 114240, Note_on_c, 0, 65, 64
1, 114360, Note_on_c, 0, 72, 0
1, 114360, Note_on_c, 0, 74, 64
1, 114420, Note_on_c, 0, 74, 0
1, 114420, Note_on_c, 0, 76, 64
1, 114480, Note_on_c, 0, 76, 0
1, 114480, Note_on_c, 0, 65, 0
1, 114480, Note_on_c, 0, 57, 0
1, 114480, Note_on_c, 0, 77, 64
1, 114540, Note_on_c, 0, 77, 0
1, 114540, Note_on_c, 0, 79, 64
1, 114600, Note_on_c, 0, 79, 0
1, 114600, Note_on_c, 0, 81, 64
1, 114660, Note_on_c, 0, 81, 0
1, 114660, Note_on_c, 0, 82, 64
1, 114720, Note_on_c, 0, 82, 0
1, 114720, Note_on_c, 0, 84, 64
1, 114780, Note_on_c, 0, 84, 0
1, 114780, Note_on_c, 0, 82, 64
1, 114840, Note_on_c, 0, 82, 0
1, 114840, Note_on_c, 0, 81, 64
1, 114900, Note_on_c, 0, 81, 0
1, 114900, Note_on_c, 0, 79, 64
1, 114960, Note_on_c, 0, 79, 0
1, 114960, Note_on_c, 0, 65, 64
1, 114960, Note_on_c, 0, 57, 64
1, 114960, Note_on_c, 0, 77, 64
1, 115020, Note_on_c, 0, 77, 0
1, 115020, Note_on_c, 0, 76, 64
1, 115080, Note_on_c, 0, 76, 0
1, 115080, Note_on_c, 0, 74, 64
1, 115140, Note_on_c, 0, 74, 0
1, 115140, Note_on_c, 0, 72, 64
1, 115200, Note_on_c, 0, 72, 0
1, 115200, Note_on_c, 0, 57, 0
1, 115200, Note_on_c, 0, 65, 0
1, 115200, Note_on_c, 0, 70, 64
1, 115200, Note_on_c, 0, 55, 64
1, 115200, Note_on_c, 0, 65, 64
1, 115320, Note_on_c, 0, 70, 0
1, 115320, Note_on_c, 0, 72, 64
1, 115380, Note_on_c, 0, 72, 0
1, 115380, Note_on_c, 0, 74, 64
1, 115440, Note_on_c, 0, 74, 0
1, 115440, Note_on_c, 0, 65, 0
1, 115440, Note_on_c, 0, 55, 0
1, 115440, Note_on_c, 0, 76, 64
1, 115500, Note_on_c, 0, 76, 0
1, 115500, Note_on_c, 0, 77, 64
1, 115560, Note_on_c, 0, 77, 0
1, 115560, Note_on_c, 0, 79, 64
1, 115620, Note_on_c, 0, 79, 0
1, 115620, Note_on_c, 0, 81, 64
1, 115680, Note_on_c, 0, 81, 0
1, 115680, Note_on_c, 0, 82, 64
1, 115740, Note_on_c, 0, 82, 0
1, 115740, Note_on_c, 0, 81, 64
1, 115800, Note_on_c, 0, 81, 0
1, 115800, Note_on_c, 0, 79, 64
1, 115860, Note_on_c, 0, 79, 0
1, 115860, Note_on_c, 0, 77, 64
1, 115920, Note_on_c, 0, 77, 0
1, 115920, Note_on_c, 0, 64, 64
1, 115920, Note_on_c, 0, 55, 64
1, 115920, Note_on_c, 0, 76, 64
1, 115980, Note_on_c, 0, 76, 0
1, 115980, Note_on_c, 0, 74, 64
1, 116040, Note_on_c, 0, 74, 0
1, 116040, Note_on_c, 0, 72, 64
1, 116100, Note_on_c, 0, 72, 0
1, 116100, Note_on_c, 0, 70, 64
1, 116160, Note_on_c, 0, 70, 0
1, 116160, Note_on_c, 0, 55, 0
1, 116160, Note_on_c, 0, 64, 0
1, 116160, Note_on_c, 0, 69, 64
1, 116160, Note_on_c, 0, 53, 64
1, 116160, Note_on_c, 0, 65, 64
1, 116280, Note_on_c, 0, 69, 0
1, 116280, Note_on_c, 0, 70, 64
1, 116340, Note_on_c, 0, 70, 0
1, 116340, Note_on_c, 0, 72, 64
1, 116400, Note_on_c, 0, 72, 0
1, 116400, Note_on_c, 0, 65, 0
1, 116400, Note_on_c, 0, 53, 0
1, 116400, Note_on_c, 0, 74, 64
1, 116460, Note_on_c, 0, 74, 0
1, 116460, Note_on_c, 0, 76, 64
1, 116520, Note_on_c, 0, 76, 0
1, 116520, Note_on_c, 0, 77, 64
1, 116580, Note_on_c, 0, 77, 0
1, 116580, Note_on_c, 0, 79, 64
1, 116640, Note_on_c, 0, 79, 0
1, 116640, Note_on_c, 0, 81, 64
1, 116700, Note_on_c, 0, 81, 0
1, 116700, Note_on_c, 0, 79, 64
1, 116760, Note_on_c, 0, 79, 0
1, 116760, Note_on_c, 0, 77, 64
1, 116820, Note_on_c, 0, 77, 0
1, 116820, Note_on_c, 0, 76, 64
1, 116880, Note_on_c, 0, 76, 0
1, 116880, Note_on_c, 0, 74, 64
1, 116940, Note_on_c, 0, 74, 0
1, 116940, Note_on_c, 0, 72, 64
1, 117000, Note_on_c, 0, 72, 0
1, 117000, Note_on_c, 0, 70, 64
1, 117060, Note_on_c, 0, 70, 0
1, 117060, Note_on_c, 0, 69, 64
1, 117120, Note_on_c, 0, 69, 0
1, 117120, Note_on_c, 0, 81, 64
1, 117120, Note_on_c, 0, 53, 64
1, 117240, Note_on_c, 0, 53, 0
1, 117240, Note_on_c, 0, 55, 64
1, 117300, Note_on_c, 0, 55, 0
1, 117300, Note_on_c, 0, 57, 64
1, 117360, Note_on_c, 0, 57, 0
1, 117360, Note_on_c, 0, 81, 0
1, 117360, Note_on_c, 0, 58, 64
1, 117420, Note_on_c, 0, 58, 0
1, 117420, Note_on_c, 0, 60, 64
1, 117480, Note_on_c, 0, 60, 0
1, 117480, Note_on_c, 0, 62, 64
1, 117540, Note_on_c, 0, 62, 0
1, 117540, Note_on_c, 0, 64, 64
1, 117600, Note_on_c, 0, 64, 0
1, 117600, Note_on_c, 0, 65, 64
1, 117660, Note_on_c, 0, 65, 0
1, 117660, Note_on_c, 0, 64, 64
1, 117720, Note_on_c, 0, 64, 0
1, 117720, Note_on_c, 0, 62, 64
1, 117780, Note_on_c, 0, 62, 0
1, 117780, Note_on_c, 0, 60, 64
1, 117840, Note_on_c, 0, 60, 0
1, 117840, Note_on_c, 0, 81, 64
1, 117840, Note_on_c, 0, 72, 64
1, 117840, Note_on_c, 0, 58, 64
1, 117900, Note_on_c, 0, 58, 0
1, 117900, Note_on_c, 0, 57, 64
1, 117960, Note_on_c, 0, 57, 0
1, 117960, Note_on_c, 0, 55, 64
1, 118020, Note_on_c, 0, 55, 0
1, 118020, Note_on_c, 0, 53, 64
1, 118080, Note_on_c, 0, 53, 0
1, 118080, Note_on_c, 0, 72, 0
1, 118080, Note_on_c, 0, 81, 0
1, 118080, Note_on_c, 0, 72, 64
1, 118080, Note_on_c, 0, 79, 64
1, 118080, Note_on_c, 0, 52, 64
1, 118200, Note_on_c, 0, 52, 0
1, 118200, Note_on_c, 0, 53, 64
1, 118260, Note_on_c, 0, 53, 0
1, 118260, Note_on_c, 0, 55, 64
1, 118320, Note_on_c, 0, 55, 0
1, 118320, Note_on_c, 0, 79, 0
1, 118320, Note_on_c, 0, 72, 0
1, 118320, Note_on_c, 0, 57, 64
1, 118380, Note_on_c, 0, 57, 0
1, 118380, Note_on_c, 0, 59, 64
1, 118440, Note_on_c, 0, 59, 0
1, 118440, Note_on_c, 0, 60, 64
1, 118500, Note_on_c, 0, 60, 0
1, 118500, Note_on_c, 0, 62, 64
1, 118560, Note_on_c, 0, 62, 0
1, 118560, Note_on_c, 0, 64, 64
1, 118620, Note_on_c, 0, 64, 0
1, 118620, Note_on_c, 0, 62, 64
1, 118680, Note_on_c, 0, 62, 0
1, 118680, Note_on_c, 0, 60, 64
1, 118740, Note_on_c, 0, 60, 0
1, 118740, Note_on_c, 0, 59, 64
1, 118800, Note_on_c, 0, 59, 0
1, 118800, Note_on_c, 0, 79, 64
1, 118800, Note_on_c, 0, 72, 64
1, 118800, Note_on_c, 0, 57, 64
1, 118860, Note_on_c, 0, 57, 0
1, 118860, Note_on_c, 0, 55, 64
1, 118920, Note_on_c, 0, 55, 0
1, 118920, Note_on_c, 0, 53, 64
1, 118980, Note_on_c, 0, 53, 0
1, 118980, Note_on_c, 0, 52, 64
1, 119040, Note_on_c, 0, 52, 0
1, 119040, Note_on_c, 0, 72, 0
1, 119040, Note_on_c, 0, 79, 0
1, 119040, Note_on_c, 0, 72, 64
1, 119040, Note_on_c, 0, 77, 64
1, 119040, Note_on_c, 0, 50, 64
1, 119160, Note_on_c, 0, 50, 0
1, 119160, Note_on_c, 0, 52, 64
1, 119220, Note_on_c, 0, 52, 0
1, 119220, Note_on_c, 0, 53, 64
1, 119280, Note_on_c, 0, 53, 0
1, 119280, Note_on_c, 0, 77, 0
1, 119280, Note_on_c, 0, 72, 0
1, 119280, Note_on_c, 0, 55, 64
1, 119340, Note_on_c, 0, 55, 0
1, 119340, Note_on_c, 0, 57, 64
1, 119400, Note_on_c, 0, 57, 0
1, 119400, Note_on_c, 0, 59, 64
1, 119460, Note_on_c, 0, 59, 0
1, 119460, Note_on_c, 0, 60, 64
1, 119520, Note_on_c, 0, 60, 0
1, 119520, Note_on_c, 0, 62, 64
1, 119580, Note_on_c, 0, 62, 0
1, 119580, Note_on_c, 0, 60, 64
1, 119640, Note_on_c, 0, 60, 0
1, 119640, Note_on_c, 0, 59, 64
1, 119700, Note_on_c, 0, 59, 0
1, 119700, Note_on_c, 0, 57, 64
1, 119760, Note_on_c, 0, 57, 0
1, 119760, Note_on_c, 0, 77, 64
1, 119760, Note_on_c, 0, 71, 64
1, 119760, Note_on_c, 0, 55, 64
1, 119820, Note_on_c, 0, 55, 0
1, 119820, Note_on_c, 0, 53, 64
1, 119880, Note_on_c, 0, 53, 0
1, 119880, Note_on_c, 0, 52, 64
1, 119940, Note_on_c, 0, 52, 0
1, 119940, Note_on_c, 0, 50, 64
1, 120000, Note_on_c, 0, 50, 0
1, 120000, Note_on_c, 0, 71, 0
1, 120000, Note_on_c, 0, 77, 0
1, 120000, Note_on_c, 0, 72, 64
1, 120000, Note_on_c, 0, 76, 64
1, 120000, Note_on_c, 0, 48, 64
1, 120120, Note_on_c, 0, 48, 0
1, 120120, Note_on_c, 0, 50, 64
1, 120180, Note_on_c, 0, 50, 0
1, 120180, Note_on_c, 0, 52, 64
1, 120240, Note_on_c, 0, 52, 0
1, 120240, Note_on_c, 0, 76, 0
1, 120240, Note_on_c, 0, 72, 0
1, 120240, Note_on_c, 0, 53, 64
1, 120300, Note_on_c, 0, 53, 0
1, 120300, Note_on_c, 0, 55, 64
1, 120360, Note_on_c, 0, 55, 0
1, 120360, Note_on_c, 0, 57, 64
1, 120420, Note_on_c, 0, 57, 0
1, 120420, Note_on_c, 0, 59, 64
1, 120480, Note_on_c, 0, 59, 0
1, 120480, Note_on_c, 0, 60, 64
1, 120540, Note_on_c, 0, 60, 0
1, 120540, Note_on_c, 0, 59, 64
1, 120600, Note_on_c, 0, 59, 0
1, 120600, Note_on_c, 0, 57, 64
1, 120660, Note_on_c, 0, 57, 0
1, 120660, Note_on_c, 0, 55, 64
1, 120720, Note_on_c, 0, 55, 0
1, 120720, Note_on_c, 0, 76, 64
1, 120720, Note_on_c, 0, 72, 64
1, 120720, Note_on_c, 0, 53, 64
1, 120780, Note_on_c, 0, 53, 0
1, 120780, Note_on_c, 0, 52, 64
1, 120840, Note_on_c, 0, 52, 0
1, 120840, Note_on_c, 0, 50, 64
1, 120900, Note_on_c, 0, 50, 0
1, 120900, Note_on_c, 0, 48, 64
1, 120960, Note_on_c, 0, 48, 0
1, 120960, Note_on_c, 0, 72, 0
1, 120960, Note_on_c, 0, 76, 0
1, 120960, Note_on_c, 0, 57, 64
1, 120960, Note_on_c, 0, 53, 64
1, 120960, Note_on_c, 0, 74, 64
1, 121020, Note_on_c, 0, 74, 0
1, 121020, Note_on_c, 0, 62, 64
1, 121080, Note_on_c, 0, 62, 0
1, 121080, Note_on_c, 0, 64, 64
1, 121140, Note_on_c, 0, 64, 0
1, 121140, Note_on_c, 0, 65, 64
1, 121200, Note_on_c, 0, 65, 0
1, 121200, Note_on_c, 0, 67, 64
1, 121260, Note_on_c, 0, 67, 0
1, 121260, Note_on_c, 0, 69, 64
1, 121320, Note_on_c, 0, 69, 0
1, 121320, Note_on_c, 0, 71, 64
1, 121380, Note_on_c, 0, 71, 0
1, 121380, Note_on_c, 0, 73, 64
1, 121440, Note_on_c, 0, 73, 0
1, 121440, Note_on_c, 0, 74, 64
1, 121500, Note_on_c, 0, 74, 0
1, 121500, Note_on_c, 0, 69, 64
1, 121560, Note_on_c, 0, 69, 0
1, 121560, Note_on_c, 0, 71, 64
1, 121620, Note_on_c, 0, 71, 0
1, 121620, Note_on_c, 0, 73, 64
1, 121680, Note_on_c, 0, 73, 0
1, 121680, Note_on_c, 0, 74, 64
1, 121740, Note_on_c, 0, 74, 0
1, 121740, Note_on_c, 0, 76, 64
1, 121800, Note_on_c, 0, 76, 0
1, 121800, Note_on_c, 0, 77, 64
1, 121860, Note_on_c, 0, 77, 0
1, 121860, Note_on_c, 0, 79, 64
1, 121920, Note_on_c, 0, 79, 0
1, 121920, Note_on_c, 0, 53, 0
1, 121920, Note_on_c, 0, 57, 0
1, 121920, Note_on_c, 0, 81, 64
1, 121920, Note_on_c, 0, 53, 64
1, 121980, Note_on_c, 0, 81, 0
1, 121980, Note_on_c, 0, 83, 64
1, 122040, Note_on_c, 0, 83, 0
1, 122040, Note_on_c, 0, 84, 64
1, 122100, Note_on_c, 0, 84, 0
1, 122100, Note_on_c, 0, 83, 64
1, 122160, Note_on_c, 0, 83, 0
1, 122160, Note_on_c, 0, 81, 64
1, 122220, Note_on_c, 0, 81, 0
1, 122220, Note_on_c, 0, 79, 64
1, 122280, Note_on_c, 0, 79, 0
1, 122280, Note_on_c, 0, 53, 0
1, 122280, Note_on_c, 0, 77, 64
1, 122280, Note_on_c, 0, 55, 64
1, 122340, Note_on_c, 0, 77, 0
1, 122340, Note_on_c, 0, 76, 64
1, 122400, Note_on_c, 0, 76, 0
1, 122400, Note_on_c, 0, 55, 0
1, 122400, Note_on_c, 0, 77, 64
1, 122400, Note_on_c, 0, 57, 64
1, 122460, Note_on_c, 0, 77, 0
1, 122460, Note_on_c, 0, 79, 64
1, 122520, Note_on_c, 0, 79, 0
1, 122520, Note_on_c, 0, 81, 64
1, 122580, Note_on_c, 0, 81, 0
1, 122580, Note_on_c, 0, 79, 64
1, 122640, Note_on_c, 0, 79, 0
1, 122640, Note_on_c, 0, 77, 64
1, 122700, Note_on_c, 0, 77, 0
1, 122700, Note_on_c, 0, 76, 64
1, 122760, Note_on_c, 0, 76, 0
1, 122760, Note_on_c, 0, 57, 0
1, 122760, Note_on_c, 0, 54, 64
1, 122760, Note_on_c, 0, 74, 64
1, 122820, Note_on_c, 0, 74, 0
1, 122820, Note_on_c, 0, 72, 64
1, 122880, Note_on_c, 0, 72, 0
1, 122880, Note_on_c, 0, 54, 0
1, 122880, Note_on_c, 0, 71, 64
1, 122880, Note_on_c, 0, 43, 64
1, 122940, Note_on_c, 0, 43, 0
1, 122940, Note_on_c, 0, 47, 64
1, 123000, Note_on_c, 0, 47, 0
1, 123000, Note_on_c, 0, 71, 0
1, 123000, Note_on_c, 0, 79, 64
1, 123000, Note_on_c, 0, 50, 64
1, 123060, Note_on_c, 0, 50, 0
1, 123060, Note_on_c, 0, 55, 64
1, 123120, Note_on_c, 0, 55, 0
1, 123120, Note_on_c, 0, 79, 0
1, 123120, Note_on_c, 0, 76, 64
1, 123120, Note_on_c, 0, 43, 64
1, 123180, Note_on_c, 0, 43, 0
1, 123180, Note_on_c, 0, 48, 64
1, 123240, Note_on_c, 0, 48, 0
1, 123240, Note_on_c, 0, 76, 0
1, 123240, Note_on_c, 0, 72, 64
1, 123240, Note_on_c, 0, 52, 64
1, 123300, Note_on_c, 0, 52, 0
1, 123300, Note_on_c, 0, 55, 64
1, 123360, Note_on_c, 0, 55, 0
1, 123360, Note_on_c, 0, 72, 0
1, 123360, Note_on_c, 0, 74, 64
1, 123360, Note_on_c, 0, 43, 64
1, 123420, Note_on_c, 0, 43, 0
1, 123420, Note_on_c, 0, 47, 64
1, 123480, Note_on_c, 0, 47, 0
1, 123480, Note_on_c, 0, 74, 0
1, 123480, Note_on_c, 0, 79, 64
1, 123480, Note_on_c, 0, 50, 64
1, 123540, Note_on_c, 0, 50, 0
1, 123540, Note_on_c, 0, 55, 64
1, 123600, Note_on_c, 0, 55, 0
1, 123600, Note_on_c, 0, 79, 0
1, 123600, Note_on_c, 0, 76, 64
1, 123600, Note_on_c, 0, 43, 64
1, 123660, Note_on_c, 0, 43, 0
1, 123660, Note_on_c, 0, 48, 64
1, 123720, Note_on_c, 0, 48, 0
1, 123720, Note_on_c, 0, 76, 0
1, 123720, Note_on_c, 0, 72, 64
1, 123720, Note_on_c, 0, 52, 64
1, 123780, Note_on_c, 0, 52, 0
1, 123780, Note_on_c, 0, 55, 64
1, 123840, Note_on_c, 0, 55, 0
1, 123840, Note_on_c, 0, 72, 0
1, 123840, Note_on_c, 0, 74, 64
1, 123840, Note_on_c, 0, 43, 64
1, 124080, Note_on_c, 0, 43, 0
1, 124080, Note_on_c, 0, 74, 0
1, 124080, Note_on_c, 0, 71, 64
1, 124080, Note_on_c, 0, 74, 64
1, 124080, Note_on_c, 0, 79, 64
1, 124080, Note_on_c, 0, 55, 64
1, 124320, Note_on_c, 0, 55, 0
1, 124320, Note_on_c, 0, 79, 0
1, 124320, Note_on_c, 0, 74, 0
1, 124320, Note_on_c, 0, 71, 0
1, 124320, Note_on_c, 0, 67, 64
1, 124320, Note_on_c, 0, 43, 64
1, 124560, Note_on_c, 0, 43, 0
1, 124560, Note_on_c, 0, 67, 0
1, 124800, Note_on_c, 0, 66, 64
1, 124860, Note_on_c, 0, 66, 0
1, 124860, Note_on_c, 0, 67, 64
1, 124920, Note_on_c, 0, 67, 0
1, 124920, Note_on_c, 0, 66, 64
1, 124980, Note_on_c, 0, 66, 0
1, 124980, Note_on_c, 0, 67, 64
1, 125040, Note_on_c, 0, 67, 0
1, 125040, Note_on_c, 0, 66, 64
1, 125100, Note_on_c, 0, 66, 0
1, 125100, Note_on_c, 0, 67, 64
1, 125160, Note_on_c, 0, 67, 0
1, 125160, Note_on_c, 0, 66, 64
1, 125220, Note_on_c, 0, 66, 0
1, 125220, Note_on_c, 0, 67, 64
1, 125280, Note_on_c, 0, 67, 0
1, 125280, Note_on_c, 0, 65, 64
1, 125340, Note_on_c, 0, 65, 0
1, 125340, Note_on_c, 0, 67, 64
1, 125400, Note_on_c, 0, 67, 0
1, 125400, Note_on_c, 0, 65, 64
1, 125460, Note_on_c, 0, 65, 0
1, 125460, Note_on_c, 0, 67, 64
1, 125520, Note_on_c, 0, 67, 0
1, 125520, Note_on_c, 0, 65, 64
1, 125580, Note_on_c, 0, 65, 0
1, 125580, Note_on_c, 0, 67, 64
1, 125640, Note_on_c, 0, 67, 0
1, 125640, Note_on_c, 0, 65, 64
1, 125700, Note_on_c, 0, 65, 0
1, 125700, Note_on_c, 0, 67, 64
1, 125760, Note_on_c, 0, 67, 0
1, 125760, Note_on_c, 0, 79, 64
1, 125760, Note_on_c, 0, 64, 64
1, 125820, Note_on_c, 0, 64, 0
1, 125820, Note_on_c, 0, 67, 64
1, 125880, Note_on_c, 0, 67, 0
1, 125880, Note_on_c, 0, 79, 0
1, 125880, Note_on_c, 0, 76, 64
1, 125880, Note_on_c, 0, 64, 64
1, 125940, Note_on_c, 0, 64, 0
1, 125940, Note_on_c, 0, 67, 64
1, 126000, Note_on_c, 0, 67, 0
1, 126000, Note_on_c, 0, 76, 0
1, 126000, Note_on_c, 0, 72, 64
1, 126000, Note_on_c, 0, 64, 64
1, 126060, Note_on_c, 0, 64, 0
1, 126060, Note_on_c, 0, 67, 64
1, 126120, Note_on_c, 0, 67, 0
1, 126120, Note_on_c, 0, 64, 64
1, 126180, Note_on_c, 0, 64, 0
1, 126180, Note_on_c, 0, 67, 64
1, 126240, Note_on_c, 0, 67, 0
1, 126240, Note_on_c, 0, 64, 64
1, 126300, Note_on_c, 0, 64, 0
1, 126300, Note_on_c, 0, 67, 64
1, 126360, Note_on_c, 0, 67, 0
1, 126360, Note_on_c, 0, 72, 0
1, 126360, Note_on_c, 0, 74, 64
1, 126360, Note_on_c, 0, 64, 64
1, 126420, Note_on_c, 0, 64, 0
1, 126420, Note_on_c, 0, 74, 0
1, 126420, Note_on_c, 0, 76, 64
1, 126420, Note_on_c, 0, 67, 64
1, 126480, Note_on_c, 0, 67, 0
1, 126480, Note_on_c, 0, 76, 0
1, 126480, Note_on_c, 0, 64, 64
1, 126480, Note_on_c, 0, 74, 64
1, 126540, Note_on_c, 0, 64, 0
1, 126540, Note_on_c, 0, 67, 64
1, 126600, Note_on_c, 0, 67, 0
1, 126600, Note_on_c, 0, 74, 0
1, 126600, Note_on_c, 0, 64, 64
1, 126600, Note_on_c, 0, 72, 64
1, 126660, Note_on_c, 0, 64, 0
1, 126660, Note_on_c, 0, 67, 64
1, 126720, Note_on_c, 0, 67, 0
1, 126720, Note_on_c, 0, 72, 0
1, 126720, Note_on_c, 0, 74, 64
1, 126720, Note_on_c, 0, 65, 64
1, 126750, Note_on_c, 0, 74, 0
1, 126750, Note_on_c, 0, 72, 48
1, 126780, Note_on_c, 0, 72, 0
1, 126780, Note_on_c, 0, 65, 0
1, 126780, Note_on_c, 0, 74, 52
1, 126780, Note_on_c, 0, 67, 64
1, 126810, Note_on_c, 0, 74, 0
1, 126810, Note_on_c, 0, 72, 56
1, 126840, Note_on_c, 0, 72, 0
1, 126840, Note_on_c, 0, 67, 0
1, 126840, Note_on_c, 0, 74, 60
1, 126840, Note_on_c, 0, 64, 64
1, 126870, Note_on_c, 0, 74, 0
1, 126870, Note_on_c, 0, 72, 64
1, 126900, Note_on_c, 0, 72, 0
1, 126900, Note_on_c, 0, 64, 0
1, 126900, Note_on_c, 0, 71, 68
1, 126900, Note_on_c, 0, 67, 64
1, 126950, Note_on_c, 0, 71, 0
1, 126960, Note_on_c, 0, 67, 0
1, 126960, Note_on_c, 0, 71, 64
1, 126960, Note_on_c, 0, 62, 64
1, 127020, Note_on_c, 0, 62, 0
1, 127020, Note_on_c, 0, 67, 64
1, 127080, Note_on_c, 0, 67, 0
1, 127080, Note_on_c, 0, 64, 64
1, 127140, Note_on_c, 0, 64, 0
1, 127140, Note_on_c, 0, 67, 64
1, 127200, Note_on_c, 0, 67, 0
1, 127200, Note_on_c, 0, 65, 64
1, 127260, Note_on_c, 0, 65, 0
1, 127260, Note_on_c, 0, 67, 64
1, 127320, Note_on_c, 0, 67, 0
1, 127320, Note_on_c, 0, 64, 64
1, 127380, Note_on_c, 0, 64, 0
1, 127380, Note_on_c, 0, 67, 64
1, 127440, Note_on_c, 0, 67, 0
1, 127440, Note_on_c, 0, 65, 64
1, 127500, Note_on_c, 0, 65, 0
1, 127500, Note_on_c, 0, 67, 64
1, 127560, Note_on_c, 0, 67, 0
1, 127560, Note_on_c, 0, 62, 64
1, 127620, Note_on_c, 0, 62, 0
1, 127620, Note_on_c, 0, 67, 64
1, 127680, Note_on_c, 0, 67, 0
1, 127680, Note_on_c, 0, 71, 0
1, 127680, Note_on_c, 0, 79, 64
1, 127680, Note_on_c, 0, 64, 64
1, 127740, Note_on_c, 0, 64, 0
1, 127740, Note_on_c, 0, 67, 64
1, 127800, Note_on_c, 0, 67, 0
1, 127800, Note_on_c, 0, 79, 0
1, 127800, Note_on_c, 0, 76, 64
1, 127800, Note_on_c, 0, 64, 64
1, 127860, Note_on_c, 0, 64, 0
1, 127860, Note_on_c, 0, 67, 64
1, 127920, Note_on_c, 0, 67, 0
1, 127920, Note_on_c, 0, 76, 0
1, 127920, Note_on_c, 0, 72, 64
1, 127920, Note_on_c, 0, 64, 64
1, 127980, Note_on_c, 0, 64, 0
1, 127980, Note_on_c, 0, 67, 64
1, 128040, Note_on_c, 0, 67, 0
1, 128040, Note_on_c, 0, 64, 64
1, 128100, Note_on_c, 0, 64, 0
1, 128100, Note_on_c, 0, 67, 64
1, 128160, Note_on_c, 0, 67, 0
1, 128160, Note_on_c, 0, 64, 64
1, 128220, Note_on_c, 0, 64, 0
1, 128220, Note_on_c, 0, 67, 64
1, 128280, Note_on_c, 0, 67, 0
1, 128280, Note_on_c, 0, 72, 0
1, 128280, Note_on_c, 0, 74, 64
1, 128280, Note_on_c, 0, 64, 64
1, 128340, Note_on_c, 0, 64, 0
1, 128340, Note_on_c, 0, 74, 0
1, 128340, Note_on_c, 0, 76, 64
1, 128340, Note_on_c, 0, 67, 64
1, 128400, Note_on_c, 0, 67, 0
1, 128400, Note_on_c, 0, 76, 0
1, 128400, Note_on_c, 0, 74, 64
1, 128400, Note_on_c, 0, 64, 64
1, 128460, Note_on_c, 0, 64, 0
1, 128460, Note_on_c, 0, 67, 64
1, 128520, Note_on_c, 0, 67, 0
1, 128520, Note_on_c, 0, 74, 0
1, 128520, Note_on_c, 0, 72, 64
1, 128520, Note_on_c, 0, 64, 64
1, 128580, Note_on_c, 0, 64, 0
1, 128580, Note_on_c, 0, 67, 64
1, 128640, Note_on_c, 0, 67, 0
1, 128640, Note_on_c, 0, 72, 0
1, 128640, Note_on_c, 0, 74, 64
1, 128640, Note_on_c, 0, 65, 64
1, 128670, Note_on_c, 0, 74, 0
1, 128670, Note_on_c, 0, 72, 48
1, 128700, Note_on_c, 0, 72, 0
1, 128700, Note_on_c, 0, 65, 0
1, 128700, Note_on_c, 0, 74, 52
1, 128700, Note_on_c, 0, 67, 64
1, 128730, Note_on_c, 0, 74, 0
1, 128730, Note_on_c, 0, 72, 56
1, 128760, Note_on_c, 0, 72, 0
1, 128760, Note_on_c, 0, 67, 0
1, 128760, Note_on_c, 0, 74, 60
1, 128760, Note_on_c, 0, 64, 64
1, 128790, Note_on_c, 0, 74, 0
1, 128790, Note_on_c, 0, 72, 64
1, 128820, Note_on_c, 0, 72, 0
1, 128820, Note_on_c, 0, 64, 0
1, 128820, Note_on_c, 0, 71, 68
1, 128820, Note_on_c, 0, 67, 64
1, 128870, Note_on_c, 0, 71, 0
1, 128880, Note_on_c, 0, 67, 0
1, 128880, Note_on_c, 0, 71, 64
1, 128880, Note_on_c, 0, 62, 64
1, 128940, Note_on_c, 0, 62, 0
1, 128940, Note_on_c, 0, 67, 64
1, 129000, Note_on_c, 0, 67, 0
1, 129000, Note_on_c, 0, 64, 64
1, 129060, Note_on_c, 0, 64, 0
1, 129060, Note_on_c, 0, 67, 64
1, 129120, Note_on_c, 0, 67, 0
1, 129120, Note_on_c, 0, 65, 64
1, 129180, Note_on_c, 0, 65, 0
1, 129180, Note_on_c, 0, 67, 64
1, 129240, Note_on_c, 0, 67, 0
1, 129240, Note_on_c, 0, 64, 64
1, 129300, Note_on_c, 0, 64, 0
1, 129300, Note_on_c, 0, 67, 64
1, 129360, Note_on_c, 0, 67, 0
1, 129360, Note_on_c, 0, 71, 0
1, 129360, Note_on_c, 0, 65, 64
1, 129420, Note_on_c, 0, 65, 0
1, 129420, Note_on_c, 0, 67, 64
1, 129480, Note_on_c, 0, 67, 0
1, 129480, Note_on_c, 0, 62, 64
1, 129540, Note_on_c, 0, 62, 0
1, 129540, Note_on_c, 0, 67, 64
1, 129600, Note_on_c, 0, 67, 0
1, 129600, Note_on_c, 0, 79, 64
1, 129660, Note_on_c, 0, 52, 64
1, 129720, Note_on_c, 0, 52, 0
1, 129720, Note_on_c, 0, 55, 64
1, 129780, Note_on_c, 0, 55, 0
1, 129780, Note_on_c, 0, 60, 64
1, 129840, Note_on_c, 0, 60, 0
1, 129840, Note_on_c, 0, 79, 0
1, 129840, Note_on_c, 0, 64, 64
1, 129900, Note_on_c, 0, 79, 64
1, 129960, Note_on_c, 0, 79, 0
1, 129960, Note_on_c, 0, 76, 64
1, 130020, Note_on_c, 0, 76, 0
1, 130020, Note_on_c, 0, 72, 64
1, 130080, Note_on_c, 0, 72, 0
1, 130080, Note_on_c, 0, 64, 0
1, 130080, Note_on_c, 0, 69, 64
1, 130140, Note_on_c, 0, 53, 64
1, 130200, Note_on_c, 0, 53, 0
1, 130200, Note_on_c, 0, 57, 64
1, 130260, Note_on_c, 0, 57, 0
1, 130260, Note_on_c, 0, 60, 64
1, 130320, Note_on_c, 0, 60, 0
1, 130320, Note_on_c, 0, 69, 0
1, 130320, Note_on_c, 0, 65, 64
1, 130380, Note_on_c, 0, 69, 64
1, 130440, Note_on_c, 0, 69, 0
1, 130440, Note_on_c, 0, 72, 64
1, 130500, Note_on_c, 0, 72, 0
1, 130500, Note_on_c, 0, 69, 64
1, 130560, Note_on_c, 0, 69, 0
1, 130560, Note_on_c, 0, 65, 0
1, 130560, Note_on_c, 0, 77, 64
1, 130620, Note_on_c, 0, 50, 64
1, 130680, Note_on_c, 0, 50, 0
1, 130680, Note_on_c, 0, 53, 64
1, 130740, Note_on_c, 0, 53, 0
1, 130740, Note_on_c, 0, 59, 64
1, 130800, Note_on_c, 0, 59, 0
1, 130800, Note_on_c, 0, 77, 0
1, 130800, Note_on_c, 0, 62, 64
1, 130860, Note_on_c, 0, 77, 64
1, 130920, Note_on_c, 0, 77, 0
1, 130920, Note_on_c, 0, 74, 64
1, 130980, Note_on_c, 0, 74, 0
1, 130980, Note_on_c, 0, 71, 64
1, 131040, Note_on_c, 0, 71, 0
1, 131040, Note_on_c, 0, 62, 0
1, 131040, Note_on_c, 0, 67, 64
1, 131100, Note_on_c, 0, 52, 64
1, 131160, Note_on_c, 0, 52, 0
1, 131160, Note_on_c, 0, 55, 64
1, 131220, Note_on_c, 0, 55, 0
1, 131220, Note_on_c, 0, 59, 64
1, 131280, Note_on_c, 0, 59, 0
1, 131280, Note_on_c, 0, 67, 0
1, 131280, Note_on_c, 0, 64, 64
1, 131340, Note_on_c, 0, 79, 64
1, 131400, Note_on_c, 0, 79, 0
1, 131400, Note_on_c, 0, 83, 64
1, 131460, Note_on_c, 0, 83, 0
1, 131460, Note_on_c, 0, 79, 64
1, 131520, Note_on_c, 0, 79, 0
1, 131520, Note_on_c, 0, 64, 0
1, 131520, Note_on_c, 0, 88, 64
1, 131580, Note_on_c, 0, 60, 64
1, 131640, Note_on_c, 0, 60, 0
1, 131640, Note_on_c, 0, 64, 64
1, 131700, Note_on_c, 0, 64, 0
1, 131700, Note_on_c, 0, 69, 64
1, 131760, Note_on_c, 0, 69, 0
1, 131760, Note_on_c, 0, 88, 0
1, 131760, Note_on_c, 0, 72, 64
1, 131820, Note_on_c, 0, 88, 64
1, 131880, Note_on_c, 0, 88, 0
1, 131880, Note_on_c, 0, 84, 64
1, 131940, Note_on_c, 0, 84, 0
1, 131940, Note_on_c, 0, 81, 64
1, 132000, Note_on_c, 0, 81, 0
1, 132000, Note_on_c, 0, 72, 0
1, 132000, Note_on_c, 0, 77, 64
1, 132060, Note_on_c, 0, 62, 64
1, 132120, Note_on_c, 0, 62, 0
1, 132120, Note_on_c, 0, 65, 64
1, 132180, Note_on_c, 0, 65, 0
1, 132180, Note_on_c, 0, 69, 64
1, 132240, Note_on_c, 0, 69, 0
1, 132240, Note_on_c, 0, 77, 0
1, 132240, Note_on_c, 0, 74, 64
1, 132300, Note_on_c, 0, 77, 64
1, 132360, Note_on_c, 0, 77, 0
1, 132360, Note_on_c, 0, 81, 64
1, 132420, Note_on_c, 0, 81, 0
1, 132420, Note_on_c, 0, 77, 64
1, 132480, Note_on_c, 0, 77, 0
1, 132480, Note_on_c, 0, 74, 0
1, 132480, Note_on_c, 0, 86, 64
1, 132540, Note_on_c, 0, 59, 64
1, 132600, Note_on_c, 0, 59, 0
1, 132600, Note_on_c, 0, 62, 64
1, 132660, Note_on_c, 0, 62, 0
1, 132660, Note_on_c, 0, 67, 64
1, 132720, Note_on_c, 0, 67, 0
1, 132720, Note_on_c, 0, 86, 0
1, 132720, Note_on_c, 0, 71, 64
1, 132780, Note_on_c, 0, 86, 64
1, 132840, Note_on_c, 0, 86, 0
1, 132840, Note_on_c, 0, 83, 64
1, 132900, Note_on_c, 0, 83, 0
1, 132900, Note_on_c, 0, 79, 64
1, 132960, Note_on_c, 0, 79, 0
1, 132960, Note_on_c, 0, 71, 0
1, 132960, Note_on_c, 0, 76, 64
1, 133020, Note_on_c, 0, 60, 64
1, 133080, Note_on_c, 0, 60, 0
1, 133080, Note_on_c, 0, 64, 64
1, 133140, Note_on_c, 0, 64, 0
1, 133140, Note_on_c, 0, 67, 64
1, 133200, Note_on_c, 0, 67, 0
1, 133200, Note_on_c, 0, 76, 0
1, 133200, Note_on_c, 0, 72, 64
1, 133260, Note_on_c, 0, 84, 64
1, 133320, Note_on_c, 0, 84, 0
1, 133320, Note_on_c, 0, 79, 64
1, 133380, Note_on_c, 0, 79, 0
1, 133380, Note_on_c, 0, 76, 64
1, 133440, Note_on_c, 0, 76, 0
1, 133440, Note_on_c, 0, 72, 0
1, 133440, Note_on_c, 0, 74, 64
1, 133560, Note_on_c, 0, 69, 64
1, 133560, Note_on_c, 0, 65, 64
1, 133656, Note_on_c, 0, 65, 0
1, 133656, Note_on_c, 0, 69, 0
1, 133680, Note_on_c, 0, 69, 64
1, 133680, Note_on_c, 0, 65, 64
1, 133776, Note_on_c, 0, 65, 0
1, 133776, Note_on_c, 0, 69, 0
1, 133800, Note_on_c, 0, 69, 64
1, 133800, Note_on_c, 0, 65, 64
1, 133896, Note_on_c, 0, 65, 0
1, 133896, Note_on_c, 0, 69, 0
1, 133910, Note_on_c, 0, 74, 0
1, 133920, Note_on_c, 0, 69, 64
1, 133920, Note_on_c, 0, 65, 64
1, 133920, Note_on_c, 0, 73, 72
1, 133950, Note_on_c, 0, 73, 0
1, 133950, Note_on_c, 0, 74, 64
1, 134016, Note_on_c, 0, 65, 0
1, 134016, Note_on_c, 0, 69, 0
1, 134040, Note_on_c, 0, 69, 64
1, 134040, Note_on_c, 0, 65, 64
1, 134136, Note_on_c, 0, 65, 0
1, 134136, Note_on_c, 0, 69, 0
1, 134160, Note_on_c, 0, 74, 0
1, 134160, Note_on_c, 0, 69, 64
1, 134160, Note_on_c, 0, 65, 64
1, 134160, Note_on_c, 0, 73, 72
1, 134190, Note_on_c, 0, 73, 0
1, 134190, Note_on_c, 0, 74, 64
1, 134256, Note_on_c, 0, 65, 0
1, 134256, Note_on_c, 0, 69, 0
1, 134280, Note_on_c, 0, 65, 64
1, 134280, Note_on_c, 0, 69, 64
1, 134376, Note_on_c, 0, 69, 0
1, 134376, Note_on_c, 0, 65, 0
1, 134400, Note_on_c, 0, 74, 0
1, 134400, Note_on_c, 0, 81, 64
1, 134520, Note_on_c, 0, 63, 64
1, 134520, Note_on_c, 0, 60, 64
1, 134520, Note_on_c, 0, 54, 64
1, 134616, Note_on_c, 0, 54, 0
1, 134616, Note_on_c, 0, 60, 0
1, 134616, Note_on_c, 0, 63, 0
1, 134640, Note_on_c, 0, 63, 64
1, 134640, Note_on_c, 0, 60, 64
1, 134640, Note_on_c, 0, 54, 64
1, 134736, Note_on_c, 0, 54, 0
1, 134736, Note_on_c, 0, 60, 0
1, 134736, Note_on_c, 0, 63, 0
1, 134760, Note_on_c, 0, 63, 64
1, 134760, Note_on_c, 0, 60, 64
1, 134760, Note_on_c, 0, 54, 64
1, 134856, Note_on_c, 0, 54, 0
1, 134856, Note_on_c, 0, 60, 0
1, 134856, Note_on_c, 0, 63, 0
1, 134870, Note_on_c, 0, 81, 0
1, 134880, Note_on_c, 0, 63, 64
1, 134880, Note_on_c, 0, 60, 64
1, 134880, Note_on_c, 0, 54, 64
1, 134880, Note_on_c, 0, 80, 72
1, 134910, Note_on_c, 0, 80, 0
1, 134910, Note_on_c, 0, 81, 64
1, 134976, Note_on_c, 0, 54, 0
1, 134976, Note_on_c, 0, 60, 0
1, 134976, Note_on_c, 0, 63, 0
1, 135000, Note_on_c, 0, 63, 64
1, 135000, Note_on_c, 0, 60, 64
1, 135000, Note_on_c, 0, 54, 64
1, 135096, Note_on_c, 0, 54, 0
1, 135096, Note_on_c, 0, 60, 0
1, 135096, Note_on_c, 0, 63, 0
1, 135120, Note_on_c, 0, 81, 0
1, 135120, Note_on_c, 0, 63, 64
1, 135120, Note_on_c, 0, 60, 64
1, 135120, Note_on_c, 0, 54, 64
1, 135120, Note_on_c, 0, 80, 72
1, 135150, Note_on_c, 0, 80, 0
1, 135150, Note_on_c, 0, 81, 64
1, 135216, Note_on_c, 0, 54, 0
1, 135216, Note_on_c, 0, 60, 0
1, 135216, Note_on_c, 0, 63, 0
1, 135240, Note_on_c, 0, 54, 64
1, 135240, Note_on_c, 0, 60, 64
1, 135240, Note_on_c, 0, 63, 64
1, 135336, Note_on_c, 0, 63, 0
1, 135336, Note_on_c, 0, 60, 0
1, 135336, Note_on_c, 0, 54, 0
1, 135360, Note_on_c, 0, 81, 0
1, 135360, Note_on_c, 0, 79, 64
1, 135360, Note_on_c, 0, 55, 64
1, 135420, Note_on_c, 0, 55, 0
1, 135420, Note_on_c, 0, 64, 64
1, 135480, Note_on_c, 0, 64, 0
1, 135480, Note_on_c, 0, 79, 0
1, 135480, Note_on_c, 0, 81, 64
1, 135480, Note_on_c, 0, 60, 64
1, 135540, Note_on_c, 0, 60, 0
1, 135540, Note_on_c, 0, 81, 0
1, 135540, Note_on_c, 0, 83, 64
1, 135540, Note_on_c, 0, 64, 64
1, 135600, Note_on_c, 0, 64, 0
1, 135600, Note_on_c, 0, 83, 0
1, 135600, Note_on_c, 0, 84, 64
1, 135600, Note_on_c, 0, 55, 64
1, 135660, Note_on_c, 0, 55, 0
1, 135660, Note_on_c, 0, 84, 0
1, 135660, Note_on_c, 0, 86, 64
1, 135660, Note_on_c, 0, 64, 64
1, 135720, Note_on_c, 0, 64, 0
1, 135720, Note_on_c, 0, 86, 0
1, 135720, Note_on_c, 0, 88, 64
1, 135720, Note_on_c, 0, 60, 64
1, 135780, Note_on_c, 0, 60, 0
1, 135780, Note_on_c, 0, 88, 0
1, 135780, Note_on_c, 0, 86, 64
1, 135780, Note_on_c, 0, 64, 64
1, 135840, Note_on_c, 0, 64, 0
1, 135840, Note_on_c, 0, 86, 0
1, 135840, Note_on_c, 0, 84, 64
1, 135840, Note_on_c, 0, 55, 64
1, 135900, Note_on_c, 0, 55, 0
1, 135900, Note_on_c, 0, 84, 0
1, 135900, Note_on_c, 0, 83, 64
1, 135900, Note_on_c, 0, 64, 64
1, 135960, Note_on_c, 0, 64, 0
1, 135960, Note_on_c, 0, 83, 0
1, 135960, Note_on_c, 0, 81, 64
1, 135960, Note_on_c, 0, 60, 64
1, 136020, Note_on_c, 0, 60, 0
1, 136020, Note_on_c, 0, 81, 0
1, 136020, Note_on_c, 0, 79, 64
1, 136020, Note_on_c, 0, 64, 64
1, 136080, Note_on_c, 0, 64, 0
1, 136080, Note_on_c, 0, 79, 0
1, 136080, Note_on_c, 0, 77, 64
1, 136080, Note_on_c, 0, 55, 64
1, 136140, Note_on_c, 0, 55, 0
1, 136140, Note_on_c, 0, 77, 0
1, 136140, Note_on_c, 0, 76, 64
1, 136140, Note_on_c, 0, 64, 64
1, 136200, Note_on_c, 0, 64, 0
1, 136200, Note_on_c, 0, 76, 0
1, 136200, Note_on_c, 0, 74, 64
1, 136200, Note_on_c, 0, 60, 64
1, 136260, Note_on_c, 0, 60, 0
1, 136260, Note_on_c, 0, 74, 0
1, 136260, Note_on_c, 0, 64, 64
1, 136260, Note_on_c, 0, 72, 64
1, 136320, Note_on_c, 0, 72, 0
1, 136320, Note_on_c, 0, 64, 0
1, 136320, Note_on_c, 0, 76, 64
1, 136320, Note_on_c, 0, 55, 64
1, 136350, Note_on_c, 0, 76, 0
1, 136350, Note_on_c, 0, 74, 48
1, 136380, Note_on_c, 0, 74, 0
1, 136380, Note_on_c, 0, 55, 0
1, 136380, Note_on_c, 0, 76, 48
1, 136380, Note_on_c, 0, 65, 64
1, 136410, Note_on_c, 0, 76, 0
1, 136410, Note_on_c, 0, 74, 49
1, 136440, Note_on_c, 0, 74, 0
1, 136440, Note_on_c, 0, 65, 0
1, 136440, Note_on_c, 0, 76, 49
1, 136440, Note_on_c, 0, 59, 64
1, 136470, Note_on_c, 0, 76, 0
1, 136470, Note_on_c, 0, 74, 50
1, 136500, Note_on_c, 0, 74, 0
1, 136500, Note_on_c, 0, 59, 0
1, 136500, Note_on_c, 0, 76, 50
1, 136500, Note_on_c, 0, 65, 64
1, 136530, Note_on_c, 0, 76, 0
1, 136530, Note_on_c, 0, 74, 51
1, 136560, Note_on_c, 0, 74, 0
1, 136560, Note_on_c, 0, 65, 0
1, 136560, Note_on_c, 0, 76, 52
1, 136560, Note_on_c, 0, 55, 64
1, 136590, Note_on_c, 0, 76, 0
1, 136590, Note_on_c, 0, 74, 52
1, 136620, Note_on_c, 0, 74, 0
1, 136620, Note_on_c, 0, 55, 0
1, 136620, Note_on_c, 0, 76, 53
1, 136620, Note_on_c, 0, 65, 64
1, 136650, Note_on_c, 0, 76, 0
1, 136650, Note_on_c, 0, 74, 53
1, 136680, Note_on_c, 0, 74, 0
1, 136680, Note_on_c, 0, 65, 0
1, 136680, Note_on_c, 0, 76, 54
1, 136680, Note_on_c, 0, 59, 64
1, 136710, Note_on_c, 0, 76, 0
1, 136710, Note_on_c, 0, 74, 54
1, 136740, Note_on_c, 0, 74, 0
1, 136740, Note_on_c, 0, 59, 0
1, 136740, Note_on_c, 0, 76, 55
1, 136740, Note_on_c, 0, 65, 64
1, 136770, Note_on_c, 0, 76, 0
1, 136770, Note_on_c, 0, 74, 56
1, 136800, Note_on_c, 0, 74, 0
1, 136800, Note_on_c, 0, 65, 0
1, 136800, Note_on_c, 0, 76, 56
1, 136800, Note_on_c, 0, 55, 64
1, 136830, Note_on_c, 0, 76, 0
1, 136830, Note_on_c, 0, 74, 57
1, 136860, Note_on_c, 0, 74, 0
1, 136860, Note_on_c, 0, 55, 0
1, 136860, Note_on_c, 0, 76, 57
1, 136860, Note_on_c, 0, 65, 64
1, 136890, Note_on_c, 0, 76, 0
1, 136890, Note_on_c, 0, 74, 58
1, 136920, Note_on_c, 0, 74, 0
1, 136920, Note_on_c, 0, 65, 0
1, 136920, Note_on_c, 0, 76, 58
1, 136920, Note_on_c, 0, 59, 64
1, 136950, Note_on_c, 0, 76, 0
1, 136950, Note_on_c, 0, 74, 59
1, 136980, Note_on_c, 0, 74, 0
1, 136980, Note_on_c, 0, 59, 0
1, 136980, Note_on_c, 0, 76, 60
1, 136980, Note_on_c, 0, 65, 64
1, 137010, Note_on_c, 0, 76, 0
1, 137010, Note_on_c, 0, 74, 60
1, 137040, Note_on_c, 0, 74, 0
1, 137040, Note_on_c, 0, 65, 0
1, 137040, Note_on_c, 0, 76, 61
1, 137040, Note_on_c, 0, 55, 64
1, 137070, Note_on_c, 0, 76, 0
1, 137070, Note_on_c, 0, 74, 61
1, 137100, Note_on_c, 0, 74, 0
1, 137100, Note_on_c, 0, 55, 0
1, 137100, Note_on_c, 0, 76, 62
1, 137100, Note_on_c, 0, 65, 64
1, 137130, Note_on_c, 0, 76, 0
1, 137130, Note_on_c, 0, 74, 62
1, 137160, Note_on_c, 0, 74, 0
1, 137160, Note_on_c, 0, 65, 0
1, 137160, Note_on_c, 0, 76, 63
1, 137160, Note_on_c, 0, 59, 64
1, 137190, Note_on_c, 0, 76, 0
1, 137190, Note_on_c, 0, 74, 64
1, 137220, Note_on_c, 0, 74, 0
1, 137220, Note_on_c, 0, 59, 0
1, 137220, Note_on_c, 0, 65, 64
1, 137220, Note_on_c, 0, 72, 64
1, 137250, Note_on_c, 0, 72, 0
1, 137250, Note_on_c, 0, 74, 64
1, 137280, Note_on_c, 0, 74, 0
1, 137280, Note_on_c, 0, 65, 0
1, 137280, Note_on_c, 0, 72, 64
1, 137280, Note_on_c, 0, 60, 64
1, 137280, Note_on_c, 0, 64, 64
1, 137520, Note_on_c, 0, 64, 0
1, 137520, Note_on_c, 0, 60, 0
1, 137520, Note_on_c, 0, 72, 0
1, 137520, Note_on_c, 0, 72, 64
1, 137580, Note_on_c, 0, 72, 0
1, 137580, Note_on_c, 0, 67, 64
1, 137640, Note_on_c, 0, 67, 0
1, 137640, Note_on_c, 0, 72, 64
1, 137700, Note_on_c, 0, 72, 0
1, 137700, Note_on_c, 0, 76, 64
1, 137760, Note_on_c, 0, 76, 0
1, 137760, Note_on_c, 0, 79, 64
1, 137820, Note_on_c, 0, 79, 0
1, 137820, Note_on_c, 0, 76, 64
1, 137880, Note_on_c, 0, 76, 0
1, 137880, Note_on_c, 0, 72, 64
1, 137940, Note_on_c, 0, 72, 0
1, 137940, Note_on_c, 0, 76, 64
1, 138000, Note_on_c, 0, 76, 0
1, 138000, Note_on_c, 0, 65, 64
1, 138000, Note_on_c, 0, 62, 64
1, 138000, Note_on_c, 0, 55, 64
1, 138000, Note_on_c, 0, 77, 64
1, 138060, Note_on_c, 0, 77, 0
1, 138060, Note_on_c, 0, 74, 64
1, 138120, Note_on_c, 0, 74, 0
1, 138120, Note_on_c, 0, 71, 64
1, 138180, Note_on_c, 0, 71, 0
1, 138180, Note_on_c, 0, 74, 64
1, 138240, Note_on_c, 0, 74, 0
1, 138240, Note_on_c, 0, 55, 0
1, 138240, Note_on_c, 0, 62, 0
1, 138240, Note_on_c, 0, 65, 0
1, 138240, Note_on_c, 0, 60, 64
1, 138240, Note_on_c, 0, 72, 64
1, 138240, Note_on_c, 0, 64, 64
1, 138480, Note_on_c, 0, 64, 0
1, 138480, Note_on_c, 0, 72, 0
1, 138480, Note_on_c, 0, 60, 0
1, 138480, Note_on_c, 0, 60, 64
1, 138540, Note_on_c, 0, 60, 0
1, 138540, Note_on_c, 0, 55, 64
1, 138600, Note_on_c, 0, 55, 0
1, 138600, Note_on_c, 0, 60, 64
1, 138660, Note_on_c, 0, 60, 0
1, 138660, Note_on_c, 0, 64, 64
1, 138720, Note_on_c, 0, 64, 0
1, 138720, Note_on_c, 0, 67, 64
1, 138780, Note_on_c, 0, 67, 0
1, 138780, Note_on_c, 0, 64, 64
1, 138840, Note_on_c, 0, 64, 0
1, 138840, Note_on_c, 0, 60, 64
1, 138900, Note_on_c, 0, 60, 0
1, 138900, Note_on_c, 0, 64, 64
1, 138960, Note_on_c, 0, 64, 0
1, 138960, Note_on_c, 0, 53, 64
1, 138960, Note_on_c, 0, 50, 64
1, 138960, Note_on_c, 0, 43, 64
1, 138960, Note_on_c, 0, 65, 64
1, 139020, Note_on_c, 0, 65, 0
1, 139020, Note_on_c, 0, 62, 64
1, 139080, Note_on_c, 0, 62, 0
1, 139080, Note_on_c, 0, 59, 64
1, 139140, Note_on_c, 0, 59, 0
1, 139140, Note_on_c, 0, 62, 64
1, 139200, Note_on_c, 0, 62, 0
1, 139200, Note_on_c, 0, 43, 0
1, 139200, Note_on_c, 0, 50, 0
1, 139200, Note_on_c, 0, 53, 0
1, 139200, Note_on_c, 0, 52, 64
1, 139200, Note_on_c, 0, 48, 64
1, 139200, Note_on_c, 0, 60, 64
1, 139296, Tempo, 468750
1, 139392, Note_on_c, 0, 60, 0
1, 139392, Note_on_c, 0, 48, 0
1, 139392, Note_on_c, 0, 52, 0
1, 139428, Tempo, 495868
1, 139440, Note_on_c, 0, 60, 64
1, 139440, Note_on_c, 0, 48, 64
1, 139440, Note_on_c, 0, 79, 64
1, 139440, Note_on_c, 0, 76, 64
1, 139440, Note_on_c, 0, 84, 64
1, 139536, Tempo, 521739
1, 139632, Note_on_c, 0, 76, 0
1, 139632, Note_on_c, 0, 79, 0
1, 139632, Note_on_c, 0, 48, 0
1, 139632, Note_on_c, 0, 60, 0
1, 139680, Note_on_c, 0, 84, 0
1, 139680, Note_on_c, 0, 48, 64
1, 139680, Note_on_c, 0, 72, 64
1, 139680, Note_on_c, 0, 36, 64
1, 139704, Tempo, 560748
1, 139872, Note_on_c, 0, 72, 0
1, 139872, Note_on_c, 0, 48, 0
1, 139920, Note_on_c, 0, 36, 0
1, 139930, End_track
0, 0, End_of_file