0, 0, Header, 0, 1, 96
1, 0, Start_track
1, 0, Tempo, 120000
1, 144, Tempo, 1000000
1, 144, Note_on_c, 0, 81, 66
1, 156, Note_on_c, 0, 81, 0
1, 156, Note_on_c, 0, 79, 66
1, 168, Note_on_c, 0, 79, 0
1, 168, Note_on_c, 0, 78, 66
1, 180, Note_on_c, 0, 78, 0
1, 180, Note_on_c, 0, 76, 66
1, 192, Note_on_c, 0, 76, 0
1, 192, Note_on_c, 0, 74, 66
1, 237, Note_on_c, 0, 74, 0
1, 240, Note_on_c, 0, 74, 66
1, 240, Note_on_c, 1, 59, 66
1, 285, Note_on_c, 0, 74, 0
1, 285, Note_on_c, 1, 59, 0
1, 288, Note_on_c, 0, 74, 66
1, 288, Note_on_c, 1, 57, 66
1, 333, Note_on_c, 0, 74, 0
1, 333, Note_on_c, 1, 57, 0
1, 336, Note_on_c, 0, 74, 66
1, 336, Note_on_c, 1, 55, 66
1, 381, Note_on_c, 0, 74, 0
1, 381, Note_on_c, 1, 55, 0
1, 384, Note_on_c, 0, 74, 66
1, 384, Note_on_c, 1, 54, 66
1, 418, Note_on_c, 0, 74, 0
1, 420, Note_on_c, 0, 76, 66
1, 429, Note_on_c, 1, 54, 0
1, 432, Note_on_c, 0, 76, 0
1, 432, Note_on_c, 0, 69, 66
1, 432, Note_on_c, 1, 66, 66
1, 466, Note_on_c, 0, 69, 0
1, 468, Note_on_c, 0, 72, 66
1, 477, Note_on_c, 1, 66, 0
1, 480, Note_on_c, 0, 72, 0
1, 480, Note_on_c, 0, 71, 66
1, 480, Note_on_c, 1, 67, 66
1, 500, Note_on_c, 0, 71, 0
1, 525, Note_on_c, 1, 67, 0
1, 528, Note_on_c, 0, 76, 66
1, 528, Note_on_c, 1, 59, 66
1, 540, Note_on_c, 0, 76, 0
1, 540, Note_on_c, 0, 74, 66
1, 552, Note_on_c, 0, 74, 0
1, 552, Note_on_c, 0, 72, 66
1, 564, Note_on_c, 0, 72, 0
1, 564, Note_on_c, 0, 71, 66
1, 573, Note_on_c, 1, 59, 0
1, 576, Note_on_c, 0, 71, 0
1, 576, Note_on_c, 0, 69, 66
1, 576, Note_on_c, 1, 60, 66
1, 596, Note_on_c, 0, 69, 0
1, 621, Note_on_c, 1, 60, 0
1, 624, Note_on_c, 0, 74, 66
1, 624, Note_on_c, 1, 57, 66
1, 636, Note_on_c, 0, 74, 0
1, 636, Note_on_c, 0, 72, 66
1, 648, Note_on_c, 0, 72, 0
1, 648, Note_on_c, 0, 71, 66
1, 660, Note_on_c, 0, 71, 0
1, 660, Note_on_c, 0, 69, 66
1, 669, Note_on_c, 1, 57, 0
1, 672, Note_on_c, 0, 69, 0
1, 672, Note_on_c, 0, 67, 66
1, 672, Note_on_c, 1, 62, 66
1, 692, Note_on_c, 0, 67, 0
1, 717, Note_on_c, 1, 62, 0
1, 720, Note_on_c, 0, 71, 66
1, 720, Note_on_c, 1, 50, 66
1, 732, Note_on_c, 0, 71, 0
1, 732, Note_on_c, 0, 69, 66
1, 744, Note_on_c, 0, 69, 0
1, 744, Note_on_c, 0, 67, 66
1, 756, Note_on_c, 0, 67, 0
1, 756, Note_on_c, 0, 66, 66
1, 765, Note_on_c, 1, 50, 0
1, 768, Note_on_c, 0, 66, 0
1, 768, Note_on_c, 0, 67, 66
1, 804, Note_on_c, 1, 43, 66
1, 813, Note_on_c, 0, 67, 0
1, 816, Note_on_c, 0, 62, 66
1, 816, Note_on_c, 1, 43, 0
1, 816, Note_on_c, 1, 47, 66
1, 850, Note_on_c, 1, 47, 0
1, 852, Note_on_c, 1, 50, 66
1, 861, Note_on_c, 0, 62, 0
1, 864, Note_on_c, 1, 50, 0
1, 864, Note_on_c, 1, 55, 66
1, 909, Note_on_c, 1, 55, 0
1, 912, Note_on_c, 0, 81, 66
1, 924, Note_on_c, 0, 81, 0
1, 924, Note_on_c, 0, 79, 66
1, 936, Note_on_c, 0, 79, 0
1, 936, Note_on_c, 0, 78, 66
1, 948, Note_on_c, 0, 78, 0
1, 948, Note_on_c, 0, 76, 66
1, 960, Note_on_c, 0, 76, 0
1, 960, Note_on_c, 0, 74, 66
1, 1005, Note_on_c, 0, 74, 0
1, 1008, Note_on_c, 0, 74, 66
1, 1008, Note_on_c, 1, 59, 66
1, 1053, Note_on_c, 0, 74, 0
1, 1053, Note_on_c, 1, 59, 0
1, 1056, Note_on_c, 0, 74, 66
1, 1056, Note_on_c, 1, 57, 66
1, 1101, Note_on_c, 0, 74, 0
1, 1101, Note_on_c, 1, 57, 0
1, 1104, Note_on_c, 0, 74, 66
1, 1104, Note_on_c, 1, 55, 66
1, 1149, Note_on_c, 0, 74, 0
1, 1149, Note_on_c, 1, 55, 0
1, 1152, Note_on_c, 0, 74, 66
1, 1152, Note_on_c, 1, 54, 66
1, 1186, Note_on_c, 0, 74, 0
1, 1188, Note_on_c, 0, 76, 66
1, 1197, Note_on_c, 1, 54, 0
1, 1200, Note_on_c, 0, 76, 0
1, 1200, Note_on_c, 0, 69, 66
1, 1200, Note_on_c, 1, 66, 66
1, 1234, Note_on_c, 0, 69, 0
1, 1236, Note_on_c, 0, 72, 66
1, 1245, Note_on_c, 1, 66, 0
1, 1248, Note_on_c, 0, 72, 0
1, 1248, Note_on_c, 0, 71, 66
1, 1248, Note_on_c, 1, 67, 66
1, 1268, Note_on_c, 0, 71, 0
1, 1293, Note_on_c, 1, 67, 0
1, 1296, Note_on_c, 0, 76, 66
1, 1296, Note_on_c, 1, 59, 66
1, 1308, Note_on_c, 0, 76, 0
1, 1308, Note_on_c, 0, 74, 66
1, 1320, Note_on_c, 0, 74, 0
1, 1320, Note_on_c, 0, 72, 66
1, 1332, Note_on_c, 0, 72, 0
1, 1332, Note_on_c, 0, 71, 66
1, 1341, Note_on_c, 1, 59, 0
1, 1344, Note_on_c, 0, 71, 0
1, 1344, Note_on_c, 0, 69, 66
1, 1344, Note_on_c, 1, 60, 66
1, 1364, Note_on_c, 0, 69, 0
1, 1392, Note_on_c, 0, 74, 66
1, 1404, Note_on_c, 0, 74, 0
1, 1404, Note_on_c, 0, 72, 66
1, 1416, Note_on_c, 0, 72, 0
1, 1416, Note_on_c, 0, 71, 66
1, 1428, Note_on_c, 0, 71, 0
1, 1428, Note_on_c, 0, 69, 66
1, 1433, Note_on_c, 1, 60, 0
1, 1440, Note_on_c, 0, 69, 0
1, 1440, Note_on_c, 0, 76, 66
1, 1460, Note_on_c, 0, 76, 0
1, 1488, Note_on_c, 0, 74, 66
1, 1488, Note_on_c, 1, 57, 66
1, 1500, Note_on_c, 0, 74, 0
1, 1500, Note_on_c, 0, 72, 66
1, 1512, Note_on_c, 0, 72, 0
1, 1512, Note_on_c, 0, 71, 66
1, 1524, Note_on_c, 0, 71, 0
1, 1524, Note_on_c, 0, 69, 66
1, 1533, Note_on_c, 1, 57, 0
1, 1536, Note_on_c, 0, 69, 0
1, 1536, Note_on_c, 0, 67, 66
1, 1536, Note_on_c, 1, 62, 66
1, 1581, Note_on_c, 1, 62, 0
1, 1584, Note_on_c, 1, 57, 66
1, 1629, Note_on_c, 1, 57, 0
1, 1632, Note_on_c, 0, 67, 0
1, 1632, Note_on_c, 0, 66, 66
1, 1632, Note_on_c, 1, 50, 66
1, 1652, Note_on_c, 0, 66, 0
1, 1677, Note_on_c, 1, 50, 0
1, 1680, Note_on_c, 0, 83, 66
1, 1692, Note_on_c, 0, 83, 0
1, 1692, Note_on_c, 0, 81, 66
1, 1704, Note_on_c, 0, 81, 0
1, 1704, Note_on_c, 0, 79, 66
1, 1716, Note_on_c, 0, 79, 0
1, 1716, Note_on_c, 0, 78, 66
1, 1728, Note_on_c, 0, 78, 0
1, 1728, Note_on_c, 0, 76, 66
1, 1776, Note_on_c, 0, 76, 0
1, 1776, Note_on_c, 0, 74, 66
1, 1776, Note_on_c, 1, 57, 66
1, 1776, Note_on_c, 1, 54, 66
1, 1796, Note_on_c, 1, 57, 0
1, 1796, Note_on_c, 1, 54, 0
1, 1821, Note_on_c, 0, 74, 0
1, 1824, Note_on_c, 1, 57, 66
1, 1824, Note_on_c, 1, 54, 66
1, 1871, Note_on_c, 1, 57, 0
1, 1871, Note_on_c, 1, 54, 0
1, 1872, Note_on_c, 0, 83, 66
1, 1884, Note_on_c, 0, 83, 0
1, 1884, Note_on_c, 0, 81, 66
1, 1896, Note_on_c, 0, 81, 0
1, 1896, Note_on_c, 0, 79, 66
1, 1908, Note_on_c, 0, 79, 0
1, 1908, Note_on_c, 0, 78, 66
1, 1920, Note_on_c, 0, 78, 0
1, 1920, Note_on_c, 0, 78, 66
1, 1968, Note_on_c, 0, 78, 0
1, 1968, Note_on_c, 0, 76, 66
1, 1968, Note_on_c, 1, 59, 66
1, 1968, Note_on_c, 1, 55, 66
1, 1988, Note_on_c, 1, 59, 0
1, 1988, Note_on_c, 1, 55, 0
1, 2013, Note_on_c, 0, 76, 0
1, 2016, Note_on_c, 1, 59, 66
1, 2016, Note_on_c, 1, 55, 66
1, 2063, Note_on_c, 1, 59, 0
1, 2063, Note_on_c, 1, 55, 0
1, 2064, Note_on_c, 0, 81, 66
1, 2076, Note_on_c, 0, 81, 0
1, 2076, Note_on_c, 0, 79, 66
1, 2088, Note_on_c, 0, 79, 0
1, 2088, Note_on_c, 0, 78, 66
1, 2100, Note_on_c, 0, 78, 0
1, 2100, Note_on_c, 0, 76, 66
1, 2112, Note_on_c, 0, 76, 0
1, 2112, Note_on_c, 0, 74, 66
1, 2160, Note_on_c, 0, 74, 0
1, 2160, Note_on_c, 0, 73, 66
1, 2160, Note_on_c, 1, 64, 66
1, 2160, Note_on_c, 1, 57, 66
1, 2180, Note_on_c, 1, 64, 0
1, 2180, Note_on_c, 1, 57, 0
1, 2205, Note_on_c, 0, 73, 0
1, 2208, Note_on_c, 1, 64, 66
1, 2208, Note_on_c, 1, 57, 66
1, 2224, Note_on_c, 0, 79, 66
1, 2239, Note_on_c, 0, 79, 0
1, 2240, Note_on_c, 0, 81, 66
1, 2255, Note_on_c, 0, 81, 0
1, 2255, Note_on_c, 1, 64, 0
1, 2255, Note_on_c, 1, 57, 0
1, 2256, Note_on_c, 0, 83, 66
1, 2271, Note_on_c, 0, 83, 0
1, 2272, Note_on_c, 0, 81, 66
1, 2287, Note_on_c, 0, 81, 0
1, 2288, Note_on_c, 0, 79, 66
1, 2303, Note_on_c, 0, 79, 0
1, 2304, Note_on_c, 0, 79, 66
1, 2304, Note_on_c, 1, 62, 66
1, 2328, Note_on_c, 0, 79, 0
1, 2328, Note_on_c, 0, 78, 66
1, 2349, Note_on_c, 1, 62, 0
1, 2351, Note_on_c, 0, 78, 0
1, 2352, Note_on_c, 1, 66, 66
1, 2376, Note_on_c, 0, 81, 67
1, 2386, Note_on_c, 0, 81, 0
1, 2397, Note_on_c, 1, 66, 0
1, 2400, Note_on_c, 0, 81, 67
1, 2400, Note_on_c, 1, 64, 67
1, 2424, Note_on_c, 0, 81, 0
1, 2424, Note_on_c, 0, 79, 68
1, 2445, Note_on_c, 1, 64, 0
1, 2447, Note_on_c, 0, 79, 0
1, 2448, Note_on_c, 0, 79, 68
1, 2448, Note_on_c, 1, 62, 68
1, 2472, Note_on_c, 0, 79, 0
1, 2472, Note_on_c, 0, 78, 69
1, 2493, Note_on_c, 1, 62, 0
1, 2495, Note_on_c, 0, 78, 0
1, 2496, Note_on_c, 0, 78, 69
1, 2496, Note_on_c, 1, 61, 69
1, 2520, Note_on_c, 0, 78, 0
1, 2520, Note_on_c, 0, 76, 70
1, 2541, Note_on_c, 1, 61, 0
1, 2543, Note_on_c, 0, 76, 0
1, 2544, Note_on_c, 0, 76, 70
1, 2544, Note_on_c, 1, 59, 70
1, 2568, Note_on_c, 0, 76, 0
1, 2568, Note_on_c, 0, 74, 71
1, 2589, Note_on_c, 1, 59, 0
1, 2591, Note_on_c, 0, 74, 0
1, 2592, Note_on_c, 0, 74, 71
1, 2592, Note_on_c, 1, 57, 71
1, 2616, Note_on_c, 0, 74, 0
1, 2616, Note_on_c, 0, 73, 72
1, 2637, Note_on_c, 1, 57, 0
1, 2639, Note_on_c, 0, 73, 0
1, 2640, Note_on_c, 0, 76, 72
1, 2640, Note_on_c, 1, 61, 72
1, 2664, Note_on_c, 0, 76, 0
1, 2664, Note_on_c, 0, 79, 73
1, 2685, Note_on_c, 1, 61, 0
1, 2687, Note_on_c, 0, 79, 0
1, 2688, Note_on_c, 0, 79, 73
1, 2688, Note_on_c, 1, 62, 73
1, 2712, Note_on_c, 0, 79, 0
1, 2712, Note_on_c, 0, 78, 74
1, 2733, Note_on_c, 1, 62, 0
1, 2735, Note_on_c, 0, 78, 0
1, 2736, Note_on_c, 1, 66, 74
1, 2760, Note_on_c, 0, 81, 66
1, 2770, Note_on_c, 0, 81, 0
1, 2781, Note_on_c, 1, 66, 0
1, 2784, Note_on_c, 0, 81, 66
1, 2784, Note_on_c, 1, 64, 66
1, 2790, Note_on_c, 0, 81, 0
1, 2790, Note_on_c, 0, 83, 66
1, 2796, Note_on_c, 0, 83, 0
1, 2796, Note_on_c, 0, 81, 66
1, 2807, Note_on_c, 0, 81, 0
1, 2808, Note_on_c, 0, 79, 67
1, 2829, Note_on_c, 1, 64, 0
1, 2831, Note_on_c, 0, 79, 0
1, 2832, Note_on_c, 0, 79, 68
1, 2832, Note_on_c, 1, 62, 67
1, 2838, Note_on_c, 0, 79, 0
1, 2838, Note_on_c, 0, 81, 68
1, 2844, Note_on_c, 0, 81, 0
1, 2844, Note_on_c, 0, 79, 68
1, 2855, Note_on_c, 0, 79, 0
1, 2856, Note_on_c, 0, 78, 68
1, 2877, Note_on_c, 1, 62, 0
1, 2879, Note_on_c, 0, 78, 0
1, 2880, Note_on_c, 0, 78, 69
1, 2880, Note_on_c, 1, 61, 69
1, 2886, Note_on_c, 0, 78, 0
1, 2886, Note_on_c, 0, 79, 69
1, 2892, Note_on_c, 0, 79, 0
1, 2892, Note_on_c, 0, 78, 69
1, 2903, Note_on_c, 0, 78, 0
1, 2904, Note_on_c, 0, 76, 70
1, 2925, Note_on_c, 1, 61, 0
1, 2927, Note_on_c, 0, 76, 0
1, 2928, Note_on_c, 0, 76, 70
1, 2928, Note_on_c, 1, 59, 70
1, 2934, Note_on_c, 0, 76, 0
1, 2934, Note_on_c, 0, 78, 70
1, 2940, Note_on_c, 0, 78, 0
1, 2940, Note_on_c, 0, 76, 70
1, 2951, Note_on_c, 0, 76, 0
1, 2952, Note_on_c, 0, 74, 71
1, 2973, Note_on_c, 1, 59, 0
1, 2975, Note_on_c, 0, 74, 0
1, 2976, Note_on_c, 0, 74, 72
1, 2976, Note_on_c, 1, 57, 72
1, 2982, Note_on_c, 0, 74, 0
1, 2982, Note_on_c, 0, 76, 72
1, 2988, Note_on_c, 0, 76, 0
1, 2988, Note_on_c, 0, 74, 72
1, 2999, Note_on_c, 0, 74, 0
1, 3000, Note_on_c, 0, 73, 72
1, 3021, Note_on_c, 1, 57, 0
1, 3023, Note_on_c, 0, 73, 0
1, 3024, Note_on_c, 0, 76, 73
1, 3024, Note_on_c, 1, 61, 73
1, 3048, Note_on_c, 0, 76, 0
1, 3048, Note_on_c, 0, 79, 74
1, 3069, Note_on_c, 1, 61, 0
1, 3071, Note_on_c, 0, 79, 0
1, 3072, Note_on_c, 0, 78, 70
1, 3072, Note_on_c, 1, 62, 75
1, 3095, Note_on_c, 0, 78, 0
1, 3096, Note_on_c, 0, 74, 70
1, 3119, Note_on_c, 0, 74, 0
1, 3120, Note_on_c, 0, 76, 71
1, 3143, Note_on_c, 0, 76, 0
1, 3144, Note_on_c, 0, 78, 71
1, 3161, Note_on_c, 1, 62, 0
1, 3167, Note_on_c, 0, 78, 0
1, 3168, Note_on_c, 0, 79, 72
1, 3191, Note_on_c, 0, 79, 0
1, 3192, Note_on_c, 0, 80, 73
1, 3215, Note_on_c, 0, 80, 0
1, 3216, Note_on_c, 0, 81, 73
1, 3239, Note_on_c, 0, 81, 0
1, 3240, Note_on_c, 0, 82, 74
1, 3263, Note_on_c, 0, 82, 0
1, 3264, Note_on_c, 0, 83, 75
1, 3288, Note_on_c, 0, 67, 75
1, 3300, Note_on_c, 0, 67, 0
1, 3300, Note_on_c, 0, 66, 75
1, 3312, Note_on_c, 0, 66, 0
1, 3312, Note_on_c, 0, 64, 75
1, 3335, Note_on_c, 0, 64, 0
1, 3336, Note_on_c, 0, 67, 75
1, 3359, Note_on_c, 0, 67, 0
1, 3360, Note_on_c, 0, 61, 75
1, 3383, Note_on_c, 0, 83, 0
1, 3384, Note_on_c, 0, 79, 75
1, 3396, Note_on_c, 0, 79, 0
1, 3396, Note_on_c, 0, 81, 75
1, 3408, Note_on_c, 0, 81, 0
1, 3408, Note_on_c, 0, 83, 75
1, 3408, Note_on_c, 1, 69, 75
1, 3431, Note_on_c, 0, 83, 0
1, 3432, Note_on_c, 0, 79, 75
1, 3449, Note_on_c, 0, 61, 0
1, 3455, Note_on_c, 0, 79, 0
1, 3456, Note_on_c, 0, 78, 75
1, 3456, Note_on_c, 0, 62, 75
1, 3463, Note_on_c, 0, 78, 0
1, 3463, Note_on_c, 0, 79, 74
1, 3470, Note_on_c, 0, 79, 0
1, 3470, Note_on_c, 0, 78, 74
1, 3477, Note_on_c, 0, 78, 0
1, 3477, Note_on_c, 0, 79, 73
1, 3484, Note_on_c, 0, 79, 0
1, 3484, Note_on_c, 0, 78, 73
1, 3491, Note_on_c, 0, 78, 0
1, 3491, Note_on_c, 0, 76, 73
1, 3498, Note_on_c, 0, 76, 0
1, 3498, Note_on_c, 0, 78, 72
1, 3501, Note_on_c, 1, 69, 0
1, 3501, Note_on_c, 0, 62, 0
1, 3504, Note_on_c, 0, 78, 0
1, 3504, Note_on_c, 0, 79, 72
1, 3504, Note_on_c, 1, 67, 72
1, 3504, Note_on_c, 0, 55, 72
1, 3527, Note_on_c, 0, 79, 0
1, 3528, Note_on_c, 0, 76, 70
1, 3549, Note_on_c, 1, 67, 0
1, 3549, Note_on_c, 0, 55, 0
1, 3551, Note_on_c, 0, 76, 0
1, 3552, Note_on_c, 0, 74, 69
1, 3552, Note_on_c, 1, 66, 69
1, 3552, Note_on_c, 0, 57, 70
1, 3597, Note_on_c, 0, 74, 0
1, 3597, Note_on_c, 1, 66, 0
1, 3600, Note_on_c, 0, 73, 66
1, 3600, Note_on_c, 1, 64, 66
1, 3607, Note_on_c, 0, 73, 0
1, 3607, Note_on_c, 0, 74, 66
1, 3614, Note_on_c, 0, 74, 0
1, 3614, Note_on_c, 0, 73, 66
1, 3621, Note_on_c, 0, 73, 0
1, 3621, Note_on_c, 0, 74, 66
1, 3628, Note_on_c, 0, 74, 0
1, 3628, Note_on_c, 0, 73, 66
1, 3635, Note_on_c, 0, 73, 0
1, 3635, Note_on_c, 0, 71, 66
1, 3641, Note_on_c, 0, 57, 0
1, 3642, Note_on_c, 0, 71, 0
1, 3642, Note_on_c, 0, 73, 66
1, 3645, Note_on_c, 1, 64, 0
1, 3648, Note_on_c, 0, 73, 0
1, 3648, Note_on_c, 0, 74, 66
1, 3648, Note_on_c, 1, 62, 66
1, 3671, Note_on_c, 0, 74, 0
1, 3672, Note_on_c, 0, 74, 66
1, 3695, Note_on_c, 0, 74, 0
1, 3696, Note_on_c, 0, 76, 67
1, 3719, Note_on_c, 0, 76, 0
1, 3720, Note_on_c, 0, 78, 69
1, 3737, Note_on_c, 1, 62, 0
1, 3743, Note_on_c, 0, 78, 0
1, 3744, Note_on_c, 0, 79, 70
1, 3767, Note_on_c, 0, 79, 0
1, 3768, Note_on_c, 0, 80, 72
1, 3791, Note_on_c, 0, 80, 0
1, 3792, Note_on_c, 0, 81, 73
1, 3815, Note_on_c, 0, 81, 0
1, 3816, Note_on_c, 0, 82, 75
1, 3839, Note_on_c, 0, 82, 0
1, 3840, Note_on_c, 0, 83, 75
1, 3864, Note_on_c, 0, 67, 75
1, 3876, Note_on_c, 0, 67, 0
1, 3876, Note_on_c, 0, 66, 75
1, 3888, Note_on_c, 0, 66, 0
1, 3888, Note_on_c, 0, 64, 75
1, 3911, Note_on_c, 0, 64, 0
1, 3912, Note_on_c, 0, 67, 75
1, 3935, Note_on_c, 0, 67, 0
1, 3936, Note_on_c, 0, 61, 75
1, 3959, Note_on_c, 0, 83, 0
1, 3960, Note_on_c, 0, 79, 75
1, 3972, Note_on_c, 0, 79, 0
1, 3972, Note_on_c, 0, 81, 75
1, 3984, Note_on_c, 0, 81, 0
1, 3984, Note_on_c, 0, 83, 75
1, 3984, Note_on_c, 1, 69, 66
1, 4007, Note_on_c, 0, 83, 0
1, 4008, Note_on_c, 0, 79, 75
1, 4025, Note_on_c, 0, 61, 0
1, 4031, Note_on_c, 0, 79, 0
1, 4032, Note_on_c, 0, 62, 75
1, 4056, Note_on_c, 0, 78, 75
1, 4068, Note_on_c, 0, 78, 0
1, 4068, Note_on_c, 0, 79, 75
1, 4077, Note_on_c, 1, 69, 0
1, 4080, Note_on_c, 0, 79, 0
1, 4080, Note_on_c, 0, 81, 75
1, 4080, Note_on_c, 1, 69, 66
1, 4103, Note_on_c, 0, 81, 0
1, 4104, Note_on_c, 0, 74, 75
1, 4121, Note_on_c, 0, 62, 0
1, 4127, Note_on_c, 0, 74, 0
1, 4128, Note_on_c, 0, 64, 75
1, 4152, Note_on_c, 0, 73, 76
1, 4164, Note_on_c, 0, 73, 0
1, 4164, Note_on_c, 0, 74, 76
1, 4169, Note_on_c, 1, 69, 0
1, 4176, Note_on_c, 0, 74, 0
1, 4176, Note_on_c, 0, 76, 77
1, 4176, Note_on_c, 1, 69, 66
1, 4199, Note_on_c, 0, 76, 0
1, 4200, Note_on_c, 0, 73, 77
1, 4217, Note_on_c, 0, 64, 0
1, 4223, Note_on_c, 0, 73, 0
1, 4224, Note_on_c, 0, 66, 75
1, 4248, Note_on_c, 0, 74, 78
1, 4260, Note_on_c, 0, 74, 0
1, 4260, Note_on_c, 0, 76, 78
1, 4269, Note_on_c, 1, 69, 0
1, 4272, Note_on_c, 0, 76, 0
1, 4272, Note_on_c, 0, 78, 78
1, 4272, Note_on_c, 1, 69, 66
1, 4295, Note_on_c, 0, 78, 0
1, 4296, Note_on_c, 0, 74, 79
1, 4313, Note_on_c, 0, 66, 0
1, 4319, Note_on_c, 0, 74, 0
1, 4320, Note_on_c, 0, 61, 75
1, 4344, Note_on_c, 0, 76, 79
1, 4356, Note_on_c, 0, 76, 0
1, 4356, Note_on_c, 0, 78, 80
1, 4361, Note_on_c, 1, 69, 0
1, 4368, Note_on_c, 0, 78, 0
1, 4368, Note_on_c, 0, 79, 80
1, 4368, Note_on_c, 1, 69, 66
1, 4391, Note_on_c, 0, 79, 0
1, 4392, Note_on_c, 0, 76, 80
1, 4409, Note_on_c, 0, 61, 0
1, 4415, Note_on_c, 0, 76, 0
1, 4416, Note_on_c, 0, 62, 75
1, 4440, Note_on_c, 0, 78, 81
1, 4452, Note_on_c, 0, 78, 0
1, 4452, Note_on_c, 0, 79, 81
1, 4461, Note_on_c, 1, 69, 0
1, 4464, Note_on_c, 0, 79, 0
1, 4464, Note_on_c, 0, 81, 81
1, 4476, Note_on_c, 0, 81, 0
1, 4476, Note_on_c, 0, 79, 81
1, 4488, Note_on_c, 0, 79, 0
1, 4488, Note_on_c, 0, 78, 81
1, 4500, Note_on_c, 0, 78, 0
1, 4500, Note_on_c, 0, 76, 81
1, 4505, Note_on_c, 0, 62, 0
1, 4512, Note_on_c, 0, 76, 0
1, 4512, Note_on_c, 0, 74, 81
1, 4524, Note_on_c, 0, 74, 0
1, 4524, Note_on_c, 0, 73, 81
1, 4536, Note_on_c, 0, 73, 0
1, 4536, Note_on_c, 0, 71, 81
1, 4548, Note_on_c, 0, 71, 0
1, 4548, Note_on_c, 0, 69, 81
1, 4560, Note_on_c, 0, 69, 0
1, 4560, Note_on_c, 0, 67, 81
1, 4560, Note_on_c, 1, 57, 75
1, 4560, Note_on_c, 1, 54, 75
1, 4572, Note_on_c, 0, 67, 0
1, 4572, Note_on_c, 0, 66, 81
1, 4584, Note_on_c, 0, 66, 0
1, 4584, Note_on_c, 0, 64, 81
1, 4596, Note_on_c, 0, 64, 0
1, 4596, Note_on_c, 0, 62, 81
1, 4605, Note_on_c, 1, 57, 0
1, 4605, Note_on_c, 1, 54, 0
1, 4608, Note_on_c, 0, 62, 0
1, 4608, Note_on_c, 0, 64, 81
1, 4608, Note_on_c, 1, 59, 75
1, 4608, Note_on_c, 1, 55, 75
1, 4631, Note_on_c, 0, 64, 0
1, 4632, Note_on_c, 0, 67, 81
1, 4644, Note_on_c, 0, 67, 0
1, 4644, Note_on_c, 0, 69, 81
1, 4656, Note_on_c, 0, 69, 0
1, 4656, Note_on_c, 0, 71, 81
1, 4668, Note_on_c, 0, 71, 0
1, 4668, Note_on_c, 0, 67, 81
1, 4680, Note_on_c, 0, 67, 0
1, 4680, Note_on_c, 0, 66, 81
1, 4692, Note_on_c, 0, 66, 0
1, 4692, Note_on_c, 0, 64, 81
1, 4697, Note_on_c, 1, 59, 0
1, 4697, Note_on_c, 1, 55, 0
1, 4704, Note_on_c, 0, 64, 0
1, 4704, Note_on_c, 0, 62, 81
1, 4704, Note_on_c, 1, 54, 75
1, 4704, Note_on_c, 0, 45, 75
1, 4749, Note_on_c, 0, 62, 0
1, 4749, Note_on_c, 1, 54, 0
1, 4752, Note_on_c, 0, 61, 81
1, 4752, Note_on_c, 1, 52, 75
1, 4759, Note_on_c, 0, 61, 0
1, 4759, Note_on_c, 0, 62, 81
1, 4766, Note_on_c, 0, 62, 0
1, 4766, Note_on_c, 0, 61, 81
1, 4773, Note_on_c, 0, 61, 0
1, 4773, Note_on_c, 0, 62, 81
1, 4780, Note_on_c, 0, 62, 0
1, 4780, Note_on_c, 0, 61, 81
1, 4787, Note_on_c, 0, 61, 0
1, 4787, Note_on_c, 0, 59, 81
1, 4793, Note_on_c, 0, 45, 0
1, 4794, Note_on_c, 0, 59, 0
1, 4794, Note_on_c, 0, 61, 81
1, 4797, Note_on_c, 1, 52, 0
1, 4800, Note_on_c, 0, 61, 0
1, 4800, Note_on_c, 0, 62, 81
1, 4800, Note_on_c, 1, 50, 75
1, 4823, Note_on_c, 0, 62, 0
1, 4824, Note_on_c, 0, 78, 81
1, 4836, Note_on_c, 0, 78, 0
1, 4836, Note_on_c, 0, 79, 81
1, 4848, Note_on_c, 0, 79, 0
1, 4848, Note_on_c, 0, 81, 81
1, 4860, Note_on_c, 0, 81, 0
1, 4860, Note_on_c, 0, 79, 81
1, 4872, Note_on_c, 0, 79, 0
1, 4872, Note_on_c, 0, 78, 81
1, 4884, Note_on_c, 0, 78, 0
1, 4884, Note_on_c, 0, 76, 81
1, 4889, Note_on_c, 1, 50, 0
1, 4896, Note_on_c, 0, 76, 0
1, 4896, Note_on_c, 0, 74, 81
1, 4908, Note_on_c, 0, 74, 0
1, 4908, Note_on_c, 0, 73, 81
1, 4920, Note_on_c, 0, 73, 0
1, 4920, Note_on_c, 0, 71, 81
1, 4932, Note_on_c, 0, 71, 0
1, 4932, Note_on_c, 0, 69, 81
1, 4944, Note_on_c, 0, 69, 0
1, 4944, Note_on_c, 0, 67, 81
1, 4944, Note_on_c, 1, 57, 75
1, 4944, Note_on_c, 1, 54, 75
1, 4956, Note_on_c, 0, 67, 0
1, 4956, Note_on_c, 0, 66, 81
1, 4968, Note_on_c, 0, 66, 0
1, 4968, Note_on_c, 0, 64, 81
1, 4980, Note_on_c, 0, 64, 0
1, 4980, Note_on_c, 0, 62, 81
1, 4989, Note_on_c, 1, 57, 0
1, 4989, Note_on_c, 1, 54, 0
1, 4992, Note_on_c, 0, 62, 0
1, 4992, Note_on_c, 0, 64, 81
1, 4992, Note_on_c, 1, 59, 75
1, 4992, Note_on_c, 1, 55, 75
1, 5015, Note_on_c, 0, 64, 0
1, 5016, Note_on_c, 0, 67, 81
1, 5028, Note_on_c, 0, 67, 0
1, 5028, Note_on_c, 0, 69, 81
1, 5040, Note_on_c, 0, 69, 0
1, 5040, Note_on_c, 0, 71, 81
1, 5052, Note_on_c, 0, 71, 0
1, 5052, Note_on_c, 0, 67, 81
1, 5064, Note_on_c, 0, 67, 0
1, 5064, Note_on_c, 0, 66, 81
1, 5076, Note_on_c, 0, 66, 0
1, 5076, Note_on_c, 0, 64, 81
1, 5081, Note_on_c, 1, 59, 0
1, 5081, Note_on_c, 1, 55, 0
1, 5088, Note_on_c, 0, 64, 0
1, 5088, Note_on_c, 0, 62, 81
1, 5088, Note_on_c, 1, 54, 75
1, 5088, Note_on_c, 0, 45, 75
1, 5133, Note_on_c, 0, 62, 0
1, 5133, Note_on_c, 1, 54, 0
1, 5136, Note_on_c, 0, 61, 81
1, 5136, Note_on_c, 1, 52, 75
1, 5143, Note_on_c, 0, 61, 0
1, 5143, Note_on_c, 0, 62, 81
1, 5150, Note_on_c, 0, 62, 0
1, 5150, Note_on_c, 0, 61, 81
1, 5157, Note_on_c, 0, 61, 0
1, 5157, Note_on_c, 0, 62, 81
1, 5164, Note_on_c, 0, 62, 0
1, 5164, Note_on_c, 0, 61, 81
1, 5171, Note_on_c, 0, 61, 0
1, 5171, Note_on_c, 0, 59, 81
1, 5177, Note_on_c, 0, 45, 0
1, 5178, Note_on_c, 0, 59, 0
1, 5178, Note_on_c, 0, 61, 81
1, 5181, Note_on_c, 1, 52, 0
1, 5184, Note_on_c, 0, 61, 0
1, 5184, Note_on_c, 0, 62, 81
1, 5184, Note_on_c, 1, 50, 75
1, 5229, Note_on_c, 1, 50, 0
1, 5232, Note_on_c, 1, 45, 75
1, 5273, Note_on_c, 0, 62, 0
1, 5277, Note_on_c, 1, 45, 0
1, 5280, Note_on_c, 1, 38, 75
1, 5325, Note_on_c, 1, 38, 0
1, 5328, Tempo, 1000000
1, 5328, Note_on_c, 0, 81, 66
1, 5340, Note_on_c, 0, 81, 0
1, 5340, Note_on_c, 0, 79, 66
1, 5352, Note_on_c, 0, 79, 0
1, 5352, Note_on_c, 0, 78, 66
1, 5364, Note_on_c, 0, 78, 0
1, 5364, Note_on_c, 0, 76, 66
1, 5376, Note_on_c, 0, 76, 0
1, 5376, Note_on_c, 0, 74, 66
1, 5421, Note_on_c, 0, 74, 0
1, 5424, Note_on_c, 0, 74, 66
1, 5424, Note_on_c, 1, 59, 66
1, 5469, Note_on_c, 0, 74, 0
1, 5469, Note_on_c, 1, 59, 0
1, 5472, Note_on_c, 0, 74, 66
1, 5472, Note_on_c, 1, 57, 66
1, 5517, Note_on_c, 0, 74, 0
1, 5517, Note_on_c, 1, 57, 0
1, 5520, Note_on_c, 0, 74, 66
1, 5520, Note_on_c, 1, 55, 66
1, 5565, Note_on_c, 0, 74, 0
1, 5565, Note_on_c, 1, 55, 0
1, 5568, Note_on_c, 0, 74, 66
1, 5568, Note_on_c, 1, 54, 66
1, 5602, Note_on_c, 0, 74, 0
1, 5604, Note_on_c, 0, 76, 66
1, 5613, Note_on_c, 1, 54, 0
1, 5616, Note_on_c, 0, 76, 0
1, 5616, Note_on_c, 0, 69, 66
1, 5616, Note_on_c, 1, 66, 66
1, 5650, Note_on_c, 0, 69, 0
1, 5652, Note_on_c, 0, 72, 66
1, 5661, Note_on_c, 1, 66, 0
1, 5664, Note_on_c, 0, 72, 0
1, 5664, Note_on_c, 0, 71, 66
1, 5664, Note_on_c, 1, 67, 66
1, 5684, Note_on_c, 0, 71, 0
1, 5709, Note_on_c, 1, 67, 0
1, 5712, Note_on_c, 0, 76, 66
1, 5712, Note_on_c, 1, 59, 66
1, 5724, Note_on_c, 0, 76, 0
1, 5724, Note_on_c, 0, 74, 66
1, 5736, Note_on_c, 0, 74, 0
1, 5736, Note_on_c, 0, 72, 66
1, 5748, Note_on_c, 0, 72, 0
1, 5748, Note_on_c, 0, 71, 66
1, 5757, Note_on_c, 1, 59, 0
1, 5760, Note_on_c, 0, 71, 0
1, 5760, Note_on_c, 0, 69, 66
1, 5760, Note_on_c, 1, 60, 66
1, 5780, Note_on_c, 0, 69, 0
1, 5805, Note_on_c, 1, 60, 0
1, 5808, Note_on_c, 0, 74, 66
1, 5808, Note_on_c, 1, 57, 66
1, 5820, Note_on_c, 0, 74, 0
1, 5820, Note_on_c, 0, 72, 66
1, 5832, Note_on_c, 0, 72, 0
1, 5832, Note_on_c, 0, 71, 66
1, 5844, Note_on_c, 0, 71, 0
1, 5844, Note_on_c, 0, 69, 66
1, 5853, Note_on_c, 1, 57, 0
1, 5856, Note_on_c, 0, 69, 0
1, 5856, Note_on_c, 0, 67, 66
1, 5856, Note_on_c, 1, 62, 66
1, 5876, Note_on_c, 0, 67, 0
1, 5901, Note_on_c, 1, 62, 0
1, 5904, Note_on_c, 0, 71, 66
1, 5904, Note_on_c, 1, 50, 66
1, 5916, Note_on_c, 0, 71, 0
1, 5916, Note_on_c, 0, 69, 66
1, 5928, Note_on_c, 0, 69, 0
1, 5928, Note_on_c, 0, 67, 66
1, 5940, Note_on_c, 0, 67, 0
1, 5940, Note_on_c, 0, 66, 66
1, 5949, Note_on_c, 1, 50, 0
1, 5952, Note_on_c, 0, 66, 0
1, 5952, Note_on_c, 0, 67, 66
1, 5988, Note_on_c, 1, 43, 66
1, 5997, Note_on_c, 0, 67, 0
1, 6000, Note_on_c, 0, 62, 66
1, 6000, Note_on_c, 1, 43, 0
1, 6000, Note_on_c, 1, 47, 66
1, 6034, Note_on_c, 1, 47, 0
1, 6036, Note_on_c, 1, 50, 66
1, 6045, Note_on_c, 0, 62, 0
1, 6048, Note_on_c, 1, 50, 0
1, 6048, Note_on_c, 1, 55, 66
1, 6093, Note_on_c, 1, 55, 0
1, 6096, Note_on_c, 0, 81, 66
1, 6108, Note_on_c, 0, 81, 0
1, 6108, Note_on_c, 0, 79, 66
1, 6120, Note_on_c, 0, 79, 0
1, 6120, Note_on_c, 0, 78, 66
1, 6132, Note_on_c, 0, 78, 0
1, 6132, Note_on_c, 0, 76, 66
1, 6144, Note_on_c, 0, 76, 0
1, 6144, Note_on_c, 0, 74, 66
1, 6189, Note_on_c, 0, 74, 0
1, 6192, Note_on_c, 0, 74, 66
1, 6192, Note_on_c, 1, 59, 66
1, 6237, Note_on_c, 0, 74, 0
1, 6237, Note_on_c, 1, 59, 0
1, 6240, Note_on_c, 0, 74, 66
1, 6240, Note_on_c, 1, 57, 66
1, 6285, Note_on_c, 0, 74, 0
1, 6285, Note_on_c, 1, 57, 0
1, 6288, Note_on_c, 0, 74, 66
1, 6288, Note_on_c, 1, 55, 66
1, 6333, Note_on_c, 0, 74, 0
1, 6333, Note_on_c, 1, 55, 0
1, 6336, Note_on_c, 0, 74, 66
1, 6336, Note_on_c, 1, 54, 66
1, 6370, Note_on_c, 0, 74, 0
1, 6372, Note_on_c, 0, 76, 66
1, 6381, Note_on_c, 1, 54, 0
1, 6384, Note_on_c, 0, 76, 0
1, 6384, Note_on_c, 0, 69, 66
1, 6384, Note_on_c, 1, 66, 66
1, 6418, Note_on_c, 0, 69, 0
1, 6420, Note_on_c, 0, 72, 66
1, 6429, Note_on_c, 1, 66, 0
1, 6432, Note_on_c, 0, 72, 0
1, 6432, Note_on_c, 0, 71, 66
1, 6432, Note_on_c, 1, 67, 66
1, 6452, Note_on_c, 0, 71, 0
1, 6477, Note_on_c, 1, 67, 0
1, 6480, Note_on_c, 0, 76, 66
1, 6480, Note_on_c, 1, 59, 66
1, 6492, Note_on_c, 0, 76, 0
1, 6492, Note_on_c, 0, 74, 66
1, 6504, Note_on_c, 0, 74, 0
1, 6504, Note_on_c, 0, 72, 66
1, 6516, Note_on_c, 0, 72, 0
1, 6516, Note_on_c, 0, 71, 66
1, 6525, Note_on_c, 1, 59, 0
1, 6528, Note_on_c, 0, 71, 0
1, 6528, Note_on_c, 0, 69, 66
1, 6528, Note_on_c, 1, 60, 66
1, 6548, Note_on_c, 0, 69, 0
1, 6576, Note_on_c, 0, 74, 66
1, 6588, Note_on_c, 0, 74, 0
1, 6588, Note_on_c, 0, 72, 66
1, 6600, Note_on_c, 0, 72, 0
1, 6600, Note_on_c, 0, 71, 66
1, 6612, Note_on_c, 0, 71, 0
1, 6612, Note_on_c, 0, 69, 66
1, 6617, Note_on_c, 1, 60, 0
1, 6624, Note_on_c, 0, 69, 0
1, 6624, Note_on_c, 0, 76, 66
1, 6644, Note_on_c, 0, 76, 0
1, 6672, Note_on_c, 0, 74, 66
1, 6672, Note_on_c, 1, 57, 66
1, 6684, Note_on_c, 0, 74, 0
1, 6684, Note_on_c, 0, 72, 66
1, 6696, Note_on_c, 0, 72, 0
1, 6696, Note_on_c, 0, 71, 66
1, 6708, Note_on_c, 0, 71, 0
1, 6708, Note_on_c, 0, 69, 66
1, 6717, Note_on_c, 1, 57, 0
1, 6720, Note_on_c, 0, 69, 0
1, 6720, Note_on_c, 0, 67, 66
1, 6720, Note_on_c, 1, 62, 66
1, 6765, Note_on_c, 1, 62, 0
1, 6768, Note_on_c, 1, 57, 66
1, 6813, Note_on_c, 1, 57, 0
1, 6816, Note_on_c, 0, 67, 0
1, 6816, Note_on_c, 0, 66, 66
1, 6816, Note_on_c, 1, 50, 66
1, 6836, Note_on_c, 0, 66, 0
1, 6861, Note_on_c, 1, 50, 0
1, 6864, Note_on_c, 0, 83, 66
1, 6876, Note_on_c, 0, 83, 0
1, 6876, Note_on_c, 0, 81, 66
1, 6888, Note_on_c, 0, 81, 0
1, 6888, Note_on_c, 0, 79, 66
1, 6900, Note_on_c, 0, 79, 0
1, 6900, Note_on_c, 0, 78, 66
1, 6912, Note_on_c, 0, 78, 0
1, 6912, Note_on_c, 0, 76, 66
1, 6960, Note_on_c, 0, 76, 0
1, 6960, Note_on_c, 0, 74, 66
1, 6960, Note_on_c, 1, 57, 66
1, 6960, Note_on_c, 1, 54, 66
1, 6980, Note_on_c, 1, 57, 0
1, 6980, Note_on_c, 1, 54, 0
1, 7005, Note_on_c, 0, 74, 0
1, 7008, Note_on_c, 1, 57, 66
1, 7008, Note_on_c, 1, 54, 66
1, 7055, Note_on_c, 1, 57, 0
1, 7055, Note_on_c, 1, 54, 0
1, 7056, Note_on_c, 0, 83, 66
1, 7068, Note_on_c, 0, 83, 0
1, 7068, Note_on_c, 0, 81, 66
1, 7080, Note_on_c, 0, 81, 0
1, 7080, Note_on_c, 0, 79, 66
1, 7092, Note_on_c, 0, 79, 0
1, 7092, Note_on_c, 0, 78, 66
1, 7104, Note_on_c, 0, 78, 0
1, 7104, Note_on_c, 0, 78, 66
1, 7152, Note_on_c, 0, 78, 0
1, 7152, Note_on_c, 0, 76, 66
1, 7152, Note_on_c, 1, 59, 66
1, 7152, Note_on_c, 1, 55, 66
1, 7172, Note_on_c, 1, 59, 0
1, 7172, Note_on_c, 1, 55, 0
1, 7197, Note_on_c, 0, 76, 0
1, 7200, Note_on_c, 1, 59, 66
1, 7200, Note_on_c, 1, 55, 66
1, 7247, Note_on_c, 1, 59, 0
1, 7247, Note_on_c, 1, 55, 0
1, 7248, Note_on_c, 0, 81, 66
1, 7260, Note_on_c, 0, 81, 0
1, 7260, Note_on_c, 0, 79, 66
1, 7272, Note_on_c, 0, 79, 0
1, 7272, Note_on_c, 0, 78, 66
1, 7284, Note_on_c, 0, 78, 0
1, 7284, Note_on_c, 0, 76, 66
1, 7296, Note_on_c, 0, 76, 0
1, 7296, Note_on_c, 0, 74, 66
1, 7344, Note_on_c, 0, 74, 0
1, 7344, Note_on_c, 0, 73, 66
1, 7344, Note_on_c, 1, 64, 66
1, 7344, Note_on_c, 1, 57, 66
1, 7364, Note_on_c, 1, 64, 0
1, 7364, Note_on_c, 1, 57, 0
1, 7389, Note_on_c, 0, 73, 0
1, 7392, Note_on_c, 1, 64, 66
1, 7392, Note_on_c, 1, 57, 66
1, 7408, Note_on_c, 0, 79, 66
1, 7423, Note_on_c, 0, 79, 0
1, 7424, Note_on_c, 0, 81, 66
1, 7439, Note_on_c, 0, 81, 0
1, 7439, Note_on_c, 1, 64, 0
1, 7439, Note_on_c, 1, 57, 0
1, 7440, Note_on_c, 0, 83, 66
1, 7455, Note_on_c, 0, 83, 0
1, 7456, Note_on_c, 0, 81, 66
1, 7471, Note_on_c, 0, 81, 0
1, 7472, Note_on_c, 0, 79, 66
1, 7487, Note_on_c, 0, 79, 0
1, 7488, Note_on_c, 0, 79, 66
1, 7488, Note_on_c, 1, 62, 66
1, 7512, Note_on_c, 0, 79, 0
1, 7512, Note_on_c, 0, 78, 66
1, 7533, Note_on_c, 1, 62, 0
1, 7535, Note_on_c, 0, 78, 0
1, 7536, Note_on_c, 1, 66, 66
1, 7560, Note_on_c, 0, 81, 67
1, 7570, Note_on_c, 0, 81, 0
1, 7581, Note_on_c, 1, 66, 0
1, 7584, Note_on_c, 0, 81, 67
1, 7584, Note_on_c, 1, 64, 67
1, 7608, Note_on_c, 0, 81, 0
1, 7608, Note_on_c, 0, 79, 68
1, 7629, Note_on_c, 1, 64, 0
1, 7631, Note_on_c, 0, 79, 0
1, 7632, Note_on_c, 0, 79, 68
1, 7632, Note_on_c, 1, 62, 68
1, 7656, Note_on_c, 0, 79, 0
1, 7656, Note_on_c, 0, 78, 69
1, 7677, Note_on_c, 1, 62, 0
1, 7679, Note_on_c, 0, 78, 0
1, 7680, Note_on_c, 0, 78, 69
1, 7680, Note_on_c, 1, 61, 69
1, 7704, Note_on_c, 0, 78, 0
1, 7704, Note_on_c, 0, 76, 70
1, 7725, Note_on_c, 1, 61, 0
1, 7727, Note_on_c, 0, 76, 0
1, 7728, Note_on_c, 0, 76, 70
1, 7728, Note_on_c, 1, 59, 70
1, 7752, Note_on_c, 0, 76, 0
1, 7752, Note_on_c, 0, 74, 71
1, 7773, Note_on_c, 1, 59, 0
1, 7775, Note_on_c, 0, 74, 0
1, 7776, Note_on_c, 0, 74, 71
1, 7776, Note_on_c, 1, 57, 71
1, 7800, Note_on_c, 0, 74, 0
1, 7800, Note_on_c, 0, 73, 72
1, 7821, Note_on_c, 1, 57, 0
1, 7823, Note_on_c, 0, 73, 0
1, 7824, Note_on_c, 0, 76, 72
1, 7824, Note_on_c, 1, 61, 72
1, 7848, Note_on_c, 0, 76, 0
1, 7848, Note_on_c, 0, 79, 73
1, 7869, Note_on_c, 1, 61, 0
1, 7871, Note_on_c, 0, 79, 0
1, 7872, Note_on_c, 0, 79, 73
1, 7872, Note_on_c, 1, 62, 73
1, 7896, Note_on_c, 0, 79, 0
1, 7896, Note_on_c, 0, 78, 74
1, 7917, Note_on_c, 1, 62, 0
1, 7919, Note_on_c, 0, 78, 0
1, 7920, Note_on_c, 1, 66, 74
1, 7944, Note_on_c, 0, 81, 66
1, 7954, Note_on_c, 0, 81, 0
1, 7965, Note_on_c, 1, 66, 0
1, 7968, Note_on_c, 0, 81, 66
1, 7968, Note_on_c, 1, 64, 66
1, 7974, Note_on_c, 0, 81, 0
1, 7974, Note_on_c, 0, 83, 66
1, 7980, Note_on_c, 0, 83, 0
1, 7980, Note_on_c, 0, 81, 66
1, 7991, Note_on_c, 0, 81, 0
1, 7992, Note_on_c, 0, 79, 67
1, 8013, Note_on_c, 1, 64, 0
1, 8015, Note_on_c, 0, 79, 0
1, 8016, Note_on_c, 0, 79, 68
1, 8016, Note_on_c, 1, 62, 67
1, 8022, Note_on_c, 0, 79, 0
1, 8022, Note_on_c, 0, 81, 68
1, 8028, Note_on_c, 0, 81, 0
1, 8028, Note_on_c, 0, 79, 68
1, 8039, Note_on_c, 0, 79, 0
1, 8040, Note_on_c, 0, 78, 68
1, 8061, Note_on_c, 1, 62, 0
1, 8063, Note_on_c, 0, 78, 0
1, 8064, Note_on_c, 0, 78, 69
1, 8064, Note_on_c, 1, 61, 69
1, 8070, Note_on_c, 0, 78, 0
1, 8070, Note_on_c, 0, 79, 69
1, 8076, Note_on_c, 0, 79, 0
1, 8076, Note_on_c, 0, 78, 69
1, 8087, Note_on_c, 0, 78, 0
1, 8088, Note_on_c, 0, 76, 70
1, 8109, Note_on_c, 1, 61, 0
1, 8111, Note_on_c, 0, 76, 0
1, 8112, Note_on_c, 0, 76, 70
1, 8112, Note_on_c, 1, 59, 70
1, 8118, Note_on_c, 0, 76, 0
1, 8118, Note_on_c, 0, 78, 70
1, 8124, Note_on_c, 0, 78, 0
1, 8124, Note_on_c, 0, 76, 70
1, 8135, Note_on_c, 0, 76, 0
1, 8136, Note_on_c, 0, 74, 71
1, 8157, Note_on_c, 1, 59, 0
1, 8159, Note_on_c, 0, 74, 0
1, 8160, Note_on_c, 0, 74, 72
1, 8160, Note_on_c, 1, 57, 72
1, 8166, Note_on_c, 0, 74, 0
1, 8166, Note_on_c, 0, 76, 72
1, 8172, Note_on_c, 0, 76, 0
1, 8172, Note_on_c, 0, 74, 72
1, 8183, Note_on_c, 0, 74, 0
1, 8184, Note_on_c, 0, 73, 72
1, 8205, Note_on_c, 1, 57, 0
1, 8207, Note_on_c, 0, 73, 0
1, 8208, Note_on_c, 0, 76, 73
1, 8208, Note_on_c, 1, 61, 73
1, 8232, Note_on_c, 0, 76, 0
1, 8232, Note_on_c, 0, 79, 74
1, 8253, Note_on_c, 1, 61, 0
1, 8255, Note_on_c, 0, 79, 0
1, 8256, Note_on_c, 0, 78, 70
1, 8256, Note_on_c, 1, 62, 75
1, 8279, Note_on_c, 0, 78, 0
1, 8280, Note_on_c, 0, 74, 70
1, 8303, Note_on_c, 0, 74, 0
1, 8304, Note_on_c, 0, 76, 71
1, 8327, Note_on_c, 0, 76, 0
1, 8328, Note_on_c, 0, 78, 71
1, 8345, Note_on_c, 1, 62, 0
1, 8351, Note_on_c, 0, 78, 0
1, 8352, Note_on_c, 0, 79, 72
1, 8375, Note_on_c, 0, 79, 0
1, 8376, Note_on_c, 0, 80, 73
1, 8399, Note_on_c, 0, 80, 0
1, 8400, Note_on_c, 0, 81, 73
1, 8423, Note_on_c, 0, 81, 0
1, 8424, Note_on_c, 0, 82, 74
1, 8447, Note_on_c, 0, 82, 0
1, 8448, Note_on_c, 0, 83, 75
1, 8472, Note_on_c, 0, 67, 75
1, 8484, Note_on_c, 0, 67, 0
1, 8484, Note_on_c, 0, 66, 75
1, 8496, Note_on_c, 0, 66, 0
1, 8496, Note_on_c, 0, 64, 75
1, 8519, Note_on_c, 0, 64, 0
1, 8520, Note_on_c, 0, 67, 75
1, 8543, Note_on_c, 0, 67, 0
1, 8544, Note_on_c, 0, 61, 75
1, 8567, Note_on_c, 0, 83, 0
1, 8568, Note_on_c, 0, 79, 75
1, 8580, Note_on_c, 0, 79, 0
1, 8580, Note_on_c, 0, 81, 75
1, 8592, Note_on_c, 0, 81, 0
1, 8592, Note_on_c, 0, 83, 75
1, 8592, Note_on_c, 1, 69, 75
1, 8615, Note_on_c, 0, 83, 0
1, 8616, Note_on_c, 0, 79, 75
1, 8633, Note_on_c, 0, 61, 0
1, 8639, Note_on_c, 0, 79, 0
1, 8640, Note_on_c, 0, 78, 75
1, 8640, Note_on_c, 0, 62, 75
1, 8647, Note_on_c, 0, 78, 0
1, 8647, Note_on_c, 0, 79, 74
1, 8654, Note_on_c, 0, 79, 0
1, 8654, Note_on_c, 0, 78, 74
1, 8661, Note_on_c, 0, 78, 0
1, 8661, Note_on_c, 0, 79, 73
1, 8668, Note_on_c, 0, 79, 0
1, 8668, Note_on_c, 0, 78, 73
1, 8675, Note_on_c, 0, 78, 0
1, 8675, Note_on_c, 0, 76, 73
1, 8682, Note_on_c, 0, 76, 0
1, 8682, Note_on_c, 0, 78, 72
1, 8685, Note_on_c, 1, 69, 0
1, 8685, Note_on_c, 0, 62, 0
1, 8688, Note_on_c, 0, 78, 0
1, 8688, Note_on_c, 0, 79, 72
1, 8688, Note_on_c, 1, 67, 72
1, 8688, Note_on_c, 0, 55, 72
1, 8711, Note_on_c, 0, 79, 0
1, 8712, Note_on_c, 0, 76, 70
1, 8733, Note_on_c, 1, 67, 0
1, 8733, Note_on_c, 0, 55, 0
1, 8735, Note_on_c, 0, 76, 0
1, 8736, Note_on_c, 0, 74, 69
1, 8736, Note_on_c, 1, 66, 69
1, 8736, Note_on_c, 0, 57, 70
1, 8781, Note_on_c, 0, 74, 0
1, 8781, Note_on_c, 1, 66, 0
1, 8784, Note_on_c, 0, 73, 66
1, 8784, Note_on_c, 1, 64, 66
1, 8791, Note_on_c, 0, 73, 0
1, 8791, Note_on_c, 0, 74, 66
1, 8798, Note_on_c, 0, 74, 0
1, 8798, Note_on_c, 0, 73, 66
1, 8805, Note_on_c, 0, 73, 0
1, 8805, Note_on_c, 0, 74, 66
1, 8812, Note_on_c, 0, 74, 0
1, 8812, Note_on_c, 0, 73, 66
1, 8819, Note_on_c, 0, 73, 0
1, 8819, Note_on_c, 0, 71, 66
1, 8825, Note_on_c, 0, 57, 0
1, 8826, Note_on_c, 0, 71, 0
1, 8826, Note_on_c, 0, 73, 66
1, 8829, Note_on_c, 1, 64, 0
1, 8832, Note_on_c, 0, 73, 0
1, 8832, Note_on_c, 0, 74, 66
1, 8832, Note_on_c, 1, 62, 66
1, 8855, Note_on_c, 0, 74, 0
1, 8856, Note_on_c, 0, 74, 66
1, 8879, Note_on_c, 0, 74, 0
1, 8880, Note_on_c, 0, 76, 67
1, 8903, Note_on_c, 0, 76, 0
1, 8904, Note_on_c, 0, 78, 69
1, 8921, Note_on_c, 1, 62, 0
1, 8927, Note_on_c, 0, 78, 0
1, 8928, Note_on_c, 0, 79, 70
1, 8951, Note_on_c, 0, 79, 0
1, 8952, Note_on_c, 0, 80, 72
1, 8975, Note_on_c, 0, 80, 0
1, 8976, Note_on_c, 0, 81, 73
1, 8999, Note_on_c, 0, 81, 0
1, 9000, Note_on_c, 0, 82, 75
1, 9023, Note_on_c, 0, 82, 0
1, 9024, Note_on_c, 0, 83, 75
1, 9048, Note_on_c, 0, 67, 75
1, 9060, Note_on_c, 0, 67, 0
1, 9060, Note_on_c, 0, 66, 75
1, 9072, Note_on_c, 0, 66, 0
1, 9072, Note_on_c, 0, 64, 75
1, 9095, Note_on_c, 0, 64, 0
1, 9096, Note_on_c, 0, 67, 75
1, 9119, Note_on_c, 0, 67, 0
1, 9120, Note_on_c, 0, 61, 75
1, 9143, Note_on_c, 0, 83, 0
1, 9144, Note_on_c, 0, 79, 75
1, 9156, Note_on_c, 0, 79, 0
1, 9156, Note_on_c, 0, 81, 75
1, 9168, Note_on_c, 0, 81, 0
1, 9168, Note_on_c, 0, 83, 75
1, 9168, Note_on_c, 1, 69, 66
1, 9191, Note_on_c, 0, 83, 0
1, 9192, Note_on_c, 0, 79, 75
1, 9209, Note_on_c, 0, 61, 0
1, 9215, Note_on_c, 0, 79, 0
1, 9216, Note_on_c, 0, 62, 75
1, 9240, Note_on_c, 0, 78, 75
1, 9252, Note_on_c, 0, 78, 0
1, 9252, Note_on_c, 0, 79, 75
1, 9261, Note_on_c, 1, 69, 0
1, 9264, Note_on_c, 0, 79, 0
1, 9264, Note_on_c, 0, 81, 75
1, 9264, Note_on_c, 1, 69, 66
1, 9287, Note_on_c, 0, 81, 0
1, 9288, Note_on_c, 0, 74, 75
1, 9305, Note_on_c, 0, 62, 0
1, 9311, Note_on_c, 0, 74, 0
1, 9312, Note_on_c, 0, 64, 75
1, 9336, Note_on_c, 0, 73, 76
1, 9348, Note_on_c, 0, 73, 0
1, 9348, Note_on_c, 0, 74, 76
1, 9353, Note_on_c, 1, 69, 0
1, 9360, Note_on_c, 0, 74, 0
1, 9360, Note_on_c, 0, 76, 77
1, 9360, Note_on_c, 1, 69, 66
1, 9383, Note_on_c, 0, 76, 0
1, 9384, Note_on_c, 0, 73, 77
1, 9401, Note_on_c, 0, 64, 0
1, 9407, Note_on_c, 0, 73, 0
1, 9408, Note_on_c, 0, 66, 75
1, 9432, Note_on_c, 0, 74, 78
1, 9444, Note_on_c, 0, 74, 0
1, 9444, Note_on_c, 0, 76, 78
1, 9453, Note_on_c, 1, 69, 0
1, 9456, Note_on_c, 0, 76, 0
1, 9456, Note_on_c, 0, 78, 78
1, 9456, Note_on_c, 1, 69, 66
1, 9479, Note_on_c, 0, 78, 0
1, 9480, Note_on_c, 0, 74, 79
1, 9497, Note_on_c, 0, 66, 0
1, 9503, Note_on_c, 0, 74, 0
1, 9504, Note_on_c, 0, 61, 75
1, 9528, Note_on_c, 0, 76, 79
1, 9540, Note_on_c, 0, 76, 0
1, 9540, Note_on_c, 0, 78, 80
1, 9545, Note_on_c, 1, 69, 0
1, 9552, Note_on_c, 0, 78, 0
1, 9552, Note_on_c, 0, 79, 80
1, 9552, Note_on_c, 1, 69, 66
1, 9575, Note_on_c, 0, 79, 0
1, 9576, Note_on_c, 0, 76, 80
1, 9593, Note_on_c, 0, 61, 0
1, 9599, Note_on_c, 0, 76, 0
1, 9600, Note_on_c, 0, 62, 75
1, 9624, Note_on_c, 0, 78, 81
1, 9636, Note_on_c, 0, 78, 0
1, 9636, Note_on_c, 0, 79, 81
1, 9645, Note_on_c, 1, 69, 0
1, 9648, Note_on_c, 0, 79, 0
1, 9648, Note_on_c, 0, 81, 81
1, 9660, Note_on_c, 0, 81, 0
1, 9660, Note_on_c, 0, 79, 81
1, 9672, Note_on_c, 0, 79, 0
1, 9672, Note_on_c, 0, 78, 81
1, 9684, Note_on_c, 0, 78, 0
1, 9684, Note_on_c, 0, 76, 81
1, 9689, Note_on_c, 0, 62, 0
1, 9696, Note_on_c, 0, 76, 0
1, 9696, Note_on_c, 0, 74, 81
1, 9708, Note_on_c, 0, 74, 0
1, 9708, Note_on_c, 0, 73, 81
1, 9720, Note_on_c, 0, 73, 0
1, 9720, Note_on_c, 0, 71, 81
1, 9732, Note_on_c, 0, 71, 0
1, 9732, Note_on_c, 0, 69, 81
1, 9744, Note_on_c, 0, 69, 0
1, 9744, Note_on_c, 0, 67, 81
1, 9744, Note_on_c, 1, 57, 75
1, 9744, Note_on_c, 1, 54, 75
1, 9756, Note_on_c, 0, 67, 0
1, 9756, Note_on_c, 0, 66, 81
1, 9768, Note_on_c, 0, 66, 0
1, 9768, Note_on_c, 0, 64, 81
1, 9780, Note_on_c, 0, 64, 0
1, 9780, Note_on_c, 0, 62, 81
1, 9789, Note_on_c, 1, 57, 0
1, 9789, Note_on_c, 1, 54, 0
1, 9792, Note_on_c, 0, 62, 0
1, 9792, Note_on_c, 0, 64, 81
1, 9792, Note_on_c, 1, 59, 75
1, 9792, Note_on_c, 1, 55, 75
1, 9815, Note_on_c, 0, 64, 0
1, 9816, Note_on_c, 0, 67, 81
1, 9828, Note_on_c, 0, 67, 0
1, 9828, Note_on_c, 0, 69, 81
1, 9840, Note_on_c, 0, 69, 0
1, 9840, Note_on_c, 0, 71, 81
1, 9852, Note_on_c, 0, 71, 0
1, 9852, Note_on_c, 0, 67, 81
1, 9864, Note_on_c, 0, 67, 0
1, 9864, Note_on_c, 0, 66, 81
1, 9876, Note_on_c, 0, 66, 0
1, 9876, Note_on_c, 0, 64, 81
1, 9881, Note_on_c, 1, 59, 0
1, 9881, Note_on_c, 1, 55, 0
1, 9888, Note_on_c, 0, 64, 0
1, 9888, Note_on_c, 0, 62, 81
1, 9888, Note_on_c, 1, 54, 75
1, 9888, Note_on_c, 0, 45, 75
1, 9933, Note_on_c, 0, 62, 0
1, 9933, Note_on_c, 1, 54, 0
1, 9936, Note_on_c, 0, 61, 81
1, 9936, Note_on_c, 1, 52, 75
1, 9943, Note_on_c, 0, 61, 0
1, 9943, Note_on_c, 0, 62, 81
1, 9950, Note_on_c, 0, 62, 0
1, 9950, Note_on_c, 0, 61, 81
1, 9957, Note_on_c, 0, 61, 0
1, 9957, Note_on_c, 0, 62, 81
1, 9964, Note_on_c, 0, 62, 0
1, 9964, Note_on_c, 0, 61, 81
1, 9971, Note_on_c, 0, 61, 0
1, 9971, Note_on_c, 0, 59, 81
1, 9977, Note_on_c, 0, 45, 0
1, 9978, Note_on_c, 0, 59, 0
1, 9978, Note_on_c, 0, 61, 81
1, 9981, Note_on_c, 1, 52, 0
1, 9984, Note_on_c, 0, 61, 0
1, 9984, Note_on_c, 0, 62, 81
1, 9984, Note_on_c, 1, 50, 75
1, 10007, Note_on_c, 0, 62, 0
1, 10008, Note_on_c, 0, 78, 81
1, 10020, Note_on_c, 0, 78, 0
1, 10020, Note_on_c, 0, 79, 81
1, 10032, Note_on_c, 0, 79, 0
1, 10032, Note_on_c, 0, 81, 81
1, 10044, Note_on_c, 0, 81, 0
1, 10044, Note_on_c, 0, 79, 81
1, 10056, Note_on_c, 0, 79, 0
1, 10056, Note_on_c, 0, 78, 81
1, 10068, Note_on_c, 0, 78, 0
1, 10068, Note_on_c, 0, 76, 81
1, 10073, Note_on_c, 1, 50, 0
1, 10080, Note_on_c, 0, 76, 0
1, 10080, Note_on_c, 0, 74, 81
1, 10092, Note_on_c, 0, 74, 0
1, 10092, Note_on_c, 0, 73, 81
1, 10104, Note_on_c, 0, 73, 0
1, 10104, Note_on_c, 0, 71, 81
1, 10116, Note_on_c, 0, 71, 0
1, 10116, Note_on_c, 0, 69, 81
1, 10128, Note_on_c, 0, 69, 0
1, 10128, Note_on_c, 0, 67, 81
1, 10128, Note_on_c, 1, 57, 75
1, 10128, Note_on_c, 1, 54, 75
1, 10140, Note_on_c, 0, 67, 0
1, 10140, Note_on_c, 0, 66, 81
1, 10152, Note_on_c, 0, 66, 0
1, 10152, Note_on_c, 0, 64, 81
1, 10164, Note_on_c, 0, 64, 0
1, 10164, Note_on_c, 0, 62, 81
1, 10173, Note_on_c, 1, 57, 0
1, 10173, Note_on_c, 1, 54, 0
1, 10176, Note_on_c, 0, 62, 0
1, 10176, Note_on_c, 0, 64, 81
1, 10176, Note_on_c, 1, 59, 75
1, 10176, Note_on_c, 1, 55, 75
1, 10199, Note_on_c, 0, 64, 0
1, 10200, Note_on_c, 0, 67, 81
1, 10212, Note_on_c, 0, 67, 0
1, 10212, Note_on_c, 0, 69, 81
1, 10224, Note_on_c, 0, 69, 0
1, 10224, Note_on_c, 0, 71, 81
1, 10236, Note_on_c, 0, 71, 0
1, 10236, Note_on_c, 0, 67, 81
1, 10248, Note_on_c, 0, 67, 0
1, 10248, Note_on_c, 0, 66, 81
1, 10260, Note_on_c, 0, 66, 0
1, 10260, Note_on_c, 0, 64, 81
1, 10265, Note_on_c, 1, 59, 0
1, 10265, Note_on_c, 1, 55, 0
1, 10272, Note_on_c, 0, 64, 0
1, 10272, Note_on_c, 0, 62, 81
1, 10272, Note_on_c, 1, 54, 75
1, 10272, Note_on_c, 0, 45, 75
1, 10317, Note_on_c, 0, 62, 0
1, 10317, Note_on_c, 1, 54, 0
1, 10320, Note_on_c, 0, 61, 81
1, 10320, Note_on_c, 1, 52, 75
1, 10327, Note_on_c, 0, 61, 0
1, 10327, Note_on_c, 0, 62, 81
1, 10334, Note_on_c, 0, 62, 0
1, 10334, Note_on_c, 0, 61, 81
1, 10341, Note_on_c, 0, 61, 0
1, 10341, Note_on_c, 0, 62, 81
1, 10348, Note_on_c, 0, 62, 0
1, 10348, Note_on_c, 0, 61, 81
1, 10355, Note_on_c, 0, 61, 0
1, 10355, Note_on_c, 0, 59, 81
1, 10361, Note_on_c, 0, 45, 0
1, 10362, Note_on_c, 0, 59, 0
1, 10362, Note_on_c, 0, 61, 81
1, 10365, Note_on_c, 1, 52, 0
1, 10368, Note_on_c, 0, 61, 0
1, 10368, Note_on_c, 0, 62, 81
1, 10368, Note_on_c, 1, 50, 75
1, 10413, Note_on_c, 1, 50, 0
1, 10416, Note_on_c, 1, 45, 75
1, 10457, Note_on_c, 0, 62, 0
1, 10461, Note_on_c, 1, 45, 0
1, 10464, Note_on_c, 1, 38, 75
1, 10509, Note_on_c, 1, 38, 0
1, 10512, Note_on_c, 0, 76, 66
1, 10524, Note_on_c, 0, 76, 0
1, 10524, Note_on_c, 0, 74, 66
1, 10536, Note_on_c, 0, 74, 0
1, 10536, Note_on_c, 0, 73, 66
1, 10548, Note_on_c, 0, 73, 0
1, 10548, Note_on_c, 0, 71, 66
1, 10560, Note_on_c, 0, 71, 0
1, 10560, Note_on_c, 0, 69, 66
1, 10605, Note_on_c, 0, 69, 0
1, 10608, Note_on_c, 0, 69, 66
1, 10608, Note_on_c, 1, 54, 66
1, 10653, Note_on_c, 0, 69, 0
1, 10653, Note_on_c, 1, 54, 0
1, 10656, Note_on_c, 0, 69, 66
1, 10656, Note_on_c, 1, 52, 66
1, 10701, Note_on_c, 0, 69, 0
1, 10701, Note_on_c, 1, 52, 0
1, 10704, Note_on_c, 0, 69, 66
1, 10704, Note_on_c, 1, 50, 66
1, 10749, Note_on_c, 0, 69, 0
1, 10749, Note_on_c, 1, 50, 0
1, 10752, Note_on_c, 0, 69, 66
1, 10752, Note_on_c, 1, 49, 66
1, 10786, Note_on_c, 0, 69, 0
1, 10788, Note_on_c, 0, 71, 66
1, 10797, Note_on_c, 1, 49, 0
1, 10800, Note_on_c, 0, 71, 0
1, 10800, Note_on_c, 0, 64, 66
1, 10800, Note_on_c, 1, 61, 66
1, 10834, Note_on_c, 0, 64, 0
1, 10836, Note_on_c, 0, 67, 66
1, 10845, Note_on_c, 1, 61, 0
1, 10848, Note_on_c, 0, 67, 0
1, 10848, Note_on_c, 0, 66, 66
1, 10848, Note_on_c, 1, 62, 66
1, 10893, Note_on_c, 0, 66, 0
1, 10893, Note_on_c, 1, 62, 0
1, 10896, Note_on_c, 0, 71, 66
1, 10896, Note_on_c, 1, 54, 66
1, 10908, Note_on_c, 0, 71, 0
1, 10908, Note_on_c, 0, 69, 66
1, 10920, Note_on_c, 0, 69, 0
1, 10920, Note_on_c, 0, 67, 66
1, 10932, Note_on_c, 0, 67, 0
1, 10932, Note_on_c, 0, 66, 66
1, 10941, Note_on_c, 1, 54, 0
1, 10944, Note_on_c, 0, 66, 0
1, 10944, Note_on_c, 0, 64, 66
1, 10944, Note_on_c, 1, 55, 66
1, 10989, Note_on_c, 0, 64, 0
1, 10989, Note_on_c, 1, 55, 0
1, 10992, Note_on_c, 0, 69, 66
1, 10992, Note_on_c, 1, 52, 66
1, 11004, Note_on_c, 0, 69, 0
1, 11004, Note_on_c, 0, 67, 66
1, 11016, Note_on_c, 0, 67, 0
1, 11016, Note_on_c, 0, 66, 66
1, 11028, Note_on_c, 0, 66, 0
1, 11028, Note_on_c, 0, 64, 66
1, 11037, Note_on_c, 1, 52, 0
1, 11040, Note_on_c, 0, 64, 0
1, 11040, Note_on_c, 0, 62, 66
1, 11040, Note_on_c, 1, 57, 66
1, 11085, Note_on_c, 0, 62, 0
1, 11085, Note_on_c, 1, 57, 0
1, 11088, Note_on_c, 0, 66, 66
1, 11088, Note_on_c, 1, 45, 66
1, 11100, Note_on_c, 0, 66, 0
1, 11100, Note_on_c, 0, 64, 66
1, 11112, Note_on_c, 0, 64, 0
1, 11112, Note_on_c, 0, 62, 66
1, 11124, Note_on_c, 0, 62, 0
1, 11124, Note_on_c, 0, 61, 66
1, 11133, Note_on_c, 1, 45, 0
1, 11136, Note_on_c, 0, 61, 0
1, 11136, Note_on_c, 0, 62, 66
1, 11172, Note_on_c, 1, 38, 66
1, 11181, Note_on_c, 0, 62, 0
1, 11184, Note_on_c, 0, 57, 66
1, 11184, Note_on_c, 1, 38, 0
1, 11184, Note_on_c, 1, 42, 66
1, 11218, Note_on_c, 1, 42, 0
1, 11220, Note_on_c, 1, 45, 66
1, 11229, Note_on_c, 0, 57, 0
1, 11232, Note_on_c, 1, 45, 0
1, 11232, Note_on_c, 1, 50, 66
1, 11277, Note_on_c, 1, 50, 0
1, 11280, Note_on_c, 0, 81, 66
1, 11292, Note_on_c, 0, 81, 0
1, 11292, Note_on_c, 0, 79, 66
1, 11304, Note_on_c, 0, 79, 0
1, 11304, Note_on_c, 0, 78, 66
1, 11316, Note_on_c, 0, 78, 0
1, 11316, Note_on_c, 0, 76, 66
1, 11328, Note_on_c, 0, 76, 0
1, 11328, Note_on_c, 0, 74, 66
1, 11373, Note_on_c, 0, 74, 0
1, 11376, Note_on_c, 0, 74, 66
1, 11376, Note_on_c, 1, 59, 66
1, 11421, Note_on_c, 0, 74, 0
1, 11421, Note_on_c, 1, 59, 0
1, 11424, Note_on_c, 0, 74, 66
1, 11424, Note_on_c, 1, 57, 66
1, 11469, Note_on_c, 0, 74, 0
1, 11469, Note_on_c, 1, 57, 0
1, 11472, Note_on_c, 0, 74, 66
1, 11472, Note_on_c, 1, 55, 66
1, 11517, Note_on_c, 0, 74, 0
1, 11517, Note_on_c, 1, 55, 0
1, 11520, Note_on_c, 0, 74, 66
1, 11520, Note_on_c, 1, 54, 66
1, 11554, Note_on_c, 0, 74, 0
1, 11556, Note_on_c, 0, 76, 66
1, 11565, Note_on_c, 1, 54, 0
1, 11568, Note_on_c, 0, 76, 0
1, 11568, Note_on_c, 0, 69, 66
1, 11568, Note_on_c, 1, 66, 66
1, 11602, Note_on_c, 0, 69, 0
1, 11604, Note_on_c, 0, 72, 66
1, 11613, Note_on_c, 1, 66, 0
1, 11616, Note_on_c, 0, 72, 0
1, 11616, Note_on_c, 0, 71, 66
1, 11616, Note_on_c, 1, 67, 66
1, 11636, Note_on_c, 0, 71, 0
1, 11661, Note_on_c, 1, 67, 0
1, 11664, Note_on_c, 0, 76, 66
1, 11664, Note_on_c, 1, 59, 66
1, 11676, Note_on_c, 0, 76, 0
1, 11676, Note_on_c, 0, 74, 66
1, 11688, Note_on_c, 0, 74, 0
1, 11688, Note_on_c, 0, 72, 66
1, 11700, Note_on_c, 0, 72, 0
1, 11700, Note_on_c, 0, 71, 66
1, 11709, Note_on_c, 1, 59, 0
1, 11712, Note_on_c, 0, 71, 0
1, 11712, Note_on_c, 0, 69, 66
1, 11712, Note_on_c, 1, 60, 66
1, 11732, Note_on_c, 0, 69, 0
1, 11757, Note_on_c, 1, 60, 0
1, 11760, Note_on_c, 0, 74, 66
1, 11760, Note_on_c, 1, 57, 66
1, 11772, Note_on_c, 0, 74, 0
1, 11772, Note_on_c, 0, 72, 66
1, 11784, Note_on_c, 0, 72, 0
1, 11784, Note_on_c, 0, 71, 66
1, 11796, Note_on_c, 0, 71, 0
1, 11796, Note_on_c, 0, 69, 66
1, 11805, Note_on_c, 1, 57, 0
1, 11808, Note_on_c, 0, 69, 0
1, 11808, Note_on_c, 0, 67, 66
1, 11808, Note_on_c, 1, 62, 66
1, 11828, Note_on_c, 0, 67, 0
1, 11853, Note_on_c, 1, 62, 0
1, 11856, Note_on_c, 0, 71, 66
1, 11856, Note_on_c, 1, 50, 66
1, 11868, Note_on_c, 0, 71, 0
1, 11868, Note_on_c, 0, 69, 66
1, 11880, Note_on_c, 0, 69, 0
1, 11880, Note_on_c, 0, 67, 66
1, 11892, Note_on_c, 0, 67, 0
1, 11892, Note_on_c, 0, 66, 66
1, 11901, Note_on_c, 1, 50, 0
1, 11904, Note_on_c, 0, 66, 0
1, 11904, Note_on_c, 0, 67, 66
1, 11928, Note_on_c, 1, 55, 66
1, 11940, Note_on_c, 1, 55, 0
1, 11940, Note_on_c, 1, 57, 66
1, 11952, Note_on_c, 1, 57, 0
1, 11952, Note_on_c, 1, 59, 66
1, 11975, Note_on_c, 1, 59, 0
1, 11976, Note_on_c, 1, 55, 66
1, 11993, Note_on_c, 0, 67, 0
1, 11999, Note_on_c, 1, 55, 0
1, 12000, Note_on_c, 1, 65, 66
1, 12024, Note_on_c, 0, 67, 66
1, 12036, Note_on_c, 0, 67, 0
1, 12036, Note_on_c, 0, 69, 66
1, 12048, Note_on_c, 0, 69, 0
1, 12048, Note_on_c, 0, 71, 66
1, 12071, Note_on_c, 0, 71, 0
1, 12072, Note_on_c, 0, 67, 66
1, 12089, Note_on_c, 1, 65, 0
1, 12095, Note_on_c, 0, 67, 0
1, 12096, Note_on_c, 1, 64, 66
1, 12120, Note_on_c, 0, 72, 66
1, 12132, Note_on_c, 0, 72, 0
1, 12132, Note_on_c, 0, 74, 66
1, 12141, Note_on_c, 1, 64, 0
1, 12144, Note_on_c, 0, 74, 0
1, 12144, Note_on_c, 0, 76, 67
1, 12144, Note_on_c, 1, 60, 66
1, 12167, Note_on_c, 0, 76, 0
1, 12168, Note_on_c, 0, 72, 67
1, 12189, Note_on_c, 1, 60, 0
1, 12191, Note_on_c, 0, 72, 0
1, 12192, Note_on_c, 1, 59, 67
1, 12216, Note_on_c, 0, 74, 68
1, 12228, Note_on_c, 0, 74, 0
1, 12228, Note_on_c, 0, 76, 68
1, 12237, Note_on_c, 1, 59, 0
1, 12240, Note_on_c, 0, 76, 0
1, 12240, Note_on_c, 0, 77, 69
1, 12240, Note_on_c, 1, 55, 68
1, 12263, Note_on_c, 0, 77, 0
1, 12264, Note_on_c, 0, 74, 69
1, 12285, Note_on_c, 1, 55, 0
1, 12287, Note_on_c, 0, 74, 0
1, 12288, Note_on_c, 0, 76, 70
1, 12312, Note_on_c, 1, 60, 70
1, 12324, Note_on_c, 1, 60, 0
1, 12324, Note_on_c, 1, 62, 70
1, 12336, Note_on_c, 1, 62, 0
1, 12336, Note_on_c, 1, 64, 70
1, 12359, Note_on_c, 1, 64, 0
1, 12360, Note_on_c, 1, 60, 71
1, 12377, Note_on_c, 0, 76, 0
1, 12383, Note_on_c, 1, 60, 0
1, 12384, Note_on_c, 1, 67, 71
1, 12408, Note_on_c, 0, 69, 72
1, 12420, Note_on_c, 0, 69, 0
1, 12420, Note_on_c, 0, 71, 73
1, 12432, Note_on_c, 0, 71, 0
1, 12432, Note_on_c, 0, 73, 73
1, 12455, Note_on_c, 0, 73, 0
1, 12456, Note_on_c, 0, 69, 74
1, 12473, Note_on_c, 1, 67, 0
1, 12479, Note_on_c, 0, 69, 0
1, 12480, Note_on_c, 1, 66, 73
1, 12504, Note_on_c, 0, 74, 75
1, 12516, Note_on_c, 0, 74, 0
1, 12516, Note_on_c, 0, 76, 75
1, 12525, Note_on_c, 1, 66, 0
1, 12528, Note_on_c, 0, 76, 0
1, 12528, Note_on_c, 0, 78, 75
1, 12528, Note_on_c, 1, 62, 74
1, 12551, Note_on_c, 0, 78, 0
1, 12552, Note_on_c, 0, 74, 76
1, 12573, Note_on_c, 1, 62, 0
1, 12575, Note_on_c, 0, 74, 0
1, 12576, Note_on_c, 1, 61, 75
1, 12600, Note_on_c, 0, 76, 77
1, 12612, Note_on_c, 0, 76, 0
1, 12612, Note_on_c, 0, 78, 77
1, 12621, Note_on_c, 1, 61, 0
1, 12624, Note_on_c, 0, 78, 0
1, 12624, Note_on_c, 0, 79, 77
1, 12624, Note_on_c, 1, 57, 76
1, 12647, Note_on_c, 0, 79, 0
1, 12648, Note_on_c, 0, 76, 78
1, 12669, Note_on_c, 1, 57, 0
1, 12671, Note_on_c, 0, 76, 0
1, 12672, Note_on_c, 0, 78, 78
1, 12696, Note_on_c, 1, 62, 77
1, 12708, Note_on_c, 1, 62, 0
1, 12708, Note_on_c, 1, 64, 77
1, 12720, Note_on_c, 1, 64, 0
1, 12720, Note_on_c, 1, 66, 78
1, 12743, Note_on_c, 1, 66, 0
1, 12744, Note_on_c, 1, 62, 78
1, 12761, Note_on_c, 0, 78, 0
1, 12767, Note_on_c, 1, 62, 0
1, 12768, Note_on_c, 1, 69, 79
1, 12792, Note_on_c, 0, 71, 81
1, 12804, Note_on_c, 0, 71, 0
1, 12804, Note_on_c, 0, 73, 81
1, 12816, Note_on_c, 0, 73, 0
1, 12816, Note_on_c, 0, 75, 81
1, 12839, Note_on_c, 0, 75, 0
1, 12840, Note_on_c, 0, 71, 81
1, 12857, Note_on_c, 1, 69, 0
1, 12863, Note_on_c, 0, 71, 0
1, 12864, Note_on_c, 1, 67, 81
1, 12888, Note_on_c, 0, 76, 81
1, 12900, Note_on_c, 0, 76, 0
1, 12900, Note_on_c, 0, 78, 81
1, 12909, Note_on_c, 1, 67, 0
1, 12912, Note_on_c, 0, 78, 0
1, 12912, Note_on_c, 0, 79, 81
1, 12912, Note_on_c, 1, 64, 81
1, 12935, Note_on_c, 0, 79, 0
1, 12936, Note_on_c, 0, 76, 81
1, 12957, Note_on_c, 1, 64, 0
1, 12959, Note_on_c, 0, 76, 0
1, 12960, Note_on_c, 1, 63, 81
1, 12984, Note_on_c, 0, 78, 81
1, 12996, Note_on_c, 0, 78, 0
1, 12996, Note_on_c, 0, 79, 81
1, 13005, Note_on_c, 1, 63, 0
1, 13008, Note_on_c, 0, 79, 0
1, 13008, Note_on_c, 0, 81, 81
1, 13008, Note_on_c, 1, 59, 81
1, 13031, Note_on_c, 0, 81, 0
1, 13032, Note_on_c, 0, 78, 81
1, 13053, Note_on_c, 1, 59, 0
1, 13055, Note_on_c, 0, 78, 0
1, 13056, Note_on_c, 0, 79, 81
1, 13056, Note_on_c, 1, 64, 81
1, 13101, Note_on_c, 0, 79, 0
1, 13101, Note_on_c, 1, 64, 0
1, 13104, Note_on_c, 1, 67, 81
1, 13128, Note_on_c, 0, 83, 66
1, 13138, Note_on_c, 0, 83, 0
1, 13149, Note_on_c, 1, 67, 0
1, 13152, Note_on_c, 0, 83, 66
1, 13152, Note_on_c, 1, 66, 66
1, 13176, Note_on_c, 0, 83, 0
1, 13176, Note_on_c, 0, 81, 67
1, 13197, Note_on_c, 1, 66, 0
1, 13199, Note_on_c, 0, 81, 0
1, 13200, Note_on_c, 0, 81, 67
1, 13200, Note_on_c, 1, 64, 67
1, 13224, Note_on_c, 0, 81, 0
1, 13224, Note_on_c, 0, 79, 68
1, 13245, Note_on_c, 1, 64, 0
1, 13247, Note_on_c, 0, 79, 0
1, 13248, Note_on_c, 0, 79, 69
1, 13248, Note_on_c, 1, 63, 68
1, 13272, Note_on_c, 0, 79, 0
1, 13272, Note_on_c, 0, 78, 69
1, 13293, Note_on_c, 1, 63, 0
1, 13295, Note_on_c, 0, 78, 0
1, 13296, Note_on_c, 0, 78, 70
1, 13296, Note_on_c, 1, 61, 69
1, 13320, Note_on_c, 0, 78, 0
1, 13320, Note_on_c, 0, 76, 71
1, 13341, Note_on_c, 1, 61, 0
1, 13343, Note_on_c, 0, 76, 0
1, 13344, Note_on_c, 0, 76, 71
1, 13344, Note_on_c, 1, 59, 71
1, 13368, Note_on_c, 0, 76, 0
1, 13368, Note_on_c, 0, 75, 72
1, 13389, Note_on_c, 1, 59, 0
1, 13391, Note_on_c, 0, 75, 0
1, 13392, Note_on_c, 0, 78, 73
1, 13392, Note_on_c, 1, 63, 72
1, 13416, Note_on_c, 0, 78, 0
1, 13416, Note_on_c, 0, 81, 73
1, 13437, Note_on_c, 1, 63, 0
1, 13439, Note_on_c, 0, 81, 0
1, 13440, Note_on_c, 0, 81, 74
1, 13440, Note_on_c, 1, 64, 73
1, 13464, Note_on_c, 0, 81, 0
1, 13464, Note_on_c, 0, 79, 75
1, 13485, Note_on_c, 1, 64, 0
1, 13487, Note_on_c, 0, 79, 0
1, 13488, Note_on_c, 1, 67, 75
1, 13512, Note_on_c, 0, 83, 66
1, 13522, Note_on_c, 0, 83, 0
1, 13533, Note_on_c, 1, 67, 0
1, 13536, Note_on_c, 0, 83, 67
1, 13536, Note_on_c, 1, 66, 66
1, 13542, Note_on_c, 0, 83, 0
1, 13542, Note_on_c, 0, 84, 67
1, 13548, Note_on_c, 0, 84, 0
1, 13548, Note_on_c, 0, 83, 67
1, 13559, Note_on_c, 0, 83, 0
1, 13560, Note_on_c, 0, 81, 68
1, 13581, Note_on_c, 1, 66, 0
1, 13583, Note_on_c, 0, 81, 0
1, 13584, Note_on_c, 0, 81, 69
1, 13584, Note_on_c, 1, 64, 67
1, 13590, Note_on_c, 0, 81, 0
1, 13590, Note_on_c, 0, 83, 69
1, 13596, Note_on_c, 0, 83, 0
1, 13596, Note_on_c, 0, 81, 69
1, 13607, Note_on_c, 0, 81, 0
1, 13608, Note_on_c, 0, 79, 70
1, 13629, Note_on_c, 1, 64, 0
1, 13631, Note_on_c, 0, 79, 0
1, 13632, Note_on_c, 0, 79, 71
1, 13632, Note_on_c, 1, 63, 69
1, 13638, Note_on_c, 0, 79, 0
1, 13638, Note_on_c, 0, 81, 71
1, 13644, Note_on_c, 0, 81, 0
1, 13644, Note_on_c, 0, 79, 71
1, 13655, Note_on_c, 0, 79, 0
1, 13656, Note_on_c, 0, 78, 72
1, 13677, Note_on_c, 1, 63, 0
1, 13679, Note_on_c, 0, 78, 0
1, 13680, Note_on_c, 0, 78, 73
1, 13680, Note_on_c, 1, 61, 71
1, 13686, Note_on_c, 0, 78, 0
1, 13686, Note_on_c, 0, 79, 73
1, 13692, Note_on_c, 0, 79, 0
1, 13692, Note_on_c, 0, 78, 73
1, 13703, Note_on_c, 0, 78, 0
1, 13704, Note_on_c, 0, 76, 74
1, 13725, Note_on_c, 1, 61, 0
1, 13727, Note_on_c, 0, 76, 0
1, 13728, Note_on_c, 0, 76, 75
1, 13728, Note_on_c, 1, 59, 73
1, 13734, Note_on_c, 0, 76, 0
1, 13734, Note_on_c, 0, 78, 75
1, 13740, Note_on_c, 0, 78, 0
1, 13740, Note_on_c, 0, 76, 75
1, 13751, Note_on_c, 0, 76, 0
1, 13752, Note_on_c, 0, 75, 76
1, 13773, Note_on_c, 1, 59, 0
1, 13775, Note_on_c, 0, 75, 0
1, 13776, Note_on_c, 0, 78, 77
1, 13776, Note_on_c, 1, 63, 75
1, 13799, Note_on_c, 0, 78, 0
1, 13800, Note_on_c, 0, 81, 78
1, 13821, Note_on_c, 1, 63, 0
1, 13823, Note_on_c, 0, 81, 0
1, 13824, Note_on_c, 0, 79, 79
1, 13824, Note_on_c, 1, 64, 77
1, 13847, Note_on_c, 0, 79, 0
1, 13848, Note_on_c, 0, 76, 81
1, 13860, Note_on_c, 0, 76, 0
1, 13860, Note_on_c, 0, 78, 81
1, 13872, Note_on_c, 0, 78, 0
1, 13872, Note_on_c, 0, 79, 81
1, 13884, Note_on_c, 0, 79, 0
1, 13884, Note_on_c, 0, 78, 81
1, 13896, Note_on_c, 0, 78, 0
1, 13896, Note_on_c, 0, 79, 81
1, 13908, Note_on_c, 0, 79, 0
1, 13908, Note_on_c, 0, 81, 81
1, 13913, Note_on_c, 1, 64, 0
1, 13920, Note_on_c, 0, 81, 0
1, 13920, Note_on_c, 0, 83, 81
1, 13930, Note_on_c, 0, 83, 0
1, 13944, Note_on_c, 0, 79, 81
1, 13954, Note_on_c, 0, 79, 0
1, 13968, Note_on_c, 0, 76, 81
1, 13968, Note_on_c, 1, 55, 81
1, 13978, Note_on_c, 0, 76, 0
1, 13992, Note_on_c, 0, 71, 81
1, 14002, Note_on_c, 0, 71, 0
1, 14013, Note_on_c, 1, 55, 0
1, 14016, Note_on_c, 0, 74, 81
1, 14016, Note_on_c, 1, 57, 81
1, 14028, Note_on_c, 0, 74, 0
1, 14028, Note_on_c, 0, 72, 81
1, 14040, Note_on_c, 0, 72, 0
1, 14040, Note_on_c, 0, 71, 81
1, 14052, Note_on_c, 0, 71, 0
1, 14052, Note_on_c, 0, 69, 81
1, 14061, Note_on_c, 1, 57, 0
1, 14064, Note_on_c, 0, 69, 0
1, 14064, Note_on_c, 0, 69, 81
1, 14064, Note_on_c, 1, 60, 81
1, 14076, Note_on_c, 0, 69, 0
1, 14076, Note_on_c, 0, 67, 81
1, 14088, Note_on_c, 0, 67, 0
1, 14088, Note_on_c, 0, 66, 81
1, 14100, Note_on_c, 0, 66, 0
1, 14100, Note_on_c, 0, 64, 81
1, 14109, Note_on_c, 1, 60, 0
1, 14112, Note_on_c, 0, 64, 0
1, 14112, Note_on_c, 0, 66, 81
1, 14112, Note_on_c, 1, 59, 81
1, 14120, Note_on_c, 0, 66, 0
1, 14120, Note_on_c, 0, 67, 81
1, 14128, Note_on_c, 0, 67, 0
1, 14128, Note_on_c, 0, 66, 81
1, 14136, Note_on_c, 0, 66, 0
1, 14136, Note_on_c, 0, 67, 81
1, 14144, Note_on_c, 0, 67, 0
1, 14144, Note_on_c, 0, 66, 81
1, 14152, Note_on_c, 0, 66, 0
1, 14152, Note_on_c, 0, 67, 81
1, 14157, Note_on_c, 1, 59, 0
1, 14159, Note_on_c, 0, 67, 0
1, 14159, Note_on_c, 0, 66, 81
1, 14160, Note_on_c, 1, 47, 81
1, 14166, Note_on_c, 0, 66, 0
1, 14166, Note_on_c, 0, 67, 81
1, 14173, Note_on_c, 0, 67, 0
1, 14173, Note_on_c, 0, 66, 81
1, 14180, Note_on_c, 0, 66, 0
1, 14180, Note_on_c, 0, 64, 81
1, 14194, Note_on_c, 0, 64, 0
1, 14194, Note_on_c, 0, 66, 81
1, 14205, Note_on_c, 1, 47, 0
1, 14208, Note_on_c, 0, 66, 0
1, 14208, Note_on_c, 0, 64, 81
1, 14208, Note_on_c, 1, 52, 81
1, 14253, Note_on_c, 0, 64, 0
1, 14253, Note_on_c, 1, 52, 0
1, 14256, Note_on_c, 1, 47, 81
1, 14301, Note_on_c, 1, 47, 0
1, 14304, Note_on_c, 1, 40, 81
1, 14349, Note_on_c, 1, 40, 0
1, 14352, Note_on_c, 0, 81, 66
1, 14364, Note_on_c, 0, 81, 0
1, 14364, Note_on_c, 0, 79, 66
1, 14376, Note_on_c, 0, 79, 0
1, 14376, Note_on_c, 0, 77, 66
1, 14388, Note_on_c, 0, 77, 0
1, 14388, Note_on_c, 0, 76, 66
1, 14400, Note_on_c, 0, 76, 0
1, 14400, Note_on_c, 0, 74, 66
1, 14448, Note_on_c, 0, 74, 0
1, 14448, Note_on_c, 0, 72, 66
1, 14448, Note_on_c, 1, 67, 66
1, 14448, Note_on_c, 1, 64, 66
1, 14493, Note_on_c, 0, 72, 0
1, 14495, Note_on_c, 1, 67, 0
1, 14495, Note_on_c, 1, 64, 0
1, 14496, Note_on_c, 1, 67, 66
1, 14496, Note_on_c, 1, 64, 66
1, 14512, Note_on_c, 0, 72, 66
1, 14527, Note_on_c, 0, 72, 0
1, 14528, Note_on_c, 0, 74, 66
1, 14543, Note_on_c, 0, 74, 0
1, 14543, Note_on_c, 1, 67, 0
1, 14543, Note_on_c, 1, 64, 0
1, 14544, Note_on_c, 0, 76, 66
1, 14559, Note_on_c, 0, 76, 0
1, 14560, Note_on_c, 0, 74, 66
1, 14575, Note_on_c, 0, 74, 0
1, 14576, Note_on_c, 0, 72, 66
1, 14591, Note_on_c, 0, 72, 0
1, 14592, Note_on_c, 0, 72, 66
1, 14640, Note_on_c, 0, 72, 0
1, 14640, Note_on_c, 0, 71, 66
1, 14640, Note_on_c, 1, 66, 66
1, 14640, Note_on_c, 1, 62, 66
1, 14685, Note_on_c, 0, 71, 0
1, 14687, Note_on_c, 1, 66, 0
1, 14687, Note_on_c, 1, 62, 0
1, 14688, Note_on_c, 1, 66, 66
1, 14688, Note_on_c, 1, 62, 66
1, 14704, Note_on_c, 0, 71, 66
1, 14719, Note_on_c, 0, 71, 0
1, 14720, Note_on_c, 0, 72, 66
1, 14735, Note_on_c, 0, 72, 0
1, 14735, Note_on_c, 1, 66, 0
1, 14735, Note_on_c, 1, 62, 0
1, 14736, Note_on_c, 0, 74, 66
1, 14751, Note_on_c, 0, 74, 0
1, 14752, Note_on_c, 0, 72, 66
1, 14767, Note_on_c, 0, 72, 0
1, 14768, Note_on_c, 0, 71, 66
1, 14783, Note_on_c, 0, 71, 0
1, 14784, Note_on_c, 1, 64, 66
1, 14784, Note_on_c, 1, 60, 66
1, 14800, Note_on_c, 0, 69, 66
1, 14815, Note_on_c, 0, 69, 0
1, 14816, Note_on_c, 0, 71, 66
1, 14829, Note_on_c, 1, 64, 0
1, 14829, Note_on_c, 1, 60, 0
1, 14831, Note_on_c, 0, 71, 0
1, 14832, Note_on_c, 0, 72, 66
1, 14847, Note_on_c, 0, 72, 0
1, 14848, Note_on_c, 0, 71, 67
1, 14863, Note_on_c, 0, 71, 0
1, 14864, Note_on_c, 0, 69, 67
1, 14879, Note_on_c, 0, 69, 0
1, 14880, Note_on_c, 1, 62, 67
1, 14880, Note_on_c, 1, 59, 67
1, 14896, Note_on_c, 0, 67, 68
1, 14911, Note_on_c, 0, 67, 0
1, 14912, Note_on_c, 0, 69, 68
1, 14925, Note_on_c, 1, 62, 0
1, 14925, Note_on_c, 1, 59, 0
1, 14927, Note_on_c, 0, 69, 0
1, 14928, Note_on_c, 0, 71, 68
1, 14943, Note_on_c, 0, 71, 0
1, 14944, Note_on_c, 0, 69, 69
1, 14959, Note_on_c, 0, 69, 0
1, 14960, Note_on_c, 0, 67, 69
1, 14975, Note_on_c, 0, 67, 0
1, 14976, Note_on_c, 0, 67, 69
1, 14999, Note_on_c, 0, 67, 0
1, 15000, Note_on_c, 0, 66, 70
1, 15023, Note_on_c, 0, 66, 0
1, 15024, Note_on_c, 0, 72, 71
1, 15024, Note_on_c, 0, 69, 71
1, 15024, Note_on_c, 1, 54, 73
1, 15069, Note_on_c, 1, 54, 0
1, 15072, Note_on_c, 1, 54, 75
1, 15113, Note_on_c, 0, 72, 0
1, 15113, Note_on_c, 0, 69, 0
1, 15117, Note_on_c, 1, 54, 0
1, 15120, Note_on_c, 0, 71, 75
1, 15120, Note_on_c, 0, 67, 75
1, 15120, Note_on_c, 1, 55, 75
1, 15165, Note_on_c, 0, 71, 0
1, 15165, Note_on_c, 0, 67, 0
1, 15165, Note_on_c, 1, 55, 0
1, 15168, Note_on_c, 0, 72, 73
1, 15168, Note_on_c, 0, 67, 75
1, 15168, Note_on_c, 1, 50, 73
1, 15174, Note_on_c, 0, 72, 0
1, 15174, Note_on_c, 0, 71, 73
1, 15180, Note_on_c, 0, 71, 0
1, 15180, Note_on_c, 0, 69, 73
1, 15186, Note_on_c, 0, 69, 0
1, 15186, Note_on_c, 0, 71, 73
1, 15213, Note_on_c, 0, 71, 0
1, 15213, Note_on_c, 0, 67, 0
1, 15213, Note_on_c, 1, 50, 0
1, 15216, Note_on_c, 0, 69, 71
1, 15216, Note_on_c, 0, 66, 72
1, 15216, Note_on_c, 1, 62, 71
1, 15261, Note_on_c, 0, 69, 0
1, 15261, Note_on_c, 0, 66, 0
1, 15261, Note_on_c, 1, 62, 0
1, 15312, Note_on_c, 0, 81, 66
1, 15324, Note_on_c, 0, 81, 0
1, 15324, Note_on_c, 0, 79, 66
1, 15336, Note_on_c, 0, 79, 0
1, 15336, Note_on_c, 0, 78, 66
1, 15348, Note_on_c, 0, 78, 0
1, 15348, Note_on_c, 0, 76, 66
1, 15360, Note_on_c, 0, 76, 0
1, 15360, Note_on_c, 0, 74, 66
1, 15405, Note_on_c, 0, 74, 0
1, 15408, Note_on_c, 0, 74, 66
1, 15408, Note_on_c, 1, 59, 66
1, 15453, Note_on_c, 0, 74, 0
1, 15453, Note_on_c, 1, 59, 0
1, 15456, Note_on_c, 0, 74, 66
1, 15456, Note_on_c, 1, 57, 66
1, 15501, Note_on_c, 0, 74, 0
1, 15501, Note_on_c, 1, 57, 0
1, 15504, Note_on_c, 0, 74, 66
1, 15504, Note_on_c, 1, 55, 66
1, 15549, Note_on_c, 0, 74, 0
1, 15549, Note_on_c, 1, 55, 0
1, 15552, Note_on_c, 0, 74, 66
1, 15552, Note_on_c, 1, 54, 66
1, 15586, Note_on_c, 0, 74, 0
1, 15588, Note_on_c, 0, 76, 66
1, 15597, Note_on_c, 1, 54, 0
1, 15600, Note_on_c, 0, 76, 0
1, 15600, Note_on_c, 0, 69, 66
1, 15600, Note_on_c, 1, 66, 66
1, 15634, Note_on_c, 0, 69, 0
1, 15636, Note_on_c, 0, 72, 66
1, 15645, Note_on_c, 1, 66, 0
1, 15648, Note_on_c, 0, 72, 0
1, 15648, Note_on_c, 0, 71, 66
1, 15648, Note_on_c, 1, 67, 66
1, 15668, Note_on_c, 0, 71, 0
1, 15693, Note_on_c, 1, 67, 0
1, 15696, Note_on_c, 0, 76, 66
1, 15696, Note_on_c, 1, 59, 66
1, 15708, Note_on_c, 0, 76, 0
1, 15708, Note_on_c, 0, 74, 66
1, 15720, Note_on_c, 0, 74, 0
1, 15720, Note_on_c, 0, 72, 66
1, 15732, Note_on_c, 0, 72, 0
1, 15732, Note_on_c, 0, 71, 66
1, 15741, Note_on_c, 1, 59, 0
1, 15744, Note_on_c, 0, 71, 0
1, 15744, Note_on_c, 0, 69, 66
1, 15744, Note_on_c, 1, 60, 66
1, 15764, Note_on_c, 0, 69, 0
1, 15789, Note_on_c, 1, 60, 0
1, 15792, Note_on_c, 0, 74, 66
1, 15792, Note_on_c, 1, 57, 66
1, 15804, Note_on_c, 0, 74, 0
1, 15804, Note_on_c, 0, 72, 66
1, 15816, Note_on_c, 0, 72, 0
1, 15816, Note_on_c, 0, 71, 66
1, 15828, Note_on_c, 0, 71, 0
1, 15828, Note_on_c, 0, 69, 66
1, 15837, Note_on_c, 1, 57, 0
1, 15840, Note_on_c, 0, 69, 0
1, 15840, Note_on_c, 0, 67, 66
1, 15840, Note_on_c, 1, 62, 66
1, 15860, Note_on_c, 0, 67, 0
1, 15885, Note_on_c, 1, 62, 0
1, 15888, Note_on_c, 0, 71, 66
1, 15888, Note_on_c, 1, 50, 66
1, 15900, Note_on_c, 0, 71, 0
1, 15900, Note_on_c, 0, 69, 66
1, 15912, Note_on_c, 0, 69, 0
1, 15912, Note_on_c, 0, 67, 66
1, 15924, Note_on_c, 0, 67, 0
1, 15924, Note_on_c, 0, 66, 66
1, 15933, Note_on_c, 1, 50, 0
1, 15936, Note_on_c, 0, 66, 0
1, 15936, Note_on_c, 0, 67, 66
1, 15972, Note_on_c, 1, 43, 66
1, 15981, Note_on_c, 0, 67, 0
1, 15984, Note_on_c, 0, 62, 66
1, 15984, Note_on_c, 1, 43, 0
1, 15984, Note_on_c, 1, 47, 66
1, 16018, Note_on_c, 1, 47, 0
1, 16020, Note_on_c, 1, 50, 66
1, 16029, Note_on_c, 0, 62, 0
1, 16032, Note_on_c, 1, 50, 0
1, 16032, Note_on_c, 1, 55, 66
1, 16077, Note_on_c, 1, 55, 0
1, 16080, Note_on_c, 0, 81, 66
1, 16092, Note_on_c, 0, 81, 0
1, 16092, Note_on_c, 0, 79, 66
1, 16104, Note_on_c, 0, 79, 0
1, 16104, Note_on_c, 0, 78, 66
1, 16116, Note_on_c, 0, 78, 0
1, 16116, Note_on_c, 0, 76, 66
1, 16128, Note_on_c, 0, 76, 0
1, 16128, Note_on_c, 0, 74, 66
1, 16151, Note_on_c, 0, 74, 0
1, 16152, Note_on_c, 0, 74, 66
1, 16176, Note_on_c, 1, 59, 66
1, 16197, Note_on_c, 0, 74, 0
1, 16200, Note_on_c, 0, 74, 66
1, 16221, Note_on_c, 1, 59, 0
1, 16224, Note_on_c, 1, 57, 66
1, 16245, Note_on_c, 0, 74, 0
1, 16248, Note_on_c, 0, 74, 66
1, 16269, Note_on_c, 1, 57, 0
1, 16272, Note_on_c, 1, 55, 66
1, 16293, Note_on_c, 0, 74, 0
1, 16296, Note_on_c, 0, 74, 66
1, 16317, Note_on_c, 1, 55, 0
1, 16320, Note_on_c, 1, 54, 66
1, 16343, Note_on_c, 0, 74, 0
1, 16344, Note_on_c, 0, 76, 66
1, 16365, Note_on_c, 1, 54, 0
1, 16367, Note_on_c, 0, 76, 0
1, 16368, Note_on_c, 0, 72, 66
1, 16368, Note_on_c, 1, 66, 66
1, 16391, Note_on_c, 0, 72, 0
1, 16392, Note_on_c, 0, 69, 66
1, 16413, Note_on_c, 1, 66, 0
1, 16415, Note_on_c, 0, 69, 0
1, 16416, Note_on_c, 0, 71, 66
1, 16416, Note_on_c, 1, 67, 66
1, 16436, Note_on_c, 0, 71, 0
1, 16461, Note_on_c, 1, 67, 0
1, 16464, Note_on_c, 0, 76, 66
1, 16464, Note_on_c, 1, 59, 66
1, 16476, Note_on_c, 0, 76, 0
1, 16476, Note_on_c, 0, 74, 66
1, 16488, Note_on_c, 0, 74, 0
1, 16488, Note_on_c, 0, 72, 66
1, 16500, Note_on_c, 0, 72, 0
1, 16500, Note_on_c, 0, 71, 66
1, 16509, Note_on_c, 1, 59, 0
1, 16512, Note_on_c, 0, 71, 0
1, 16512, Note_on_c, 0, 69, 66
1, 16512, Note_on_c, 1, 60, 66
1, 16532, Note_on_c, 0, 69, 0
1, 16560, Note_on_c, 0, 74, 66
1, 16572, Note_on_c, 0, 74, 0
1, 16572, Note_on_c, 0, 72, 66
1, 16584, Note_on_c, 0, 72, 0
1, 16584, Note_on_c, 0, 71, 66
1, 16596, Note_on_c, 0, 71, 0
1, 16596, Note_on_c, 0, 69, 66
1, 16601, Note_on_c, 1, 60, 0
1, 16608, Note_on_c, 0, 69, 0
1, 16608, Note_on_c, 0, 76, 66
1, 16628, Note_on_c, 0, 76, 0
1, 16656, Note_on_c, 0, 74, 66
1, 16656, Note_on_c, 1, 57, 66
1, 16668, Note_on_c, 0, 74, 0
1, 16668, Note_on_c, 0, 72, 66
1, 16680, Note_on_c, 0, 72, 0
1, 16680, Note_on_c, 0, 71, 66
1, 16692, Note_on_c, 0, 71, 0
1, 16692, Note_on_c, 0, 69, 66
1, 16701, Note_on_c, 1, 57, 0
1, 16704, Note_on_c, 0, 69, 0
1, 16704, Note_on_c, 0, 67, 66
1, 16704, Note_on_c, 1, 62, 66
1, 16749, Note_on_c, 1, 62, 0
1, 16752, Note_on_c, 1, 57, 66
1, 16797, Note_on_c, 1, 57, 0
1, 16800, Note_on_c, 0, 67, 0
1, 16800, Note_on_c, 0, 66, 66
1, 16800, Note_on_c, 1, 50, 66
1, 16820, Note_on_c, 0, 66, 0
1, 16845, Note_on_c, 1, 50, 0
1, 16848, Note_on_c, 0, 76, 66
1, 16860, Note_on_c, 0, 76, 0
1, 16860, Note_on_c, 0, 74, 66
1, 16872, Note_on_c, 0, 74, 0
1, 16872, Note_on_c, 0, 72, 66
1, 16884, Note_on_c, 0, 72, 0
1, 16884, Note_on_c, 0, 71, 66
1, 16896, Note_on_c, 0, 71, 0
1, 16896, Note_on_c, 0, 69, 66
1, 16944, Note_on_c, 0, 69, 0
1, 16944, Note_on_c, 0, 67, 66
1, 16944, Note_on_c, 1, 50, 66
1, 16944, Note_on_c, 1, 47, 66
1, 16964, Note_on_c, 1, 50, 0
1, 16964, Note_on_c, 1, 47, 0
1, 16989, Note_on_c, 0, 67, 0
1, 16992, Note_on_c, 1, 50, 66
1, 16992, Note_on_c, 1, 47, 66
1, 17039, Note_on_c, 1, 50, 0
1, 17039, Note_on_c, 1, 47, 0
1, 17040, Note_on_c, 0, 76, 66
1, 17052, Note_on_c, 0, 76, 0
1, 17052, Note_on_c, 0, 74, 66
1, 17064, Note_on_c, 0, 74, 0
1, 17064, Note_on_c, 0, 72, 66
1, 17076, Note_on_c, 0, 72, 0
1, 17076, Note_on_c, 0, 71, 66
1, 17088, Note_on_c, 0, 71, 0
1, 17088, Note_on_c, 0, 71, 66
1, 17136, Note_on_c, 0, 71, 0
1, 17136, Note_on_c, 0, 69, 66
1, 17136, Note_on_c, 1, 52, 66
1, 17136, Note_on_c, 1, 48, 66
1, 17156, Note_on_c, 1, 52, 0
1, 17156, Note_on_c, 1, 48, 0
1, 17181, Note_on_c, 0, 69, 0
1, 17184, Note_on_c, 1, 52, 66
1, 17184, Note_on_c, 1, 48, 66
1, 17231, Note_on_c, 1, 52, 0
1, 17231, Note_on_c, 1, 48, 0
1, 17232, Note_on_c, 0, 74, 66
1, 17244, Note_on_c, 0, 74, 0
1, 17244, Note_on_c, 0, 72, 66
1, 17256, Note_on_c, 0, 72, 0
1, 17256, Note_on_c, 0, 71, 66
1, 17268, Note_on_c, 0, 71, 0
1, 17268, Note_on_c, 0, 69, 66
1, 17280, Note_on_c, 0, 69, 0
1, 17280, Note_on_c, 0, 67, 66
1, 17328, Note_on_c, 0, 67, 0
1, 17328, Note_on_c, 0, 66, 66
1, 17328, Note_on_c, 1, 57, 66
1, 17328, Note_on_c, 1, 50, 66
1, 17348, Note_on_c, 1, 57, 0
1, 17348, Note_on_c, 1, 50, 0
1, 17373, Note_on_c, 0, 66, 0
1, 17376, Note_on_c, 1, 57, 66
1, 17376, Note_on_c, 1, 50, 66
1, 17392, Note_on_c, 0, 72, 66
1, 17407, Note_on_c, 0, 72, 0
1, 17408, Note_on_c, 0, 74, 66
1, 17423, Note_on_c, 0, 74, 0
1, 17423, Note_on_c, 1, 57, 0
1, 17423, Note_on_c, 1, 50, 0
1, 17424, Note_on_c, 0, 76, 66
1, 17439, Note_on_c, 0, 76, 0
1, 17440, Note_on_c, 0, 74, 66
1, 17455, Note_on_c, 0, 74, 0
1, 17456, Note_on_c, 0, 72, 66
1, 17471, Note_on_c, 0, 72, 0
1, 17472, Note_on_c, 0, 72, 66
1, 17472, Note_on_c, 1, 55, 66
1, 17496, Note_on_c, 0, 72, 0
1, 17496, Note_on_c, 0, 71, 66
1, 17517, Note_on_c, 1, 55, 0
1, 17519, Note_on_c, 0, 71, 0
1, 17520, Note_on_c, 1, 59, 66
1, 17544, Note_on_c, 0, 74, 66
1, 17554, Note_on_c, 0, 74, 0
1, 17565, Note_on_c, 1, 59, 0
1, 17568, Note_on_c, 0, 74, 66
1, 17568, Note_on_c, 1, 57, 66
1, 17592, Note_on_c, 0, 74, 0
1, 17592, Note_on_c, 0, 72, 67
1, 17613, Note_on_c, 1, 57, 0
1, 17615, Note_on_c, 0, 72, 0
1, 17616, Note_on_c, 0, 72, 67
1, 17616, Note_on_c, 1, 55, 67
1, 17640, Note_on_c, 0, 72, 0
1, 17640, Note_on_c, 0, 71, 68
1, 17661, Note_on_c, 1, 55, 0
1, 17663, Note_on_c, 0, 71, 0
1, 17664, Note_on_c, 0, 71, 69
1, 17664, Note_on_c, 1, 54, 68
1, 17688, Note_on_c, 0, 71, 0
1, 17688, Note_on_c, 0, 69, 69
1, 17709, Note_on_c, 1, 54, 0
1, 17711, Note_on_c, 0, 69, 0
1, 17712, Note_on_c, 0, 69, 70
1, 17712, Note_on_c, 1, 52, 69
1, 17736, Note_on_c, 0, 69, 0
1, 17736, Note_on_c, 0, 67, 70
1, 17757, Note_on_c, 1, 52, 0
1, 17759, Note_on_c, 0, 67, 0
1, 17760, Note_on_c, 0, 67, 71
1, 17760, Note_on_c, 1, 50, 71
1, 17784, Note_on_c, 0, 67, 0
1, 17784, Note_on_c, 0, 66, 72
1, 17805, Note_on_c, 1, 50, 0
1, 17807, Note_on_c, 0, 66, 0
1, 17808, Note_on_c, 0, 69, 72
1, 17808, Note_on_c, 1, 54, 72
1, 17832, Note_on_c, 0, 69, 0
1, 17832, Note_on_c, 0, 72, 73
1, 17853, Note_on_c, 1, 54, 0
1, 17855, Note_on_c, 0, 72, 0
1, 17856, Note_on_c, 0, 72, 73
1, 17856, Note_on_c, 1, 55, 73
1, 17880, Note_on_c, 0, 72, 0
1, 17880, Note_on_c, 0, 71, 74
1, 17901, Note_on_c, 1, 55, 0
1, 17903, Note_on_c, 0, 71, 0
1, 17904, Note_on_c, 1, 59, 75
1, 17928, Note_on_c, 0, 74, 75
1, 17938, Note_on_c, 0, 74, 0
1, 17949, Note_on_c, 1, 59, 0
1, 17952, Note_on_c, 0, 74, 66
1, 17952, Note_on_c, 1, 57, 66
1, 17958, Note_on_c, 0, 74, 0
1, 17958, Note_on_c, 0, 76, 66
1, 17964, Note_on_c, 0, 76, 0
1, 17964, Note_on_c, 0, 74, 66
1, 17975, Note_on_c, 0, 74, 0
1, 17976, Note_on_c, 0, 72, 66
1, 17997, Note_on_c, 1, 57, 0
1, 17999, Note_on_c, 0, 72, 0
1, 18000, Note_on_c, 0, 72, 67
1, 18000, Note_on_c, 1, 55, 67
1, 18006, Note_on_c, 0, 72, 0
1, 18006, Note_on_c, 0, 74, 67
1, 18012, Note_on_c, 0, 74, 0
1, 18012, Note_on_c, 0, 72, 67
1, 18023, Note_on_c, 0, 72, 0
1, 18024, Note_on_c, 0, 71, 68
1, 18045, Note_on_c, 1, 55, 0
1, 18047, Note_on_c, 0, 71, 0
1, 18048, Note_on_c, 0, 71, 69
1, 18048, Note_on_c, 1, 54, 69
1, 18054, Note_on_c, 0, 71, 0
1, 18054, Note_on_c, 0, 72, 69
1, 18060, Note_on_c, 0, 72, 0
1, 18060, Note_on_c, 0, 71, 69
1, 18071, Note_on_c, 0, 71, 0
1, 18072, Note_on_c, 0, 69, 69
1, 18093, Note_on_c, 1, 54, 0
1, 18095, Note_on_c, 0, 69, 0
1, 18096, Note_on_c, 0, 69, 70
1, 18096, Note_on_c, 1, 52, 70
1, 18102, Note_on_c, 0, 69, 0
1, 18102, Note_on_c, 0, 71, 70
1, 18108, Note_on_c, 0, 71, 0
1, 18108, Note_on_c, 0, 69, 70
1, 18119, Note_on_c, 0, 69, 0
1, 18120, Note_on_c, 0, 67, 71
1, 18141, Note_on_c, 1, 52, 0
1, 18143, Note_on_c, 0, 67, 0
1, 18144, Note_on_c, 0, 67, 72
1, 18144, Note_on_c, 1, 50, 72
1, 18150, Note_on_c, 0, 67, 0
1, 18150, Note_on_c, 0, 69, 72
1, 18156, Note_on_c, 0, 69, 0
1, 18156, Note_on_c, 0, 67, 72
1, 18167, Note_on_c, 0, 67, 0
1, 18168, Note_on_c, 0, 66, 72
1, 18189, Note_on_c, 1, 50, 0
1, 18191, Note_on_c, 0, 66, 0
1, 18192, Note_on_c, 0, 69, 73
1, 18192, Note_on_c, 1, 54, 73
1, 18216, Note_on_c, 0, 69, 0
1, 18216, Note_on_c, 0, 72, 74
1, 18237, Note_on_c, 1, 54, 0
1, 18239, Note_on_c, 0, 72, 0
1, 18240, Note_on_c, 0, 71, 66
1, 18240, Note_on_c, 1, 55, 75
1, 18263, Note_on_c, 0, 71, 0
1, 18264, Note_on_c, 0, 67, 67
1, 18287, Note_on_c, 0, 67, 0
1, 18288, Note_on_c, 0, 69, 68
1, 18311, Note_on_c, 0, 69, 0
1, 18312, Note_on_c, 0, 71, 69
1, 18329, Note_on_c, 1, 55, 0
1, 18335, Note_on_c, 0, 71, 0
1, 18336, Note_on_c, 0, 72, 70
1, 18359, Note_on_c, 0, 72, 0
1, 18360, Note_on_c, 0, 73, 71
1, 18383, Note_on_c, 0, 73, 0
1, 18384, Note_on_c, 0, 74, 72
1, 18407, Note_on_c, 0, 74, 0
1, 18408, Note_on_c, 0, 75, 73
1, 18431, Note_on_c, 0, 75, 0
1, 18432, Note_on_c, 0, 76, 75
1, 18456, Note_on_c, 0, 60, 75
1, 18468, Note_on_c, 0, 60, 0
1, 18468, Note_on_c, 0, 59, 75
1, 18480, Note_on_c, 0, 59, 0
1, 18480, Note_on_c, 0, 57, 75
1, 18503, Note_on_c, 0, 57, 0
1, 18504, Note_on_c, 0, 60, 75
1, 18527, Note_on_c, 0, 60, 0
1, 18528, Note_on_c, 0, 54, 75
1, 18551, Note_on_c, 0, 76, 0
1, 18552, Note_on_c, 0, 72, 75
1, 18564, Note_on_c, 0, 72, 0
1, 18564, Note_on_c, 0, 74, 75
1, 18576, Note_on_c, 0, 74, 0
1, 18576, Note_on_c, 0, 76, 75
1, 18576, Note_on_c, 1, 62, 75
1, 18617, Note_on_c, 0, 54, 0
1, 18621, Note_on_c, 0, 76, 0
1, 18624, Note_on_c, 0, 71, 75
1, 18624, Note_on_c, 0, 55, 75
1, 18631, Note_on_c, 0, 71, 0
1, 18631, Note_on_c, 0, 72, 74
1, 18638, Note_on_c, 0, 72, 0
1, 18638, Note_on_c, 0, 71, 74
1, 18645, Note_on_c, 0, 71, 0
1, 18645, Note_on_c, 0, 72, 73
1, 18652, Note_on_c, 0, 72, 0
1, 18652, Note_on_c, 0, 71, 73
1, 18659, Note_on_c, 0, 71, 0
1, 18659, Note_on_c, 0, 69, 73
1, 18666, Note_on_c, 0, 69, 0
1, 18666, Note_on_c, 0, 71, 72
1, 18669, Note_on_c, 1, 62, 0
1, 18669, Note_on_c, 0, 55, 0
1, 18672, Note_on_c, 0, 71, 0
1, 18672, Note_on_c, 0, 72, 72
1, 18672, Note_on_c, 1, 60, 72
1, 18672, Note_on_c, 0, 48, 72
1, 18695, Note_on_c, 0, 72, 0
1, 18696, Note_on_c, 0, 69, 70
1, 18717, Note_on_c, 1, 60, 0
1, 18717, Note_on_c, 0, 48, 0
1, 18719, Note_on_c, 0, 69, 0
1, 18720, Note_on_c, 0, 67, 69
1, 18720, Note_on_c, 1, 59, 69
1, 18720, Note_on_c, 0, 50, 70
1, 18765, Note_on_c, 0, 67, 0
1, 18765, Note_on_c, 1, 59, 0
1, 18768, Note_on_c, 0, 66, 66
1, 18768, Note_on_c, 1, 57, 66
1, 18775, Note_on_c, 0, 66, 0
1, 18775, Note_on_c, 0, 67, 66
1, 18782, Note_on_c, 0, 67, 0
1, 18782, Note_on_c, 0, 66, 66
1, 18789, Note_on_c, 0, 66, 0
1, 18789, Note_on_c, 0, 67, 66
1, 18796, Note_on_c, 0, 67, 0
1, 18796, Note_on_c, 0, 66, 66
1, 18803, Note_on_c, 0, 66, 0
1, 18803, Note_on_c, 0, 64, 66
1, 18809, Note_on_c, 0, 50, 0
1, 18810, Note_on_c, 0, 64, 0
1, 18810, Note_on_c, 0, 66, 66
1, 18813, Note_on_c, 1, 57, 0
1, 18816, Note_on_c, 0, 66, 0
1, 18816, Note_on_c, 0, 67, 66
1, 18816, Note_on_c, 1, 55, 66
1, 18839, Note_on_c, 0, 67, 0
1, 18840, Note_on_c, 0, 67, 67
1, 18863, Note_on_c, 0, 67, 0
1, 18864, Note_on_c, 0, 69, 68
1, 18887, Note_on_c, 0, 69, 0
1, 18888, Note_on_c, 0, 71, 69
1, 18905, Note_on_c, 1, 55, 0
1, 18911, Note_on_c, 0, 71, 0
1, 18912, Note_on_c, 0, 72, 70
1, 18935, Note_on_c, 0, 72, 0
1, 18936, Note_on_c, 0, 73, 71
1, 18959, Note_on_c, 0, 73, 0
1, 18960, Note_on_c, 0, 74, 72
1, 18983, Note_on_c, 0, 74, 0
1, 18984, Note_on_c, 0, 75, 73
1, 19007, Note_on_c, 0, 75, 0
1, 19008, Note_on_c, 0, 76, 75
1, 19032, Note_on_c, 0, 60, 75
1, 19044, Note_on_c, 0, 60, 0
1, 19044, Note_on_c, 0, 59, 75
1, 19056, Note_on_c, 0, 59, 0
1, 19056, Note_on_c, 0, 57, 75
1, 19079, Note_on_c, 0, 57, 0
1, 19080, Note_on_c, 0, 60, 75
1, 19103, Note_on_c, 0, 60, 0
1, 19104, Note_on_c, 0, 54, 75
1, 19127, Note_on_c, 0, 76, 0
1, 19128, Note_on_c, 0, 72, 75
1, 19140, Note_on_c, 0, 72, 0
1, 19140, Note_on_c, 0, 74, 75
1, 19152, Note_on_c, 0, 74, 0
1, 19152, Note_on_c, 0, 76, 75
1, 19152, Note_on_c, 1, 62, 66
1, 19193, Note_on_c, 0, 54, 0
1, 19197, Note_on_c, 0, 76, 0
1, 19200, Note_on_c, 0, 55, 66
1, 19224, Note_on_c, 0, 71, 75
1, 19236, Note_on_c, 0, 71, 0
1, 19236, Note_on_c, 0, 72, 75
1, 19245, Note_on_c, 1, 62, 0
1, 19248, Note_on_c, 0, 72, 0
1, 19248, Note_on_c, 0, 74, 75
1, 19248, Note_on_c, 1, 62, 66
1, 19271, Note_on_c, 0, 74, 0
1, 19272, Note_on_c, 0, 67, 75
1, 19289, Note_on_c, 0, 55, 0
1, 19295, Note_on_c, 0, 67, 0
1, 19296, Note_on_c, 0, 57, 66
1, 19320, Note_on_c, 0, 66, 76
1, 19332, Note_on_c, 0, 66, 0
1, 19332, Note_on_c, 0, 67, 76
1, 19337, Note_on_c, 1, 62, 0
1, 19344, Note_on_c, 0, 67, 0
1, 19344, Note_on_c, 0, 69, 77
1, 19344, Note_on_c, 1, 62, 66
1, 19367, Note_on_c, 0, 69, 0
1, 19368, Note_on_c, 0, 66, 77
1, 19385, Note_on_c, 0, 57, 0
1, 19391, Note_on_c, 0, 66, 0
1, 19392, Note_on_c, 0, 59, 66
1, 19416, Note_on_c, 0, 67, 78
1, 19428, Note_on_c, 0, 67, 0
1, 19428, Note_on_c, 0, 69, 78
1, 19437, Note_on_c, 1, 62, 0
1, 19440, Note_on_c, 0, 69, 0
1, 19440, Note_on_c, 0, 71, 78
1, 19440, Note_on_c, 1, 62, 66
1, 19463, Note_on_c, 0, 71, 0
1, 19464, Note_on_c, 0, 67, 79
1, 19481, Note_on_c, 0, 59, 0
1, 19487, Note_on_c, 0, 67, 0
1, 19488, Note_on_c, 0, 54, 66
1, 19512, Note_on_c, 0, 69, 79
1, 19524, Note_on_c, 0, 69, 0
1, 19524, Note_on_c, 0, 71, 80
1, 19529, Note_on_c, 1, 62, 0
1, 19536, Note_on_c, 0, 71, 0
1, 19536, Note_on_c, 0, 72, 80
1, 19536, Note_on_c, 1, 62, 66
1, 19559, Note_on_c, 0, 72, 0
1, 19560, Note_on_c, 0, 69, 80
1, 19577, Note_on_c, 0, 54, 0
1, 19583, Note_on_c, 0, 69, 0
1, 19584, Note_on_c, 0, 55, 66
1, 19608, Note_on_c, 0, 83, 81
1, 19620, Note_on_c, 0, 83, 0
1, 19620, Note_on_c, 0, 84, 81
1, 19629, Note_on_c, 1, 62, 0
1, 19632, Note_on_c, 0, 84, 0
1, 19632, Note_on_c, 0, 86, 81
1, 19644, Note_on_c, 0, 86, 0
1, 19644, Note_on_c, 0, 84, 81
1, 19656, Note_on_c, 0, 84, 0
1, 19656, Note_on_c, 0, 83, 81
1, 19668, Note_on_c, 0, 83, 0
1, 19668, Note_on_c, 0, 81, 81
1, 19673, Note_on_c, 0, 55, 0
1, 19680, Note_on_c, 0, 81, 0
1, 19680, Note_on_c, 0, 79, 81
1, 19692, Note_on_c, 0, 79, 0
1, 19692, Note_on_c, 0, 78, 81
1, 19704, Note_on_c, 0, 78, 0
1, 19704, Note_on_c, 0, 76, 81
1, 19716, Note_on_c, 0, 76, 0
1, 19716, Note_on_c, 0, 74, 81
1, 19728, Note_on_c, 0, 74, 0
1, 19728, Note_on_c, 0, 72, 81
1, 19728, Note_on_c, 1, 62, 75
1, 19728, Note_on_c, 1, 59, 75
1, 19740, Note_on_c, 0, 72, 0
1, 19740, Note_on_c, 0, 71, 81
1, 19752, Note_on_c, 0, 71, 0
1, 19752, Note_on_c, 0, 69, 81
1, 19764, Note_on_c, 0, 69, 0
1, 19764, Note_on_c, 0, 67, 81
1, 19773, Note_on_c, 1, 62, 0
1, 19773, Note_on_c, 1, 59, 0
1, 19776, Note_on_c, 0, 67, 0
1, 19776, Note_on_c, 0, 69, 81
1, 19776, Note_on_c, 1, 64, 75
1, 19776, Note_on_c, 1, 60, 75
1, 19799, Note_on_c, 0, 69, 0
1, 19800, Note_on_c, 0, 72, 81
1, 19812, Note_on_c, 0, 72, 0
1, 19812, Note_on_c, 0, 74, 81
1, 19824, Note_on_c, 0, 74, 0
1, 19824, Note_on_c, 0, 76, 81
1, 19836, Note_on_c, 0, 76, 0
1, 19836, Note_on_c, 0, 72, 81
1, 19848, Note_on_c, 0, 72, 0
1, 19848, Note_on_c, 0, 71, 81
1, 19860, Note_on_c, 0, 71, 0
1, 19860, Note_on_c, 0, 69, 81
1, 19865, Note_on_c, 1, 64, 0
1, 19865, Note_on_c, 1, 60, 0
1, 19872, Note_on_c, 0, 69, 0
1, 19872, Note_on_c, 0, 67, 81
1, 19872, Note_on_c, 1, 59, 75
1, 19872, Note_on_c, 0, 50, 66
1, 19917, Note_on_c, 0, 67, 0
1, 19917, Note_on_c, 1, 59, 0
1, 19920, Note_on_c, 0, 66, 81
1, 19920, Note_on_c, 1, 57, 75
1, 19927, Note_on_c, 0, 66, 0
1, 19927, Note_on_c, 0, 67, 81
1, 19934, Note_on_c, 0, 67, 0
1, 19934, Note_on_c, 0, 66, 81
1, 19941, Note_on_c, 0, 66, 0
1, 19941, Note_on_c, 0, 67, 81
1, 19948, Note_on_c, 0, 67, 0
1, 19948, Note_on_c, 0, 66, 81
1, 19955, Note_on_c, 0, 66, 0
1, 19955, Note_on_c, 0, 64, 81
1, 19961, Note_on_c, 0, 50, 0
1, 19962, Note_on_c, 0, 64, 0
1, 19962, Note_on_c, 0, 66, 81
1, 19965, Note_on_c, 1, 57, 0
1, 19968, Note_on_c, 0, 66, 0
1, 19968, Note_on_c, 0, 67, 81
1, 19968, Note_on_c, 1, 55, 75
1, 19991, Note_on_c, 0, 67, 0
1, 19992, Note_on_c, 0, 83, 81
1, 20004, Note_on_c, 0, 83, 0
1, 20004, Note_on_c, 0, 84, 81
1, 20016, Note_on_c, 0, 84, 0
1, 20016, Note_on_c, 0, 86, 81
1, 20028, Note_on_c, 0, 86, 0
1, 20028, Note_on_c, 0, 84, 81
1, 20040, Note_on_c, 0, 84, 0
1, 20040, Note_on_c, 0, 83, 81
1, 20052, Note_on_c, 0, 83, 0
1, 20052, Note_on_c, 0, 81, 81
1, 20057, Note_on_c, 1, 55, 0
1, 20064, Note_on_c, 0, 81, 0
1, 20064, Note_on_c, 0, 79, 81
1, 20076, Note_on_c, 0, 79, 0
1, 20076, Note_on_c, 0, 78, 81
1, 20088, Note_on_c, 0, 78, 0
1, 20088, Note_on_c, 0, 76, 81
1, 20100, Note_on_c, 0, 76, 0
1, 20100, Note_on_c, 0, 74, 81
1, 20112, Note_on_c, 0, 74, 0
1, 20112, Note_on_c, 0, 72, 81
1, 20112, Note_on_c, 1, 62, 75
1, 20112, Note_on_c, 1, 59, 75
1, 20124, Note_on_c, 0, 72, 0
1, 20124, Note_on_c, 0, 71, 81
1, 20136, Note_on_c, 0, 71, 0
1, 20136, Note_on_c, 0, 69, 81
1, 20148, Note_on_c, 0, 69, 0
1, 20148, Note_on_c, 0, 67, 81
1, 20157, Note_on_c, 1, 62, 0
1, 20157, Note_on_c, 1, 59, 0
1, 20160, Note_on_c, 0, 67, 0
1, 20160, Note_on_c, 0, 69, 81
1, 20160, Note_on_c, 1, 64, 75
1, 20160, Note_on_c, 1, 60, 75
1, 20183, Note_on_c, 0, 69, 0
1, 20184, Note_on_c, 0, 72, 81
1, 20196, Note_on_c, 0, 72, 0
1, 20196, Note_on_c, 0, 74, 81
1, 20208, Note_on_c, 0, 74, 0
1, 20208, Note_on_c, 0, 76, 81
1, 20220, Note_on_c, 0, 76, 0
1, 20220, Note_on_c, 0, 72, 81
1, 20232, Note_on_c, 0, 72, 0
1, 20232, Note_on_c, 0, 71, 81
1, 20244, Note_on_c, 0, 71, 0
1, 20244, Note_on_c, 0, 69, 81
1, 20249, Note_on_c, 1, 64, 0
1, 20249, Note_on_c, 1, 60, 0
1, 20256, Note_on_c, 0, 69, 0
1, 20256, Note_on_c, 0, 67, 81
1, 20256, Note_on_c, 1, 59, 75
1, 20256, Note_on_c, 0, 50, 66
1, 20301, Note_on_c, 0, 67, 0
1, 20301, Note_on_c, 1, 59, 0
1, 20304, Note_on_c, 0, 66, 81
1, 20304, Note_on_c, 1, 57, 75
1, 20311, Note_on_c, 0, 66, 0
1, 20311, Note_on_c, 0, 67, 81
1, 20318, Note_on_c, 0, 67, 0
1, 20318, Note_on_c, 0, 66, 81
1, 20325, Note_on_c, 0, 66, 0
1, 20325, Note_on_c, 0, 67, 81
1, 20332, Note_on_c, 0, 67, 0
1, 20332, Note_on_c, 0, 66, 81
1, 20339, Note_on_c, 0, 66, 0
1, 20339, Note_on_c, 0, 64, 81
1, 20345, Note_on_c, 0, 50, 0
1, 20346, Note_on_c, 0, 64, 0
1, 20346, Note_on_c, 0, 66, 81
1, 20349, Note_on_c, 1, 57, 0
1, 20352, Note_on_c, 0, 66, 0
1, 20352, Note_on_c, 0, 67, 81
1, 20352, Note_on_c, 1, 55, 75
1, 20397, Note_on_c, 1, 55, 0
1, 20400, Note_on_c, 1, 50, 75
1, 20441, Note_on_c, 0, 67, 0
1, 20445, Note_on_c, 1, 50, 0
1, 20448, Note_on_c, 1, 43, 75
1, 20493, Note_on_c, 1, 43, 0
1, 20496, Note_on_c, 0, 76, 66
1, 20508, Note_on_c, 0, 76, 0
1, 20508, Note_on_c, 0, 74, 66
1, 20520, Note_on_c, 0, 74, 0
1, 20520, Note_on_c, 0, 73, 66
1, 20532, Note_on_c, 0, 73, 0
1, 20532, Note_on_c, 0, 71, 66
1, 20544, Note_on_c, 0, 71, 0
1, 20544, Note_on_c, 0, 69, 66
1, 20589, Note_on_c, 0, 69, 0
1, 20592, Note_on_c, 0, 69, 66
1, 20592, Note_on_c, 1, 54, 66
1, 20637, Note_on_c, 0, 69, 0
1, 20637, Note_on_c, 1, 54, 0
1, 20640, Note_on_c, 0, 69, 66
1, 20640, Note_on_c, 1, 52, 66
1, 20685, Note_on_c, 0, 69, 0
1, 20685, Note_on_c, 1, 52, 0
1, 20688, Note_on_c, 0, 69, 66
1, 20688, Note_on_c, 1, 50, 66
1, 20733, Note_on_c, 0, 69, 0
1, 20733, Note_on_c, 1, 50, 0
1, 20736, Note_on_c, 0, 69, 66
1, 20736, Note_on_c, 1, 49, 66
1, 20770, Note_on_c, 0, 69, 0
1, 20772, Note_on_c, 0, 71, 66
1, 20781, Note_on_c, 1, 49, 0
1, 20784, Note_on_c, 0, 71, 0
1, 20784, Note_on_c, 0, 64, 66
1, 20784, Note_on_c, 1, 61, 66
1, 20818, Note_on_c, 0, 64, 0
1, 20820, Note_on_c, 0, 67, 66
1, 20829, Note_on_c, 1, 61, 0
1, 20832, Note_on_c, 0, 67, 0
1, 20832, Note_on_c, 0, 66, 66
1, 20832, Note_on_c, 1, 62, 66
1, 20877, Note_on_c, 0, 66, 0
1, 20877, Note_on_c, 1, 62, 0
1, 20880, Note_on_c, 0, 71, 66
1, 20880, Note_on_c, 1, 54, 66
1, 20892, Note_on_c, 0, 71, 0
1, 20892, Note_on_c, 0, 69, 66
1, 20904, Note_on_c, 0, 69, 0
1, 20904, Note_on_c, 0, 67, 66
1, 20916, Note_on_c, 0, 67, 0
1, 20916, Note_on_c, 0, 66, 66
1, 20925, Note_on_c, 1, 54, 0
1, 20928, Note_on_c, 0, 66, 0
1, 20928, Note_on_c, 0, 64, 66
1, 20928, Note_on_c, 1, 55, 66
1, 20973, Note_on_c, 0, 64, 0
1, 20973, Note_on_c, 1, 55, 0
1, 20976, Note_on_c, 0, 69, 66
1, 20976, Note_on_c, 1, 52, 66
1, 20988, Note_on_c, 0, 69, 0
1, 20988, Note_on_c, 0, 67, 66
1, 21000, Note_on_c, 0, 67, 0
1, 21000, Note_on_c, 0, 66, 66
1, 21012, Note_on_c, 0, 66, 0
1, 21012, Note_on_c, 0, 64, 66
1, 21021, Note_on_c, 1, 52, 0
1, 21024, Note_on_c, 0, 64, 0
1, 21024, Note_on_c, 0, 62, 66
1, 21024, Note_on_c, 1, 57, 66
1, 21069, Note_on_c, 0, 62, 0
1, 21069, Note_on_c, 1, 57, 0
1, 21072, Note_on_c, 0, 66, 66
1, 21072, Note_on_c, 1, 45, 66
1, 21084, Note_on_c, 0, 66, 0
1, 21084, Note_on_c, 0, 64, 66
1, 21096, Note_on_c, 0, 64, 0
1, 21096, Note_on_c, 0, 62, 66
1, 21108, Note_on_c, 0, 62, 0
1, 21108, Note_on_c, 0, 61, 66
1, 21117, Note_on_c, 1, 45, 0
1, 21120, Note_on_c, 0, 61, 0
1, 21120, Note_on_c, 0, 62, 66
1, 21156, Note_on_c, 1, 38, 66
1, 21165, Note_on_c, 0, 62, 0
1, 21168, Note_on_c, 0, 57, 66
1, 21168, Note_on_c, 1, 38, 0
1, 21168, Note_on_c, 1, 42, 66
1, 21202, Note_on_c, 1, 42, 0
1, 21204, Note_on_c, 1, 45, 66
1, 21213, Note_on_c, 0, 57, 0
1, 21216, Note_on_c, 1, 45, 0
1, 21216, Note_on_c, 1, 50, 66
1, 21261, Note_on_c, 1, 50, 0
1, 21264, Note_on_c, 0, 81, 66
1, 21276, Note_on_c, 0, 81, 0
1, 21276, Note_on_c, 0, 79, 66
1, 21288, Note_on_c, 0, 79, 0
1, 21288, Note_on_c, 0, 78, 66
1, 21300, Note_on_c, 0, 78, 0
1, 21300, Note_on_c, 0, 76, 66
1, 21312, Note_on_c, 0, 76, 0
1, 21312, Note_on_c, 0, 74, 66
1, 21357, Note_on_c, 0, 74, 0
1, 21360, Note_on_c, 0, 74, 66
1, 21360, Note_on_c, 1, 59, 66
1, 21405, Note_on_c, 0, 74, 0
1, 21405, Note_on_c, 1, 59, 0
1, 21408, Note_on_c, 0, 74, 66
1, 21408, Note_on_c, 1, 57, 66
1, 21453, Note_on_c, 0, 74, 0
1, 21453, Note_on_c, 1, 57, 0
1, 21456, Note_on_c, 0, 74, 66
1, 21456, Note_on_c, 1, 55, 66
1, 21501, Note_on_c, 0, 74, 0
1, 21501, Note_on_c, 1, 55, 0
1, 21504, Note_on_c, 0, 74, 66
1, 21504, Note_on_c, 1, 54, 66
1, 21538, Note_on_c, 0, 74, 0
1, 21540, Note_on_c, 0, 76, 66
1, 21549, Note_on_c, 1, 54, 0
1, 21552, Note_on_c, 0, 76, 0
1, 21552, Note_on_c, 0, 69, 66
1, 21552, Note_on_c, 1, 66, 66
1, 21586, Note_on_c, 0, 69, 0
1, 21588, Note_on_c, 0, 72, 66
1, 21597, Note_on_c, 1, 66, 0
1, 21600, Note_on_c, 0, 72, 0
1, 21600, Note_on_c, 0, 71, 66
1, 21600, Note_on_c, 1, 67, 66
1, 21620, Note_on_c, 0, 71, 0
1, 21645, Note_on_c, 1, 67, 0
1, 21648, Note_on_c, 0, 76, 66
1, 21648, Note_on_c, 1, 59, 66
1, 21660, Note_on_c, 0, 76, 0
1, 21660, Note_on_c, 0, 74, 66
1, 21672, Note_on_c, 0, 74, 0
1, 21672, Note_on_c, 0, 72, 66
1, 21684, Note_on_c, 0, 72, 0
1, 21684, Note_on_c, 0, 71, 66
1, 21693, Note_on_c, 1, 59, 0
1, 21696, Note_on_c, 0, 71, 0
1, 21696, Note_on_c, 0, 69, 66
1, 21696, Note_on_c, 1, 60, 66
1, 21716, Note_on_c, 0, 69, 0
1, 21741, Note_on_c, 1, 60, 0
1, 21744, Note_on_c, 0, 74, 66
1, 21744, Note_on_c, 1, 57, 66
1, 21756, Note_on_c, 0, 74, 0
1, 21756, Note_on_c, 0, 72, 66
1, 21768, Note_on_c, 0, 72, 0
1, 21768, Note_on_c, 0, 71, 66
1, 21780, Note_on_c, 0, 71, 0
1, 21780, Note_on_c, 0, 69, 66
1, 21789, Note_on_c, 1, 57, 0
1, 21792, Note_on_c, 0, 69, 0
1, 21792, Note_on_c, 0, 67, 66
1, 21792, Note_on_c, 1, 62, 66
1, 21812, Note_on_c, 0, 67, 0
1, 21837, Note_on_c, 1, 62, 0
1, 21840, Note_on_c, 0, 71, 66
1, 21840, Note_on_c, 1, 50, 66
1, 21852, Note_on_c, 0, 71, 0
1, 21852, Note_on_c, 0, 69, 66
1, 21864, Note_on_c, 0, 69, 0
1, 21864, Note_on_c, 0, 67, 66
1, 21876, Note_on_c, 0, 67, 0
1, 21876, Note_on_c, 0, 66, 66
1, 21885, Note_on_c, 1, 50, 0
1, 21888, Note_on_c, 0, 66, 0
1, 21888, Note_on_c, 0, 67, 66
1, 21912, Note_on_c, 1, 55, 66
1, 21924, Note_on_c, 1, 55, 0
1, 21924, Note_on_c, 1, 57, 66
1, 21936, Note_on_c, 1, 57, 0
1, 21936, Note_on_c, 1, 59, 66
1, 21959, Note_on_c, 1, 59, 0
1, 21960, Note_on_c, 1, 55, 66
1, 21977, Note_on_c, 0, 67, 0
1, 21983, Note_on_c, 1, 55, 0
1, 21984, Note_on_c, 1, 65, 66
1, 22008, Note_on_c, 0, 67, 66
1, 22020, Note_on_c, 0, 67, 0
1, 22020, Note_on_c, 0, 69, 66
1, 22032, Note_on_c, 0, 69, 0
1, 22032, Note_on_c, 0, 71, 66
1, 22055, Note_on_c, 0, 71, 0
1, 22056, Note_on_c, 0, 67, 66
1, 22073, Note_on_c, 1, 65, 0
1, 22079, Note_on_c, 0, 67, 0
1, 22080, Note_on_c, 1, 64, 66
1, 22104, Note_on_c, 0, 72, 66
1, 22116, Note_on_c, 0, 72, 0
1, 22116, Note_on_c, 0, 74, 66
1, 22125, Note_on_c, 1, 64, 0
1, 22128, Note_on_c, 0, 74, 0
1, 22128, Note_on_c, 0, 76, 67
1, 22128, Note_on_c, 1, 60, 66
1, 22151, Note_on_c, 0, 76, 0
1, 22152, Note_on_c, 0, 72, 67
1, 22173, Note_on_c, 1, 60, 0
1, 22175, Note_on_c, 0, 72, 0
1, 22176, Note_on_c, 1, 59, 67
1, 22200, Note_on_c, 0, 74, 68
1, 22212, Note_on_c, 0, 74, 0
1, 22212, Note_on_c, 0, 76, 68
1, 22221, Note_on_c, 1, 59, 0
1, 22224, Note_on_c, 0, 76, 0
1, 22224, Note_on_c, 0, 77, 69
1, 22224, Note_on_c, 1, 55, 68
1, 22247, Note_on_c, 0, 77, 0
1, 22248, Note_on_c, 0, 74, 69
1, 22269, Note_on_c, 1, 55, 0
1, 22271, Note_on_c, 0, 74, 0
1, 22272, Note_on_c, 0, 76, 70
1, 22296, Note_on_c, 1, 60, 70
1, 22308, Note_on_c, 1, 60, 0
1, 22308, Note_on_c, 1, 62, 70
1, 22320, Note_on_c, 1, 62, 0
1, 22320, Note_on_c, 1, 64, 70
1, 22343, Note_on_c, 1, 64, 0
1, 22344, Note_on_c, 1, 60, 71
1, 22361, Note_on_c, 0, 76, 0
1, 22367, Note_on_c, 1, 60, 0
1, 22368, Note_on_c, 1, 67, 71
1, 22392, Note_on_c, 0, 69, 72
1, 22404, Note_on_c, 0, 69, 0
1, 22404, Note_on_c, 0, 71, 73
1, 22416, Note_on_c, 0, 71, 0
1, 22416, Note_on_c, 0, 73, 73
1, 22439, Note_on_c, 0, 73, 0
1, 22440, Note_on_c, 0, 69, 74
1, 22457, Note_on_c, 1, 67, 0
1, 22463, Note_on_c, 0, 69, 0
1, 22464, Note_on_c, 1, 66, 73
1, 22488, Note_on_c, 0, 74, 75
1, 22500, Note_on_c, 0, 74, 0
1, 22500, Note_on_c, 0, 76, 75
1, 22509, Note_on_c, 1, 66, 0
1, 22512, Note_on_c, 0, 76, 0
1, 22512, Note_on_c, 0, 78, 75
1, 22512, Note_on_c, 1, 62, 74
1, 22535, Note_on_c, 0, 78, 0
1, 22536, Note_on_c, 0, 74, 76
1, 22557, Note_on_c, 1, 62, 0
1, 22559, Note_on_c, 0, 74, 0
1, 22560, Note_on_c, 1, 61, 75
1, 22584, Note_on_c, 0, 76, 77
1, 22596, Note_on_c, 0, 76, 0
1, 22596, Note_on_c, 0, 78, 77
1, 22605, Note_on_c, 1, 61, 0
1, 22608, Note_on_c, 0, 78, 0
1, 22608, Note_on_c, 0, 79, 77
1, 22608, Note_on_c, 1, 57, 76
1, 22631, Note_on_c, 0, 79, 0
1, 22632, Note_on_c, 0, 76, 78
1, 22653, Note_on_c, 1, 57, 0
1, 22655, Note_on_c, 0, 76, 0
1, 22656, Note_on_c, 0, 78, 78
1, 22680, Note_on_c, 1, 62, 77
1, 22692, Note_on_c, 1, 62, 0
1, 22692, Note_on_c, 1, 64, 77
1, 22704, Note_on_c, 1, 64, 0
1, 22704, Note_on_c, 1, 66, 78
1, 22727, Note_on_c, 1, 66, 0
1, 22728, Note_on_c, 1, 62, 78
1, 22745, Note_on_c, 0, 78, 0
1, 22751, Note_on_c, 1, 62, 0
1, 22752, Note_on_c, 1, 69, 79
1, 22776, Note_on_c, 0, 71, 81
1, 22788, Note_on_c, 0, 71, 0
1, 22788, Note_on_c, 0, 73, 81
1, 22800, Note_on_c, 0, 73, 0
1, 22800, Note_on_c, 0, 75, 81
1, 22823, Note_on_c, 0, 75, 0
1, 22824, Note_on_c, 0, 71, 81
1, 22841, Note_on_c, 1, 69, 0
1, 22847, Note_on_c, 0, 71, 0
1, 22848, Note_on_c, 1, 67, 81
1, 22872, Note_on_c, 0, 76, 81
1, 22884, Note_on_c, 0, 76, 0
1, 22884, Note_on_c, 0, 78, 81
1, 22893, Note_on_c, 1, 67, 0
1, 22896, Note_on_c, 0, 78, 0
1, 22896, Note_on_c, 0, 79, 81
1, 22896, Note_on_c, 1, 64, 81
1, 22919, Note_on_c, 0, 79, 0
1, 22920, Note_on_c, 0, 76, 81
1, 22941, Note_on_c, 1, 64, 0
1, 22943, Note_on_c, 0, 76, 0
1, 22944, Note_on_c, 1, 63, 81
1, 22968, Note_on_c, 0, 78, 81
1, 22980, Note_on_c, 0, 78, 0
1, 22980, Note_on_c, 0, 79, 81
1, 22989, Note_on_c, 1, 63, 0
1, 22992, Note_on_c, 0, 79, 0
1, 22992, Note_on_c, 0, 81, 81
1, 22992, Note_on_c, 1, 59, 81
1, 23015, Note_on_c, 0, 81, 0
1, 23016, Note_on_c, 0, 78, 81
1, 23037, Note_on_c, 1, 59, 0
1, 23039, Note_on_c, 0, 78, 0
1, 23040, Note_on_c, 0, 79, 81
1, 23040, Note_on_c, 1, 64, 81
1, 23085, Note_on_c, 0, 79, 0
1, 23085, Note_on_c, 1, 64, 0
1, 23088, Note_on_c, 1, 67, 81
1, 23112, Note_on_c, 0, 83, 66
1, 23122, Note_on_c, 0, 83, 0
1, 23133, Note_on_c, 1, 67, 0
1, 23136, Note_on_c, 0, 83, 66
1, 23136, Note_on_c, 1, 66, 66
1, 23160, Note_on_c, 0, 83, 0
1, 23160, Note_on_c, 0, 81, 67
1, 23181, Note_on_c, 1, 66, 0
1, 23183, Note_on_c, 0, 81, 0
1, 23184, Note_on_c, 0, 81, 67
1, 23184, Note_on_c, 1, 64, 67
1, 23208, Note_on_c, 0, 81, 0
1, 23208, Note_on_c, 0, 79, 68
1, 23229, Note_on_c, 1, 64, 0
1, 23231, Note_on_c, 0, 79, 0
1, 23232, Note_on_c, 0, 79, 69
1, 23232, Note_on_c, 1, 63, 68
1, 23256, Note_on_c, 0, 79, 0
1, 23256, Note_on_c, 0, 78, 69
1, 23277, Note_on_c, 1, 63, 0
1, 23279, Note_on_c, 0, 78, 0
1, 23280, Note_on_c, 0, 78, 70
1, 23280, Note_on_c, 1, 61, 69
1, 23304, Note_on_c, 0, 78, 0
1, 23304, Note_on_c, 0, 76, 71
1, 23325, Note_on_c, 1, 61, 0
1, 23327, Note_on_c, 0, 76, 0
1, 23328, Note_on_c, 0, 76, 71
1, 23328, Note_on_c, 1, 59, 71
1, 23352, Note_on_c, 0, 76, 0
1, 23352, Note_on_c, 0, 75, 72
1, 23373, Note_on_c, 1, 59, 0
1, 23375, Note_on_c, 0, 75, 0
1, 23376, Note_on_c, 0, 78, 73
1, 23376, Note_on_c, 1, 63, 72
1, 23400, Note_on_c, 0, 78, 0
1, 23400, Note_on_c, 0, 81, 73
1, 23421, Note_on_c, 1, 63, 0
1, 23423, Note_on_c, 0, 81, 0
1, 23424, Note_on_c, 0, 81, 74
1, 23424, Note_on_c, 1, 64, 73
1, 23448, Note_on_c, 0, 81, 0
1, 23448, Note_on_c, 0, 79, 75
1, 23469, Note_on_c, 1, 64, 0
1, 23471, Note_on_c, 0, 79, 0
1, 23472, Note_on_c, 1, 67, 75
1, 23496, Note_on_c, 0, 83, 66
1, 23506, Note_on_c, 0, 83, 0
1, 23517, Note_on_c, 1, 67, 0
1, 23520, Note_on_c, 0, 83, 67
1, 23520, Note_on_c, 1, 66, 66
1, 23526, Note_on_c, 0, 83, 0
1, 23526, Note_on_c, 0, 84, 67
1, 23532, Note_on_c, 0, 84, 0
1, 23532, Note_on_c, 0, 83, 67
1, 23543, Note_on_c, 0, 83, 0
1, 23544, Note_on_c, 0, 81, 68
1, 23565, Note_on_c, 1, 66, 0
1, 23567, Note_on_c, 0, 81, 0
1, 23568, Note_on_c, 0, 81, 69
1, 23568, Note_on_c, 1, 64, 67
1, 23574, Note_on_c, 0, 81, 0
1, 23574, Note_on_c, 0, 83, 69
1, 23580, Note_on_c, 0, 83, 0
1, 23580, Note_on_c, 0, 81, 69
1, 23591, Note_on_c, 0, 81, 0
1, 23592, Note_on_c, 0, 79, 70
1, 23613, Note_on_c, 1, 64, 0
1, 23615, Note_on_c, 0, 79, 0
1, 23616, Note_on_c, 0, 79, 71
1, 23616, Note_on_c, 1, 63, 69
1, 23622, Note_on_c, 0, 79, 0
1, 23622, Note_on_c, 0, 81, 71
1, 23628, Note_on_c, 0, 81, 0
1, 23628, Note_on_c, 0, 79, 71
1, 23639, Note_on_c, 0, 79, 0
1, 23640, Note_on_c, 0, 78, 72
1, 23661, Note_on_c, 1, 63, 0
1, 23663, Note_on_c, 0, 78, 0
1, 23664, Note_on_c, 0, 78, 73
1, 23664, Note_on_c, 1, 61, 71
1, 23670, Note_on_c, 0, 78, 0
1, 23670, Note_on_c, 0, 79, 73
1, 23676, Note_on_c, 0, 79, 0
1, 23676, Note_on_c, 0, 78, 73
1, 23687, Note_on_c, 0, 78, 0
1, 23688, Note_on_c, 0, 76, 74
1, 23709, Note_on_c, 1, 61, 0
1, 23711, Note_on_c, 0, 76, 0
1, 23712, Note_on_c, 0, 76, 75
1, 23712, Note_on_c, 1, 59, 73
1, 23718, Note_on_c, 0, 76, 0
1, 23718, Note_on_c, 0, 78, 75
1, 23724, Note_on_c, 0, 78, 0
1, 23724, Note_on_c, 0, 76, 75
1, 23735, Note_on_c, 0, 76, 0
1, 23736, Note_on_c, 0, 75, 76
1, 23757, Note_on_c, 1, 59, 0
1, 23759, Note_on_c, 0, 75, 0
1, 23760, Note_on_c, 0, 78, 77
1, 23760, Note_on_c, 1, 63, 75
1, 23783, Note_on_c, 0, 78, 0
1, 23784, Note_on_c, 0, 81, 78
1, 23805, Note_on_c, 1, 63, 0
1, 23807, Note_on_c, 0, 81, 0
1, 23808, Note_on_c, 0, 79, 79
1, 23808, Note_on_c, 1, 64, 77
1, 23831, Note_on_c, 0, 79, 0
1, 23832, Note_on_c, 0, 76, 81
1, 23844, Note_on_c, 0, 76, 0
1, 23844, Note_on_c, 0, 78, 81
1, 23856, Note_on_c, 0, 78, 0
1, 23856, Note_on_c, 0, 79, 81
1, 23868, Note_on_c, 0, 79, 0
1, 23868, Note_on_c, 0, 78, 81
1, 23880, Note_on_c, 0, 78, 0
1, 23880, Note_on_c, 0, 79, 81
1, 23892, Note_on_c, 0, 79, 0
1, 23892, Note_on_c, 0, 81, 81
1, 23897, Note_on_c, 1, 64, 0
1, 23904, Note_on_c, 0, 81, 0
1, 23904, Note_on_c, 0, 83, 81
1, 23914, Note_on_c, 0, 83, 0
1, 23928, Note_on_c, 0, 79, 81
1, 23938, Note_on_c, 0, 79, 0
1, 23952, Note_on_c, 0, 76, 81
1, 23952, Note_on_c, 1, 55, 81
1, 23962, Note_on_c, 0, 76, 0
1, 23976, Note_on_c, 0, 71, 81
1, 23986, Note_on_c, 0, 71, 0
1, 23997, Note_on_c, 1, 55, 0
1, 24000, Note_on_c, 0, 74, 81
1, 24000, Note_on_c, 1, 57, 81
1, 24012, Note_on_c, 0, 74, 0
1, 24012, Note_on_c, 0, 72, 81
1, 24024, Note_on_c, 0, 72, 0
1, 24024, Note_on_c, 0, 71, 81
1, 24036, Note_on_c, 0, 71, 0
1, 24036, Note_on_c, 0, 69, 81
1, 24045, Note_on_c, 1, 57, 0
1, 24048, Note_on_c, 0, 69, 0
1, 24048, Note_on_c, 0, 69, 81
1, 24048, Note_on_c, 1, 60, 81
1, 24060, Note_on_c, 0, 69, 0
1, 24060, Note_on_c, 0, 67, 81
1, 24072, Note_on_c, 0, 67, 0
1, 24072, Note_on_c, 0, 66, 81
1, 24084, Note_on_c, 0, 66, 0
1, 24084, Note_on_c, 0, 64, 81
1, 24093, Note_on_c, 1, 60, 0
1, 24096, Note_on_c, 0, 64, 0
1, 24096, Note_on_c, 0, 66, 81
1, 24096, Note_on_c, 1, 59, 81
1, 24104, Note_on_c, 0, 66, 0
1, 24104, Note_on_c, 0, 67, 81
1, 24112, Note_on_c, 0, 67, 0
1, 24112, Note_on_c, 0, 66, 81
1, 24120, Note_on_c, 0, 66, 0
1, 24120, Note_on_c, 0, 67, 81
1, 24128, Note_on_c, 0, 67, 0
1, 24128, Note_on_c, 0, 66, 81
1, 24136, Note_on_c, 0, 66, 0
1, 24136, Note_on_c, 0, 67, 81
1, 24141, Note_on_c, 1, 59, 0
1, 24143, Note_on_c, 0, 67, 0
1, 24143, Note_on_c, 0, 66, 81
1, 24144, Note_on_c, 1, 47, 81
1, 24150, Note_on_c, 0, 66, 0
1, 24150, Note_on_c, 0, 67, 81
1, 24157, Note_on_c, 0, 67, 0
1, 24157, Note_on_c, 0, 66, 81
1, 24164, Note_on_c, 0, 66, 0
1, 24164, Note_on_c, 0, 64, 81
1, 24178, Note_on_c, 0, 64, 0
1, 24178, Note_on_c, 0, 66, 81
1, 24189, Note_on_c, 1, 47, 0
1, 24192, Note_on_c, 0, 66, 0
1, 24192, Note_on_c, 0, 64, 81
1, 24192, Note_on_c, 1, 52, 81
1, 24237, Note_on_c, 0, 64, 0
1, 24237, Note_on_c, 1, 52, 0
1, 24240, Note_on_c, 1, 47, 81
1, 24285, Note_on_c, 1, 47, 0
1, 24288, Note_on_c, 1, 40, 81
1, 24333, Note_on_c, 1, 40, 0
1, 24336, Note_on_c, 0, 81, 66
1, 24348, Note_on_c, 0, 81, 0
1, 24348, Note_on_c, 0, 79, 66
1, 24360, Note_on_c, 0, 79, 0
1, 24360, Note_on_c, 0, 77, 66
1, 24372, Note_on_c, 0, 77, 0
1, 24372, Note_on_c, 0, 76, 66
1, 24384, Note_on_c, 0, 76, 0
1, 24384, Note_on_c, 0, 74, 66
1, 24432, Note_on_c, 0, 74, 0
1, 24432, Note_on_c, 0, 72, 66
1, 24432, Note_on_c, 1, 67, 66
1, 24432, Note_on_c, 1, 64, 66
1, 24477, Note_on_c, 0, 72, 0
1, 24479, Note_on_c, 1, 67, 0
1, 24479, Note_on_c, 1, 64, 0
1, 24480, Note_on_c, 1, 67, 66
1, 24480, Note_on_c, 1, 64, 66
1, 24496, Note_on_c, 0, 72, 66
1, 24511, Note_on_c, 0, 72, 0
1, 24512, Note_on_c, 0, 74, 66
1, 24527, Note_on_c, 0, 74, 0
1, 24527, Note_on_c, 1, 67, 0
1, 24527, Note_on_c, 1, 64, 0
1, 24528, Note_on_c, 0, 76, 66
1, 24543, Note_on_c, 0, 76, 0
1, 24544, Note_on_c, 0, 74, 66
1, 24559, Note_on_c, 0, 74, 0
1, 24560, Note_on_c, 0, 72, 66
1, 24575, Note_on_c, 0, 72, 0
1, 24576, Note_on_c, 0, 72, 66
1, 24624, Note_on_c, 0, 72, 0
1, 24624, Note_on_c, 0, 71, 66
1, 24624, Note_on_c, 1, 66, 66
1, 24624, Note_on_c, 1, 62, 66
1, 24669, Note_on_c, 0, 71, 0
1, 24671, Note_on_c, 1, 66, 0
1, 24671, Note_on_c, 1, 62, 0
1, 24672, Note_on_c, 1, 66, 66
1, 24672, Note_on_c, 1, 62, 66
1, 24688, Note_on_c, 0, 71, 66
1, 24703, Note_on_c, 0, 71, 0
1, 24704, Note_on_c, 0, 72, 66
1, 24719, Note_on_c, 0, 72, 0
1, 24719, Note_on_c, 1, 66, 0
1, 24719, Note_on_c, 1, 62, 0
1, 24720, Note_on_c, 0, 74, 66
1, 24735, Note_on_c, 0, 74, 0
1, 24736, Note_on_c, 0, 72, 66
1, 24751, Note_on_c, 0, 72, 0
1, 24752, Note_on_c, 0, 71, 66
1, 24767, Note_on_c, 0, 71, 0
1, 24768, Note_on_c, 1, 64, 66
1, 24768, Note_on_c, 1, 60, 66
1, 24784, Note_on_c, 0, 69, 66
1, 24799, Note_on_c, 0, 69, 0
1, 24800, Note_on_c, 0, 71, 66
1, 24813, Note_on_c, 1, 64, 0
1, 24813, Note_on_c, 1, 60, 0
1, 24815, Note_on_c, 0, 71, 0
1, 24816, Note_on_c, 0, 72, 66
1, 24831, Note_on_c, 0, 72, 0
1, 24832, Note_on_c, 0, 71, 67
1, 24847, Note_on_c, 0, 71, 0
1, 24848, Note_on_c, 0, 69, 67
1, 24863, Note_on_c, 0, 69, 0
1, 24864, Note_on_c, 1, 62, 67
1, 24864, Note_on_c, 1, 59, 67
1, 24880, Note_on_c, 0, 67, 68
1, 24895, Note_on_c, 0, 67, 0
1, 24896, Note_on_c, 0, 69, 68
1, 24909, Note_on_c, 1, 62, 0
1, 24909, Note_on_c, 1, 59, 0
1, 24911, Note_on_c, 0, 69, 0
1, 24912, Note_on_c, 0, 71, 68
1, 24927, Note_on_c, 0, 71, 0
1, 24928, Note_on_c, 0, 69, 69
1, 24943, Note_on_c, 0, 69, 0
1, 24944, Note_on_c, 0, 67, 69
1, 24959, Note_on_c, 0, 67, 0
1, 24960, Note_on_c, 0, 67, 69
1, 24983, Note_on_c, 0, 67, 0
1, 24984, Note_on_c, 0, 66, 70
1, 25007, Note_on_c, 0, 66, 0
1, 25008, Note_on_c, 0, 72, 71
1, 25008, Note_on_c, 0, 69, 71
1, 25008, Note_on_c, 1, 54, 73
1, 25053, Note_on_c, 1, 54, 0
1, 25056, Note_on_c, 1, 54, 75
1, 25097, Note_on_c, 0, 72, 0
1, 25097, Note_on_c, 0, 69, 0
1, 25101, Note_on_c, 1, 54, 0
1, 25104, Note_on_c, 0, 71, 75
1, 25104, Note_on_c, 0, 67, 75
1, 25104, Note_on_c, 1, 55, 75
1, 25149, Note_on_c, 0, 71, 0
1, 25149, Note_on_c, 0, 67, 0
1, 25149, Note_on_c, 1, 55, 0
1, 25152, Note_on_c, 0, 72, 73
1, 25152, Note_on_c, 0, 67, 75
1, 25152, Note_on_c, 1, 50, 73
1, 25158, Note_on_c, 0, 72, 0
1, 25158, Note_on_c, 0, 71, 73
1, 25164, Note_on_c, 0, 71, 0
1, 25164, Note_on_c, 0, 69, 73
1, 25170, Note_on_c, 0, 69, 0
1, 25170, Note_on_c, 0, 71, 73
1, 25197, Note_on_c, 0, 71, 0
1, 25197, Note_on_c, 0, 67, 0
1, 25197, Note_on_c, 1, 50, 0
1, 25200, Note_on_c, 0, 69, 71
1, 25200, Note_on_c, 0, 66, 72
1, 25200, Note_on_c, 1, 62, 71
1, 25245, Note_on_c, 0, 69, 0
1, 25245, Note_on_c, 0, 66, 0
1, 25245, Note_on_c, 1, 62, 0
1, 25296, Note_on_c, 0, 81, 66
1, 25308, Note_on_c, 0, 81, 0
1, 25308, Note_on_c, 0, 79, 66
1, 25320, Note_on_c, 0, 79, 0
1, 25320, Note_on_c, 0, 78, 66
1, 25332, Note_on_c, 0, 78, 0
1, 25332, Note_on_c, 0, 76, 66
1, 25344, Note_on_c, 0, 76, 0
1, 25344, Note_on_c, 0, 74, 66
1, 25389, Note_on_c, 0, 74, 0
1, 25392, Note_on_c, 0, 74, 66
1, 25392, Note_on_c, 1, 59, 66
1, 25437, Note_on_c, 0, 74, 0
1, 25437, Note_on_c, 1, 59, 0
1, 25440, Note_on_c, 0, 74, 66
1, 25440, Note_on_c, 1, 57, 66
1, 25485, Note_on_c, 0, 74, 0
1, 25485, Note_on_c, 1, 57, 0
1, 25488, Note_on_c, 0, 74, 66
1, 25488, Note_on_c, 1, 55, 66
1, 25533, Note_on_c, 0, 74, 0
1, 25533, Note_on_c, 1, 55, 0
1, 25536, Note_on_c, 0, 74, 66
1, 25536, Note_on_c, 1, 54, 66
1, 25570, Note_on_c, 0, 74, 0
1, 25572, Note_on_c, 0, 76, 66
1, 25581, Note_on_c, 1, 54, 0
1, 25584, Note_on_c, 0, 76, 0
1, 25584, Note_on_c, 0, 69, 66
1, 25584, Note_on_c, 1, 66, 66
1, 25618, Note_on_c, 0, 69, 0
1, 25620, Note_on_c, 0, 72, 66
1, 25629, Note_on_c, 1, 66, 0
1, 25632, Note_on_c, 0, 72, 0
1, 25632, Note_on_c, 0, 71, 66
1, 25632, Note_on_c, 1, 67, 66
1, 25652, Note_on_c, 0, 71, 0
1, 25677, Note_on_c, 1, 67, 0
1, 25680, Note_on_c, 0, 76, 66
1, 25680, Note_on_c, 1, 59, 66
1, 25692, Note_on_c, 0, 76, 0
1, 25692, Note_on_c, 0, 74, 66
1, 25704, Note_on_c, 0, 74, 0
1, 25704, Note_on_c, 0, 72, 66
1, 25716, Note_on_c, 0, 72, 0
1, 25716, Note_on_c, 0, 71, 66
1, 25725, Note_on_c, 1, 59, 0
1, 25728, Note_on_c, 0, 71, 0
1, 25728, Note_on_c, 0, 69, 66
1, 25728, Note_on_c, 1, 60, 66
1, 25748, Note_on_c, 0, 69, 0
1, 25773, Note_on_c, 1, 60, 0
1, 25776, Note_on_c, 0, 74, 66
1, 25776, Note_on_c, 1, 57, 66
1, 25788, Note_on_c, 0, 74, 0
1, 25788, Note_on_c, 0, 72, 66
1, 25800, Note_on_c, 0, 72, 0
1, 25800, Note_on_c, 0, 71, 66
1, 25812, Note_on_c, 0, 71, 0
1, 25812, Note_on_c, 0, 69, 66
1, 25821, Note_on_c, 1, 57, 0
1, 25824, Note_on_c, 0, 69, 0
1, 25824, Note_on_c, 0, 67, 66
1, 25824, Note_on_c, 1, 62, 66
1, 25844, Note_on_c, 0, 67, 0
1, 25869, Note_on_c, 1, 62, 0
1, 25872, Note_on_c, 0, 71, 66
1, 25872, Note_on_c, 1, 50, 66
1, 25884, Note_on_c, 0, 71, 0
1, 25884, Note_on_c, 0, 69, 66
1, 25896, Note_on_c, 0, 69, 0
1, 25896, Note_on_c, 0, 67, 66
1, 25908, Note_on_c, 0, 67, 0
1, 25908, Note_on_c, 0, 66, 66
1, 25917, Note_on_c, 1, 50, 0
1, 25920, Note_on_c, 0, 66, 0
1, 25920, Note_on_c, 0, 67, 66
1, 25956, Note_on_c, 1, 43, 66
1, 25965, Note_on_c, 0, 67, 0
1, 25968, Note_on_c, 0, 62, 66
1, 25968, Note_on_c, 1, 43, 0
1, 25968, Note_on_c, 1, 47, 66
1, 26002, Note_on_c, 1, 47, 0
1, 26004, Note_on_c, 1, 50, 66
1, 26013, Note_on_c, 0, 62, 0
1, 26016, Note_on_c, 1, 50, 0
1, 26016, Note_on_c, 1, 55, 66
1, 26061, Note_on_c, 1, 55, 0
1, 26064, Note_on_c, 0, 81, 66
1, 26076, Note_on_c, 0, 81, 0
1, 26076, Note_on_c, 0, 79, 66
1, 26088, Note_on_c, 0, 79, 0
1, 26088, Note_on_c, 0, 78, 66
1, 26100, Note_on_c, 0, 78, 0
1, 26100, Note_on_c, 0, 76, 66
1, 26112, Note_on_c, 0, 76, 0
1, 26112, Note_on_c, 0, 74, 66
1, 26135, Note_on_c, 0, 74, 0
1, 26136, Note_on_c, 0, 74, 66
1, 26160, Note_on_c, 1, 59, 66
1, 26181, Note_on_c, 0, 74, 0
1, 26184, Note_on_c, 0, 74, 66
1, 26205, Note_on_c, 1, 59, 0
1, 26208, Note_on_c, 1, 57, 66
1, 26229, Note_on_c, 0, 74, 0
1, 26232, Note_on_c, 0, 74, 66
1, 26253, Note_on_c, 1, 57, 0
1, 26256, Note_on_c, 1, 55, 66
1, 26277, Note_on_c, 0, 74, 0
1, 26280, Note_on_c, 0, 74, 66
1, 26301, Note_on_c, 1, 55, 0
1, 26304, Note_on_c, 1, 54, 66
1, 26327, Note_on_c, 0, 74, 0
1, 26328, Note_on_c, 0, 76, 66
1, 26349, Note_on_c, 1, 54, 0
1, 26351, Note_on_c, 0, 76, 0
1, 26352, Note_on_c, 0, 72, 66
1, 26352, Note_on_c, 1, 66, 66
1, 26375, Note_on_c, 0, 72, 0
1, 26376, Note_on_c, 0, 69, 66
1, 26397, Note_on_c, 1, 66, 0
1, 26399, Note_on_c, 0, 69, 0
1, 26400, Note_on_c, 0, 71, 66
1, 26400, Note_on_c, 1, 67, 66
1, 26420, Note_on_c, 0, 71, 0
1, 26445, Note_on_c, 1, 67, 0
1, 26448, Note_on_c, 0, 76, 66
1, 26448, Note_on_c, 1, 59, 66
1, 26460, Note_on_c, 0, 76, 0
1, 26460, Note_on_c, 0, 74, 66
1, 26472, Note_on_c, 0, 74, 0
1, 26472, Note_on_c, 0, 72, 66
1, 26484, Note_on_c, 0, 72, 0
1, 26484, Note_on_c, 0, 71, 66
1, 26493, Note_on_c, 1, 59, 0
1, 26496, Note_on_c, 0, 71, 0
1, 26496, Note_on_c, 0, 69, 66
1, 26496, Note_on_c, 1, 60, 66
1, 26516, Note_on_c, 0, 69, 0
1, 26544, Note_on_c, 0, 74, 66
1, 26556, Note_on_c, 0, 74, 0
1, 26556, Note_on_c, 0, 72, 66
1, 26568, Note_on_c, 0, 72, 0
1, 26568, Note_on_c, 0, 71, 66
1, 26580, Note_on_c, 0, 71, 0
1, 26580, Note_on_c, 0, 69, 66
1, 26585, Note_on_c, 1, 60, 0
1, 26592, Note_on_c, 0, 69, 0
1, 26592, Note_on_c, 0, 76, 66
1, 26612, Note_on_c, 0, 76, 0
1, 26640, Note_on_c, 0, 74, 66
1, 26640, Note_on_c, 1, 57, 66
1, 26652, Note_on_c, 0, 74, 0
1, 26652, Note_on_c, 0, 72, 66
1, 26664, Note_on_c, 0, 72, 0
1, 26664, Note_on_c, 0, 71, 66
1, 26676, Note_on_c, 0, 71, 0
1, 26676, Note_on_c, 0, 69, 66
1, 26685, Note_on_c, 1, 57, 0
1, 26688, Note_on_c, 0, 69, 0
1, 26688, Note_on_c, 0, 67, 66
1, 26688, Note_on_c, 1, 62, 66
1, 26733, Note_on_c, 1, 62, 0
1, 26736, Note_on_c, 1, 57, 66
1, 26781, Note_on_c, 1, 57, 0
1, 26784, Note_on_c, 0, 67, 0
1, 26784, Note_on_c, 0, 66, 66
1, 26784, Note_on_c, 1, 50, 66
1, 26804, Note_on_c, 0, 66, 0
1, 26829, Note_on_c, 1, 50, 0
1, 26832, Note_on_c, 0, 76, 66
1, 26844, Note_on_c, 0, 76, 0
1, 26844, Note_on_c, 0, 74, 66
1, 26856, Note_on_c, 0, 74, 0
1, 26856, Note_on_c, 0, 72, 66
1, 26868, Note_on_c, 0, 72, 0
1, 26868, Note_on_c, 0, 71, 66
1, 26880, Note_on_c, 0, 71, 0
1, 26880, Note_on_c, 0, 69, 66
1, 26928, Note_on_c, 0, 69, 0
1, 26928, Note_on_c, 0, 67, 66
1, 26928, Note_on_c, 1, 50, 66
1, 26928, Note_on_c, 1, 47, 66
1, 26948, Note_on_c, 1, 50, 0
1, 26948, Note_on_c, 1, 47, 0
1, 26973, Note_on_c, 0, 67, 0
1, 26976, Note_on_c, 1, 50, 66
1, 26976, Note_on_c, 1, 47, 66
1, 27023, Note_on_c, 1, 50, 0
1, 27023, Note_on_c, 1, 47, 0
1, 27024, Note_on_c, 0, 76, 66
1, 27036, Note_on_c, 0, 76, 0
1, 27036, Note_on_c, 0, 74, 66
1, 27048, Note_on_c, 0, 74, 0
1, 27048, Note_on_c, 0, 72, 66
1, 27060, Note_on_c, 0, 72, 0
1, 27060, Note_on_c, 0, 71, 66
1, 27072, Note_on_c, 0, 71, 0
1, 27072, Note_on_c, 0, 71, 66
1, 27120, Note_on_c, 0, 71, 0
1, 27120, Note_on_c, 0, 69, 66
1, 27120, Note_on_c, 1, 52, 66
1, 27120, Note_on_c, 1, 48, 66
1, 27140, Note_on_c, 1, 52, 0
1, 27140, Note_on_c, 1, 48, 0
1, 27165, Note_on_c, 0, 69, 0
1, 27168, Note_on_c, 1, 52, 66
1, 27168, Note_on_c, 1, 48, 66
1, 27215, Note_on_c, 1, 52, 0
1, 27215, Note_on_c, 1, 48, 0
1, 27216, Note_on_c, 0, 74, 66
1, 27228, Note_on_c, 0, 74, 0
1, 27228, Note_on_c, 0, 72, 66
1, 27240, Note_on_c, 0, 72, 0
1, 27240, Note_on_c, 0, 71, 66
1, 27252, Note_on_c, 0, 71, 0
1, 27252, Note_on_c, 0, 69, 66
1, 27264, Note_on_c, 0, 69, 0
1, 27264, Note_on_c, 0, 67, 66
1, 27312, Note_on_c, 0, 67, 0
1, 27312, Note_on_c, 0, 66, 66
1, 27312, Note_on_c, 1, 57, 66
1, 27312, Note_on_c, 1, 50, 66
1, 27332, Note_on_c, 1, 57, 0
1, 27332, Note_on_c, 1, 50, 0
1, 27357, Note_on_c, 0, 66, 0
1, 27360, Note_on_c, 1, 57, 66
1, 27360, Note_on_c, 1, 50, 66
1, 27376, Note_on_c, 0, 72, 66
1, 27391, Note_on_c, 0, 72, 0
1, 27392, Note_on_c, 0, 74, 66
1, 27407, Note_on_c, 0, 74, 0
1, 27407, Note_on_c, 1, 57, 0
1, 27407, Note_on_c, 1, 50, 0
1, 27408, Note_on_c, 0, 76, 66
1, 27423, Note_on_c, 0, 76, 0
1, 27424, Note_on_c, 0, 74, 66
1, 27439, Note_on_c, 0, 74, 0
1, 27440, Note_on_c, 0, 72, 66
1, 27455, Note_on_c, 0, 72, 0
1, 27456, Note_on_c, 0, 72, 66
1, 27456, Note_on_c, 1, 55, 66
1, 27480, Note_on_c, 0, 72, 0
1, 27480, Note_on_c, 0, 71, 66
1, 27501, Note_on_c, 1, 55, 0
1, 27503, Note_on_c, 0, 71, 0
1, 27504, Note_on_c, 1, 59, 66
1, 27528, Note_on_c, 0, 74, 66
1, 27538, Note_on_c, 0, 74, 0
1, 27549, Note_on_c, 1, 59, 0
1, 27552, Note_on_c, 0, 74, 66
1, 27552, Note_on_c, 1, 57, 66
1, 27576, Note_on_c, 0, 74, 0
1, 27576, Note_on_c, 0, 72, 67
1, 27597, Note_on_c, 1, 57, 0
1, 27599, Note_on_c, 0, 72, 0
1, 27600, Note_on_c, 0, 72, 67
1, 27600, Note_on_c, 1, 55, 67
1, 27624, Note_on_c, 0, 72, 0
1, 27624, Note_on_c, 0, 71, 68
1, 27645, Note_on_c, 1, 55, 0
1, 27647, Note_on_c, 0, 71, 0
1, 27648, Note_on_c, 0, 71, 69
1, 27648, Note_on_c, 1, 54, 68
1, 27672, Note_on_c, 0, 71, 0
1, 27672, Note_on_c, 0, 69, 69
1, 27693, Note_on_c, 1, 54, 0
1, 27695, Note_on_c, 0, 69, 0
1, 27696, Note_on_c, 0, 69, 70
1, 27696, Note_on_c, 1, 52, 69
1, 27720, Note_on_c, 0, 69, 0
1, 27720, Note_on_c, 0, 67, 70
1, 27741, Note_on_c, 1, 52, 0
1, 27743, Note_on_c, 0, 67, 0
1, 27744, Note_on_c, 0, 67, 71
1, 27744, Note_on_c, 1, 50, 71
1, 27768, Note_on_c, 0, 67, 0
1, 27768, Note_on_c, 0, 66, 72
1, 27789, Note_on_c, 1, 50, 0
1, 27791, Note_on_c, 0, 66, 0
1, 27792, Note_on_c, 0, 69, 72
1, 27792, Note_on_c, 1, 54, 72
1, 27816, Note_on_c, 0, 69, 0
1, 27816, Note_on_c, 0, 72, 73
1, 27837, Note_on_c, 1, 54, 0
1, 27839, Note_on_c, 0, 72, 0
1, 27840, Note_on_c, 0, 72, 73
1, 27840, Note_on_c, 1, 55, 73
1, 27864, Note_on_c, 0, 72, 0
1, 27864, Note_on_c, 0, 71, 74
1, 27885, Note_on_c, 1, 55, 0
1, 27887, Note_on_c, 0, 71, 0
1, 27888, Note_on_c, 1, 59, 75
1, 27912, Note_on_c, 0, 74, 75
1, 27922, Note_on_c, 0, 74, 0
1, 27933, Note_on_c, 1, 59, 0
1, 27936, Note_on_c, 0, 74, 66
1, 27936, Note_on_c, 1, 57, 66
1, 27942, Note_on_c, 0, 74, 0
1, 27942, Note_on_c, 0, 76, 66
1, 27948, Note_on_c, 0, 76, 0
1, 27948, Note_on_c, 0, 74, 66
1, 27959, Note_on_c, 0, 74, 0
1, 27960, Note_on_c, 0, 72, 66
1, 27981, Note_on_c, 1, 57, 0
1, 27983, Note_on_c, 0, 72, 0
1, 27984, Note_on_c, 0, 72, 67
1, 27984, Note_on_c, 1, 55, 67
1, 27990, Note_on_c, 0, 72, 0
1, 27990, Note_on_c, 0, 74, 67
1, 27996, Note_on_c, 0, 74, 0
1, 27996, Note_on_c, 0, 72, 67
1, 28007, Note_on_c, 0, 72, 0
1, 28008, Note_on_c, 0, 71, 68
1, 28029, Note_on_c, 1, 55, 0
1, 28031, Note_on_c, 0, 71, 0
1, 28032, Note_on_c, 0, 71, 69
1, 28032, Note_on_c, 1, 54, 69
1, 28038, Note_on_c, 0, 71, 0
1, 28038, Note_on_c, 0, 72, 69
1, 28044, Note_on_c, 0, 72, 0
1, 28044, Note_on_c, 0, 71, 69
1, 28055, Note_on_c, 0, 71, 0
1, 28056, Note_on_c, 0, 69, 69
1, 28077, Note_on_c, 1, 54, 0
1, 28079, Note_on_c, 0, 69, 0
1, 28080, Note_on_c, 0, 69, 70
1, 28080, Note_on_c, 1, 52, 70
1, 28086, Note_on_c, 0, 69, 0
1, 28086, Note_on_c, 0, 71, 70
1, 28092, Note_on_c, 0, 71, 0
1, 28092, Note_on_c, 0, 69, 70
1, 28103, Note_on_c, 0, 69, 0
1, 28104, Note_on_c, 0, 67, 71
1, 28125, Note_on_c, 1, 52, 0
1, 28127, Note_on_c, 0, 67, 0
1, 28128, Note_on_c, 0, 67, 72
1, 28128, Note_on_c, 1, 50, 72
1, 28134, Note_on_c, 0, 67, 0
1, 28134, Note_on_c, 0, 69, 72
1, 28140, Note_on_c, 0, 69, 0
1, 28140, Note_on_c, 0, 67, 72
1, 28151, Note_on_c, 0, 67, 0
1, 28152, Note_on_c, 0, 66, 72
1, 28173, Note_on_c, 1, 50, 0
1, 28175, Note_on_c, 0, 66, 0
1, 28176, Note_on_c, 0, 69, 73
1, 28176, Note_on_c, 1, 54, 73
1, 28200, Note_on_c, 0, 69, 0
1, 28200, Note_on_c, 0, 72, 74
1, 28221, Note_on_c, 1, 54, 0
1, 28223, Note_on_c, 0, 72, 0
1, 28224, Note_on_c, 0, 71, 66
1, 28224, Note_on_c, 1, 55, 75
1, 28247, Note_on_c, 0, 71, 0
1, 28248, Note_on_c, 0, 67, 67
1, 28271, Note_on_c, 0, 67, 0
1, 28272, Note_on_c, 0, 69, 68
1, 28295, Note_on_c, 0, 69, 0
1, 28296, Note_on_c, 0, 71, 69
1, 28313, Note_on_c, 1, 55, 0
1, 28319, Note_on_c, 0, 71, 0
1, 28320, Note_on_c, 0, 72, 70
1, 28343, Note_on_c, 0, 72, 0
1, 28344, Note_on_c, 0, 73, 71
1, 28367, Note_on_c, 0, 73, 0
1, 28368, Note_on_c, 0, 74, 72
1, 28391, Note_on_c, 0, 74, 0
1, 28392, Note_on_c, 0, 75, 73
1, 28415, Note_on_c, 0, 75, 0
1, 28416, Note_on_c, 0, 76, 75
1, 28440, Note_on_c, 0, 60, 75
1, 28452, Note_on_c, 0, 60, 0
1, 28452, Note_on_c, 0, 59, 75
1, 28464, Note_on_c, 0, 59, 0
1, 28464, Note_on_c, 0, 57, 75
1, 28487, Note_on_c, 0, 57, 0
1, 28488, Note_on_c, 0, 60, 75
1, 28511, Note_on_c, 0, 60, 0
1, 28512, Note_on_c, 0, 54, 75
1, 28535, Note_on_c, 0, 76, 0
1, 28536, Note_on_c, 0, 72, 75
1, 28548, Note_on_c, 0, 72, 0
1, 28548, Note_on_c, 0, 74, 75
1, 28560, Note_on_c, 0, 74, 0
1, 28560, Note_on_c, 0, 76, 75
1, 28560, Note_on_c, 1, 62, 75
1, 28601, Note_on_c, 0, 54, 0
1, 28605, Note_on_c, 0, 76, 0
1, 28608, Note_on_c, 0, 71, 75
1, 28608, Note_on_c, 0, 55, 75
1, 28615, Note_on_c, 0, 71, 0
1, 28615, Note_on_c, 0, 72, 74
1, 28622, Note_on_c, 0, 72, 0
1, 28622, Note_on_c, 0, 71, 74
1, 28629, Note_on_c, 0, 71, 0
1, 28629, Note_on_c, 0, 72, 73
1, 28636, Note_on_c, 0, 72, 0
1, 28636, Note_on_c, 0, 71, 73
1, 28643, Note_on_c, 0, 71, 0
1, 28643, Note_on_c, 0, 69, 73
1, 28650, Note_on_c, 0, 69, 0
1, 28650, Note_on_c, 0, 71, 72
1, 28653, Note_on_c, 1, 62, 0
1, 28653, Note_on_c, 0, 55, 0
1, 28656, Note_on_c, 0, 71, 0
1, 28656, Note_on_c, 0, 72, 72
1, 28656, Note_on_c, 1, 60, 72
1, 28656, Note_on_c, 0, 48, 72
1, 28679, Note_on_c, 0, 72, 0
1, 28680, Note_on_c, 0, 69, 70
1, 28701, Note_on_c, 1, 60, 0
1, 28701, Note_on_c, 0, 48, 0
1, 28703, Note_on_c, 0, 69, 0
1, 28704, Note_on_c, 0, 67, 69
1, 28704, Note_on_c, 1, 59, 69
1, 28704, Note_on_c, 0, 50, 70
1, 28749, Note_on_c, 0, 67, 0
1, 28749, Note_on_c, 1, 59, 0
1, 28752, Note_on_c, 0, 66, 66
1, 28752, Note_on_c, 1, 57, 66
1, 28759, Note_on_c, 0, 66, 0
1, 28759, Note_on_c, 0, 67, 66
1, 28766, Note_on_c, 0, 67, 0
1, 28766, Note_on_c, 0, 66, 66
1, 28773, Note_on_c, 0, 66, 0
1, 28773, Note_on_c, 0, 67, 66
1, 28780, Note_on_c, 0, 67, 0
1, 28780, Note_on_c, 0, 66, 66
1, 28787, Note_on_c, 0, 66, 0
1, 28787, Note_on_c, 0, 64, 66
1, 28793, Note_on_c, 0, 50, 0
1, 28794, Note_on_c, 0, 64, 0
1, 28794, Note_on_c, 0, 66, 66
1, 28797, Note_on_c, 1, 57, 0
1, 28800, Note_on_c, 0, 66, 0
1, 28800, Note_on_c, 0, 67, 66
1, 28800, Note_on_c, 1, 55, 66
1, 28823, Note_on_c, 0, 67, 0
1, 28824, Note_on_c, 0, 67, 67
1, 28847, Note_on_c, 0, 67, 0
1, 28848, Note_on_c, 0, 69, 68
1, 28871, Note_on_c, 0, 69, 0
1, 28872, Note_on_c, 0, 71, 69
1, 28889, Note_on_c, 1, 55, 0
1, 28895, Note_on_c, 0, 71, 0
1, 28896, Note_on_c, 0, 72, 70
1, 28919, Note_on_c, 0, 72, 0
1, 28920, Note_on_c, 0, 73, 71
1, 28943, Note_on_c, 0, 73, 0
1, 28944, Note_on_c, 0, 74, 72
1, 28967, Note_on_c, 0, 74, 0
1, 28968, Note_on_c, 0, 75, 73
1, 28991, Note_on_c, 0, 75, 0
1, 28992, Note_on_c, 0, 76, 75
1, 29016, Note_on_c, 0, 60, 75
1, 29028, Note_on_c, 0, 60, 0
1, 29028, Note_on_c, 0, 59, 75
1, 29040, Note_on_c, 0, 59, 0
1, 29040, Note_on_c, 0, 57, 75
1, 29063, Note_on_c, 0, 57, 0
1, 29064, Note_on_c, 0, 60, 75
1, 29087, Note_on_c, 0, 60, 0
1, 29088, Note_on_c, 0, 54, 75
1, 29111, Note_on_c, 0, 76, 0
1, 29112, Note_on_c, 0, 72, 75
1, 29124, Note_on_c, 0, 72, 0
1, 29124, Note_on_c, 0, 74, 75
1, 29136, Note_on_c, 0, 74, 0
1, 29136, Note_on_c, 0, 76, 75
1, 29136, Note_on_c, 1, 62, 66
1, 29177, Note_on_c, 0, 54, 0
1, 29181, Note_on_c, 0, 76, 0
1, 29184, Note_on_c, 0, 55, 66
1, 29208, Note_on_c, 0, 71, 75
1, 29220, Note_on_c, 0, 71, 0
1, 29220, Note_on_c, 0, 72, 75
1, 29229, Note_on_c, 1, 62, 0
1, 29232, Note_on_c, 0, 72, 0
1, 29232, Note_on_c, 0, 74, 75
1, 29232, Note_on_c, 1, 62, 66
1, 29255, Note_on_c, 0, 74, 0
1, 29256, Note_on_c, 0, 67, 75
1, 29273, Note_on_c, 0, 55, 0
1, 29279, Note_on_c, 0, 67, 0
1, 29280, Note_on_c, 0, 57, 66
1, 29304, Note_on_c, 0, 66, 76
1, 29316, Note_on_c, 0, 66, 0
1, 29316, Note_on_c, 0, 67, 76
1, 29321, Note_on_c, 1, 62, 0
1, 29328, Note_on_c, 0, 67, 0
1, 29328, Note_on_c, 0, 69, 77
1, 29328, Note_on_c, 1, 62, 66
1, 29351, Note_on_c, 0, 69, 0
1, 29352, Note_on_c, 0, 66, 77
1, 29369, Note_on_c, 0, 57, 0
1, 29375, Note_on_c, 0, 66, 0
1, 29376, Note_on_c, 0, 59, 66
1, 29400, Note_on_c, 0, 67, 78
1, 29412, Note_on_c, 0, 67, 0
1, 29412, Note_on_c, 0, 69, 78
1, 29421, Note_on_c, 1, 62, 0
1, 29424, Note_on_c, 0, 69, 0
1, 29424, Note_on_c, 0, 71, 78
1, 29424, Note_on_c, 1, 62, 66
1, 29447, Note_on_c, 0, 71, 0
1, 29448, Note_on_c, 0, 67, 79
1, 29465, Note_on_c, 0, 59, 0
1, 29471, Note_on_c, 0, 67, 0
1, 29472, Note_on_c, 0, 54, 66
1, 29496, Note_on_c, 0, 69, 79
1, 29508, Note_on_c, 0, 69, 0
1, 29508, Note_on_c, 0, 71, 80
1, 29513, Note_on_c, 1, 62, 0
1, 29520, Note_on_c, 0, 71, 0
1, 29520, Note_on_c, 0, 72, 80
1, 29520, Note_on_c, 1, 62, 66
1, 29543, Note_on_c, 0, 72, 0
1, 29544, Note_on_c, 0, 69, 80
1, 29561, Note_on_c, 0, 54, 0
1, 29567, Note_on_c, 0, 69, 0
1, 29568, Note_on_c, 0, 55, 66
1, 29592, Note_on_c, 0, 83, 81
1, 29604, Note_on_c, 0, 83, 0
1, 29604, Note_on_c, 0, 84, 81
1, 29613, Note_on_c, 1, 62, 0
1, 29616, Note_on_c, 0, 84, 0
1, 29616, Note_on_c, 0, 86, 81
1, 29628, Note_on_c, 0, 86, 0
1, 29628, Note_on_c, 0, 84, 81
1, 29640, Note_on_c, 0, 84, 0
1, 29640, Note_on_c, 0, 83, 81
1, 29652, Note_on_c, 0, 83, 0
1, 29652, Note_on_c, 0, 81, 81
1, 29657, Note_on_c, 0, 55, 0
1, 29664, Note_on_c, 0, 81, 0
1, 29664, Note_on_c, 0, 79, 81
1, 29676, Note_on_c, 0, 79, 0
1, 29676, Note_on_c, 0, 78, 81
1, 29688, Note_on_c, 0, 78, 0
1, 29688, Note_on_c, 0, 76, 81
1, 29700, Note_on_c, 0, 76, 0
1, 29700, Note_on_c, 0, 74, 81
1, 29712, Note_on_c, 0, 74, 0
1, 29712, Note_on_c, 0, 72, 81
1, 29712, Note_on_c, 1, 62, 75
1, 29712, Note_on_c, 1, 59, 75
1, 29724, Note_on_c, 0, 72, 0
1, 29724, Note_on_c, 0, 71, 81
1, 29736, Note_on_c, 0, 71, 0
1, 29736, Note_on_c, 0, 69, 81
1, 29748, Note_on_c, 0, 69, 0
1, 29748, Note_on_c, 0, 67, 81
1, 29757, Note_on_c, 1, 62, 0
1, 29757, Note_on_c, 1, 59, 0
1, 29760, Note_on_c, 0, 67, 0
1, 29760, Note_on_c, 0, 69, 81
1, 29760, Note_on_c, 1, 64, 75
1, 29760, Note_on_c, 1, 60, 75
1, 29783, Note_on_c, 0, 69, 0
1, 29784, Note_on_c, 0, 72, 81
1, 29796, Note_on_c, 0, 72, 0
1, 29796, Note_on_c, 0, 74, 81
1, 29808, Note_on_c, 0, 74, 0
1, 29808, Note_on_c, 0, 76, 81
1, 29820, Note_on_c, 0, 76, 0
1, 29820, Note_on_c, 0, 72, 81
1, 29832, Note_on_c, 0, 72, 0
1, 29832, Note_on_c, 0, 71, 81
1, 29844, Note_on_c, 0, 71, 0
1, 29844, Note_on_c, 0, 69, 81
1, 29849, Note_on_c, 1, 64, 0
1, 29849, Note_on_c, 1, 60, 0
1, 29856, Note_on_c, 0, 69, 0
1, 29856, Note_on_c, 0, 67, 81
1, 29856, Note_on_c, 1, 59, 75
1, 29856, Note_on_c, 0, 50, 66
1, 29901, Note_on_c, 0, 67, 0
1, 29901, Note_on_c, 1, 59, 0
1, 29904, Note_on_c, 0, 66, 81
1, 29904, Note_on_c, 1, 57, 75
1, 29911, Note_on_c, 0, 66, 0
1, 29911, Note_on_c, 0, 67, 81
1, 29918, Note_on_c, 0, 67, 0
1, 29918, Note_on_c, 0, 66, 81
1, 29925, Note_on_c, 0, 66, 0
1, 29925, Note_on_c, 0, 67, 81
1, 29932, Note_on_c, 0, 67, 0
1, 29932, Note_on_c, 0, 66, 81
1, 29939, Note_on_c, 0, 66, 0
1, 29939, Note_on_c, 0, 64, 81
1, 29945, Note_on_c, 0, 50, 0
1, 29946, Note_on_c, 0, 64, 0
1, 29946, Note_on_c, 0, 66, 81
1, 29949, Note_on_c, 1, 57, 0
1, 29952, Note_on_c, 0, 66, 0
1, 29952, Note_on_c, 0, 67, 81
1, 29952, Note_on_c, 1, 55, 75
1, 29975, Note_on_c, 0, 67, 0
1, 29976, Note_on_c, 0, 83, 81
1, 29988, Note_on_c, 0, 83, 0
1, 29988, Note_on_c, 0, 84, 81
1, 30000, Note_on_c, 0, 84, 0
1, 30000, Note_on_c, 0, 86, 81
1, 30012, Note_on_c, 0, 86, 0
1, 30012, Note_on_c, 0, 84, 81
1, 30024, Note_on_c, 0, 84, 0
1, 30024, Note_on_c, 0, 83, 81
1, 30036, Note_on_c, 0, 83, 0
1, 30036, Note_on_c, 0, 81, 81
1, 30041, Note_on_c, 1, 55, 0
1, 30048, Note_on_c, 0, 81, 0
1, 30048, Note_on_c, 0, 79, 81
1, 30060, Note_on_c, 0, 79, 0
1, 30060, Note_on_c, 0, 78, 81
1, 30072, Note_on_c, 0, 78, 0
1, 30072, Note_on_c, 0, 76, 81
1, 30084, Note_on_c, 0, 76, 0
1, 30084, Note_on_c, 0, 74, 81
1, 30096, Note_on_c, 0, 74, 0
1, 30096, Note_on_c, 0, 72, 81
1, 30096, Note_on_c, 1, 62, 75
1, 30096, Note_on_c, 1, 59, 75
1, 30108, Note_on_c, 0, 72, 0
1, 30108, Note_on_c, 0, 71, 81
1, 30120, Note_on_c, 0, 71, 0
1, 30120, Note_on_c, 0, 69, 81
1, 30132, Note_on_c, 0, 69, 0
1, 30132, Note_on_c, 0, 67, 81
1, 30141, Note_on_c, 1, 62, 0
1, 30141, Note_on_c, 1, 59, 0
1, 30144, Note_on_c, 0, 67, 0
1, 30144, Note_on_c, 0, 69, 81
1, 30144, Note_on_c, 1, 64, 75
1, 30144, Note_on_c, 1, 60, 75
1, 30167, Note_on_c, 0, 69, 0
1, 30168, Note_on_c, 0, 72, 81
1, 30180, Note_on_c, 0, 72, 0
1, 30180, Note_on_c, 0, 74, 81
1, 30192, Note_on_c, 0, 74, 0
1, 30192, Note_on_c, 0, 76, 81
1, 30204, Note_on_c, 0, 76, 0
1, 30204, Note_on_c, 0, 72, 81
1, 30216, Note_on_c, 0, 72, 0
1, 30216, Note_on_c, 0, 71, 81
1, 30228, Note_on_c, 0, 71, 0
1, 30228, Note_on_c, 0, 69, 81
1, 30233, Note_on_c, 1, 64, 0
1, 30233, Note_on_c, 1, 60, 0
1, 30240, Note_on_c, 0, 69, 0
1, 30240, Note_on_c, 0, 67, 81
1, 30240, Note_on_c, 1, 59, 75
1, 30240, Note_on_c, 0, 50, 66
1, 30285, Note_on_c, 0, 67, 0
1, 30285, Note_on_c, 1, 59, 0
1, 30288, Note_on_c, 0, 66, 81
1, 30288, Note_on_c, 1, 57, 75
1, 30295, Note_on_c, 0, 66, 0
1, 30295, Note_on_c, 0, 67, 81
1, 30302, Note_on_c, 0, 67, 0
1, 30302, Note_on_c, 0, 66, 81
1, 30309, Note_on_c, 0, 66, 0
1, 30309, Note_on_c, 0, 67, 81
1, 30316, Note_on_c, 0, 67, 0
1, 30316, Note_on_c, 0, 66, 81
1, 30323, Note_on_c, 0, 66, 0
1, 30323, Note_on_c, 0, 64, 81
1, 30329, Note_on_c, 0, 50, 0
1, 30330, Note_on_c, 0, 64, 0
1, 30330, Note_on_c, 0, 66, 81
1, 30333, Note_on_c, 1, 57, 0
1, 30336, Note_on_c, 0, 66, 0
1, 30336, Note_on_c, 0, 67, 81
1, 30336, Note_on_c, 1, 55, 75
1, 30381, Note_on_c, 1, 55, 0
1, 30384, Note_on_c, 1, 50, 75
1, 30425, Note_on_c, 0, 67, 0
1, 30429, Note_on_c, 1, 50, 0
1, 30432, Note_on_c, 1, 43, 75
1, 30477, Note_on_c, 1, 43, 0
1, 30480, Note_on_c, 1, 43, 0
1, 30525, Note_on_c, 1, 43, 0
1, 30535, End_track
0, 0, End_of_file