0, 0, Header, 0, 1, 96
1, 0, Start_track
1, 0, Tempo, 571428
1, 144, Note_on_c, 0, 74, 69
1, 156, Note_on_c, 0, 74, 0
1, 156, Note_on_c, 0, 72, 69
1, 168, Note_on_c, 0, 72, 0
1, 168, Note_on_c, 0, 71, 69
1, 180, Note_on_c, 0, 71, 0
1, 180, Note_on_c, 0, 69, 69
1, 192, Note_on_c, 0, 69, 0
1, 192, Note_on_c, 0, 67, 69
1, 212, Note_on_c, 0, 67, 0
1, 240, Note_on_c, 0, 79, 69
1, 240, Note_on_c, 0, 76, 69
1, 285, Note_on_c, 0, 79, 0
1, 285, Note_on_c, 0, 76, 0
1, 288, Note_on_c, 0, 78, 69
1, 288, Note_on_c, 0, 74, 69
1, 333, Note_on_c, 0, 78, 0
1, 333, Note_on_c, 0, 74, 0
1, 336, Note_on_c, 0, 76, 69
1, 336, Note_on_c, 0, 72, 69
1, 381, Note_on_c, 0, 76, 0
1, 381, Note_on_c, 0, 72, 0
1, 384, Note_on_c, 0, 74, 69
1, 384, Note_on_c, 0, 71, 69
1, 432, Note_on_c, 0, 55, 69
1, 452, Note_on_c, 0, 55, 0
1, 480, Note_on_c, 0, 43, 69
1, 517, Note_on_c, 0, 74, 0
1, 517, Note_on_c, 0, 71, 0
1, 528, Note_on_c, 0, 76, 69
1, 543, Note_on_c, 0, 76, 0
1, 544, Note_on_c, 0, 74, 69
1, 559, Note_on_c, 0, 74, 0
1, 560, Note_on_c, 0, 72, 69
1, 569, Note_on_c, 0, 43, 0
1, 575, Note_on_c, 0, 72, 0
1, 576, Note_on_c, 0, 71, 69
1, 624, Note_on_c, 0, 55, 69
1, 644, Note_on_c, 0, 55, 0
1, 672, Note_on_c, 0, 43, 69
1, 709, Note_on_c, 0, 71, 0
1, 720, Note_on_c, 0, 71, 69
1, 732, Note_on_c, 0, 71, 0
1, 732, Note_on_c, 0, 69, 69
1, 744, Note_on_c, 0, 69, 0
1, 744, Note_on_c, 0, 67, 69
1, 756, Note_on_c, 0, 67, 0
1, 756, Note_on_c, 0, 66, 69
1, 761, Note_on_c, 0, 43, 0
1, 768, Note_on_c, 0, 66, 0
1, 768, Note_on_c, 0, 64, 69
1, 768, Note_on_c, 0, 48, 69
1, 788, Note_on_c, 0, 64, 0
1, 816, Note_on_c, 0, 76, 69
1, 816, Note_on_c, 0, 72, 69
1, 857, Note_on_c, 0, 48, 0
1, 861, Note_on_c, 0, 76, 0
1, 861, Note_on_c, 0, 72, 0
1, 864, Note_on_c, 0, 74, 69
1, 864, Note_on_c, 0, 71, 69
1, 864, Note_on_c, 0, 50, 69
1, 909, Note_on_c, 0, 74, 0
1, 909, Note_on_c, 0, 71, 0
1, 912, Note_on_c, 0, 72, 69
1, 912, Note_on_c, 0, 69, 69
1, 953, Note_on_c, 0, 50, 0
1, 957, Note_on_c, 0, 72, 0
1, 957, Note_on_c, 0, 69, 0
1, 960, Note_on_c, 0, 72, 69
1, 960, Note_on_c, 0, 69, 69
1, 960, Note_on_c, 0, 55, 69
1, 1005, Note_on_c, 0, 55, 0
1, 1008, Note_on_c, 0, 50, 69
1, 1053, Note_on_c, 0, 50, 0
1, 1056, Note_on_c, 0, 72, 0
1, 1056, Note_on_c, 0, 69, 0
1, 1056, Note_on_c, 0, 71, 69
1, 1056, Note_on_c, 0, 67, 69
1, 1056, Note_on_c, 0, 43, 69
1, 1101, Note_on_c, 0, 43, 0
1, 1104, Note_on_c, 0, 67, 0
1, 1116, Note_on_c, 0, 71, 0
1, 1116, Note_on_c, 0, 69, 69
1, 1128, Note_on_c, 0, 69, 0
1, 1128, Note_on_c, 0, 67, 69
1, 1140, Note_on_c, 0, 67, 0
1, 1140, Note_on_c, 0, 66, 69
1, 1152, Note_on_c, 0, 66, 0
1, 1152, Note_on_c, 0, 64, 69
1, 1152, Note_on_c, 0, 48, 69
1, 1172, Note_on_c, 0, 64, 0
1, 1200, Note_on_c, 0, 76, 69
1, 1200, Note_on_c, 0, 72, 69
1, 1241, Note_on_c, 0, 48, 0
1, 1245, Note_on_c, 0, 76, 0
1, 1245, Note_on_c, 0, 72, 0
1, 1248, Note_on_c, 0, 74, 69
1, 1248, Note_on_c, 0, 71, 69
1, 1248, Note_on_c, 0, 50, 69
1, 1293, Note_on_c, 0, 74, 0
1, 1293, Note_on_c, 0, 71, 0
1, 1296, Note_on_c, 0, 66, 69
1, 1296, Note_on_c, 0, 60, 69
1, 1337, Note_on_c, 0, 50, 0
1, 1341, Note_on_c, 0, 66, 0
1, 1341, Note_on_c, 0, 60, 0
1, 1344, Note_on_c, 0, 67, 69
1, 1344, Note_on_c, 0, 59, 69
1, 1344, Note_on_c, 0, 55, 69
1, 1389, Note_on_c, 0, 55, 0
1, 1392, Note_on_c, 0, 50, 69
1, 1433, Note_on_c, 0, 67, 0
1, 1433, Note_on_c, 0, 59, 0
1, 1437, Note_on_c, 0, 50, 0
1, 1440, Note_on_c, 0, 43, 69
1, 1485, Note_on_c, 0, 43, 0
1, 1488, Note_on_c, 0, 74, 69
1, 1500, Note_on_c, 0, 74, 0
1, 1500, Note_on_c, 0, 72, 69
1, 1512, Note_on_c, 0, 72, 0
1, 1512, Note_on_c, 0, 71, 69
1, 1524, Note_on_c, 0, 71, 0
1, 1524, Note_on_c, 0, 69, 69
1, 1536, Note_on_c, 0, 69, 0
1, 1536, Note_on_c, 0, 67, 69
1, 1556, Note_on_c, 0, 67, 0
1, 1584, Note_on_c, 0, 79, 69
1, 1584, Note_on_c, 0, 76, 69
1, 1629, Note_on_c, 0, 79, 0
1, 1629, Note_on_c, 0, 76, 0
1, 1632, Note_on_c, 0, 78, 69
1, 1632, Note_on_c, 0, 74, 69
1, 1677, Note_on_c, 0, 78, 0
1, 1677, Note_on_c, 0, 74, 0
1, 1680, Note_on_c, 0, 76, 69
1, 1680, Note_on_c, 0, 72, 69
1, 1725, Note_on_c, 0, 76, 0
1, 1725, Note_on_c, 0, 72, 0
1, 1728, Note_on_c, 0, 74, 69
1, 1728, Note_on_c, 0, 71, 69
1, 1776, Note_on_c, 0, 55, 69
1, 1796, Note_on_c, 0, 55, 0
1, 1824, Note_on_c, 0, 43, 69
1, 1861, Note_on_c, 0, 74, 0
1, 1861, Note_on_c, 0, 71, 0
1, 1872, Note_on_c, 0, 74, 69
1, 1887, Note_on_c, 0, 74, 0
1, 1888, Note_on_c, 0, 79, 69
1, 1903, Note_on_c, 0, 79, 0
1, 1904, Note_on_c, 0, 83, 69
1, 1913, Note_on_c, 0, 43, 0
1, 1919, Note_on_c, 0, 83, 0
1, 1920, Note_on_c, 0, 81, 69
1, 1968, Note_on_c, 0, 62, 69
1, 1968, Note_on_c, 0, 54, 69
1, 1988, Note_on_c, 0, 62, 0
1, 1988, Note_on_c, 0, 54, 0
1, 2016, Note_on_c, 0, 62, 69
1, 2016, Note_on_c, 0, 54, 69
1, 2053, Note_on_c, 0, 81, 0
1, 2064, Note_on_c, 0, 79, 69
1, 2076, Note_on_c, 0, 79, 0
1, 2076, Note_on_c, 0, 78, 69
1, 2088, Note_on_c, 0, 78, 0
1, 2088, Note_on_c, 0, 76, 69
1, 2100, Note_on_c, 0, 76, 0
1, 2100, Note_on_c, 0, 74, 69
1, 2110, Note_on_c, 0, 62, 0
1, 2110, Note_on_c, 0, 54, 0
1, 2112, Note_on_c, 0, 74, 0
1, 2112, Note_on_c, 0, 73, 69
1, 2132, Note_on_c, 0, 73, 0
1, 2160, Note_on_c, 0, 79, 85
1, 2160, Note_on_c, 0, 76, 85
1, 2160, Note_on_c, 0, 61, 69
1, 2205, Note_on_c, 0, 61, 0
1, 2208, Note_on_c, 0, 61, 69
1, 2253, Note_on_c, 0, 61, 0
1, 2256, Note_on_c, 0, 79, 0
1, 2256, Note_on_c, 0, 76, 0
1, 2256, Note_on_c, 0, 78, 69
1, 2256, Note_on_c, 0, 74, 69
1, 2256, Note_on_c, 0, 62, 69
1, 2301, Note_on_c, 0, 78, 0
1, 2301, Note_on_c, 0, 74, 0
1, 2301, Note_on_c, 0, 62, 0
1, 2304, Note_on_c, 0, 78, 69
1, 2304, Note_on_c, 0, 74, 69
1, 2304, Note_on_c, 0, 57, 69
1, 2352, Note_on_c, 0, 78, 0
1, 2352, Note_on_c, 0, 74, 0
1, 2352, Note_on_c, 0, 76, 69
1, 2352, Note_on_c, 0, 73, 69
1, 2393, Note_on_c, 0, 57, 0
1, 2397, Note_on_c, 0, 76, 0
1, 2397, Note_on_c, 0, 73, 0
1, 2448, Note_on_c, 0, 69, 69
1, 2460, Note_on_c, 0, 69, 0
1, 2460, Note_on_c, 0, 67, 69
1, 2472, Note_on_c, 0, 67, 0
1, 2472, Note_on_c, 0, 66, 69
1, 2484, Note_on_c, 0, 66, 0
1, 2484, Note_on_c, 0, 64, 69
1, 2496, Note_on_c, 0, 64, 0
1, 2496, Note_on_c, 0, 62, 69
1, 2516, Note_on_c, 0, 62, 0
1, 2544, Note_on_c, 0, 74, 69
1, 2544, Note_on_c, 0, 59, 69
1, 2567, Note_on_c, 0, 74, 0
1, 2568, Note_on_c, 0, 62, 69
1, 2589, Note_on_c, 0, 59, 0
1, 2591, Note_on_c, 0, 62, 0
1, 2592, Note_on_c, 0, 73, 69
1, 2592, Note_on_c, 0, 57, 69
1, 2615, Note_on_c, 0, 73, 0
1, 2616, Note_on_c, 0, 62, 69
1, 2637, Note_on_c, 0, 57, 0
1, 2639, Note_on_c, 0, 62, 0
1, 2640, Note_on_c, 0, 71, 69
1, 2640, Note_on_c, 0, 55, 69
1, 2663, Note_on_c, 0, 71, 0
1, 2664, Note_on_c, 0, 62, 69
1, 2685, Note_on_c, 0, 55, 0
1, 2687, Note_on_c, 0, 62, 0
1, 2688, Note_on_c, 0, 69, 69
1, 2688, Note_on_c, 0, 54, 69
1, 2711, Note_on_c, 0, 69, 0
1, 2712, Note_on_c, 0, 62, 69
1, 2733, Note_on_c, 0, 54, 0
1, 2735, Note_on_c, 0, 62, 0
1, 2736, Note_on_c, 0, 67, 69
1, 2736, Note_on_c, 0, 52, 69
1, 2759, Note_on_c, 0, 67, 0
1, 2760, Note_on_c, 0, 62, 69
1, 2781, Note_on_c, 0, 52, 0
1, 2783, Note_on_c, 0, 62, 0
1, 2784, Note_on_c, 0, 66, 69
1, 2784, Note_on_c, 0, 50, 69
1, 2804, Note_on_c, 0, 66, 0
1, 2829, Note_on_c, 0, 50, 0
1, 2832, Note_on_c, 0, 69, 69
1, 2844, Note_on_c, 0, 69, 0
1, 2844, Note_on_c, 0, 67, 69
1, 2856, Note_on_c, 0, 67, 0
1, 2856, Note_on_c, 0, 66, 69
1, 2868, Note_on_c, 0, 66, 0
1, 2868, Note_on_c, 0, 64, 69
1, 2880, Note_on_c, 0, 64, 0
1, 2880, Note_on_c, 0, 62, 69
1, 2900, Note_on_c, 0, 62, 0
1, 2928, Note_on_c, 0, 74, 69
1, 2928, Note_on_c, 0, 59, 69
1, 2951, Note_on_c, 0, 74, 0
1, 2952, Note_on_c, 0, 62, 69
1, 2973, Note_on_c, 0, 59, 0
1, 2975, Note_on_c, 0, 62, 0
1, 2976, Note_on_c, 0, 73, 69
1, 2976, Note_on_c, 0, 57, 69
1, 2999, Note_on_c, 0, 73, 0
1, 3000, Note_on_c, 0, 62, 69
1, 3021, Note_on_c, 0, 57, 0
1, 3023, Note_on_c, 0, 62, 0
1, 3024, Note_on_c, 0, 71, 69
1, 3024, Note_on_c, 0, 55, 69
1, 3047, Note_on_c, 0, 71, 0
1, 3048, Note_on_c, 0, 62, 69
1, 3069, Note_on_c, 0, 55, 0
1, 3071, Note_on_c, 0, 62, 0
1, 3072, Note_on_c, 0, 69, 69
1, 3072, Note_on_c, 0, 54, 69
1, 3095, Note_on_c, 0, 69, 0
1, 3096, Note_on_c, 0, 62, 69
1, 3117, Note_on_c, 0, 54, 0
1, 3119, Note_on_c, 0, 62, 0
1, 3120, Note_on_c, 0, 67, 69
1, 3120, Note_on_c, 0, 52, 69
1, 3143, Note_on_c, 0, 67, 0
1, 3144, Note_on_c, 0, 62, 69
1, 3165, Note_on_c, 0, 52, 0
1, 3167, Note_on_c, 0, 62, 0
1, 3168, Note_on_c, 0, 66, 69
1, 3168, Note_on_c, 0, 50, 69
1, 3213, Note_on_c, 0, 50, 0
1, 3216, Note_on_c, 0, 66, 0
1, 3216, Note_on_c, 0, 69, 69
1, 3261, Note_on_c, 0, 69, 0
1, 3264, Note_on_c, 0, 67, 69
1, 3264, Note_on_c, 0, 49, 61
1, 3287, Note_on_c, 0, 49, 0
1, 3288, Note_on_c, 0, 57, 61
1, 3311, Note_on_c, 0, 57, 0
1, 3312, Note_on_c, 0, 67, 0
1, 3312, Note_on_c, 0, 64, 69
1, 3312, Note_on_c, 0, 49, 61
1, 3335, Note_on_c, 0, 49, 0
1, 3336, Note_on_c, 0, 57, 61
1, 3357, Note_on_c, 0, 64, 0
1, 3359, Note_on_c, 0, 57, 0
1, 3360, Note_on_c, 0, 49, 61
1, 3383, Note_on_c, 0, 49, 0
1, 3384, Note_on_c, 0, 57, 61
1, 3407, Note_on_c, 0, 57, 0
1, 3408, Note_on_c, 0, 79, 69
1, 3408, Note_on_c, 0, 76, 69
1, 3408, Note_on_c, 0, 49, 61
1, 3428, Note_on_c, 0, 79, 0
1, 3428, Note_on_c, 0, 76, 0
1, 3431, Note_on_c, 0, 49, 0
1, 3432, Note_on_c, 0, 57, 61
1, 3455, Note_on_c, 0, 57, 0
1, 3456, Note_on_c, 0, 78, 69
1, 3456, Note_on_c, 0, 74, 64
1, 3456, Note_on_c, 0, 50, 61
1, 3479, Note_on_c, 0, 50, 0
1, 3480, Note_on_c, 0, 57, 61
1, 3503, Note_on_c, 0, 57, 0
1, 3504, Note_on_c, 0, 78, 0
1, 3504, Note_on_c, 0, 81, 69
1, 3504, Note_on_c, 0, 74, 0
1, 3504, Note_on_c, 0, 78, 64
1, 3504, Note_on_c, 0, 50, 61
1, 3527, Note_on_c, 0, 50, 0
1, 3528, Note_on_c, 0, 57, 61
1, 3549, Note_on_c, 0, 81, 0
1, 3549, Note_on_c, 0, 78, 0
1, 3551, Note_on_c, 0, 57, 0
1, 3552, Note_on_c, 0, 50, 61
1, 3575, Note_on_c, 0, 50, 0
1, 3576, Note_on_c, 0, 57, 61
1, 3599, Note_on_c, 0, 57, 0
1, 3600, Note_on_c, 0, 69, 69
1, 3600, Note_on_c, 0, 50, 61
1, 3620, Note_on_c, 0, 69, 0
1, 3623, Note_on_c, 0, 50, 0
1, 3624, Note_on_c, 0, 57, 61
1, 3647, Note_on_c, 0, 57, 0
1, 3648, Note_on_c, 0, 67, 69
1, 3648, Note_on_c, 0, 49, 61
1, 3671, Note_on_c, 0, 49, 0
1, 3672, Note_on_c, 0, 57, 61
1, 3695, Note_on_c, 0, 57, 0
1, 3696, Note_on_c, 0, 67, 0
1, 3696, Note_on_c, 0, 64, 69
1, 3696, Note_on_c, 0, 49, 61
1, 3719, Note_on_c, 0, 49, 0
1, 3720, Note_on_c, 0, 57, 61
1, 3741, Note_on_c, 0, 64, 0
1, 3743, Note_on_c, 0, 57, 0
1, 3744, Note_on_c, 0, 49, 61
1, 3767, Note_on_c, 0, 49, 0
1, 3768, Note_on_c, 0, 57, 61
1, 3791, Note_on_c, 0, 57, 0
1, 3792, Note_on_c, 0, 79, 69
1, 3792, Note_on_c, 0, 76, 69
1, 3792, Note_on_c, 0, 49, 61
1, 3812, Note_on_c, 0, 79, 0
1, 3812, Note_on_c, 0, 76, 0
1, 3815, Note_on_c, 0, 49, 0
1, 3816, Note_on_c, 0, 57, 61
1, 3839, Note_on_c, 0, 57, 0
1, 3840, Note_on_c, 0, 78, 69
1, 3840, Note_on_c, 0, 74, 64
1, 3840, Note_on_c, 0, 50, 61
1, 3863, Note_on_c, 0, 50, 0
1, 3864, Note_on_c, 0, 57, 61
1, 3887, Note_on_c, 0, 57, 0
1, 3888, Note_on_c, 0, 78, 0
1, 3888, Note_on_c, 0, 81, 69
1, 3888, Note_on_c, 0, 74, 0
1, 3888, Note_on_c, 0, 78, 64
1, 3888, Note_on_c, 0, 50, 61
1, 3911, Note_on_c, 0, 50, 0
1, 3912, Note_on_c, 0, 57, 61
1, 3933, Note_on_c, 0, 81, 0
1, 3933, Note_on_c, 0, 78, 0
1, 3935, Note_on_c, 0, 57, 0
1, 3936, Note_on_c, 0, 50, 61
1, 3959, Note_on_c, 0, 50, 0
1, 3960, Note_on_c, 0, 57, 61
1, 3983, Note_on_c, 0, 57, 0
1, 3984, Note_on_c, 0, 69, 69
1, 3984, Note_on_c, 0, 50, 61
1, 4004, Note_on_c, 0, 69, 0
1, 4007, Note_on_c, 0, 50, 0
1, 4008, Note_on_c, 0, 57, 61
1, 4031, Note_on_c, 0, 57, 0
1, 4032, Note_on_c, 0, 67, 69
1, 4032, Note_on_c, 0, 49, 61
1, 4055, Note_on_c, 0, 49, 0
1, 4056, Note_on_c, 0, 57, 61
1, 4079, Note_on_c, 0, 57, 0
1, 4080, Note_on_c, 0, 67, 0
1, 4080, Note_on_c, 0, 64, 69
1, 4080, Note_on_c, 0, 49, 62
1, 4103, Note_on_c, 0, 49, 0
1, 4104, Note_on_c, 0, 57, 63
1, 4125, Note_on_c, 0, 64, 0
1, 4127, Note_on_c, 0, 57, 0
1, 4128, Note_on_c, 0, 49, 63
1, 4151, Note_on_c, 0, 49, 0
1, 4152, Note_on_c, 0, 57, 64
1, 4175, Note_on_c, 0, 57, 0
1, 4176, Note_on_c, 0, 79, 69
1, 4176, Note_on_c, 0, 76, 69
1, 4176, Note_on_c, 0, 49, 65
1, 4199, Note_on_c, 0, 49, 0
1, 4200, Note_on_c, 0, 57, 65
1, 4223, Note_on_c, 0, 57, 0
1, 4224, Note_on_c, 0, 79, 0
1, 4224, Note_on_c, 0, 76, 0
1, 4224, Note_on_c, 0, 78, 69
1, 4224, Note_on_c, 0, 74, 69
1, 4224, Note_on_c, 0, 50, 66
1, 4269, Note_on_c, 0, 78, 0
1, 4269, Note_on_c, 0, 74, 0
1, 4272, Note_on_c, 0, 69, 69
1, 4287, Note_on_c, 0, 69, 0
1, 4288, Note_on_c, 0, 71, 69
1, 4303, Note_on_c, 0, 71, 0
1, 4304, Note_on_c, 0, 73, 69
1, 4313, Note_on_c, 0, 50, 0
1, 4319, Note_on_c, 0, 73, 0
1, 4320, Note_on_c, 0, 74, 69
1, 4335, Note_on_c, 0, 74, 0
1, 4336, Note_on_c, 0, 76, 69
1, 4351, Note_on_c, 0, 76, 0
1, 4352, Note_on_c, 0, 78, 69
1, 4367, Note_on_c, 0, 78, 0
1, 4368, Note_on_c, 0, 76, 69
1, 4368, Note_on_c, 0, 61, 69
1, 4383, Note_on_c, 0, 76, 0
1, 4384, Note_on_c, 0, 78, 69
1, 4399, Note_on_c, 0, 78, 0
1, 4400, Note_on_c, 0, 79, 69
1, 4413, Note_on_c, 0, 61, 0
1, 4415, Note_on_c, 0, 79, 0
1, 4416, Note_on_c, 0, 78, 69
1, 4416, Note_on_c, 0, 62, 69
1, 4461, Note_on_c, 0, 78, 0
1, 4464, Note_on_c, 0, 69, 69
1, 4479, Note_on_c, 0, 69, 0
1, 4480, Note_on_c, 0, 71, 69
1, 4495, Note_on_c, 0, 71, 0
1, 4496, Note_on_c, 0, 73, 69
1, 4505, Note_on_c, 0, 62, 0
1, 4511, Note_on_c, 0, 73, 0
1, 4512, Note_on_c, 0, 74, 69
1, 4527, Note_on_c, 0, 74, 0
1, 4528, Note_on_c, 0, 76, 69
1, 4543, Note_on_c, 0, 76, 0
1, 4544, Note_on_c, 0, 78, 69
1, 4559, Note_on_c, 0, 78, 0
1, 4560, Note_on_c, 0, 76, 69
1, 4560, Note_on_c, 0, 61, 69
1, 4575, Note_on_c, 0, 76, 0
1, 4576, Note_on_c, 0, 78, 69
1, 4591, Note_on_c, 0, 78, 0
1, 4592, Note_on_c, 0, 79, 69
1, 4605, Note_on_c, 0, 61, 0
1, 4607, Note_on_c, 0, 79, 0
1, 4608, Note_on_c, 0, 78, 69
1, 4608, Note_on_c, 0, 62, 69
1, 4628, Note_on_c, 0, 78, 0
1, 4656, Note_on_c, 0, 81, 69
1, 4671, Note_on_c, 0, 81, 0
1, 4672, Note_on_c, 0, 79, 69
1, 4687, Note_on_c, 0, 79, 0
1, 4688, Note_on_c, 0, 78, 69
1, 4697, Note_on_c, 0, 62, 0
1, 4703, Note_on_c, 0, 78, 0
1, 4704, Note_on_c, 0, 83, 69
1, 4704, Note_on_c, 0, 55, 69
1, 4724, Note_on_c, 0, 83, 0
1, 4752, Note_on_c, 0, 79, 69
1, 4767, Note_on_c, 0, 79, 0
1, 4768, Note_on_c, 0, 78, 69
1, 4783, Note_on_c, 0, 78, 0
1, 4784, Note_on_c, 0, 76, 69
1, 4793, Note_on_c, 0, 55, 0
1, 4799, Note_on_c, 0, 76, 0
1, 4800, Note_on_c, 0, 74, 69
1, 4848, Note_on_c, 0, 54, 69
1, 4889, Note_on_c, 0, 74, 0
1, 4893, Note_on_c, 0, 54, 0
1, 4896, Note_on_c, 0, 76, 69
1, 4896, Note_on_c, 0, 55, 69
1, 4909, Note_on_c, 0, 76, 0
1, 4910, Note_on_c, 0, 78, 69
1, 4923, Note_on_c, 0, 78, 0
1, 4924, Note_on_c, 0, 76, 69
1, 4937, Note_on_c, 0, 76, 0
1, 4938, Note_on_c, 0, 78, 69
1, 4941, Note_on_c, 0, 55, 0
1, 4944, Note_on_c, 0, 57, 69
1, 4951, Note_on_c, 0, 78, 0
1, 4952, Note_on_c, 0, 76, 69
1, 4965, Note_on_c, 0, 76, 0
1, 4966, Note_on_c, 0, 78, 69
1, 4978, Note_on_c, 0, 78, 0
1, 4979, Note_on_c, 0, 76, 69
1, 4989, Note_on_c, 0, 57, 0
1, 4991, Note_on_c, 0, 76, 0
1, 4992, Note_on_c, 0, 78, 69
1, 4992, Note_on_c, 0, 62, 69
1, 5012, Note_on_c, 0, 78, 0
1, 5040, Note_on_c, 0, 81, 69
1, 5055, Note_on_c, 0, 81, 0
1, 5056, Note_on_c, 0, 79, 69
1, 5071, Note_on_c, 0, 79, 0
1, 5072, Note_on_c, 0, 78, 69
1, 5081, Note_on_c, 0, 62, 0
1, 5087, Note_on_c, 0, 78, 0
1, 5088, Note_on_c, 0, 83, 69
1, 5088, Note_on_c, 0, 55, 69
1, 5108, Note_on_c, 0, 83, 0
1, 5136, Note_on_c, 0, 79, 69
1, 5151, Note_on_c, 0, 79, 0
1, 5152, Note_on_c, 0, 78, 69
1, 5167, Note_on_c, 0, 78, 0
1, 5168, Note_on_c, 0, 76, 69
1, 5177, Note_on_c, 0, 55, 0
1, 5183, Note_on_c, 0, 76, 0
1, 5184, Note_on_c, 0, 74, 69
1, 5232, Note_on_c, 0, 54, 69
1, 5273, Note_on_c, 0, 74, 0
1, 5277, Note_on_c, 0, 54, 0
1, 5280, Note_on_c, 0, 76, 69
1, 5280, Note_on_c, 0, 55, 69
1, 5293, Note_on_c, 0, 76, 0
1, 5294, Note_on_c, 0, 78, 69
1, 5307, Note_on_c, 0, 78, 0
1, 5308, Note_on_c, 0, 76, 69
1, 5321, Note_on_c, 0, 76, 0
1, 5322, Note_on_c, 0, 78, 69
1, 5325, Note_on_c, 0, 55, 0
1, 5328, Note_on_c, 0, 57, 69
1, 5335, Note_on_c, 0, 78, 0
1, 5336, Note_on_c, 0, 76, 69
1, 5349, Note_on_c, 0, 76, 0
1, 5350, Note_on_c, 0, 74, 69
1, 5362, Note_on_c, 0, 74, 0
1, 5363, Note_on_c, 0, 76, 69
1, 5373, Note_on_c, 0, 57, 0
1, 5375, Note_on_c, 0, 76, 0
1, 5376, Note_on_c, 0, 74, 69
1, 5376, Note_on_c, 0, 50, 69
1, 5465, Note_on_c, 0, 74, 0
1, 5465, Note_on_c, 0, 50, 0
1, 5520, Note_on_c, 0, 74, 69
1, 5532, Note_on_c, 0, 74, 0
1, 5532, Note_on_c, 0, 72, 69
1, 5544, Note_on_c, 0, 72, 0
1, 5544, Note_on_c, 0, 71, 69
1, 5556, Note_on_c, 0, 71, 0
1, 5556, Note_on_c, 0, 69, 69
1, 5568, Note_on_c, 0, 69, 0
1, 5568, Note_on_c, 0, 67, 69
1, 5588, Note_on_c, 0, 67, 0
1, 5616, Note_on_c, 0, 79, 69
1, 5616, Note_on_c, 0, 76, 69
1, 5661, Note_on_c, 0, 79, 0
1, 5661, Note_on_c, 0, 76, 0
1, 5664, Note_on_c, 0, 78, 69
1, 5664, Note_on_c, 0, 74, 69
1, 5709, Note_on_c, 0, 78, 0
1, 5709, Note_on_c, 0, 74, 0
1, 5712, Note_on_c, 0, 76, 69
1, 5712, Note_on_c, 0, 72, 69
1, 5757, Note_on_c, 0, 76, 0
1, 5757, Note_on_c, 0, 72, 0
1, 5760, Note_on_c, 0, 74, 69
1, 5760, Note_on_c, 0, 71, 69
1, 5808, Note_on_c, 0, 55, 69
1, 5828, Note_on_c, 0, 55, 0
1, 5856, Note_on_c, 0, 43, 69
1, 5893, Note_on_c, 0, 74, 0
1, 5893, Note_on_c, 0, 71, 0
1, 5904, Note_on_c, 0, 76, 69
1, 5919, Note_on_c, 0, 76, 0
1, 5920, Note_on_c, 0, 74, 69
1, 5935, Note_on_c, 0, 74, 0
1, 5936, Note_on_c, 0, 72, 69
1, 5945, Note_on_c, 0, 43, 0
1, 5951, Note_on_c, 0, 72, 0
1, 5952, Note_on_c, 0, 71, 69
1, 6000, Note_on_c, 0, 55, 69
1, 6020, Note_on_c, 0, 55, 0
1, 6048, Note_on_c, 0, 43, 69
1, 6085, Note_on_c, 0, 71, 0
1, 6096, Note_on_c, 0, 71, 69
1, 6108, Note_on_c, 0, 71, 0
1, 6108, Note_on_c, 0, 69, 69
1, 6120, Note_on_c, 0, 69, 0
1, 6120, Note_on_c, 0, 67, 69
1, 6132, Note_on_c, 0, 67, 0
1, 6132, Note_on_c, 0, 66, 69
1, 6137, Note_on_c, 0, 43, 0
1, 6144, Note_on_c, 0, 66, 0
1, 6144, Note_on_c, 0, 64, 69
1, 6144, Note_on_c, 0, 48, 69
1, 6164, Note_on_c, 0, 64, 0
1, 6192, Note_on_c, 0, 76, 69
1, 6192, Note_on_c, 0, 72, 69
1, 6233, Note_on_c, 0, 48, 0
1, 6237, Note_on_c, 0, 76, 0
1, 6237, Note_on_c, 0, 72, 0
1, 6240, Note_on_c, 0, 74, 69
1, 6240, Note_on_c, 0, 71, 69
1, 6240, Note_on_c, 0, 50, 69
1, 6285, Note_on_c, 0, 74, 0
1, 6285, Note_on_c, 0, 71, 0
1, 6288, Note_on_c, 0, 72, 69
1, 6288, Note_on_c, 0, 69, 69
1, 6329, Note_on_c, 0, 50, 0
1, 6333, Note_on_c, 0, 72, 0
1, 6333, Note_on_c, 0, 69, 0
1, 6336, Note_on_c, 0, 72, 69
1, 6336, Note_on_c, 0, 69, 69
1, 6336, Note_on_c, 0, 55, 69
1, 6381, Note_on_c, 0, 55, 0
1, 6384, Note_on_c, 0, 50, 69
1, 6429, Note_on_c, 0, 50, 0
1, 6432, Note_on_c, 0, 72, 0
1, 6432, Note_on_c, 0, 69, 0
1, 6432, Note_on_c, 0, 71, 69
1, 6432, Note_on_c, 0, 67, 69
1, 6432, Note_on_c, 0, 43, 69
1, 6477, Note_on_c, 0, 43, 0
1, 6480, Note_on_c, 0, 67, 0
1, 6492, Note_on_c, 0, 71, 0
1, 6492, Note_on_c, 0, 69, 69
1, 6504, Note_on_c, 0, 69, 0
1, 6504, Note_on_c, 0, 67, 69
1, 6516, Note_on_c, 0, 67, 0
1, 6516, Note_on_c, 0, 66, 69
1, 6528, Note_on_c, 0, 66, 0
1, 6528, Note_on_c, 0, 64, 69
1, 6528, Note_on_c, 0, 48, 69
1, 6548, Note_on_c, 0, 64, 0
1, 6576, Note_on_c, 0, 76, 69
1, 6576, Note_on_c, 0, 72, 69
1, 6617, Note_on_c, 0, 48, 0
1, 6621, Note_on_c, 0, 76, 0
1, 6621, Note_on_c, 0, 72, 0
1, 6624, Note_on_c, 0, 74, 69
1, 6624, Note_on_c, 0, 71, 69
1, 6624, Note_on_c, 0, 50, 69
1, 6669, Note_on_c, 0, 74, 0
1, 6669, Note_on_c, 0, 71, 0
1, 6672, Note_on_c, 0, 66, 69
1, 6672, Note_on_c, 0, 60, 69
1, 6713, Note_on_c, 0, 50, 0
1, 6717, Note_on_c, 0, 66, 0
1, 6717, Note_on_c, 0, 60, 0
1, 6720, Note_on_c, 0, 67, 69
1, 6720, Note_on_c, 0, 59, 69
1, 6720, Note_on_c, 0, 55, 69
1, 6765, Note_on_c, 0, 55, 0
1, 6768, Note_on_c, 0, 50, 69
1, 6809, Note_on_c, 0, 67, 0
1, 6809, Note_on_c, 0, 59, 0
1, 6813, Note_on_c, 0, 50, 0
1, 6816, Note_on_c, 0, 43, 69
1, 6861, Note_on_c, 0, 43, 0
1, 6864, Note_on_c, 0, 74, 69
1, 6876, Note_on_c, 0, 74, 0
1, 6876, Note_on_c, 0, 72, 69
1, 6888, Note_on_c, 0, 72, 0
1, 6888, Note_on_c, 0, 71, 69
1, 6900, Note_on_c, 0, 71, 0
1, 6900, Note_on_c, 0, 69, 69
1, 6912, Note_on_c, 0, 69, 0
1, 6912, Note_on_c, 0, 67, 69
1, 6932, Note_on_c, 0, 67, 0
1, 6960, Note_on_c, 0, 79, 69
1, 6960, Note_on_c, 0, 76, 69
1, 7005, Note_on_c, 0, 79, 0
1, 7005, Note_on_c, 0, 76, 0
1, 7008, Note_on_c, 0, 78, 69
1, 7008, Note_on_c, 0, 74, 69
1, 7053, Note_on_c, 0, 78, 0
1, 7053, Note_on_c, 0, 74, 0
1, 7056, Note_on_c, 0, 76, 69
1, 7056, Note_on_c, 0, 72, 69
1, 7101, Note_on_c, 0, 76, 0
1, 7101, Note_on_c, 0, 72, 0
1, 7104, Note_on_c, 0, 74, 69
1, 7104, Note_on_c, 0, 71, 69
1, 7152, Note_on_c, 0, 55, 69
1, 7172, Note_on_c, 0, 55, 0
1, 7200, Note_on_c, 0, 43, 69
1, 7237, Note_on_c, 0, 74, 0
1, 7237, Note_on_c, 0, 71, 0
1, 7248, Note_on_c, 0, 74, 69
1, 7263, Note_on_c, 0, 74, 0
1, 7264, Note_on_c, 0, 79, 69
1, 7279, Note_on_c, 0, 79, 0
1, 7280, Note_on_c, 0, 83, 69
1, 7289, Note_on_c, 0, 43, 0
1, 7295, Note_on_c, 0, 83, 0
1, 7296, Note_on_c, 0, 81, 69
1, 7344, Note_on_c, 0, 62, 69
1, 7344, Note_on_c, 0, 54, 69
1, 7364, Note_on_c, 0, 62, 0
1, 7364, Note_on_c, 0, 54, 0
1, 7392, Note_on_c, 0, 62, 69
1, 7392, Note_on_c, 0, 54, 69
1, 7429, Note_on_c, 0, 81, 0
1, 7440, Note_on_c, 0, 79, 69
1, 7452, Note_on_c, 0, 79, 0
1, 7452, Note_on_c, 0, 78, 69
1, 7464, Note_on_c, 0, 78, 0
1, 7464, Note_on_c, 0, 76, 69
1, 7476, Note_on_c, 0, 76, 0
1, 7476, Note_on_c, 0, 74, 69
1, 7486, Note_on_c, 0, 62, 0
1, 7486, Note_on_c, 0, 54, 0
1, 7488, Note_on_c, 0, 74, 0
1, 7488, Note_on_c, 0, 73, 69
1, 7508, Note_on_c, 0, 73, 0
1, 7536, Note_on_c, 0, 79, 85
1, 7536, Note_on_c, 0, 76, 85
1, 7536, Note_on_c, 0, 61, 69
1, 7581, Note_on_c, 0, 61, 0
1, 7584, Note_on_c, 0, 61, 69
1, 7629, Note_on_c, 0, 61, 0
1, 7632, Note_on_c, 0, 79, 0
1, 7632, Note_on_c, 0, 76, 0
1, 7632, Note_on_c, 0, 78, 69
1, 7632, Note_on_c, 0, 74, 69
1, 7632, Note_on_c, 0, 62, 69
1, 7677, Note_on_c, 0, 78, 0
1, 7677, Note_on_c, 0, 74, 0
1, 7677, Note_on_c, 0, 62, 0
1, 7680, Note_on_c, 0, 78, 69
1, 7680, Note_on_c, 0, 74, 69
1, 7680, Note_on_c, 0, 57, 69
1, 7728, Note_on_c, 0, 78, 0
1, 7728, Note_on_c, 0, 74, 0
1, 7728, Note_on_c, 0, 76, 69
1, 7728, Note_on_c, 0, 73, 69
1, 7769, Note_on_c, 0, 57, 0
1, 7773, Note_on_c, 0, 76, 0
1, 7773, Note_on_c, 0, 73, 0
1, 7824, Note_on_c, 0, 69, 69
1, 7836, Note_on_c, 0, 69, 0
1, 7836, Note_on_c, 0, 67, 69
1, 7848, Note_on_c, 0, 67, 0
1, 7848, Note_on_c, 0, 66, 69
1, 7860, Note_on_c, 0, 66, 0
1, 7860, Note_on_c, 0, 64, 69
1, 7872, Note_on_c, 0, 64, 0
1, 7872, Note_on_c, 0, 62, 69
1, 7892, Note_on_c, 0, 62, 0
1, 7920, Note_on_c, 0, 74, 69
1, 7920, Note_on_c, 0, 59, 69
1, 7943, Note_on_c, 0, 74, 0
1, 7944, Note_on_c, 0, 62, 69
1, 7965, Note_on_c, 0, 59, 0
1, 7967, Note_on_c, 0, 62, 0
1, 7968, Note_on_c, 0, 73, 69
1, 7968, Note_on_c, 0, 57, 69
1, 7991, Note_on_c, 0, 73, 0
1, 7992, Note_on_c, 0, 62, 69
1, 8013, Note_on_c, 0, 57, 0
1, 8015, Note_on_c, 0, 62, 0
1, 8016, Note_on_c, 0, 71, 69
1, 8016, Note_on_c, 0, 55, 69
1, 8039, Note_on_c, 0, 71, 0
1, 8040, Note_on_c, 0, 62, 69
1, 8061, Note_on_c, 0, 55, 0
1, 8063, Note_on_c, 0, 62, 0
1, 8064, Note_on_c, 0, 69, 69
1, 8064, Note_on_c, 0, 54, 69
1, 8087, Note_on_c, 0, 69, 0
1, 8088, Note_on_c, 0, 62, 69
1, 8109, Note_on_c, 0, 54, 0
1, 8111, Note_on_c, 0, 62, 0
1, 8112, Note_on_c, 0, 67, 69
1, 8112, Note_on_c, 0, 52, 69
1, 8135, Note_on_c, 0, 67, 0
1, 8136, Note_on_c, 0, 62, 69
1, 8157, Note_on_c, 0, 52, 0
1, 8159, Note_on_c, 0, 62, 0
1, 8160, Note_on_c, 0, 66, 69
1, 8160, Note_on_c, 0, 50, 69
1, 8180, Note_on_c, 0, 66, 0
1, 8205, Note_on_c, 0, 50, 0
1, 8208, Note_on_c, 0, 69, 69
1, 8220, Note_on_c, 0, 69, 0
1, 8220, Note_on_c, 0, 67, 69
1, 8232, Note_on_c, 0, 67, 0
1, 8232, Note_on_c, 0, 66, 69
1, 8244, Note_on_c, 0, 66, 0
1, 8244, Note_on_c, 0, 64, 69
1, 8256, Note_on_c, 0, 64, 0
1, 8256, Note_on_c, 0, 62, 69
1, 8276, Note_on_c, 0, 62, 0
1, 8304, Note_on_c, 0, 74, 69
1, 8304, Note_on_c, 0, 59, 69
1, 8327, Note_on_c, 0, 74, 0
1, 8328, Note_on_c, 0, 62, 69
1, 8349, Note_on_c, 0, 59, 0
1, 8351, Note_on_c, 0, 62, 0
1, 8352, Note_on_c, 0, 73, 69
1, 8352, Note_on_c, 0, 57, 69
1, 8375, Note_on_c, 0, 73, 0
1, 8376, Note_on_c, 0, 62, 69
1, 8397, Note_on_c, 0, 57, 0
1, 8399, Note_on_c, 0, 62, 0
1, 8400, Note_on_c, 0, 71, 69
1, 8400, Note_on_c, 0, 55, 69
1, 8423, Note_on_c, 0, 71, 0
1, 8424, Note_on_c, 0, 62, 69
1, 8445, Note_on_c, 0, 55, 0
1, 8447, Note_on_c, 0, 62, 0
1, 8448, Note_on_c, 0, 69, 69
1, 8448, Note_on_c, 0, 54, 69
1, 8471, Note_on_c, 0, 69, 0
1, 8472, Note_on_c, 0, 62, 69
1, 8493, Note_on_c, 0, 54, 0
1, 8495, Note_on_c, 0, 62, 0
1, 8496, Note_on_c, 0, 67, 69
1, 8496, Note_on_c, 0, 52, 69
1, 8519, Note_on_c, 0, 67, 0
1, 8520, Note_on_c, 0, 62, 69
1, 8541, Note_on_c, 0, 52, 0
1, 8543, Note_on_c, 0, 62, 0
1, 8544, Note_on_c, 0, 66, 69
1, 8544, Note_on_c, 0, 50, 69
1, 8589, Note_on_c, 0, 50, 0
1, 8592, Note_on_c, 0, 66, 0
1, 8592, Note_on_c, 0, 69, 69
1, 8637, Note_on_c, 0, 69, 0
1, 8640, Note_on_c, 0, 67, 69
1, 8640, Note_on_c, 0, 49, 61
1, 8663, Note_on_c, 0, 49, 0
1, 8664, Note_on_c, 0, 57, 61
1, 8687, Note_on_c, 0, 57, 0
1, 8688, Note_on_c, 0, 67, 0
1, 8688, Note_on_c, 0, 64, 69
1, 8688, Note_on_c, 0, 49, 61
1, 8711, Note_on_c, 0, 49, 0
1, 8712, Note_on_c, 0, 57, 61
1, 8733, Note_on_c, 0, 64, 0
1, 8735, Note_on_c, 0, 57, 0
1, 8736, Note_on_c, 0, 49, 61
1, 8759, Note_on_c, 0, 49, 0
1, 8760, Note_on_c, 0, 57, 61
1, 8783, Note_on_c, 0, 57, 0
1, 8784, Note_on_c, 0, 79, 69
1, 8784, Note_on_c, 0, 76, 69
1, 8784, Note_on_c, 0, 49, 61
1, 8804, Note_on_c, 0, 79, 0
1, 8804, Note_on_c, 0, 76, 0
1, 8807, Note_on_c, 0, 49, 0
1, 8808, Note_on_c, 0, 57, 61
1, 8831, Note_on_c, 0, 57, 0
1, 8832, Note_on_c, 0, 78, 69
1, 8832, Note_on_c, 0, 74, 64
1, 8832, Note_on_c, 0, 50, 61
1, 8855, Note_on_c, 0, 50, 0
1, 8856, Note_on_c, 0, 57, 61
1, 8879, Note_on_c, 0, 57, 0
1, 8880, Note_on_c, 0, 78, 0
1, 8880, Note_on_c, 0, 81, 69
1, 8880, Note_on_c, 0, 74, 0
1, 8880, Note_on_c, 0, 78, 64
1, 8880, Note_on_c, 0, 50, 61
1, 8903, Note_on_c, 0, 50, 0
1, 8904, Note_on_c, 0, 57, 61
1, 8925, Note_on_c, 0, 81, 0
1, 8925, Note_on_c, 0, 78, 0
1, 8927, Note_on_c, 0, 57, 0
1, 8928, Note_on_c, 0, 50, 61
1, 8951, Note_on_c, 0, 50, 0
1, 8952, Note_on_c, 0, 57, 61
1, 8975, Note_on_c, 0, 57, 0
1, 8976, Note_on_c, 0, 69, 69
1, 8976, Note_on_c, 0, 50, 61
1, 8996, Note_on_c, 0, 69, 0
1, 8999, Note_on_c, 0, 50, 0
1, 9000, Note_on_c, 0, 57, 61
1, 9023, Note_on_c, 0, 57, 0
1, 9024, Note_on_c, 0, 67, 69
1, 9024, Note_on_c, 0, 49, 61
1, 9047, Note_on_c, 0, 49, 0
1, 9048, Note_on_c, 0, 57, 61
1, 9071, Note_on_c, 0, 57, 0
1, 9072, Note_on_c, 0, 67, 0
1, 9072, Note_on_c, 0, 64, 69
1, 9072, Note_on_c, 0, 49, 61
1, 9095, Note_on_c, 0, 49, 0
1, 9096, Note_on_c, 0, 57, 61
1, 9117, Note_on_c, 0, 64, 0
1, 9119, Note_on_c, 0, 57, 0
1, 9120, Note_on_c, 0, 49, 61
1, 9143, Note_on_c, 0, 49, 0
1, 9144, Note_on_c, 0, 57, 61
1, 9167, Note_on_c, 0, 57, 0
1, 9168, Note_on_c, 0, 79, 69
1, 9168, Note_on_c, 0, 76, 69
1, 9168, Note_on_c, 0, 49, 61
1, 9188, Note_on_c, 0, 79, 0
1, 9188, Note_on_c, 0, 76, 0
1, 9191, Note_on_c, 0, 49, 0
1, 9192, Note_on_c, 0, 57, 61
1, 9215, Note_on_c, 0, 57, 0
1, 9216, Note_on_c, 0, 78, 69
1, 9216, Note_on_c, 0, 74, 64
1, 9216, Note_on_c, 0, 50, 61
1, 9239, Note_on_c, 0, 50, 0
1, 9240, Note_on_c, 0, 57, 61
1, 9263, Note_on_c, 0, 57, 0
1, 9264, Note_on_c, 0, 78, 0
1, 9264, Note_on_c, 0, 81, 69
1, 9264, Note_on_c, 0, 74, 0
1, 9264, Note_on_c, 0, 78, 64
1, 9264, Note_on_c, 0, 50, 61
1, 9287, Note_on_c, 0, 50, 0
1, 9288, Note_on_c, 0, 57, 61
1, 9309, Note_on_c, 0, 81, 0
1, 9309, Note_on_c, 0, 78, 0
1, 9311, Note_on_c, 0, 57, 0
1, 9312, Note_on_c, 0, 50, 61
1, 9335, Note_on_c, 0, 50, 0
1, 9336, Note_on_c, 0, 57, 61
1, 9359, Note_on_c, 0, 57, 0
1, 9360, Note_on_c, 0, 69, 69
1, 9360, Note_on_c, 0, 50, 61
1, 9380, Note_on_c, 0, 69, 0
1, 9383, Note_on_c, 0, 50, 0
1, 9384, Note_on_c, 0, 57, 61
1, 9407, Note_on_c, 0, 57, 0
1, 9408, Note_on_c, 0, 67, 69
1, 9408, Note_on_c, 0, 49, 61
1, 9431, Note_on_c, 0, 49, 0
1, 9432, Note_on_c, 0, 57, 61
1, 9455, Note_on_c, 0, 57, 0
1, 9456, Note_on_c, 0, 67, 0
1, 9456, Note_on_c, 0, 64, 69
1, 9456, Note_on_c, 0, 49, 62
1, 9479, Note_on_c, 0, 49, 0
1, 9480, Note_on_c, 0, 57, 63
1, 9501, Note_on_c, 0, 64, 0
1, 9503, Note_on_c, 0, 57, 0
1, 9504, Note_on_c, 0, 49, 63
1, 9527, Note_on_c, 0, 49, 0
1, 9528, Note_on_c, 0, 57, 64
1, 9551, Note_on_c, 0, 57, 0
1, 9552, Note_on_c, 0, 79, 69
1, 9552, Note_on_c, 0, 76, 69
1, 9552, Note_on_c, 0, 49, 65
1, 9575, Note_on_c, 0, 49, 0
1, 9576, Note_on_c, 0, 57, 65
1, 9599, Note_on_c, 0, 57, 0
1, 9600, Note_on_c, 0, 79, 0
1, 9600, Note_on_c, 0, 76, 0
1, 9600, Note_on_c, 0, 78, 69
1, 9600, Note_on_c, 0, 74, 69
1, 9600, Note_on_c, 0, 50, 66
1, 9645, Note_on_c, 0, 78, 0
1, 9645, Note_on_c, 0, 74, 0
1, 9648, Note_on_c, 0, 69, 69
1, 9663, Note_on_c, 0, 69, 0
1, 9664, Note_on_c, 0, 71, 69
1, 9679, Note_on_c, 0, 71, 0
1, 9680, Note_on_c, 0, 73, 69
1, 9689, Note_on_c, 0, 50, 0
1, 9695, Note_on_c, 0, 73, 0
1, 9696, Note_on_c, 0, 74, 69
1, 9711, Note_on_c, 0, 74, 0
1, 9712, Note_on_c, 0, 76, 69
1, 9727, Note_on_c, 0, 76, 0
1, 9728, Note_on_c, 0, 78, 69
1, 9743, Note_on_c, 0, 78, 0
1, 9744, Note_on_c, 0, 76, 69
1, 9744, Note_on_c, 0, 61, 69
1, 9759, Note_on_c, 0, 76, 0
1, 9760, Note_on_c, 0, 78, 69
1, 9775, Note_on_c, 0, 78, 0
1, 9776, Note_on_c, 0, 79, 69
1, 9789, Note_on_c, 0, 61, 0
1, 9791, Note_on_c, 0, 79, 0
1, 9792, Note_on_c, 0, 78, 69
1, 9792, Note_on_c, 0, 62, 69
1, 9837, Note_on_c, 0, 78, 0
1, 9840, Note_on_c, 0, 69, 69
1, 9855, Note_on_c, 0, 69, 0
1, 9856, Note_on_c, 0, 71, 69
1, 9871, Note_on_c, 0, 71, 0
1, 9872, Note_on_c, 0, 73, 69
1, 9881, Note_on_c, 0, 62, 0
1, 9887, Note_on_c, 0, 73, 0
1, 9888, Note_on_c, 0, 74, 69
1, 9903, Note_on_c, 0, 74, 0
1, 9904, Note_on_c, 0, 76, 69
1, 9919, Note_on_c, 0, 76, 0
1, 9920, Note_on_c, 0, 78, 69
1, 9935, Note_on_c, 0, 78, 0
1, 9936, Note_on_c, 0, 76, 69
1, 9936, Note_on_c, 0, 61, 69
1, 9951, Note_on_c, 0, 76, 0
1, 9952, Note_on_c, 0, 78, 69
1, 9967, Note_on_c, 0, 78, 0
1, 9968, Note_on_c, 0, 79, 69
1, 9981, Note_on_c, 0, 61, 0
1, 9983, Note_on_c, 0, 79, 0
1, 9984, Note_on_c, 0, 78, 69
1, 9984, Note_on_c, 0, 62, 69
1, 10004, Note_on_c, 0, 78, 0
1, 10032, Note_on_c, 0, 81, 69
1, 10047, Note_on_c, 0, 81, 0
1, 10048, Note_on_c, 0, 79, 69
1, 10063, Note_on_c, 0, 79, 0
1, 10064, Note_on_c, 0, 78, 69
1, 10073, Note_on_c, 0, 62, 0
1, 10079, Note_on_c, 0, 78, 0
1, 10080, Note_on_c, 0, 83, 69
1, 10080, Note_on_c, 0, 55, 69
1, 10100, Note_on_c, 0, 83, 0
1, 10128, Note_on_c, 0, 79, 69
1, 10143, Note_on_c, 0, 79, 0
1, 10144, Note_on_c, 0, 78, 69
1, 10159, Note_on_c, 0, 78, 0
1, 10160, Note_on_c, 0, 76, 69
1, 10169, Note_on_c, 0, 55, 0
1, 10175, Note_on_c, 0, 76, 0
1, 10176, Note_on_c, 0, 74, 69
1, 10224, Note_on_c, 0, 54, 69
1, 10265, Note_on_c, 0, 74, 0
1, 10269, Note_on_c, 0, 54, 0
1, 10272, Note_on_c, 0, 76, 69
1, 10272, Note_on_c, 0, 55, 69
1, 10285, Note_on_c, 0, 76, 0
1, 10286, Note_on_c, 0, 78, 69
1, 10299, Note_on_c, 0, 78, 0
1, 10300, Note_on_c, 0, 76, 69
1, 10313, Note_on_c, 0, 76, 0
1, 10314, Note_on_c, 0, 78, 69
1, 10317, Note_on_c, 0, 55, 0
1, 10320, Note_on_c, 0, 57, 69
1, 10327, Note_on_c, 0, 78, 0
1, 10328, Note_on_c, 0, 76, 69
1, 10341, Note_on_c, 0, 76, 0
1, 10342, Note_on_c, 0, 78, 69
1, 10354, Note_on_c, 0, 78, 0
1, 10355, Note_on_c, 0, 76, 69
1, 10365, Note_on_c, 0, 57, 0
1, 10367, Note_on_c, 0, 76, 0
1, 10368, Note_on_c, 0, 78, 69
1, 10368, Note_on_c, 0, 62, 69
1, 10388, Note_on_c, 0, 78, 0
1, 10416, Note_on_c, 0, 81, 69
1, 10431, Note_on_c, 0, 81, 0
1, 10432, Note_on_c, 0, 79, 69
1, 10447, Note_on_c, 0, 79, 0
1, 10448, Note_on_c, 0, 78, 69
1, 10457, Note_on_c, 0, 62, 0
1, 10463, Note_on_c, 0, 78, 0
1, 10464, Note_on_c, 0, 83, 69
1, 10464, Note_on_c, 0, 55, 69
1, 10484, Note_on_c, 0, 83, 0
1, 10512, Note_on_c, 0, 79, 69
1, 10527, Note_on_c, 0, 79, 0
1, 10528, Note_on_c, 0, 78, 69
1, 10543, Note_on_c, 0, 78, 0
1, 10544, Note_on_c, 0, 76, 69
1, 10553, Note_on_c, 0, 55, 0
1, 10559, Note_on_c, 0, 76, 0
1, 10560, Note_on_c, 0, 74, 69
1, 10608, Note_on_c, 0, 54, 69
1, 10649, Note_on_c, 0, 74, 0
1, 10653, Note_on_c, 0, 54, 0
1, 10656, Note_on_c, 0, 76, 69
1, 10656, Note_on_c, 0, 55, 69
1, 10669, Note_on_c, 0, 76, 0
1, 10670, Note_on_c, 0, 78, 69
1, 10683, Note_on_c, 0, 78, 0
1, 10684, Note_on_c, 0, 76, 69
1, 10697, Note_on_c, 0, 76, 0
1, 10698, Note_on_c, 0, 78, 69
1, 10701, Note_on_c, 0, 55, 0
1, 10704, Note_on_c, 0, 57, 69
1, 10711, Note_on_c, 0, 78, 0
1, 10712, Note_on_c, 0, 76, 69
1, 10725, Note_on_c, 0, 76, 0
1, 10726, Note_on_c, 0, 74, 69
1, 10738, Note_on_c, 0, 74, 0
1, 10739, Note_on_c, 0, 76, 69
1, 10749, Note_on_c, 0, 57, 0
1, 10751, Note_on_c, 0, 76, 0
1, 10752, Note_on_c, 0, 74, 69
1, 10752, Note_on_c, 0, 50, 69
1, 10841, Note_on_c, 0, 74, 0
1, 10841, Note_on_c, 0, 50, 0
1, 10896, Note_on_c, 0, 69, 69
1, 10908, Note_on_c, 0, 69, 0
1, 10908, Note_on_c, 0, 67, 69
1, 10920, Note_on_c, 0, 67, 0
1, 10920, Note_on_c, 0, 66, 69
1, 10932, Note_on_c, 0, 66, 0
1, 10932, Note_on_c, 0, 64, 69
1, 10944, Note_on_c, 0, 64, 0
1, 10944, Note_on_c, 0, 62, 69
1, 10964, Note_on_c, 0, 62, 0
1, 10992, Note_on_c, 0, 74, 69
1, 10992, Note_on_c, 0, 71, 69
1, 11037, Note_on_c, 0, 74, 0
1, 11037, Note_on_c, 0, 71, 0
1, 11040, Note_on_c, 0, 73, 69
1, 11040, Note_on_c, 0, 69, 69
1, 11085, Note_on_c, 0, 73, 0
1, 11085, Note_on_c, 0, 69, 0
1, 11088, Note_on_c, 0, 71, 69
1, 11088, Note_on_c, 0, 67, 69
1, 11133, Note_on_c, 0, 71, 0
1, 11133, Note_on_c, 0, 67, 0
1, 11136, Note_on_c, 0, 69, 69
1, 11136, Note_on_c, 0, 66, 69
1, 11184, Note_on_c, 0, 50, 69
1, 11204, Note_on_c, 0, 50, 0
1, 11232, Note_on_c, 0, 38, 69
1, 11280, Note_on_c, 0, 69, 0
1, 11280, Note_on_c, 0, 66, 0
1, 11280, Note_on_c, 0, 71, 69
1, 11280, Note_on_c, 0, 67, 69
1, 11321, Note_on_c, 0, 38, 0
1, 11325, Note_on_c, 0, 71, 0
1, 11325, Note_on_c, 0, 67, 0
1, 11328, Note_on_c, 0, 72, 69
1, 11328, Note_on_c, 0, 69, 69
1, 11376, Note_on_c, 0, 50, 69
1, 11396, Note_on_c, 0, 50, 0
1, 11424, Note_on_c, 0, 38, 69
1, 11461, Note_on_c, 0, 72, 0
1, 11461, Note_on_c, 0, 69, 0
1, 11472, Note_on_c, 0, 76, 69
1, 11487, Note_on_c, 0, 76, 0
1, 11488, Note_on_c, 0, 74, 69
1, 11503, Note_on_c, 0, 74, 0
1, 11504, Note_on_c, 0, 72, 69
1, 11513, Note_on_c, 0, 38, 0
1, 11519, Note_on_c, 0, 72, 0
1, 11520, Note_on_c, 0, 71, 69
1, 11520, Note_on_c, 0, 55, 69
1, 11540, Note_on_c, 0, 71, 0
1, 11568, Note_on_c, 0, 79, 69
1, 11568, Note_on_c, 0, 76, 69
1, 11609, Note_on_c, 0, 55, 0
1, 11613, Note_on_c, 0, 79, 0
1, 11613, Note_on_c, 0, 76, 0
1, 11616, Note_on_c, 0, 78, 69
1, 11616, Note_on_c, 0, 74, 69
1, 11661, Note_on_c, 0, 78, 0
1, 11661, Note_on_c, 0, 74, 0
1, 11664, Note_on_c, 0, 76, 69
1, 11664, Note_on_c, 0, 72, 69
1, 11709, Note_on_c, 0, 76, 0
1, 11709, Note_on_c, 0, 72, 0
1, 11712, Note_on_c, 0, 74, 69
1, 11712, Note_on_c, 0, 71, 69
1, 11760, Note_on_c, 0, 55, 69
1, 11780, Note_on_c, 0, 55, 0
1, 11808, Note_on_c, 0, 43, 69
1, 11856, Note_on_c, 0, 74, 0
1, 11856, Note_on_c, 0, 71, 0
1, 11856, Note_on_c, 0, 76, 69
1, 11856, Note_on_c, 0, 72, 69
1, 11897, Note_on_c, 0, 43, 0
1, 11901, Note_on_c, 0, 76, 0
1, 11901, Note_on_c, 0, 72, 0
1, 11904, Note_on_c, 0, 77, 69
1, 11904, Note_on_c, 0, 74, 69
1, 11952, Note_on_c, 0, 55, 69
1, 11972, Note_on_c, 0, 55, 0
1, 12000, Note_on_c, 0, 43, 69
1, 12037, Note_on_c, 0, 77, 0
1, 12037, Note_on_c, 0, 74, 0
1, 12048, Note_on_c, 0, 81, 69
1, 12063, Note_on_c, 0, 81, 0
1, 12064, Note_on_c, 0, 79, 69
1, 12079, Note_on_c, 0, 79, 0
1, 12080, Note_on_c, 0, 77, 69
1, 12089, Note_on_c, 0, 43, 0
1, 12095, Note_on_c, 0, 77, 0
1, 12096, Note_on_c, 0, 76, 69
1, 12096, Note_on_c, 0, 60, 61
1, 12119, Note_on_c, 0, 60, 0
1, 12120, Note_on_c, 0, 67, 61
1, 12143, Note_on_c, 0, 67, 0
1, 12144, Note_on_c, 0, 76, 0
1, 12144, Note_on_c, 0, 79, 69
1, 12144, Note_on_c, 0, 60, 61
1, 12167, Note_on_c, 0, 60, 0
1, 12168, Note_on_c, 0, 67, 61
1, 12189, Note_on_c, 0, 79, 0
1, 12191, Note_on_c, 0, 67, 0
1, 12192, Note_on_c, 0, 60, 61
1, 12215, Note_on_c, 0, 60, 0
1, 12216, Note_on_c, 0, 67, 61
1, 12239, Note_on_c, 0, 67, 0
1, 12240, Note_on_c, 0, 79, 69
1, 12240, Note_on_c, 0, 60, 61
1, 12260, Note_on_c, 0, 79, 0
1, 12263, Note_on_c, 0, 60, 0
1, 12264, Note_on_c, 0, 67, 61
1, 12287, Note_on_c, 0, 67, 0
1, 12288, Note_on_c, 0, 77, 69
1, 12288, Note_on_c, 0, 62, 61
1, 12311, Note_on_c, 0, 62, 0
1, 12312, Note_on_c, 0, 67, 61
1, 12335, Note_on_c, 0, 67, 0
1, 12336, Note_on_c, 0, 77, 0
1, 12336, Note_on_c, 0, 74, 69
1, 12336, Note_on_c, 0, 62, 61
1, 12359, Note_on_c, 0, 62, 0
1, 12360, Note_on_c, 0, 67, 61
1, 12381, Note_on_c, 0, 74, 0
1, 12383, Note_on_c, 0, 67, 0
1, 12384, Note_on_c, 0, 62, 61
1, 12407, Note_on_c, 0, 62, 0
1, 12408, Note_on_c, 0, 67, 61
1, 12431, Note_on_c, 0, 67, 0
1, 12432, Note_on_c, 0, 77, 69
1, 12432, Note_on_c, 0, 62, 61
1, 12452, Note_on_c, 0, 77, 0
1, 12455, Note_on_c, 0, 62, 0
1, 12456, Note_on_c, 0, 67, 61
1, 12479, Note_on_c, 0, 67, 0
1, 12480, Note_on_c, 0, 76, 69
1, 12480, Note_on_c, 0, 60, 61
1, 12503, Note_on_c, 0, 60, 0
1, 12504, Note_on_c, 0, 67, 61
1, 12527, Note_on_c, 0, 67, 0
1, 12528, Note_on_c, 0, 76, 0
1, 12528, Note_on_c, 0, 79, 69
1, 12528, Note_on_c, 0, 60, 61
1, 12551, Note_on_c, 0, 60, 0
1, 12552, Note_on_c, 0, 67, 61
1, 12573, Note_on_c, 0, 79, 0
1, 12575, Note_on_c, 0, 67, 0
1, 12576, Note_on_c, 0, 60, 61
1, 12599, Note_on_c, 0, 60, 0
1, 12600, Note_on_c, 0, 67, 61
1, 12623, Note_on_c, 0, 67, 0
1, 12624, Note_on_c, 0, 79, 69
1, 12624, Note_on_c, 0, 60, 61
1, 12644, Note_on_c, 0, 79, 0
1, 12647, Note_on_c, 0, 60, 0
1, 12648, Note_on_c, 0, 67, 61
1, 12671, Note_on_c, 0, 67, 0
1, 12672, Note_on_c, 0, 77, 69
1, 12672, Note_on_c, 0, 62, 61
1, 12695, Note_on_c, 0, 62, 0
1, 12696, Note_on_c, 0, 67, 61
1, 12719, Note_on_c, 0, 67, 0
1, 12720, Note_on_c, 0, 77, 0
1, 12720, Note_on_c, 0, 74, 69
1, 12720, Note_on_c, 0, 62, 61
1, 12743, Note_on_c, 0, 62, 0
1, 12744, Note_on_c, 0, 67, 61
1, 12765, Note_on_c, 0, 74, 0
1, 12767, Note_on_c, 0, 67, 0
1, 12768, Note_on_c, 0, 62, 61
1, 12791, Note_on_c, 0, 62, 0
1, 12792, Note_on_c, 0, 67, 61
1, 12815, Note_on_c, 0, 67, 0
1, 12816, Note_on_c, 0, 77, 69
1, 12816, Note_on_c, 0, 62, 61
1, 12836, Note_on_c, 0, 77, 0
1, 12839, Note_on_c, 0, 62, 0
1, 12840, Note_on_c, 0, 67, 61
1, 12863, Note_on_c, 0, 67, 0
1, 12864, Note_on_c, 0, 76, 69
1, 12864, Note_on_c, 0, 60, 61
1, 12887, Note_on_c, 0, 60, 0
1, 12888, Note_on_c, 0, 67, 61
1, 12911, Note_on_c, 0, 67, 0
1, 12912, Note_on_c, 0, 76, 0
1, 12912, Note_on_c, 0, 79, 69
1, 12912, Note_on_c, 0, 60, 61
1, 12935, Note_on_c, 0, 60, 0
1, 12936, Note_on_c, 0, 67, 61
1, 12957, Note_on_c, 0, 79, 0
1, 12959, Note_on_c, 0, 67, 0
1, 12960, Note_on_c, 0, 60, 61
1, 12983, Note_on_c, 0, 60, 0
1, 12984, Note_on_c, 0, 67, 61
1, 13007, Note_on_c, 0, 67, 0
1, 13008, Note_on_c, 0, 76, 69
1, 13008, Note_on_c, 0, 60, 61
1, 13028, Note_on_c, 0, 76, 0
1, 13031, Note_on_c, 0, 60, 0
1, 13032, Note_on_c, 0, 67, 61
1, 13055, Note_on_c, 0, 67, 0
1, 13056, Note_on_c, 0, 76, 69
1, 13056, Note_on_c, 0, 61, 61
1, 13079, Note_on_c, 0, 61, 0
1, 13080, Note_on_c, 0, 69, 61
1, 13103, Note_on_c, 0, 69, 0
1, 13104, Note_on_c, 0, 76, 0
1, 13104, Note_on_c, 0, 81, 69
1, 13104, Note_on_c, 0, 61, 61
1, 13127, Note_on_c, 0, 61, 0
1, 13128, Note_on_c, 0, 69, 61
1, 13149, Note_on_c, 0, 81, 0
1, 13151, Note_on_c, 0, 69, 0
1, 13152, Note_on_c, 0, 61, 61
1, 13175, Note_on_c, 0, 61, 0
1, 13176, Note_on_c, 0, 69, 61
1, 13199, Note_on_c, 0, 69, 0
1, 13200, Note_on_c, 0, 79, 69
1, 13200, Note_on_c, 0, 61, 61
1, 13220, Note_on_c, 0, 79, 0
1, 13223, Note_on_c, 0, 61, 0
1, 13224, Note_on_c, 0, 69, 61
1, 13247, Note_on_c, 0, 69, 0
1, 13248, Note_on_c, 0, 78, 69
1, 13248, Note_on_c, 0, 62, 61
1, 13271, Note_on_c, 0, 62, 0
1, 13272, Note_on_c, 0, 69, 61
1, 13295, Note_on_c, 0, 69, 0
1, 13296, Note_on_c, 0, 78, 0
1, 13296, Note_on_c, 0, 74, 69
1, 13296, Note_on_c, 0, 62, 61
1, 13319, Note_on_c, 0, 62, 0
1, 13320, Note_on_c, 0, 69, 61
1, 13341, Note_on_c, 0, 74, 0
1, 13343, Note_on_c, 0, 69, 0
1, 13344, Note_on_c, 0, 62, 61
1, 13367, Note_on_c, 0, 62, 0
1, 13368, Note_on_c, 0, 69, 61
1, 13391, Note_on_c, 0, 69, 0
1, 13392, Note_on_c, 0, 78, 69
1, 13392, Note_on_c, 0, 62, 61
1, 13412, Note_on_c, 0, 78, 0
1, 13415, Note_on_c, 0, 62, 0
1, 13416, Note_on_c, 0, 69, 61
1, 13439, Note_on_c, 0, 69, 0
1, 13440, Note_on_c, 0, 76, 69
1, 13440, Note_on_c, 0, 61, 61
1, 13463, Note_on_c, 0, 61, 0
1, 13464, Note_on_c, 0, 69, 61
1, 13487, Note_on_c, 0, 69, 0
1, 13488, Note_on_c, 0, 76, 0
1, 13488, Note_on_c, 0, 81, 69
1, 13488, Note_on_c, 0, 61, 61
1, 13511, Note_on_c, 0, 61, 0
1, 13512, Note_on_c, 0, 69, 61
1, 13533, Note_on_c, 0, 81, 0
1, 13535, Note_on_c, 0, 69, 0
1, 13536, Note_on_c, 0, 61, 61
1, 13559, Note_on_c, 0, 61, 0
1, 13560, Note_on_c, 0, 69, 61
1, 13583, Note_on_c, 0, 69, 0
1, 13584, Note_on_c, 0, 79, 69
1, 13584, Note_on_c, 0, 61, 61
1, 13604, Note_on_c, 0, 79, 0
1, 13607, Note_on_c, 0, 61, 0
1, 13608, Note_on_c, 0, 69, 61
1, 13631, Note_on_c, 0, 69, 0
1, 13632, Note_on_c, 0, 78, 69
1, 13632, Note_on_c, 0, 62, 61
1, 13655, Note_on_c, 0, 62, 0
1, 13656, Note_on_c, 0, 69, 61
1, 13679, Note_on_c, 0, 69, 0
1, 13680, Note_on_c, 0, 78, 0
1, 13680, Note_on_c, 0, 74, 69
1, 13680, Note_on_c, 0, 62, 61
1, 13703, Note_on_c, 0, 62, 0
1, 13704, Note_on_c, 0, 69, 62
1, 13725, Note_on_c, 0, 74, 0
1, 13727, Note_on_c, 0, 69, 0
1, 13728, Note_on_c, 0, 62, 62
1, 13751, Note_on_c, 0, 62, 0
1, 13752, Note_on_c, 0, 69, 62
1, 13775, Note_on_c, 0, 69, 0
1, 13776, Note_on_c, 0, 78, 69
1, 13776, Note_on_c, 0, 62, 63
1, 13796, Note_on_c, 0, 78, 0
1, 13799, Note_on_c, 0, 62, 0
1, 13800, Note_on_c, 0, 69, 63
1, 13823, Note_on_c, 0, 69, 0
1, 13824, Note_on_c, 0, 78, 70
1, 13824, Note_on_c, 0, 63, 64
1, 13847, Note_on_c, 0, 63, 0
1, 13848, Note_on_c, 0, 71, 64
1, 13871, Note_on_c, 0, 71, 0
1, 13872, Note_on_c, 0, 78, 0
1, 13872, Note_on_c, 0, 83, 70
1, 13872, Note_on_c, 0, 63, 64
1, 13895, Note_on_c, 0, 63, 0
1, 13896, Note_on_c, 0, 71, 65
1, 13917, Note_on_c, 0, 83, 0
1, 13919, Note_on_c, 0, 71, 0
1, 13920, Note_on_c, 0, 63, 65
1, 13943, Note_on_c, 0, 63, 0
1, 13944, Note_on_c, 0, 71, 66
1, 13967, Note_on_c, 0, 71, 0
1, 13968, Note_on_c, 0, 81, 70
1, 13968, Note_on_c, 0, 63, 66
1, 13988, Note_on_c, 0, 81, 0
1, 13991, Note_on_c, 0, 63, 0
1, 13992, Note_on_c, 0, 71, 66
1, 14015, Note_on_c, 0, 71, 0
1, 14016, Note_on_c, 0, 79, 71
1, 14016, Note_on_c, 0, 64, 67
1, 14039, Note_on_c, 0, 64, 0
1, 14040, Note_on_c, 0, 71, 67
1, 14063, Note_on_c, 0, 71, 0
1, 14064, Note_on_c, 0, 79, 0
1, 14064, Note_on_c, 0, 76, 71
1, 14064, Note_on_c, 0, 64, 67
1, 14087, Note_on_c, 0, 64, 0
1, 14088, Note_on_c, 0, 71, 68
1, 14109, Note_on_c, 0, 76, 0
1, 14111, Note_on_c, 0, 71, 0
1, 14112, Note_on_c, 0, 64, 68
1, 14135, Note_on_c, 0, 64, 0
1, 14136, Note_on_c, 0, 71, 69
1, 14159, Note_on_c, 0, 71, 0
1, 14160, Note_on_c, 0, 79, 71
1, 14160, Note_on_c, 0, 64, 69
1, 14180, Note_on_c, 0, 79, 0
1, 14183, Note_on_c, 0, 64, 0
1, 14184, Note_on_c, 0, 71, 69
1, 14207, Note_on_c, 0, 71, 0
1, 14208, Note_on_c, 0, 78, 72
1, 14208, Note_on_c, 0, 63, 70
1, 14231, Note_on_c, 0, 63, 0
1, 14232, Note_on_c, 0, 71, 70
1, 14255, Note_on_c, 0, 71, 0
1, 14256, Note_on_c, 0, 78, 0
1, 14256, Note_on_c, 0, 83, 72
1, 14256, Note_on_c, 0, 63, 71
1, 14279, Note_on_c, 0, 63, 0
1, 14280, Note_on_c, 0, 71, 71
1, 14301, Note_on_c, 0, 83, 0
1, 14303, Note_on_c, 0, 71, 0
1, 14304, Note_on_c, 0, 63, 71
1, 14327, Note_on_c, 0, 63, 0
1, 14328, Note_on_c, 0, 71, 72
1, 14351, Note_on_c, 0, 71, 0
1, 14352, Note_on_c, 0, 81, 72
1, 14352, Note_on_c, 0, 63, 72
1, 14372, Note_on_c, 0, 81, 0
1, 14375, Note_on_c, 0, 63, 0
1, 14376, Note_on_c, 0, 71, 73
1, 14399, Note_on_c, 0, 71, 0
1, 14400, Note_on_c, 0, 79, 73
1, 14400, Note_on_c, 0, 64, 73
1, 14420, Note_on_c, 0, 79, 0
1, 14448, Note_on_c, 0, 71, 73
1, 14463, Note_on_c, 0, 71, 0
1, 14464, Note_on_c, 0, 73, 73
1, 14479, Note_on_c, 0, 73, 0
1, 14480, Note_on_c, 0, 75, 73
1, 14489, Note_on_c, 0, 64, 0
1, 14495, Note_on_c, 0, 75, 0
1, 14496, Note_on_c, 0, 76, 73
1, 14511, Note_on_c, 0, 76, 0
1, 14512, Note_on_c, 0, 78, 73
1, 14527, Note_on_c, 0, 78, 0
1, 14528, Note_on_c, 0, 79, 73
1, 14543, Note_on_c, 0, 79, 0
1, 14544, Note_on_c, 0, 78, 73
1, 14544, Note_on_c, 0, 63, 73
1, 14559, Note_on_c, 0, 78, 0
1, 14560, Note_on_c, 0, 79, 73
1, 14575, Note_on_c, 0, 79, 0
1, 14576, Note_on_c, 0, 81, 73
1, 14589, Note_on_c, 0, 63, 0
1, 14591, Note_on_c, 0, 81, 0
1, 14592, Note_on_c, 0, 79, 73
1, 14592, Note_on_c, 0, 64, 73
1, 14612, Note_on_c, 0, 79, 0
1, 14640, Note_on_c, 0, 71, 73
1, 14655, Note_on_c, 0, 71, 0
1, 14656, Note_on_c, 0, 73, 73
1, 14671, Note_on_c, 0, 73, 0
1, 14672, Note_on_c, 0, 75, 73
1, 14681, Note_on_c, 0, 64, 0
1, 14687, Note_on_c, 0, 75, 0
1, 14688, Note_on_c, 0, 76, 73
1, 14703, Note_on_c, 0, 76, 0
1, 14704, Note_on_c, 0, 78, 73
1, 14719, Note_on_c, 0, 78, 0
1, 14720, Note_on_c, 0, 79, 73
1, 14735, Note_on_c, 0, 79, 0
1, 14736, Note_on_c, 0, 78, 73
1, 14736, Note_on_c, 0, 63, 73
1, 14751, Note_on_c, 0, 78, 0
1, 14752, Note_on_c, 0, 79, 73
1, 14767, Note_on_c, 0, 79, 0
1, 14768, Note_on_c, 0, 81, 73
1, 14781, Note_on_c, 0, 63, 0
1, 14783, Note_on_c, 0, 81, 0
1, 14784, Note_on_c, 0, 79, 73
1, 14784, Note_on_c, 0, 64, 73
1, 14804, Note_on_c, 0, 79, 0
1, 14832, Note_on_c, 0, 83, 73
1, 14847, Note_on_c, 0, 83, 0
1, 14848, Note_on_c, 0, 81, 73
1, 14863, Note_on_c, 0, 81, 0
1, 14864, Note_on_c, 0, 79, 73
1, 14873, Note_on_c, 0, 64, 0
1, 14879, Note_on_c, 0, 79, 0
1, 14880, Note_on_c, 0, 84, 73
1, 14880, Note_on_c, 0, 69, 73
1, 14900, Note_on_c, 0, 84, 0
1, 14928, Note_on_c, 0, 81, 73
1, 14943, Note_on_c, 0, 81, 0
1, 14944, Note_on_c, 0, 79, 73
1, 14959, Note_on_c, 0, 79, 0
1, 14960, Note_on_c, 0, 78, 73
1, 14969, Note_on_c, 0, 69, 0
1, 14975, Note_on_c, 0, 78, 0
1, 14976, Note_on_c, 0, 76, 73
1, 15024, Note_on_c, 0, 67, 73
1, 15065, Note_on_c, 0, 76, 0
1, 15069, Note_on_c, 0, 67, 0
1, 15072, Note_on_c, 0, 78, 73
1, 15072, Note_on_c, 0, 69, 73
1, 15085, Note_on_c, 0, 78, 0
1, 15086, Note_on_c, 0, 79, 73
1, 15099, Note_on_c, 0, 79, 0
1, 15100, Note_on_c, 0, 78, 73
1, 15113, Note_on_c, 0, 78, 0
1, 15114, Note_on_c, 0, 79, 73
1, 15117, Note_on_c, 0, 69, 0
1, 15120, Note_on_c, 0, 71, 73
1, 15127, Note_on_c, 0, 79, 0
1, 15128, Note_on_c, 0, 78, 73
1, 15141, Note_on_c, 0, 78, 0
1, 15142, Note_on_c, 0, 79, 73
1, 15154, Note_on_c, 0, 79, 0
1, 15155, Note_on_c, 0, 78, 73
1, 15165, Note_on_c, 0, 71, 0
1, 15167, Note_on_c, 0, 78, 0
1, 15168, Note_on_c, 0, 79, 73
1, 15168, Note_on_c, 0, 64, 73
1, 15188, Note_on_c, 0, 79, 0
1, 15216, Note_on_c, 0, 83, 73
1, 15231, Note_on_c, 0, 83, 0
1, 15232, Note_on_c, 0, 81, 73
1, 15247, Note_on_c, 0, 81, 0
1, 15248, Note_on_c, 0, 79, 73
1, 15257, Note_on_c, 0, 64, 0
1, 15263, Note_on_c, 0, 79, 0
1, 15264, Note_on_c, 0, 84, 73
1, 15264, Note_on_c, 0, 69, 73
1, 15284, Note_on_c, 0, 84, 0
1, 15312, Note_on_c, 0, 81, 73
1, 15327, Note_on_c, 0, 81, 0
1, 15328, Note_on_c, 0, 79, 73
1, 15343, Note_on_c, 0, 79, 0
1, 15344, Note_on_c, 0, 78, 73
1, 15353, Note_on_c, 0, 69, 0
1, 15359, Note_on_c, 0, 78, 0
1, 15360, Note_on_c, 0, 76, 73
1, 15408, Note_on_c, 0, 67, 73
1, 15449, Note_on_c, 0, 76, 0
1, 15453, Note_on_c, 0, 67, 0
1, 15456, Note_on_c, 0, 78, 73
1, 15456, Note_on_c, 0, 69, 73
1, 15469, Note_on_c, 0, 78, 0
1, 15470, Note_on_c, 0, 79, 73
1, 15483, Note_on_c, 0, 79, 0
1, 15484, Note_on_c, 0, 78, 73
1, 15497, Note_on_c, 0, 78, 0
1, 15498, Note_on_c, 0, 79, 73
1, 15501, Note_on_c, 0, 69, 0
1, 15504, Note_on_c, 0, 71, 73
1, 15511, Note_on_c, 0, 79, 0
1, 15512, Note_on_c, 0, 78, 73
1, 15525, Note_on_c, 0, 78, 0
1, 15526, Note_on_c, 0, 76, 73
1, 15538, Note_on_c, 0, 76, 0
1, 15539, Note_on_c, 0, 78, 73
1, 15549, Note_on_c, 0, 71, 0
1, 15551, Note_on_c, 0, 78, 0
1, 15552, Note_on_c, 0, 76, 73
1, 15552, Note_on_c, 0, 64, 73
1, 15641, Note_on_c, 0, 76, 0
1, 15641, Note_on_c, 0, 64, 0
1, 15696, Note_on_c, 0, 59, 73
1, 15708, Note_on_c, 0, 59, 0
1, 15708, Note_on_c, 0, 57, 73
1, 15720, Note_on_c, 0, 57, 0
1, 15720, Note_on_c, 0, 55, 73
1, 15732, Note_on_c, 0, 55, 0
1, 15732, Note_on_c, 0, 54, 73
1, 15744, Note_on_c, 0, 54, 0
1, 15744, Note_on_c, 0, 52, 73
1, 15792, Note_on_c, 0, 79, 73
1, 15792, Note_on_c, 0, 71, 73
1, 15812, Note_on_c, 0, 79, 0
1, 15812, Note_on_c, 0, 71, 0
1, 15833, Note_on_c, 0, 52, 0
1, 15840, Note_on_c, 0, 79, 73
1, 15840, Note_on_c, 0, 71, 73
1, 15888, Note_on_c, 0, 64, 73
1, 15900, Note_on_c, 0, 64, 0
1, 15900, Note_on_c, 0, 62, 73
1, 15912, Note_on_c, 0, 62, 0
1, 15912, Note_on_c, 0, 60, 73
1, 15924, Note_on_c, 0, 60, 0
1, 15924, Note_on_c, 0, 59, 73
1, 15934, Note_on_c, 0, 79, 0
1, 15934, Note_on_c, 0, 71, 0
1, 15936, Note_on_c, 0, 59, 0
1, 15936, Note_on_c, 0, 57, 73
1, 15984, Note_on_c, 0, 81, 73
1, 15984, Note_on_c, 0, 72, 73
1, 16004, Note_on_c, 0, 81, 0
1, 16004, Note_on_c, 0, 72, 0
1, 16025, Note_on_c, 0, 57, 0
1, 16032, Note_on_c, 0, 81, 73
1, 16032, Note_on_c, 0, 72, 73
1, 16080, Note_on_c, 0, 57, 73
1, 16092, Note_on_c, 0, 57, 0
1, 16092, Note_on_c, 0, 55, 73
1, 16104, Note_on_c, 0, 55, 0
1, 16104, Note_on_c, 0, 54, 73
1, 16116, Note_on_c, 0, 54, 0
1, 16116, Note_on_c, 0, 52, 73
1, 16126, Note_on_c, 0, 81, 0
1, 16126, Note_on_c, 0, 72, 0
1, 16128, Note_on_c, 0, 52, 0
1, 16128, Note_on_c, 0, 50, 73
1, 16176, Note_on_c, 0, 78, 73
1, 16176, Note_on_c, 0, 69, 73
1, 16196, Note_on_c, 0, 78, 0
1, 16196, Note_on_c, 0, 69, 0
1, 16217, Note_on_c, 0, 50, 0
1, 16224, Note_on_c, 0, 78, 73
1, 16224, Note_on_c, 0, 69, 73
1, 16272, Note_on_c, 0, 62, 73
1, 16284, Note_on_c, 0, 62, 0
1, 16284, Note_on_c, 0, 60, 73
1, 16296, Note_on_c, 0, 60, 0
1, 16296, Note_on_c, 0, 59, 73
1, 16308, Note_on_c, 0, 59, 0
1, 16308, Note_on_c, 0, 57, 73
1, 16318, Note_on_c, 0, 78, 0
1, 16318, Note_on_c, 0, 69, 0
1, 16320, Note_on_c, 0, 57, 0
1, 16320, Note_on_c, 0, 55, 73
1, 16368, Note_on_c, 0, 79, 73
1, 16368, Note_on_c, 0, 71, 73
1, 16388, Note_on_c, 0, 79, 0
1, 16388, Note_on_c, 0, 71, 0
1, 16409, Note_on_c, 0, 55, 0
1, 16416, Note_on_c, 0, 79, 73
1, 16416, Note_on_c, 0, 71, 73
1, 16463, Note_on_c, 0, 79, 0
1, 16463, Note_on_c, 0, 71, 0
1, 16464, Note_on_c, 0, 74, 69
1, 16476, Note_on_c, 0, 74, 0
1, 16476, Note_on_c, 0, 72, 69
1, 16488, Note_on_c, 0, 72, 0
1, 16488, Note_on_c, 0, 71, 69
1, 16500, Note_on_c, 0, 71, 0
1, 16500, Note_on_c, 0, 69, 69
1, 16512, Note_on_c, 0, 69, 0
1, 16512, Note_on_c, 0, 67, 69
1, 16532, Note_on_c, 0, 67, 0
1, 16560, Note_on_c, 0, 79, 69
1, 16560, Note_on_c, 0, 76, 69
1, 16605, Note_on_c, 0, 79, 0
1, 16605, Note_on_c, 0, 76, 0
1, 16608, Note_on_c, 0, 78, 69
1, 16608, Note_on_c, 0, 74, 69
1, 16653, Note_on_c, 0, 78, 0
1, 16653, Note_on_c, 0, 74, 0
1, 16656, Note_on_c, 0, 76, 69
1, 16656, Note_on_c, 0, 72, 69
1, 16701, Note_on_c, 0, 76, 0
1, 16701, Note_on_c, 0, 72, 0
1, 16704, Note_on_c, 0, 74, 69
1, 16704, Note_on_c, 0, 71, 69
1, 16752, Note_on_c, 0, 55, 69
1, 16772, Note_on_c, 0, 55, 0
1, 16800, Note_on_c, 0, 43, 69
1, 16837, Note_on_c, 0, 74, 0
1, 16837, Note_on_c, 0, 71, 0
1, 16848, Note_on_c, 0, 76, 69
1, 16863, Note_on_c, 0, 76, 0
1, 16864, Note_on_c, 0, 74, 69
1, 16879, Note_on_c, 0, 74, 0
1, 16880, Note_on_c, 0, 72, 69
1, 16889, Note_on_c, 0, 43, 0
1, 16895, Note_on_c, 0, 72, 0
1, 16896, Note_on_c, 0, 71, 69
1, 16944, Note_on_c, 0, 55, 69
1, 16964, Note_on_c, 0, 55, 0
1, 16992, Note_on_c, 0, 43, 69
1, 17029, Note_on_c, 0, 71, 0
1, 17040, Note_on_c, 0, 71, 69
1, 17052, Note_on_c, 0, 71, 0
1, 17052, Note_on_c, 0, 69, 69
1, 17064, Note_on_c, 0, 69, 0
1, 17064, Note_on_c, 0, 67, 69
1, 17076, Note_on_c, 0, 67, 0
1, 17076, Note_on_c, 0, 66, 69
1, 17081, Note_on_c, 0, 43, 0
1, 17088, Note_on_c, 0, 66, 0
1, 17088, Note_on_c, 0, 64, 69
1, 17088, Note_on_c, 0, 48, 69
1, 17108, Note_on_c, 0, 64, 0
1, 17136, Note_on_c, 0, 76, 69
1, 17136, Note_on_c, 0, 72, 69
1, 17177, Note_on_c, 0, 48, 0
1, 17181, Note_on_c, 0, 76, 0
1, 17181, Note_on_c, 0, 72, 0
1, 17184, Note_on_c, 0, 74, 69
1, 17184, Note_on_c, 0, 71, 69
1, 17184, Note_on_c, 0, 50, 69
1, 17229, Note_on_c, 0, 74, 0
1, 17229, Note_on_c, 0, 71, 0
1, 17232, Note_on_c, 0, 72, 69
1, 17232, Note_on_c, 0, 69, 69
1, 17273, Note_on_c, 0, 50, 0
1, 17277, Note_on_c, 0, 72, 0
1, 17277, Note_on_c, 0, 69, 0
1, 17280, Note_on_c, 0, 72, 69
1, 17280, Note_on_c, 0, 69, 69
1, 17280, Note_on_c, 0, 55, 69
1, 17325, Note_on_c, 0, 55, 0
1, 17328, Note_on_c, 0, 50, 69
1, 17373, Note_on_c, 0, 50, 0
1, 17376, Note_on_c, 0, 72, 0
1, 17376, Note_on_c, 0, 69, 0
1, 17376, Note_on_c, 0, 71, 69
1, 17376, Note_on_c, 0, 67, 69
1, 17376, Note_on_c, 0, 43, 69
1, 17421, Note_on_c, 0, 43, 0
1, 17424, Note_on_c, 0, 67, 0
1, 17436, Note_on_c, 0, 71, 0
1, 17436, Note_on_c, 0, 69, 69
1, 17448, Note_on_c, 0, 69, 0
1, 17448, Note_on_c, 0, 67, 69
1, 17460, Note_on_c, 0, 67, 0
1, 17460, Note_on_c, 0, 66, 69
1, 17472, Note_on_c, 0, 66, 0
1, 17472, Note_on_c, 0, 64, 69
1, 17472, Note_on_c, 0, 48, 69
1, 17492, Note_on_c, 0, 64, 0
1, 17520, Note_on_c, 0, 72, 69
1, 17520, Note_on_c, 0, 69, 69
1, 17565, Note_on_c, 0, 72, 0
1, 17565, Note_on_c, 0, 69, 0
1, 17568, Note_on_c, 0, 72, 69
1, 17568, Note_on_c, 0, 69, 69
1, 17605, Note_on_c, 0, 48, 0
1, 17613, Note_on_c, 0, 72, 0
1, 17613, Note_on_c, 0, 69, 0
1, 17616, Note_on_c, 0, 71, 69
1, 17616, Note_on_c, 0, 67, 69
1, 17616, Note_on_c, 0, 49, 69
1, 17661, Note_on_c, 0, 71, 0
1, 17661, Note_on_c, 0, 67, 0
1, 17661, Note_on_c, 0, 49, 0
1, 17664, Note_on_c, 0, 71, 69
1, 17664, Note_on_c, 0, 67, 69
1, 17664, Note_on_c, 0, 50, 69
1, 17753, Note_on_c, 0, 50, 0
1, 17760, Note_on_c, 0, 71, 0
1, 17760, Note_on_c, 0, 67, 0
1, 17760, Note_on_c, 0, 69, 69
1, 17760, Note_on_c, 0, 66, 69
1, 17760, Note_on_c, 0, 38, 69
1, 17805, Note_on_c, 0, 69, 0
1, 17805, Note_on_c, 0, 66, 0
1, 17808, Note_on_c, 0, 74, 69
1, 17820, Note_on_c, 0, 74, 0
1, 17820, Note_on_c, 0, 72, 69
1, 17832, Note_on_c, 0, 72, 0
1, 17832, Note_on_c, 0, 71, 69
1, 17844, Note_on_c, 0, 71, 0
1, 17844, Note_on_c, 0, 69, 69
1, 17849, Note_on_c, 0, 38, 0
1, 17856, Note_on_c, 0, 69, 0
1, 17856, Note_on_c, 0, 67, 69
1, 17876, Note_on_c, 0, 67, 0
1, 17904, Note_on_c, 0, 79, 69
1, 17904, Note_on_c, 0, 64, 69
1, 17927, Note_on_c, 0, 79, 0
1, 17928, Note_on_c, 0, 67, 69
1, 17949, Note_on_c, 0, 64, 0
1, 17951, Note_on_c, 0, 67, 0
1, 17952, Note_on_c, 0, 78, 69
1, 17952, Note_on_c, 0, 62, 69
1, 17975, Note_on_c, 0, 78, 0
1, 17976, Note_on_c, 0, 67, 69
1, 17997, Note_on_c, 0, 62, 0
1, 17999, Note_on_c, 0, 67, 0
1, 18000, Note_on_c, 0, 76, 69
1, 18000, Note_on_c, 0, 60, 69
1, 18023, Note_on_c, 0, 76, 0
1, 18024, Note_on_c, 0, 67, 69
1, 18045, Note_on_c, 0, 60, 0
1, 18047, Note_on_c, 0, 67, 0
1, 18048, Note_on_c, 0, 74, 69
1, 18048, Note_on_c, 0, 59, 69
1, 18071, Note_on_c, 0, 74, 0
1, 18072, Note_on_c, 0, 67, 69
1, 18093, Note_on_c, 0, 59, 0
1, 18095, Note_on_c, 0, 67, 0
1, 18096, Note_on_c, 0, 72, 69
1, 18096, Note_on_c, 0, 57, 69
1, 18119, Note_on_c, 0, 72, 0
1, 18120, Note_on_c, 0, 67, 69
1, 18141, Note_on_c, 0, 57, 0
1, 18143, Note_on_c, 0, 67, 0
1, 18144, Note_on_c, 0, 71, 69
1, 18144, Note_on_c, 0, 55, 69
1, 18164, Note_on_c, 0, 71, 0
1, 18189, Note_on_c, 0, 55, 0
1, 18192, Note_on_c, 0, 74, 69
1, 18204, Note_on_c, 0, 74, 0
1, 18204, Note_on_c, 0, 72, 69
1, 18216, Note_on_c, 0, 72, 0
1, 18216, Note_on_c, 0, 71, 69
1, 18228, Note_on_c, 0, 71, 0
1, 18228, Note_on_c, 0, 69, 69
1, 18240, Note_on_c, 0, 69, 0
1, 18240, Note_on_c, 0, 67, 69
1, 18260, Note_on_c, 0, 67, 0
1, 18288, Note_on_c, 0, 79, 69
1, 18288, Note_on_c, 0, 64, 69
1, 18311, Note_on_c, 0, 79, 0
1, 18312, Note_on_c, 0, 67, 69
1, 18333, Note_on_c, 0, 64, 0
1, 18335, Note_on_c, 0, 67, 0
1, 18336, Note_on_c, 0, 78, 69
1, 18336, Note_on_c, 0, 62, 69
1, 18359, Note_on_c, 0, 78, 0
1, 18360, Note_on_c, 0, 67, 69
1, 18381, Note_on_c, 0, 62, 0
1, 18383, Note_on_c, 0, 67, 0
1, 18384, Note_on_c, 0, 76, 69
1, 18384, Note_on_c, 0, 60, 69
1, 18407, Note_on_c, 0, 76, 0
1, 18408, Note_on_c, 0, 67, 69
1, 18429, Note_on_c, 0, 60, 0
1, 18431, Note_on_c, 0, 67, 0
1, 18432, Note_on_c, 0, 74, 69
1, 18432, Note_on_c, 0, 59, 69
1, 18455, Note_on_c, 0, 74, 0
1, 18456, Note_on_c, 0, 67, 69
1, 18477, Note_on_c, 0, 59, 0
1, 18479, Note_on_c, 0, 67, 0
1, 18480, Note_on_c, 0, 72, 69
1, 18480, Note_on_c, 0, 57, 69
1, 18503, Note_on_c, 0, 72, 0
1, 18504, Note_on_c, 0, 67, 69
1, 18525, Note_on_c, 0, 57, 0
1, 18527, Note_on_c, 0, 67, 0
1, 18528, Note_on_c, 0, 71, 69
1, 18528, Note_on_c, 0, 55, 69
1, 18548, Note_on_c, 0, 71, 0
1, 18573, Note_on_c, 0, 55, 0
1, 18576, Note_on_c, 0, 74, 69
1, 18596, Note_on_c, 0, 74, 0
1, 18624, Note_on_c, 0, 72, 69
1, 18624, Note_on_c, 0, 54, 61
1, 18647, Note_on_c, 0, 54, 0
1, 18648, Note_on_c, 0, 62, 61
1, 18671, Note_on_c, 0, 62, 0
1, 18672, Note_on_c, 0, 72, 0
1, 18672, Note_on_c, 0, 69, 69
1, 18672, Note_on_c, 0, 54, 61
1, 18695, Note_on_c, 0, 54, 0
1, 18696, Note_on_c, 0, 62, 61
1, 18717, Note_on_c, 0, 69, 0
1, 18719, Note_on_c, 0, 62, 0
1, 18720, Note_on_c, 0, 54, 61
1, 18743, Note_on_c, 0, 54, 0
1, 18744, Note_on_c, 0, 62, 61
1, 18767, Note_on_c, 0, 62, 0
1, 18768, Note_on_c, 0, 72, 69
1, 18768, Note_on_c, 0, 69, 69
1, 18768, Note_on_c, 0, 54, 61
1, 18788, Note_on_c, 0, 72, 0
1, 18788, Note_on_c, 0, 69, 0
1, 18791, Note_on_c, 0, 54, 0
1, 18792, Note_on_c, 0, 62, 61
1, 18815, Note_on_c, 0, 62, 0
1, 18816, Note_on_c, 0, 71, 69
1, 18816, Note_on_c, 0, 67, 73
1, 18816, Note_on_c, 0, 55, 61
1, 18839, Note_on_c, 0, 55, 0
1, 18840, Note_on_c, 0, 62, 61
1, 18863, Note_on_c, 0, 62, 0
1, 18864, Note_on_c, 0, 71, 0
1, 18864, Note_on_c, 0, 74, 69
1, 18864, Note_on_c, 0, 67, 0
1, 18864, Note_on_c, 0, 71, 73
1, 18864, Note_on_c, 0, 55, 61
1, 18887, Note_on_c, 0, 55, 0
1, 18888, Note_on_c, 0, 62, 61
1, 18909, Note_on_c, 0, 74, 0
1, 18909, Note_on_c, 0, 71, 0
1, 18911, Note_on_c, 0, 62, 0
1, 18912, Note_on_c, 0, 55, 61
1, 18935, Note_on_c, 0, 55, 0
1, 18936, Note_on_c, 0, 62, 61
1, 18959, Note_on_c, 0, 62, 0
1, 18960, Note_on_c, 0, 74, 69
1, 18960, Note_on_c, 0, 55, 61
1, 18980, Note_on_c, 0, 74, 0
1, 18983, Note_on_c, 0, 55, 0
1, 18984, Note_on_c, 0, 62, 61
1, 19007, Note_on_c, 0, 62, 0
1, 19008, Note_on_c, 0, 72, 69
1, 19008, Note_on_c, 0, 54, 61
1, 19031, Note_on_c, 0, 54, 0
1, 19032, Note_on_c, 0, 62, 61
1, 19055, Note_on_c, 0, 62, 0
1, 19056, Note_on_c, 0, 72, 0
1, 19056, Note_on_c, 0, 69, 69
1, 19056, Note_on_c, 0, 54, 61
1, 19079, Note_on_c, 0, 54, 0
1, 19080, Note_on_c, 0, 62, 61
1, 19101, Note_on_c, 0, 69, 0
1, 19103, Note_on_c, 0, 62, 0
1, 19104, Note_on_c, 0, 54, 61
1, 19127, Note_on_c, 0, 54, 0
1, 19128, Note_on_c, 0, 62, 61
1, 19151, Note_on_c, 0, 62, 0
1, 19152, Note_on_c, 0, 72, 69
1, 19152, Note_on_c, 0, 69, 69
1, 19152, Note_on_c, 0, 54, 61
1, 19172, Note_on_c, 0, 72, 0
1, 19172, Note_on_c, 0, 69, 0
1, 19175, Note_on_c, 0, 54, 0
1, 19176, Note_on_c, 0, 62, 61
1, 19199, Note_on_c, 0, 62, 0
1, 19200, Note_on_c, 0, 71, 69
1, 19200, Note_on_c, 0, 67, 73
1, 19200, Note_on_c, 0, 55, 61
1, 19223, Note_on_c, 0, 55, 0
1, 19224, Note_on_c, 0, 62, 61
1, 19247, Note_on_c, 0, 62, 0
1, 19248, Note_on_c, 0, 71, 0
1, 19248, Note_on_c, 0, 74, 69
1, 19248, Note_on_c, 0, 67, 0
1, 19248, Note_on_c, 0, 71, 73
1, 19248, Note_on_c, 0, 55, 61
1, 19271, Note_on_c, 0, 55, 0
1, 19272, Note_on_c, 0, 62, 61
1, 19293, Note_on_c, 0, 74, 0
1, 19293, Note_on_c, 0, 71, 0
1, 19295, Note_on_c, 0, 62, 0
1, 19296, Note_on_c, 0, 55, 61
1, 19319, Note_on_c, 0, 55, 0
1, 19320, Note_on_c, 0, 62, 61
1, 19343, Note_on_c, 0, 62, 0
1, 19344, Note_on_c, 0, 74, 69
1, 19344, Note_on_c, 0, 55, 61
1, 19364, Note_on_c, 0, 74, 0
1, 19367, Note_on_c, 0, 55, 0
1, 19368, Note_on_c, 0, 62, 61
1, 19391, Note_on_c, 0, 62, 0
1, 19392, Note_on_c, 0, 72, 69
1, 19392, Note_on_c, 0, 54, 61
1, 19415, Note_on_c, 0, 54, 0
1, 19416, Note_on_c, 0, 62, 61
1, 19439, Note_on_c, 0, 62, 0
1, 19440, Note_on_c, 0, 72, 0
1, 19440, Note_on_c, 0, 69, 69
1, 19440, Note_on_c, 0, 54, 61
1, 19463, Note_on_c, 0, 54, 0
1, 19464, Note_on_c, 0, 62, 61
1, 19485, Note_on_c, 0, 69, 0
1, 19487, Note_on_c, 0, 62, 0
1, 19488, Note_on_c, 0, 54, 61
1, 19511, Note_on_c, 0, 54, 0
1, 19512, Note_on_c, 0, 62, 61
1, 19535, Note_on_c, 0, 62, 0
1, 19536, Note_on_c, 0, 72, 69
1, 19536, Note_on_c, 0, 69, 69
1, 19536, Note_on_c, 0, 54, 61
1, 19556, Note_on_c, 0, 72, 0
1, 19556, Note_on_c, 0, 69, 0
1, 19559, Note_on_c, 0, 54, 0
1, 19560, Note_on_c, 0, 62, 61
1, 19583, Note_on_c, 0, 62, 0
1, 19584, Note_on_c, 0, 71, 69
1, 19584, Note_on_c, 0, 67, 69
1, 19584, Note_on_c, 0, 55, 69
1, 19629, Note_on_c, 0, 71, 0
1, 19629, Note_on_c, 0, 67, 0
1, 19632, Note_on_c, 0, 62, 69
1, 19647, Note_on_c, 0, 62, 0
1, 19648, Note_on_c, 0, 64, 69
1, 19663, Note_on_c, 0, 64, 0
1, 19664, Note_on_c, 0, 66, 69
1, 19673, Note_on_c, 0, 55, 0
1, 19679, Note_on_c, 0, 66, 0
1, 19680, Note_on_c, 0, 67, 69
1, 19695, Note_on_c, 0, 67, 0
1, 19696, Note_on_c, 0, 69, 69
1, 19711, Note_on_c, 0, 69, 0
1, 19712, Note_on_c, 0, 71, 69
1, 19727, Note_on_c, 0, 71, 0
1, 19728, Note_on_c, 0, 69, 69
1, 19728, Note_on_c, 0, 54, 69
1, 19743, Note_on_c, 0, 69, 0
1, 19744, Note_on_c, 0, 71, 69
1, 19759, Note_on_c, 0, 71, 0
1, 19760, Note_on_c, 0, 72, 69
1, 19773, Note_on_c, 0, 54, 0
1, 19775, Note_on_c, 0, 72, 0
1, 19776, Note_on_c, 0, 71, 69
1, 19776, Note_on_c, 0, 55, 69
1, 19821, Note_on_c, 0, 71, 0
1, 19824, Note_on_c, 0, 62, 69
1, 19839, Note_on_c, 0, 62, 0
1, 19840, Note_on_c, 0, 64, 69
1, 19855, Note_on_c, 0, 64, 0
1, 19856, Note_on_c, 0, 66, 69
1, 19865, Note_on_c, 0, 55, 0
1, 19871, Note_on_c, 0, 66, 0
1, 19872, Note_on_c, 0, 67, 69
1, 19887, Note_on_c, 0, 67, 0
1, 19888, Note_on_c, 0, 69, 69
1, 19903, Note_on_c, 0, 69, 0
1, 19904, Note_on_c, 0, 71, 69
1, 19919, Note_on_c, 0, 71, 0
1, 19920, Note_on_c, 0, 69, 69
1, 19920, Note_on_c, 0, 54, 69
1, 19935, Note_on_c, 0, 69, 0
1, 19936, Note_on_c, 0, 71, 69
1, 19951, Note_on_c, 0, 71, 0
1, 19952, Note_on_c, 0, 72, 69
1, 19965, Note_on_c, 0, 54, 0
1, 19967, Note_on_c, 0, 72, 0
1, 19968, Note_on_c, 0, 71, 69
1, 19968, Note_on_c, 0, 55, 69
1, 19988, Note_on_c, 0, 71, 0
1, 20016, Note_on_c, 0, 74, 69
1, 20031, Note_on_c, 0, 74, 0
1, 20032, Note_on_c, 0, 72, 69
1, 20047, Note_on_c, 0, 72, 0
1, 20048, Note_on_c, 0, 71, 69
1, 20057, Note_on_c, 0, 55, 0
1, 20063, Note_on_c, 0, 71, 0
1, 20064, Note_on_c, 0, 76, 69
1, 20064, Note_on_c, 0, 60, 69
1, 20084, Note_on_c, 0, 76, 0
1, 20112, Note_on_c, 0, 72, 69
1, 20127, Note_on_c, 0, 72, 0
1, 20128, Note_on_c, 0, 71, 69
1, 20143, Note_on_c, 0, 71, 0
1, 20144, Note_on_c, 0, 69, 69
1, 20153, Note_on_c, 0, 60, 0
1, 20159, Note_on_c, 0, 69, 0
1, 20160, Note_on_c, 0, 67, 69
1, 20208, Note_on_c, 0, 59, 69
1, 20249, Note_on_c, 0, 67, 0
1, 20253, Note_on_c, 0, 59, 0
1, 20256, Note_on_c, 0, 69, 69
1, 20256, Note_on_c, 0, 60, 69
1, 20269, Note_on_c, 0, 69, 0
1, 20270, Note_on_c, 0, 71, 69
1, 20283, Note_on_c, 0, 71, 0
1, 20284, Note_on_c, 0, 69, 69
1, 20297, Note_on_c, 0, 69, 0
1, 20298, Note_on_c, 0, 71, 69
1, 20301, Note_on_c, 0, 60, 0
1, 20304, Note_on_c, 0, 62, 69
1, 20311, Note_on_c, 0, 71, 0
1, 20312, Note_on_c, 0, 69, 69
1, 20325, Note_on_c, 0, 69, 0
1, 20326, Note_on_c, 0, 71, 69
1, 20338, Note_on_c, 0, 71, 0
1, 20339, Note_on_c, 0, 69, 69
1, 20349, Note_on_c, 0, 62, 0
1, 20351, Note_on_c, 0, 69, 0
1, 20352, Note_on_c, 0, 71, 69
1, 20352, Note_on_c, 0, 55, 69
1, 20372, Note_on_c, 0, 71, 0
1, 20400, Note_on_c, 0, 74, 69
1, 20415, Note_on_c, 0, 74, 0
1, 20416, Note_on_c, 0, 72, 69
1, 20431, Note_on_c, 0, 72, 0
1, 20432, Note_on_c, 0, 71, 69
1, 20441, Note_on_c, 0, 55, 0
1, 20447, Note_on_c, 0, 71, 0
1, 20448, Note_on_c, 0, 76, 69
1, 20448, Note_on_c, 0, 60, 69
1, 20468, Note_on_c, 0, 76, 0
1, 20496, Note_on_c, 0, 72, 69
1, 20511, Note_on_c, 0, 72, 0
1, 20512, Note_on_c, 0, 71, 69
1, 20527, Note_on_c, 0, 71, 0
1, 20528, Note_on_c, 0, 69, 69
1, 20537, Note_on_c, 0, 60, 0
1, 20543, Note_on_c, 0, 69, 0
1, 20544, Note_on_c, 0, 67, 69
1, 20592, Note_on_c, 0, 59, 69
1, 20633, Note_on_c, 0, 67, 0
1, 20637, Note_on_c, 0, 59, 0
1, 20640, Note_on_c, 0, 69, 69
1, 20640, Note_on_c, 0, 60, 69
1, 20653, Note_on_c, 0, 69, 0
1, 20654, Note_on_c, 0, 71, 69
1, 20667, Note_on_c, 0, 71, 0
1, 20668, Note_on_c, 0, 69, 69
1, 20681, Note_on_c, 0, 69, 0
1, 20682, Note_on_c, 0, 71, 69
1, 20685, Note_on_c, 0, 60, 0
1, 20688, Note_on_c, 0, 62, 69
1, 20695, Note_on_c, 0, 71, 0
1, 20696, Note_on_c, 0, 69, 69
1, 20709, Note_on_c, 0, 69, 0
1, 20710, Note_on_c, 0, 67, 69
1, 20722, Note_on_c, 0, 67, 0
1, 20723, Note_on_c, 0, 69, 69
1, 20733, Note_on_c, 0, 62, 0
1, 20735, Note_on_c, 0, 69, 0
1, 20736, Note_on_c, 0, 67, 69
1, 20736, Note_on_c, 0, 55, 69
1, 20825, Note_on_c, 0, 67, 0
1, 20825, Note_on_c, 0, 55, 0
1, 20880, Note_on_c, 0, 69, 69
1, 20892, Note_on_c, 0, 69, 0
1, 20892, Note_on_c, 0, 67, 69
1, 20904, Note_on_c, 0, 67, 0
1, 20904, Note_on_c, 0, 66, 69
1, 20916, Note_on_c, 0, 66, 0
1, 20916, Note_on_c, 0, 64, 69
1, 20928, Note_on_c, 0, 64, 0
1, 20928, Note_on_c, 0, 62, 69
1, 20948, Note_on_c, 0, 62, 0
1, 20976, Note_on_c, 0, 74, 69
1, 20976, Note_on_c, 0, 71, 69
1, 21021, Note_on_c, 0, 74, 0
1, 21021, Note_on_c, 0, 71, 0
1, 21024, Note_on_c, 0, 73, 69
1, 21024, Note_on_c, 0, 69, 69
1, 21069, Note_on_c, 0, 73, 0
1, 21069, Note_on_c, 0, 69, 0
1, 21072, Note_on_c, 0, 71, 69
1, 21072, Note_on_c, 0, 67, 69
1, 21117, Note_on_c, 0, 71, 0
1, 21117, Note_on_c, 0, 67, 0
1, 21120, Note_on_c, 0, 69, 69
1, 21120, Note_on_c, 0, 66, 69
1, 21168, Note_on_c, 0, 50, 69
1, 21188, Note_on_c, 0, 50, 0
1, 21216, Note_on_c, 0, 38, 69
1, 21264, Note_on_c, 0, 69, 0
1, 21264, Note_on_c, 0, 66, 0
1, 21264, Note_on_c, 0, 71, 69
1, 21264, Note_on_c, 0, 67, 69
1, 21305, Note_on_c, 0, 38, 0
1, 21309, Note_on_c, 0, 71, 0
1, 21309, Note_on_c, 0, 67, 0
1, 21312, Note_on_c, 0, 72, 69
1, 21312, Note_on_c, 0, 69, 69
1, 21360, Note_on_c, 0, 50, 69
1, 21380, Note_on_c, 0, 50, 0
1, 21408, Note_on_c, 0, 38, 69
1, 21445, Note_on_c, 0, 72, 0
1, 21445, Note_on_c, 0, 69, 0
1, 21456, Note_on_c, 0, 76, 69
1, 21471, Note_on_c, 0, 76, 0
1, 21472, Note_on_c, 0, 74, 69
1, 21487, Note_on_c, 0, 74, 0
1, 21488, Note_on_c, 0, 72, 69
1, 21497, Note_on_c, 0, 38, 0
1, 21503, Note_on_c, 0, 72, 0
1, 21504, Note_on_c, 0, 71, 69
1, 21504, Note_on_c, 0, 55, 69
1, 21524, Note_on_c, 0, 71, 0
1, 21552, Note_on_c, 0, 79, 69
1, 21552, Note_on_c, 0, 76, 69
1, 21593, Note_on_c, 0, 55, 0
1, 21597, Note_on_c, 0, 79, 0
1, 21597, Note_on_c, 0, 76, 0
1, 21600, Note_on_c, 0, 78, 69
1, 21600, Note_on_c, 0, 74, 69
1, 21645, Note_on_c, 0, 78, 0
1, 21645, Note_on_c, 0, 74, 0
1, 21648, Note_on_c, 0, 76, 69
1, 21648, Note_on_c, 0, 72, 69
1, 21693, Note_on_c, 0, 76, 0
1, 21693, Note_on_c, 0, 72, 0
1, 21696, Note_on_c, 0, 74, 69
1, 21696, Note_on_c, 0, 71, 69
1, 21744, Note_on_c, 0, 55, 69
1, 21764, Note_on_c, 0, 55, 0
1, 21792, Note_on_c, 0, 43, 69
1, 21840, Note_on_c, 0, 74, 0
1, 21840, Note_on_c, 0, 71, 0
1, 21840, Note_on_c, 0, 76, 69
1, 21840, Note_on_c, 0, 72, 69
1, 21881, Note_on_c, 0, 43, 0
1, 21885, Note_on_c, 0, 76, 0
1, 21885, Note_on_c, 0, 72, 0
1, 21888, Note_on_c, 0, 77, 69
1, 21888, Note_on_c, 0, 74, 69
1, 21936, Note_on_c, 0, 55, 69
1, 21956, Note_on_c, 0, 55, 0
1, 21984, Note_on_c, 0, 43, 69
1, 22021, Note_on_c, 0, 77, 0
1, 22021, Note_on_c, 0, 74, 0
1, 22032, Note_on_c, 0, 81, 69
1, 22047, Note_on_c, 0, 81, 0
1, 22048, Note_on_c, 0, 79, 69
1, 22063, Note_on_c, 0, 79, 0
1, 22064, Note_on_c, 0, 77, 69
1, 22073, Note_on_c, 0, 43, 0
1, 22079, Note_on_c, 0, 77, 0
1, 22080, Note_on_c, 0, 76, 69
1, 22080, Note_on_c, 0, 60, 61
1, 22103, Note_on_c, 0, 60, 0
1, 22104, Note_on_c, 0, 67, 61
1, 22127, Note_on_c, 0, 67, 0
1, 22128, Note_on_c, 0, 76, 0
1, 22128, Note_on_c, 0, 79, 69
1, 22128, Note_on_c, 0, 60, 61
1, 22151, Note_on_c, 0, 60, 0
1, 22152, Note_on_c, 0, 67, 61
1, 22173, Note_on_c, 0, 79, 0
1, 22175, Note_on_c, 0, 67, 0
1, 22176, Note_on_c, 0, 60, 61
1, 22199, Note_on_c, 0, 60, 0
1, 22200, Note_on_c, 0, 67, 61
1, 22223, Note_on_c, 0, 67, 0
1, 22224, Note_on_c, 0, 79, 69
1, 22224, Note_on_c, 0, 60, 61
1, 22244, Note_on_c, 0, 79, 0
1, 22247, Note_on_c, 0, 60, 0
1, 22248, Note_on_c, 0, 67, 61
1, 22271, Note_on_c, 0, 67, 0
1, 22272, Note_on_c, 0, 77, 69
1, 22272, Note_on_c, 0, 62, 61
1, 22295, Note_on_c, 0, 62, 0
1, 22296, Note_on_c, 0, 67, 61
1, 22319, Note_on_c, 0, 67, 0
1, 22320, Note_on_c, 0, 77, 0
1, 22320, Note_on_c, 0, 74, 69
1, 22320, Note_on_c, 0, 62, 61
1, 22343, Note_on_c, 0, 62, 0
1, 22344, Note_on_c, 0, 67, 61
1, 22365, Note_on_c, 0, 74, 0
1, 22367, Note_on_c, 0, 67, 0
1, 22368, Note_on_c, 0, 62, 61
1, 22391, Note_on_c, 0, 62, 0
1, 22392, Note_on_c, 0, 67, 61
1, 22415, Note_on_c, 0, 67, 0
1, 22416, Note_on_c, 0, 77, 69
1, 22416, Note_on_c, 0, 62, 61
1, 22436, Note_on_c, 0, 77, 0
1, 22439, Note_on_c, 0, 62, 0
1, 22440, Note_on_c, 0, 67, 61
1, 22463, Note_on_c, 0, 67, 0
1, 22464, Note_on_c, 0, 76, 69
1, 22464, Note_on_c, 0, 60, 61
1, 22487, Note_on_c, 0, 60, 0
1, 22488, Note_on_c, 0, 67, 61
1, 22511, Note_on_c, 0, 67, 0
1, 22512, Note_on_c, 0, 76, 0
1, 22512, Note_on_c, 0, 79, 69
1, 22512, Note_on_c, 0, 60, 61
1, 22535, Note_on_c, 0, 60, 0
1, 22536, Note_on_c, 0, 67, 61
1, 22557, Note_on_c, 0, 79, 0
1, 22559, Note_on_c, 0, 67, 0
1, 22560, Note_on_c, 0, 60, 61
1, 22583, Note_on_c, 0, 60, 0
1, 22584, Note_on_c, 0, 67, 61
1, 22607, Note_on_c, 0, 67, 0
1, 22608, Note_on_c, 0, 79, 69
1, 22608, Note_on_c, 0, 60, 61
1, 22628, Note_on_c, 0, 79, 0
1, 22631, Note_on_c, 0, 60, 0
1, 22632, Note_on_c, 0, 67, 61
1, 22655, Note_on_c, 0, 67, 0
1, 22656, Note_on_c, 0, 77, 69
1, 22656, Note_on_c, 0, 62, 61
1, 22679, Note_on_c, 0, 62, 0
1, 22680, Note_on_c, 0, 67, 61
1, 22703, Note_on_c, 0, 67, 0
1, 22704, Note_on_c, 0, 77, 0
1, 22704, Note_on_c, 0, 74, 69
1, 22704, Note_on_c, 0, 62, 61
1, 22727, Note_on_c, 0, 62, 0
1, 22728, Note_on_c, 0, 67, 61
1, 22749, Note_on_c, 0, 74, 0
1, 22751, Note_on_c, 0, 67, 0
1, 22752, Note_on_c, 0, 62, 61
1, 22775, Note_on_c, 0, 62, 0
1, 22776, Note_on_c, 0, 67, 61
1, 22799, Note_on_c, 0, 67, 0
1, 22800, Note_on_c, 0, 77, 69
1, 22800, Note_on_c, 0, 62, 61
1, 22820, Note_on_c, 0, 77, 0
1, 22823, Note_on_c, 0, 62, 0
1, 22824, Note_on_c, 0, 67, 61
1, 22847, Note_on_c, 0, 67, 0
1, 22848, Note_on_c, 0, 76, 69
1, 22848, Note_on_c, 0, 60, 61
1, 22871, Note_on_c, 0, 60, 0
1, 22872, Note_on_c, 0, 67, 61
1, 22895, Note_on_c, 0, 67, 0
1, 22896, Note_on_c, 0, 76, 0
1, 22896, Note_on_c, 0, 79, 69
1, 22896, Note_on_c, 0, 60, 61
1, 22919, Note_on_c, 0, 60, 0
1, 22920, Note_on_c, 0, 67, 61
1, 22941, Note_on_c, 0, 79, 0
1, 22943, Note_on_c, 0, 67, 0
1, 22944, Note_on_c, 0, 60, 61
1, 22967, Note_on_c, 0, 60, 0
1, 22968, Note_on_c, 0, 67, 61
1, 22991, Note_on_c, 0, 67, 0
1, 22992, Note_on_c, 0, 76, 69
1, 22992, Note_on_c, 0, 60, 61
1, 23012, Note_on_c, 0, 76, 0
1, 23015, Note_on_c, 0, 60, 0
1, 23016, Note_on_c, 0, 67, 61
1, 23039, Note_on_c, 0, 67, 0
1, 23040, Note_on_c, 0, 76, 69
1, 23040, Note_on_c, 0, 61, 61
1, 23063, Note_on_c, 0, 61, 0
1, 23064, Note_on_c, 0, 69, 61
1, 23087, Note_on_c, 0, 69, 0
1, 23088, Note_on_c, 0, 76, 0
1, 23088, Note_on_c, 0, 81, 69
1, 23088, Note_on_c, 0, 61, 61
1, 23111, Note_on_c, 0, 61, 0
1, 23112, Note_on_c, 0, 69, 61
1, 23133, Note_on_c, 0, 81, 0
1, 23135, Note_on_c, 0, 69, 0
1, 23136, Note_on_c, 0, 61, 61
1, 23159, Note_on_c, 0, 61, 0
1, 23160, Note_on_c, 0, 69, 61
1, 23183, Note_on_c, 0, 69, 0
1, 23184, Note_on_c, 0, 79, 69
1, 23184, Note_on_c, 0, 61, 61
1, 23204, Note_on_c, 0, 79, 0
1, 23207, Note_on_c, 0, 61, 0
1, 23208, Note_on_c, 0, 69, 61
1, 23231, Note_on_c, 0, 69, 0
1, 23232, Note_on_c, 0, 78, 69
1, 23232, Note_on_c, 0, 62, 61
1, 23255, Note_on_c, 0, 62, 0
1, 23256, Note_on_c, 0, 69, 61
1, 23279, Note_on_c, 0, 69, 0
1, 23280, Note_on_c, 0, 78, 0
1, 23280, Note_on_c, 0, 74, 69
1, 23280, Note_on_c, 0, 62, 61
1, 23303, Note_on_c, 0, 62, 0
1, 23304, Note_on_c, 0, 69, 61
1, 23325, Note_on_c, 0, 74, 0
1, 23327, Note_on_c, 0, 69, 0
1, 23328, Note_on_c, 0, 62, 61
1, 23351, Note_on_c, 0, 62, 0
1, 23352, Note_on_c, 0, 69, 61
1, 23375, Note_on_c, 0, 69, 0
1, 23376, Note_on_c, 0, 78, 69
1, 23376, Note_on_c, 0, 62, 61
1, 23396, Note_on_c, 0, 78, 0
1, 23399, Note_on_c, 0, 62, 0
1, 23400, Note_on_c, 0, 69, 61
1, 23423, Note_on_c, 0, 69, 0
1, 23424, Note_on_c, 0, 76, 69
1, 23424, Note_on_c, 0, 61, 61
1, 23447, Note_on_c, 0, 61, 0
1, 23448, Note_on_c, 0, 69, 61
1, 23471, Note_on_c, 0, 69, 0
1, 23472, Note_on_c, 0, 76, 0
1, 23472, Note_on_c, 0, 81, 69
1, 23472, Note_on_c, 0, 61, 61
1, 23495, Note_on_c, 0, 61, 0
1, 23496, Note_on_c, 0, 69, 61
1, 23517, Note_on_c, 0, 81, 0
1, 23519, Note_on_c, 0, 69, 0
1, 23520, Note_on_c, 0, 61, 61
1, 23543, Note_on_c, 0, 61, 0
1, 23544, Note_on_c, 0, 69, 61
1, 23567, Note_on_c, 0, 69, 0
1, 23568, Note_on_c, 0, 79, 69
1, 23568, Note_on_c, 0, 61, 61
1, 23588, Note_on_c, 0, 79, 0
1, 23591, Note_on_c, 0, 61, 0
1, 23592, Note_on_c, 0, 69, 61
1, 23615, Note_on_c, 0, 69, 0
1, 23616, Note_on_c, 0, 78, 69
1, 23616, Note_on_c, 0, 62, 61
1, 23639, Note_on_c, 0, 62, 0
1, 23640, Note_on_c, 0, 69, 61
1, 23663, Note_on_c, 0, 69, 0
1, 23664, Note_on_c, 0, 78, 0
1, 23664, Note_on_c, 0, 74, 69
1, 23664, Note_on_c, 0, 62, 61
1, 23687, Note_on_c, 0, 62, 0
1, 23688, Note_on_c, 0, 69, 62
1, 23709, Note_on_c, 0, 74, 0
1, 23711, Note_on_c, 0, 69, 0
1, 23712, Note_on_c, 0, 62, 62
1, 23735, Note_on_c, 0, 62, 0
1, 23736, Note_on_c, 0, 69, 62
1, 23759, Note_on_c, 0, 69, 0
1, 23760, Note_on_c, 0, 78, 69
1, 23760, Note_on_c, 0, 62, 63
1, 23780, Note_on_c, 0, 78, 0
1, 23783, Note_on_c, 0, 62, 0
1, 23784, Note_on_c, 0, 69, 63
1, 23807, Note_on_c, 0, 69, 0
1, 23808, Note_on_c, 0, 78, 70
1, 23808, Note_on_c, 0, 63, 64
1, 23831, Note_on_c, 0, 63, 0
1, 23832, Note_on_c, 0, 71, 64
1, 23855, Note_on_c, 0, 71, 0
1, 23856, Note_on_c, 0, 78, 0
1, 23856, Note_on_c, 0, 83, 70
1, 23856, Note_on_c, 0, 63, 64
1, 23879, Note_on_c, 0, 63, 0
1, 23880, Note_on_c, 0, 71, 65
1, 23901, Note_on_c, 0, 83, 0
1, 23903, Note_on_c, 0, 71, 0
1, 23904, Note_on_c, 0, 63, 65
1, 23927, Note_on_c, 0, 63, 0
1, 23928, Note_on_c, 0, 71, 66
1, 23951, Note_on_c, 0, 71, 0
1, 23952, Note_on_c, 0, 81, 70
1, 23952, Note_on_c, 0, 63, 66
1, 23972, Note_on_c, 0, 81, 0
1, 23975, Note_on_c, 0, 63, 0
1, 23976, Note_on_c, 0, 71, 66
1, 23999, Note_on_c, 0, 71, 0
1, 24000, Note_on_c, 0, 79, 71
1, 24000, Note_on_c, 0, 64, 67
1, 24023, Note_on_c, 0, 64, 0
1, 24024, Note_on_c, 0, 71, 67
1, 24047, Note_on_c, 0, 71, 0
1, 24048, Note_on_c, 0, 79, 0
1, 24048, Note_on_c, 0, 76, 71
1, 24048, Note_on_c, 0, 64, 67
1, 24071, Note_on_c, 0, 64, 0
1, 24072, Note_on_c, 0, 71, 68
1, 24093, Note_on_c, 0, 76, 0
1, 24095, Note_on_c, 0, 71, 0
1, 24096, Note_on_c, 0, 64, 68
1, 24119, Note_on_c, 0, 64, 0
1, 24120, Note_on_c, 0, 71, 69
1, 24143, Note_on_c, 0, 71, 0
1, 24144, Note_on_c, 0, 79, 71
1, 24144, Note_on_c, 0, 64, 69
1, 24164, Note_on_c, 0, 79, 0
1, 24167, Note_on_c, 0, 64, 0
1, 24168, Note_on_c, 0, 71, 69
1, 24191, Note_on_c, 0, 71, 0
1, 24192, Note_on_c, 0, 78, 72
1, 24192, Note_on_c, 0, 63, 70
1, 24215, Note_on_c, 0, 63, 0
1, 24216, Note_on_c, 0, 71, 70
1, 24239, Note_on_c, 0, 71, 0
1, 24240, Note_on_c, 0, 78, 0
1, 24240, Note_on_c, 0, 83, 72
1, 24240, Note_on_c, 0, 63, 71
1, 24263, Note_on_c, 0, 63, 0
1, 24264, Note_on_c, 0, 71, 71
1, 24285, Note_on_c, 0, 83, 0
1, 24287, Note_on_c, 0, 71, 0
1, 24288, Note_on_c, 0, 63, 71
1, 24311, Note_on_c, 0, 63, 0
1, 24312, Note_on_c, 0, 71, 72
1, 24335, Note_on_c, 0, 71, 0
1, 24336, Note_on_c, 0, 81, 72
1, 24336, Note_on_c, 0, 63, 72
1, 24356, Note_on_c, 0, 81, 0
1, 24359, Note_on_c, 0, 63, 0
1, 24360, Note_on_c, 0, 71, 73
1, 24383, Note_on_c, 0, 71, 0
1, 24384, Note_on_c, 0, 79, 73
1, 24384, Note_on_c, 0, 64, 73
1, 24404, Note_on_c, 0, 79, 0
1, 24432, Note_on_c, 0, 71, 73
1, 24447, Note_on_c, 0, 71, 0
1, 24448, Note_on_c, 0, 73, 73
1, 24463, Note_on_c, 0, 73, 0
1, 24464, Note_on_c, 0, 75, 73
1, 24473, Note_on_c, 0, 64, 0
1, 24479, Note_on_c, 0, 75, 0
1, 24480, Note_on_c, 0, 76, 73
1, 24495, Note_on_c, 0, 76, 0
1, 24496, Note_on_c, 0, 78, 73
1, 24511, Note_on_c, 0, 78, 0
1, 24512, Note_on_c, 0, 79, 73
1, 24527, Note_on_c, 0, 79, 0
1, 24528, Note_on_c, 0, 78, 73
1, 24528, Note_on_c, 0, 63, 73
1, 24543, Note_on_c, 0, 78, 0
1, 24544, Note_on_c, 0, 79, 73
1, 24559, Note_on_c, 0, 79, 0
1, 24560, Note_on_c, 0, 81, 73
1, 24573, Note_on_c, 0, 63, 0
1, 24575, Note_on_c, 0, 81, 0
1, 24576, Note_on_c, 0, 79, 73
1, 24576, Note_on_c, 0, 64, 73
1, 24596, Note_on_c, 0, 79, 0
1, 24624, Note_on_c, 0, 71, 73
1, 24639, Note_on_c, 0, 71, 0
1, 24640, Note_on_c, 0, 73, 73
1, 24655, Note_on_c, 0, 73, 0
1, 24656, Note_on_c, 0, 75, 73
1, 24665, Note_on_c, 0, 64, 0
1, 24671, Note_on_c, 0, 75, 0
1, 24672, Note_on_c, 0, 76, 73
1, 24687, Note_on_c, 0, 76, 0
1, 24688, Note_on_c, 0, 78, 73
1, 24703, Note_on_c, 0, 78, 0
1, 24704, Note_on_c, 0, 79, 73
1, 24719, Note_on_c, 0, 79, 0
1, 24720, Note_on_c, 0, 78, 73
1, 24720, Note_on_c, 0, 63, 73
1, 24735, Note_on_c, 0, 78, 0
1, 24736, Note_on_c, 0, 79, 73
1, 24751, Note_on_c, 0, 79, 0
1, 24752, Note_on_c, 0, 81, 73
1, 24765, Note_on_c, 0, 63, 0
1, 24767, Note_on_c, 0, 81, 0
1, 24768, Note_on_c, 0, 79, 73
1, 24768, Note_on_c, 0, 64, 73
1, 24788, Note_on_c, 0, 79, 0
1, 24816, Note_on_c, 0, 83, 73
1, 24831, Note_on_c, 0, 83, 0
1, 24832, Note_on_c, 0, 81, 73
1, 24847, Note_on_c, 0, 81, 0
1, 24848, Note_on_c, 0, 79, 73
1, 24857, Note_on_c, 0, 64, 0
1, 24863, Note_on_c, 0, 79, 0
1, 24864, Note_on_c, 0, 84, 73
1, 24864, Note_on_c, 0, 69, 73
1, 24884, Note_on_c, 0, 84, 0
1, 24912, Note_on_c, 0, 81, 73
1, 24927, Note_on_c, 0, 81, 0
1, 24928, Note_on_c, 0, 79, 73
1, 24943, Note_on_c, 0, 79, 0
1, 24944, Note_on_c, 0, 78, 73
1, 24953, Note_on_c, 0, 69, 0
1, 24959, Note_on_c, 0, 78, 0
1, 24960, Note_on_c, 0, 76, 73
1, 25008, Note_on_c, 0, 67, 73
1, 25049, Note_on_c, 0, 76, 0
1, 25053, Note_on_c, 0, 67, 0
1, 25056, Note_on_c, 0, 78, 73
1, 25056, Note_on_c, 0, 69, 73
1, 25069, Note_on_c, 0, 78, 0
1, 25070, Note_on_c, 0, 79, 73
1, 25083, Note_on_c, 0, 79, 0
1, 25084, Note_on_c, 0, 78, 73
1, 25097, Note_on_c, 0, 78, 0
1, 25098, Note_on_c, 0, 79, 73
1, 25101, Note_on_c, 0, 69, 0
1, 25104, Note_on_c, 0, 71, 73
1, 25111, Note_on_c, 0, 79, 0
1, 25112, Note_on_c, 0, 78, 73
1, 25125, Note_on_c, 0, 78, 0
1, 25126, Note_on_c, 0, 79, 73
1, 25138, Note_on_c, 0, 79, 0
1, 25139, Note_on_c, 0, 78, 73
1, 25149, Note_on_c, 0, 71, 0
1, 25151, Note_on_c, 0, 78, 0
1, 25152, Note_on_c, 0, 79, 73
1, 25152, Note_on_c, 0, 64, 73
1, 25172, Note_on_c, 0, 79, 0
1, 25200, Note_on_c, 0, 83, 73
1, 25215, Note_on_c, 0, 83, 0
1, 25216, Note_on_c, 0, 81, 73
1, 25231, Note_on_c, 0, 81, 0
1, 25232, Note_on_c, 0, 79, 73
1, 25241, Note_on_c, 0, 64, 0
1, 25247, Note_on_c, 0, 79, 0
1, 25248, Note_on_c, 0, 84, 73
1, 25248, Note_on_c, 0, 69, 73
1, 25268, Note_on_c, 0, 84, 0
1, 25296, Note_on_c, 0, 81, 73
1, 25311, Note_on_c, 0, 81, 0
1, 25312, Note_on_c, 0, 79, 73
1, 25327, Note_on_c, 0, 79, 0
1, 25328, Note_on_c, 0, 78, 73
1, 25337, Note_on_c, 0, 69, 0
1, 25343, Note_on_c, 0, 78, 0
1, 25344, Note_on_c, 0, 76, 73
1, 25392, Note_on_c, 0, 67, 73
1, 25433, Note_on_c, 0, 76, 0
1, 25437, Note_on_c, 0, 67, 0
1, 25440, Note_on_c, 0, 78, 73
1, 25440, Note_on_c, 0, 69, 73
1, 25453, Note_on_c, 0, 78, 0
1, 25454, Note_on_c, 0, 79, 73
1, 25467, Note_on_c, 0, 79, 0
1, 25468, Note_on_c, 0, 78, 73
1, 25481, Note_on_c, 0, 78, 0
1, 25482, Note_on_c, 0, 79, 73
1, 25485, Note_on_c, 0, 69, 0
1, 25488, Note_on_c, 0, 71, 73
1, 25495, Note_on_c, 0, 79, 0
1, 25496, Note_on_c, 0, 78, 73
1, 25509, Note_on_c, 0, 78, 0
1, 25510, Note_on_c, 0, 76, 73
1, 25522, Note_on_c, 0, 76, 0
1, 25523, Note_on_c, 0, 78, 73
1, 25533, Note_on_c, 0, 71, 0
1, 25535, Note_on_c, 0, 78, 0
1, 25536, Note_on_c, 0, 76, 73
1, 25536, Note_on_c, 0, 64, 73
1, 25625, Note_on_c, 0, 76, 0
1, 25625, Note_on_c, 0, 64, 0
1, 25680, Note_on_c, 0, 59, 73
1, 25692, Note_on_c, 0, 59, 0
1, 25692, Note_on_c, 0, 57, 73
1, 25704, Note_on_c, 0, 57, 0
1, 25704, Note_on_c, 0, 55, 73
1, 25716, Note_on_c, 0, 55, 0
1, 25716, Note_on_c, 0, 54, 73
1, 25728, Note_on_c, 0, 54, 0
1, 25728, Note_on_c, 0, 52, 73
1, 25776, Note_on_c, 0, 79, 73
1, 25776, Note_on_c, 0, 71, 73
1, 25796, Note_on_c, 0, 79, 0
1, 25796, Note_on_c, 0, 71, 0
1, 25817, Note_on_c, 0, 52, 0
1, 25824, Note_on_c, 0, 79, 73
1, 25824, Note_on_c, 0, 71, 73
1, 25872, Note_on_c, 0, 64, 73
1, 25884, Note_on_c, 0, 64, 0
1, 25884, Note_on_c, 0, 62, 73
1, 25896, Note_on_c, 0, 62, 0
1, 25896, Note_on_c, 0, 60, 73
1, 25908, Note_on_c, 0, 60, 0
1, 25908, Note_on_c, 0, 59, 73
1, 25918, Note_on_c, 0, 79, 0
1, 25918, Note_on_c, 0, 71, 0
1, 25920, Note_on_c, 0, 59, 0
1, 25920, Note_on_c, 0, 57, 73
1, 25968, Note_on_c, 0, 81, 73
1, 25968, Note_on_c, 0, 72, 73
1, 25988, Note_on_c, 0, 81, 0
1, 25988, Note_on_c, 0, 72, 0
1, 26009, Note_on_c, 0, 57, 0
1, 26016, Note_on_c, 0, 81, 73
1, 26016, Note_on_c, 0, 72, 73
1, 26064, Note_on_c, 0, 57, 73
1, 26076, Note_on_c, 0, 57, 0
1, 26076, Note_on_c, 0, 55, 73
1, 26088, Note_on_c, 0, 55, 0
1, 26088, Note_on_c, 0, 54, 73
1, 26100, Note_on_c, 0, 54, 0
1, 26100, Note_on_c, 0, 52, 73
1, 26110, Note_on_c, 0, 81, 0
1, 26110, Note_on_c, 0, 72, 0
1, 26112, Note_on_c, 0, 52, 0
1, 26112, Note_on_c, 0, 50, 73
1, 26160, Note_on_c, 0, 78, 73
1, 26160, Note_on_c, 0, 69, 73
1, 26180, Note_on_c, 0, 78, 0
1, 26180, Note_on_c, 0, 69, 0
1, 26201, Note_on_c, 0, 50, 0
1, 26208, Note_on_c, 0, 78, 73
1, 26208, Note_on_c, 0, 69, 73
1, 26256, Note_on_c, 0, 62, 73
1, 26268, Note_on_c, 0, 62, 0
1, 26268, Note_on_c, 0, 60, 73
1, 26280, Note_on_c, 0, 60, 0
1, 26280, Note_on_c, 0, 59, 73
1, 26292, Note_on_c, 0, 59, 0
1, 26292, Note_on_c, 0, 57, 73
1, 26302, Note_on_c, 0, 78, 0
1, 26302, Note_on_c, 0, 69, 0
1, 26304, Note_on_c, 0, 57, 0
1, 26304, Note_on_c, 0, 55, 73
1, 26352, Note_on_c, 0, 79, 73
1, 26352, Note_on_c, 0, 71, 73
1, 26372, Note_on_c, 0, 79, 0
1, 26372, Note_on_c, 0, 71, 0
1, 26393, Note_on_c, 0, 55, 0
1, 26400, Note_on_c, 0, 79, 73
1, 26400, Note_on_c, 0, 71, 73
1, 26447, Note_on_c, 0, 79, 0
1, 26447, Note_on_c, 0, 71, 0
1, 26448, Note_on_c, 0, 74, 69
1, 26460, Note_on_c, 0, 74, 0
1, 26460, Note_on_c, 0, 72, 69
1, 26472, Note_on_c, 0, 72, 0
1, 26472, Note_on_c, 0, 71, 69
1, 26484, Note_on_c, 0, 71, 0
1, 26484, Note_on_c, 0, 69, 69
1, 26496, Note_on_c, 0, 69, 0
1, 26496, Note_on_c, 0, 67, 69
1, 26516, Note_on_c, 0, 67, 0
1, 26544, Note_on_c, 0, 79, 69
1, 26544, Note_on_c, 0, 76, 69
1, 26589, Note_on_c, 0, 79, 0
1, 26589, Note_on_c, 0, 76, 0
1, 26592, Note_on_c, 0, 78, 69
1, 26592, Note_on_c, 0, 74, 69
1, 26637, Note_on_c, 0, 78, 0
1, 26637, Note_on_c, 0, 74, 0
1, 26640, Note_on_c, 0, 76, 69
1, 26640, Note_on_c, 0, 72, 69
1, 26685, Note_on_c, 0, 76, 0
1, 26685, Note_on_c, 0, 72, 0
1, 26688, Note_on_c, 0, 74, 69
1, 26688, Note_on_c, 0, 71, 69
1, 26736, Note_on_c, 0, 55, 69
1, 26756, Note_on_c, 0, 55, 0
1, 26784, Note_on_c, 0, 43, 69
1, 26821, Note_on_c, 0, 74, 0
1, 26821, Note_on_c, 0, 71, 0
1, 26832, Note_on_c, 0, 76, 69
1, 26847, Note_on_c, 0, 76, 0
1, 26848, Note_on_c, 0, 74, 69
1, 26863, Note_on_c, 0, 74, 0
1, 26864, Note_on_c, 0, 72, 69
1, 26873, Note_on_c, 0, 43, 0
1, 26879, Note_on_c, 0, 72, 0
1, 26880, Note_on_c, 0, 71, 69
1, 26928, Note_on_c, 0, 55, 69
1, 26948, Note_on_c, 0, 55, 0
1, 26976, Note_on_c, 0, 43, 69
1, 27013, Note_on_c, 0, 71, 0
1, 27024, Note_on_c, 0, 71, 69
1, 27036, Note_on_c, 0, 71, 0
1, 27036, Note_on_c, 0, 69, 69
1, 27048, Note_on_c, 0, 69, 0
1, 27048, Note_on_c, 0, 67, 69
1, 27060, Note_on_c, 0, 67, 0
1, 27060, Note_on_c, 0, 66, 69
1, 27065, Note_on_c, 0, 43, 0
1, 27072, Note_on_c, 0, 66, 0
1, 27072, Note_on_c, 0, 64, 69
1, 27072, Note_on_c, 0, 48, 69
1, 27092, Note_on_c, 0, 64, 0
1, 27120, Note_on_c, 0, 76, 69
1, 27120, Note_on_c, 0, 72, 69
1, 27161, Note_on_c, 0, 48, 0
1, 27165, Note_on_c, 0, 76, 0
1, 27165, Note_on_c, 0, 72, 0
1, 27168, Note_on_c, 0, 74, 69
1, 27168, Note_on_c, 0, 71, 69
1, 27168, Note_on_c, 0, 50, 69
1, 27213, Note_on_c, 0, 74, 0
1, 27213, Note_on_c, 0, 71, 0
1, 27216, Note_on_c, 0, 72, 69
1, 27216, Note_on_c, 0, 69, 69
1, 27257, Note_on_c, 0, 50, 0
1, 27261, Note_on_c, 0, 72, 0
1, 27261, Note_on_c, 0, 69, 0
1, 27264, Note_on_c, 0, 72, 69
1, 27264, Note_on_c, 0, 69, 69
1, 27264, Note_on_c, 0, 55, 69
1, 27309, Note_on_c, 0, 55, 0
1, 27312, Note_on_c, 0, 50, 69
1, 27357, Note_on_c, 0, 50, 0
1, 27360, Note_on_c, 0, 72, 0
1, 27360, Note_on_c, 0, 69, 0
1, 27360, Note_on_c, 0, 71, 69
1, 27360, Note_on_c, 0, 67, 69
1, 27360, Note_on_c, 0, 43, 69
1, 27405, Note_on_c, 0, 43, 0
1, 27408, Note_on_c, 0, 67, 0
1, 27420, Note_on_c, 0, 71, 0
1, 27420, Note_on_c, 0, 69, 69
1, 27432, Note_on_c, 0, 69, 0
1, 27432, Note_on_c, 0, 67, 69
1, 27444, Note_on_c, 0, 67, 0
1, 27444, Note_on_c, 0, 66, 69
1, 27456, Note_on_c, 0, 66, 0
1, 27456, Note_on_c, 0, 64, 69
1, 27456, Note_on_c, 0, 48, 69
1, 27476, Note_on_c, 0, 64, 0
1, 27504, Note_on_c, 0, 72, 69
1, 27504, Note_on_c, 0, 69, 69
1, 27549, Note_on_c, 0, 72, 0
1, 27549, Note_on_c, 0, 69, 0
1, 27552, Note_on_c, 0, 72, 69
1, 27552, Note_on_c, 0, 69, 69
1, 27589, Note_on_c, 0, 48, 0
1, 27597, Note_on_c, 0, 72, 0
1, 27597, Note_on_c, 0, 69, 0
1, 27600, Note_on_c, 0, 71, 69
1, 27600, Note_on_c, 0, 67, 69
1, 27600, Note_on_c, 0, 49, 69
1, 27645, Note_on_c, 0, 71, 0
1, 27645, Note_on_c, 0, 67, 0
1, 27645, Note_on_c, 0, 49, 0
1, 27648, Note_on_c, 0, 71, 69
1, 27648, Note_on_c, 0, 67, 69
1, 27648, Note_on_c, 0, 50, 69
1, 27737, Note_on_c, 0, 50, 0
1, 27744, Note_on_c, 0, 71, 0
1, 27744, Note_on_c, 0, 67, 0
1, 27744, Note_on_c, 0, 69, 69
1, 27744, Note_on_c, 0, 66, 69
1, 27744, Note_on_c, 0, 38, 69
1, 27789, Note_on_c, 0, 69, 0
1, 27789, Note_on_c, 0, 66, 0
1, 27792, Note_on_c, 0, 74, 69
1, 27804, Note_on_c, 0, 74, 0
1, 27804, Note_on_c, 0, 72, 69
1, 27816, Note_on_c, 0, 72, 0
1, 27816, Note_on_c, 0, 71, 69
1, 27828, Note_on_c, 0, 71, 0
1, 27828, Note_on_c, 0, 69, 69
1, 27833, Note_on_c, 0, 38, 0
1, 27840, Note_on_c, 0, 69, 0
1, 27840, Note_on_c, 0, 67, 69
1, 27860, Note_on_c, 0, 67, 0
1, 27888, Note_on_c, 0, 79, 69
1, 27888, Note_on_c, 0, 64, 69
1, 27911, Note_on_c, 0, 79, 0
1, 27912, Note_on_c, 0, 67, 69
1, 27933, Note_on_c, 0, 64, 0
1, 27935, Note_on_c, 0, 67, 0
1, 27936, Note_on_c, 0, 78, 69
1, 27936, Note_on_c, 0, 62, 69
1, 27959, Note_on_c, 0, 78, 0
1, 27960, Note_on_c, 0, 67, 69
1, 27981, Note_on_c, 0, 62, 0
1, 27983, Note_on_c, 0, 67, 0
1, 27984, Note_on_c, 0, 76, 69
1, 27984, Note_on_c, 0, 60, 69
1, 28007, Note_on_c, 0, 76, 0
1, 28008, Note_on_c, 0, 67, 69
1, 28029, Note_on_c, 0, 60, 0
1, 28031, Note_on_c, 0, 67, 0
1, 28032, Note_on_c, 0, 74, 69
1, 28032, Note_on_c, 0, 59, 69
1, 28055, Note_on_c, 0, 74, 0
1, 28056, Note_on_c, 0, 67, 69
1, 28077, Note_on_c, 0, 59, 0
1, 28079, Note_on_c, 0, 67, 0
1, 28080, Note_on_c, 0, 72, 69
1, 28080, Note_on_c, 0, 57, 69
1, 28103, Note_on_c, 0, 72, 0
1, 28104, Note_on_c, 0, 67, 69
1, 28125, Note_on_c, 0, 57, 0
1, 28127, Note_on_c, 0, 67, 0
1, 28128, Note_on_c, 0, 71, 69
1, 28128, Note_on_c, 0, 55, 69
1, 28148, Note_on_c, 0, 71, 0
1, 28173, Note_on_c, 0, 55, 0
1, 28176, Note_on_c, 0, 74, 69
1, 28188, Note_on_c, 0, 74, 0
1, 28188, Note_on_c, 0, 72, 69
1, 28200, Note_on_c, 0, 72, 0
1, 28200, Note_on_c, 0, 71, 69
1, 28212, Note_on_c, 0, 71, 0
1, 28212, Note_on_c, 0, 69, 69
1, 28224, Note_on_c, 0, 69, 0
1, 28224, Note_on_c, 0, 67, 69
1, 28244, Note_on_c, 0, 67, 0
1, 28272, Note_on_c, 0, 79, 69
1, 28272, Note_on_c, 0, 64, 69
1, 28295, Note_on_c, 0, 79, 0
1, 28296, Note_on_c, 0, 67, 69
1, 28317, Note_on_c, 0, 64, 0
1, 28319, Note_on_c, 0, 67, 0
1, 28320, Note_on_c, 0, 78, 69
1, 28320, Note_on_c, 0, 62, 69
1, 28343, Note_on_c, 0, 78, 0
1, 28344, Note_on_c, 0, 67, 69
1, 28365, Note_on_c, 0, 62, 0
1, 28367, Note_on_c, 0, 67, 0
1, 28368, Note_on_c, 0, 76, 69
1, 28368, Note_on_c, 0, 60, 69
1, 28391, Note_on_c, 0, 76, 0
1, 28392, Note_on_c, 0, 67, 69
1, 28413, Note_on_c, 0, 60, 0
1, 28415, Note_on_c, 0, 67, 0
1, 28416, Note_on_c, 0, 74, 69
1, 28416, Note_on_c, 0, 59, 69
1, 28439, Note_on_c, 0, 74, 0
1, 28440, Note_on_c, 0, 67, 69
1, 28461, Note_on_c, 0, 59, 0
1, 28463, Note_on_c, 0, 67, 0
1, 28464, Note_on_c, 0, 72, 69
1, 28464, Note_on_c, 0, 57, 69
1, 28487, Note_on_c, 0, 72, 0
1, 28488, Note_on_c, 0, 67, 69
1, 28509, Note_on_c, 0, 57, 0
1, 28511, Note_on_c, 0, 67, 0
1, 28512, Note_on_c, 0, 71, 69
1, 28512, Note_on_c, 0, 55, 69
1, 28532, Note_on_c, 0, 71, 0
1, 28557, Note_on_c, 0, 55, 0
1, 28560, Note_on_c, 0, 74, 69
1, 28580, Note_on_c, 0, 74, 0
1, 28608, Note_on_c, 0, 72, 69
1, 28608, Note_on_c, 0, 54, 61
1, 28631, Note_on_c, 0, 54, 0
1, 28632, Note_on_c, 0, 62, 61
1, 28655, Note_on_c, 0, 62, 0
1, 28656, Note_on_c, 0, 72, 0
1, 28656, Note_on_c, 0, 69, 69
1, 28656, Note_on_c, 0, 54, 61
1, 28679, Note_on_c, 0, 54, 0
1, 28680, Note_on_c, 0, 62, 61
1, 28701, Note_on_c, 0, 69, 0
1, 28703, Note_on_c, 0, 62, 0
1, 28704, Note_on_c, 0, 54, 61
1, 28727, Note_on_c, 0, 54, 0
1, 28728, Note_on_c, 0, 62, 61
1, 28751, Note_on_c, 0, 62, 0
1, 28752, Note_on_c, 0, 72, 69
1, 28752, Note_on_c, 0, 69, 69
1, 28752, Note_on_c, 0, 54, 61
1, 28772, Note_on_c, 0, 72, 0
1, 28772, Note_on_c, 0, 69, 0
1, 28775, Note_on_c, 0, 54, 0
1, 28776, Note_on_c, 0, 62, 61
1, 28799, Note_on_c, 0, 62, 0
1, 28800, Note_on_c, 0, 71, 69
1, 28800, Note_on_c, 0, 67, 73
1, 28800, Note_on_c, 0, 55, 61
1, 28823, Note_on_c, 0, 55, 0
1, 28824, Note_on_c, 0, 62, 61
1, 28847, Note_on_c, 0, 62, 0
1, 28848, Note_on_c, 0, 71, 0
1, 28848, Note_on_c, 0, 74, 69
1, 28848, Note_on_c, 0, 67, 0
1, 28848, Note_on_c, 0, 71, 73
1, 28848, Note_on_c, 0, 55, 61
1, 28871, Note_on_c, 0, 55, 0
1, 28872, Note_on_c, 0, 62, 61
1, 28893, Note_on_c, 0, 74, 0
1, 28893, Note_on_c, 0, 71, 0
1, 28895, Note_on_c, 0, 62, 0
1, 28896, Note_on_c, 0, 55, 61
1, 28919, Note_on_c, 0, 55, 0
1, 28920, Note_on_c, 0, 62, 61
1, 28943, Note_on_c, 0, 62, 0
1, 28944, Note_on_c, 0, 74, 69
1, 28944, Note_on_c, 0, 55, 61
1, 28964, Note_on_c, 0, 74, 0
1, 28967, Note_on_c, 0, 55, 0
1, 28968, Note_on_c, 0, 62, 61
1, 28991, Note_on_c, 0, 62, 0
1, 28992, Note_on_c, 0, 72, 69
1, 28992, Note_on_c, 0, 54, 61
1, 29015, Note_on_c, 0, 54, 0
1, 29016, Note_on_c, 0, 62, 61
1, 29039, Note_on_c, 0, 62, 0
1, 29040, Note_on_c, 0, 72, 0
1, 29040, Note_on_c, 0, 69, 69
1, 29040, Note_on_c, 0, 54, 61
1, 29063, Note_on_c, 0, 54, 0
1, 29064, Note_on_c, 0, 62, 61
1, 29085, Note_on_c, 0, 69, 0
1, 29087, Note_on_c, 0, 62, 0
1, 29088, Note_on_c, 0, 54, 61
1, 29111, Note_on_c, 0, 54, 0
1, 29112, Note_on_c, 0, 62, 61
1, 29135, Note_on_c, 0, 62, 0
1, 29136, Note_on_c, 0, 72, 69
1, 29136, Note_on_c, 0, 69, 69
1, 29136, Note_on_c, 0, 54, 61
1, 29156, Note_on_c, 0, 72, 0
1, 29156, Note_on_c, 0, 69, 0
1, 29159, Note_on_c, 0, 54, 0
1, 29160, Note_on_c, 0, 62, 61
1, 29183, Note_on_c, 0, 62, 0
1, 29184, Note_on_c, 0, 71, 69
1, 29184, Note_on_c, 0, 67, 73
1, 29184, Note_on_c, 0, 55, 61
1, 29207, Note_on_c, 0, 55, 0
1, 29208, Note_on_c, 0, 62, 61
1, 29231, Note_on_c, 0, 62, 0
1, 29232, Note_on_c, 0, 71, 0
1, 29232, Note_on_c, 0, 74, 69
1, 29232, Note_on_c, 0, 67, 0
1, 29232, Note_on_c, 0, 71, 73
1, 29232, Note_on_c, 0, 55, 61
1, 29255, Note_on_c, 0, 55, 0
1, 29256, Note_on_c, 0, 62, 61
1, 29277, Note_on_c, 0, 74, 0
1, 29277, Note_on_c, 0, 71, 0
1, 29279, Note_on_c, 0, 62, 0
1, 29280, Note_on_c, 0, 55, 61
1, 29303, Note_on_c, 0, 55, 0
1, 29304, Note_on_c, 0, 62, 61
1, 29327, Note_on_c, 0, 62, 0
1, 29328, Note_on_c, 0, 74, 69
1, 29328, Note_on_c, 0, 55, 61
1, 29348, Note_on_c, 0, 74, 0
1, 29351, Note_on_c, 0, 55, 0
1, 29352, Note_on_c, 0, 62, 61
1, 29375, Note_on_c, 0, 62, 0
1, 29376, Note_on_c, 0, 72, 69
1, 29376, Note_on_c, 0, 54, 61
1, 29399, Note_on_c, 0, 54, 0
1, 29400, Note_on_c, 0, 62, 61
1, 29423, Note_on_c, 0, 62, 0
1, 29424, Note_on_c, 0, 72, 0
1, 29424, Note_on_c, 0, 69, 69
1, 29424, Note_on_c, 0, 54, 61
1, 29447, Note_on_c, 0, 54, 0
1, 29448, Note_on_c, 0, 62, 61
1, 29469, Note_on_c, 0, 69, 0
1, 29471, Note_on_c, 0, 62, 0
1, 29472, Note_on_c, 0, 54, 61
1, 29495, Note_on_c, 0, 54, 0
1, 29496, Note_on_c, 0, 62, 61
1, 29519, Note_on_c, 0, 62, 0
1, 29520, Note_on_c, 0, 72, 69
1, 29520, Note_on_c, 0, 69, 69
1, 29520, Note_on_c, 0, 54, 61
1, 29540, Note_on_c, 0, 72, 0
1, 29540, Note_on_c, 0, 69, 0
1, 29543, Note_on_c, 0, 54, 0
1, 29544, Note_on_c, 0, 62, 61
1, 29567, Note_on_c, 0, 62, 0
1, 29568, Note_on_c, 0, 71, 69
1, 29568, Note_on_c, 0, 67, 69
1, 29568, Note_on_c, 0, 55, 69
1, 29613, Note_on_c, 0, 71, 0
1, 29613, Note_on_c, 0, 67, 0
1, 29616, Note_on_c, 0, 62, 69
1, 29631, Note_on_c, 0, 62, 0
1, 29632, Note_on_c, 0, 64, 69
1, 29647, Note_on_c, 0, 64, 0
1, 29648, Note_on_c, 0, 66, 69
1, 29657, Note_on_c, 0, 55, 0
1, 29663, Note_on_c, 0, 66, 0
1, 29664, Note_on_c, 0, 67, 69
1, 29679, Note_on_c, 0, 67, 0
1, 29680, Note_on_c, 0, 69, 69
1, 29695, Note_on_c, 0, 69, 0
1, 29696, Note_on_c, 0, 71, 69
1, 29711, Note_on_c, 0, 71, 0
1, 29712, Note_on_c, 0, 69, 69
1, 29712, Note_on_c, 0, 54, 69
1, 29727, Note_on_c, 0, 69, 0
1, 29728, Note_on_c, 0, 71, 69
1, 29743, Note_on_c, 0, 71, 0
1, 29744, Note_on_c, 0, 72, 69
1, 29757, Note_on_c, 0, 54, 0
1, 29759, Note_on_c, 0, 72, 0
1, 29760, Note_on_c, 0, 71, 69
1, 29760, Note_on_c, 0, 55, 69
1, 29805, Note_on_c, 0, 71, 0
1, 29808, Note_on_c, 0, 62, 69
1, 29823, Note_on_c, 0, 62, 0
1, 29824, Note_on_c, 0, 64, 69
1, 29839, Note_on_c, 0, 64, 0
1, 29840, Note_on_c, 0, 66, 69
1, 29849, Note_on_c, 0, 55, 0
1, 29855, Note_on_c, 0, 66, 0
1, 29856, Note_on_c, 0, 67, 69
1, 29871, Note_on_c, 0, 67, 0
1, 29872, Note_on_c, 0, 69, 69
1, 29887, Note_on_c, 0, 69, 0
1, 29888, Note_on_c, 0, 71, 69
1, 29903, Note_on_c, 0, 71, 0
1, 29904, Note_on_c, 0, 69, 69
1, 29904, Note_on_c, 0, 54, 69
1, 29919, Note_on_c, 0, 69, 0
1, 29920, Note_on_c, 0, 71, 69
1, 29935, Note_on_c, 0, 71, 0
1, 29936, Note_on_c, 0, 72, 69
1, 29949, Note_on_c, 0, 54, 0
1, 29951, Note_on_c, 0, 72, 0
1, 29952, Note_on_c, 0, 71, 69
1, 29952, Note_on_c, 0, 55, 69
1, 29972, Note_on_c, 0, 71, 0
1, 30000, Note_on_c, 0, 74, 69
1, 30015, Note_on_c, 0, 74, 0
1, 30016, Note_on_c, 0, 72, 69
1, 30031, Note_on_c, 0, 72, 0
1, 30032, Note_on_c, 0, 71, 69
1, 30041, Note_on_c, 0, 55, 0
1, 30047, Note_on_c, 0, 71, 0
1, 30048, Note_on_c, 0, 76, 69
1, 30048, Note_on_c, 0, 60, 69
1, 30068, Note_on_c, 0, 76, 0
1, 30096, Note_on_c, 0, 72, 69
1, 30111, Note_on_c, 0, 72, 0
1, 30112, Note_on_c, 0, 71, 69
1, 30127, Note_on_c, 0, 71, 0
1, 30128, Note_on_c, 0, 69, 69
1, 30137, Note_on_c, 0, 60, 0
1, 30143, Note_on_c, 0, 69, 0
1, 30144, Note_on_c, 0, 67, 69
1, 30192, Note_on_c, 0, 59, 69
1, 30233, Note_on_c, 0, 67, 0
1, 30237, Note_on_c, 0, 59, 0
1, 30240, Note_on_c, 0, 69, 69
1, 30240, Note_on_c, 0, 60, 69
1, 30253, Note_on_c, 0, 69, 0
1, 30254, Note_on_c, 0, 71, 69
1, 30267, Note_on_c, 0, 71, 0
1, 30268, Note_on_c, 0, 69, 69
1, 30281, Note_on_c, 0, 69, 0
1, 30282, Note_on_c, 0, 71, 69
1, 30285, Note_on_c, 0, 60, 0
1, 30288, Note_on_c, 0, 62, 69
1, 30295, Note_on_c, 0, 71, 0
1, 30296, Note_on_c, 0, 69, 69
1, 30309, Note_on_c, 0, 69, 0
1, 30310, Note_on_c, 0, 71, 69
1, 30322, Note_on_c, 0, 71, 0
1, 30323, Note_on_c, 0, 69, 69
1, 30333, Note_on_c, 0, 62, 0
1, 30335, Note_on_c, 0, 69, 0
1, 30336, Note_on_c, 0, 71, 69
1, 30336, Note_on_c, 0, 55, 69
1, 30356, Note_on_c, 0, 71, 0
1, 30384, Note_on_c, 0, 74, 69
1, 30399, Note_on_c, 0, 74, 0
1, 30400, Note_on_c, 0, 72, 69
1, 30415, Note_on_c, 0, 72, 0
1, 30416, Note_on_c, 0, 71, 69
1, 30425, Note_on_c, 0, 55, 0
1, 30431, Note_on_c, 0, 71, 0
1, 30432, Note_on_c, 0, 76, 69
1, 30432, Note_on_c, 0, 60, 69
1, 30452, Note_on_c, 0, 76, 0
1, 30480, Note_on_c, 0, 72, 69
1, 30495, Note_on_c, 0, 72, 0
1, 30496, Note_on_c, 0, 71, 69
1, 30511, Note_on_c, 0, 71, 0
1, 30512, Note_on_c, 0, 69, 69
1, 30521, Note_on_c, 0, 60, 0
1, 30527, Note_on_c, 0, 69, 0
1, 30528, Note_on_c, 0, 67, 69
1, 30576, Note_on_c, 0, 59, 69
1, 30617, Note_on_c, 0, 67, 0
1, 30621, Note_on_c, 0, 59, 0
1, 30624, Note_on_c, 0, 69, 69
1, 30624, Note_on_c, 0, 60, 69
1, 30637, Note_on_c, 0, 69, 0
1, 30638, Note_on_c, 0, 71, 69
1, 30651, Note_on_c, 0, 71, 0
1, 30652, Note_on_c, 0, 69, 69
1, 30665, Note_on_c, 0, 69, 0
1, 30666, Note_on_c, 0, 71, 69
1, 30669, Note_on_c, 0, 60, 0
1, 30672, Note_on_c, 0, 62, 69
1, 30679, Note_on_c, 0, 71, 0
1, 30680, Note_on_c, 0, 69, 69
1, 30693, Note_on_c, 0, 69, 0
1, 30694, Note_on_c, 0, 67, 69
1, 30706, Note_on_c, 0, 67, 0
1, 30707, Note_on_c, 0, 69, 69
1, 30717, Note_on_c, 0, 62, 0
1, 30719, Note_on_c, 0, 69, 0
1, 30720, Note_on_c, 0, 67, 69
1, 30720, Note_on_c, 0, 55, 69
1, 30853, Note_on_c, 0, 67, 0
1, 30853, Note_on_c, 0, 55, 0
1, 30912, Note_on_c, 0, 55, 0
1, 31089, Note_on_c, 0, 55, 0
1, 31099, End_track
0, 0, End_of_file