0, 0, Header, 0, 1, 96
1, 0, Start_track
1, 0, Tempo, 681818
1, 0, Note_on_c, 0, 66, 64
1, 0, Note_on_c, 1, 52, 64
1, 12, Note_on_c, 0, 66, 0
1, 12, Note_on_c, 0, 64, 64
1, 24, Note_on_c, 0, 64, 0
1, 24, Note_on_c, 0, 63, 64
1, 36, Note_on_c, 0, 63, 0
1, 36, Note_on_c, 0, 64, 64
1, 45, Note_on_c, 1, 52, 0
1, 48, Note_on_c, 1, 40, 64
1, 93, Note_on_c, 1, 40, 0
1, 96, Note_on_c, 1, 52, 64
1, 141, Note_on_c, 1, 52, 0
1, 144, Note_on_c, 1, 54, 64
1, 189, Note_on_c, 1, 54, 0
1, 192, Note_on_c, 1, 55, 64
1, 237, Note_on_c, 1, 55, 0
1, 240, Note_on_c, 1, 52, 64
1, 265, Note_on_c, 0, 64, 0
1, 285, Note_on_c, 1, 52, 0
1, 288, Note_on_c, 0, 66, 64
1, 288, Note_on_c, 0, 64, 64
1, 288, Note_on_c, 1, 57, 64
1, 333, Note_on_c, 1, 57, 0
1, 336, Note_on_c, 1, 45, 64
1, 381, Note_on_c, 1, 45, 0
1, 384, Note_on_c, 1, 57, 64
1, 429, Note_on_c, 1, 57, 0
1, 432, Note_on_c, 1, 59, 64
1, 477, Note_on_c, 1, 59, 0
1, 480, Note_on_c, 1, 60, 64
1, 525, Note_on_c, 1, 60, 0
1, 528, Note_on_c, 1, 57, 64
1, 553, Note_on_c, 0, 66, 0
1, 553, Note_on_c, 0, 64, 0
1, 573, Note_on_c, 1, 57, 0
1, 576, Note_on_c, 0, 66, 64
1, 576, Note_on_c, 0, 63, 64
1, 576, Note_on_c, 1, 59, 64
1, 621, Note_on_c, 1, 59, 0
1, 624, Note_on_c, 1, 47, 64
1, 669, Note_on_c, 1, 47, 0
1, 672, Note_on_c, 1, 59, 64
1, 717, Note_on_c, 1, 59, 0
1, 720, Note_on_c, 1, 60, 64
1, 765, Note_on_c, 1, 60, 0
1, 768, Note_on_c, 1, 59, 64
1, 813, Note_on_c, 0, 66, 0
1, 813, Note_on_c, 1, 59, 0
1, 816, Note_on_c, 0, 72, 64
1, 816, Note_on_c, 1, 57, 64
1, 841, Note_on_c, 0, 63, 0
1, 861, Note_on_c, 0, 72, 0
1, 861, Note_on_c, 1, 57, 0
1, 864, Note_on_c, 0, 71, 64
1, 864, Note_on_c, 0, 64, 64
1, 864, Note_on_c, 1, 55, 64
1, 909, Note_on_c, 0, 71, 0
1, 909, Note_on_c, 1, 55, 0
1, 912, Note_on_c, 0, 69, 64
1, 912, Note_on_c, 1, 54, 64
1, 953, Note_on_c, 0, 64, 0
1, 957, Note_on_c, 0, 69, 0
1, 957, Note_on_c, 1, 54, 0
1, 960, Note_on_c, 0, 67, 64
1, 960, Note_on_c, 0, 76, 80
1, 960, Note_on_c, 1, 52, 64
1, 1005, Note_on_c, 0, 67, 0
1, 1005, Note_on_c, 1, 52, 0
1, 1008, Note_on_c, 0, 66, 64
1, 1008, Note_on_c, 1, 50, 64
1, 1053, Note_on_c, 0, 66, 0
1, 1053, Note_on_c, 1, 50, 0
1, 1056, Note_on_c, 0, 64, 64
1, 1056, Note_on_c, 1, 48, 64
1, 1101, Note_on_c, 1, 48, 0
1, 1104, Note_on_c, 0, 76, 0
1, 1104, Note_on_c, 0, 74, 64
1, 1104, Note_on_c, 1, 47, 64
1, 1149, Note_on_c, 0, 74, 0
1, 1149, Note_on_c, 1, 47, 0
1, 1152, Note_on_c, 0, 72, 64
1, 1152, Note_on_c, 1, 45, 64
1, 1197, Note_on_c, 0, 72, 0
1, 1197, Note_on_c, 1, 45, 0
1, 1200, Note_on_c, 0, 71, 64
1, 1200, Note_on_c, 1, 47, 64
1, 1245, Note_on_c, 0, 71, 0
1, 1245, Note_on_c, 1, 47, 0
1, 1248, Note_on_c, 0, 70, 64
1, 1248, Note_on_c, 1, 48, 64
1, 1285, Note_on_c, 0, 64, 0
1, 1296, Note_on_c, 0, 67, 64
1, 1341, Note_on_c, 0, 67, 0
1, 1344, Note_on_c, 0, 66, 64
1, 1356, Note_on_c, 0, 66, 0
1, 1356, Note_on_c, 0, 67, 64
1, 1368, Note_on_c, 0, 67, 0
1, 1368, Note_on_c, 0, 66, 64
1, 1389, Note_on_c, 0, 66, 0
1, 1392, Note_on_c, 0, 64, 64
1, 1425, Note_on_c, 0, 70, 0
1, 1425, Note_on_c, 1, 48, 0
1, 1440, Note_on_c, 0, 71, 64
1, 1440, Note_on_c, 1, 47, 64
1, 1485, Note_on_c, 1, 47, 0
1, 1488, Note_on_c, 1, 54, 64
1, 1529, Note_on_c, 0, 64, 0
1, 1533, Note_on_c, 1, 54, 0
1, 1536, Note_on_c, 0, 63, 64
1, 1536, Note_on_c, 1, 59, 64
1, 1581, Note_on_c, 1, 59, 0
1, 1584, Note_on_c, 1, 60, 64
1, 1617, Note_on_c, 0, 71, 0
1, 1625, Note_on_c, 0, 63, 0
1, 1629, Note_on_c, 1, 60, 0
1, 1632, Note_on_c, 1, 59, 64
1, 1677, Note_on_c, 1, 59, 0
1, 1680, Note_on_c, 1, 57, 64
1, 1725, Note_on_c, 1, 57, 0
1, 1728, Note_on_c, 0, 69, 64
1, 1728, Note_on_c, 1, 55, 64
1, 1740, Note_on_c, 0, 69, 0
1, 1740, Note_on_c, 0, 67, 64
1, 1752, Note_on_c, 0, 67, 0
1, 1752, Note_on_c, 0, 66, 64
1, 1764, Note_on_c, 0, 66, 0
1, 1764, Note_on_c, 0, 67, 64
1, 1773, Note_on_c, 1, 55, 0
1, 1776, Note_on_c, 1, 43, 64
1, 1821, Note_on_c, 1, 43, 0
1, 1824, Note_on_c, 1, 55, 64
1, 1869, Note_on_c, 1, 55, 0
1, 1872, Note_on_c, 1, 57, 64
1, 1917, Note_on_c, 1, 57, 0
1, 1920, Note_on_c, 1, 59, 64
1, 1965, Note_on_c, 1, 59, 0
1, 1968, Note_on_c, 1, 55, 64
1, 1993, Note_on_c, 0, 67, 0
1, 2013, Note_on_c, 1, 55, 0
1, 2016, Note_on_c, 0, 69, 64
1, 2016, Note_on_c, 0, 67, 64
1, 2016, Note_on_c, 1, 60, 64
1, 2061, Note_on_c, 1, 60, 0
1, 2064, Note_on_c, 1, 48, 64
1, 2109, Note_on_c, 1, 48, 0
1, 2112, Note_on_c, 1, 60, 64
1, 2157, Note_on_c, 1, 60, 0
1, 2160, Note_on_c, 1, 62, 64
1, 2205, Note_on_c, 1, 62, 0
1, 2208, Note_on_c, 1, 64, 64
1, 2253, Note_on_c, 1, 64, 0
1, 2256, Note_on_c, 1, 61, 64
1, 2281, Note_on_c, 0, 69, 0
1, 2281, Note_on_c, 0, 67, 0
1, 2301, Note_on_c, 1, 61, 0
1, 2304, Note_on_c, 0, 69, 64
1, 2304, Note_on_c, 0, 66, 64
1, 2304, Note_on_c, 1, 62, 64
1, 2349, Note_on_c, 1, 62, 0
1, 2352, Note_on_c, 1, 50, 64
1, 2397, Note_on_c, 1, 50, 0
1, 2400, Note_on_c, 1, 62, 64
1, 2437, Note_on_c, 0, 69, 0
1, 2437, Note_on_c, 0, 66, 0
1, 2445, Note_on_c, 1, 62, 0
1, 2448, Note_on_c, 0, 69, 64
1, 2448, Note_on_c, 0, 66, 64
1, 2448, Note_on_c, 1, 64, 64
1, 2493, Note_on_c, 0, 69, 0
1, 2493, Note_on_c, 0, 66, 0
1, 2493, Note_on_c, 1, 64, 0
1, 2496, Note_on_c, 0, 71, 64
1, 2496, Note_on_c, 0, 67, 64
1, 2496, Note_on_c, 1, 62, 64
1, 2541, Note_on_c, 0, 71, 0
1, 2541, Note_on_c, 0, 67, 0
1, 2541, Note_on_c, 1, 62, 0
1, 2544, Note_on_c, 0, 72, 64
1, 2544, Note_on_c, 0, 69, 64
1, 2544, Note_on_c, 1, 60, 64
1, 2589, Note_on_c, 0, 72, 0
1, 2589, Note_on_c, 0, 69, 0
1, 2589, Note_on_c, 1, 60, 0
1, 2592, Note_on_c, 0, 74, 64
1, 2592, Note_on_c, 0, 71, 64
1, 2592, Note_on_c, 1, 59, 64
1, 2637, Note_on_c, 1, 59, 0
1, 2640, Note_on_c, 1, 62, 64
1, 2685, Note_on_c, 1, 62, 0
1, 2688, Note_on_c, 1, 67, 64
1, 2725, Note_on_c, 0, 74, 0
1, 2725, Note_on_c, 0, 71, 0
1, 2733, Note_on_c, 1, 67, 0
1, 2736, Note_on_c, 0, 74, 64
1, 2736, Note_on_c, 0, 71, 64
1, 2736, Note_on_c, 1, 65, 64
1, 2781, Note_on_c, 0, 74, 0
1, 2781, Note_on_c, 0, 71, 0
1, 2781, Note_on_c, 1, 65, 0
1, 2784, Note_on_c, 0, 76, 64
1, 2784, Note_on_c, 0, 72, 64
1, 2784, Note_on_c, 1, 64, 64
1, 2829, Note_on_c, 0, 76, 0
1, 2829, Note_on_c, 0, 72, 0
1, 2829, Note_on_c, 1, 64, 0
1, 2832, Note_on_c, 0, 77, 64
1, 2832, Note_on_c, 0, 74, 64
1, 2832, Note_on_c, 1, 62, 64
1, 2877, Note_on_c, 0, 77, 0
1, 2877, Note_on_c, 0, 74, 0
1, 2877, Note_on_c, 1, 62, 0
1, 2880, Note_on_c, 0, 79, 64
1, 2880, Note_on_c, 0, 76, 64
1, 2880, Note_on_c, 1, 60, 64
1, 2925, Note_on_c, 1, 60, 0
1, 2928, Note_on_c, 1, 67, 64
1, 2973, Note_on_c, 1, 67, 0
1, 2976, Note_on_c, 1, 72, 64
1, 3013, Note_on_c, 0, 79, 0
1, 3013, Note_on_c, 0, 76, 0
1, 3021, Note_on_c, 1, 72, 0
1, 3024, Note_on_c, 0, 79, 64
1, 3024, Note_on_c, 0, 74, 64
1, 3024, Note_on_c, 1, 71, 64
1, 3069, Note_on_c, 0, 79, 0
1, 3069, Note_on_c, 0, 74, 0
1, 3069, Note_on_c, 1, 71, 0
1, 3072, Note_on_c, 0, 78, 64
1, 3072, Note_on_c, 0, 72, 64
1, 3072, Note_on_c, 1, 69, 64
1, 3117, Note_on_c, 0, 78, 0
1, 3117, Note_on_c, 0, 72, 0
1, 3117, Note_on_c, 1, 69, 0
1, 3120, Note_on_c, 0, 79, 64
1, 3120, Note_on_c, 0, 71, 64
1, 3120, Note_on_c, 1, 67, 64
1, 3165, Note_on_c, 0, 79, 0
1, 3165, Note_on_c, 0, 71, 0
1, 3165, Note_on_c, 1, 67, 0
1, 3168, Note_on_c, 0, 69, 64
1, 3168, Note_on_c, 0, 81, 64
1, 3168, Note_on_c, 1, 66, 64
1, 3213, Note_on_c, 0, 81, 0
1, 3216, Note_on_c, 0, 79, 64
1, 3261, Note_on_c, 0, 79, 0
1, 3264, Note_on_c, 0, 78, 64
1, 3309, Note_on_c, 0, 78, 0
1, 3312, Note_on_c, 0, 76, 64
1, 3357, Note_on_c, 0, 76, 0
1, 3360, Note_on_c, 0, 74, 64
1, 3405, Note_on_c, 0, 74, 0
1, 3408, Note_on_c, 0, 72, 64
1, 3433, Note_on_c, 0, 69, 0
1, 3433, Note_on_c, 1, 66, 0
1, 3453, Note_on_c, 0, 72, 0
1, 3456, Note_on_c, 0, 67, 64
1, 3456, Note_on_c, 0, 71, 64
1, 3456, Note_on_c, 1, 67, 64
1, 3501, Note_on_c, 0, 67, 0
1, 3501, Note_on_c, 0, 71, 0
1, 3501, Note_on_c, 1, 67, 0
1, 3504, Note_on_c, 0, 79, 64
1, 3504, Note_on_c, 1, 74, 64
1, 3504, Note_on_c, 1, 71, 64
1, 3549, Note_on_c, 0, 79, 0
1, 3549, Note_on_c, 1, 74, 0
1, 3549, Note_on_c, 1, 71, 0
1, 3552, Note_on_c, 0, 78, 64
1, 3552, Note_on_c, 1, 72, 64
1, 3552, Note_on_c, 1, 69, 64
1, 3597, Note_on_c, 0, 78, 0
1, 3597, Note_on_c, 1, 72, 0
1, 3597, Note_on_c, 1, 69, 0
1, 3600, Note_on_c, 0, 76, 64
1, 3600, Note_on_c, 1, 71, 64
1, 3600, Note_on_c, 1, 67, 64
1, 3645, Note_on_c, 0, 76, 0
1, 3645, Note_on_c, 1, 71, 0
1, 3645, Note_on_c, 1, 67, 0
1, 3648, Note_on_c, 0, 74, 64
1, 3648, Note_on_c, 1, 69, 64
1, 3648, Note_on_c, 1, 66, 64
1, 3693, Note_on_c, 0, 74, 0
1, 3693, Note_on_c, 1, 69, 0
1, 3693, Note_on_c, 1, 66, 0
1, 3696, Note_on_c, 0, 73, 64
1, 3696, Note_on_c, 1, 67, 64
1, 3696, Note_on_c, 1, 64, 64
1, 3741, Note_on_c, 0, 73, 0
1, 3741, Note_on_c, 1, 67, 0
1, 3741, Note_on_c, 1, 64, 0
1, 3744, Note_on_c, 0, 76, 64
1, 3744, Note_on_c, 1, 69, 64
1, 3744, Note_on_c, 1, 66, 64
1, 3750, Note_on_c, 0, 76, 0
1, 3750, Note_on_c, 0, 74, 64
1, 3756, Note_on_c, 0, 74, 0
1, 3756, Note_on_c, 0, 73, 64
1, 3762, Note_on_c, 0, 73, 0
1, 3762, Note_on_c, 0, 74, 64
1, 3789, Note_on_c, 0, 74, 0
1, 3789, Note_on_c, 1, 69, 0
1, 3789, Note_on_c, 1, 66, 0
1, 3792, Note_on_c, 0, 76, 64
1, 3792, Note_on_c, 1, 71, 64
1, 3792, Note_on_c, 1, 67, 64
1, 3837, Note_on_c, 0, 76, 0
1, 3837, Note_on_c, 1, 71, 0
1, 3837, Note_on_c, 1, 67, 0
1, 3840, Note_on_c, 0, 74, 64
1, 3840, Note_on_c, 1, 69, 64
1, 3840, Note_on_c, 1, 66, 64
1, 3885, Note_on_c, 0, 74, 0
1, 3885, Note_on_c, 1, 69, 0
1, 3885, Note_on_c, 1, 66, 0
1, 3888, Note_on_c, 0, 72, 64
1, 3888, Note_on_c, 1, 67, 64
1, 3888, Note_on_c, 1, 64, 64
1, 3933, Note_on_c, 0, 72, 0
1, 3933, Note_on_c, 1, 67, 0
1, 3933, Note_on_c, 1, 64, 0
1, 3936, Note_on_c, 0, 71, 64
1, 3936, Note_on_c, 1, 66, 64
1, 3936, Note_on_c, 1, 62, 64
1, 3981, Note_on_c, 0, 71, 0
1, 3981, Note_on_c, 1, 66, 0
1, 3981, Note_on_c, 1, 62, 0
1, 3984, Note_on_c, 0, 70, 64
1, 3984, Note_on_c, 1, 64, 64
1, 3984, Note_on_c, 1, 61, 64
1, 4029, Note_on_c, 0, 70, 0
1, 4029, Note_on_c, 1, 64, 0
1, 4029, Note_on_c, 1, 61, 0
1, 4032, Note_on_c, 0, 72, 64
1, 4032, Note_on_c, 1, 66, 64
1, 4032, Note_on_c, 1, 62, 64
1, 4038, Note_on_c, 0, 72, 0
1, 4038, Note_on_c, 0, 71, 64
1, 4044, Note_on_c, 0, 71, 0
1, 4044, Note_on_c, 0, 70, 64
1, 4050, Note_on_c, 0, 70, 0
1, 4050, Note_on_c, 0, 71, 64
1, 4077, Note_on_c, 0, 71, 0
1, 4077, Note_on_c, 1, 66, 0
1, 4077, Note_on_c, 1, 62, 0
1, 4080, Note_on_c, 0, 72, 64
1, 4080, Note_on_c, 1, 67, 64
1, 4080, Note_on_c, 1, 64, 64
1, 4125, Note_on_c, 0, 72, 0
1, 4125, Note_on_c, 1, 67, 0
1, 4125, Note_on_c, 1, 64, 0
1, 4128, Note_on_c, 0, 71, 64
1, 4128, Note_on_c, 1, 66, 64
1, 4128, Note_on_c, 1, 62, 64
1, 4173, Note_on_c, 0, 71, 0
1, 4173, Note_on_c, 1, 66, 0
1, 4173, Note_on_c, 1, 62, 0
1, 4176, Note_on_c, 0, 69, 64
1, 4176, Note_on_c, 1, 64, 64
1, 4176, Note_on_c, 1, 60, 64
1, 4221, Note_on_c, 0, 69, 0
1, 4221, Note_on_c, 1, 64, 0
1, 4221, Note_on_c, 1, 60, 0
1, 4224, Note_on_c, 0, 67, 64
1, 4224, Note_on_c, 1, 62, 64
1, 4224, Note_on_c, 1, 59, 64
1, 4269, Note_on_c, 0, 67, 0
1, 4269, Note_on_c, 1, 62, 0
1, 4269, Note_on_c, 1, 59, 0
1, 4272, Note_on_c, 0, 66, 64
1, 4272, Note_on_c, 1, 60, 64
1, 4272, Note_on_c, 1, 57, 64
1, 4317, Note_on_c, 0, 66, 0
1, 4317, Note_on_c, 1, 60, 0
1, 4317, Note_on_c, 1, 57, 0
1, 4320, Note_on_c, 0, 62, 64
1, 4320, Note_on_c, 0, 69, 64
1, 4320, Note_on_c, 1, 59, 64
1, 4326, Note_on_c, 0, 69, 0
1, 4326, Note_on_c, 0, 67, 64
1, 4332, Note_on_c, 0, 67, 0
1, 4332, Note_on_c, 0, 66, 64
1, 4338, Note_on_c, 0, 66, 0
1, 4338, Note_on_c, 0, 67, 64
1, 4365, Note_on_c, 0, 67, 0
1, 4365, Note_on_c, 1, 59, 0
1, 4368, Note_on_c, 0, 69, 64
1, 4368, Note_on_c, 1, 57, 64
1, 4409, Note_on_c, 0, 62, 0
1, 4413, Note_on_c, 0, 69, 0
1, 4413, Note_on_c, 1, 57, 0
1, 4416, Note_on_c, 0, 71, 64
1, 4416, Note_on_c, 0, 74, 64
1, 4416, Note_on_c, 1, 55, 64
1, 4461, Note_on_c, 0, 71, 0
1, 4461, Note_on_c, 1, 55, 0
1, 4464, Note_on_c, 0, 69, 64
1, 4464, Note_on_c, 1, 54, 64
1, 4505, Note_on_c, 0, 74, 0
1, 4509, Note_on_c, 0, 69, 0
1, 4509, Note_on_c, 1, 54, 0
1, 4512, Note_on_c, 0, 67, 64
1, 4512, Note_on_c, 0, 79, 64
1, 4512, Note_on_c, 1, 52, 64
1, 4557, Note_on_c, 0, 79, 0
1, 4557, Note_on_c, 1, 52, 0
1, 4560, Note_on_c, 0, 78, 64
1, 4560, Note_on_c, 1, 50, 64
1, 4601, Note_on_c, 0, 67, 0
1, 4605, Note_on_c, 0, 78, 0
1, 4605, Note_on_c, 1, 50, 0
1, 4608, Note_on_c, 0, 76, 64
1, 4608, Note_on_c, 0, 79, 64
1, 4608, Note_on_c, 1, 48, 64
1, 4653, Note_on_c, 0, 76, 0
1, 4653, Note_on_c, 1, 48, 0
1, 4656, Note_on_c, 0, 74, 64
1, 4656, Note_on_c, 1, 47, 64
1, 4697, Note_on_c, 0, 79, 0
1, 4701, Note_on_c, 0, 74, 0
1, 4701, Note_on_c, 1, 47, 0
1, 4704, Note_on_c, 0, 72, 64
1, 4704, Note_on_c, 0, 84, 64
1, 4704, Note_on_c, 1, 45, 64
1, 4749, Note_on_c, 0, 84, 0
1, 4749, Note_on_c, 1, 45, 0
1, 4752, Note_on_c, 0, 83, 64
1, 4752, Note_on_c, 1, 43, 64
1, 4797, Note_on_c, 0, 83, 0
1, 4797, Note_on_c, 1, 43, 0
1, 4800, Note_on_c, 0, 81, 64
1, 4800, Note_on_c, 1, 42, 64
1, 4845, Note_on_c, 0, 81, 0
1, 4845, Note_on_c, 1, 42, 0
1, 4848, Note_on_c, 0, 79, 64
1, 4848, Note_on_c, 1, 40, 64
1, 4881, Note_on_c, 0, 72, 0
1, 4893, Note_on_c, 0, 79, 0
1, 4893, Note_on_c, 1, 40, 0
1, 4896, Note_on_c, 0, 78, 64
1, 4896, Note_on_c, 0, 81, 64
1, 4896, Note_on_c, 1, 38, 64
1, 4941, Note_on_c, 0, 78, 0
1, 4941, Note_on_c, 1, 38, 0
1, 4944, Note_on_c, 0, 76, 64
1, 4944, Note_on_c, 1, 36, 64
1, 4985, Note_on_c, 0, 81, 0
1, 4989, Note_on_c, 0, 76, 0
1, 4989, Note_on_c, 1, 36, 0
1, 4992, Note_on_c, 0, 74, 74
1, 4992, Note_on_c, 0, 86, 80
1, 4992, Note_on_c, 1, 35, 64
1, 5037, Note_on_c, 1, 35, 0
1, 5040, Note_on_c, 0, 86, 0
1, 5040, Note_on_c, 0, 84, 74
1, 5040, Note_on_c, 1, 33, 64
1, 5085, Note_on_c, 0, 84, 0
1, 5085, Note_on_c, 1, 33, 0
1, 5088, Note_on_c, 0, 83, 71
1, 5088, Note_on_c, 1, 31, 64
1, 5125, Note_on_c, 0, 74, 0
1, 5133, Note_on_c, 0, 83, 0
1, 5136, Note_on_c, 0, 72, 66
1, 5136, Note_on_c, 0, 81, 68
1, 5177, Note_on_c, 1, 31, 0
1, 5181, Note_on_c, 0, 72, 0
1, 5181, Note_on_c, 0, 81, 0
1, 5184, Note_on_c, 0, 71, 64
1, 5184, Note_on_c, 0, 79, 65
1, 5229, Note_on_c, 0, 71, 0
1, 5229, Note_on_c, 0, 79, 0
1, 5232, Note_on_c, 0, 74, 61
1, 5232, Note_on_c, 0, 78, 62
1, 5232, Note_on_c, 1, 59, 59
1, 5277, Note_on_c, 0, 78, 0
1, 5277, Note_on_c, 1, 59, 0
1, 5280, Note_on_c, 0, 76, 59
1, 5280, Note_on_c, 1, 60, 59
1, 5325, Note_on_c, 0, 74, 0
1, 5325, Note_on_c, 1, 60, 0
1, 5328, Note_on_c, 0, 72, 59
1, 5328, Note_on_c, 1, 64, 59
1, 5369, Note_on_c, 0, 76, 0
1, 5373, Note_on_c, 1, 64, 0
1, 5376, Note_on_c, 0, 74, 59
1, 5376, Note_on_c, 1, 67, 59
1, 5417, Note_on_c, 0, 72, 0
1, 5421, Note_on_c, 1, 67, 0
1, 5424, Note_on_c, 0, 71, 59
1, 5424, Note_on_c, 1, 68, 59
1, 5465, Note_on_c, 0, 74, 0
1, 5469, Note_on_c, 1, 68, 0
1, 5472, Note_on_c, 0, 72, 59
1, 5472, Note_on_c, 1, 69, 59
1, 5517, Note_on_c, 0, 71, 0
1, 5517, Note_on_c, 1, 69, 0
1, 5520, Note_on_c, 0, 69, 59
1, 5520, Note_on_c, 1, 66, 59
1, 5561, Note_on_c, 0, 72, 0
1, 5565, Note_on_c, 1, 66, 0
1, 5568, Note_on_c, 0, 71, 59
1, 5568, Note_on_c, 1, 67, 59
1, 5609, Note_on_c, 0, 69, 0
1, 5613, Note_on_c, 1, 67, 0
1, 5616, Note_on_c, 0, 67, 59
1, 5616, Note_on_c, 1, 59, 59
1, 5657, Note_on_c, 0, 71, 0
1, 5661, Note_on_c, 1, 59, 0
1, 5664, Note_on_c, 0, 69, 59
1, 5664, Note_on_c, 1, 60, 59
1, 5709, Note_on_c, 1, 60, 0
1, 5712, Note_on_c, 1, 61, 59
1, 5757, Note_on_c, 1, 61, 0
1, 5760, Note_on_c, 1, 62, 59
1, 5805, Note_on_c, 0, 67, 0
1, 5808, Note_on_c, 0, 64, 59
1, 5853, Note_on_c, 0, 64, 0
1, 5856, Note_on_c, 0, 66, 59
1, 5893, Note_on_c, 0, 69, 0
1, 5901, Note_on_c, 0, 66, 0
1, 5904, Note_on_c, 0, 67, 59
1, 5904, Note_on_c, 0, 71, 59
1, 5937, Note_on_c, 1, 62, 0
1, 5949, Note_on_c, 0, 67, 0
1, 5949, Note_on_c, 0, 71, 0
1, 5952, Note_on_c, 0, 69, 59
1, 5952, Note_on_c, 0, 72, 59
1, 5952, Note_on_c, 1, 50, 59
1, 5997, Note_on_c, 0, 69, 0
1, 5997, Note_on_c, 0, 72, 0
1, 6000, Note_on_c, 0, 60, 59
1, 6000, Note_on_c, 0, 66, 59
1, 6041, Note_on_c, 1, 50, 0
1, 6045, Note_on_c, 0, 60, 0
1, 6045, Note_on_c, 0, 66, 0
1, 6048, Note_on_c, 0, 59, 59
1, 6048, Note_on_c, 0, 67, 59
1, 6048, Note_on_c, 1, 55, 59
1, 6093, Note_on_c, 0, 59, 0
1, 6093, Note_on_c, 0, 67, 0
1, 6096, Note_on_c, 0, 59, 59
1, 6096, Note_on_c, 0, 62, 59
1, 6141, Note_on_c, 0, 59, 0
1, 6141, Note_on_c, 0, 62, 0
1, 6144, Note_on_c, 0, 60, 61
1, 6144, Note_on_c, 0, 64, 61
1, 6189, Note_on_c, 0, 60, 0
1, 6189, Note_on_c, 0, 64, 0
1, 6192, Note_on_c, 0, 62, 63
1, 6192, Note_on_c, 0, 65, 63
1, 6237, Note_on_c, 0, 62, 0
1, 6237, Note_on_c, 0, 65, 0
1, 6240, Note_on_c, 0, 60, 65
1, 6240, Note_on_c, 0, 64, 65
1, 6285, Note_on_c, 0, 60, 0
1, 6285, Note_on_c, 0, 64, 0
1, 6288, Note_on_c, 0, 66, 67
1, 6288, Note_on_c, 0, 72, 67
1, 6313, Note_on_c, 1, 55, 0
1, 6333, Note_on_c, 0, 66, 0
1, 6333, Note_on_c, 0, 72, 0
1, 6336, Note_on_c, 0, 67, 67
1, 6336, Note_on_c, 0, 71, 67
1, 6336, Note_on_c, 1, 43, 59
1, 6381, Note_on_c, 0, 67, 0
1, 6381, Note_on_c, 0, 71, 0
1, 6384, Note_on_c, 0, 59, 59
1, 6384, Note_on_c, 0, 62, 67
1, 6429, Note_on_c, 0, 59, 0
1, 6429, Note_on_c, 0, 62, 0
1, 6432, Note_on_c, 0, 60, 61
1, 6432, Note_on_c, 0, 64, 67
1, 6477, Note_on_c, 0, 60, 0
1, 6477, Note_on_c, 0, 64, 0
1, 6480, Note_on_c, 0, 62, 64
1, 6480, Note_on_c, 0, 65, 67
1, 6525, Note_on_c, 0, 62, 0
1, 6525, Note_on_c, 0, 65, 0
1, 6528, Note_on_c, 0, 64, 67
1, 6528, Note_on_c, 1, 60, 64
1, 6573, Note_on_c, 0, 64, 0
1, 6573, Note_on_c, 1, 60, 0
1, 6576, Note_on_c, 0, 54, 67
1, 6576, Note_on_c, 1, 48, 64
1, 6601, Note_on_c, 1, 43, 0
1, 6621, Note_on_c, 0, 54, 0
1, 6621, Note_on_c, 1, 48, 0
1, 6624, Note_on_c, 1, 57, 59
1, 6624, Note_on_c, 1, 48, 59
1, 6624, Note_on_c, 1, 31, 64
1, 6720, Note_on_c, 1, 57, 0
1, 6720, Note_on_c, 1, 48, 0
1, 6720, Note_on_c, 1, 55, 59
1, 6720, Note_on_c, 1, 47, 59
1, 6801, Note_on_c, 1, 31, 0
1, 6809, Note_on_c, 1, 55, 0
1, 6809, Note_on_c, 1, 47, 0
1, 6912, Note_on_c, 0, 66, 64
1, 6912, Note_on_c, 1, 52, 64
1, 6924, Note_on_c, 0, 66, 0
1, 6924, Note_on_c, 0, 64, 64
1, 6936, Note_on_c, 0, 64, 0
1, 6936, Note_on_c, 0, 63, 64
1, 6948, Note_on_c, 0, 63, 0
1, 6948, Note_on_c, 0, 64, 64
1, 6957, Note_on_c, 1, 52, 0
1, 6960, Note_on_c, 1, 40, 64
1, 7005, Note_on_c, 1, 40, 0
1, 7008, Note_on_c, 1, 52, 64
1, 7053, Note_on_c, 1, 52, 0
1, 7056, Note_on_c, 1, 54, 64
1, 7101, Note_on_c, 1, 54, 0
1, 7104, Note_on_c, 1, 55, 64
1, 7149, Note_on_c, 1, 55, 0
1, 7152, Note_on_c, 1, 52, 64
1, 7177, Note_on_c, 0, 64, 0
1, 7197, Note_on_c, 1, 52, 0
1, 7200, Note_on_c, 0, 66, 64
1, 7200, Note_on_c, 0, 64, 64
1, 7200, Note_on_c, 1, 57, 64
1, 7245, Note_on_c, 1, 57, 0
1, 7248, Note_on_c, 1, 45, 64
1, 7293, Note_on_c, 1, 45, 0
1, 7296, Note_on_c, 1, 57, 64
1, 7341, Note_on_c, 1, 57, 0
1, 7344, Note_on_c, 1, 59, 64
1, 7389, Note_on_c, 1, 59, 0
1, 7392, Note_on_c, 1, 60, 64
1, 7437, Note_on_c, 1, 60, 0
1, 7440, Note_on_c, 1, 57, 64
1, 7465, Note_on_c, 0, 66, 0
1, 7465, Note_on_c, 0, 64, 0
1, 7485, Note_on_c, 1, 57, 0
1, 7488, Note_on_c, 0, 66, 64
1, 7488, Note_on_c, 0, 63, 64
1, 7488, Note_on_c, 1, 59, 64
1, 7533, Note_on_c, 1, 59, 0
1, 7536, Note_on_c, 1, 47, 64
1, 7581, Note_on_c, 1, 47, 0
1, 7584, Note_on_c, 1, 59, 64
1, 7629, Note_on_c, 1, 59, 0
1, 7632, Note_on_c, 1, 60, 64
1, 7677, Note_on_c, 1, 60, 0
1, 7680, Note_on_c, 1, 59, 64
1, 7725, Note_on_c, 0, 66, 0
1, 7725, Note_on_c, 1, 59, 0
1, 7728, Note_on_c, 0, 72, 64
1, 7728, Note_on_c, 1, 57, 64
1, 7753, Note_on_c, 0, 63, 0
1, 7773, Note_on_c, 0, 72, 0
1, 7773, Note_on_c, 1, 57, 0
1, 7776, Note_on_c, 0, 71, 64
1, 7776, Note_on_c, 0, 64, 64
1, 7776, Note_on_c, 1, 55, 64
1, 7821, Note_on_c, 0, 71, 0
1, 7821, Note_on_c, 1, 55, 0
1, 7824, Note_on_c, 0, 69, 64
1, 7824, Note_on_c, 1, 54, 64
1, 7865, Note_on_c, 0, 64, 0
1, 7869, Note_on_c, 0, 69, 0
1, 7869, Note_on_c, 1, 54, 0
1, 7872, Note_on_c, 0, 67, 64
1, 7872, Note_on_c, 0, 76, 80
1, 7872, Note_on_c, 1, 52, 64
1, 7917, Note_on_c, 0, 67, 0
1, 7917, Note_on_c, 1, 52, 0
1, 7920, Note_on_c, 0, 66, 64
1, 7920, Note_on_c, 1, 50, 64
1, 7965, Note_on_c, 0, 66, 0
1, 7965, Note_on_c, 1, 50, 0
1, 7968, Note_on_c, 0, 64, 64
1, 7968, Note_on_c, 1, 48, 64
1, 8013, Note_on_c, 1, 48, 0
1, 8016, Note_on_c, 0, 76, 0
1, 8016, Note_on_c, 0, 74, 64
1, 8016, Note_on_c, 1, 47, 64
1, 8061, Note_on_c, 0, 74, 0
1, 8061, Note_on_c, 1, 47, 0
1, 8064, Note_on_c, 0, 72, 64
1, 8064, Note_on_c, 1, 45, 64
1, 8109, Note_on_c, 0, 72, 0
1, 8109, Note_on_c, 1, 45, 0
1, 8112, Note_on_c, 0, 71, 64
1, 8112, Note_on_c, 1, 47, 64
1, 8157, Note_on_c, 0, 71, 0
1, 8157, Note_on_c, 1, 47, 0
1, 8160, Note_on_c, 0, 70, 64
1, 8160, Note_on_c, 1, 48, 64
1, 8197, Note_on_c, 0, 64, 0
1, 8208, Note_on_c, 0, 67, 64
1, 8253, Note_on_c, 0, 67, 0
1, 8256, Note_on_c, 0, 66, 64
1, 8268, Note_on_c, 0, 66, 0
1, 8268, Note_on_c, 0, 67, 64
1, 8280, Note_on_c, 0, 67, 0
1, 8280, Note_on_c, 0, 66, 64
1, 8301, Note_on_c, 0, 66, 0
1, 8304, Note_on_c, 0, 64, 64
1, 8337, Note_on_c, 0, 70, 0
1, 8337, Note_on_c, 1, 48, 0
1, 8352, Note_on_c, 0, 71, 64
1, 8352, Note_on_c, 1, 47, 64
1, 8397, Note_on_c, 1, 47, 0
1, 8400, Note_on_c, 1, 54, 64
1, 8441, Note_on_c, 0, 64, 0
1, 8445, Note_on_c, 1, 54, 0
1, 8448, Note_on_c, 0, 63, 64
1, 8448, Note_on_c, 1, 59, 64
1, 8493, Note_on_c, 1, 59, 0
1, 8496, Note_on_c, 1, 60, 64
1, 8529, Note_on_c, 0, 71, 0
1, 8537, Note_on_c, 0, 63, 0
1, 8541, Note_on_c, 1, 60, 0
1, 8544, Note_on_c, 1, 59, 64
1, 8589, Note_on_c, 1, 59, 0
1, 8592, Note_on_c, 1, 57, 64
1, 8637, Note_on_c, 1, 57, 0
1, 8640, Note_on_c, 0, 69, 64
1, 8640, Note_on_c, 1, 55, 64
1, 8652, Note_on_c, 0, 69, 0
1, 8652, Note_on_c, 0, 67, 64
1, 8664, Note_on_c, 0, 67, 0
1, 8664, Note_on_c, 0, 66, 64
1, 8676, Note_on_c, 0, 66, 0
1, 8676, Note_on_c, 0, 67, 64
1, 8685, Note_on_c, 1, 55, 0
1, 8688, Note_on_c, 1, 43, 64
1, 8733, Note_on_c, 1, 43, 0
1, 8736, Note_on_c, 1, 55, 64
1, 8781, Note_on_c, 1, 55, 0
1, 8784, Note_on_c, 1, 57, 64
1, 8829, Note_on_c, 1, 57, 0
1, 8832, Note_on_c, 1, 59, 64
1, 8877, Note_on_c, 1, 59, 0
1, 8880, Note_on_c, 1, 55, 64
1, 8905, Note_on_c, 0, 67, 0
1, 8925, Note_on_c, 1, 55, 0
1, 8928, Note_on_c, 0, 69, 64
1, 8928, Note_on_c, 0, 67, 64
1, 8928, Note_on_c, 1, 60, 64
1, 8973, Note_on_c, 1, 60, 0
1, 8976, Note_on_c, 1, 48, 64
1, 9021, Note_on_c, 1, 48, 0
1, 9024, Note_on_c, 1, 60, 64
1, 9069, Note_on_c, 1, 60, 0
1, 9072, Note_on_c, 1, 62, 64
1, 9117, Note_on_c, 1, 62, 0
1, 9120, Note_on_c, 1, 64, 64
1, 9165, Note_on_c, 1, 64, 0
1, 9168, Note_on_c, 1, 61, 64
1, 9193, Note_on_c, 0, 69, 0
1, 9193, Note_on_c, 0, 67, 0
1, 9213, Note_on_c, 1, 61, 0
1, 9216, Note_on_c, 0, 69, 64
1, 9216, Note_on_c, 0, 66, 64
1, 9216, Note_on_c, 1, 62, 64
1, 9261, Note_on_c, 1, 62, 0
1, 9264, Note_on_c, 1, 50, 64
1, 9309, Note_on_c, 1, 50, 0
1, 9312, Note_on_c, 1, 62, 64
1, 9349, Note_on_c, 0, 69, 0
1, 9349, Note_on_c, 0, 66, 0
1, 9357, Note_on_c, 1, 62, 0
1, 9360, Note_on_c, 0, 69, 64
1, 9360, Note_on_c, 0, 66, 64
1, 9360, Note_on_c, 1, 64, 64
1, 9405, Note_on_c, 0, 69, 0
1, 9405, Note_on_c, 0, 66, 0
1, 9405, Note_on_c, 1, 64, 0
1, 9408, Note_on_c, 0, 71, 64
1, 9408, Note_on_c, 0, 67, 64
1, 9408, Note_on_c, 1, 62, 64
1, 9453, Note_on_c, 0, 71, 0
1, 9453, Note_on_c, 0, 67, 0
1, 9453, Note_on_c, 1, 62, 0
1, 9456, Note_on_c, 0, 72, 64
1, 9456, Note_on_c, 0, 69, 64
1, 9456, Note_on_c, 1, 60, 64
1, 9501, Note_on_c, 0, 72, 0
1, 9501, Note_on_c, 0, 69, 0
1, 9501, Note_on_c, 1, 60, 0
1, 9504, Note_on_c, 0, 74, 64
1, 9504, Note_on_c, 0, 71, 64
1, 9504, Note_on_c, 1, 59, 64
1, 9549, Note_on_c, 1, 59, 0
1, 9552, Note_on_c, 1, 62, 64
1, 9597, Note_on_c, 1, 62, 0
1, 9600, Note_on_c, 1, 67, 64
1, 9637, Note_on_c, 0, 74, 0
1, 9637, Note_on_c, 0, 71, 0
1, 9645, Note_on_c, 1, 67, 0
1, 9648, Note_on_c, 0, 74, 64
1, 9648, Note_on_c, 0, 71, 64
1, 9648, Note_on_c, 1, 65, 64
1, 9693, Note_on_c, 0, 74, 0
1, 9693, Note_on_c, 0, 71, 0
1, 9693, Note_on_c, 1, 65, 0
1, 9696, Note_on_c, 0, 76, 64
1, 9696, Note_on_c, 0, 72, 64
1, 9696, Note_on_c, 1, 64, 64
1, 9741, Note_on_c, 0, 76, 0
1, 9741, Note_on_c, 0, 72, 0
1, 9741, Note_on_c, 1, 64, 0
1, 9744, Note_on_c, 0, 77, 64
1, 9744, Note_on_c, 0, 74, 64
1, 9744, Note_on_c, 1, 62, 64
1, 9789, Note_on_c, 0, 77, 0
1, 9789, Note_on_c, 0, 74, 0
1, 9789, Note_on_c, 1, 62, 0
1, 9792, Note_on_c, 0, 79, 64
1, 9792, Note_on_c, 0, 76, 64
1, 9792, Note_on_c, 1, 60, 64
1, 9837, Note_on_c, 1, 60, 0
1, 9840, Note_on_c, 1, 67, 64
1, 9885, Note_on_c, 1, 67, 0
1, 9888, Note_on_c, 1, 72, 64
1, 9925, Note_on_c, 0, 79, 0
1, 9925, Note_on_c, 0, 76, 0
1, 9933, Note_on_c, 1, 72, 0
1, 9936, Note_on_c, 0, 79, 64
1, 9936, Note_on_c, 0, 74, 64
1, 9936, Note_on_c, 1, 71, 64
1, 9981, Note_on_c, 0, 79, 0
1, 9981, Note_on_c, 0, 74, 0
1, 9981, Note_on_c, 1, 71, 0
1, 9984, Note_on_c, 0, 78, 64
1, 9984, Note_on_c, 0, 72, 64
1, 9984, Note_on_c, 1, 69, 64
1, 10029, Note_on_c, 0, 78, 0
1, 10029, Note_on_c, 0, 72, 0
1, 10029, Note_on_c, 1, 69, 0
1, 10032, Note_on_c, 0, 79, 64
1, 10032, Note_on_c, 0, 71, 64
1, 10032, Note_on_c, 1, 67, 64
1, 10077, Note_on_c, 0, 79, 0
1, 10077, Note_on_c, 0, 71, 0
1, 10077, Note_on_c, 1, 67, 0
1, 10080, Note_on_c, 0, 69, 64
1, 10080, Note_on_c, 0, 81, 64
1, 10080, Note_on_c, 1, 66, 64
1, 10125, Note_on_c, 0, 81, 0
1, 10128, Note_on_c, 0, 79, 64
1, 10173, Note_on_c, 0, 79, 0
1, 10176, Note_on_c, 0, 78, 64
1, 10221, Note_on_c, 0, 78, 0
1, 10224, Note_on_c, 0, 76, 64
1, 10269, Note_on_c, 0, 76, 0
1, 10272, Note_on_c, 0, 74, 64
1, 10317, Note_on_c, 0, 74, 0
1, 10320, Note_on_c, 0, 72, 64
1, 10345, Note_on_c, 0, 69, 0
1, 10345, Note_on_c, 1, 66, 0
1, 10365, Note_on_c, 0, 72, 0
1, 10368, Note_on_c, 0, 67, 64
1, 10368, Note_on_c, 0, 71, 64
1, 10368, Note_on_c, 1, 67, 64
1, 10413, Note_on_c, 0, 67, 0
1, 10413, Note_on_c, 0, 71, 0
1, 10413, Note_on_c, 1, 67, 0
1, 10416, Note_on_c, 0, 79, 64
1, 10416, Note_on_c, 1, 74, 64
1, 10416, Note_on_c, 1, 71, 64
1, 10461, Note_on_c, 0, 79, 0
1, 10461, Note_on_c, 1, 74, 0
1, 10461, Note_on_c, 1, 71, 0
1, 10464, Note_on_c, 0, 78, 64
1, 10464, Note_on_c, 1, 72, 64
1, 10464, Note_on_c, 1, 69, 64
1, 10509, Note_on_c, 0, 78, 0
1, 10509, Note_on_c, 1, 72, 0
1, 10509, Note_on_c, 1, 69, 0
1, 10512, Note_on_c, 0, 76, 64
1, 10512, Note_on_c, 1, 71, 64
1, 10512, Note_on_c, 1, 67, 64
1, 10557, Note_on_c, 0, 76, 0
1, 10557, Note_on_c, 1, 71, 0
1, 10557, Note_on_c, 1, 67, 0
1, 10560, Note_on_c, 0, 74, 64
1, 10560, Note_on_c, 1, 69, 64
1, 10560, Note_on_c, 1, 66, 64
1, 10605, Note_on_c, 0, 74, 0
1, 10605, Note_on_c, 1, 69, 0
1, 10605, Note_on_c, 1, 66, 0
1, 10608, Note_on_c, 0, 73, 64
1, 10608, Note_on_c, 1, 67, 64
1, 10608, Note_on_c, 1, 64, 64
1, 10653, Note_on_c, 0, 73, 0
1, 10653, Note_on_c, 1, 67, 0
1, 10653, Note_on_c, 1, 64, 0
1, 10656, Note_on_c, 0, 76, 64
1, 10656, Note_on_c, 1, 69, 64
1, 10656, Note_on_c, 1, 66, 64
1, 10662, Note_on_c, 0, 76, 0
1, 10662, Note_on_c, 0, 74, 64
1, 10668, Note_on_c, 0, 74, 0
1, 10668, Note_on_c, 0, 73, 64
1, 10674, Note_on_c, 0, 73, 0
1, 10674, Note_on_c, 0, 74, 64
1, 10701, Note_on_c, 0, 74, 0
1, 10701, Note_on_c, 1, 69, 0
1, 10701, Note_on_c, 1, 66, 0
1, 10704, Note_on_c, 0, 76, 64
1, 10704, Note_on_c, 1, 71, 64
1, 10704, Note_on_c, 1, 67, 64
1, 10749, Note_on_c, 0, 76, 0
1, 10749, Note_on_c, 1, 71, 0
1, 10749, Note_on_c, 1, 67, 0
1, 10752, Note_on_c, 0, 74, 64
1, 10752, Note_on_c, 1, 69, 64
1, 10752, Note_on_c, 1, 66, 64
1, 10797, Note_on_c, 0, 74, 0
1, 10797, Note_on_c, 1, 69, 0
1, 10797, Note_on_c, 1, 66, 0
1, 10800, Note_on_c, 0, 72, 64
1, 10800, Note_on_c, 1, 67, 64
1, 10800, Note_on_c, 1, 64, 64
1, 10845, Note_on_c, 0, 72, 0
1, 10845, Note_on_c, 1, 67, 0
1, 10845, Note_on_c, 1, 64, 0
1, 10848, Note_on_c, 0, 71, 64
1, 10848, Note_on_c, 1, 66, 64
1, 10848, Note_on_c, 1, 62, 64
1, 10893, Note_on_c, 0, 71, 0
1, 10893, Note_on_c, 1, 66, 0
1, 10893, Note_on_c, 1, 62, 0
1, 10896, Note_on_c, 0, 70, 64
1, 10896, Note_on_c, 1, 64, 64
1, 10896, Note_on_c, 1, 61, 64
1, 10941, Note_on_c, 0, 70, 0
1, 10941, Note_on_c, 1, 64, 0
1, 10941, Note_on_c, 1, 61, 0
1, 10944, Note_on_c, 0, 72, 64
1, 10944, Note_on_c, 1, 66, 64
1, 10944, Note_on_c, 1, 62, 64
1, 10950, Note_on_c, 0, 72, 0
1, 10950, Note_on_c, 0, 71, 64
1, 10956, Note_on_c, 0, 71, 0
1, 10956, Note_on_c, 0, 70, 64
1, 10962, Note_on_c, 0, 70, 0
1, 10962, Note_on_c, 0, 71, 64
1, 10989, Note_on_c, 0, 71, 0
1, 10989, Note_on_c, 1, 66, 0
1, 10989, Note_on_c, 1, 62, 0
1, 10992, Note_on_c, 0, 72, 64
1, 10992, Note_on_c, 1, 67, 64
1, 10992, Note_on_c, 1, 64, 64
1, 11037, Note_on_c, 0, 72, 0
1, 11037, Note_on_c, 1, 67, 0
1, 11037, Note_on_c, 1, 64, 0
1, 11040, Note_on_c, 0, 71, 64
1, 11040, Note_on_c, 1, 66, 64
1, 11040, Note_on_c, 1, 62, 64
1, 11085, Note_on_c, 0, 71, 0
1, 11085, Note_on_c, 1, 66, 0
1, 11085, Note_on_c, 1, 62, 0
1, 11088, Note_on_c, 0, 69, 64
1, 11088, Note_on_c, 1, 64, 64
1, 11088, Note_on_c, 1, 60, 64
1, 11133, Note_on_c, 0, 69, 0
1, 11133, Note_on_c, 1, 64, 0
1, 11133, Note_on_c, 1, 60, 0
1, 11136, Note_on_c, 0, 67, 64
1, 11136, Note_on_c, 1, 62, 64
1, 11136, Note_on_c, 1, 59, 64
1, 11181, Note_on_c, 0, 67, 0
1, 11181, Note_on_c, 1, 62, 0
1, 11181, Note_on_c, 1, 59, 0
1, 11184, Note_on_c, 0, 66, 64
1, 11184, Note_on_c, 1, 60, 64
1, 11184, Note_on_c, 1, 57, 64
1, 11229, Note_on_c, 0, 66, 0
1, 11229, Note_on_c, 1, 60, 0
1, 11229, Note_on_c, 1, 57, 0
1, 11232, Note_on_c, 0, 62, 64
1, 11232, Note_on_c, 0, 69, 64
1, 11232, Note_on_c, 1, 59, 64
1, 11238, Note_on_c, 0, 69, 0
1, 11238, Note_on_c, 0, 67, 64
1, 11244, Note_on_c, 0, 67, 0
1, 11244, Note_on_c, 0, 66, 64
1, 11250, Note_on_c, 0, 66, 0
1, 11250, Note_on_c, 0, 67, 64
1, 11277, Note_on_c, 0, 67, 0
1, 11277, Note_on_c, 1, 59, 0
1, 11280, Note_on_c, 0, 69, 64
1, 11280, Note_on_c, 1, 57, 64
1, 11321, Note_on_c, 0, 62, 0
1, 11325, Note_on_c, 0, 69, 0
1, 11325, Note_on_c, 1, 57, 0
1, 11328, Note_on_c, 0, 71, 64
1, 11328, Note_on_c, 0, 74, 64
1, 11328, Note_on_c, 1, 55, 64
1, 11373, Note_on_c, 0, 71, 0
1, 11373, Note_on_c, 1, 55, 0
1, 11376, Note_on_c, 0, 69, 64
1, 11376, Note_on_c, 1, 54, 64
1, 11417, Note_on_c, 0, 74, 0
1, 11421, Note_on_c, 0, 69, 0
1, 11421, Note_on_c, 1, 54, 0
1, 11424, Note_on_c, 0, 67, 64
1, 11424, Note_on_c, 0, 79, 64
1, 11424, Note_on_c, 1, 52, 64
1, 11469, Note_on_c, 0, 79, 0
1, 11469, Note_on_c, 1, 52, 0
1, 11472, Note_on_c, 0, 78, 64
1, 11472, Note_on_c, 1, 50, 64
1, 11513, Note_on_c, 0, 67, 0
1, 11517, Note_on_c, 0, 78, 0
1, 11517, Note_on_c, 1, 50, 0
1, 11520, Note_on_c, 0, 76, 64
1, 11520, Note_on_c, 0, 79, 64
1, 11520, Note_on_c, 1, 48, 64
1, 11565, Note_on_c, 0, 76, 0
1, 11565, Note_on_c, 1, 48, 0
1, 11568, Note_on_c, 0, 74, 64
1, 11568, Note_on_c, 1, 47, 64
1, 11609, Note_on_c, 0, 79, 0
1, 11613, Note_on_c, 0, 74, 0
1, 11613, Note_on_c, 1, 47, 0
1, 11616, Note_on_c, 0, 72, 64
1, 11616, Note_on_c, 0, 84, 64
1, 11616, Note_on_c, 1, 45, 64
1, 11661, Note_on_c, 0, 84, 0
1, 11661, Note_on_c, 1, 45, 0
1, 11664, Note_on_c, 0, 83, 64
1, 11664, Note_on_c, 1, 43, 64
1, 11709, Note_on_c, 0, 83, 0
1, 11709, Note_on_c, 1, 43, 0
1, 11712, Note_on_c, 0, 81, 64
1, 11712, Note_on_c, 1, 42, 64
1, 11757, Note_on_c, 0, 81, 0
1, 11757, Note_on_c, 1, 42, 0
1, 11760, Note_on_c, 0, 79, 64
1, 11760, Note_on_c, 1, 40, 64
1, 11793, Note_on_c, 0, 72, 0
1, 11805, Note_on_c, 0, 79, 0
1, 11805, Note_on_c, 1, 40, 0
1, 11808, Note_on_c, 0, 78, 64
1, 11808, Note_on_c, 0, 81, 64
1, 11808, Note_on_c, 1, 38, 64
1, 11853, Note_on_c, 0, 78, 0
1, 11853, Note_on_c, 1, 38, 0
1, 11856, Note_on_c, 0, 76, 64
1, 11856, Note_on_c, 1, 36, 64
1, 11897, Note_on_c, 0, 81, 0
1, 11901, Note_on_c, 0, 76, 0
1, 11901, Note_on_c, 1, 36, 0
1, 11904, Note_on_c, 0, 74, 74
1, 11904, Note_on_c, 0, 86, 80
1, 11904, Note_on_c, 1, 35, 64
1, 11949, Note_on_c, 1, 35, 0
1, 11952, Note_on_c, 0, 86, 0
1, 11952, Note_on_c, 0, 84, 74
1, 11952, Note_on_c, 1, 33, 64
1, 11997, Note_on_c, 0, 84, 0
1, 11997, Note_on_c, 1, 33, 0
1, 12000, Note_on_c, 0, 83, 71
1, 12000, Note_on_c, 1, 31, 64
1, 12037, Note_on_c, 0, 74, 0
1, 12045, Note_on_c, 0, 83, 0
1, 12048, Note_on_c, 0, 72, 66
1, 12048, Note_on_c, 0, 81, 68
1, 12089, Note_on_c, 1, 31, 0
1, 12093, Note_on_c, 0, 72, 0
1, 12093, Note_on_c, 0, 81, 0
1, 12096, Note_on_c, 0, 71, 64
1, 12096, Note_on_c, 0, 79, 65
1, 12141, Note_on_c, 0, 71, 0
1, 12141, Note_on_c, 0, 79, 0
1, 12144, Note_on_c, 0, 74, 61
1, 12144, Note_on_c, 0, 78, 62
1, 12144, Note_on_c, 1, 59, 59
1, 12189, Note_on_c, 0, 78, 0
1, 12189, Note_on_c, 1, 59, 0
1, 12192, Note_on_c, 0, 76, 59
1, 12192, Note_on_c, 1, 60, 59
1, 12237, Note_on_c, 0, 74, 0
1, 12237, Note_on_c, 1, 60, 0
1, 12240, Note_on_c, 0, 72, 59
1, 12240, Note_on_c, 1, 64, 59
1, 12281, Note_on_c, 0, 76, 0
1, 12285, Note_on_c, 1, 64, 0
1, 12288, Note_on_c, 0, 74, 59
1, 12288, Note_on_c, 1, 67, 59
1, 12329, Note_on_c, 0, 72, 0
1, 12333, Note_on_c, 1, 67, 0
1, 12336, Note_on_c, 0, 71, 59
1, 12336, Note_on_c, 1, 68, 59
1, 12377, Note_on_c, 0, 74, 0
1, 12381, Note_on_c, 1, 68, 0
1, 12384, Note_on_c, 0, 72, 59
1, 12384, Note_on_c, 1, 69, 59
1, 12429, Note_on_c, 0, 71, 0
1, 12429, Note_on_c, 1, 69, 0
1, 12432, Note_on_c, 0, 69, 59
1, 12432, Note_on_c, 1, 66, 59
1, 12473, Note_on_c, 0, 72, 0
1, 12477, Note_on_c, 1, 66, 0
1, 12480, Note_on_c, 0, 71, 59
1, 12480, Note_on_c, 1, 67, 59
1, 12521, Note_on_c, 0, 69, 0
1, 12525, Note_on_c, 1, 67, 0
1, 12528, Note_on_c, 0, 67, 59
1, 12528, Note_on_c, 1, 59, 59
1, 12569, Note_on_c, 0, 71, 0
1, 12573, Note_on_c, 1, 59, 0
1, 12576, Note_on_c, 0, 69, 59
1, 12576, Note_on_c, 1, 60, 59
1, 12621, Note_on_c, 1, 60, 0
1, 12624, Note_on_c, 1, 61, 59
1, 12669, Note_on_c, 1, 61, 0
1, 12672, Note_on_c, 1, 62, 59
1, 12717, Note_on_c, 0, 67, 0
1, 12720, Note_on_c, 0, 64, 59
1, 12765, Note_on_c, 0, 64, 0
1, 12768, Note_on_c, 0, 66, 59
1, 12805, Note_on_c, 0, 69, 0
1, 12813, Note_on_c, 0, 66, 0
1, 12816, Note_on_c, 0, 67, 59
1, 12816, Note_on_c, 0, 71, 59
1, 12849, Note_on_c, 1, 62, 0
1, 12861, Note_on_c, 0, 67, 0
1, 12861, Note_on_c, 0, 71, 0
1, 12864, Note_on_c, 0, 69, 59
1, 12864, Note_on_c, 0, 72, 59
1, 12864, Note_on_c, 1, 50, 59
1, 12909, Note_on_c, 0, 69, 0
1, 12909, Note_on_c, 0, 72, 0
1, 12912, Note_on_c, 0, 60, 59
1, 12912, Note_on_c, 0, 66, 59
1, 12953, Note_on_c, 1, 50, 0
1, 12957, Note_on_c, 0, 60, 0
1, 12957, Note_on_c, 0, 66, 0
1, 12960, Note_on_c, 0, 59, 59
1, 12960, Note_on_c, 0, 67, 59
1, 12960, Note_on_c, 1, 55, 59
1, 13005, Note_on_c, 0, 59, 0
1, 13005, Note_on_c, 0, 67, 0
1, 13008, Note_on_c, 0, 59, 59
1, 13008, Note_on_c, 0, 62, 59
1, 13053, Note_on_c, 0, 59, 0
1, 13053, Note_on_c, 0, 62, 0
1, 13056, Note_on_c, 0, 60, 61
1, 13056, Note_on_c, 0, 64, 61
1, 13101, Note_on_c, 0, 60, 0
1, 13101, Note_on_c, 0, 64, 0
1, 13104, Note_on_c, 0, 62, 63
1, 13104, Note_on_c, 0, 65, 63
1, 13149, Note_on_c, 0, 62, 0
1, 13149, Note_on_c, 0, 65, 0
1, 13152, Note_on_c, 0, 60, 65
1, 13152, Note_on_c, 0, 64, 65
1, 13197, Note_on_c, 0, 60, 0
1, 13197, Note_on_c, 0, 64, 0
1, 13200, Note_on_c, 0, 66, 67
1, 13200, Note_on_c, 0, 72, 67
1, 13225, Note_on_c, 1, 55, 0
1, 13245, Note_on_c, 0, 66, 0
1, 13245, Note_on_c, 0, 72, 0
1, 13248, Note_on_c, 0, 67, 67
1, 13248, Note_on_c, 0, 71, 67
1, 13248, Note_on_c, 1, 43, 59
1, 13293, Note_on_c, 0, 67, 0
1, 13293, Note_on_c, 0, 71, 0
1, 13296, Note_on_c, 0, 59, 59
1, 13296, Note_on_c, 0, 62, 67
1, 13341, Note_on_c, 0, 59, 0
1, 13341, Note_on_c, 0, 62, 0
1, 13344, Note_on_c, 0, 60, 61
1, 13344, Note_on_c, 0, 64, 67
1, 13389, Note_on_c, 0, 60, 0
1, 13389, Note_on_c, 0, 64, 0
1, 13392, Note_on_c, 0, 62, 64
1, 13392, Note_on_c, 0, 65, 67
1, 13437, Note_on_c, 0, 62, 0
1, 13437, Note_on_c, 0, 65, 0
1, 13440, Note_on_c, 0, 64, 67
1, 13440, Note_on_c, 1, 60, 64
1, 13485, Note_on_c, 0, 64, 0
1, 13485, Note_on_c, 1, 60, 0
1, 13488, Note_on_c, 0, 54, 67
1, 13488, Note_on_c, 1, 48, 64
1, 13513, Note_on_c, 1, 43, 0
1, 13533, Note_on_c, 0, 54, 0
1, 13533, Note_on_c, 1, 48, 0
1, 13536, Note_on_c, 1, 57, 59
1, 13536, Note_on_c, 1, 48, 59
1, 13536, Note_on_c, 1, 31, 64
1, 13632, Note_on_c, 1, 57, 0
1, 13632, Note_on_c, 1, 48, 0
1, 13632, Note_on_c, 1, 55, 59
1, 13632, Note_on_c, 1, 47, 59
1, 13713, Note_on_c, 1, 31, 0
1, 13721, Note_on_c, 1, 55, 0
1, 13721, Note_on_c, 1, 47, 0
1, 13824, Note_on_c, 0, 68, 74
1, 13824, Note_on_c, 0, 74, 74
1, 13824, Note_on_c, 1, 52, 74
1, 13869, Note_on_c, 1, 52, 0
1, 13872, Note_on_c, 1, 40, 74
1, 13917, Note_on_c, 1, 40, 0
1, 13920, Note_on_c, 1, 52, 74
1, 13957, Note_on_c, 0, 68, 0
1, 13965, Note_on_c, 1, 52, 0
1, 13968, Note_on_c, 0, 69, 74
1, 13968, Note_on_c, 1, 54, 74
1, 14013, Note_on_c, 0, 69, 0
1, 14013, Note_on_c, 1, 54, 0
1, 14016, Note_on_c, 0, 71, 74
1, 14016, Note_on_c, 1, 56, 74
1, 14061, Note_on_c, 0, 71, 0
1, 14061, Note_on_c, 1, 56, 0
1, 14064, Note_on_c, 0, 68, 74
1, 14064, Note_on_c, 1, 52, 74
1, 14109, Note_on_c, 0, 68, 0
1, 14109, Note_on_c, 1, 52, 0
1, 14112, Note_on_c, 0, 64, 74
1, 14112, Note_on_c, 1, 57, 74
1, 14157, Note_on_c, 0, 64, 0
1, 14157, Note_on_c, 1, 57, 0
1, 14160, Note_on_c, 0, 66, 74
1, 14160, Note_on_c, 1, 45, 74
1, 14201, Note_on_c, 0, 74, 0
1, 14205, Note_on_c, 0, 66, 0
1, 14205, Note_on_c, 1, 45, 0
1, 14208, Note_on_c, 0, 67, 74
1, 14208, Note_on_c, 0, 73, 74
1, 14208, Note_on_c, 1, 57, 74
1, 14253, Note_on_c, 0, 73, 0
1, 14253, Note_on_c, 1, 57, 0
1, 14256, Note_on_c, 0, 74, 74
1, 14256, Note_on_c, 1, 59, 74
1, 14301, Note_on_c, 0, 74, 0
1, 14301, Note_on_c, 1, 59, 0
1, 14304, Note_on_c, 0, 76, 74
1, 14304, Note_on_c, 1, 61, 74
1, 14349, Note_on_c, 0, 76, 0
1, 14349, Note_on_c, 1, 61, 0
1, 14352, Note_on_c, 0, 73, 74
1, 14352, Note_on_c, 1, 57, 74
1, 14397, Note_on_c, 0, 73, 0
1, 14397, Note_on_c, 1, 57, 0
1, 14400, Note_on_c, 0, 69, 74
1, 14400, Note_on_c, 1, 50, 74
1, 14445, Note_on_c, 0, 69, 0
1, 14445, Note_on_c, 1, 50, 0
1, 14448, Note_on_c, 0, 71, 74
1, 14448, Note_on_c, 1, 38, 74
1, 14489, Note_on_c, 0, 67, 0
1, 14493, Note_on_c, 0, 71, 0
1, 14493, Note_on_c, 1, 38, 0
1, 14496, Note_on_c, 0, 66, 74
1, 14496, Note_on_c, 0, 72, 74
1, 14496, Note_on_c, 1, 50, 74
1, 14541, Note_on_c, 0, 66, 0
1, 14541, Note_on_c, 1, 50, 0
1, 14544, Note_on_c, 0, 67, 74
1, 14544, Note_on_c, 1, 52, 74
1, 14589, Note_on_c, 0, 67, 0
1, 14589, Note_on_c, 1, 52, 0
1, 14592, Note_on_c, 0, 69, 74
1, 14592, Note_on_c, 1, 54, 74
1, 14637, Note_on_c, 0, 69, 0
1, 14637, Note_on_c, 1, 54, 0
1, 14640, Note_on_c, 0, 66, 74
1, 14640, Note_on_c, 1, 50, 74
1, 14685, Note_on_c, 0, 66, 0
1, 14685, Note_on_c, 1, 50, 0
1, 14688, Note_on_c, 0, 62, 74
1, 14688, Note_on_c, 1, 55, 74
1, 14733, Note_on_c, 0, 62, 0
1, 14733, Note_on_c, 1, 55, 0
1, 14736, Note_on_c, 0, 64, 74
1, 14736, Note_on_c, 1, 43, 74
1, 14777, Note_on_c, 0, 72, 0
1, 14781, Note_on_c, 0, 64, 0
1, 14781, Note_on_c, 1, 43, 0
1, 14784, Note_on_c, 0, 65, 74
1, 14784, Note_on_c, 0, 71, 74
1, 14784, Note_on_c, 1, 55, 74
1, 14829, Note_on_c, 0, 71, 0
1, 14829, Note_on_c, 1, 55, 0
1, 14832, Note_on_c, 0, 72, 74
1, 14832, Note_on_c, 1, 57, 74
1, 14877, Note_on_c, 0, 72, 0
1, 14877, Note_on_c, 1, 57, 0
1, 14880, Note_on_c, 0, 74, 74
1, 14880, Note_on_c, 1, 59, 74
1, 14925, Note_on_c, 0, 74, 0
1, 14925, Note_on_c, 1, 59, 0
1, 14928, Note_on_c, 0, 71, 74
1, 14928, Note_on_c, 1, 55, 74
1, 14973, Note_on_c, 0, 71, 0
1, 14973, Note_on_c, 1, 55, 0
1, 14976, Note_on_c, 0, 67, 74
1, 14976, Note_on_c, 1, 60, 74
1, 15021, Note_on_c, 1, 60, 0
1, 15024, Note_on_c, 1, 48, 74
1, 15065, Note_on_c, 0, 65, 0
1, 15069, Note_on_c, 1, 48, 0
1, 15072, Note_on_c, 0, 64, 74
1, 15072, Note_on_c, 1, 60, 74
1, 15117, Note_on_c, 1, 60, 0
1, 15120, Note_on_c, 1, 59, 74
1, 15153, Note_on_c, 0, 67, 0
1, 15165, Note_on_c, 1, 59, 0
1, 15168, Note_on_c, 0, 72, 74
1, 15168, Note_on_c, 1, 57, 74
1, 15213, Note_on_c, 0, 72, 0
1, 15213, Note_on_c, 1, 57, 0
1, 15216, Note_on_c, 0, 71, 74
1, 15216, Note_on_c, 1, 55, 74
1, 15249, Note_on_c, 0, 64, 0
1, 15261, Note_on_c, 0, 71, 0
1, 15261, Note_on_c, 1, 55, 0
1, 15264, Note_on_c, 0, 69, 74
1, 15264, Note_on_c, 0, 72, 74
1, 15264, Note_on_c, 1, 54, 74
1, 15309, Note_on_c, 0, 69, 0
1, 15309, Note_on_c, 1, 54, 0
1, 15312, Note_on_c, 0, 67, 74
1, 15312, Note_on_c, 1, 52, 74
1, 15353, Note_on_c, 0, 72, 0
1, 15357, Note_on_c, 0, 67, 0
1, 15357, Note_on_c, 1, 52, 0
1, 15360, Note_on_c, 0, 66, 74
1, 15360, Note_on_c, 0, 71, 74
1, 15360, Note_on_c, 1, 51, 74
1, 15405, Note_on_c, 0, 66, 0
1, 15405, Note_on_c, 1, 51, 0
1, 15408, Note_on_c, 0, 64, 74
1, 15408, Note_on_c, 1, 49, 74
1, 15453, Note_on_c, 0, 64, 0
1, 15453, Note_on_c, 1, 49, 0
1, 15456, Note_on_c, 0, 63, 74
1, 15456, Note_on_c, 1, 47, 74
1, 15501, Note_on_c, 0, 63, 0
1, 15501, Note_on_c, 1, 47, 0
1, 15504, Note_on_c, 0, 66, 74
1, 15504, Note_on_c, 1, 45, 74
1, 15549, Note_on_c, 0, 66, 0
1, 15549, Note_on_c, 1, 45, 0
1, 15552, Note_on_c, 0, 59, 74
1, 15552, Note_on_c, 1, 43, 74
1, 15597, Note_on_c, 0, 71, 0
1, 15597, Note_on_c, 1, 43, 0
1, 15600, Note_on_c, 0, 69, 74
1, 15600, Note_on_c, 1, 42, 74
1, 15645, Note_on_c, 0, 69, 0
1, 15648, Note_on_c, 0, 67, 74
1, 15648, Note_on_c, 1, 42, 0
1, 15648, Note_on_c, 1, 40, 74
1, 15693, Note_on_c, 0, 67, 0
1, 15693, Note_on_c, 1, 40, 0
1, 15696, Note_on_c, 0, 66, 74
1, 15696, Note_on_c, 1, 38, 74
1, 15741, Note_on_c, 0, 66, 0
1, 15741, Note_on_c, 1, 38, 0
1, 15744, Note_on_c, 0, 64, 74
1, 15744, Note_on_c, 1, 36, 74
1, 15789, Note_on_c, 0, 59, 0
1, 15792, Note_on_c, 0, 58, 74
1, 15833, Note_on_c, 1, 36, 0
1, 15837, Note_on_c, 0, 58, 0
1, 15840, Note_on_c, 0, 59, 74
1, 15840, Note_on_c, 1, 35, 74
1, 15885, Note_on_c, 1, 35, 0
1, 15888, Note_on_c, 1, 42, 74
1, 15929, Note_on_c, 0, 64, 0
1, 15933, Note_on_c, 1, 42, 0
1, 15936, Note_on_c, 0, 63, 74
1, 15936, Note_on_c, 1, 47, 74
1, 15981, Note_on_c, 1, 47, 0
1, 15984, Note_on_c, 1, 45, 74
1, 16017, Note_on_c, 0, 59, 0
1, 16025, Note_on_c, 0, 63, 0
1, 16029, Note_on_c, 1, 45, 0
1, 16032, Note_on_c, 1, 43, 74
1, 16077, Note_on_c, 1, 43, 0
1, 16080, Note_on_c, 1, 42, 74
1, 16125, Note_on_c, 1, 42, 0
1, 16128, Note_on_c, 0, 66, 74
1, 16128, Note_on_c, 1, 40, 74
1, 16134, Note_on_c, 0, 66, 0
1, 16134, Note_on_c, 0, 64, 74
1, 16140, Note_on_c, 0, 64, 0
1, 16140, Note_on_c, 0, 63, 74
1, 16146, Note_on_c, 0, 63, 0
1, 16146, Note_on_c, 0, 64, 74
1, 16173, Note_on_c, 1, 40, 0
1, 16176, Note_on_c, 1, 52, 74
1, 16221, Note_on_c, 1, 52, 0
1, 16224, Note_on_c, 1, 43, 74
1, 16269, Note_on_c, 1, 43, 0
1, 16272, Note_on_c, 1, 42, 74
1, 16317, Note_on_c, 1, 42, 0
1, 16320, Note_on_c, 1, 40, 74
1, 16365, Note_on_c, 1, 40, 0
1, 16368, Note_on_c, 1, 43, 74
1, 16393, Note_on_c, 0, 64, 0
1, 16413, Note_on_c, 1, 43, 0
1, 16416, Note_on_c, 0, 64, 74
1, 16416, Note_on_c, 0, 66, 74
1, 16416, Note_on_c, 1, 45, 74
1, 16461, Note_on_c, 1, 45, 0
1, 16464, Note_on_c, 1, 57, 74
1, 16509, Note_on_c, 1, 57, 0
1, 16512, Note_on_c, 1, 48, 74
1, 16557, Note_on_c, 1, 48, 0
1, 16560, Note_on_c, 1, 47, 74
1, 16605, Note_on_c, 1, 47, 0
1, 16608, Note_on_c, 1, 45, 74
1, 16653, Note_on_c, 1, 45, 0
1, 16656, Note_on_c, 1, 48, 74
1, 16681, Note_on_c, 0, 64, 0
1, 16681, Note_on_c, 0, 66, 0
1, 16701, Note_on_c, 1, 48, 0
1, 16704, Note_on_c, 0, 62, 74
1, 16704, Note_on_c, 0, 68, 74
1, 16704, Note_on_c, 1, 47, 74
1, 16749, Note_on_c, 1, 47, 0
1, 16752, Note_on_c, 1, 59, 74
1, 16797, Note_on_c, 1, 59, 0
1, 16800, Note_on_c, 1, 52, 74
1, 16845, Note_on_c, 1, 52, 0
1, 16848, Note_on_c, 1, 53, 74
1, 16893, Note_on_c, 1, 53, 0
1, 16896, Note_on_c, 1, 52, 74
1, 16941, Note_on_c, 1, 52, 0
1, 16944, Note_on_c, 1, 50, 74
1, 16969, Note_on_c, 0, 62, 0
1, 16969, Note_on_c, 0, 68, 0
1, 16989, Note_on_c, 1, 50, 0
1, 16992, Note_on_c, 0, 64, 74
1, 16992, Note_on_c, 0, 69, 74
1, 16992, Note_on_c, 1, 48, 74
1, 17037, Note_on_c, 0, 64, 0
1, 17037, Note_on_c, 0, 69, 0
1, 17037, Note_on_c, 1, 48, 0
1, 17040, Note_on_c, 0, 62, 74
1, 17040, Note_on_c, 0, 71, 74
1, 17040, Note_on_c, 1, 47, 74
1, 17085, Note_on_c, 0, 62, 0
1, 17085, Note_on_c, 0, 71, 0
1, 17085, Note_on_c, 1, 47, 0
1, 17088, Note_on_c, 0, 60, 74
1, 17088, Note_on_c, 0, 72, 74
1, 17088, Note_on_c, 1, 45, 74
1, 17133, Note_on_c, 1, 45, 0
1, 17136, Note_on_c, 1, 57, 74
1, 17177, Note_on_c, 0, 60, 0
1, 17181, Note_on_c, 1, 57, 0
1, 17184, Note_on_c, 0, 69, 74
1, 17184, Note_on_c, 1, 54, 74
1, 17229, Note_on_c, 0, 69, 0
1, 17229, Note_on_c, 1, 54, 0
1, 17232, Note_on_c, 0, 67, 74
1, 17232, Note_on_c, 1, 52, 74
1, 17265, Note_on_c, 0, 72, 0
1, 17277, Note_on_c, 0, 67, 0
1, 17277, Note_on_c, 1, 52, 0
1, 17280, Note_on_c, 0, 66, 74
1, 17280, Note_on_c, 0, 71, 74
1, 17280, Note_on_c, 1, 51, 74
1, 17325, Note_on_c, 0, 71, 0
1, 17328, Note_on_c, 0, 70, 74
1, 17373, Note_on_c, 0, 70, 0
1, 17376, Note_on_c, 0, 71, 74
1, 17421, Note_on_c, 0, 71, 0
1, 17424, Note_on_c, 0, 72, 74
1, 17469, Note_on_c, 0, 72, 0
1, 17472, Note_on_c, 0, 71, 74
1, 17517, Note_on_c, 0, 71, 0
1, 17520, Note_on_c, 0, 69, 74
1, 17545, Note_on_c, 1, 51, 0
1, 17565, Note_on_c, 0, 69, 0
1, 17568, Note_on_c, 0, 67, 74
1, 17568, Note_on_c, 1, 52, 74
1, 17613, Note_on_c, 1, 52, 0
1, 17616, Note_on_c, 1, 51, 74
1, 17661, Note_on_c, 1, 51, 0
1, 17664, Note_on_c, 1, 52, 74
1, 17709, Note_on_c, 1, 52, 0
1, 17712, Note_on_c, 1, 48, 74
1, 17745, Note_on_c, 0, 66, 0
1, 17757, Note_on_c, 1, 48, 0
1, 17760, Note_on_c, 0, 64, 74
1, 17760, Note_on_c, 1, 47, 74
1, 17805, Note_on_c, 1, 47, 0
1, 17808, Note_on_c, 1, 46, 74
1, 17833, Note_on_c, 0, 67, 0
1, 17853, Note_on_c, 1, 46, 0
1, 17856, Note_on_c, 0, 66, 74
1, 17856, Note_on_c, 1, 47, 64
1, 17901, Note_on_c, 0, 64, 0
1, 17904, Note_on_c, 0, 61, 74
1, 17949, Note_on_c, 0, 61, 0
1, 17952, Note_on_c, 0, 63, 74
1, 17989, Note_on_c, 0, 66, 0
1, 17997, Note_on_c, 0, 63, 0
1, 18000, Note_on_c, 0, 64, 74
1, 18000, Note_on_c, 0, 67, 74
1, 18045, Note_on_c, 0, 64, 0
1, 18045, Note_on_c, 0, 67, 0
1, 18048, Note_on_c, 0, 66, 74
1, 18048, Note_on_c, 0, 69, 74
1, 18096, Note_on_c, 1, 51, 74
1, 18137, Note_on_c, 0, 69, 0
1, 18141, Note_on_c, 1, 51, 0
1, 18144, Note_on_c, 0, 67, 74
1, 18144, Note_on_c, 1, 52, 74
1, 18189, Note_on_c, 1, 52, 0
1, 18192, Note_on_c, 1, 59, 74
1, 18233, Note_on_c, 0, 66, 0
1, 18237, Note_on_c, 1, 59, 0
1, 18240, Note_on_c, 0, 64, 74
1, 18240, Note_on_c, 1, 55, 74
1, 18285, Note_on_c, 1, 55, 0
1, 18288, Note_on_c, 1, 54, 74
1, 18321, Note_on_c, 0, 67, 0
1, 18333, Note_on_c, 1, 54, 0
1, 18336, Note_on_c, 0, 67, 74
1, 18336, Note_on_c, 1, 52, 74
1, 18373, Note_on_c, 0, 64, 0
1, 18381, Note_on_c, 0, 67, 0
1, 18384, Note_on_c, 0, 67, 74
1, 18384, Note_on_c, 0, 71, 74
1, 18425, Note_on_c, 1, 52, 0
1, 18429, Note_on_c, 0, 71, 0
1, 18432, Note_on_c, 0, 69, 74
1, 18432, Note_on_c, 1, 54, 74
1, 18477, Note_on_c, 1, 54, 0
1, 18480, Note_on_c, 1, 60, 74
1, 18521, Note_on_c, 0, 67, 0
1, 18525, Note_on_c, 1, 60, 0
1, 18528, Note_on_c, 0, 66, 74
1, 18528, Note_on_c, 1, 57, 74
1, 18565, Note_on_c, 0, 69, 0
1, 18573, Note_on_c, 0, 66, 0
1, 18573, Note_on_c, 1, 57, 0
1, 18576, Note_on_c, 0, 67, 74
1, 18576, Note_on_c, 0, 71, 74
1, 18576, Note_on_c, 1, 55, 74
1, 18621, Note_on_c, 0, 67, 0
1, 18621, Note_on_c, 0, 71, 0
1, 18621, Note_on_c, 1, 55, 0
1, 18624, Note_on_c, 0, 69, 74
1, 18624, Note_on_c, 0, 72, 74
1, 18624, Note_on_c, 1, 54, 74
1, 18669, Note_on_c, 0, 69, 0
1, 18669, Note_on_c, 1, 54, 0
1, 18672, Note_on_c, 0, 67, 74
1, 18672, Note_on_c, 1, 52, 74
1, 18697, Note_on_c, 1, 47, 0
1, 18717, Note_on_c, 0, 67, 0
1, 18717, Note_on_c, 1, 52, 0
1, 18720, Note_on_c, 0, 66, 74
1, 18720, Note_on_c, 1, 51, 74
1, 18720, Note_on_c, 1, 47, 64
1, 18765, Note_on_c, 0, 72, 0
1, 18768, Note_on_c, 0, 72, 74
1, 18813, Note_on_c, 0, 72, 0
1, 18816, Note_on_c, 0, 71, 74
1, 18861, Note_on_c, 0, 71, 0
1, 18864, Note_on_c, 0, 70, 74
1, 18909, Note_on_c, 0, 70, 0
1, 18912, Note_on_c, 0, 71, 74
1, 18957, Note_on_c, 0, 71, 0
1, 18960, Note_on_c, 0, 69, 74
1, 18985, Note_on_c, 1, 51, 0
1, 18985, Note_on_c, 1, 47, 0
1, 19005, Note_on_c, 0, 69, 0
1, 19008, Note_on_c, 0, 67, 74
1, 19008, Note_on_c, 1, 52, 74
1, 19008, Note_on_c, 1, 47, 64
1, 19053, Note_on_c, 0, 66, 0
1, 19056, Note_on_c, 0, 63, 74
1, 19101, Note_on_c, 0, 63, 0
1, 19104, Note_on_c, 0, 64, 74
1, 19149, Note_on_c, 0, 64, 0
1, 19152, Note_on_c, 0, 60, 74
1, 19185, Note_on_c, 1, 52, 0
1, 19197, Note_on_c, 0, 60, 0
1, 19200, Note_on_c, 0, 59, 74
1, 19200, Note_on_c, 1, 55, 74
1, 19245, Note_on_c, 0, 59, 0
1, 19248, Note_on_c, 0, 58, 74
1, 19273, Note_on_c, 0, 67, 0
1, 19273, Note_on_c, 1, 47, 0
1, 19289, Note_on_c, 1, 55, 0
1, 19293, Note_on_c, 0, 58, 0
1, 19296, Note_on_c, 0, 59, 74
1, 19296, Note_on_c, 1, 54, 74
1, 19296, Note_on_c, 1, 51, 74
1, 19296, Note_on_c, 1, 47, 64
1, 19341, Note_on_c, 0, 59, 0
1, 19344, Note_on_c, 0, 71, 76
1, 19389, Note_on_c, 0, 71, 0
1, 19392, Note_on_c, 0, 59, 79
1, 19429, Note_on_c, 1, 54, 0
1, 19429, Note_on_c, 1, 51, 0
1, 19437, Note_on_c, 0, 59, 0
1, 19440, Note_on_c, 0, 60, 82
1, 19440, Note_on_c, 1, 55, 82
1, 19440, Note_on_c, 1, 52, 82
1, 19473, Note_on_c, 1, 47, 0
1, 19485, Note_on_c, 0, 60, 0
1, 19485, Note_on_c, 1, 55, 0
1, 19485, Note_on_c, 1, 52, 0
1, 19488, Note_on_c, 0, 59, 79
1, 19488, Note_on_c, 1, 54, 79
1, 19488, Note_on_c, 1, 51, 79
1, 19533, Note_on_c, 0, 59, 0
1, 19533, Note_on_c, 1, 54, 0
1, 19533, Note_on_c, 1, 51, 0
1, 19536, Note_on_c, 0, 58, 76
1, 19536, Note_on_c, 1, 52, 76
1, 19536, Note_on_c, 1, 49, 76
1, 19581, Note_on_c, 0, 58, 0
1, 19581, Note_on_c, 1, 52, 0
1, 19581, Note_on_c, 1, 49, 0
1, 19584, Note_on_c, 0, 59, 74
1, 19584, Note_on_c, 1, 54, 74
1, 19584, Note_on_c, 1, 51, 74
1, 19584, Note_on_c, 1, 47, 64
1, 19629, Note_on_c, 0, 59, 0
1, 19632, Note_on_c, 0, 71, 76
1, 19677, Note_on_c, 0, 71, 0
1, 19680, Note_on_c, 0, 59, 79
1, 19717, Note_on_c, 1, 54, 0
1, 19717, Note_on_c, 1, 51, 0
1, 19725, Note_on_c, 0, 59, 0
1, 19728, Note_on_c, 0, 60, 82
1, 19728, Note_on_c, 1, 55, 82
1, 19728, Note_on_c, 1, 52, 82
1, 19761, Note_on_c, 1, 47, 0
1, 19773, Note_on_c, 0, 60, 0
1, 19773, Note_on_c, 1, 55, 0
1, 19773, Note_on_c, 1, 52, 0
1, 19776, Note_on_c, 0, 59, 79
1, 19776, Note_on_c, 1, 54, 79
1, 19776, Note_on_c, 1, 51, 79
1, 19821, Note_on_c, 0, 59, 0
1, 19821, Note_on_c, 1, 54, 0
1, 19821, Note_on_c, 1, 51, 0
1, 19824, Note_on_c, 0, 58, 76
1, 19824, Note_on_c, 1, 52, 76
1, 19824, Note_on_c, 1, 49, 76
1, 19869, Note_on_c, 0, 58, 0
1, 19869, Note_on_c, 1, 52, 0
1, 19869, Note_on_c, 1, 49, 0
1, 19872, Note_on_c, 0, 58, 74
1, 19872, Note_on_c, 1, 52, 74
1, 19872, Note_on_c, 1, 49, 74
1, 19872, Note_on_c, 1, 47, 64
1, 20049, Note_on_c, 1, 47, 0
1, 20137, Note_on_c, 0, 58, 0
1, 20137, Note_on_c, 1, 52, 0
1, 20137, Note_on_c, 1, 49, 0
1, 20160, Note_on_c, 1, 35, 74
1, 20169, Note_on_c, 1, 47, 74
1, 20178, Note_on_c, 1, 51, 74
1, 20187, Note_on_c, 1, 54, 74
1, 20196, Note_on_c, 1, 59, 74
1, 20389, Note_on_c, 1, 59, 0
1, 20389, Note_on_c, 1, 54, 0
1, 20389, Note_on_c, 1, 51, 0
1, 20389, Note_on_c, 1, 47, 0
1, 20389, Note_on_c, 1, 35, 0
1, 20592, Note_on_c, 0, 71, 74
1, 20612, Note_on_c, 0, 71, 0
1, 20640, Note_on_c, 0, 71, 74
1, 20640, Note_on_c, 1, 56, 74
1, 20652, Note_on_c, 0, 71, 0
1, 20652, Note_on_c, 0, 73, 74
1, 20664, Note_on_c, 0, 73, 0
1, 20664, Note_on_c, 0, 71, 74
1, 20679, Note_on_c, 1, 56, 0
1, 20685, Note_on_c, 0, 71, 0
1, 20688, Note_on_c, 0, 69, 74
1, 20733, Note_on_c, 0, 69, 0
1, 20736, Note_on_c, 0, 68, 74
1, 20756, Note_on_c, 0, 68, 0
1, 20784, Note_on_c, 0, 68, 74
1, 20804, Note_on_c, 0, 68, 0
1, 20832, Note_on_c, 0, 68, 74
1, 20832, Note_on_c, 1, 64, 74
1, 20832, Note_on_c, 1, 61, 74
1, 20844, Note_on_c, 0, 68, 0
1, 20844, Note_on_c, 0, 69, 74
1, 20856, Note_on_c, 0, 69, 0
1, 20856, Note_on_c, 0, 68, 74
1, 20871, Note_on_c, 1, 64, 0
1, 20871, Note_on_c, 1, 61, 0
1, 20877, Note_on_c, 0, 68, 0
1, 20880, Note_on_c, 0, 66, 74
1, 20925, Note_on_c, 0, 66, 0
1, 20928, Note_on_c, 0, 64, 74
1, 20948, Note_on_c, 0, 64, 0
1, 20976, Note_on_c, 0, 64, 74
1, 20996, Note_on_c, 0, 64, 0
1, 21024, Note_on_c, 0, 66, 74
1, 21024, Note_on_c, 1, 57, 74
1, 21036, Note_on_c, 0, 66, 0
1, 21036, Note_on_c, 0, 68, 74
1, 21048, Note_on_c, 0, 68, 0
1, 21048, Note_on_c, 0, 66, 74
1, 21063, Note_on_c, 1, 57, 0
1, 21069, Note_on_c, 0, 66, 0
1, 21072, Note_on_c, 0, 64, 76
1, 21117, Note_on_c, 0, 64, 0
1, 21120, Note_on_c, 0, 66, 78
1, 21120, Note_on_c, 1, 58, 78
1, 21132, Note_on_c, 0, 66, 0
1, 21132, Note_on_c, 0, 68, 78
1, 21144, Note_on_c, 0, 68, 0
1, 21144, Note_on_c, 0, 66, 78
1, 21159, Note_on_c, 1, 58, 0
1, 21165, Note_on_c, 0, 66, 0
1, 21168, Note_on_c, 0, 64, 80
1, 21213, Note_on_c, 0, 64, 0
1, 21216, Note_on_c, 0, 59, 82
1, 21216, Note_on_c, 1, 47, 82
1, 21255, Note_on_c, 1, 47, 0
1, 21305, Note_on_c, 0, 59, 0
1, 21312, Note_on_c, 1, 35, 82
1, 21351, Note_on_c, 1, 35, 0
1, 21360, Note_on_c, 0, 71, 74
1, 21405, Note_on_c, 0, 71, 0
1, 21408, Note_on_c, 0, 71, 74
1, 21408, Note_on_c, 1, 56, 74
1, 21408, Note_on_c, 1, 52, 74
1, 21420, Note_on_c, 0, 71, 0
1, 21420, Note_on_c, 0, 73, 74
1, 21432, Note_on_c, 0, 73, 0
1, 21432, Note_on_c, 0, 71, 74
1, 21447, Note_on_c, 1, 56, 0
1, 21447, Note_on_c, 1, 52, 0
1, 21453, Note_on_c, 0, 71, 0
1, 21456, Note_on_c, 0, 69, 74
1, 21501, Note_on_c, 0, 69, 0
1, 21504, Note_on_c, 0, 68, 74
1, 21524, Note_on_c, 0, 68, 0
1, 21552, Note_on_c, 0, 68, 74
1, 21572, Note_on_c, 0, 68, 0
1, 21600, Note_on_c, 0, 68, 74
1, 21600, Note_on_c, 1, 64, 74
1, 21600, Note_on_c, 1, 61, 74
1, 21612, Note_on_c, 0, 68, 0
1, 21612, Note_on_c, 0, 69, 74
1, 21624, Note_on_c, 0, 69, 0
1, 21624, Note_on_c, 0, 68, 74
1, 21639, Note_on_c, 1, 64, 0
1, 21639, Note_on_c, 1, 61, 0
1, 21645, Note_on_c, 0, 68, 0
1, 21648, Note_on_c, 0, 66, 74
1, 21693, Note_on_c, 0, 66, 0
1, 21696, Note_on_c, 0, 64, 74
1, 21741, Note_on_c, 0, 64, 0
1, 21744, Note_on_c, 0, 73, 74
1, 21744, Note_on_c, 1, 52, 74
1, 21789, Note_on_c, 0, 73, 0
1, 21789, Note_on_c, 1, 52, 0
1, 21792, Note_on_c, 0, 73, 74
1, 21792, Note_on_c, 1, 52, 74
1, 21804, Note_on_c, 0, 73, 0
1, 21804, Note_on_c, 0, 75, 74
1, 21816, Note_on_c, 0, 75, 0
1, 21816, Note_on_c, 0, 73, 74
1, 21837, Note_on_c, 0, 73, 0
1, 21837, Note_on_c, 1, 52, 0
1, 21840, Note_on_c, 0, 72, 76
1, 21840, Note_on_c, 1, 51, 76
1, 21885, Note_on_c, 0, 72, 0
1, 21885, Note_on_c, 1, 51, 0
1, 21888, Note_on_c, 0, 73, 78
1, 21888, Note_on_c, 1, 52, 78
1, 21933, Note_on_c, 0, 73, 0
1, 21933, Note_on_c, 1, 52, 0
1, 21936, Note_on_c, 0, 75, 80
1, 21936, Note_on_c, 1, 54, 80
1, 21981, Note_on_c, 0, 75, 0
1, 21981, Note_on_c, 1, 54, 0
1, 21984, Note_on_c, 0, 68, 82
1, 21984, Note_on_c, 1, 56, 82
1, 22078, Note_on_c, 0, 68, 0
1, 22078, Note_on_c, 1, 56, 0
1, 22080, Note_on_c, 1, 44, 82
1, 22125, Note_on_c, 1, 44, 0
1, 22128, Note_on_c, 0, 71, 74
1, 22173, Note_on_c, 0, 71, 0
1, 22176, Note_on_c, 0, 71, 74
1, 22176, Note_on_c, 1, 56, 74
1, 22188, Note_on_c, 0, 71, 0
1, 22188, Note_on_c, 0, 73, 74
1, 22200, Note_on_c, 0, 73, 0
1, 22200, Note_on_c, 0, 71, 74
1, 22215, Note_on_c, 1, 56, 0
1, 22221, Note_on_c, 0, 71, 0
1, 22224, Note_on_c, 0, 69, 74
1, 22269, Note_on_c, 0, 69, 0
1, 22272, Note_on_c, 0, 68, 74
1, 22292, Note_on_c, 0, 68, 0
1, 22320, Note_on_c, 0, 68, 74
1, 22340, Note_on_c, 0, 68, 0
1, 22368, Note_on_c, 0, 68, 74
1, 22368, Note_on_c, 1, 64, 74
1, 22368, Note_on_c, 1, 61, 74
1, 22380, Note_on_c, 0, 68, 0
1, 22380, Note_on_c, 0, 69, 74
1, 22392, Note_on_c, 0, 69, 0
1, 22392, Note_on_c, 0, 68, 74
1, 22407, Note_on_c, 1, 64, 0
1, 22407, Note_on_c, 1, 61, 0
1, 22413, Note_on_c, 0, 68, 0
1, 22416, Note_on_c, 0, 66, 74
1, 22461, Note_on_c, 0, 66, 0
1, 22464, Note_on_c, 0, 64, 74
1, 22484, Note_on_c, 0, 64, 0
1, 22512, Note_on_c, 0, 64, 74
1, 22532, Note_on_c, 0, 64, 0
1, 22560, Note_on_c, 0, 66, 74
1, 22560, Note_on_c, 1, 57, 74
1, 22572, Note_on_c, 0, 66, 0
1, 22572, Note_on_c, 0, 68, 74
1, 22584, Note_on_c, 0, 68, 0
1, 22584, Note_on_c, 0, 66, 74
1, 22599, Note_on_c, 1, 57, 0
1, 22605, Note_on_c, 0, 66, 0
1, 22608, Note_on_c, 0, 64, 76
1, 22653, Note_on_c, 0, 64, 0
1, 22656, Note_on_c, 0, 66, 78
1, 22656, Note_on_c, 1, 58, 78
1, 22668, Note_on_c, 0, 66, 0
1, 22668, Note_on_c, 0, 68, 78
1, 22680, Note_on_c, 0, 68, 0
1, 22680, Note_on_c, 0, 66, 78
1, 22695, Note_on_c, 1, 58, 0
1, 22701, Note_on_c, 0, 66, 0
1, 22704, Note_on_c, 0, 64, 80
1, 22749, Note_on_c, 0, 64, 0
1, 22752, Note_on_c, 0, 59, 82
1, 22752, Note_on_c, 1, 47, 82
1, 22791, Note_on_c, 1, 47, 0
1, 22841, Note_on_c, 0, 59, 0
1, 22848, Note_on_c, 1, 35, 82
1, 22887, Note_on_c, 1, 35, 0
1, 22896, Note_on_c, 0, 71, 74
1, 22941, Note_on_c, 0, 71, 0
1, 22944, Note_on_c, 0, 71, 74
1, 22944, Note_on_c, 1, 56, 74
1, 22944, Note_on_c, 1, 52, 74
1, 22956, Note_on_c, 0, 71, 0
1, 22956, Note_on_c, 0, 73, 74
1, 22968, Note_on_c, 0, 73, 0
1, 22968, Note_on_c, 0, 71, 74
1, 22983, Note_on_c, 1, 56, 0
1, 22983, Note_on_c, 1, 52, 0
1, 22989, Note_on_c, 0, 71, 0
1, 22992, Note_on_c, 0, 69, 74
1, 23037, Note_on_c, 0, 69, 0
1, 23040, Note_on_c, 0, 68, 74
1, 23060, Note_on_c, 0, 68, 0
1, 23088, Note_on_c, 0, 68, 74
1, 23108, Note_on_c, 0, 68, 0
1, 23136, Note_on_c, 0, 68, 74
1, 23136, Note_on_c, 1, 64, 74
1, 23136, Note_on_c, 1, 61, 74
1, 23148, Note_on_c, 0, 68, 0
1, 23148, Note_on_c, 0, 69, 74
1, 23160, Note_on_c, 0, 69, 0
1, 23160, Note_on_c, 0, 68, 74
1, 23175, Note_on_c, 1, 64, 0
1, 23175, Note_on_c, 1, 61, 0
1, 23181, Note_on_c, 0, 68, 0
1, 23184, Note_on_c, 0, 66, 74
1, 23229, Note_on_c, 0, 66, 0
1, 23232, Note_on_c, 0, 64, 74
1, 23277, Note_on_c, 0, 64, 0
1, 23280, Note_on_c, 0, 73, 74
1, 23280, Note_on_c, 1, 52, 74
1, 23325, Note_on_c, 0, 73, 0
1, 23325, Note_on_c, 1, 52, 0
1, 23328, Note_on_c, 0, 73, 74
1, 23328, Note_on_c, 1, 52, 74
1, 23340, Note_on_c, 0, 73, 0
1, 23340, Note_on_c, 0, 75, 74
1, 23352, Note_on_c, 0, 75, 0
1, 23352, Note_on_c, 0, 73, 74
1, 23373, Note_on_c, 0, 73, 0
1, 23373, Note_on_c, 1, 52, 0
1, 23376, Note_on_c, 0, 72, 76
1, 23376, Note_on_c, 1, 51, 76
1, 23421, Note_on_c, 0, 72, 0
1, 23421, Note_on_c, 1, 51, 0
1, 23424, Note_on_c, 0, 73, 78
1, 23424, Note_on_c, 1, 52, 78
1, 23469, Note_on_c, 0, 73, 0
1, 23469, Note_on_c, 1, 52, 0
1, 23472, Note_on_c, 0, 75, 80
1, 23472, Note_on_c, 1, 54, 80
1, 23517, Note_on_c, 0, 75, 0
1, 23517, Note_on_c, 1, 54, 0
1, 23520, Note_on_c, 0, 68, 82
1, 23520, Note_on_c, 1, 56, 82
1, 23614, Note_on_c, 0, 68, 0
1, 23614, Note_on_c, 1, 56, 0
1, 23616, Note_on_c, 1, 44, 82
1, 23661, Note_on_c, 1, 44, 0
1, 23664, Note_on_c, 0, 71, 74
1, 23709, Note_on_c, 0, 71, 0
1, 23712, Note_on_c, 0, 71, 74
1, 23712, Note_on_c, 1, 56, 74
1, 23724, Note_on_c, 0, 71, 0
1, 23724, Note_on_c, 0, 73, 74
1, 23736, Note_on_c, 0, 73, 0
1, 23736, Note_on_c, 0, 71, 74
1, 23757, Note_on_c, 0, 71, 0
1, 23760, Note_on_c, 0, 70, 74
1, 23801, Note_on_c, 1, 56, 0
1, 23805, Note_on_c, 0, 70, 0
1, 23808, Note_on_c, 0, 71, 74
1, 23853, Note_on_c, 0, 71, 0
1, 23856, Note_on_c, 0, 75, 74
1, 23901, Note_on_c, 0, 75, 0
1, 23904, Note_on_c, 0, 70, 74
1, 23904, Note_on_c, 1, 63, 74
1, 23916, Note_on_c, 0, 70, 0
1, 23916, Note_on_c, 0, 71, 74
1, 23928, Note_on_c, 0, 71, 0
1, 23928, Note_on_c, 0, 70, 74
1, 23949, Note_on_c, 0, 70, 0
1, 23952, Note_on_c, 0, 68, 74
1, 23993, Note_on_c, 1, 63, 0
1, 23997, Note_on_c, 0, 68, 0
1, 24000, Note_on_c, 0, 70, 74
1, 24045, Note_on_c, 0, 70, 0
1, 24048, Note_on_c, 0, 63, 74
1, 24093, Note_on_c, 0, 63, 0
1, 24096, Note_on_c, 0, 68, 74
1, 24096, Note_on_c, 1, 52, 74
1, 24108, Note_on_c, 0, 68, 0
1, 24108, Note_on_c, 0, 69, 74
1, 24120, Note_on_c, 0, 69, 0
1, 24120, Note_on_c, 0, 68, 74
1, 24141, Note_on_c, 0, 68, 0
1, 24144, Note_on_c, 0, 66, 74
1, 24185, Note_on_c, 1, 52, 0
1, 24189, Note_on_c, 0, 66, 0
1, 24192, Note_on_c, 0, 68, 74
1, 24237, Note_on_c, 0, 68, 0
1, 24240, Note_on_c, 0, 71, 74
1, 24285, Note_on_c, 0, 71, 0
1, 24288, Note_on_c, 0, 66, 74
1, 24288, Note_on_c, 1, 59, 74
1, 24300, Note_on_c, 0, 66, 0
1, 24300, Note_on_c, 0, 68, 74
1, 24312, Note_on_c, 0, 68, 0
1, 24312, Note_on_c, 0, 66, 74
1, 24333, Note_on_c, 0, 66, 0
1, 24336, Note_on_c, 0, 64, 74
1, 24377, Note_on_c, 1, 59, 0
1, 24381, Note_on_c, 0, 64, 0
1, 24384, Note_on_c, 0, 66, 74
1, 24429, Note_on_c, 0, 66, 0
1, 24432, Note_on_c, 0, 59, 74
1, 24477, Note_on_c, 0, 59, 0
1, 24480, Note_on_c, 0, 69, 74
1, 24480, Note_on_c, 1, 54, 74
1, 24492, Note_on_c, 0, 69, 0
1, 24492, Note_on_c, 0, 71, 74
1, 24504, Note_on_c, 0, 71, 0
1, 24504, Note_on_c, 0, 69, 74
1, 24525, Note_on_c, 0, 69, 0
1, 24528, Note_on_c, 0, 68, 74
1, 24569, Note_on_c, 1, 54, 0
1, 24573, Note_on_c, 0, 68, 0
1, 24576, Note_on_c, 0, 69, 74
1, 24621, Note_on_c, 0, 69, 0
1, 24624, Note_on_c, 0, 73, 74
1, 24669, Note_on_c, 0, 73, 0
1, 24672, Note_on_c, 0, 66, 74
1, 24672, Note_on_c, 1, 57, 74
1, 24684, Note_on_c, 0, 66, 0
1, 24684, Note_on_c, 0, 68, 74
1, 24696, Note_on_c, 0, 68, 0
1, 24696, Note_on_c, 0, 66, 74
1, 24717, Note_on_c, 0, 66, 0
1, 24717, Note_on_c, 1, 57, 0
1, 24720, Note_on_c, 0, 64, 74
1, 24720, Note_on_c, 1, 56, 74
1, 24765, Note_on_c, 0, 64, 0
1, 24765, Note_on_c, 1, 56, 0
1, 24768, Note_on_c, 0, 66, 74
1, 24768, Note_on_c, 1, 57, 74
1, 24780, Note_on_c, 0, 66, 0
1, 24780, Note_on_c, 0, 68, 74
1, 24792, Note_on_c, 0, 68, 0
1, 24792, Note_on_c, 0, 66, 74
1, 24813, Note_on_c, 0, 66, 0
1, 24813, Note_on_c, 1, 57, 0
1, 24816, Note_on_c, 0, 64, 74
1, 24816, Note_on_c, 1, 56, 74
1, 24861, Note_on_c, 0, 64, 0
1, 24861, Note_on_c, 1, 56, 0
1, 24864, Note_on_c, 0, 63, 74
1, 24864, Note_on_c, 1, 49, 74
1, 24876, Note_on_c, 0, 63, 0
1, 24876, Note_on_c, 0, 61, 74
1, 24909, Note_on_c, 0, 61, 0
1, 24909, Note_on_c, 1, 49, 0
1, 24912, Note_on_c, 0, 59, 74
1, 24912, Note_on_c, 1, 47, 74
1, 24957, Note_on_c, 0, 59, 0
1, 24957, Note_on_c, 1, 47, 0
1, 24960, Note_on_c, 0, 61, 74
1, 24960, Note_on_c, 1, 49, 74
1, 25005, Note_on_c, 0, 61, 0
1, 25005, Note_on_c, 1, 49, 0
1, 25008, Note_on_c, 0, 63, 74
1, 25008, Note_on_c, 1, 51, 74
1, 25053, Note_on_c, 0, 63, 0
1, 25053, Note_on_c, 1, 51, 0
1, 25056, Note_on_c, 0, 64, 74
1, 25056, Note_on_c, 1, 52, 74
1, 25145, Note_on_c, 0, 64, 0
1, 25145, Note_on_c, 1, 52, 0
1, 25152, Note_on_c, 1, 40, 74
1, 25197, Note_on_c, 1, 40, 0
1, 25200, Note_on_c, 0, 71, 74
1, 25245, Note_on_c, 0, 71, 0
1, 25248, Note_on_c, 0, 71, 74
1, 25248, Note_on_c, 1, 56, 74
1, 25260, Note_on_c, 0, 71, 0
1, 25260, Note_on_c, 0, 73, 74
1, 25272, Note_on_c, 0, 73, 0
1, 25272, Note_on_c, 0, 71, 74
1, 25293, Note_on_c, 0, 71, 0
1, 25296, Note_on_c, 0, 70, 74
1, 25337, Note_on_c, 1, 56, 0
1, 25341, Note_on_c, 0, 70, 0
1, 25344, Note_on_c, 0, 71, 74
1, 25389, Note_on_c, 0, 71, 0
1, 25392, Note_on_c, 0, 75, 74
1, 25437, Note_on_c, 0, 75, 0
1, 25440, Note_on_c, 0, 70, 74
1, 25440, Note_on_c, 1, 63, 74
1, 25452, Note_on_c, 0, 70, 0
1, 25452, Note_on_c, 0, 71, 74
1, 25464, Note_on_c, 0, 71, 0
1, 25464, Note_on_c, 0, 70, 74
1, 25485, Note_on_c, 0, 70, 0
1, 25488, Note_on_c, 0, 68, 74
1, 25529, Note_on_c, 1, 63, 0
1, 25533, Note_on_c, 0, 68, 0
1, 25536, Note_on_c, 0, 70, 74
1, 25581, Note_on_c, 0, 70, 0
1, 25584, Note_on_c, 0, 63, 74
1, 25629, Note_on_c, 0, 63, 0
1, 25632, Note_on_c, 0, 68, 74
1, 25632, Note_on_c, 1, 52, 74
1, 25644, Note_on_c, 0, 68, 0
1, 25644, Note_on_c, 0, 69, 74
1, 25656, Note_on_c, 0, 69, 0
1, 25656, Note_on_c, 0, 68, 74
1, 25677, Note_on_c, 0, 68, 0
1, 25680, Note_on_c, 0, 66, 74
1, 25721, Note_on_c, 1, 52, 0
1, 25725, Note_on_c, 0, 66, 0
1, 25728, Note_on_c, 0, 68, 74
1, 25773, Note_on_c, 0, 68, 0
1, 25776, Note_on_c, 0, 71, 74
1, 25821, Note_on_c, 0, 71, 0
1, 25824, Note_on_c, 0, 66, 74
1, 25824, Note_on_c, 1, 59, 74
1, 25836, Note_on_c, 0, 66, 0
1, 25836, Note_on_c, 0, 68, 74
1, 25848, Note_on_c, 0, 68, 0
1, 25848, Note_on_c, 0, 66, 74
1, 25869, Note_on_c, 0, 66, 0
1, 25872, Note_on_c, 0, 64, 74
1, 25913, Note_on_c, 1, 59, 0
1, 25917, Note_on_c, 0, 64, 0
1, 25920, Note_on_c, 0, 66, 74
1, 25965, Note_on_c, 0, 66, 0
1, 25968, Note_on_c, 0, 59, 74
1, 26013, Note_on_c, 0, 59, 0
1, 26016, Note_on_c, 0, 69, 74
1, 26016, Note_on_c, 1, 54, 74
1, 26028, Note_on_c, 0, 69, 0
1, 26028, Note_on_c, 0, 71, 74
1, 26040, Note_on_c, 0, 71, 0
1, 26040, Note_on_c, 0, 69, 74
1, 26061, Note_on_c, 0, 69, 0
1, 26064, Note_on_c, 0, 68, 74
1, 26105, Note_on_c, 1, 54, 0
1, 26109, Note_on_c, 0, 68, 0
1, 26112, Note_on_c, 0, 69, 74
1, 26157, Note_on_c, 0, 69, 0
1, 26160, Note_on_c, 0, 73, 74
1, 26205, Note_on_c, 0, 73, 0
1, 26208, Note_on_c, 0, 66, 74
1, 26208, Note_on_c, 1, 57, 74
1, 26220, Note_on_c, 0, 66, 0
1, 26220, Note_on_c, 0, 68, 74
1, 26232, Note_on_c, 0, 68, 0
1, 26232, Note_on_c, 0, 66, 74
1, 26253, Note_on_c, 0, 66, 0
1, 26253, Note_on_c, 1, 57, 0
1, 26256, Note_on_c, 0, 64, 74
1, 26256, Note_on_c, 1, 56, 74
1, 26301, Note_on_c, 0, 64, 0
1, 26301, Note_on_c, 1, 56, 0
1, 26304, Note_on_c, 0, 66, 74
1, 26304, Note_on_c, 1, 57, 74
1, 26316, Note_on_c, 0, 66, 0
1, 26316, Note_on_c, 0, 68, 74
1, 26328, Note_on_c, 0, 68, 0
1, 26328, Note_on_c, 0, 66, 74
1, 26349, Note_on_c, 0, 66, 0
1, 26349, Note_on_c, 1, 57, 0
1, 26352, Note_on_c, 0, 64, 74
1, 26352, Note_on_c, 1, 56, 74
1, 26397, Note_on_c, 0, 64, 0
1, 26397, Note_on_c, 1, 56, 0
1, 26400, Note_on_c, 0, 63, 74
1, 26400, Note_on_c, 1, 49, 74
1, 26412, Note_on_c, 0, 63, 0
1, 26412, Note_on_c, 0, 61, 74
1, 26445, Note_on_c, 0, 61, 0
1, 26445, Note_on_c, 1, 49, 0
1, 26448, Note_on_c, 0, 59, 74
1, 26448, Note_on_c, 1, 47, 74
1, 26493, Note_on_c, 0, 59, 0
1, 26493, Note_on_c, 1, 47, 0
1, 26496, Note_on_c, 0, 61, 74
1, 26496, Note_on_c, 1, 49, 74
1, 26541, Note_on_c, 0, 61, 0
1, 26541, Note_on_c, 1, 49, 0
1, 26544, Note_on_c, 0, 63, 74
1, 26544, Note_on_c, 1, 51, 74
1, 26589, Note_on_c, 0, 63, 0
1, 26589, Note_on_c, 1, 51, 0
1, 26592, Note_on_c, 0, 64, 74
1, 26592, Note_on_c, 1, 52, 74
1, 26681, Note_on_c, 0, 64, 0
1, 26681, Note_on_c, 1, 52, 0
1, 26688, Note_on_c, 1, 40, 74
1, 26733, Note_on_c, 1, 40, 0
1, 26736, Note_on_c, 0, 71, 74
1, 26781, Note_on_c, 0, 71, 0
1, 26784, Note_on_c, 0, 71, 74
1, 26784, Note_on_c, 1, 56, 74
1, 26784, Note_on_c, 1, 52, 74
1, 26807, Note_on_c, 0, 71, 0
1, 26808, Note_on_c, 0, 73, 74
1, 26831, Note_on_c, 0, 73, 0
1, 26832, Note_on_c, 0, 69, 74
1, 26855, Note_on_c, 0, 69, 0
1, 26856, Note_on_c, 0, 71, 74
1, 26873, Note_on_c, 1, 56, 0
1, 26873, Note_on_c, 1, 52, 0
1, 26879, Note_on_c, 0, 71, 0
1, 26880, Note_on_c, 0, 68, 74
1, 26925, Note_on_c, 0, 68, 0
1, 26928, Note_on_c, 0, 68, 74
1, 26973, Note_on_c, 0, 68, 0
1, 26976, Note_on_c, 0, 68, 74
1, 26976, Note_on_c, 1, 64, 74
1, 26976, Note_on_c, 1, 61, 74
1, 26999, Note_on_c, 0, 68, 0
1, 27000, Note_on_c, 0, 69, 74
1, 27023, Note_on_c, 0, 69, 0
1, 27024, Note_on_c, 0, 66, 74
1, 27047, Note_on_c, 0, 66, 0
1, 27048, Note_on_c, 0, 68, 74
1, 27065, Note_on_c, 1, 64, 0
1, 27065, Note_on_c, 1, 61, 0
1, 27071, Note_on_c, 0, 68, 0
1, 27072, Note_on_c, 0, 64, 74
1, 27117, Note_on_c, 0, 64, 0
1, 27120, Note_on_c, 0, 76, 74
1, 27143, Note_on_c, 0, 76, 0
1, 27144, Note_on_c, 0, 75, 74
1, 27167, Note_on_c, 0, 75, 0
1, 27168, Note_on_c, 0, 73, 74
1, 27168, Note_on_c, 1, 45, 74
1, 27191, Note_on_c, 0, 73, 0
1, 27192, Note_on_c, 0, 71, 75
1, 27215, Note_on_c, 0, 71, 0
1, 27216, Note_on_c, 0, 69, 76
1, 27239, Note_on_c, 0, 69, 0
1, 27240, Note_on_c, 0, 68, 77
1, 27257, Note_on_c, 1, 45, 0
1, 27263, Note_on_c, 0, 68, 0
1, 27264, Note_on_c, 0, 66, 78
1, 27264, Note_on_c, 1, 46, 78
1, 27287, Note_on_c, 0, 66, 0
1, 27288, Note_on_c, 0, 64, 79
1, 27311, Note_on_c, 0, 64, 0
1, 27312, Note_on_c, 0, 63, 80
1, 27335, Note_on_c, 0, 63, 0
1, 27336, Note_on_c, 0, 61, 81
1, 27353, Note_on_c, 1, 46, 0
1, 27359, Note_on_c, 0, 61, 0
1, 27360, Note_on_c, 0, 59, 82
1, 27384, Note_on_c, 1, 47, 82
1, 27407, Note_on_c, 1, 47, 0
1, 27408, Note_on_c, 1, 46, 82
1, 27431, Note_on_c, 1, 46, 0
1, 27432, Note_on_c, 1, 47, 82
1, 27449, Note_on_c, 0, 59, 0
1, 27455, Note_on_c, 1, 47, 0
1, 27456, Note_on_c, 1, 35, 82
1, 27501, Note_on_c, 1, 35, 0
1, 27504, Note_on_c, 0, 71, 74
1, 27549, Note_on_c, 0, 71, 0
1, 27552, Note_on_c, 0, 71, 74
1, 27552, Note_on_c, 1, 56, 74
1, 27552, Note_on_c, 1, 52, 74
1, 27575, Note_on_c, 0, 71, 0
1, 27576, Note_on_c, 0, 73, 74
1, 27599, Note_on_c, 0, 73, 0
1, 27600, Note_on_c, 0, 69, 74
1, 27623, Note_on_c, 0, 69, 0
1, 27624, Note_on_c, 0, 71, 74
1, 27641, Note_on_c, 1, 56, 0
1, 27641, Note_on_c, 1, 52, 0
1, 27647, Note_on_c, 0, 71, 0
1, 27648, Note_on_c, 0, 68, 74
1, 27693, Note_on_c, 0, 68, 0
1, 27696, Note_on_c, 0, 68, 74
1, 27741, Note_on_c, 0, 68, 0
1, 27744, Note_on_c, 0, 68, 74
1, 27744, Note_on_c, 1, 64, 74
1, 27744, Note_on_c, 1, 61, 74
1, 27767, Note_on_c, 0, 68, 0
1, 27768, Note_on_c, 0, 69, 74
1, 27791, Note_on_c, 0, 69, 0
1, 27792, Note_on_c, 0, 66, 74
1, 27815, Note_on_c, 0, 66, 0
1, 27816, Note_on_c, 0, 68, 74
1, 27833, Note_on_c, 1, 64, 0
1, 27833, Note_on_c, 1, 61, 0
1, 27839, Note_on_c, 0, 68, 0
1, 27840, Note_on_c, 0, 64, 74
1, 27885, Note_on_c, 0, 64, 0
1, 27888, Note_on_c, 0, 73, 74
1, 27888, Note_on_c, 1, 52, 74
1, 27933, Note_on_c, 0, 73, 0
1, 27933, Note_on_c, 1, 52, 0
1, 27936, Note_on_c, 0, 73, 74
1, 27936, Note_on_c, 1, 52, 74
1, 27959, Note_on_c, 0, 73, 0
1, 27960, Note_on_c, 0, 75, 75
1, 27981, Note_on_c, 1, 52, 0
1, 27983, Note_on_c, 0, 75, 0
1, 27984, Note_on_c, 0, 72, 76
1, 27984, Note_on_c, 1, 51, 76
1, 28007, Note_on_c, 0, 72, 0
1, 28008, Note_on_c, 0, 75, 77
1, 28029, Note_on_c, 1, 51, 0
1, 28031, Note_on_c, 0, 75, 0
1, 28032, Note_on_c, 0, 73, 78
1, 28032, Note_on_c, 1, 52, 78
1, 28055, Note_on_c, 0, 73, 0
1, 28056, Note_on_c, 0, 76, 79
1, 28077, Note_on_c, 1, 52, 0
1, 28079, Note_on_c, 0, 76, 0
1, 28080, Note_on_c, 0, 75, 80
1, 28080, Note_on_c, 1, 54, 80
1, 28103, Note_on_c, 0, 75, 0
1, 28104, Note_on_c, 0, 73, 81
1, 28125, Note_on_c, 1, 54, 0
1, 28127, Note_on_c, 0, 73, 0
1, 28128, Note_on_c, 0, 68, 82
1, 28128, Note_on_c, 1, 56, 82
1, 28222, Note_on_c, 0, 68, 0
1, 28222, Note_on_c, 1, 56, 0
1, 28224, Note_on_c, 1, 44, 82
1, 28269, Note_on_c, 1, 44, 0
1, 28272, Note_on_c, 0, 71, 74
1, 28317, Note_on_c, 0, 71, 0
1, 28320, Note_on_c, 0, 71, 74
1, 28320, Note_on_c, 1, 56, 74
1, 28320, Note_on_c, 1, 52, 74
1, 28343, Note_on_c, 0, 71, 0
1, 28344, Note_on_c, 0, 73, 74
1, 28367, Note_on_c, 0, 73, 0
1, 28368, Note_on_c, 0, 69, 74
1, 28391, Note_on_c, 0, 69, 0
1, 28392, Note_on_c, 0, 71, 74
1, 28409, Note_on_c, 1, 56, 0
1, 28409, Note_on_c, 1, 52, 0
1, 28415, Note_on_c, 0, 71, 0
1, 28416, Note_on_c, 0, 68, 74
1, 28461, Note_on_c, 0, 68, 0
1, 28464, Note_on_c, 0, 68, 74
1, 28509, Note_on_c, 0, 68, 0
1, 28512, Note_on_c, 0, 68, 74
1, 28512, Note_on_c, 1, 64, 74
1, 28512, Note_on_c, 1, 61, 74
1, 28535, Note_on_c, 0, 68, 0
1, 28536, Note_on_c, 0, 69, 74
1, 28559, Note_on_c, 0, 69, 0
1, 28560, Note_on_c, 0, 66, 74
1, 28583, Note_on_c, 0, 66, 0
1, 28584, Note_on_c, 0, 68, 74
1, 28601, Note_on_c, 1, 64, 0
1, 28601, Note_on_c, 1, 61, 0
1, 28607, Note_on_c, 0, 68, 0
1, 28608, Note_on_c, 0, 64, 74
1, 28653, Note_on_c, 0, 64, 0
1, 28656, Note_on_c, 0, 76, 74
1, 28679, Note_on_c, 0, 76, 0
1, 28680, Note_on_c, 0, 75, 74
1, 28703, Note_on_c, 0, 75, 0
1, 28704, Note_on_c, 0, 73, 74
1, 28704, Note_on_c, 1, 45, 74
1, 28727, Note_on_c, 0, 73, 0
1, 28728, Note_on_c, 0, 71, 75
1, 28751, Note_on_c, 0, 71, 0
1, 28752, Note_on_c, 0, 69, 76
1, 28775, Note_on_c, 0, 69, 0
1, 28776, Note_on_c, 0, 68, 77
1, 28793, Note_on_c, 1, 45, 0
1, 28799, Note_on_c, 0, 68, 0
1, 28800, Note_on_c, 0, 66, 78
1, 28800, Note_on_c, 1, 46, 78
1, 28823, Note_on_c, 0, 66, 0
1, 28824, Note_on_c, 0, 64, 79
1, 28847, Note_on_c, 0, 64, 0
1, 28848, Note_on_c, 0, 63, 80
1, 28871, Note_on_c, 0, 63, 0
1, 28872, Note_on_c, 0, 61, 81
1, 28889, Note_on_c, 1, 46, 0
1, 28895, Note_on_c, 0, 61, 0
1, 28896, Note_on_c, 0, 59, 82
1, 28920, Note_on_c, 1, 47, 82
1, 28943, Note_on_c, 1, 47, 0
1, 28944, Note_on_c, 1, 46, 82
1, 28967, Note_on_c, 1, 46, 0
1, 28968, Note_on_c, 1, 47, 82
1, 28985, Note_on_c, 0, 59, 0
1, 28991, Note_on_c, 1, 47, 0
1, 28992, Note_on_c, 1, 35, 82
1, 29037, Note_on_c, 1, 35, 0
1, 29040, Note_on_c, 0, 71, 74
1, 29085, Note_on_c, 0, 71, 0
1, 29088, Note_on_c, 0, 71, 74
1, 29088, Note_on_c, 1, 56, 74
1, 29088, Note_on_c, 1, 52, 74
1, 29111, Note_on_c, 0, 71, 0
1, 29112, Note_on_c, 0, 73, 74
1, 29135, Note_on_c, 0, 73, 0
1, 29136, Note_on_c, 0, 69, 74
1, 29159, Note_on_c, 0, 69, 0
1, 29160, Note_on_c, 0, 71, 74
1, 29177, Note_on_c, 1, 56, 0
1, 29177, Note_on_c, 1, 52, 0
1, 29183, Note_on_c, 0, 71, 0
1, 29184, Note_on_c, 0, 68, 74
1, 29229, Note_on_c, 0, 68, 0
1, 29232, Note_on_c, 0, 68, 74
1, 29277, Note_on_c, 0, 68, 0
1, 29280, Note_on_c, 0, 68, 74
1, 29280, Note_on_c, 1, 64, 74
1, 29280, Note_on_c, 1, 61, 74
1, 29303, Note_on_c, 0, 68, 0
1, 29304, Note_on_c, 0, 69, 74
1, 29327, Note_on_c, 0, 69, 0
1, 29328, Note_on_c, 0, 66, 74
1, 29351, Note_on_c, 0, 66, 0
1, 29352, Note_on_c, 0, 68, 74
1, 29369, Note_on_c, 1, 64, 0
1, 29369, Note_on_c, 1, 61, 0
1, 29375, Note_on_c, 0, 68, 0
1, 29376, Note_on_c, 0, 64, 74
1, 29421, Note_on_c, 0, 64, 0
1, 29424, Note_on_c, 0, 73, 74
1, 29424, Note_on_c, 1, 52, 74
1, 29469, Note_on_c, 0, 73, 0
1, 29469, Note_on_c, 1, 52, 0
1, 29472, Note_on_c, 0, 73, 74
1, 29472, Note_on_c, 1, 52, 74
1, 29495, Note_on_c, 0, 73, 0
1, 29496, Note_on_c, 0, 75, 75
1, 29517, Note_on_c, 1, 52, 0
1, 29519, Note_on_c, 0, 75, 0
1, 29520, Note_on_c, 0, 72, 76
1, 29520, Note_on_c, 1, 51, 76
1, 29543, Note_on_c, 0, 72, 0
1, 29544, Note_on_c, 0, 75, 77
1, 29565, Note_on_c, 1, 51, 0
1, 29567, Note_on_c, 0, 75, 0
1, 29568, Note_on_c, 0, 73, 78
1, 29568, Note_on_c, 1, 52, 78
1, 29591, Note_on_c, 0, 73, 0
1, 29592, Note_on_c, 0, 76, 79
1, 29613, Note_on_c, 1, 52, 0
1, 29615, Note_on_c, 0, 76, 0
1, 29616, Note_on_c, 0, 75, 80
1, 29616, Note_on_c, 1, 54, 80
1, 29639, Note_on_c, 0, 75, 0
1, 29640, Note_on_c, 0, 73, 81
1, 29661, Note_on_c, 1, 54, 0
1, 29663, Note_on_c, 0, 73, 0
1, 29664, Note_on_c, 0, 68, 82
1, 29664, Note_on_c, 1, 56, 82
1, 29758, Note_on_c, 0, 68, 0
1, 29758, Note_on_c, 1, 56, 0
1, 29760, Note_on_c, 1, 44, 82
1, 29805, Note_on_c, 1, 44, 0
1, 29808, Note_on_c, 0, 71, 74
1, 29853, Note_on_c, 0, 71, 0
1, 29856, Note_on_c, 0, 71, 74
1, 29856, Note_on_c, 1, 63, 74
1, 29856, Note_on_c, 1, 56, 74
1, 29879, Note_on_c, 0, 71, 0
1, 29880, Note_on_c, 0, 73, 74
1, 29903, Note_on_c, 0, 73, 0
1, 29904, Note_on_c, 0, 71, 74
1, 29927, Note_on_c, 0, 71, 0
1, 29928, Note_on_c, 0, 70, 74
1, 29945, Note_on_c, 1, 63, 0
1, 29945, Note_on_c, 1, 56, 0
1, 29951, Note_on_c, 0, 70, 0
1, 29952, Note_on_c, 0, 71, 74
1, 29975, Note_on_c, 0, 71, 0
1, 29976, Note_on_c, 0, 75, 74
1, 29999, Note_on_c, 0, 75, 0
1, 30000, Note_on_c, 0, 73, 74
1, 30023, Note_on_c, 0, 73, 0
1, 30024, Note_on_c, 0, 71, 74
1, 30047, Note_on_c, 0, 71, 0
1, 30048, Note_on_c, 0, 70, 74
1, 30048, Note_on_c, 1, 67, 74
1, 30048, Note_on_c, 1, 63, 74
1, 30071, Note_on_c, 0, 70, 0
1, 30072, Note_on_c, 0, 71, 74
1, 30095, Note_on_c, 0, 71, 0
1, 30096, Note_on_c, 0, 70, 74
1, 30119, Note_on_c, 0, 70, 0
1, 30120, Note_on_c, 0, 68, 74
1, 30137, Note_on_c, 1, 67, 0
1, 30137, Note_on_c, 1, 63, 0
1, 30143, Note_on_c, 0, 68, 0
1, 30144, Note_on_c, 0, 70, 74
1, 30189, Note_on_c, 0, 70, 0
1, 30192, Note_on_c, 0, 63, 74
1, 30237, Note_on_c, 0, 63, 0
1, 30240, Note_on_c, 0, 68, 74
1, 30240, Note_on_c, 1, 59, 74
1, 30240, Note_on_c, 1, 52, 74
1, 30263, Note_on_c, 0, 68, 0
1, 30264, Note_on_c, 0, 69, 74
1, 30287, Note_on_c, 0, 69, 0
1, 30288, Note_on_c, 0, 68, 74
1, 30311, Note_on_c, 0, 68, 0
1, 30312, Note_on_c, 0, 66, 74
1, 30329, Note_on_c, 1, 59, 0
1, 30329, Note_on_c, 1, 52, 0
1, 30335, Note_on_c, 0, 66, 0
1, 30336, Note_on_c, 0, 68, 74
1, 30359, Note_on_c, 0, 68, 0
1, 30360, Note_on_c, 0, 71, 74
1, 30383, Note_on_c, 0, 71, 0
1, 30384, Note_on_c, 0, 69, 74
1, 30407, Note_on_c, 0, 69, 0
1, 30408, Note_on_c, 0, 68, 74
1, 30431, Note_on_c, 0, 68, 0
1, 30432, Note_on_c, 0, 66, 74
1, 30432, Note_on_c, 1, 63, 74
1, 30432, Note_on_c, 1, 59, 74
1, 30455, Note_on_c, 0, 66, 0
1, 30456, Note_on_c, 0, 64, 74
1, 30479, Note_on_c, 0, 64, 0
1, 30480, Note_on_c, 0, 63, 74
1, 30503, Note_on_c, 0, 63, 0
1, 30504, Note_on_c, 0, 61, 74
1, 30521, Note_on_c, 1, 63, 0
1, 30521, Note_on_c, 1, 59, 0
1, 30527, Note_on_c, 0, 61, 0
1, 30528, Note_on_c, 0, 59, 74
1, 30573, Note_on_c, 0, 59, 0
1, 30576, Note_on_c, 0, 59, 74
1, 30621, Note_on_c, 0, 59, 0
1, 30624, Note_on_c, 0, 69, 74
1, 30624, Note_on_c, 1, 61, 74
1, 30624, Note_on_c, 1, 54, 74
1, 30647, Note_on_c, 0, 69, 0
1, 30648, Note_on_c, 0, 71, 74
1, 30671, Note_on_c, 0, 71, 0
1, 30672, Note_on_c, 0, 69, 74
1, 30695, Note_on_c, 0, 69, 0
1, 30696, Note_on_c, 0, 68, 74
1, 30713, Note_on_c, 1, 61, 0
1, 30713, Note_on_c, 1, 54, 0
1, 30719, Note_on_c, 0, 68, 0
1, 30720, Note_on_c, 0, 69, 74
1, 30765, Note_on_c, 0, 69, 0
1, 30768, Note_on_c, 0, 73, 74
1, 30813, Note_on_c, 0, 73, 0
1, 30816, Note_on_c, 0, 66, 74
1, 30816, Note_on_c, 1, 57, 74
1, 30839, Note_on_c, 0, 66, 0
1, 30840, Note_on_c, 0, 68, 74
1, 30861, Note_on_c, 1, 57, 0
1, 30863, Note_on_c, 0, 68, 0
1, 30864, Note_on_c, 0, 64, 74
1, 30864, Note_on_c, 1, 56, 74
1, 30909, Note_on_c, 0, 64, 0
1, 30909, Note_on_c, 1, 56, 0
1, 30912, Note_on_c, 0, 66, 74
1, 30912, Note_on_c, 1, 57, 74
1, 30935, Note_on_c, 0, 66, 0
1, 30936, Note_on_c, 0, 68, 74
1, 30957, Note_on_c, 1, 57, 0
1, 30959, Note_on_c, 0, 68, 0
1, 30960, Note_on_c, 0, 64, 74
1, 30960, Note_on_c, 1, 56, 74
1, 31005, Note_on_c, 0, 64, 0
1, 31005, Note_on_c, 1, 56, 0
1, 31008, Note_on_c, 0, 61, 74
1, 31008, Note_on_c, 1, 49, 74
1, 31031, Note_on_c, 0, 61, 0
1, 31032, Note_on_c, 0, 63, 74
1, 31053, Note_on_c, 1, 49, 0
1, 31055, Note_on_c, 0, 63, 0
1, 31056, Note_on_c, 0, 59, 74
1, 31056, Note_on_c, 1, 47, 74
1, 31101, Note_on_c, 0, 59, 0
1, 31101, Note_on_c, 1, 47, 0
1, 31104, Note_on_c, 0, 61, 74
1, 31104, Note_on_c, 1, 49, 74
1, 31127, Note_on_c, 0, 61, 0
1, 31128, Note_on_c, 0, 64, 74
1, 31149, Note_on_c, 1, 49, 0
1, 31151, Note_on_c, 0, 64, 0
1, 31152, Note_on_c, 0, 63, 74
1, 31152, Note_on_c, 1, 51, 74
1, 31175, Note_on_c, 0, 63, 0
1, 31176, Note_on_c, 0, 66, 74
1, 31197, Note_on_c, 1, 51, 0
1, 31199, Note_on_c, 0, 66, 0
1, 31200, Note_on_c, 0, 64, 74
1, 31200, Note_on_c, 1, 52, 74
1, 31289, Note_on_c, 0, 64, 0
1, 31289, Note_on_c, 1, 52, 0
1, 31296, Note_on_c, 1, 40, 74
1, 31341, Note_on_c, 1, 40, 0
1, 31344, Note_on_c, 0, 71, 74
1, 31389, Note_on_c, 0, 71, 0
1, 31392, Note_on_c, 0, 71, 74
1, 31392, Note_on_c, 1, 63, 74
1, 31392, Note_on_c, 1, 56, 74
1, 31415, Note_on_c, 0, 71, 0
1, 31416, Note_on_c, 0, 73, 74
1, 31439, Note_on_c, 0, 73, 0
1, 31440, Note_on_c, 0, 71, 74
1, 31463, Note_on_c, 0, 71, 0
1, 31464, Note_on_c, 0, 70, 74
1, 31481, Note_on_c, 1, 63, 0
1, 31481, Note_on_c, 1, 56, 0
1, 31487, Note_on_c, 0, 70, 0
1, 31488, Note_on_c, 0, 71, 74
1, 31511, Note_on_c, 0, 71, 0
1, 31512, Note_on_c, 0, 75, 74
1, 31535, Note_on_c, 0, 75, 0
1, 31536, Note_on_c, 0, 73, 74
1, 31559, Note_on_c, 0, 73, 0
1, 31560, Note_on_c, 0, 71, 74
1, 31583, Note_on_c, 0, 71, 0
1, 31584, Note_on_c, 0, 70, 74
1, 31584, Note_on_c, 1, 67, 74
1, 31584, Note_on_c, 1, 63, 74
1, 31607, Note_on_c, 0, 70, 0
1, 31608, Note_on_c, 0, 71, 74
1, 31631, Note_on_c, 0, 71, 0
1, 31632, Note_on_c, 0, 70, 74
1, 31655, Note_on_c, 0, 70, 0
1, 31656, Note_on_c, 0, 68, 74
1, 31673, Note_on_c, 1, 67, 0
1, 31673, Note_on_c, 1, 63, 0
1, 31679, Note_on_c, 0, 68, 0
1, 31680, Note_on_c, 0, 70, 74
1, 31725, Note_on_c, 0, 70, 0
1, 31728, Note_on_c, 0, 63, 74
1, 31773, Note_on_c, 0, 63, 0
1, 31776, Note_on_c, 0, 68, 74
1, 31776, Note_on_c, 1, 59, 74
1, 31776, Note_on_c, 1, 52, 74
1, 31799, Note_on_c, 0, 68, 0
1, 31800, Note_on_c, 0, 69, 74
1, 31823, Note_on_c, 0, 69, 0
1, 31824, Note_on_c, 0, 68, 74
1, 31847, Note_on_c, 0, 68, 0
1, 31848, Note_on_c, 0, 66, 74
1, 31865, Note_on_c, 1, 59, 0
1, 31865, Note_on_c, 1, 52, 0
1, 31871, Note_on_c, 0, 66, 0
1, 31872, Note_on_c, 0, 68, 74
1, 31895, Note_on_c, 0, 68, 0
1, 31896, Note_on_c, 0, 71, 74
1, 31919, Note_on_c, 0, 71, 0
1, 31920, Note_on_c, 0, 69, 74
1, 31943, Note_on_c, 0, 69, 0
1, 31944, Note_on_c, 0, 68, 74
1, 31967, Note_on_c, 0, 68, 0
1, 31968, Note_on_c, 0, 66, 74
1, 31968, Note_on_c, 1, 63, 74
1, 31968, Note_on_c, 1, 59, 74
1, 31991, Note_on_c, 0, 66, 0
1, 31992, Note_on_c, 0, 64, 74
1, 32015, Note_on_c, 0, 64, 0
1, 32016, Note_on_c, 0, 63, 74
1, 32039, Note_on_c, 0, 63, 0
1, 32040, Note_on_c, 0, 61, 74
1, 32057, Note_on_c, 1, 63, 0
1, 32057, Note_on_c, 1, 59, 0
1, 32063, Note_on_c, 0, 61, 0
1, 32064, Note_on_c, 0, 59, 74
1, 32109, Note_on_c, 0, 59, 0
1, 32112, Note_on_c, 0, 59, 74
1, 32157, Note_on_c, 0, 59, 0
1, 32160, Note_on_c, 0, 69, 74
1, 32160, Note_on_c, 1, 61, 74
1, 32160, Note_on_c, 1, 54, 74
1, 32183, Note_on_c, 0, 69, 0
1, 32184, Note_on_c, 0, 71, 74
1, 32207, Note_on_c, 0, 71, 0
1, 32208, Note_on_c, 0, 69, 74
1, 32231, Note_on_c, 0, 69, 0
1, 32232, Note_on_c, 0, 68, 74
1, 32249, Note_on_c, 1, 61, 0
1, 32249, Note_on_c, 1, 54, 0
1, 32255, Note_on_c, 0, 68, 0
1, 32256, Note_on_c, 0, 69, 74
1, 32301, Note_on_c, 0, 69, 0
1, 32304, Note_on_c, 0, 73, 74
1, 32349, Note_on_c, 0, 73, 0
1, 32352, Note_on_c, 0, 66, 74
1, 32352, Note_on_c, 1, 57, 74
1, 32375, Note_on_c, 0, 66, 0
1, 32376, Note_on_c, 0, 68, 74
1, 32397, Note_on_c, 1, 57, 0
1, 32399, Note_on_c, 0, 68, 0
1, 32400, Note_on_c, 0, 64, 74
1, 32400, Note_on_c, 1, 56, 74
1, 32445, Note_on_c, 0, 64, 0
1, 32445, Note_on_c, 1, 56, 0
1, 32448, Note_on_c, 0, 66, 74
1, 32448, Note_on_c, 1, 57, 74
1, 32471, Note_on_c, 0, 66, 0
1, 32472, Note_on_c, 0, 68, 74
1, 32493, Note_on_c, 1, 57, 0
1, 32495, Note_on_c, 0, 68, 0
1, 32496, Note_on_c, 0, 64, 74
1, 32496, Note_on_c, 1, 56, 74
1, 32541, Note_on_c, 0, 64, 0
1, 32541, Note_on_c, 1, 56, 0
1, 32544, Note_on_c, 0, 61, 74
1, 32544, Note_on_c, 1, 49, 74
1, 32567, Note_on_c, 0, 61, 0
1, 32568, Note_on_c, 0, 63, 74
1, 32589, Note_on_c, 1, 49, 0
1, 32591, Note_on_c, 0, 63, 0
1, 32592, Note_on_c, 0, 59, 74
1, 32592, Note_on_c, 1, 47, 74
1, 32637, Note_on_c, 0, 59, 0
1, 32637, Note_on_c, 1, 47, 0
1, 32640, Note_on_c, 0, 61, 74
1, 32640, Note_on_c, 1, 49, 74
1, 32663, Note_on_c, 0, 61, 0
1, 32664, Note_on_c, 0, 64, 74
1, 32685, Note_on_c, 1, 49, 0
1, 32687, Note_on_c, 0, 64, 0
1, 32688, Note_on_c, 0, 63, 74
1, 32688, Note_on_c, 1, 51, 74
1, 32711, Note_on_c, 0, 63, 0
1, 32712, Note_on_c, 0, 66, 74
1, 32733, Note_on_c, 1, 51, 0
1, 32735, Note_on_c, 0, 66, 0
1, 32736, Note_on_c, 0, 64, 74
1, 32736, Note_on_c, 1, 52, 74
1, 32825, Note_on_c, 0, 64, 0
1, 32825, Note_on_c, 1, 52, 0
1, 32832, Note_on_c, 1, 40, 74
1, 32877, Note_on_c, 1, 40, 0
1, 32880, Note_on_c, 0, 83, 74
1, 32880, Note_on_c, 0, 80, 74
1, 32925, Note_on_c, 0, 83, 0
1, 32925, Note_on_c, 0, 80, 0
1, 32928, Note_on_c, 0, 83, 74
1, 32928, Note_on_c, 0, 80, 74
1, 32928, Note_on_c, 1, 64, 74
1, 32973, Note_on_c, 0, 83, 0
1, 32973, Note_on_c, 0, 80, 0
1, 32976, Note_on_c, 0, 81, 74
1, 32976, Note_on_c, 0, 78, 74
1, 33017, Note_on_c, 1, 64, 0
1, 33021, Note_on_c, 0, 81, 0
1, 33021, Note_on_c, 0, 78, 0
1, 33024, Note_on_c, 0, 80, 74
1, 33024, Note_on_c, 0, 76, 74
1, 33069, Note_on_c, 0, 80, 0
1, 33069, Note_on_c, 0, 76, 0
1, 33072, Note_on_c, 0, 80, 74
1, 33072, Note_on_c, 1, 71, 74
1, 33072, Note_on_c, 1, 64, 74
1, 33092, Note_on_c, 0, 80, 0
1, 33117, Note_on_c, 1, 71, 0
1, 33117, Note_on_c, 1, 64, 0
1, 33120, Note_on_c, 0, 80, 74
1, 33120, Note_on_c, 1, 71, 74
1, 33120, Note_on_c, 1, 64, 64
1, 33165, Note_on_c, 0, 80, 0
1, 33165, Note_on_c, 1, 71, 0
1, 33168, Note_on_c, 0, 78, 74
1, 33168, Note_on_c, 1, 69, 74
1, 33209, Note_on_c, 1, 64, 0
1, 33213, Note_on_c, 0, 78, 0
1, 33213, Note_on_c, 1, 69, 0
1, 33216, Note_on_c, 0, 76, 74
1, 33216, Note_on_c, 1, 68, 74
1, 33261, Note_on_c, 0, 76, 0
1, 33261, Note_on_c, 1, 68, 0
1, 33264, Note_on_c, 0, 88, 74
1, 33312, Note_on_c, 1, 64, 74
1, 33312, Note_on_c, 1, 61, 74
1, 33357, Note_on_c, 0, 88, 0
1, 33360, Note_on_c, 0, 85, 76
1, 33401, Note_on_c, 1, 64, 0
1, 33401, Note_on_c, 1, 61, 0
1, 33405, Note_on_c, 0, 85, 0
1, 33408, Note_on_c, 0, 80, 78
1, 33408, Note_on_c, 1, 76, 78
1, 33408, Note_on_c, 1, 73, 78
1, 33453, Note_on_c, 0, 80, 0
1, 33456, Note_on_c, 0, 82, 80
1, 33501, Note_on_c, 0, 82, 0
1, 33504, Note_on_c, 0, 82, 82
1, 33504, Note_on_c, 1, 73, 0
1, 33504, Note_on_c, 1, 71, 82
1, 33593, Note_on_c, 1, 76, 0
1, 33593, Note_on_c, 1, 71, 0
1, 33600, Note_on_c, 0, 82, 0
1, 33600, Note_on_c, 0, 83, 82
1, 33600, Note_on_c, 1, 75, 82
1, 33645, Note_on_c, 0, 83, 0
1, 33645, Note_on_c, 1, 75, 0
1, 33648, Note_on_c, 0, 83, 74
1, 33648, Note_on_c, 0, 80, 74
1, 33693, Note_on_c, 0, 83, 0
1, 33693, Note_on_c, 0, 80, 0
1, 33696, Note_on_c, 0, 83, 74
1, 33696, Note_on_c, 0, 80, 74
1, 33696, Note_on_c, 1, 64, 74
1, 33741, Note_on_c, 0, 83, 0
1, 33741, Note_on_c, 0, 80, 0
1, 33744, Note_on_c, 0, 81, 74
1, 33744, Note_on_c, 0, 78, 74
1, 33785, Note_on_c, 1, 64, 0
1, 33789, Note_on_c, 0, 81, 0
1, 33789, Note_on_c, 0, 78, 0
1, 33792, Note_on_c, 0, 80, 74
1, 33792, Note_on_c, 0, 76, 74
1, 33837, Note_on_c, 0, 80, 0
1, 33837, Note_on_c, 0, 76, 0
1, 33840, Note_on_c, 0, 80, 74
1, 33840, Note_on_c, 1, 71, 74
1, 33840, Note_on_c, 1, 64, 64
1, 33860, Note_on_c, 0, 80, 0
1, 33885, Note_on_c, 1, 71, 0
1, 33885, Note_on_c, 1, 64, 0
1, 33888, Note_on_c, 0, 80, 74
1, 33888, Note_on_c, 1, 71, 74
1, 33888, Note_on_c, 1, 64, 74
1, 33933, Note_on_c, 0, 80, 0
1, 33933, Note_on_c, 1, 71, 0
1, 33936, Note_on_c, 0, 78, 76
1, 33936, Note_on_c, 1, 69, 76
1, 33981, Note_on_c, 0, 78, 0
1, 33981, Note_on_c, 1, 69, 0
1, 33984, Note_on_c, 0, 76, 78
1, 33984, Note_on_c, 1, 68, 78
1, 34021, Note_on_c, 1, 64, 0
1, 34029, Note_on_c, 0, 76, 0
1, 34029, Note_on_c, 1, 68, 0
1, 34032, Note_on_c, 0, 80, 80
1, 34032, Note_on_c, 1, 70, 80
1, 34032, Note_on_c, 1, 64, 80
1, 34052, Note_on_c, 0, 80, 0
1, 34077, Note_on_c, 1, 70, 0
1, 34077, Note_on_c, 1, 64, 0
1, 34080, Note_on_c, 0, 78, 82
1, 34080, Note_on_c, 1, 71, 82
1, 34080, Note_on_c, 1, 63, 82
1, 34125, Note_on_c, 0, 78, 0
1, 34125, Note_on_c, 1, 71, 0
1, 34125, Note_on_c, 1, 63, 0
1, 34128, Note_on_c, 0, 76, 80
1, 34128, Note_on_c, 0, 73, 80
1, 34128, Note_on_c, 1, 64, 80
1, 34173, Note_on_c, 0, 76, 0
1, 34173, Note_on_c, 0, 73, 0
1, 34173, Note_on_c, 1, 64, 0
1, 34176, Note_on_c, 0, 75, 78
1, 34176, Note_on_c, 0, 71, 78
1, 34176, Note_on_c, 1, 66, 78
1, 34221, Note_on_c, 0, 75, 0
1, 34221, Note_on_c, 0, 71, 0
1, 34221, Note_on_c, 1, 66, 0
1, 34224, Note_on_c, 0, 73, 76
1, 34224, Note_on_c, 0, 70, 76
1, 34224, Note_on_c, 1, 54, 76
1, 34269, Note_on_c, 0, 73, 0
1, 34269, Note_on_c, 0, 70, 0
1, 34269, Note_on_c, 1, 54, 0
1, 34272, Note_on_c, 0, 73, 74
1, 34272, Note_on_c, 1, 59, 74
1, 34284, Note_on_c, 0, 73, 0
1, 34284, Note_on_c, 0, 71, 74
1, 34296, Note_on_c, 0, 71, 0
1, 34296, Note_on_c, 0, 70, 74
1, 34308, Note_on_c, 0, 70, 0
1, 34308, Note_on_c, 0, 71, 74
1, 34361, Note_on_c, 0, 71, 0
1, 34361, Note_on_c, 1, 59, 0
1, 34368, Note_on_c, 1, 47, 74
1, 34413, Note_on_c, 1, 47, 0
1, 34416, Note_on_c, 0, 83, 74
1, 34416, Note_on_c, 0, 80, 74
1, 34461, Note_on_c, 0, 83, 0
1, 34461, Note_on_c, 0, 80, 0
1, 34464, Note_on_c, 0, 83, 74
1, 34464, Note_on_c, 0, 80, 74
1, 34464, Note_on_c, 1, 64, 74
1, 34509, Note_on_c, 0, 83, 0
1, 34509, Note_on_c, 0, 80, 0
1, 34512, Note_on_c, 0, 81, 74
1, 34512, Note_on_c, 0, 78, 74
1, 34553, Note_on_c, 1, 64, 0
1, 34557, Note_on_c, 0, 81, 0
1, 34557, Note_on_c, 0, 78, 0
1, 34560, Note_on_c, 0, 80, 74
1, 34560, Note_on_c, 0, 76, 74
1, 34605, Note_on_c, 0, 80, 0
1, 34605, Note_on_c, 0, 76, 0
1, 34608, Note_on_c, 0, 80, 74
1, 34608, Note_on_c, 1, 71, 74
1, 34608, Note_on_c, 1, 64, 74
1, 34628, Note_on_c, 0, 80, 0
1, 34653, Note_on_c, 1, 71, 0
1, 34653, Note_on_c, 1, 64, 0
1, 34656, Note_on_c, 0, 80, 74
1, 34656, Note_on_c, 1, 71, 74
1, 34656, Note_on_c, 1, 64, 64
1, 34701, Note_on_c, 0, 80, 0
1, 34701, Note_on_c, 1, 71, 0
1, 34704, Note_on_c, 0, 78, 74
1, 34704, Note_on_c, 1, 69, 74
1, 34745, Note_on_c, 1, 64, 0
1, 34749, Note_on_c, 0, 78, 0
1, 34749, Note_on_c, 1, 69, 0
1, 34752, Note_on_c, 0, 76, 74
1, 34752, Note_on_c, 1, 68, 74
1, 34797, Note_on_c, 0, 76, 0
1, 34797, Note_on_c, 1, 68, 0
1, 34800, Note_on_c, 0, 88, 74
1, 34848, Note_on_c, 1, 64, 74
1, 34848, Note_on_c, 1, 61, 74
1, 34893, Note_on_c, 0, 88, 0
1, 34896, Note_on_c, 0, 85, 76
1, 34937, Note_on_c, 1, 64, 0
1, 34937, Note_on_c, 1, 61, 0
1, 34941, Note_on_c, 0, 85, 0
1, 34944, Note_on_c, 0, 80, 78
1, 34944, Note_on_c, 1, 76, 78
1, 34944, Note_on_c, 1, 73, 78
1, 34989, Note_on_c, 0, 80, 0
1, 34992, Note_on_c, 0, 82, 80
1, 35037, Note_on_c, 0, 82, 0
1, 35040, Note_on_c, 0, 82, 82
1, 35040, Note_on_c, 1, 73, 0
1, 35040, Note_on_c, 1, 71, 82
1, 35129, Note_on_c, 1, 76, 0
1, 35129, Note_on_c, 1, 71, 0
1, 35136, Note_on_c, 0, 82, 0
1, 35136, Note_on_c, 0, 83, 82
1, 35136, Note_on_c, 1, 75, 82
1, 35181, Note_on_c, 0, 83, 0
1, 35181, Note_on_c, 1, 75, 0
1, 35184, Note_on_c, 0, 83, 74
1, 35184, Note_on_c, 0, 80, 74
1, 35229, Note_on_c, 0, 83, 0
1, 35229, Note_on_c, 0, 80, 0
1, 35232, Note_on_c, 0, 83, 74
1, 35232, Note_on_c, 0, 80, 74
1, 35232, Note_on_c, 1, 64, 74
1, 35277, Note_on_c, 0, 83, 0
1, 35277, Note_on_c, 0, 80, 0
1, 35280, Note_on_c, 0, 81, 74
1, 35280, Note_on_c, 0, 78, 74
1, 35321, Note_on_c, 1, 64, 0
1, 35325, Note_on_c, 0, 81, 0
1, 35325, Note_on_c, 0, 78, 0
1, 35328, Note_on_c, 0, 80, 74
1, 35328, Note_on_c, 0, 76, 74
1, 35373, Note_on_c, 0, 80, 0
1, 35373, Note_on_c, 0, 76, 0
1, 35376, Note_on_c, 0, 80, 74
1, 35376, Note_on_c, 1, 71, 74
1, 35376, Note_on_c, 1, 64, 64
1, 35396, Note_on_c, 0, 80, 0
1, 35421, Note_on_c, 1, 71, 0
1, 35421, Note_on_c, 1, 64, 0
1, 35424, Note_on_c, 0, 80, 74
1, 35424, Note_on_c, 1, 71, 74
1, 35424, Note_on_c, 1, 64, 74
1, 35469, Note_on_c, 0, 80, 0
1, 35469, Note_on_c, 1, 71, 0
1, 35472, Note_on_c, 0, 78, 76
1, 35472, Note_on_c, 1, 69, 76
1, 35517, Note_on_c, 0, 78, 0
1, 35517, Note_on_c, 1, 69, 0
1, 35520, Note_on_c, 0, 76, 78
1, 35520, Note_on_c, 1, 68, 78
1, 35557, Note_on_c, 1, 64, 0
1, 35565, Note_on_c, 0, 76, 0
1, 35565, Note_on_c, 1, 68, 0
1, 35568, Note_on_c, 0, 80, 80
1, 35568, Note_on_c, 1, 70, 80
1, 35568, Note_on_c, 1, 64, 80
1, 35588, Note_on_c, 0, 80, 0
1, 35613, Note_on_c, 1, 70, 0
1, 35613, Note_on_c, 1, 64, 0
1, 35616, Note_on_c, 0, 78, 82
1, 35616, Note_on_c, 1, 71, 82
1, 35616, Note_on_c, 1, 63, 82
1, 35661, Note_on_c, 0, 78, 0
1, 35661, Note_on_c, 1, 71, 0
1, 35661, Note_on_c, 1, 63, 0
1, 35664, Note_on_c, 0, 76, 80
1, 35664, Note_on_c, 0, 73, 80
1, 35664, Note_on_c, 1, 64, 80
1, 35709, Note_on_c, 0, 76, 0
1, 35709, Note_on_c, 0, 73, 0
1, 35709, Note_on_c, 1, 64, 0
1, 35712, Note_on_c, 0, 75, 78
1, 35712, Note_on_c, 0, 71, 78
1, 35712, Note_on_c, 1, 66, 78
1, 35757, Note_on_c, 0, 75, 0
1, 35757, Note_on_c, 0, 71, 0
1, 35757, Note_on_c, 1, 66, 0
1, 35760, Note_on_c, 0, 73, 76
1, 35760, Note_on_c, 0, 70, 76
1, 35760, Note_on_c, 1, 54, 76
1, 35805, Note_on_c, 0, 73, 0
1, 35805, Note_on_c, 0, 70, 0
1, 35805, Note_on_c, 1, 54, 0
1, 35808, Note_on_c, 0, 73, 74
1, 35808, Note_on_c, 1, 59, 74
1, 35820, Note_on_c, 0, 73, 0
1, 35820, Note_on_c, 0, 71, 74
1, 35832, Note_on_c, 0, 71, 0
1, 35832, Note_on_c, 0, 70, 74
1, 35844, Note_on_c, 0, 70, 0
1, 35844, Note_on_c, 0, 71, 74
1, 35897, Note_on_c, 0, 71, 0
1, 35897, Note_on_c, 1, 59, 0
1, 35904, Note_on_c, 1, 47, 74
1, 35949, Note_on_c, 1, 47, 0
1, 35952, Note_on_c, 0, 78, 74
1, 35952, Note_on_c, 0, 75, 74
1, 35997, Note_on_c, 0, 78, 0
1, 35997, Note_on_c, 0, 75, 0
1, 36000, Note_on_c, 0, 78, 74
1, 36000, Note_on_c, 0, 75, 74
1, 36000, Note_on_c, 1, 59, 74
1, 36045, Note_on_c, 0, 78, 0
1, 36045, Note_on_c, 0, 75, 0
1, 36048, Note_on_c, 0, 76, 74
1, 36048, Note_on_c, 0, 73, 74
1, 36089, Note_on_c, 1, 59, 0
1, 36093, Note_on_c, 0, 76, 0
1, 36093, Note_on_c, 0, 73, 0
1, 36096, Note_on_c, 0, 75, 74
1, 36096, Note_on_c, 0, 71, 74
1, 36116, Note_on_c, 0, 75, 0
1, 36116, Note_on_c, 0, 71, 0
1, 36144, Note_on_c, 0, 81, 74
1, 36144, Note_on_c, 0, 78, 74
1, 36164, Note_on_c, 0, 81, 0
1, 36164, Note_on_c, 0, 78, 0
1, 36192, Note_on_c, 0, 81, 74
1, 36192, Note_on_c, 0, 78, 74
1, 36192, Note_on_c, 1, 59, 74
1, 36237, Note_on_c, 0, 81, 0
1, 36237, Note_on_c, 0, 78, 0
1, 36240, Note_on_c, 0, 80, 74
1, 36240, Note_on_c, 0, 76, 74
1, 36281, Note_on_c, 1, 59, 0
1, 36285, Note_on_c, 0, 80, 0
1, 36285, Note_on_c, 0, 76, 0
1, 36288, Note_on_c, 0, 78, 74
1, 36288, Note_on_c, 0, 75, 74
1, 36308, Note_on_c, 0, 78, 0
1, 36308, Note_on_c, 0, 75, 0
1, 36336, Note_on_c, 0, 85, 74
1, 36336, Note_on_c, 0, 81, 74
1, 36336, Note_on_c, 1, 63, 74
1, 36336, Note_on_c, 1, 59, 74
1, 36356, Note_on_c, 0, 85, 0
1, 36356, Note_on_c, 0, 81, 0
1, 36381, Note_on_c, 1, 63, 0
1, 36381, Note_on_c, 1, 59, 0
1, 36384, Note_on_c, 0, 85, 75
1, 36384, Note_on_c, 0, 81, 75
1, 36384, Note_on_c, 1, 63, 75
1, 36384, Note_on_c, 1, 59, 75
1, 36429, Note_on_c, 0, 85, 0
1, 36429, Note_on_c, 0, 81, 0
1, 36429, Note_on_c, 1, 63, 0
1, 36432, Note_on_c, 0, 83, 77
1, 36432, Note_on_c, 0, 80, 77
1, 36432, Note_on_c, 1, 64, 77
1, 36477, Note_on_c, 0, 83, 0
1, 36477, Note_on_c, 0, 80, 0
1, 36477, Note_on_c, 1, 64, 0
1, 36480, Note_on_c, 0, 81, 78
1, 36480, Note_on_c, 0, 78, 78
1, 36480, Note_on_c, 1, 66, 78
1, 36525, Note_on_c, 0, 81, 0
1, 36525, Note_on_c, 0, 78, 0
1, 36525, Note_on_c, 1, 66, 0
1, 36528, Note_on_c, 0, 80, 80
1, 36528, Note_on_c, 0, 76, 80
1, 36528, Note_on_c, 1, 68, 80
1, 36561, Note_on_c, 1, 59, 0
1, 36573, Note_on_c, 0, 80, 0
1, 36573, Note_on_c, 0, 76, 0
1, 36573, Note_on_c, 1, 68, 0
1, 36576, Note_on_c, 0, 78, 82
1, 36576, Note_on_c, 0, 75, 82
1, 36576, Note_on_c, 0, 71, 82
1, 36576, Note_on_c, 1, 69, 82
1, 36576, Note_on_c, 1, 59, 82
1, 36665, Note_on_c, 0, 78, 0
1, 36665, Note_on_c, 0, 75, 0
1, 36665, Note_on_c, 0, 71, 0
1, 36665, Note_on_c, 1, 69, 0
1, 36665, Note_on_c, 1, 59, 0
1, 36720, Note_on_c, 0, 76, 74
1, 36720, Note_on_c, 0, 71, 74
1, 36720, Note_on_c, 1, 68, 74
1, 36765, Note_on_c, 0, 76, 0
1, 36765, Note_on_c, 0, 71, 0
1, 36765, Note_on_c, 1, 68, 0
1, 36768, Note_on_c, 0, 76, 74
1, 36768, Note_on_c, 0, 71, 74
1, 36768, Note_on_c, 1, 68, 74
1, 36813, Note_on_c, 0, 76, 0
1, 36813, Note_on_c, 1, 68, 0
1, 36816, Note_on_c, 0, 78, 74
1, 36816, Note_on_c, 1, 66, 74
1, 36861, Note_on_c, 0, 78, 0
1, 36861, Note_on_c, 1, 66, 0
1, 36864, Note_on_c, 0, 80, 74
1, 36864, Note_on_c, 1, 64, 74
1, 36884, Note_on_c, 0, 80, 0
1, 36901, Note_on_c, 0, 71, 0
1, 36909, Note_on_c, 1, 64, 0
1, 36912, Note_on_c, 0, 78, 74
1, 36912, Note_on_c, 0, 71, 74
1, 36912, Note_on_c, 1, 63, 74
1, 36932, Note_on_c, 1, 63, 0
1, 36957, Note_on_c, 0, 78, 0
1, 36957, Note_on_c, 0, 71, 0
1, 36960, Note_on_c, 0, 78, 74
1, 36960, Note_on_c, 0, 71, 74
1, 36960, Note_on_c, 1, 63, 74
1, 37005, Note_on_c, 0, 78, 0
1, 37005, Note_on_c, 1, 63, 0
1, 37008, Note_on_c, 0, 80, 74
1, 37008, Note_on_c, 1, 64, 74
1, 37053, Note_on_c, 0, 80, 0
1, 37053, Note_on_c, 1, 64, 0
1, 37056, Note_on_c, 0, 81, 74
1, 37056, Note_on_c, 1, 66, 74
1, 37076, Note_on_c, 0, 81, 0
1, 37093, Note_on_c, 0, 71, 0
1, 37101, Note_on_c, 1, 66, 0
1, 37104, Note_on_c, 0, 80, 74
1, 37104, Note_on_c, 0, 71, 74
1, 37104, Note_on_c, 1, 64, 74
1, 37124, Note_on_c, 1, 64, 0
1, 37149, Note_on_c, 0, 80, 0
1, 37149, Note_on_c, 0, 71, 0
1, 37152, Note_on_c, 0, 83, 74
1, 37152, Note_on_c, 0, 80, 74
1, 37152, Note_on_c, 1, 59, 74
1, 37197, Note_on_c, 0, 83, 0
1, 37197, Note_on_c, 0, 80, 0
1, 37200, Note_on_c, 0, 81, 74
1, 37200, Note_on_c, 0, 78, 74
1, 37241, Note_on_c, 1, 59, 0
1, 37245, Note_on_c, 0, 81, 0
1, 37245, Note_on_c, 0, 78, 0
1, 37248, Note_on_c, 0, 80, 74
1, 37248, Note_on_c, 0, 76, 74
1, 37293, Note_on_c, 0, 80, 0
1, 37293, Note_on_c, 0, 76, 0
1, 37296, Note_on_c, 0, 78, 74
1, 37296, Note_on_c, 0, 75, 74
1, 37296, Note_on_c, 1, 59, 74
1, 37341, Note_on_c, 0, 78, 0
1, 37341, Note_on_c, 0, 75, 0
1, 37341, Note_on_c, 1, 59, 0
1, 37344, Note_on_c, 0, 76, 74
1, 37344, Note_on_c, 1, 64, 74
1, 37433, Note_on_c, 0, 76, 0
1, 37433, Note_on_c, 1, 64, 0
1, 37440, Note_on_c, 1, 52, 74
1, 37485, Note_on_c, 1, 52, 0
1, 37488, Note_on_c, 0, 78, 74
1, 37488, Note_on_c, 0, 75, 74
1, 37533, Note_on_c, 0, 78, 0
1, 37533, Note_on_c, 0, 75, 0
1, 37536, Note_on_c, 0, 78, 74
1, 37536, Note_on_c, 0, 75, 74
1, 37536, Note_on_c, 1, 59, 74
1, 37581, Note_on_c, 0, 78, 0
1, 37581, Note_on_c, 0, 75, 0
1, 37584, Note_on_c, 0, 76, 74
1, 37584, Note_on_c, 0, 73, 74
1, 37625, Note_on_c, 1, 59, 0
1, 37629, Note_on_c, 0, 76, 0
1, 37629, Note_on_c, 0, 73, 0
1, 37632, Note_on_c, 0, 75, 74
1, 37632, Note_on_c, 0, 71, 74
1, 37652, Note_on_c, 0, 75, 0
1, 37652, Note_on_c, 0, 71, 0
1, 37680, Note_on_c, 0, 81, 74
1, 37680, Note_on_c, 0, 78, 74
1, 37700, Note_on_c, 0, 81, 0
1, 37700, Note_on_c, 0, 78, 0
1, 37728, Note_on_c, 0, 81, 74
1, 37728, Note_on_c, 0, 78, 74
1, 37728, Note_on_c, 1, 59, 74
1, 37773, Note_on_c, 0, 81, 0
1, 37773, Note_on_c, 0, 78, 0
1, 37776, Note_on_c, 0, 80, 74
1, 37776, Note_on_c, 0, 76, 74
1, 37817, Note_on_c, 1, 59, 0
1, 37821, Note_on_c, 0, 80, 0
1, 37821, Note_on_c, 0, 76, 0
1, 37824, Note_on_c, 0, 78, 74
1, 37824, Note_on_c, 0, 75, 74
1, 37844, Note_on_c, 0, 78, 0
1, 37844, Note_on_c, 0, 75, 0
1, 37872, Note_on_c, 0, 85, 74
1, 37872, Note_on_c, 0, 81, 74
1, 37872, Note_on_c, 1, 63, 74
1, 37872, Note_on_c, 1, 59, 74
1, 37892, Note_on_c, 0, 85, 0
1, 37892, Note_on_c, 0, 81, 0
1, 37917, Note_on_c, 1, 63, 0
1, 37917, Note_on_c, 1, 59, 0
1, 37920, Note_on_c, 0, 85, 75
1, 37920, Note_on_c, 0, 81, 75
1, 37920, Note_on_c, 1, 63, 75
1, 37920, Note_on_c, 1, 59, 75
1, 37965, Note_on_c, 0, 85, 0
1, 37965, Note_on_c, 0, 81, 0
1, 37965, Note_on_c, 1, 63, 0
1, 37968, Note_on_c, 0, 83, 77
1, 37968, Note_on_c, 0, 80, 77
1, 37968, Note_on_c, 1, 64, 77
1, 38013, Note_on_c, 0, 83, 0
1, 38013, Note_on_c, 0, 80, 0
1, 38013, Note_on_c, 1, 64, 0
1, 38016, Note_on_c, 0, 81, 78
1, 38016, Note_on_c, 0, 78, 78
1, 38016, Note_on_c, 1, 66, 78
1, 38061, Note_on_c, 0, 81, 0
1, 38061, Note_on_c, 0, 78, 0
1, 38061, Note_on_c, 1, 66, 0
1, 38064, Note_on_c, 0, 80, 80
1, 38064, Note_on_c, 0, 76, 80
1, 38064, Note_on_c, 1, 68, 80
1, 38097, Note_on_c, 1, 59, 0
1, 38109, Note_on_c, 0, 80, 0
1, 38109, Note_on_c, 0, 76, 0
1, 38109, Note_on_c, 1, 68, 0
1, 38112, Note_on_c, 0, 78, 82
1, 38112, Note_on_c, 0, 75, 82
1, 38112, Note_on_c, 0, 71, 82
1, 38112, Note_on_c, 1, 69, 82
1, 38112, Note_on_c, 1, 59, 82
1, 38201, Note_on_c, 0, 78, 0
1, 38201, Note_on_c, 0, 75, 0
1, 38201, Note_on_c, 0, 71, 0
1, 38201, Note_on_c, 1, 69, 0
1, 38201, Note_on_c, 1, 59, 0
1, 38256, Note_on_c, 0, 76, 74
1, 38256, Note_on_c, 0, 71, 74
1, 38256, Note_on_c, 1, 68, 74
1, 38301, Note_on_c, 0, 76, 0
1, 38301, Note_on_c, 0, 71, 0
1, 38301, Note_on_c, 1, 68, 0
1, 38304, Note_on_c, 0, 76, 74
1, 38304, Note_on_c, 0, 71, 74
1, 38304, Note_on_c, 1, 68, 74
1, 38349, Note_on_c, 0, 76, 0
1, 38349, Note_on_c, 1, 68, 0
1, 38352, Note_on_c, 0, 78, 74
1, 38352, Note_on_c, 1, 66, 74
1, 38397, Note_on_c, 0, 78, 0
1, 38397, Note_on_c, 1, 66, 0
1, 38400, Note_on_c, 0, 80, 74
1, 38400, Note_on_c, 1, 64, 74
1, 38420, Note_on_c, 0, 80, 0
1, 38437, Note_on_c, 0, 71, 0
1, 38445, Note_on_c, 1, 64, 0
1, 38448, Note_on_c, 0, 78, 74
1, 38448, Note_on_c, 0, 71, 74
1, 38448, Note_on_c, 1, 63, 74
1, 38468, Note_on_c, 1, 63, 0
1, 38493, Note_on_c, 0, 78, 0
1, 38493, Note_on_c, 0, 71, 0
1, 38496, Note_on_c, 0, 78, 74
1, 38496, Note_on_c, 0, 71, 74
1, 38496, Note_on_c, 1, 63, 74
1, 38541, Note_on_c, 0, 78, 0
1, 38541, Note_on_c, 1, 63, 0
1, 38544, Note_on_c, 0, 80, 74
1, 38544, Note_on_c, 1, 64, 74
1, 38589, Note_on_c, 0, 80, 0
1, 38589, Note_on_c, 1, 64, 0
1, 38592, Note_on_c, 0, 81, 74
1, 38592, Note_on_c, 1, 66, 74
1, 38612, Note_on_c, 0, 81, 0
1, 38629, Note_on_c, 0, 71, 0
1, 38637, Note_on_c, 1, 66, 0
1, 38640, Note_on_c, 0, 80, 74
1, 38640, Note_on_c, 0, 71, 74
1, 38640, Note_on_c, 1, 64, 74
1, 38660, Note_on_c, 1, 64, 0
1, 38685, Note_on_c, 0, 80, 0
1, 38685, Note_on_c, 0, 71, 0
1, 38688, Note_on_c, 0, 83, 74
1, 38688, Note_on_c, 0, 80, 74
1, 38688, Note_on_c, 1, 59, 74
1, 38733, Note_on_c, 0, 83, 0
1, 38733, Note_on_c, 0, 80, 0
1, 38736, Note_on_c, 0, 81, 74
1, 38736, Note_on_c, 0, 78, 74
1, 38777, Note_on_c, 1, 59, 0
1, 38781, Note_on_c, 0, 81, 0
1, 38781, Note_on_c, 0, 78, 0
1, 38784, Note_on_c, 0, 80, 74
1, 38784, Note_on_c, 0, 76, 74
1, 38829, Note_on_c, 0, 80, 0
1, 38829, Note_on_c, 0, 76, 0
1, 38832, Note_on_c, 0, 78, 74
1, 38832, Note_on_c, 0, 75, 74
1, 38832, Note_on_c, 1, 59, 74
1, 38877, Note_on_c, 0, 78, 0
1, 38877, Note_on_c, 0, 75, 0
1, 38877, Note_on_c, 1, 59, 0
1, 38880, Note_on_c, 0, 76, 74
1, 38880, Note_on_c, 1, 64, 74
1, 38969, Note_on_c, 0, 76, 0
1, 38969, Note_on_c, 1, 64, 0
1, 38976, Note_on_c, 1, 52, 74
1, 39021, Note_on_c, 1, 52, 0
1, 39024, Note_on_c, 0, 71, 82
1, 39069, Note_on_c, 0, 71, 0
1, 39072, Note_on_c, 0, 76, 82
1, 39072, Note_on_c, 0, 71, 82
1, 39072, Note_on_c, 0, 67, 82
1, 39072, Note_on_c, 1, 40, 82
1, 39095, Note_on_c, 1, 40, 0
1, 39096, Note_on_c, 1, 52, 82
1, 39119, Note_on_c, 1, 52, 0
1, 39120, Note_on_c, 1, 51, 82
1, 39143, Note_on_c, 1, 51, 0
1, 39144, Note_on_c, 1, 52, 82
1, 39161, Note_on_c, 0, 76, 0
1, 39161, Note_on_c, 0, 71, 0
1, 39161, Note_on_c, 0, 67, 0
1, 39167, Note_on_c, 1, 52, 0
1, 39168, Note_on_c, 1, 40, 82
1, 39191, Note_on_c, 1, 40, 0
1, 39192, Note_on_c, 1, 52, 82
1, 39215, Note_on_c, 1, 52, 0
1, 39216, Note_on_c, 0, 71, 82
1, 39216, Note_on_c, 0, 67, 82
1, 39216, Note_on_c, 1, 40, 82
1, 39239, Note_on_c, 1, 40, 0
1, 39240, Note_on_c, 1, 52, 82
1, 39261, Note_on_c, 0, 71, 0
1, 39261, Note_on_c, 0, 67, 0
1, 39263, Note_on_c, 1, 52, 0
1, 39264, Note_on_c, 0, 72, 82
1, 39264, Note_on_c, 0, 69, 82
1, 39264, Note_on_c, 1, 40, 82
1, 39287, Note_on_c, 1, 40, 0
1, 39288, Note_on_c, 1, 52, 82
1, 39311, Note_on_c, 1, 52, 0
1, 39312, Note_on_c, 1, 51, 82
1, 39335, Note_on_c, 1, 51, 0
1, 39336, Note_on_c, 1, 52, 82
1, 39353, Note_on_c, 0, 72, 0
1, 39353, Note_on_c, 0, 69, 0
1, 39359, Note_on_c, 1, 52, 0
1, 39360, Note_on_c, 1, 40, 82
1, 39383, Note_on_c, 1, 40, 0
1, 39384, Note_on_c, 1, 52, 82
1, 39407, Note_on_c, 1, 52, 0
1, 39408, Note_on_c, 0, 71, 82
1, 39408, Note_on_c, 0, 67, 82
1, 39408, Note_on_c, 1, 40, 82
1, 39431, Note_on_c, 1, 40, 0
1, 39432, Note_on_c, 1, 52, 82
1, 39453, Note_on_c, 0, 71, 0
1, 39453, Note_on_c, 0, 67, 0
1, 39455, Note_on_c, 1, 52, 0
1, 39456, Note_on_c, 0, 69, 82
1, 39456, Note_on_c, 0, 66, 82
1, 39456, Note_on_c, 1, 51, 82
1, 39476, Note_on_c, 0, 69, 0
1, 39476, Note_on_c, 0, 66, 0
1, 39479, Note_on_c, 1, 51, 0
1, 39480, Note_on_c, 1, 59, 82
1, 39503, Note_on_c, 1, 59, 0
1, 39504, Note_on_c, 0, 69, 82
1, 39504, Note_on_c, 0, 66, 82
1, 39504, Note_on_c, 1, 51, 82
1, 39524, Note_on_c, 0, 69, 0
1, 39524, Note_on_c, 0, 66, 0
1, 39527, Note_on_c, 1, 51, 0
1, 39528, Note_on_c, 1, 59, 82
1, 39551, Note_on_c, 1, 59, 0
1, 39552, Note_on_c, 0, 67, 82
1, 39552, Note_on_c, 0, 64, 82
1, 39552, Note_on_c, 1, 52, 82
1, 39572, Note_on_c, 0, 67, 0
1, 39572, Note_on_c, 0, 64, 0
1, 39575, Note_on_c, 1, 52, 0
1, 39576, Note_on_c, 1, 59, 82
1, 39599, Note_on_c, 1, 59, 0
1, 39600, Note_on_c, 0, 67, 82
1, 39600, Note_on_c, 0, 64, 82
1, 39600, Note_on_c, 1, 52, 82
1, 39620, Note_on_c, 0, 67, 0
1, 39620, Note_on_c, 0, 64, 0
1, 39623, Note_on_c, 1, 52, 0
1, 39624, Note_on_c, 1, 59, 82
1, 39647, Note_on_c, 1, 59, 0
1, 39648, Note_on_c, 0, 66, 82
1, 39648, Note_on_c, 0, 63, 82
1, 39648, Note_on_c, 1, 47, 82
1, 39671, Note_on_c, 1, 47, 0
1, 39672, Note_on_c, 1, 59, 82
1, 39695, Note_on_c, 1, 59, 0
1, 39696, Note_on_c, 1, 58, 82
1, 39719, Note_on_c, 1, 58, 0
1, 39720, Note_on_c, 1, 59, 82
1, 39737, Note_on_c, 0, 66, 0
1, 39737, Note_on_c, 0, 63, 0
1, 39743, Note_on_c, 1, 59, 0
1, 39744, Note_on_c, 1, 47, 82
1, 39789, Note_on_c, 1, 47, 0
1, 39792, Note_on_c, 0, 74, 82
1, 39837, Note_on_c, 0, 74, 0
1, 39840, Note_on_c, 0, 79, 82
1, 39840, Note_on_c, 0, 74, 82
1, 39840, Note_on_c, 0, 71, 82
1, 39840, Note_on_c, 1, 31, 82
1, 39863, Note_on_c, 1, 31, 0
1, 39864, Note_on_c, 1, 43, 82
1, 39887, Note_on_c, 1, 43, 0
1, 39888, Note_on_c, 1, 42, 82
1, 39911, Note_on_c, 1, 42, 0
1, 39912, Note_on_c, 1, 43, 82
1, 39929, Note_on_c, 0, 79, 0
1, 39929, Note_on_c, 0, 74, 0
1, 39929, Note_on_c, 0, 71, 0
1, 39935, Note_on_c, 1, 43, 0
1, 39936, Note_on_c, 1, 31, 82
1, 39959, Note_on_c, 1, 31, 0
1, 39960, Note_on_c, 1, 43, 82
1, 39983, Note_on_c, 1, 43, 0
1, 39984, Note_on_c, 0, 74, 82
1, 39984, Note_on_c, 0, 71, 82
1, 39984, Note_on_c, 1, 31, 82
1, 40007, Note_on_c, 1, 31, 0
1, 40008, Note_on_c, 1, 43, 82
1, 40029, Note_on_c, 0, 74, 0
1, 40029, Note_on_c, 0, 71, 0
1, 40031, Note_on_c, 1, 43, 0
1, 40032, Note_on_c, 0, 76, 82
1, 40032, Note_on_c, 0, 72, 82
1, 40032, Note_on_c, 1, 36, 82
1, 40055, Note_on_c, 1, 36, 0
1, 40056, Note_on_c, 1, 48, 82
1, 40079, Note_on_c, 1, 48, 0
1, 40080, Note_on_c, 1, 47, 82
1, 40103, Note_on_c, 1, 47, 0
1, 40104, Note_on_c, 1, 48, 82
1, 40121, Note_on_c, 0, 76, 0
1, 40121, Note_on_c, 0, 72, 0
1, 40127, Note_on_c, 1, 48, 0
1, 40128, Note_on_c, 1, 36, 82
1, 40151, Note_on_c, 1, 36, 0
1, 40152, Note_on_c, 1, 48, 82
1, 40175, Note_on_c, 1, 48, 0
1, 40176, Note_on_c, 0, 76, 82
1, 40176, Note_on_c, 0, 72, 82
1, 40176, Note_on_c, 1, 36, 82
1, 40199, Note_on_c, 1, 36, 0
1, 40200, Note_on_c, 1, 48, 82
1, 40221, Note_on_c, 0, 76, 0
1, 40221, Note_on_c, 0, 72, 0
1, 40223, Note_on_c, 1, 48, 0
1, 40224, Note_on_c, 0, 74, 82
1, 40224, Note_on_c, 0, 71, 82
1, 40224, Note_on_c, 1, 38, 82
1, 40244, Note_on_c, 0, 74, 0
1, 40244, Note_on_c, 0, 71, 0
1, 40247, Note_on_c, 1, 38, 0
1, 40248, Note_on_c, 1, 50, 82
1, 40271, Note_on_c, 1, 50, 0
1, 40272, Note_on_c, 0, 72, 82
1, 40272, Note_on_c, 0, 69, 82
1, 40272, Note_on_c, 1, 38, 82
1, 40292, Note_on_c, 0, 72, 0
1, 40292, Note_on_c, 0, 69, 0
1, 40295, Note_on_c, 1, 38, 0
1, 40296, Note_on_c, 1, 50, 82
1, 40319, Note_on_c, 1, 50, 0
1, 40320, Note_on_c, 0, 71, 82
1, 40320, Note_on_c, 0, 67, 82
1, 40320, Note_on_c, 1, 38, 82
1, 40340, Note_on_c, 0, 71, 0
1, 40340, Note_on_c, 0, 67, 0
1, 40343, Note_on_c, 1, 38, 0
1, 40344, Note_on_c, 1, 50, 82
1, 40367, Note_on_c, 1, 50, 0
1, 40368, Note_on_c, 0, 69, 82
1, 40368, Note_on_c, 0, 66, 82
1, 40368, Note_on_c, 1, 38, 82
1, 40388, Note_on_c, 0, 69, 0
1, 40388, Note_on_c, 0, 66, 0
1, 40391, Note_on_c, 1, 38, 0
1, 40392, Note_on_c, 1, 50, 82
1, 40415, Note_on_c, 1, 50, 0
1, 40416, Note_on_c, 0, 67, 82
1, 40416, Note_on_c, 1, 31, 82
1, 40439, Note_on_c, 1, 31, 0
1, 40440, Note_on_c, 1, 43, 82
1, 40463, Note_on_c, 1, 43, 0
1, 40464, Note_on_c, 1, 42, 82
1, 40487, Note_on_c, 1, 42, 0
1, 40488, Note_on_c, 1, 43, 82
1, 40505, Note_on_c, 0, 67, 0
1, 40511, Note_on_c, 1, 43, 0
1, 40512, Note_on_c, 1, 31, 82
1, 40557, Note_on_c, 1, 31, 0
1, 40560, Note_on_c, 0, 71, 82
1, 40605, Note_on_c, 0, 71, 0
1, 40608, Note_on_c, 0, 76, 82
1, 40608, Note_on_c, 0, 71, 82
1, 40608, Note_on_c, 0, 67, 82
1, 40608, Note_on_c, 1, 40, 82
1, 40631, Note_on_c, 1, 40, 0
1, 40632, Note_on_c, 1, 52, 82
1, 40655, Note_on_c, 1, 52, 0
1, 40656, Note_on_c, 1, 51, 82
1, 40679, Note_on_c, 1, 51, 0
1, 40680, Note_on_c, 1, 52, 82
1, 40697, Note_on_c, 0, 76, 0
1, 40697, Note_on_c, 0, 71, 0
1, 40697, Note_on_c, 0, 67, 0
1, 40703, Note_on_c, 1, 52, 0
1, 40704, Note_on_c, 1, 40, 82
1, 40727, Note_on_c, 1, 40, 0
1, 40728, Note_on_c, 1, 52, 82
1, 40751, Note_on_c, 1, 52, 0
1, 40752, Note_on_c, 0, 71, 82
1, 40752, Note_on_c, 0, 67, 82
1, 40752, Note_on_c, 1, 40, 82
1, 40775, Note_on_c, 1, 40, 0
1, 40776, Note_on_c, 1, 52, 82
1, 40797, Note_on_c, 0, 71, 0
1, 40797, Note_on_c, 0, 67, 0
1, 40799, Note_on_c, 1, 52, 0
1, 40800, Note_on_c, 0, 72, 82
1, 40800, Note_on_c, 0, 69, 82
1, 40800, Note_on_c, 1, 40, 82
1, 40823, Note_on_c, 1, 40, 0
1, 40824, Note_on_c, 1, 52, 82
1, 40847, Note_on_c, 1, 52, 0
1, 40848, Note_on_c, 1, 51, 82
1, 40871, Note_on_c, 1, 51, 0
1, 40872, Note_on_c, 1, 52, 82
1, 40889, Note_on_c, 0, 72, 0
1, 40889, Note_on_c, 0, 69, 0
1, 40895, Note_on_c, 1, 52, 0
1, 40896, Note_on_c, 1, 40, 82
1, 40919, Note_on_c, 1, 40, 0
1, 40920, Note_on_c, 1, 52, 82
1, 40943, Note_on_c, 1, 52, 0
1, 40944, Note_on_c, 0, 71, 82
1, 40944, Note_on_c, 0, 67, 82
1, 40944, Note_on_c, 1, 40, 82
1, 40967, Note_on_c, 1, 40, 0
1, 40968, Note_on_c, 1, 52, 82
1, 40989, Note_on_c, 0, 71, 0
1, 40989, Note_on_c, 0, 67, 0
1, 40991, Note_on_c, 1, 52, 0
1, 40992, Note_on_c, 0, 69, 82
1, 40992, Note_on_c, 0, 66, 82
1, 40992, Note_on_c, 1, 51, 82
1, 41012, Note_on_c, 0, 69, 0
1, 41012, Note_on_c, 0, 66, 0
1, 41015, Note_on_c, 1, 51, 0
1, 41016, Note_on_c, 1, 59, 82
1, 41039, Note_on_c, 1, 59, 0
1, 41040, Note_on_c, 0, 69, 82
1, 41040, Note_on_c, 0, 66, 82
1, 41040, Note_on_c, 1, 51, 82
1, 41060, Note_on_c, 0, 69, 0
1, 41060, Note_on_c, 0, 66, 0
1, 41063, Note_on_c, 1, 51, 0
1, 41064, Note_on_c, 1, 59, 82
1, 41087, Note_on_c, 1, 59, 0
1, 41088, Note_on_c, 0, 67, 82
1, 41088, Note_on_c, 0, 64, 82
1, 41088, Note_on_c, 1, 52, 82
1, 41108, Note_on_c, 0, 67, 0
1, 41108, Note_on_c, 0, 64, 0
1, 41111, Note_on_c, 1, 52, 0
1, 41112, Note_on_c, 1, 59, 82
1, 41135, Note_on_c, 1, 59, 0
1, 41136, Note_on_c, 0, 67, 82
1, 41136, Note_on_c, 0, 64, 82
1, 41136, Note_on_c, 1, 52, 82
1, 41156, Note_on_c, 0, 67, 0
1, 41156, Note_on_c, 0, 64, 0
1, 41159, Note_on_c, 1, 52, 0
1, 41160, Note_on_c, 1, 59, 82
1, 41183, Note_on_c, 1, 59, 0
1, 41184, Note_on_c, 0, 66, 82
1, 41184, Note_on_c, 0, 63, 82
1, 41184, Note_on_c, 1, 47, 82
1, 41207, Note_on_c, 1, 47, 0
1, 41208, Note_on_c, 1, 59, 82
1, 41231, Note_on_c, 1, 59, 0
1, 41232, Note_on_c, 1, 58, 82
1, 41255, Note_on_c, 1, 58, 0
1, 41256, Note_on_c, 1, 59, 82
1, 41273, Note_on_c, 0, 66, 0
1, 41273, Note_on_c, 0, 63, 0
1, 41279, Note_on_c, 1, 59, 0
1, 41280, Note_on_c, 1, 47, 82
1, 41325, Note_on_c, 1, 47, 0
1, 41328, Note_on_c, 0, 74, 82
1, 41373, Note_on_c, 0, 74, 0
1, 41376, Note_on_c, 0, 79, 82
1, 41376, Note_on_c, 0, 74, 82
1, 41376, Note_on_c, 0, 71, 82
1, 41376, Note_on_c, 1, 31, 82
1, 41399, Note_on_c, 1, 31, 0
1, 41400, Note_on_c, 1, 43, 82
1, 41423, Note_on_c, 1, 43, 0
1, 41424, Note_on_c, 1, 42, 82
1, 41447, Note_on_c, 1, 42, 0
1, 41448, Note_on_c, 1, 43, 82
1, 41465, Note_on_c, 0, 79, 0
1, 41465, Note_on_c, 0, 74, 0
1, 41465, Note_on_c, 0, 71, 0
1, 41471, Note_on_c, 1, 43, 0
1, 41472, Note_on_c, 1, 31, 82
1, 41495, Note_on_c, 1, 31, 0
1, 41496, Note_on_c, 1, 43, 82
1, 41519, Note_on_c, 1, 43, 0
1, 41520, Note_on_c, 0, 74, 82
1, 41520, Note_on_c, 0, 71, 82
1, 41520, Note_on_c, 1, 31, 82
1, 41543, Note_on_c, 1, 31, 0
1, 41544, Note_on_c, 1, 43, 82
1, 41565, Note_on_c, 0, 74, 0
1, 41565, Note_on_c, 0, 71, 0
1, 41567, Note_on_c, 1, 43, 0
1, 41568, Note_on_c, 0, 76, 82
1, 41568, Note_on_c, 0, 72, 82
1, 41568, Note_on_c, 1, 36, 82
1, 41591, Note_on_c, 1, 36, 0
1, 41592, Note_on_c, 1, 48, 82
1, 41615, Note_on_c, 1, 48, 0
1, 41616, Note_on_c, 1, 47, 82
1, 41639, Note_on_c, 1, 47, 0
1, 41640, Note_on_c, 1, 48, 82
1, 41657, Note_on_c, 0, 76, 0
1, 41657, Note_on_c, 0, 72, 0
1, 41663, Note_on_c, 1, 48, 0
1, 41664, Note_on_c, 1, 36, 82
1, 41687, Note_on_c, 1, 36, 0
1, 41688, Note_on_c, 1, 48, 82
1, 41711, Note_on_c, 1, 48, 0
1, 41712, Note_on_c, 0, 76, 82
1, 41712, Note_on_c, 0, 72, 82
1, 41712, Note_on_c, 1, 36, 82
1, 41735, Note_on_c, 1, 36, 0
1, 41736, Note_on_c, 1, 48, 82
1, 41757, Note_on_c, 0, 76, 0
1, 41757, Note_on_c, 0, 72, 0
1, 41759, Note_on_c, 1, 48, 0
1, 41760, Note_on_c, 0, 74, 82
1, 41760, Note_on_c, 0, 71, 82
1, 41760, Note_on_c, 1, 38, 82
1, 41780, Note_on_c, 0, 74, 0
1, 41780, Note_on_c, 0, 71, 0
1, 41783, Note_on_c, 1, 38, 0
1, 41784, Note_on_c, 1, 50, 82
1, 41807, Note_on_c, 1, 50, 0
1, 41808, Note_on_c, 0, 72, 82
1, 41808, Note_on_c, 0, 69, 82
1, 41808, Note_on_c, 1, 38, 82
1, 41828, Note_on_c, 0, 72, 0
1, 41828, Note_on_c, 0, 69, 0
1, 41831, Note_on_c, 1, 38, 0
1, 41832, Note_on_c, 1, 50, 82
1, 41855, Note_on_c, 1, 50, 0
1, 41856, Note_on_c, 0, 71, 82
1, 41856, Note_on_c, 0, 67, 82
1, 41856, Note_on_c, 1, 38, 82
1, 41876, Note_on_c, 0, 71, 0
1, 41876, Note_on_c, 0, 67, 0
1, 41879, Note_on_c, 1, 38, 0
1, 41880, Note_on_c, 1, 50, 82
1, 41903, Note_on_c, 1, 50, 0
1, 41904, Note_on_c, 0, 69, 82
1, 41904, Note_on_c, 0, 66, 82
1, 41904, Note_on_c, 1, 38, 82
1, 41924, Note_on_c, 0, 69, 0
1, 41924, Note_on_c, 0, 66, 0
1, 41927, Note_on_c, 1, 38, 0
1, 41928, Note_on_c, 1, 50, 82
1, 41951, Note_on_c, 1, 50, 0
1, 41952, Note_on_c, 0, 67, 82
1, 41952, Note_on_c, 1, 31, 82
1, 41975, Note_on_c, 1, 31, 0
1, 41976, Note_on_c, 1, 43, 82
1, 41999, Note_on_c, 1, 43, 0
1, 42000, Note_on_c, 1, 42, 82
1, 42023, Note_on_c, 1, 42, 0
1, 42024, Note_on_c, 1, 43, 82
1, 42041, Note_on_c, 0, 67, 0
1, 42047, Note_on_c, 1, 43, 0
1, 42048, Note_on_c, 1, 31, 82
1, 42093, Note_on_c, 1, 31, 0
1, 42096, Note_on_c, 0, 71, 82
1, 42141, Note_on_c, 0, 71, 0
1, 42144, Note_on_c, 0, 83, 82
1, 42144, Note_on_c, 1, 69, 82
1, 42144, Note_on_c, 1, 66, 82
1, 42144, Note_on_c, 1, 63, 82
1, 42167, Note_on_c, 0, 83, 0
1, 42168, Note_on_c, 0, 71, 82
1, 42191, Note_on_c, 0, 71, 0
1, 42192, Note_on_c, 0, 70, 82
1, 42215, Note_on_c, 0, 70, 0
1, 42216, Note_on_c, 0, 71, 82
1, 42233, Note_on_c, 1, 69, 0
1, 42233, Note_on_c, 1, 66, 0
1, 42233, Note_on_c, 1, 63, 0
1, 42239, Note_on_c, 0, 71, 0
1, 42240, Note_on_c, 0, 83, 82
1, 42263, Note_on_c, 0, 83, 0
1, 42264, Note_on_c, 0, 71, 82
1, 42287, Note_on_c, 0, 71, 0
1, 42288, Note_on_c, 0, 83, 82
1, 42288, Note_on_c, 1, 69, 82
1, 42288, Note_on_c, 1, 66, 82
1, 42288, Note_on_c, 1, 63, 82
1, 42311, Note_on_c, 0, 83, 0
1, 42312, Note_on_c, 0, 71, 82
1, 42333, Note_on_c, 1, 69, 0
1, 42333, Note_on_c, 1, 66, 0
1, 42333, Note_on_c, 1, 63, 0
1, 42335, Note_on_c, 0, 71, 0
1, 42336, Note_on_c, 0, 83, 82
1, 42336, Note_on_c, 1, 67, 82
1, 42336, Note_on_c, 1, 64, 82
1, 42359, Note_on_c, 0, 83, 0
1, 42360, Note_on_c, 0, 71, 82
1, 42383, Note_on_c, 0, 71, 0
1, 42384, Note_on_c, 0, 70, 82
1, 42407, Note_on_c, 0, 70, 0
1, 42408, Note_on_c, 0, 71, 82
1, 42425, Note_on_c, 1, 67, 0
1, 42425, Note_on_c, 1, 64, 0
1, 42431, Note_on_c, 0, 71, 0
1, 42432, Note_on_c, 0, 83, 82
1, 42455, Note_on_c, 0, 83, 0
1, 42456, Note_on_c, 0, 71, 82
1, 42479, Note_on_c, 0, 71, 0
1, 42480, Note_on_c, 0, 83, 82
1, 42480, Note_on_c, 1, 67, 82
1, 42480, Note_on_c, 1, 64, 82
1, 42503, Note_on_c, 0, 83, 0
1, 42504, Note_on_c, 0, 71, 82
1, 42525, Note_on_c, 1, 67, 0
1, 42525, Note_on_c, 1, 64, 0
1, 42527, Note_on_c, 0, 71, 0
1, 42528, Note_on_c, 0, 83, 82
1, 42528, Note_on_c, 1, 66, 82
1, 42528, Note_on_c, 1, 63, 82
1, 42528, Note_on_c, 1, 57, 82
1, 42551, Note_on_c, 0, 83, 0
1, 42552, Note_on_c, 0, 71, 82
1, 42575, Note_on_c, 0, 71, 0
1, 42576, Note_on_c, 0, 70, 82
1, 42599, Note_on_c, 0, 70, 0
1, 42600, Note_on_c, 0, 71, 82
1, 42617, Note_on_c, 1, 66, 0
1, 42617, Note_on_c, 1, 63, 0
1, 42617, Note_on_c, 1, 57, 0
1, 42623, Note_on_c, 0, 71, 0
1, 42624, Note_on_c, 0, 83, 82
1, 42647, Note_on_c, 0, 83, 0
1, 42648, Note_on_c, 0, 71, 82
1, 42671, Note_on_c, 0, 71, 0
1, 42672, Note_on_c, 0, 83, 82
1, 42672, Note_on_c, 1, 66, 82
1, 42672, Note_on_c, 1, 63, 82
1, 42672, Note_on_c, 1, 57, 82
1, 42695, Note_on_c, 0, 83, 0
1, 42696, Note_on_c, 0, 71, 82
1, 42717, Note_on_c, 1, 66, 0
1, 42717, Note_on_c, 1, 63, 0
1, 42717, Note_on_c, 1, 57, 0
1, 42719, Note_on_c, 0, 71, 0
1, 42720, Note_on_c, 0, 83, 82
1, 42720, Note_on_c, 1, 64, 82
1, 42720, Note_on_c, 1, 59, 82
1, 42720, Note_on_c, 1, 55, 82
1, 42743, Note_on_c, 0, 83, 0
1, 42744, Note_on_c, 0, 71, 82
1, 42767, Note_on_c, 0, 71, 0
1, 42768, Note_on_c, 0, 70, 82
1, 42791, Note_on_c, 0, 70, 0
1, 42792, Note_on_c, 0, 71, 82
1, 42809, Note_on_c, 1, 64, 0
1, 42809, Note_on_c, 1, 59, 0
1, 42809, Note_on_c, 1, 55, 0
1, 42815, Note_on_c, 0, 71, 0
1, 42816, Note_on_c, 0, 83, 82
1, 42839, Note_on_c, 0, 83, 0
1, 42840, Note_on_c, 0, 71, 82
1, 42863, Note_on_c, 0, 71, 0
1, 42864, Note_on_c, 0, 83, 82
1, 42864, Note_on_c, 1, 64, 82
1, 42864, Note_on_c, 1, 59, 82
1, 42864, Note_on_c, 1, 55, 82
1, 42887, Note_on_c, 0, 83, 0
1, 42888, Note_on_c, 0, 71, 82
1, 42909, Note_on_c, 1, 64, 0
1, 42909, Note_on_c, 1, 59, 0
1, 42909, Note_on_c, 1, 55, 0
1, 42911, Note_on_c, 0, 71, 0
1, 42912, Note_on_c, 0, 84, 82
1, 42912, Note_on_c, 1, 66, 82
1, 42912, Note_on_c, 1, 63, 82
1, 42912, Note_on_c, 1, 60, 82
1, 42912, Note_on_c, 1, 57, 82
1, 42935, Note_on_c, 0, 84, 0
1, 42936, Note_on_c, 0, 72, 82
1, 42959, Note_on_c, 0, 72, 0
1, 42960, Note_on_c, 0, 84, 82
1, 42983, Note_on_c, 0, 84, 0
1, 42984, Note_on_c, 0, 72, 82
1, 43007, Note_on_c, 0, 72, 0
1, 43008, Note_on_c, 0, 87, 82
1, 43031, Note_on_c, 0, 87, 0
1, 43032, Note_on_c, 0, 75, 82
1, 43055, Note_on_c, 0, 75, 0
1, 43056, Note_on_c, 0, 87, 82
1, 43079, Note_on_c, 0, 87, 0
1, 43080, Note_on_c, 0, 75, 82
1, 43089, Note_on_c, 1, 66, 0
1, 43089, Note_on_c, 1, 63, 0
1, 43089, Note_on_c, 1, 60, 0
1, 43089, Note_on_c, 1, 57, 0
1, 43103, Note_on_c, 0, 75, 0
1, 43104, Note_on_c, 0, 88, 82
1, 43104, Note_on_c, 1, 64, 82
1, 43104, Note_on_c, 1, 59, 82
1, 43104, Note_on_c, 1, 55, 82
1, 43127, Note_on_c, 0, 88, 0
1, 43128, Note_on_c, 0, 76, 82
1, 43151, Note_on_c, 0, 76, 0
1, 43152, Note_on_c, 0, 75, 82
1, 43175, Note_on_c, 0, 75, 0
1, 43176, Note_on_c, 0, 76, 82
1, 43193, Note_on_c, 1, 64, 0
1, 43193, Note_on_c, 1, 59, 0
1, 43193, Note_on_c, 1, 55, 0
1, 43199, Note_on_c, 0, 76, 0
1, 43200, Note_on_c, 0, 88, 82
1, 43223, Note_on_c, 0, 88, 0
1, 43224, Note_on_c, 0, 76, 82
1, 43247, Note_on_c, 0, 76, 0
1, 43248, Note_on_c, 0, 88, 82
1, 43248, Note_on_c, 1, 64, 82
1, 43248, Note_on_c, 1, 59, 82
1, 43248, Note_on_c, 1, 55, 82
1, 43271, Note_on_c, 0, 88, 0
1, 43272, Note_on_c, 0, 76, 82
1, 43293, Note_on_c, 1, 64, 0
1, 43293, Note_on_c, 1, 59, 0
1, 43293, Note_on_c, 1, 55, 0
1, 43295, Note_on_c, 0, 76, 0
1, 43296, Note_on_c, 0, 84, 82
1, 43296, Note_on_c, 1, 64, 82
1, 43296, Note_on_c, 1, 60, 82
1, 43296, Note_on_c, 1, 57, 82
1, 43319, Note_on_c, 0, 84, 0
1, 43320, Note_on_c, 0, 72, 82
1, 43343, Note_on_c, 0, 72, 0
1, 43344, Note_on_c, 0, 84, 82
1, 43367, Note_on_c, 0, 84, 0
1, 43368, Note_on_c, 0, 72, 82
1, 43385, Note_on_c, 1, 64, 0
1, 43385, Note_on_c, 1, 60, 0
1, 43385, Note_on_c, 1, 57, 0
1, 43391, Note_on_c, 0, 72, 0
1, 43392, Note_on_c, 0, 75, 82
1, 43392, Note_on_c, 1, 69, 82
1, 43392, Note_on_c, 1, 66, 82
1, 43392, Note_on_c, 1, 59, 82
1, 43415, Note_on_c, 0, 75, 0
1, 43416, Note_on_c, 0, 71, 82
1, 43439, Note_on_c, 0, 71, 0
1, 43440, Note_on_c, 0, 75, 82
1, 43463, Note_on_c, 0, 75, 0
1, 43464, Note_on_c, 0, 71, 82
1, 43481, Note_on_c, 1, 69, 0
1, 43481, Note_on_c, 1, 66, 0
1, 43481, Note_on_c, 1, 59, 0
1, 43487, Note_on_c, 0, 71, 0
1, 43488, Note_on_c, 0, 76, 82
1, 43488, Note_on_c, 1, 67, 82
1, 43488, Note_on_c, 1, 64, 82
1, 43577, Note_on_c, 0, 76, 0
1, 43577, Note_on_c, 1, 67, 0
1, 43577, Note_on_c, 1, 64, 0
1, 43584, Note_on_c, 1, 52, 82
1, 43629, Note_on_c, 1, 52, 0
1, 43632, Note_on_c, 0, 71, 74
1, 43677, Note_on_c, 0, 71, 0
1, 43680, Note_on_c, 0, 83, 82
1, 43680, Note_on_c, 1, 69, 82
1, 43680, Note_on_c, 1, 66, 82
1, 43680, Note_on_c, 1, 63, 82
1, 43703, Note_on_c, 0, 83, 0
1, 43704, Note_on_c, 0, 71, 82
1, 43727, Note_on_c, 0, 71, 0
1, 43728, Note_on_c, 0, 70, 82
1, 43751, Note_on_c, 0, 70, 0
1, 43752, Note_on_c, 0, 71, 82
1, 43769, Note_on_c, 1, 69, 0
1, 43769, Note_on_c, 1, 66, 0
1, 43769, Note_on_c, 1, 63, 0
1, 43775, Note_on_c, 0, 71, 0
1, 43776, Note_on_c, 0, 83, 82
1, 43799, Note_on_c, 0, 83, 0
1, 43800, Note_on_c, 0, 71, 82
1, 43823, Note_on_c, 0, 71, 0
1, 43824, Note_on_c, 0, 83, 82
1, 43824, Note_on_c, 1, 69, 82
1, 43824, Note_on_c, 1, 66, 82
1, 43824, Note_on_c, 1, 63, 82
1, 43847, Note_on_c, 0, 83, 0
1, 43848, Note_on_c, 0, 71, 82
1, 43869, Note_on_c, 1, 69, 0
1, 43869, Note_on_c, 1, 66, 0
1, 43869, Note_on_c, 1, 63, 0
1, 43871, Note_on_c, 0, 71, 0
1, 43872, Note_on_c, 0, 83, 82
1, 43872, Note_on_c, 1, 67, 82
1, 43872, Note_on_c, 1, 64, 82
1, 43895, Note_on_c, 0, 83, 0
1, 43896, Note_on_c, 0, 71, 82
1, 43919, Note_on_c, 0, 71, 0
1, 43920, Note_on_c, 0, 70, 82
1, 43943, Note_on_c, 0, 70, 0
1, 43944, Note_on_c, 0, 71, 82
1, 43961, Note_on_c, 1, 67, 0
1, 43961, Note_on_c, 1, 64, 0
1, 43967, Note_on_c, 0, 71, 0
1, 43968, Note_on_c, 0, 83, 82
1, 43991, Note_on_c, 0, 83, 0
1, 43992, Note_on_c, 0, 71, 82
1, 44015, Note_on_c, 0, 71, 0
1, 44016, Note_on_c, 0, 83, 82
1, 44016, Note_on_c, 1, 67, 82
1, 44016, Note_on_c, 1, 64, 82
1, 44039, Note_on_c, 0, 83, 0
1, 44040, Note_on_c, 0, 71, 82
1, 44061, Note_on_c, 1, 67, 0
1, 44061, Note_on_c, 1, 64, 0
1, 44063, Note_on_c, 0, 71, 0
1, 44064, Note_on_c, 0, 83, 82
1, 44064, Note_on_c, 1, 66, 82
1, 44064, Note_on_c, 1, 63, 82
1, 44064, Note_on_c, 1, 57, 82
1, 44087, Note_on_c, 0, 83, 0
1, 44088, Note_on_c, 0, 71, 82
1, 44111, Note_on_c, 0, 71, 0
1, 44112, Note_on_c, 0, 70, 82
1, 44135, Note_on_c, 0, 70, 0
1, 44136, Note_on_c, 0, 71, 82
1, 44153, Note_on_c, 1, 66, 0
1, 44153, Note_on_c, 1, 63, 0
1, 44153, Note_on_c, 1, 57, 0
1, 44159, Note_on_c, 0, 71, 0
1, 44160, Note_on_c, 0, 83, 82
1, 44183, Note_on_c, 0, 83, 0
1, 44184, Note_on_c, 0, 71, 82
1, 44207, Note_on_c, 0, 71, 0
1, 44208, Note_on_c, 0, 83, 82
1, 44208, Note_on_c, 1, 66, 82
1, 44208, Note_on_c, 1, 63, 82
1, 44208, Note_on_c, 1, 57, 82
1, 44231, Note_on_c, 0, 83, 0
1, 44232, Note_on_c, 0, 71, 82
1, 44253, Note_on_c, 1, 66, 0
1, 44253, Note_on_c, 1, 63, 0
1, 44253, Note_on_c, 1, 57, 0
1, 44255, Note_on_c, 0, 71, 0
1, 44256, Note_on_c, 0, 83, 82
1, 44256, Note_on_c, 1, 64, 82
1, 44256, Note_on_c, 1, 59, 82
1, 44256, Note_on_c, 1, 55, 82
1, 44279, Note_on_c, 0, 83, 0
1, 44280, Note_on_c, 0, 71, 82
1, 44303, Note_on_c, 0, 71, 0
1, 44304, Note_on_c, 0, 70, 82
1, 44327, Note_on_c, 0, 70, 0
1, 44328, Note_on_c, 0, 71, 82
1, 44345, Note_on_c, 1, 64, 0
1, 44345, Note_on_c, 1, 59, 0
1, 44345, Note_on_c, 1, 55, 0
1, 44351, Note_on_c, 0, 71, 0
1, 44352, Note_on_c, 0, 83, 82
1, 44375, Note_on_c, 0, 83, 0
1, 44376, Note_on_c, 0, 71, 82
1, 44399, Note_on_c, 0, 71, 0
1, 44400, Note_on_c, 0, 83, 82
1, 44400, Note_on_c, 1, 64, 82
1, 44400, Note_on_c, 1, 59, 82
1, 44400, Note_on_c, 1, 55, 82
1, 44423, Note_on_c, 0, 83, 0
1, 44424, Note_on_c, 0, 71, 82
1, 44445, Note_on_c, 1, 64, 0
1, 44445, Note_on_c, 1, 59, 0
1, 44445, Note_on_c, 1, 55, 0
1, 44447, Note_on_c, 0, 71, 0
1, 44448, Note_on_c, 0, 84, 82
1, 44448, Note_on_c, 1, 66, 82
1, 44448, Note_on_c, 1, 63, 82
1, 44448, Note_on_c, 1, 60, 82
1, 44448, Note_on_c, 1, 57, 82
1, 44471, Note_on_c, 0, 84, 0
1, 44472, Note_on_c, 0, 72, 82
1, 44495, Note_on_c, 0, 72, 0
1, 44496, Note_on_c, 0, 84, 82
1, 44519, Note_on_c, 0, 84, 0
1, 44520, Note_on_c, 0, 72, 82
1, 44543, Note_on_c, 0, 72, 0
1, 44544, Note_on_c, 0, 87, 82
1, 44567, Note_on_c, 0, 87, 0
1, 44568, Note_on_c, 0, 75, 82
1, 44591, Note_on_c, 0, 75, 0
1, 44592, Note_on_c, 0, 87, 82
1, 44615, Note_on_c, 0, 87, 0
1, 44616, Note_on_c, 0, 75, 82
1, 44625, Note_on_c, 1, 66, 0
1, 44625, Note_on_c, 1, 63, 0
1, 44625, Note_on_c, 1, 60, 0
1, 44625, Note_on_c, 1, 57, 0
1, 44639, Note_on_c, 0, 75, 0
1, 44640, Note_on_c, 0, 88, 82
1, 44640, Note_on_c, 1, 64, 82
1, 44640, Note_on_c, 1, 59, 82
1, 44640, Note_on_c, 1, 55, 82
1, 44663, Note_on_c, 0, 88, 0
1, 44664, Note_on_c, 0, 76, 82
1, 44687, Note_on_c, 0, 76, 0
1, 44688, Note_on_c, 0, 75, 82
1, 44711, Note_on_c, 0, 75, 0
1, 44712, Note_on_c, 0, 76, 82
1, 44729, Note_on_c, 1, 64, 0
1, 44729, Note_on_c, 1, 59, 0
1, 44729, Note_on_c, 1, 55, 0
1, 44735, Note_on_c, 0, 76, 0
1, 44736, Note_on_c, 0, 88, 82
1, 44759, Note_on_c, 0, 88, 0
1, 44760, Note_on_c, 0, 76, 82
1, 44783, Note_on_c, 0, 76, 0
1, 44784, Note_on_c, 0, 88, 82
1, 44784, Note_on_c, 1, 64, 82
1, 44784, Note_on_c, 1, 59, 82
1, 44784, Note_on_c, 1, 55, 82
1, 44807, Note_on_c, 0, 88, 0
1, 44808, Note_on_c, 0, 76, 82
1, 44829, Note_on_c, 1, 64, 0
1, 44829, Note_on_c, 1, 59, 0
1, 44829, Note_on_c, 1, 55, 0
1, 44831, Note_on_c, 0, 76, 0
1, 44832, Note_on_c, 0, 84, 82
1, 44832, Note_on_c, 1, 64, 82
1, 44832, Note_on_c, 1, 60, 82
1, 44832, Note_on_c, 1, 57, 82
1, 44855, Note_on_c, 0, 84, 0
1, 44856, Note_on_c, 0, 72, 82
1, 44879, Note_on_c, 0, 72, 0
1, 44880, Note_on_c, 0, 84, 82
1, 44903, Note_on_c, 0, 84, 0
1, 44904, Note_on_c, 0, 72, 82
1, 44921, Note_on_c, 1, 64, 0
1, 44921, Note_on_c, 1, 60, 0
1, 44921, Note_on_c, 1, 57, 0
1, 44927, Note_on_c, 0, 72, 0
1, 44928, Note_on_c, 0, 75, 82
1, 44928, Note_on_c, 1, 69, 82
1, 44928, Note_on_c, 1, 66, 82
1, 44928, Note_on_c, 1, 59, 82
1, 44951, Note_on_c, 0, 75, 0
1, 44952, Note_on_c, 0, 71, 82
1, 44975, Note_on_c, 0, 71, 0
1, 44976, Note_on_c, 0, 75, 82
1, 44999, Note_on_c, 0, 75, 0
1, 45000, Note_on_c, 0, 71, 82
1, 45017, Note_on_c, 1, 69, 0
1, 45017, Note_on_c, 1, 66, 0
1, 45017, Note_on_c, 1, 59, 0
1, 45023, Note_on_c, 0, 71, 0
1, 45024, Note_on_c, 0, 76, 82
1, 45024, Note_on_c, 1, 67, 82
1, 45024, Note_on_c, 1, 64, 82
1, 45113, Note_on_c, 0, 76, 0
1, 45113, Note_on_c, 1, 67, 0
1, 45113, Note_on_c, 1, 64, 0
1, 45120, Note_on_c, 1, 52, 82
1, 45165, Note_on_c, 1, 52, 0
1, 45168, Note_on_c, 0, 71, 74
1, 45213, Note_on_c, 0, 71, 0
1, 45216, Note_on_c, 0, 71, 74
1, 45216, Note_on_c, 1, 56, 74
1, 45228, Note_on_c, 0, 71, 0
1, 45228, Note_on_c, 0, 73, 74
1, 45240, Note_on_c, 0, 73, 0
1, 45240, Note_on_c, 0, 71, 74
1, 45255, Note_on_c, 1, 56, 0
1, 45261, Note_on_c, 0, 71, 0
1, 45264, Note_on_c, 0, 69, 74
1, 45309, Note_on_c, 0, 69, 0
1, 45312, Note_on_c, 0, 68, 74
1, 45332, Note_on_c, 0, 68, 0
1, 45360, Note_on_c, 0, 68, 74
1, 45380, Note_on_c, 0, 68, 0
1, 45408, Note_on_c, 0, 68, 74
1, 45408, Note_on_c, 1, 64, 74
1, 45408, Note_on_c, 1, 61, 74
1, 45420, Note_on_c, 0, 68, 0
1, 45420, Note_on_c, 0, 69, 74
1, 45432, Note_on_c, 0, 69, 0
1, 45432, Note_on_c, 0, 68, 74
1, 45447, Note_on_c, 1, 64, 0
1, 45447, Note_on_c, 1, 61, 0
1, 45453, Note_on_c, 0, 68, 0
1, 45456, Note_on_c, 0, 66, 74
1, 45501, Note_on_c, 0, 66, 0
1, 45504, Note_on_c, 0, 64, 74
1, 45524, Note_on_c, 0, 64, 0
1, 45552, Note_on_c, 0, 64, 74
1, 45572, Note_on_c, 0, 64, 0
1, 45600, Note_on_c, 0, 66, 74
1, 45600, Note_on_c, 1, 57, 74
1, 45612, Note_on_c, 0, 66, 0
1, 45612, Note_on_c, 0, 68, 74
1, 45624, Note_on_c, 0, 68, 0
1, 45624, Note_on_c, 0, 66, 74
1, 45639, Note_on_c, 1, 57, 0
1, 45645, Note_on_c, 0, 66, 0
1, 45648, Note_on_c, 0, 64, 76
1, 45693, Note_on_c, 0, 64, 0
1, 45696, Note_on_c, 0, 66, 78
1, 45696, Note_on_c, 1, 58, 78
1, 45708, Note_on_c, 0, 66, 0
1, 45708, Note_on_c, 0, 68, 78
1, 45720, Note_on_c, 0, 68, 0
1, 45720, Note_on_c, 0, 66, 78
1, 45735, Note_on_c, 1, 58, 0
1, 45741, Note_on_c, 0, 66, 0
1, 45744, Note_on_c, 0, 64, 80
1, 45789, Note_on_c, 0, 64, 0
1, 45792, Note_on_c, 0, 59, 82
1, 45792, Note_on_c, 1, 47, 82
1, 45831, Note_on_c, 1, 47, 0
1, 45881, Note_on_c, 0, 59, 0
1, 45888, Note_on_c, 1, 35, 82
1, 45927, Note_on_c, 1, 35, 0
1, 45936, Note_on_c, 0, 71, 74
1, 45981, Note_on_c, 0, 71, 0
1, 45984, Note_on_c, 0, 71, 74
1, 45984, Note_on_c, 1, 56, 74
1, 45984, Note_on_c, 1, 52, 74
1, 45996, Note_on_c, 0, 71, 0
1, 45996, Note_on_c, 0, 73, 74
1, 46008, Note_on_c, 0, 73, 0
1, 46008, Note_on_c, 0, 71, 74
1, 46023, Note_on_c, 1, 56, 0
1, 46023, Note_on_c, 1, 52, 0
1, 46029, Note_on_c, 0, 71, 0
1, 46032, Note_on_c, 0, 69, 74
1, 46077, Note_on_c, 0, 69, 0
1, 46080, Note_on_c, 0, 68, 74
1, 46100, Note_on_c, 0, 68, 0
1, 46128, Note_on_c, 0, 68, 74
1, 46148, Note_on_c, 0, 68, 0
1, 46176, Note_on_c, 0, 68, 74
1, 46176, Note_on_c, 1, 64, 74
1, 46176, Note_on_c, 1, 61, 74
1, 46188, Note_on_c, 0, 68, 0
1, 46188, Note_on_c, 0, 69, 74
1, 46200, Note_on_c, 0, 69, 0
1, 46200, Note_on_c, 0, 68, 74
1, 46215, Note_on_c, 1, 64, 0
1, 46215, Note_on_c, 1, 61, 0
1, 46221, Note_on_c, 0, 68, 0
1, 46224, Note_on_c, 0, 66, 74
1, 46269, Note_on_c, 0, 66, 0
1, 46272, Note_on_c, 0, 64, 74
1, 46317, Note_on_c, 0, 64, 0
1, 46320, Note_on_c, 0, 73, 74
1, 46320, Note_on_c, 1, 52, 74
1, 46365, Note_on_c, 0, 73, 0
1, 46365, Note_on_c, 1, 52, 0
1, 46368, Note_on_c, 0, 73, 74
1, 46368, Note_on_c, 1, 52, 74
1, 46380, Note_on_c, 0, 73, 0
1, 46380, Note_on_c, 0, 75, 74
1, 46392, Note_on_c, 0, 75, 0
1, 46392, Note_on_c, 0, 73, 74
1, 46413, Note_on_c, 0, 73, 0
1, 46413, Note_on_c, 1, 52, 0
1, 46416, Note_on_c, 0, 72, 76
1, 46416, Note_on_c, 1, 51, 76
1, 46461, Note_on_c, 0, 72, 0
1, 46461, Note_on_c, 1, 51, 0
1, 46464, Note_on_c, 0, 73, 78
1, 46464, Note_on_c, 1, 52, 78
1, 46509, Note_on_c, 0, 73, 0
1, 46509, Note_on_c, 1, 52, 0
1, 46512, Note_on_c, 0, 75, 80
1, 46512, Note_on_c, 1, 54, 80
1, 46557, Note_on_c, 0, 75, 0
1, 46557, Note_on_c, 1, 54, 0
1, 46560, Note_on_c, 0, 68, 82
1, 46560, Note_on_c, 1, 56, 82
1, 46654, Note_on_c, 0, 68, 0
1, 46654, Note_on_c, 1, 56, 0
1, 46656, Note_on_c, 1, 44, 82
1, 46701, Note_on_c, 1, 44, 0
1, 46704, Note_on_c, 0, 71, 74
1, 46749, Note_on_c, 0, 71, 0
1, 46752, Note_on_c, 0, 73, 74
1, 46752, Note_on_c, 1, 56, 74
1, 46775, Note_on_c, 0, 73, 0
1, 46776, Note_on_c, 0, 71, 74
1, 46799, Note_on_c, 0, 71, 0
1, 46800, Note_on_c, 0, 76, 74
1, 46823, Note_on_c, 0, 76, 0
1, 46824, Note_on_c, 0, 75, 74
1, 46841, Note_on_c, 1, 56, 0
1, 46847, Note_on_c, 0, 75, 0
1, 46848, Note_on_c, 0, 73, 74
1, 46871, Note_on_c, 0, 73, 0
1, 46872, Note_on_c, 0, 71, 74
1, 46895, Note_on_c, 0, 71, 0
1, 46896, Note_on_c, 0, 69, 74
1, 46919, Note_on_c, 0, 69, 0
1, 46920, Note_on_c, 0, 68, 74
1, 46943, Note_on_c, 0, 68, 0
1, 46944, Note_on_c, 0, 69, 74
1, 46944, Note_on_c, 1, 64, 74
1, 46944, Note_on_c, 1, 61, 74
1, 46967, Note_on_c, 0, 69, 0
1, 46968, Note_on_c, 0, 68, 74
1, 46991, Note_on_c, 0, 68, 0
1, 46992, Note_on_c, 0, 73, 74
1, 47015, Note_on_c, 0, 73, 0
1, 47016, Note_on_c, 0, 71, 74
1, 47033, Note_on_c, 1, 64, 0
1, 47033, Note_on_c, 1, 61, 0
1, 47039, Note_on_c, 0, 71, 0
1, 47040, Note_on_c, 0, 69, 74
1, 47063, Note_on_c, 0, 69, 0
1, 47064, Note_on_c, 0, 68, 74
1, 47087, Note_on_c, 0, 68, 0
1, 47088, Note_on_c, 0, 66, 74
1, 47111, Note_on_c, 0, 66, 0
1, 47112, Note_on_c, 0, 64, 74
1, 47135, Note_on_c, 0, 64, 0
1, 47136, Note_on_c, 0, 68, 74
1, 47136, Note_on_c, 1, 57, 74
1, 47159, Note_on_c, 0, 68, 0
1, 47160, Note_on_c, 0, 66, 75
1, 47183, Note_on_c, 0, 66, 0
1, 47184, Note_on_c, 0, 69, 76
1, 47207, Note_on_c, 0, 69, 0
1, 47208, Note_on_c, 0, 68, 77
1, 47225, Note_on_c, 1, 57, 0
1, 47231, Note_on_c, 0, 68, 0
1, 47232, Note_on_c, 0, 66, 78
1, 47232, Note_on_c, 1, 58, 78
1, 47255, Note_on_c, 0, 66, 0
1, 47256, Note_on_c, 0, 64, 79
1, 47279, Note_on_c, 0, 64, 0
1, 47280, Note_on_c, 0, 63, 80
1, 47303, Note_on_c, 0, 63, 0
1, 47304, Note_on_c, 0, 61, 81
1, 47321, Note_on_c, 1, 58, 0
1, 47327, Note_on_c, 0, 61, 0
1, 47328, Note_on_c, 0, 59, 82
1, 47352, Note_on_c, 1, 47, 82
1, 47375, Note_on_c, 1, 47, 0
1, 47376, Note_on_c, 1, 46, 82
1, 47399, Note_on_c, 1, 46, 0
1, 47400, Note_on_c, 1, 47, 82
1, 47417, Note_on_c, 0, 59, 0
1, 47423, Note_on_c, 1, 47, 0
1, 47424, Note_on_c, 1, 35, 82
1, 47469, Note_on_c, 1, 35, 0
1, 47472, Note_on_c, 0, 71, 74
1, 47517, Note_on_c, 0, 71, 0
1, 47520, Note_on_c, 0, 73, 74
1, 47520, Note_on_c, 1, 56, 74
1, 47520, Note_on_c, 1, 52, 74
1, 47543, Note_on_c, 0, 73, 0
1, 47544, Note_on_c, 0, 71, 74
1, 47559, Note_on_c, 1, 56, 0
1, 47559, Note_on_c, 1, 52, 0
1, 47567, Note_on_c, 0, 71, 0
1, 47568, Note_on_c, 0, 76, 74
1, 47591, Note_on_c, 0, 76, 0
1, 47592, Note_on_c, 0, 75, 74
1, 47615, Note_on_c, 0, 75, 0
1, 47616, Note_on_c, 0, 73, 74
1, 47639, Note_on_c, 0, 73, 0
1, 47640, Note_on_c, 0, 71, 74
1, 47663, Note_on_c, 0, 71, 0
1, 47664, Note_on_c, 0, 69, 74
1, 47687, Note_on_c, 0, 69, 0
1, 47688, Note_on_c, 0, 68, 74
1, 47711, Note_on_c, 0, 68, 0
1, 47712, Note_on_c, 0, 69, 74
1, 47712, Note_on_c, 1, 64, 74
1, 47712, Note_on_c, 1, 61, 74
1, 47735, Note_on_c, 0, 69, 0
1, 47736, Note_on_c, 0, 68, 74
1, 47751, Note_on_c, 1, 64, 0
1, 47751, Note_on_c, 1, 61, 0
1, 47759, Note_on_c, 0, 68, 0
1, 47760, Note_on_c, 0, 73, 74
1, 47783, Note_on_c, 0, 73, 0
1, 47784, Note_on_c, 0, 71, 74
1, 47807, Note_on_c, 0, 71, 0
1, 47808, Note_on_c, 0, 69, 74
1, 47831, Note_on_c, 0, 69, 0
1, 47832, Note_on_c, 0, 68, 74
1, 47855, Note_on_c, 0, 68, 0
1, 47856, Note_on_c, 0, 66, 74
1, 47879, Note_on_c, 0, 66, 0
1, 47880, Note_on_c, 0, 64, 74
1, 47903, Note_on_c, 0, 64, 0
1, 47904, Note_on_c, 0, 68, 74
1, 47904, Note_on_c, 1, 52, 74
1, 47927, Note_on_c, 0, 68, 0
1, 47928, Note_on_c, 0, 66, 75
1, 47951, Note_on_c, 0, 66, 0
1, 47952, Note_on_c, 0, 69, 76
1, 47975, Note_on_c, 0, 69, 0
1, 47976, Note_on_c, 0, 68, 77
1, 47993, Note_on_c, 1, 52, 0
1, 47999, Note_on_c, 0, 68, 0
1, 48000, Note_on_c, 0, 66, 78
1, 48000, Note_on_c, 1, 54, 78
1, 48023, Note_on_c, 0, 66, 0
1, 48024, Note_on_c, 0, 64, 79
1, 48047, Note_on_c, 0, 64, 0
1, 48048, Note_on_c, 0, 63, 80
1, 48071, Note_on_c, 0, 63, 0
1, 48072, Note_on_c, 0, 61, 81
1, 48089, Note_on_c, 1, 54, 0
1, 48095, Note_on_c, 0, 61, 0
1, 48096, Note_on_c, 0, 56, 82
1, 48096, Note_on_c, 1, 44, 82
1, 48185, Note_on_c, 0, 56, 0
1, 48185, Note_on_c, 1, 44, 0
1, 48192, Note_on_c, 1, 32, 82
1, 48237, Note_on_c, 1, 32, 0
1, 48240, Note_on_c, 0, 71, 74
1, 48285, Note_on_c, 0, 71, 0
1, 48288, Note_on_c, 0, 70, 74
1, 48288, Note_on_c, 1, 56, 67
1, 48311, Note_on_c, 0, 70, 0
1, 48311, Note_on_c, 1, 56, 0
1, 48312, Note_on_c, 0, 71, 74
1, 48312, Note_on_c, 1, 63, 67
1, 48335, Note_on_c, 0, 71, 0
1, 48335, Note_on_c, 1, 63, 0
1, 48336, Note_on_c, 0, 73, 74
1, 48336, Note_on_c, 1, 59, 67
1, 48359, Note_on_c, 0, 73, 0
1, 48359, Note_on_c, 1, 59, 0
1, 48360, Note_on_c, 0, 71, 74
1, 48360, Note_on_c, 1, 63, 67
1, 48383, Note_on_c, 0, 71, 0
1, 48383, Note_on_c, 1, 63, 0
1, 48384, Note_on_c, 0, 75, 74
1, 48384, Note_on_c, 1, 56, 67
1, 48407, Note_on_c, 1, 56, 0
1, 48408, Note_on_c, 1, 63, 67
1, 48429, Note_on_c, 0, 75, 0
1, 48431, Note_on_c, 1, 63, 0
1, 48432, Note_on_c, 0, 71, 74
1, 48432, Note_on_c, 1, 59, 67
1, 48455, Note_on_c, 1, 59, 0
1, 48456, Note_on_c, 1, 63, 67
1, 48477, Note_on_c, 0, 71, 0
1, 48479, Note_on_c, 1, 63, 0
1, 48480, Note_on_c, 0, 70, 74
1, 48480, Note_on_c, 1, 55, 67
1, 48503, Note_on_c, 1, 55, 0
1, 48504, Note_on_c, 1, 63, 67
1, 48525, Note_on_c, 0, 70, 0
1, 48527, Note_on_c, 1, 63, 0
1, 48528, Note_on_c, 0, 87, 82
1, 48528, Note_on_c, 0, 75, 82
1, 48528, Note_on_c, 1, 58, 67
1, 48551, Note_on_c, 1, 58, 0
1, 48552, Note_on_c, 1, 63, 67
1, 48573, Note_on_c, 0, 87, 0
1, 48573, Note_on_c, 0, 75, 0
1, 48575, Note_on_c, 1, 63, 0
1, 48576, Note_on_c, 0, 87, 82
1, 48576, Note_on_c, 0, 75, 82
1, 48576, Note_on_c, 1, 55, 67
1, 48599, Note_on_c, 1, 55, 0
1, 48600, Note_on_c, 1, 63, 67
1, 48623, Note_on_c, 1, 63, 0
1, 48624, Note_on_c, 1, 58, 67
1, 48647, Note_on_c, 1, 58, 0
1, 48648, Note_on_c, 1, 63, 67
1, 48665, Note_on_c, 0, 87, 0
1, 48665, Note_on_c, 0, 75, 0
1, 48671, Note_on_c, 1, 63, 0
1, 48672, Note_on_c, 0, 66, 82
1, 48672, Note_on_c, 1, 52, 67
1, 48695, Note_on_c, 0, 66, 0
1, 48695, Note_on_c, 1, 52, 0
1, 48696, Note_on_c, 0, 68, 82
1, 48696, Note_on_c, 1, 59, 67
1, 48719, Note_on_c, 0, 68, 0
1, 48719, Note_on_c, 1, 59, 0
1, 48720, Note_on_c, 0, 69, 82
1, 48720, Note_on_c, 1, 56, 67
1, 48743, Note_on_c, 0, 69, 0
1, 48743, Note_on_c, 1, 56, 0
1, 48744, Note_on_c, 0, 68, 82
1, 48744, Note_on_c, 1, 59, 67
1, 48767, Note_on_c, 0, 68, 0
1, 48767, Note_on_c, 1, 59, 0
1, 48768, Note_on_c, 0, 71, 82
1, 48768, Note_on_c, 1, 52, 67
1, 48791, Note_on_c, 1, 52, 0
1, 48792, Note_on_c, 1, 59, 67
1, 48813, Note_on_c, 0, 71, 0
1, 48815, Note_on_c, 1, 59, 0
1, 48816, Note_on_c, 0, 68, 82
1, 48816, Note_on_c, 1, 56, 67
1, 48839, Note_on_c, 1, 56, 0
1, 48840, Note_on_c, 1, 59, 67
1, 48861, Note_on_c, 0, 68, 0
1, 48863, Note_on_c, 1, 59, 0
1, 48864, Note_on_c, 0, 66, 82
1, 48864, Note_on_c, 1, 51, 67
1, 48887, Note_on_c, 1, 51, 0
1, 48888, Note_on_c, 1, 59, 67
1, 48909, Note_on_c, 0, 66, 0
1, 48911, Note_on_c, 1, 59, 0
1, 48912, Note_on_c, 0, 83, 82
1, 48912, Note_on_c, 0, 71, 82
1, 48912, Note_on_c, 1, 54, 67
1, 48935, Note_on_c, 1, 54, 0
1, 48936, Note_on_c, 1, 59, 67
1, 48957, Note_on_c, 0, 83, 0
1, 48957, Note_on_c, 0, 71, 0
1, 48959, Note_on_c, 1, 59, 0
1, 48960, Note_on_c, 0, 83, 82
1, 48960, Note_on_c, 0, 71, 82
1, 48960, Note_on_c, 1, 51, 67
1, 48983, Note_on_c, 1, 51, 0
1, 48984, Note_on_c, 1, 59, 67
1, 49007, Note_on_c, 1, 59, 0
1, 49008, Note_on_c, 1, 54, 67
1, 49031, Note_on_c, 1, 54, 0
1, 49032, Note_on_c, 1, 59, 67
1, 49049, Note_on_c, 0, 83, 0
1, 49049, Note_on_c, 0, 71, 0
1, 49055, Note_on_c, 1, 59, 0
1, 49056, Note_on_c, 0, 81, 82
1, 49056, Note_on_c, 0, 69, 82
1, 49056, Note_on_c, 1, 54, 67
1, 49079, Note_on_c, 1, 54, 0
1, 49080, Note_on_c, 1, 61, 67
1, 49101, Note_on_c, 0, 81, 0
1, 49101, Note_on_c, 0, 69, 0
1, 49103, Note_on_c, 1, 61, 0
1, 49104, Note_on_c, 0, 81, 82
1, 49104, Note_on_c, 0, 69, 82
1, 49104, Note_on_c, 1, 57, 67
1, 49127, Note_on_c, 1, 57, 0
1, 49128, Note_on_c, 1, 61, 67
1, 49149, Note_on_c, 0, 81, 0
1, 49149, Note_on_c, 0, 69, 0
1, 49151, Note_on_c, 1, 61, 0
1, 49152, Note_on_c, 0, 81, 82
1, 49152, Note_on_c, 0, 69, 82
1, 49152, Note_on_c, 1, 54, 67
1, 49175, Note_on_c, 1, 54, 0
1, 49176, Note_on_c, 1, 61, 67
1, 49197, Note_on_c, 0, 81, 0
1, 49197, Note_on_c, 0, 69, 0
1, 49199, Note_on_c, 1, 61, 0
1, 49200, Note_on_c, 0, 85, 82
1, 49200, Note_on_c, 0, 73, 82
1, 49200, Note_on_c, 1, 57, 67
1, 49223, Note_on_c, 1, 57, 0
1, 49224, Note_on_c, 1, 61, 67
1, 49245, Note_on_c, 0, 85, 0
1, 49245, Note_on_c, 0, 73, 0
1, 49247, Note_on_c, 1, 61, 0
1, 49248, Note_on_c, 0, 81, 82
1, 49248, Note_on_c, 0, 69, 82
1, 49248, Note_on_c, 1, 51, 67
1, 49271, Note_on_c, 1, 51, 0
1, 49272, Note_on_c, 1, 59, 67
1, 49295, Note_on_c, 1, 59, 0
1, 49296, Note_on_c, 1, 54, 67
1, 49319, Note_on_c, 1, 54, 0
1, 49320, Note_on_c, 1, 59, 67
1, 49337, Note_on_c, 0, 81, 0
1, 49337, Note_on_c, 0, 69, 0
1, 49343, Note_on_c, 1, 59, 0
1, 49344, Note_on_c, 0, 80, 82
1, 49344, Note_on_c, 0, 68, 82
1, 49344, Note_on_c, 1, 52, 67
1, 49367, Note_on_c, 1, 52, 0
1, 49368, Note_on_c, 1, 59, 67
1, 49391, Note_on_c, 1, 59, 0
1, 49392, Note_on_c, 1, 56, 67
1, 49415, Note_on_c, 1, 56, 0
1, 49416, Note_on_c, 1, 59, 67
1, 49433, Note_on_c, 0, 80, 0
1, 49433, Note_on_c, 0, 68, 0
1, 49439, Note_on_c, 1, 59, 0
1, 49440, Note_on_c, 0, 78, 82
1, 49440, Note_on_c, 0, 66, 82
1, 49440, Note_on_c, 1, 45, 67
1, 49463, Note_on_c, 1, 45, 0
1, 49464, Note_on_c, 1, 57, 67
1, 49487, Note_on_c, 1, 57, 0
1, 49488, Note_on_c, 1, 49, 67
1, 49511, Note_on_c, 1, 49, 0
1, 49512, Note_on_c, 1, 57, 67
1, 49529, Note_on_c, 0, 78, 0
1, 49529, Note_on_c, 0, 66, 0
1, 49535, Note_on_c, 1, 57, 0
1, 49536, Note_on_c, 0, 75, 82
1, 49536, Note_on_c, 0, 63, 82
1, 49536, Note_on_c, 1, 47, 67
1, 49559, Note_on_c, 1, 47, 0
1, 49560, Note_on_c, 1, 57, 67
1, 49583, Note_on_c, 1, 57, 0
1, 49584, Note_on_c, 1, 54, 67
1, 49607, Note_on_c, 1, 54, 0
1, 49608, Note_on_c, 1, 59, 67
1, 49625, Note_on_c, 0, 75, 0
1, 49625, Note_on_c, 0, 63, 0
1, 49631, Note_on_c, 1, 59, 0
1, 49632, Note_on_c, 0, 76, 82
1, 49632, Note_on_c, 0, 64, 82
1, 49632, Note_on_c, 1, 40, 67
1, 49655, Note_on_c, 1, 40, 0
1, 49656, Note_on_c, 1, 52, 67
1, 49679, Note_on_c, 1, 52, 0
1, 49680, Note_on_c, 1, 51, 67
1, 49703, Note_on_c, 1, 51, 0
1, 49704, Note_on_c, 1, 52, 67
1, 49721, Note_on_c, 0, 76, 0
1, 49721, Note_on_c, 0, 64, 0
1, 49727, Note_on_c, 1, 52, 0
1, 49728, Note_on_c, 1, 40, 67
1, 49773, Note_on_c, 1, 40, 0
1, 49776, Note_on_c, 0, 71, 74
1, 49821, Note_on_c, 0, 71, 0
1, 49824, Note_on_c, 0, 70, 74
1, 49824, Note_on_c, 1, 56, 67
1, 49847, Note_on_c, 0, 70, 0
1, 49847, Note_on_c, 1, 56, 0
1, 49848, Note_on_c, 0, 71, 74
1, 49848, Note_on_c, 1, 63, 67
1, 49871, Note_on_c, 0, 71, 0
1, 49871, Note_on_c, 1, 63, 0
1, 49872, Note_on_c, 0, 73, 74
1, 49872, Note_on_c, 1, 59, 67
1, 49895, Note_on_c, 0, 73, 0
1, 49895, Note_on_c, 1, 59, 0
1, 49896, Note_on_c, 0, 71, 74
1, 49896, Note_on_c, 1, 63, 67
1, 49919, Note_on_c, 0, 71, 0
1, 49919, Note_on_c, 1, 63, 0
1, 49920, Note_on_c, 0, 75, 74
1, 49920, Note_on_c, 1, 56, 67
1, 49943, Note_on_c, 1, 56, 0
1, 49944, Note_on_c, 1, 63, 67
1, 49965, Note_on_c, 0, 75, 0
1, 49967, Note_on_c, 1, 63, 0
1, 49968, Note_on_c, 0, 71, 74
1, 49968, Note_on_c, 1, 59, 67
1, 49991, Note_on_c, 1, 59, 0
1, 49992, Note_on_c, 1, 63, 67
1, 50013, Note_on_c, 0, 71, 0
1, 50015, Note_on_c, 1, 63, 0
1, 50016, Note_on_c, 0, 70, 74
1, 50016, Note_on_c, 1, 55, 67
1, 50039, Note_on_c, 1, 55, 0
1, 50040, Note_on_c, 1, 63, 67
1, 50061, Note_on_c, 0, 70, 0
1, 50063, Note_on_c, 1, 63, 0
1, 50064, Note_on_c, 0, 87, 82
1, 50064, Note_on_c, 0, 75, 82
1, 50064, Note_on_c, 1, 58, 67
1, 50087, Note_on_c, 1, 58, 0
1, 50088, Note_on_c, 1, 63, 67
1, 50109, Note_on_c, 0, 87, 0
1, 50109, Note_on_c, 0, 75, 0
1, 50111, Note_on_c, 1, 63, 0
1, 50112, Note_on_c, 0, 87, 82
1, 50112, Note_on_c, 0, 75, 82
1, 50112, Note_on_c, 1, 55, 67
1, 50135, Note_on_c, 1, 55, 0
1, 50136, Note_on_c, 1, 63, 67
1, 50159, Note_on_c, 1, 63, 0
1, 50160, Note_on_c, 1, 58, 67
1, 50183, Note_on_c, 1, 58, 0
1, 50184, Note_on_c, 1, 63, 67
1, 50201, Note_on_c, 0, 87, 0
1, 50201, Note_on_c, 0, 75, 0
1, 50207, Note_on_c, 1, 63, 0
1, 50208, Note_on_c, 0, 66, 74
1, 50208, Note_on_c, 1, 52, 67
1, 50231, Note_on_c, 0, 66, 0
1, 50231, Note_on_c, 1, 52, 0
1, 50232, Note_on_c, 0, 68, 74
1, 50232, Note_on_c, 1, 59, 67
1, 50255, Note_on_c, 0, 68, 0
1, 50255, Note_on_c, 1, 59, 0
1, 50256, Note_on_c, 0, 69, 74
1, 50256, Note_on_c, 1, 56, 67
1, 50279, Note_on_c, 0, 69, 0
1, 50279, Note_on_c, 1, 56, 0
1, 50280, Note_on_c, 0, 68, 74
1, 50280, Note_on_c, 1, 59, 67
1, 50303, Note_on_c, 0, 68, 0
1, 50303, Note_on_c, 1, 59, 0
1, 50304, Note_on_c, 0, 71, 74
1, 50304, Note_on_c, 1, 52, 67
1, 50327, Note_on_c, 1, 52, 0
1, 50328, Note_on_c, 1, 59, 67
1, 50349, Note_on_c, 0, 71, 0
1, 50351, Note_on_c, 1, 59, 0
1, 50352, Note_on_c, 0, 68, 74
1, 50352, Note_on_c, 1, 56, 67
1, 50375, Note_on_c, 1, 56, 0
1, 50376, Note_on_c, 1, 59, 67
1, 50397, Note_on_c, 0, 68, 0
1, 50399, Note_on_c, 1, 59, 0
1, 50400, Note_on_c, 0, 66, 74
1, 50400, Note_on_c, 1, 51, 67
1, 50423, Note_on_c, 1, 51, 0
1, 50424, Note_on_c, 1, 59, 67
1, 50445, Note_on_c, 0, 66, 0
1, 50447, Note_on_c, 1, 59, 0
1, 50448, Note_on_c, 0, 83, 82
1, 50448, Note_on_c, 0, 71, 82
1, 50448, Note_on_c, 1, 54, 67
1, 50471, Note_on_c, 1, 54, 0
1, 50472, Note_on_c, 1, 59, 67
1, 50493, Note_on_c, 0, 83, 0
1, 50493, Note_on_c, 0, 71, 0
1, 50495, Note_on_c, 1, 59, 0
1, 50496, Note_on_c, 0, 83, 82
1, 50496, Note_on_c, 0, 71, 82
1, 50496, Note_on_c, 1, 51, 67
1, 50519, Note_on_c, 1, 51, 0
1, 50520, Note_on_c, 1, 59, 67
1, 50543, Note_on_c, 1, 59, 0
1, 50544, Note_on_c, 1, 54, 67
1, 50567, Note_on_c, 1, 54, 0
1, 50568, Note_on_c, 1, 59, 67
1, 50585, Note_on_c, 0, 83, 0
1, 50585, Note_on_c, 0, 71, 0
1, 50591, Note_on_c, 1, 59, 0
1, 50592, Note_on_c, 0, 81, 82
1, 50592, Note_on_c, 0, 69, 82
1, 50592, Note_on_c, 1, 54, 67
1, 50615, Note_on_c, 1, 54, 0
1, 50616, Note_on_c, 1, 61, 67
1, 50637, Note_on_c, 0, 81, 0
1, 50637, Note_on_c, 0, 69, 0
1, 50639, Note_on_c, 1, 61, 0
1, 50640, Note_on_c, 0, 81, 82
1, 50640, Note_on_c, 0, 69, 82
1, 50640, Note_on_c, 1, 57, 67
1, 50663, Note_on_c, 1, 57, 0
1, 50664, Note_on_c, 1, 61, 67
1, 50685, Note_on_c, 0, 81, 0
1, 50685, Note_on_c, 0, 69, 0
1, 50687, Note_on_c, 1, 61, 0
1, 50688, Note_on_c, 0, 81, 82
1, 50688, Note_on_c, 0, 69, 82
1, 50688, Note_on_c, 1, 54, 67
1, 50711, Note_on_c, 1, 54, 0
1, 50712, Note_on_c, 1, 61, 67
1, 50733, Note_on_c, 0, 81, 0
1, 50733, Note_on_c, 0, 69, 0
1, 50735, Note_on_c, 1, 61, 0
1, 50736, Note_on_c, 0, 85, 82
1, 50736, Note_on_c, 0, 73, 82
1, 50736, Note_on_c, 1, 57, 67
1, 50759, Note_on_c, 1, 57, 0
1, 50760, Note_on_c, 1, 61, 67
1, 50781, Note_on_c, 0, 85, 0
1, 50781, Note_on_c, 0, 73, 0
1, 50783, Note_on_c, 1, 61, 0
1, 50784, Note_on_c, 0, 81, 82
1, 50784, Note_on_c, 0, 69, 82
1, 50784, Note_on_c, 1, 51, 67
1, 50807, Note_on_c, 1, 51, 0
1, 50808, Note_on_c, 1, 59, 67
1, 50831, Note_on_c, 1, 59, 0
1, 50832, Note_on_c, 1, 54, 67
1, 50855, Note_on_c, 1, 54, 0
1, 50856, Note_on_c, 1, 59, 67
1, 50873, Note_on_c, 0, 81, 0
1, 50873, Note_on_c, 0, 69, 0
1, 50879, Note_on_c, 1, 59, 0
1, 50880, Note_on_c, 0, 80, 82
1, 50880, Note_on_c, 0, 68, 82
1, 50880, Note_on_c, 1, 52, 67
1, 50903, Note_on_c, 1, 52, 0
1, 50904, Note_on_c, 1, 59, 67
1, 50927, Note_on_c, 1, 59, 0
1, 50928, Note_on_c, 1, 56, 67
1, 50951, Note_on_c, 1, 56, 0
1, 50952, Note_on_c, 1, 59, 67
1, 50969, Note_on_c, 0, 80, 0
1, 50969, Note_on_c, 0, 68, 0
1, 50975, Note_on_c, 1, 59, 0
1, 50976, Note_on_c, 0, 78, 82
1, 50976, Note_on_c, 0, 66, 82
1, 50976, Note_on_c, 1, 45, 67
1, 50999, Note_on_c, 1, 45, 0
1, 51000, Note_on_c, 1, 57, 67
1, 51023, Note_on_c, 1, 57, 0
1, 51024, Note_on_c, 1, 49, 67
1, 51047, Note_on_c, 1, 49, 0
1, 51048, Note_on_c, 1, 57, 67
1, 51065, Note_on_c, 0, 78, 0
1, 51065, Note_on_c, 0, 66, 0
1, 51071, Note_on_c, 1, 57, 0
1, 51072, Note_on_c, 0, 75, 82
1, 51072, Note_on_c, 0, 63, 82
1, 51072, Note_on_c, 1, 47, 67
1, 51095, Note_on_c, 1, 47, 0
1, 51096, Note_on_c, 1, 57, 67
1, 51119, Note_on_c, 1, 57, 0
1, 51120, Note_on_c, 1, 54, 67
1, 51143, Note_on_c, 1, 54, 0
1, 51144, Note_on_c, 1, 59, 67
1, 51161, Note_on_c, 0, 75, 0
1, 51161, Note_on_c, 0, 63, 0
1, 51167, Note_on_c, 1, 59, 0
1, 51168, Note_on_c, 0, 76, 82
1, 51168, Note_on_c, 0, 64, 82
1, 51168, Note_on_c, 1, 40, 74
1, 51191, Note_on_c, 1, 40, 0
1, 51192, Note_on_c, 1, 52, 74
1, 51215, Note_on_c, 1, 52, 0
1, 51216, Note_on_c, 1, 51, 74
1, 51239, Note_on_c, 1, 51, 0
1, 51240, Note_on_c, 1, 52, 74
1, 51257, Note_on_c, 0, 76, 0
1, 51257, Note_on_c, 0, 64, 0
1, 51263, Note_on_c, 1, 52, 0
1, 51264, Note_on_c, 1, 40, 74
1, 51287, Note_on_c, 1, 40, 0
1, 51288, Note_on_c, 1, 52, 74
1, 51311, Note_on_c, 1, 52, 0
1, 51312, Note_on_c, 0, 81, 82
1, 51312, Note_on_c, 0, 75, 74
1, 51312, Note_on_c, 1, 40, 74
1, 51335, Note_on_c, 1, 40, 0
1, 51336, Note_on_c, 1, 52, 74
1, 51359, Note_on_c, 1, 52, 0
1, 51360, Note_on_c, 0, 81, 0
1, 51360, Note_on_c, 0, 80, 82
1, 51360, Note_on_c, 0, 75, 0
1, 51360, Note_on_c, 0, 76, 74
1, 51360, Note_on_c, 1, 40, 74
1, 51383, Note_on_c, 1, 40, 0
1, 51384, Note_on_c, 1, 52, 74
1, 51399, Note_on_c, 0, 76, 0
1, 51407, Note_on_c, 1, 52, 0
1, 51408, Note_on_c, 1, 51, 74
1, 51431, Note_on_c, 1, 51, 0
1, 51432, Note_on_c, 1, 52, 74
1, 51449, Note_on_c, 0, 80, 0
1, 51455, Note_on_c, 1, 52, 0
1, 51456, Note_on_c, 1, 40, 74
1, 51479, Note_on_c, 1, 40, 0
1, 51480, Note_on_c, 1, 52, 74
1, 51503, Note_on_c, 1, 52, 0
1, 51504, Note_on_c, 0, 75, 82
1, 51504, Note_on_c, 0, 69, 74
1, 51504, Note_on_c, 1, 40, 74
1, 51527, Note_on_c, 1, 40, 0
1, 51528, Note_on_c, 1, 52, 74
1, 51551, Note_on_c, 1, 52, 0
1, 51552, Note_on_c, 0, 75, 0
1, 51552, Note_on_c, 0, 76, 82
1, 51552, Note_on_c, 0, 69, 0
1, 51552, Note_on_c, 0, 68, 74
1, 51552, Note_on_c, 1, 40, 74
1, 51575, Note_on_c, 1, 40, 0
1, 51576, Note_on_c, 1, 52, 74
1, 51591, Note_on_c, 0, 76, 0
1, 51591, Note_on_c, 0, 68, 0
1, 51599, Note_on_c, 1, 52, 0
1, 51600, Note_on_c, 1, 51, 74
1, 51623, Note_on_c, 1, 51, 0
1, 51624, Note_on_c, 1, 52, 74
1, 51647, Note_on_c, 1, 52, 0
1, 51648, Note_on_c, 1, 40, 74
1, 51671, Note_on_c, 1, 40, 0
1, 51672, Note_on_c, 1, 52, 74
1, 51695, Note_on_c, 1, 52, 0
1, 51696, Note_on_c, 0, 69, 82
1, 51696, Note_on_c, 0, 63, 74
1, 51696, Note_on_c, 1, 40, 74
1, 51719, Note_on_c, 1, 40, 0
1, 51720, Note_on_c, 1, 52, 74
1, 51743, Note_on_c, 1, 52, 0
1, 51744, Note_on_c, 0, 69, 0
1, 51744, Note_on_c, 0, 68, 82
1, 51744, Note_on_c, 0, 63, 0
1, 51744, Note_on_c, 0, 64, 74
1, 51744, Note_on_c, 1, 40, 74
1, 51767, Note_on_c, 1, 40, 0
1, 51768, Note_on_c, 1, 52, 74
1, 51783, Note_on_c, 0, 68, 0
1, 51783, Note_on_c, 0, 64, 0
1, 51791, Note_on_c, 1, 52, 0
1, 51792, Note_on_c, 1, 51, 74
1, 51815, Note_on_c, 1, 51, 0
1, 51816, Note_on_c, 1, 52, 74
1, 51839, Note_on_c, 1, 52, 0
1, 51840, Note_on_c, 1, 40, 74
1, 51863, Note_on_c, 1, 40, 0
1, 51864, Note_on_c, 1, 52, 74
1, 51887, Note_on_c, 1, 52, 0
1, 51888, Note_on_c, 0, 63, 82
1, 51888, Note_on_c, 0, 57, 74
1, 51888, Note_on_c, 1, 40, 74
1, 51911, Note_on_c, 1, 40, 0
1, 51912, Note_on_c, 1, 52, 74
1, 51935, Note_on_c, 1, 52, 0
1, 51936, Note_on_c, 0, 63, 0
1, 51936, Note_on_c, 0, 64, 82
1, 51936, Note_on_c, 0, 57, 0
1, 51936, Note_on_c, 0, 56, 74
1, 51936, Note_on_c, 1, 40, 74
1, 52025, Note_on_c, 0, 64, 0
1, 52025, Note_on_c, 0, 56, 0
1, 52025, Note_on_c, 1, 40, 0
1, 52032, Note_on_c, 0, 76, 82
1, 52032, Note_on_c, 0, 71, 82
1, 52032, Note_on_c, 0, 68, 82
1, 52032, Note_on_c, 0, 64, 82
1, 52032, Note_on_c, 1, 52, 74
1, 52032, Note_on_c, 1, 40, 74
1, 52121, Note_on_c, 0, 76, 0
1, 52121, Note_on_c, 0, 71, 0
1, 52121, Note_on_c, 0, 68, 0
1, 52121, Note_on_c, 0, 64, 0
1, 52121, Note_on_c, 1, 52, 0
1, 52121, Note_on_c, 1, 40, 0
1, 52128, Note_on_c, 0, 76, 82
1, 52128, Note_on_c, 0, 71, 82
1, 52128, Note_on_c, 0, 68, 82
1, 52128, Note_on_c, 0, 64, 82
1, 52128, Note_on_c, 1, 52, 74
1, 52128, Note_on_c, 1, 40, 74
1, 52261, Note_on_c, 0, 76, 0
1, 52261, Note_on_c, 0, 71, 0
1, 52261, Note_on_c, 0, 68, 0
1, 52261, Note_on_c, 0, 64, 0
1, 52261, Note_on_c, 1, 52, 0
1, 52261, Note_on_c, 1, 40, 0
1, 52320, Note_on_c, 1, 40, 0
1, 52409, Note_on_c, 1, 40, 0
1, 52419, End_track
0, 0, End_of_file