0, 0, Header, 0, 1, 96
1, 0, Start_track
1, 0, Tempo, 375000
1, 0, Note_on_c, 0, 67, 75
1, 0, Note_on_c, 1, 59, 63
1, 0, Note_on_c, 1, 55, 63
1, 45, Note_on_c, 1, 59, 0
1, 45, Note_on_c, 1, 55, 0
1, 48, Note_on_c, 1, 59, 63
1, 48, Note_on_c, 1, 55, 63
1, 67, Note_on_c, 0, 67, 0
1, 72, Note_on_c, 0, 71, 75
1, 84, Note_on_c, 0, 71, 0
1, 84, Note_on_c, 0, 69, 75
1, 93, Note_on_c, 1, 59, 0
1, 93, Note_on_c, 1, 55, 0
1, 96, Note_on_c, 0, 69, 0
1, 96, Note_on_c, 0, 67, 75
1, 96, Note_on_c, 1, 59, 63
1, 96, Note_on_c, 1, 55, 63
1, 141, Note_on_c, 0, 67, 0
1, 141, Note_on_c, 1, 59, 0
1, 141, Note_on_c, 1, 55, 0
1, 144, Note_on_c, 1, 59, 63
1, 144, Note_on_c, 1, 55, 63
1, 189, Note_on_c, 1, 59, 0
1, 189, Note_on_c, 1, 55, 0
1, 192, Note_on_c, 1, 59, 63
1, 192, Note_on_c, 1, 55, 63
1, 237, Note_on_c, 1, 59, 0
1, 237, Note_on_c, 1, 55, 0
1, 240, Note_on_c, 0, 62, 75
1, 240, Note_on_c, 1, 59, 63
1, 240, Note_on_c, 1, 55, 63
1, 260, Note_on_c, 0, 62, 0
1, 285, Note_on_c, 1, 59, 0
1, 285, Note_on_c, 1, 55, 0
1, 288, Note_on_c, 0, 67, 77
1, 288, Note_on_c, 1, 59, 63
1, 288, Note_on_c, 1, 55, 63
1, 308, Note_on_c, 0, 67, 0
1, 333, Note_on_c, 1, 59, 0
1, 333, Note_on_c, 1, 55, 0
1, 336, Note_on_c, 0, 71, 79
1, 336, Note_on_c, 1, 59, 63
1, 336, Note_on_c, 1, 55, 63
1, 356, Note_on_c, 0, 71, 0
1, 381, Note_on_c, 1, 59, 0
1, 381, Note_on_c, 1, 55, 0
1, 384, Note_on_c, 0, 71, 81
1, 384, Note_on_c, 1, 60, 63
1, 384, Note_on_c, 1, 55, 63
1, 407, Note_on_c, 0, 71, 0
1, 408, Note_on_c, 0, 69, 80
1, 431, Note_on_c, 0, 69, 0
1, 432, Note_on_c, 0, 67, 79
1, 455, Note_on_c, 0, 67, 0
1, 456, Note_on_c, 0, 69, 78
1, 479, Note_on_c, 0, 69, 0
1, 480, Note_on_c, 0, 67, 77
1, 480, Note_on_c, 1, 60, 0
1, 480, Note_on_c, 1, 59, 63
1, 525, Note_on_c, 0, 67, 0
1, 525, Note_on_c, 1, 59, 0
1, 525, Note_on_c, 1, 55, 0
1, 528, Note_on_c, 0, 74, 75
1, 548, Note_on_c, 0, 74, 0
1, 576, Note_on_c, 0, 74, 75
1, 576, Note_on_c, 1, 67, 63
1, 576, Note_on_c, 1, 65, 63
1, 596, Note_on_c, 0, 74, 0
1, 621, Note_on_c, 1, 67, 0
1, 621, Note_on_c, 1, 65, 0
1, 624, Note_on_c, 0, 74, 75
1, 624, Note_on_c, 1, 67, 63
1, 624, Note_on_c, 1, 65, 63
1, 644, Note_on_c, 0, 74, 0
1, 669, Note_on_c, 1, 67, 0
1, 669, Note_on_c, 1, 65, 0
1, 672, Note_on_c, 0, 74, 76
1, 672, Note_on_c, 1, 67, 63
1, 672, Note_on_c, 1, 65, 63
1, 692, Note_on_c, 0, 74, 0
1, 717, Note_on_c, 1, 67, 0
1, 717, Note_on_c, 1, 65, 0
1, 720, Note_on_c, 0, 74, 77
1, 720, Note_on_c, 1, 67, 63
1, 720, Note_on_c, 1, 65, 63
1, 740, Note_on_c, 0, 74, 0
1, 765, Note_on_c, 1, 67, 0
1, 765, Note_on_c, 1, 65, 0
1, 768, Note_on_c, 0, 74, 78
1, 768, Note_on_c, 1, 67, 69
1, 768, Note_on_c, 1, 64, 69
1, 835, Note_on_c, 0, 74, 0
1, 840, Note_on_c, 0, 76, 79
1, 852, Note_on_c, 0, 76, 0
1, 852, Note_on_c, 0, 74, 79
1, 864, Note_on_c, 0, 74, 0
1, 864, Note_on_c, 0, 72, 80
1, 901, Note_on_c, 1, 67, 0
1, 901, Note_on_c, 1, 64, 0
1, 909, Note_on_c, 0, 72, 0
1, 912, Note_on_c, 0, 71, 81
1, 912, Note_on_c, 1, 65, 75
1, 912, Note_on_c, 1, 62, 75
1, 957, Note_on_c, 0, 71, 0
1, 957, Note_on_c, 1, 65, 0
1, 957, Note_on_c, 1, 62, 0
1, 960, Note_on_c, 0, 69, 81
1, 960, Note_on_c, 1, 64, 77
1, 960, Note_on_c, 1, 60, 77
1, 980, Note_on_c, 0, 69, 0
1, 1008, Note_on_c, 0, 81, 97
1, 1049, Note_on_c, 1, 64, 0
1, 1049, Note_on_c, 1, 60, 0
1, 1056, Note_on_c, 1, 64, 81
1, 1056, Note_on_c, 1, 61, 81
1, 1104, Note_on_c, 0, 81, 0
1, 1104, Note_on_c, 0, 79, 81
1, 1145, Note_on_c, 1, 64, 0
1, 1145, Note_on_c, 1, 61, 0
1, 1149, Note_on_c, 0, 79, 0
1, 1152, Note_on_c, 0, 79, 81
1, 1152, Note_on_c, 1, 62, 81
1, 1175, Note_on_c, 0, 79, 0
1, 1176, Note_on_c, 0, 78, 81
1, 1199, Note_on_c, 0, 78, 0
1, 1200, Note_on_c, 0, 76, 81
1, 1223, Note_on_c, 0, 76, 0
1, 1224, Note_on_c, 0, 74, 81
1, 1241, Note_on_c, 1, 62, 0
1, 1247, Note_on_c, 0, 74, 0
1, 1248, Note_on_c, 0, 74, 97
1, 1296, Note_on_c, 0, 74, 0
1, 1296, Note_on_c, 0, 74, 80
1, 1341, Note_on_c, 0, 74, 0
1, 1344, Note_on_c, 0, 74, 79
1, 1367, Note_on_c, 0, 74, 0
1, 1368, Note_on_c, 0, 76, 78
1, 1391, Note_on_c, 0, 76, 0
1, 1392, Note_on_c, 0, 72, 78
1, 1415, Note_on_c, 0, 72, 0
1, 1416, Note_on_c, 0, 74, 77
1, 1439, Note_on_c, 0, 74, 0
1, 1440, Note_on_c, 0, 71, 77
1, 1463, Note_on_c, 0, 71, 0
1, 1464, Note_on_c, 0, 72, 76
1, 1487, Note_on_c, 0, 72, 0
1, 1488, Note_on_c, 0, 69, 76
1, 1511, Note_on_c, 0, 69, 0
1, 1512, Note_on_c, 0, 71, 75
1, 1535, Note_on_c, 0, 71, 0
1, 1536, Note_on_c, 0, 67, 75
1, 1536, Note_on_c, 1, 59, 63
1, 1536, Note_on_c, 1, 55, 63
1, 1581, Note_on_c, 1, 59, 0
1, 1581, Note_on_c, 1, 55, 0
1, 1584, Note_on_c, 1, 59, 63
1, 1584, Note_on_c, 1, 55, 63
1, 1603, Note_on_c, 0, 67, 0
1, 1608, Note_on_c, 0, 71, 75
1, 1620, Note_on_c, 0, 71, 0
1, 1620, Note_on_c, 0, 69, 75
1, 1629, Note_on_c, 1, 59, 0
1, 1629, Note_on_c, 1, 55, 0
1, 1632, Note_on_c, 0, 69, 0
1, 1632, Note_on_c, 0, 67, 75
1, 1632, Note_on_c, 1, 59, 63
1, 1632, Note_on_c, 1, 55, 63
1, 1677, Note_on_c, 0, 67, 0
1, 1677, Note_on_c, 1, 59, 0
1, 1677, Note_on_c, 1, 55, 0
1, 1680, Note_on_c, 1, 59, 63
1, 1680, Note_on_c, 1, 55, 63
1, 1725, Note_on_c, 1, 59, 0
1, 1725, Note_on_c, 1, 55, 0
1, 1728, Note_on_c, 1, 59, 63
1, 1728, Note_on_c, 1, 55, 63
1, 1773, Note_on_c, 1, 59, 0
1, 1773, Note_on_c, 1, 55, 0
1, 1776, Note_on_c, 0, 62, 75
1, 1776, Note_on_c, 1, 59, 63
1, 1776, Note_on_c, 1, 55, 63
1, 1796, Note_on_c, 0, 62, 0
1, 1821, Note_on_c, 1, 59, 0
1, 1821, Note_on_c, 1, 55, 0
1, 1824, Note_on_c, 0, 67, 77
1, 1824, Note_on_c, 1, 59, 63
1, 1824, Note_on_c, 1, 55, 63
1, 1844, Note_on_c, 0, 67, 0
1, 1869, Note_on_c, 1, 59, 0
1, 1869, Note_on_c, 1, 55, 0
1, 1872, Note_on_c, 0, 71, 79
1, 1872, Note_on_c, 1, 59, 63
1, 1872, Note_on_c, 1, 55, 63
1, 1892, Note_on_c, 0, 71, 0
1, 1917, Note_on_c, 1, 59, 0
1, 1917, Note_on_c, 1, 55, 0
1, 1920, Note_on_c, 0, 71, 81
1, 1920, Note_on_c, 1, 60, 63
1, 1920, Note_on_c, 1, 55, 63
1, 1943, Note_on_c, 0, 71, 0
1, 1944, Note_on_c, 0, 69, 80
1, 1967, Note_on_c, 0, 69, 0
1, 1968, Note_on_c, 0, 67, 79
1, 1991, Note_on_c, 0, 67, 0
1, 1992, Note_on_c, 0, 69, 78
1, 2015, Note_on_c, 0, 69, 0
1, 2016, Note_on_c, 0, 67, 77
1, 2016, Note_on_c, 1, 60, 0
1, 2016, Note_on_c, 1, 59, 63
1, 2061, Note_on_c, 0, 67, 0
1, 2061, Note_on_c, 1, 59, 0
1, 2061, Note_on_c, 1, 55, 0
1, 2064, Note_on_c, 0, 76, 75
1, 2084, Note_on_c, 0, 76, 0
1, 2112, Note_on_c, 0, 76, 75
1, 2112, Note_on_c, 1, 71, 63
1, 2112, Note_on_c, 1, 67, 63
1, 2132, Note_on_c, 0, 76, 0
1, 2157, Note_on_c, 1, 71, 0
1, 2157, Note_on_c, 1, 67, 0
1, 2160, Note_on_c, 0, 76, 75
1, 2160, Note_on_c, 1, 71, 63
1, 2160, Note_on_c, 1, 67, 63
1, 2180, Note_on_c, 0, 76, 0
1, 2205, Note_on_c, 1, 71, 0
1, 2205, Note_on_c, 1, 67, 0
1, 2208, Note_on_c, 0, 76, 76
1, 2208, Note_on_c, 1, 71, 63
1, 2208, Note_on_c, 1, 67, 63
1, 2228, Note_on_c, 0, 76, 0
1, 2253, Note_on_c, 1, 71, 0
1, 2253, Note_on_c, 1, 67, 0
1, 2256, Note_on_c, 0, 76, 77
1, 2256, Note_on_c, 1, 71, 63
1, 2256, Note_on_c, 1, 67, 63
1, 2276, Note_on_c, 0, 76, 0
1, 2301, Note_on_c, 1, 71, 0
1, 2301, Note_on_c, 1, 67, 0
1, 2304, Note_on_c, 0, 76, 78
1, 2304, Note_on_c, 1, 71, 79
1, 2304, Note_on_c, 1, 67, 79
1, 2352, Note_on_c, 1, 71, 0
1, 2352, Note_on_c, 1, 67, 0
1, 2352, Note_on_c, 1, 71, 63
1, 2352, Note_on_c, 1, 67, 63
1, 2371, Note_on_c, 0, 76, 0
1, 2376, Note_on_c, 0, 79, 79
1, 2388, Note_on_c, 0, 79, 0
1, 2388, Note_on_c, 0, 81, 79
1, 2397, Note_on_c, 1, 71, 0
1, 2397, Note_on_c, 1, 67, 0
1, 2400, Note_on_c, 0, 81, 0
1, 2400, Note_on_c, 0, 83, 79
1, 2400, Note_on_c, 1, 71, 63
1, 2400, Note_on_c, 1, 67, 63
1, 2445, Note_on_c, 1, 71, 0
1, 2445, Note_on_c, 1, 67, 0
1, 2448, Note_on_c, 1, 71, 63
1, 2448, Note_on_c, 1, 67, 63
1, 2467, Note_on_c, 0, 83, 0
1, 2472, Note_on_c, 0, 79, 81
1, 2484, Note_on_c, 0, 79, 0
1, 2484, Note_on_c, 0, 76, 80
1, 2493, Note_on_c, 1, 71, 0
1, 2493, Note_on_c, 1, 67, 0
1, 2496, Note_on_c, 0, 76, 0
1, 2496, Note_on_c, 0, 74, 80
1, 2496, Note_on_c, 1, 66, 63
1, 2496, Note_on_c, 1, 57, 63
1, 2541, Note_on_c, 1, 66, 0
1, 2541, Note_on_c, 1, 57, 0
1, 2544, Note_on_c, 1, 66, 63
1, 2544, Note_on_c, 1, 57, 63
1, 2585, Note_on_c, 0, 74, 0
1, 2589, Note_on_c, 1, 66, 0
1, 2589, Note_on_c, 1, 57, 0
1, 2592, Note_on_c, 0, 73, 77
1, 2592, Note_on_c, 1, 64, 63
1, 2592, Note_on_c, 1, 57, 63
1, 2605, Note_on_c, 0, 73, 0
1, 2606, Note_on_c, 0, 74, 77
1, 2619, Note_on_c, 0, 74, 0
1, 2620, Note_on_c, 0, 73, 77
1, 2633, Note_on_c, 0, 73, 0
1, 2634, Note_on_c, 0, 74, 76
1, 2637, Note_on_c, 1, 64, 0
1, 2637, Note_on_c, 1, 57, 0
1, 2640, Note_on_c, 1, 64, 63
1, 2640, Note_on_c, 1, 57, 63
1, 2647, Note_on_c, 0, 74, 0
1, 2648, Note_on_c, 0, 73, 76
1, 2661, Note_on_c, 0, 73, 0
1, 2662, Note_on_c, 0, 71, 76
1, 2674, Note_on_c, 0, 71, 0
1, 2675, Note_on_c, 0, 73, 75
1, 2685, Note_on_c, 1, 64, 0
1, 2685, Note_on_c, 1, 57, 0
1, 2687, Note_on_c, 0, 73, 0
1, 2688, Note_on_c, 0, 74, 75
1, 2688, Note_on_c, 1, 66, 63
1, 2688, Note_on_c, 1, 62, 63
1, 2711, Note_on_c, 0, 74, 0
1, 2712, Note_on_c, 0, 76, 77
1, 2733, Note_on_c, 1, 66, 0
1, 2733, Note_on_c, 1, 62, 0
1, 2735, Note_on_c, 0, 76, 0
1, 2736, Note_on_c, 0, 78, 79
1, 2736, Note_on_c, 1, 66, 63
1, 2736, Note_on_c, 1, 62, 63
1, 2759, Note_on_c, 0, 78, 0
1, 2760, Note_on_c, 0, 79, 81
1, 2781, Note_on_c, 1, 66, 0
1, 2781, Note_on_c, 1, 62, 0
1, 2783, Note_on_c, 0, 79, 0
1, 2784, Note_on_c, 0, 81, 79
1, 2784, Note_on_c, 1, 66, 63
1, 2784, Note_on_c, 1, 62, 63
1, 2807, Note_on_c, 0, 81, 0
1, 2808, Note_on_c, 0, 78, 78
1, 2829, Note_on_c, 1, 66, 0
1, 2829, Note_on_c, 1, 62, 0
1, 2831, Note_on_c, 0, 78, 0
1, 2832, Note_on_c, 0, 76, 76
1, 2832, Note_on_c, 1, 66, 63
1, 2832, Note_on_c, 1, 62, 63
1, 2855, Note_on_c, 0, 76, 0
1, 2856, Note_on_c, 0, 74, 75
1, 2877, Note_on_c, 1, 66, 0
1, 2877, Note_on_c, 1, 62, 0
1, 2879, Note_on_c, 0, 74, 0
1, 2880, Note_on_c, 0, 73, 75
1, 2880, Note_on_c, 1, 67, 63
1, 2880, Note_on_c, 1, 62, 63
1, 2903, Note_on_c, 0, 73, 0
1, 2904, Note_on_c, 0, 74, 76
1, 2925, Note_on_c, 1, 67, 0
1, 2925, Note_on_c, 1, 62, 0
1, 2927, Note_on_c, 0, 74, 0
1, 2928, Note_on_c, 0, 76, 78
1, 2928, Note_on_c, 1, 67, 63
1, 2928, Note_on_c, 1, 62, 63
1, 2951, Note_on_c, 0, 76, 0
1, 2952, Note_on_c, 0, 78, 79
1, 2973, Note_on_c, 1, 67, 0
1, 2973, Note_on_c, 1, 62, 0
1, 2975, Note_on_c, 0, 78, 0
1, 2976, Note_on_c, 0, 79, 81
1, 2976, Note_on_c, 1, 67, 63
1, 2976, Note_on_c, 1, 62, 63
1, 2999, Note_on_c, 0, 79, 0
1, 3000, Note_on_c, 0, 76, 79
1, 3021, Note_on_c, 1, 67, 0
1, 3021, Note_on_c, 1, 62, 0
1, 3023, Note_on_c, 0, 76, 0
1, 3024, Note_on_c, 0, 74, 78
1, 3024, Note_on_c, 1, 67, 63
1, 3024, Note_on_c, 1, 62, 63
1, 3047, Note_on_c, 0, 74, 0
1, 3048, Note_on_c, 0, 73, 76
1, 3069, Note_on_c, 1, 67, 0
1, 3069, Note_on_c, 1, 62, 0
1, 3071, Note_on_c, 0, 73, 0
1, 3072, Note_on_c, 0, 74, 75
1, 3072, Note_on_c, 1, 66, 63
1, 3072, Note_on_c, 1, 62, 63
1, 3095, Note_on_c, 0, 74, 0
1, 3096, Note_on_c, 0, 76, 77
1, 3117, Note_on_c, 1, 66, 0
1, 3117, Note_on_c, 1, 62, 0
1, 3119, Note_on_c, 0, 76, 0
1, 3120, Note_on_c, 0, 78, 79
1, 3120, Note_on_c, 1, 66, 63
1, 3120, Note_on_c, 1, 62, 63
1, 3143, Note_on_c, 0, 78, 0
1, 3144, Note_on_c, 0, 79, 81
1, 3165, Note_on_c, 1, 66, 0
1, 3165, Note_on_c, 1, 62, 0
1, 3167, Note_on_c, 0, 79, 0
1, 3168, Note_on_c, 0, 81, 79
1, 3168, Note_on_c, 1, 66, 63
1, 3168, Note_on_c, 1, 62, 63
1, 3191, Note_on_c, 0, 81, 0
1, 3192, Note_on_c, 0, 78, 78
1, 3213, Note_on_c, 1, 66, 0
1, 3213, Note_on_c, 1, 62, 0
1, 3215, Note_on_c, 0, 78, 0
1, 3216, Note_on_c, 0, 76, 77
1, 3216, Note_on_c, 1, 66, 63
1, 3216, Note_on_c, 1, 62, 63
1, 3239, Note_on_c, 0, 76, 0
1, 3240, Note_on_c, 0, 74, 76
1, 3261, Note_on_c, 1, 66, 0
1, 3261, Note_on_c, 1, 62, 0
1, 3263, Note_on_c, 0, 74, 0
1, 3264, Note_on_c, 0, 73, 75
1, 3264, Note_on_c, 1, 67, 63
1, 3264, Note_on_c, 1, 62, 63
1, 3287, Note_on_c, 0, 73, 0
1, 3288, Note_on_c, 0, 74, 76
1, 3309, Note_on_c, 1, 67, 0
1, 3309, Note_on_c, 1, 62, 0
1, 3311, Note_on_c, 0, 74, 0
1, 3312, Note_on_c, 0, 76, 78
1, 3312, Note_on_c, 1, 67, 63
1, 3312, Note_on_c, 1, 62, 63
1, 3335, Note_on_c, 0, 76, 0
1, 3336, Note_on_c, 0, 78, 79
1, 3357, Note_on_c, 1, 67, 0
1, 3357, Note_on_c, 1, 62, 0
1, 3359, Note_on_c, 0, 78, 0
1, 3360, Note_on_c, 0, 79, 81
1, 3360, Note_on_c, 1, 67, 63
1, 3360, Note_on_c, 1, 62, 63
1, 3383, Note_on_c, 0, 79, 0
1, 3384, Note_on_c, 0, 76, 79
1, 3405, Note_on_c, 1, 67, 0
1, 3405, Note_on_c, 1, 62, 0
1, 3407, Note_on_c, 0, 76, 0
1, 3408, Note_on_c, 0, 74, 78
1, 3408, Note_on_c, 1, 67, 63
1, 3408, Note_on_c, 1, 62, 63
1, 3431, Note_on_c, 0, 74, 0
1, 3432, Note_on_c, 0, 73, 76
1, 3453, Note_on_c, 1, 67, 0
1, 3453, Note_on_c, 1, 62, 0
1, 3455, Note_on_c, 0, 73, 0
1, 3456, Note_on_c, 0, 74, 75
1, 3456, Note_on_c, 1, 66, 63
1, 3456, Note_on_c, 1, 62, 63
1, 3545, Note_on_c, 0, 74, 0
1, 3545, Note_on_c, 1, 66, 0
1, 3545, Note_on_c, 1, 62, 0
1, 3552, Note_on_c, 0, 85, 86
1, 3558, Note_on_c, 0, 85, 0
1, 3558, Note_on_c, 0, 86, 102
1, 3648, Note_on_c, 0, 86, 0
1, 3648, Note_on_c, 1, 50, 86
1, 3648, Note_on_c, 1, 38, 86
1, 3737, Note_on_c, 1, 50, 0
1, 3737, Note_on_c, 1, 38, 0
1, 3840, Note_on_c, 0, 67, 75
1, 3840, Note_on_c, 1, 59, 63
1, 3840, Note_on_c, 1, 55, 63
1, 3885, Note_on_c, 1, 59, 0
1, 3885, Note_on_c, 1, 55, 0
1, 3888, Note_on_c, 1, 59, 63
1, 3888, Note_on_c, 1, 55, 63
1, 3907, Note_on_c, 0, 67, 0
1, 3912, Note_on_c, 0, 71, 75
1, 3924, Note_on_c, 0, 71, 0
1, 3924, Note_on_c, 0, 69, 75
1, 3933, Note_on_c, 1, 59, 0
1, 3933, Note_on_c, 1, 55, 0
1, 3936, Note_on_c, 0, 69, 0
1, 3936, Note_on_c, 0, 67, 75
1, 3936, Note_on_c, 1, 59, 63
1, 3936, Note_on_c, 1, 55, 63
1, 3981, Note_on_c, 0, 67, 0
1, 3981, Note_on_c, 1, 59, 0
1, 3981, Note_on_c, 1, 55, 0
1, 3984, Note_on_c, 1, 59, 63
1, 3984, Note_on_c, 1, 55, 63
1, 4029, Note_on_c, 1, 59, 0
1, 4029, Note_on_c, 1, 55, 0
1, 4032, Note_on_c, 1, 59, 63
1, 4032, Note_on_c, 1, 55, 63
1, 4077, Note_on_c, 1, 59, 0
1, 4077, Note_on_c, 1, 55, 0
1, 4080, Note_on_c, 0, 62, 75
1, 4080, Note_on_c, 1, 59, 63
1, 4080, Note_on_c, 1, 55, 63
1, 4100, Note_on_c, 0, 62, 0
1, 4125, Note_on_c, 1, 59, 0
1, 4125, Note_on_c, 1, 55, 0
1, 4128, Note_on_c, 0, 67, 77
1, 4128, Note_on_c, 1, 59, 63
1, 4128, Note_on_c, 1, 55, 63
1, 4148, Note_on_c, 0, 67, 0
1, 4173, Note_on_c, 1, 59, 0
1, 4173, Note_on_c, 1, 55, 0
1, 4176, Note_on_c, 0, 71, 79
1, 4176, Note_on_c, 1, 59, 63
1, 4176, Note_on_c, 1, 55, 63
1, 4196, Note_on_c, 0, 71, 0
1, 4221, Note_on_c, 1, 59, 0
1, 4221, Note_on_c, 1, 55, 0
1, 4224, Note_on_c, 0, 71, 81
1, 4224, Note_on_c, 1, 60, 63
1, 4224, Note_on_c, 1, 55, 63
1, 4247, Note_on_c, 0, 71, 0
1, 4248, Note_on_c, 0, 69, 80
1, 4271, Note_on_c, 0, 69, 0
1, 4272, Note_on_c, 0, 67, 79
1, 4295, Note_on_c, 0, 67, 0
1, 4296, Note_on_c, 0, 69, 78
1, 4319, Note_on_c, 0, 69, 0
1, 4320, Note_on_c, 0, 67, 77
1, 4320, Note_on_c, 1, 60, 0
1, 4320, Note_on_c, 1, 59, 63
1, 4365, Note_on_c, 0, 67, 0
1, 4365, Note_on_c, 1, 59, 0
1, 4365, Note_on_c, 1, 55, 0
1, 4368, Note_on_c, 0, 74, 75
1, 4388, Note_on_c, 0, 74, 0
1, 4416, Note_on_c, 0, 74, 75
1, 4416, Note_on_c, 1, 67, 63
1, 4416, Note_on_c, 1, 65, 63
1, 4436, Note_on_c, 0, 74, 0
1, 4461, Note_on_c, 1, 67, 0
1, 4461, Note_on_c, 1, 65, 0
1, 4464, Note_on_c, 0, 74, 75
1, 4464, Note_on_c, 1, 67, 63
1, 4464, Note_on_c, 1, 65, 63
1, 4484, Note_on_c, 0, 74, 0
1, 4509, Note_on_c, 1, 67, 0
1, 4509, Note_on_c, 1, 65, 0
1, 4512, Note_on_c, 0, 74, 76
1, 4512, Note_on_c, 1, 67, 63
1, 4512, Note_on_c, 1, 65, 63
1, 4532, Note_on_c, 0, 74, 0
1, 4557, Note_on_c, 1, 67, 0
1, 4557, Note_on_c, 1, 65, 0
1, 4560, Note_on_c, 0, 74, 77
1, 4560, Note_on_c, 1, 67, 63
1, 4560, Note_on_c, 1, 65, 63
1, 4580, Note_on_c, 0, 74, 0
1, 4605, Note_on_c, 1, 67, 0
1, 4605, Note_on_c, 1, 65, 0
1, 4608, Note_on_c, 0, 74, 78
1, 4608, Note_on_c, 1, 67, 69
1, 4608, Note_on_c, 1, 64, 69
1, 4675, Note_on_c, 0, 74, 0
1, 4680, Note_on_c, 0, 76, 79
1, 4692, Note_on_c, 0, 76, 0
1, 4692, Note_on_c, 0, 74, 79
1, 4704, Note_on_c, 0, 74, 0
1, 4704, Note_on_c, 0, 72, 80
1, 4741, Note_on_c, 1, 67, 0
1, 4741, Note_on_c, 1, 64, 0
1, 4749, Note_on_c, 0, 72, 0
1, 4752, Note_on_c, 0, 71, 81
1, 4752, Note_on_c, 1, 65, 75
1, 4752, Note_on_c, 1, 62, 75
1, 4797, Note_on_c, 0, 71, 0
1, 4797, Note_on_c, 1, 65, 0
1, 4797, Note_on_c, 1, 62, 0
1, 4800, Note_on_c, 0, 69, 81
1, 4800, Note_on_c, 1, 64, 77
1, 4800, Note_on_c, 1, 60, 77
1, 4820, Note_on_c, 0, 69, 0
1, 4848, Note_on_c, 0, 81, 97
1, 4889, Note_on_c, 1, 64, 0
1, 4889, Note_on_c, 1, 60, 0
1, 4896, Note_on_c, 1, 64, 81
1, 4896, Note_on_c, 1, 61, 81
1, 4944, Note_on_c, 0, 81, 0
1, 4944, Note_on_c, 0, 79, 81
1, 4985, Note_on_c, 1, 64, 0
1, 4985, Note_on_c, 1, 61, 0
1, 4989, Note_on_c, 0, 79, 0
1, 4992, Note_on_c, 0, 79, 81
1, 4992, Note_on_c, 1, 62, 81
1, 5015, Note_on_c, 0, 79, 0
1, 5016, Note_on_c, 0, 78, 81
1, 5039, Note_on_c, 0, 78, 0
1, 5040, Note_on_c, 0, 76, 81
1, 5063, Note_on_c, 0, 76, 0
1, 5064, Note_on_c, 0, 74, 81
1, 5081, Note_on_c, 1, 62, 0
1, 5087, Note_on_c, 0, 74, 0
1, 5088, Note_on_c, 0, 74, 97
1, 5136, Note_on_c, 0, 74, 0
1, 5136, Note_on_c, 0, 74, 80
1, 5181, Note_on_c, 0, 74, 0
1, 5184, Note_on_c, 0, 74, 79
1, 5207, Note_on_c, 0, 74, 0
1, 5208, Note_on_c, 0, 76, 78
1, 5231, Note_on_c, 0, 76, 0
1, 5232, Note_on_c, 0, 72, 78
1, 5255, Note_on_c, 0, 72, 0
1, 5256, Note_on_c, 0, 74, 77
1, 5279, Note_on_c, 0, 74, 0
1, 5280, Note_on_c, 0, 71, 77
1, 5303, Note_on_c, 0, 71, 0
1, 5304, Note_on_c, 0, 72, 76
1, 5327, Note_on_c, 0, 72, 0
1, 5328, Note_on_c, 0, 69, 76
1, 5351, Note_on_c, 0, 69, 0
1, 5352, Note_on_c, 0, 71, 75
1, 5375, Note_on_c, 0, 71, 0
1, 5376, Note_on_c, 0, 67, 75
1, 5376, Note_on_c, 1, 59, 63
1, 5376, Note_on_c, 1, 55, 63
1, 5421, Note_on_c, 1, 59, 0
1, 5421, Note_on_c, 1, 55, 0
1, 5424, Note_on_c, 1, 59, 63
1, 5424, Note_on_c, 1, 55, 63
1, 5443, Note_on_c, 0, 67, 0
1, 5448, Note_on_c, 0, 71, 75
1, 5460, Note_on_c, 0, 71, 0
1, 5460, Note_on_c, 0, 69, 75
1, 5469, Note_on_c, 1, 59, 0
1, 5469, Note_on_c, 1, 55, 0
1, 5472, Note_on_c, 0, 69, 0
1, 5472, Note_on_c, 0, 67, 75
1, 5472, Note_on_c, 1, 59, 63
1, 5472, Note_on_c, 1, 55, 63
1, 5517, Note_on_c, 0, 67, 0
1, 5517, Note_on_c, 1, 59, 0
1, 5517, Note_on_c, 1, 55, 0
1, 5520, Note_on_c, 1, 59, 63
1, 5520, Note_on_c, 1, 55, 63
1, 5565, Note_on_c, 1, 59, 0
1, 5565, Note_on_c, 1, 55, 0
1, 5568, Note_on_c, 1, 59, 63
1, 5568, Note_on_c, 1, 55, 63
1, 5613, Note_on_c, 1, 59, 0
1, 5613, Note_on_c, 1, 55, 0
1, 5616, Note_on_c, 0, 62, 75
1, 5616, Note_on_c, 1, 59, 63
1, 5616, Note_on_c, 1, 55, 63
1, 5636, Note_on_c, 0, 62, 0
1, 5661, Note_on_c, 1, 59, 0
1, 5661, Note_on_c, 1, 55, 0
1, 5664, Note_on_c, 0, 67, 77
1, 5664, Note_on_c, 1, 59, 63
1, 5664, Note_on_c, 1, 55, 63
1, 5684, Note_on_c, 0, 67, 0
1, 5709, Note_on_c, 1, 59, 0
1, 5709, Note_on_c, 1, 55, 0
1, 5712, Note_on_c, 0, 71, 79
1, 5712, Note_on_c, 1, 59, 63
1, 5712, Note_on_c, 1, 55, 63
1, 5732, Note_on_c, 0, 71, 0
1, 5757, Note_on_c, 1, 59, 0
1, 5757, Note_on_c, 1, 55, 0
1, 5760, Note_on_c, 0, 71, 81
1, 5760, Note_on_c, 1, 60, 63
1, 5760, Note_on_c, 1, 55, 63
1, 5783, Note_on_c, 0, 71, 0
1, 5784, Note_on_c, 0, 69, 80
1, 5807, Note_on_c, 0, 69, 0
1, 5808, Note_on_c, 0, 67, 79
1, 5831, Note_on_c, 0, 67, 0
1, 5832, Note_on_c, 0, 69, 78
1, 5855, Note_on_c, 0, 69, 0
1, 5856, Note_on_c, 0, 67, 77
1, 5856, Note_on_c, 1, 60, 0
1, 5856, Note_on_c, 1, 59, 63
1, 5901, Note_on_c, 0, 67, 0
1, 5901, Note_on_c, 1, 59, 0
1, 5901, Note_on_c, 1, 55, 0
1, 5904, Note_on_c, 0, 76, 75
1, 5924, Note_on_c, 0, 76, 0
1, 5952, Note_on_c, 0, 76, 75
1, 5952, Note_on_c, 1, 71, 63
1, 5952, Note_on_c, 1, 67, 63
1, 5972, Note_on_c, 0, 76, 0
1, 5997, Note_on_c, 1, 71, 0
1, 5997, Note_on_c, 1, 67, 0
1, 6000, Note_on_c, 0, 76, 75
1, 6000, Note_on_c, 1, 71, 63
1, 6000, Note_on_c, 1, 67, 63
1, 6020, Note_on_c, 0, 76, 0
1, 6045, Note_on_c, 1, 71, 0
1, 6045, Note_on_c, 1, 67, 0
1, 6048, Note_on_c, 0, 76, 76
1, 6048, Note_on_c, 1, 71, 63
1, 6048, Note_on_c, 1, 67, 63
1, 6068, Note_on_c, 0, 76, 0
1, 6093, Note_on_c, 1, 71, 0
1, 6093, Note_on_c, 1, 67, 0
1, 6096, Note_on_c, 0, 76, 77
1, 6096, Note_on_c, 1, 71, 63
1, 6096, Note_on_c, 1, 67, 63
1, 6116, Note_on_c, 0, 76, 0
1, 6141, Note_on_c, 1, 71, 0
1, 6141, Note_on_c, 1, 67, 0
1, 6144, Note_on_c, 0, 76, 78
1, 6144, Note_on_c, 1, 71, 79
1, 6144, Note_on_c, 1, 67, 79
1, 6192, Note_on_c, 1, 71, 0
1, 6192, Note_on_c, 1, 67, 0
1, 6192, Note_on_c, 1, 71, 63
1, 6192, Note_on_c, 1, 67, 63
1, 6211, Note_on_c, 0, 76, 0
1, 6216, Note_on_c, 0, 79, 79
1, 6228, Note_on_c, 0, 79, 0
1, 6228, Note_on_c, 0, 81, 79
1, 6237, Note_on_c, 1, 71, 0
1, 6237, Note_on_c, 1, 67, 0
1, 6240, Note_on_c, 0, 81, 0
1, 6240, Note_on_c, 0, 83, 79
1, 6240, Note_on_c, 1, 71, 63
1, 6240, Note_on_c, 1, 67, 63
1, 6285, Note_on_c, 1, 71, 0
1, 6285, Note_on_c, 1, 67, 0
1, 6288, Note_on_c, 1, 71, 63
1, 6288, Note_on_c, 1, 67, 63
1, 6307, Note_on_c, 0, 83, 0
1, 6312, Note_on_c, 0, 79, 81
1, 6324, Note_on_c, 0, 79, 0
1, 6324, Note_on_c, 0, 76, 80
1, 6333, Note_on_c, 1, 71, 0
1, 6333, Note_on_c, 1, 67, 0
1, 6336, Note_on_c, 0, 76, 0
1, 6336, Note_on_c, 0, 74, 80
1, 6336, Note_on_c, 1, 66, 63
1, 6336, Note_on_c, 1, 57, 63
1, 6381, Note_on_c, 1, 66, 0
1, 6381, Note_on_c, 1, 57, 0
1, 6384, Note_on_c, 1, 66, 63
1, 6384, Note_on_c, 1, 57, 63
1, 6425, Note_on_c, 0, 74, 0
1, 6429, Note_on_c, 1, 66, 0
1, 6429, Note_on_c, 1, 57, 0
1, 6432, Note_on_c, 0, 73, 77
1, 6432, Note_on_c, 1, 64, 63
1, 6432, Note_on_c, 1, 57, 63
1, 6445, Note_on_c, 0, 73, 0
1, 6446, Note_on_c, 0, 74, 77
1, 6459, Note_on_c, 0, 74, 0
1, 6460, Note_on_c, 0, 73, 77
1, 6473, Note_on_c, 0, 73, 0
1, 6474, Note_on_c, 0, 74, 76
1, 6477, Note_on_c, 1, 64, 0
1, 6477, Note_on_c, 1, 57, 0
1, 6480, Note_on_c, 1, 64, 63
1, 6480, Note_on_c, 1, 57, 63
1, 6487, Note_on_c, 0, 74, 0
1, 6488, Note_on_c, 0, 73, 76
1, 6501, Note_on_c, 0, 73, 0
1, 6502, Note_on_c, 0, 71, 76
1, 6514, Note_on_c, 0, 71, 0
1, 6515, Note_on_c, 0, 73, 75
1, 6525, Note_on_c, 1, 64, 0
1, 6525, Note_on_c, 1, 57, 0
1, 6527, Note_on_c, 0, 73, 0
1, 6528, Note_on_c, 0, 74, 75
1, 6528, Note_on_c, 1, 66, 63
1, 6528, Note_on_c, 1, 62, 63
1, 6551, Note_on_c, 0, 74, 0
1, 6552, Note_on_c, 0, 76, 77
1, 6573, Note_on_c, 1, 66, 0
1, 6573, Note_on_c, 1, 62, 0
1, 6575, Note_on_c, 0, 76, 0
1, 6576, Note_on_c, 0, 78, 79
1, 6576, Note_on_c, 1, 66, 63
1, 6576, Note_on_c, 1, 62, 63
1, 6599, Note_on_c, 0, 78, 0
1, 6600, Note_on_c, 0, 79, 81
1, 6621, Note_on_c, 1, 66, 0
1, 6621, Note_on_c, 1, 62, 0
1, 6623, Note_on_c, 0, 79, 0
1, 6624, Note_on_c, 0, 81, 79
1, 6624, Note_on_c, 1, 66, 63
1, 6624, Note_on_c, 1, 62, 63
1, 6647, Note_on_c, 0, 81, 0
1, 6648, Note_on_c, 0, 78, 78
1, 6669, Note_on_c, 1, 66, 0
1, 6669, Note_on_c, 1, 62, 0
1, 6671, Note_on_c, 0, 78, 0
1, 6672, Note_on_c, 0, 76, 76
1, 6672, Note_on_c, 1, 66, 63
1, 6672, Note_on_c, 1, 62, 63
1, 6695, Note_on_c, 0, 76, 0
1, 6696, Note_on_c, 0, 74, 75
1, 6717, Note_on_c, 1, 66, 0
1, 6717, Note_on_c, 1, 62, 0
1, 6719, Note_on_c, 0, 74, 0
1, 6720, Note_on_c, 0, 73, 75
1, 6720, Note_on_c, 1, 67, 63
1, 6720, Note_on_c, 1, 62, 63
1, 6743, Note_on_c, 0, 73, 0
1, 6744, Note_on_c, 0, 74, 76
1, 6765, Note_on_c, 1, 67, 0
1, 6765, Note_on_c, 1, 62, 0
1, 6767, Note_on_c, 0, 74, 0
1, 6768, Note_on_c, 0, 76, 78
1, 6768, Note_on_c, 1, 67, 63
1, 6768, Note_on_c, 1, 62, 63
1, 6791, Note_on_c, 0, 76, 0
1, 6792, Note_on_c, 0, 78, 79
1, 6813, Note_on_c, 1, 67, 0
1, 6813, Note_on_c, 1, 62, 0
1, 6815, Note_on_c, 0, 78, 0
1, 6816, Note_on_c, 0, 79, 81
1, 6816, Note_on_c, 1, 67, 63
1, 6816, Note_on_c, 1, 62, 63
1, 6839, Note_on_c, 0, 79, 0
1, 6840, Note_on_c, 0, 76, 79
1, 6861, Note_on_c, 1, 67, 0
1, 6861, Note_on_c, 1, 62, 0
1, 6863, Note_on_c, 0, 76, 0
1, 6864, Note_on_c, 0, 74, 78
1, 6864, Note_on_c, 1, 67, 63
1, 6864, Note_on_c, 1, 62, 63
1, 6887, Note_on_c, 0, 74, 0
1, 6888, Note_on_c, 0, 73, 76
1, 6909, Note_on_c, 1, 67, 0
1, 6909, Note_on_c, 1, 62, 0
1, 6911, Note_on_c, 0, 73, 0
1, 6912, Note_on_c, 0, 74, 75
1, 6912, Note_on_c, 1, 66, 63
1, 6912, Note_on_c, 1, 62, 63
1, 6935, Note_on_c, 0, 74, 0
1, 6936, Note_on_c, 0, 76, 77
1, 6957, Note_on_c, 1, 66, 0
1, 6957, Note_on_c, 1, 62, 0
1, 6959, Note_on_c, 0, 76, 0
1, 6960, Note_on_c, 0, 78, 79
1, 6960, Note_on_c, 1, 66, 63
1, 6960, Note_on_c, 1, 62, 63
1, 6983, Note_on_c, 0, 78, 0
1, 6984, Note_on_c, 0, 79, 81
1, 7005, Note_on_c, 1, 66, 0
1, 7005, Note_on_c, 1, 62, 0
1, 7007, Note_on_c, 0, 79, 0
1, 7008, Note_on_c, 0, 81, 79
1, 7008, Note_on_c, 1, 66, 63
1, 7008, Note_on_c, 1, 62, 63
1, 7031, Note_on_c, 0, 81, 0
1, 7032, Note_on_c, 0, 78, 78
1, 7053, Note_on_c, 1, 66, 0
1, 7053, Note_on_c, 1, 62, 0
1, 7055, Note_on_c, 0, 78, 0
1, 7056, Note_on_c, 0, 76, 77
1, 7056, Note_on_c, 1, 66, 63
1, 7056, Note_on_c, 1, 62, 63
1, 7079, Note_on_c, 0, 76, 0
1, 7080, Note_on_c, 0, 74, 76
1, 7101, Note_on_c, 1, 66, 0
1, 7101, Note_on_c, 1, 62, 0
1, 7103, Note_on_c, 0, 74, 0
1, 7104, Note_on_c, 0, 73, 75
1, 7104, Note_on_c, 1, 67, 63
1, 7104, Note_on_c, 1, 62, 63
1, 7127, Note_on_c, 0, 73, 0
1, 7128, Note_on_c, 0, 74, 76
1, 7149, Note_on_c, 1, 67, 0
1, 7149, Note_on_c, 1, 62, 0
1, 7151, Note_on_c, 0, 74, 0
1, 7152, Note_on_c, 0, 76, 78
1, 7152, Note_on_c, 1, 67, 63
1, 7152, Note_on_c, 1, 62, 63
1, 7175, Note_on_c, 0, 76, 0
1, 7176, Note_on_c, 0, 78, 79
1, 7197, Note_on_c, 1, 67, 0
1, 7197, Note_on_c, 1, 62, 0
1, 7199, Note_on_c, 0, 78, 0
1, 7200, Note_on_c, 0, 79, 81
1, 7200, Note_on_c, 1, 67, 63
1, 7200, Note_on_c, 1, 62, 63
1, 7223, Note_on_c, 0, 79, 0
1, 7224, Note_on_c, 0, 76, 79
1, 7245, Note_on_c, 1, 67, 0
1, 7245, Note_on_c, 1, 62, 0
1, 7247, Note_on_c, 0, 76, 0
1, 7248, Note_on_c, 0, 74, 78
1, 7248, Note_on_c, 1, 67, 63
1, 7248, Note_on_c, 1, 62, 63
1, 7271, Note_on_c, 0, 74, 0
1, 7272, Note_on_c, 0, 73, 76
1, 7293, Note_on_c, 1, 67, 0
1, 7293, Note_on_c, 1, 62, 0
1, 7295, Note_on_c, 0, 73, 0
1, 7296, Note_on_c, 0, 74, 75
1, 7296, Note_on_c, 1, 66, 63
1, 7296, Note_on_c, 1, 62, 63
1, 7385, Note_on_c, 0, 74, 0
1, 7385, Note_on_c, 1, 66, 0
1, 7385, Note_on_c, 1, 62, 0
1, 7392, Note_on_c, 0, 85, 86
1, 7398, Note_on_c, 0, 85, 0
1, 7398, Note_on_c, 0, 86, 102
1, 7488, Note_on_c, 0, 86, 0
1, 7488, Note_on_c, 1, 50, 86
1, 7488, Note_on_c, 1, 38, 86
1, 7577, Note_on_c, 1, 50, 0
1, 7577, Note_on_c, 1, 38, 0
1, 7680, Note_on_c, 0, 77, 75
1, 7680, Note_on_c, 1, 62, 69
1, 7680, Note_on_c, 1, 58, 69
1, 7747, Note_on_c, 0, 77, 0
1, 7752, Note_on_c, 0, 74, 75
1, 7764, Note_on_c, 0, 74, 0
1, 7764, Note_on_c, 0, 75, 75
1, 7769, Note_on_c, 1, 62, 0
1, 7769, Note_on_c, 1, 58, 0
1, 7776, Note_on_c, 0, 75, 0
1, 7776, Note_on_c, 0, 77, 75
1, 7821, Note_on_c, 0, 77, 0
1, 7824, Note_on_c, 1, 62, 69
1, 7824, Note_on_c, 1, 58, 69
1, 7869, Note_on_c, 1, 62, 0
1, 7869, Note_on_c, 1, 58, 0
1, 7872, Note_on_c, 1, 63, 69
1, 7872, Note_on_c, 1, 60, 69
1, 7920, Note_on_c, 0, 69, 75
1, 7940, Note_on_c, 0, 69, 0
1, 7961, Note_on_c, 1, 63, 0
1, 7961, Note_on_c, 1, 60, 0
1, 7968, Note_on_c, 0, 69, 75
1, 7988, Note_on_c, 0, 69, 0
1, 8016, Note_on_c, 0, 69, 75
1, 8016, Note_on_c, 1, 63, 69
1, 8016, Note_on_c, 1, 60, 69
1, 8036, Note_on_c, 0, 69, 0
1, 8061, Note_on_c, 1, 63, 0
1, 8061, Note_on_c, 1, 60, 0
1, 8064, Note_on_c, 0, 70, 75
1, 8064, Note_on_c, 1, 65, 69
1, 8064, Note_on_c, 1, 62, 69
1, 8131, Note_on_c, 0, 70, 0
1, 8136, Note_on_c, 0, 70, 75
1, 8148, Note_on_c, 0, 70, 0
1, 8148, Note_on_c, 0, 72, 75
1, 8153, Note_on_c, 1, 65, 0
1, 8153, Note_on_c, 1, 62, 0
1, 8160, Note_on_c, 0, 72, 0
1, 8160, Note_on_c, 0, 74, 75
1, 8205, Note_on_c, 0, 74, 0
1, 8208, Note_on_c, 1, 62, 69
1, 8208, Note_on_c, 1, 58, 69
1, 8253, Note_on_c, 1, 62, 0
1, 8253, Note_on_c, 1, 58, 0
1, 8256, Note_on_c, 1, 60, 69
1, 8256, Note_on_c, 1, 57, 69
1, 8304, Note_on_c, 0, 66, 75
1, 8324, Note_on_c, 0, 66, 0
1, 8345, Note_on_c, 1, 60, 0
1, 8345, Note_on_c, 1, 57, 0
1, 8352, Note_on_c, 0, 66, 75
1, 8372, Note_on_c, 0, 66, 0
1, 8400, Note_on_c, 0, 66, 75
1, 8400, Note_on_c, 1, 60, 69
1, 8400, Note_on_c, 1, 57, 69
1, 8420, Note_on_c, 0, 66, 0
1, 8445, Note_on_c, 1, 60, 0
1, 8445, Note_on_c, 1, 57, 0
1, 8448, Note_on_c, 0, 67, 75
1, 8448, Note_on_c, 1, 62, 69
1, 8448, Note_on_c, 1, 58, 69
1, 8515, Note_on_c, 0, 67, 0
1, 8520, Note_on_c, 0, 67, 75
1, 8532, Note_on_c, 0, 67, 0
1, 8532, Note_on_c, 0, 69, 75
1, 8537, Note_on_c, 1, 62, 0
1, 8537, Note_on_c, 1, 58, 0
1, 8544, Note_on_c, 0, 69, 0
1, 8544, Note_on_c, 0, 70, 75
1, 8589, Note_on_c, 0, 70, 0
1, 8592, Note_on_c, 1, 62, 69
1, 8592, Note_on_c, 1, 58, 69
1, 8637, Note_on_c, 1, 62, 0
1, 8637, Note_on_c, 1, 58, 0
1, 8640, Note_on_c, 1, 55, 69
1, 8640, Note_on_c, 1, 51, 69
1, 8688, Note_on_c, 0, 61, 75
1, 8708, Note_on_c, 0, 61, 0
1, 8729, Note_on_c, 1, 55, 0
1, 8729, Note_on_c, 1, 51, 0
1, 8736, Note_on_c, 0, 61, 75
1, 8756, Note_on_c, 0, 61, 0
1, 8784, Note_on_c, 0, 61, 75
1, 8784, Note_on_c, 1, 55, 69
1, 8784, Note_on_c, 1, 51, 69
1, 8804, Note_on_c, 0, 61, 0
1, 8829, Note_on_c, 1, 55, 0
1, 8829, Note_on_c, 1, 51, 0
1, 8832, Note_on_c, 0, 62, 81
1, 8832, Note_on_c, 1, 54, 81
1, 8832, Note_on_c, 1, 50, 81
1, 8899, Note_on_c, 0, 62, 0
1, 8899, Note_on_c, 1, 54, 0
1, 8899, Note_on_c, 1, 50, 0
1, 8904, Note_on_c, 0, 54, 81
1, 8904, Note_on_c, 1, 42, 81
1, 8916, Note_on_c, 0, 54, 0
1, 8916, Note_on_c, 0, 55, 81
1, 8916, Note_on_c, 1, 42, 0
1, 8916, Note_on_c, 1, 43, 81
1, 8928, Note_on_c, 0, 55, 0
1, 8928, Note_on_c, 0, 57, 81
1, 8928, Note_on_c, 1, 43, 0
1, 8928, Note_on_c, 1, 45, 81
1, 8973, Note_on_c, 0, 57, 0
1, 8973, Note_on_c, 1, 45, 0
1, 8976, Note_on_c, 0, 54, 81
1, 8976, Note_on_c, 1, 42, 81
1, 9021, Note_on_c, 0, 54, 0
1, 9021, Note_on_c, 1, 42, 0
1, 9024, Note_on_c, 0, 50, 81
1, 9024, Note_on_c, 1, 38, 81
1, 9113, Note_on_c, 0, 50, 0
1, 9113, Note_on_c, 1, 38, 0
1, 9216, Note_on_c, 0, 67, 75
1, 9216, Note_on_c, 1, 59, 63
1, 9216, Note_on_c, 1, 55, 63
1, 9261, Note_on_c, 1, 59, 0
1, 9261, Note_on_c, 1, 55, 0
1, 9264, Note_on_c, 1, 59, 63
1, 9264, Note_on_c, 1, 55, 63
1, 9283, Note_on_c, 0, 67, 0
1, 9288, Note_on_c, 0, 71, 75
1, 9300, Note_on_c, 0, 71, 0
1, 9300, Note_on_c, 0, 69, 75
1, 9309, Note_on_c, 1, 59, 0
1, 9309, Note_on_c, 1, 55, 0
1, 9312, Note_on_c, 0, 69, 0
1, 9312, Note_on_c, 0, 67, 75
1, 9312, Note_on_c, 1, 59, 63
1, 9312, Note_on_c, 1, 55, 63
1, 9357, Note_on_c, 0, 67, 0
1, 9357, Note_on_c, 1, 59, 0
1, 9357, Note_on_c, 1, 55, 0
1, 9360, Note_on_c, 1, 59, 63
1, 9360, Note_on_c, 1, 55, 63
1, 9405, Note_on_c, 1, 59, 0
1, 9405, Note_on_c, 1, 55, 0
1, 9408, Note_on_c, 1, 59, 63
1, 9408, Note_on_c, 1, 55, 63
1, 9453, Note_on_c, 1, 59, 0
1, 9453, Note_on_c, 1, 55, 0
1, 9456, Note_on_c, 0, 62, 75
1, 9456, Note_on_c, 1, 59, 63
1, 9456, Note_on_c, 1, 55, 63
1, 9476, Note_on_c, 0, 62, 0
1, 9501, Note_on_c, 1, 59, 0
1, 9501, Note_on_c, 1, 55, 0
1, 9504, Note_on_c, 0, 67, 77
1, 9504, Note_on_c, 1, 59, 63
1, 9504, Note_on_c, 1, 55, 63
1, 9524, Note_on_c, 0, 67, 0
1, 9549, Note_on_c, 1, 59, 0
1, 9549, Note_on_c, 1, 55, 0
1, 9552, Note_on_c, 0, 71, 79
1, 9552, Note_on_c, 1, 59, 63
1, 9552, Note_on_c, 1, 55, 63
1, 9572, Note_on_c, 0, 71, 0
1, 9597, Note_on_c, 1, 59, 0
1, 9597, Note_on_c, 1, 55, 0
1, 9600, Note_on_c, 0, 71, 81
1, 9600, Note_on_c, 1, 60, 63
1, 9600, Note_on_c, 1, 55, 63
1, 9623, Note_on_c, 0, 71, 0
1, 9624, Note_on_c, 0, 69, 80
1, 9647, Note_on_c, 0, 69, 0
1, 9648, Note_on_c, 0, 67, 79
1, 9671, Note_on_c, 0, 67, 0
1, 9672, Note_on_c, 0, 69, 78
1, 9695, Note_on_c, 0, 69, 0
1, 9696, Note_on_c, 0, 67, 77
1, 9696, Note_on_c, 1, 60, 0
1, 9696, Note_on_c, 1, 59, 63
1, 9741, Note_on_c, 0, 67, 0
1, 9741, Note_on_c, 1, 59, 0
1, 9741, Note_on_c, 1, 55, 0
1, 9744, Note_on_c, 0, 76, 75
1, 9764, Note_on_c, 0, 76, 0
1, 9792, Note_on_c, 0, 76, 75
1, 9792, Note_on_c, 1, 74, 63
1, 9792, Note_on_c, 1, 68, 63
1, 9812, Note_on_c, 0, 76, 0
1, 9837, Note_on_c, 1, 74, 0
1, 9837, Note_on_c, 1, 68, 0
1, 9840, Note_on_c, 0, 76, 75
1, 9840, Note_on_c, 1, 74, 63
1, 9840, Note_on_c, 1, 68, 63
1, 9860, Note_on_c, 0, 76, 0
1, 9885, Note_on_c, 1, 74, 0
1, 9885, Note_on_c, 1, 68, 0
1, 9888, Note_on_c, 0, 76, 75
1, 9888, Note_on_c, 1, 74, 63
1, 9888, Note_on_c, 1, 68, 63
1, 9908, Note_on_c, 0, 76, 0
1, 9933, Note_on_c, 1, 74, 0
1, 9933, Note_on_c, 1, 68, 0
1, 9936, Note_on_c, 0, 76, 75
1, 9936, Note_on_c, 1, 74, 63
1, 9936, Note_on_c, 1, 68, 63
1, 9956, Note_on_c, 0, 76, 0
1, 9981, Note_on_c, 1, 74, 0
1, 9981, Note_on_c, 1, 68, 0
1, 9984, Note_on_c, 0, 76, 75
1, 9984, Note_on_c, 1, 72, 63
1, 9984, Note_on_c, 1, 69, 63
1, 10051, Note_on_c, 0, 76, 0
1, 10056, Note_on_c, 0, 81, 75
1, 10068, Note_on_c, 0, 81, 0
1, 10068, Note_on_c, 0, 83, 75
1, 10073, Note_on_c, 1, 72, 0
1, 10073, Note_on_c, 1, 69, 0
1, 10080, Note_on_c, 0, 83, 0
1, 10080, Note_on_c, 0, 84, 75
1, 10125, Note_on_c, 0, 84, 0
1, 10128, Note_on_c, 0, 76, 75
1, 10148, Note_on_c, 0, 76, 0
1, 10176, Note_on_c, 0, 74, 75
1, 10176, Note_on_c, 1, 72, 63
1, 10176, Note_on_c, 1, 66, 63
1, 10196, Note_on_c, 0, 74, 0
1, 10221, Note_on_c, 1, 72, 0
1, 10221, Note_on_c, 1, 66, 0
1, 10224, Note_on_c, 0, 74, 75
1, 10224, Note_on_c, 1, 72, 63
1, 10224, Note_on_c, 1, 66, 63
1, 10244, Note_on_c, 0, 74, 0
1, 10269, Note_on_c, 1, 72, 0
1, 10269, Note_on_c, 1, 66, 0
1, 10272, Note_on_c, 0, 74, 75
1, 10272, Note_on_c, 1, 72, 63
1, 10272, Note_on_c, 1, 66, 63
1, 10292, Note_on_c, 0, 74, 0
1, 10317, Note_on_c, 1, 72, 0
1, 10317, Note_on_c, 1, 66, 0
1, 10320, Note_on_c, 0, 74, 75
1, 10320, Note_on_c, 1, 72, 63
1, 10320, Note_on_c, 1, 66, 63
1, 10340, Note_on_c, 0, 74, 0
1, 10365, Note_on_c, 1, 72, 0
1, 10365, Note_on_c, 1, 66, 0
1, 10368, Note_on_c, 0, 74, 75
1, 10368, Note_on_c, 1, 71, 63
1, 10368, Note_on_c, 1, 67, 63
1, 10435, Note_on_c, 0, 74, 0
1, 10440, Note_on_c, 0, 79, 75
1, 10452, Note_on_c, 0, 79, 0
1, 10452, Note_on_c, 0, 81, 75
1, 10457, Note_on_c, 1, 71, 0
1, 10457, Note_on_c, 1, 67, 0
1, 10464, Note_on_c, 0, 81, 0
1, 10464, Note_on_c, 0, 83, 75
1, 10509, Note_on_c, 0, 83, 0
1, 10920, Note_on_c, 0, 83, 63
1, 10932, Note_on_c, 0, 83, 0
1, 10932, Note_on_c, 0, 81, 63
1, 10944, Note_on_c, 0, 81, 0
1, 10944, Note_on_c, 0, 79, 63
1, 10964, Note_on_c, 0, 79, 0
1, 11016, Note_on_c, 0, 79, 63
1, 11028, Note_on_c, 0, 79, 0
1, 11028, Note_on_c, 0, 78, 63
1, 11040, Note_on_c, 0, 78, 0
1, 11040, Note_on_c, 0, 76, 63
1, 11060, Note_on_c, 0, 76, 0
1, 11112, Note_on_c, 0, 76, 63
1, 11124, Note_on_c, 0, 76, 0
1, 11124, Note_on_c, 0, 74, 63
1, 11136, Note_on_c, 0, 74, 0
1, 11136, Note_on_c, 0, 72, 63
1, 11136, Note_on_c, 1, 67, 63
1, 11136, Note_on_c, 1, 64, 63
1, 11175, Note_on_c, 0, 72, 0
1, 11225, Note_on_c, 1, 67, 0
1, 11225, Note_on_c, 1, 64, 0
1, 11304, Note_on_c, 0, 75, 63
1, 11304, Note_on_c, 1, 67, 63
1, 11316, Note_on_c, 0, 75, 0
1, 11316, Note_on_c, 0, 74, 63
1, 11316, Note_on_c, 1, 67, 0
1, 11316, Note_on_c, 1, 65, 63
1, 11328, Note_on_c, 0, 74, 0
1, 11328, Note_on_c, 0, 72, 63
1, 11328, Note_on_c, 1, 65, 0
1, 11328, Note_on_c, 1, 63, 63
1, 11348, Note_on_c, 0, 72, 0
1, 11376, Note_on_c, 0, 72, 63
1, 11396, Note_on_c, 0, 72, 0
1, 11417, Note_on_c, 1, 63, 0
1, 11424, Note_on_c, 0, 72, 63
1, 11444, Note_on_c, 0, 72, 0
1, 11472, Note_on_c, 0, 72, 63
1, 11492, Note_on_c, 0, 72, 0
1, 11496, Note_on_c, 1, 69, 63
1, 11508, Note_on_c, 1, 69, 0
1, 11508, Note_on_c, 1, 67, 63
1, 11520, Note_on_c, 0, 72, 63
1, 11520, Note_on_c, 1, 67, 0
1, 11520, Note_on_c, 1, 66, 75
1, 11520, Note_on_c, 1, 62, 75
1, 11587, Note_on_c, 0, 72, 0
1, 11592, Note_on_c, 0, 74, 65
1, 11604, Note_on_c, 0, 74, 0
1, 11604, Note_on_c, 0, 72, 65
1, 11609, Note_on_c, 1, 66, 0
1, 11609, Note_on_c, 1, 62, 0
1, 11616, Note_on_c, 0, 72, 0
1, 11616, Note_on_c, 0, 71, 66
1, 11616, Note_on_c, 1, 67, 76
1, 11616, Note_on_c, 1, 64, 76
1, 11661, Note_on_c, 0, 71, 0
1, 11664, Note_on_c, 0, 71, 67
1, 11705, Note_on_c, 1, 67, 0
1, 11705, Note_on_c, 1, 64, 0
1, 11709, Note_on_c, 0, 71, 0
1, 11712, Note_on_c, 0, 69, 69
1, 11712, Note_on_c, 1, 64, 78
1, 11712, Note_on_c, 1, 60, 78
1, 11760, Note_on_c, 0, 69, 0
1, 11760, Note_on_c, 0, 76, 70
1, 11801, Note_on_c, 1, 64, 0
1, 11801, Note_on_c, 1, 60, 0
1, 11805, Note_on_c, 0, 76, 0
1, 11808, Note_on_c, 0, 74, 72
1, 11808, Note_on_c, 1, 62, 79
1, 11856, Note_on_c, 0, 74, 0
1, 11856, Note_on_c, 0, 66, 73
1, 11897, Note_on_c, 1, 62, 0
1, 11901, Note_on_c, 0, 66, 0
1, 11904, Note_on_c, 0, 67, 75
1, 11904, Note_on_c, 1, 59, 69
1, 11904, Note_on_c, 1, 55, 69
1, 11927, Note_on_c, 0, 67, 0
1, 11928, Note_on_c, 0, 69, 77
1, 11949, Note_on_c, 1, 59, 0
1, 11949, Note_on_c, 1, 55, 0
1, 11951, Note_on_c, 0, 69, 0
1, 11952, Note_on_c, 0, 71, 79
1, 11952, Note_on_c, 1, 59, 69
1, 11952, Note_on_c, 1, 55, 69
1, 11975, Note_on_c, 0, 71, 0
1, 11976, Note_on_c, 0, 72, 81
1, 11997, Note_on_c, 1, 59, 0
1, 11997, Note_on_c, 1, 55, 0
1, 11999, Note_on_c, 0, 72, 0
1, 12000, Note_on_c, 0, 74, 79
1, 12000, Note_on_c, 1, 59, 69
1, 12000, Note_on_c, 1, 55, 69
1, 12023, Note_on_c, 0, 74, 0
1, 12024, Note_on_c, 0, 71, 78
1, 12045, Note_on_c, 1, 59, 0
1, 12045, Note_on_c, 1, 55, 0
1, 12047, Note_on_c, 0, 71, 0
1, 12048, Note_on_c, 0, 69, 76
1, 12048, Note_on_c, 1, 59, 69
1, 12048, Note_on_c, 1, 55, 69
1, 12071, Note_on_c, 0, 69, 0
1, 12072, Note_on_c, 0, 67, 75
1, 12093, Note_on_c, 1, 59, 0
1, 12093, Note_on_c, 1, 55, 0
1, 12095, Note_on_c, 0, 67, 0
1, 12096, Note_on_c, 0, 66, 75
1, 12096, Note_on_c, 1, 60, 69
1, 12096, Note_on_c, 1, 55, 69
1, 12119, Note_on_c, 0, 66, 0
1, 12120, Note_on_c, 0, 67, 76
1, 12141, Note_on_c, 1, 60, 0
1, 12141, Note_on_c, 1, 55, 0
1, 12143, Note_on_c, 0, 67, 0
1, 12144, Note_on_c, 0, 69, 78
1, 12144, Note_on_c, 1, 60, 69
1, 12144, Note_on_c, 1, 55, 69
1, 12167, Note_on_c, 0, 69, 0
1, 12168, Note_on_c, 0, 71, 79
1, 12189, Note_on_c, 1, 60, 0
1, 12189, Note_on_c, 1, 55, 0
1, 12191, Note_on_c, 0, 71, 0
1, 12192, Note_on_c, 0, 72, 81
1, 12192, Note_on_c, 1, 60, 69
1, 12192, Note_on_c, 1, 55, 69
1, 12215, Note_on_c, 0, 72, 0
1, 12216, Note_on_c, 0, 69, 79
1, 12237, Note_on_c, 1, 60, 0
1, 12237, Note_on_c, 1, 55, 0
1, 12239, Note_on_c, 0, 69, 0
1, 12240, Note_on_c, 0, 67, 78
1, 12240, Note_on_c, 1, 60, 69
1, 12240, Note_on_c, 1, 55, 69
1, 12263, Note_on_c, 0, 67, 0
1, 12264, Note_on_c, 0, 66, 76
1, 12285, Note_on_c, 1, 60, 0
1, 12285, Note_on_c, 1, 55, 0
1, 12287, Note_on_c, 0, 66, 0
1, 12288, Note_on_c, 0, 67, 75
1, 12288, Note_on_c, 1, 59, 69
1, 12288, Note_on_c, 1, 55, 69
1, 12311, Note_on_c, 0, 67, 0
1, 12312, Note_on_c, 0, 69, 76
1, 12333, Note_on_c, 1, 59, 0
1, 12333, Note_on_c, 1, 55, 0
1, 12335, Note_on_c, 0, 69, 0
1, 12336, Note_on_c, 0, 71, 78
1, 12336, Note_on_c, 1, 59, 69
1, 12336, Note_on_c, 1, 55, 69
1, 12359, Note_on_c, 0, 71, 0
1, 12360, Note_on_c, 0, 72, 79
1, 12381, Note_on_c, 1, 59, 0
1, 12381, Note_on_c, 1, 55, 0
1, 12383, Note_on_c, 0, 72, 0
1, 12384, Note_on_c, 0, 74, 81
1, 12384, Note_on_c, 1, 59, 69
1, 12384, Note_on_c, 1, 55, 69
1, 12407, Note_on_c, 0, 74, 0
1, 12408, Note_on_c, 0, 71, 79
1, 12429, Note_on_c, 1, 59, 0
1, 12429, Note_on_c, 1, 55, 0
1, 12431, Note_on_c, 0, 71, 0
1, 12432, Note_on_c, 0, 69, 78
1, 12432, Note_on_c, 1, 59, 69
1, 12432, Note_on_c, 1, 55, 69
1, 12455, Note_on_c, 0, 69, 0
1, 12456, Note_on_c, 0, 67, 76
1, 12477, Note_on_c, 1, 59, 0
1, 12477, Note_on_c, 1, 55, 0
1, 12479, Note_on_c, 0, 67, 0
1, 12480, Note_on_c, 0, 66, 75
1, 12480, Note_on_c, 1, 60, 69
1, 12480, Note_on_c, 1, 55, 69
1, 12503, Note_on_c, 0, 66, 0
1, 12504, Note_on_c, 0, 67, 76
1, 12525, Note_on_c, 1, 60, 0
1, 12525, Note_on_c, 1, 55, 0
1, 12527, Note_on_c, 0, 67, 0
1, 12528, Note_on_c, 0, 69, 78
1, 12528, Note_on_c, 1, 60, 69
1, 12528, Note_on_c, 1, 55, 69
1, 12551, Note_on_c, 0, 69, 0
1, 12552, Note_on_c, 0, 71, 79
1, 12573, Note_on_c, 1, 60, 0
1, 12573, Note_on_c, 1, 55, 0
1, 12575, Note_on_c, 0, 71, 0
1, 12576, Note_on_c, 0, 72, 81
1, 12576, Note_on_c, 1, 60, 69
1, 12576, Note_on_c, 1, 55, 69
1, 12599, Note_on_c, 0, 72, 0
1, 12600, Note_on_c, 0, 69, 79
1, 12621, Note_on_c, 1, 60, 0
1, 12621, Note_on_c, 1, 55, 0
1, 12623, Note_on_c, 0, 69, 0
1, 12624, Note_on_c, 0, 67, 78
1, 12624, Note_on_c, 1, 60, 69
1, 12624, Note_on_c, 1, 55, 69
1, 12647, Note_on_c, 0, 67, 0
1, 12648, Note_on_c, 0, 66, 76
1, 12669, Note_on_c, 1, 60, 0
1, 12669, Note_on_c, 1, 55, 0
1, 12671, Note_on_c, 0, 66, 0
1, 12672, Note_on_c, 0, 67, 75
1, 12672, Note_on_c, 1, 59, 69
1, 12672, Note_on_c, 1, 55, 69
1, 12761, Note_on_c, 0, 67, 0
1, 12761, Note_on_c, 1, 59, 0
1, 12761, Note_on_c, 1, 55, 0
1, 12768, Note_on_c, 0, 78, 86
1, 12774, Note_on_c, 0, 78, 0
1, 12774, Note_on_c, 0, 79, 102
1, 12864, Note_on_c, 0, 79, 0
1, 12864, Note_on_c, 1, 43, 86
1, 12864, Note_on_c, 1, 31, 86
1, 12953, Note_on_c, 1, 43, 0
1, 12953, Note_on_c, 1, 31, 0
1, 13056, Note_on_c, 0, 77, 75
1, 13056, Note_on_c, 1, 62, 69
1, 13056, Note_on_c, 1, 58, 69
1, 13123, Note_on_c, 0, 77, 0
1, 13128, Note_on_c, 0, 74, 75
1, 13140, Note_on_c, 0, 74, 0
1, 13140, Note_on_c, 0, 75, 75
1, 13145, Note_on_c, 1, 62, 0
1, 13145, Note_on_c, 1, 58, 0
1, 13152, Note_on_c, 0, 75, 0
1, 13152, Note_on_c, 0, 77, 75
1, 13197, Note_on_c, 0, 77, 0
1, 13200, Note_on_c, 1, 62, 69
1, 13200, Note_on_c, 1, 58, 69
1, 13245, Note_on_c, 1, 62, 0
1, 13245, Note_on_c, 1, 58, 0
1, 13248, Note_on_c, 1, 63, 69
1, 13248, Note_on_c, 1, 60, 69
1, 13296, Note_on_c, 0, 69, 75
1, 13316, Note_on_c, 0, 69, 0
1, 13337, Note_on_c, 1, 63, 0
1, 13337, Note_on_c, 1, 60, 0
1, 13344, Note_on_c, 0, 69, 75
1, 13364, Note_on_c, 0, 69, 0
1, 13392, Note_on_c, 0, 69, 75
1, 13392, Note_on_c, 1, 63, 69
1, 13392, Note_on_c, 1, 60, 69
1, 13412, Note_on_c, 0, 69, 0
1, 13437, Note_on_c, 1, 63, 0
1, 13437, Note_on_c, 1, 60, 0
1, 13440, Note_on_c, 0, 70, 75
1, 13440, Note_on_c, 1, 65, 69
1, 13440, Note_on_c, 1, 62, 69
1, 13507, Note_on_c, 0, 70, 0
1, 13512, Note_on_c, 0, 70, 75
1, 13524, Note_on_c, 0, 70, 0
1, 13524, Note_on_c, 0, 72, 75
1, 13529, Note_on_c, 1, 65, 0
1, 13529, Note_on_c, 1, 62, 0
1, 13536, Note_on_c, 0, 72, 0
1, 13536, Note_on_c, 0, 74, 75
1, 13581, Note_on_c, 0, 74, 0
1, 13584, Note_on_c, 1, 62, 69
1, 13584, Note_on_c, 1, 58, 69
1, 13629, Note_on_c, 1, 62, 0
1, 13629, Note_on_c, 1, 58, 0
1, 13632, Note_on_c, 1, 60, 69
1, 13632, Note_on_c, 1, 57, 69
1, 13680, Note_on_c, 0, 66, 75
1, 13700, Note_on_c, 0, 66, 0
1, 13721, Note_on_c, 1, 60, 0
1, 13721, Note_on_c, 1, 57, 0
1, 13728, Note_on_c, 0, 66, 75
1, 13748, Note_on_c, 0, 66, 0
1, 13776, Note_on_c, 0, 66, 75
1, 13776, Note_on_c, 1, 60, 69
1, 13776, Note_on_c, 1, 57, 69
1, 13796, Note_on_c, 0, 66, 0
1, 13821, Note_on_c, 1, 60, 0
1, 13821, Note_on_c, 1, 57, 0
1, 13824, Note_on_c, 0, 67, 75
1, 13824, Note_on_c, 1, 62, 69
1, 13824, Note_on_c, 1, 58, 69
1, 13891, Note_on_c, 0, 67, 0
1, 13896, Note_on_c, 0, 67, 75
1, 13908, Note_on_c, 0, 67, 0
1, 13908, Note_on_c, 0, 69, 75
1, 13913, Note_on_c, 1, 62, 0
1, 13913, Note_on_c, 1, 58, 0
1, 13920, Note_on_c, 0, 69, 0
1, 13920, Note_on_c, 0, 70, 75
1, 13965, Note_on_c, 0, 70, 0
1, 13968, Note_on_c, 1, 62, 69
1, 13968, Note_on_c, 1, 58, 69
1, 14013, Note_on_c, 1, 62, 0
1, 14013, Note_on_c, 1, 58, 0
1, 14016, Note_on_c, 1, 55, 69
1, 14016, Note_on_c, 1, 51, 69
1, 14064, Note_on_c, 0, 61, 75
1, 14084, Note_on_c, 0, 61, 0
1, 14105, Note_on_c, 1, 55, 0
1, 14105, Note_on_c, 1, 51, 0
1, 14112, Note_on_c, 0, 61, 75
1, 14132, Note_on_c, 0, 61, 0
1, 14160, Note_on_c, 0, 61, 75
1, 14160, Note_on_c, 1, 55, 69
1, 14160, Note_on_c, 1, 51, 69
1, 14180, Note_on_c, 0, 61, 0
1, 14205, Note_on_c, 1, 55, 0
1, 14205, Note_on_c, 1, 51, 0
1, 14208, Note_on_c, 0, 62, 81
1, 14208, Note_on_c, 1, 54, 81
1, 14208, Note_on_c, 1, 50, 81
1, 14275, Note_on_c, 0, 62, 0
1, 14275, Note_on_c, 1, 54, 0
1, 14275, Note_on_c, 1, 50, 0
1, 14280, Note_on_c, 0, 54, 81
1, 14280, Note_on_c, 1, 42, 81
1, 14292, Note_on_c, 0, 54, 0
1, 14292, Note_on_c, 0, 55, 81
1, 14292, Note_on_c, 1, 42, 0
1, 14292, Note_on_c, 1, 43, 81
1, 14304, Note_on_c, 0, 55, 0
1, 14304, Note_on_c, 0, 57, 81
1, 14304, Note_on_c, 1, 43, 0
1, 14304, Note_on_c, 1, 45, 81
1, 14349, Note_on_c, 0, 57, 0
1, 14349, Note_on_c, 1, 45, 0
1, 14352, Note_on_c, 0, 54, 81
1, 14352, Note_on_c, 1, 42, 81
1, 14397, Note_on_c, 0, 54, 0
1, 14397, Note_on_c, 1, 42, 0
1, 14400, Note_on_c, 0, 50, 81
1, 14400, Note_on_c, 1, 38, 81
1, 14489, Note_on_c, 0, 50, 0
1, 14489, Note_on_c, 1, 38, 0
1, 14592, Note_on_c, 0, 67, 75
1, 14592, Note_on_c, 1, 59, 63
1, 14592, Note_on_c, 1, 55, 63
1, 14637, Note_on_c, 1, 59, 0
1, 14637, Note_on_c, 1, 55, 0
1, 14640, Note_on_c, 1, 59, 63
1, 14640, Note_on_c, 1, 55, 63
1, 14659, Note_on_c, 0, 67, 0
1, 14664, Note_on_c, 0, 71, 75
1, 14676, Note_on_c, 0, 71, 0
1, 14676, Note_on_c, 0, 69, 75
1, 14685, Note_on_c, 1, 59, 0
1, 14685, Note_on_c, 1, 55, 0
1, 14688, Note_on_c, 0, 69, 0
1, 14688, Note_on_c, 0, 67, 75
1, 14688, Note_on_c, 1, 59, 63
1, 14688, Note_on_c, 1, 55, 63
1, 14733, Note_on_c, 0, 67, 0
1, 14733, Note_on_c, 1, 59, 0
1, 14733, Note_on_c, 1, 55, 0
1, 14736, Note_on_c, 1, 59, 63
1, 14736, Note_on_c, 1, 55, 63
1, 14781, Note_on_c, 1, 59, 0
1, 14781, Note_on_c, 1, 55, 0
1, 14784, Note_on_c, 1, 59, 63
1, 14784, Note_on_c, 1, 55, 63
1, 14829, Note_on_c, 1, 59, 0
1, 14829, Note_on_c, 1, 55, 0
1, 14832, Note_on_c, 0, 62, 75
1, 14832, Note_on_c, 1, 59, 63
1, 14832, Note_on_c, 1, 55, 63
1, 14852, Note_on_c, 0, 62, 0
1, 14877, Note_on_c, 1, 59, 0
1, 14877, Note_on_c, 1, 55, 0
1, 14880, Note_on_c, 0, 67, 77
1, 14880, Note_on_c, 1, 59, 63
1, 14880, Note_on_c, 1, 55, 63
1, 14900, Note_on_c, 0, 67, 0
1, 14925, Note_on_c, 1, 59, 0
1, 14925, Note_on_c, 1, 55, 0
1, 14928, Note_on_c, 0, 71, 79
1, 14928, Note_on_c, 1, 59, 63
1, 14928, Note_on_c, 1, 55, 63
1, 14948, Note_on_c, 0, 71, 0
1, 14973, Note_on_c, 1, 59, 0
1, 14973, Note_on_c, 1, 55, 0
1, 14976, Note_on_c, 0, 71, 81
1, 14976, Note_on_c, 1, 60, 63
1, 14976, Note_on_c, 1, 55, 63
1, 14999, Note_on_c, 0, 71, 0
1, 15000, Note_on_c, 0, 69, 80
1, 15023, Note_on_c, 0, 69, 0
1, 15024, Note_on_c, 0, 67, 79
1, 15047, Note_on_c, 0, 67, 0
1, 15048, Note_on_c, 0, 69, 78
1, 15071, Note_on_c, 0, 69, 0
1, 15072, Note_on_c, 0, 67, 77
1, 15072, Note_on_c, 1, 60, 0
1, 15072, Note_on_c, 1, 59, 63
1, 15117, Note_on_c, 0, 67, 0
1, 15117, Note_on_c, 1, 59, 0
1, 15117, Note_on_c, 1, 55, 0
1, 15120, Note_on_c, 0, 76, 75
1, 15140, Note_on_c, 0, 76, 0
1, 15168, Note_on_c, 0, 76, 75
1, 15168, Note_on_c, 1, 74, 63
1, 15168, Note_on_c, 1, 68, 63
1, 15188, Note_on_c, 0, 76, 0
1, 15213, Note_on_c, 1, 74, 0
1, 15213, Note_on_c, 1, 68, 0
1, 15216, Note_on_c, 0, 76, 75
1, 15216, Note_on_c, 1, 74, 63
1, 15216, Note_on_c, 1, 68, 63
1, 15236, Note_on_c, 0, 76, 0
1, 15261, Note_on_c, 1, 74, 0
1, 15261, Note_on_c, 1, 68, 0
1, 15264, Note_on_c, 0, 76, 75
1, 15264, Note_on_c, 1, 74, 63
1, 15264, Note_on_c, 1, 68, 63
1, 15284, Note_on_c, 0, 76, 0
1, 15309, Note_on_c, 1, 74, 0
1, 15309, Note_on_c, 1, 68, 0
1, 15312, Note_on_c, 0, 76, 75
1, 15312, Note_on_c, 1, 74, 63
1, 15312, Note_on_c, 1, 68, 63
1, 15332, Note_on_c, 0, 76, 0
1, 15357, Note_on_c, 1, 74, 0
1, 15357, Note_on_c, 1, 68, 0
1, 15360, Note_on_c, 0, 76, 75
1, 15360, Note_on_c, 1, 72, 63
1, 15360, Note_on_c, 1, 69, 63
1, 15427, Note_on_c, 0, 76, 0
1, 15432, Note_on_c, 0, 81, 75
1, 15444, Note_on_c, 0, 81, 0
1, 15444, Note_on_c, 0, 83, 75
1, 15449, Note_on_c, 1, 72, 0
1, 15449, Note_on_c, 1, 69, 0
1, 15456, Note_on_c, 0, 83, 0
1, 15456, Note_on_c, 0, 84, 75
1, 15501, Note_on_c, 0, 84, 0
1, 15504, Note_on_c, 0, 76, 75
1, 15524, Note_on_c, 0, 76, 0
1, 15552, Note_on_c, 0, 74, 75
1, 15552, Note_on_c, 1, 72, 63
1, 15552, Note_on_c, 1, 66, 63
1, 15572, Note_on_c, 0, 74, 0
1, 15597, Note_on_c, 1, 72, 0
1, 15597, Note_on_c, 1, 66, 0
1, 15600, Note_on_c, 0, 74, 75
1, 15600, Note_on_c, 1, 72, 63
1, 15600, Note_on_c, 1, 66, 63
1, 15620, Note_on_c, 0, 74, 0
1, 15645, Note_on_c, 1, 72, 0
1, 15645, Note_on_c, 1, 66, 0
1, 15648, Note_on_c, 0, 74, 75
1, 15648, Note_on_c, 1, 72, 63
1, 15648, Note_on_c, 1, 66, 63
1, 15668, Note_on_c, 0, 74, 0
1, 15693, Note_on_c, 1, 72, 0
1, 15693, Note_on_c, 1, 66, 0
1, 15696, Note_on_c, 0, 74, 75
1, 15696, Note_on_c, 1, 72, 63
1, 15696, Note_on_c, 1, 66, 63
1, 15716, Note_on_c, 0, 74, 0
1, 15741, Note_on_c, 1, 72, 0
1, 15741, Note_on_c, 1, 66, 0
1, 15744, Note_on_c, 0, 74, 75
1, 15744, Note_on_c, 1, 71, 63
1, 15744, Note_on_c, 1, 67, 63
1, 15811, Note_on_c, 0, 74, 0
1, 15816, Note_on_c, 0, 79, 75
1, 15828, Note_on_c, 0, 79, 0
1, 15828, Note_on_c, 0, 81, 75
1, 15833, Note_on_c, 1, 71, 0
1, 15833, Note_on_c, 1, 67, 0
1, 15840, Note_on_c, 0, 81, 0
1, 15840, Note_on_c, 0, 83, 75
1, 15885, Note_on_c, 0, 83, 0
1, 16296, Note_on_c, 0, 83, 63
1, 16308, Note_on_c, 0, 83, 0
1, 16308, Note_on_c, 0, 81, 63
1, 16320, Note_on_c, 0, 81, 0
1, 16320, Note_on_c, 0, 79, 63
1, 16340, Note_on_c, 0, 79, 0
1, 16392, Note_on_c, 0, 79, 63
1, 16404, Note_on_c, 0, 79, 0
1, 16404, Note_on_c, 0, 78, 63
1, 16416, Note_on_c, 0, 78, 0
1, 16416, Note_on_c, 0, 76, 63
1, 16436, Note_on_c, 0, 76, 0
1, 16488, Note_on_c, 0, 76, 63
1, 16500, Note_on_c, 0, 76, 0
1, 16500, Note_on_c, 0, 74, 63
1, 16512, Note_on_c, 0, 74, 0
1, 16512, Note_on_c, 0, 72, 63
1, 16512, Note_on_c, 1, 67, 63
1, 16512, Note_on_c, 1, 64, 63
1, 16551, Note_on_c, 0, 72, 0
1, 16601, Note_on_c, 1, 67, 0
1, 16601, Note_on_c, 1, 64, 0
1, 16680, Note_on_c, 0, 75, 63
1, 16680, Note_on_c, 1, 67, 63
1, 16692, Note_on_c, 0, 75, 0
1, 16692, Note_on_c, 0, 74, 63
1, 16692, Note_on_c, 1, 67, 0
1, 16692, Note_on_c, 1, 65, 63
1, 16704, Note_on_c, 0, 74, 0
1, 16704, Note_on_c, 0, 72, 63
1, 16704, Note_on_c, 1, 65, 0
1, 16704, Note_on_c, 1, 63, 63
1, 16724, Note_on_c, 0, 72, 0
1, 16752, Note_on_c, 0, 72, 63
1, 16772, Note_on_c, 0, 72, 0
1, 16793, Note_on_c, 1, 63, 0
1, 16800, Note_on_c, 0, 72, 63
1, 16820, Note_on_c, 0, 72, 0
1, 16848, Note_on_c, 0, 72, 63
1, 16868, Note_on_c, 0, 72, 0
1, 16872, Note_on_c, 1, 69, 63
1, 16884, Note_on_c, 1, 69, 0
1, 16884, Note_on_c, 1, 67, 63
1, 16896, Note_on_c, 0, 72, 63
1, 16896, Note_on_c, 1, 67, 0
1, 16896, Note_on_c, 1, 66, 75
1, 16896, Note_on_c, 1, 62, 75
1, 16963, Note_on_c, 0, 72, 0
1, 16968, Note_on_c, 0, 74, 65
1, 16980, Note_on_c, 0, 74, 0
1, 16980, Note_on_c, 0, 72, 65
1, 16985, Note_on_c, 1, 66, 0
1, 16985, Note_on_c, 1, 62, 0
1, 16992, Note_on_c, 0, 72, 0
1, 16992, Note_on_c, 0, 71, 66
1, 16992, Note_on_c, 1, 67, 76
1, 16992, Note_on_c, 1, 64, 76
1, 17037, Note_on_c, 0, 71, 0
1, 17040, Note_on_c, 0, 71, 67
1, 17081, Note_on_c, 1, 67, 0
1, 17081, Note_on_c, 1, 64, 0
1, 17085, Note_on_c, 0, 71, 0
1, 17088, Note_on_c, 0, 69, 69
1, 17088, Note_on_c, 1, 64, 78
1, 17088, Note_on_c, 1, 60, 78
1, 17136, Note_on_c, 0, 69, 0
1, 17136, Note_on_c, 0, 76, 70
1, 17177, Note_on_c, 1, 64, 0
1, 17177, Note_on_c, 1, 60, 0
1, 17181, Note_on_c, 0, 76, 0
1, 17184, Note_on_c, 0, 74, 72
1, 17184, Note_on_c, 1, 62, 79
1, 17232, Note_on_c, 0, 74, 0
1, 17232, Note_on_c, 0, 66, 73
1, 17273, Note_on_c, 1, 62, 0
1, 17277, Note_on_c, 0, 66, 0
1, 17280, Note_on_c, 0, 67, 75
1, 17280, Note_on_c, 1, 59, 69
1, 17280, Note_on_c, 1, 55, 69
1, 17303, Note_on_c, 0, 67, 0
1, 17304, Note_on_c, 0, 69, 77
1, 17325, Note_on_c, 1, 59, 0
1, 17325, Note_on_c, 1, 55, 0
1, 17327, Note_on_c, 0, 69, 0
1, 17328, Note_on_c, 0, 71, 79
1, 17328, Note_on_c, 1, 59, 69
1, 17328, Note_on_c, 1, 55, 69
1, 17351, Note_on_c, 0, 71, 0
1, 17352, Note_on_c, 0, 72, 81
1, 17373, Note_on_c, 1, 59, 0
1, 17373, Note_on_c, 1, 55, 0
1, 17375, Note_on_c, 0, 72, 0
1, 17376, Note_on_c, 0, 74, 79
1, 17376, Note_on_c, 1, 59, 69
1, 17376, Note_on_c, 1, 55, 69
1, 17399, Note_on_c, 0, 74, 0
1, 17400, Note_on_c, 0, 71, 78
1, 17421, Note_on_c, 1, 59, 0
1, 17421, Note_on_c, 1, 55, 0
1, 17423, Note_on_c, 0, 71, 0
1, 17424, Note_on_c, 0, 69, 76
1, 17424, Note_on_c, 1, 59, 69
1, 17424, Note_on_c, 1, 55, 69
1, 17447, Note_on_c, 0, 69, 0
1, 17448, Note_on_c, 0, 67, 75
1, 17469, Note_on_c, 1, 59, 0
1, 17469, Note_on_c, 1, 55, 0
1, 17471, Note_on_c, 0, 67, 0
1, 17472, Note_on_c, 0, 66, 75
1, 17472, Note_on_c, 1, 60, 69
1, 17472, Note_on_c, 1, 55, 69
1, 17495, Note_on_c, 0, 66, 0
1, 17496, Note_on_c, 0, 67, 76
1, 17517, Note_on_c, 1, 60, 0
1, 17517, Note_on_c, 1, 55, 0
1, 17519, Note_on_c, 0, 67, 0
1, 17520, Note_on_c, 0, 69, 78
1, 17520, Note_on_c, 1, 60, 69
1, 17520, Note_on_c, 1, 55, 69
1, 17543, Note_on_c, 0, 69, 0
1, 17544, Note_on_c, 0, 71, 79
1, 17565, Note_on_c, 1, 60, 0
1, 17565, Note_on_c, 1, 55, 0
1, 17567, Note_on_c, 0, 71, 0
1, 17568, Note_on_c, 0, 72, 81
1, 17568, Note_on_c, 1, 60, 69
1, 17568, Note_on_c, 1, 55, 69
1, 17591, Note_on_c, 0, 72, 0
1, 17592, Note_on_c, 0, 69, 79
1, 17613, Note_on_c, 1, 60, 0
1, 17613, Note_on_c, 1, 55, 0
1, 17615, Note_on_c, 0, 69, 0
1, 17616, Note_on_c, 0, 67, 78
1, 17616, Note_on_c, 1, 60, 69
1, 17616, Note_on_c, 1, 55, 69
1, 17639, Note_on_c, 0, 67, 0
1, 17640, Note_on_c, 0, 66, 76
1, 17661, Note_on_c, 1, 60, 0
1, 17661, Note_on_c, 1, 55, 0
1, 17663, Note_on_c, 0, 66, 0
1, 17664, Note_on_c, 0, 67, 75
1, 17664, Note_on_c, 1, 59, 69
1, 17664, Note_on_c, 1, 55, 69
1, 17687, Note_on_c, 0, 67, 0
1, 17688, Note_on_c, 0, 69, 76
1, 17709, Note_on_c, 1, 59, 0
1, 17709, Note_on_c, 1, 55, 0
1, 17711, Note_on_c, 0, 69, 0
1, 17712, Note_on_c, 0, 71, 78
1, 17712, Note_on_c, 1, 59, 69
1, 17712, Note_on_c, 1, 55, 69
1, 17735, Note_on_c, 0, 71, 0
1, 17736, Note_on_c, 0, 72, 79
1, 17757, Note_on_c, 1, 59, 0
1, 17757, Note_on_c, 1, 55, 0
1, 17759, Note_on_c, 0, 72, 0
1, 17760, Note_on_c, 0, 74, 81
1, 17760, Note_on_c, 1, 59, 69
1, 17760, Note_on_c, 1, 55, 69
1, 17783, Note_on_c, 0, 74, 0
1, 17784, Note_on_c, 0, 71, 79
1, 17805, Note_on_c, 1, 59, 0
1, 17805, Note_on_c, 1, 55, 0
1, 17807, Note_on_c, 0, 71, 0
1, 17808, Note_on_c, 0, 69, 78
1, 17808, Note_on_c, 1, 59, 69
1, 17808, Note_on_c, 1, 55, 69
1, 17831, Note_on_c, 0, 69, 0
1, 17832, Note_on_c, 0, 67, 76
1, 17853, Note_on_c, 1, 59, 0
1, 17853, Note_on_c, 1, 55, 0
1, 17855, Note_on_c, 0, 67, 0
1, 17856, Note_on_c, 0, 66, 75
1, 17856, Note_on_c, 1, 60, 69
1, 17856, Note_on_c, 1, 55, 69
1, 17879, Note_on_c, 0, 66, 0
1, 17880, Note_on_c, 0, 67, 76
1, 17901, Note_on_c, 1, 60, 0
1, 17901, Note_on_c, 1, 55, 0
1, 17903, Note_on_c, 0, 67, 0
1, 17904, Note_on_c, 0, 69, 78
1, 17904, Note_on_c, 1, 60, 69
1, 17904, Note_on_c, 1, 55, 69
1, 17927, Note_on_c, 0, 69, 0
1, 17928, Note_on_c, 0, 71, 79
1, 17949, Note_on_c, 1, 60, 0
1, 17949, Note_on_c, 1, 55, 0
1, 17951, Note_on_c, 0, 71, 0
1, 17952, Note_on_c, 0, 72, 81
1, 17952, Note_on_c, 1, 60, 69
1, 17952, Note_on_c, 1, 55, 69
1, 17975, Note_on_c, 0, 72, 0
1, 17976, Note_on_c, 0, 69, 79
1, 17997, Note_on_c, 1, 60, 0
1, 17997, Note_on_c, 1, 55, 0
1, 17999, Note_on_c, 0, 69, 0
1, 18000, Note_on_c, 0, 67, 78
1, 18000, Note_on_c, 1, 60, 69
1, 18000, Note_on_c, 1, 55, 69
1, 18023, Note_on_c, 0, 67, 0
1, 18024, Note_on_c, 0, 66, 76
1, 18045, Note_on_c, 1, 60, 0
1, 18045, Note_on_c, 1, 55, 0
1, 18047, Note_on_c, 0, 66, 0
1, 18048, Note_on_c, 0, 67, 75
1, 18048, Note_on_c, 1, 59, 69
1, 18048, Note_on_c, 1, 55, 69
1, 18137, Note_on_c, 0, 67, 0
1, 18137, Note_on_c, 1, 59, 0
1, 18137, Note_on_c, 1, 55, 0
1, 18144, Note_on_c, 0, 78, 86
1, 18150, Note_on_c, 0, 78, 0
1, 18150, Note_on_c, 0, 79, 102
1, 18240, Note_on_c, 0, 79, 0
1, 18240, Note_on_c, 1, 43, 86
1, 18240, Note_on_c, 1, 31, 86
1, 18329, Note_on_c, 1, 43, 0
1, 18329, Note_on_c, 1, 31, 0
1, 18432, Note_on_c, 1, 52, 81
1, 18432, Note_on_c, 1, 40, 81
1, 18480, Note_on_c, 0, 64, 75
1, 18500, Note_on_c, 0, 64, 0
1, 18521, Note_on_c, 1, 52, 0
1, 18521, Note_on_c, 1, 40, 0
1, 18528, Note_on_c, 0, 76, 75
1, 18576, Note_on_c, 1, 71, 75
1, 18576, Note_on_c, 1, 67, 75
1, 18624, Note_on_c, 1, 71, 0
1, 18624, Note_on_c, 1, 67, 0
1, 18624, Note_on_c, 1, 69, 75
1, 18624, Note_on_c, 1, 66, 75
1, 18661, Note_on_c, 0, 76, 0
1, 18672, Note_on_c, 0, 75, 75
1, 18692, Note_on_c, 0, 75, 0
1, 18720, Note_on_c, 0, 78, 76
1, 18757, Note_on_c, 1, 69, 0
1, 18757, Note_on_c, 1, 66, 0
1, 18768, Note_on_c, 1, 72, 75
1, 18768, Note_on_c, 1, 69, 75
1, 18816, Note_on_c, 1, 72, 0
1, 18816, Note_on_c, 1, 69, 0
1, 18816, Note_on_c, 1, 71, 75
1, 18816, Note_on_c, 1, 67, 75
1, 18861, Note_on_c, 0, 78, 0
1, 18864, Note_on_c, 0, 76, 77
1, 18884, Note_on_c, 0, 76, 0
1, 18912, Note_on_c, 0, 79, 77
1, 18949, Note_on_c, 1, 71, 0
1, 18949, Note_on_c, 1, 67, 0
1, 18960, Note_on_c, 1, 70, 75
1, 18960, Note_on_c, 1, 64, 75
1, 19008, Note_on_c, 1, 70, 0
1, 19008, Note_on_c, 1, 64, 0
1, 19008, Note_on_c, 1, 71, 75
1, 19008, Note_on_c, 1, 62, 75
1, 19045, Note_on_c, 0, 79, 0
1, 19056, Note_on_c, 0, 78, 78
1, 19076, Note_on_c, 0, 78, 0
1, 19104, Note_on_c, 0, 83, 78
1, 19141, Note_on_c, 1, 71, 0
1, 19141, Note_on_c, 1, 62, 0
1, 19152, Note_on_c, 1, 66, 75
1, 19152, Note_on_c, 1, 62, 75
1, 19200, Note_on_c, 1, 66, 0
1, 19200, Note_on_c, 1, 62, 0
1, 19200, Note_on_c, 1, 64, 75
1, 19200, Note_on_c, 1, 61, 75
1, 19245, Note_on_c, 0, 83, 0
1, 19248, Note_on_c, 0, 82, 79
1, 19293, Note_on_c, 0, 82, 0
1, 19296, Note_on_c, 0, 88, 96
1, 19296, Note_on_c, 0, 85, 96
1, 19333, Note_on_c, 1, 64, 0
1, 19333, Note_on_c, 1, 61, 0
1, 19344, Note_on_c, 1, 58, 75
1, 19392, Note_on_c, 1, 58, 0
1, 19392, Note_on_c, 1, 59, 75
1, 19440, Note_on_c, 0, 88, 0
1, 19440, Note_on_c, 0, 85, 0
1, 19440, Note_on_c, 0, 86, 81
1, 19440, Note_on_c, 0, 83, 81
1, 19481, Note_on_c, 1, 59, 0
1, 19488, Note_on_c, 1, 64, 75
1, 19529, Note_on_c, 0, 86, 0
1, 19529, Note_on_c, 0, 83, 0
1, 19536, Note_on_c, 0, 85, 79
1, 19536, Note_on_c, 0, 76, 79
1, 19577, Note_on_c, 1, 64, 0
1, 19584, Note_on_c, 1, 66, 75
1, 19629, Note_on_c, 0, 85, 0
1, 19629, Note_on_c, 0, 76, 0
1, 19632, Note_on_c, 0, 83, 77
1, 19632, Note_on_c, 0, 74, 77
1, 19673, Note_on_c, 1, 66, 0
1, 19680, Note_on_c, 1, 66, 75
1, 19721, Note_on_c, 0, 83, 0
1, 19721, Note_on_c, 0, 74, 0
1, 19728, Note_on_c, 0, 82, 75
1, 19728, Note_on_c, 0, 73, 75
1, 19769, Note_on_c, 1, 66, 0
1, 19773, Note_on_c, 0, 82, 0
1, 19773, Note_on_c, 0, 73, 0
1, 19776, Note_on_c, 1, 59, 75
1, 19824, Note_on_c, 0, 71, 75
1, 19865, Note_on_c, 1, 59, 0
1, 19869, Note_on_c, 0, 71, 0
1, 19872, Note_on_c, 0, 83, 75
1, 19917, Note_on_c, 0, 83, 0
1, 19920, Note_on_c, 1, 51, 81
1, 19920, Note_on_c, 1, 39, 81
1, 19968, Note_on_c, 1, 51, 0
1, 19968, Note_on_c, 1, 39, 0
1, 19968, Note_on_c, 1, 52, 81
1, 19968, Note_on_c, 1, 40, 81
1, 20016, Note_on_c, 0, 64, 75
1, 20036, Note_on_c, 0, 64, 0
1, 20057, Note_on_c, 1, 52, 0
1, 20057, Note_on_c, 1, 40, 0
1, 20064, Note_on_c, 0, 76, 75
1, 20112, Note_on_c, 1, 71, 75
1, 20112, Note_on_c, 1, 67, 75
1, 20160, Note_on_c, 1, 71, 0
1, 20160, Note_on_c, 1, 67, 0
1, 20160, Note_on_c, 1, 69, 75
1, 20160, Note_on_c, 1, 66, 75
1, 20197, Note_on_c, 0, 76, 0
1, 20208, Note_on_c, 0, 75, 76
1, 20228, Note_on_c, 0, 75, 0
1, 20256, Note_on_c, 0, 78, 76
1, 20293, Note_on_c, 1, 69, 0
1, 20293, Note_on_c, 1, 66, 0
1, 20304, Note_on_c, 1, 72, 75
1, 20304, Note_on_c, 1, 69, 75
1, 20352, Note_on_c, 1, 72, 0
1, 20352, Note_on_c, 1, 69, 0
1, 20352, Note_on_c, 1, 71, 75
1, 20352, Note_on_c, 1, 67, 75
1, 20397, Note_on_c, 0, 78, 0
1, 20400, Note_on_c, 0, 76, 77
1, 20420, Note_on_c, 0, 76, 0
1, 20448, Note_on_c, 0, 79, 78
1, 20485, Note_on_c, 1, 71, 0
1, 20485, Note_on_c, 1, 67, 0
1, 20496, Note_on_c, 1, 70, 75
1, 20496, Note_on_c, 1, 64, 75
1, 20544, Note_on_c, 1, 70, 0
1, 20544, Note_on_c, 1, 64, 0
1, 20544, Note_on_c, 1, 71, 75
1, 20544, Note_on_c, 1, 62, 75
1, 20581, Note_on_c, 0, 79, 0
1, 20592, Note_on_c, 0, 78, 79
1, 20612, Note_on_c, 0, 78, 0
1, 20640, Note_on_c, 0, 83, 79
1, 20677, Note_on_c, 1, 71, 0
1, 20677, Note_on_c, 1, 62, 0
1, 20688, Note_on_c, 1, 66, 75
1, 20688, Note_on_c, 1, 62, 75
1, 20736, Note_on_c, 1, 66, 0
1, 20736, Note_on_c, 1, 62, 0
1, 20736, Note_on_c, 1, 64, 75
1, 20736, Note_on_c, 1, 61, 75
1, 20781, Note_on_c, 0, 83, 0
1, 20784, Note_on_c, 0, 82, 80
1, 20804, Note_on_c, 0, 82, 0
1, 20832, Note_on_c, 0, 88, 97
1, 20832, Note_on_c, 0, 85, 97
1, 20869, Note_on_c, 1, 64, 0
1, 20869, Note_on_c, 1, 61, 0
1, 20880, Note_on_c, 1, 58, 75
1, 20925, Note_on_c, 1, 58, 0
1, 20928, Note_on_c, 1, 59, 75
1, 20976, Note_on_c, 0, 88, 0
1, 20976, Note_on_c, 0, 85, 0
1, 20976, Note_on_c, 0, 86, 81
1, 20976, Note_on_c, 0, 83, 81
1, 21017, Note_on_c, 1, 59, 0
1, 21024, Note_on_c, 1, 64, 75
1, 21065, Note_on_c, 0, 86, 0
1, 21065, Note_on_c, 0, 83, 0
1, 21072, Note_on_c, 0, 85, 79
1, 21072, Note_on_c, 0, 76, 79
1, 21113, Note_on_c, 1, 64, 0
1, 21120, Note_on_c, 1, 66, 75
1, 21165, Note_on_c, 0, 85, 0
1, 21165, Note_on_c, 0, 76, 0
1, 21168, Note_on_c, 0, 83, 77
1, 21168, Note_on_c, 0, 74, 77
1, 21209, Note_on_c, 1, 66, 0
1, 21216, Note_on_c, 1, 66, 75
1, 21257, Note_on_c, 0, 83, 0
1, 21257, Note_on_c, 0, 74, 0
1, 21264, Note_on_c, 0, 82, 75
1, 21264, Note_on_c, 0, 73, 75
1, 21305, Note_on_c, 1, 66, 0
1, 21309, Note_on_c, 0, 82, 0
1, 21309, Note_on_c, 0, 73, 0
1, 21312, Note_on_c, 1, 59, 75
1, 21360, Note_on_c, 0, 71, 75
1, 21401, Note_on_c, 1, 59, 0
1, 21405, Note_on_c, 0, 71, 0
1, 21408, Note_on_c, 0, 83, 75
1, 21453, Note_on_c, 0, 83, 0
1, 21456, Note_on_c, 1, 47, 81
1, 21456, Note_on_c, 1, 35, 81
1, 21501, Note_on_c, 1, 47, 0
1, 21501, Note_on_c, 1, 35, 0
1, 21504, Note_on_c, 1, 48, 81
1, 21504, Note_on_c, 1, 36, 81
1, 21552, Note_on_c, 0, 69, 81
1, 21572, Note_on_c, 0, 69, 0
1, 21593, Note_on_c, 1, 48, 0
1, 21593, Note_on_c, 1, 36, 0
1, 21600, Note_on_c, 0, 81, 81
1, 21648, Note_on_c, 1, 64, 75
1, 21648, Note_on_c, 1, 60, 75
1, 21693, Note_on_c, 1, 64, 0
1, 21693, Note_on_c, 1, 60, 0
1, 21696, Note_on_c, 1, 62, 75
1, 21696, Note_on_c, 1, 59, 75
1, 21733, Note_on_c, 0, 81, 0
1, 21744, Note_on_c, 0, 80, 81
1, 21789, Note_on_c, 0, 80, 0
1, 21792, Note_on_c, 0, 86, 81
1, 21829, Note_on_c, 1, 62, 0
1, 21829, Note_on_c, 1, 59, 0
1, 21840, Note_on_c, 1, 59, 75
1, 21840, Note_on_c, 1, 56, 75
1, 21885, Note_on_c, 1, 59, 0
1, 21885, Note_on_c, 1, 56, 0
1, 21888, Note_on_c, 1, 60, 81
1, 21888, Note_on_c, 1, 57, 81
1, 21933, Note_on_c, 0, 86, 0
1, 21936, Note_on_c, 0, 84, 78
1, 21977, Note_on_c, 1, 60, 0
1, 21977, Note_on_c, 1, 57, 0
1, 21984, Note_on_c, 1, 62, 75
1, 21984, Note_on_c, 1, 59, 75
1, 22025, Note_on_c, 0, 84, 0
1, 22032, Note_on_c, 0, 83, 72
1, 22073, Note_on_c, 1, 62, 0
1, 22073, Note_on_c, 1, 59, 0
1, 22080, Note_on_c, 1, 64, 69
1, 22080, Note_on_c, 1, 60, 69
1, 22121, Note_on_c, 0, 83, 0
1, 22128, Note_on_c, 0, 81, 66
1, 22169, Note_on_c, 1, 64, 0
1, 22169, Note_on_c, 1, 60, 0
1, 22173, Note_on_c, 0, 81, 0
1, 22224, Note_on_c, 0, 78, 63
1, 22244, Note_on_c, 0, 78, 0
1, 22272, Note_on_c, 0, 79, 63
1, 22320, Note_on_c, 1, 74, 63
1, 22320, Note_on_c, 1, 71, 63
1, 22365, Note_on_c, 1, 74, 0
1, 22365, Note_on_c, 1, 71, 0
1, 22368, Note_on_c, 1, 72, 63
1, 22368, Note_on_c, 1, 69, 63
1, 22405, Note_on_c, 0, 79, 0
1, 22416, Note_on_c, 0, 78, 63
1, 22436, Note_on_c, 0, 78, 0
1, 22457, Note_on_c, 1, 72, 0
1, 22457, Note_on_c, 1, 69, 0
1, 22464, Note_on_c, 0, 84, 63
1, 22464, Note_on_c, 0, 81, 63
1, 22512, Note_on_c, 1, 66, 63
1, 22557, Note_on_c, 1, 66, 0
1, 22560, Note_on_c, 1, 67, 63
1, 22597, Note_on_c, 0, 84, 0
1, 22597, Note_on_c, 0, 81, 0
1, 22608, Note_on_c, 0, 83, 63
1, 22608, Note_on_c, 0, 79, 63
1, 22649, Note_on_c, 1, 67, 0
1, 22656, Note_on_c, 1, 63, 63
1, 22701, Note_on_c, 0, 83, 0
1, 22701, Note_on_c, 0, 79, 0
1, 22704, Note_on_c, 0, 81, 63
1, 22704, Note_on_c, 0, 78, 63
1, 22745, Note_on_c, 1, 63, 0
1, 22752, Note_on_c, 1, 64, 63
1, 22793, Note_on_c, 0, 81, 0
1, 22793, Note_on_c, 0, 78, 0
1, 22800, Note_on_c, 0, 79, 63
1, 22800, Note_on_c, 0, 76, 63
1, 22841, Note_on_c, 1, 64, 0
1, 22848, Note_on_c, 1, 59, 63
1, 22896, Note_on_c, 0, 79, 0
1, 22896, Note_on_c, 0, 76, 0
1, 22896, Note_on_c, 0, 78, 63
1, 22896, Note_on_c, 0, 75, 63
1, 22937, Note_on_c, 1, 59, 0
1, 22941, Note_on_c, 0, 78, 0
1, 22941, Note_on_c, 0, 75, 0
1, 22944, Note_on_c, 0, 83, 81
1, 22967, Note_on_c, 0, 83, 0
1, 22968, Note_on_c, 0, 81, 81
1, 22991, Note_on_c, 0, 81, 0
1, 22992, Note_on_c, 0, 79, 81
1, 23015, Note_on_c, 0, 79, 0
1, 23016, Note_on_c, 0, 78, 81
1, 23039, Note_on_c, 0, 78, 0
1, 23040, Note_on_c, 0, 76, 81
1, 23088, Note_on_c, 1, 52, 81
1, 23129, Note_on_c, 0, 76, 0
1, 23133, Note_on_c, 1, 52, 0
1, 23136, Note_on_c, 1, 64, 81
1, 23184, Note_on_c, 0, 76, 81
1, 23184, Note_on_c, 0, 67, 81
1, 23229, Note_on_c, 0, 76, 0
1, 23229, Note_on_c, 0, 67, 0
1, 23232, Note_on_c, 0, 78, 81
1, 23232, Note_on_c, 0, 69, 81
1, 23269, Note_on_c, 1, 64, 0
1, 23280, Note_on_c, 1, 63, 81
1, 23325, Note_on_c, 1, 63, 0
1, 23328, Note_on_c, 1, 66, 81
1, 23365, Note_on_c, 0, 78, 0
1, 23365, Note_on_c, 0, 69, 0
1, 23376, Note_on_c, 0, 78, 81
1, 23376, Note_on_c, 0, 69, 81
1, 23421, Note_on_c, 0, 78, 0
1, 23421, Note_on_c, 0, 69, 0
1, 23424, Note_on_c, 0, 79, 81
1, 23424, Note_on_c, 0, 71, 81
1, 23469, Note_on_c, 1, 66, 0
1, 23472, Note_on_c, 1, 64, 81
1, 23517, Note_on_c, 1, 64, 0
1, 23520, Note_on_c, 1, 67, 81
1, 23557, Note_on_c, 0, 79, 0
1, 23557, Note_on_c, 0, 71, 0
1, 23568, Note_on_c, 0, 79, 81
1, 23568, Note_on_c, 0, 71, 81
1, 23613, Note_on_c, 0, 79, 0
1, 23613, Note_on_c, 0, 71, 0
1, 23616, Note_on_c, 0, 81, 81
1, 23653, Note_on_c, 1, 67, 0
1, 23664, Note_on_c, 1, 66, 81
1, 23709, Note_on_c, 1, 66, 0
1, 23712, Note_on_c, 1, 69, 81
1, 23749, Note_on_c, 0, 81, 0
1, 23760, Note_on_c, 0, 78, 81
1, 23805, Note_on_c, 0, 78, 0
1, 23808, Note_on_c, 0, 75, 81
1, 23853, Note_on_c, 1, 69, 0
1, 23856, Note_on_c, 1, 66, 81
1, 23901, Note_on_c, 1, 66, 0
1, 23904, Note_on_c, 1, 63, 81
1, 23941, Note_on_c, 0, 75, 0
1, 23952, Note_on_c, 0, 72, 81
1, 23997, Note_on_c, 0, 72, 0
1, 24000, Note_on_c, 0, 69, 81
1, 24037, Note_on_c, 1, 63, 0
1, 24048, Note_on_c, 1, 60, 81
1, 24093, Note_on_c, 1, 60, 0
1, 24096, Note_on_c, 1, 57, 81
1, 24133, Note_on_c, 0, 69, 0
1, 24144, Note_on_c, 0, 66, 81
1, 24189, Note_on_c, 0, 66, 0
1, 24192, Note_on_c, 0, 63, 81
1, 24237, Note_on_c, 1, 57, 0
1, 24240, Note_on_c, 1, 54, 81
1, 24285, Note_on_c, 1, 54, 0
1, 24288, Note_on_c, 1, 51, 81
1, 24325, Note_on_c, 0, 63, 0
1, 24333, Note_on_c, 1, 51, 0
1, 24336, Note_on_c, 0, 63, 81
1, 24336, Note_on_c, 1, 51, 81
1, 24359, Note_on_c, 0, 63, 0
1, 24359, Note_on_c, 1, 51, 0
1, 24360, Note_on_c, 0, 60, 81
1, 24360, Note_on_c, 1, 48, 81
1, 24383, Note_on_c, 0, 60, 0
1, 24383, Note_on_c, 1, 48, 0
1, 24384, Note_on_c, 0, 57, 81
1, 24384, Note_on_c, 1, 45, 81
1, 24429, Note_on_c, 0, 57, 0
1, 24429, Note_on_c, 1, 45, 0
1, 24432, Note_on_c, 0, 60, 81
1, 24432, Note_on_c, 1, 48, 81
1, 24455, Note_on_c, 0, 60, 0
1, 24455, Note_on_c, 1, 48, 0
1, 24456, Note_on_c, 0, 57, 81
1, 24456, Note_on_c, 1, 45, 81
1, 24479, Note_on_c, 0, 57, 0
1, 24479, Note_on_c, 1, 45, 0
1, 24480, Note_on_c, 0, 54, 81
1, 24480, Note_on_c, 1, 42, 81
1, 24525, Note_on_c, 0, 54, 0
1, 24525, Note_on_c, 1, 42, 0
1, 24528, Note_on_c, 0, 57, 81
1, 24528, Note_on_c, 1, 45, 81
1, 24551, Note_on_c, 0, 57, 0
1, 24551, Note_on_c, 1, 45, 0
1, 24552, Note_on_c, 0, 54, 81
1, 24552, Note_on_c, 1, 42, 81
1, 24575, Note_on_c, 0, 54, 0
1, 24575, Note_on_c, 1, 42, 0
1, 24576, Note_on_c, 0, 51, 81
1, 24576, Note_on_c, 1, 39, 81
1, 24665, Note_on_c, 0, 51, 0
1, 24665, Note_on_c, 1, 39, 0
1, 24720, Note_on_c, 0, 84, 63
1, 24743, Note_on_c, 0, 84, 0
1, 24744, Note_on_c, 0, 81, 63
1, 24767, Note_on_c, 0, 81, 0
1, 24768, Note_on_c, 0, 78, 63
1, 24813, Note_on_c, 0, 78, 0
1, 24816, Note_on_c, 0, 81, 63
1, 24839, Note_on_c, 0, 81, 0
1, 24840, Note_on_c, 0, 78, 63
1, 24863, Note_on_c, 0, 78, 0
1, 24864, Note_on_c, 0, 75, 63
1, 24909, Note_on_c, 0, 75, 0
1, 24912, Note_on_c, 0, 78, 63
1, 24935, Note_on_c, 0, 78, 0
1, 24936, Note_on_c, 0, 75, 63
1, 24959, Note_on_c, 0, 75, 0
1, 24960, Note_on_c, 0, 72, 63
1, 25049, Note_on_c, 0, 72, 0
1, 25200, Note_on_c, 0, 60, 81
1, 25248, Note_on_c, 0, 60, 0
1, 25248, Note_on_c, 0, 59, 81
1, 25248, Note_on_c, 1, 51, 81
1, 25293, Note_on_c, 0, 59, 0
1, 25296, Note_on_c, 0, 69, 81
1, 25341, Note_on_c, 0, 69, 0
1, 25344, Note_on_c, 1, 51, 0
1, 25344, Note_on_c, 1, 52, 81
1, 25389, Note_on_c, 1, 52, 0
1, 25392, Note_on_c, 0, 67, 81
1, 25392, Note_on_c, 0, 59, 81
1, 25437, Note_on_c, 0, 67, 0
1, 25437, Note_on_c, 0, 59, 0
1, 25440, Note_on_c, 1, 45, 81
1, 25485, Note_on_c, 1, 45, 0
1, 25488, Note_on_c, 0, 66, 81
1, 25488, Note_on_c, 0, 57, 81
1, 25533, Note_on_c, 0, 66, 0
1, 25533, Note_on_c, 0, 57, 0
1, 25536, Note_on_c, 1, 47, 81
1, 25581, Note_on_c, 1, 47, 0
1, 25584, Note_on_c, 0, 64, 81
1, 25584, Note_on_c, 0, 55, 81
1, 25629, Note_on_c, 0, 64, 0
1, 25629, Note_on_c, 0, 55, 0
1, 25632, Note_on_c, 1, 47, 81
1, 25677, Note_on_c, 1, 47, 0
1, 25680, Note_on_c, 0, 63, 81
1, 25680, Note_on_c, 0, 54, 81
1, 25725, Note_on_c, 0, 63, 0
1, 25725, Note_on_c, 0, 54, 0
1, 25728, Note_on_c, 0, 64, 81
1, 25728, Note_on_c, 0, 55, 81
1, 25776, Note_on_c, 1, 52, 81
1, 25817, Note_on_c, 0, 64, 0
1, 25817, Note_on_c, 0, 55, 0
1, 25821, Note_on_c, 1, 52, 0
1, 25824, Note_on_c, 1, 40, 81
1, 25869, Note_on_c, 1, 40, 0
1, 25872, Note_on_c, 0, 87, 81
1, 25920, Note_on_c, 0, 87, 0
1, 25920, Note_on_c, 0, 88, 97
1, 25968, Note_on_c, 1, 52, 81
1, 26013, Note_on_c, 1, 52, 0
1, 26016, Note_on_c, 0, 88, 0
1, 26016, Note_on_c, 1, 40, 81
1, 26061, Note_on_c, 1, 40, 0
1, 26064, Note_on_c, 0, 64, 81
1, 26112, Note_on_c, 0, 64, 0
1, 26112, Note_on_c, 0, 65, 81
1, 26112, Note_on_c, 0, 62, 81
1, 26160, Note_on_c, 1, 52, 81
1, 26201, Note_on_c, 0, 65, 0
1, 26201, Note_on_c, 0, 62, 0
1, 26205, Note_on_c, 1, 52, 0
1, 26208, Note_on_c, 1, 40, 81
1, 26253, Note_on_c, 1, 40, 0
1, 26256, Note_on_c, 0, 65, 81
1, 26256, Note_on_c, 0, 62, 81
1, 26304, Note_on_c, 0, 65, 0
1, 26304, Note_on_c, 0, 62, 0
1, 26304, Note_on_c, 0, 68, 81
1, 26304, Note_on_c, 0, 59, 81
1, 26352, Note_on_c, 1, 52, 81
1, 26393, Note_on_c, 0, 68, 0
1, 26393, Note_on_c, 0, 59, 0
1, 26397, Note_on_c, 1, 52, 0
1, 26400, Note_on_c, 1, 40, 81
1, 26445, Note_on_c, 1, 40, 0
1, 26448, Note_on_c, 0, 68, 81
1, 26448, Note_on_c, 0, 59, 81
1, 26496, Note_on_c, 0, 68, 0
1, 26496, Note_on_c, 0, 59, 0
1, 26496, Note_on_c, 0, 69, 81
1, 26496, Note_on_c, 0, 60, 81
1, 26544, Note_on_c, 1, 52, 81
1, 26585, Note_on_c, 0, 69, 0
1, 26585, Note_on_c, 0, 60, 0
1, 26589, Note_on_c, 1, 52, 0
1, 26592, Note_on_c, 1, 40, 81
1, 26637, Note_on_c, 1, 40, 0
1, 26640, Note_on_c, 0, 69, 81
1, 26640, Note_on_c, 0, 60, 81
1, 26688, Note_on_c, 0, 69, 0
1, 26688, Note_on_c, 0, 60, 0
1, 26688, Note_on_c, 0, 67, 81
1, 26688, Note_on_c, 0, 61, 81
1, 26736, Note_on_c, 1, 51, 81
1, 26777, Note_on_c, 0, 67, 0
1, 26777, Note_on_c, 0, 61, 0
1, 26781, Note_on_c, 1, 51, 0
1, 26784, Note_on_c, 1, 39, 81
1, 26829, Note_on_c, 1, 39, 0
1, 26832, Note_on_c, 0, 67, 81
1, 26832, Note_on_c, 0, 61, 81
1, 26880, Note_on_c, 0, 67, 0
1, 26880, Note_on_c, 0, 61, 0
1, 26880, Note_on_c, 0, 66, 81
1, 26880, Note_on_c, 0, 62, 81
1, 26928, Note_on_c, 1, 50, 81
1, 26969, Note_on_c, 0, 66, 0
1, 26969, Note_on_c, 0, 62, 0
1, 26973, Note_on_c, 1, 50, 0
1, 26976, Note_on_c, 1, 38, 81
1, 27021, Note_on_c, 1, 38, 0
1, 27024, Note_on_c, 0, 85, 81
1, 27072, Note_on_c, 0, 85, 0
1, 27072, Note_on_c, 0, 86, 97
1, 27120, Note_on_c, 1, 50, 81
1, 27165, Note_on_c, 1, 50, 0
1, 27168, Note_on_c, 0, 86, 0
1, 27168, Note_on_c, 1, 38, 81
1, 27213, Note_on_c, 1, 38, 0
1, 27216, Note_on_c, 0, 62, 63
1, 27264, Note_on_c, 0, 62, 0
1, 27264, Note_on_c, 0, 64, 63
1, 27264, Note_on_c, 0, 61, 63
1, 27312, Note_on_c, 1, 50, 81
1, 27353, Note_on_c, 0, 64, 0
1, 27353, Note_on_c, 0, 61, 0
1, 27357, Note_on_c, 1, 50, 0
1, 27360, Note_on_c, 1, 38, 81
1, 27405, Note_on_c, 1, 38, 0
1, 27408, Note_on_c, 0, 64, 67
1, 27408, Note_on_c, 0, 61, 67
1, 27456, Note_on_c, 0, 64, 0
1, 27456, Note_on_c, 0, 61, 0
1, 27456, Note_on_c, 0, 66, 69
1, 27456, Note_on_c, 0, 60, 69
1, 27504, Note_on_c, 1, 50, 69
1, 27545, Note_on_c, 0, 66, 0
1, 27545, Note_on_c, 0, 60, 0
1, 27549, Note_on_c, 1, 50, 0
1, 27552, Note_on_c, 1, 38, 69
1, 27597, Note_on_c, 1, 38, 0
1, 27600, Note_on_c, 0, 62, 73
1, 27645, Note_on_c, 0, 62, 0
1, 27648, Note_on_c, 0, 67, 75
1, 27648, Note_on_c, 1, 59, 63
1, 27648, Note_on_c, 1, 55, 63
1, 27693, Note_on_c, 1, 59, 0
1, 27693, Note_on_c, 1, 55, 0
1, 27696, Note_on_c, 1, 59, 63
1, 27696, Note_on_c, 1, 55, 63
1, 27715, Note_on_c, 0, 67, 0
1, 27720, Note_on_c, 0, 71, 75
1, 27732, Note_on_c, 0, 71, 0
1, 27732, Note_on_c, 0, 69, 75
1, 27741, Note_on_c, 1, 59, 0
1, 27741, Note_on_c, 1, 55, 0
1, 27744, Note_on_c, 0, 69, 0
1, 27744, Note_on_c, 0, 67, 75
1, 27744, Note_on_c, 1, 59, 63
1, 27744, Note_on_c, 1, 55, 63
1, 27789, Note_on_c, 0, 67, 0
1, 27789, Note_on_c, 1, 59, 0
1, 27789, Note_on_c, 1, 55, 0
1, 27792, Note_on_c, 1, 59, 63
1, 27792, Note_on_c, 1, 55, 63
1, 27837, Note_on_c, 1, 59, 0
1, 27837, Note_on_c, 1, 55, 0
1, 27840, Note_on_c, 1, 59, 63
1, 27840, Note_on_c, 1, 55, 63
1, 27885, Note_on_c, 1, 59, 0
1, 27885, Note_on_c, 1, 55, 0
1, 27888, Note_on_c, 0, 62, 75
1, 27888, Note_on_c, 1, 59, 63
1, 27888, Note_on_c, 1, 55, 63
1, 27908, Note_on_c, 0, 62, 0
1, 27933, Note_on_c, 1, 59, 0
1, 27933, Note_on_c, 1, 55, 0
1, 27936, Note_on_c, 0, 67, 77
1, 27936, Note_on_c, 1, 59, 63
1, 27936, Note_on_c, 1, 55, 63
1, 27956, Note_on_c, 0, 67, 0
1, 27981, Note_on_c, 1, 59, 0
1, 27981, Note_on_c, 1, 55, 0
1, 27984, Note_on_c, 0, 71, 79
1, 27984, Note_on_c, 1, 59, 63
1, 27984, Note_on_c, 1, 55, 63
1, 28004, Note_on_c, 0, 71, 0
1, 28029, Note_on_c, 1, 59, 0
1, 28029, Note_on_c, 1, 55, 0
1, 28032, Note_on_c, 0, 71, 81
1, 28032, Note_on_c, 1, 60, 63
1, 28032, Note_on_c, 1, 55, 63
1, 28055, Note_on_c, 0, 71, 0
1, 28056, Note_on_c, 0, 69, 79
1, 28079, Note_on_c, 0, 69, 0
1, 28080, Note_on_c, 0, 67, 78
1, 28103, Note_on_c, 0, 67, 0
1, 28104, Note_on_c, 0, 69, 76
1, 28127, Note_on_c, 0, 69, 0
1, 28128, Note_on_c, 0, 67, 75
1, 28128, Note_on_c, 1, 60, 0
1, 28128, Note_on_c, 1, 59, 63
1, 28173, Note_on_c, 0, 67, 0
1, 28173, Note_on_c, 1, 59, 0
1, 28173, Note_on_c, 1, 55, 0
1, 28176, Note_on_c, 0, 74, 75
1, 28196, Note_on_c, 0, 74, 0
1, 28224, Note_on_c, 0, 74, 75
1, 28224, Note_on_c, 1, 67, 63
1, 28224, Note_on_c, 1, 65, 63
1, 28244, Note_on_c, 0, 74, 0
1, 28269, Note_on_c, 1, 67, 0
1, 28269, Note_on_c, 1, 65, 0
1, 28272, Note_on_c, 0, 74, 75
1, 28272, Note_on_c, 1, 67, 63
1, 28272, Note_on_c, 1, 65, 63
1, 28292, Note_on_c, 0, 74, 0
1, 28317, Note_on_c, 1, 67, 0
1, 28317, Note_on_c, 1, 65, 0
1, 28320, Note_on_c, 0, 74, 75
1, 28320, Note_on_c, 1, 67, 63
1, 28320, Note_on_c, 1, 65, 63
1, 28340, Note_on_c, 0, 74, 0
1, 28365, Note_on_c, 1, 67, 0
1, 28365, Note_on_c, 1, 65, 0
1, 28368, Note_on_c, 0, 74, 75
1, 28368, Note_on_c, 1, 67, 63
1, 28368, Note_on_c, 1, 65, 63
1, 28388, Note_on_c, 0, 74, 0
1, 28413, Note_on_c, 1, 67, 0
1, 28413, Note_on_c, 1, 65, 0
1, 28416, Note_on_c, 0, 74, 75
1, 28416, Note_on_c, 1, 67, 63
1, 28416, Note_on_c, 1, 64, 63
1, 28483, Note_on_c, 0, 74, 0
1, 28488, Note_on_c, 0, 76, 77
1, 28500, Note_on_c, 0, 76, 0
1, 28500, Note_on_c, 0, 74, 77
1, 28512, Note_on_c, 0, 74, 0
1, 28512, Note_on_c, 0, 72, 78
1, 28549, Note_on_c, 1, 67, 0
1, 28549, Note_on_c, 1, 64, 0
1, 28557, Note_on_c, 0, 72, 0
1, 28560, Note_on_c, 0, 71, 79
1, 28560, Note_on_c, 1, 65, 69
1, 28560, Note_on_c, 1, 62, 69
1, 28605, Note_on_c, 0, 71, 0
1, 28605, Note_on_c, 1, 65, 0
1, 28605, Note_on_c, 1, 62, 0
1, 28608, Note_on_c, 0, 69, 81
1, 28608, Note_on_c, 1, 64, 72
1, 28608, Note_on_c, 1, 60, 72
1, 28628, Note_on_c, 0, 69, 0
1, 28656, Note_on_c, 0, 81, 97
1, 28697, Note_on_c, 1, 64, 0
1, 28697, Note_on_c, 1, 60, 0
1, 28704, Note_on_c, 1, 64, 76
1, 28704, Note_on_c, 1, 61, 76
1, 28752, Note_on_c, 0, 81, 0
1, 28752, Note_on_c, 0, 79, 81
1, 28793, Note_on_c, 1, 64, 0
1, 28793, Note_on_c, 1, 61, 0
1, 28797, Note_on_c, 0, 79, 0
1, 28800, Note_on_c, 0, 79, 81
1, 28800, Note_on_c, 1, 62, 81
1, 28823, Note_on_c, 0, 79, 0
1, 28824, Note_on_c, 0, 78, 81
1, 28847, Note_on_c, 0, 78, 0
1, 28848, Note_on_c, 0, 76, 81
1, 28871, Note_on_c, 0, 76, 0
1, 28872, Note_on_c, 0, 74, 81
1, 28889, Note_on_c, 1, 62, 0
1, 28895, Note_on_c, 0, 74, 0
1, 28896, Note_on_c, 0, 74, 81
1, 28941, Note_on_c, 0, 74, 0
1, 28944, Note_on_c, 0, 74, 80
1, 28989, Note_on_c, 0, 74, 0
1, 28992, Note_on_c, 0, 74, 79
1, 29015, Note_on_c, 0, 74, 0
1, 29016, Note_on_c, 0, 76, 78
1, 29039, Note_on_c, 0, 76, 0
1, 29040, Note_on_c, 0, 72, 78
1, 29063, Note_on_c, 0, 72, 0
1, 29064, Note_on_c, 0, 74, 77
1, 29087, Note_on_c, 0, 74, 0
1, 29088, Note_on_c, 0, 71, 77
1, 29111, Note_on_c, 0, 71, 0
1, 29112, Note_on_c, 0, 72, 76
1, 29135, Note_on_c, 0, 72, 0
1, 29136, Note_on_c, 0, 69, 76
1, 29159, Note_on_c, 0, 69, 0
1, 29160, Note_on_c, 0, 71, 75
1, 29183, Note_on_c, 0, 71, 0
1, 29184, Note_on_c, 0, 67, 75
1, 29184, Note_on_c, 1, 59, 63
1, 29184, Note_on_c, 1, 55, 63
1, 29229, Note_on_c, 1, 59, 0
1, 29229, Note_on_c, 1, 55, 0
1, 29232, Note_on_c, 1, 59, 63
1, 29232, Note_on_c, 1, 55, 63
1, 29251, Note_on_c, 0, 67, 0
1, 29256, Note_on_c, 0, 71, 75
1, 29268, Note_on_c, 0, 71, 0
1, 29268, Note_on_c, 0, 69, 75
1, 29277, Note_on_c, 1, 59, 0
1, 29277, Note_on_c, 1, 55, 0
1, 29280, Note_on_c, 0, 69, 0
1, 29280, Note_on_c, 0, 67, 75
1, 29280, Note_on_c, 1, 59, 63
1, 29280, Note_on_c, 1, 55, 63
1, 29303, Note_on_c, 0, 67, 0
1, 29304, Note_on_c, 0, 62, 75
1, 29325, Note_on_c, 1, 59, 0
1, 29325, Note_on_c, 1, 55, 0
1, 29327, Note_on_c, 0, 62, 0
1, 29328, Note_on_c, 0, 71, 76
1, 29328, Note_on_c, 1, 59, 63
1, 29328, Note_on_c, 1, 55, 63
1, 29351, Note_on_c, 0, 71, 0
1, 29352, Note_on_c, 0, 69, 77
1, 29373, Note_on_c, 1, 59, 0
1, 29373, Note_on_c, 1, 55, 0
1, 29375, Note_on_c, 0, 69, 0
1, 29376, Note_on_c, 0, 67, 78
1, 29376, Note_on_c, 1, 59, 63
1, 29376, Note_on_c, 1, 55, 63
1, 29399, Note_on_c, 0, 67, 0
1, 29400, Note_on_c, 0, 62, 78
1, 29421, Note_on_c, 1, 59, 0
1, 29421, Note_on_c, 1, 55, 0
1, 29423, Note_on_c, 0, 62, 0
1, 29424, Note_on_c, 0, 67, 79
1, 29424, Note_on_c, 1, 59, 63
1, 29424, Note_on_c, 1, 55, 63
1, 29447, Note_on_c, 0, 67, 0
1, 29448, Note_on_c, 0, 71, 80
1, 29469, Note_on_c, 1, 59, 0
1, 29469, Note_on_c, 1, 55, 0
1, 29471, Note_on_c, 0, 71, 0
1, 29472, Note_on_c, 0, 74, 81
1, 29472, Note_on_c, 1, 59, 63
1, 29472, Note_on_c, 1, 55, 63
1, 29495, Note_on_c, 0, 74, 0
1, 29496, Note_on_c, 0, 71, 80
1, 29517, Note_on_c, 1, 59, 0
1, 29517, Note_on_c, 1, 55, 0
1, 29519, Note_on_c, 0, 71, 0
1, 29520, Note_on_c, 0, 69, 79
1, 29520, Note_on_c, 1, 59, 63
1, 29520, Note_on_c, 1, 55, 63
1, 29543, Note_on_c, 0, 69, 0
1, 29544, Note_on_c, 0, 67, 79
1, 29565, Note_on_c, 1, 59, 0
1, 29565, Note_on_c, 1, 55, 0
1, 29567, Note_on_c, 0, 67, 0
1, 29568, Note_on_c, 0, 71, 78
1, 29568, Note_on_c, 1, 60, 63
1, 29568, Note_on_c, 1, 55, 63
1, 29591, Note_on_c, 0, 71, 0
1, 29592, Note_on_c, 0, 69, 78
1, 29615, Note_on_c, 0, 69, 0
1, 29616, Note_on_c, 0, 67, 77
1, 29639, Note_on_c, 0, 67, 0
1, 29640, Note_on_c, 0, 69, 76
1, 29663, Note_on_c, 0, 69, 0
1, 29664, Note_on_c, 0, 67, 76
1, 29664, Note_on_c, 1, 60, 0
1, 29664, Note_on_c, 1, 59, 63
1, 29709, Note_on_c, 0, 67, 0
1, 29709, Note_on_c, 1, 59, 0
1, 29709, Note_on_c, 1, 55, 0
1, 29712, Note_on_c, 0, 76, 75
1, 29757, Note_on_c, 0, 76, 0
1, 29760, Note_on_c, 0, 75, 75
1, 29760, Note_on_c, 1, 71, 63
1, 29760, Note_on_c, 1, 67, 63
1, 29783, Note_on_c, 0, 75, 0
1, 29784, Note_on_c, 0, 76, 75
1, 29805, Note_on_c, 1, 71, 0
1, 29805, Note_on_c, 1, 67, 0
1, 29807, Note_on_c, 0, 76, 0
1, 29808, Note_on_c, 0, 77, 76
1, 29808, Note_on_c, 1, 71, 63
1, 29808, Note_on_c, 1, 67, 63
1, 29831, Note_on_c, 0, 77, 0
1, 29832, Note_on_c, 0, 78, 76
1, 29853, Note_on_c, 1, 71, 0
1, 29853, Note_on_c, 1, 67, 0
1, 29855, Note_on_c, 0, 78, 0
1, 29856, Note_on_c, 0, 79, 77
1, 29856, Note_on_c, 1, 71, 63
1, 29856, Note_on_c, 1, 67, 63
1, 29879, Note_on_c, 0, 79, 0
1, 29880, Note_on_c, 0, 80, 77
1, 29901, Note_on_c, 1, 71, 0
1, 29901, Note_on_c, 1, 67, 0
1, 29903, Note_on_c, 0, 80, 0
1, 29904, Note_on_c, 0, 81, 78
1, 29904, Note_on_c, 1, 71, 63
1, 29904, Note_on_c, 1, 67, 63
1, 29927, Note_on_c, 0, 81, 0
1, 29928, Note_on_c, 0, 82, 78
1, 29949, Note_on_c, 1, 71, 0
1, 29949, Note_on_c, 1, 67, 0
1, 29951, Note_on_c, 0, 82, 0
1, 29952, Note_on_c, 0, 83, 79
1, 29952, Note_on_c, 1, 71, 63
1, 29952, Note_on_c, 1, 67, 63
1, 29997, Note_on_c, 1, 71, 0
1, 29997, Note_on_c, 1, 67, 0
1, 30000, Note_on_c, 1, 71, 63
1, 30000, Note_on_c, 1, 67, 63
1, 30041, Note_on_c, 0, 83, 0
1, 30045, Note_on_c, 1, 71, 0
1, 30045, Note_on_c, 1, 67, 0
1, 30048, Note_on_c, 0, 81, 81
1, 30048, Note_on_c, 1, 71, 63
1, 30048, Note_on_c, 1, 67, 63
1, 30071, Note_on_c, 0, 81, 0
1, 30072, Note_on_c, 0, 79, 80
1, 30093, Note_on_c, 1, 71, 0
1, 30093, Note_on_c, 1, 67, 0
1, 30095, Note_on_c, 0, 79, 0
1, 30096, Note_on_c, 0, 78, 80
1, 30096, Note_on_c, 1, 71, 63
1, 30096, Note_on_c, 1, 67, 63
1, 30119, Note_on_c, 0, 78, 0
1, 30120, Note_on_c, 0, 76, 79
1, 30141, Note_on_c, 1, 71, 0
1, 30141, Note_on_c, 1, 67, 0
1, 30143, Note_on_c, 0, 76, 0
1, 30144, Note_on_c, 0, 74, 79
1, 30144, Note_on_c, 1, 66, 63
1, 30144, Note_on_c, 1, 57, 63
1, 30189, Note_on_c, 1, 66, 0
1, 30189, Note_on_c, 1, 57, 0
1, 30192, Note_on_c, 1, 66, 63
1, 30192, Note_on_c, 1, 57, 63
1, 30233, Note_on_c, 0, 74, 0
1, 30237, Note_on_c, 1, 66, 0
1, 30237, Note_on_c, 1, 57, 0
1, 30240, Note_on_c, 0, 73, 77
1, 30240, Note_on_c, 1, 64, 63
1, 30240, Note_on_c, 1, 57, 63
1, 30253, Note_on_c, 0, 73, 0
1, 30254, Note_on_c, 0, 74, 76
1, 30267, Note_on_c, 0, 74, 0
1, 30268, Note_on_c, 0, 73, 76
1, 30281, Note_on_c, 0, 73, 0
1, 30282, Note_on_c, 0, 74, 76
1, 30285, Note_on_c, 1, 64, 0
1, 30285, Note_on_c, 1, 57, 0
1, 30288, Note_on_c, 1, 64, 63
1, 30288, Note_on_c, 1, 57, 63
1, 30295, Note_on_c, 0, 74, 0
1, 30296, Note_on_c, 0, 73, 76
1, 30309, Note_on_c, 0, 73, 0
1, 30310, Note_on_c, 0, 71, 75
1, 30322, Note_on_c, 0, 71, 0
1, 30323, Note_on_c, 0, 73, 75
1, 30333, Note_on_c, 1, 64, 0
1, 30333, Note_on_c, 1, 57, 0
1, 30335, Note_on_c, 0, 73, 0
1, 30336, Note_on_c, 0, 74, 75
1, 30336, Note_on_c, 1, 66, 63
1, 30336, Note_on_c, 1, 62, 63
1, 30359, Note_on_c, 0, 74, 0
1, 30360, Note_on_c, 0, 76, 75
1, 30381, Note_on_c, 1, 66, 0
1, 30381, Note_on_c, 1, 62, 0
1, 30383, Note_on_c, 0, 76, 0
1, 30384, Note_on_c, 0, 78, 76
1, 30384, Note_on_c, 1, 66, 63
1, 30384, Note_on_c, 1, 62, 63
1, 30407, Note_on_c, 0, 78, 0
1, 30408, Note_on_c, 0, 79, 77
1, 30429, Note_on_c, 1, 66, 0
1, 30429, Note_on_c, 1, 62, 0
1, 30431, Note_on_c, 0, 79, 0
1, 30432, Note_on_c, 0, 81, 78
1, 30432, Note_on_c, 1, 66, 63
1, 30432, Note_on_c, 1, 62, 63
1, 30455, Note_on_c, 0, 81, 0
1, 30456, Note_on_c, 0, 83, 78
1, 30477, Note_on_c, 1, 66, 0
1, 30477, Note_on_c, 1, 62, 0
1, 30479, Note_on_c, 0, 83, 0
1, 30480, Note_on_c, 0, 85, 79
1, 30480, Note_on_c, 1, 66, 63
1, 30480, Note_on_c, 1, 62, 63
1, 30503, Note_on_c, 0, 85, 0
1, 30504, Note_on_c, 0, 86, 80
1, 30525, Note_on_c, 1, 66, 0
1, 30525, Note_on_c, 1, 62, 0
1, 30527, Note_on_c, 0, 86, 0
1, 30528, Note_on_c, 0, 85, 81
1, 30528, Note_on_c, 1, 67, 63
1, 30528, Note_on_c, 1, 62, 63
1, 30551, Note_on_c, 0, 85, 0
1, 30552, Note_on_c, 0, 88, 80
1, 30573, Note_on_c, 1, 67, 0
1, 30573, Note_on_c, 1, 62, 0
1, 30575, Note_on_c, 0, 88, 0
1, 30576, Note_on_c, 0, 85, 79
1, 30576, Note_on_c, 1, 67, 63
1, 30576, Note_on_c, 1, 62, 63
1, 30599, Note_on_c, 0, 85, 0
1, 30600, Note_on_c, 0, 81, 78
1, 30621, Note_on_c, 1, 67, 0
1, 30621, Note_on_c, 1, 62, 0
1, 30623, Note_on_c, 0, 81, 0
1, 30624, Note_on_c, 0, 79, 78
1, 30624, Note_on_c, 1, 67, 63
1, 30624, Note_on_c, 1, 62, 63
1, 30647, Note_on_c, 0, 79, 0
1, 30648, Note_on_c, 0, 83, 77
1, 30669, Note_on_c, 1, 67, 0
1, 30669, Note_on_c, 1, 62, 0
1, 30671, Note_on_c, 0, 83, 0
1, 30672, Note_on_c, 0, 79, 76
1, 30672, Note_on_c, 1, 67, 63
1, 30672, Note_on_c, 1, 62, 63
1, 30695, Note_on_c, 0, 79, 0
1, 30696, Note_on_c, 0, 76, 75
1, 30717, Note_on_c, 1, 67, 0
1, 30717, Note_on_c, 1, 62, 0
1, 30719, Note_on_c, 0, 76, 0
1, 30720, Note_on_c, 0, 78, 75
1, 30720, Note_on_c, 1, 66, 63
1, 30720, Note_on_c, 1, 62, 63
1, 30743, Note_on_c, 0, 78, 0
1, 30744, Note_on_c, 0, 81, 74
1, 30765, Note_on_c, 1, 66, 0
1, 30765, Note_on_c, 1, 62, 0
1, 30767, Note_on_c, 0, 81, 0
1, 30768, Note_on_c, 0, 79, 73
1, 30768, Note_on_c, 1, 66, 63
1, 30768, Note_on_c, 1, 62, 63
1, 30791, Note_on_c, 0, 79, 0
1, 30792, Note_on_c, 0, 78, 72
1, 30813, Note_on_c, 1, 66, 0
1, 30813, Note_on_c, 1, 62, 0
1, 30815, Note_on_c, 0, 78, 0
1, 30816, Note_on_c, 0, 76, 72
1, 30816, Note_on_c, 1, 66, 63
1, 30816, Note_on_c, 1, 62, 63
1, 30839, Note_on_c, 0, 76, 0
1, 30840, Note_on_c, 0, 74, 71
1, 30861, Note_on_c, 1, 66, 0
1, 30861, Note_on_c, 1, 62, 0
1, 30863, Note_on_c, 0, 74, 0
1, 30864, Note_on_c, 0, 73, 70
1, 30864, Note_on_c, 1, 66, 63
1, 30864, Note_on_c, 1, 62, 63
1, 30887, Note_on_c, 0, 73, 0
1, 30888, Note_on_c, 0, 71, 69
1, 30909, Note_on_c, 1, 66, 0
1, 30909, Note_on_c, 1, 62, 0
1, 30911, Note_on_c, 0, 71, 0
1, 30912, Note_on_c, 0, 69, 69
1, 30912, Note_on_c, 1, 67, 63
1, 30912, Note_on_c, 1, 62, 63
1, 30935, Note_on_c, 0, 69, 0
1, 30936, Note_on_c, 0, 71, 69
1, 30957, Note_on_c, 1, 67, 0
1, 30957, Note_on_c, 1, 62, 0
1, 30959, Note_on_c, 0, 71, 0
1, 30960, Note_on_c, 0, 73, 70
1, 30960, Note_on_c, 1, 67, 63
1, 30960, Note_on_c, 1, 62, 63
1, 30983, Note_on_c, 0, 73, 0
1, 30984, Note_on_c, 0, 74, 71
1, 31005, Note_on_c, 1, 67, 0
1, 31005, Note_on_c, 1, 62, 0
1, 31007, Note_on_c, 0, 74, 0
1, 31008, Note_on_c, 0, 76, 72
1, 31008, Note_on_c, 1, 67, 63
1, 31008, Note_on_c, 1, 62, 63
1, 31031, Note_on_c, 0, 76, 0
1, 31032, Note_on_c, 0, 78, 72
1, 31053, Note_on_c, 1, 67, 0
1, 31053, Note_on_c, 1, 62, 0
1, 31055, Note_on_c, 0, 78, 0
1, 31056, Note_on_c, 0, 79, 73
1, 31056, Note_on_c, 1, 67, 63
1, 31056, Note_on_c, 1, 62, 63
1, 31079, Note_on_c, 0, 79, 0
1, 31080, Note_on_c, 0, 76, 74
1, 31101, Note_on_c, 1, 67, 0
1, 31101, Note_on_c, 1, 62, 0
1, 31103, Note_on_c, 0, 76, 0
1, 31104, Note_on_c, 0, 74, 75
1, 31104, Note_on_c, 1, 66, 63
1, 31104, Note_on_c, 1, 62, 63
1, 31127, Note_on_c, 0, 74, 0
1, 31128, Note_on_c, 0, 76, 75
1, 31149, Note_on_c, 1, 66, 0
1, 31149, Note_on_c, 1, 62, 0
1, 31151, Note_on_c, 0, 76, 0
1, 31152, Note_on_c, 0, 78, 76
1, 31152, Note_on_c, 1, 66, 63
1, 31152, Note_on_c, 1, 62, 63
1, 31175, Note_on_c, 0, 78, 0
1, 31176, Note_on_c, 0, 79, 77
1, 31197, Note_on_c, 1, 66, 0
1, 31197, Note_on_c, 1, 62, 0
1, 31199, Note_on_c, 0, 79, 0
1, 31200, Note_on_c, 0, 81, 78
1, 31200, Note_on_c, 1, 66, 63
1, 31200, Note_on_c, 1, 62, 63
1, 31223, Note_on_c, 0, 81, 0
1, 31224, Note_on_c, 0, 83, 78
1, 31245, Note_on_c, 1, 66, 0
1, 31245, Note_on_c, 1, 62, 0
1, 31247, Note_on_c, 0, 83, 0
1, 31248, Note_on_c, 0, 85, 79
1, 31248, Note_on_c, 1, 66, 63
1, 31248, Note_on_c, 1, 62, 63
1, 31271, Note_on_c, 0, 85, 0
1, 31272, Note_on_c, 0, 86, 80
1, 31293, Note_on_c, 1, 66, 0
1, 31293, Note_on_c, 1, 62, 0
1, 31295, Note_on_c, 0, 86, 0
1, 31296, Note_on_c, 0, 74, 81
1, 31296, Note_on_c, 1, 66, 63
1, 31296, Note_on_c, 1, 62, 63
1, 31385, Note_on_c, 0, 74, 0
1, 31385, Note_on_c, 1, 66, 0
1, 31385, Note_on_c, 1, 62, 0
1, 31488, Note_on_c, 0, 67, 75
1, 31488, Note_on_c, 1, 59, 63
1, 31488, Note_on_c, 1, 55, 63
1, 31533, Note_on_c, 1, 59, 0
1, 31533, Note_on_c, 1, 55, 0
1, 31536, Note_on_c, 1, 59, 63
1, 31536, Note_on_c, 1, 55, 63
1, 31555, Note_on_c, 0, 67, 0
1, 31560, Note_on_c, 0, 71, 75
1, 31572, Note_on_c, 0, 71, 0
1, 31572, Note_on_c, 0, 69, 75
1, 31581, Note_on_c, 1, 59, 0
1, 31581, Note_on_c, 1, 55, 0
1, 31584, Note_on_c, 0, 69, 0
1, 31584, Note_on_c, 0, 67, 75
1, 31584, Note_on_c, 1, 59, 63
1, 31584, Note_on_c, 1, 55, 63
1, 31607, Note_on_c, 0, 67, 0
1, 31608, Note_on_c, 0, 62, 75
1, 31629, Note_on_c, 1, 59, 0
1, 31629, Note_on_c, 1, 55, 0
1, 31631, Note_on_c, 0, 62, 0
1, 31632, Note_on_c, 0, 71, 76
1, 31632, Note_on_c, 1, 59, 63
1, 31632, Note_on_c, 1, 55, 63
1, 31655, Note_on_c, 0, 71, 0
1, 31656, Note_on_c, 0, 69, 77
1, 31677, Note_on_c, 1, 59, 0
1, 31677, Note_on_c, 1, 55, 0
1, 31679, Note_on_c, 0, 69, 0
1, 31680, Note_on_c, 0, 67, 78
1, 31680, Note_on_c, 1, 59, 63
1, 31680, Note_on_c, 1, 55, 63
1, 31703, Note_on_c, 0, 67, 0
1, 31704, Note_on_c, 0, 62, 78
1, 31725, Note_on_c, 1, 59, 0
1, 31725, Note_on_c, 1, 55, 0
1, 31727, Note_on_c, 0, 62, 0
1, 31728, Note_on_c, 0, 67, 79
1, 31728, Note_on_c, 1, 59, 63
1, 31728, Note_on_c, 1, 55, 63
1, 31751, Note_on_c, 0, 67, 0
1, 31752, Note_on_c, 0, 71, 80
1, 31773, Note_on_c, 1, 59, 0
1, 31773, Note_on_c, 1, 55, 0
1, 31775, Note_on_c, 0, 71, 0
1, 31776, Note_on_c, 0, 74, 81
1, 31776, Note_on_c, 1, 59, 63
1, 31776, Note_on_c, 1, 55, 63
1, 31799, Note_on_c, 0, 74, 0
1, 31800, Note_on_c, 0, 71, 80
1, 31821, Note_on_c, 1, 59, 0
1, 31821, Note_on_c, 1, 55, 0
1, 31823, Note_on_c, 0, 71, 0
1, 31824, Note_on_c, 0, 69, 79
1, 31824, Note_on_c, 1, 59, 63
1, 31824, Note_on_c, 1, 55, 63
1, 31847, Note_on_c, 0, 69, 0
1, 31848, Note_on_c, 0, 67, 79
1, 31869, Note_on_c, 1, 59, 0
1, 31869, Note_on_c, 1, 55, 0
1, 31871, Note_on_c, 0, 67, 0
1, 31872, Note_on_c, 0, 71, 78
1, 31872, Note_on_c, 1, 60, 63
1, 31872, Note_on_c, 1, 55, 63
1, 31895, Note_on_c, 0, 71, 0
1, 31896, Note_on_c, 0, 69, 78
1, 31919, Note_on_c, 0, 69, 0
1, 31920, Note_on_c, 0, 67, 77
1, 31943, Note_on_c, 0, 67, 0
1, 31944, Note_on_c, 0, 69, 76
1, 31967, Note_on_c, 0, 69, 0
1, 31968, Note_on_c, 0, 67, 76
1, 31968, Note_on_c, 1, 60, 0
1, 31968, Note_on_c, 1, 59, 63
1, 32013, Note_on_c, 0, 67, 0
1, 32013, Note_on_c, 1, 59, 0
1, 32013, Note_on_c, 1, 55, 0
1, 32016, Note_on_c, 0, 74, 75
1, 32036, Note_on_c, 0, 74, 0
1, 32064, Note_on_c, 0, 74, 75
1, 32064, Note_on_c, 1, 65, 63
1, 32084, Note_on_c, 0, 74, 0
1, 32087, Note_on_c, 1, 65, 0
1, 32088, Note_on_c, 1, 67, 63
1, 32111, Note_on_c, 1, 67, 0
1, 32112, Note_on_c, 0, 74, 75
1, 32112, Note_on_c, 1, 65, 63
1, 32132, Note_on_c, 0, 74, 0
1, 32135, Note_on_c, 1, 65, 0
1, 32136, Note_on_c, 1, 67, 63
1, 32159, Note_on_c, 1, 67, 0
1, 32160, Note_on_c, 0, 74, 75
1, 32160, Note_on_c, 1, 65, 63
1, 32180, Note_on_c, 0, 74, 0
1, 32183, Note_on_c, 1, 65, 0
1, 32184, Note_on_c, 1, 67, 63
1, 32207, Note_on_c, 1, 67, 0
1, 32208, Note_on_c, 0, 74, 75
1, 32208, Note_on_c, 1, 65, 63
1, 32228, Note_on_c, 0, 74, 0
1, 32231, Note_on_c, 1, 65, 0
1, 32232, Note_on_c, 1, 67, 63
1, 32255, Note_on_c, 1, 67, 0
1, 32256, Note_on_c, 0, 74, 75
1, 32256, Note_on_c, 1, 64, 63
1, 32279, Note_on_c, 0, 74, 0
1, 32280, Note_on_c, 0, 79, 75
1, 32303, Note_on_c, 0, 79, 0
1, 32304, Note_on_c, 0, 76, 76
1, 32327, Note_on_c, 0, 76, 0
1, 32328, Note_on_c, 0, 74, 76
1, 32345, Note_on_c, 1, 64, 0
1, 32351, Note_on_c, 0, 74, 0
1, 32352, Note_on_c, 0, 72, 77
1, 32375, Note_on_c, 0, 72, 0
1, 32376, Note_on_c, 0, 76, 78
1, 32399, Note_on_c, 0, 76, 0
1, 32400, Note_on_c, 0, 72, 78
1, 32400, Note_on_c, 1, 64, 63
1, 32423, Note_on_c, 0, 72, 0
1, 32423, Note_on_c, 1, 64, 0
1, 32424, Note_on_c, 0, 71, 79
1, 32424, Note_on_c, 1, 62, 63
1, 32447, Note_on_c, 0, 71, 0
1, 32447, Note_on_c, 1, 62, 0
1, 32448, Note_on_c, 0, 69, 79
1, 32448, Note_on_c, 1, 60, 64
1, 32471, Note_on_c, 0, 69, 0
1, 32472, Note_on_c, 0, 88, 80
1, 32495, Note_on_c, 0, 88, 0
1, 32496, Note_on_c, 0, 84, 81
1, 32519, Note_on_c, 0, 84, 0
1, 32520, Note_on_c, 0, 83, 81
1, 32537, Note_on_c, 1, 60, 0
1, 32543, Note_on_c, 0, 83, 0
1, 32544, Note_on_c, 0, 81, 81
1, 32567, Note_on_c, 0, 81, 0
1, 32568, Note_on_c, 0, 84, 81
1, 32591, Note_on_c, 0, 84, 0
1, 32592, Note_on_c, 0, 81, 81
1, 32592, Note_on_c, 1, 61, 66
1, 32615, Note_on_c, 0, 81, 0
1, 32616, Note_on_c, 0, 79, 81
1, 32639, Note_on_c, 0, 79, 0
1, 32640, Note_on_c, 0, 78, 81
1, 32640, Note_on_c, 1, 61, 0
1, 32640, Note_on_c, 1, 62, 66
1, 32663, Note_on_c, 0, 78, 0
1, 32664, Note_on_c, 0, 79, 81
1, 32687, Note_on_c, 0, 79, 0
1, 32688, Note_on_c, 0, 81, 81
1, 32711, Note_on_c, 0, 81, 0
1, 32712, Note_on_c, 0, 79, 81
1, 32735, Note_on_c, 0, 79, 0
1, 32736, Note_on_c, 0, 78, 81
1, 32759, Note_on_c, 0, 78, 0
1, 32760, Note_on_c, 0, 76, 81
1, 32783, Note_on_c, 0, 76, 0
1, 32784, Note_on_c, 0, 74, 81
1, 32807, Note_on_c, 0, 74, 0
1, 32808, Note_on_c, 0, 73, 81
1, 32817, Note_on_c, 1, 62, 0
1, 32831, Note_on_c, 0, 73, 0
1, 32832, Note_on_c, 0, 74, 81
1, 32832, Note_on_c, 1, 50, 69
1, 32855, Note_on_c, 0, 74, 0
1, 32856, Note_on_c, 0, 86, 80
1, 32879, Note_on_c, 0, 86, 0
1, 32880, Note_on_c, 0, 72, 79
1, 32903, Note_on_c, 0, 72, 0
1, 32904, Note_on_c, 0, 84, 78
1, 32921, Note_on_c, 1, 50, 0
1, 32927, Note_on_c, 0, 84, 0
1, 32928, Note_on_c, 0, 71, 78
1, 32951, Note_on_c, 0, 71, 0
1, 32952, Note_on_c, 0, 83, 77
1, 32975, Note_on_c, 0, 83, 0
1, 32976, Note_on_c, 0, 69, 76
1, 32999, Note_on_c, 0, 69, 0
1, 33000, Note_on_c, 0, 81, 75
1, 33023, Note_on_c, 0, 81, 0
1, 33024, Note_on_c, 0, 67, 75
1, 33024, Note_on_c, 1, 59, 63
1, 33024, Note_on_c, 1, 55, 63
1, 33069, Note_on_c, 1, 59, 0
1, 33069, Note_on_c, 1, 55, 0
1, 33072, Note_on_c, 1, 59, 63
1, 33072, Note_on_c, 1, 55, 63
1, 33091, Note_on_c, 0, 67, 0
1, 33096, Note_on_c, 0, 71, 75
1, 33108, Note_on_c, 0, 71, 0
1, 33108, Note_on_c, 0, 69, 75
1, 33117, Note_on_c, 1, 59, 0
1, 33117, Note_on_c, 1, 55, 0
1, 33120, Note_on_c, 0, 69, 0
1, 33120, Note_on_c, 0, 67, 75
1, 33120, Note_on_c, 1, 59, 63
1, 33120, Note_on_c, 1, 55, 63
1, 33143, Note_on_c, 0, 67, 0
1, 33144, Note_on_c, 0, 62, 75
1, 33165, Note_on_c, 1, 59, 0
1, 33165, Note_on_c, 1, 55, 0
1, 33167, Note_on_c, 0, 62, 0
1, 33168, Note_on_c, 0, 71, 76
1, 33168, Note_on_c, 1, 59, 63
1, 33168, Note_on_c, 1, 55, 63
1, 33191, Note_on_c, 0, 71, 0
1, 33192, Note_on_c, 0, 69, 77
1, 33213, Note_on_c, 1, 59, 0
1, 33213, Note_on_c, 1, 55, 0
1, 33215, Note_on_c, 0, 69, 0
1, 33216, Note_on_c, 0, 67, 78
1, 33216, Note_on_c, 1, 59, 63
1, 33216, Note_on_c, 1, 55, 63
1, 33239, Note_on_c, 0, 67, 0
1, 33240, Note_on_c, 0, 62, 78
1, 33261, Note_on_c, 1, 59, 0
1, 33261, Note_on_c, 1, 55, 0
1, 33263, Note_on_c, 0, 62, 0
1, 33264, Note_on_c, 0, 67, 79
1, 33264, Note_on_c, 1, 59, 63
1, 33264, Note_on_c, 1, 55, 63
1, 33287, Note_on_c, 0, 67, 0
1, 33288, Note_on_c, 0, 71, 80
1, 33309, Note_on_c, 1, 59, 0
1, 33309, Note_on_c, 1, 55, 0
1, 33311, Note_on_c, 0, 71, 0
1, 33312, Note_on_c, 0, 74, 81
1, 33312, Note_on_c, 1, 59, 63
1, 33312, Note_on_c, 1, 55, 63
1, 33335, Note_on_c, 0, 74, 0
1, 33336, Note_on_c, 0, 71, 80
1, 33357, Note_on_c, 1, 59, 0
1, 33357, Note_on_c, 1, 55, 0
1, 33359, Note_on_c, 0, 71, 0
1, 33360, Note_on_c, 0, 69, 79
1, 33360, Note_on_c, 1, 59, 63
1, 33360, Note_on_c, 1, 55, 63
1, 33383, Note_on_c, 0, 69, 0
1, 33384, Note_on_c, 0, 67, 79
1, 33405, Note_on_c, 1, 59, 0
1, 33405, Note_on_c, 1, 55, 0
1, 33407, Note_on_c, 0, 67, 0
1, 33408, Note_on_c, 0, 71, 78
1, 33408, Note_on_c, 1, 60, 63
1, 33408, Note_on_c, 1, 55, 63
1, 33431, Note_on_c, 0, 71, 0
1, 33432, Note_on_c, 0, 69, 78
1, 33455, Note_on_c, 0, 69, 0
1, 33456, Note_on_c, 0, 67, 77
1, 33479, Note_on_c, 0, 67, 0
1, 33480, Note_on_c, 0, 69, 76
1, 33503, Note_on_c, 0, 69, 0
1, 33504, Note_on_c, 0, 67, 76
1, 33504, Note_on_c, 1, 60, 0
1, 33504, Note_on_c, 1, 59, 63
1, 33549, Note_on_c, 0, 67, 0
1, 33549, Note_on_c, 1, 59, 0
1, 33549, Note_on_c, 1, 55, 0
1, 33552, Note_on_c, 0, 76, 75
1, 33597, Note_on_c, 0, 76, 0
1, 33600, Note_on_c, 0, 75, 75
1, 33600, Note_on_c, 1, 71, 69
1, 33600, Note_on_c, 1, 67, 69
1, 33623, Note_on_c, 0, 75, 0
1, 33624, Note_on_c, 0, 76, 75
1, 33645, Note_on_c, 1, 71, 0
1, 33645, Note_on_c, 1, 67, 0
1, 33647, Note_on_c, 0, 76, 0
1, 33648, Note_on_c, 0, 77, 76
1, 33648, Note_on_c, 1, 71, 69
1, 33648, Note_on_c, 1, 67, 69
1, 33671, Note_on_c, 0, 77, 0
1, 33672, Note_on_c, 0, 78, 77
1, 33693, Note_on_c, 1, 71, 0
1, 33693, Note_on_c, 1, 67, 0
1, 33695, Note_on_c, 0, 78, 0
1, 33696, Note_on_c, 0, 79, 78
1, 33696, Note_on_c, 1, 71, 69
1, 33696, Note_on_c, 1, 67, 69
1, 33719, Note_on_c, 0, 79, 0
1, 33720, Note_on_c, 0, 80, 78
1, 33741, Note_on_c, 1, 71, 0
1, 33741, Note_on_c, 1, 67, 0
1, 33743, Note_on_c, 0, 80, 0
1, 33744, Note_on_c, 0, 81, 79
1, 33744, Note_on_c, 1, 71, 69
1, 33744, Note_on_c, 1, 67, 69
1, 33767, Note_on_c, 0, 81, 0
1, 33768, Note_on_c, 0, 82, 80
1, 33789, Note_on_c, 1, 71, 0
1, 33789, Note_on_c, 1, 67, 0
1, 33791, Note_on_c, 0, 82, 0
1, 33792, Note_on_c, 0, 83, 81
1, 33792, Note_on_c, 1, 71, 85
1, 33792, Note_on_c, 1, 67, 85
1, 33840, Note_on_c, 1, 71, 0
1, 33840, Note_on_c, 1, 67, 0
1, 33840, Note_on_c, 1, 71, 69
1, 33840, Note_on_c, 1, 67, 69
1, 33881, Note_on_c, 0, 83, 0
1, 33885, Note_on_c, 1, 71, 0
1, 33885, Note_on_c, 1, 67, 0
1, 33888, Note_on_c, 0, 81, 81
1, 33888, Note_on_c, 1, 71, 69
1, 33888, Note_on_c, 1, 67, 69
1, 33911, Note_on_c, 0, 81, 0
1, 33912, Note_on_c, 0, 79, 80
1, 33933, Note_on_c, 1, 71, 0
1, 33933, Note_on_c, 1, 67, 0
1, 33935, Note_on_c, 0, 79, 0
1, 33936, Note_on_c, 0, 78, 80
1, 33936, Note_on_c, 1, 71, 69
1, 33936, Note_on_c, 1, 67, 69
1, 33959, Note_on_c, 0, 78, 0
1, 33960, Note_on_c, 0, 76, 79
1, 33981, Note_on_c, 1, 71, 0
1, 33981, Note_on_c, 1, 67, 0
1, 33983, Note_on_c, 0, 76, 0
1, 33984, Note_on_c, 0, 74, 79
1, 33984, Note_on_c, 1, 66, 69
1, 33984, Note_on_c, 1, 57, 69
1, 34029, Note_on_c, 1, 66, 0
1, 34029, Note_on_c, 1, 57, 0
1, 34032, Note_on_c, 1, 66, 69
1, 34032, Note_on_c, 1, 57, 69
1, 34073, Note_on_c, 0, 74, 0
1, 34077, Note_on_c, 1, 66, 0
1, 34077, Note_on_c, 1, 57, 0
1, 34080, Note_on_c, 0, 73, 77
1, 34080, Note_on_c, 1, 64, 69
1, 34080, Note_on_c, 1, 57, 69
1, 34093, Note_on_c, 0, 73, 0
1, 34094, Note_on_c, 0, 74, 76
1, 34107, Note_on_c, 0, 74, 0
1, 34108, Note_on_c, 0, 73, 76
1, 34121, Note_on_c, 0, 73, 0
1, 34122, Note_on_c, 0, 74, 76
1, 34125, Note_on_c, 1, 64, 0
1, 34125, Note_on_c, 1, 57, 0
1, 34128, Note_on_c, 1, 64, 69
1, 34128, Note_on_c, 1, 57, 69
1, 34135, Note_on_c, 0, 74, 0
1, 34136, Note_on_c, 0, 73, 76
1, 34149, Note_on_c, 0, 73, 0
1, 34150, Note_on_c, 0, 71, 75
1, 34162, Note_on_c, 0, 71, 0
1, 34163, Note_on_c, 0, 73, 75
1, 34173, Note_on_c, 1, 64, 0
1, 34173, Note_on_c, 1, 57, 0
1, 34175, Note_on_c, 0, 73, 0
1, 34176, Note_on_c, 0, 74, 75
1, 34176, Note_on_c, 1, 66, 69
1, 34176, Note_on_c, 1, 62, 69
1, 34199, Note_on_c, 0, 74, 0
1, 34200, Note_on_c, 0, 76, 75
1, 34221, Note_on_c, 1, 66, 0
1, 34221, Note_on_c, 1, 62, 0
1, 34223, Note_on_c, 0, 76, 0
1, 34224, Note_on_c, 0, 78, 76
1, 34224, Note_on_c, 1, 66, 69
1, 34224, Note_on_c, 1, 62, 69
1, 34247, Note_on_c, 0, 78, 0
1, 34248, Note_on_c, 0, 79, 77
1, 34269, Note_on_c, 1, 66, 0
1, 34269, Note_on_c, 1, 62, 0
1, 34271, Note_on_c, 0, 79, 0
1, 34272, Note_on_c, 0, 81, 78
1, 34272, Note_on_c, 1, 66, 69
1, 34272, Note_on_c, 1, 62, 69
1, 34295, Note_on_c, 0, 81, 0
1, 34296, Note_on_c, 0, 83, 78
1, 34317, Note_on_c, 1, 66, 0
1, 34317, Note_on_c, 1, 62, 0
1, 34319, Note_on_c, 0, 83, 0
1, 34320, Note_on_c, 0, 85, 79
1, 34320, Note_on_c, 1, 66, 69
1, 34320, Note_on_c, 1, 62, 69
1, 34343, Note_on_c, 0, 85, 0
1, 34344, Note_on_c, 0, 86, 80
1, 34365, Note_on_c, 1, 66, 0
1, 34365, Note_on_c, 1, 62, 0
1, 34367, Note_on_c, 0, 86, 0
1, 34368, Note_on_c, 0, 85, 81
1, 34368, Note_on_c, 1, 67, 69
1, 34368, Note_on_c, 1, 62, 69
1, 34391, Note_on_c, 0, 85, 0
1, 34392, Note_on_c, 0, 88, 80
1, 34413, Note_on_c, 1, 67, 0
1, 34413, Note_on_c, 1, 62, 0
1, 34415, Note_on_c, 0, 88, 0
1, 34416, Note_on_c, 0, 85, 79
1, 34416, Note_on_c, 1, 67, 69
1, 34416, Note_on_c, 1, 62, 69
1, 34439, Note_on_c, 0, 85, 0
1, 34440, Note_on_c, 0, 81, 78
1, 34461, Note_on_c, 1, 67, 0
1, 34461, Note_on_c, 1, 62, 0
1, 34463, Note_on_c, 0, 81, 0
1, 34464, Note_on_c, 0, 79, 78
1, 34464, Note_on_c, 1, 67, 69
1, 34464, Note_on_c, 1, 62, 69
1, 34487, Note_on_c, 0, 79, 0
1, 34488, Note_on_c, 0, 83, 77
1, 34509, Note_on_c, 1, 67, 0
1, 34509, Note_on_c, 1, 62, 0
1, 34511, Note_on_c, 0, 83, 0
1, 34512, Note_on_c, 0, 79, 76
1, 34512, Note_on_c, 1, 67, 69
1, 34512, Note_on_c, 1, 62, 69
1, 34535, Note_on_c, 0, 79, 0
1, 34536, Note_on_c, 0, 76, 75
1, 34557, Note_on_c, 1, 67, 0
1, 34557, Note_on_c, 1, 62, 0
1, 34559, Note_on_c, 0, 76, 0
1, 34560, Note_on_c, 0, 78, 75
1, 34560, Note_on_c, 1, 66, 69
1, 34560, Note_on_c, 1, 62, 69
1, 34583, Note_on_c, 0, 78, 0
1, 34584, Note_on_c, 0, 81, 74
1, 34605, Note_on_c, 1, 66, 0
1, 34605, Note_on_c, 1, 62, 0
1, 34607, Note_on_c, 0, 81, 0
1, 34608, Note_on_c, 0, 79, 73
1, 34608, Note_on_c, 1, 66, 69
1, 34608, Note_on_c, 1, 62, 69
1, 34631, Note_on_c, 0, 79, 0
1, 34632, Note_on_c, 0, 78, 72
1, 34653, Note_on_c, 1, 66, 0
1, 34653, Note_on_c, 1, 62, 0
1, 34655, Note_on_c, 0, 78, 0
1, 34656, Note_on_c, 0, 76, 72
1, 34656, Note_on_c, 1, 66, 69
1, 34656, Note_on_c, 1, 62, 69
1, 34679, Note_on_c, 0, 76, 0
1, 34680, Note_on_c, 0, 74, 71
1, 34701, Note_on_c, 1, 66, 0
1, 34701, Note_on_c, 1, 62, 0
1, 34703, Note_on_c, 0, 74, 0
1, 34704, Note_on_c, 0, 73, 70
1, 34704, Note_on_c, 1, 66, 69
1, 34704, Note_on_c, 1, 62, 69
1, 34727, Note_on_c, 0, 73, 0
1, 34728, Note_on_c, 0, 71, 69
1, 34749, Note_on_c, 1, 66, 0
1, 34749, Note_on_c, 1, 62, 0
1, 34751, Note_on_c, 0, 71, 0
1, 34752, Note_on_c, 0, 69, 69
1, 34752, Note_on_c, 1, 67, 69
1, 34752, Note_on_c, 1, 62, 69
1, 34775, Note_on_c, 0, 69, 0
1, 34776, Note_on_c, 0, 71, 69
1, 34797, Note_on_c, 1, 67, 0
1, 34797, Note_on_c, 1, 62, 0
1, 34799, Note_on_c, 0, 71, 0
1, 34800, Note_on_c, 0, 73, 70
1, 34800, Note_on_c, 1, 67, 69
1, 34800, Note_on_c, 1, 62, 69
1, 34823, Note_on_c, 0, 73, 0
1, 34824, Note_on_c, 0, 74, 71
1, 34845, Note_on_c, 1, 67, 0
1, 34845, Note_on_c, 1, 62, 0
1, 34847, Note_on_c, 0, 74, 0
1, 34848, Note_on_c, 0, 76, 72
1, 34848, Note_on_c, 1, 67, 69
1, 34848, Note_on_c, 1, 62, 69
1, 34871, Note_on_c, 0, 76, 0
1, 34872, Note_on_c, 0, 78, 72
1, 34893, Note_on_c, 1, 67, 0
1, 34893, Note_on_c, 1, 62, 0
1, 34895, Note_on_c, 0, 78, 0
1, 34896, Note_on_c, 0, 79, 73
1, 34896, Note_on_c, 1, 67, 69
1, 34896, Note_on_c, 1, 62, 69
1, 34919, Note_on_c, 0, 79, 0
1, 34920, Note_on_c, 0, 76, 74
1, 34941, Note_on_c, 1, 67, 0
1, 34941, Note_on_c, 1, 62, 0
1, 34943, Note_on_c, 0, 76, 0
1, 34944, Note_on_c, 0, 74, 75
1, 34944, Note_on_c, 1, 66, 69
1, 34944, Note_on_c, 1, 62, 69
1, 34967, Note_on_c, 0, 74, 0
1, 34968, Note_on_c, 0, 76, 75
1, 34989, Note_on_c, 1, 66, 0
1, 34989, Note_on_c, 1, 62, 0
1, 34991, Note_on_c, 0, 76, 0
1, 34992, Note_on_c, 0, 78, 76
1, 34992, Note_on_c, 1, 66, 69
1, 34992, Note_on_c, 1, 62, 69
1, 35015, Note_on_c, 0, 78, 0
1, 35016, Note_on_c, 0, 79, 77
1, 35037, Note_on_c, 1, 66, 0
1, 35037, Note_on_c, 1, 62, 0
1, 35039, Note_on_c, 0, 79, 0
1, 35040, Note_on_c, 0, 81, 78
1, 35040, Note_on_c, 1, 66, 69
1, 35040, Note_on_c, 1, 62, 69
1, 35063, Note_on_c, 0, 81, 0
1, 35064, Note_on_c, 0, 83, 78
1, 35085, Note_on_c, 1, 66, 0
1, 35085, Note_on_c, 1, 62, 0
1, 35087, Note_on_c, 0, 83, 0
1, 35088, Note_on_c, 0, 85, 79
1, 35088, Note_on_c, 1, 66, 69
1, 35088, Note_on_c, 1, 62, 69
1, 35111, Note_on_c, 0, 85, 0
1, 35112, Note_on_c, 0, 86, 80
1, 35133, Note_on_c, 1, 66, 0
1, 35133, Note_on_c, 1, 62, 0
1, 35135, Note_on_c, 0, 86, 0
1, 35136, Note_on_c, 0, 74, 81
1, 35136, Note_on_c, 1, 66, 69
1, 35136, Note_on_c, 1, 62, 69
1, 35225, Note_on_c, 0, 74, 0
1, 35225, Note_on_c, 1, 66, 0
1, 35225, Note_on_c, 1, 62, 0
1, 35328, Note_on_c, 0, 77, 75
1, 35328, Note_on_c, 1, 58, 69
1, 35351, Note_on_c, 1, 58, 0
1, 35352, Note_on_c, 1, 65, 69
1, 35375, Note_on_c, 1, 65, 0
1, 35376, Note_on_c, 1, 62, 69
1, 35395, Note_on_c, 0, 77, 0
1, 35399, Note_on_c, 1, 62, 0
1, 35400, Note_on_c, 0, 74, 75
1, 35400, Note_on_c, 1, 65, 69
1, 35412, Note_on_c, 0, 74, 0
1, 35412, Note_on_c, 0, 75, 75
1, 35423, Note_on_c, 1, 65, 0
1, 35424, Note_on_c, 0, 75, 0
1, 35424, Note_on_c, 0, 77, 75
1, 35424, Note_on_c, 1, 58, 69
1, 35447, Note_on_c, 1, 58, 0
1, 35448, Note_on_c, 1, 65, 69
1, 35469, Note_on_c, 0, 77, 0
1, 35471, Note_on_c, 1, 65, 0
1, 35472, Note_on_c, 0, 89, 91
1, 35472, Note_on_c, 1, 62, 69
1, 35495, Note_on_c, 1, 62, 0
1, 35496, Note_on_c, 1, 65, 69
1, 35519, Note_on_c, 1, 65, 0
1, 35520, Note_on_c, 1, 60, 69
1, 35543, Note_on_c, 1, 60, 0
1, 35544, Note_on_c, 1, 65, 69
1, 35567, Note_on_c, 1, 65, 0
1, 35568, Note_on_c, 0, 89, 0
1, 35568, Note_on_c, 0, 69, 75
1, 35568, Note_on_c, 1, 63, 69
1, 35588, Note_on_c, 0, 69, 0
1, 35591, Note_on_c, 1, 63, 0
1, 35592, Note_on_c, 1, 65, 69
1, 35615, Note_on_c, 1, 65, 0
1, 35616, Note_on_c, 0, 69, 75
1, 35616, Note_on_c, 1, 60, 69
1, 35636, Note_on_c, 0, 69, 0
1, 35639, Note_on_c, 1, 60, 0
1, 35640, Note_on_c, 1, 65, 69
1, 35663, Note_on_c, 1, 65, 0
1, 35664, Note_on_c, 0, 69, 75
1, 35664, Note_on_c, 1, 63, 69
1, 35684, Note_on_c, 0, 69, 0
1, 35687, Note_on_c, 1, 63, 0
1, 35688, Note_on_c, 1, 65, 69
1, 35711, Note_on_c, 1, 65, 0
1, 35712, Note_on_c, 0, 70, 75
1, 35712, Note_on_c, 1, 58, 69
1, 35735, Note_on_c, 1, 58, 0
1, 35736, Note_on_c, 1, 65, 69
1, 35759, Note_on_c, 1, 65, 0
1, 35760, Note_on_c, 1, 62, 69
1, 35779, Note_on_c, 0, 70, 0
1, 35783, Note_on_c, 1, 62, 0
1, 35784, Note_on_c, 0, 70, 75
1, 35784, Note_on_c, 1, 65, 69
1, 35796, Note_on_c, 0, 70, 0
1, 35796, Note_on_c, 0, 72, 75
1, 35807, Note_on_c, 1, 65, 0
1, 35808, Note_on_c, 0, 72, 0
1, 35808, Note_on_c, 0, 74, 75
1, 35808, Note_on_c, 1, 58, 69
1, 35831, Note_on_c, 1, 58, 0
1, 35832, Note_on_c, 1, 65, 69
1, 35853, Note_on_c, 0, 74, 0
1, 35855, Note_on_c, 1, 65, 0
1, 35856, Note_on_c, 0, 86, 91
1, 35856, Note_on_c, 1, 62, 69
1, 35879, Note_on_c, 1, 62, 0
1, 35880, Note_on_c, 1, 65, 69
1, 35903, Note_on_c, 1, 65, 0
1, 35904, Note_on_c, 1, 57, 69
1, 35927, Note_on_c, 1, 57, 0
1, 35928, Note_on_c, 1, 62, 69
1, 35951, Note_on_c, 1, 62, 0
1, 35952, Note_on_c, 0, 86, 0
1, 35952, Note_on_c, 0, 66, 75
1, 35952, Note_on_c, 1, 60, 69
1, 35972, Note_on_c, 0, 66, 0
1, 35975, Note_on_c, 1, 60, 0
1, 35976, Note_on_c, 1, 62, 69
1, 35999, Note_on_c, 1, 62, 0
1, 36000, Note_on_c, 0, 66, 75
1, 36000, Note_on_c, 1, 57, 69
1, 36020, Note_on_c, 0, 66, 0
1, 36023, Note_on_c, 1, 57, 0
1, 36024, Note_on_c, 1, 62, 69
1, 36047, Note_on_c, 1, 62, 0
1, 36048, Note_on_c, 0, 66, 75
1, 36048, Note_on_c, 1, 60, 69
1, 36068, Note_on_c, 0, 66, 0
1, 36071, Note_on_c, 1, 60, 0
1, 36072, Note_on_c, 1, 62, 69
1, 36095, Note_on_c, 1, 62, 0
1, 36096, Note_on_c, 0, 67, 75
1, 36096, Note_on_c, 1, 55, 69
1, 36119, Note_on_c, 1, 55, 0
1, 36120, Note_on_c, 1, 62, 69
1, 36143, Note_on_c, 1, 62, 0
1, 36144, Note_on_c, 1, 58, 69
1, 36163, Note_on_c, 0, 67, 0
1, 36167, Note_on_c, 1, 58, 0
1, 36168, Note_on_c, 0, 67, 75
1, 36168, Note_on_c, 1, 62, 69
1, 36180, Note_on_c, 0, 67, 0
1, 36180, Note_on_c, 0, 69, 75
1, 36191, Note_on_c, 1, 62, 0
1, 36192, Note_on_c, 0, 69, 0
1, 36192, Note_on_c, 0, 70, 75
1, 36192, Note_on_c, 1, 55, 69
1, 36215, Note_on_c, 1, 55, 0
1, 36216, Note_on_c, 1, 62, 69
1, 36237, Note_on_c, 0, 70, 0
1, 36239, Note_on_c, 1, 62, 0
1, 36240, Note_on_c, 0, 82, 91
1, 36240, Note_on_c, 1, 58, 69
1, 36263, Note_on_c, 1, 58, 0
1, 36264, Note_on_c, 1, 62, 69
1, 36287, Note_on_c, 1, 62, 0
1, 36288, Note_on_c, 1, 51, 69
1, 36311, Note_on_c, 1, 51, 0
1, 36312, Note_on_c, 1, 55, 69
1, 36335, Note_on_c, 1, 55, 0
1, 36336, Note_on_c, 0, 82, 0
1, 36336, Note_on_c, 0, 61, 75
1, 36336, Note_on_c, 1, 54, 69
1, 36356, Note_on_c, 0, 61, 0
1, 36359, Note_on_c, 1, 54, 0
1, 36360, Note_on_c, 1, 55, 69
1, 36383, Note_on_c, 1, 55, 0
1, 36384, Note_on_c, 0, 61, 75
1, 36384, Note_on_c, 1, 51, 69
1, 36404, Note_on_c, 0, 61, 0
1, 36407, Note_on_c, 1, 51, 0
1, 36408, Note_on_c, 1, 55, 69
1, 36431, Note_on_c, 1, 55, 0
1, 36432, Note_on_c, 0, 61, 75
1, 36432, Note_on_c, 1, 54, 69
1, 36452, Note_on_c, 0, 61, 0
1, 36455, Note_on_c, 1, 54, 0
1, 36456, Note_on_c, 1, 55, 69
1, 36479, Note_on_c, 1, 55, 0
1, 36480, Note_on_c, 0, 62, 75
1, 36480, Note_on_c, 1, 50, 69
1, 36503, Note_on_c, 0, 62, 0
1, 36504, Note_on_c, 0, 64, 76
1, 36527, Note_on_c, 0, 64, 0
1, 36528, Note_on_c, 0, 66, 78
1, 36551, Note_on_c, 0, 66, 0
1, 36552, Note_on_c, 0, 67, 79
1, 36569, Note_on_c, 1, 50, 0
1, 36575, Note_on_c, 0, 67, 0
1, 36576, Note_on_c, 0, 69, 81
1, 36599, Note_on_c, 0, 69, 0
1, 36600, Note_on_c, 0, 66, 79
1, 36623, Note_on_c, 0, 66, 0
1, 36624, Note_on_c, 0, 67, 78
1, 36647, Note_on_c, 0, 67, 0
1, 36648, Note_on_c, 0, 64, 76
1, 36671, Note_on_c, 0, 64, 0
1, 36672, Note_on_c, 0, 62, 75
1, 36672, Note_on_c, 1, 50, 75
1, 36695, Note_on_c, 1, 50, 0
1, 36696, Note_on_c, 1, 38, 75
1, 36719, Note_on_c, 1, 38, 0
1, 36720, Note_on_c, 1, 48, 75
1, 36743, Note_on_c, 1, 48, 0
1, 36744, Note_on_c, 1, 36, 74
1, 36761, Note_on_c, 0, 62, 0
1, 36767, Note_on_c, 1, 36, 0
1, 36768, Note_on_c, 1, 47, 73
1, 36791, Note_on_c, 1, 47, 0
1, 36792, Note_on_c, 1, 35, 72
1, 36815, Note_on_c, 1, 35, 0
1, 36816, Note_on_c, 1, 45, 71
1, 36839, Note_on_c, 1, 45, 0
1, 36840, Note_on_c, 1, 33, 70
1, 36863, Note_on_c, 1, 33, 0
1, 36864, Note_on_c, 0, 67, 91
1, 36864, Note_on_c, 1, 59, 63
1, 36864, Note_on_c, 1, 55, 63
1, 36909, Note_on_c, 1, 59, 0
1, 36909, Note_on_c, 1, 55, 0
1, 36912, Note_on_c, 1, 59, 63
1, 36912, Note_on_c, 1, 55, 63
1, 36936, Note_on_c, 0, 67, 0
1, 36936, Note_on_c, 0, 71, 75
1, 36948, Note_on_c, 0, 71, 0
1, 36948, Note_on_c, 0, 69, 75
1, 36957, Note_on_c, 1, 59, 0
1, 36957, Note_on_c, 1, 55, 0
1, 36960, Note_on_c, 0, 69, 0
1, 36960, Note_on_c, 0, 67, 75
1, 36960, Note_on_c, 1, 59, 63
1, 36960, Note_on_c, 1, 55, 63
1, 36983, Note_on_c, 0, 67, 0
1, 36984, Note_on_c, 0, 62, 75
1, 37005, Note_on_c, 1, 59, 0
1, 37005, Note_on_c, 1, 55, 0
1, 37007, Note_on_c, 0, 62, 0
1, 37008, Note_on_c, 0, 71, 75
1, 37008, Note_on_c, 1, 59, 63
1, 37008, Note_on_c, 1, 55, 63
1, 37031, Note_on_c, 0, 71, 0
1, 37032, Note_on_c, 0, 69, 75
1, 37053, Note_on_c, 1, 59, 0
1, 37053, Note_on_c, 1, 55, 0
1, 37055, Note_on_c, 0, 69, 0
1, 37056, Note_on_c, 0, 67, 75
1, 37056, Note_on_c, 1, 59, 63
1, 37056, Note_on_c, 1, 55, 63
1, 37079, Note_on_c, 0, 67, 0
1, 37080, Note_on_c, 0, 62, 76
1, 37101, Note_on_c, 1, 59, 0
1, 37101, Note_on_c, 1, 55, 0
1, 37103, Note_on_c, 0, 62, 0
1, 37104, Note_on_c, 0, 67, 78
1, 37104, Note_on_c, 1, 59, 63
1, 37104, Note_on_c, 1, 55, 63
1, 37127, Note_on_c, 0, 67, 0
1, 37128, Note_on_c, 0, 71, 79
1, 37149, Note_on_c, 1, 59, 0
1, 37149, Note_on_c, 1, 55, 0
1, 37151, Note_on_c, 0, 71, 0
1, 37152, Note_on_c, 0, 74, 81
1, 37152, Note_on_c, 1, 59, 63
1, 37152, Note_on_c, 1, 55, 63
1, 37175, Note_on_c, 0, 74, 0
1, 37176, Note_on_c, 0, 71, 79
1, 37197, Note_on_c, 1, 59, 0
1, 37197, Note_on_c, 1, 55, 0
1, 37199, Note_on_c, 0, 71, 0
1, 37200, Note_on_c, 0, 69, 78
1, 37200, Note_on_c, 1, 59, 63
1, 37200, Note_on_c, 1, 55, 63
1, 37223, Note_on_c, 0, 69, 0
1, 37224, Note_on_c, 0, 67, 76
1, 37245, Note_on_c, 1, 59, 0
1, 37245, Note_on_c, 1, 55, 0
1, 37247, Note_on_c, 0, 67, 0
1, 37248, Note_on_c, 0, 71, 75
1, 37248, Note_on_c, 1, 60, 63
1, 37248, Note_on_c, 1, 55, 63
1, 37271, Note_on_c, 0, 71, 0
1, 37272, Note_on_c, 0, 69, 75
1, 37295, Note_on_c, 0, 69, 0
1, 37296, Note_on_c, 0, 67, 75
1, 37319, Note_on_c, 0, 67, 0
1, 37320, Note_on_c, 0, 69, 75
1, 37337, Note_on_c, 1, 60, 0
1, 37337, Note_on_c, 1, 55, 0
1, 37343, Note_on_c, 0, 69, 0
1, 37344, Note_on_c, 0, 67, 75
1, 37344, Note_on_c, 1, 59, 63
1, 37344, Note_on_c, 1, 55, 63
1, 37389, Note_on_c, 0, 67, 0
1, 37389, Note_on_c, 1, 59, 0
1, 37389, Note_on_c, 1, 55, 0
1, 37392, Note_on_c, 0, 88, 75
1, 37415, Note_on_c, 0, 88, 0
1, 37416, Note_on_c, 0, 76, 75
1, 37439, Note_on_c, 0, 76, 0
1, 37440, Note_on_c, 0, 88, 75
1, 37440, Note_on_c, 1, 74, 63
1, 37440, Note_on_c, 1, 68, 63
1, 37463, Note_on_c, 0, 88, 0
1, 37464, Note_on_c, 0, 76, 75
1, 37485, Note_on_c, 1, 74, 0
1, 37485, Note_on_c, 1, 68, 0
1, 37487, Note_on_c, 0, 76, 0
1, 37488, Note_on_c, 0, 88, 75
1, 37488, Note_on_c, 1, 74, 63
1, 37488, Note_on_c, 1, 68, 63
1, 37511, Note_on_c, 0, 88, 0
1, 37512, Note_on_c, 0, 76, 75
1, 37533, Note_on_c, 1, 74, 0
1, 37533, Note_on_c, 1, 68, 0
1, 37535, Note_on_c, 0, 76, 0
1, 37536, Note_on_c, 0, 88, 75
1, 37536, Note_on_c, 1, 74, 63
1, 37536, Note_on_c, 1, 68, 63
1, 37559, Note_on_c, 0, 88, 0
1, 37560, Note_on_c, 0, 76, 75
1, 37581, Note_on_c, 1, 74, 0
1, 37581, Note_on_c, 1, 68, 0
1, 37583, Note_on_c, 0, 76, 0
1, 37584, Note_on_c, 0, 88, 75
1, 37584, Note_on_c, 1, 74, 63
1, 37584, Note_on_c, 1, 68, 63
1, 37607, Note_on_c, 0, 88, 0
1, 37608, Note_on_c, 0, 76, 75
1, 37629, Note_on_c, 1, 74, 0
1, 37629, Note_on_c, 1, 68, 0
1, 37631, Note_on_c, 0, 76, 0
1, 37632, Note_on_c, 0, 88, 75
1, 37632, Note_on_c, 1, 72, 63
1, 37632, Note_on_c, 1, 69, 63
1, 37692, Note_on_c, 0, 88, 0
1, 37692, Note_on_c, 0, 86, 75
1, 37704, Note_on_c, 0, 86, 0
1, 37704, Note_on_c, 0, 84, 75
1, 37716, Note_on_c, 0, 84, 0
1, 37716, Note_on_c, 0, 83, 75
1, 37721, Note_on_c, 1, 72, 0
1, 37721, Note_on_c, 1, 69, 0
1, 37728, Note_on_c, 0, 83, 0
1, 37728, Note_on_c, 0, 81, 75
1, 37748, Note_on_c, 0, 81, 0
1, 37776, Note_on_c, 0, 86, 75
1, 37776, Note_on_c, 1, 72, 63
1, 37776, Note_on_c, 1, 66, 63
1, 37799, Note_on_c, 0, 86, 0
1, 37800, Note_on_c, 0, 74, 75
1, 37821, Note_on_c, 1, 72, 0
1, 37821, Note_on_c, 1, 66, 0
1, 37823, Note_on_c, 0, 74, 0
1, 37824, Note_on_c, 0, 86, 75
1, 37824, Note_on_c, 1, 72, 63
1, 37824, Note_on_c, 1, 66, 63
1, 37847, Note_on_c, 0, 86, 0
1, 37848, Note_on_c, 0, 74, 75
1, 37869, Note_on_c, 1, 72, 0
1, 37869, Note_on_c, 1, 66, 0
1, 37871, Note_on_c, 0, 74, 0
1, 37872, Note_on_c, 0, 86, 75
1, 37872, Note_on_c, 1, 72, 63
1, 37872, Note_on_c, 1, 66, 63
1, 37895, Note_on_c, 0, 86, 0
1, 37896, Note_on_c, 0, 74, 75
1, 37917, Note_on_c, 1, 72, 0
1, 37917, Note_on_c, 1, 66, 0
1, 37919, Note_on_c, 0, 74, 0
1, 37920, Note_on_c, 0, 86, 75
1, 37920, Note_on_c, 1, 72, 63
1, 37920, Note_on_c, 1, 66, 63
1, 37943, Note_on_c, 0, 86, 0
1, 37944, Note_on_c, 0, 74, 75
1, 37965, Note_on_c, 1, 72, 0
1, 37965, Note_on_c, 1, 66, 0
1, 37967, Note_on_c, 0, 74, 0
1, 37968, Note_on_c, 0, 86, 75
1, 37968, Note_on_c, 1, 72, 63
1, 37968, Note_on_c, 1, 66, 63
1, 37991, Note_on_c, 0, 86, 0
1, 37992, Note_on_c, 0, 74, 75
1, 38013, Note_on_c, 1, 72, 0
1, 38013, Note_on_c, 1, 66, 0
1, 38015, Note_on_c, 0, 74, 0
1, 38016, Note_on_c, 0, 86, 75
1, 38016, Note_on_c, 1, 71, 63
1, 38016, Note_on_c, 1, 67, 63
1, 38076, Note_on_c, 0, 86, 0
1, 38076, Note_on_c, 0, 84, 75
1, 38088, Note_on_c, 0, 84, 0
1, 38088, Note_on_c, 0, 83, 75
1, 38100, Note_on_c, 0, 83, 0
1, 38100, Note_on_c, 0, 81, 75
1, 38105, Note_on_c, 1, 71, 0
1, 38105, Note_on_c, 1, 67, 0
1, 38112, Note_on_c, 0, 81, 0
1, 38112, Note_on_c, 0, 79, 75
1, 38132, Note_on_c, 0, 79, 0
1, 38544, Note_on_c, 0, 86, 75
1, 38556, Note_on_c, 0, 86, 0
1, 38556, Note_on_c, 0, 84, 75
1, 38568, Note_on_c, 0, 84, 0
1, 38568, Note_on_c, 0, 83, 75
1, 38580, Note_on_c, 0, 83, 0
1, 38580, Note_on_c, 0, 81, 75
1, 38592, Note_on_c, 0, 81, 0
1, 38592, Note_on_c, 0, 79, 75
1, 38612, Note_on_c, 0, 79, 0
1, 38640, Note_on_c, 0, 83, 75
1, 38652, Note_on_c, 0, 83, 0
1, 38652, Note_on_c, 0, 81, 75
1, 38664, Note_on_c, 0, 81, 0
1, 38664, Note_on_c, 0, 79, 75
1, 38676, Note_on_c, 0, 79, 0
1, 38676, Note_on_c, 0, 78, 75
1, 38688, Note_on_c, 0, 78, 0
1, 38688, Note_on_c, 0, 76, 75
1, 38708, Note_on_c, 0, 76, 0
1, 38736, Note_on_c, 0, 79, 75
1, 38748, Note_on_c, 0, 79, 0
1, 38748, Note_on_c, 0, 78, 75
1, 38760, Note_on_c, 0, 78, 0
1, 38760, Note_on_c, 0, 76, 75
1, 38772, Note_on_c, 0, 76, 0
1, 38772, Note_on_c, 0, 74, 75
1, 38784, Note_on_c, 0, 74, 0
1, 38784, Note_on_c, 0, 72, 75
1, 38784, Note_on_c, 1, 67, 63
1, 38784, Note_on_c, 1, 64, 63
1, 38873, Note_on_c, 0, 72, 0
1, 38873, Note_on_c, 1, 67, 0
1, 38873, Note_on_c, 1, 64, 0
1, 38928, Note_on_c, 0, 79, 75
1, 38940, Note_on_c, 0, 79, 0
1, 38940, Note_on_c, 0, 77, 75
1, 38952, Note_on_c, 0, 77, 0
1, 38952, Note_on_c, 0, 75, 75
1, 38964, Note_on_c, 0, 75, 0
1, 38964, Note_on_c, 0, 74, 75
1, 38976, Note_on_c, 0, 74, 0
1, 38976, Note_on_c, 0, 72, 75
1, 38976, Note_on_c, 1, 63, 63
1, 38996, Note_on_c, 0, 72, 0
1, 38999, Note_on_c, 1, 63, 0
1, 39000, Note_on_c, 1, 67, 63
1, 39023, Note_on_c, 1, 67, 0
1, 39024, Note_on_c, 0, 83, 75
1, 39024, Note_on_c, 1, 63, 63
1, 39047, Note_on_c, 1, 63, 0
1, 39048, Note_on_c, 1, 67, 63
1, 39071, Note_on_c, 1, 67, 0
1, 39072, Note_on_c, 0, 83, 0
1, 39072, Note_on_c, 0, 84, 75
1, 39072, Note_on_c, 1, 63, 63
1, 39095, Note_on_c, 1, 63, 0
1, 39096, Note_on_c, 1, 67, 63
1, 39117, Note_on_c, 0, 84, 0
1, 39119, Note_on_c, 1, 67, 0
1, 39120, Note_on_c, 0, 84, 75
1, 39120, Note_on_c, 1, 63, 63
1, 39140, Note_on_c, 0, 84, 0
1, 39143, Note_on_c, 1, 63, 0
1, 39144, Note_on_c, 1, 67, 63
1, 39167, Note_on_c, 1, 67, 0
1, 39168, Note_on_c, 0, 84, 75
1, 39168, Note_on_c, 1, 66, 63
1, 39168, Note_on_c, 1, 62, 63
1, 39191, Note_on_c, 0, 84, 0
1, 39192, Note_on_c, 0, 83, 75
1, 39215, Note_on_c, 0, 83, 0
1, 39216, Note_on_c, 0, 84, 75
1, 39239, Note_on_c, 0, 84, 0
1, 39240, Note_on_c, 0, 81, 75
1, 39257, Note_on_c, 1, 66, 0
1, 39257, Note_on_c, 1, 62, 0
1, 39263, Note_on_c, 0, 81, 0
1, 39264, Note_on_c, 0, 83, 75
1, 39264, Note_on_c, 1, 67, 63
1, 39287, Note_on_c, 0, 83, 0
1, 39288, Note_on_c, 0, 81, 75
1, 39311, Note_on_c, 0, 81, 0
1, 39312, Note_on_c, 0, 83, 75
1, 39335, Note_on_c, 0, 83, 0
1, 39336, Note_on_c, 0, 79, 75
1, 39353, Note_on_c, 1, 67, 0
1, 39359, Note_on_c, 0, 79, 0
1, 39360, Note_on_c, 0, 81, 75
1, 39360, Note_on_c, 1, 72, 63
1, 39360, Note_on_c, 1, 60, 63
1, 39383, Note_on_c, 0, 81, 0
1, 39384, Note_on_c, 0, 80, 75
1, 39407, Note_on_c, 0, 80, 0
1, 39408, Note_on_c, 0, 81, 75
1, 39431, Note_on_c, 0, 81, 0
1, 39432, Note_on_c, 0, 76, 75
1, 39449, Note_on_c, 1, 72, 0
1, 39449, Note_on_c, 1, 60, 0
1, 39455, Note_on_c, 0, 76, 0
1, 39456, Note_on_c, 0, 79, 75
1, 39456, Note_on_c, 1, 72, 63
1, 39456, Note_on_c, 1, 62, 63
1, 39479, Note_on_c, 0, 79, 0
1, 39480, Note_on_c, 0, 78, 75
1, 39503, Note_on_c, 0, 78, 0
1, 39504, Note_on_c, 0, 76, 75
1, 39527, Note_on_c, 0, 76, 0
1, 39528, Note_on_c, 0, 74, 75
1, 39545, Note_on_c, 1, 72, 0
1, 39545, Note_on_c, 1, 62, 0
1, 39551, Note_on_c, 0, 74, 0
1, 39552, Note_on_c, 0, 79, 75
1, 39552, Note_on_c, 1, 71, 69
1, 39552, Note_on_c, 1, 67, 69
1, 39575, Note_on_c, 0, 79, 0
1, 39576, Note_on_c, 0, 74, 76
1, 39597, Note_on_c, 1, 71, 0
1, 39597, Note_on_c, 1, 67, 0
1, 39599, Note_on_c, 0, 74, 0
1, 39600, Note_on_c, 0, 79, 78
1, 39600, Note_on_c, 1, 71, 69
1, 39600, Note_on_c, 1, 67, 69
1, 39623, Note_on_c, 0, 79, 0
1, 39624, Note_on_c, 0, 83, 79
1, 39645, Note_on_c, 1, 71, 0
1, 39645, Note_on_c, 1, 67, 0
1, 39647, Note_on_c, 0, 83, 0
1, 39648, Note_on_c, 0, 86, 81
1, 39648, Note_on_c, 1, 71, 69
1, 39648, Note_on_c, 1, 67, 69
1, 39671, Note_on_c, 0, 86, 0
1, 39672, Note_on_c, 0, 83, 79
1, 39693, Note_on_c, 1, 71, 0
1, 39693, Note_on_c, 1, 67, 0
1, 39695, Note_on_c, 0, 83, 0
1, 39696, Note_on_c, 0, 81, 78
1, 39696, Note_on_c, 1, 71, 69
1, 39696, Note_on_c, 1, 67, 69
1, 39719, Note_on_c, 0, 81, 0
1, 39720, Note_on_c, 0, 79, 76
1, 39741, Note_on_c, 1, 71, 0
1, 39741, Note_on_c, 1, 67, 0
1, 39743, Note_on_c, 0, 79, 0
1, 39744, Note_on_c, 0, 78, 75
1, 39744, Note_on_c, 1, 72, 69
1, 39744, Note_on_c, 1, 67, 69
1, 39767, Note_on_c, 0, 78, 0
1, 39768, Note_on_c, 0, 74, 76
1, 39789, Note_on_c, 1, 72, 0
1, 39789, Note_on_c, 1, 67, 0
1, 39791, Note_on_c, 0, 74, 0
1, 39792, Note_on_c, 0, 78, 78
1, 39792, Note_on_c, 1, 72, 69
1, 39792, Note_on_c, 1, 67, 69
1, 39815, Note_on_c, 0, 78, 0
1, 39816, Note_on_c, 0, 81, 79
1, 39837, Note_on_c, 1, 72, 0
1, 39837, Note_on_c, 1, 67, 0
1, 39839, Note_on_c, 0, 81, 0
1, 39840, Note_on_c, 0, 84, 81
1, 39840, Note_on_c, 1, 72, 69
1, 39840, Note_on_c, 1, 67, 69
1, 39863, Note_on_c, 0, 84, 0
1, 39864, Note_on_c, 0, 81, 79
1, 39885, Note_on_c, 1, 72, 0
1, 39885, Note_on_c, 1, 67, 0
1, 39887, Note_on_c, 0, 81, 0
1, 39888, Note_on_c, 0, 79, 78
1, 39888, Note_on_c, 1, 72, 69
1, 39888, Note_on_c, 1, 67, 69
1, 39911, Note_on_c, 0, 79, 0
1, 39912, Note_on_c, 0, 78, 76
1, 39933, Note_on_c, 1, 72, 0
1, 39933, Note_on_c, 1, 67, 0
1, 39935, Note_on_c, 0, 78, 0
1, 39936, Note_on_c, 0, 79, 75
1, 39936, Note_on_c, 1, 71, 69
1, 39936, Note_on_c, 1, 67, 69
1, 39959, Note_on_c, 0, 79, 0
1, 39960, Note_on_c, 0, 74, 77
1, 39981, Note_on_c, 1, 71, 0
1, 39981, Note_on_c, 1, 67, 0
1, 39983, Note_on_c, 0, 74, 0
1, 39984, Note_on_c, 0, 79, 79
1, 39984, Note_on_c, 1, 71, 69
1, 39984, Note_on_c, 1, 67, 69
1, 40007, Note_on_c, 0, 79, 0
1, 40008, Note_on_c, 0, 83, 81
1, 40029, Note_on_c, 1, 71, 0
1, 40029, Note_on_c, 1, 67, 0
1, 40031, Note_on_c, 0, 83, 0
1, 40032, Note_on_c, 0, 86, 79
1, 40032, Note_on_c, 1, 71, 69
1, 40032, Note_on_c, 1, 67, 69
1, 40055, Note_on_c, 0, 86, 0
1, 40056, Note_on_c, 0, 83, 78
1, 40077, Note_on_c, 1, 71, 0
1, 40077, Note_on_c, 1, 67, 0
1, 40079, Note_on_c, 0, 83, 0
1, 40080, Note_on_c, 0, 81, 77
1, 40080, Note_on_c, 1, 71, 69
1, 40080, Note_on_c, 1, 67, 69
1, 40103, Note_on_c, 0, 81, 0
1, 40104, Note_on_c, 0, 79, 76
1, 40125, Note_on_c, 1, 71, 0
1, 40125, Note_on_c, 1, 67, 0
1, 40127, Note_on_c, 0, 79, 0
1, 40128, Note_on_c, 0, 78, 75
1, 40128, Note_on_c, 1, 72, 69
1, 40128, Note_on_c, 1, 67, 69
1, 40151, Note_on_c, 0, 78, 0
1, 40152, Note_on_c, 0, 74, 75
1, 40173, Note_on_c, 1, 72, 0
1, 40173, Note_on_c, 1, 67, 0
1, 40175, Note_on_c, 0, 74, 0
1, 40176, Note_on_c, 0, 78, 76
1, 40176, Note_on_c, 1, 72, 69
1, 40176, Note_on_c, 1, 67, 69
1, 40199, Note_on_c, 0, 78, 0
1, 40200, Note_on_c, 0, 81, 77
1, 40221, Note_on_c, 1, 72, 0
1, 40221, Note_on_c, 1, 67, 0
1, 40223, Note_on_c, 0, 81, 0
1, 40224, Note_on_c, 0, 84, 78
1, 40224, Note_on_c, 1, 72, 69
1, 40224, Note_on_c, 1, 67, 69
1, 40247, Note_on_c, 0, 84, 0
1, 40248, Note_on_c, 0, 81, 78
1, 40269, Note_on_c, 1, 72, 0
1, 40269, Note_on_c, 1, 67, 0
1, 40271, Note_on_c, 0, 81, 0
1, 40272, Note_on_c, 0, 79, 79
1, 40272, Note_on_c, 1, 72, 69
1, 40272, Note_on_c, 1, 67, 69
1, 40295, Note_on_c, 0, 79, 0
1, 40296, Note_on_c, 0, 78, 80
1, 40317, Note_on_c, 1, 72, 0
1, 40317, Note_on_c, 1, 67, 0
1, 40319, Note_on_c, 0, 78, 0
1, 40320, Note_on_c, 0, 79, 81
1, 40320, Note_on_c, 1, 71, 69
1, 40320, Note_on_c, 1, 67, 69
1, 40343, Note_on_c, 0, 79, 0
1, 40344, Note_on_c, 0, 83, 79
1, 40367, Note_on_c, 0, 83, 0
1, 40368, Note_on_c, 0, 79, 78
1, 40391, Note_on_c, 0, 79, 0
1, 40392, Note_on_c, 0, 74, 77
1, 40409, Note_on_c, 1, 71, 0
1, 40409, Note_on_c, 1, 67, 0
1, 40415, Note_on_c, 0, 74, 0
1, 40416, Note_on_c, 0, 71, 76
1, 40439, Note_on_c, 0, 71, 0
1, 40440, Note_on_c, 1, 67, 69
1, 40463, Note_on_c, 1, 67, 0
1, 40464, Note_on_c, 1, 62, 67
1, 40487, Note_on_c, 1, 62, 0
1, 40488, Note_on_c, 1, 59, 66
1, 40511, Note_on_c, 1, 59, 0
1, 40512, Note_on_c, 1, 55, 65
1, 40557, Note_on_c, 1, 55, 0
1, 40704, Note_on_c, 0, 77, 75
1, 40704, Note_on_c, 1, 58, 69
1, 40727, Note_on_c, 1, 58, 0
1, 40728, Note_on_c, 1, 65, 69
1, 40751, Note_on_c, 1, 65, 0
1, 40752, Note_on_c, 1, 62, 69
1, 40771, Note_on_c, 0, 77, 0
1, 40775, Note_on_c, 1, 62, 0
1, 40776, Note_on_c, 0, 74, 75
1, 40776, Note_on_c, 1, 65, 69
1, 40788, Note_on_c, 0, 74, 0
1, 40788, Note_on_c, 0, 75, 75
1, 40799, Note_on_c, 1, 65, 0
1, 40800, Note_on_c, 0, 75, 0
1, 40800, Note_on_c, 0, 77, 75
1, 40800, Note_on_c, 1, 58, 69
1, 40823, Note_on_c, 1, 58, 0
1, 40824, Note_on_c, 1, 65, 69
1, 40845, Note_on_c, 0, 77, 0
1, 40847, Note_on_c, 1, 65, 0
1, 40848, Note_on_c, 0, 89, 91
1, 40848, Note_on_c, 1, 62, 69
1, 40871, Note_on_c, 1, 62, 0
1, 40872, Note_on_c, 1, 65, 69
1, 40895, Note_on_c, 1, 65, 0
1, 40896, Note_on_c, 1, 60, 69
1, 40919, Note_on_c, 1, 60, 0
1, 40920, Note_on_c, 1, 65, 69
1, 40943, Note_on_c, 1, 65, 0
1, 40944, Note_on_c, 0, 89, 0
1, 40944, Note_on_c, 0, 69, 75
1, 40944, Note_on_c, 1, 63, 69
1, 40964, Note_on_c, 0, 69, 0
1, 40967, Note_on_c, 1, 63, 0
1, 40968, Note_on_c, 1, 65, 69
1, 40991, Note_on_c, 1, 65, 0
1, 40992, Note_on_c, 0, 69, 75
1, 40992, Note_on_c, 1, 60, 69
1, 41012, Note_on_c, 0, 69, 0
1, 41015, Note_on_c, 1, 60, 0
1, 41016, Note_on_c, 1, 65, 69
1, 41039, Note_on_c, 1, 65, 0
1, 41040, Note_on_c, 0, 69, 75
1, 41040, Note_on_c, 1, 63, 69
1, 41060, Note_on_c, 0, 69, 0
1, 41063, Note_on_c, 1, 63, 0
1, 41064, Note_on_c, 1, 65, 69
1, 41087, Note_on_c, 1, 65, 0
1, 41088, Note_on_c, 0, 70, 75
1, 41088, Note_on_c, 1, 58, 69
1, 41111, Note_on_c, 1, 58, 0
1, 41112, Note_on_c, 1, 65, 69
1, 41135, Note_on_c, 1, 65, 0
1, 41136, Note_on_c, 1, 62, 69
1, 41155, Note_on_c, 0, 70, 0
1, 41159, Note_on_c, 1, 62, 0
1, 41160, Note_on_c, 0, 70, 75
1, 41160, Note_on_c, 1, 65, 69
1, 41172, Note_on_c, 0, 70, 0
1, 41172, Note_on_c, 0, 72, 75
1, 41183, Note_on_c, 1, 65, 0
1, 41184, Note_on_c, 0, 72, 0
1, 41184, Note_on_c, 0, 74, 75
1, 41184, Note_on_c, 1, 58, 69
1, 41207, Note_on_c, 1, 58, 0
1, 41208, Note_on_c, 1, 65, 69
1, 41229, Note_on_c, 0, 74, 0
1, 41231, Note_on_c, 1, 65, 0
1, 41232, Note_on_c, 0, 86, 91
1, 41232, Note_on_c, 1, 62, 69
1, 41255, Note_on_c, 1, 62, 0
1, 41256, Note_on_c, 1, 65, 69
1, 41279, Note_on_c, 1, 65, 0
1, 41280, Note_on_c, 1, 57, 69
1, 41303, Note_on_c, 1, 57, 0
1, 41304, Note_on_c, 1, 62, 69
1, 41327, Note_on_c, 1, 62, 0
1, 41328, Note_on_c, 0, 86, 0
1, 41328, Note_on_c, 0, 66, 75
1, 41328, Note_on_c, 1, 60, 69
1, 41348, Note_on_c, 0, 66, 0
1, 41351, Note_on_c, 1, 60, 0
1, 41352, Note_on_c, 1, 62, 69
1, 41375, Note_on_c, 1, 62, 0
1, 41376, Note_on_c, 0, 66, 75
1, 41376, Note_on_c, 1, 57, 69
1, 41396, Note_on_c, 0, 66, 0
1, 41399, Note_on_c, 1, 57, 0
1, 41400, Note_on_c, 1, 62, 69
1, 41423, Note_on_c, 1, 62, 0
1, 41424, Note_on_c, 0, 66, 75
1, 41424, Note_on_c, 1, 60, 69
1, 41444, Note_on_c, 0, 66, 0
1, 41447, Note_on_c, 1, 60, 0
1, 41448, Note_on_c, 1, 62, 69
1, 41471, Note_on_c, 1, 62, 0
1, 41472, Note_on_c, 0, 67, 75
1, 41472, Note_on_c, 1, 55, 69
1, 41495, Note_on_c, 1, 55, 0
1, 41496, Note_on_c, 1, 62, 69
1, 41519, Note_on_c, 1, 62, 0
1, 41520, Note_on_c, 1, 58, 69
1, 41539, Note_on_c, 0, 67, 0
1, 41543, Note_on_c, 1, 58, 0
1, 41544, Note_on_c, 0, 67, 75
1, 41544, Note_on_c, 1, 62, 69
1, 41556, Note_on_c, 0, 67, 0
1, 41556, Note_on_c, 0, 69, 75
1, 41567, Note_on_c, 1, 62, 0
1, 41568, Note_on_c, 0, 69, 0
1, 41568, Note_on_c, 0, 70, 75
1, 41568, Note_on_c, 1, 55, 69
1, 41591, Note_on_c, 1, 55, 0
1, 41592, Note_on_c, 1, 62, 69
1, 41613, Note_on_c, 0, 70, 0
1, 41615, Note_on_c, 1, 62, 0
1, 41616, Note_on_c, 0, 82, 91
1, 41616, Note_on_c, 1, 58, 69
1, 41639, Note_on_c, 1, 58, 0
1, 41640, Note_on_c, 1, 62, 69
1, 41663, Note_on_c, 1, 62, 0
1, 41664, Note_on_c, 1, 51, 69
1, 41687, Note_on_c, 1, 51, 0
1, 41688, Note_on_c, 1, 55, 69
1, 41711, Note_on_c, 1, 55, 0
1, 41712, Note_on_c, 0, 82, 0
1, 41712, Note_on_c, 0, 61, 75
1, 41712, Note_on_c, 1, 54, 69
1, 41732, Note_on_c, 0, 61, 0
1, 41735, Note_on_c, 1, 54, 0
1, 41736, Note_on_c, 1, 55, 69
1, 41759, Note_on_c, 1, 55, 0
1, 41760, Note_on_c, 0, 61, 75
1, 41760, Note_on_c, 1, 51, 69
1, 41780, Note_on_c, 0, 61, 0
1, 41783, Note_on_c, 1, 51, 0
1, 41784, Note_on_c, 1, 55, 69
1, 41807, Note_on_c, 1, 55, 0
1, 41808, Note_on_c, 0, 61, 75
1, 41808, Note_on_c, 1, 54, 69
1, 41828, Note_on_c, 0, 61, 0
1, 41831, Note_on_c, 1, 54, 0
1, 41832, Note_on_c, 1, 55, 69
1, 41855, Note_on_c, 1, 55, 0
1, 41856, Note_on_c, 0, 62, 75
1, 41856, Note_on_c, 1, 50, 69
1, 41879, Note_on_c, 0, 62, 0
1, 41880, Note_on_c, 0, 64, 76
1, 41903, Note_on_c, 0, 64, 0
1, 41904, Note_on_c, 0, 66, 78
1, 41927, Note_on_c, 0, 66, 0
1, 41928, Note_on_c, 0, 67, 79
1, 41945, Note_on_c, 1, 50, 0
1, 41951, Note_on_c, 0, 67, 0
1, 41952, Note_on_c, 0, 69, 81
1, 41975, Note_on_c, 0, 69, 0
1, 41976, Note_on_c, 0, 66, 79
1, 41999, Note_on_c, 0, 66, 0
1, 42000, Note_on_c, 0, 67, 78
1, 42023, Note_on_c, 0, 67, 0
1, 42024, Note_on_c, 0, 64, 76
1, 42047, Note_on_c, 0, 64, 0
1, 42048, Note_on_c, 0, 62, 75
1, 42048, Note_on_c, 1, 50, 75
1, 42071, Note_on_c, 1, 50, 0
1, 42072, Note_on_c, 1, 38, 75
1, 42095, Note_on_c, 1, 38, 0
1, 42096, Note_on_c, 1, 48, 75
1, 42119, Note_on_c, 1, 48, 0
1, 42120, Note_on_c, 1, 36, 74
1, 42137, Note_on_c, 0, 62, 0
1, 42143, Note_on_c, 1, 36, 0
1, 42144, Note_on_c, 1, 47, 73
1, 42167, Note_on_c, 1, 47, 0
1, 42168, Note_on_c, 1, 35, 72
1, 42191, Note_on_c, 1, 35, 0
1, 42192, Note_on_c, 1, 45, 71
1, 42215, Note_on_c, 1, 45, 0
1, 42216, Note_on_c, 1, 33, 70
1, 42239, Note_on_c, 1, 33, 0
1, 42240, Note_on_c, 0, 67, 91
1, 42240, Note_on_c, 1, 59, 63
1, 42240, Note_on_c, 1, 55, 63
1, 42285, Note_on_c, 1, 59, 0
1, 42285, Note_on_c, 1, 55, 0
1, 42288, Note_on_c, 1, 59, 63
1, 42288, Note_on_c, 1, 55, 63
1, 42312, Note_on_c, 0, 67, 0
1, 42312, Note_on_c, 0, 71, 75
1, 42324, Note_on_c, 0, 71, 0
1, 42324, Note_on_c, 0, 69, 75
1, 42333, Note_on_c, 1, 59, 0
1, 42333, Note_on_c, 1, 55, 0
1, 42336, Note_on_c, 0, 69, 0
1, 42336, Note_on_c, 0, 67, 75
1, 42336, Note_on_c, 1, 59, 63
1, 42336, Note_on_c, 1, 55, 63
1, 42359, Note_on_c, 0, 67, 0
1, 42360, Note_on_c, 0, 62, 75
1, 42381, Note_on_c, 1, 59, 0
1, 42381, Note_on_c, 1, 55, 0
1, 42383, Note_on_c, 0, 62, 0
1, 42384, Note_on_c, 0, 71, 75
1, 42384, Note_on_c, 1, 59, 63
1, 42384, Note_on_c, 1, 55, 63
1, 42407, Note_on_c, 0, 71, 0
1, 42408, Note_on_c, 0, 69, 75
1, 42429, Note_on_c, 1, 59, 0
1, 42429, Note_on_c, 1, 55, 0
1, 42431, Note_on_c, 0, 69, 0
1, 42432, Note_on_c, 0, 67, 75
1, 42432, Note_on_c, 1, 59, 63
1, 42432, Note_on_c, 1, 55, 63
1, 42455, Note_on_c, 0, 67, 0
1, 42456, Note_on_c, 0, 62, 76
1, 42477, Note_on_c, 1, 59, 0
1, 42477, Note_on_c, 1, 55, 0
1, 42479, Note_on_c, 0, 62, 0
1, 42480, Note_on_c, 0, 67, 78
1, 42480, Note_on_c, 1, 59, 63
1, 42480, Note_on_c, 1, 55, 63
1, 42503, Note_on_c, 0, 67, 0
1, 42504, Note_on_c, 0, 71, 79
1, 42525, Note_on_c, 1, 59, 0
1, 42525, Note_on_c, 1, 55, 0
1, 42527, Note_on_c, 0, 71, 0
1, 42528, Note_on_c, 0, 74, 81
1, 42528, Note_on_c, 1, 59, 63
1, 42528, Note_on_c, 1, 55, 63
1, 42551, Note_on_c, 0, 74, 0
1, 42552, Note_on_c, 0, 71, 79
1, 42573, Note_on_c, 1, 59, 0
1, 42573, Note_on_c, 1, 55, 0
1, 42575, Note_on_c, 0, 71, 0
1, 42576, Note_on_c, 0, 69, 78
1, 42576, Note_on_c, 1, 59, 63
1, 42576, Note_on_c, 1, 55, 63
1, 42599, Note_on_c, 0, 69, 0
1, 42600, Note_on_c, 0, 67, 76
1, 42621, Note_on_c, 1, 59, 0
1, 42621, Note_on_c, 1, 55, 0
1, 42623, Note_on_c, 0, 67, 0
1, 42624, Note_on_c, 0, 71, 75
1, 42624, Note_on_c, 1, 60, 63
1, 42624, Note_on_c, 1, 55, 63
1, 42647, Note_on_c, 0, 71, 0
1, 42648, Note_on_c, 0, 69, 75
1, 42671, Note_on_c, 0, 69, 0
1, 42672, Note_on_c, 0, 67, 75
1, 42695, Note_on_c, 0, 67, 0
1, 42696, Note_on_c, 0, 69, 75
1, 42713, Note_on_c, 1, 60, 0
1, 42713, Note_on_c, 1, 55, 0
1, 42719, Note_on_c, 0, 69, 0
1, 42720, Note_on_c, 0, 67, 75
1, 42720, Note_on_c, 1, 59, 63
1, 42720, Note_on_c, 1, 55, 63
1, 42765, Note_on_c, 0, 67, 0
1, 42765, Note_on_c, 1, 59, 0
1, 42765, Note_on_c, 1, 55, 0
1, 42768, Note_on_c, 0, 88, 75
1, 42791, Note_on_c, 0, 88, 0
1, 42792, Note_on_c, 0, 76, 75
1, 42815, Note_on_c, 0, 76, 0
1, 42816, Note_on_c, 0, 88, 75
1, 42816, Note_on_c, 1, 74, 63
1, 42816, Note_on_c, 1, 68, 63
1, 42839, Note_on_c, 0, 88, 0
1, 42840, Note_on_c, 0, 76, 75
1, 42861, Note_on_c, 1, 74, 0
1, 42861, Note_on_c, 1, 68, 0
1, 42863, Note_on_c, 0, 76, 0
1, 42864, Note_on_c, 0, 88, 75
1, 42864, Note_on_c, 1, 74, 63
1, 42864, Note_on_c, 1, 68, 63
1, 42887, Note_on_c, 0, 88, 0
1, 42888, Note_on_c, 0, 76, 75
1, 42909, Note_on_c, 1, 74, 0
1, 42909, Note_on_c, 1, 68, 0
1, 42911, Note_on_c, 0, 76, 0
1, 42912, Note_on_c, 0, 88, 75
1, 42912, Note_on_c, 1, 74, 63
1, 42912, Note_on_c, 1, 68, 63
1, 42935, Note_on_c, 0, 88, 0
1, 42936, Note_on_c, 0, 76, 75
1, 42957, Note_on_c, 1, 74, 0
1, 42957, Note_on_c, 1, 68, 0
1, 42959, Note_on_c, 0, 76, 0
1, 42960, Note_on_c, 0, 88, 75
1, 42960, Note_on_c, 1, 74, 63
1, 42960, Note_on_c, 1, 68, 63
1, 42983, Note_on_c, 0, 88, 0
1, 42984, Note_on_c, 0, 76, 75
1, 43005, Note_on_c, 1, 74, 0
1, 43005, Note_on_c, 1, 68, 0
1, 43007, Note_on_c, 0, 76, 0
1, 43008, Note_on_c, 0, 88, 75
1, 43008, Note_on_c, 1, 72, 63
1, 43008, Note_on_c, 1, 69, 63
1, 43068, Note_on_c, 0, 88, 0
1, 43068, Note_on_c, 0, 86, 75
1, 43080, Note_on_c, 0, 86, 0
1, 43080, Note_on_c, 0, 84, 75
1, 43092, Note_on_c, 0, 84, 0
1, 43092, Note_on_c, 0, 83, 75
1, 43097, Note_on_c, 1, 72, 0
1, 43097, Note_on_c, 1, 69, 0
1, 43104, Note_on_c, 0, 83, 0
1, 43104, Note_on_c, 0, 81, 75
1, 43124, Note_on_c, 0, 81, 0
1, 43152, Note_on_c, 0, 86, 75
1, 43152, Note_on_c, 1, 72, 63
1, 43152, Note_on_c, 1, 66, 63
1, 43175, Note_on_c, 0, 86, 0
1, 43176, Note_on_c, 0, 74, 75
1, 43197, Note_on_c, 1, 72, 0
1, 43197, Note_on_c, 1, 66, 0
1, 43199, Note_on_c, 0, 74, 0
1, 43200, Note_on_c, 0, 86, 75
1, 43200, Note_on_c, 1, 72, 63
1, 43200, Note_on_c, 1, 66, 63
1, 43223, Note_on_c, 0, 86, 0
1, 43224, Note_on_c, 0, 74, 75
1, 43245, Note_on_c, 1, 72, 0
1, 43245, Note_on_c, 1, 66, 0
1, 43247, Note_on_c, 0, 74, 0
1, 43248, Note_on_c, 0, 86, 75
1, 43248, Note_on_c, 1, 72, 63
1, 43248, Note_on_c, 1, 66, 63
1, 43271, Note_on_c, 0, 86, 0
1, 43272, Note_on_c, 0, 74, 75
1, 43293, Note_on_c, 1, 72, 0
1, 43293, Note_on_c, 1, 66, 0
1, 43295, Note_on_c, 0, 74, 0
1, 43296, Note_on_c, 0, 86, 75
1, 43296, Note_on_c, 1, 72, 63
1, 43296, Note_on_c, 1, 66, 63
1, 43319, Note_on_c, 0, 86, 0
1, 43320, Note_on_c, 0, 74, 75
1, 43341, Note_on_c, 1, 72, 0
1, 43341, Note_on_c, 1, 66, 0
1, 43343, Note_on_c, 0, 74, 0
1, 43344, Note_on_c, 0, 86, 75
1, 43344, Note_on_c, 1, 72, 63
1, 43344, Note_on_c, 1, 66, 63
1, 43367, Note_on_c, 0, 86, 0
1, 43368, Note_on_c, 0, 74, 75
1, 43389, Note_on_c, 1, 72, 0
1, 43389, Note_on_c, 1, 66, 0
1, 43391, Note_on_c, 0, 74, 0
1, 43392, Note_on_c, 0, 86, 75
1, 43392, Note_on_c, 1, 71, 63
1, 43392, Note_on_c, 1, 67, 63
1, 43452, Note_on_c, 0, 86, 0
1, 43452, Note_on_c, 0, 84, 75
1, 43464, Note_on_c, 0, 84, 0
1, 43464, Note_on_c, 0, 83, 75
1, 43476, Note_on_c, 0, 83, 0
1, 43476, Note_on_c, 0, 81, 75
1, 43481, Note_on_c, 1, 71, 0
1, 43481, Note_on_c, 1, 67, 0
1, 43488, Note_on_c, 0, 81, 0
1, 43488, Note_on_c, 0, 79, 75
1, 43508, Note_on_c, 0, 79, 0
1, 43920, Note_on_c, 0, 86, 75
1, 43932, Note_on_c, 0, 86, 0
1, 43932, Note_on_c, 0, 84, 75
1, 43944, Note_on_c, 0, 84, 0
1, 43944, Note_on_c, 0, 83, 75
1, 43956, Note_on_c, 0, 83, 0
1, 43956, Note_on_c, 0, 81, 75
1, 43968, Note_on_c, 0, 81, 0
1, 43968, Note_on_c, 0, 79, 75
1, 43988, Note_on_c, 0, 79, 0
1, 44016, Note_on_c, 0, 83, 75
1, 44028, Note_on_c, 0, 83, 0
1, 44028, Note_on_c, 0, 81, 75
1, 44040, Note_on_c, 0, 81, 0
1, 44040, Note_on_c, 0, 79, 75
1, 44052, Note_on_c, 0, 79, 0
1, 44052, Note_on_c, 0, 78, 75
1, 44064, Note_on_c, 0, 78, 0
1, 44064, Note_on_c, 0, 76, 75
1, 44084, Note_on_c, 0, 76, 0
1, 44112, Note_on_c, 0, 79, 75
1, 44124, Note_on_c, 0, 79, 0
1, 44124, Note_on_c, 0, 78, 75
1, 44136, Note_on_c, 0, 78, 0
1, 44136, Note_on_c, 0, 76, 75
1, 44148, Note_on_c, 0, 76, 0
1, 44148, Note_on_c, 0, 74, 75
1, 44160, Note_on_c, 0, 74, 0
1, 44160, Note_on_c, 0, 72, 75
1, 44160, Note_on_c, 1, 67, 63
1, 44160, Note_on_c, 1, 64, 63
1, 44249, Note_on_c, 0, 72, 0
1, 44249, Note_on_c, 1, 67, 0
1, 44249, Note_on_c, 1, 64, 0
1, 44304, Note_on_c, 0, 79, 75
1, 44316, Note_on_c, 0, 79, 0
1, 44316, Note_on_c, 0, 77, 75
1, 44328, Note_on_c, 0, 77, 0
1, 44328, Note_on_c, 0, 75, 75
1, 44340, Note_on_c, 0, 75, 0
1, 44340, Note_on_c, 0, 74, 75
1, 44352, Note_on_c, 0, 74, 0
1, 44352, Note_on_c, 0, 72, 75
1, 44352, Note_on_c, 1, 63, 63
1, 44372, Note_on_c, 0, 72, 0
1, 44375, Note_on_c, 1, 63, 0
1, 44376, Note_on_c, 1, 67, 63
1, 44399, Note_on_c, 1, 67, 0
1, 44400, Note_on_c, 0, 83, 75
1, 44400, Note_on_c, 1, 63, 63
1, 44423, Note_on_c, 1, 63, 0
1, 44424, Note_on_c, 1, 67, 63
1, 44447, Note_on_c, 1, 67, 0
1, 44448, Note_on_c, 0, 83, 0
1, 44448, Note_on_c, 0, 84, 75
1, 44448, Note_on_c, 1, 63, 63
1, 44471, Note_on_c, 1, 63, 0
1, 44472, Note_on_c, 1, 67, 63
1, 44493, Note_on_c, 0, 84, 0
1, 44495, Note_on_c, 1, 67, 0
1, 44496, Note_on_c, 0, 84, 75
1, 44496, Note_on_c, 1, 63, 63
1, 44516, Note_on_c, 0, 84, 0
1, 44519, Note_on_c, 1, 63, 0
1, 44520, Note_on_c, 1, 67, 63
1, 44543, Note_on_c, 1, 67, 0
1, 44544, Note_on_c, 0, 84, 75
1, 44544, Note_on_c, 1, 66, 63
1, 44544, Note_on_c, 1, 62, 63
1, 44567, Note_on_c, 0, 84, 0
1, 44568, Note_on_c, 0, 83, 75
1, 44591, Note_on_c, 0, 83, 0
1, 44592, Note_on_c, 0, 84, 75
1, 44615, Note_on_c, 0, 84, 0
1, 44616, Note_on_c, 0, 81, 75
1, 44633, Note_on_c, 1, 66, 0
1, 44633, Note_on_c, 1, 62, 0
1, 44639, Note_on_c, 0, 81, 0
1, 44640, Note_on_c, 0, 83, 75
1, 44640, Note_on_c, 1, 67, 63
1, 44663, Note_on_c, 0, 83, 0
1, 44664, Note_on_c, 0, 81, 75
1, 44687, Note_on_c, 0, 81, 0
1, 44688, Note_on_c, 0, 83, 75
1, 44711, Note_on_c, 0, 83, 0
1, 44712, Note_on_c, 0, 79, 75
1, 44729, Note_on_c, 1, 67, 0
1, 44735, Note_on_c, 0, 79, 0
1, 44736, Note_on_c, 0, 81, 75
1, 44736, Note_on_c, 1, 72, 63
1, 44736, Note_on_c, 1, 60, 63
1, 44759, Note_on_c, 0, 81, 0
1, 44760, Note_on_c, 0, 80, 75
1, 44783, Note_on_c, 0, 80, 0
1, 44784, Note_on_c, 0, 81, 75
1, 44807, Note_on_c, 0, 81, 0
1, 44808, Note_on_c, 0, 76, 75
1, 44825, Note_on_c, 1, 72, 0
1, 44825, Note_on_c, 1, 60, 0
1, 44831, Note_on_c, 0, 76, 0
1, 44832, Note_on_c, 0, 79, 75
1, 44832, Note_on_c, 1, 72, 63
1, 44832, Note_on_c, 1, 62, 63
1, 44855, Note_on_c, 0, 79, 0
1, 44856, Note_on_c, 0, 78, 75
1, 44879, Note_on_c, 0, 78, 0
1, 44880, Note_on_c, 0, 76, 75
1, 44903, Note_on_c, 0, 76, 0
1, 44904, Note_on_c, 0, 74, 75
1, 44921, Note_on_c, 1, 72, 0
1, 44921, Note_on_c, 1, 62, 0
1, 44927, Note_on_c, 0, 74, 0
1, 44928, Note_on_c, 0, 79, 75
1, 44928, Note_on_c, 1, 71, 69
1, 44928, Note_on_c, 1, 67, 69
1, 44951, Note_on_c, 0, 79, 0
1, 44952, Note_on_c, 0, 74, 76
1, 44973, Note_on_c, 1, 71, 0
1, 44973, Note_on_c, 1, 67, 0
1, 44975, Note_on_c, 0, 74, 0
1, 44976, Note_on_c, 0, 79, 78
1, 44976, Note_on_c, 1, 71, 69
1, 44976, Note_on_c, 1, 67, 69
1, 44999, Note_on_c, 0, 79, 0
1, 45000, Note_on_c, 0, 83, 79
1, 45021, Note_on_c, 1, 71, 0
1, 45021, Note_on_c, 1, 67, 0
1, 45023, Note_on_c, 0, 83, 0
1, 45024, Note_on_c, 0, 86, 81
1, 45024, Note_on_c, 1, 71, 69
1, 45024, Note_on_c, 1, 67, 69
1, 45047, Note_on_c, 0, 86, 0
1, 45048, Note_on_c, 0, 83, 79
1, 45069, Note_on_c, 1, 71, 0
1, 45069, Note_on_c, 1, 67, 0
1, 45071, Note_on_c, 0, 83, 0
1, 45072, Note_on_c, 0, 81, 78
1, 45072, Note_on_c, 1, 71, 69
1, 45072, Note_on_c, 1, 67, 69
1, 45095, Note_on_c, 0, 81, 0
1, 45096, Note_on_c, 0, 79, 76
1, 45117, Note_on_c, 1, 71, 0
1, 45117, Note_on_c, 1, 67, 0
1, 45119, Note_on_c, 0, 79, 0
1, 45120, Note_on_c, 0, 78, 75
1, 45120, Note_on_c, 1, 72, 69
1, 45120, Note_on_c, 1, 67, 69
1, 45143, Note_on_c, 0, 78, 0
1, 45144, Note_on_c, 0, 74, 76
1, 45165, Note_on_c, 1, 72, 0
1, 45165, Note_on_c, 1, 67, 0
1, 45167, Note_on_c, 0, 74, 0
1, 45168, Note_on_c, 0, 78, 78
1, 45168, Note_on_c, 1, 72, 69
1, 45168, Note_on_c, 1, 67, 69
1, 45191, Note_on_c, 0, 78, 0
1, 45192, Note_on_c, 0, 81, 79
1, 45213, Note_on_c, 1, 72, 0
1, 45213, Note_on_c, 1, 67, 0
1, 45215, Note_on_c, 0, 81, 0
1, 45216, Note_on_c, 0, 84, 81
1, 45216, Note_on_c, 1, 72, 69
1, 45216, Note_on_c, 1, 67, 69
1, 45239, Note_on_c, 0, 84, 0
1, 45240, Note_on_c, 0, 81, 79
1, 45261, Note_on_c, 1, 72, 0
1, 45261, Note_on_c, 1, 67, 0
1, 45263, Note_on_c, 0, 81, 0
1, 45264, Note_on_c, 0, 79, 78
1, 45264, Note_on_c, 1, 72, 69
1, 45264, Note_on_c, 1, 67, 69
1, 45287, Note_on_c, 0, 79, 0
1, 45288, Note_on_c, 0, 78, 76
1, 45309, Note_on_c, 1, 72, 0
1, 45309, Note_on_c, 1, 67, 0
1, 45311, Note_on_c, 0, 78, 0
1, 45312, Note_on_c, 0, 79, 75
1, 45312, Note_on_c, 1, 71, 69
1, 45312, Note_on_c, 1, 67, 69
1, 45335, Note_on_c, 0, 79, 0
1, 45336, Note_on_c, 0, 74, 77
1, 45357, Note_on_c, 1, 71, 0
1, 45357, Note_on_c, 1, 67, 0
1, 45359, Note_on_c, 0, 74, 0
1, 45360, Note_on_c, 0, 79, 79
1, 45360, Note_on_c, 1, 71, 69
1, 45360, Note_on_c, 1, 67, 69
1, 45383, Note_on_c, 0, 79, 0
1, 45384, Note_on_c, 0, 83, 81
1, 45405, Note_on_c, 1, 71, 0
1, 45405, Note_on_c, 1, 67, 0
1, 45407, Note_on_c, 0, 83, 0
1, 45408, Note_on_c, 0, 86, 79
1, 45408, Note_on_c, 1, 71, 69
1, 45408, Note_on_c, 1, 67, 69
1, 45431, Note_on_c, 0, 86, 0
1, 45432, Note_on_c, 0, 83, 78
1, 45453, Note_on_c, 1, 71, 0
1, 45453, Note_on_c, 1, 67, 0
1, 45455, Note_on_c, 0, 83, 0
1, 45456, Note_on_c, 0, 81, 77
1, 45456, Note_on_c, 1, 71, 69
1, 45456, Note_on_c, 1, 67, 69
1, 45479, Note_on_c, 0, 81, 0
1, 45480, Note_on_c, 0, 79, 76
1, 45501, Note_on_c, 1, 71, 0
1, 45501, Note_on_c, 1, 67, 0
1, 45503, Note_on_c, 0, 79, 0
1, 45504, Note_on_c, 0, 78, 75
1, 45504, Note_on_c, 1, 72, 69
1, 45504, Note_on_c, 1, 67, 69
1, 45527, Note_on_c, 0, 78, 0
1, 45528, Note_on_c, 0, 74, 75
1, 45549, Note_on_c, 1, 72, 0
1, 45549, Note_on_c, 1, 67, 0
1, 45551, Note_on_c, 0, 74, 0
1, 45552, Note_on_c, 0, 78, 76
1, 45552, Note_on_c, 1, 72, 69
1, 45552, Note_on_c, 1, 67, 69
1, 45575, Note_on_c, 0, 78, 0
1, 45576, Note_on_c, 0, 81, 77
1, 45597, Note_on_c, 1, 72, 0
1, 45597, Note_on_c, 1, 67, 0
1, 45599, Note_on_c, 0, 81, 0
1, 45600, Note_on_c, 0, 84, 78
1, 45600, Note_on_c, 1, 72, 69
1, 45600, Note_on_c, 1, 67, 69
1, 45623, Note_on_c, 0, 84, 0
1, 45624, Note_on_c, 0, 81, 78
1, 45645, Note_on_c, 1, 72, 0
1, 45645, Note_on_c, 1, 67, 0
1, 45647, Note_on_c, 0, 81, 0
1, 45648, Note_on_c, 0, 79, 79
1, 45648, Note_on_c, 1, 72, 69
1, 45648, Note_on_c, 1, 67, 69
1, 45671, Note_on_c, 0, 79, 0
1, 45672, Note_on_c, 0, 78, 80
1, 45693, Note_on_c, 1, 72, 0
1, 45693, Note_on_c, 1, 67, 0
1, 45695, Note_on_c, 0, 78, 0
1, 45696, Note_on_c, 0, 79, 75
1, 45696, Note_on_c, 1, 71, 69
1, 45696, Note_on_c, 1, 67, 69
1, 45719, Note_on_c, 0, 79, 0
1, 45720, Note_on_c, 0, 83, 73
1, 45743, Note_on_c, 0, 83, 0
1, 45744, Note_on_c, 0, 79, 72
1, 45767, Note_on_c, 0, 79, 0
1, 45768, Note_on_c, 0, 74, 71
1, 45785, Note_on_c, 1, 71, 0
1, 45785, Note_on_c, 1, 67, 0
1, 45791, Note_on_c, 0, 74, 0
1, 45792, Note_on_c, 0, 71, 70
1, 45815, Note_on_c, 0, 71, 0
1, 45816, Note_on_c, 1, 67, 63
1, 45839, Note_on_c, 1, 67, 0
1, 45840, Note_on_c, 1, 62, 62
1, 45863, Note_on_c, 1, 62, 0
1, 45864, Note_on_c, 1, 59, 61
1, 45887, Note_on_c, 1, 59, 0
1, 45888, Note_on_c, 1, 55, 61
1, 46021, Note_on_c, 1, 55, 0
1, 46080, Note_on_c, 1, 55, 0
1, 46169, Note_on_c, 1, 55, 0
1, 46179, End_track
0, 0, End_of_file