0, 0, Header, 0, 1, 120
1, 0, Start_track
1, 0, Tempo, 600000
1, 428, Note_on_c, 2, 70, 39
1, 428, Note_on_c, 2, 58, 35
1, 544, Note_on_c, 2, 65, 28
1, 632, Note_on_c, 2, 62, 38
1, 644, Note_on_c, 2, 65, 0
1, 652, Note_on_c, 2, 70, 0
1, 724, Note_on_c, 2, 58, 0
1, 724, Note_on_c, 2, 65, 38
1, 748, Note_on_c, 2, 62, 0
1, 790, Note_on_c, 2, 65, 0
1, 820, Note_on_c, 2, 58, 35
1, 820, Note_on_c, 2, 74, 47
1, 907, Note_on_c, 2, 65, 31
1, 936, Note_on_c, 2, 74, 0
1, 936, Note_on_c, 2, 75, 42
1, 957, Note_on_c, 2, 74, 45
1, 973, Note_on_c, 2, 75, 0
1, 986, Note_on_c, 2, 74, 0
1, 986, Note_on_c, 2, 72, 45
1, 1015, Note_on_c, 2, 74, 53
1, 1016, Note_on_c, 2, 62, 42
1, 1019, Note_on_c, 2, 65, 0
1, 1028, Note_on_c, 2, 72, 0
1, 1107, Note_on_c, 2, 65, 36
1, 1107, Note_on_c, 2, 75, 46
1, 1111, Note_on_c, 2, 58, 0
1, 1115, Note_on_c, 2, 74, 0
1, 1149, Note_on_c, 2, 62, 0
1, 1174, Note_on_c, 2, 75, 0
1, 1206, Note_on_c, 2, 65, 0
1, 1207, Note_on_c, 2, 57, 30
1, 1207, Note_on_c, 2, 76, 50
1, 1315, Note_on_c, 2, 65, 29
1, 1394, Note_on_c, 2, 60, 39
1, 1398, Note_on_c, 2, 65, 0
1, 1474, Note_on_c, 2, 77, 44
1, 1477, Note_on_c, 2, 57, 0
1, 1478, Note_on_c, 2, 65, 30
1, 1490, Note_on_c, 2, 76, 0
1, 1532, Note_on_c, 2, 60, 0
1, 1557, Note_on_c, 2, 65, 0
1, 1561, Note_on_c, 2, 57, 28
1, 1561, Note_on_c, 2, 72, 37
1, 1586, Note_on_c, 2, 77, 0
1, 1648, Note_on_c, 2, 65, 28
1, 1736, Note_on_c, 2, 65, 0
1, 1736, Note_on_c, 2, 60, 24
1, 1828, Note_on_c, 2, 65, 28
1, 1832, Note_on_c, 2, 60, 0
1, 1832, Note_on_c, 2, 57, 0
1, 1907, Note_on_c, 2, 65, 0
1, 1924, Note_on_c, 2, 55, 27
1, 1924, Note_on_c, 2, 75, 38
1, 1944, Note_on_c, 2, 72, 0
1, 2020, Note_on_c, 2, 63, 34
1, 2044, Note_on_c, 2, 75, 0
1, 2044, Note_on_c, 2, 77, 47
1, 2069, Note_on_c, 2, 75, 34
1, 2078, Note_on_c, 2, 77, 0
1, 2090, Note_on_c, 2, 75, 0
1, 2090, Note_on_c, 2, 74, 52
1, 2116, Note_on_c, 2, 58, 24
1, 2116, Note_on_c, 2, 75, 55
1, 2119, Note_on_c, 2, 63, 0
1, 2136, Note_on_c, 2, 74, 0
1, 2199, Note_on_c, 2, 58, 0
1, 2199, Note_on_c, 2, 63, 32
1, 2203, Note_on_c, 2, 75, 0
1, 2203, Note_on_c, 2, 77, 54
1, 2207, Note_on_c, 2, 55, 0
1, 2211, Note_on_c, 2, 63, 0
1, 2219, Note_on_c, 2, 77, 0
1, 2295, Note_on_c, 2, 79, 47
1, 2298, Note_on_c, 2, 51, 32
1, 2391, Note_on_c, 2, 58, 35
1, 2411, Note_on_c, 2, 79, 0
1, 2411, Note_on_c, 2, 81, 46
1, 2436, Note_on_c, 2, 79, 44
1, 2448, Note_on_c, 2, 81, 0
1, 2457, Note_on_c, 2, 79, 0
1, 2458, Note_on_c, 2, 77, 41
1, 2482, Note_on_c, 2, 58, 0
1, 2482, Note_on_c, 2, 55, 40
1, 2483, Note_on_c, 2, 79, 55
1, 2499, Note_on_c, 2, 77, 0
1, 2570, Note_on_c, 2, 51, 0
1, 2570, Note_on_c, 2, 55, 0
1, 2570, Note_on_c, 2, 58, 39
1, 2570, Note_on_c, 2, 81, 49
1, 2578, Note_on_c, 2, 79, 0
1, 2603, Note_on_c, 2, 81, 0
1, 2649, Note_on_c, 2, 58, 0
1, 2661, Note_on_c, 2, 81, 48
1, 2661, Note_on_c, 2, 50, 29
1, 2762, Note_on_c, 2, 58, 27
1, 2845, Note_on_c, 2, 58, 0
1, 2845, Note_on_c, 2, 53, 36
1, 2907, Note_on_c, 2, 50, 0
1, 2928, Note_on_c, 2, 53, 0
1, 2928, Note_on_c, 2, 82, 45
1, 2928, Note_on_c, 2, 58, 35
1, 2945, Note_on_c, 2, 81, 0
1, 2999, Note_on_c, 2, 58, 0
1, 3016, Note_on_c, 2, 82, 0
1, 3016, Note_on_c, 2, 50, 36
1, 3016, Note_on_c, 2, 77, 40
1, 3103, Note_on_c, 2, 58, 35
1, 3187, Note_on_c, 2, 53, 43
1, 3194, Note_on_c, 2, 58, 0
1, 3266, Note_on_c, 2, 53, 0
1, 3266, Note_on_c, 2, 50, 0
1, 3266, Note_on_c, 2, 58, 37
1, 3353, Note_on_c, 2, 51, 40
1, 3353, Note_on_c, 2, 79, 51
1, 3357, Note_on_c, 2, 58, 0
1, 3374, Note_on_c, 2, 77, 0
1, 3445, Note_on_c, 2, 55, 45
1, 3458, Note_on_c, 2, 51, 0
1, 3528, Note_on_c, 2, 55, 0
1, 3528, Note_on_c, 2, 51, 37
1, 3533, Note_on_c, 2, 79, 0
1, 3616, Note_on_c, 2, 51, 0
1, 3616, Note_on_c, 2, 59, 38
1, 3616, Note_on_c, 2, 80, 45
1, 3653, Note_on_c, 2, 80, 0
1, 3658, Note_on_c, 2, 79, 36
1, 3695, Note_on_c, 2, 59, 0
1, 3695, Note_on_c, 2, 51, 41
1, 3695, Note_on_c, 2, 77, 47
1, 3707, Note_on_c, 2, 79, 0
1, 3778, Note_on_c, 2, 51, 0
1, 3779, Note_on_c, 2, 75, 54
1, 3779, Note_on_c, 2, 60, 39
1, 3787, Note_on_c, 2, 77, 0
1, 3857, Note_on_c, 2, 60, 0
1, 3862, Note_on_c, 2, 74, 49
1, 3862, Note_on_c, 2, 51, 38
1, 3866, Note_on_c, 2, 75, 0
1, 3945, Note_on_c, 2, 63, 29
1, 3950, Note_on_c, 2, 51, 0
1, 3950, Note_on_c, 2, 74, 0
1, 3950, Note_on_c, 2, 72, 45
1, 3978, Note_on_c, 2, 63, 0
1, 4033, Note_on_c, 2, 50, 36
1, 4033, Note_on_c, 2, 76, 46
1, 4050, Note_on_c, 2, 72, 0
1, 4141, Note_on_c, 2, 53, 28
1, 4141, Note_on_c, 2, 77, 49
1, 4149, Note_on_c, 2, 76, 0
1, 4149, Note_on_c, 2, 50, 0
1, 4220, Note_on_c, 2, 50, 33
1, 4228, Note_on_c, 2, 53, 0
1, 4304, Note_on_c, 2, 50, 0
1, 4308, Note_on_c, 2, 57, 33
1, 4308, Note_on_c, 2, 79, 39
1, 4312, Note_on_c, 2, 77, 0
1, 4350, Note_on_c, 2, 77, 48
1, 4362, Note_on_c, 2, 79, 0
1, 4392, Note_on_c, 2, 50, 37
1, 4395, Note_on_c, 2, 75, 40
1, 4399, Note_on_c, 2, 57, 0
1, 4403, Note_on_c, 2, 77, 0
1, 4478, Note_on_c, 2, 58, 31
1, 4478, Note_on_c, 2, 74, 46
1, 4487, Note_on_c, 2, 50, 0
1, 4491, Note_on_c, 2, 75, 0
1, 4566, Note_on_c, 2, 58, 0
1, 4566, Note_on_c, 2, 50, 36
1, 4570, Note_on_c, 2, 72, 40
1, 4574, Note_on_c, 2, 74, 0
1, 4666, Note_on_c, 2, 62, 35
1, 4666, Note_on_c, 2, 70, 42
1, 4674, Note_on_c, 2, 50, 0
1, 4699, Note_on_c, 2, 62, 0
1, 4704, Note_on_c, 2, 72, 0
1, 4754, Note_on_c, 2, 70, 0
1, 4791, Note_on_c, 2, 57, 37
1, 4791, Note_on_c, 2, 77, 50
1, 4887, Note_on_c, 2, 65, 36
1, 4887, Note_on_c, 2, 75, 39
1, 4895, Note_on_c, 2, 77, 0
1, 4975, Note_on_c, 2, 65, 0
1, 4975, Note_on_c, 2, 60, 31
1, 5058, Note_on_c, 2, 60, 0
1, 5058, Note_on_c, 2, 75, 0
1, 5062, Note_on_c, 2, 72, 45
1, 5062, Note_on_c, 2, 65, 33
1, 5066, Note_on_c, 2, 57, 0
1, 5141, Note_on_c, 2, 65, 0
1, 5145, Note_on_c, 2, 72, 0
1, 5146, Note_on_c, 2, 58, 42
1, 5146, Note_on_c, 2, 75, 38
1, 5229, Note_on_c, 2, 65, 39
1, 5229, Note_on_c, 2, 74, 49
1, 5237, Note_on_c, 2, 75, 0
1, 5312, Note_on_c, 2, 62, 46
1, 5320, Note_on_c, 2, 65, 0
1, 5392, Note_on_c, 2, 62, 0
1, 5395, Note_on_c, 2, 65, 48
1, 5395, Note_on_c, 2, 70, 45
1, 5400, Note_on_c, 2, 74, 0
1, 5401, Note_on_c, 2, 58, 0
1, 5416, Note_on_c, 2, 65, 0
1, 5479, Note_on_c, 2, 53, 42
1, 5479, Note_on_c, 2, 74, 46
1, 5491, Note_on_c, 2, 70, 0
1, 5570, Note_on_c, 2, 62, 37
1, 5662, Note_on_c, 2, 58, 28
1, 5679, Note_on_c, 2, 62, 0
1, 5754, Note_on_c, 2, 74, 0
1, 5754, Note_on_c, 2, 62, 31
1, 5758, Note_on_c, 2, 75, 32
1, 5766, Note_on_c, 2, 58, 0
1, 5787, Note_on_c, 2, 53, 0
1, 5787, Note_on_c, 2, 62, 0
1, 5817, Note_on_c, 2, 75, 0
1, 5817, Note_on_c, 2, 74, 31
1, 5879, Note_on_c, 2, 72, 38
1, 5879, Note_on_c, 2, 53, 20
1, 5879, Note_on_c, 2, 57, 27
1, 5879, Note_on_c, 2, 60, 24
1, 5883, Note_on_c, 2, 74, 0
1, 5992, Note_on_c, 2, 77, 40
1, 6016, Note_on_c, 2, 72, 0
1, 6108, Note_on_c, 2, 75, 32
1, 6116, Note_on_c, 2, 77, 0
1, 6195, Note_on_c, 2, 60, 0
1, 6203, Note_on_c, 2, 53, 0
1, 6208, Note_on_c, 2, 57, 0
1, 6242, Note_on_c, 2, 75, 0
1, 6242, Note_on_c, 2, 72, 39
1, 6434, Note_on_c, 2, 72, 0
1, 6434, Note_on_c, 2, 58, 41
1, 6434, Note_on_c, 2, 70, 35
1, 6542, Note_on_c, 2, 65, 28
1, 6571, Note_on_c, 2, 70, 0
1, 6571, Note_on_c, 2, 72, 45
1, 6591, Note_on_c, 2, 70, 39
1, 6600, Note_on_c, 2, 72, 0
1, 6616, Note_on_c, 2, 70, 0
1, 6621, Note_on_c, 2, 69, 45
1, 6646, Note_on_c, 2, 61, 37
1, 6646, Note_on_c, 2, 70, 45
1, 6650, Note_on_c, 2, 65, 0
1, 6663, Note_on_c, 2, 69, 0
1, 6738, Note_on_c, 2, 65, 38
1, 6738, Note_on_c, 2, 72, 53
1, 6742, Note_on_c, 2, 70, 0
1, 6746, Note_on_c, 2, 58, 0
1, 6750, Note_on_c, 2, 61, 0
1, 6758, Note_on_c, 2, 72, 0
1, 6762, Note_on_c, 2, 65, 0
1, 6838, Note_on_c, 2, 58, 33
1, 6838, Note_on_c, 2, 73, 42
1, 6921, Note_on_c, 2, 65, 36
1, 6946, Note_on_c, 2, 73, 0
1, 6946, Note_on_c, 2, 75, 40
1, 6971, Note_on_c, 2, 73, 48
1, 6988, Note_on_c, 2, 75, 0
1, 6991, Note_on_c, 2, 72, 45
1, 6996, Note_on_c, 2, 73, 0
1, 7021, Note_on_c, 2, 73, 53
1, 7025, Note_on_c, 2, 65, 0
1, 7025, Note_on_c, 2, 61, 37
1, 7046, Note_on_c, 2, 72, 0
1, 7112, Note_on_c, 2, 65, 33
1, 7112, Note_on_c, 2, 75, 45
1, 7117, Note_on_c, 2, 58, 0
1, 7125, Note_on_c, 2, 73, 0
1, 7171, Note_on_c, 2, 61, 0
1, 7213, Note_on_c, 2, 65, 0
1, 7213, Note_on_c, 2, 76, 51
1, 7213, Note_on_c, 2, 56, 36
1, 7221, Note_on_c, 2, 75, 0
1, 7321, Note_on_c, 2, 65, 38
1, 7408, Note_on_c, 2, 60, 40
1, 7416, Note_on_c, 2, 65, 0
1, 7492, Note_on_c, 2, 56, 0
1, 7496, Note_on_c, 2, 60, 0
1, 7496, Note_on_c, 2, 65, 35
1, 7496, Note_on_c, 2, 77, 50
1, 7504, Note_on_c, 2, 76, 0
1, 7566, Note_on_c, 2, 65, 0
1, 7583, Note_on_c, 2, 56, 40
1, 7583, Note_on_c, 2, 72, 46
1, 7588, Note_on_c, 2, 77, 0
1, 7667, Note_on_c, 2, 65, 49
1, 7759, Note_on_c, 2, 65, 0
1, 7759, Note_on_c, 2, 60, 39
1, 7842, Note_on_c, 2, 60, 0
1, 7850, Note_on_c, 2, 65, 28
1, 7857, Note_on_c, 2, 56, 0
1, 7871, Note_on_c, 2, 65, 0
1, 7938, Note_on_c, 2, 72, 0
1, 7967, Note_on_c, 2, 54, 23
1, 7967, Note_on_c, 2, 75, 37
1, 8063, Note_on_c, 2, 63, 35
1, 8092, Note_on_c, 2, 75, 0
1, 8092, Note_on_c, 2, 77, 46
1, 8117, Note_on_c, 2, 75, 37
1, 8129, Note_on_c, 2, 77, 0
1, 8134, Note_on_c, 2, 75, 0
1, 8138, Note_on_c, 2, 74, 50
1, 8163, Note_on_c, 2, 63, 0
1, 8163, Note_on_c, 2, 58, 36
1, 8163, Note_on_c, 2, 75, 49
1, 8184, Note_on_c, 2, 74, 0
1, 8250, Note_on_c, 2, 58, 0
1, 8250, Note_on_c, 2, 63, 35
1, 8250, Note_on_c, 2, 77, 54
1, 8254, Note_on_c, 2, 54, 0
1, 8254, Note_on_c, 2, 75, 0
1, 8267, Note_on_c, 2, 77, 0
1, 8270, Note_on_c, 2, 63, 0
1, 8338, Note_on_c, 2, 51, 40
1, 8338, Note_on_c, 2, 78, 39
1, 8421, Note_on_c, 2, 58, 39
1, 8446, Note_on_c, 2, 78, 0
1, 8446, Note_on_c, 2, 80, 45
1, 8471, Note_on_c, 2, 78, 49
1, 8488, Note_on_c, 2, 80, 0
1, 8496, Note_on_c, 2, 78, 0
1, 8496, Note_on_c, 2, 77, 53
1, 8517, Note_on_c, 2, 58, 0
1, 8522, Note_on_c, 2, 54, 40
1, 8522, Note_on_c, 2, 78, 45
1, 8542, Note_on_c, 2, 77, 0
1, 8604, Note_on_c, 2, 51, 0
1, 8609, Note_on_c, 2, 80, 51
1, 8609, Note_on_c, 2, 58, 36
1, 8617, Note_on_c, 2, 78, 0
1, 8621, Note_on_c, 2, 54, 0
1, 8696, Note_on_c, 2, 58, 0
1, 8696, Note_on_c, 2, 81, 59
1, 8697, Note_on_c, 2, 50, 40
1, 8700, Note_on_c, 2, 80, 0
1, 8797, Note_on_c, 2, 58, 44
1, 8875, Note_on_c, 2, 58, 0
1, 8880, Note_on_c, 2, 53, 47
1, 8955, Note_on_c, 2, 50, 0
1, 8968, Note_on_c, 2, 58, 40
1, 8968, Note_on_c, 2, 82, 56
1, 8975, Note_on_c, 2, 81, 0
1, 9046, Note_on_c, 2, 53, 0
1, 9050, Note_on_c, 2, 82, 0
1, 9050, Note_on_c, 2, 49, 47
1, 9050, Note_on_c, 2, 77, 55
1, 9051, Note_on_c, 2, 58, 0
1, 9142, Note_on_c, 2, 58, 45
1, 9238, Note_on_c, 2, 58, 0
1, 9238, Note_on_c, 2, 53, 40
1, 9329, Note_on_c, 2, 49, 0
1, 9338, Note_on_c, 2, 58, 34
1, 9354, Note_on_c, 2, 53, 0
1, 9392, Note_on_c, 2, 77, 0
1, 9400, Note_on_c, 2, 58, 0
1, 9438, Note_on_c, 2, 76, 50
1, 9438, Note_on_c, 2, 48, 38
1, 9568, Note_on_c, 2, 58, 30
1, 9568, Note_on_c, 2, 85, 57
1, 9663, Note_on_c, 2, 55, 39
1, 9676, Note_on_c, 2, 58, 0
1, 9751, Note_on_c, 2, 58, 37
1, 9772, Note_on_c, 2, 48, 0
1, 9776, Note_on_c, 2, 55, 0
1, 9826, Note_on_c, 2, 58, 0
1, 9838, Note_on_c, 2, 48, 32
1, 9859, Note_on_c, 2, 85, 0
1, 9926, Note_on_c, 2, 58, 35
1, 9926, Note_on_c, 2, 84, 48
1, 9967, Note_on_c, 2, 82, 40
1, 9980, Note_on_c, 2, 84, 0
1, 10009, Note_on_c, 2, 76, 0
1, 10009, Note_on_c, 2, 80, 45
1, 10009, Note_on_c, 2, 55, 36
1, 10014, Note_on_c, 2, 58, 0
1, 10030, Note_on_c, 2, 82, 0
1, 10051, Note_on_c, 2, 79, 33
1, 10063, Note_on_c, 2, 80, 0
1, 10092, Note_on_c, 2, 48, 0
1, 10093, Note_on_c, 2, 77, 49
1, 10096, Note_on_c, 2, 79, 0
1, 10096, Note_on_c, 2, 58, 31
1, 10134, Note_on_c, 2, 76, 39
1, 10150, Note_on_c, 2, 77, 0
1, 10172, Note_on_c, 2, 58, 0
1, 10176, Note_on_c, 2, 55, 0
1, 10176, Note_on_c, 2, 49, 37
1, 10176, Note_on_c, 2, 79, 48
1, 10184, Note_on_c, 2, 76, 0
1, 10272, Note_on_c, 2, 56, 33
1, 10355, Note_on_c, 2, 53, 45
1, 10355, Note_on_c, 2, 77, 47
1, 10359, Note_on_c, 2, 56, 0
1, 10359, Note_on_c, 2, 79, 0
1, 10438, Note_on_c, 2, 49, 0
1, 10442, Note_on_c, 2, 53, 0
1, 10447, Note_on_c, 2, 56, 39
1, 10534, Note_on_c, 2, 46, 49
1, 10538, Note_on_c, 2, 56, 0
1, 10626, Note_on_c, 2, 55, 41
1, 10626, Note_on_c, 2, 75, 49
1, 10638, Note_on_c, 2, 77, 0
1, 10718, Note_on_c, 2, 55, 0
1, 10718, Note_on_c, 2, 49, 34
1, 10755, Note_on_c, 2, 46, 0
1, 10805, Note_on_c, 2, 49, 0
1, 10806, Note_on_c, 2, 55, 31
1, 10806, Note_on_c, 2, 73, 40
1, 10818, Note_on_c, 2, 75, 0
1, 10901, Note_on_c, 2, 48, 35
1, 10901, Note_on_c, 2, 72, 46
1, 10902, Note_on_c, 2, 55, 0
1, 10905, Note_on_c, 2, 73, 0
1, 10992, Note_on_c, 2, 56, 26
1, 11009, Note_on_c, 2, 73, 46
1, 11014, Note_on_c, 2, 72, 0
1, 11030, Note_on_c, 2, 72, 46
1, 11043, Note_on_c, 2, 73, 0
1, 11064, Note_on_c, 2, 70, 45
1, 11068, Note_on_c, 2, 72, 0
1, 11093, Note_on_c, 2, 53, 29
1, 11093, Note_on_c, 2, 72, 50
1, 11097, Note_on_c, 2, 56, 0
1, 11101, Note_on_c, 2, 70, 0
1, 11180, Note_on_c, 2, 73, 45
1, 11180, Note_on_c, 2, 56, 35
1, 11184, Note_on_c, 2, 72, 0
1, 11197, Note_on_c, 2, 48, 0
1, 11218, Note_on_c, 2, 53, 0
1, 11239, Note_on_c, 2, 56, 0
1, 11268, Note_on_c, 2, 73, 0
1, 11276, Note_on_c, 2, 48, 31
1, 11276, Note_on_c, 2, 65, 35
1, 11372, Note_on_c, 2, 55, 31
1, 11372, Note_on_c, 2, 58, 31
1, 11480, Note_on_c, 2, 52, 44
1, 11480, Note_on_c, 2, 68, 40
1, 11484, Note_on_c, 2, 58, 0
1, 11501, Note_on_c, 2, 65, 0
1, 11564, Note_on_c, 2, 52, 0
1, 11576, Note_on_c, 2, 67, 41
1, 11576, Note_on_c, 2, 58, 31
1, 11584, Note_on_c, 2, 68, 0
1, 11588, Note_on_c, 2, 48, 0
1, 11589, Note_on_c, 2, 55, 0
1, 11614, Note_on_c, 2, 58, 0
1, 11698, Note_on_c, 2, 53, 31
1, 11698, Note_on_c, 2, 57, 27
1, 11698, Note_on_c, 2, 65, 37
1, 11701, Note_on_c, 2, 67, 0
1, 11810, Note_on_c, 2, 60, 28
1, 11851, Note_on_c, 2, 60, 0
1, 11901, Note_on_c, 2, 60, 31
1, 11930, Note_on_c, 2, 60, 0
1, 11998, Note_on_c, 2, 53, 0
1, 12002, Note_on_c, 2, 57, 0
1, 12002, Note_on_c, 2, 60, 29
1, 12089, Note_on_c, 2, 60, 0
1, 12089, Note_on_c, 2, 53, 37
1, 12089, Note_on_c, 2, 57, 39
1, 12176, Note_on_c, 2, 60, 38
1, 12181, Note_on_c, 2, 53, 0
1, 12184, Note_on_c, 2, 57, 0
1, 12260, Note_on_c, 2, 55, 40
1, 12260, Note_on_c, 2, 58, 39
1, 12272, Note_on_c, 2, 60, 0
1, 12351, Note_on_c, 2, 60, 38
1, 12356, Note_on_c, 2, 55, 0
1, 12359, Note_on_c, 2, 58, 0
1, 12434, Note_on_c, 2, 60, 0
1, 12439, Note_on_c, 2, 70, 40
1, 12439, Note_on_c, 2, 55, 40
1, 12439, Note_on_c, 2, 52, 36
1, 12452, Note_on_c, 2, 65, 0
1, 12522, Note_on_c, 2, 60, 34
1, 12551, Note_on_c, 2, 60, 0
1, 12610, Note_on_c, 2, 60, 37
1, 12635, Note_on_c, 2, 60, 0
1, 12685, Note_on_c, 2, 52, 0
1, 12689, Note_on_c, 2, 60, 33
1, 12693, Note_on_c, 2, 55, 0
1, 12772, Note_on_c, 2, 60, 0
1, 12776, Note_on_c, 2, 48, 39
1, 12776, Note_on_c, 2, 52, 39
1, 12776, Note_on_c, 2, 67, 47
1, 12780, Note_on_c, 2, 70, 0
1, 12860, Note_on_c, 2, 60, 39
1, 12864, Note_on_c, 2, 48, 0
1, 12864, Note_on_c, 2, 52, 0
1, 12947, Note_on_c, 2, 67, 0
1, 12948, Note_on_c, 2, 64, 42
1, 12948, Note_on_c, 2, 58, 40
1, 12948, Note_on_c, 2, 55, 45
1, 12956, Note_on_c, 2, 60, 0
1, 13031, Note_on_c, 2, 60, 45
1, 13034, Note_on_c, 2, 55, 0
1, 13039, Note_on_c, 2, 58, 0
1, 13102, Note_on_c, 2, 64, 0
1, 13118, Note_on_c, 2, 72, 51
1, 13118, Note_on_c, 2, 53, 36
1, 13118, Note_on_c, 2, 57, 40
1, 13122, Note_on_c, 2, 60, 0
1, 13202, Note_on_c, 2, 60, 39
1, 13239, Note_on_c, 2, 69, 42
1, 13243, Note_on_c, 2, 72, 0
1, 13248, Note_on_c, 2, 60, 0
1, 13285, Note_on_c, 2, 69, 0
1, 13285, Note_on_c, 2, 72, 53
1, 13285, Note_on_c, 2, 60, 37
1, 13314, Note_on_c, 2, 60, 0
1, 13369, Note_on_c, 2, 57, 0
1, 13369, Note_on_c, 2, 60, 39
1, 13372, Note_on_c, 2, 53, 0
1, 13443, Note_on_c, 2, 60, 0
1, 13443, Note_on_c, 2, 53, 42
1, 13443, Note_on_c, 2, 57, 44
1, 13527, Note_on_c, 2, 60, 43
1, 13530, Note_on_c, 2, 57, 0
1, 13535, Note_on_c, 2, 53, 0
1, 13606, Note_on_c, 2, 55, 51
1, 13606, Note_on_c, 2, 58, 43
1, 13614, Note_on_c, 2, 60, 0
1, 13689, Note_on_c, 2, 60, 45
1, 13693, Note_on_c, 2, 55, 0
1, 13698, Note_on_c, 2, 58, 0
1, 13769, Note_on_c, 2, 55, 46
1, 13769, Note_on_c, 2, 52, 40
1, 13769, Note_on_c, 2, 70, 45
1, 13780, Note_on_c, 2, 60, 0
1, 13789, Note_on_c, 2, 72, 0
1, 13856, Note_on_c, 2, 60, 37
1, 13886, Note_on_c, 2, 60, 0
1, 13935, Note_on_c, 2, 60, 39
1, 13968, Note_on_c, 2, 60, 0
1, 14014, Note_on_c, 2, 52, 0
1, 14014, Note_on_c, 2, 60, 35
1, 14015, Note_on_c, 2, 55, 0
1, 14098, Note_on_c, 2, 67, 25
1, 14098, Note_on_c, 2, 48, 35
1, 14098, Note_on_c, 2, 52, 40
1, 14106, Note_on_c, 2, 60, 0
1, 14111, Note_on_c, 2, 70, 0
1, 14185, Note_on_c, 2, 48, 0
1, 14185, Note_on_c, 2, 60, 36
1, 14189, Note_on_c, 2, 52, 0
1, 14273, Note_on_c, 2, 67, 0
1, 14273, Note_on_c, 2, 55, 28
1, 14273, Note_on_c, 2, 58, 36
1, 14273, Note_on_c, 2, 64, 40
1, 14281, Note_on_c, 2, 60, 0
1, 14365, Note_on_c, 2, 60, 39
1, 14368, Note_on_c, 2, 55, 0
1, 14382, Note_on_c, 2, 58, 0
1, 14394, Note_on_c, 2, 64, 0
1, 14398, Note_on_c, 2, 60, 0
1, 14469, Note_on_c, 2, 53, 42
1, 14469, Note_on_c, 2, 57, 40
1, 14469, Note_on_c, 2, 60, 33
1, 14469, Note_on_c, 2, 72, 45
1, 14631, Note_on_c, 2, 72, 0
1, 14631, Note_on_c, 2, 69, 35
1, 14690, Note_on_c, 2, 72, 40
1, 14693, Note_on_c, 2, 69, 0
1, 14818, Note_on_c, 2, 53, 0
1, 14818, Note_on_c, 2, 72, 0
1, 14828, Note_on_c, 2, 60, 0
1, 14839, Note_on_c, 2, 57, 0
1, 15244, Note_on_c, 2, 77, 32
1, 15244, Note_on_c, 2, 65, 41
1, 15244, Note_on_c, 2, 81, 28
1, 15394, Note_on_c, 2, 64, 42
1, 15394, Note_on_c, 2, 76, 48
1, 15394, Note_on_c, 2, 79, 45
1, 15398, Note_on_c, 2, 65, 0
1, 15406, Note_on_c, 2, 77, 0
1, 15406, Note_on_c, 2, 81, 0
1, 15494, Note_on_c, 2, 62, 54
1, 15494, Note_on_c, 2, 74, 45
1, 15494, Note_on_c, 2, 77, 53
1, 15498, Note_on_c, 2, 64, 0
1, 15502, Note_on_c, 2, 79, 0
1, 15502, Note_on_c, 2, 76, 0
1, 15511, Note_on_c, 2, 62, 0
1, 15514, Note_on_c, 2, 77, 0
1, 15519, Note_on_c, 2, 74, 0
1, 15573, Note_on_c, 2, 61, 46
1, 15573, Note_on_c, 2, 73, 53
1, 15573, Note_on_c, 2, 76, 47
1, 15652, Note_on_c, 2, 61, 0
1, 15653, Note_on_c, 2, 77, 47
1, 15653, Note_on_c, 2, 74, 52
1, 15653, Note_on_c, 2, 62, 45
1, 15656, Note_on_c, 2, 76, 0
1, 15660, Note_on_c, 2, 73, 0
1, 15681, Note_on_c, 2, 62, 0
1, 15687, Note_on_c, 2, 74, 0
1, 15691, Note_on_c, 2, 77, 0
1, 15736, Note_on_c, 2, 60, 40
1, 15736, Note_on_c, 2, 72, 45
1, 15736, Note_on_c, 2, 76, 46
1, 15810, Note_on_c, 2, 60, 0
1, 15815, Note_on_c, 2, 58, 36
1, 15815, Note_on_c, 2, 74, 48
1, 15815, Note_on_c, 2, 70, 45
1, 15819, Note_on_c, 2, 72, 0
1, 15845, Note_on_c, 2, 76, 0
1, 15898, Note_on_c, 2, 74, 0
1, 15899, Note_on_c, 2, 57, 40
1, 15899, Note_on_c, 2, 69, 40
1, 15899, Note_on_c, 2, 73, 52
1, 15906, Note_on_c, 2, 58, 0
1, 15911, Note_on_c, 2, 70, 0
1, 15978, Note_on_c, 2, 57, 0
1, 15981, Note_on_c, 2, 58, 32
1, 15981, Note_on_c, 2, 70, 45
1, 15981, Note_on_c, 2, 74, 40
1, 15986, Note_on_c, 2, 73, 0
1, 15998, Note_on_c, 2, 69, 0
1, 16061, Note_on_c, 2, 58, 0
1, 16061, Note_on_c, 2, 57, 42
1, 16061, Note_on_c, 2, 72, 45
1, 16061, Note_on_c, 2, 69, 41
1, 16065, Note_on_c, 2, 70, 0
1, 16073, Note_on_c, 2, 74, 0
1, 16127, Note_on_c, 2, 69, 0
1, 16156, Note_on_c, 2, 55, 40
1, 16156, Note_on_c, 2, 67, 45
1, 16156, Note_on_c, 2, 70, 35
1, 16165, Note_on_c, 2, 72, 0
1, 16169, Note_on_c, 2, 57, 0
1, 16173, Note_on_c, 2, 70, 0
1, 16177, Note_on_c, 2, 55, 0
1, 16177, Note_on_c, 2, 67, 0
1, 16260, Note_on_c, 2, 69, 48
1, 16260, Note_on_c, 2, 54, 30
1, 16260, Note_on_c, 2, 66, 45
1, 16306, Note_on_c, 2, 54, 0
1, 16315, Note_on_c, 2, 66, 0
1, 16315, Note_on_c, 2, 69, 0
1, 16391, Note_on_c, 2, 50, 53
1, 16391, Note_on_c, 2, 54, 45
1, 16391, Note_on_c, 2, 57, 43
1, 16391, Note_on_c, 2, 60, 43
1, 16391, Note_on_c, 2, 66, 47
1, 16391, Note_on_c, 2, 69, 45
1, 16661, Note_on_c, 2, 60, 0
1, 16686, Note_on_c, 2, 66, 0
1, 16744, Note_on_c, 2, 69, 0
1, 16762, Note_on_c, 2, 50, 0
1, 16778, Note_on_c, 2, 54, 0
1, 16781, Note_on_c, 2, 57, 0
1, 17265, Note_on_c, 2, 55, 25
1, 17265, Note_on_c, 2, 62, 26
1, 17265, Note_on_c, 2, 70, 29
1, 17274, Note_on_c, 2, 58, 17
1, 17402, Note_on_c, 2, 70, 0
1, 17456, Note_on_c, 2, 62, 0
1, 17490, Note_on_c, 2, 72, 36
1, 17515, Note_on_c, 2, 70, 31
1, 17519, Note_on_c, 2, 72, 0
1, 17536, Note_on_c, 2, 70, 0
1, 17536, Note_on_c, 2, 69, 40
1, 17565, Note_on_c, 2, 70, 45
1, 17586, Note_on_c, 2, 64, 38
1, 17586, Note_on_c, 2, 72, 52
1, 17590, Note_on_c, 2, 70, 0
1, 17590, Note_on_c, 2, 69, 0
1, 17728, Note_on_c, 2, 74, 54
1, 17739, Note_on_c, 2, 55, 0
1, 17740, Note_on_c, 2, 72, 0
1, 17748, Note_on_c, 2, 58, 0
1, 17786, Note_on_c, 2, 64, 0
1, 17924, Note_on_c, 2, 57, 26
1, 17924, Note_on_c, 2, 72, 44
1, 17924, Note_on_c, 2, 60, 25
1, 17924, Note_on_c, 2, 65, 35
1, 17924, Note_on_c, 2, 69, 32
1, 17928, Note_on_c, 2, 74, 0
1, 18007, Note_on_c, 2, 69, 0
1, 18015, Note_on_c, 2, 70, 35
1, 18019, Note_on_c, 2, 65, 0
1, 18027, Note_on_c, 2, 60, 0
1, 18028, Note_on_c, 2, 57, 0
1, 18053, Note_on_c, 2, 72, 0
1, 18078, Note_on_c, 2, 69, 31
1, 18086, Note_on_c, 2, 70, 0
1, 18098, Note_on_c, 2, 69, 0
1, 18144, Note_on_c, 2, 67, 40
1, 18144, Note_on_c, 2, 62, 36
1, 18144, Note_on_c, 2, 55, 32
1, 18144, Note_on_c, 2, 58, 37
1, 18203, Note_on_c, 2, 70, 39
1, 18206, Note_on_c, 2, 62, 0
1, 18210, Note_on_c, 2, 55, 0
1, 18215, Note_on_c, 2, 58, 0
1, 18262, Note_on_c, 2, 74, 45
1, 18269, Note_on_c, 2, 70, 0
1, 18281, Note_on_c, 2, 67, 0
1, 18282, Note_on_c, 2, 74, 0
1, 18336, Note_on_c, 2, 60, 39
1, 18336, Note_on_c, 2, 65, 46
1, 18336, Note_on_c, 2, 57, 40
1, 18336, Note_on_c, 2, 48, 37
1, 18461, Note_on_c, 2, 57, 0
1, 18486, Note_on_c, 2, 48, 0
1, 18490, Note_on_c, 2, 65, 0
1, 18507, Note_on_c, 2, 60, 0
1, 18578, Note_on_c, 2, 48, 28
1, 18578, Note_on_c, 2, 52, 37
1, 18578, Note_on_c, 2, 58, 40
1, 18578, Note_on_c, 2, 60, 36
1, 18578, Note_on_c, 2, 64, 40
1, 18578, Note_on_c, 2, 67, 45
1, 18689, Note_on_c, 2, 60, 0
1, 18699, Note_on_c, 2, 48, 0
1, 18703, Note_on_c, 2, 64, 0
1, 18706, Note_on_c, 2, 52, 0
1, 18706, Note_on_c, 2, 58, 0
1, 18753, Note_on_c, 2, 67, 0
1, 18844, Note_on_c, 2, 57, 24
1, 18844, Note_on_c, 2, 53, 36
1, 18844, Note_on_c, 2, 67, 28
1, 18953, Note_on_c, 2, 60, 24
1, 18990, Note_on_c, 2, 68, 39
1, 18999, Note_on_c, 2, 60, 0
1, 19036, Note_on_c, 2, 67, 0
1, 19037, Note_on_c, 2, 60, 34
1, 19037, Note_on_c, 2, 69, 47
1, 19040, Note_on_c, 2, 68, 0
1, 19066, Note_on_c, 2, 60, 0
1, 19128, Note_on_c, 2, 60, 35
1, 19161, Note_on_c, 2, 53, 0
1, 19173, Note_on_c, 2, 57, 0
1, 19220, Note_on_c, 2, 57, 42
1, 19220, Note_on_c, 2, 53, 40
1, 19224, Note_on_c, 2, 60, 0
1, 19303, Note_on_c, 2, 60, 33
1, 19311, Note_on_c, 2, 57, 0
1, 19312, Note_on_c, 2, 53, 0
1, 19386, Note_on_c, 2, 58, 39
1, 19386, Note_on_c, 2, 55, 40
1, 19398, Note_on_c, 2, 60, 0
1, 19474, Note_on_c, 2, 55, 0
1, 19474, Note_on_c, 2, 60, 39
1, 19482, Note_on_c, 2, 58, 0
1, 19558, Note_on_c, 2, 70, 43
1, 19558, Note_on_c, 2, 52, 39
1, 19558, Note_on_c, 2, 55, 38
1, 19570, Note_on_c, 2, 60, 0
1, 19570, Note_on_c, 2, 69, 0
1, 19645, Note_on_c, 2, 60, 36
1, 19678, Note_on_c, 2, 60, 0
1, 19728, Note_on_c, 2, 60, 32
1, 19758, Note_on_c, 2, 60, 0
1, 19808, Note_on_c, 2, 52, 0
1, 19812, Note_on_c, 2, 55, 0
1, 19812, Note_on_c, 2, 60, 34
1, 19891, Note_on_c, 2, 60, 0
1, 19895, Note_on_c, 2, 52, 38
1, 19895, Note_on_c, 2, 48, 40
1, 19895, Note_on_c, 2, 67, 45
1, 19907, Note_on_c, 2, 70, 0
1, 19974, Note_on_c, 2, 48, 0
1, 19974, Note_on_c, 2, 60, 38
1, 19979, Note_on_c, 2, 52, 0
1, 20054, Note_on_c, 2, 58, 37
1, 20054, Note_on_c, 2, 55, 45
1, 20054, Note_on_c, 2, 64, 47
1, 20057, Note_on_c, 2, 67, 0
1, 20065, Note_on_c, 2, 60, 0
1, 20140, Note_on_c, 2, 55, 0
1, 20140, Note_on_c, 2, 60, 45
1, 20146, Note_on_c, 2, 58, 0
1, 20220, Note_on_c, 2, 64, 0
1, 20220, Note_on_c, 2, 72, 54
1, 20220, Note_on_c, 2, 53, 39
1, 20220, Note_on_c, 2, 57, 43
1, 20228, Note_on_c, 2, 60, 0
1, 20303, Note_on_c, 2, 60, 39
1, 20337, Note_on_c, 2, 69, 35
1, 20340, Note_on_c, 2, 72, 0
1, 20345, Note_on_c, 2, 60, 0
1, 20374, Note_on_c, 2, 60, 44
1, 20374, Note_on_c, 2, 72, 53
1, 20382, Note_on_c, 2, 69, 0
1, 20407, Note_on_c, 2, 60, 0
1, 20458, Note_on_c, 2, 60, 40
1, 20466, Note_on_c, 2, 57, 0
1, 20466, Note_on_c, 2, 53, 0
1, 20537, Note_on_c, 2, 53, 45
1, 20537, Note_on_c, 2, 57, 42
1, 20541, Note_on_c, 2, 60, 0
1, 20620, Note_on_c, 2, 60, 39
1, 20628, Note_on_c, 2, 57, 0
1, 20629, Note_on_c, 2, 53, 0
1, 20703, Note_on_c, 2, 55, 38
1, 20703, Note_on_c, 2, 58, 37
1, 20712, Note_on_c, 2, 60, 0
1, 20791, Note_on_c, 2, 60, 41
1, 20798, Note_on_c, 2, 55, 0
1, 20799, Note_on_c, 2, 58, 0
1, 20895, Note_on_c, 2, 55, 43
1, 20895, Note_on_c, 2, 52, 28
1, 20895, Note_on_c, 2, 70, 39
1, 20908, Note_on_c, 2, 60, 0
1, 20912, Note_on_c, 2, 72, 0
1, 20983, Note_on_c, 2, 60, 34
1, 21016, Note_on_c, 2, 60, 0
1, 21062, Note_on_c, 2, 60, 34
1, 21087, Note_on_c, 2, 60, 0
1, 21141, Note_on_c, 2, 52, 0
1, 21141, Note_on_c, 2, 60, 30
1, 21145, Note_on_c, 2, 55, 0
1, 21216, Note_on_c, 2, 60, 0
1, 21216, Note_on_c, 2, 52, 41
1, 21216, Note_on_c, 2, 48, 29
1, 21216, Note_on_c, 2, 67, 40
1, 21237, Note_on_c, 2, 70, 0
1, 21300, Note_on_c, 2, 52, 0
1, 21304, Note_on_c, 2, 48, 0
1, 21304, Note_on_c, 2, 60, 38
1, 21387, Note_on_c, 2, 58, 37
1, 21387, Note_on_c, 2, 64, 45
1, 21387, Note_on_c, 2, 55, 35
1, 21391, Note_on_c, 2, 67, 0
1, 21395, Note_on_c, 2, 60, 0
1, 21483, Note_on_c, 2, 55, 0
1, 21483, Note_on_c, 2, 60, 40
1, 21487, Note_on_c, 2, 64, 0
1, 21491, Note_on_c, 2, 58, 0
1, 21512, Note_on_c, 2, 60, 0
1, 21592, Note_on_c, 2, 53, 34
1, 21592, Note_on_c, 2, 57, 33
1, 21592, Note_on_c, 2, 60, 36
1, 21592, Note_on_c, 2, 72, 41
1, 21737, Note_on_c, 2, 77, 36
1, 21745, Note_on_c, 2, 72, 0
1, 21783, Note_on_c, 2, 72, 40
1, 21791, Note_on_c, 2, 77, 0
1, 21947, Note_on_c, 2, 60, 0
1, 21950, Note_on_c, 2, 72, 0
1, 21951, Note_on_c, 2, 53, 0
1, 21955, Note_on_c, 2, 57, 0
1, 22208, Note_on_c, 2, 65, 42
1, 22208, Note_on_c, 2, 77, 47
1, 22208, Note_on_c, 2, 81, 39
1, 22338, Note_on_c, 2, 64, 49
1, 22338, Note_on_c, 2, 76, 50
1, 22338, Note_on_c, 2, 79, 45
1, 22346, Note_on_c, 2, 65, 0
1, 22350, Note_on_c, 2, 77, 0
1, 22350, Note_on_c, 2, 81, 0
1, 22429, Note_on_c, 2, 62, 53
1, 22429, Note_on_c, 2, 74, 48
1, 22429, Note_on_c, 2, 77, 56
1, 22438, Note_on_c, 2, 64, 0
1, 22442, Note_on_c, 2, 62, 0
1, 22442, Note_on_c, 2, 79, 0
1, 22442, Note_on_c, 2, 76, 0
1, 22454, Note_on_c, 2, 77, 0
1, 22454, Note_on_c, 2, 74, 0
1, 22508, Note_on_c, 2, 61, 52
1, 22508, Note_on_c, 2, 73, 56
1, 22508, Note_on_c, 2, 76, 56
1, 22588, Note_on_c, 2, 61, 0
1, 22588, Note_on_c, 2, 77, 48
1, 22588, Note_on_c, 2, 62, 49
1, 22588, Note_on_c, 2, 74, 53
1, 22596, Note_on_c, 2, 76, 0
1, 22596, Note_on_c, 2, 73, 0
1, 22624, Note_on_c, 2, 62, 0
1, 22629, Note_on_c, 2, 74, 0
1, 22634, Note_on_c, 2, 77, 0
1, 22663, Note_on_c, 2, 72, 55
1, 22663, Note_on_c, 2, 60, 45
1, 22663, Note_on_c, 2, 76, 55
1, 22738, Note_on_c, 2, 60, 0
1, 22742, Note_on_c, 2, 74, 47
1, 22742, Note_on_c, 2, 70, 45
1, 22742, Note_on_c, 2, 58, 46
1, 22746, Note_on_c, 2, 72, 0
1, 22758, Note_on_c, 2, 76, 0
1, 22824, Note_on_c, 2, 73, 55
1, 22824, Note_on_c, 2, 69, 40
1, 22824, Note_on_c, 2, 57, 46
1, 22829, Note_on_c, 2, 74, 0
1, 22830, Note_on_c, 2, 70, 0
1, 22834, Note_on_c, 2, 58, 0
1, 22904, Note_on_c, 2, 57, 0
1, 22904, Note_on_c, 2, 74, 45
1, 22904, Note_on_c, 2, 70, 53
1, 22904, Note_on_c, 2, 58, 37
1, 22915, Note_on_c, 2, 73, 0
1, 22920, Note_on_c, 2, 69, 0
1, 22933, Note_on_c, 2, 74, 13
1, 22983, Note_on_c, 2, 74, 0
1, 22983, Note_on_c, 2, 58, 0
1, 22988, Note_on_c, 2, 57, 45
1, 22988, Note_on_c, 2, 69, 45
1, 22988, Note_on_c, 2, 72, 45
1, 22992, Note_on_c, 2, 70, 0
1, 23000, Note_on_c, 2, 74, 0
1, 23046, Note_on_c, 2, 69, 0
1, 23072, Note_on_c, 2, 67, 45
1, 23072, Note_on_c, 2, 55, 42
1, 23072, Note_on_c, 2, 70, 45
1, 23075, Note_on_c, 2, 57, 0
1, 23095, Note_on_c, 2, 72, 0
1, 23116, Note_on_c, 2, 70, 0
1, 23126, Note_on_c, 2, 55, 0
1, 23130, Note_on_c, 2, 67, 0
1, 23175, Note_on_c, 2, 54, 48
1, 23175, Note_on_c, 2, 66, 49
1, 23175, Note_on_c, 2, 69, 51
1, 23232, Note_on_c, 2, 54, 0
1, 23240, Note_on_c, 2, 66, 0
1, 23246, Note_on_c, 2, 69, 0
1, 23331, Note_on_c, 2, 50, 49
1, 23331, Note_on_c, 2, 54, 47
1, 23331, Note_on_c, 2, 57, 48
1, 23331, Note_on_c, 2, 60, 47
1, 23331, Note_on_c, 2, 66, 47
1, 23331, Note_on_c, 2, 69, 43
1, 23500, Note_on_c, 2, 60, 0
1, 23534, Note_on_c, 2, 66, 0
1, 23671, Note_on_c, 2, 69, 0
1, 23723, Note_on_c, 2, 50, 0
1, 23735, Note_on_c, 2, 57, 0
1, 23735, Note_on_c, 2, 54, 0
1, 24138, Note_on_c, 2, 55, 20
1, 24138, Note_on_c, 2, 58, 31
1, 24138, Note_on_c, 2, 62, 17
1, 24138, Note_on_c, 2, 70, 29
1, 24292, Note_on_c, 2, 70, 0
1, 24388, Note_on_c, 2, 62, 0
1, 24388, Note_on_c, 2, 72, 43
1, 24408, Note_on_c, 2, 70, 32
1, 24417, Note_on_c, 2, 72, 0
1, 24434, Note_on_c, 2, 70, 0
1, 24434, Note_on_c, 2, 69, 41
1, 24454, Note_on_c, 2, 70, 40
1, 24492, Note_on_c, 2, 70, 0
1, 24492, Note_on_c, 2, 69, 0
1, 24496, Note_on_c, 2, 72, 47
1, 24496, Note_on_c, 2, 64, 45
1, 24630, Note_on_c, 2, 74, 48
1, 24654, Note_on_c, 2, 72, 0
1, 24654, Note_on_c, 2, 55, 0
1, 24663, Note_on_c, 2, 58, 0
1, 24712, Note_on_c, 2, 64, 0
1, 24846, Note_on_c, 2, 74, 0
1, 24847, Note_on_c, 2, 57, 18
1, 24847, Note_on_c, 2, 60, 26
1, 24847, Note_on_c, 2, 65, 33
1, 24847, Note_on_c, 2, 69, 27
1, 24847, Note_on_c, 2, 72, 42
1, 24942, Note_on_c, 2, 77, 47
1, 24963, Note_on_c, 2, 69, 0
1, 24967, Note_on_c, 2, 65, 0
1, 24981, Note_on_c, 2, 60, 0
1, 24988, Note_on_c, 2, 57, 0
1, 25008, Note_on_c, 2, 77, 0
1, 25009, Note_on_c, 2, 69, 36
1, 25013, Note_on_c, 2, 72, 0
1, 25030, Note_on_c, 2, 69, 0
1, 25076, Note_on_c, 2, 67, 42
1, 25076, Note_on_c, 2, 62, 36
1, 25076, Note_on_c, 2, 58, 32
1, 25076, Note_on_c, 2, 55, 34
1, 25146, Note_on_c, 2, 70, 42
1, 25155, Note_on_c, 2, 62, 0
1, 25159, Note_on_c, 2, 58, 0
1, 25163, Note_on_c, 2, 55, 0
1, 25200, Note_on_c, 2, 74, 47
1, 25204, Note_on_c, 2, 70, 0
1, 25217, Note_on_c, 2, 74, 0
1, 25217, Note_on_c, 2, 67, 0
1, 25276, Note_on_c, 2, 65, 40
1, 25276, Note_on_c, 2, 60, 39
1, 25276, Note_on_c, 2, 57, 45
1, 25276, Note_on_c, 2, 48, 39
1, 25446, Note_on_c, 2, 57, 0
1, 25572, Note_on_c, 2, 55, 25
1, 25572, Note_on_c, 2, 64, 31
1, 25584, Note_on_c, 2, 65, 0
1, 25795, Note_on_c, 2, 60, 0
1, 25830, Note_on_c, 2, 64, 0
1, 25926, Note_on_c, 2, 55, 0
1, 25930, Note_on_c, 2, 48, 0
1, 26146, Note_on_c, 2, 69, 53
1, 26188, Note_on_c, 2, 81, 55
1, 26288, Note_on_c, 2, 53, 41
1, 26376, Note_on_c, 2, 69, 0
1, 26376, Note_on_c, 2, 57, 47
1, 26401, Note_on_c, 2, 81, 0
1, 26418, Note_on_c, 2, 77, 50
1, 26438, Note_on_c, 2, 77, 0
1, 26467, Note_on_c, 2, 77, 52
1, 26472, Note_on_c, 2, 62, 39
1, 26488, Note_on_c, 2, 79, 55
1, 26492, Note_on_c, 2, 77, 0
1, 26505, Note_on_c, 2, 77, 50
1, 26518, Note_on_c, 2, 79, 0
1, 26518, Note_on_c, 2, 76, 48
1, 26534, Note_on_c, 2, 77, 43
1, 26542, Note_on_c, 2, 76, 0
1, 26559, Note_on_c, 2, 77, 0
1, 26568, Note_on_c, 2, 70, 72
1, 26588, Note_on_c, 2, 53, 0
1, 26588, Note_on_c, 2, 82, 65
1, 26609, Note_on_c, 2, 57, 0
1, 26664, Note_on_c, 2, 55, 53
1, 26671, Note_on_c, 2, 62, 0
1, 26704, Note_on_c, 2, 77, 0
1, 26746, Note_on_c, 2, 70, 0
1, 26746, Note_on_c, 2, 58, 43
1, 26767, Note_on_c, 2, 82, 0
1, 26792, Note_on_c, 2, 79, 41
1, 26809, Note_on_c, 2, 79, 0
1, 26839, Note_on_c, 2, 64, 45
1, 26839, Note_on_c, 2, 79, 47
1, 26850, Note_on_c, 2, 81, 52
1, 26855, Note_on_c, 2, 79, 0
1, 26870, Note_on_c, 2, 79, 45
1, 26876, Note_on_c, 2, 81, 0
1, 26884, Note_on_c, 2, 78, 45
1, 26885, Note_on_c, 2, 79, 0
1, 26905, Note_on_c, 2, 79, 55
1, 26914, Note_on_c, 2, 78, 0
1, 26926, Note_on_c, 2, 55, 0
1, 26930, Note_on_c, 2, 84, 63
1, 26934, Note_on_c, 2, 58, 0
1, 26943, Note_on_c, 2, 79, 0
1, 27009, Note_on_c, 2, 57, 45
1, 27018, Note_on_c, 2, 64, 0
1, 27050, Note_on_c, 2, 81, 55
1, 27088, Note_on_c, 2, 84, 0
1, 27088, Note_on_c, 2, 60, 45
1, 27088, Note_on_c, 2, 77, 72
1, 27100, Note_on_c, 2, 81, 0
1, 27172, Note_on_c, 2, 57, 0
1, 27172, Note_on_c, 2, 65, 43
1, 27247, Note_on_c, 2, 60, 0
1, 27251, Note_on_c, 2, 65, 0
1, 27251, Note_on_c, 2, 57, 53
1, 27342, Note_on_c, 2, 75, 41
1, 27359, Note_on_c, 2, 77, 0
1, 27426, Note_on_c, 2, 63, 38
1, 27426, Note_on_c, 2, 74, 42
1, 27438, Note_on_c, 2, 75, 0
1, 27442, Note_on_c, 2, 57, 0
1, 27447, Note_on_c, 2, 63, 0
1, 27514, Note_on_c, 2, 74, 0
1, 27517, Note_on_c, 2, 73, 42
1, 27534, Note_on_c, 2, 73, 0
1, 27618, Note_on_c, 2, 58, 40
1, 27618, Note_on_c, 2, 74, 40
1, 27618, Note_on_c, 2, 62, 37
1, 27718, Note_on_c, 2, 76, 48
1, 27739, Note_on_c, 2, 74, 0
1, 27755, Note_on_c, 2, 78, 40
1, 27759, Note_on_c, 2, 76, 0
1, 27788, Note_on_c, 2, 79, 53
1, 27806, Note_on_c, 2, 78, 0
1, 27822, Note_on_c, 2, 81, 42
1, 27830, Note_on_c, 2, 79, 0
1, 27859, Note_on_c, 2, 58, 0
1, 27859, Note_on_c, 2, 82, 40
1, 27864, Note_on_c, 2, 81, 0
1, 27869, Note_on_c, 2, 62, 0
1, 27892, Note_on_c, 2, 85, 31
1, 27897, Note_on_c, 2, 82, 0
1, 27930, Note_on_c, 2, 58, 54
1, 27930, Note_on_c, 2, 62, 55
1, 27930, Note_on_c, 2, 67, 47
1, 27930, Note_on_c, 2, 86, 62
1, 27963, Note_on_c, 2, 86, 0
1, 27964, Note_on_c, 2, 84, 54
1, 27965, Note_on_c, 2, 85, 0
1, 27988, Note_on_c, 2, 58, 0
1, 27989, Note_on_c, 2, 62, 0
1, 27992, Note_on_c, 2, 67, 0
1, 28001, Note_on_c, 2, 82, 66
1, 28017, Note_on_c, 2, 84, 0
1, 28039, Note_on_c, 2, 81, 59
1, 28047, Note_on_c, 2, 82, 0
1, 28072, Note_on_c, 2, 79, 55
1, 28084, Note_on_c, 2, 81, 0
1, 28105, Note_on_c, 2, 79, 0
1, 28105, Note_on_c, 2, 77, 48
1, 28134, Note_on_c, 2, 76, 55
1, 28147, Note_on_c, 2, 77, 0
1, 28168, Note_on_c, 2, 74, 65
1, 28172, Note_on_c, 2, 76, 0
1, 28184, Note_on_c, 2, 74, 0
1, 28201, Note_on_c, 2, 48, 52
1, 28201, Note_on_c, 2, 72, 79
1, 28284, Note_on_c, 2, 57, 46
1, 28363, Note_on_c, 2, 57, 0
1, 28368, Note_on_c, 2, 84, 47
1, 28368, Note_on_c, 2, 53, 24
1, 28443, Note_on_c, 2, 48, 0
1, 28447, Note_on_c, 2, 84, 0
1, 28448, Note_on_c, 2, 57, 35
1, 28472, Note_on_c, 2, 53, 0
1, 28518, Note_on_c, 2, 57, 0
1, 28526, Note_on_c, 2, 48, 39
1, 28564, Note_on_c, 2, 81, 54
1, 28576, Note_on_c, 2, 72, 0
1, 28606, Note_on_c, 2, 57, 41
1, 28638, Note_on_c, 2, 77, 49
1, 28643, Note_on_c, 2, 81, 0
1, 28668, Note_on_c, 2, 72, 48
1, 28680, Note_on_c, 2, 57, 0
1, 28680, Note_on_c, 2, 53, 40
1, 28693, Note_on_c, 2, 77, 0
1, 28705, Note_on_c, 2, 72, 0
1, 28705, Note_on_c, 2, 69, 53
1, 28735, Note_on_c, 2, 77, 60
1, 28738, Note_on_c, 2, 69, 0
1, 28759, Note_on_c, 2, 77, 0
1, 28772, Note_on_c, 2, 57, 45
1, 28780, Note_on_c, 2, 53, 0
1, 28781, Note_on_c, 2, 48, 0
1, 28822, Note_on_c, 2, 65, 57
1, 28864, Note_on_c, 2, 48, 45
1, 28864, Note_on_c, 2, 67, 46
1, 28868, Note_on_c, 2, 57, 0
1, 28884, Note_on_c, 2, 65, 0
1, 28918, Note_on_c, 2, 69, 50
1, 28922, Note_on_c, 2, 67, 0
1, 28938, Note_on_c, 2, 69, 0
1, 28939, Note_on_c, 2, 67, 49
1, 28956, Note_on_c, 2, 67, 0
1, 28960, Note_on_c, 2, 69, 53
1, 28976, Note_on_c, 2, 69, 0
1, 28976, Note_on_c, 2, 58, 45
1, 28976, Note_on_c, 2, 67, 47
1, 28985, Note_on_c, 2, 67, 0
1, 28993, Note_on_c, 2, 69, 47
1, 29002, Note_on_c, 2, 67, 50
1, 29005, Note_on_c, 2, 69, 0
1, 29014, Note_on_c, 2, 67, 0
1, 29018, Note_on_c, 2, 69, 41
1, 29026, Note_on_c, 2, 69, 0
1, 29031, Note_on_c, 2, 67, 52
1, 29043, Note_on_c, 2, 67, 0
1, 29048, Note_on_c, 2, 55, 39
1, 29048, Note_on_c, 2, 69, 47
1, 29060, Note_on_c, 2, 69, 0
1, 29060, Note_on_c, 2, 67, 47
1, 29063, Note_on_c, 2, 58, 0
1, 29072, Note_on_c, 2, 67, 0
1, 29072, Note_on_c, 2, 69, 41
1, 29085, Note_on_c, 2, 69, 0
1, 29085, Note_on_c, 2, 67, 47
1, 29102, Note_on_c, 2, 67, 0
1, 29102, Note_on_c, 2, 69, 47
1, 29118, Note_on_c, 2, 69, 0
1, 29118, Note_on_c, 2, 58, 39
1, 29118, Note_on_c, 2, 67, 46
1, 29122, Note_on_c, 2, 48, 0
1, 29130, Note_on_c, 2, 67, 0
1, 29135, Note_on_c, 2, 55, 0
1, 29135, Note_on_c, 2, 69, 47
1, 29143, Note_on_c, 2, 69, 0
1, 29143, Note_on_c, 2, 67, 45
1, 29155, Note_on_c, 2, 67, 0
1, 29160, Note_on_c, 2, 69, 51
1, 29168, Note_on_c, 2, 58, 0
1, 29172, Note_on_c, 2, 67, 48
1, 29176, Note_on_c, 2, 69, 0
1, 29177, Note_on_c, 2, 48, 45
1, 29185, Note_on_c, 2, 67, 0
1, 29189, Note_on_c, 2, 69, 47
1, 29197, Note_on_c, 2, 67, 48
1, 29202, Note_on_c, 2, 69, 0
1, 29214, Note_on_c, 2, 67, 0
1, 29214, Note_on_c, 2, 69, 53
1, 29231, Note_on_c, 2, 69, 0
1, 29231, Note_on_c, 2, 67, 47
1, 29239, Note_on_c, 2, 67, 0
1, 29239, Note_on_c, 2, 69, 40
1, 29252, Note_on_c, 2, 67, 53
1, 29255, Note_on_c, 2, 69, 0
1, 29255, Note_on_c, 2, 58, 45
1, 29268, Note_on_c, 2, 67, 0
1, 29268, Note_on_c, 2, 69, 52
1, 29280, Note_on_c, 2, 67, 55
1, 29285, Note_on_c, 2, 69, 0
1, 29297, Note_on_c, 2, 67, 0
1, 29297, Note_on_c, 2, 69, 45
1, 29305, Note_on_c, 2, 67, 46
1, 29310, Note_on_c, 2, 69, 0
1, 29322, Note_on_c, 2, 67, 0
1, 29322, Note_on_c, 2, 69, 46
1, 29338, Note_on_c, 2, 69, 0
1, 29339, Note_on_c, 2, 67, 41
1, 29343, Note_on_c, 2, 58, 0
1, 29344, Note_on_c, 2, 55, 40
1, 29347, Note_on_c, 2, 69, 45
1, 29352, Note_on_c, 2, 67, 0
1, 29364, Note_on_c, 2, 67, 47
1, 29372, Note_on_c, 2, 69, 0
1, 29435, Note_on_c, 2, 67, 0
1, 29439, Note_on_c, 2, 55, 0
1, 29439, Note_on_c, 2, 48, 0
1, 29439, Note_on_c, 2, 58, 40
1, 29439, Note_on_c, 2, 65, 43
1, 29480, Note_on_c, 2, 58, 0
1, 29480, Note_on_c, 2, 67, 39
1, 29484, Note_on_c, 2, 65, 0
1, 29530, Note_on_c, 2, 67, 0
1, 29530, Note_on_c, 2, 53, 35
1, 29530, Note_on_c, 2, 65, 45
1, 29626, Note_on_c, 2, 60, 33
1, 29639, Note_on_c, 2, 65, 0
1, 29705, Note_on_c, 2, 53, 0
1, 29710, Note_on_c, 2, 65, 36
1, 29714, Note_on_c, 2, 60, 0
1, 29756, Note_on_c, 2, 77, 30
1, 29772, Note_on_c, 2, 77, 0
1, 29794, Note_on_c, 2, 63, 34
1, 29794, Note_on_c, 2, 77, 47
1, 29801, Note_on_c, 2, 65, 0
1, 29810, Note_on_c, 2, 77, 0
1, 29818, Note_on_c, 2, 79, 34
1, 29830, Note_on_c, 2, 77, 46
1, 29839, Note_on_c, 2, 79, 0
1, 29848, Note_on_c, 2, 77, 0
1, 29848, Note_on_c, 2, 76, 52
1, 29872, Note_on_c, 2, 77, 42
1, 29885, Note_on_c, 2, 76, 0
1, 29889, Note_on_c, 2, 62, 48
1, 29889, Note_on_c, 2, 84, 47
1, 29890, Note_on_c, 2, 63, 0
1, 29893, Note_on_c, 2, 77, 0
1, 29985, Note_on_c, 2, 82, 46
1, 29998, Note_on_c, 2, 84, 0
1, 30026, Note_on_c, 2, 82, 0
1, 30068, Note_on_c, 2, 81, 50
1, 30068, Note_on_c, 2, 58, 33
1, 30071, Note_on_c, 2, 62, 0
1, 30150, Note_on_c, 2, 79, 55
1, 30168, Note_on_c, 2, 81, 0
1, 30193, Note_on_c, 2, 58, 0
1, 30234, Note_on_c, 2, 79, 0
1, 30239, Note_on_c, 2, 57, 46
1, 30240, Note_on_c, 2, 79, 50
1, 30331, Note_on_c, 2, 77, 50
1, 30331, Note_on_c, 2, 60, 40
1, 30340, Note_on_c, 2, 79, 0
1, 30344, Note_on_c, 2, 57, 0
1, 30406, Note_on_c, 2, 60, 0
1, 30406, Note_on_c, 2, 65, 45
1, 30431, Note_on_c, 2, 77, 0
1, 30456, Note_on_c, 2, 77, 53
1, 30472, Note_on_c, 2, 77, 0
1, 30493, Note_on_c, 2, 63, 40
1, 30498, Note_on_c, 2, 65, 0
1, 30498, Note_on_c, 2, 77, 36
1, 30510, Note_on_c, 2, 77, 0
1, 30514, Note_on_c, 2, 79, 41
1, 30531, Note_on_c, 2, 77, 56
1, 30539, Note_on_c, 2, 79, 0
1, 30548, Note_on_c, 2, 76, 49
1, 30551, Note_on_c, 2, 77, 0
1, 30572, Note_on_c, 2, 77, 48
1, 30581, Note_on_c, 2, 76, 0
1, 30589, Note_on_c, 2, 63, 0
1, 30589, Note_on_c, 2, 84, 57
1, 30594, Note_on_c, 2, 77, 0
1, 30594, Note_on_c, 2, 62, 54
1, 30681, Note_on_c, 2, 82, 49
1, 30693, Note_on_c, 2, 84, 0
1, 30714, Note_on_c, 2, 82, 0
1, 30722, Note_on_c, 2, 62, 0
1, 30769, Note_on_c, 2, 81, 54
1, 30769, Note_on_c, 2, 58, 45
1, 30848, Note_on_c, 2, 58, 0
1, 30864, Note_on_c, 2, 81, 0
1, 30864, Note_on_c, 2, 79, 52
1, 30890, Note_on_c, 2, 79, 0
1, 30953, Note_on_c, 2, 53, 28
1, 30953, Note_on_c, 2, 57, 41
1, 30953, Note_on_c, 2, 79, 45
1, 30999, Note_on_c, 2, 53, 0
1, 31003, Note_on_c, 2, 57, 0
1, 31043, Note_on_c, 2, 79, 0
1, 31048, Note_on_c, 2, 55, 39
1, 31048, Note_on_c, 2, 58, 47
1, 31048, Note_on_c, 2, 77, 42
1, 31073, Note_on_c, 2, 55, 0
1, 31077, Note_on_c, 2, 58, 0
1, 31085, Note_on_c, 2, 77, 0
1, 31128, Note_on_c, 2, 57, 57
1, 31128, Note_on_c, 2, 60, 47
1, 31128, Note_on_c, 2, 77, 54
1, 31169, Note_on_c, 2, 57, 0
1, 31173, Note_on_c, 2, 60, 0
1, 31206, Note_on_c, 2, 62, 51
1, 31206, Note_on_c, 2, 58, 66
1, 31222, Note_on_c, 2, 62, 0
1, 31223, Note_on_c, 2, 58, 0
1, 31239, Note_on_c, 2, 77, 0
1, 31290, Note_on_c, 2, 60, 57
1, 31290, Note_on_c, 2, 77, 49
1, 31290, Note_on_c, 2, 63, 49
1, 31323, Note_on_c, 2, 60, 0
1, 31331, Note_on_c, 2, 63, 0
1, 31381, Note_on_c, 2, 59, 48
1, 31381, Note_on_c, 2, 62, 42
1, 31402, Note_on_c, 2, 62, 0
1, 31402, Note_on_c, 2, 59, 0
1, 31410, Note_on_c, 2, 77, 0
1, 31482, Note_on_c, 2, 60, 46
1, 31482, Note_on_c, 2, 63, 41
1, 31482, Note_on_c, 2, 77, 45
1, 31535, Note_on_c, 2, 60, 0
1, 31541, Note_on_c, 2, 63, 0
1, 31603, Note_on_c, 2, 59, 43
1, 31603, Note_on_c, 2, 62, 42
1, 31627, Note_on_c, 2, 59, 0
1, 31631, Note_on_c, 2, 62, 0
1, 31635, Note_on_c, 2, 77, 0
1, 31748, Note_on_c, 2, 63, 39
1, 31748, Note_on_c, 2, 77, 45
1, 31748, Note_on_c, 2, 60, 51
1, 32031, Note_on_c, 2, 63, 0
1, 32040, Note_on_c, 2, 60, 0
1, 32048, Note_on_c, 2, 77, 0
1, 32315, Note_on_c, 2, 76, 31
1, 32369, Note_on_c, 2, 77, 48
1, 32377, Note_on_c, 2, 76, 0
1, 32423, Note_on_c, 2, 79, 35
1, 32432, Note_on_c, 2, 77, 0
1, 32469, Note_on_c, 2, 77, 47
1, 32477, Note_on_c, 2, 79, 0
1, 32490, Note_on_c, 2, 77, 0
1, 32523, Note_on_c, 2, 77, 42
1, 32586, Note_on_c, 2, 75, 36
1, 32594, Note_on_c, 2, 77, 0
1, 32669, Note_on_c, 2, 74, 46
1, 32681, Note_on_c, 2, 75, 0
1, 32802, Note_on_c, 2, 72, 40
1, 32811, Note_on_c, 2, 74, 0
1, 33240, Note_on_c, 2, 58, 30
1, 33241, Note_on_c, 2, 70, 37
1, 33335, Note_on_c, 2, 72, 0
1, 33344, Note_on_c, 2, 65, 28
1, 33369, Note_on_c, 2, 72, 47
1, 33373, Note_on_c, 2, 70, 0
1, 33394, Note_on_c, 2, 70, 46
1, 33402, Note_on_c, 2, 72, 0
1, 33411, Note_on_c, 2, 70, 0
1, 33411, Note_on_c, 2, 69, 45
1, 33436, Note_on_c, 2, 70, 40
1, 33436, Note_on_c, 2, 62, 40
1, 33444, Note_on_c, 2, 65, 0
1, 33452, Note_on_c, 2, 69, 0
1, 33519, Note_on_c, 2, 58, 0
1, 33523, Note_on_c, 2, 65, 36
1, 33523, Note_on_c, 2, 72, 53
1, 33528, Note_on_c, 2, 70, 0
1, 33531, Note_on_c, 2, 62, 0
1, 33540, Note_on_c, 2, 72, 0
1, 33552, Note_on_c, 2, 65, 0
1, 33611, Note_on_c, 2, 58, 39
1, 33611, Note_on_c, 2, 74, 43
1, 33720, Note_on_c, 2, 65, 32
1, 33740, Note_on_c, 2, 74, 0
1, 33740, Note_on_c, 2, 75, 46
1, 33761, Note_on_c, 2, 74, 45
1, 33777, Note_on_c, 2, 75, 0
1, 33786, Note_on_c, 2, 74, 0
1, 33786, Note_on_c, 2, 72, 45
1, 33820, Note_on_c, 2, 74, 49
1, 33820, Note_on_c, 2, 62, 40
1, 33823, Note_on_c, 2, 65, 0
1, 33828, Note_on_c, 2, 72, 0
1, 33915, Note_on_c, 2, 65, 29
1, 33915, Note_on_c, 2, 75, 40
1, 33923, Note_on_c, 2, 62, 0
1, 33923, Note_on_c, 2, 74, 0
1, 33924, Note_on_c, 2, 58, 0
1, 33953, Note_on_c, 2, 75, 0
1, 33999, Note_on_c, 2, 57, 40
1, 33999, Note_on_c, 2, 76, 49
1, 34002, Note_on_c, 2, 65, 0
1, 34094, Note_on_c, 2, 65, 37
1, 34182, Note_on_c, 2, 65, 0
1, 34186, Note_on_c, 2, 60, 24
1, 34261, Note_on_c, 2, 57, 0
1, 34265, Note_on_c, 2, 65, 33
1, 34266, Note_on_c, 2, 77, 47
1, 34269, Note_on_c, 2, 76, 0
1, 34340, Note_on_c, 2, 60, 0
1, 34353, Note_on_c, 2, 65, 0
1, 34353, Note_on_c, 2, 72, 34
1, 34354, Note_on_c, 2, 57, 20
1, 34444, Note_on_c, 2, 65, 28
1, 34498, Note_on_c, 2, 77, 0
1, 34528, Note_on_c, 2, 60, 35
1, 34532, Note_on_c, 2, 65, 0
1, 34620, Note_on_c, 2, 65, 29
1, 34623, Note_on_c, 2, 57, 0
1, 34624, Note_on_c, 2, 60, 0
1, 34661, Note_on_c, 2, 65, 0
1, 34678, Note_on_c, 2, 72, 0
1, 34720, Note_on_c, 2, 55, 26
1, 34720, Note_on_c, 2, 75, 36
1, 34828, Note_on_c, 2, 63, 31
1, 34853, Note_on_c, 2, 77, 54
1, 34856, Note_on_c, 2, 75, 0
1, 34878, Note_on_c, 2, 75, 30
1, 34886, Note_on_c, 2, 77, 0
1, 34898, Note_on_c, 2, 75, 0
1, 34899, Note_on_c, 2, 74, 51
1, 34928, Note_on_c, 2, 63, 0
1, 34928, Note_on_c, 2, 58, 36
1, 34928, Note_on_c, 2, 75, 54
1, 34944, Note_on_c, 2, 74, 0
1, 35007, Note_on_c, 2, 55, 0
1, 35011, Note_on_c, 2, 58, 0
1, 35011, Note_on_c, 2, 63, 37
1, 35012, Note_on_c, 2, 77, 56
1, 35015, Note_on_c, 2, 75, 0
1, 35028, Note_on_c, 2, 63, 0
1, 35032, Note_on_c, 2, 77, 0
1, 35103, Note_on_c, 2, 51, 42
1, 35103, Note_on_c, 2, 79, 52
1, 35191, Note_on_c, 2, 58, 39
1, 35211, Note_on_c, 2, 81, 50
1, 35215, Note_on_c, 2, 79, 0
1, 35232, Note_on_c, 2, 79, 39
1, 35248, Note_on_c, 2, 81, 0
1, 35253, Note_on_c, 2, 79, 0
1, 35257, Note_on_c, 2, 77, 63
1, 35282, Note_on_c, 2, 58, 0
1, 35282, Note_on_c, 2, 55, 41
1, 35282, Note_on_c, 2, 79, 51
1, 35294, Note_on_c, 2, 77, 0
1, 35365, Note_on_c, 2, 58, 40
1, 35366, Note_on_c, 2, 51, 0
1, 35366, Note_on_c, 2, 55, 0
1, 35366, Note_on_c, 2, 81, 52
1, 35373, Note_on_c, 2, 79, 0
1, 35403, Note_on_c, 2, 81, 0
1, 35449, Note_on_c, 2, 58, 0
1, 35453, Note_on_c, 2, 50, 42
1, 35453, Note_on_c, 2, 81, 53
1, 35557, Note_on_c, 2, 58, 37
1, 35636, Note_on_c, 2, 53, 40
1, 35640, Note_on_c, 2, 58, 0
1, 35704, Note_on_c, 2, 50, 0
1, 35712, Note_on_c, 2, 58, 34
1, 35712, Note_on_c, 2, 82, 46
1, 35724, Note_on_c, 2, 81, 0
1, 35724, Note_on_c, 2, 53, 0
1, 35786, Note_on_c, 2, 58, 0
1, 35790, Note_on_c, 2, 82, 0
1, 35790, Note_on_c, 2, 50, 48
1, 35790, Note_on_c, 2, 77, 56
1, 35870, Note_on_c, 2, 58, 45
1, 35945, Note_on_c, 2, 53, 45
1, 35949, Note_on_c, 2, 58, 0
1, 36014, Note_on_c, 2, 50, 0
1, 36020, Note_on_c, 2, 58, 39
1, 36024, Note_on_c, 2, 53, 0
1, 36099, Note_on_c, 2, 51, 40
1, 36099, Note_on_c, 2, 78, 44
1, 36107, Note_on_c, 2, 58, 0
1, 36112, Note_on_c, 2, 77, 0
1, 36195, Note_on_c, 2, 51, 0
1, 36196, Note_on_c, 2, 55, 40
1, 36196, Note_on_c, 2, 79, 54
1, 36208, Note_on_c, 2, 78, 0
1, 36267, Note_on_c, 2, 55, 0
1, 36270, Note_on_c, 2, 51, 39
1, 36282, Note_on_c, 2, 79, 0
1, 36344, Note_on_c, 2, 51, 0
1, 36345, Note_on_c, 2, 59, 40
1, 36345, Note_on_c, 2, 80, 54
1, 36382, Note_on_c, 2, 80, 0
1, 36382, Note_on_c, 2, 79, 38
1, 36420, Note_on_c, 2, 59, 0
1, 36424, Note_on_c, 2, 51, 43
1, 36424, Note_on_c, 2, 77, 55
1, 36432, Note_on_c, 2, 79, 0
1, 36495, Note_on_c, 2, 60, 47
1, 36495, Note_on_c, 2, 75, 55
1, 36503, Note_on_c, 2, 77, 0
1, 36503, Note_on_c, 2, 51, 0
1, 36566, Note_on_c, 2, 60, 0
1, 36570, Note_on_c, 2, 51, 44
1, 36570, Note_on_c, 2, 74, 55
1, 36582, Note_on_c, 2, 75, 0
1, 36636, Note_on_c, 2, 51, 0
1, 36640, Note_on_c, 2, 74, 0
1, 36641, Note_on_c, 2, 63, 54
1, 36641, Note_on_c, 2, 72, 65
1, 36666, Note_on_c, 2, 63, 0
1, 36687, Note_on_c, 2, 72, 0
1, 36712, Note_on_c, 2, 50, 51
1, 36712, Note_on_c, 2, 79, 60
1, 36791, Note_on_c, 2, 77, 59
1, 36795, Note_on_c, 2, 53, 47
1, 36799, Note_on_c, 2, 79, 0
1, 36799, Note_on_c, 2, 50, 0
1, 36866, Note_on_c, 2, 50, 37
1, 36870, Note_on_c, 2, 53, 0
1, 36937, Note_on_c, 2, 79, 46
1, 36937, Note_on_c, 2, 57, 45
1, 36941, Note_on_c, 2, 50, 0
1, 36945, Note_on_c, 2, 77, 0
1, 36974, Note_on_c, 2, 77, 46
1, 36986, Note_on_c, 2, 79, 0
1, 36991, Note_on_c, 2, 77, 0
1, 37008, Note_on_c, 2, 50, 42
1, 37008, Note_on_c, 2, 77, 50
1, 37012, Note_on_c, 2, 57, 0
1, 37049, Note_on_c, 2, 75, 46
1, 37062, Note_on_c, 2, 77, 0
1, 37070, Note_on_c, 2, 75, 0
1, 37086, Note_on_c, 2, 58, 45
1, 37087, Note_on_c, 2, 75, 47
1, 37095, Note_on_c, 2, 50, 0
1, 37120, Note_on_c, 2, 74, 51
1, 37137, Note_on_c, 2, 75, 0
1, 37141, Note_on_c, 2, 74, 0
1, 37153, Note_on_c, 2, 58, 0
1, 37166, Note_on_c, 2, 50, 40
1, 37166, Note_on_c, 2, 74, 45
1, 37212, Note_on_c, 2, 72, 47
1, 37220, Note_on_c, 2, 74, 0
1, 37232, Note_on_c, 2, 72, 0
1, 37253, Note_on_c, 2, 62, 40
1, 37253, Note_on_c, 2, 72, 47
1, 37266, Note_on_c, 2, 50, 0
1, 37303, Note_on_c, 2, 70, 40
1, 37348, Note_on_c, 2, 62, 0
1, 37354, Note_on_c, 2, 70, 0
1, 37354, Note_on_c, 2, 72, 0
1, 37357, Note_on_c, 2, 57, 43
1, 37357, Note_on_c, 2, 77, 51
1, 37412, Note_on_c, 2, 76, 45
1, 37424, Note_on_c, 2, 77, 0
1, 37458, Note_on_c, 2, 76, 0
1, 37458, Note_on_c, 2, 65, 35
1, 37458, Note_on_c, 2, 75, 46
1, 37545, Note_on_c, 2, 60, 34
1, 37554, Note_on_c, 2, 65, 0
1, 37636, Note_on_c, 2, 57, 0
1, 37637, Note_on_c, 2, 65, 26
1, 37637, Note_on_c, 2, 72, 39
1, 37641, Note_on_c, 2, 60, 0
1, 37645, Note_on_c, 2, 75, 0
1, 37728, Note_on_c, 2, 72, 0
1, 37729, Note_on_c, 2, 65, 0
1, 37732, Note_on_c, 2, 58, 29
1, 37732, Note_on_c, 2, 75, 34
1, 37766, Note_on_c, 2, 73, 38
1, 37787, Note_on_c, 2, 75, 0
1, 37808, Note_on_c, 2, 65, 36
1, 37808, Note_on_c, 2, 74, 48
1, 37816, Note_on_c, 2, 73, 0
1, 37895, Note_on_c, 2, 62, 31
1, 37908, Note_on_c, 2, 65, 0
1, 37975, Note_on_c, 2, 62, 0
1, 37975, Note_on_c, 2, 65, 26
1, 37975, Note_on_c, 2, 70, 37
1, 37979, Note_on_c, 2, 74, 0
1, 37986, Note_on_c, 2, 58, 0
1, 37995, Note_on_c, 2, 65, 0
1, 38062, Note_on_c, 2, 53, 45
1, 38062, Note_on_c, 2, 74, 47
1, 38070, Note_on_c, 2, 70, 0
1, 38149, Note_on_c, 2, 62, 40
1, 38237, Note_on_c, 2, 58, 39
1, 38245, Note_on_c, 2, 62, 0
1, 38329, Note_on_c, 2, 74, 0
1, 38332, Note_on_c, 2, 62, 36
1, 38332, Note_on_c, 2, 75, 41
1, 38341, Note_on_c, 2, 58, 0
1, 38365, Note_on_c, 2, 62, 0
1, 38366, Note_on_c, 2, 53, 0
1, 38391, Note_on_c, 2, 74, 42
1, 38396, Note_on_c, 2, 75, 0
1, 38462, Note_on_c, 2, 74, 0
1, 38470, Note_on_c, 2, 72, 39
1, 38470, Note_on_c, 2, 60, 34
1, 38470, Note_on_c, 2, 57, 40
1, 38470, Note_on_c, 2, 53, 26
1, 38546, Note_on_c, 2, 77, 46
1, 38566, Note_on_c, 2, 60, 0
1, 38566, Note_on_c, 2, 72, 0
1, 38594, Note_on_c, 2, 53, 0
1, 38600, Note_on_c, 2, 57, 0
1, 38612, Note_on_c, 2, 76, 45
1, 38628, Note_on_c, 2, 77, 0
1, 38678, Note_on_c, 2, 75, 35
1, 38687, Note_on_c, 2, 76, 0
1, 38745, Note_on_c, 2, 74, 45
1, 38753, Note_on_c, 2, 75, 0
1, 38829, Note_on_c, 2, 75, 40
1, 38837, Note_on_c, 2, 74, 0
1, 38912, Note_on_c, 2, 72, 36
1, 38924, Note_on_c, 2, 75, 0
1, 39033, Note_on_c, 2, 72, 0
1, 39033, Note_on_c, 2, 58, 31
1, 39033, Note_on_c, 2, 70, 40
1, 39133, Note_on_c, 2, 65, 33
1, 39158, Note_on_c, 2, 70, 0
1, 39158, Note_on_c, 2, 72, 46
1, 39183, Note_on_c, 2, 70, 38
1, 39196, Note_on_c, 2, 72, 0
1, 39204, Note_on_c, 2, 69, 39
1, 39208, Note_on_c, 2, 70, 0
1, 39229, Note_on_c, 2, 65, 0
1, 39230, Note_on_c, 2, 61, 26
1, 39230, Note_on_c, 2, 70, 41
1, 39250, Note_on_c, 2, 69, 0
1, 39312, Note_on_c, 2, 65, 39
1, 39312, Note_on_c, 2, 72, 52
1, 39320, Note_on_c, 2, 58, 0
1, 39320, Note_on_c, 2, 70, 0
1, 39325, Note_on_c, 2, 61, 0
1, 39333, Note_on_c, 2, 72, 0
1, 39346, Note_on_c, 2, 65, 0
1, 39400, Note_on_c, 2, 58, 42
1, 39400, Note_on_c, 2, 73, 48
1, 39496, Note_on_c, 2, 65, 43
1, 39516, Note_on_c, 2, 73, 0
1, 39516, Note_on_c, 2, 75, 44
1, 39538, Note_on_c, 2, 73, 54
1, 39550, Note_on_c, 2, 75, 0
1, 39554, Note_on_c, 2, 73, 0
1, 39558, Note_on_c, 2, 72, 59
1, 39579, Note_on_c, 2, 65, 0
1, 39579, Note_on_c, 2, 61, 37
1, 39579, Note_on_c, 2, 73, 63
1, 39595, Note_on_c, 2, 72, 0
1, 39658, Note_on_c, 2, 58, 0
1, 39658, Note_on_c, 2, 75, 49
1, 39662, Note_on_c, 2, 65, 52
1, 39671, Note_on_c, 2, 73, 0
1, 39733, Note_on_c, 2, 61, 0
1, 39737, Note_on_c, 2, 65, 0
1, 39737, Note_on_c, 2, 76, 57
1, 39737, Note_on_c, 2, 56, 47
1, 39745, Note_on_c, 2, 75, 0
1, 39829, Note_on_c, 2, 65, 57
1, 39904, Note_on_c, 2, 60, 39
1, 39916, Note_on_c, 2, 65, 0
1, 39983, Note_on_c, 2, 77, 55
1, 39984, Note_on_c, 2, 65, 39
1, 39987, Note_on_c, 2, 56, 0
1, 39992, Note_on_c, 2, 76, 0
1, 40000, Note_on_c, 2, 60, 0
1, 40058, Note_on_c, 2, 65, 0
1, 40058, Note_on_c, 2, 72, 52
1, 40058, Note_on_c, 2, 56, 55
1, 40066, Note_on_c, 2, 77, 0
1, 40146, Note_on_c, 2, 65, 57
1, 40216, Note_on_c, 2, 72, 0
1, 40225, Note_on_c, 2, 65, 0
1, 40229, Note_on_c, 2, 60, 40
1, 40308, Note_on_c, 2, 65, 40
1, 40321, Note_on_c, 2, 60, 0
1, 40321, Note_on_c, 2, 56, 0
1, 40329, Note_on_c, 2, 65, 0
1, 40388, Note_on_c, 2, 63, 63
1, 40388, Note_on_c, 2, 54, 56
1, 40479, Note_on_c, 2, 58, 51
1, 40484, Note_on_c, 2, 54, 0
1, 40563, Note_on_c, 2, 54, 48
1, 40575, Note_on_c, 2, 58, 0
1, 40583, Note_on_c, 2, 63, 0
1, 40596, Note_on_c, 2, 65, 45
1, 40616, Note_on_c, 2, 63, 45
1, 40634, Note_on_c, 2, 65, 0
1, 40654, Note_on_c, 2, 54, 0
1, 40654, Note_on_c, 2, 62, 59
1, 40658, Note_on_c, 2, 63, 0
1, 40688, Note_on_c, 2, 58, 53
1, 40688, Note_on_c, 2, 63, 53
1, 40699, Note_on_c, 2, 62, 0
1, 40717, Note_on_c, 2, 65, 31
1, 40729, Note_on_c, 2, 63, 0
1, 40740, Note_on_c, 2, 66, 50
1, 40746, Note_on_c, 2, 65, 0
1, 40760, Note_on_c, 2, 51, 46
1, 40768, Note_on_c, 2, 66, 0
1, 40775, Note_on_c, 2, 67, 55
1, 40792, Note_on_c, 2, 58, 0
1, 40800, Note_on_c, 2, 68, 65
1, 40804, Note_on_c, 2, 67, 0
1, 40825, Note_on_c, 2, 68, 0
1, 40833, Note_on_c, 2, 58, 50
1, 40833, Note_on_c, 2, 69, 54
1, 40847, Note_on_c, 2, 51, 0
1, 40858, Note_on_c, 2, 69, 0
1, 40862, Note_on_c, 2, 70, 62
1, 40879, Note_on_c, 2, 70, 0
1, 40884, Note_on_c, 2, 71, 53
1, 40908, Note_on_c, 2, 71, 0
1, 40909, Note_on_c, 2, 54, 35
1, 40909, Note_on_c, 2, 72, 48
1, 40921, Note_on_c, 2, 58, 0
1, 40925, Note_on_c, 2, 73, 62
1, 40929, Note_on_c, 2, 72, 0
1, 40937, Note_on_c, 2, 73, 0
1, 40942, Note_on_c, 2, 74, 46
1, 40963, Note_on_c, 2, 74, 0
1, 40963, Note_on_c, 2, 75, 62
1, 40980, Note_on_c, 2, 75, 0
1, 40988, Note_on_c, 2, 54, 0
1, 40988, Note_on_c, 2, 58, 42
1, 40988, Note_on_c, 2, 76, 53
1, 41008, Note_on_c, 2, 77, 46
1, 41012, Note_on_c, 2, 76, 0
1, 41021, Note_on_c, 2, 78, 52
1, 41029, Note_on_c, 2, 77, 0
1, 41041, Note_on_c, 2, 78, 0
1, 41046, Note_on_c, 2, 79, 52
1, 41065, Note_on_c, 2, 80, 55
1, 41067, Note_on_c, 2, 79, 0
1, 41089, Note_on_c, 2, 80, 0
1, 41092, Note_on_c, 2, 58, 0
1, 41096, Note_on_c, 2, 50, 49
1, 41096, Note_on_c, 2, 81, 68
1, 41175, Note_on_c, 2, 58, 42
1, 41196, Note_on_c, 2, 81, 0
1, 41196, Note_on_c, 2, 82, 53
1, 41221, Note_on_c, 2, 81, 37
1, 41225, Note_on_c, 2, 82, 0
1, 41229, Note_on_c, 2, 81, 0
1, 41229, Note_on_c, 2, 79, 68
1, 41250, Note_on_c, 2, 53, 49
1, 41254, Note_on_c, 2, 58, 0
1, 41254, Note_on_c, 2, 81, 56
1, 41262, Note_on_c, 2, 79, 0
1, 41334, Note_on_c, 2, 58, 45
1, 41334, Note_on_c, 2, 82, 59
1, 41337, Note_on_c, 2, 50, 0
1, 41342, Note_on_c, 2, 81, 0
1, 41409, Note_on_c, 2, 58, 0
1, 41417, Note_on_c, 2, 53, 0
1, 41417, Note_on_c, 2, 82, 0
1, 41417, Note_on_c, 2, 49, 46
1, 41417, Note_on_c, 2, 77, 56
1, 41504, Note_on_c, 2, 58, 40
1, 41592, Note_on_c, 2, 53, 43
1, 41596, Note_on_c, 2, 58, 0
1, 41679, Note_on_c, 2, 58, 29
1, 41680, Note_on_c, 2, 49, 0
1, 41704, Note_on_c, 2, 53, 0
1, 41759, Note_on_c, 2, 58, 0
1, 41780, Note_on_c, 2, 77, 0
1, 41784, Note_on_c, 2, 76, 49
1, 41784, Note_on_c, 2, 48, 32
1, 41930, Note_on_c, 2, 58, 34
1, 41930, Note_on_c, 2, 85, 52
1, 42021, Note_on_c, 2, 55, 44
1, 42034, Note_on_c, 2, 58, 0
1, 42104, Note_on_c, 2, 58, 35
1, 42109, Note_on_c, 2, 48, 0
1, 42130, Note_on_c, 2, 55, 0
1, 42167, Note_on_c, 2, 58, 0
1, 42188, Note_on_c, 2, 85, 0
1, 42188, Note_on_c, 2, 48, 35
1, 42284, Note_on_c, 2, 58, 38
1, 42284, Note_on_c, 2, 84, 45
1, 42321, Note_on_c, 2, 82, 41
1, 42334, Note_on_c, 2, 84, 0
1, 42363, Note_on_c, 2, 76, 0
1, 42363, Note_on_c, 2, 80, 46
1, 42363, Note_on_c, 2, 55, 32
1, 42383, Note_on_c, 2, 82, 0
1, 42383, Note_on_c, 2, 58, 0
1, 42401, Note_on_c, 2, 79, 39
1, 42413, Note_on_c, 2, 80, 0
1, 42446, Note_on_c, 2, 48, 0
1, 42446, Note_on_c, 2, 79, 0
1, 42447, Note_on_c, 2, 58, 31
1, 42447, Note_on_c, 2, 77, 46
1, 42488, Note_on_c, 2, 76, 31
1, 42500, Note_on_c, 2, 77, 0
1, 42530, Note_on_c, 2, 55, 0
1, 42530, Note_on_c, 2, 58, 0
1, 42538, Note_on_c, 2, 49, 32
1, 42538, Note_on_c, 2, 79, 41
1, 42542, Note_on_c, 2, 76, 0
1, 42634, Note_on_c, 2, 56, 38
1, 42721, Note_on_c, 2, 53, 35
1, 42721, Note_on_c, 2, 77, 43
1, 42726, Note_on_c, 2, 56, 0
1, 42726, Note_on_c, 2, 79, 0
1, 42812, Note_on_c, 2, 49, 0
1, 42813, Note_on_c, 2, 56, 37
1, 42820, Note_on_c, 2, 53, 0
1, 42909, Note_on_c, 2, 46, 38
1, 42913, Note_on_c, 2, 56, 0
1, 43009, Note_on_c, 2, 55, 35
1, 43013, Note_on_c, 2, 76, 45
1, 43063, Note_on_c, 2, 77, 0
1, 43109, Note_on_c, 2, 76, 0
1, 43109, Note_on_c, 2, 55, 0
1, 43109, Note_on_c, 2, 49, 35
1, 43109, Note_on_c, 2, 75, 40
1, 43176, Note_on_c, 2, 74, 45
1, 43184, Note_on_c, 2, 75, 0
1, 43209, Note_on_c, 2, 55, 35
1, 43214, Note_on_c, 2, 49, 0
1, 43217, Note_on_c, 2, 46, 0
1, 43238, Note_on_c, 2, 73, 47
1, 43246, Note_on_c, 2, 74, 0
1, 43309, Note_on_c, 2, 55, 0
1, 43314, Note_on_c, 2, 48, 32
1, 43314, Note_on_c, 2, 72, 42
1, 43318, Note_on_c, 2, 73, 0
1, 43409, Note_on_c, 2, 56, 39
1, 43434, Note_on_c, 2, 73, 50
1, 43438, Note_on_c, 2, 72, 0
1, 43455, Note_on_c, 2, 72, 40
1, 43471, Note_on_c, 2, 73, 0
1, 43484, Note_on_c, 2, 70, 44
1, 43492, Note_on_c, 2, 72, 0
1, 43522, Note_on_c, 2, 72, 54
1, 43522, Note_on_c, 2, 53, 35
1, 43525, Note_on_c, 2, 56, 0
1, 43526, Note_on_c, 2, 70, 0
1, 43609, Note_on_c, 2, 56, 39
1, 43613, Note_on_c, 2, 72, 0
1, 43613, Note_on_c, 2, 73, 45
1, 43626, Note_on_c, 2, 48, 0
1, 43634, Note_on_c, 2, 53, 0
1, 43663, Note_on_c, 2, 56, 0
1, 43701, Note_on_c, 2, 73, 0
1, 43701, Note_on_c, 2, 48, 31
1, 43701, Note_on_c, 2, 65, 43
1, 43809, Note_on_c, 2, 55, 32
1, 43809, Note_on_c, 2, 58, 32
1, 43926, Note_on_c, 2, 52, 40
1, 43926, Note_on_c, 2, 68, 42
1, 43934, Note_on_c, 2, 58, 0
1, 43942, Note_on_c, 2, 65, 0
1, 44047, Note_on_c, 2, 58, 25
1, 44050, Note_on_c, 2, 52, 0
1, 44063, Note_on_c, 2, 55, 0
1, 44064, Note_on_c, 2, 48, 0
1, 44110, Note_on_c, 2, 58, 0
1, 44118, Note_on_c, 2, 67, 32
1, 44134, Note_on_c, 2, 68, 0
1, 44243, Note_on_c, 2, 57, 31
1, 44243, Note_on_c, 2, 65, 40
1, 44243, Note_on_c, 2, 53, 27
1, 44247, Note_on_c, 2, 67, 0
1, 44339, Note_on_c, 2, 65, 0
1, 44359, Note_on_c, 2, 65, 39
1, 44418, Note_on_c, 2, 65, 0
1, 44451, Note_on_c, 2, 65, 36
1, 44484, Note_on_c, 2, 65, 0
1, 44505, Note_on_c, 2, 53, 0
1, 44509, Note_on_c, 2, 57, 0
1, 44543, Note_on_c, 2, 65, 32
1, 44567, Note_on_c, 2, 65, 0
1, 44651, Note_on_c, 2, 62, 37
1, 44651, Note_on_c, 2, 58, 33
1, 44739, Note_on_c, 2, 65, 38
1, 44742, Note_on_c, 2, 58, 0
1, 44746, Note_on_c, 2, 62, 0
1, 44826, Note_on_c, 2, 60, 46
1, 44826, Note_on_c, 2, 63, 45
1, 44834, Note_on_c, 2, 65, 0
1, 44914, Note_on_c, 2, 65, 46
1, 44916, Note_on_c, 2, 60, 0
1, 44922, Note_on_c, 2, 63, 0
1, 45001, Note_on_c, 2, 75, 43
1, 45001, Note_on_c, 2, 60, 38
1, 45001, Note_on_c, 2, 57, 40
1, 45005, Note_on_c, 2, 65, 0
1, 45093, Note_on_c, 2, 65, 33
1, 45122, Note_on_c, 2, 65, 0
1, 45180, Note_on_c, 2, 65, 33
1, 45205, Note_on_c, 2, 65, 0
1, 45264, Note_on_c, 2, 65, 30
1, 45268, Note_on_c, 2, 57, 0
1, 45268, Note_on_c, 2, 60, 0
1, 45347, Note_on_c, 2, 65, 0
1, 45347, Note_on_c, 2, 53, 36
1, 45347, Note_on_c, 2, 57, 37
1, 45347, Note_on_c, 2, 72, 45
1, 45351, Note_on_c, 2, 75, 0
1, 45434, Note_on_c, 2, 57, 0
1, 45434, Note_on_c, 2, 65, 29
1, 45439, Note_on_c, 2, 53, 0
1, 45514, Note_on_c, 2, 60, 18
1, 45514, Note_on_c, 2, 63, 38
1, 45514, Note_on_c, 2, 69, 39
1, 45518, Note_on_c, 2, 65, 0
1, 45518, Note_on_c, 2, 72, 0
1, 45585, Note_on_c, 2, 60, 0
1, 45593, Note_on_c, 2, 65, 45
1, 45601, Note_on_c, 2, 63, 0
1, 45655, Note_on_c, 2, 69, 0
1, 45681, Note_on_c, 2, 62, 33
1, 45681, Note_on_c, 2, 58, 28
1, 45681, Note_on_c, 2, 77, 49
1, 45684, Note_on_c, 2, 65, 0
1, 45764, Note_on_c, 2, 65, 31
1, 45802, Note_on_c, 2, 77, 0
1, 45802, Note_on_c, 2, 74, 38
1, 45806, Note_on_c, 2, 65, 0
1, 45843, Note_on_c, 2, 77, 45
1, 45843, Note_on_c, 2, 65, 32
1, 45847, Note_on_c, 2, 74, 0
1, 45868, Note_on_c, 2, 65, 0
1, 45922, Note_on_c, 2, 65, 31
1, 45926, Note_on_c, 2, 58, 0
1, 45935, Note_on_c, 2, 62, 0
1, 46005, Note_on_c, 2, 65, 0
1, 46006, Note_on_c, 2, 58, 38
1, 46006, Note_on_c, 2, 62, 33
1, 46089, Note_on_c, 2, 65, 39
1, 46093, Note_on_c, 2, 62, 0
1, 46093, Note_on_c, 2, 58, 0
1, 46180, Note_on_c, 2, 60, 39
1, 46180, Note_on_c, 2, 63, 35
1, 46185, Note_on_c, 2, 65, 0
1, 46280, Note_on_c, 2, 60, 0
1, 46280, Note_on_c, 2, 65, 40
1, 46289, Note_on_c, 2, 63, 0
1, 46326, Note_on_c, 2, 77, 0
1, 46398, Note_on_c, 2, 57, 41
1, 46398, Note_on_c, 2, 60, 31
1, 46398, Note_on_c, 2, 77, 47
1, 46410, Note_on_c, 2, 65, 0
1, 46439, Note_on_c, 2, 76, 56
1, 46451, Note_on_c, 2, 77, 0
1, 46481, Note_on_c, 2, 65, 30
1, 46481, Note_on_c, 2, 75, 65
1, 46485, Note_on_c, 2, 76, 0
1, 46502, Note_on_c, 2, 65, 0
1, 46568, Note_on_c, 2, 65, 42
1, 46597, Note_on_c, 2, 65, 0
1, 46639, Note_on_c, 2, 65, 34
1, 46640, Note_on_c, 2, 57, 0
1, 46644, Note_on_c, 2, 60, 0
1, 46722, Note_on_c, 2, 53, 36
1, 46722, Note_on_c, 2, 57, 45
1, 46722, Note_on_c, 2, 74, 48
1, 46735, Note_on_c, 2, 65, 0
1, 46748, Note_on_c, 2, 75, 0
1, 46806, Note_on_c, 2, 53, 0
1, 46806, Note_on_c, 2, 65, 38
1, 46806, Note_on_c, 2, 72, 45
1, 46810, Note_on_c, 2, 57, 0
1, 46810, Note_on_c, 2, 74, 0
1, 46847, Note_on_c, 2, 72, 0
1, 46876, Note_on_c, 2, 65, 0
1, 46885, Note_on_c, 2, 60, 38
1, 46885, Note_on_c, 2, 63, 34
1, 46885, Note_on_c, 2, 70, 45
1, 46931, Note_on_c, 2, 70, 0
1, 46956, Note_on_c, 2, 60, 0
1, 46968, Note_on_c, 2, 63, 0
1, 46972, Note_on_c, 2, 65, 47
1, 46972, Note_on_c, 2, 69, 53
1, 46993, Note_on_c, 2, 69, 0
1, 46997, Note_on_c, 2, 65, 0
1, 47064, Note_on_c, 2, 77, 49
1, 47064, Note_on_c, 2, 58, 40
1, 47064, Note_on_c, 2, 62, 37
1, 47064, Note_on_c, 2, 65, 36
1, 47214, Note_on_c, 2, 77, 0
1, 47218, Note_on_c, 2, 74, 40
1, 47281, Note_on_c, 2, 77, 42
1, 47285, Note_on_c, 2, 74, 0
1, 47448, Note_on_c, 2, 58, 0
1, 47456, Note_on_c, 2, 62, 0
1, 47464, Note_on_c, 2, 65, 0
1, 47464, Note_on_c, 2, 77, 0
1, 47790, Note_on_c, 2, 82, 49
1, 47790, Note_on_c, 2, 86, 62
1, 47790, Note_on_c, 2, 70, 62
1, 47902, Note_on_c, 2, 81, 50
1, 47902, Note_on_c, 2, 69, 49
1, 47902, Note_on_c, 2, 84, 53
1, 47906, Note_on_c, 2, 70, 0
1, 47910, Note_on_c, 2, 82, 0
1, 47918, Note_on_c, 2, 86, 0
1, 47989, Note_on_c, 2, 79, 45
1, 47989, Note_on_c, 2, 67, 46
1, 47989, Note_on_c, 2, 82, 47
1, 47998, Note_on_c, 2, 81, 0
1, 47998, Note_on_c, 2, 69, 0
1, 47998, Note_on_c, 2, 84, 0
1, 48006, Note_on_c, 2, 67, 0
1, 48013, Note_on_c, 2, 79, 0
1, 48014, Note_on_c, 2, 82, 0
1, 48073, Note_on_c, 2, 78, 52
1, 48073, Note_on_c, 2, 66, 54
1, 48073, Note_on_c, 2, 81, 42
1, 48144, Note_on_c, 2, 79, 46
1, 48144, Note_on_c, 2, 67, 47
1, 48144, Note_on_c, 2, 82, 43
1, 48148, Note_on_c, 2, 81, 0
1, 48148, Note_on_c, 2, 66, 0
1, 48157, Note_on_c, 2, 78, 0
1, 48173, Note_on_c, 2, 79, 0
1, 48173, Note_on_c, 2, 67, 0
1, 48177, Note_on_c, 2, 82, 0
1, 48218, Note_on_c, 2, 77, 56
1, 48218, Note_on_c, 2, 65, 44
1, 48218, Note_on_c, 2, 81, 55
1, 48294, Note_on_c, 2, 75, 42
1, 48294, Note_on_c, 2, 63, 45
1, 48294, Note_on_c, 2, 79, 52
1, 48296, Note_on_c, 2, 77, 0
1, 48298, Note_on_c, 2, 65, 0
1, 48318, Note_on_c, 2, 81, 0
1, 48368, Note_on_c, 2, 62, 56
1, 48368, Note_on_c, 2, 74, 50
1, 48368, Note_on_c, 2, 78, 48
1, 48373, Note_on_c, 2, 75, 0
1, 48377, Note_on_c, 2, 79, 0
1, 48381, Note_on_c, 2, 63, 0
1, 48447, Note_on_c, 2, 62, 0
1, 48452, Note_on_c, 2, 79, 40
1, 48452, Note_on_c, 2, 75, 42
1, 48452, Note_on_c, 2, 63, 40
1, 48469, Note_on_c, 2, 74, 0
1, 48469, Note_on_c, 2, 78, 0
1, 48531, Note_on_c, 2, 75, 0
1, 48531, Note_on_c, 2, 62, 45
1, 48531, Note_on_c, 2, 74, 46
1, 48531, Note_on_c, 2, 77, 49
1, 48535, Note_on_c, 2, 63, 0
1, 48544, Note_on_c, 2, 79, 0
1, 48589, Note_on_c, 2, 74, 0
1, 48623, Note_on_c, 2, 72, 40
1, 48623, Note_on_c, 2, 60, 34
1, 48623, Note_on_c, 2, 75, 41
1, 48635, Note_on_c, 2, 62, 0
1, 48635, Note_on_c, 2, 77, 0
1, 48648, Note_on_c, 2, 75, 0
1, 48652, Note_on_c, 2, 60, 0
1, 48660, Note_on_c, 2, 72, 0
1, 48731, Note_on_c, 2, 59, 30
1, 48731, Note_on_c, 2, 74, 55
1, 48731, Note_on_c, 2, 71, 42
1, 48748, Note_on_c, 2, 59, 0
1, 48756, Note_on_c, 2, 71, 0
1, 48756, Note_on_c, 2, 74, 0
1, 49040, Note_on_c, 2, 74, 52
1, 49040, Note_on_c, 2, 65, 37
1, 49040, Note_on_c, 2, 62, 36
1, 49040, Note_on_c, 2, 59, 31
1, 49040, Note_on_c, 2, 55, 39
1, 49227, Note_on_c, 2, 65, 0
1, 49239, Note_on_c, 2, 55, 0
1, 49240, Note_on_c, 2, 62, 0
1, 49244, Note_on_c, 2, 59, 0
1, 49248, Note_on_c, 2, 74, 0
1, 49549, Note_on_c, 2, 60, 23
1, 49549, Note_on_c, 2, 63, 17
1, 49549, Note_on_c, 2, 67, 24
1, 49549, Note_on_c, 2, 75, 32
1, 49695, Note_on_c, 2, 75, 0
1, 49761, Note_on_c, 2, 77, 38
1, 49781, Note_on_c, 2, 67, 0
1, 49781, Note_on_c, 2, 75, 31
1, 49794, Note_on_c, 2, 77, 0
1, 49802, Note_on_c, 2, 74, 43
1, 49806, Note_on_c, 2, 75, 0
1, 49831, Note_on_c, 2, 75, 39
1, 49853, Note_on_c, 2, 69, 41
1, 49853, Note_on_c, 2, 77, 57
1, 49861, Note_on_c, 2, 75, 0
1, 49861, Note_on_c, 2, 74, 0
1, 49998, Note_on_c, 2, 79, 47
1, 50006, Note_on_c, 2, 77, 0
1, 50016, Note_on_c, 2, 60, 0
1, 50028, Note_on_c, 2, 63, 0
1, 50037, Note_on_c, 2, 69, 0
1, 50086, Note_on_c, 2, 79, 0
1, 50178, Note_on_c, 2, 62, 36
1, 50178, Note_on_c, 2, 65, 42
1, 50178, Note_on_c, 2, 70, 31
1, 50178, Note_on_c, 2, 79, 45
1, 50273, Note_on_c, 2, 77, 36
1, 50282, Note_on_c, 2, 65, 0
1, 50286, Note_on_c, 2, 70, 0
1, 50290, Note_on_c, 2, 62, 0
1, 50332, Note_on_c, 2, 79, 0
1, 50332, Note_on_c, 2, 75, 36
1, 50344, Note_on_c, 2, 77, 0
1, 50378, Note_on_c, 2, 74, 42
1, 50386, Note_on_c, 2, 75, 0
1, 50423, Note_on_c, 2, 74, 0
1, 50423, Note_on_c, 2, 71, 46
1, 50423, Note_on_c, 2, 67, 39
1, 50423, Note_on_c, 2, 63, 31
1, 50423, Note_on_c, 2, 60, 44
1, 50473, Note_on_c, 2, 72, 45
1, 50497, Note_on_c, 2, 71, 0
1, 50498, Note_on_c, 2, 67, 0
1, 50506, Note_on_c, 2, 60, 0
1, 50511, Note_on_c, 2, 63, 0
1, 50536, Note_on_c, 2, 75, 46
1, 50552, Note_on_c, 2, 72, 0
1, 50586, Note_on_c, 2, 79, 36
1, 50594, Note_on_c, 2, 75, 0
1, 50606, Note_on_c, 2, 79, 0
1, 50707, Note_on_c, 2, 53, 37
1, 50707, Note_on_c, 2, 62, 32
1, 50707, Note_on_c, 2, 65, 35
1, 50707, Note_on_c, 2, 70, 43
1, 50832, Note_on_c, 2, 62, 0
1, 50849, Note_on_c, 2, 53, 0
1, 50861, Note_on_c, 2, 65, 0
1, 50861, Note_on_c, 2, 70, 0
1, 50974, Note_on_c, 2, 72, 47
1, 50974, Note_on_c, 2, 57, 47
1, 50975, Note_on_c, 2, 63, 37
1, 50975, Note_on_c, 2, 69, 45
1, 50975, Note_on_c, 2, 53, 36
1, 50975, Note_on_c, 2, 65, 37
1, 51090, Note_on_c, 2, 65, 0
1, 51106, Note_on_c, 2, 57, 0
1, 51111, Note_on_c, 2, 69, 0
1, 51115, Note_on_c, 2, 53, 0
1, 51123, Note_on_c, 2, 63, 0
1, 51157, Note_on_c, 2, 72, 0
1, 51274, Note_on_c, 2, 58, 36
1, 51274, Note_on_c, 2, 62, 25
1, 51274, Note_on_c, 2, 72, 46
1, 51382, Note_on_c, 2, 65, 28
1, 51420, Note_on_c, 2, 73, 44
1, 51428, Note_on_c, 2, 65, 0
1, 51444, Note_on_c, 2, 72, 0
1, 51461, Note_on_c, 2, 65, 33
1, 51462, Note_on_c, 2, 74, 56
1, 51474, Note_on_c, 2, 73, 0
1, 51528, Note_on_c, 2, 65, 0
1, 51544, Note_on_c, 2, 65, 34
1, 51566, Note_on_c, 2, 58, 0
1, 51574, Note_on_c, 2, 62, 0
1, 51603, Note_on_c, 2, 65, 0
1, 51645, Note_on_c, 2, 62, 41
1, 51645, Note_on_c, 2, 58, 39
1, 51728, Note_on_c, 2, 65, 40
1, 51736, Note_on_c, 2, 58, 0
1, 51736, Note_on_c, 2, 62, 0
1, 51820, Note_on_c, 2, 63, 41
1, 51820, Note_on_c, 2, 60, 38
1, 51828, Note_on_c, 2, 65, 0
1, 51915, Note_on_c, 2, 65, 42
1, 51920, Note_on_c, 2, 60, 0
1, 51924, Note_on_c, 2, 63, 0
1, 51961, Note_on_c, 2, 74, 0
1, 51969, Note_on_c, 2, 65, 0
1, 52045, Note_on_c, 2, 57, 37
1, 52045, Note_on_c, 2, 60, 45
1, 52045, Note_on_c, 2, 77, 47
1, 52091, Note_on_c, 2, 76, 56
1, 52111, Note_on_c, 2, 77, 0
1, 52132, Note_on_c, 2, 75, 68
1, 52132, Note_on_c, 2, 65, 28
1, 52140, Note_on_c, 2, 76, 0
1, 52157, Note_on_c, 2, 65, 0
1, 52220, Note_on_c, 2, 65, 37
1, 52248, Note_on_c, 2, 65, 0
1, 52291, Note_on_c, 2, 75, 0
1, 52299, Note_on_c, 2, 57, 0
1, 52299, Note_on_c, 2, 65, 32
1, 52307, Note_on_c, 2, 60, 0
1, 52378, Note_on_c, 2, 65, 0
1, 52378, Note_on_c, 2, 74, 28
1, 52378, Note_on_c, 2, 57, 46
1, 52378, Note_on_c, 2, 53, 28
1, 52457, Note_on_c, 2, 74, 0
1, 52466, Note_on_c, 2, 72, 43
1, 52466, Note_on_c, 2, 65, 35
1, 52469, Note_on_c, 2, 53, 0
1, 52470, Note_on_c, 2, 57, 0
1, 52545, Note_on_c, 2, 60, 35
1, 52545, Note_on_c, 2, 63, 32
1, 52545, Note_on_c, 2, 70, 40
1, 52554, Note_on_c, 2, 72, 0
1, 52557, Note_on_c, 2, 65, 0
1, 52624, Note_on_c, 2, 60, 0
1, 52624, Note_on_c, 2, 65, 40
1, 52624, Note_on_c, 2, 69, 45
1, 52628, Note_on_c, 2, 70, 0
1, 52640, Note_on_c, 2, 63, 0
1, 52657, Note_on_c, 2, 69, 0
1, 52658, Note_on_c, 2, 65, 0
1, 52712, Note_on_c, 2, 58, 29
1, 52712, Note_on_c, 2, 62, 36
1, 52712, Note_on_c, 2, 77, 47
1, 52791, Note_on_c, 2, 65, 29
1, 52832, Note_on_c, 2, 65, 0
1, 52832, Note_on_c, 2, 74, 37
1, 52836, Note_on_c, 2, 77, 0
1, 52874, Note_on_c, 2, 65, 35
1, 52874, Note_on_c, 2, 77, 43
1, 52878, Note_on_c, 2, 74, 0
1, 52904, Note_on_c, 2, 65, 0
1, 52962, Note_on_c, 2, 58, 0
1, 52966, Note_on_c, 2, 65, 37
1, 52970, Note_on_c, 2, 62, 0
1, 53053, Note_on_c, 2, 58, 45
1, 53053, Note_on_c, 2, 62, 45
1, 53061, Note_on_c, 2, 65, 0
1, 53135, Note_on_c, 2, 58, 0
1, 53136, Note_on_c, 2, 65, 46
1, 53140, Note_on_c, 2, 62, 0
1, 53216, Note_on_c, 2, 60, 55
1, 53216, Note_on_c, 2, 63, 48
1, 53228, Note_on_c, 2, 65, 0
1, 53304, Note_on_c, 2, 60, 0
1, 53308, Note_on_c, 2, 65, 46
1, 53312, Note_on_c, 2, 63, 0
1, 53332, Note_on_c, 2, 77, 0
1, 53412, Note_on_c, 2, 57, 45
1, 53412, Note_on_c, 2, 60, 45
1, 53412, Note_on_c, 2, 77, 51
1, 53420, Note_on_c, 2, 65, 0
1, 53453, Note_on_c, 2, 76, 52
1, 53466, Note_on_c, 2, 77, 0
1, 53495, Note_on_c, 2, 75, 68
1, 53495, Note_on_c, 2, 65, 40
1, 53503, Note_on_c, 2, 76, 0
1, 53528, Note_on_c, 2, 65, 0
1, 53578, Note_on_c, 2, 65, 41
1, 53607, Note_on_c, 2, 65, 0
1, 53650, Note_on_c, 2, 57, 0
1, 53657, Note_on_c, 2, 60, 0
1, 53657, Note_on_c, 2, 75, 0
1, 53657, Note_on_c, 2, 65, 32
1, 53732, Note_on_c, 2, 65, 0
1, 53737, Note_on_c, 2, 53, 39
1, 53737, Note_on_c, 2, 57, 45
1, 53737, Note_on_c, 2, 74, 55
1, 53753, Note_on_c, 2, 74, 0
1, 53774, Note_on_c, 2, 74, 49
1, 53812, Note_on_c, 2, 65, 40
1, 53812, Note_on_c, 2, 75, 49
1, 53816, Note_on_c, 2, 74, 0
1, 53816, Note_on_c, 2, 57, 0
1, 53825, Note_on_c, 2, 53, 0
1, 53850, Note_on_c, 2, 72, 46
1, 53854, Note_on_c, 2, 75, 0
1, 53891, Note_on_c, 2, 63, 33
1, 53891, Note_on_c, 2, 60, 39
1, 53891, Note_on_c, 2, 70, 52
1, 53899, Note_on_c, 2, 72, 0
1, 53900, Note_on_c, 2, 65, 0
1, 53907, Note_on_c, 2, 70, 0
1, 53933, Note_on_c, 2, 70, 45
1, 53978, Note_on_c, 2, 65, 39
1, 53978, Note_on_c, 2, 72, 35
1, 53982, Note_on_c, 2, 60, 0
1, 53990, Note_on_c, 2, 70, 0
1, 53991, Note_on_c, 2, 63, 0
1, 54015, Note_on_c, 2, 65, 0
1, 54020, Note_on_c, 2, 72, 0
1, 54024, Note_on_c, 2, 69, 46
1, 54041, Note_on_c, 2, 69, 0
1, 54078, Note_on_c, 2, 62, 47
1, 54078, Note_on_c, 2, 65, 41
1, 54078, Note_on_c, 2, 77, 54
1, 54078, Note_on_c, 2, 58, 42
1, 54094, Note_on_c, 2, 77, 0
1, 54124, Note_on_c, 2, 79, 38
1, 54137, Note_on_c, 2, 77, 53
1, 54149, Note_on_c, 2, 79, 0
1, 54158, Note_on_c, 2, 76, 42
1, 54162, Note_on_c, 2, 77, 0
1, 54178, Note_on_c, 2, 77, 53
1, 54182, Note_on_c, 2, 76, 0
1, 54228, Note_on_c, 2, 82, 48
1, 54237, Note_on_c, 2, 77, 0
1, 54295, Note_on_c, 2, 82, 0
1, 54296, Note_on_c, 2, 77, 49
1, 54441, Note_on_c, 2, 58, 0
1, 54449, Note_on_c, 2, 62, 0
1, 54450, Note_on_c, 2, 65, 0
1, 54549, Note_on_c, 2, 77, 0
1, 54846, Note_on_c, 2, 70, 49
1, 54846, Note_on_c, 2, 74, 49
1, 54908, Note_on_c, 2, 86, 54
1, 54908, Note_on_c, 2, 82, 46
1, 54937, Note_on_c, 2, 74, 0
1, 54938, Note_on_c, 2, 70, 0
1, 54958, Note_on_c, 2, 86, 0
1, 54966, Note_on_c, 2, 82, 0
1, 54966, Note_on_c, 2, 69, 51
1, 54966, Note_on_c, 2, 72, 49
1, 55012, Note_on_c, 2, 81, 57
1, 55012, Note_on_c, 2, 84, 54
1, 55024, Note_on_c, 2, 72, 0
1, 55024, Note_on_c, 2, 69, 0
1, 55050, Note_on_c, 2, 81, 0
1, 55054, Note_on_c, 2, 67, 52
1, 55054, Note_on_c, 2, 70, 52
1, 55062, Note_on_c, 2, 84, 0
1, 55087, Note_on_c, 2, 70, 0
1, 55087, Note_on_c, 2, 67, 0
1, 55091, Note_on_c, 2, 79, 47
1, 55091, Note_on_c, 2, 82, 53
1, 55123, Note_on_c, 2, 79, 0
1, 55124, Note_on_c, 2, 66, 70
1, 55124, Note_on_c, 2, 69, 53
1, 55128, Note_on_c, 2, 82, 0
1, 55166, Note_on_c, 2, 66, 0
1, 55166, Note_on_c, 2, 81, 56
1, 55166, Note_on_c, 2, 78, 46
1, 55174, Note_on_c, 2, 69, 0
1, 55195, Note_on_c, 2, 78, 0
1, 55204, Note_on_c, 2, 70, 55
1, 55204, Note_on_c, 2, 67, 54
1, 55220, Note_on_c, 2, 81, 0
1, 55237, Note_on_c, 2, 70, 0
1, 55237, Note_on_c, 2, 79, 53
1, 55237, Note_on_c, 2, 82, 55
1, 55241, Note_on_c, 2, 67, 0
1, 55270, Note_on_c, 2, 82, 0
1, 55279, Note_on_c, 2, 79, 0
1, 55279, Note_on_c, 2, 65, 59
1, 55279, Note_on_c, 2, 69, 52
1, 55320, Note_on_c, 2, 77, 57
1, 55320, Note_on_c, 2, 81, 54
1, 55332, Note_on_c, 2, 65, 0
1, 55337, Note_on_c, 2, 69, 0
1, 55366, Note_on_c, 2, 77, 0
1, 55366, Note_on_c, 2, 81, 0
1, 55366, Note_on_c, 2, 67, 52
1, 55366, Note_on_c, 2, 63, 60
1, 55399, Note_on_c, 2, 63, 0
1, 55404, Note_on_c, 2, 67, 0
1, 55404, Note_on_c, 2, 75, 53
1, 55404, Note_on_c, 2, 79, 39
1, 55438, Note_on_c, 2, 62, 55
1, 55438, Note_on_c, 2, 66, 54
1, 55441, Note_on_c, 2, 79, 0
1, 55442, Note_on_c, 2, 75, 0
1, 55471, Note_on_c, 2, 78, 54
1, 55471, Note_on_c, 2, 74, 46
1, 55475, Note_on_c, 2, 62, 0
1, 55479, Note_on_c, 2, 66, 0
1, 55508, Note_on_c, 2, 67, 46
1, 55508, Note_on_c, 2, 63, 60
1, 55512, Note_on_c, 2, 74, 0
1, 55516, Note_on_c, 2, 78, 0
1, 55541, Note_on_c, 2, 63, 0
1, 55546, Note_on_c, 2, 67, 0
1, 55546, Note_on_c, 2, 75, 48
1, 55546, Note_on_c, 2, 79, 45
1, 55579, Note_on_c, 2, 62, 46
1, 55579, Note_on_c, 2, 65, 49
1, 55580, Note_on_c, 2, 75, 0
1, 55587, Note_on_c, 2, 79, 0
1, 55620, Note_on_c, 2, 74, 45
1, 55620, Note_on_c, 2, 77, 55
1, 55629, Note_on_c, 2, 62, 0
1, 55629, Note_on_c, 2, 65, 0
1, 55654, Note_on_c, 2, 77, 0
1, 55657, Note_on_c, 2, 74, 0
1, 55667, Note_on_c, 2, 60, 54
1, 55667, Note_on_c, 2, 63, 48
1, 55712, Note_on_c, 2, 75, 46
1, 55712, Note_on_c, 2, 72, 45
1, 55720, Note_on_c, 2, 63, 0
1, 55730, Note_on_c, 2, 60, 0
1, 55762, Note_on_c, 2, 75, 0
1, 55766, Note_on_c, 2, 72, 0
1, 55774, Note_on_c, 2, 59, 45
1, 55774, Note_on_c, 2, 62, 42
1, 55850, Note_on_c, 2, 71, 46
1, 55850, Note_on_c, 2, 74, 50
1, 55862, Note_on_c, 2, 62, 0
1, 55869, Note_on_c, 2, 59, 0
1, 55871, Note_on_c, 2, 74, 0
1, 55874, Note_on_c, 2, 71, 0
1, 55979, Note_on_c, 2, 55, 46
1, 55979, Note_on_c, 2, 59, 42
1, 55979, Note_on_c, 2, 62, 40
1, 55979, Note_on_c, 2, 65, 48
1, 55979, Note_on_c, 2, 74, 59
1, 56161, Note_on_c, 2, 65, 0
1, 56174, Note_on_c, 2, 55, 0
1, 56178, Note_on_c, 2, 62, 0
1, 56179, Note_on_c, 2, 74, 0
1, 56182, Note_on_c, 2, 59, 0
1, 56662, Note_on_c, 2, 75, 24
1, 56662, Note_on_c, 2, 60, 21
1, 56662, Note_on_c, 2, 67, 24
1, 56662, Note_on_c, 2, 63, 26
1, 56808, Note_on_c, 2, 75, 0
1, 56896, Note_on_c, 2, 77, 42
1, 56916, Note_on_c, 2, 75, 39
1, 56925, Note_on_c, 2, 77, 0
1, 56925, Note_on_c, 2, 67, 0
1, 56938, Note_on_c, 2, 75, 0
1, 56938, Note_on_c, 2, 74, 46
1, 56962, Note_on_c, 2, 75, 37
1, 56984, Note_on_c, 2, 69, 45
1, 56984, Note_on_c, 2, 77, 54
1, 56992, Note_on_c, 2, 75, 0
1, 56992, Note_on_c, 2, 74, 0
1, 57111, Note_on_c, 2, 60, 0
1, 57125, Note_on_c, 2, 63, 0
1, 57138, Note_on_c, 2, 79, 46
1, 57141, Note_on_c, 2, 77, 0
1, 57147, Note_on_c, 2, 69, 0
1, 57304, Note_on_c, 2, 79, 0
1, 57304, Note_on_c, 2, 77, 46
1, 57304, Note_on_c, 2, 74, 32
1, 57304, Note_on_c, 2, 70, 33
1, 57304, Note_on_c, 2, 65, 49
1, 57304, Note_on_c, 2, 62, 35
1, 57404, Note_on_c, 2, 82, 46
1, 57407, Note_on_c, 2, 77, 0
1, 57412, Note_on_c, 2, 74, 0
1, 57412, Note_on_c, 2, 70, 0
1, 57416, Note_on_c, 2, 65, 0
1, 57421, Note_on_c, 2, 62, 0
1, 57467, Note_on_c, 2, 82, 0
1, 57467, Note_on_c, 2, 74, 45
1, 57491, Note_on_c, 2, 74, 0
1, 57538, Note_on_c, 2, 60, 55
1, 57538, Note_on_c, 2, 72, 48
1, 57538, Note_on_c, 2, 67, 45
1, 57538, Note_on_c, 2, 63, 48
1, 57613, Note_on_c, 2, 75, 42
1, 57621, Note_on_c, 2, 67, 0
1, 57629, Note_on_c, 2, 63, 0
1, 57629, Note_on_c, 2, 60, 0
1, 57675, Note_on_c, 2, 79, 46
1, 57679, Note_on_c, 2, 75, 0
1, 57688, Note_on_c, 2, 72, 0
1, 57696, Note_on_c, 2, 79, 0
1, 57758, Note_on_c, 2, 53, 40
1, 57759, Note_on_c, 2, 65, 49
1, 57759, Note_on_c, 2, 70, 53
1, 57763, Note_on_c, 2, 62, 40
1, 57946, Note_on_c, 2, 62, 0
1, 58117, Note_on_c, 2, 69, 40
1, 58117, Note_on_c, 2, 60, 31
1, 58125, Note_on_c, 2, 70, 0
1, 58288, Note_on_c, 2, 69, 0
1, 58300, Note_on_c, 2, 65, 0
1, 58330, Note_on_c, 2, 60, 0
1, 58342, Note_on_c, 2, 53, 0
1, 58585, Note_on_c, 2, 62, 56
1, 58612, Note_on_c, 2, 74, 66
1, 58705, Note_on_c, 2, 46, 52
1, 58796, Note_on_c, 2, 50, 55
1, 58819, Note_on_c, 2, 62, 0
1, 58850, Note_on_c, 2, 70, 45
1, 58854, Note_on_c, 2, 74, 0
1, 58888, Note_on_c, 2, 70, 0
1, 58892, Note_on_c, 2, 50, 0
1, 58896, Note_on_c, 2, 70, 51
1, 58896, Note_on_c, 2, 55, 48
1, 58917, Note_on_c, 2, 70, 0
1, 58938, Note_on_c, 2, 72, 52
1, 58958, Note_on_c, 2, 70, 56
1, 58967, Note_on_c, 2, 72, 0
1, 58973, Note_on_c, 2, 70, 0
1, 58975, Note_on_c, 2, 69, 48
1, 59000, Note_on_c, 2, 70, 46
1, 59008, Note_on_c, 2, 69, 0
1, 59030, Note_on_c, 2, 63, 71
1, 59037, Note_on_c, 2, 70, 0
1, 59046, Note_on_c, 2, 46, 0
1, 59050, Note_on_c, 2, 75, 65
1, 59126, Note_on_c, 2, 48, 54
1, 59130, Note_on_c, 2, 55, 0
1, 59213, Note_on_c, 2, 63, 0
1, 59213, Note_on_c, 2, 51, 36
1, 59242, Note_on_c, 2, 75, 0
1, 59259, Note_on_c, 2, 72, 48
1, 59276, Note_on_c, 2, 72, 0
1, 59309, Note_on_c, 2, 57, 43
1, 59309, Note_on_c, 2, 72, 45
1, 59326, Note_on_c, 2, 72, 0
1, 59326, Note_on_c, 2, 74, 53
1, 59346, Note_on_c, 2, 72, 41
1, 59358, Note_on_c, 2, 72, 0
1, 59358, Note_on_c, 2, 74, 0
1, 59359, Note_on_c, 2, 71, 47
1, 59384, Note_on_c, 2, 72, 40
1, 59396, Note_on_c, 2, 71, 0
1, 59409, Note_on_c, 2, 48, 0
1, 59409, Note_on_c, 2, 72, 0
1, 59409, Note_on_c, 2, 77, 65
1, 59421, Note_on_c, 2, 51, 0
1, 59492, Note_on_c, 2, 50, 47
1, 59510, Note_on_c, 2, 57, 0
1, 59530, Note_on_c, 2, 77, 0
1, 59534, Note_on_c, 2, 74, 54
1, 59571, Note_on_c, 2, 53, 39
1, 59576, Note_on_c, 2, 82, 56
1, 59659, Note_on_c, 2, 58, 36
1, 59667, Note_on_c, 2, 50, 0
1, 59742, Note_on_c, 2, 50, 40
1, 59747, Note_on_c, 2, 53, 0
1, 59750, Note_on_c, 2, 58, 0
1, 59834, Note_on_c, 2, 80, 38
1, 59842, Note_on_c, 2, 74, 0
1, 59909, Note_on_c, 2, 82, 0
1, 59930, Note_on_c, 2, 56, 35
1, 59930, Note_on_c, 2, 79, 48
1, 59938, Note_on_c, 2, 80, 0
1, 59992, Note_on_c, 2, 50, 0
1, 60034, Note_on_c, 2, 78, 46
1, 60038, Note_on_c, 2, 79, 0
1, 60042, Note_on_c, 2, 56, 0
1, 60059, Note_on_c, 2, 78, 0
1, 60152, Note_on_c, 2, 58, 35
1, 60152, Note_on_c, 2, 55, 38
1, 60152, Note_on_c, 2, 51, 33
1, 60268, Note_on_c, 2, 79, 60
1, 60305, Note_on_c, 2, 82, 56
1, 60309, Note_on_c, 2, 79, 0
1, 60347, Note_on_c, 2, 79, 53
1, 60351, Note_on_c, 2, 82, 0
1, 60376, Note_on_c, 2, 79, 0
1, 60384, Note_on_c, 2, 74, 45
1, 60418, Note_on_c, 2, 75, 46
1, 60451, Note_on_c, 2, 75, 0
1, 60455, Note_on_c, 2, 79, 39
1, 60464, Note_on_c, 2, 74, 0
1, 60485, Note_on_c, 2, 58, 0
1, 60488, Note_on_c, 2, 75, 35
1, 60500, Note_on_c, 2, 79, 0
1, 60526, Note_on_c, 2, 75, 0
1, 60526, Note_on_c, 2, 58, 39
1, 60526, Note_on_c, 2, 71, 56
1, 60568, Note_on_c, 2, 72, 47
1, 60601, Note_on_c, 2, 72, 0
1, 60601, Note_on_c, 2, 75, 39
1, 60605, Note_on_c, 2, 71, 0
1, 60643, Note_on_c, 2, 75, 0
1, 60643, Note_on_c, 2, 74, 46
1, 60680, Note_on_c, 2, 77, 48
1, 60693, Note_on_c, 2, 74, 0
1, 60702, Note_on_c, 2, 51, 0
1, 60707, Note_on_c, 2, 55, 0
1, 60717, Note_on_c, 2, 58, 0
1, 60730, Note_on_c, 2, 75, 35
1, 60746, Note_on_c, 2, 77, 0
1, 60776, Note_on_c, 2, 74, 40
1, 60792, Note_on_c, 2, 75, 0
1, 60822, Note_on_c, 2, 72, 41
1, 60826, Note_on_c, 2, 74, 0
1, 60830, Note_on_c, 2, 72, 0
1, 60847, Note_on_c, 2, 65, 50
1, 60872, Note_on_c, 2, 53, 50
1, 60872, Note_on_c, 2, 77, 56
1, 60922, Note_on_c, 2, 77, 0
1, 60943, Note_on_c, 2, 65, 0
1, 60955, Note_on_c, 2, 62, 41
1, 60955, Note_on_c, 2, 77, 60
1, 61034, Note_on_c, 2, 58, 43
1, 61043, Note_on_c, 2, 62, 0
1, 61047, Note_on_c, 2, 77, 0
1, 61109, Note_on_c, 2, 53, 0
1, 61114, Note_on_c, 2, 62, 46
1, 61114, Note_on_c, 2, 77, 52
1, 61130, Note_on_c, 2, 58, 0
1, 61198, Note_on_c, 2, 62, 0
1, 61201, Note_on_c, 2, 53, 48
1, 61247, Note_on_c, 2, 75, 45
1, 61263, Note_on_c, 2, 77, 0
1, 61280, Note_on_c, 2, 74, 49
1, 61280, Note_on_c, 2, 62, 55
1, 61284, Note_on_c, 2, 75, 0
1, 61322, Note_on_c, 2, 74, 0
1, 61322, Note_on_c, 2, 75, 40
1, 61355, Note_on_c, 2, 75, 0
1, 61360, Note_on_c, 2, 62, 0
1, 61360, Note_on_c, 2, 77, 48
1, 61360, Note_on_c, 2, 58, 33
1, 61405, Note_on_c, 2, 79, 46
1, 61413, Note_on_c, 2, 77, 0
1, 61447, Note_on_c, 2, 62, 41
1, 61447, Note_on_c, 2, 81, 43
1, 61455, Note_on_c, 2, 53, 0
1, 61459, Note_on_c, 2, 79, 0
1, 61497, Note_on_c, 2, 82, 40
1, 61505, Note_on_c, 2, 81, 0
1, 61509, Note_on_c, 2, 82, 0
1, 61518, Note_on_c, 2, 58, 0
1, 61539, Note_on_c, 2, 62, 0
1, 61556, Note_on_c, 2, 53, 45
1, 61556, Note_on_c, 2, 74, 46
1, 61638, Note_on_c, 2, 74, 0
1, 61639, Note_on_c, 2, 72, 42
1, 61664, Note_on_c, 2, 72, 0
1, 61664, Note_on_c, 2, 74, 45
1, 61680, Note_on_c, 2, 74, 0
1, 61681, Note_on_c, 2, 63, 35
1, 61681, Note_on_c, 2, 72, 45
1, 61693, Note_on_c, 2, 72, 0
1, 61697, Note_on_c, 2, 74, 53
1, 61713, Note_on_c, 2, 74, 0
1, 61714, Note_on_c, 2, 72, 42
1, 61722, Note_on_c, 2, 72, 0
1, 61730, Note_on_c, 2, 74, 37
1, 61738, Note_on_c, 2, 74, 0
1, 61738, Note_on_c, 2, 72, 46
1, 61752, Note_on_c, 2, 72, 0
1, 61755, Note_on_c, 2, 74, 45
1, 61768, Note_on_c, 2, 60, 46
1, 61768, Note_on_c, 2, 72, 44
1, 61772, Note_on_c, 2, 74, 0
1, 61773, Note_on_c, 2, 63, 0
1, 61780, Note_on_c, 2, 72, 0
1, 61780, Note_on_c, 2, 74, 36
1, 61793, Note_on_c, 2, 74, 0
1, 61793, Note_on_c, 2, 72, 47
1, 61805, Note_on_c, 2, 72, 0
1, 61814, Note_on_c, 2, 74, 47
1, 61822, Note_on_c, 2, 72, 47
1, 61826, Note_on_c, 2, 74, 0
1, 61830, Note_on_c, 2, 63, 37
1, 61834, Note_on_c, 2, 72, 0
1, 61834, Note_on_c, 2, 60, 0
1, 61839, Note_on_c, 2, 53, 0
1, 61843, Note_on_c, 2, 74, 45
1, 61851, Note_on_c, 2, 74, 0
1, 61851, Note_on_c, 2, 72, 45
1, 61864, Note_on_c, 2, 72, 0
1, 61868, Note_on_c, 2, 74, 48
1, 61876, Note_on_c, 2, 72, 47
1, 61880, Note_on_c, 2, 74, 0
1, 61893, Note_on_c, 2, 72, 0
1, 61893, Note_on_c, 2, 63, 0
1, 61897, Note_on_c, 2, 74, 46
1, 61901, Note_on_c, 2, 53, 45
1, 61905, Note_on_c, 2, 72, 54
1, 61909, Note_on_c, 2, 74, 0
1, 61922, Note_on_c, 2, 72, 0
1, 61922, Note_on_c, 2, 74, 48
1, 61934, Note_on_c, 2, 72, 55
1, 61938, Note_on_c, 2, 74, 0
1, 61952, Note_on_c, 2, 72, 0
1, 61952, Note_on_c, 2, 74, 40
1, 61963, Note_on_c, 2, 74, 0
1, 61963, Note_on_c, 2, 72, 50
1, 61976, Note_on_c, 2, 72, 0
1, 61980, Note_on_c, 2, 74, 50
1, 61993, Note_on_c, 2, 74, 0
1, 61993, Note_on_c, 2, 63, 33
1, 61993, Note_on_c, 2, 72, 54
1, 62005, Note_on_c, 2, 72, 0
1, 62018, Note_on_c, 2, 72, 42
1, 62030, Note_on_c, 2, 72, 0
1, 62030, Note_on_c, 2, 74, 53
1, 62047, Note_on_c, 2, 74, 0
1, 62060, Note_on_c, 2, 72, 30
1, 62068, Note_on_c, 2, 60, 40
1, 62076, Note_on_c, 2, 63, 0
1, 62164, Note_on_c, 2, 53, 0
1, 62168, Note_on_c, 2, 60, 0
1, 62168, Note_on_c, 2, 63, 38
1, 62168, Note_on_c, 2, 70, 36
1, 62172, Note_on_c, 2, 72, 0
1, 62214, Note_on_c, 2, 70, 0
1, 62214, Note_on_c, 2, 72, 46
1, 62268, Note_on_c, 2, 63, 0
1, 62268, Note_on_c, 2, 58, 40
1, 62268, Note_on_c, 2, 70, 51
1, 62276, Note_on_c, 2, 72, 0
1, 62376, Note_on_c, 2, 62, 31
1, 62464, Note_on_c, 2, 58, 0
1, 62464, Note_on_c, 2, 65, 35
1, 62472, Note_on_c, 2, 62, 0
1, 62480, Note_on_c, 2, 70, 0
1, 62493, Note_on_c, 2, 65, 0
1, 62518, Note_on_c, 2, 70, 28
1, 62531, Note_on_c, 2, 70, 0
1, 62555, Note_on_c, 2, 70, 44
1, 62564, Note_on_c, 2, 68, 38
1, 62572, Note_on_c, 2, 70, 0
1, 62584, Note_on_c, 2, 72, 38
1, 62593, Note_on_c, 2, 70, 45
1, 62601, Note_on_c, 2, 72, 0
1, 62614, Note_on_c, 2, 70, 0
1, 62618, Note_on_c, 2, 69, 52
1, 62639, Note_on_c, 2, 70, 44
1, 62664, Note_on_c, 2, 68, 0
1, 62668, Note_on_c, 2, 67, 40
1, 62668, Note_on_c, 2, 77, 57
1, 62676, Note_on_c, 2, 70, 0
1, 62676, Note_on_c, 2, 69, 0
1, 62764, Note_on_c, 2, 75, 42
1, 62772, Note_on_c, 2, 77, 0
1, 62797, Note_on_c, 2, 75, 0
1, 62806, Note_on_c, 2, 67, 0
1, 62856, Note_on_c, 2, 63, 38
1, 62856, Note_on_c, 2, 74, 41
1, 62951, Note_on_c, 2, 72, 46
1, 62960, Note_on_c, 2, 74, 0
1, 62972, Note_on_c, 2, 63, 0
1, 62976, Note_on_c, 2, 72, 0
1, 63060, Note_on_c, 2, 62, 45
1, 63060, Note_on_c, 2, 72, 47
1, 63152, Note_on_c, 2, 70, 54
1, 63156, Note_on_c, 2, 65, 37
1, 63160, Note_on_c, 2, 72, 0
1, 63168, Note_on_c, 2, 62, 0
1, 63176, Note_on_c, 2, 65, 0
1, 63235, Note_on_c, 2, 70, 0
1, 63239, Note_on_c, 2, 68, 53
1, 63256, Note_on_c, 2, 68, 0
1, 63294, Note_on_c, 2, 70, 51
1, 63310, Note_on_c, 2, 70, 0
1, 63343, Note_on_c, 2, 66, 44
1, 63343, Note_on_c, 2, 70, 45
1, 63356, Note_on_c, 2, 70, 0
1, 63364, Note_on_c, 2, 72, 43
1, 63377, Note_on_c, 2, 70, 52
1, 63389, Note_on_c, 2, 72, 0
1, 63397, Note_on_c, 2, 70, 0
1, 63402, Note_on_c, 2, 69, 48
1, 63418, Note_on_c, 2, 70, 43
1, 63447, Note_on_c, 2, 66, 0
1, 63448, Note_on_c, 2, 67, 40
1, 63448, Note_on_c, 2, 77, 62
1, 63451, Note_on_c, 2, 70, 0
1, 63451, Note_on_c, 2, 69, 0
1, 63539, Note_on_c, 2, 75, 50
1, 63552, Note_on_c, 2, 77, 0
1, 63580, Note_on_c, 2, 75, 0
1, 63635, Note_on_c, 2, 63, 40
1, 63636, Note_on_c, 2, 74, 44
1, 63640, Note_on_c, 2, 67, 0
1, 63726, Note_on_c, 2, 63, 0
1, 63735, Note_on_c, 2, 74, 0
1, 63735, Note_on_c, 2, 72, 45
1, 63835, Note_on_c, 2, 72, 0
1, 63835, Note_on_c, 2, 58, 38
1, 63835, Note_on_c, 2, 70, 40
1, 63931, Note_on_c, 2, 62, 42
1, 63931, Note_on_c, 2, 65, 37
1, 63944, Note_on_c, 2, 58, 0
1, 63952, Note_on_c, 2, 62, 0
1, 63960, Note_on_c, 2, 65, 0
1, 64022, Note_on_c, 2, 67, 45
1, 64022, Note_on_c, 2, 63, 55
1, 64022, Note_on_c, 2, 75, 52
1, 64026, Note_on_c, 2, 70, 0
1, 64077, Note_on_c, 2, 63, 0
1, 64084, Note_on_c, 2, 67, 0
1, 64118, Note_on_c, 2, 60, 49
1, 64118, Note_on_c, 2, 63, 42
1, 64139, Note_on_c, 2, 63, 0
1, 64142, Note_on_c, 2, 60, 0
1, 64168, Note_on_c, 2, 75, 0
1, 64168, Note_on_c, 2, 69, 47
1, 64223, Note_on_c, 2, 58, 40
1, 64223, Note_on_c, 2, 70, 45
1, 64243, Note_on_c, 2, 69, 0
1, 64336, Note_on_c, 2, 65, 37
1, 64336, Note_on_c, 2, 62, 41
1, 64353, Note_on_c, 2, 58, 0
1, 64356, Note_on_c, 2, 62, 0
1, 64360, Note_on_c, 2, 65, 0
1, 64414, Note_on_c, 2, 70, 0
1, 64464, Note_on_c, 2, 63, 40
1, 64464, Note_on_c, 2, 79, 53
1, 64464, Note_on_c, 2, 67, 40
1, 64539, Note_on_c, 2, 63, 0
1, 64548, Note_on_c, 2, 67, 0
1, 64569, Note_on_c, 2, 79, 0
1, 64627, Note_on_c, 2, 60, 39
1, 64627, Note_on_c, 2, 63, 32
1, 64681, Note_on_c, 2, 63, 0
1, 64686, Note_on_c, 2, 60, 0
1, 64748, Note_on_c, 2, 69, 49
1, 64815, Note_on_c, 2, 69, 0
1, 64914, Note_on_c, 2, 46, 36
1, 64927, Note_on_c, 2, 63, 37
1, 64931, Note_on_c, 2, 58, 33
1, 64935, Note_on_c, 2, 53, 32
1, 64940, Note_on_c, 2, 69, 45
1, 64956, Note_on_c, 2, 72, 56
1, 65281, Note_on_c, 2, 69, 0
1, 65294, Note_on_c, 2, 72, 0
1, 65323, Note_on_c, 2, 63, 0
1, 65336, Note_on_c, 2, 53, 0
1, 65435, Note_on_c, 2, 58, 0
1, 65552, Note_on_c, 2, 50, 20
1, 65552, Note_on_c, 2, 53, 20
1, 65552, Note_on_c, 2, 58, 20
1, 65552, Note_on_c, 2, 62, 20
1, 65552, Note_on_c, 2, 65, 20
1, 65552, Note_on_c, 2, 70, 20
1, 65890, Note_on_c, 2, 65, 0
1, 65890, Note_on_c, 2, 62, 0
1, 65894, Note_on_c, 2, 70, 0
1, 66557, Note_on_c, 2, 50, 0
1, 66574, Note_on_c, 2, 53, 0
1, 66577, Note_on_c, 2, 46, 0
1, 66593, Note_on_c, 2, 58, 0
1, 66603, End_track
0, 0, End_of_file