0, 0, Header, 0, 1, 192
1, 0, Start_track
1, 0, Tempo, 454545
1, 0, Note_on_c, 0, 72, 60
1, 0, Note_on_c, 1, 60, 45
1, 96, Note_on_c, 1, 60, 0
1, 96, Note_on_c, 1, 67, 45
1, 192, Note_on_c, 1, 67, 0
1, 192, Note_on_c, 1, 64, 45
1, 288, Note_on_c, 1, 64, 0
1, 288, Note_on_c, 1, 67, 45
1, 384, Note_on_c, 0, 72, 0
1, 384, Note_on_c, 0, 76, 60
1, 384, Note_on_c, 1, 67, 0
1, 384, Note_on_c, 1, 60, 45
1, 480, Note_on_c, 1, 60, 0
1, 480, Note_on_c, 1, 67, 45
1, 576, Note_on_c, 0, 76, 0
1, 576, Note_on_c, 0, 79, 60
1, 576, Note_on_c, 1, 67, 0
1, 576, Note_on_c, 1, 64, 45
1, 672, Note_on_c, 1, 64, 0
1, 672, Note_on_c, 1, 67, 45
1, 766, Note_on_c, 1, 67, 0
1, 768, Note_on_c, 0, 79, 0
1, 768, Note_on_c, 0, 71, 84
1, 768, Note_on_c, 1, 62, 45
1, 862, Note_on_c, 1, 62, 0
1, 864, Note_on_c, 1, 67, 45
1, 958, Note_on_c, 1, 67, 0
1, 960, Note_on_c, 1, 65, 45
1, 1054, Note_on_c, 1, 65, 0
1, 1056, Note_on_c, 0, 71, 0
1, 1056, Note_on_c, 0, 72, 60
1, 1056, Note_on_c, 1, 67, 45
1, 1104, Note_on_c, 0, 72, 0
1, 1104, Note_on_c, 0, 74, 60
1, 1150, Note_on_c, 1, 67, 0
1, 1152, Note_on_c, 0, 74, 0
1, 1152, Note_on_c, 0, 72, 60
1, 1152, Note_on_c, 1, 60, 45
1, 1246, Note_on_c, 1, 60, 0
1, 1248, Note_on_c, 1, 67, 45
1, 1312, Note_on_c, 0, 72, 0
1, 1342, Note_on_c, 1, 67, 0
1, 1344, Note_on_c, 1, 64, 45
1, 1438, Note_on_c, 1, 64, 0
1, 1440, Note_on_c, 1, 67, 45
1, 1534, Note_on_c, 1, 67, 0
1, 1536, Note_on_c, 0, 81, 84
1, 1536, Note_on_c, 1, 60, 45
1, 1630, Note_on_c, 1, 60, 0
1, 1632, Note_on_c, 1, 69, 45
1, 1726, Note_on_c, 1, 69, 0
1, 1728, Note_on_c, 1, 65, 45
1, 1822, Note_on_c, 1, 65, 0
1, 1824, Note_on_c, 1, 69, 45
1, 1918, Note_on_c, 1, 69, 0
1, 1920, Note_on_c, 0, 81, 0
1, 1920, Note_on_c, 0, 79, 60
1, 1920, Note_on_c, 1, 60, 45
1, 2014, Note_on_c, 1, 60, 0
1, 2016, Note_on_c, 1, 67, 45
1, 2110, Note_on_c, 1, 67, 0
1, 2112, Note_on_c, 0, 79, 0
1, 2112, Note_on_c, 0, 84, 60
1, 2112, Note_on_c, 1, 64, 45
1, 2206, Note_on_c, 1, 64, 0
1, 2208, Note_on_c, 1, 67, 45
1, 2302, Note_on_c, 1, 67, 0
1, 2304, Note_on_c, 0, 84, 0
1, 2304, Note_on_c, 0, 79, 84
1, 2304, Note_on_c, 1, 59, 45
1, 2398, Note_on_c, 1, 59, 0
1, 2400, Note_on_c, 1, 67, 45
1, 2494, Note_on_c, 1, 67, 0
1, 2496, Note_on_c, 0, 79, 0
1, 2496, Note_on_c, 0, 77, 60
1, 2496, Note_on_c, 1, 62, 45
1, 2528, Note_on_c, 0, 77, 0
1, 2528, Note_on_c, 0, 79, 60
1, 2560, Note_on_c, 0, 79, 0
1, 2560, Note_on_c, 0, 77, 60
1, 2590, Note_on_c, 1, 62, 0
1, 2592, Note_on_c, 0, 77, 0
1, 2592, Note_on_c, 0, 76, 60
1, 2592, Note_on_c, 1, 67, 45
1, 2640, Note_on_c, 0, 76, 0
1, 2640, Note_on_c, 0, 77, 60
1, 2686, Note_on_c, 1, 67, 0
1, 2688, Note_on_c, 0, 77, 0
1, 2688, Note_on_c, 0, 76, 60
1, 2688, Note_on_c, 1, 60, 45
1, 2782, Note_on_c, 1, 60, 0
1, 2784, Note_on_c, 1, 67, 45
1, 2848, Note_on_c, 0, 76, 0
1, 2878, Note_on_c, 1, 67, 0
1, 2880, Note_on_c, 1, 64, 45
1, 2974, Note_on_c, 1, 64, 0
1, 2976, Note_on_c, 1, 67, 45
1, 3070, Note_on_c, 1, 67, 0
1, 3072, Note_on_c, 0, 69, 45
1, 3072, Note_on_c, 1, 65, 45
1, 3168, Note_on_c, 0, 69, 0
1, 3168, Note_on_c, 0, 71, 45
1, 3216, Note_on_c, 0, 71, 0
1, 3216, Note_on_c, 0, 72, 45
1, 3232, Note_on_c, 1, 65, 0
1, 3264, Note_on_c, 0, 72, 0
1, 3264, Note_on_c, 0, 74, 45
1, 3312, Note_on_c, 0, 74, 0
1, 3312, Note_on_c, 0, 76, 45
1, 3360, Note_on_c, 0, 76, 0
1, 3360, Note_on_c, 0, 77, 45
1, 3408, Note_on_c, 0, 77, 0
1, 3408, Note_on_c, 0, 79, 45
1, 3456, Note_on_c, 0, 79, 0
1, 3456, Note_on_c, 0, 81, 45
1, 3504, Note_on_c, 0, 81, 0
1, 3504, Note_on_c, 0, 79, 45
1, 3552, Note_on_c, 0, 79, 0
1, 3552, Note_on_c, 0, 77, 45
1, 3600, Note_on_c, 0, 77, 0
1, 3600, Note_on_c, 0, 76, 45
1, 3648, Note_on_c, 0, 76, 0
1, 3648, Note_on_c, 0, 74, 45
1, 3648, Note_on_c, 1, 53, 45
1, 3648, Note_on_c, 1, 60, 45
1, 3696, Note_on_c, 0, 74, 0
1, 3696, Note_on_c, 0, 72, 45
1, 3696, Note_on_c, 1, 53, 0
1, 3696, Note_on_c, 1, 60, 0
1, 3744, Note_on_c, 0, 72, 0
1, 3744, Note_on_c, 0, 71, 45
1, 3792, Note_on_c, 0, 71, 0
1, 3792, Note_on_c, 0, 69, 45
1, 3840, Note_on_c, 0, 69, 0
1, 3840, Note_on_c, 0, 67, 45
1, 3840, Note_on_c, 1, 52, 45
1, 3840, Note_on_c, 1, 60, 45
1, 3888, Note_on_c, 1, 52, 0
1, 3888, Note_on_c, 1, 60, 0
1, 3936, Note_on_c, 0, 67, 0
1, 3936, Note_on_c, 0, 69, 45
1, 3984, Note_on_c, 0, 69, 0
1, 3984, Note_on_c, 0, 71, 45
1, 4032, Note_on_c, 0, 71, 0
1, 4032, Note_on_c, 0, 72, 45
1, 4080, Note_on_c, 0, 72, 0
1, 4080, Note_on_c, 0, 74, 45
1, 4128, Note_on_c, 0, 74, 0
1, 4128, Note_on_c, 0, 76, 45
1, 4176, Note_on_c, 0, 76, 0
1, 4176, Note_on_c, 0, 77, 45
1, 4224, Note_on_c, 0, 77, 0
1, 4224, Note_on_c, 0, 79, 45
1, 4272, Note_on_c, 0, 79, 0
1, 4272, Note_on_c, 0, 77, 45
1, 4320, Note_on_c, 0, 77, 0
1, 4320, Note_on_c, 0, 76, 45
1, 4368, Note_on_c, 0, 76, 0
1, 4368, Note_on_c, 0, 74, 45
1, 4416, Note_on_c, 0, 74, 0
1, 4416, Note_on_c, 0, 72, 45
1, 4416, Note_on_c, 1, 52, 45
1, 4416, Note_on_c, 1, 60, 45
1, 4464, Note_on_c, 0, 72, 0
1, 4464, Note_on_c, 0, 71, 45
1, 4464, Note_on_c, 1, 52, 0
1, 4464, Note_on_c, 1, 60, 0
1, 4512, Note_on_c, 0, 71, 0
1, 4512, Note_on_c, 0, 69, 45
1, 4560, Note_on_c, 0, 69, 0
1, 4560, Note_on_c, 0, 67, 45
1, 4608, Note_on_c, 0, 67, 0
1, 4608, Note_on_c, 0, 65, 45
1, 4608, Note_on_c, 1, 50, 45
1, 4608, Note_on_c, 1, 60, 45
1, 4656, Note_on_c, 1, 50, 0
1, 4656, Note_on_c, 1, 60, 0
1, 4704, Note_on_c, 0, 65, 0
1, 4704, Note_on_c, 0, 67, 45
1, 4752, Note_on_c, 0, 67, 0
1, 4752, Note_on_c, 0, 69, 45
1, 4800, Note_on_c, 0, 69, 0
1, 4800, Note_on_c, 0, 71, 45
1, 4848, Note_on_c, 0, 71, 0
1, 4848, Note_on_c, 0, 72, 45
1, 4896, Note_on_c, 0, 72, 0
1, 4896, Note_on_c, 0, 74, 45
1, 4944, Note_on_c, 0, 74, 0
1, 4944, Note_on_c, 0, 76, 45
1, 4992, Note_on_c, 0, 76, 0
1, 4992, Note_on_c, 0, 77, 45
1, 5040, Note_on_c, 0, 77, 0
1, 5040, Note_on_c, 0, 76, 45
1, 5088, Note_on_c, 0, 76, 0
1, 5088, Note_on_c, 0, 74, 45
1, 5136, Note_on_c, 0, 74, 0
1, 5136, Note_on_c, 0, 72, 45
1, 5184, Note_on_c, 0, 72, 0
1, 5184, Note_on_c, 0, 71, 45
1, 5184, Note_on_c, 1, 50, 45
1, 5184, Note_on_c, 1, 59, 45
1, 5232, Note_on_c, 0, 71, 0
1, 5232, Note_on_c, 0, 69, 45
1, 5232, Note_on_c, 1, 50, 0
1, 5232, Note_on_c, 1, 59, 0
1, 5280, Note_on_c, 0, 69, 0
1, 5280, Note_on_c, 0, 67, 45
1, 5328, Note_on_c, 0, 67, 0
1, 5328, Note_on_c, 0, 65, 45
1, 5376, Note_on_c, 0, 65, 0
1, 5376, Note_on_c, 0, 64, 45
1, 5376, Note_on_c, 1, 48, 45
1, 5376, Note_on_c, 1, 60, 45
1, 5424, Note_on_c, 1, 48, 0
1, 5424, Note_on_c, 1, 60, 0
1, 5472, Note_on_c, 0, 64, 0
1, 5472, Note_on_c, 0, 65, 45
1, 5520, Note_on_c, 0, 65, 0
1, 5520, Note_on_c, 0, 67, 45
1, 5568, Note_on_c, 0, 67, 0
1, 5568, Note_on_c, 0, 69, 45
1, 5616, Note_on_c, 0, 69, 0
1, 5616, Note_on_c, 0, 71, 45
1, 5664, Note_on_c, 0, 71, 0
1, 5664, Note_on_c, 0, 72, 45
1, 5712, Note_on_c, 0, 72, 0
1, 5712, Note_on_c, 0, 74, 45
1, 5760, Note_on_c, 0, 74, 0
1, 5760, Note_on_c, 0, 76, 45
1, 5808, Note_on_c, 0, 76, 0
1, 5808, Note_on_c, 0, 74, 45
1, 5856, Note_on_c, 0, 74, 0
1, 5856, Note_on_c, 0, 72, 45
1, 5904, Note_on_c, 0, 72, 0
1, 5904, Note_on_c, 0, 71, 45
1, 5952, Note_on_c, 0, 71, 0
1, 5952, Note_on_c, 0, 69, 45
1, 5952, Note_on_c, 1, 48, 45
1, 5952, Note_on_c, 1, 52, 45
1, 6000, Note_on_c, 0, 69, 0
1, 6000, Note_on_c, 0, 67, 45
1, 6000, Note_on_c, 1, 48, 0
1, 6000, Note_on_c, 1, 52, 0
1, 6048, Note_on_c, 0, 67, 0
1, 6048, Note_on_c, 0, 65, 45
1, 6096, Note_on_c, 0, 65, 0
1, 6096, Note_on_c, 0, 64, 45
1, 6144, Note_on_c, 0, 64, 0
1, 6144, Note_on_c, 0, 62, 45
1, 6144, Note_on_c, 1, 53, 45
1, 6144, Note_on_c, 1, 57, 45
1, 6240, Note_on_c, 0, 62, 0
1, 6240, Note_on_c, 0, 64, 45
1, 6288, Note_on_c, 0, 64, 0
1, 6288, Note_on_c, 0, 65, 45
1, 6336, Note_on_c, 0, 65, 0
1, 6336, Note_on_c, 0, 67, 45
1, 6384, Note_on_c, 0, 67, 0
1, 6384, Note_on_c, 0, 69, 45
1, 6432, Note_on_c, 0, 69, 0
1, 6432, Note_on_c, 0, 71, 45
1, 6480, Note_on_c, 0, 71, 0
1, 6480, Note_on_c, 0, 73, 45
1, 6528, Note_on_c, 0, 73, 0
1, 6528, Note_on_c, 0, 74, 45
1, 6576, Note_on_c, 0, 74, 0
1, 6576, Note_on_c, 0, 69, 45
1, 6624, Note_on_c, 0, 69, 0
1, 6624, Note_on_c, 0, 71, 45
1, 6672, Note_on_c, 0, 71, 0
1, 6672, Note_on_c, 0, 73, 45
1, 6720, Note_on_c, 0, 73, 0
1, 6720, Note_on_c, 0, 74, 45
1, 6768, Note_on_c, 0, 74, 0
1, 6768, Note_on_c, 0, 76, 47
1, 6816, Note_on_c, 0, 76, 0
1, 6816, Note_on_c, 0, 77, 49
1, 6864, Note_on_c, 0, 77, 0
1, 6864, Note_on_c, 0, 79, 51
1, 6864, Note_on_c, 1, 53, 0
1, 6864, Note_on_c, 1, 57, 0
1, 6912, Note_on_c, 0, 79, 0
1, 6912, Note_on_c, 0, 81, 53
1, 6912, Note_on_c, 1, 53, 45
1, 6960, Note_on_c, 0, 81, 0
1, 6960, Note_on_c, 0, 83, 55
1, 7008, Note_on_c, 0, 83, 0
1, 7008, Note_on_c, 0, 84, 57
1, 7056, Note_on_c, 0, 84, 0
1, 7056, Note_on_c, 0, 83, 59
1, 7104, Note_on_c, 0, 83, 0
1, 7104, Note_on_c, 0, 81, 61
1, 7152, Note_on_c, 0, 81, 0
1, 7152, Note_on_c, 0, 79, 63
1, 7200, Note_on_c, 0, 79, 0
1, 7200, Note_on_c, 0, 77, 65
1, 7200, Note_on_c, 1, 53, 0
1, 7200, Note_on_c, 1, 55, 62
1, 7248, Note_on_c, 0, 77, 0
1, 7248, Note_on_c, 0, 76, 67
1, 7296, Note_on_c, 0, 76, 0
1, 7296, Note_on_c, 0, 77, 69
1, 7296, Note_on_c, 1, 55, 0
1, 7296, Note_on_c, 1, 57, 68
1, 7344, Note_on_c, 0, 77, 0
1, 7344, Note_on_c, 0, 79, 71
1, 7392, Note_on_c, 0, 79, 0
1, 7392, Note_on_c, 0, 81, 74
1, 7440, Note_on_c, 0, 81, 0
1, 7440, Note_on_c, 0, 79, 77
1, 7488, Note_on_c, 0, 79, 0
1, 7488, Note_on_c, 0, 77, 80
1, 7536, Note_on_c, 0, 77, 0
1, 7536, Note_on_c, 0, 76, 83
1, 7584, Note_on_c, 0, 76, 0
1, 7584, Note_on_c, 0, 74, 86
1, 7584, Note_on_c, 1, 57, 0
1, 7584, Note_on_c, 1, 54, 86
1, 7632, Note_on_c, 0, 74, 0
1, 7632, Note_on_c, 0, 72, 89
1, 7678, Note_on_c, 1, 54, 0
1, 7680, Note_on_c, 0, 72, 0
1, 7680, Note_on_c, 0, 71, 127
1, 7680, Note_on_c, 1, 43, 92
1, 7728, Note_on_c, 1, 43, 0
1, 7728, Note_on_c, 1, 47, 92
1, 7776, Note_on_c, 0, 71, 0
1, 7776, Note_on_c, 0, 79, 92
1, 7776, Note_on_c, 1, 47, 0
1, 7776, Note_on_c, 1, 50, 92
1, 7824, Note_on_c, 1, 50, 0
1, 7824, Note_on_c, 1, 55, 92
1, 7870, Note_on_c, 0, 79, 0
1, 7872, Note_on_c, 0, 76, 92
1, 7872, Note_on_c, 1, 55, 0
1, 7872, Note_on_c, 1, 43, 92
1, 7904, Note_on_c, 0, 76, 0
1, 7920, Note_on_c, 1, 43, 0
1, 7920, Note_on_c, 1, 48, 92
1, 7968, Note_on_c, 0, 72, 92
1, 7968, Note_on_c, 1, 48, 0
1, 7968, Note_on_c, 1, 52, 92
1, 8000, Note_on_c, 0, 72, 0
1, 8016, Note_on_c, 1, 52, 0
1, 8016, Note_on_c, 1, 55, 92
1, 8064, Note_on_c, 0, 74, 127
1, 8064, Note_on_c, 1, 55, 0
1, 8064, Note_on_c, 1, 43, 92
1, 8112, Note_on_c, 1, 43, 0
1, 8112, Note_on_c, 1, 47, 92
1, 8160, Note_on_c, 0, 74, 0
1, 8160, Note_on_c, 0, 79, 92
1, 8160, Note_on_c, 1, 47, 0
1, 8160, Note_on_c, 1, 50, 92
1, 8192, Note_on_c, 0, 79, 0
1, 8208, Note_on_c, 1, 50, 0
1, 8208, Note_on_c, 1, 55, 92
1, 8256, Note_on_c, 0, 76, 92
1, 8256, Note_on_c, 1, 55, 0
1, 8256, Note_on_c, 1, 43, 92
1, 8288, Note_on_c, 0, 76, 0
1, 8304, Note_on_c, 1, 43, 0
1, 8304, Note_on_c, 1, 48, 92
1, 8352, Note_on_c, 0, 72, 92
1, 8352, Note_on_c, 1, 48, 0
1, 8352, Note_on_c, 1, 52, 92
1, 8384, Note_on_c, 0, 72, 0
1, 8400, Note_on_c, 1, 52, 0
1, 8400, Note_on_c, 1, 55, 92
1, 8448, Note_on_c, 0, 74, 92
1, 8448, Note_on_c, 1, 55, 0
1, 8448, Note_on_c, 1, 43, 92
1, 8496, Note_on_c, 0, 74, 0
1, 8496, Note_on_c, 1, 43, 0
1, 8640, Note_on_c, 0, 71, 92
1, 8640, Note_on_c, 0, 74, 92
1, 8640, Note_on_c, 0, 79, 92
1, 8640, Note_on_c, 1, 55, 92
1, 8688, Note_on_c, 0, 71, 0
1, 8688, Note_on_c, 0, 74, 0
1, 8688, Note_on_c, 0, 79, 0
1, 8688, Note_on_c, 1, 55, 0
1, 8832, Note_on_c, 0, 67, 92
1, 8832, Note_on_c, 1, 43, 92
1, 8880, Note_on_c, 0, 67, 0
1, 8992, Note_on_c, 1, 43, 0
1, 9216, Note_on_c, 1, 61, 63
1, 9264, Note_on_c, 1, 61, 0
1, 9264, Note_on_c, 1, 62, 45
1, 9312, Note_on_c, 1, 62, 0
1, 9312, Note_on_c, 1, 61, 45
1, 9360, Note_on_c, 1, 61, 0
1, 9360, Note_on_c, 1, 62, 45
1, 9408, Note_on_c, 1, 62, 0
1, 9408, Note_on_c, 1, 61, 45
1, 9456, Note_on_c, 1, 61, 0
1, 9456, Note_on_c, 1, 62, 45
1, 9504, Note_on_c, 1, 62, 0
1, 9504, Note_on_c, 1, 61, 45
1, 9552, Note_on_c, 1, 61, 0
1, 9552, Note_on_c, 1, 62, 45
1, 9600, Note_on_c, 1, 62, 0
1, 9600, Note_on_c, 1, 60, 63
1, 9648, Note_on_c, 1, 60, 0
1, 9648, Note_on_c, 1, 62, 45
1, 9696, Note_on_c, 1, 62, 0
1, 9696, Note_on_c, 1, 60, 45
1, 9744, Note_on_c, 1, 60, 0
1, 9744, Note_on_c, 1, 62, 45
1, 9792, Note_on_c, 1, 62, 0
1, 9792, Note_on_c, 1, 60, 45
1, 9840, Note_on_c, 1, 60, 0
1, 9840, Note_on_c, 1, 62, 45
1, 9888, Note_on_c, 1, 62, 0
1, 9888, Note_on_c, 1, 60, 45
1, 9936, Note_on_c, 1, 60, 0
1, 9936, Note_on_c, 1, 62, 45
1, 9982, Note_on_c, 1, 62, 0
1, 9984, Note_on_c, 0, 86, 84
1, 9984, Note_on_c, 1, 59, 63
1, 10030, Note_on_c, 1, 59, 0
1, 10032, Note_on_c, 1, 62, 45
1, 10078, Note_on_c, 1, 62, 0
1, 10080, Note_on_c, 0, 86, 0
1, 10080, Note_on_c, 0, 83, 60
1, 10080, Note_on_c, 1, 59, 45
1, 10126, Note_on_c, 1, 59, 0
1, 10128, Note_on_c, 1, 62, 45
1, 10174, Note_on_c, 0, 83, 0
1, 10174, Note_on_c, 1, 62, 0
1, 10176, Note_on_c, 0, 79, 60
1, 10176, Note_on_c, 1, 59, 45
1, 10222, Note_on_c, 1, 59, 0
1, 10224, Note_on_c, 1, 62, 45
1, 10270, Note_on_c, 1, 62, 0
1, 10272, Note_on_c, 1, 59, 45
1, 10318, Note_on_c, 1, 59, 0
1, 10320, Note_on_c, 1, 62, 45
1, 10366, Note_on_c, 1, 62, 0
1, 10368, Note_on_c, 1, 59, 45
1, 10414, Note_on_c, 1, 59, 0
1, 10416, Note_on_c, 1, 62, 45
1, 10462, Note_on_c, 1, 62, 0
1, 10464, Note_on_c, 0, 79, 0
1, 10464, Note_on_c, 0, 81, 60
1, 10464, Note_on_c, 1, 59, 45
1, 10510, Note_on_c, 1, 59, 0
1, 10512, Note_on_c, 0, 81, 0
1, 10512, Note_on_c, 0, 83, 60
1, 10512, Note_on_c, 1, 62, 45
1, 10558, Note_on_c, 1, 62, 0
1, 10560, Note_on_c, 0, 83, 0
1, 10560, Note_on_c, 0, 81, 60
1, 10560, Note_on_c, 1, 59, 45
1, 10606, Note_on_c, 1, 59, 0
1, 10608, Note_on_c, 1, 62, 45
1, 10654, Note_on_c, 0, 81, 0
1, 10654, Note_on_c, 1, 62, 0
1, 10656, Note_on_c, 0, 79, 60
1, 10656, Note_on_c, 1, 59, 45
1, 10688, Note_on_c, 0, 79, 0
1, 10702, Note_on_c, 1, 59, 0
1, 10704, Note_on_c, 1, 62, 45
1, 10750, Note_on_c, 1, 62, 0
1, 10752, Note_on_c, 0, 81, 84
1, 10752, Note_on_c, 1, 60, 60
1, 10776, Note_on_c, 0, 81, 0
1, 10776, Note_on_c, 0, 79, 60
1, 10798, Note_on_c, 1, 60, 0
1, 10800, Note_on_c, 0, 79, 0
1, 10800, Note_on_c, 0, 81, 60
1, 10800, Note_on_c, 1, 62, 60
1, 10824, Note_on_c, 0, 81, 0
1, 10824, Note_on_c, 0, 79, 60
1, 10846, Note_on_c, 1, 62, 0
1, 10848, Note_on_c, 0, 79, 0
1, 10848, Note_on_c, 0, 81, 60
1, 10848, Note_on_c, 1, 59, 60
1, 10872, Note_on_c, 0, 81, 0
1, 10872, Note_on_c, 0, 79, 60
1, 10894, Note_on_c, 1, 59, 0
1, 10896, Note_on_c, 0, 79, 0
1, 10896, Note_on_c, 0, 78, 60
1, 10896, Note_on_c, 1, 62, 60
1, 10928, Note_on_c, 0, 78, 0
1, 10942, Note_on_c, 1, 62, 0
1, 10944, Note_on_c, 0, 78, 60
1, 10944, Note_on_c, 1, 57, 60
1, 10990, Note_on_c, 1, 57, 0
1, 10992, Note_on_c, 1, 62, 60
1, 11038, Note_on_c, 1, 62, 0
1, 11040, Note_on_c, 1, 59, 60
1, 11086, Note_on_c, 1, 59, 0
1, 11088, Note_on_c, 1, 62, 60
1, 11104, Note_on_c, 0, 78, 0
1, 11134, Note_on_c, 1, 62, 0
1, 11136, Note_on_c, 1, 60, 60
1, 11182, Note_on_c, 1, 60, 0
1, 11184, Note_on_c, 1, 62, 60
1, 11230, Note_on_c, 1, 62, 0
1, 11232, Note_on_c, 1, 59, 60
1, 11278, Note_on_c, 1, 59, 0
1, 11280, Note_on_c, 1, 62, 60
1, 11326, Note_on_c, 1, 62, 0
1, 11328, Note_on_c, 1, 60, 60
1, 11374, Note_on_c, 1, 60, 0
1, 11376, Note_on_c, 1, 62, 60
1, 11422, Note_on_c, 1, 62, 0
1, 11424, Note_on_c, 1, 57, 60
1, 11470, Note_on_c, 1, 57, 0
1, 11472, Note_on_c, 1, 62, 60
1, 11518, Note_on_c, 1, 62, 0
1, 11520, Note_on_c, 0, 86, 84
1, 11520, Note_on_c, 1, 59, 45
1, 11566, Note_on_c, 1, 59, 0
1, 11568, Note_on_c, 1, 62, 45
1, 11614, Note_on_c, 1, 62, 0
1, 11616, Note_on_c, 0, 86, 0
1, 11616, Note_on_c, 0, 83, 60
1, 11616, Note_on_c, 1, 59, 45
1, 11648, Note_on_c, 0, 83, 0
1, 11662, Note_on_c, 1, 59, 0
1, 11664, Note_on_c, 1, 62, 45
1, 11710, Note_on_c, 1, 62, 0
1, 11712, Note_on_c, 0, 79, 60
1, 11712, Note_on_c, 1, 59, 45
1, 11758, Note_on_c, 1, 59, 0
1, 11760, Note_on_c, 1, 62, 45
1, 11806, Note_on_c, 1, 62, 0
1, 11808, Note_on_c, 1, 59, 45
1, 11854, Note_on_c, 1, 59, 0
1, 11856, Note_on_c, 1, 62, 45
1, 11902, Note_on_c, 1, 62, 0
1, 11904, Note_on_c, 1, 59, 45
1, 11950, Note_on_c, 1, 59, 0
1, 11952, Note_on_c, 1, 62, 45
1, 11998, Note_on_c, 1, 62, 0
1, 12000, Note_on_c, 0, 79, 0
1, 12000, Note_on_c, 0, 81, 60
1, 12000, Note_on_c, 1, 59, 45
1, 12046, Note_on_c, 1, 59, 0
1, 12048, Note_on_c, 0, 81, 0
1, 12048, Note_on_c, 0, 83, 60
1, 12048, Note_on_c, 1, 62, 45
1, 12094, Note_on_c, 1, 62, 0
1, 12096, Note_on_c, 0, 83, 0
1, 12096, Note_on_c, 0, 81, 60
1, 12096, Note_on_c, 1, 59, 45
1, 12142, Note_on_c, 1, 59, 0
1, 12144, Note_on_c, 1, 62, 45
1, 12190, Note_on_c, 1, 62, 0
1, 12192, Note_on_c, 0, 81, 0
1, 12192, Note_on_c, 0, 79, 60
1, 12192, Note_on_c, 1, 59, 45
1, 12224, Note_on_c, 0, 79, 0
1, 12238, Note_on_c, 1, 59, 0
1, 12240, Note_on_c, 1, 62, 45
1, 12286, Note_on_c, 1, 62, 0
1, 12288, Note_on_c, 0, 81, 84
1, 12288, Note_on_c, 1, 60, 60
1, 12312, Note_on_c, 0, 81, 0
1, 12312, Note_on_c, 0, 79, 60
1, 12334, Note_on_c, 1, 60, 0
1, 12336, Note_on_c, 0, 79, 0
1, 12336, Note_on_c, 0, 81, 60
1, 12336, Note_on_c, 1, 62, 60
1, 12360, Note_on_c, 0, 81, 0
1, 12360, Note_on_c, 0, 79, 60
1, 12382, Note_on_c, 1, 62, 0
1, 12384, Note_on_c, 0, 79, 0
1, 12384, Note_on_c, 0, 81, 60
1, 12384, Note_on_c, 1, 59, 60
1, 12408, Note_on_c, 0, 81, 0
1, 12408, Note_on_c, 0, 79, 60
1, 12430, Note_on_c, 1, 59, 0
1, 12432, Note_on_c, 0, 79, 0
1, 12432, Note_on_c, 0, 78, 60
1, 12432, Note_on_c, 1, 62, 60
1, 12464, Note_on_c, 0, 78, 0
1, 12478, Note_on_c, 1, 62, 0
1, 12480, Note_on_c, 0, 78, 60
1, 12480, Note_on_c, 1, 57, 60
1, 12526, Note_on_c, 1, 57, 0
1, 12528, Note_on_c, 1, 62, 60
1, 12574, Note_on_c, 1, 62, 0
1, 12576, Note_on_c, 1, 59, 60
1, 12622, Note_on_c, 1, 59, 0
1, 12624, Note_on_c, 1, 62, 60
1, 12640, Note_on_c, 0, 78, 0
1, 12670, Note_on_c, 1, 62, 0
1, 12672, Note_on_c, 1, 60, 60
1, 12718, Note_on_c, 1, 60, 0
1, 12720, Note_on_c, 1, 62, 60
1, 12766, Note_on_c, 1, 62, 0
1, 12768, Note_on_c, 1, 59, 60
1, 12814, Note_on_c, 1, 59, 0
1, 12816, Note_on_c, 1, 62, 60
1, 12862, Note_on_c, 1, 62, 0
1, 12864, Note_on_c, 1, 60, 60
1, 12910, Note_on_c, 1, 60, 0
1, 12912, Note_on_c, 1, 62, 60
1, 12958, Note_on_c, 1, 62, 0
1, 12960, Note_on_c, 1, 57, 60
1, 13006, Note_on_c, 1, 57, 0
1, 13008, Note_on_c, 1, 62, 60
1, 13054, Note_on_c, 1, 62, 0
1, 13056, Note_on_c, 0, 86, 84
1, 13104, Note_on_c, 1, 59, 60
1, 13152, Note_on_c, 1, 59, 0
1, 13152, Note_on_c, 1, 62, 60
1, 13200, Note_on_c, 1, 62, 0
1, 13200, Note_on_c, 1, 67, 60
1, 13216, Note_on_c, 0, 86, 0
1, 13248, Note_on_c, 1, 67, 0
1, 13248, Note_on_c, 1, 71, 60
1, 13296, Note_on_c, 0, 86, 60
1, 13344, Note_on_c, 0, 86, 0
1, 13344, Note_on_c, 0, 83, 60
1, 13392, Note_on_c, 0, 83, 0
1, 13392, Note_on_c, 0, 79, 60
1, 13440, Note_on_c, 0, 79, 0
1, 13440, Note_on_c, 0, 76, 60
1, 13440, Note_on_c, 1, 71, 0
1, 13488, Note_on_c, 1, 60, 60
1, 13536, Note_on_c, 1, 60, 0
1, 13536, Note_on_c, 1, 64, 60
1, 13584, Note_on_c, 1, 64, 0
1, 13584, Note_on_c, 1, 67, 60
1, 13600, Note_on_c, 0, 76, 0
1, 13632, Note_on_c, 1, 67, 0
1, 13632, Note_on_c, 1, 72, 60
1, 13680, Note_on_c, 0, 76, 60
1, 13728, Note_on_c, 0, 76, 0
1, 13728, Note_on_c, 0, 79, 60
1, 13776, Note_on_c, 0, 79, 0
1, 13776, Note_on_c, 0, 76, 60
1, 13824, Note_on_c, 0, 76, 0
1, 13824, Note_on_c, 0, 84, 60
1, 13824, Note_on_c, 1, 72, 0
1, 13872, Note_on_c, 1, 57, 60
1, 13920, Note_on_c, 1, 57, 0
1, 13920, Note_on_c, 1, 60, 60
1, 13968, Note_on_c, 1, 60, 0
1, 13968, Note_on_c, 1, 66, 60
1, 13984, Note_on_c, 0, 84, 0
1, 14016, Note_on_c, 1, 66, 0
1, 14016, Note_on_c, 1, 69, 60
1, 14064, Note_on_c, 0, 84, 60
1, 14110, Note_on_c, 0, 84, 0
1, 14112, Note_on_c, 0, 81, 60
1, 14158, Note_on_c, 0, 81, 0
1, 14160, Note_on_c, 0, 78, 60
1, 14176, Note_on_c, 1, 69, 0
1, 14206, Note_on_c, 0, 78, 0
1, 14208, Note_on_c, 0, 74, 60
1, 14256, Note_on_c, 1, 59, 60
1, 14304, Note_on_c, 1, 59, 0
1, 14304, Note_on_c, 1, 62, 60
1, 14352, Note_on_c, 1, 62, 0
1, 14352, Note_on_c, 1, 66, 60
1, 14368, Note_on_c, 0, 74, 0
1, 14400, Note_on_c, 1, 66, 0
1, 14400, Note_on_c, 1, 71, 60
1, 14448, Note_on_c, 0, 74, 60
1, 14496, Note_on_c, 0, 74, 0
1, 14496, Note_on_c, 0, 78, 60
1, 14544, Note_on_c, 0, 78, 0
1, 14544, Note_on_c, 0, 74, 60
1, 14560, Note_on_c, 1, 71, 0
1, 14592, Note_on_c, 0, 74, 0
1, 14592, Note_on_c, 0, 83, 84
1, 14640, Note_on_c, 1, 55, 60
1, 14688, Note_on_c, 1, 55, 0
1, 14688, Note_on_c, 1, 59, 60
1, 14736, Note_on_c, 1, 59, 0
1, 14736, Note_on_c, 1, 64, 60
1, 14752, Note_on_c, 0, 83, 0
1, 14784, Note_on_c, 1, 64, 0
1, 14784, Note_on_c, 1, 67, 60
1, 14832, Note_on_c, 0, 83, 60
1, 14880, Note_on_c, 0, 83, 0
1, 14880, Note_on_c, 0, 79, 60
1, 14928, Note_on_c, 0, 79, 0
1, 14928, Note_on_c, 0, 76, 60
1, 14944, Note_on_c, 1, 67, 0
1, 14976, Note_on_c, 0, 76, 0
1, 14976, Note_on_c, 0, 72, 60
1, 15024, Note_on_c, 1, 57, 60
1, 15072, Note_on_c, 1, 57, 0
1, 15072, Note_on_c, 1, 60, 60
1, 15120, Note_on_c, 1, 60, 0
1, 15120, Note_on_c, 1, 64, 60
1, 15136, Note_on_c, 0, 72, 0
1, 15168, Note_on_c, 1, 64, 0
1, 15168, Note_on_c, 1, 69, 60
1, 15216, Note_on_c, 0, 72, 60
1, 15262, Note_on_c, 0, 72, 0
1, 15264, Note_on_c, 0, 76, 60
1, 15310, Note_on_c, 0, 76, 0
1, 15312, Note_on_c, 0, 72, 60
1, 15328, Note_on_c, 1, 69, 0
1, 15358, Note_on_c, 0, 72, 0
1, 15360, Note_on_c, 0, 81, 84
1, 15408, Note_on_c, 1, 54, 60
1, 15456, Note_on_c, 1, 54, 0
1, 15456, Note_on_c, 1, 57, 60
1, 15504, Note_on_c, 1, 57, 0
1, 15504, Note_on_c, 1, 62, 60
1, 15520, Note_on_c, 0, 81, 0
1, 15552, Note_on_c, 1, 62, 0
1, 15552, Note_on_c, 1, 66, 60
1, 15600, Note_on_c, 0, 81, 60
1, 15648, Note_on_c, 0, 81, 0
1, 15648, Note_on_c, 0, 78, 60
1, 15696, Note_on_c, 0, 78, 0
1, 15696, Note_on_c, 0, 74, 60
1, 15712, Note_on_c, 1, 66, 0
1, 15744, Note_on_c, 0, 74, 0
1, 15744, Note_on_c, 0, 71, 60
1, 15792, Note_on_c, 1, 55, 60
1, 15840, Note_on_c, 1, 55, 0
1, 15840, Note_on_c, 1, 59, 60
1, 15888, Note_on_c, 1, 59, 0
1, 15888, Note_on_c, 1, 62, 60
1, 15904, Note_on_c, 0, 71, 0
1, 15936, Note_on_c, 1, 62, 0
1, 15936, Note_on_c, 1, 67, 60
1, 15984, Note_on_c, 0, 79, 60
1, 16032, Note_on_c, 0, 79, 0
1, 16032, Note_on_c, 0, 74, 60
1, 16080, Note_on_c, 0, 74, 0
1, 16080, Note_on_c, 0, 71, 60
1, 16096, Note_on_c, 1, 67, 0
1, 16128, Note_on_c, 0, 71, 0
1, 16128, Note_on_c, 0, 69, 45
1, 16128, Note_on_c, 1, 60, 60
1, 16128, Note_on_c, 1, 64, 60
1, 16160, Note_on_c, 1, 60, 0
1, 16160, Note_on_c, 1, 64, 0
1, 16224, Note_on_c, 1, 60, 60
1, 16224, Note_on_c, 1, 64, 60
1, 16256, Note_on_c, 1, 60, 0
1, 16256, Note_on_c, 1, 64, 0
1, 16320, Note_on_c, 1, 60, 60
1, 16320, Note_on_c, 1, 64, 60
1, 16352, Note_on_c, 1, 60, 0
1, 16352, Note_on_c, 1, 64, 0
1, 16416, Note_on_c, 1, 60, 60
1, 16416, Note_on_c, 1, 64, 60
1, 16448, Note_on_c, 1, 60, 0
1, 16448, Note_on_c, 1, 64, 0
1, 16464, Note_on_c, 0, 69, 0
1, 16512, Note_on_c, 0, 71, 45
1, 16512, Note_on_c, 1, 60, 60
1, 16512, Note_on_c, 1, 64, 60
1, 16536, Note_on_c, 0, 71, 0
1, 16536, Note_on_c, 0, 72, 63
1, 16544, Note_on_c, 1, 60, 0
1, 16544, Note_on_c, 1, 64, 0
1, 16608, Note_on_c, 1, 60, 62
1, 16608, Note_on_c, 1, 64, 62
1, 16640, Note_on_c, 1, 60, 0
1, 16640, Note_on_c, 1, 64, 0
1, 16702, Note_on_c, 0, 72, 0
1, 16704, Note_on_c, 0, 75, 51
1, 16704, Note_on_c, 1, 60, 64
1, 16704, Note_on_c, 1, 64, 64
1, 16728, Note_on_c, 0, 75, 0
1, 16728, Note_on_c, 0, 76, 72
1, 16736, Note_on_c, 1, 60, 0
1, 16736, Note_on_c, 1, 64, 0
1, 16800, Note_on_c, 1, 60, 66
1, 16800, Note_on_c, 1, 64, 66
1, 16832, Note_on_c, 1, 60, 0
1, 16832, Note_on_c, 1, 64, 0
1, 16894, Note_on_c, 0, 76, 0
1, 16896, Note_on_c, 0, 80, 59
1, 16896, Note_on_c, 1, 60, 68
1, 16896, Note_on_c, 1, 64, 68
1, 16920, Note_on_c, 0, 80, 0
1, 16920, Note_on_c, 0, 81, 84
1, 16928, Note_on_c, 1, 60, 0
1, 16928, Note_on_c, 1, 64, 0
1, 16992, Note_on_c, 1, 60, 71
1, 16992, Note_on_c, 1, 64, 71
1, 17024, Note_on_c, 1, 60, 0
1, 17024, Note_on_c, 1, 64, 0
1, 17088, Note_on_c, 1, 60, 74
1, 17088, Note_on_c, 1, 64, 74
1, 17120, Note_on_c, 1, 60, 0
1, 17120, Note_on_c, 1, 64, 0
1, 17182, Note_on_c, 0, 81, 0
1, 17184, Note_on_c, 0, 83, 71
1, 17184, Note_on_c, 1, 60, 77
1, 17184, Note_on_c, 1, 64, 77
1, 17208, Note_on_c, 0, 83, 0
1, 17208, Note_on_c, 0, 81, 72
1, 17216, Note_on_c, 1, 60, 0
1, 17216, Note_on_c, 1, 64, 0
1, 17232, Note_on_c, 0, 81, 0
1, 17232, Note_on_c, 0, 80, 73
1, 17256, Note_on_c, 0, 80, 0
1, 17256, Note_on_c, 0, 81, 74
1, 17280, Note_on_c, 0, 81, 0
1, 17280, Note_on_c, 0, 84, 75
1, 17280, Note_on_c, 1, 60, 80
1, 17280, Note_on_c, 1, 64, 80
1, 17312, Note_on_c, 1, 60, 0
1, 17312, Note_on_c, 1, 64, 0
1, 17376, Note_on_c, 0, 84, 0
1, 17376, Note_on_c, 0, 81, 79
1, 17376, Note_on_c, 1, 60, 83
1, 17376, Note_on_c, 1, 64, 83
1, 17408, Note_on_c, 0, 81, 0
1, 17408, Note_on_c, 1, 60, 0
1, 17408, Note_on_c, 1, 64, 0
1, 17472, Note_on_c, 0, 84, 83
1, 17472, Note_on_c, 1, 60, 86
1, 17472, Note_on_c, 1, 64, 86
1, 17504, Note_on_c, 1, 60, 0
1, 17504, Note_on_c, 1, 64, 0
1, 17568, Note_on_c, 0, 84, 0
1, 17568, Note_on_c, 0, 81, 87
1, 17568, Note_on_c, 1, 60, 89
1, 17568, Note_on_c, 1, 64, 89
1, 17600, Note_on_c, 0, 81, 0
1, 17600, Note_on_c, 1, 60, 0
1, 17600, Note_on_c, 1, 64, 0
1, 17664, Note_on_c, 0, 83, 92
1, 17664, Note_on_c, 1, 62, 92
1, 17712, Note_on_c, 1, 62, 0
1, 17712, Note_on_c, 1, 71, 92
1, 17760, Note_on_c, 0, 83, 0
1, 17760, Note_on_c, 0, 79, 92
1, 17760, Note_on_c, 1, 71, 0
1, 17760, Note_on_c, 1, 67, 92
1, 17792, Note_on_c, 0, 79, 0
1, 17808, Note_on_c, 1, 67, 0
1, 17808, Note_on_c, 1, 71, 92
1, 17856, Note_on_c, 0, 86, 92
1, 17856, Note_on_c, 1, 71, 0
1, 17856, Note_on_c, 1, 62, 92
1, 17904, Note_on_c, 1, 62, 0
1, 17904, Note_on_c, 1, 71, 92
1, 17952, Note_on_c, 1, 71, 0
1, 17952, Note_on_c, 1, 67, 92
1, 18000, Note_on_c, 1, 67, 0
1, 18000, Note_on_c, 1, 71, 92
1, 18048, Note_on_c, 1, 71, 0
1, 18048, Note_on_c, 1, 62, 92
1, 18096, Note_on_c, 1, 62, 0
1, 18096, Note_on_c, 1, 71, 92
1, 18144, Note_on_c, 1, 71, 0
1, 18144, Note_on_c, 1, 67, 92
1, 18192, Note_on_c, 1, 67, 0
1, 18192, Note_on_c, 1, 71, 92
1, 18240, Note_on_c, 0, 86, 0
1, 18240, Note_on_c, 0, 84, 92
1, 18240, Note_on_c, 1, 71, 0
1, 18240, Note_on_c, 1, 62, 92
1, 18288, Note_on_c, 0, 84, 0
1, 18288, Note_on_c, 0, 83, 92
1, 18288, Note_on_c, 1, 62, 0
1, 18288, Note_on_c, 1, 71, 92
1, 18336, Note_on_c, 0, 83, 0
1, 18336, Note_on_c, 0, 81, 92
1, 18336, Note_on_c, 1, 71, 0
1, 18336, Note_on_c, 1, 67, 92
1, 18384, Note_on_c, 0, 81, 0
1, 18384, Note_on_c, 0, 79, 92
1, 18384, Note_on_c, 1, 67, 0
1, 18384, Note_on_c, 1, 71, 92
1, 18430, Note_on_c, 0, 79, 0
1, 18432, Note_on_c, 0, 83, 92
1, 18432, Note_on_c, 1, 71, 0
1, 18432, Note_on_c, 1, 62, 92
1, 18456, Note_on_c, 0, 83, 0
1, 18456, Note_on_c, 0, 81, 92
1, 18480, Note_on_c, 0, 81, 0
1, 18480, Note_on_c, 0, 83, 92
1, 18480, Note_on_c, 1, 62, 0
1, 18480, Note_on_c, 1, 72, 92
1, 18504, Note_on_c, 0, 83, 0
1, 18504, Note_on_c, 0, 81, 92
1, 18528, Note_on_c, 0, 81, 0
1, 18528, Note_on_c, 0, 83, 92
1, 18528, Note_on_c, 1, 72, 0
1, 18528, Note_on_c, 1, 66, 92
1, 18552, Note_on_c, 0, 83, 0
1, 18552, Note_on_c, 0, 81, 92
1, 18576, Note_on_c, 0, 81, 0
1, 18576, Note_on_c, 0, 83, 92
1, 18576, Note_on_c, 1, 66, 0
1, 18576, Note_on_c, 1, 72, 92
1, 18600, Note_on_c, 0, 83, 0
1, 18600, Note_on_c, 0, 81, 92
1, 18624, Note_on_c, 0, 81, 0
1, 18624, Note_on_c, 0, 83, 92
1, 18624, Note_on_c, 1, 72, 0
1, 18624, Note_on_c, 1, 62, 92
1, 18648, Note_on_c, 0, 83, 0
1, 18648, Note_on_c, 0, 81, 92
1, 18672, Note_on_c, 0, 81, 0
1, 18672, Note_on_c, 0, 83, 92
1, 18672, Note_on_c, 1, 62, 0
1, 18672, Note_on_c, 1, 72, 92
1, 18696, Note_on_c, 0, 83, 0
1, 18696, Note_on_c, 0, 81, 92
1, 18720, Note_on_c, 0, 81, 0
1, 18720, Note_on_c, 0, 83, 92
1, 18720, Note_on_c, 1, 72, 0
1, 18720, Note_on_c, 1, 66, 92
1, 18744, Note_on_c, 0, 83, 0
1, 18744, Note_on_c, 0, 81, 92
1, 18768, Note_on_c, 0, 81, 0
1, 18768, Note_on_c, 0, 83, 92
1, 18768, Note_on_c, 1, 66, 0
1, 18768, Note_on_c, 1, 72, 92
1, 18792, Note_on_c, 0, 83, 0
1, 18792, Note_on_c, 0, 81, 92
1, 18816, Note_on_c, 0, 81, 0
1, 18816, Note_on_c, 0, 83, 92
1, 18816, Note_on_c, 1, 72, 0
1, 18816, Note_on_c, 1, 62, 92
1, 18840, Note_on_c, 0, 83, 0
1, 18840, Note_on_c, 0, 81, 92
1, 18864, Note_on_c, 0, 81, 0
1, 18864, Note_on_c, 0, 83, 92
1, 18864, Note_on_c, 1, 62, 0
1, 18864, Note_on_c, 1, 72, 92
1, 18888, Note_on_c, 0, 83, 0
1, 18888, Note_on_c, 0, 81, 92
1, 18912, Note_on_c, 0, 81, 0
1, 18912, Note_on_c, 0, 83, 92
1, 18912, Note_on_c, 1, 72, 0
1, 18912, Note_on_c, 1, 66, 92
1, 18936, Note_on_c, 0, 83, 0
1, 18936, Note_on_c, 0, 81, 92
1, 18960, Note_on_c, 0, 81, 0
1, 18960, Note_on_c, 0, 83, 92
1, 18960, Note_on_c, 1, 66, 0
1, 18960, Note_on_c, 1, 72, 92
1, 18984, Note_on_c, 0, 83, 0
1, 18984, Note_on_c, 0, 81, 92
1, 19008, Note_on_c, 0, 81, 0
1, 19008, Note_on_c, 0, 83, 92
1, 19008, Note_on_c, 1, 72, 0
1, 19008, Note_on_c, 1, 62, 92
1, 19032, Note_on_c, 0, 83, 0
1, 19032, Note_on_c, 0, 81, 92
1, 19056, Note_on_c, 0, 81, 0
1, 19056, Note_on_c, 0, 83, 92
1, 19056, Note_on_c, 1, 62, 0
1, 19056, Note_on_c, 1, 72, 92
1, 19080, Note_on_c, 0, 83, 0
1, 19080, Note_on_c, 0, 81, 92
1, 19104, Note_on_c, 0, 81, 0
1, 19104, Note_on_c, 0, 83, 92
1, 19104, Note_on_c, 1, 72, 0
1, 19104, Note_on_c, 1, 66, 92
1, 19128, Note_on_c, 0, 83, 0
1, 19128, Note_on_c, 0, 81, 92
1, 19152, Note_on_c, 0, 81, 0
1, 19152, Note_on_c, 0, 79, 92
1, 19152, Note_on_c, 1, 66, 0
1, 19152, Note_on_c, 1, 71, 92
1, 19176, Note_on_c, 0, 79, 0
1, 19176, Note_on_c, 0, 81, 92
1, 19198, Note_on_c, 1, 71, 0
1, 19200, Note_on_c, 0, 81, 0
1, 19200, Note_on_c, 0, 79, 92
1, 19200, Note_on_c, 1, 67, 92
1, 19200, Note_on_c, 1, 71, 92
1, 19248, Note_on_c, 0, 79, 0
1, 19248, Note_on_c, 1, 67, 0
1, 19248, Note_on_c, 1, 71, 0
1, 19392, Note_on_c, 0, 79, 92
1, 19440, Note_on_c, 0, 79, 0
1, 19440, Note_on_c, 0, 74, 92
1, 19488, Note_on_c, 0, 74, 0
1, 19488, Note_on_c, 0, 79, 92
1, 19536, Note_on_c, 0, 79, 0
1, 19536, Note_on_c, 0, 83, 92
1, 19584, Note_on_c, 0, 83, 0
1, 19584, Note_on_c, 0, 86, 127
1, 19632, Note_on_c, 0, 86, 0
1, 19632, Note_on_c, 0, 83, 92
1, 19680, Note_on_c, 0, 83, 0
1, 19680, Note_on_c, 0, 79, 92
1, 19728, Note_on_c, 0, 79, 0
1, 19728, Note_on_c, 0, 83, 92
1, 19776, Note_on_c, 0, 83, 0
1, 19776, Note_on_c, 0, 84, 127
1, 19776, Note_on_c, 1, 62, 92
1, 19776, Note_on_c, 1, 69, 92
1, 19776, Note_on_c, 1, 72, 92
1, 19824, Note_on_c, 0, 84, 0
1, 19824, Note_on_c, 0, 81, 92
1, 19872, Note_on_c, 0, 81, 0
1, 19872, Note_on_c, 0, 78, 92
1, 19920, Note_on_c, 0, 78, 0
1, 19920, Note_on_c, 0, 81, 92
1, 19968, Note_on_c, 0, 81, 0
1, 19968, Note_on_c, 0, 79, 92
1, 19968, Note_on_c, 1, 62, 0
1, 19968, Note_on_c, 1, 69, 0
1, 19968, Note_on_c, 1, 72, 0
1, 19968, Note_on_c, 1, 67, 92
1, 19968, Note_on_c, 1, 71, 92
1, 20016, Note_on_c, 0, 79, 0
1, 20016, Note_on_c, 1, 67, 0
1, 20016, Note_on_c, 1, 71, 0
1, 20160, Note_on_c, 0, 67, 92
1, 20208, Note_on_c, 0, 67, 0
1, 20208, Note_on_c, 0, 62, 92
1, 20256, Note_on_c, 0, 62, 0
1, 20256, Note_on_c, 0, 67, 92
1, 20304, Note_on_c, 0, 67, 0
1, 20304, Note_on_c, 0, 71, 92
1, 20352, Note_on_c, 0, 71, 0
1, 20352, Note_on_c, 0, 74, 127
1, 20400, Note_on_c, 0, 74, 0
1, 20400, Note_on_c, 0, 71, 92
1, 20448, Note_on_c, 0, 71, 0
1, 20448, Note_on_c, 0, 67, 92
1, 20496, Note_on_c, 0, 67, 0
1, 20496, Note_on_c, 0, 71, 92
1, 20544, Note_on_c, 0, 71, 0
1, 20544, Note_on_c, 0, 72, 92
1, 20544, Note_on_c, 1, 50, 92
1, 20544, Note_on_c, 1, 57, 92
1, 20544, Note_on_c, 1, 60, 92
1, 20592, Note_on_c, 0, 72, 0
1, 20592, Note_on_c, 0, 69, 92
1, 20640, Note_on_c, 0, 69, 0
1, 20640, Note_on_c, 0, 66, 92
1, 20688, Note_on_c, 0, 66, 0
1, 20688, Note_on_c, 0, 69, 92
1, 20736, Note_on_c, 0, 69, 0
1, 20736, Note_on_c, 0, 67, 92
1, 20736, Note_on_c, 1, 50, 0
1, 20736, Note_on_c, 1, 57, 0
1, 20736, Note_on_c, 1, 60, 0
1, 20736, Note_on_c, 1, 55, 92
1, 20736, Note_on_c, 1, 59, 92
1, 20784, Note_on_c, 0, 67, 0
1, 20784, Note_on_c, 1, 55, 0
1, 20784, Note_on_c, 1, 59, 0
1, 20928, Note_on_c, 0, 74, 92
1, 20928, Note_on_c, 0, 83, 92
1, 20928, Note_on_c, 1, 43, 92
1, 20928, Note_on_c, 1, 55, 92
1, 20976, Note_on_c, 0, 74, 0
1, 20976, Note_on_c, 0, 83, 0
1, 21088, Note_on_c, 1, 43, 0
1, 21088, Note_on_c, 1, 55, 0
1, 21120, Note_on_c, 0, 71, 92
1, 21120, Note_on_c, 0, 79, 92
1, 21120, Note_on_c, 1, 43, 92
1, 21120, Note_on_c, 1, 55, 92
1, 21168, Note_on_c, 0, 71, 0
1, 21168, Note_on_c, 0, 79, 0
1, 21280, Note_on_c, 1, 43, 0
1, 21280, Note_on_c, 1, 55, 0
1, 21504, Note_on_c, 0, 72, 60
1, 21504, Note_on_c, 1, 60, 45
1, 21600, Note_on_c, 1, 60, 0
1, 21600, Note_on_c, 1, 67, 45
1, 21696, Note_on_c, 1, 67, 0
1, 21696, Note_on_c, 1, 64, 45
1, 21792, Note_on_c, 1, 64, 0
1, 21792, Note_on_c, 1, 67, 45
1, 21888, Note_on_c, 0, 72, 0
1, 21888, Note_on_c, 0, 76, 60
1, 21888, Note_on_c, 1, 67, 0
1, 21888, Note_on_c, 1, 60, 45
1, 21984, Note_on_c, 1, 60, 0
1, 21984, Note_on_c, 1, 67, 45
1, 22080, Note_on_c, 0, 76, 0
1, 22080, Note_on_c, 0, 79, 60
1, 22080, Note_on_c, 1, 67, 0
1, 22080, Note_on_c, 1, 64, 45
1, 22176, Note_on_c, 1, 64, 0
1, 22176, Note_on_c, 1, 67, 45
1, 22270, Note_on_c, 1, 67, 0
1, 22272, Note_on_c, 0, 79, 0
1, 22272, Note_on_c, 0, 71, 84
1, 22272, Note_on_c, 1, 62, 45
1, 22366, Note_on_c, 1, 62, 0
1, 22368, Note_on_c, 1, 67, 45
1, 22462, Note_on_c, 1, 67, 0
1, 22464, Note_on_c, 1, 65, 45
1, 22558, Note_on_c, 1, 65, 0
1, 22560, Note_on_c, 0, 71, 0
1, 22560, Note_on_c, 0, 72, 60
1, 22560, Note_on_c, 1, 67, 45
1, 22608, Note_on_c, 0, 72, 0
1, 22608, Note_on_c, 0, 74, 60
1, 22654, Note_on_c, 1, 67, 0
1, 22656, Note_on_c, 0, 74, 0
1, 22656, Note_on_c, 0, 72, 60
1, 22656, Note_on_c, 1, 60, 45
1, 22750, Note_on_c, 1, 60, 0
1, 22752, Note_on_c, 1, 67, 45
1, 22816, Note_on_c, 0, 72, 0
1, 22846, Note_on_c, 1, 67, 0
1, 22848, Note_on_c, 1, 64, 45
1, 22942, Note_on_c, 1, 64, 0
1, 22944, Note_on_c, 1, 67, 45
1, 23038, Note_on_c, 1, 67, 0
1, 23040, Note_on_c, 0, 81, 84
1, 23040, Note_on_c, 1, 60, 45
1, 23134, Note_on_c, 1, 60, 0
1, 23136, Note_on_c, 1, 69, 45
1, 23230, Note_on_c, 1, 69, 0
1, 23232, Note_on_c, 1, 65, 45
1, 23326, Note_on_c, 1, 65, 0
1, 23328, Note_on_c, 1, 69, 45
1, 23422, Note_on_c, 1, 69, 0
1, 23424, Note_on_c, 0, 81, 0
1, 23424, Note_on_c, 0, 79, 60
1, 23424, Note_on_c, 1, 60, 45
1, 23518, Note_on_c, 1, 60, 0
1, 23520, Note_on_c, 1, 67, 45
1, 23614, Note_on_c, 1, 67, 0
1, 23616, Note_on_c, 0, 79, 0
1, 23616, Note_on_c, 0, 84, 60
1, 23616, Note_on_c, 1, 64, 45
1, 23710, Note_on_c, 1, 64, 0
1, 23712, Note_on_c, 1, 67, 45
1, 23806, Note_on_c, 1, 67, 0
1, 23808, Note_on_c, 0, 84, 0
1, 23808, Note_on_c, 0, 79, 84
1, 23808, Note_on_c, 1, 59, 45
1, 23902, Note_on_c, 1, 59, 0
1, 23904, Note_on_c, 1, 67, 45
1, 23998, Note_on_c, 1, 67, 0
1, 24000, Note_on_c, 0, 79, 0
1, 24000, Note_on_c, 0, 77, 60
1, 24000, Note_on_c, 1, 62, 45
1, 24032, Note_on_c, 0, 77, 0
1, 24032, Note_on_c, 0, 79, 60
1, 24064, Note_on_c, 0, 79, 0
1, 24064, Note_on_c, 0, 77, 60
1, 24094, Note_on_c, 1, 62, 0
1, 24096, Note_on_c, 0, 77, 0
1, 24096, Note_on_c, 0, 76, 60
1, 24096, Note_on_c, 1, 67, 45
1, 24144, Note_on_c, 0, 76, 0
1, 24144, Note_on_c, 0, 77, 60
1, 24190, Note_on_c, 1, 67, 0
1, 24192, Note_on_c, 0, 77, 0
1, 24192, Note_on_c, 0, 76, 60
1, 24192, Note_on_c, 1, 60, 45
1, 24286, Note_on_c, 1, 60, 0
1, 24288, Note_on_c, 1, 67, 45
1, 24352, Note_on_c, 0, 76, 0
1, 24382, Note_on_c, 1, 67, 0
1, 24384, Note_on_c, 1, 64, 45
1, 24478, Note_on_c, 1, 64, 0
1, 24480, Note_on_c, 1, 67, 45
1, 24574, Note_on_c, 1, 67, 0
1, 24576, Note_on_c, 0, 69, 45
1, 24576, Note_on_c, 1, 65, 45
1, 24672, Note_on_c, 0, 69, 0
1, 24672, Note_on_c, 0, 71, 45
1, 24720, Note_on_c, 0, 71, 0
1, 24720, Note_on_c, 0, 72, 45
1, 24736, Note_on_c, 1, 65, 0
1, 24768, Note_on_c, 0, 72, 0
1, 24768, Note_on_c, 0, 74, 45
1, 24816, Note_on_c, 0, 74, 0
1, 24816, Note_on_c, 0, 76, 45
1, 24864, Note_on_c, 0, 76, 0
1, 24864, Note_on_c, 0, 77, 45
1, 24912, Note_on_c, 0, 77, 0
1, 24912, Note_on_c, 0, 79, 45
1, 24960, Note_on_c, 0, 79, 0
1, 24960, Note_on_c, 0, 81, 45
1, 25008, Note_on_c, 0, 81, 0
1, 25008, Note_on_c, 0, 79, 45
1, 25056, Note_on_c, 0, 79, 0
1, 25056, Note_on_c, 0, 77, 45
1, 25104, Note_on_c, 0, 77, 0
1, 25104, Note_on_c, 0, 76, 45
1, 25152, Note_on_c, 0, 76, 0
1, 25152, Note_on_c, 0, 74, 45
1, 25152, Note_on_c, 1, 53, 45
1, 25152, Note_on_c, 1, 60, 45
1, 25200, Note_on_c, 0, 74, 0
1, 25200, Note_on_c, 0, 72, 45
1, 25200, Note_on_c, 1, 53, 0
1, 25200, Note_on_c, 1, 60, 0
1, 25248, Note_on_c, 0, 72, 0
1, 25248, Note_on_c, 0, 71, 45
1, 25296, Note_on_c, 0, 71, 0
1, 25296, Note_on_c, 0, 69, 45
1, 25344, Note_on_c, 0, 69, 0
1, 25344, Note_on_c, 0, 67, 45
1, 25344, Note_on_c, 1, 52, 45
1, 25344, Note_on_c, 1, 60, 45
1, 25392, Note_on_c, 1, 52, 0
1, 25392, Note_on_c, 1, 60, 0
1, 25440, Note_on_c, 0, 67, 0
1, 25440, Note_on_c, 0, 69, 45
1, 25488, Note_on_c, 0, 69, 0
1, 25488, Note_on_c, 0, 71, 45
1, 25536, Note_on_c, 0, 71, 0
1, 25536, Note_on_c, 0, 72, 45
1, 25584, Note_on_c, 0, 72, 0
1, 25584, Note_on_c, 0, 74, 45
1, 25632, Note_on_c, 0, 74, 0
1, 25632, Note_on_c, 0, 76, 45
1, 25680, Note_on_c, 0, 76, 0
1, 25680, Note_on_c, 0, 77, 45
1, 25728, Note_on_c, 0, 77, 0
1, 25728, Note_on_c, 0, 79, 45
1, 25776, Note_on_c, 0, 79, 0
1, 25776, Note_on_c, 0, 77, 45
1, 25824, Note_on_c, 0, 77, 0
1, 25824, Note_on_c, 0, 76, 45
1, 25872, Note_on_c, 0, 76, 0
1, 25872, Note_on_c, 0, 74, 45
1, 25920, Note_on_c, 0, 74, 0
1, 25920, Note_on_c, 0, 72, 45
1, 25920, Note_on_c, 1, 52, 45
1, 25920, Note_on_c, 1, 60, 45
1, 25968, Note_on_c, 0, 72, 0
1, 25968, Note_on_c, 0, 71, 45
1, 25968, Note_on_c, 1, 52, 0
1, 25968, Note_on_c, 1, 60, 0
1, 26016, Note_on_c, 0, 71, 0
1, 26016, Note_on_c, 0, 69, 45
1, 26064, Note_on_c, 0, 69, 0
1, 26064, Note_on_c, 0, 67, 45
1, 26112, Note_on_c, 0, 67, 0
1, 26112, Note_on_c, 0, 65, 45
1, 26112, Note_on_c, 1, 50, 45
1, 26112, Note_on_c, 1, 60, 45
1, 26160, Note_on_c, 1, 50, 0
1, 26160, Note_on_c, 1, 60, 0
1, 26208, Note_on_c, 0, 65, 0
1, 26208, Note_on_c, 0, 67, 45
1, 26256, Note_on_c, 0, 67, 0
1, 26256, Note_on_c, 0, 69, 45
1, 26304, Note_on_c, 0, 69, 0
1, 26304, Note_on_c, 0, 71, 45
1, 26352, Note_on_c, 0, 71, 0
1, 26352, Note_on_c, 0, 72, 45
1, 26400, Note_on_c, 0, 72, 0
1, 26400, Note_on_c, 0, 74, 45
1, 26448, Note_on_c, 0, 74, 0
1, 26448, Note_on_c, 0, 76, 45
1, 26496, Note_on_c, 0, 76, 0
1, 26496, Note_on_c, 0, 77, 45
1, 26544, Note_on_c, 0, 77, 0
1, 26544, Note_on_c, 0, 76, 45
1, 26592, Note_on_c, 0, 76, 0
1, 26592, Note_on_c, 0, 74, 45
1, 26640, Note_on_c, 0, 74, 0
1, 26640, Note_on_c, 0, 72, 45
1, 26688, Note_on_c, 0, 72, 0
1, 26688, Note_on_c, 0, 71, 45
1, 26688, Note_on_c, 1, 50, 45
1, 26688, Note_on_c, 1, 59, 45
1, 26736, Note_on_c, 0, 71, 0
1, 26736, Note_on_c, 0, 69, 45
1, 26736, Note_on_c, 1, 50, 0
1, 26736, Note_on_c, 1, 59, 0
1, 26784, Note_on_c, 0, 69, 0
1, 26784, Note_on_c, 0, 67, 45
1, 26832, Note_on_c, 0, 67, 0
1, 26832, Note_on_c, 0, 65, 45
1, 26880, Note_on_c, 0, 65, 0
1, 26880, Note_on_c, 0, 64, 45
1, 26880, Note_on_c, 1, 48, 45
1, 26880, Note_on_c, 1, 60, 45
1, 26928, Note_on_c, 1, 48, 0
1, 26928, Note_on_c, 1, 60, 0
1, 26976, Note_on_c, 0, 64, 0
1, 26976, Note_on_c, 0, 65, 45
1, 27024, Note_on_c, 0, 65, 0
1, 27024, Note_on_c, 0, 67, 45
1, 27072, Note_on_c, 0, 67, 0
1, 27072, Note_on_c, 0, 69, 45
1, 27120, Note_on_c, 0, 69, 0
1, 27120, Note_on_c, 0, 71, 45
1, 27168, Note_on_c, 0, 71, 0
1, 27168, Note_on_c, 0, 72, 45
1, 27216, Note_on_c, 0, 72, 0
1, 27216, Note_on_c, 0, 74, 45
1, 27264, Note_on_c, 0, 74, 0
1, 27264, Note_on_c, 0, 76, 45
1, 27312, Note_on_c, 0, 76, 0
1, 27312, Note_on_c, 0, 74, 45
1, 27360, Note_on_c, 0, 74, 0
1, 27360, Note_on_c, 0, 72, 45
1, 27408, Note_on_c, 0, 72, 0
1, 27408, Note_on_c, 0, 71, 45
1, 27456, Note_on_c, 0, 71, 0
1, 27456, Note_on_c, 0, 69, 45
1, 27456, Note_on_c, 1, 48, 45
1, 27456, Note_on_c, 1, 52, 45
1, 27504, Note_on_c, 0, 69, 0
1, 27504, Note_on_c, 0, 67, 45
1, 27504, Note_on_c, 1, 48, 0
1, 27504, Note_on_c, 1, 52, 0
1, 27552, Note_on_c, 0, 67, 0
1, 27552, Note_on_c, 0, 65, 45
1, 27600, Note_on_c, 0, 65, 0
1, 27600, Note_on_c, 0, 64, 45
1, 27648, Note_on_c, 0, 64, 0
1, 27648, Note_on_c, 0, 62, 45
1, 27648, Note_on_c, 1, 53, 45
1, 27648, Note_on_c, 1, 57, 45
1, 27744, Note_on_c, 0, 62, 0
1, 27744, Note_on_c, 0, 64, 45
1, 27792, Note_on_c, 0, 64, 0
1, 27792, Note_on_c, 0, 65, 45
1, 27840, Note_on_c, 0, 65, 0
1, 27840, Note_on_c, 0, 67, 45
1, 27888, Note_on_c, 0, 67, 0
1, 27888, Note_on_c, 0, 69, 45
1, 27936, Note_on_c, 0, 69, 0
1, 27936, Note_on_c, 0, 71, 45
1, 27984, Note_on_c, 0, 71, 0
1, 27984, Note_on_c, 0, 73, 45
1, 28032, Note_on_c, 0, 73, 0
1, 28032, Note_on_c, 0, 74, 45
1, 28080, Note_on_c, 0, 74, 0
1, 28080, Note_on_c, 0, 69, 45
1, 28128, Note_on_c, 0, 69, 0
1, 28128, Note_on_c, 0, 71, 45
1, 28176, Note_on_c, 0, 71, 0
1, 28176, Note_on_c, 0, 73, 45
1, 28224, Note_on_c, 0, 73, 0
1, 28224, Note_on_c, 0, 74, 45
1, 28272, Note_on_c, 0, 74, 0
1, 28272, Note_on_c, 0, 76, 47
1, 28320, Note_on_c, 0, 76, 0
1, 28320, Note_on_c, 0, 77, 49
1, 28368, Note_on_c, 0, 77, 0
1, 28368, Note_on_c, 0, 79, 51
1, 28368, Note_on_c, 1, 53, 0
1, 28368, Note_on_c, 1, 57, 0
1, 28416, Note_on_c, 0, 79, 0
1, 28416, Note_on_c, 0, 81, 53
1, 28416, Note_on_c, 1, 53, 45
1, 28464, Note_on_c, 0, 81, 0
1, 28464, Note_on_c, 0, 83, 55
1, 28512, Note_on_c, 0, 83, 0
1, 28512, Note_on_c, 0, 84, 57
1, 28560, Note_on_c, 0, 84, 0
1, 28560, Note_on_c, 0, 83, 59
1, 28608, Note_on_c, 0, 83, 0
1, 28608, Note_on_c, 0, 81, 61
1, 28656, Note_on_c, 0, 81, 0
1, 28656, Note_on_c, 0, 79, 63
1, 28704, Note_on_c, 0, 79, 0
1, 28704, Note_on_c, 0, 77, 65
1, 28704, Note_on_c, 1, 53, 0
1, 28704, Note_on_c, 1, 55, 62
1, 28752, Note_on_c, 0, 77, 0
1, 28752, Note_on_c, 0, 76, 67
1, 28800, Note_on_c, 0, 76, 0
1, 28800, Note_on_c, 0, 77, 69
1, 28800, Note_on_c, 1, 55, 0
1, 28800, Note_on_c, 1, 57, 68
1, 28848, Note_on_c, 0, 77, 0
1, 28848, Note_on_c, 0, 79, 71
1, 28896, Note_on_c, 0, 79, 0
1, 28896, Note_on_c, 0, 81, 74
1, 28944, Note_on_c, 0, 81, 0
1, 28944, Note_on_c, 0, 79, 77
1, 28992, Note_on_c, 0, 79, 0
1, 28992, Note_on_c, 0, 77, 80
1, 29040, Note_on_c, 0, 77, 0
1, 29040, Note_on_c, 0, 76, 83
1, 29088, Note_on_c, 0, 76, 0
1, 29088, Note_on_c, 0, 74, 86
1, 29088, Note_on_c, 1, 57, 0
1, 29088, Note_on_c, 1, 54, 86
1, 29136, Note_on_c, 0, 74, 0
1, 29136, Note_on_c, 0, 72, 89
1, 29182, Note_on_c, 1, 54, 0
1, 29184, Note_on_c, 0, 72, 0
1, 29184, Note_on_c, 0, 71, 127
1, 29184, Note_on_c, 1, 43, 92
1, 29232, Note_on_c, 1, 43, 0
1, 29232, Note_on_c, 1, 47, 92
1, 29280, Note_on_c, 0, 71, 0
1, 29280, Note_on_c, 0, 79, 92
1, 29280, Note_on_c, 1, 47, 0
1, 29280, Note_on_c, 1, 50, 92
1, 29328, Note_on_c, 1, 50, 0
1, 29328, Note_on_c, 1, 55, 92
1, 29374, Note_on_c, 0, 79, 0
1, 29376, Note_on_c, 0, 76, 92
1, 29376, Note_on_c, 1, 55, 0
1, 29376, Note_on_c, 1, 43, 92
1, 29408, Note_on_c, 0, 76, 0
1, 29424, Note_on_c, 1, 43, 0
1, 29424, Note_on_c, 1, 48, 92
1, 29472, Note_on_c, 0, 72, 92
1, 29472, Note_on_c, 1, 48, 0
1, 29472, Note_on_c, 1, 52, 92
1, 29504, Note_on_c, 0, 72, 0
1, 29520, Note_on_c, 1, 52, 0
1, 29520, Note_on_c, 1, 55, 92
1, 29568, Note_on_c, 0, 74, 127
1, 29568, Note_on_c, 1, 55, 0
1, 29568, Note_on_c, 1, 43, 92
1, 29616, Note_on_c, 1, 43, 0
1, 29616, Note_on_c, 1, 47, 92
1, 29664, Note_on_c, 0, 74, 0
1, 29664, Note_on_c, 0, 79, 92
1, 29664, Note_on_c, 1, 47, 0
1, 29664, Note_on_c, 1, 50, 92
1, 29696, Note_on_c, 0, 79, 0
1, 29712, Note_on_c, 1, 50, 0
1, 29712, Note_on_c, 1, 55, 92
1, 29760, Note_on_c, 0, 76, 92
1, 29760, Note_on_c, 1, 55, 0
1, 29760, Note_on_c, 1, 43, 92
1, 29792, Note_on_c, 0, 76, 0
1, 29808, Note_on_c, 1, 43, 0
1, 29808, Note_on_c, 1, 48, 92
1, 29856, Note_on_c, 0, 72, 92
1, 29856, Note_on_c, 1, 48, 0
1, 29856, Note_on_c, 1, 52, 92
1, 29888, Note_on_c, 0, 72, 0
1, 29904, Note_on_c, 1, 52, 0
1, 29904, Note_on_c, 1, 55, 92
1, 29952, Note_on_c, 0, 74, 92
1, 29952, Note_on_c, 1, 55, 0
1, 29952, Note_on_c, 1, 43, 92
1, 30000, Note_on_c, 0, 74, 0
1, 30000, Note_on_c, 1, 43, 0
1, 30144, Note_on_c, 0, 71, 92
1, 30144, Note_on_c, 0, 74, 92
1, 30144, Note_on_c, 0, 79, 92
1, 30144, Note_on_c, 1, 55, 92
1, 30192, Note_on_c, 0, 71, 0
1, 30192, Note_on_c, 0, 74, 0
1, 30192, Note_on_c, 0, 79, 0
1, 30192, Note_on_c, 1, 55, 0
1, 30336, Note_on_c, 0, 67, 92
1, 30336, Note_on_c, 1, 43, 92
1, 30384, Note_on_c, 0, 67, 0
1, 30496, Note_on_c, 1, 43, 0
1, 30720, Note_on_c, 1, 61, 63
1, 30768, Note_on_c, 1, 61, 0
1, 30768, Note_on_c, 1, 62, 45
1, 30816, Note_on_c, 1, 62, 0
1, 30816, Note_on_c, 1, 61, 45
1, 30864, Note_on_c, 1, 61, 0
1, 30864, Note_on_c, 1, 62, 45
1, 30912, Note_on_c, 1, 62, 0
1, 30912, Note_on_c, 1, 61, 45
1, 30960, Note_on_c, 1, 61, 0
1, 30960, Note_on_c, 1, 62, 45
1, 31008, Note_on_c, 1, 62, 0
1, 31008, Note_on_c, 1, 61, 45
1, 31056, Note_on_c, 1, 61, 0
1, 31056, Note_on_c, 1, 62, 45
1, 31104, Note_on_c, 1, 62, 0
1, 31104, Note_on_c, 1, 60, 63
1, 31152, Note_on_c, 1, 60, 0
1, 31152, Note_on_c, 1, 62, 45
1, 31200, Note_on_c, 1, 62, 0
1, 31200, Note_on_c, 1, 60, 45
1, 31248, Note_on_c, 1, 60, 0
1, 31248, Note_on_c, 1, 62, 45
1, 31296, Note_on_c, 1, 62, 0
1, 31296, Note_on_c, 1, 60, 45
1, 31344, Note_on_c, 1, 60, 0
1, 31344, Note_on_c, 1, 62, 45
1, 31392, Note_on_c, 1, 62, 0
1, 31392, Note_on_c, 1, 60, 45
1, 31440, Note_on_c, 1, 60, 0
1, 31440, Note_on_c, 1, 62, 45
1, 31486, Note_on_c, 1, 62, 0
1, 31488, Note_on_c, 0, 86, 84
1, 31488, Note_on_c, 1, 59, 63
1, 31534, Note_on_c, 1, 59, 0
1, 31536, Note_on_c, 1, 62, 45
1, 31582, Note_on_c, 1, 62, 0
1, 31584, Note_on_c, 0, 86, 0
1, 31584, Note_on_c, 0, 83, 60
1, 31584, Note_on_c, 1, 59, 45
1, 31630, Note_on_c, 1, 59, 0
1, 31632, Note_on_c, 1, 62, 45
1, 31678, Note_on_c, 0, 83, 0
1, 31678, Note_on_c, 1, 62, 0
1, 31680, Note_on_c, 0, 79, 60
1, 31680, Note_on_c, 1, 59, 45
1, 31726, Note_on_c, 1, 59, 0
1, 31728, Note_on_c, 1, 62, 45
1, 31774, Note_on_c, 1, 62, 0
1, 31776, Note_on_c, 1, 59, 45
1, 31822, Note_on_c, 1, 59, 0
1, 31824, Note_on_c, 1, 62, 45
1, 31870, Note_on_c, 1, 62, 0
1, 31872, Note_on_c, 1, 59, 45
1, 31918, Note_on_c, 1, 59, 0
1, 31920, Note_on_c, 1, 62, 45
1, 31966, Note_on_c, 1, 62, 0
1, 31968, Note_on_c, 0, 79, 0
1, 31968, Note_on_c, 0, 81, 60
1, 31968, Note_on_c, 1, 59, 45
1, 32014, Note_on_c, 1, 59, 0
1, 32016, Note_on_c, 0, 81, 0
1, 32016, Note_on_c, 0, 83, 60
1, 32016, Note_on_c, 1, 62, 45
1, 32062, Note_on_c, 1, 62, 0
1, 32064, Note_on_c, 0, 83, 0
1, 32064, Note_on_c, 0, 81, 60
1, 32064, Note_on_c, 1, 59, 45
1, 32110, Note_on_c, 1, 59, 0
1, 32112, Note_on_c, 1, 62, 45
1, 32158, Note_on_c, 0, 81, 0
1, 32158, Note_on_c, 1, 62, 0
1, 32160, Note_on_c, 0, 79, 60
1, 32160, Note_on_c, 1, 59, 45
1, 32192, Note_on_c, 0, 79, 0
1, 32206, Note_on_c, 1, 59, 0
1, 32208, Note_on_c, 1, 62, 45
1, 32254, Note_on_c, 1, 62, 0
1, 32256, Note_on_c, 0, 81, 84
1, 32256, Note_on_c, 1, 60, 60
1, 32280, Note_on_c, 0, 81, 0
1, 32280, Note_on_c, 0, 79, 60
1, 32302, Note_on_c, 1, 60, 0
1, 32304, Note_on_c, 0, 79, 0
1, 32304, Note_on_c, 0, 81, 60
1, 32304, Note_on_c, 1, 62, 60
1, 32328, Note_on_c, 0, 81, 0
1, 32328, Note_on_c, 0, 79, 60
1, 32350, Note_on_c, 1, 62, 0
1, 32352, Note_on_c, 0, 79, 0
1, 32352, Note_on_c, 0, 81, 60
1, 32352, Note_on_c, 1, 59, 60
1, 32376, Note_on_c, 0, 81, 0
1, 32376, Note_on_c, 0, 79, 60
1, 32398, Note_on_c, 1, 59, 0
1, 32400, Note_on_c, 0, 79, 0
1, 32400, Note_on_c, 0, 78, 60
1, 32400, Note_on_c, 1, 62, 60
1, 32432, Note_on_c, 0, 78, 0
1, 32446, Note_on_c, 1, 62, 0
1, 32448, Note_on_c, 0, 78, 60
1, 32448, Note_on_c, 1, 57, 60
1, 32494, Note_on_c, 1, 57, 0
1, 32496, Note_on_c, 1, 62, 60
1, 32542, Note_on_c, 1, 62, 0
1, 32544, Note_on_c, 1, 59, 60
1, 32590, Note_on_c, 1, 59, 0
1, 32592, Note_on_c, 1, 62, 60
1, 32608, Note_on_c, 0, 78, 0
1, 32638, Note_on_c, 1, 62, 0
1, 32640, Note_on_c, 1, 60, 60
1, 32686, Note_on_c, 1, 60, 0
1, 32688, Note_on_c, 1, 62, 60
1, 32734, Note_on_c, 1, 62, 0
1, 32736, Note_on_c, 1, 59, 60
1, 32782, Note_on_c, 1, 59, 0
1, 32784, Note_on_c, 1, 62, 60
1, 32830, Note_on_c, 1, 62, 0
1, 32832, Note_on_c, 1, 60, 60
1, 32878, Note_on_c, 1, 60, 0
1, 32880, Note_on_c, 1, 62, 60
1, 32926, Note_on_c, 1, 62, 0
1, 32928, Note_on_c, 1, 57, 60
1, 32974, Note_on_c, 1, 57, 0
1, 32976, Note_on_c, 1, 62, 60
1, 33022, Note_on_c, 1, 62, 0
1, 33024, Note_on_c, 0, 86, 84
1, 33024, Note_on_c, 1, 59, 45
1, 33070, Note_on_c, 1, 59, 0
1, 33072, Note_on_c, 1, 62, 45
1, 33118, Note_on_c, 1, 62, 0
1, 33120, Note_on_c, 0, 86, 0
1, 33120, Note_on_c, 0, 83, 60
1, 33120, Note_on_c, 1, 59, 45
1, 33152, Note_on_c, 0, 83, 0
1, 33166, Note_on_c, 1, 59, 0
1, 33168, Note_on_c, 1, 62, 45
1, 33214, Note_on_c, 1, 62, 0
1, 33216, Note_on_c, 0, 79, 60
1, 33216, Note_on_c, 1, 59, 45
1, 33262, Note_on_c, 1, 59, 0
1, 33264, Note_on_c, 1, 62, 45
1, 33310, Note_on_c, 1, 62, 0
1, 33312, Note_on_c, 1, 59, 45
1, 33358, Note_on_c, 1, 59, 0
1, 33360, Note_on_c, 1, 62, 45
1, 33406, Note_on_c, 1, 62, 0
1, 33408, Note_on_c, 1, 59, 45
1, 33454, Note_on_c, 1, 59, 0
1, 33456, Note_on_c, 1, 62, 45
1, 33502, Note_on_c, 1, 62, 0
1, 33504, Note_on_c, 0, 79, 0
1, 33504, Note_on_c, 0, 81, 60
1, 33504, Note_on_c, 1, 59, 45
1, 33550, Note_on_c, 1, 59, 0
1, 33552, Note_on_c, 0, 81, 0
1, 33552, Note_on_c, 0, 83, 60
1, 33552, Note_on_c, 1, 62, 45
1, 33598, Note_on_c, 1, 62, 0
1, 33600, Note_on_c, 0, 83, 0
1, 33600, Note_on_c, 0, 81, 60
1, 33600, Note_on_c, 1, 59, 45
1, 33646, Note_on_c, 1, 59, 0
1, 33648, Note_on_c, 1, 62, 45
1, 33694, Note_on_c, 1, 62, 0
1, 33696, Note_on_c, 0, 81, 0
1, 33696, Note_on_c, 0, 79, 60
1, 33696, Note_on_c, 1, 59, 45
1, 33728, Note_on_c, 0, 79, 0
1, 33742, Note_on_c, 1, 59, 0
1, 33744, Note_on_c, 1, 62, 45
1, 33790, Note_on_c, 1, 62, 0
1, 33792, Note_on_c, 0, 81, 84
1, 33792, Note_on_c, 1, 60, 60
1, 33816, Note_on_c, 0, 81, 0
1, 33816, Note_on_c, 0, 79, 60
1, 33838, Note_on_c, 1, 60, 0
1, 33840, Note_on_c, 0, 79, 0
1, 33840, Note_on_c, 0, 81, 60
1, 33840, Note_on_c, 1, 62, 60
1, 33864, Note_on_c, 0, 81, 0
1, 33864, Note_on_c, 0, 79, 60
1, 33886, Note_on_c, 1, 62, 0
1, 33888, Note_on_c, 0, 79, 0
1, 33888, Note_on_c, 0, 81, 60
1, 33888, Note_on_c, 1, 59, 60
1, 33912, Note_on_c, 0, 81, 0
1, 33912, Note_on_c, 0, 79, 60
1, 33934, Note_on_c, 1, 59, 0
1, 33936, Note_on_c, 0, 79, 0
1, 33936, Note_on_c, 0, 78, 60
1, 33936, Note_on_c, 1, 62, 60
1, 33968, Note_on_c, 0, 78, 0
1, 33982, Note_on_c, 1, 62, 0
1, 33984, Note_on_c, 0, 78, 60
1, 33984, Note_on_c, 1, 57, 60
1, 34030, Note_on_c, 1, 57, 0
1, 34032, Note_on_c, 1, 62, 60
1, 34078, Note_on_c, 1, 62, 0
1, 34080, Note_on_c, 1, 59, 60
1, 34126, Note_on_c, 1, 59, 0
1, 34128, Note_on_c, 1, 62, 60
1, 34144, Note_on_c, 0, 78, 0
1, 34174, Note_on_c, 1, 62, 0
1, 34176, Note_on_c, 1, 60, 60
1, 34222, Note_on_c, 1, 60, 0
1, 34224, Note_on_c, 1, 62, 60
1, 34270, Note_on_c, 1, 62, 0
1, 34272, Note_on_c, 1, 59, 60
1, 34318, Note_on_c, 1, 59, 0
1, 34320, Note_on_c, 1, 62, 60
1, 34366, Note_on_c, 1, 62, 0
1, 34368, Note_on_c, 1, 60, 60
1, 34414, Note_on_c, 1, 60, 0
1, 34416, Note_on_c, 1, 62, 60
1, 34462, Note_on_c, 1, 62, 0
1, 34464, Note_on_c, 1, 57, 60
1, 34510, Note_on_c, 1, 57, 0
1, 34512, Note_on_c, 1, 62, 60
1, 34558, Note_on_c, 1, 62, 0
1, 34560, Note_on_c, 0, 86, 84
1, 34608, Note_on_c, 1, 59, 60
1, 34656, Note_on_c, 1, 59, 0
1, 34656, Note_on_c, 1, 62, 60
1, 34704, Note_on_c, 1, 62, 0
1, 34704, Note_on_c, 1, 67, 60
1, 34720, Note_on_c, 0, 86, 0
1, 34752, Note_on_c, 1, 67, 0
1, 34752, Note_on_c, 1, 71, 60
1, 34800, Note_on_c, 0, 86, 60
1, 34848, Note_on_c, 0, 86, 0
1, 34848, Note_on_c, 0, 83, 60
1, 34896, Note_on_c, 0, 83, 0
1, 34896, Note_on_c, 0, 79, 60
1, 34944, Note_on_c, 0, 79, 0
1, 34944, Note_on_c, 0, 76, 60
1, 34944, Note_on_c, 1, 71, 0
1, 34992, Note_on_c, 1, 60, 60
1, 35040, Note_on_c, 1, 60, 0
1, 35040, Note_on_c, 1, 64, 60
1, 35088, Note_on_c, 1, 64, 0
1, 35088, Note_on_c, 1, 67, 60
1, 35104, Note_on_c, 0, 76, 0
1, 35136, Note_on_c, 1, 67, 0
1, 35136, Note_on_c, 1, 72, 60
1, 35184, Note_on_c, 0, 76, 60
1, 35232, Note_on_c, 0, 76, 0
1, 35232, Note_on_c, 0, 79, 60
1, 35280, Note_on_c, 0, 79, 0
1, 35280, Note_on_c, 0, 76, 60
1, 35328, Note_on_c, 0, 76, 0
1, 35328, Note_on_c, 0, 84, 60
1, 35328, Note_on_c, 1, 72, 0
1, 35376, Note_on_c, 1, 57, 60
1, 35424, Note_on_c, 1, 57, 0
1, 35424, Note_on_c, 1, 60, 60
1, 35472, Note_on_c, 1, 60, 0
1, 35472, Note_on_c, 1, 66, 60
1, 35488, Note_on_c, 0, 84, 0
1, 35520, Note_on_c, 1, 66, 0
1, 35520, Note_on_c, 1, 69, 60
1, 35568, Note_on_c, 0, 84, 60
1, 35614, Note_on_c, 0, 84, 0
1, 35616, Note_on_c, 0, 81, 60
1, 35662, Note_on_c, 0, 81, 0
1, 35664, Note_on_c, 0, 78, 60
1, 35680, Note_on_c, 1, 69, 0
1, 35710, Note_on_c, 0, 78, 0
1, 35712, Note_on_c, 0, 74, 60
1, 35760, Note_on_c, 1, 59, 60
1, 35808, Note_on_c, 1, 59, 0
1, 35808, Note_on_c, 1, 62, 60
1, 35856, Note_on_c, 1, 62, 0
1, 35856, Note_on_c, 1, 66, 60
1, 35872, Note_on_c, 0, 74, 0
1, 35904, Note_on_c, 1, 66, 0
1, 35904, Note_on_c, 1, 71, 60
1, 35952, Note_on_c, 0, 74, 60
1, 36000, Note_on_c, 0, 74, 0
1, 36000, Note_on_c, 0, 78, 60
1, 36048, Note_on_c, 0, 78, 0
1, 36048, Note_on_c, 0, 74, 60
1, 36064, Note_on_c, 1, 71, 0
1, 36096, Note_on_c, 0, 74, 0
1, 36096, Note_on_c, 0, 83, 84
1, 36144, Note_on_c, 1, 55, 60
1, 36192, Note_on_c, 1, 55, 0
1, 36192, Note_on_c, 1, 59, 60
1, 36240, Note_on_c, 1, 59, 0
1, 36240, Note_on_c, 1, 64, 60
1, 36256, Note_on_c, 0, 83, 0
1, 36288, Note_on_c, 1, 64, 0
1, 36288, Note_on_c, 1, 67, 60
1, 36336, Note_on_c, 0, 83, 60
1, 36384, Note_on_c, 0, 83, 0
1, 36384, Note_on_c, 0, 79, 60
1, 36432, Note_on_c, 0, 79, 0
1, 36432, Note_on_c, 0, 76, 60
1, 36448, Note_on_c, 1, 67, 0
1, 36480, Note_on_c, 0, 76, 0
1, 36480, Note_on_c, 0, 72, 60
1, 36528, Note_on_c, 1, 57, 60
1, 36576, Note_on_c, 1, 57, 0
1, 36576, Note_on_c, 1, 60, 60
1, 36624, Note_on_c, 1, 60, 0
1, 36624, Note_on_c, 1, 64, 60
1, 36640, Note_on_c, 0, 72, 0
1, 36672, Note_on_c, 1, 64, 0
1, 36672, Note_on_c, 1, 69, 60
1, 36720, Note_on_c, 0, 72, 60
1, 36766, Note_on_c, 0, 72, 0
1, 36768, Note_on_c, 0, 76, 60
1, 36814, Note_on_c, 0, 76, 0
1, 36816, Note_on_c, 0, 72, 60
1, 36832, Note_on_c, 1, 69, 0
1, 36862, Note_on_c, 0, 72, 0
1, 36864, Note_on_c, 0, 81, 84
1, 36912, Note_on_c, 1, 54, 60
1, 36960, Note_on_c, 1, 54, 0
1, 36960, Note_on_c, 1, 57, 60
1, 37008, Note_on_c, 1, 57, 0
1, 37008, Note_on_c, 1, 62, 60
1, 37024, Note_on_c, 0, 81, 0
1, 37056, Note_on_c, 1, 62, 0
1, 37056, Note_on_c, 1, 66, 60
1, 37104, Note_on_c, 0, 81, 60
1, 37152, Note_on_c, 0, 81, 0
1, 37152, Note_on_c, 0, 78, 60
1, 37200, Note_on_c, 0, 78, 0
1, 37200, Note_on_c, 0, 74, 60
1, 37216, Note_on_c, 1, 66, 0
1, 37248, Note_on_c, 0, 74, 0
1, 37248, Note_on_c, 0, 71, 60
1, 37296, Note_on_c, 1, 55, 60
1, 37344, Note_on_c, 1, 55, 0
1, 37344, Note_on_c, 1, 59, 60
1, 37392, Note_on_c, 1, 59, 0
1, 37392, Note_on_c, 1, 62, 60
1, 37408, Note_on_c, 0, 71, 0
1, 37440, Note_on_c, 1, 62, 0
1, 37440, Note_on_c, 1, 67, 60
1, 37488, Note_on_c, 0, 79, 60
1, 37536, Note_on_c, 0, 79, 0
1, 37536, Note_on_c, 0, 74, 60
1, 37584, Note_on_c, 0, 74, 0
1, 37584, Note_on_c, 0, 71, 60
1, 37600, Note_on_c, 1, 67, 0
1, 37632, Note_on_c, 0, 71, 0
1, 37632, Note_on_c, 0, 69, 45
1, 37632, Note_on_c, 1, 60, 60
1, 37632, Note_on_c, 1, 64, 60
1, 37664, Note_on_c, 1, 60, 0
1, 37664, Note_on_c, 1, 64, 0
1, 37728, Note_on_c, 1, 60, 60
1, 37728, Note_on_c, 1, 64, 60
1, 37760, Note_on_c, 1, 60, 0
1, 37760, Note_on_c, 1, 64, 0
1, 37824, Note_on_c, 1, 60, 60
1, 37824, Note_on_c, 1, 64, 60
1, 37856, Note_on_c, 1, 60, 0
1, 37856, Note_on_c, 1, 64, 0
1, 37920, Note_on_c, 1, 60, 60
1, 37920, Note_on_c, 1, 64, 60
1, 37952, Note_on_c, 1, 60, 0
1, 37952, Note_on_c, 1, 64, 0
1, 37968, Note_on_c, 0, 69, 0
1, 38016, Note_on_c, 0, 71, 45
1, 38016, Note_on_c, 1, 60, 60
1, 38016, Note_on_c, 1, 64, 60
1, 38040, Note_on_c, 0, 71, 0
1, 38040, Note_on_c, 0, 72, 63
1, 38048, Note_on_c, 1, 60, 0
1, 38048, Note_on_c, 1, 64, 0
1, 38112, Note_on_c, 1, 60, 62
1, 38112, Note_on_c, 1, 64, 62
1, 38144, Note_on_c, 1, 60, 0
1, 38144, Note_on_c, 1, 64, 0
1, 38206, Note_on_c, 0, 72, 0
1, 38208, Note_on_c, 0, 75, 51
1, 38208, Note_on_c, 1, 60, 64
1, 38208, Note_on_c, 1, 64, 64
1, 38232, Note_on_c, 0, 75, 0
1, 38232, Note_on_c, 0, 76, 72
1, 38240, Note_on_c, 1, 60, 0
1, 38240, Note_on_c, 1, 64, 0
1, 38304, Note_on_c, 1, 60, 66
1, 38304, Note_on_c, 1, 64, 66
1, 38336, Note_on_c, 1, 60, 0
1, 38336, Note_on_c, 1, 64, 0
1, 38398, Note_on_c, 0, 76, 0
1, 38400, Note_on_c, 0, 80, 59
1, 38400, Note_on_c, 1, 60, 68
1, 38400, Note_on_c, 1, 64, 68
1, 38424, Note_on_c, 0, 80, 0
1, 38424, Note_on_c, 0, 81, 84
1, 38432, Note_on_c, 1, 60, 0
1, 38432, Note_on_c, 1, 64, 0
1, 38496, Note_on_c, 1, 60, 71
1, 38496, Note_on_c, 1, 64, 71
1, 38528, Note_on_c, 1, 60, 0
1, 38528, Note_on_c, 1, 64, 0
1, 38592, Note_on_c, 1, 60, 74
1, 38592, Note_on_c, 1, 64, 74
1, 38624, Note_on_c, 1, 60, 0
1, 38624, Note_on_c, 1, 64, 0
1, 38686, Note_on_c, 0, 81, 0
1, 38688, Note_on_c, 0, 83, 71
1, 38688, Note_on_c, 1, 60, 77
1, 38688, Note_on_c, 1, 64, 77
1, 38712, Note_on_c, 0, 83, 0
1, 38712, Note_on_c, 0, 81, 72
1, 38720, Note_on_c, 1, 60, 0
1, 38720, Note_on_c, 1, 64, 0
1, 38736, Note_on_c, 0, 81, 0
1, 38736, Note_on_c, 0, 80, 73
1, 38760, Note_on_c, 0, 80, 0
1, 38760, Note_on_c, 0, 81, 74
1, 38784, Note_on_c, 0, 81, 0
1, 38784, Note_on_c, 0, 84, 75
1, 38784, Note_on_c, 1, 60, 80
1, 38784, Note_on_c, 1, 64, 80
1, 38816, Note_on_c, 1, 60, 0
1, 38816, Note_on_c, 1, 64, 0
1, 38880, Note_on_c, 0, 84, 0
1, 38880, Note_on_c, 0, 81, 79
1, 38880, Note_on_c, 1, 60, 83
1, 38880, Note_on_c, 1, 64, 83
1, 38912, Note_on_c, 0, 81, 0
1, 38912, Note_on_c, 1, 60, 0
1, 38912, Note_on_c, 1, 64, 0
1, 38976, Note_on_c, 0, 84, 83
1, 38976, Note_on_c, 1, 60, 86
1, 38976, Note_on_c, 1, 64, 86
1, 39008, Note_on_c, 1, 60, 0
1, 39008, Note_on_c, 1, 64, 0
1, 39072, Note_on_c, 0, 84, 0
1, 39072, Note_on_c, 0, 81, 87
1, 39072, Note_on_c, 1, 60, 89
1, 39072, Note_on_c, 1, 64, 89
1, 39104, Note_on_c, 0, 81, 0
1, 39104, Note_on_c, 1, 60, 0
1, 39104, Note_on_c, 1, 64, 0
1, 39168, Note_on_c, 0, 83, 92
1, 39168, Note_on_c, 1, 62, 92
1, 39216, Note_on_c, 1, 62, 0
1, 39216, Note_on_c, 1, 71, 92
1, 39264, Note_on_c, 0, 83, 0
1, 39264, Note_on_c, 0, 79, 92
1, 39264, Note_on_c, 1, 71, 0
1, 39264, Note_on_c, 1, 67, 92
1, 39296, Note_on_c, 0, 79, 0
1, 39312, Note_on_c, 1, 67, 0
1, 39312, Note_on_c, 1, 71, 92
1, 39360, Note_on_c, 0, 86, 92
1, 39360, Note_on_c, 1, 71, 0
1, 39360, Note_on_c, 1, 62, 92
1, 39408, Note_on_c, 1, 62, 0
1, 39408, Note_on_c, 1, 71, 92
1, 39456, Note_on_c, 1, 71, 0
1, 39456, Note_on_c, 1, 67, 92
1, 39504, Note_on_c, 1, 67, 0
1, 39504, Note_on_c, 1, 71, 92
1, 39552, Note_on_c, 1, 71, 0
1, 39552, Note_on_c, 1, 62, 92
1, 39600, Note_on_c, 1, 62, 0
1, 39600, Note_on_c, 1, 71, 92
1, 39648, Note_on_c, 1, 71, 0
1, 39648, Note_on_c, 1, 67, 92
1, 39696, Note_on_c, 1, 67, 0
1, 39696, Note_on_c, 1, 71, 92
1, 39744, Note_on_c, 0, 86, 0
1, 39744, Note_on_c, 0, 84, 92
1, 39744, Note_on_c, 1, 71, 0
1, 39744, Note_on_c, 1, 62, 92
1, 39792, Note_on_c, 0, 84, 0
1, 39792, Note_on_c, 0, 83, 92
1, 39792, Note_on_c, 1, 62, 0
1, 39792, Note_on_c, 1, 71, 92
1, 39840, Note_on_c, 0, 83, 0
1, 39840, Note_on_c, 0, 81, 92
1, 39840, Note_on_c, 1, 71, 0
1, 39840, Note_on_c, 1, 67, 92
1, 39888, Note_on_c, 0, 81, 0
1, 39888, Note_on_c, 0, 79, 92
1, 39888, Note_on_c, 1, 67, 0
1, 39888, Note_on_c, 1, 71, 92
1, 39934, Note_on_c, 0, 79, 0
1, 39936, Note_on_c, 0, 83, 92
1, 39936, Note_on_c, 1, 71, 0
1, 39936, Note_on_c, 1, 62, 92
1, 39960, Note_on_c, 0, 83, 0
1, 39960, Note_on_c, 0, 81, 92
1, 39984, Note_on_c, 0, 81, 0
1, 39984, Note_on_c, 0, 83, 92
1, 39984, Note_on_c, 1, 62, 0
1, 39984, Note_on_c, 1, 72, 92
1, 40008, Note_on_c, 0, 83, 0
1, 40008, Note_on_c, 0, 81, 92
1, 40032, Note_on_c, 0, 81, 0
1, 40032, Note_on_c, 0, 83, 92
1, 40032, Note_on_c, 1, 72, 0
1, 40032, Note_on_c, 1, 66, 92
1, 40056, Note_on_c, 0, 83, 0
1, 40056, Note_on_c, 0, 81, 92
1, 40080, Note_on_c, 0, 81, 0
1, 40080, Note_on_c, 0, 83, 92
1, 40080, Note_on_c, 1, 66, 0
1, 40080, Note_on_c, 1, 72, 92
1, 40104, Note_on_c, 0, 83, 0
1, 40104, Note_on_c, 0, 81, 92
1, 40128, Note_on_c, 0, 81, 0
1, 40128, Note_on_c, 0, 83, 92
1, 40128, Note_on_c, 1, 72, 0
1, 40128, Note_on_c, 1, 62, 92
1, 40152, Note_on_c, 0, 83, 0
1, 40152, Note_on_c, 0, 81, 92
1, 40176, Note_on_c, 0, 81, 0
1, 40176, Note_on_c, 0, 83, 92
1, 40176, Note_on_c, 1, 62, 0
1, 40176, Note_on_c, 1, 72, 92
1, 40200, Note_on_c, 0, 83, 0
1, 40200, Note_on_c, 0, 81, 92
1, 40224, Note_on_c, 0, 81, 0
1, 40224, Note_on_c, 0, 83, 92
1, 40224, Note_on_c, 1, 72, 0
1, 40224, Note_on_c, 1, 66, 92
1, 40248, Note_on_c, 0, 83, 0
1, 40248, Note_on_c, 0, 81, 92
1, 40272, Note_on_c, 0, 81, 0
1, 40272, Note_on_c, 0, 83, 92
1, 40272, Note_on_c, 1, 66, 0
1, 40272, Note_on_c, 1, 72, 92
1, 40296, Note_on_c, 0, 83, 0
1, 40296, Note_on_c, 0, 81, 92
1, 40320, Note_on_c, 0, 81, 0
1, 40320, Note_on_c, 0, 83, 92
1, 40320, Note_on_c, 1, 72, 0
1, 40320, Note_on_c, 1, 62, 92
1, 40344, Note_on_c, 0, 83, 0
1, 40344, Note_on_c, 0, 81, 92
1, 40368, Note_on_c, 0, 81, 0
1, 40368, Note_on_c, 0, 83, 92
1, 40368, Note_on_c, 1, 62, 0
1, 40368, Note_on_c, 1, 72, 92
1, 40392, Note_on_c, 0, 83, 0
1, 40392, Note_on_c, 0, 81, 92
1, 40416, Note_on_c, 0, 81, 0
1, 40416, Note_on_c, 0, 83, 92
1, 40416, Note_on_c, 1, 72, 0
1, 40416, Note_on_c, 1, 66, 92
1, 40440, Note_on_c, 0, 83, 0
1, 40440, Note_on_c, 0, 81, 92
1, 40464, Note_on_c, 0, 81, 0
1, 40464, Note_on_c, 0, 83, 92
1, 40464, Note_on_c, 1, 66, 0
1, 40464, Note_on_c, 1, 72, 92
1, 40488, Note_on_c, 0, 83, 0
1, 40488, Note_on_c, 0, 81, 92
1, 40512, Note_on_c, 0, 81, 0
1, 40512, Note_on_c, 0, 83, 92
1, 40512, Note_on_c, 1, 72, 0
1, 40512, Note_on_c, 1, 62, 92
1, 40536, Note_on_c, 0, 83, 0
1, 40536, Note_on_c, 0, 81, 92
1, 40560, Note_on_c, 0, 81, 0
1, 40560, Note_on_c, 0, 83, 92
1, 40560, Note_on_c, 1, 62, 0
1, 40560, Note_on_c, 1, 72, 92
1, 40584, Note_on_c, 0, 83, 0
1, 40584, Note_on_c, 0, 81, 92
1, 40608, Note_on_c, 0, 81, 0
1, 40608, Note_on_c, 0, 83, 92
1, 40608, Note_on_c, 1, 72, 0
1, 40608, Note_on_c, 1, 66, 92
1, 40632, Note_on_c, 0, 83, 0
1, 40632, Note_on_c, 0, 81, 92
1, 40656, Note_on_c, 0, 81, 0
1, 40656, Note_on_c, 0, 79, 92
1, 40656, Note_on_c, 1, 66, 0
1, 40656, Note_on_c, 1, 71, 92
1, 40680, Note_on_c, 0, 79, 0
1, 40680, Note_on_c, 0, 81, 92
1, 40702, Note_on_c, 1, 71, 0
1, 40704, Note_on_c, 0, 81, 0
1, 40704, Note_on_c, 0, 79, 92
1, 40704, Note_on_c, 1, 67, 92
1, 40704, Note_on_c, 1, 71, 92
1, 40752, Note_on_c, 0, 79, 0
1, 40752, Note_on_c, 1, 67, 0
1, 40752, Note_on_c, 1, 71, 0
1, 40896, Note_on_c, 0, 79, 92
1, 40944, Note_on_c, 0, 79, 0
1, 40944, Note_on_c, 0, 74, 92
1, 40992, Note_on_c, 0, 74, 0
1, 40992, Note_on_c, 0, 79, 92
1, 41040, Note_on_c, 0, 79, 0
1, 41040, Note_on_c, 0, 83, 92
1, 41088, Note_on_c, 0, 83, 0
1, 41088, Note_on_c, 0, 86, 127
1, 41136, Note_on_c, 0, 86, 0
1, 41136, Note_on_c, 0, 83, 92
1, 41184, Note_on_c, 0, 83, 0
1, 41184, Note_on_c, 0, 79, 92
1, 41232, Note_on_c, 0, 79, 0
1, 41232, Note_on_c, 0, 83, 92
1, 41280, Note_on_c, 0, 83, 0
1, 41280, Note_on_c, 0, 84, 127
1, 41280, Note_on_c, 1, 62, 92
1, 41280, Note_on_c, 1, 69, 92
1, 41280, Note_on_c, 1, 72, 92
1, 41328, Note_on_c, 0, 84, 0
1, 41328, Note_on_c, 0, 81, 92
1, 41376, Note_on_c, 0, 81, 0
1, 41376, Note_on_c, 0, 78, 92
1, 41424, Note_on_c, 0, 78, 0
1, 41424, Note_on_c, 0, 81, 92
1, 41472, Note_on_c, 0, 81, 0
1, 41472, Note_on_c, 0, 79, 92
1, 41472, Note_on_c, 1, 62, 0
1, 41472, Note_on_c, 1, 69, 0
1, 41472, Note_on_c, 1, 72, 0
1, 41472, Note_on_c, 1, 67, 92
1, 41472, Note_on_c, 1, 71, 92
1, 41520, Note_on_c, 0, 79, 0
1, 41520, Note_on_c, 1, 67, 0
1, 41520, Note_on_c, 1, 71, 0
1, 41664, Note_on_c, 0, 67, 92
1, 41712, Note_on_c, 0, 67, 0
1, 41712, Note_on_c, 0, 62, 92
1, 41760, Note_on_c, 0, 62, 0
1, 41760, Note_on_c, 0, 67, 92
1, 41808, Note_on_c, 0, 67, 0
1, 41808, Note_on_c, 0, 71, 92
1, 41856, Note_on_c, 0, 71, 0
1, 41856, Note_on_c, 0, 74, 127
1, 41904, Note_on_c, 0, 74, 0
1, 41904, Note_on_c, 0, 71, 92
1, 41952, Note_on_c, 0, 71, 0
1, 41952, Note_on_c, 0, 67, 92
1, 42000, Note_on_c, 0, 67, 0
1, 42000, Note_on_c, 0, 71, 92
1, 42048, Note_on_c, 0, 71, 0
1, 42048, Note_on_c, 0, 72, 92
1, 42048, Note_on_c, 1, 50, 92
1, 42048, Note_on_c, 1, 57, 92
1, 42048, Note_on_c, 1, 60, 92
1, 42096, Note_on_c, 0, 72, 0
1, 42096, Note_on_c, 0, 69, 92
1, 42144, Note_on_c, 0, 69, 0
1, 42144, Note_on_c, 0, 66, 92
1, 42192, Note_on_c, 0, 66, 0
1, 42192, Note_on_c, 0, 69, 92
1, 42240, Note_on_c, 0, 69, 0
1, 42240, Note_on_c, 0, 67, 92
1, 42240, Note_on_c, 1, 50, 0
1, 42240, Note_on_c, 1, 57, 0
1, 42240, Note_on_c, 1, 60, 0
1, 42240, Note_on_c, 1, 55, 92
1, 42240, Note_on_c, 1, 59, 92
1, 42288, Note_on_c, 0, 67, 0
1, 42288, Note_on_c, 1, 55, 0
1, 42288, Note_on_c, 1, 59, 0
1, 42432, Note_on_c, 0, 74, 92
1, 42432, Note_on_c, 0, 83, 92
1, 42432, Note_on_c, 1, 43, 92
1, 42432, Note_on_c, 1, 55, 92
1, 42480, Note_on_c, 0, 74, 0
1, 42480, Note_on_c, 0, 83, 0
1, 42592, Note_on_c, 1, 43, 0
1, 42592, Note_on_c, 1, 55, 0
1, 42624, Note_on_c, 0, 71, 92
1, 42624, Note_on_c, 0, 79, 92
1, 42624, Note_on_c, 1, 43, 92
1, 42624, Note_on_c, 1, 55, 92
1, 42672, Note_on_c, 0, 71, 0
1, 42672, Note_on_c, 0, 79, 0
1, 42784, Note_on_c, 1, 43, 0
1, 42784, Note_on_c, 1, 55, 0
1, 43008, Note_on_c, 0, 67, 92
1, 43008, Note_on_c, 1, 43, 92
1, 43008, Note_on_c, 1, 55, 92
1, 43056, Note_on_c, 0, 67, 0
1, 43056, Note_on_c, 1, 43, 0
1, 43056, Note_on_c, 1, 55, 0
1, 43200, Note_on_c, 0, 79, 92
1, 43248, Note_on_c, 0, 79, 0
1, 43248, Note_on_c, 0, 74, 92
1, 43296, Note_on_c, 0, 74, 0
1, 43296, Note_on_c, 0, 79, 92
1, 43344, Note_on_c, 0, 79, 0
1, 43344, Note_on_c, 0, 82, 92
1, 43392, Note_on_c, 0, 82, 0
1, 43392, Note_on_c, 0, 86, 127
1, 43440, Note_on_c, 0, 86, 0
1, 43440, Note_on_c, 0, 82, 92
1, 43488, Note_on_c, 0, 82, 0
1, 43488, Note_on_c, 0, 79, 92
1, 43536, Note_on_c, 0, 79, 0
1, 43536, Note_on_c, 0, 82, 92
1, 43584, Note_on_c, 0, 82, 0
1, 43584, Note_on_c, 0, 84, 127
1, 43584, Note_on_c, 1, 62, 92
1, 43584, Note_on_c, 1, 69, 92
1, 43584, Note_on_c, 1, 72, 92
1, 43632, Note_on_c, 0, 84, 0
1, 43632, Note_on_c, 0, 81, 92
1, 43680, Note_on_c, 0, 81, 0
1, 43680, Note_on_c, 0, 78, 92
1, 43728, Note_on_c, 0, 78, 0
1, 43728, Note_on_c, 0, 81, 92
1, 43776, Note_on_c, 0, 81, 0
1, 43776, Note_on_c, 0, 79, 92
1, 43776, Note_on_c, 1, 62, 0
1, 43776, Note_on_c, 1, 69, 0
1, 43776, Note_on_c, 1, 72, 0
1, 43776, Note_on_c, 1, 67, 92
1, 43776, Note_on_c, 1, 70, 92
1, 43824, Note_on_c, 0, 79, 0
1, 43824, Note_on_c, 1, 67, 0
1, 43824, Note_on_c, 1, 70, 0
1, 43968, Note_on_c, 0, 67, 92
1, 44016, Note_on_c, 0, 67, 0
1, 44016, Note_on_c, 0, 62, 92
1, 44064, Note_on_c, 0, 62, 0
1, 44064, Note_on_c, 0, 67, 92
1, 44112, Note_on_c, 0, 67, 0
1, 44112, Note_on_c, 0, 70, 92
1, 44160, Note_on_c, 0, 70, 0
1, 44160, Note_on_c, 0, 74, 127
1, 44208, Note_on_c, 0, 74, 0
1, 44208, Note_on_c, 0, 70, 92
1, 44256, Note_on_c, 0, 70, 0
1, 44256, Note_on_c, 0, 67, 92
1, 44304, Note_on_c, 0, 67, 0
1, 44304, Note_on_c, 0, 70, 92
1, 44352, Note_on_c, 0, 70, 0
1, 44352, Note_on_c, 0, 72, 92
1, 44352, Note_on_c, 1, 50, 92
1, 44352, Note_on_c, 1, 57, 92
1, 44352, Note_on_c, 1, 60, 92
1, 44400, Note_on_c, 0, 72, 0
1, 44400, Note_on_c, 0, 69, 92
1, 44448, Note_on_c, 0, 69, 0
1, 44448, Note_on_c, 0, 66, 92
1, 44496, Note_on_c, 0, 66, 0
1, 44496, Note_on_c, 0, 69, 92
1, 44544, Note_on_c, 0, 69, 0
1, 44544, Note_on_c, 0, 67, 92
1, 44544, Note_on_c, 1, 50, 0
1, 44544, Note_on_c, 1, 57, 0
1, 44544, Note_on_c, 1, 60, 0
1, 44592, Note_on_c, 0, 67, 0
1, 44592, Note_on_c, 1, 43, 92
1, 44640, Note_on_c, 1, 43, 0
1, 44640, Note_on_c, 1, 45, 92
1, 44688, Note_on_c, 1, 45, 0
1, 44688, Note_on_c, 1, 46, 92
1, 44736, Note_on_c, 1, 46, 0
1, 44736, Note_on_c, 1, 48, 92
1, 44784, Note_on_c, 1, 48, 0
1, 44784, Note_on_c, 1, 50, 92
1, 44832, Note_on_c, 1, 50, 0
1, 44832, Note_on_c, 1, 52, 92
1, 44880, Note_on_c, 1, 52, 0
1, 44880, Note_on_c, 1, 54, 92
1, 44928, Note_on_c, 1, 54, 0
1, 44928, Note_on_c, 1, 55, 92
1, 44976, Note_on_c, 0, 79, 92
1, 44976, Note_on_c, 1, 55, 0
1, 45024, Note_on_c, 0, 79, 0
1, 45024, Note_on_c, 0, 82, 92
1, 45072, Note_on_c, 0, 82, 0
1, 45072, Note_on_c, 0, 81, 92
1, 45120, Note_on_c, 0, 81, 0
1, 45120, Note_on_c, 0, 79, 92
1, 45168, Note_on_c, 0, 79, 0
1, 45168, Note_on_c, 0, 77, 92
1, 45216, Note_on_c, 0, 77, 0
1, 45216, Note_on_c, 0, 76, 92
1, 45264, Note_on_c, 0, 76, 0
1, 45264, Note_on_c, 0, 74, 92
1, 45312, Note_on_c, 0, 74, 0
1, 45312, Note_on_c, 0, 73, 92
1, 45360, Note_on_c, 0, 73, 0
1, 45360, Note_on_c, 1, 45, 92
1, 45408, Note_on_c, 1, 45, 0
1, 45408, Note_on_c, 1, 47, 92
1, 45456, Note_on_c, 1, 47, 0
1, 45456, Note_on_c, 1, 49, 92
1, 45504, Note_on_c, 1, 49, 0
1, 45504, Note_on_c, 1, 50, 92
1, 45552, Note_on_c, 1, 50, 0
1, 45552, Note_on_c, 1, 52, 92
1, 45600, Note_on_c, 1, 52, 0
1, 45600, Note_on_c, 1, 54, 92
1, 45648, Note_on_c, 1, 54, 0
1, 45648, Note_on_c, 1, 56, 92
1, 45696, Note_on_c, 1, 56, 0
1, 45696, Note_on_c, 1, 57, 92
1, 45744, Note_on_c, 0, 85, 92
1, 45744, Note_on_c, 1, 57, 0
1, 45792, Note_on_c, 0, 85, 0
1, 45792, Note_on_c, 0, 88, 92
1, 45840, Note_on_c, 0, 88, 0
1, 45840, Note_on_c, 0, 86, 92
1, 45888, Note_on_c, 0, 86, 0
1, 45888, Note_on_c, 0, 85, 92
1, 45936, Note_on_c, 0, 85, 0
1, 45936, Note_on_c, 0, 82, 92
1, 45984, Note_on_c, 0, 82, 0
1, 45984, Note_on_c, 0, 81, 92
1, 46032, Note_on_c, 0, 81, 0
1, 46032, Note_on_c, 0, 79, 92
1, 46080, Note_on_c, 0, 79, 0
1, 46080, Note_on_c, 0, 77, 92
1, 46080, Note_on_c, 1, 38, 92
1, 46080, Note_on_c, 1, 50, 92
1, 46128, Note_on_c, 0, 77, 0
1, 46240, Note_on_c, 1, 38, 0
1, 46240, Note_on_c, 1, 50, 0
1, 46272, Note_on_c, 0, 74, 92
1, 46320, Note_on_c, 0, 74, 0
1, 46320, Note_on_c, 0, 69, 92
1, 46368, Note_on_c, 0, 69, 0
1, 46368, Note_on_c, 0, 74, 92
1, 46416, Note_on_c, 0, 74, 0
1, 46416, Note_on_c, 0, 77, 92
1, 46464, Note_on_c, 0, 77, 0
1, 46464, Note_on_c, 0, 81, 127
1, 46512, Note_on_c, 0, 81, 0
1, 46512, Note_on_c, 0, 77, 92
1, 46560, Note_on_c, 0, 77, 0
1, 46560, Note_on_c, 0, 74, 92
1, 46608, Note_on_c, 0, 74, 0
1, 46608, Note_on_c, 0, 77, 92
1, 46656, Note_on_c, 0, 77, 0
1, 46656, Note_on_c, 0, 79, 127
1, 46656, Note_on_c, 1, 57, 92
1, 46656, Note_on_c, 1, 64, 92
1, 46656, Note_on_c, 1, 67, 92
1, 46704, Note_on_c, 0, 79, 0
1, 46704, Note_on_c, 0, 76, 92
1, 46752, Note_on_c, 0, 76, 0
1, 46752, Note_on_c, 0, 73, 92
1, 46800, Note_on_c, 0, 73, 0
1, 46800, Note_on_c, 0, 76, 92
1, 46848, Note_on_c, 0, 76, 0
1, 46848, Note_on_c, 0, 74, 92
1, 46848, Note_on_c, 1, 57, 0
1, 46848, Note_on_c, 1, 64, 0
1, 46848, Note_on_c, 1, 67, 0
1, 46848, Note_on_c, 1, 62, 92
1, 46848, Note_on_c, 1, 65, 92
1, 46896, Note_on_c, 0, 74, 0
1, 46896, Note_on_c, 1, 62, 0
1, 46896, Note_on_c, 1, 65, 0
1, 47040, Note_on_c, 0, 62, 92
1, 47088, Note_on_c, 0, 62, 0
1, 47088, Note_on_c, 0, 57, 92
1, 47136, Note_on_c, 0, 57, 0
1, 47136, Note_on_c, 0, 62, 92
1, 47184, Note_on_c, 0, 62, 0
1, 47184, Note_on_c, 0, 65, 92
1, 47232, Note_on_c, 0, 65, 0
1, 47232, Note_on_c, 0, 69, 127
1, 47280, Note_on_c, 0, 69, 0
1, 47280, Note_on_c, 0, 65, 92
1, 47328, Note_on_c, 0, 65, 0
1, 47328, Note_on_c, 0, 62, 92
1, 47376, Note_on_c, 0, 62, 0
1, 47376, Note_on_c, 0, 65, 92
1, 47424, Note_on_c, 0, 65, 0
1, 47424, Note_on_c, 0, 67, 127
1, 47424, Note_on_c, 1, 45, 92
1, 47424, Note_on_c, 1, 52, 92
1, 47424, Note_on_c, 1, 55, 92
1, 47472, Note_on_c, 0, 67, 0
1, 47472, Note_on_c, 0, 64, 92
1, 47520, Note_on_c, 0, 64, 0
1, 47520, Note_on_c, 0, 61, 92
1, 47568, Note_on_c, 0, 61, 0
1, 47568, Note_on_c, 0, 64, 92
1, 47614, Note_on_c, 0, 64, 0
1, 47616, Note_on_c, 1, 45, 0
1, 47616, Note_on_c, 1, 52, 0
1, 47616, Note_on_c, 1, 55, 0
1, 47616, Note_on_c, 1, 50, 92
1, 47616, Note_on_c, 1, 53, 92
1, 47664, Note_on_c, 0, 62, 92
1, 47664, Note_on_c, 1, 50, 0
1, 47664, Note_on_c, 1, 53, 0
1, 47712, Note_on_c, 0, 62, 0
1, 47712, Note_on_c, 0, 64, 92
1, 47760, Note_on_c, 0, 64, 0
1, 47760, Note_on_c, 0, 65, 92
1, 47808, Note_on_c, 0, 65, 0
1, 47808, Note_on_c, 0, 67, 92
1, 47856, Note_on_c, 0, 67, 0
1, 47856, Note_on_c, 0, 69, 92
1, 47904, Note_on_c, 0, 69, 0
1, 47904, Note_on_c, 0, 71, 92
1, 47952, Note_on_c, 0, 71, 0
1, 47952, Note_on_c, 0, 73, 92
1, 48000, Note_on_c, 0, 73, 0
1, 48000, Note_on_c, 0, 74, 92
1, 48048, Note_on_c, 0, 74, 0
1, 48048, Note_on_c, 1, 62, 92
1, 48096, Note_on_c, 1, 62, 0
1, 48096, Note_on_c, 1, 65, 92
1, 48144, Note_on_c, 1, 65, 0
1, 48144, Note_on_c, 1, 64, 92
1, 48192, Note_on_c, 1, 64, 0
1, 48192, Note_on_c, 1, 62, 92
1, 48240, Note_on_c, 1, 62, 0
1, 48240, Note_on_c, 1, 60, 92
1, 48288, Note_on_c, 1, 60, 0
1, 48288, Note_on_c, 1, 59, 92
1, 48336, Note_on_c, 1, 59, 0
1, 48336, Note_on_c, 1, 57, 92
1, 48384, Note_on_c, 1, 57, 0
1, 48384, Note_on_c, 1, 56, 92
1, 48432, Note_on_c, 0, 71, 92
1, 48432, Note_on_c, 1, 56, 0
1, 48480, Note_on_c, 0, 71, 0
1, 48480, Note_on_c, 0, 72, 92
1, 48528, Note_on_c, 0, 72, 0
1, 48528, Note_on_c, 0, 74, 92
1, 48576, Note_on_c, 0, 74, 0
1, 48576, Note_on_c, 0, 76, 92
1, 48624, Note_on_c, 0, 76, 0
1, 48624, Note_on_c, 0, 78, 92
1, 48672, Note_on_c, 0, 78, 0
1, 48672, Note_on_c, 0, 80, 92
1, 48720, Note_on_c, 0, 80, 0
1, 48720, Note_on_c, 0, 81, 92
1, 48768, Note_on_c, 0, 81, 0
1, 48768, Note_on_c, 0, 83, 92
1, 48816, Note_on_c, 0, 83, 0
1, 48816, Note_on_c, 1, 56, 92
1, 48864, Note_on_c, 1, 56, 0
1, 48864, Note_on_c, 1, 59, 92
1, 48912, Note_on_c, 1, 59, 0
1, 48912, Note_on_c, 1, 57, 92
1, 48960, Note_on_c, 1, 57, 0
1, 48960, Note_on_c, 1, 56, 92
1, 49008, Note_on_c, 1, 56, 0
1, 49008, Note_on_c, 1, 53, 92
1, 49056, Note_on_c, 1, 53, 0
1, 49056, Note_on_c, 1, 52, 92
1, 49104, Note_on_c, 1, 52, 0
1, 49104, Note_on_c, 1, 50, 92
1, 49152, Note_on_c, 1, 50, 0
1, 49152, Note_on_c, 1, 48, 92
1, 49200, Note_on_c, 0, 81, 92
1, 49248, Note_on_c, 0, 81, 0
1, 49248, Note_on_c, 0, 88, 92
1, 49296, Note_on_c, 0, 88, 0
1, 49296, Note_on_c, 0, 86, 92
1, 49312, Note_on_c, 1, 48, 0
1, 49344, Note_on_c, 0, 86, 0
1, 49344, Note_on_c, 0, 84, 92
1, 49392, Note_on_c, 0, 84, 0
1, 49392, Note_on_c, 0, 83, 92
1, 49440, Note_on_c, 0, 83, 0
1, 49440, Note_on_c, 0, 81, 92
1, 49488, Note_on_c, 0, 81, 0
1, 49488, Note_on_c, 0, 79, 92
1, 49536, Note_on_c, 0, 79, 0
1, 49536, Note_on_c, 0, 77, 92
1, 49584, Note_on_c, 0, 77, 0
1, 49584, Note_on_c, 1, 62, 92
1, 49632, Note_on_c, 1, 62, 0
1, 49632, Note_on_c, 1, 69, 92
1, 49680, Note_on_c, 1, 69, 0
1, 49680, Note_on_c, 1, 67, 92
1, 49728, Note_on_c, 1, 67, 0
1, 49728, Note_on_c, 1, 65, 92
1, 49776, Note_on_c, 1, 65, 0
1, 49776, Note_on_c, 1, 64, 92
1, 49824, Note_on_c, 1, 64, 0
1, 49824, Note_on_c, 1, 62, 92
1, 49872, Note_on_c, 1, 62, 0
1, 49872, Note_on_c, 1, 60, 92
1, 49920, Note_on_c, 1, 60, 0
1, 49920, Note_on_c, 1, 59, 92
1, 49968, Note_on_c, 0, 79, 92
1, 49968, Note_on_c, 1, 59, 0
1, 50016, Note_on_c, 0, 79, 0
1, 50016, Note_on_c, 0, 86, 92
1, 50064, Note_on_c, 0, 86, 0
1, 50064, Note_on_c, 0, 84, 92
1, 50112, Note_on_c, 0, 84, 0
1, 50112, Note_on_c, 0, 83, 92
1, 50160, Note_on_c, 0, 83, 0
1, 50160, Note_on_c, 0, 81, 92
1, 50208, Note_on_c, 0, 81, 0
1, 50208, Note_on_c, 0, 79, 92
1, 50256, Note_on_c, 0, 79, 0
1, 50256, Note_on_c, 0, 77, 92
1, 50304, Note_on_c, 0, 77, 0
1, 50304, Note_on_c, 0, 76, 92
1, 50352, Note_on_c, 0, 76, 0
1, 50352, Note_on_c, 1, 60, 92
1, 50400, Note_on_c, 1, 60, 0
1, 50400, Note_on_c, 1, 67, 92
1, 50448, Note_on_c, 1, 67, 0
1, 50448, Note_on_c, 1, 65, 92
1, 50496, Note_on_c, 1, 65, 0
1, 50496, Note_on_c, 1, 64, 92
1, 50544, Note_on_c, 1, 64, 0
1, 50544, Note_on_c, 1, 62, 92
1, 50592, Note_on_c, 1, 62, 0
1, 50592, Note_on_c, 1, 60, 92
1, 50640, Note_on_c, 1, 60, 0
1, 50640, Note_on_c, 1, 59, 92
1, 50688, Note_on_c, 1, 59, 0
1, 50688, Note_on_c, 1, 57, 92
1, 50736, Note_on_c, 0, 77, 92
1, 50736, Note_on_c, 1, 57, 0
1, 50784, Note_on_c, 0, 77, 0
1, 50784, Note_on_c, 0, 84, 92
1, 50832, Note_on_c, 0, 84, 0
1, 50832, Note_on_c, 0, 83, 92
1, 50880, Note_on_c, 0, 83, 0
1, 50880, Note_on_c, 0, 81, 92
1, 50928, Note_on_c, 0, 81, 0
1, 50928, Note_on_c, 0, 79, 92
1, 50976, Note_on_c, 0, 79, 0
1, 50976, Note_on_c, 0, 77, 92
1, 51024, Note_on_c, 0, 77, 0
1, 51024, Note_on_c, 0, 76, 92
1, 51072, Note_on_c, 0, 76, 0
1, 51072, Note_on_c, 0, 74, 92
1, 51120, Note_on_c, 0, 74, 0
1, 51120, Note_on_c, 1, 59, 92
1, 51168, Note_on_c, 1, 59, 0
1, 51168, Note_on_c, 1, 65, 92
1, 51216, Note_on_c, 1, 65, 0
1, 51216, Note_on_c, 1, 64, 92
1, 51264, Note_on_c, 1, 64, 0
1, 51264, Note_on_c, 1, 62, 92
1, 51312, Note_on_c, 1, 62, 0
1, 51312, Note_on_c, 1, 60, 92
1, 51360, Note_on_c, 1, 60, 0
1, 51360, Note_on_c, 1, 59, 92
1, 51408, Note_on_c, 1, 59, 0
1, 51408, Note_on_c, 1, 57, 92
1, 51456, Note_on_c, 1, 57, 0
1, 51456, Note_on_c, 1, 56, 92
1, 51504, Note_on_c, 0, 76, 92
1, 51504, Note_on_c, 1, 56, 0
1, 51552, Note_on_c, 0, 76, 0
1, 51552, Note_on_c, 0, 83, 92
1, 51600, Note_on_c, 0, 83, 0
1, 51600, Note_on_c, 0, 81, 92
1, 51648, Note_on_c, 0, 81, 0
1, 51648, Note_on_c, 0, 80, 92
1, 51696, Note_on_c, 0, 80, 0
1, 51696, Note_on_c, 0, 77, 92
1, 51744, Note_on_c, 0, 77, 0
1, 51744, Note_on_c, 0, 76, 92
1, 51792, Note_on_c, 0, 76, 0
1, 51792, Note_on_c, 0, 74, 92
1, 51840, Note_on_c, 0, 74, 0
1, 51840, Note_on_c, 0, 72, 92
1, 51888, Note_on_c, 0, 72, 0
1, 51888, Note_on_c, 1, 57, 92
1, 51936, Note_on_c, 1, 57, 0
1, 51936, Note_on_c, 1, 60, 92
1, 51984, Note_on_c, 1, 60, 0
1, 51984, Note_on_c, 1, 59, 92
1, 52032, Note_on_c, 1, 59, 0
1, 52032, Note_on_c, 1, 57, 92
1, 52080, Note_on_c, 1, 57, 0
1, 52080, Note_on_c, 1, 55, 92
1, 52128, Note_on_c, 1, 55, 0
1, 52128, Note_on_c, 1, 53, 92
1, 52176, Note_on_c, 1, 53, 0
1, 52176, Note_on_c, 1, 52, 92
1, 52224, Note_on_c, 1, 52, 0
1, 52224, Note_on_c, 1, 50, 92
1, 52272, Note_on_c, 0, 70, 92
1, 52320, Note_on_c, 0, 70, 0
1, 52320, Note_on_c, 0, 74, 92
1, 52368, Note_on_c, 0, 74, 0
1, 52368, Note_on_c, 0, 72, 92
1, 52416, Note_on_c, 0, 72, 0
1, 52416, Note_on_c, 0, 70, 92
1, 52464, Note_on_c, 0, 70, 0
1, 52464, Note_on_c, 0, 69, 92
1, 52512, Note_on_c, 0, 69, 0
1, 52512, Note_on_c, 0, 67, 92
1, 52560, Note_on_c, 0, 67, 0
1, 52560, Note_on_c, 0, 65, 92
1, 52560, Note_on_c, 1, 50, 0
1, 52608, Note_on_c, 0, 65, 0
1, 52608, Note_on_c, 0, 64, 92
1, 52608, Note_on_c, 1, 48, 92
1, 52608, Note_on_c, 1, 55, 92
1, 52608, Note_on_c, 1, 58, 92
1, 52656, Note_on_c, 0, 64, 0
1, 52656, Note_on_c, 0, 65, 92
1, 52704, Note_on_c, 0, 65, 0
1, 52704, Note_on_c, 0, 67, 92
1, 52752, Note_on_c, 0, 67, 0
1, 52752, Note_on_c, 0, 69, 92
1, 52800, Note_on_c, 0, 69, 0
1, 52800, Note_on_c, 0, 70, 92
1, 52848, Note_on_c, 0, 70, 0
1, 52848, Note_on_c, 0, 72, 92
1, 52896, Note_on_c, 0, 72, 0
1, 52896, Note_on_c, 0, 74, 92
1, 52944, Note_on_c, 0, 74, 0
1, 52944, Note_on_c, 0, 76, 92
1, 52944, Note_on_c, 1, 48, 0
1, 52944, Note_on_c, 1, 55, 0
1, 52944, Note_on_c, 1, 58, 0
1, 52992, Note_on_c, 0, 76, 0
1, 52992, Note_on_c, 0, 77, 60
1, 52992, Note_on_c, 1, 65, 45
1, 53088, Note_on_c, 1, 65, 0
1, 53088, Note_on_c, 1, 72, 45
1, 53184, Note_on_c, 1, 72, 0
1, 53184, Note_on_c, 1, 69, 45
1, 53280, Note_on_c, 1, 69, 0
1, 53280, Note_on_c, 1, 72, 45
1, 53376, Note_on_c, 0, 77, 0
1, 53376, Note_on_c, 0, 81, 60
1, 53376, Note_on_c, 1, 72, 0
1, 53376, Note_on_c, 1, 65, 45
1, 53472, Note_on_c, 1, 65, 0
1, 53472, Note_on_c, 1, 72, 45
1, 53568, Note_on_c, 0, 81, 0
1, 53568, Note_on_c, 0, 84, 60
1, 53568, Note_on_c, 1, 72, 0
1, 53568, Note_on_c, 1, 69, 45
1, 53664, Note_on_c, 1, 69, 0
1, 53664, Note_on_c, 1, 72, 45
1, 53758, Note_on_c, 1, 72, 0
1, 53760, Note_on_c, 0, 84, 0
1, 53760, Note_on_c, 0, 76, 84
1, 53760, Note_on_c, 1, 67, 45
1, 53854, Note_on_c, 1, 67, 0
1, 53856, Note_on_c, 1, 72, 45
1, 53950, Note_on_c, 1, 72, 0
1, 53952, Note_on_c, 1, 70, 45
1, 54046, Note_on_c, 1, 70, 0
1, 54048, Note_on_c, 0, 76, 0
1, 54048, Note_on_c, 0, 77, 60
1, 54048, Note_on_c, 1, 72, 45
1, 54096, Note_on_c, 0, 77, 0
1, 54096, Note_on_c, 0, 79, 60
1, 54142, Note_on_c, 1, 72, 0
1, 54144, Note_on_c, 0, 79, 0
1, 54144, Note_on_c, 0, 77, 60
1, 54144, Note_on_c, 1, 65, 45
1, 54238, Note_on_c, 1, 65, 0
1, 54240, Note_on_c, 1, 72, 45
1, 54304, Note_on_c, 0, 77, 0
1, 54334, Note_on_c, 1, 72, 0
1, 54336, Note_on_c, 1, 69, 45
1, 54430, Note_on_c, 1, 69, 0
1, 54432, Note_on_c, 1, 72, 45
1, 54526, Note_on_c, 1, 72, 0
1, 54528, Note_on_c, 0, 86, 84
1, 54528, Note_on_c, 1, 65, 45
1, 54622, Note_on_c, 1, 65, 0
1, 54624, Note_on_c, 1, 74, 45
1, 54718, Note_on_c, 1, 74, 0
1, 54720, Note_on_c, 1, 70, 45
1, 54814, Note_on_c, 1, 70, 0
1, 54816, Note_on_c, 1, 74, 45
1, 54910, Note_on_c, 1, 74, 0
1, 54912, Note_on_c, 0, 86, 0
1, 54912, Note_on_c, 0, 84, 60
1, 54912, Note_on_c, 1, 65, 45
1, 55006, Note_on_c, 1, 65, 0
1, 55008, Note_on_c, 1, 72, 45
1, 55102, Note_on_c, 1, 72, 0
1, 55104, Note_on_c, 0, 84, 0
1, 55104, Note_on_c, 0, 89, 60
1, 55104, Note_on_c, 1, 69, 45
1, 55198, Note_on_c, 1, 69, 0
1, 55200, Note_on_c, 1, 72, 45
1, 55294, Note_on_c, 1, 72, 0
1, 55296, Note_on_c, 0, 89, 0
1, 55296, Note_on_c, 0, 84, 84
1, 55296, Note_on_c, 1, 64, 45
1, 55390, Note_on_c, 1, 64, 0
1, 55392, Note_on_c, 1, 72, 45
1, 55486, Note_on_c, 1, 72, 0
1, 55488, Note_on_c, 0, 84, 0
1, 55488, Note_on_c, 0, 82, 60
1, 55488, Note_on_c, 1, 67, 45
1, 55520, Note_on_c, 0, 82, 0
1, 55520, Note_on_c, 0, 84, 60
1, 55552, Note_on_c, 0, 84, 0
1, 55552, Note_on_c, 0, 82, 60
1, 55582, Note_on_c, 1, 67, 0
1, 55584, Note_on_c, 0, 82, 0
1, 55584, Note_on_c, 0, 81, 60
1, 55584, Note_on_c, 1, 72, 45
1, 55632, Note_on_c, 0, 81, 0
1, 55632, Note_on_c, 0, 82, 60
1, 55678, Note_on_c, 1, 72, 0
1, 55680, Note_on_c, 0, 82, 0
1, 55680, Note_on_c, 0, 81, 60
1, 55680, Note_on_c, 1, 65, 45
1, 55774, Note_on_c, 1, 65, 0
1, 55776, Note_on_c, 1, 72, 45
1, 55840, Note_on_c, 0, 81, 0
1, 55870, Note_on_c, 1, 72, 0
1, 55872, Note_on_c, 1, 69, 45
1, 55966, Note_on_c, 1, 69, 0
1, 55968, Note_on_c, 1, 72, 45
1, 56062, Note_on_c, 1, 72, 0
1, 56064, Note_on_c, 0, 74, 45
1, 56064, Note_on_c, 1, 70, 45
1, 56160, Note_on_c, 0, 74, 0
1, 56160, Note_on_c, 0, 76, 45
1, 56208, Note_on_c, 0, 76, 0
1, 56208, Note_on_c, 0, 77, 45
1, 56224, Note_on_c, 1, 70, 0
1, 56256, Note_on_c, 0, 77, 0
1, 56256, Note_on_c, 0, 79, 45
1, 56304, Note_on_c, 0, 79, 0
1, 56304, Note_on_c, 0, 81, 45
1, 56352, Note_on_c, 0, 81, 0
1, 56352, Note_on_c, 0, 82, 45
1, 56400, Note_on_c, 0, 82, 0
1, 56400, Note_on_c, 0, 84, 45
1, 56448, Note_on_c, 0, 84, 0
1, 56448, Note_on_c, 0, 86, 45
1, 56496, Note_on_c, 0, 86, 0
1, 56496, Note_on_c, 0, 84, 45
1, 56544, Note_on_c, 0, 84, 0
1, 56544, Note_on_c, 0, 82, 45
1, 56592, Note_on_c, 0, 82, 0
1, 56592, Note_on_c, 0, 81, 45
1, 56640, Note_on_c, 0, 81, 0
1, 56640, Note_on_c, 0, 79, 45
1, 56640, Note_on_c, 1, 58, 45
1, 56640, Note_on_c, 1, 65, 45
1, 56688, Note_on_c, 0, 79, 0
1, 56688, Note_on_c, 0, 77, 45
1, 56688, Note_on_c, 1, 58, 0
1, 56688, Note_on_c, 1, 65, 0
1, 56736, Note_on_c, 0, 77, 0
1, 56736, Note_on_c, 0, 76, 45
1, 56784, Note_on_c, 0, 76, 0
1, 56784, Note_on_c, 0, 74, 45
1, 56832, Note_on_c, 0, 74, 0
1, 56832, Note_on_c, 0, 72, 45
1, 56832, Note_on_c, 1, 57, 45
1, 56832, Note_on_c, 1, 65, 45
1, 56880, Note_on_c, 1, 57, 0
1, 56880, Note_on_c, 1, 65, 0
1, 56928, Note_on_c, 0, 72, 0
1, 56928, Note_on_c, 0, 74, 45
1, 56976, Note_on_c, 0, 74, 0
1, 56976, Note_on_c, 0, 76, 45
1, 57024, Note_on_c, 0, 76, 0
1, 57024, Note_on_c, 0, 77, 45
1, 57072, Note_on_c, 0, 77, 0
1, 57072, Note_on_c, 0, 79, 45
1, 57120, Note_on_c, 0, 79, 0
1, 57120, Note_on_c, 0, 81, 45
1, 57168, Note_on_c, 0, 81, 0
1, 57168, Note_on_c, 0, 82, 45
1, 57216, Note_on_c, 0, 82, 0
1, 57216, Note_on_c, 0, 84, 45
1, 57264, Note_on_c, 0, 84, 0
1, 57264, Note_on_c, 0, 82, 45
1, 57312, Note_on_c, 0, 82, 0
1, 57312, Note_on_c, 0, 81, 45
1, 57360, Note_on_c, 0, 81, 0
1, 57360, Note_on_c, 0, 79, 45
1, 57408, Note_on_c, 0, 79, 0
1, 57408, Note_on_c, 0, 77, 45
1, 57408, Note_on_c, 1, 57, 45
1, 57408, Note_on_c, 1, 65, 45
1, 57456, Note_on_c, 0, 77, 0
1, 57456, Note_on_c, 0, 76, 45
1, 57456, Note_on_c, 1, 57, 0
1, 57456, Note_on_c, 1, 65, 0
1, 57504, Note_on_c, 0, 76, 0
1, 57504, Note_on_c, 0, 74, 45
1, 57552, Note_on_c, 0, 74, 0
1, 57552, Note_on_c, 0, 72, 45
1, 57600, Note_on_c, 0, 72, 0
1, 57600, Note_on_c, 0, 70, 45
1, 57600, Note_on_c, 1, 55, 45
1, 57600, Note_on_c, 1, 65, 45
1, 57648, Note_on_c, 1, 55, 0
1, 57648, Note_on_c, 1, 65, 0
1, 57696, Note_on_c, 0, 70, 0
1, 57696, Note_on_c, 0, 72, 45
1, 57744, Note_on_c, 0, 72, 0
1, 57744, Note_on_c, 0, 74, 45
1, 57792, Note_on_c, 0, 74, 0
1, 57792, Note_on_c, 0, 76, 45
1, 57840, Note_on_c, 0, 76, 0
1, 57840, Note_on_c, 0, 77, 45
1, 57888, Note_on_c, 0, 77, 0
1, 57888, Note_on_c, 0, 79, 45
1, 57936, Note_on_c, 0, 79, 0
1, 57936, Note_on_c, 0, 81, 45
1, 57984, Note_on_c, 0, 81, 0
1, 57984, Note_on_c, 0, 82, 45
1, 58032, Note_on_c, 0, 82, 0
1, 58032, Note_on_c, 0, 81, 45
1, 58080, Note_on_c, 0, 81, 0
1, 58080, Note_on_c, 0, 79, 45
1, 58128, Note_on_c, 0, 79, 0
1, 58128, Note_on_c, 0, 77, 45
1, 58176, Note_on_c, 0, 77, 0
1, 58176, Note_on_c, 0, 76, 45
1, 58176, Note_on_c, 1, 55, 45
1, 58176, Note_on_c, 1, 64, 45
1, 58224, Note_on_c, 0, 76, 0
1, 58224, Note_on_c, 0, 74, 45
1, 58224, Note_on_c, 1, 55, 0
1, 58224, Note_on_c, 1, 64, 0
1, 58272, Note_on_c, 0, 74, 0
1, 58272, Note_on_c, 0, 72, 45
1, 58320, Note_on_c, 0, 72, 0
1, 58320, Note_on_c, 0, 70, 45
1, 58368, Note_on_c, 0, 70, 0
1, 58368, Note_on_c, 0, 69, 45
1, 58368, Note_on_c, 1, 53, 45
1, 58368, Note_on_c, 1, 65, 45
1, 58416, Note_on_c, 1, 53, 0
1, 58416, Note_on_c, 1, 65, 0
1, 58464, Note_on_c, 0, 69, 0
1, 58464, Note_on_c, 0, 70, 45
1, 58512, Note_on_c, 0, 70, 0
1, 58512, Note_on_c, 0, 72, 45
1, 58560, Note_on_c, 0, 72, 0
1, 58560, Note_on_c, 0, 74, 45
1, 58608, Note_on_c, 0, 74, 0
1, 58608, Note_on_c, 0, 76, 45
1, 58656, Note_on_c, 0, 76, 0
1, 58656, Note_on_c, 0, 77, 45
1, 58704, Note_on_c, 0, 77, 0
1, 58704, Note_on_c, 0, 79, 45
1, 58752, Note_on_c, 0, 79, 0
1, 58752, Note_on_c, 0, 81, 45
1, 58800, Note_on_c, 0, 81, 0
1, 58800, Note_on_c, 0, 79, 45
1, 58848, Note_on_c, 0, 79, 0
1, 58848, Note_on_c, 0, 77, 45
1, 58896, Note_on_c, 0, 77, 0
1, 58896, Note_on_c, 0, 76, 45
1, 58944, Note_on_c, 0, 76, 0
1, 58944, Note_on_c, 0, 74, 45
1, 58992, Note_on_c, 0, 74, 0
1, 58992, Note_on_c, 0, 72, 45
1, 59040, Note_on_c, 0, 72, 0
1, 59040, Note_on_c, 0, 70, 45
1, 59088, Note_on_c, 0, 70, 0
1, 59088, Note_on_c, 0, 69, 45
1, 59136, Note_on_c, 0, 69, 0
1, 59136, Note_on_c, 0, 81, 75
1, 59136, Note_on_c, 1, 53, 75
1, 59184, Note_on_c, 0, 81, 0
1, 59232, Note_on_c, 1, 53, 0
1, 59232, Note_on_c, 1, 55, 75
1, 59280, Note_on_c, 1, 55, 0
1, 59280, Note_on_c, 1, 57, 75
1, 59328, Note_on_c, 1, 57, 0
1, 59328, Note_on_c, 1, 58, 75
1, 59376, Note_on_c, 1, 58, 0
1, 59376, Note_on_c, 1, 60, 75
1, 59424, Note_on_c, 1, 60, 0
1, 59424, Note_on_c, 1, 62, 75
1, 59472, Note_on_c, 1, 62, 0
1, 59472, Note_on_c, 1, 64, 75
1, 59520, Note_on_c, 1, 64, 0
1, 59520, Note_on_c, 1, 65, 75
1, 59568, Note_on_c, 1, 65, 0
1, 59568, Note_on_c, 1, 64, 75
1, 59616, Note_on_c, 1, 64, 0
1, 59616, Note_on_c, 1, 62, 75
1, 59664, Note_on_c, 1, 62, 0
1, 59664, Note_on_c, 1, 60, 75
1, 59712, Note_on_c, 0, 72, 75
1, 59712, Note_on_c, 0, 81, 75
1, 59712, Note_on_c, 1, 60, 0
1, 59712, Note_on_c, 1, 58, 75
1, 59760, Note_on_c, 0, 72, 0
1, 59760, Note_on_c, 0, 81, 0
1, 59760, Note_on_c, 1, 58, 0
1, 59760, Note_on_c, 1, 57, 75
1, 59808, Note_on_c, 1, 57, 0
1, 59808, Note_on_c, 1, 55, 75
1, 59856, Note_on_c, 1, 55, 0
1, 59856, Note_on_c, 1, 53, 75
1, 59904, Note_on_c, 0, 72, 75
1, 59904, Note_on_c, 0, 79, 75
1, 59904, Note_on_c, 1, 53, 0
1, 59904, Note_on_c, 1, 52, 75
1, 59952, Note_on_c, 0, 72, 0
1, 59952, Note_on_c, 0, 79, 0
1, 60000, Note_on_c, 1, 52, 0
1, 60000, Note_on_c, 1, 53, 75
1, 60048, Note_on_c, 1, 53, 0
1, 60048, Note_on_c, 1, 55, 75
1, 60096, Note_on_c, 1, 55, 0
1, 60096, Note_on_c, 1, 57, 75
1, 60144, Note_on_c, 1, 57, 0
1, 60144, Note_on_c, 1, 59, 75
1, 60192, Note_on_c, 1, 59, 0
1, 60192, Note_on_c, 1, 60, 75
1, 60240, Note_on_c, 1, 60, 0
1, 60240, Note_on_c, 1, 62, 75
1, 60288, Note_on_c, 1, 62, 0
1, 60288, Note_on_c, 1, 64, 75
1, 60336, Note_on_c, 1, 64, 0
1, 60336, Note_on_c, 1, 62, 75
1, 60384, Note_on_c, 1, 62, 0
1, 60384, Note_on_c, 1, 60, 75
1, 60432, Note_on_c, 1, 60, 0
1, 60432, Note_on_c, 1, 59, 75
1, 60480, Note_on_c, 0, 72, 75
1, 60480, Note_on_c, 0, 79, 75
1, 60480, Note_on_c, 1, 59, 0
1, 60480, Note_on_c, 1, 57, 75
1, 60528, Note_on_c, 0, 72, 0
1, 60528, Note_on_c, 0, 79, 0
1, 60528, Note_on_c, 1, 57, 0
1, 60528, Note_on_c, 1, 55, 75
1, 60576, Note_on_c, 1, 55, 0
1, 60576, Note_on_c, 1, 53, 75
1, 60624, Note_on_c, 1, 53, 0
1, 60624, Note_on_c, 1, 52, 75
1, 60672, Note_on_c, 0, 72, 75
1, 60672, Note_on_c, 0, 77, 75
1, 60672, Note_on_c, 1, 52, 0
1, 60672, Note_on_c, 1, 50, 75
1, 60720, Note_on_c, 0, 72, 0
1, 60720, Note_on_c, 0, 77, 0
1, 60768, Note_on_c, 1, 50, 0
1, 60768, Note_on_c, 1, 52, 75
1, 60816, Note_on_c, 1, 52, 0
1, 60816, Note_on_c, 1, 53, 75
1, 60864, Note_on_c, 1, 53, 0
1, 60864, Note_on_c, 1, 55, 75
1, 60912, Note_on_c, 1, 55, 0
1, 60912, Note_on_c, 1, 57, 75
1, 60960, Note_on_c, 1, 57, 0
1, 60960, Note_on_c, 1, 59, 75
1, 61008, Note_on_c, 1, 59, 0
1, 61008, Note_on_c, 1, 60, 75
1, 61056, Note_on_c, 1, 60, 0
1, 61056, Note_on_c, 1, 62, 75
1, 61104, Note_on_c, 1, 62, 0
1, 61104, Note_on_c, 1, 60, 75
1, 61152, Note_on_c, 1, 60, 0
1, 61152, Note_on_c, 1, 59, 75
1, 61200, Note_on_c, 1, 59, 0
1, 61200, Note_on_c, 1, 57, 75
1, 61248, Note_on_c, 0, 71, 75
1, 61248, Note_on_c, 0, 77, 75
1, 61248, Note_on_c, 1, 57, 0
1, 61248, Note_on_c, 1, 55, 75
1, 61296, Note_on_c, 0, 71, 0
1, 61296, Note_on_c, 0, 77, 0
1, 61296, Note_on_c, 1, 55, 0
1, 61296, Note_on_c, 1, 53, 75
1, 61344, Note_on_c, 1, 53, 0
1, 61344, Note_on_c, 1, 52, 75
1, 61392, Note_on_c, 1, 52, 0
1, 61392, Note_on_c, 1, 50, 75
1, 61440, Note_on_c, 0, 72, 75
1, 61440, Note_on_c, 0, 76, 75
1, 61440, Note_on_c, 1, 50, 0
1, 61440, Note_on_c, 1, 48, 75
1, 61488, Note_on_c, 0, 72, 0
1, 61488, Note_on_c, 0, 76, 0
1, 61536, Note_on_c, 1, 48, 0
1, 61536, Note_on_c, 1, 50, 75
1, 61584, Note_on_c, 1, 50, 0
1, 61584, Note_on_c, 1, 52, 75
1, 61632, Note_on_c, 1, 52, 0
1, 61632, Note_on_c, 1, 53, 75
1, 61680, Note_on_c, 1, 53, 0
1, 61680, Note_on_c, 1, 55, 75
1, 61728, Note_on_c, 1, 55, 0
1, 61728, Note_on_c, 1, 57, 75
1, 61776, Note_on_c, 1, 57, 0
1, 61776, Note_on_c, 1, 59, 75
1, 61824, Note_on_c, 1, 59, 0
1, 61824, Note_on_c, 1, 60, 75
1, 61872, Note_on_c, 1, 60, 0
1, 61872, Note_on_c, 1, 59, 75
1, 61920, Note_on_c, 1, 59, 0
1, 61920, Note_on_c, 1, 57, 75
1, 61968, Note_on_c, 1, 57, 0
1, 61968, Note_on_c, 1, 55, 75
1, 62016, Note_on_c, 0, 72, 75
1, 62016, Note_on_c, 0, 76, 75
1, 62016, Note_on_c, 1, 55, 0
1, 62016, Note_on_c, 1, 53, 75
1, 62064, Note_on_c, 0, 72, 0
1, 62064, Note_on_c, 0, 76, 0
1, 62064, Note_on_c, 1, 53, 0
1, 62064, Note_on_c, 1, 52, 75
1, 62112, Note_on_c, 1, 52, 0
1, 62112, Note_on_c, 1, 50, 75
1, 62160, Note_on_c, 1, 50, 0
1, 62160, Note_on_c, 1, 48, 75
1, 62208, Note_on_c, 0, 74, 45
1, 62208, Note_on_c, 1, 48, 0
1, 62208, Note_on_c, 1, 53, 75
1, 62208, Note_on_c, 1, 57, 75
1, 62256, Note_on_c, 0, 74, 0
1, 62256, Note_on_c, 0, 62, 45
1, 62304, Note_on_c, 0, 62, 0
1, 62304, Note_on_c, 0, 64, 45
1, 62352, Note_on_c, 0, 64, 0
1, 62352, Note_on_c, 0, 65, 45
1, 62400, Note_on_c, 0, 65, 0
1, 62400, Note_on_c, 0, 67, 45
1, 62448, Note_on_c, 0, 67, 0
1, 62448, Note_on_c, 0, 69, 45
1, 62496, Note_on_c, 0, 69, 0
1, 62496, Note_on_c, 0, 71, 45
1, 62544, Note_on_c, 0, 71, 0
1, 62544, Note_on_c, 0, 73, 45
1, 62592, Note_on_c, 0, 73, 0
1, 62592, Note_on_c, 0, 74, 45
1, 62640, Note_on_c, 0, 74, 0
1, 62640, Note_on_c, 0, 69, 45
1, 62688, Note_on_c, 0, 69, 0
1, 62688, Note_on_c, 0, 71, 45
1, 62736, Note_on_c, 0, 71, 0
1, 62736, Note_on_c, 0, 73, 45
1, 62784, Note_on_c, 0, 73, 0
1, 62784, Note_on_c, 0, 74, 45
1, 62832, Note_on_c, 0, 74, 0
1, 62832, Note_on_c, 0, 76, 47
1, 62880, Note_on_c, 0, 76, 0
1, 62880, Note_on_c, 0, 77, 49
1, 62928, Note_on_c, 0, 77, 0
1, 62928, Note_on_c, 0, 79, 51
1, 62928, Note_on_c, 1, 53, 0
1, 62928, Note_on_c, 1, 57, 0
1, 62976, Note_on_c, 0, 79, 0
1, 62976, Note_on_c, 0, 81, 53
1, 62976, Note_on_c, 1, 53, 75
1, 63024, Note_on_c, 0, 81, 0
1, 63024, Note_on_c, 0, 83, 55
1, 63072, Note_on_c, 0, 83, 0
1, 63072, Note_on_c, 0, 84, 57
1, 63120, Note_on_c, 0, 84, 0
1, 63120, Note_on_c, 0, 83, 59
1, 63168, Note_on_c, 0, 83, 0
1, 63168, Note_on_c, 0, 81, 61
1, 63216, Note_on_c, 0, 81, 0
1, 63216, Note_on_c, 0, 79, 63
1, 63264, Note_on_c, 0, 79, 0
1, 63264, Note_on_c, 0, 77, 65
1, 63264, Note_on_c, 1, 53, 0
1, 63264, Note_on_c, 1, 55, 81
1, 63312, Note_on_c, 0, 77, 0
1, 63312, Note_on_c, 0, 76, 67
1, 63360, Note_on_c, 0, 76, 0
1, 63360, Note_on_c, 0, 77, 69
1, 63360, Note_on_c, 1, 55, 0
1, 63360, Note_on_c, 1, 57, 83
1, 63408, Note_on_c, 0, 77, 0
1, 63408, Note_on_c, 0, 79, 71
1, 63456, Note_on_c, 0, 79, 0
1, 63456, Note_on_c, 0, 81, 74
1, 63504, Note_on_c, 0, 81, 0
1, 63504, Note_on_c, 0, 79, 77
1, 63552, Note_on_c, 0, 79, 0
1, 63552, Note_on_c, 0, 77, 80
1, 63600, Note_on_c, 0, 77, 0
1, 63600, Note_on_c, 0, 76, 83
1, 63648, Note_on_c, 0, 76, 0
1, 63648, Note_on_c, 0, 74, 86
1, 63648, Note_on_c, 1, 57, 0
1, 63648, Note_on_c, 1, 54, 89
1, 63696, Note_on_c, 0, 74, 0
1, 63696, Note_on_c, 0, 72, 89
1, 63742, Note_on_c, 1, 54, 0
1, 63744, Note_on_c, 0, 72, 0
1, 63744, Note_on_c, 0, 71, 127
1, 63744, Note_on_c, 1, 43, 92
1, 63792, Note_on_c, 1, 43, 0
1, 63792, Note_on_c, 1, 47, 92
1, 63840, Note_on_c, 0, 71, 0
1, 63840, Note_on_c, 0, 79, 92
1, 63840, Note_on_c, 1, 47, 0
1, 63840, Note_on_c, 1, 50, 92
1, 63872, Note_on_c, 0, 79, 0
1, 63888, Note_on_c, 1, 50, 0
1, 63888, Note_on_c, 1, 55, 92
1, 63936, Note_on_c, 0, 76, 92
1, 63936, Note_on_c, 1, 55, 0
1, 63936, Note_on_c, 1, 43, 92
1, 63968, Note_on_c, 0, 76, 0
1, 63984, Note_on_c, 1, 43, 0
1, 63984, Note_on_c, 1, 48, 92
1, 64032, Note_on_c, 0, 72, 92
1, 64032, Note_on_c, 1, 48, 0
1, 64032, Note_on_c, 1, 52, 92
1, 64064, Note_on_c, 0, 72, 0
1, 64080, Note_on_c, 1, 52, 0
1, 64080, Note_on_c, 1, 55, 92
1, 64128, Note_on_c, 0, 74, 127
1, 64128, Note_on_c, 1, 55, 0
1, 64128, Note_on_c, 1, 43, 92
1, 64176, Note_on_c, 1, 43, 0
1, 64176, Note_on_c, 1, 47, 92
1, 64224, Note_on_c, 0, 74, 0
1, 64224, Note_on_c, 0, 79, 92
1, 64224, Note_on_c, 1, 47, 0
1, 64224, Note_on_c, 1, 50, 92
1, 64256, Note_on_c, 0, 79, 0
1, 64272, Note_on_c, 1, 50, 0
1, 64272, Note_on_c, 1, 55, 92
1, 64320, Note_on_c, 0, 76, 92
1, 64320, Note_on_c, 1, 55, 0
1, 64320, Note_on_c, 1, 43, 92
1, 64352, Note_on_c, 0, 76, 0
1, 64368, Note_on_c, 1, 43, 0
1, 64368, Note_on_c, 1, 48, 92
1, 64416, Note_on_c, 0, 72, 92
1, 64416, Note_on_c, 1, 48, 0
1, 64416, Note_on_c, 1, 52, 92
1, 64448, Note_on_c, 0, 72, 0
1, 64464, Note_on_c, 1, 52, 0
1, 64464, Note_on_c, 1, 55, 92
1, 64512, Note_on_c, 0, 74, 92
1, 64512, Note_on_c, 1, 55, 0
1, 64512, Note_on_c, 1, 43, 92
1, 64560, Note_on_c, 0, 74, 0
1, 64560, Note_on_c, 1, 43, 0
1, 64704, Note_on_c, 0, 71, 92
1, 64704, Note_on_c, 0, 74, 92
1, 64704, Note_on_c, 0, 79, 92
1, 64704, Note_on_c, 1, 55, 92
1, 64752, Note_on_c, 0, 71, 0
1, 64752, Note_on_c, 0, 74, 0
1, 64752, Note_on_c, 0, 79, 0
1, 64752, Note_on_c, 1, 55, 0
1, 64896, Note_on_c, 0, 67, 92
1, 64896, Note_on_c, 1, 43, 92
1, 64944, Note_on_c, 0, 67, 0
1, 64944, Note_on_c, 1, 43, 0
1, 65280, Note_on_c, 1, 66, 63
1, 65328, Note_on_c, 1, 66, 0
1, 65328, Note_on_c, 1, 67, 45
1, 65376, Note_on_c, 1, 67, 0
1, 65376, Note_on_c, 1, 66, 45
1, 65424, Note_on_c, 1, 66, 0
1, 65424, Note_on_c, 1, 67, 45
1, 65472, Note_on_c, 1, 67, 0
1, 65472, Note_on_c, 1, 66, 45
1, 65520, Note_on_c, 1, 66, 0
1, 65520, Note_on_c, 1, 67, 45
1, 65568, Note_on_c, 1, 67, 0
1, 65568, Note_on_c, 1, 66, 45
1, 65616, Note_on_c, 1, 66, 0
1, 65616, Note_on_c, 1, 67, 45
1, 65664, Note_on_c, 1, 67, 0
1, 65664, Note_on_c, 1, 65, 63
1, 65712, Note_on_c, 1, 65, 0
1, 65712, Note_on_c, 1, 67, 45
1, 65760, Note_on_c, 1, 67, 0
1, 65760, Note_on_c, 1, 65, 45
1, 65808, Note_on_c, 1, 65, 0
1, 65808, Note_on_c, 1, 67, 45
1, 65856, Note_on_c, 1, 67, 0
1, 65856, Note_on_c, 1, 65, 45
1, 65904, Note_on_c, 1, 65, 0
1, 65904, Note_on_c, 1, 67, 45
1, 65952, Note_on_c, 1, 67, 0
1, 65952, Note_on_c, 1, 65, 45
1, 66000, Note_on_c, 1, 65, 0
1, 66000, Note_on_c, 1, 67, 45
1, 66046, Note_on_c, 1, 67, 0
1, 66048, Note_on_c, 0, 79, 84
1, 66048, Note_on_c, 1, 64, 63
1, 66094, Note_on_c, 1, 64, 0
1, 66096, Note_on_c, 1, 67, 45
1, 66142, Note_on_c, 1, 67, 0
1, 66144, Note_on_c, 0, 79, 0
1, 66144, Note_on_c, 0, 76, 60
1, 66144, Note_on_c, 1, 64, 45
1, 66176, Note_on_c, 0, 76, 0
1, 66190, Note_on_c, 1, 64, 0
1, 66192, Note_on_c, 1, 67, 45
1, 66238, Note_on_c, 1, 67, 0
1, 66240, Note_on_c, 0, 72, 60
1, 66240, Note_on_c, 1, 64, 45
1, 66286, Note_on_c, 1, 64, 0
1, 66288, Note_on_c, 1, 67, 45
1, 66334, Note_on_c, 1, 67, 0
1, 66336, Note_on_c, 1, 64, 45
1, 66382, Note_on_c, 1, 64, 0
1, 66384, Note_on_c, 1, 67, 45
1, 66430, Note_on_c, 1, 67, 0
1, 66432, Note_on_c, 1, 64, 45
1, 66478, Note_on_c, 1, 64, 0
1, 66480, Note_on_c, 1, 67, 45
1, 66526, Note_on_c, 1, 67, 0
1, 66528, Note_on_c, 0, 72, 0
1, 66528, Note_on_c, 0, 74, 60
1, 66528, Note_on_c, 1, 64, 45
1, 66574, Note_on_c, 1, 64, 0
1, 66576, Note_on_c, 0, 74, 0
1, 66576, Note_on_c, 0, 76, 60
1, 66576, Note_on_c, 1, 67, 45
1, 66622, Note_on_c, 1, 67, 0
1, 66624, Note_on_c, 0, 76, 0
1, 66624, Note_on_c, 0, 74, 60
1, 66624, Note_on_c, 1, 64, 45
1, 66670, Note_on_c, 1, 64, 0
1, 66672, Note_on_c, 1, 67, 45
1, 66718, Note_on_c, 1, 67, 0
1, 66720, Note_on_c, 0, 74, 0
1, 66720, Note_on_c, 0, 72, 60
1, 66720, Note_on_c, 1, 64, 45
1, 66752, Note_on_c, 0, 72, 0
1, 66766, Note_on_c, 1, 64, 0
1, 66768, Note_on_c, 1, 67, 45
1, 66814, Note_on_c, 1, 67, 0
1, 66816, Note_on_c, 0, 74, 84
1, 66816, Note_on_c, 1, 65, 45
1, 66840, Note_on_c, 0, 74, 0
1, 66840, Note_on_c, 0, 72, 60
1, 66862, Note_on_c, 1, 65, 0
1, 66864, Note_on_c, 0, 72, 0
1, 66864, Note_on_c, 0, 74, 60
1, 66864, Note_on_c, 1, 67, 45
1, 66888, Note_on_c, 0, 74, 0
1, 66888, Note_on_c, 0, 72, 60
1, 66910, Note_on_c, 1, 67, 0
1, 66912, Note_on_c, 0, 72, 0
1, 66912, Note_on_c, 0, 74, 60
1, 66912, Note_on_c, 1, 64, 45
1, 66936, Note_on_c, 0, 74, 0
1, 66936, Note_on_c, 0, 72, 60
1, 66958, Note_on_c, 1, 64, 0
1, 66960, Note_on_c, 0, 72, 0
1, 66960, Note_on_c, 0, 71, 60
1, 66960, Note_on_c, 1, 67, 45
1, 66992, Note_on_c, 0, 71, 0
1, 67006, Note_on_c, 1, 67, 0
1, 67008, Note_on_c, 0, 71, 60
1, 67008, Note_on_c, 1, 62, 45
1, 67054, Note_on_c, 1, 62, 0
1, 67056, Note_on_c, 1, 67, 45
1, 67102, Note_on_c, 1, 67, 0
1, 67104, Note_on_c, 1, 64, 45
1, 67150, Note_on_c, 1, 64, 0
1, 67152, Note_on_c, 1, 67, 45
1, 67168, Note_on_c, 0, 71, 0
1, 67198, Note_on_c, 1, 67, 0
1, 67200, Note_on_c, 1, 65, 45
1, 67246, Note_on_c, 1, 65, 0
1, 67248, Note_on_c, 1, 67, 45
1, 67294, Note_on_c, 1, 67, 0
1, 67296, Note_on_c, 1, 64, 45
1, 67342, Note_on_c, 1, 64, 0
1, 67344, Note_on_c, 1, 67, 45
1, 67390, Note_on_c, 1, 67, 0
1, 67392, Note_on_c, 1, 65, 45
1, 67438, Note_on_c, 1, 65, 0
1, 67440, Note_on_c, 1, 67, 45
1, 67486, Note_on_c, 1, 67, 0
1, 67488, Note_on_c, 1, 62, 45
1, 67534, Note_on_c, 1, 62, 0
1, 67536, Note_on_c, 1, 67, 45
1, 67582, Note_on_c, 1, 67, 0
1, 67584, Note_on_c, 0, 79, 84
1, 67584, Note_on_c, 1, 64, 45
1, 67630, Note_on_c, 1, 64, 0
1, 67632, Note_on_c, 1, 67, 45
1, 67678, Note_on_c, 1, 67, 0
1, 67680, Note_on_c, 0, 79, 0
1, 67680, Note_on_c, 0, 76, 60
1, 67680, Note_on_c, 1, 64, 45
1, 67712, Note_on_c, 0, 76, 0
1, 67726, Note_on_c, 1, 64, 0
1, 67728, Note_on_c, 1, 67, 45
1, 67774, Note_on_c, 1, 67, 0
1, 67776, Note_on_c, 0, 72, 60
1, 67776, Note_on_c, 1, 64, 45
1, 67822, Note_on_c, 1, 64, 0
1, 67824, Note_on_c, 1, 67, 45
1, 67870, Note_on_c, 1, 67, 0
1, 67872, Note_on_c, 1, 64, 45
1, 67918, Note_on_c, 1, 64, 0
1, 67920, Note_on_c, 1, 67, 45
1, 67966, Note_on_c, 1, 67, 0
1, 67968, Note_on_c, 1, 64, 45
1, 68014, Note_on_c, 1, 64, 0
1, 68016, Note_on_c, 1, 67, 45
1, 68062, Note_on_c, 1, 67, 0
1, 68064, Note_on_c, 0, 72, 0
1, 68064, Note_on_c, 0, 74, 60
1, 68064, Note_on_c, 1, 64, 45
1, 68110, Note_on_c, 1, 64, 0
1, 68112, Note_on_c, 0, 74, 0
1, 68112, Note_on_c, 0, 76, 60
1, 68112, Note_on_c, 1, 67, 45
1, 68158, Note_on_c, 1, 67, 0
1, 68160, Note_on_c, 0, 76, 0
1, 68160, Note_on_c, 0, 74, 60
1, 68160, Note_on_c, 1, 64, 45
1, 68206, Note_on_c, 1, 64, 0
1, 68208, Note_on_c, 1, 67, 45
1, 68254, Note_on_c, 1, 67, 0
1, 68256, Note_on_c, 0, 74, 0
1, 68256, Note_on_c, 0, 72, 60
1, 68256, Note_on_c, 1, 64, 45
1, 68288, Note_on_c, 0, 72, 0
1, 68302, Note_on_c, 1, 64, 0
1, 68304, Note_on_c, 1, 67, 45
1, 68350, Note_on_c, 1, 67, 0
1, 68352, Note_on_c, 0, 74, 84
1, 68352, Note_on_c, 1, 65, 60
1, 68374, Note_on_c, 0, 74, 0
1, 68376, Note_on_c, 0, 72, 60
1, 68398, Note_on_c, 0, 72, 0
1, 68398, Note_on_c, 1, 65, 0
1, 68400, Note_on_c, 0, 74, 60
1, 68400, Note_on_c, 1, 67, 60
1, 68422, Note_on_c, 0, 74, 0
1, 68424, Note_on_c, 0, 72, 60
1, 68446, Note_on_c, 0, 72, 0
1, 68446, Note_on_c, 1, 67, 0
1, 68448, Note_on_c, 0, 74, 60
1, 68448, Note_on_c, 1, 64, 60
1, 68470, Note_on_c, 0, 74, 0
1, 68472, Note_on_c, 0, 72, 60
1, 68494, Note_on_c, 0, 72, 0
1, 68494, Note_on_c, 1, 64, 0
1, 68496, Note_on_c, 0, 71, 60
1, 68496, Note_on_c, 1, 67, 60
1, 68528, Note_on_c, 0, 71, 0
1, 68542, Note_on_c, 1, 67, 0
1, 68544, Note_on_c, 0, 71, 60
1, 68544, Note_on_c, 1, 62, 60
1, 68590, Note_on_c, 1, 62, 0
1, 68592, Note_on_c, 1, 67, 60
1, 68638, Note_on_c, 1, 67, 0
1, 68640, Note_on_c, 1, 64, 60
1, 68686, Note_on_c, 1, 64, 0
1, 68688, Note_on_c, 1, 67, 60
1, 68704, Note_on_c, 0, 71, 0
1, 68734, Note_on_c, 1, 67, 0
1, 68736, Note_on_c, 1, 65, 60
1, 68782, Note_on_c, 1, 65, 0
1, 68784, Note_on_c, 1, 67, 60
1, 68830, Note_on_c, 1, 67, 0
1, 68832, Note_on_c, 1, 64, 60
1, 68878, Note_on_c, 1, 64, 0
1, 68880, Note_on_c, 1, 67, 60
1, 68926, Note_on_c, 1, 67, 0
1, 68928, Note_on_c, 1, 65, 60
1, 68974, Note_on_c, 1, 65, 0
1, 68976, Note_on_c, 1, 67, 60
1, 69022, Note_on_c, 1, 67, 0
1, 69024, Note_on_c, 1, 62, 60
1, 69070, Note_on_c, 1, 62, 0
1, 69072, Note_on_c, 1, 67, 60
1, 69118, Note_on_c, 1, 67, 0
1, 69120, Note_on_c, 0, 79, 105
1, 69168, Note_on_c, 1, 52, 60
1, 69216, Note_on_c, 1, 52, 0
1, 69216, Note_on_c, 1, 55, 60
1, 69264, Note_on_c, 1, 55, 0
1, 69264, Note_on_c, 1, 60, 60
1, 69312, Note_on_c, 0, 79, 0
1, 69312, Note_on_c, 1, 60, 0
1, 69312, Note_on_c, 1, 64, 60
1, 69360, Note_on_c, 0, 79, 75
1, 69408, Note_on_c, 0, 79, 0
1, 69408, Note_on_c, 0, 76, 75
1, 69456, Note_on_c, 0, 76, 0
1, 69456, Note_on_c, 0, 72, 75
1, 69504, Note_on_c, 0, 72, 0
1, 69504, Note_on_c, 0, 69, 75
1, 69504, Note_on_c, 1, 64, 0
1, 69552, Note_on_c, 1, 53, 60
1, 69600, Note_on_c, 1, 53, 0
1, 69600, Note_on_c, 1, 57, 60
1, 69648, Note_on_c, 1, 57, 0
1, 69648, Note_on_c, 1, 60, 60
1, 69696, Note_on_c, 0, 69, 0
1, 69696, Note_on_c, 1, 60, 0
1, 69696, Note_on_c, 1, 65, 60
1, 69744, Note_on_c, 0, 69, 75
1, 69792, Note_on_c, 0, 69, 0
1, 69792, Note_on_c, 0, 72, 75
1, 69840, Note_on_c, 0, 72, 0
1, 69840, Note_on_c, 0, 69, 75
1, 69888, Note_on_c, 0, 69, 0
1, 69888, Note_on_c, 0, 77, 105
1, 69888, Note_on_c, 1, 65, 0
1, 69936, Note_on_c, 1, 50, 60
1, 69984, Note_on_c, 1, 50, 0
1, 69984, Note_on_c, 1, 53, 60
1, 70032, Note_on_c, 1, 53, 0
1, 70032, Note_on_c, 1, 59, 60
1, 70048, Note_on_c, 0, 77, 0
1, 70080, Note_on_c, 1, 59, 0
1, 70080, Note_on_c, 1, 62, 60
1, 70128, Note_on_c, 0, 77, 75
1, 70176, Note_on_c, 0, 77, 0
1, 70176, Note_on_c, 0, 74, 75
1, 70224, Note_on_c, 0, 74, 0
1, 70224, Note_on_c, 0, 71, 75
1, 70240, Note_on_c, 1, 62, 0
1, 70272, Note_on_c, 0, 71, 0
1, 70272, Note_on_c, 0, 67, 75
1, 70320, Note_on_c, 1, 52, 60
1, 70368, Note_on_c, 1, 52, 0
1, 70368, Note_on_c, 1, 55, 60
1, 70416, Note_on_c, 1, 55, 0
1, 70416, Note_on_c, 1, 59, 60
1, 70432, Note_on_c, 0, 67, 0
1, 70464, Note_on_c, 1, 59, 0
1, 70464, Note_on_c, 1, 64, 60
1, 70512, Note_on_c, 0, 79, 75
1, 70560, Note_on_c, 0, 79, 0
1, 70560, Note_on_c, 0, 83, 75
1, 70608, Note_on_c, 0, 83, 0
1, 70608, Note_on_c, 0, 79, 75
1, 70624, Note_on_c, 1, 64, 0
1, 70656, Note_on_c, 0, 79, 0
1, 70656, Note_on_c, 0, 88, 105
1, 70704, Note_on_c, 1, 60, 60
1, 70752, Note_on_c, 1, 60, 0
1, 70752, Note_on_c, 1, 64, 60
1, 70800, Note_on_c, 1, 64, 0
1, 70800, Note_on_c, 1, 69, 60
1, 70816, Note_on_c, 0, 88, 0
1, 70848, Note_on_c, 1, 69, 0
1, 70848, Note_on_c, 1, 72, 60
1, 70896, Note_on_c, 0, 88, 75
1, 70944, Note_on_c, 0, 88, 0
1, 70944, Note_on_c, 0, 84, 75
1, 70992, Note_on_c, 0, 84, 0
1, 70992, Note_on_c, 0, 81, 75
1, 71008, Note_on_c, 1, 72, 0
1, 71040, Note_on_c, 0, 81, 0
1, 71040, Note_on_c, 0, 77, 75
1, 71088, Note_on_c, 1, 62, 60
1, 71136, Note_on_c, 1, 62, 0
1, 71136, Note_on_c, 1, 65, 60
1, 71184, Note_on_c, 1, 65, 0
1, 71184, Note_on_c, 1, 69, 60
1, 71200, Note_on_c, 0, 77, 0
1, 71232, Note_on_c, 1, 69, 0
1, 71232, Note_on_c, 1, 74, 60
1, 71280, Note_on_c, 0, 77, 75
1, 71328, Note_on_c, 0, 77, 0
1, 71328, Note_on_c, 0, 81, 75
1, 71376, Note_on_c, 0, 81, 0
1, 71376, Note_on_c, 0, 77, 75
1, 71392, Note_on_c, 1, 74, 0
1, 71424, Note_on_c, 0, 77, 0
1, 71424, Note_on_c, 0, 86, 105
1, 71472, Note_on_c, 1, 59, 60
1, 71520, Note_on_c, 1, 59, 0
1, 71520, Note_on_c, 1, 62, 60
1, 71568, Note_on_c, 1, 62, 0
1, 71568, Note_on_c, 1, 67, 60
1, 71584, Note_on_c, 0, 86, 0
1, 71616, Note_on_c, 1, 67, 0
1, 71616, Note_on_c, 1, 71, 60
1, 71664, Note_on_c, 0, 86, 75
1, 71712, Note_on_c, 0, 86, 0
1, 71712, Note_on_c, 0, 83, 75
1, 71760, Note_on_c, 0, 83, 0
1, 71760, Note_on_c, 0, 79, 75
1, 71776, Note_on_c, 1, 71, 0
1, 71808, Note_on_c, 0, 79, 0
1, 71808, Note_on_c, 0, 76, 75
1, 71856, Note_on_c, 1, 60, 60
1, 71904, Note_on_c, 1, 60, 0
1, 71904, Note_on_c, 1, 64, 60
1, 71952, Note_on_c, 1, 64, 0
1, 71952, Note_on_c, 1, 67, 60
1, 71968, Note_on_c, 0, 76, 0
1, 72000, Note_on_c, 1, 67, 0
1, 72000, Note_on_c, 1, 72, 60
1, 72048, Note_on_c, 0, 84, 75
1, 72096, Note_on_c, 0, 84, 0
1, 72096, Note_on_c, 0, 79, 75
1, 72144, Note_on_c, 0, 79, 0
1, 72144, Note_on_c, 0, 76, 75
1, 72160, Note_on_c, 1, 72, 0
1, 72192, Note_on_c, 0, 76, 0
1, 72192, Note_on_c, 0, 74, 45
1, 72288, Note_on_c, 1, 65, 60
1, 72288, Note_on_c, 1, 69, 60
1, 72320, Note_on_c, 1, 65, 0
1, 72320, Note_on_c, 1, 69, 0
1, 72384, Note_on_c, 1, 65, 60
1, 72384, Note_on_c, 1, 69, 60
1, 72416, Note_on_c, 1, 65, 0
1, 72416, Note_on_c, 1, 69, 0
1, 72480, Note_on_c, 1, 65, 60
1, 72480, Note_on_c, 1, 69, 60
1, 72512, Note_on_c, 1, 65, 0
1, 72512, Note_on_c, 1, 69, 0
1, 72576, Note_on_c, 0, 74, 0
1, 72576, Note_on_c, 0, 73, 45
1, 72576, Note_on_c, 1, 65, 60
1, 72576, Note_on_c, 1, 69, 60
1, 72600, Note_on_c, 0, 73, 0
1, 72600, Note_on_c, 0, 74, 45
1, 72608, Note_on_c, 1, 65, 0
1, 72608, Note_on_c, 1, 69, 0
1, 72672, Note_on_c, 1, 65, 62
1, 72672, Note_on_c, 1, 69, 62
1, 72704, Note_on_c, 1, 65, 0
1, 72704, Note_on_c, 1, 69, 0
1, 72768, Note_on_c, 0, 74, 0
1, 72768, Note_on_c, 0, 73, 51
1, 72768, Note_on_c, 1, 65, 64
1, 72768, Note_on_c, 1, 69, 64
1, 72792, Note_on_c, 0, 73, 0
1, 72792, Note_on_c, 0, 74, 52
1, 72800, Note_on_c, 1, 65, 0
1, 72800, Note_on_c, 1, 69, 0
1, 72864, Note_on_c, 1, 65, 66
1, 72864, Note_on_c, 1, 69, 66
1, 72896, Note_on_c, 1, 65, 0
1, 72896, Note_on_c, 1, 69, 0
1, 72960, Note_on_c, 0, 74, 0
1, 72960, Note_on_c, 0, 81, 82
1, 73056, Note_on_c, 1, 54, 71
1, 73056, Note_on_c, 1, 60, 71
1, 73056, Note_on_c, 1, 63, 71
1, 73088, Note_on_c, 1, 54, 0
1, 73088, Note_on_c, 1, 60, 0
1, 73088, Note_on_c, 1, 63, 0
1, 73152, Note_on_c, 1, 54, 74
1, 73152, Note_on_c, 1, 60, 74
1, 73152, Note_on_c, 1, 63, 74
1, 73184, Note_on_c, 1, 54, 0
1, 73184, Note_on_c, 1, 60, 0
1, 73184, Note_on_c, 1, 63, 0
1, 73248, Note_on_c, 1, 54, 77
1, 73248, Note_on_c, 1, 60, 77
1, 73248, Note_on_c, 1, 63, 77
1, 73280, Note_on_c, 1, 54, 0
1, 73280, Note_on_c, 1, 60, 0
1, 73280, Note_on_c, 1, 63, 0
1, 73344, Note_on_c, 0, 81, 0
1, 73344, Note_on_c, 0, 80, 75
1, 73344, Note_on_c, 1, 54, 80
1, 73344, Note_on_c, 1, 60, 80
1, 73344, Note_on_c, 1, 63, 80
1, 73368, Note_on_c, 0, 80, 0
1, 73368, Note_on_c, 0, 81, 76
1, 73376, Note_on_c, 1, 54, 0
1, 73376, Note_on_c, 1, 60, 0
1, 73376, Note_on_c, 1, 63, 0
1, 73440, Note_on_c, 1, 54, 83
1, 73440, Note_on_c, 1, 60, 83
1, 73440, Note_on_c, 1, 63, 83
1, 73472, Note_on_c, 1, 54, 0
1, 73472, Note_on_c, 1, 60, 0
1, 73472, Note_on_c, 1, 63, 0
1, 73536, Note_on_c, 0, 81, 0
1, 73536, Note_on_c, 0, 80, 83
1, 73536, Note_on_c, 1, 54, 86
1, 73536, Note_on_c, 1, 60, 86
1, 73536, Note_on_c, 1, 63, 86
1, 73560, Note_on_c, 0, 80, 0
1, 73560, Note_on_c, 0, 81, 84
1, 73568, Note_on_c, 1, 54, 0
1, 73568, Note_on_c, 1, 60, 0
1, 73568, Note_on_c, 1, 63, 0
1, 73632, Note_on_c, 1, 54, 89
1, 73632, Note_on_c, 1, 60, 89
1, 73632, Note_on_c, 1, 63, 89
1, 73664, Note_on_c, 1, 54, 0
1, 73664, Note_on_c, 1, 60, 0
1, 73664, Note_on_c, 1, 63, 0
1, 73728, Note_on_c, 0, 81, 0
1, 73728, Note_on_c, 0, 79, 92
1, 73728, Note_on_c, 1, 55, 92
1, 73776, Note_on_c, 1, 55, 0
1, 73776, Note_on_c, 1, 64, 92
1, 73824, Note_on_c, 0, 79, 0
1, 73824, Note_on_c, 0, 81, 92
1, 73824, Note_on_c, 1, 64, 0
1, 73824, Note_on_c, 1, 60, 92
1, 73872, Note_on_c, 0, 81, 0
1, 73872, Note_on_c, 0, 83, 92
1, 73872, Note_on_c, 1, 60, 0
1, 73872, Note_on_c, 1, 64, 92
1, 73920, Note_on_c, 0, 83, 0
1, 73920, Note_on_c, 0, 84, 92
1, 73920, Note_on_c, 1, 64, 0
1, 73920, Note_on_c, 1, 55, 92
1, 73968, Note_on_c, 0, 84, 0
1, 73968, Note_on_c, 0, 86, 92
1, 73968, Note_on_c, 1, 55, 0
1, 73968, Note_on_c, 1, 64, 92
1, 74016, Note_on_c, 0, 86, 0
1, 74016, Note_on_c, 0, 88, 92
1, 74016, Note_on_c, 1, 64, 0
1, 74016, Note_on_c, 1, 60, 92
1, 74064, Note_on_c, 0, 88, 0
1, 74064, Note_on_c, 0, 86, 92
1, 74064, Note_on_c, 1, 60, 0
1, 74064, Note_on_c, 1, 64, 92
1, 74112, Note_on_c, 0, 86, 0
1, 74112, Note_on_c, 0, 84, 92
1, 74112, Note_on_c, 1, 64, 0
1, 74112, Note_on_c, 1, 55, 92
1, 74160, Note_on_c, 0, 84, 0
1, 74160, Note_on_c, 0, 83, 92
1, 74160, Note_on_c, 1, 55, 0
1, 74160, Note_on_c, 1, 64, 92
1, 74208, Note_on_c, 0, 83, 0
1, 74208, Note_on_c, 0, 81, 92
1, 74208, Note_on_c, 1, 64, 0
1, 74208, Note_on_c, 1, 60, 92
1, 74256, Note_on_c, 0, 81, 0
1, 74256, Note_on_c, 0, 79, 92
1, 74256, Note_on_c, 1, 60, 0
1, 74256, Note_on_c, 1, 64, 92
1, 74304, Note_on_c, 0, 79, 0
1, 74304, Note_on_c, 0, 77, 92
1, 74304, Note_on_c, 1, 64, 0
1, 74304, Note_on_c, 1, 55, 92
1, 74352, Note_on_c, 0, 77, 0
1, 74352, Note_on_c, 0, 76, 92
1, 74352, Note_on_c, 1, 55, 0
1, 74352, Note_on_c, 1, 64, 92
1, 74400, Note_on_c, 0, 76, 0
1, 74400, Note_on_c, 0, 74, 92
1, 74400, Note_on_c, 1, 64, 0
1, 74400, Note_on_c, 1, 60, 92
1, 74448, Note_on_c, 0, 74, 0
1, 74448, Note_on_c, 0, 72, 92
1, 74448, Note_on_c, 1, 60, 0
1, 74448, Note_on_c, 1, 64, 92
1, 74494, Note_on_c, 0, 72, 0
1, 74496, Note_on_c, 0, 76, 92
1, 74496, Note_on_c, 1, 64, 0
1, 74496, Note_on_c, 1, 55, 92
1, 74520, Note_on_c, 0, 76, 0
1, 74520, Note_on_c, 0, 74, 92
1, 74544, Note_on_c, 0, 74, 0
1, 74544, Note_on_c, 0, 76, 92
1, 74544, Note_on_c, 1, 55, 0
1, 74544, Note_on_c, 1, 65, 92
1, 74568, Note_on_c, 0, 76, 0
1, 74568, Note_on_c, 0, 74, 92
1, 74592, Note_on_c, 0, 74, 0
1, 74592, Note_on_c, 0, 76, 92
1, 74592, Note_on_c, 1, 65, 0
1, 74592, Note_on_c, 1, 59, 92
1, 74616, Note_on_c, 0, 76, 0
1, 74616, Note_on_c, 0, 74, 92
1, 74640, Note_on_c, 0, 74, 0
1, 74640, Note_on_c, 0, 76, 92
1, 74640, Note_on_c, 1, 59, 0
1, 74640, Note_on_c, 1, 65, 92
1, 74664, Note_on_c, 0, 76, 0
1, 74664, Note_on_c, 0, 74, 92
1, 74688, Note_on_c, 0, 74, 0
1, 74688, Note_on_c, 0, 76, 92
1, 74688, Note_on_c, 1, 65, 0
1, 74688, Note_on_c, 1, 55, 92
1, 74712, Note_on_c, 0, 76, 0
1, 74712, Note_on_c, 0, 74, 92
1, 74736, Note_on_c, 0, 74, 0
1, 74736, Note_on_c, 0, 76, 92
1, 74736, Note_on_c, 1, 55, 0
1, 74736, Note_on_c, 1, 65, 92
1, 74760, Note_on_c, 0, 76, 0
1, 74760, Note_on_c, 0, 74, 92
1, 74784, Note_on_c, 0, 74, 0
1, 74784, Note_on_c, 0, 76, 92
1, 74784, Note_on_c, 1, 65, 0
1, 74784, Note_on_c, 1, 59, 92
1, 74808, Note_on_c, 0, 76, 0
1, 74808, Note_on_c, 0, 74, 92
1, 74832, Note_on_c, 0, 74, 0
1, 74832, Note_on_c, 0, 76, 92
1, 74832, Note_on_c, 1, 59, 0
1, 74832, Note_on_c, 1, 65, 92
1, 74856, Note_on_c, 0, 76, 0
1, 74856, Note_on_c, 0, 74, 92
1, 74880, Note_on_c, 0, 74, 0
1, 74880, Note_on_c, 0, 76, 92
1, 74880, Note_on_c, 1, 65, 0
1, 74880, Note_on_c, 1, 55, 92
1, 74904, Note_on_c, 0, 76, 0
1, 74904, Note_on_c, 0, 74, 92
1, 74928, Note_on_c, 0, 74, 0
1, 74928, Note_on_c, 0, 76, 92
1, 74928, Note_on_c, 1, 55, 0
1, 74928, Note_on_c, 1, 65, 92
1, 74952, Note_on_c, 0, 76, 0
1, 74952, Note_on_c, 0, 74, 92
1, 74976, Note_on_c, 0, 74, 0
1, 74976, Note_on_c, 0, 76, 92
1, 74976, Note_on_c, 1, 65, 0
1, 74976, Note_on_c, 1, 59, 92
1, 75000, Note_on_c, 0, 76, 0
1, 75000, Note_on_c, 0, 74, 92
1, 75024, Note_on_c, 0, 74, 0
1, 75024, Note_on_c, 0, 76, 92
1, 75024, Note_on_c, 1, 59, 0
1, 75024, Note_on_c, 1, 65, 92
1, 75048, Note_on_c, 0, 76, 0
1, 75048, Note_on_c, 0, 74, 92
1, 75072, Note_on_c, 0, 74, 0
1, 75072, Note_on_c, 0, 76, 92
1, 75072, Note_on_c, 1, 65, 0
1, 75072, Note_on_c, 1, 55, 92
1, 75096, Note_on_c, 0, 76, 0
1, 75096, Note_on_c, 0, 74, 92
1, 75120, Note_on_c, 0, 74, 0
1, 75120, Note_on_c, 0, 76, 92
1, 75120, Note_on_c, 1, 55, 0
1, 75120, Note_on_c, 1, 65, 92
1, 75144, Note_on_c, 0, 76, 0
1, 75144, Note_on_c, 0, 74, 92
1, 75168, Note_on_c, 0, 74, 0
1, 75168, Note_on_c, 0, 76, 92
1, 75168, Note_on_c, 1, 65, 0
1, 75168, Note_on_c, 1, 59, 92
1, 75192, Note_on_c, 0, 76, 0
1, 75192, Note_on_c, 0, 74, 92
1, 75216, Note_on_c, 0, 74, 0
1, 75216, Note_on_c, 0, 72, 92
1, 75216, Note_on_c, 1, 59, 0
1, 75216, Note_on_c, 1, 65, 92
1, 75240, Note_on_c, 0, 72, 0
1, 75240, Note_on_c, 0, 74, 92
1, 75262, Note_on_c, 1, 65, 0
1, 75264, Note_on_c, 0, 74, 0
1, 75264, Note_on_c, 0, 72, 92
1, 75264, Note_on_c, 1, 60, 92
1, 75264, Note_on_c, 1, 64, 92
1, 75312, Note_on_c, 0, 72, 0
1, 75312, Note_on_c, 1, 60, 0
1, 75312, Note_on_c, 1, 64, 0
1, 75456, Note_on_c, 0, 72, 92
1, 75504, Note_on_c, 0, 72, 0
1, 75504, Note_on_c, 0, 67, 92
1, 75552, Note_on_c, 0, 67, 0
1, 75552, Note_on_c, 0, 72, 92
1, 75600, Note_on_c, 0, 72, 0
1, 75600, Note_on_c, 0, 76, 92
1, 75648, Note_on_c, 0, 76, 0
1, 75648, Note_on_c, 0, 79, 127
1, 75696, Note_on_c, 0, 79, 0
1, 75696, Note_on_c, 0, 76, 92
1, 75744, Note_on_c, 0, 76, 0
1, 75744, Note_on_c, 0, 72, 92
1, 75792, Note_on_c, 0, 72, 0
1, 75792, Note_on_c, 0, 76, 92
1, 75840, Note_on_c, 0, 76, 0
1, 75840, Note_on_c, 0, 77, 127
1, 75840, Note_on_c, 1, 55, 92
1, 75840, Note_on_c, 1, 62, 92
1, 75840, Note_on_c, 1, 65, 92
1, 75888, Note_on_c, 0, 77, 0
1, 75888, Note_on_c, 0, 74, 92
1, 75936, Note_on_c, 0, 74, 0
1, 75936, Note_on_c, 0, 71, 92
1, 75984, Note_on_c, 0, 71, 0
1, 75984, Note_on_c, 0, 74, 92
1, 76032, Note_on_c, 0, 74, 0
1, 76032, Note_on_c, 0, 72, 92
1, 76032, Note_on_c, 1, 55, 0
1, 76032, Note_on_c, 1, 62, 0
1, 76032, Note_on_c, 1, 65, 0
1, 76032, Note_on_c, 1, 60, 92
1, 76032, Note_on_c, 1, 64, 92
1, 76080, Note_on_c, 0, 72, 0
1, 76080, Note_on_c, 1, 60, 0
1, 76080, Note_on_c, 1, 64, 0
1, 76224, Note_on_c, 0, 60, 92
1, 76272, Note_on_c, 0, 60, 0
1, 76272, Note_on_c, 0, 55, 92
1, 76320, Note_on_c, 0, 55, 0
1, 76320, Note_on_c, 0, 60, 92
1, 76368, Note_on_c, 0, 60, 0
1, 76368, Note_on_c, 0, 64, 92
1, 76416, Note_on_c, 0, 64, 0
1, 76416, Note_on_c, 0, 67, 127
1, 76464, Note_on_c, 0, 67, 0
1, 76464, Note_on_c, 0, 64, 92
1, 76512, Note_on_c, 0, 64, 0
1, 76512, Note_on_c, 0, 60, 92
1, 76560, Note_on_c, 0, 60, 0
1, 76560, Note_on_c, 0, 64, 92
1, 76608, Note_on_c, 0, 64, 0
1, 76608, Note_on_c, 0, 65, 127
1, 76608, Note_on_c, 1, 43, 92
1, 76608, Note_on_c, 1, 50, 92
1, 76608, Note_on_c, 1, 53, 92
1, 76656, Note_on_c, 0, 65, 0
1, 76656, Note_on_c, 0, 62, 92
1, 76704, Note_on_c, 0, 62, 0
1, 76704, Note_on_c, 0, 59, 92
1, 76752, Note_on_c, 0, 59, 0
1, 76752, Note_on_c, 0, 62, 92
1, 76800, Note_on_c, 0, 62, 0
1, 76800, Note_on_c, 0, 60, 92
1, 76800, Note_on_c, 1, 43, 0
1, 76800, Note_on_c, 1, 50, 0
1, 76800, Note_on_c, 1, 53, 0
1, 76800, Note_on_c, 1, 48, 92
1, 76800, Note_on_c, 1, 52, 92
1, 76848, Note_on_c, 0, 60, 0
1, 76848, Note_on_c, 1, 48, 0
1, 76848, Note_on_c, 1, 52, 0
1, 76992, Note_on_c, 0, 76, 92
1, 76992, Note_on_c, 0, 79, 92
1, 76992, Note_on_c, 0, 84, 92
1, 76992, Note_on_c, 1, 48, 92
1, 76992, Note_on_c, 1, 60, 92
1, 77040, Note_on_c, 0, 76, 0
1, 77040, Note_on_c, 0, 79, 0
1, 77040, Note_on_c, 0, 84, 0
1, 77040, Note_on_c, 1, 48, 0
1, 77040, Note_on_c, 1, 60, 0
1, 77184, Note_on_c, 0, 72, 92
1, 77184, Note_on_c, 1, 36, 92
1, 77184, Note_on_c, 1, 48, 92
1, 77232, Note_on_c, 0, 72, 0
1, 77232, Note_on_c, 1, 36, 0
1, 77232, Note_on_c, 1, 48, 0
1, 77568, Note_on_c, 0, 67, 92
1, 77568, Note_on_c, 1, 43, 92
1, 77568, Note_on_c, 1, 55, 92
1, 77616, Note_on_c, 0, 67, 0
1, 77616, Note_on_c, 1, 43, 0
1, 77616, Note_on_c, 1, 55, 0
1, 77760, Note_on_c, 0, 79, 92
1, 77808, Note_on_c, 0, 79, 0
1, 77808, Note_on_c, 0, 74, 92
1, 77856, Note_on_c, 0, 74, 0
1, 77856, Note_on_c, 0, 79, 92
1, 77904, Note_on_c, 0, 79, 0
1, 77904, Note_on_c, 0, 82, 92
1, 77952, Note_on_c, 0, 82, 0
1, 77952, Note_on_c, 0, 86, 127
1, 78000, Note_on_c, 0, 86, 0
1, 78000, Note_on_c, 0, 82, 92
1, 78048, Note_on_c, 0, 82, 0
1, 78048, Note_on_c, 0, 79, 92
1, 78096, Note_on_c, 0, 79, 0
1, 78096, Note_on_c, 0, 82, 92
1, 78144, Note_on_c, 0, 82, 0
1, 78144, Note_on_c, 0, 84, 127
1, 78144, Note_on_c, 1, 62, 92
1, 78144, Note_on_c, 1, 69, 92
1, 78144, Note_on_c, 1, 72, 92
1, 78192, Note_on_c, 0, 84, 0
1, 78192, Note_on_c, 0, 81, 92
1, 78240, Note_on_c, 0, 81, 0
1, 78240, Note_on_c, 0, 78, 92
1, 78288, Note_on_c, 0, 78, 0
1, 78288, Note_on_c, 0, 81, 92
1, 78336, Note_on_c, 0, 81, 0
1, 78336, Note_on_c, 0, 79, 92
1, 78336, Note_on_c, 1, 62, 0
1, 78336, Note_on_c, 1, 69, 0
1, 78336, Note_on_c, 1, 72, 0
1, 78336, Note_on_c, 1, 67, 92
1, 78336, Note_on_c, 1, 70, 92
1, 78384, Note_on_c, 0, 79, 0
1, 78384, Note_on_c, 1, 67, 0
1, 78384, Note_on_c, 1, 70, 0
1, 78528, Note_on_c, 0, 67, 92
1, 78576, Note_on_c, 0, 67, 0
1, 78576, Note_on_c, 0, 62, 92
1, 78624, Note_on_c, 0, 62, 0
1, 78624, Note_on_c, 0, 67, 92
1, 78672, Note_on_c, 0, 67, 0
1, 78672, Note_on_c, 0, 70, 92
1, 78720, Note_on_c, 0, 70, 0
1, 78720, Note_on_c, 0, 74, 127
1, 78768, Note_on_c, 0, 74, 0
1, 78768, Note_on_c, 0, 70, 92
1, 78816, Note_on_c, 0, 70, 0
1, 78816, Note_on_c, 0, 67, 92
1, 78864, Note_on_c, 0, 67, 0
1, 78864, Note_on_c, 0, 70, 92
1, 78912, Note_on_c, 0, 70, 0
1, 78912, Note_on_c, 0, 72, 92
1, 78912, Note_on_c, 1, 50, 92
1, 78912, Note_on_c, 1, 57, 92
1, 78912, Note_on_c, 1, 60, 92
1, 78960, Note_on_c, 0, 72, 0
1, 78960, Note_on_c, 0, 69, 92
1, 79008, Note_on_c, 0, 69, 0
1, 79008, Note_on_c, 0, 66, 92
1, 79056, Note_on_c, 0, 66, 0
1, 79056, Note_on_c, 0, 69, 92
1, 79104, Note_on_c, 0, 69, 0
1, 79104, Note_on_c, 0, 67, 92
1, 79104, Note_on_c, 1, 50, 0
1, 79104, Note_on_c, 1, 57, 0
1, 79104, Note_on_c, 1, 60, 0
1, 79152, Note_on_c, 0, 67, 0
1, 79152, Note_on_c, 1, 43, 92
1, 79200, Note_on_c, 1, 43, 0
1, 79200, Note_on_c, 1, 45, 92
1, 79248, Note_on_c, 1, 45, 0
1, 79248, Note_on_c, 1, 46, 92
1, 79296, Note_on_c, 1, 46, 0
1, 79296, Note_on_c, 1, 48, 92
1, 79344, Note_on_c, 1, 48, 0
1, 79344, Note_on_c, 1, 50, 92
1, 79392, Note_on_c, 1, 50, 0
1, 79392, Note_on_c, 1, 52, 92
1, 79440, Note_on_c, 1, 52, 0
1, 79440, Note_on_c, 1, 54, 92
1, 79488, Note_on_c, 1, 54, 0
1, 79488, Note_on_c, 1, 55, 92
1, 79536, Note_on_c, 0, 79, 92
1, 79536, Note_on_c, 1, 55, 0
1, 79584, Note_on_c, 0, 79, 0
1, 79584, Note_on_c, 0, 82, 92
1, 79632, Note_on_c, 0, 82, 0
1, 79632, Note_on_c, 0, 81, 92
1, 79680, Note_on_c, 0, 81, 0
1, 79680, Note_on_c, 0, 79, 92
1, 79728, Note_on_c, 0, 79, 0
1, 79728, Note_on_c, 0, 77, 92
1, 79776, Note_on_c, 0, 77, 0
1, 79776, Note_on_c, 0, 76, 92
1, 79824, Note_on_c, 0, 76, 0
1, 79824, Note_on_c, 0, 74, 92
1, 79872, Note_on_c, 0, 74, 0
1, 79872, Note_on_c, 0, 73, 92
1, 79920, Note_on_c, 0, 73, 0
1, 79920, Note_on_c, 1, 45, 92
1, 79968, Note_on_c, 1, 45, 0
1, 79968, Note_on_c, 1, 47, 92
1, 80016, Note_on_c, 1, 47, 0
1, 80016, Note_on_c, 1, 49, 92
1, 80064, Note_on_c, 1, 49, 0
1, 80064, Note_on_c, 1, 50, 92
1, 80112, Note_on_c, 1, 50, 0
1, 80112, Note_on_c, 1, 52, 92
1, 80160, Note_on_c, 1, 52, 0
1, 80160, Note_on_c, 1, 54, 92
1, 80208, Note_on_c, 1, 54, 0
1, 80208, Note_on_c, 1, 56, 92
1, 80256, Note_on_c, 1, 56, 0
1, 80256, Note_on_c, 1, 57, 92
1, 80304, Note_on_c, 0, 85, 92
1, 80304, Note_on_c, 1, 57, 0
1, 80352, Note_on_c, 0, 85, 0
1, 80352, Note_on_c, 0, 88, 92
1, 80400, Note_on_c, 0, 88, 0
1, 80400, Note_on_c, 0, 86, 92
1, 80448, Note_on_c, 0, 86, 0
1, 80448, Note_on_c, 0, 85, 92
1, 80496, Note_on_c, 0, 85, 0
1, 80496, Note_on_c, 0, 82, 92
1, 80544, Note_on_c, 0, 82, 0
1, 80544, Note_on_c, 0, 81, 92
1, 80592, Note_on_c, 0, 81, 0
1, 80592, Note_on_c, 0, 79, 92
1, 80640, Note_on_c, 0, 79, 0
1, 80640, Note_on_c, 0, 77, 92
1, 80640, Note_on_c, 1, 38, 92
1, 80640, Note_on_c, 1, 50, 92
1, 80688, Note_on_c, 0, 77, 0
1, 80800, Note_on_c, 1, 38, 0
1, 80800, Note_on_c, 1, 50, 0
1, 80832, Note_on_c, 0, 74, 92
1, 80880, Note_on_c, 0, 74, 0
1, 80880, Note_on_c, 0, 69, 92
1, 80928, Note_on_c, 0, 69, 0
1, 80928, Note_on_c, 0, 74, 92
1, 80976, Note_on_c, 0, 74, 0
1, 80976, Note_on_c, 0, 77, 92
1, 81024, Note_on_c, 0, 77, 0
1, 81024, Note_on_c, 0, 81, 127
1, 81072, Note_on_c, 0, 81, 0
1, 81072, Note_on_c, 0, 77, 92
1, 81120, Note_on_c, 0, 77, 0
1, 81120, Note_on_c, 0, 74, 92
1, 81168, Note_on_c, 0, 74, 0
1, 81168, Note_on_c, 0, 77, 92
1, 81216, Note_on_c, 0, 77, 0
1, 81216, Note_on_c, 0, 79, 127
1, 81216, Note_on_c, 1, 57, 92
1, 81216, Note_on_c, 1, 64, 92
1, 81216, Note_on_c, 1, 67, 92
1, 81264, Note_on_c, 0, 79, 0
1, 81264, Note_on_c, 0, 76, 92
1, 81312, Note_on_c, 0, 76, 0
1, 81312, Note_on_c, 0, 73, 92
1, 81360, Note_on_c, 0, 73, 0
1, 81360, Note_on_c, 0, 76, 92
1, 81408, Note_on_c, 0, 76, 0
1, 81408, Note_on_c, 0, 74, 92
1, 81408, Note_on_c, 1, 57, 0
1, 81408, Note_on_c, 1, 64, 0
1, 81408, Note_on_c, 1, 67, 0
1, 81408, Note_on_c, 1, 62, 92
1, 81408, Note_on_c, 1, 65, 92
1, 81456, Note_on_c, 0, 74, 0
1, 81456, Note_on_c, 1, 62, 0
1, 81456, Note_on_c, 1, 65, 0
1, 81600, Note_on_c, 0, 62, 92
1, 81648, Note_on_c, 0, 62, 0
1, 81648, Note_on_c, 0, 57, 92
1, 81696, Note_on_c, 0, 57, 0
1, 81696, Note_on_c, 0, 62, 92
1, 81744, Note_on_c, 0, 62, 0
1, 81744, Note_on_c, 0, 65, 92
1, 81792, Note_on_c, 0, 65, 0
1, 81792, Note_on_c, 0, 69, 127
1, 81840, Note_on_c, 0, 69, 0
1, 81840, Note_on_c, 0, 65, 92
1, 81888, Note_on_c, 0, 65, 0
1, 81888, Note_on_c, 0, 62, 92
1, 81936, Note_on_c, 0, 62, 0
1, 81936, Note_on_c, 0, 65, 92
1, 81984, Note_on_c, 0, 65, 0
1, 81984, Note_on_c, 0, 67, 127
1, 81984, Note_on_c, 1, 45, 92
1, 81984, Note_on_c, 1, 52, 92
1, 81984, Note_on_c, 1, 55, 92
1, 82032, Note_on_c, 0, 67, 0
1, 82032, Note_on_c, 0, 64, 92
1, 82080, Note_on_c, 0, 64, 0
1, 82080, Note_on_c, 0, 61, 92
1, 82128, Note_on_c, 0, 61, 0
1, 82128, Note_on_c, 0, 64, 92
1, 82174, Note_on_c, 0, 64, 0
1, 82176, Note_on_c, 1, 45, 0
1, 82176, Note_on_c, 1, 52, 0
1, 82176, Note_on_c, 1, 55, 0
1, 82176, Note_on_c, 1, 50, 92
1, 82176, Note_on_c, 1, 53, 92
1, 82224, Note_on_c, 0, 62, 92
1, 82224, Note_on_c, 1, 50, 0
1, 82224, Note_on_c, 1, 53, 0
1, 82272, Note_on_c, 0, 62, 0
1, 82272, Note_on_c, 0, 64, 92
1, 82320, Note_on_c, 0, 64, 0
1, 82320, Note_on_c, 0, 65, 92
1, 82368, Note_on_c, 0, 65, 0
1, 82368, Note_on_c, 0, 67, 92
1, 82416, Note_on_c, 0, 67, 0
1, 82416, Note_on_c, 0, 69, 92
1, 82464, Note_on_c, 0, 69, 0
1, 82464, Note_on_c, 0, 71, 92
1, 82512, Note_on_c, 0, 71, 0
1, 82512, Note_on_c, 0, 73, 92
1, 82560, Note_on_c, 0, 73, 0
1, 82560, Note_on_c, 0, 74, 92
1, 82608, Note_on_c, 0, 74, 0
1, 82608, Note_on_c, 1, 62, 92
1, 82656, Note_on_c, 1, 62, 0
1, 82656, Note_on_c, 1, 65, 92
1, 82704, Note_on_c, 1, 65, 0
1, 82704, Note_on_c, 1, 64, 92
1, 82752, Note_on_c, 1, 64, 0
1, 82752, Note_on_c, 1, 62, 92
1, 82800, Note_on_c, 1, 62, 0
1, 82800, Note_on_c, 1, 60, 92
1, 82848, Note_on_c, 1, 60, 0
1, 82848, Note_on_c, 1, 59, 92
1, 82896, Note_on_c, 1, 59, 0
1, 82896, Note_on_c, 1, 57, 92
1, 82944, Note_on_c, 1, 57, 0
1, 82944, Note_on_c, 1, 56, 92
1, 82992, Note_on_c, 0, 71, 92
1, 82992, Note_on_c, 1, 56, 0
1, 83040, Note_on_c, 0, 71, 0
1, 83040, Note_on_c, 0, 72, 92
1, 83088, Note_on_c, 0, 72, 0
1, 83088, Note_on_c, 0, 74, 92
1, 83136, Note_on_c, 0, 74, 0
1, 83136, Note_on_c, 0, 76, 92
1, 83184, Note_on_c, 0, 76, 0
1, 83184, Note_on_c, 0, 78, 92
1, 83232, Note_on_c, 0, 78, 0
1, 83232, Note_on_c, 0, 80, 92
1, 83280, Note_on_c, 0, 80, 0
1, 83280, Note_on_c, 0, 81, 92
1, 83328, Note_on_c, 0, 81, 0
1, 83328, Note_on_c, 0, 83, 92
1, 83376, Note_on_c, 0, 83, 0
1, 83376, Note_on_c, 1, 56, 92
1, 83424, Note_on_c, 1, 56, 0
1, 83424, Note_on_c, 1, 59, 92
1, 83472, Note_on_c, 1, 59, 0
1, 83472, Note_on_c, 1, 57, 92
1, 83520, Note_on_c, 1, 57, 0
1, 83520, Note_on_c, 1, 56, 92
1, 83568, Note_on_c, 1, 56, 0
1, 83568, Note_on_c, 1, 53, 92
1, 83616, Note_on_c, 1, 53, 0
1, 83616, Note_on_c, 1, 52, 92
1, 83664, Note_on_c, 1, 52, 0
1, 83664, Note_on_c, 1, 50, 92
1, 83712, Note_on_c, 1, 50, 0
1, 83712, Note_on_c, 1, 48, 92
1, 83760, Note_on_c, 0, 81, 92
1, 83808, Note_on_c, 0, 81, 0
1, 83808, Note_on_c, 0, 88, 92
1, 83856, Note_on_c, 0, 88, 0
1, 83856, Note_on_c, 0, 86, 92
1, 83872, Note_on_c, 1, 48, 0
1, 83904, Note_on_c, 0, 86, 0
1, 83904, Note_on_c, 0, 84, 92
1, 83952, Note_on_c, 0, 84, 0
1, 83952, Note_on_c, 0, 83, 92
1, 84000, Note_on_c, 0, 83, 0
1, 84000, Note_on_c, 0, 81, 92
1, 84048, Note_on_c, 0, 81, 0
1, 84048, Note_on_c, 0, 79, 92
1, 84096, Note_on_c, 0, 79, 0
1, 84096, Note_on_c, 0, 77, 92
1, 84144, Note_on_c, 0, 77, 0
1, 84144, Note_on_c, 1, 62, 92
1, 84192, Note_on_c, 1, 62, 0
1, 84192, Note_on_c, 1, 69, 92
1, 84240, Note_on_c, 1, 69, 0
1, 84240, Note_on_c, 1, 67, 92
1, 84288, Note_on_c, 1, 67, 0
1, 84288, Note_on_c, 1, 65, 92
1, 84336, Note_on_c, 1, 65, 0
1, 84336, Note_on_c, 1, 64, 92
1, 84384, Note_on_c, 1, 64, 0
1, 84384, Note_on_c, 1, 62, 92
1, 84432, Note_on_c, 1, 62, 0
1, 84432, Note_on_c, 1, 60, 92
1, 84480, Note_on_c, 1, 60, 0
1, 84480, Note_on_c, 1, 59, 92
1, 84528, Note_on_c, 0, 79, 92
1, 84528, Note_on_c, 1, 59, 0
1, 84576, Note_on_c, 0, 79, 0
1, 84576, Note_on_c, 0, 86, 92
1, 84624, Note_on_c, 0, 86, 0
1, 84624, Note_on_c, 0, 84, 92
1, 84672, Note_on_c, 0, 84, 0
1, 84672, Note_on_c, 0, 83, 92
1, 84720, Note_on_c, 0, 83, 0
1, 84720, Note_on_c, 0, 81, 92
1, 84768, Note_on_c, 0, 81, 0
1, 84768, Note_on_c, 0, 79, 92
1, 84816, Note_on_c, 0, 79, 0
1, 84816, Note_on_c, 0, 77, 92
1, 84864, Note_on_c, 0, 77, 0
1, 84864, Note_on_c, 0, 76, 92
1, 84912, Note_on_c, 0, 76, 0
1, 84912, Note_on_c, 1, 60, 92
1, 84960, Note_on_c, 1, 60, 0
1, 84960, Note_on_c, 1, 67, 92
1, 85008, Note_on_c, 1, 67, 0
1, 85008, Note_on_c, 1, 65, 92
1, 85056, Note_on_c, 1, 65, 0
1, 85056, Note_on_c, 1, 64, 92
1, 85104, Note_on_c, 1, 64, 0
1, 85104, Note_on_c, 1, 62, 92
1, 85152, Note_on_c, 1, 62, 0
1, 85152, Note_on_c, 1, 60, 92
1, 85200, Note_on_c, 1, 60, 0
1, 85200, Note_on_c, 1, 59, 92
1, 85248, Note_on_c, 1, 59, 0
1, 85248, Note_on_c, 1, 57, 92
1, 85296, Note_on_c, 0, 77, 92
1, 85296, Note_on_c, 1, 57, 0
1, 85344, Note_on_c, 0, 77, 0
1, 85344, Note_on_c, 0, 84, 92
1, 85392, Note_on_c, 0, 84, 0
1, 85392, Note_on_c, 0, 83, 92
1, 85440, Note_on_c, 0, 83, 0
1, 85440, Note_on_c, 0, 81, 92
1, 85488, Note_on_c, 0, 81, 0
1, 85488, Note_on_c, 0, 79, 92
1, 85536, Note_on_c, 0, 79, 0
1, 85536, Note_on_c, 0, 77, 92
1, 85584, Note_on_c, 0, 77, 0
1, 85584, Note_on_c, 0, 76, 92
1, 85632, Note_on_c, 0, 76, 0
1, 85632, Note_on_c, 0, 74, 92
1, 85680, Note_on_c, 0, 74, 0
1, 85680, Note_on_c, 1, 59, 92
1, 85728, Note_on_c, 1, 59, 0
1, 85728, Note_on_c, 1, 65, 92
1, 85776, Note_on_c, 1, 65, 0
1, 85776, Note_on_c, 1, 64, 92
1, 85824, Note_on_c, 1, 64, 0
1, 85824, Note_on_c, 1, 62, 92
1, 85872, Note_on_c, 1, 62, 0
1, 85872, Note_on_c, 1, 60, 92
1, 85920, Note_on_c, 1, 60, 0
1, 85920, Note_on_c, 1, 59, 92
1, 85968, Note_on_c, 1, 59, 0
1, 85968, Note_on_c, 1, 57, 92
1, 86016, Note_on_c, 1, 57, 0
1, 86016, Note_on_c, 1, 56, 92
1, 86064, Note_on_c, 0, 76, 92
1, 86064, Note_on_c, 1, 56, 0
1, 86112, Note_on_c, 0, 76, 0
1, 86112, Note_on_c, 0, 83, 92
1, 86160, Note_on_c, 0, 83, 0
1, 86160, Note_on_c, 0, 81, 92
1, 86208, Note_on_c, 0, 81, 0
1, 86208, Note_on_c, 0, 80, 92
1, 86256, Note_on_c, 0, 80, 0
1, 86256, Note_on_c, 0, 77, 92
1, 86304, Note_on_c, 0, 77, 0
1, 86304, Note_on_c, 0, 76, 92
1, 86352, Note_on_c, 0, 76, 0
1, 86352, Note_on_c, 0, 74, 92
1, 86400, Note_on_c, 0, 74, 0
1, 86400, Note_on_c, 0, 72, 92
1, 86448, Note_on_c, 0, 72, 0
1, 86448, Note_on_c, 1, 57, 92
1, 86496, Note_on_c, 1, 57, 0
1, 86496, Note_on_c, 1, 60, 92
1, 86544, Note_on_c, 1, 60, 0
1, 86544, Note_on_c, 1, 59, 92
1, 86592, Note_on_c, 1, 59, 0
1, 86592, Note_on_c, 1, 57, 92
1, 86640, Note_on_c, 1, 57, 0
1, 86640, Note_on_c, 1, 55, 92
1, 86688, Note_on_c, 1, 55, 0
1, 86688, Note_on_c, 1, 53, 92
1, 86736, Note_on_c, 1, 53, 0
1, 86736, Note_on_c, 1, 52, 92
1, 86784, Note_on_c, 1, 52, 0
1, 86784, Note_on_c, 1, 50, 92
1, 86832, Note_on_c, 0, 70, 92
1, 86880, Note_on_c, 0, 70, 0
1, 86880, Note_on_c, 0, 74, 92
1, 86928, Note_on_c, 0, 74, 0
1, 86928, Note_on_c, 0, 72, 92
1, 86976, Note_on_c, 0, 72, 0
1, 86976, Note_on_c, 0, 70, 92
1, 87024, Note_on_c, 0, 70, 0
1, 87024, Note_on_c, 0, 69, 92
1, 87072, Note_on_c, 0, 69, 0
1, 87072, Note_on_c, 0, 67, 92
1, 87120, Note_on_c, 0, 67, 0
1, 87120, Note_on_c, 0, 65, 92
1, 87120, Note_on_c, 1, 50, 0
1, 87168, Note_on_c, 0, 65, 0
1, 87168, Note_on_c, 0, 64, 92
1, 87168, Note_on_c, 1, 48, 92
1, 87168, Note_on_c, 1, 55, 92
1, 87168, Note_on_c, 1, 58, 92
1, 87216, Note_on_c, 0, 64, 0
1, 87216, Note_on_c, 0, 65, 92
1, 87264, Note_on_c, 0, 65, 0
1, 87264, Note_on_c, 0, 67, 92
1, 87312, Note_on_c, 0, 67, 0
1, 87312, Note_on_c, 0, 69, 92
1, 87360, Note_on_c, 0, 69, 0
1, 87360, Note_on_c, 0, 70, 92
1, 87408, Note_on_c, 0, 70, 0
1, 87408, Note_on_c, 0, 72, 92
1, 87456, Note_on_c, 0, 72, 0
1, 87456, Note_on_c, 0, 74, 92
1, 87504, Note_on_c, 0, 74, 0
1, 87504, Note_on_c, 0, 76, 92
1, 87504, Note_on_c, 1, 48, 0
1, 87504, Note_on_c, 1, 55, 0
1, 87504, Note_on_c, 1, 58, 0
1, 87552, Note_on_c, 0, 76, 0
1, 87552, Note_on_c, 0, 77, 60
1, 87552, Note_on_c, 1, 65, 45
1, 87648, Note_on_c, 1, 65, 0
1, 87648, Note_on_c, 1, 72, 45
1, 87744, Note_on_c, 1, 72, 0
1, 87744, Note_on_c, 1, 69, 45
1, 87840, Note_on_c, 1, 69, 0
1, 87840, Note_on_c, 1, 72, 45
1, 87936, Note_on_c, 0, 77, 0
1, 87936, Note_on_c, 0, 81, 60
1, 87936, Note_on_c, 1, 72, 0
1, 87936, Note_on_c, 1, 65, 45
1, 88032, Note_on_c, 1, 65, 0
1, 88032, Note_on_c, 1, 72, 45
1, 88128, Note_on_c, 0, 81, 0
1, 88128, Note_on_c, 0, 84, 60
1, 88128, Note_on_c, 1, 72, 0
1, 88128, Note_on_c, 1, 69, 45
1, 88224, Note_on_c, 1, 69, 0
1, 88224, Note_on_c, 1, 72, 45
1, 88318, Note_on_c, 1, 72, 0
1, 88320, Note_on_c, 0, 84, 0
1, 88320, Note_on_c, 0, 76, 84
1, 88320, Note_on_c, 1, 67, 45
1, 88414, Note_on_c, 1, 67, 0
1, 88416, Note_on_c, 1, 72, 45
1, 88510, Note_on_c, 1, 72, 0
1, 88512, Note_on_c, 1, 70, 45
1, 88606, Note_on_c, 1, 70, 0
1, 88608, Note_on_c, 0, 76, 0
1, 88608, Note_on_c, 0, 77, 60
1, 88608, Note_on_c, 1, 72, 45
1, 88656, Note_on_c, 0, 77, 0
1, 88656, Note_on_c, 0, 79, 60
1, 88702, Note_on_c, 1, 72, 0
1, 88704, Note_on_c, 0, 79, 0
1, 88704, Note_on_c, 0, 77, 60
1, 88704, Note_on_c, 1, 65, 45
1, 88798, Note_on_c, 1, 65, 0
1, 88800, Note_on_c, 1, 72, 45
1, 88864, Note_on_c, 0, 77, 0
1, 88894, Note_on_c, 1, 72, 0
1, 88896, Note_on_c, 1, 69, 45
1, 88990, Note_on_c, 1, 69, 0
1, 88992, Note_on_c, 1, 72, 45
1, 89086, Note_on_c, 1, 72, 0
1, 89088, Note_on_c, 0, 86, 84
1, 89088, Note_on_c, 1, 65, 45
1, 89182, Note_on_c, 1, 65, 0
1, 89184, Note_on_c, 1, 74, 45
1, 89278, Note_on_c, 1, 74, 0
1, 89280, Note_on_c, 1, 70, 45
1, 89374, Note_on_c, 1, 70, 0
1, 89376, Note_on_c, 1, 74, 45
1, 89470, Note_on_c, 1, 74, 0
1, 89472, Note_on_c, 0, 86, 0
1, 89472, Note_on_c, 0, 84, 60
1, 89472, Note_on_c, 1, 65, 45
1, 89566, Note_on_c, 1, 65, 0
1, 89568, Note_on_c, 1, 72, 45
1, 89662, Note_on_c, 1, 72, 0
1, 89664, Note_on_c, 0, 84, 0
1, 89664, Note_on_c, 0, 89, 60
1, 89664, Note_on_c, 1, 69, 45
1, 89758, Note_on_c, 1, 69, 0
1, 89760, Note_on_c, 1, 72, 45
1, 89854, Note_on_c, 1, 72, 0
1, 89856, Note_on_c, 0, 89, 0
1, 89856, Note_on_c, 0, 84, 84
1, 89856, Note_on_c, 1, 64, 45
1, 89950, Note_on_c, 1, 64, 0
1, 89952, Note_on_c, 1, 72, 45
1, 90046, Note_on_c, 1, 72, 0
1, 90048, Note_on_c, 0, 84, 0
1, 90048, Note_on_c, 0, 82, 60
1, 90048, Note_on_c, 1, 67, 45
1, 90080, Note_on_c, 0, 82, 0
1, 90080, Note_on_c, 0, 84, 60
1, 90112, Note_on_c, 0, 84, 0
1, 90112, Note_on_c, 0, 82, 60
1, 90142, Note_on_c, 1, 67, 0
1, 90144, Note_on_c, 0, 82, 0
1, 90144, Note_on_c, 0, 81, 60
1, 90144, Note_on_c, 1, 72, 45
1, 90192, Note_on_c, 0, 81, 0
1, 90192, Note_on_c, 0, 82, 60
1, 90238, Note_on_c, 1, 72, 0
1, 90240, Note_on_c, 0, 82, 0
1, 90240, Note_on_c, 0, 81, 60
1, 90240, Note_on_c, 1, 65, 45
1, 90334, Note_on_c, 1, 65, 0
1, 90336, Note_on_c, 1, 72, 45
1, 90400, Note_on_c, 0, 81, 0
1, 90430, Note_on_c, 1, 72, 0
1, 90432, Note_on_c, 1, 69, 45
1, 90526, Note_on_c, 1, 69, 0
1, 90528, Note_on_c, 1, 72, 45
1, 90622, Note_on_c, 1, 72, 0
1, 90624, Note_on_c, 0, 74, 45
1, 90624, Note_on_c, 1, 70, 45
1, 90720, Note_on_c, 0, 74, 0
1, 90720, Note_on_c, 0, 76, 45
1, 90768, Note_on_c, 0, 76, 0
1, 90768, Note_on_c, 0, 77, 45
1, 90784, Note_on_c, 1, 70, 0
1, 90816, Note_on_c, 0, 77, 0
1, 90816, Note_on_c, 0, 79, 45
1, 90864, Note_on_c, 0, 79, 0
1, 90864, Note_on_c, 0, 81, 45
1, 90912, Note_on_c, 0, 81, 0
1, 90912, Note_on_c, 0, 82, 45
1, 90960, Note_on_c, 0, 82, 0
1, 90960, Note_on_c, 0, 84, 45
1, 91008, Note_on_c, 0, 84, 0
1, 91008, Note_on_c, 0, 86, 45
1, 91056, Note_on_c, 0, 86, 0
1, 91056, Note_on_c, 0, 84, 45
1, 91104, Note_on_c, 0, 84, 0
1, 91104, Note_on_c, 0, 82, 45
1, 91152, Note_on_c, 0, 82, 0
1, 91152, Note_on_c, 0, 81, 45
1, 91200, Note_on_c, 0, 81, 0
1, 91200, Note_on_c, 0, 79, 45
1, 91200, Note_on_c, 1, 58, 45
1, 91200, Note_on_c, 1, 65, 45
1, 91248, Note_on_c, 0, 79, 0
1, 91248, Note_on_c, 0, 77, 45
1, 91248, Note_on_c, 1, 58, 0
1, 91248, Note_on_c, 1, 65, 0
1, 91296, Note_on_c, 0, 77, 0
1, 91296, Note_on_c, 0, 76, 45
1, 91344, Note_on_c, 0, 76, 0
1, 91344, Note_on_c, 0, 74, 45
1, 91392, Note_on_c, 0, 74, 0
1, 91392, Note_on_c, 0, 72, 45
1, 91392, Note_on_c, 1, 57, 45
1, 91392, Note_on_c, 1, 65, 45
1, 91440, Note_on_c, 1, 57, 0
1, 91440, Note_on_c, 1, 65, 0
1, 91488, Note_on_c, 0, 72, 0
1, 91488, Note_on_c, 0, 74, 45
1, 91536, Note_on_c, 0, 74, 0
1, 91536, Note_on_c, 0, 76, 45
1, 91584, Note_on_c, 0, 76, 0
1, 91584, Note_on_c, 0, 77, 45
1, 91632, Note_on_c, 0, 77, 0
1, 91632, Note_on_c, 0, 79, 45
1, 91680, Note_on_c, 0, 79, 0
1, 91680, Note_on_c, 0, 81, 45
1, 91728, Note_on_c, 0, 81, 0
1, 91728, Note_on_c, 0, 82, 45
1, 91776, Note_on_c, 0, 82, 0
1, 91776, Note_on_c, 0, 84, 45
1, 91824, Note_on_c, 0, 84, 0
1, 91824, Note_on_c, 0, 82, 45
1, 91872, Note_on_c, 0, 82, 0
1, 91872, Note_on_c, 0, 81, 45
1, 91920, Note_on_c, 0, 81, 0
1, 91920, Note_on_c, 0, 79, 45
1, 91968, Note_on_c, 0, 79, 0
1, 91968, Note_on_c, 0, 77, 45
1, 91968, Note_on_c, 1, 57, 45
1, 91968, Note_on_c, 1, 65, 45
1, 92016, Note_on_c, 0, 77, 0
1, 92016, Note_on_c, 0, 76, 45
1, 92016, Note_on_c, 1, 57, 0
1, 92016, Note_on_c, 1, 65, 0
1, 92064, Note_on_c, 0, 76, 0
1, 92064, Note_on_c, 0, 74, 45
1, 92112, Note_on_c, 0, 74, 0
1, 92112, Note_on_c, 0, 72, 45
1, 92160, Note_on_c, 0, 72, 0
1, 92160, Note_on_c, 0, 70, 45
1, 92160, Note_on_c, 1, 55, 45
1, 92160, Note_on_c, 1, 65, 45
1, 92208, Note_on_c, 1, 55, 0
1, 92208, Note_on_c, 1, 65, 0
1, 92256, Note_on_c, 0, 70, 0
1, 92256, Note_on_c, 0, 72, 45
1, 92304, Note_on_c, 0, 72, 0
1, 92304, Note_on_c, 0, 74, 45
1, 92352, Note_on_c, 0, 74, 0
1, 92352, Note_on_c, 0, 76, 45
1, 92400, Note_on_c, 0, 76, 0
1, 92400, Note_on_c, 0, 77, 45
1, 92448, Note_on_c, 0, 77, 0
1, 92448, Note_on_c, 0, 79, 45
1, 92496, Note_on_c, 0, 79, 0
1, 92496, Note_on_c, 0, 81, 45
1, 92544, Note_on_c, 0, 81, 0
1, 92544, Note_on_c, 0, 82, 45
1, 92592, Note_on_c, 0, 82, 0
1, 92592, Note_on_c, 0, 81, 45
1, 92640, Note_on_c, 0, 81, 0
1, 92640, Note_on_c, 0, 79, 45
1, 92688, Note_on_c, 0, 79, 0
1, 92688, Note_on_c, 0, 77, 45
1, 92736, Note_on_c, 0, 77, 0
1, 92736, Note_on_c, 0, 76, 45
1, 92736, Note_on_c, 1, 55, 45
1, 92736, Note_on_c, 1, 64, 45
1, 92784, Note_on_c, 0, 76, 0
1, 92784, Note_on_c, 0, 74, 45
1, 92784, Note_on_c, 1, 55, 0
1, 92784, Note_on_c, 1, 64, 0
1, 92832, Note_on_c, 0, 74, 0
1, 92832, Note_on_c, 0, 72, 45
1, 92880, Note_on_c, 0, 72, 0
1, 92880, Note_on_c, 0, 70, 45
1, 92928, Note_on_c, 0, 70, 0
1, 92928, Note_on_c, 0, 69, 45
1, 92928, Note_on_c, 1, 53, 45
1, 92928, Note_on_c, 1, 65, 45
1, 92976, Note_on_c, 1, 53, 0
1, 92976, Note_on_c, 1, 65, 0
1, 93024, Note_on_c, 0, 69, 0
1, 93024, Note_on_c, 0, 70, 45
1, 93072, Note_on_c, 0, 70, 0
1, 93072, Note_on_c, 0, 72, 45
1, 93120, Note_on_c, 0, 72, 0
1, 93120, Note_on_c, 0, 74, 45
1, 93168, Note_on_c, 0, 74, 0
1, 93168, Note_on_c, 0, 76, 45
1, 93216, Note_on_c, 0, 76, 0
1, 93216, Note_on_c, 0, 77, 45
1, 93264, Note_on_c, 0, 77, 0
1, 93264, Note_on_c, 0, 79, 45
1, 93312, Note_on_c, 0, 79, 0
1, 93312, Note_on_c, 0, 81, 45
1, 93360, Note_on_c, 0, 81, 0
1, 93360, Note_on_c, 0, 79, 45
1, 93408, Note_on_c, 0, 79, 0
1, 93408, Note_on_c, 0, 77, 45
1, 93456, Note_on_c, 0, 77, 0
1, 93456, Note_on_c, 0, 76, 45
1, 93504, Note_on_c, 0, 76, 0
1, 93504, Note_on_c, 0, 74, 45
1, 93552, Note_on_c, 0, 74, 0
1, 93552, Note_on_c, 0, 72, 45
1, 93600, Note_on_c, 0, 72, 0
1, 93600, Note_on_c, 0, 70, 45
1, 93648, Note_on_c, 0, 70, 0
1, 93648, Note_on_c, 0, 69, 45
1, 93696, Note_on_c, 0, 69, 0
1, 93696, Note_on_c, 0, 81, 75
1, 93696, Note_on_c, 1, 53, 75
1, 93744, Note_on_c, 0, 81, 0
1, 93792, Note_on_c, 1, 53, 0
1, 93792, Note_on_c, 1, 55, 75
1, 93840, Note_on_c, 1, 55, 0
1, 93840, Note_on_c, 1, 57, 75
1, 93888, Note_on_c, 1, 57, 0
1, 93888, Note_on_c, 1, 58, 75
1, 93936, Note_on_c, 1, 58, 0
1, 93936, Note_on_c, 1, 60, 75
1, 93984, Note_on_c, 1, 60, 0
1, 93984, Note_on_c, 1, 62, 75
1, 94032, Note_on_c, 1, 62, 0
1, 94032, Note_on_c, 1, 64, 75
1, 94080, Note_on_c, 1, 64, 0
1, 94080, Note_on_c, 1, 65, 75
1, 94128, Note_on_c, 1, 65, 0
1, 94128, Note_on_c, 1, 64, 75
1, 94176, Note_on_c, 1, 64, 0
1, 94176, Note_on_c, 1, 62, 75
1, 94224, Note_on_c, 1, 62, 0
1, 94224, Note_on_c, 1, 60, 75
1, 94272, Note_on_c, 0, 72, 75
1, 94272, Note_on_c, 0, 81, 75
1, 94272, Note_on_c, 1, 60, 0
1, 94272, Note_on_c, 1, 58, 75
1, 94320, Note_on_c, 0, 72, 0
1, 94320, Note_on_c, 0, 81, 0
1, 94320, Note_on_c, 1, 58, 0
1, 94320, Note_on_c, 1, 57, 75
1, 94368, Note_on_c, 1, 57, 0
1, 94368, Note_on_c, 1, 55, 75
1, 94416, Note_on_c, 1, 55, 0
1, 94416, Note_on_c, 1, 53, 75
1, 94464, Note_on_c, 0, 72, 75
1, 94464, Note_on_c, 0, 79, 75
1, 94464, Note_on_c, 1, 53, 0
1, 94464, Note_on_c, 1, 52, 75
1, 94512, Note_on_c, 0, 72, 0
1, 94512, Note_on_c, 0, 79, 0
1, 94560, Note_on_c, 1, 52, 0
1, 94560, Note_on_c, 1, 53, 75
1, 94608, Note_on_c, 1, 53, 0
1, 94608, Note_on_c, 1, 55, 75
1, 94656, Note_on_c, 1, 55, 0
1, 94656, Note_on_c, 1, 57, 75
1, 94704, Note_on_c, 1, 57, 0
1, 94704, Note_on_c, 1, 59, 75
1, 94752, Note_on_c, 1, 59, 0
1, 94752, Note_on_c, 1, 60, 75
1, 94800, Note_on_c, 1, 60, 0
1, 94800, Note_on_c, 1, 62, 75
1, 94848, Note_on_c, 1, 62, 0
1, 94848, Note_on_c, 1, 64, 75
1, 94896, Note_on_c, 1, 64, 0
1, 94896, Note_on_c, 1, 62, 75
1, 94944, Note_on_c, 1, 62, 0
1, 94944, Note_on_c, 1, 60, 75
1, 94992, Note_on_c, 1, 60, 0
1, 94992, Note_on_c, 1, 59, 75
1, 95040, Note_on_c, 0, 72, 75
1, 95040, Note_on_c, 0, 79, 75
1, 95040, Note_on_c, 1, 59, 0
1, 95040, Note_on_c, 1, 57, 75
1, 95088, Note_on_c, 0, 72, 0
1, 95088, Note_on_c, 0, 79, 0
1, 95088, Note_on_c, 1, 57, 0
1, 95088, Note_on_c, 1, 55, 75
1, 95136, Note_on_c, 1, 55, 0
1, 95136, Note_on_c, 1, 53, 75
1, 95184, Note_on_c, 1, 53, 0
1, 95184, Note_on_c, 1, 52, 75
1, 95232, Note_on_c, 0, 72, 75
1, 95232, Note_on_c, 0, 77, 75
1, 95232, Note_on_c, 1, 52, 0
1, 95232, Note_on_c, 1, 50, 75
1, 95280, Note_on_c, 0, 72, 0
1, 95280, Note_on_c, 0, 77, 0
1, 95328, Note_on_c, 1, 50, 0
1, 95328, Note_on_c, 1, 52, 75
1, 95376, Note_on_c, 1, 52, 0
1, 95376, Note_on_c, 1, 53, 75
1, 95424, Note_on_c, 1, 53, 0
1, 95424, Note_on_c, 1, 55, 75
1, 95472, Note_on_c, 1, 55, 0
1, 95472, Note_on_c, 1, 57, 75
1, 95520, Note_on_c, 1, 57, 0
1, 95520, Note_on_c, 1, 59, 75
1, 95568, Note_on_c, 1, 59, 0
1, 95568, Note_on_c, 1, 60, 75
1, 95616, Note_on_c, 1, 60, 0
1, 95616, Note_on_c, 1, 62, 75
1, 95664, Note_on_c, 1, 62, 0
1, 95664, Note_on_c, 1, 60, 75
1, 95712, Note_on_c, 1, 60, 0
1, 95712, Note_on_c, 1, 59, 75
1, 95760, Note_on_c, 1, 59, 0
1, 95760, Note_on_c, 1, 57, 75
1, 95808, Note_on_c, 0, 71, 75
1, 95808, Note_on_c, 0, 77, 75
1, 95808, Note_on_c, 1, 57, 0
1, 95808, Note_on_c, 1, 55, 75
1, 95856, Note_on_c, 0, 71, 0
1, 95856, Note_on_c, 0, 77, 0
1, 95856, Note_on_c, 1, 55, 0
1, 95856, Note_on_c, 1, 53, 75
1, 95904, Note_on_c, 1, 53, 0
1, 95904, Note_on_c, 1, 52, 75
1, 95952, Note_on_c, 1, 52, 0
1, 95952, Note_on_c, 1, 50, 75
1, 96000, Note_on_c, 0, 72, 75
1, 96000, Note_on_c, 0, 76, 75
1, 96000, Note_on_c, 1, 50, 0
1, 96000, Note_on_c, 1, 48, 75
1, 96048, Note_on_c, 0, 72, 0
1, 96048, Note_on_c, 0, 76, 0
1, 96096, Note_on_c, 1, 48, 0
1, 96096, Note_on_c, 1, 50, 75
1, 96144, Note_on_c, 1, 50, 0
1, 96144, Note_on_c, 1, 52, 75
1, 96192, Note_on_c, 1, 52, 0
1, 96192, Note_on_c, 1, 53, 75
1, 96240, Note_on_c, 1, 53, 0
1, 96240, Note_on_c, 1, 55, 75
1, 96288, Note_on_c, 1, 55, 0
1, 96288, Note_on_c, 1, 57, 75
1, 96336, Note_on_c, 1, 57, 0
1, 96336, Note_on_c, 1, 59, 75
1, 96384, Note_on_c, 1, 59, 0
1, 96384, Note_on_c, 1, 60, 75
1, 96432, Note_on_c, 1, 60, 0
1, 96432, Note_on_c, 1, 59, 75
1, 96480, Note_on_c, 1, 59, 0
1, 96480, Note_on_c, 1, 57, 75
1, 96528, Note_on_c, 1, 57, 0
1, 96528, Note_on_c, 1, 55, 75
1, 96576, Note_on_c, 0, 72, 75
1, 96576, Note_on_c, 0, 76, 75
1, 96576, Note_on_c, 1, 55, 0
1, 96576, Note_on_c, 1, 53, 75
1, 96624, Note_on_c, 0, 72, 0
1, 96624, Note_on_c, 0, 76, 0
1, 96624, Note_on_c, 1, 53, 0
1, 96624, Note_on_c, 1, 52, 75
1, 96672, Note_on_c, 1, 52, 0
1, 96672, Note_on_c, 1, 50, 75
1, 96720, Note_on_c, 1, 50, 0
1, 96720, Note_on_c, 1, 48, 75
1, 96768, Note_on_c, 0, 74, 45
1, 96768, Note_on_c, 1, 48, 0
1, 96768, Note_on_c, 1, 53, 75
1, 96768, Note_on_c, 1, 57, 75
1, 96816, Note_on_c, 0, 74, 0
1, 96816, Note_on_c, 0, 62, 45
1, 96864, Note_on_c, 0, 62, 0
1, 96864, Note_on_c, 0, 64, 45
1, 96912, Note_on_c, 0, 64, 0
1, 96912, Note_on_c, 0, 65, 45
1, 96960, Note_on_c, 0, 65, 0
1, 96960, Note_on_c, 0, 67, 45
1, 97008, Note_on_c, 0, 67, 0
1, 97008, Note_on_c, 0, 69, 45
1, 97056, Note_on_c, 0, 69, 0
1, 97056, Note_on_c, 0, 71, 45
1, 97104, Note_on_c, 0, 71, 0
1, 97104, Note_on_c, 0, 73, 45
1, 97152, Note_on_c, 0, 73, 0
1, 97152, Note_on_c, 0, 74, 45
1, 97200, Note_on_c, 0, 74, 0
1, 97200, Note_on_c, 0, 69, 45
1, 97248, Note_on_c, 0, 69, 0
1, 97248, Note_on_c, 0, 71, 45
1, 97296, Note_on_c, 0, 71, 0
1, 97296, Note_on_c, 0, 73, 45
1, 97344, Note_on_c, 0, 73, 0
1, 97344, Note_on_c, 0, 74, 45
1, 97392, Note_on_c, 0, 74, 0
1, 97392, Note_on_c, 0, 76, 47
1, 97440, Note_on_c, 0, 76, 0
1, 97440, Note_on_c, 0, 77, 49
1, 97488, Note_on_c, 0, 77, 0
1, 97488, Note_on_c, 0, 79, 51
1, 97488, Note_on_c, 1, 53, 0
1, 97488, Note_on_c, 1, 57, 0
1, 97536, Note_on_c, 0, 79, 0
1, 97536, Note_on_c, 0, 81, 53
1, 97536, Note_on_c, 1, 53, 75
1, 97584, Note_on_c, 0, 81, 0
1, 97584, Note_on_c, 0, 83, 55
1, 97632, Note_on_c, 0, 83, 0
1, 97632, Note_on_c, 0, 84, 57
1, 97680, Note_on_c, 0, 84, 0
1, 97680, Note_on_c, 0, 83, 59
1, 97728, Note_on_c, 0, 83, 0
1, 97728, Note_on_c, 0, 81, 61
1, 97776, Note_on_c, 0, 81, 0
1, 97776, Note_on_c, 0, 79, 63
1, 97824, Note_on_c, 0, 79, 0
1, 97824, Note_on_c, 0, 77, 65
1, 97824, Note_on_c, 1, 53, 0
1, 97824, Note_on_c, 1, 55, 81
1, 97872, Note_on_c, 0, 77, 0
1, 97872, Note_on_c, 0, 76, 67
1, 97920, Note_on_c, 0, 76, 0
1, 97920, Note_on_c, 0, 77, 69
1, 97920, Note_on_c, 1, 55, 0
1, 97920, Note_on_c, 1, 57, 83
1, 97968, Note_on_c, 0, 77, 0
1, 97968, Note_on_c, 0, 79, 71
1, 98016, Note_on_c, 0, 79, 0
1, 98016, Note_on_c, 0, 81, 74
1, 98064, Note_on_c, 0, 81, 0
1, 98064, Note_on_c, 0, 79, 77
1, 98112, Note_on_c, 0, 79, 0
1, 98112, Note_on_c, 0, 77, 80
1, 98160, Note_on_c, 0, 77, 0
1, 98160, Note_on_c, 0, 76, 83
1, 98208, Note_on_c, 0, 76, 0
1, 98208, Note_on_c, 0, 74, 86
1, 98208, Note_on_c, 1, 57, 0
1, 98208, Note_on_c, 1, 54, 89
1, 98256, Note_on_c, 0, 74, 0
1, 98256, Note_on_c, 0, 72, 89
1, 98302, Note_on_c, 1, 54, 0
1, 98304, Note_on_c, 0, 72, 0
1, 98304, Note_on_c, 0, 71, 127
1, 98304, Note_on_c, 1, 43, 92
1, 98352, Note_on_c, 1, 43, 0
1, 98352, Note_on_c, 1, 47, 92
1, 98400, Note_on_c, 0, 71, 0
1, 98400, Note_on_c, 0, 79, 92
1, 98400, Note_on_c, 1, 47, 0
1, 98400, Note_on_c, 1, 50, 92
1, 98432, Note_on_c, 0, 79, 0
1, 98448, Note_on_c, 1, 50, 0
1, 98448, Note_on_c, 1, 55, 92
1, 98496, Note_on_c, 0, 76, 92
1, 98496, Note_on_c, 1, 55, 0
1, 98496, Note_on_c, 1, 43, 92
1, 98528, Note_on_c, 0, 76, 0
1, 98544, Note_on_c, 1, 43, 0
1, 98544, Note_on_c, 1, 48, 92
1, 98592, Note_on_c, 0, 72, 92
1, 98592, Note_on_c, 1, 48, 0
1, 98592, Note_on_c, 1, 52, 92
1, 98624, Note_on_c, 0, 72, 0
1, 98640, Note_on_c, 1, 52, 0
1, 98640, Note_on_c, 1, 55, 92
1, 98688, Note_on_c, 0, 74, 127
1, 98688, Note_on_c, 1, 55, 0
1, 98688, Note_on_c, 1, 43, 92
1, 98736, Note_on_c, 1, 43, 0
1, 98736, Note_on_c, 1, 47, 92
1, 98784, Note_on_c, 0, 74, 0
1, 98784, Note_on_c, 0, 79, 92
1, 98784, Note_on_c, 1, 47, 0
1, 98784, Note_on_c, 1, 50, 92
1, 98816, Note_on_c, 0, 79, 0
1, 98832, Note_on_c, 1, 50, 0
1, 98832, Note_on_c, 1, 55, 92
1, 98880, Note_on_c, 0, 76, 92
1, 98880, Note_on_c, 1, 55, 0
1, 98880, Note_on_c, 1, 43, 92
1, 98912, Note_on_c, 0, 76, 0
1, 98928, Note_on_c, 1, 43, 0
1, 98928, Note_on_c, 1, 48, 92
1, 98976, Note_on_c, 0, 72, 92
1, 98976, Note_on_c, 1, 48, 0
1, 98976, Note_on_c, 1, 52, 92
1, 99008, Note_on_c, 0, 72, 0
1, 99024, Note_on_c, 1, 52, 0
1, 99024, Note_on_c, 1, 55, 92
1, 99072, Note_on_c, 0, 74, 92
1, 99072, Note_on_c, 1, 55, 0
1, 99072, Note_on_c, 1, 43, 92
1, 99120, Note_on_c, 0, 74, 0
1, 99120, Note_on_c, 1, 43, 0
1, 99264, Note_on_c, 0, 71, 92
1, 99264, Note_on_c, 0, 74, 92
1, 99264, Note_on_c, 0, 79, 92
1, 99264, Note_on_c, 1, 55, 92
1, 99312, Note_on_c, 0, 71, 0
1, 99312, Note_on_c, 0, 74, 0
1, 99312, Note_on_c, 0, 79, 0
1, 99312, Note_on_c, 1, 55, 0
1, 99456, Note_on_c, 0, 67, 92
1, 99456, Note_on_c, 1, 43, 92
1, 99504, Note_on_c, 0, 67, 0
1, 99504, Note_on_c, 1, 43, 0
1, 99840, Note_on_c, 1, 66, 63
1, 99888, Note_on_c, 1, 66, 0
1, 99888, Note_on_c, 1, 67, 45
1, 99936, Note_on_c, 1, 67, 0
1, 99936, Note_on_c, 1, 66, 45
1, 99984, Note_on_c, 1, 66, 0
1, 99984, Note_on_c, 1, 67, 45
1, 100032, Note_on_c, 1, 67, 0
1, 100032, Note_on_c, 1, 66, 45
1, 100080, Note_on_c, 1, 66, 0
1, 100080, Note_on_c, 1, 67, 45
1, 100128, Note_on_c, 1, 67, 0
1, 100128, Note_on_c, 1, 66, 45
1, 100176, Note_on_c, 1, 66, 0
1, 100176, Note_on_c, 1, 67, 45
1, 100224, Note_on_c, 1, 67, 0
1, 100224, Note_on_c, 1, 65, 63
1, 100272, Note_on_c, 1, 65, 0
1, 100272, Note_on_c, 1, 67, 45
1, 100320, Note_on_c, 1, 67, 0
1, 100320, Note_on_c, 1, 65, 45
1, 100368, Note_on_c, 1, 65, 0
1, 100368, Note_on_c, 1, 67, 45
1, 100416, Note_on_c, 1, 67, 0
1, 100416, Note_on_c, 1, 65, 45
1, 100464, Note_on_c, 1, 65, 0
1, 100464, Note_on_c, 1, 67, 45
1, 100512, Note_on_c, 1, 67, 0
1, 100512, Note_on_c, 1, 65, 45
1, 100560, Note_on_c, 1, 65, 0
1, 100560, Note_on_c, 1, 67, 45
1, 100606, Note_on_c, 1, 67, 0
1, 100608, Note_on_c, 0, 79, 84
1, 100608, Note_on_c, 1, 64, 63
1, 100654, Note_on_c, 1, 64, 0
1, 100656, Note_on_c, 1, 67, 45
1, 100702, Note_on_c, 1, 67, 0
1, 100704, Note_on_c, 0, 79, 0
1, 100704, Note_on_c, 0, 76, 60
1, 100704, Note_on_c, 1, 64, 45
1, 100736, Note_on_c, 0, 76, 0
1, 100750, Note_on_c, 1, 64, 0
1, 100752, Note_on_c, 1, 67, 45
1, 100798, Note_on_c, 1, 67, 0
1, 100800, Note_on_c, 0, 72, 60
1, 100800, Note_on_c, 1, 64, 45
1, 100846, Note_on_c, 1, 64, 0
1, 100848, Note_on_c, 1, 67, 45
1, 100894, Note_on_c, 1, 67, 0
1, 100896, Note_on_c, 1, 64, 45
1, 100942, Note_on_c, 1, 64, 0
1, 100944, Note_on_c, 1, 67, 45
1, 100990, Note_on_c, 1, 67, 0
1, 100992, Note_on_c, 1, 64, 45
1, 101038, Note_on_c, 1, 64, 0
1, 101040, Note_on_c, 1, 67, 45
1, 101086, Note_on_c, 1, 67, 0
1, 101088, Note_on_c, 0, 72, 0
1, 101088, Note_on_c, 0, 74, 60
1, 101088, Note_on_c, 1, 64, 45
1, 101134, Note_on_c, 1, 64, 0
1, 101136, Note_on_c, 0, 74, 0
1, 101136, Note_on_c, 0, 76, 60
1, 101136, Note_on_c, 1, 67, 45
1, 101182, Note_on_c, 1, 67, 0
1, 101184, Note_on_c, 0, 76, 0
1, 101184, Note_on_c, 0, 74, 60
1, 101184, Note_on_c, 1, 64, 45
1, 101230, Note_on_c, 1, 64, 0
1, 101232, Note_on_c, 1, 67, 45
1, 101278, Note_on_c, 1, 67, 0
1, 101280, Note_on_c, 0, 74, 0
1, 101280, Note_on_c, 0, 72, 60
1, 101280, Note_on_c, 1, 64, 45
1, 101312, Note_on_c, 0, 72, 0
1, 101326, Note_on_c, 1, 64, 0
1, 101328, Note_on_c, 1, 67, 45
1, 101374, Note_on_c, 1, 67, 0
1, 101376, Note_on_c, 0, 74, 84
1, 101376, Note_on_c, 1, 65, 45
1, 101400, Note_on_c, 0, 74, 0
1, 101400, Note_on_c, 0, 72, 60
1, 101422, Note_on_c, 1, 65, 0
1, 101424, Note_on_c, 0, 72, 0
1, 101424, Note_on_c, 0, 74, 60
1, 101424, Note_on_c, 1, 67, 45
1, 101448, Note_on_c, 0, 74, 0
1, 101448, Note_on_c, 0, 72, 60
1, 101470, Note_on_c, 1, 67, 0
1, 101472, Note_on_c, 0, 72, 0
1, 101472, Note_on_c, 0, 74, 60
1, 101472, Note_on_c, 1, 64, 45
1, 101496, Note_on_c, 0, 74, 0
1, 101496, Note_on_c, 0, 72, 60
1, 101518, Note_on_c, 1, 64, 0
1, 101520, Note_on_c, 0, 72, 0
1, 101520, Note_on_c, 0, 71, 60
1, 101520, Note_on_c, 1, 67, 45
1, 101552, Note_on_c, 0, 71, 0
1, 101566, Note_on_c, 1, 67, 0
1, 101568, Note_on_c, 0, 71, 60
1, 101568, Note_on_c, 1, 62, 45
1, 101614, Note_on_c, 1, 62, 0
1, 101616, Note_on_c, 1, 67, 45
1, 101662, Note_on_c, 1, 67, 0
1, 101664, Note_on_c, 1, 64, 45
1, 101710, Note_on_c, 1, 64, 0
1, 101712, Note_on_c, 1, 67, 45
1, 101728, Note_on_c, 0, 71, 0
1, 101758, Note_on_c, 1, 67, 0
1, 101760, Note_on_c, 1, 65, 45
1, 101806, Note_on_c, 1, 65, 0
1, 101808, Note_on_c, 1, 67, 45
1, 101854, Note_on_c, 1, 67, 0
1, 101856, Note_on_c, 1, 64, 45
1, 101902, Note_on_c, 1, 64, 0
1, 101904, Note_on_c, 1, 67, 45
1, 101950, Note_on_c, 1, 67, 0
1, 101952, Note_on_c, 1, 65, 45
1, 101998, Note_on_c, 1, 65, 0
1, 102000, Note_on_c, 1, 67, 45
1, 102046, Note_on_c, 1, 67, 0
1, 102048, Note_on_c, 1, 62, 45
1, 102094, Note_on_c, 1, 62, 0
1, 102096, Note_on_c, 1, 67, 45
1, 102142, Note_on_c, 1, 67, 0
1, 102144, Note_on_c, 0, 79, 84
1, 102144, Note_on_c, 1, 64, 45
1, 102190, Note_on_c, 1, 64, 0
1, 102192, Note_on_c, 1, 67, 45
1, 102238, Note_on_c, 1, 67, 0
1, 102240, Note_on_c, 0, 79, 0
1, 102240, Note_on_c, 0, 76, 60
1, 102240, Note_on_c, 1, 64, 45
1, 102272, Note_on_c, 0, 76, 0
1, 102286, Note_on_c, 1, 64, 0
1, 102288, Note_on_c, 1, 67, 45
1, 102334, Note_on_c, 1, 67, 0
1, 102336, Note_on_c, 0, 72, 60
1, 102336, Note_on_c, 1, 64, 45
1, 102382, Note_on_c, 1, 64, 0
1, 102384, Note_on_c, 1, 67, 45
1, 102430, Note_on_c, 1, 67, 0
1, 102432, Note_on_c, 1, 64, 45
1, 102478, Note_on_c, 1, 64, 0
1, 102480, Note_on_c, 1, 67, 45
1, 102526, Note_on_c, 1, 67, 0
1, 102528, Note_on_c, 1, 64, 45
1, 102574, Note_on_c, 1, 64, 0
1, 102576, Note_on_c, 1, 67, 45
1, 102622, Note_on_c, 1, 67, 0
1, 102624, Note_on_c, 0, 72, 0
1, 102624, Note_on_c, 0, 74, 60
1, 102624, Note_on_c, 1, 64, 45
1, 102670, Note_on_c, 1, 64, 0
1, 102672, Note_on_c, 0, 74, 0
1, 102672, Note_on_c, 0, 76, 60
1, 102672, Note_on_c, 1, 67, 45
1, 102718, Note_on_c, 1, 67, 0
1, 102720, Note_on_c, 0, 76, 0
1, 102720, Note_on_c, 0, 74, 60
1, 102720, Note_on_c, 1, 64, 45
1, 102766, Note_on_c, 1, 64, 0
1, 102768, Note_on_c, 1, 67, 45
1, 102814, Note_on_c, 1, 67, 0
1, 102816, Note_on_c, 0, 74, 0
1, 102816, Note_on_c, 0, 72, 60
1, 102816, Note_on_c, 1, 64, 45
1, 102848, Note_on_c, 0, 72, 0
1, 102862, Note_on_c, 1, 64, 0
1, 102864, Note_on_c, 1, 67, 45
1, 102910, Note_on_c, 1, 67, 0
1, 102912, Note_on_c, 0, 74, 84
1, 102912, Note_on_c, 1, 65, 60
1, 102934, Note_on_c, 0, 74, 0
1, 102936, Note_on_c, 0, 72, 60
1, 102958, Note_on_c, 0, 72, 0
1, 102958, Note_on_c, 1, 65, 0
1, 102960, Note_on_c, 0, 74, 60
1, 102960, Note_on_c, 1, 67, 60
1, 102982, Note_on_c, 0, 74, 0
1, 102984, Note_on_c, 0, 72, 60
1, 103006, Note_on_c, 0, 72, 0
1, 103006, Note_on_c, 1, 67, 0
1, 103008, Note_on_c, 0, 74, 60
1, 103008, Note_on_c, 1, 64, 60
1, 103030, Note_on_c, 0, 74, 0
1, 103032, Note_on_c, 0, 72, 60
1, 103054, Note_on_c, 0, 72, 0
1, 103054, Note_on_c, 1, 64, 0
1, 103056, Note_on_c, 0, 71, 60
1, 103056, Note_on_c, 1, 67, 60
1, 103088, Note_on_c, 0, 71, 0
1, 103102, Note_on_c, 1, 67, 0
1, 103104, Note_on_c, 0, 71, 60
1, 103104, Note_on_c, 1, 62, 60
1, 103150, Note_on_c, 1, 62, 0
1, 103152, Note_on_c, 1, 67, 60
1, 103198, Note_on_c, 1, 67, 0
1, 103200, Note_on_c, 1, 64, 60
1, 103246, Note_on_c, 1, 64, 0
1, 103248, Note_on_c, 1, 67, 60
1, 103264, Note_on_c, 0, 71, 0
1, 103294, Note_on_c, 1, 67, 0
1, 103296, Note_on_c, 1, 65, 60
1, 103342, Note_on_c, 1, 65, 0
1, 103344, Note_on_c, 1, 67, 60
1, 103390, Note_on_c, 1, 67, 0
1, 103392, Note_on_c, 1, 64, 60
1, 103438, Note_on_c, 1, 64, 0
1, 103440, Note_on_c, 1, 67, 60
1, 103486, Note_on_c, 1, 67, 0
1, 103488, Note_on_c, 1, 65, 60
1, 103534, Note_on_c, 1, 65, 0
1, 103536, Note_on_c, 1, 67, 60
1, 103582, Note_on_c, 1, 67, 0
1, 103584, Note_on_c, 1, 62, 60
1, 103630, Note_on_c, 1, 62, 0
1, 103632, Note_on_c, 1, 67, 60
1, 103678, Note_on_c, 1, 67, 0
1, 103680, Note_on_c, 0, 79, 105
1, 103728, Note_on_c, 1, 52, 60
1, 103776, Note_on_c, 1, 52, 0
1, 103776, Note_on_c, 1, 55, 60
1, 103824, Note_on_c, 1, 55, 0
1, 103824, Note_on_c, 1, 60, 60
1, 103872, Note_on_c, 0, 79, 0
1, 103872, Note_on_c, 1, 60, 0
1, 103872, Note_on_c, 1, 64, 60
1, 103920, Note_on_c, 0, 79, 75
1, 103968, Note_on_c, 0, 79, 0
1, 103968, Note_on_c, 0, 76, 75
1, 104016, Note_on_c, 0, 76, 0
1, 104016, Note_on_c, 0, 72, 75
1, 104064, Note_on_c, 0, 72, 0
1, 104064, Note_on_c, 0, 69, 75
1, 104064, Note_on_c, 1, 64, 0
1, 104112, Note_on_c, 1, 53, 60
1, 104160, Note_on_c, 1, 53, 0
1, 104160, Note_on_c, 1, 57, 60
1, 104208, Note_on_c, 1, 57, 0
1, 104208, Note_on_c, 1, 60, 60
1, 104256, Note_on_c, 0, 69, 0
1, 104256, Note_on_c, 1, 60, 0
1, 104256, Note_on_c, 1, 65, 60
1, 104304, Note_on_c, 0, 69, 75
1, 104352, Note_on_c, 0, 69, 0
1, 104352, Note_on_c, 0, 72, 75
1, 104400, Note_on_c, 0, 72, 0
1, 104400, Note_on_c, 0, 69, 75
1, 104448, Note_on_c, 0, 69, 0
1, 104448, Note_on_c, 0, 77, 105
1, 104448, Note_on_c, 1, 65, 0
1, 104496, Note_on_c, 1, 50, 60
1, 104544, Note_on_c, 1, 50, 0
1, 104544, Note_on_c, 1, 53, 60
1, 104592, Note_on_c, 1, 53, 0
1, 104592, Note_on_c, 1, 59, 60
1, 104608, Note_on_c, 0, 77, 0
1, 104640, Note_on_c, 1, 59, 0
1, 104640, Note_on_c, 1, 62, 60
1, 104688, Note_on_c, 0, 77, 75
1, 104736, Note_on_c, 0, 77, 0
1, 104736, Note_on_c, 0, 74, 75
1, 104784, Note_on_c, 0, 74, 0
1, 104784, Note_on_c, 0, 71, 75
1, 104800, Note_on_c, 1, 62, 0
1, 104832, Note_on_c, 0, 71, 0
1, 104832, Note_on_c, 0, 67, 75
1, 104880, Note_on_c, 1, 52, 60
1, 104928, Note_on_c, 1, 52, 0
1, 104928, Note_on_c, 1, 55, 60
1, 104976, Note_on_c, 1, 55, 0
1, 104976, Note_on_c, 1, 59, 60
1, 104992, Note_on_c, 0, 67, 0
1, 105024, Note_on_c, 1, 59, 0
1, 105024, Note_on_c, 1, 64, 60
1, 105072, Note_on_c, 0, 79, 75
1, 105120, Note_on_c, 0, 79, 0
1, 105120, Note_on_c, 0, 83, 75
1, 105168, Note_on_c, 0, 83, 0
1, 105168, Note_on_c, 0, 79, 75
1, 105184, Note_on_c, 1, 64, 0
1, 105216, Note_on_c, 0, 79, 0
1, 105216, Note_on_c, 0, 88, 105
1, 105264, Note_on_c, 1, 60, 60
1, 105312, Note_on_c, 1, 60, 0
1, 105312, Note_on_c, 1, 64, 60
1, 105360, Note_on_c, 1, 64, 0
1, 105360, Note_on_c, 1, 69, 60
1, 105376, Note_on_c, 0, 88, 0
1, 105408, Note_on_c, 1, 69, 0
1, 105408, Note_on_c, 1, 72, 60
1, 105456, Note_on_c, 0, 88, 75
1, 105504, Note_on_c, 0, 88, 0
1, 105504, Note_on_c, 0, 84, 75
1, 105552, Note_on_c, 0, 84, 0
1, 105552, Note_on_c, 0, 81, 75
1, 105568, Note_on_c, 1, 72, 0
1, 105600, Note_on_c, 0, 81, 0
1, 105600, Note_on_c, 0, 77, 75
1, 105648, Note_on_c, 1, 62, 60
1, 105696, Note_on_c, 1, 62, 0
1, 105696, Note_on_c, 1, 65, 60
1, 105744, Note_on_c, 1, 65, 0
1, 105744, Note_on_c, 1, 69, 60
1, 105760, Note_on_c, 0, 77, 0
1, 105792, Note_on_c, 1, 69, 0
1, 105792, Note_on_c, 1, 74, 60
1, 105840, Note_on_c, 0, 77, 75
1, 105888, Note_on_c, 0, 77, 0
1, 105888, Note_on_c, 0, 81, 75
1, 105936, Note_on_c, 0, 81, 0
1, 105936, Note_on_c, 0, 77, 75
1, 105952, Note_on_c, 1, 74, 0
1, 105984, Note_on_c, 0, 77, 0
1, 105984, Note_on_c, 0, 86, 105
1, 106032, Note_on_c, 1, 59, 60
1, 106080, Note_on_c, 1, 59, 0
1, 106080, Note_on_c, 1, 62, 60
1, 106128, Note_on_c, 1, 62, 0
1, 106128, Note_on_c, 1, 67, 60
1, 106144, Note_on_c, 0, 86, 0
1, 106176, Note_on_c, 1, 67, 0
1, 106176, Note_on_c, 1, 71, 60
1, 106224, Note_on_c, 0, 86, 75
1, 106272, Note_on_c, 0, 86, 0
1, 106272, Note_on_c, 0, 83, 75
1, 106320, Note_on_c, 0, 83, 0
1, 106320, Note_on_c, 0, 79, 75
1, 106336, Note_on_c, 1, 71, 0
1, 106368, Note_on_c, 0, 79, 0
1, 106368, Note_on_c, 0, 76, 75
1, 106416, Note_on_c, 1, 60, 60
1, 106464, Note_on_c, 1, 60, 0
1, 106464, Note_on_c, 1, 64, 60
1, 106512, Note_on_c, 1, 64, 0
1, 106512, Note_on_c, 1, 67, 60
1, 106528, Note_on_c, 0, 76, 0
1, 106560, Note_on_c, 1, 67, 0
1, 106560, Note_on_c, 1, 72, 60
1, 106608, Note_on_c, 0, 84, 75
1, 106656, Note_on_c, 0, 84, 0
1, 106656, Note_on_c, 0, 79, 75
1, 106704, Note_on_c, 0, 79, 0
1, 106704, Note_on_c, 0, 76, 75
1, 106720, Note_on_c, 1, 72, 0
1, 106752, Note_on_c, 0, 76, 0
1, 106752, Note_on_c, 0, 74, 45
1, 106848, Note_on_c, 1, 65, 60
1, 106848, Note_on_c, 1, 69, 60
1, 106880, Note_on_c, 1, 65, 0
1, 106880, Note_on_c, 1, 69, 0
1, 106944, Note_on_c, 1, 65, 60
1, 106944, Note_on_c, 1, 69, 60
1, 106976, Note_on_c, 1, 65, 0
1, 106976, Note_on_c, 1, 69, 0
1, 107040, Note_on_c, 1, 65, 60
1, 107040, Note_on_c, 1, 69, 60
1, 107072, Note_on_c, 1, 65, 0
1, 107072, Note_on_c, 1, 69, 0
1, 107136, Note_on_c, 0, 74, 0
1, 107136, Note_on_c, 0, 73, 45
1, 107136, Note_on_c, 1, 65, 60
1, 107136, Note_on_c, 1, 69, 60
1, 107160, Note_on_c, 0, 73, 0
1, 107160, Note_on_c, 0, 74, 45
1, 107168, Note_on_c, 1, 65, 0
1, 107168, Note_on_c, 1, 69, 0
1, 107232, Note_on_c, 1, 65, 62
1, 107232, Note_on_c, 1, 69, 62
1, 107264, Note_on_c, 1, 65, 0
1, 107264, Note_on_c, 1, 69, 0
1, 107328, Note_on_c, 0, 74, 0
1, 107328, Note_on_c, 0, 73, 51
1, 107328, Note_on_c, 1, 65, 64
1, 107328, Note_on_c, 1, 69, 64
1, 107352, Note_on_c, 0, 73, 0
1, 107352, Note_on_c, 0, 74, 52
1, 107360, Note_on_c, 1, 65, 0
1, 107360, Note_on_c, 1, 69, 0
1, 107424, Note_on_c, 1, 65, 66
1, 107424, Note_on_c, 1, 69, 66
1, 107456, Note_on_c, 1, 65, 0
1, 107456, Note_on_c, 1, 69, 0
1, 107520, Note_on_c, 0, 74, 0
1, 107520, Note_on_c, 0, 81, 82
1, 107616, Note_on_c, 1, 54, 71
1, 107616, Note_on_c, 1, 60, 71
1, 107616, Note_on_c, 1, 63, 71
1, 107648, Note_on_c, 1, 54, 0
1, 107648, Note_on_c, 1, 60, 0
1, 107648, Note_on_c, 1, 63, 0
1, 107712, Note_on_c, 1, 54, 74
1, 107712, Note_on_c, 1, 60, 74
1, 107712, Note_on_c, 1, 63, 74
1, 107744, Note_on_c, 1, 54, 0
1, 107744, Note_on_c, 1, 60, 0
1, 107744, Note_on_c, 1, 63, 0
1, 107808, Note_on_c, 1, 54, 77
1, 107808, Note_on_c, 1, 60, 77
1, 107808, Note_on_c, 1, 63, 77
1, 107840, Note_on_c, 1, 54, 0
1, 107840, Note_on_c, 1, 60, 0
1, 107840, Note_on_c, 1, 63, 0
1, 107904, Note_on_c, 0, 81, 0
1, 107904, Note_on_c, 0, 80, 75
1, 107904, Note_on_c, 1, 54, 80
1, 107904, Note_on_c, 1, 60, 80
1, 107904, Note_on_c, 1, 63, 80
1, 107928, Note_on_c, 0, 80, 0
1, 107928, Note_on_c, 0, 81, 76
1, 107936, Note_on_c, 1, 54, 0
1, 107936, Note_on_c, 1, 60, 0
1, 107936, Note_on_c, 1, 63, 0
1, 108000, Note_on_c, 1, 54, 83
1, 108000, Note_on_c, 1, 60, 83
1, 108000, Note_on_c, 1, 63, 83
1, 108032, Note_on_c, 1, 54, 0
1, 108032, Note_on_c, 1, 60, 0
1, 108032, Note_on_c, 1, 63, 0
1, 108096, Note_on_c, 0, 81, 0
1, 108096, Note_on_c, 0, 80, 83
1, 108096, Note_on_c, 1, 54, 86
1, 108096, Note_on_c, 1, 60, 86
1, 108096, Note_on_c, 1, 63, 86
1, 108120, Note_on_c, 0, 80, 0
1, 108120, Note_on_c, 0, 81, 84
1, 108128, Note_on_c, 1, 54, 0
1, 108128, Note_on_c, 1, 60, 0
1, 108128, Note_on_c, 1, 63, 0
1, 108192, Note_on_c, 1, 54, 89
1, 108192, Note_on_c, 1, 60, 89
1, 108192, Note_on_c, 1, 63, 89
1, 108224, Note_on_c, 1, 54, 0
1, 108224, Note_on_c, 1, 60, 0
1, 108224, Note_on_c, 1, 63, 0
1, 108288, Note_on_c, 0, 81, 0
1, 108288, Note_on_c, 0, 79, 92
1, 108288, Note_on_c, 1, 55, 92
1, 108336, Note_on_c, 1, 55, 0
1, 108336, Note_on_c, 1, 64, 92
1, 108384, Note_on_c, 0, 79, 0
1, 108384, Note_on_c, 0, 81, 92
1, 108384, Note_on_c, 1, 64, 0
1, 108384, Note_on_c, 1, 60, 92
1, 108432, Note_on_c, 0, 81, 0
1, 108432, Note_on_c, 0, 83, 92
1, 108432, Note_on_c, 1, 60, 0
1, 108432, Note_on_c, 1, 64, 92
1, 108480, Note_on_c, 0, 83, 0
1, 108480, Note_on_c, 0, 84, 92
1, 108480, Note_on_c, 1, 64, 0
1, 108480, Note_on_c, 1, 55, 92
1, 108528, Note_on_c, 0, 84, 0
1, 108528, Note_on_c, 0, 86, 92
1, 108528, Note_on_c, 1, 55, 0
1, 108528, Note_on_c, 1, 64, 92
1, 108576, Note_on_c, 0, 86, 0
1, 108576, Note_on_c, 0, 88, 92
1, 108576, Note_on_c, 1, 64, 0
1, 108576, Note_on_c, 1, 60, 92
1, 108624, Note_on_c, 0, 88, 0
1, 108624, Note_on_c, 0, 86, 92
1, 108624, Note_on_c, 1, 60, 0
1, 108624, Note_on_c, 1, 64, 92
1, 108672, Note_on_c, 0, 86, 0
1, 108672, Note_on_c, 0, 84, 92
1, 108672, Note_on_c, 1, 64, 0
1, 108672, Note_on_c, 1, 55, 92
1, 108720, Note_on_c, 0, 84, 0
1, 108720, Note_on_c, 0, 83, 92
1, 108720, Note_on_c, 1, 55, 0
1, 108720, Note_on_c, 1, 64, 92
1, 108768, Note_on_c, 0, 83, 0
1, 108768, Note_on_c, 0, 81, 92
1, 108768, Note_on_c, 1, 64, 0
1, 108768, Note_on_c, 1, 60, 92
1, 108816, Note_on_c, 0, 81, 0
1, 108816, Note_on_c, 0, 79, 92
1, 108816, Note_on_c, 1, 60, 0
1, 108816, Note_on_c, 1, 64, 92
1, 108864, Note_on_c, 0, 79, 0
1, 108864, Note_on_c, 0, 77, 92
1, 108864, Note_on_c, 1, 64, 0
1, 108864, Note_on_c, 1, 55, 92
1, 108912, Note_on_c, 0, 77, 0
1, 108912, Note_on_c, 0, 76, 92
1, 108912, Note_on_c, 1, 55, 0
1, 108912, Note_on_c, 1, 64, 92
1, 108960, Note_on_c, 0, 76, 0
1, 108960, Note_on_c, 0, 74, 92
1, 108960, Note_on_c, 1, 64, 0
1, 108960, Note_on_c, 1, 60, 92
1, 109008, Note_on_c, 0, 74, 0
1, 109008, Note_on_c, 0, 72, 92
1, 109008, Note_on_c, 1, 60, 0
1, 109008, Note_on_c, 1, 64, 92
1, 109054, Note_on_c, 0, 72, 0
1, 109056, Note_on_c, 0, 76, 92
1, 109056, Note_on_c, 1, 64, 0
1, 109056, Note_on_c, 1, 55, 92
1, 109080, Note_on_c, 0, 76, 0
1, 109080, Note_on_c, 0, 74, 92
1, 109104, Note_on_c, 0, 74, 0
1, 109104, Note_on_c, 0, 76, 92
1, 109104, Note_on_c, 1, 55, 0
1, 109104, Note_on_c, 1, 65, 92
1, 109128, Note_on_c, 0, 76, 0
1, 109128, Note_on_c, 0, 74, 92
1, 109152, Note_on_c, 0, 74, 0
1, 109152, Note_on_c, 0, 76, 92
1, 109152, Note_on_c, 1, 65, 0
1, 109152, Note_on_c, 1, 59, 92
1, 109176, Note_on_c, 0, 76, 0
1, 109176, Note_on_c, 0, 74, 92
1, 109200, Note_on_c, 0, 74, 0
1, 109200, Note_on_c, 0, 76, 92
1, 109200, Note_on_c, 1, 59, 0
1, 109200, Note_on_c, 1, 65, 92
1, 109224, Note_on_c, 0, 76, 0
1, 109224, Note_on_c, 0, 74, 92
1, 109248, Note_on_c, 0, 74, 0
1, 109248, Note_on_c, 0, 76, 92
1, 109248, Note_on_c, 1, 65, 0
1, 109248, Note_on_c, 1, 55, 92
1, 109272, Note_on_c, 0, 76, 0
1, 109272, Note_on_c, 0, 74, 92
1, 109296, Note_on_c, 0, 74, 0
1, 109296, Note_on_c, 0, 76, 92
1, 109296, Note_on_c, 1, 55, 0
1, 109296, Note_on_c, 1, 65, 92
1, 109320, Note_on_c, 0, 76, 0
1, 109320, Note_on_c, 0, 74, 92
1, 109344, Note_on_c, 0, 74, 0
1, 109344, Note_on_c, 0, 76, 92
1, 109344, Note_on_c, 1, 65, 0
1, 109344, Note_on_c, 1, 59, 92
1, 109368, Note_on_c, 0, 76, 0
1, 109368, Note_on_c, 0, 74, 92
1, 109392, Note_on_c, 0, 74, 0
1, 109392, Note_on_c, 0, 76, 92
1, 109392, Note_on_c, 1, 59, 0
1, 109392, Note_on_c, 1, 65, 92
1, 109416, Note_on_c, 0, 76, 0
1, 109416, Note_on_c, 0, 74, 92
1, 109440, Note_on_c, 0, 74, 0
1, 109440, Note_on_c, 0, 76, 92
1, 109440, Note_on_c, 1, 65, 0
1, 109440, Note_on_c, 1, 55, 92
1, 109464, Note_on_c, 0, 76, 0
1, 109464, Note_on_c, 0, 74, 92
1, 109488, Note_on_c, 0, 74, 0
1, 109488, Note_on_c, 0, 76, 92
1, 109488, Note_on_c, 1, 55, 0
1, 109488, Note_on_c, 1, 65, 92
1, 109512, Note_on_c, 0, 76, 0
1, 109512, Note_on_c, 0, 74, 92
1, 109536, Note_on_c, 0, 74, 0
1, 109536, Note_on_c, 0, 76, 92
1, 109536, Note_on_c, 1, 65, 0
1, 109536, Note_on_c, 1, 59, 92
1, 109560, Note_on_c, 0, 76, 0
1, 109560, Note_on_c, 0, 74, 92
1, 109584, Note_on_c, 0, 74, 0
1, 109584, Note_on_c, 0, 76, 92
1, 109584, Note_on_c, 1, 59, 0
1, 109584, Note_on_c, 1, 65, 92
1, 109608, Note_on_c, 0, 76, 0
1, 109608, Note_on_c, 0, 74, 92
1, 109632, Note_on_c, 0, 74, 0
1, 109632, Note_on_c, 0, 76, 92
1, 109632, Note_on_c, 1, 65, 0
1, 109632, Note_on_c, 1, 55, 92
1, 109656, Note_on_c, 0, 76, 0
1, 109656, Note_on_c, 0, 74, 92
1, 109680, Note_on_c, 0, 74, 0
1, 109680, Note_on_c, 0, 76, 92
1, 109680, Note_on_c, 1, 55, 0
1, 109680, Note_on_c, 1, 65, 92
1, 109704, Note_on_c, 0, 76, 0
1, 109704, Note_on_c, 0, 74, 92
1, 109728, Note_on_c, 0, 74, 0
1, 109728, Note_on_c, 0, 76, 92
1, 109728, Note_on_c, 1, 65, 0
1, 109728, Note_on_c, 1, 59, 92
1, 109752, Note_on_c, 0, 76, 0
1, 109752, Note_on_c, 0, 74, 92
1, 109776, Note_on_c, 0, 74, 0
1, 109776, Note_on_c, 0, 72, 92
1, 109776, Note_on_c, 1, 59, 0
1, 109776, Note_on_c, 1, 65, 92
1, 109800, Note_on_c, 0, 72, 0
1, 109800, Note_on_c, 0, 74, 92
1, 109822, Note_on_c, 1, 65, 0
1, 109824, Note_on_c, 0, 74, 0
1, 109824, Note_on_c, 0, 72, 92
1, 109824, Note_on_c, 1, 60, 92
1, 109824, Note_on_c, 1, 64, 92
1, 109872, Note_on_c, 0, 72, 0
1, 109872, Note_on_c, 1, 60, 0
1, 109872, Note_on_c, 1, 64, 0
1, 110016, Note_on_c, 0, 72, 92
1, 110064, Note_on_c, 0, 72, 0
1, 110064, Note_on_c, 0, 67, 92
1, 110112, Note_on_c, 0, 67, 0
1, 110112, Note_on_c, 0, 72, 92
1, 110160, Note_on_c, 0, 72, 0
1, 110160, Note_on_c, 0, 76, 92
1, 110208, Note_on_c, 0, 76, 0
1, 110208, Note_on_c, 0, 79, 127
1, 110256, Note_on_c, 0, 79, 0
1, 110256, Note_on_c, 0, 76, 92
1, 110304, Note_on_c, 0, 76, 0
1, 110304, Note_on_c, 0, 72, 92
1, 110352, Note_on_c, 0, 72, 0
1, 110352, Note_on_c, 0, 76, 92
1, 110400, Note_on_c, 0, 76, 0
1, 110400, Note_on_c, 0, 77, 127
1, 110400, Note_on_c, 1, 55, 92
1, 110400, Note_on_c, 1, 62, 92
1, 110400, Note_on_c, 1, 65, 92
1, 110448, Note_on_c, 0, 77, 0
1, 110448, Note_on_c, 0, 74, 92
1, 110496, Note_on_c, 0, 74, 0
1, 110496, Note_on_c, 0, 71, 92
1, 110544, Note_on_c, 0, 71, 0
1, 110544, Note_on_c, 0, 74, 92
1, 110592, Note_on_c, 0, 74, 0
1, 110592, Note_on_c, 0, 72, 92
1, 110592, Note_on_c, 1, 55, 0
1, 110592, Note_on_c, 1, 62, 0
1, 110592, Note_on_c, 1, 65, 0
1, 110592, Note_on_c, 1, 60, 92
1, 110592, Note_on_c, 1, 64, 92
1, 110640, Note_on_c, 0, 72, 0
1, 110640, Note_on_c, 1, 60, 0
1, 110640, Note_on_c, 1, 64, 0
1, 110784, Note_on_c, 0, 60, 92
1, 110832, Note_on_c, 0, 60, 0
1, 110832, Note_on_c, 0, 55, 92
1, 110880, Note_on_c, 0, 55, 0
1, 110880, Note_on_c, 0, 60, 92
1, 110928, Note_on_c, 0, 60, 0
1, 110928, Note_on_c, 0, 64, 92
1, 110976, Note_on_c, 0, 64, 0
1, 110976, Note_on_c, 0, 67, 127
1, 111024, Note_on_c, 0, 67, 0
1, 111024, Note_on_c, 0, 64, 92
1, 111072, Note_on_c, 0, 64, 0
1, 111072, Note_on_c, 0, 60, 92
1, 111120, Note_on_c, 0, 60, 0
1, 111120, Note_on_c, 0, 64, 92
1, 111168, Note_on_c, 0, 64, 0
1, 111168, Note_on_c, 0, 65, 127
1, 111168, Note_on_c, 1, 43, 92
1, 111168, Note_on_c, 1, 50, 92
1, 111168, Note_on_c, 1, 53, 92
1, 111216, Note_on_c, 0, 65, 0
1, 111216, Note_on_c, 0, 62, 92
1, 111264, Note_on_c, 0, 62, 0
1, 111264, Note_on_c, 0, 59, 92
1, 111312, Note_on_c, 0, 59, 0
1, 111312, Note_on_c, 0, 62, 92
1, 111360, Note_on_c, 0, 62, 0
1, 111360, Note_on_c, 0, 60, 92
1, 111360, Note_on_c, 1, 43, 0
1, 111360, Note_on_c, 1, 50, 0
1, 111360, Note_on_c, 1, 53, 0
1, 111360, Note_on_c, 1, 48, 92
1, 111360, Note_on_c, 1, 52, 92
1, 111408, Note_on_c, 0, 60, 0
1, 111408, Note_on_c, 1, 48, 0
1, 111408, Note_on_c, 1, 52, 0
1, 111552, Note_on_c, 0, 76, 92
1, 111552, Note_on_c, 0, 79, 92
1, 111552, Note_on_c, 0, 84, 92
1, 111552, Note_on_c, 1, 48, 92
1, 111552, Note_on_c, 1, 60, 92
1, 111600, Note_on_c, 0, 76, 0
1, 111600, Note_on_c, 0, 79, 0
1, 111600, Note_on_c, 0, 84, 0
1, 111600, Note_on_c, 1, 48, 0
1, 111600, Note_on_c, 1, 60, 0
1, 111744, Note_on_c, 0, 72, 92
1, 111744, Note_on_c, 1, 36, 92
1, 111744, Note_on_c, 1, 48, 92
1, 111792, Note_on_c, 0, 72, 0
1, 111792, Note_on_c, 1, 36, 0
1, 111792, Note_on_c, 1, 48, 0
1, 111802, End_track
0, 0, End_of_file