0, 0, Header, 0, 1, 1024
1, 0, Start_track
1, 0, Tempo, 3000000
1, 1024, Note_on_c, 0, 71, 46
1, 1280, Note_on_c, 0, 71, 0
1, 1280, Note_on_c, 0, 69, 44
1, 1536, Note_on_c, 0, 69, 0
1, 1536, Note_on_c, 0, 68, 43
1, 1792, Note_on_c, 0, 68, 0
1, 1792, Note_on_c, 0, 69, 44
1, 2048, Note_on_c, 0, 69, 0
1, 2048, Note_on_c, 0, 72, 47
1, 2048, Note_on_c, 0, 57, 44
1, 2202, Note_on_c, 0, 72, 0
1, 2560, Note_on_c, 0, 57, 0
1, 2560, Note_on_c, 0, 60, 42
1, 2560, Note_on_c, 0, 64, 40
1, 2637, Note_on_c, 0, 60, 0
1, 2714, Note_on_c, 0, 64, 0
1, 3072, Note_on_c, 0, 74, 50
1, 3072, Note_on_c, 0, 60, 42
1, 3072, Note_on_c, 0, 64, 40
1, 3149, Note_on_c, 0, 60, 0
1, 3226, Note_on_c, 0, 64, 0
1, 3328, Note_on_c, 0, 74, 0
1, 3328, Note_on_c, 0, 72, 47
1, 3584, Note_on_c, 0, 72, 0
1, 3584, Note_on_c, 0, 71, 45
1, 3584, Note_on_c, 0, 60, 42
1, 3584, Note_on_c, 0, 64, 40
1, 3661, Note_on_c, 0, 60, 0
1, 3738, Note_on_c, 0, 64, 0
1, 3840, Note_on_c, 0, 71, 0
1, 3840, Note_on_c, 0, 72, 47
1, 4096, Note_on_c, 0, 72, 0
1, 4096, Note_on_c, 0, 76, 53
1, 4096, Note_on_c, 0, 57, 47
1, 4250, Note_on_c, 0, 76, 0
1, 4608, Note_on_c, 0, 57, 0
1, 4608, Note_on_c, 0, 60, 43
1, 4608, Note_on_c, 0, 64, 41
1, 4685, Note_on_c, 0, 60, 0
1, 4762, Note_on_c, 0, 64, 0
1, 5120, Note_on_c, 0, 77, 57
1, 5120, Note_on_c, 0, 60, 43
1, 5120, Note_on_c, 0, 64, 41
1, 5197, Note_on_c, 0, 60, 0
1, 5274, Note_on_c, 0, 64, 0
1, 5376, Note_on_c, 0, 77, 0
1, 5376, Note_on_c, 0, 76, 54
1, 5632, Note_on_c, 0, 76, 0
1, 5632, Note_on_c, 0, 75, 52
1, 5632, Note_on_c, 0, 60, 43
1, 5632, Note_on_c, 0, 64, 41
1, 5709, Note_on_c, 0, 60, 0
1, 5786, Note_on_c, 0, 64, 0
1, 5888, Note_on_c, 0, 75, 0
1, 5888, Note_on_c, 0, 76, 52
1, 6144, Note_on_c, 0, 76, 0
1, 6144, Note_on_c, 0, 83, 59
1, 6144, Note_on_c, 0, 57, 48
1, 6298, Note_on_c, 0, 57, 0
1, 6400, Note_on_c, 0, 83, 0
1, 6400, Note_on_c, 0, 81, 55
1, 6656, Note_on_c, 0, 81, 0
1, 6656, Note_on_c, 0, 80, 55
1, 6656, Note_on_c, 0, 60, 46
1, 6656, Note_on_c, 0, 64, 44
1, 6733, Note_on_c, 0, 60, 0
1, 6810, Note_on_c, 0, 64, 0
1, 6912, Note_on_c, 0, 80, 0
1, 6912, Note_on_c, 0, 81, 60
1, 7168, Note_on_c, 0, 81, 0
1, 7168, Note_on_c, 0, 83, 60
1, 7168, Note_on_c, 0, 57, 44
1, 7322, Note_on_c, 0, 57, 0
1, 7424, Note_on_c, 0, 83, 0
1, 7424, Note_on_c, 0, 81, 60
1, 7680, Note_on_c, 0, 81, 0
1, 7680, Note_on_c, 0, 80, 60
1, 7680, Note_on_c, 0, 60, 46
1, 7680, Note_on_c, 0, 64, 44
1, 7757, Note_on_c, 0, 60, 0
1, 7834, Note_on_c, 0, 64, 0
1, 7936, Note_on_c, 0, 80, 0
1, 7936, Note_on_c, 0, 81, 60
1, 8192, Note_on_c, 0, 81, 0
1, 8192, Note_on_c, 0, 84, 74
1, 8192, Note_on_c, 0, 57, 47
1, 8346, Note_on_c, 0, 57, 0
1, 8704, Note_on_c, 0, 60, 46
1, 8704, Note_on_c, 0, 64, 44
1, 8781, Note_on_c, 0, 60, 0
1, 8858, Note_on_c, 0, 64, 0
1, 9216, Note_on_c, 0, 84, 0
1, 9216, Note_on_c, 0, 81, 60
1, 9216, Note_on_c, 0, 60, 46
1, 9216, Note_on_c, 0, 64, 44
1, 9293, Note_on_c, 0, 60, 0
1, 9370, Note_on_c, 0, 81, 0
1, 9370, Note_on_c, 0, 64, 0
1, 9728, Note_on_c, 0, 84, 65
1, 9728, Note_on_c, 0, 60, 46
1, 9728, Note_on_c, 0, 64, 44
1, 9805, Note_on_c, 0, 60, 0
1, 9882, Note_on_c, 0, 84, 0
1, 9882, Note_on_c, 0, 64, 0
1, 10170, Note_on_c, 0, 79, 66
1, 10205, Note_on_c, 0, 79, 0
1, 10205, Note_on_c, 0, 81, 68
1, 10240, Note_on_c, 0, 81, 0
1, 10240, Note_on_c, 0, 83, 78
1, 10240, Note_on_c, 0, 52, 62
1, 10394, Note_on_c, 0, 83, 0
1, 10394, Note_on_c, 0, 52, 0
1, 10752, Note_on_c, 0, 78, 50
1, 10752, Note_on_c, 0, 81, 55
1, 10752, Note_on_c, 0, 59, 49
1, 10752, Note_on_c, 0, 64, 47
1, 10829, Note_on_c, 0, 78, 0
1, 10829, Note_on_c, 0, 59, 0
1, 10906, Note_on_c, 0, 81, 0
1, 10906, Note_on_c, 0, 64, 0
1, 11264, Note_on_c, 0, 76, 46
1, 11264, Note_on_c, 0, 79, 50
1, 11264, Note_on_c, 0, 59, 49
1, 11264, Note_on_c, 0, 64, 47
1, 11341, Note_on_c, 0, 76, 0
1, 11341, Note_on_c, 0, 59, 0
1, 11418, Note_on_c, 0, 79, 0
1, 11418, Note_on_c, 0, 64, 0
1, 11776, Note_on_c, 0, 78, 50
1, 11776, Note_on_c, 0, 81, 55
1, 11776, Note_on_c, 0, 59, 49
1, 11776, Note_on_c, 0, 64, 47
1, 11853, Note_on_c, 0, 78, 0
1, 11853, Note_on_c, 0, 59, 0
1, 11930, Note_on_c, 0, 81, 0
1, 11930, Note_on_c, 0, 64, 0
1, 12218, Note_on_c, 0, 79, 64
1, 12253, Note_on_c, 0, 79, 0
1, 12253, Note_on_c, 0, 81, 66
1, 12288, Note_on_c, 0, 81, 0
1, 12288, Note_on_c, 0, 83, 76
1, 12288, Note_on_c, 0, 52, 62
1, 12442, Note_on_c, 0, 83, 0
1, 12442, Note_on_c, 0, 52, 0
1, 12800, Note_on_c, 0, 78, 50
1, 12800, Note_on_c, 0, 81, 56
1, 12800, Note_on_c, 0, 59, 48
1, 12800, Note_on_c, 0, 64, 46
1, 12877, Note_on_c, 0, 78, 0
1, 12877, Note_on_c, 0, 59, 0
1, 12954, Note_on_c, 0, 81, 0
1, 12954, Note_on_c, 0, 64, 0
1, 13312, Note_on_c, 0, 76, 44
1, 13312, Note_on_c, 0, 79, 50
1, 13312, Note_on_c, 0, 59, 48
1, 13312, Note_on_c, 0, 64, 46
1, 13389, Note_on_c, 0, 76, 0
1, 13389, Note_on_c, 0, 59, 0
1, 13466, Note_on_c, 0, 79, 0
1, 13466, Note_on_c, 0, 64, 0
1, 13824, Note_on_c, 0, 78, 50
1, 13824, Note_on_c, 0, 81, 56
1, 13824, Note_on_c, 0, 59, 49
1, 13824, Note_on_c, 0, 64, 47
1, 13901, Note_on_c, 0, 78, 0
1, 13901, Note_on_c, 0, 59, 0
1, 13978, Note_on_c, 0, 81, 0
1, 13978, Note_on_c, 0, 64, 0
1, 14266, Note_on_c, 0, 79, 64
1, 14301, Note_on_c, 0, 79, 0
1, 14301, Note_on_c, 0, 81, 66
1, 14336, Note_on_c, 0, 81, 0
1, 14336, Note_on_c, 0, 83, 76
1, 14336, Note_on_c, 0, 52, 63
1, 14490, Note_on_c, 0, 83, 0
1, 14490, Note_on_c, 0, 52, 0
1, 14848, Note_on_c, 0, 78, 50
1, 14848, Note_on_c, 0, 81, 59
1, 14848, Note_on_c, 0, 59, 49
1, 14848, Note_on_c, 0, 64, 47
1, 14925, Note_on_c, 0, 78, 0
1, 14925, Note_on_c, 0, 59, 0
1, 15002, Note_on_c, 0, 81, 0
1, 15002, Note_on_c, 0, 64, 0
1, 15360, Note_on_c, 0, 76, 50
1, 15360, Note_on_c, 0, 79, 56
1, 15360, Note_on_c, 0, 47, 50
1, 15437, Note_on_c, 0, 76, 0
1, 15514, Note_on_c, 0, 79, 0
1, 15514, Note_on_c, 0, 47, 0
1, 15872, Note_on_c, 0, 75, 50
1, 15872, Note_on_c, 0, 78, 54
1, 15872, Note_on_c, 0, 59, 47
1, 15949, Note_on_c, 0, 75, 0
1, 16026, Note_on_c, 0, 78, 0
1, 16026, Note_on_c, 0, 59, 0
1, 16384, Note_on_c, 0, 76, 59
1, 16384, Note_on_c, 0, 52, 56
1, 17408, Note_on_c, 0, 76, 0
1, 17408, Note_on_c, 0, 71, 47
1, 17408, Note_on_c, 0, 52, 0
1, 17664, Note_on_c, 0, 71, 0
1, 17664, Note_on_c, 0, 69, 45
1, 17920, Note_on_c, 0, 69, 0
1, 17920, Note_on_c, 0, 68, 43
1, 18176, Note_on_c, 0, 68, 0
1, 18176, Note_on_c, 0, 69, 46
1, 18432, Note_on_c, 0, 69, 0
1, 18432, Note_on_c, 0, 72, 47
1, 18432, Note_on_c, 0, 57, 44
1, 18586, Note_on_c, 0, 72, 0
1, 18944, Note_on_c, 0, 57, 0
1, 18944, Note_on_c, 0, 60, 42
1, 18944, Note_on_c, 0, 64, 40
1, 19021, Note_on_c, 0, 60, 0
1, 19098, Note_on_c, 0, 64, 0
1, 19456, Note_on_c, 0, 74, 50
1, 19456, Note_on_c, 0, 60, 42
1, 19456, Note_on_c, 0, 64, 40
1, 19533, Note_on_c, 0, 60, 0
1, 19610, Note_on_c, 0, 64, 0
1, 19712, Note_on_c, 0, 74, 0
1, 19712, Note_on_c, 0, 72, 47
1, 19968, Note_on_c, 0, 72, 0
1, 19968, Note_on_c, 0, 71, 45
1, 19968, Note_on_c, 0, 60, 42
1, 19968, Note_on_c, 0, 64, 40
1, 20045, Note_on_c, 0, 60, 0
1, 20122, Note_on_c, 0, 64, 0
1, 20224, Note_on_c, 0, 71, 0
1, 20224, Note_on_c, 0, 72, 47
1, 20480, Note_on_c, 0, 72, 0
1, 20480, Note_on_c, 0, 76, 53
1, 20480, Note_on_c, 0, 57, 47
1, 20634, Note_on_c, 0, 76, 0
1, 20992, Note_on_c, 0, 57, 0
1, 20992, Note_on_c, 0, 60, 43
1, 20992, Note_on_c, 0, 64, 41
1, 21069, Note_on_c, 0, 60, 0
1, 21146, Note_on_c, 0, 64, 0
1, 21504, Note_on_c, 0, 77, 57
1, 21504, Note_on_c, 0, 60, 43
1, 21504, Note_on_c, 0, 64, 41
1, 21581, Note_on_c, 0, 60, 0
1, 21658, Note_on_c, 0, 64, 0
1, 21760, Note_on_c, 0, 77, 0
1, 21760, Note_on_c, 0, 76, 54
1, 22016, Note_on_c, 0, 76, 0
1, 22016, Note_on_c, 0, 75, 52
1, 22016, Note_on_c, 0, 60, 43
1, 22016, Note_on_c, 0, 64, 41
1, 22093, Note_on_c, 0, 60, 0
1, 22170, Note_on_c, 0, 64, 0
1, 22272, Note_on_c, 0, 75, 0
1, 22272, Note_on_c, 0, 76, 52
1, 22528, Note_on_c, 0, 76, 0
1, 22528, Note_on_c, 0, 83, 59
1, 22528, Note_on_c, 0, 57, 48
1, 22682, Note_on_c, 0, 57, 0
1, 22784, Note_on_c, 0, 83, 0
1, 22784, Note_on_c, 0, 81, 55
1, 23040, Note_on_c, 0, 81, 0
1, 23040, Note_on_c, 0, 80, 55
1, 23040, Note_on_c, 0, 60, 46
1, 23040, Note_on_c, 0, 64, 44
1, 23117, Note_on_c, 0, 60, 0
1, 23194, Note_on_c, 0, 64, 0
1, 23296, Note_on_c, 0, 80, 0
1, 23296, Note_on_c, 0, 81, 60
1, 23552, Note_on_c, 0, 81, 0
1, 23552, Note_on_c, 0, 83, 60
1, 23552, Note_on_c, 0, 57, 44
1, 23706, Note_on_c, 0, 57, 0
1, 23808, Note_on_c, 0, 83, 0
1, 23808, Note_on_c, 0, 81, 60
1, 24064, Note_on_c, 0, 81, 0
1, 24064, Note_on_c, 0, 80, 60
1, 24064, Note_on_c, 0, 60, 46
1, 24064, Note_on_c, 0, 64, 44
1, 24141, Note_on_c, 0, 60, 0
1, 24218, Note_on_c, 0, 64, 0
1, 24320, Note_on_c, 0, 80, 0
1, 24320, Note_on_c, 0, 81, 60
1, 24576, Note_on_c, 0, 81, 0
1, 24576, Note_on_c, 0, 84, 74
1, 24576, Note_on_c, 0, 57, 47
1, 24730, Note_on_c, 0, 57, 0
1, 25088, Note_on_c, 0, 60, 46
1, 25088, Note_on_c, 0, 64, 44
1, 25165, Note_on_c, 0, 60, 0
1, 25242, Note_on_c, 0, 64, 0
1, 25600, Note_on_c, 0, 84, 0
1, 25600, Note_on_c, 0, 81, 60
1, 25600, Note_on_c, 0, 60, 46
1, 25600, Note_on_c, 0, 64, 44
1, 25677, Note_on_c, 0, 60, 0
1, 25754, Note_on_c, 0, 81, 0
1, 25754, Note_on_c, 0, 64, 0
1, 26112, Note_on_c, 0, 84, 65
1, 26112, Note_on_c, 0, 60, 46
1, 26112, Note_on_c, 0, 64, 44
1, 26189, Note_on_c, 0, 60, 0
1, 26266, Note_on_c, 0, 84, 0
1, 26266, Note_on_c, 0, 64, 0
1, 26554, Note_on_c, 0, 79, 66
1, 26589, Note_on_c, 0, 79, 0
1, 26589, Note_on_c, 0, 81, 68
1, 26624, Note_on_c, 0, 81, 0
1, 26624, Note_on_c, 0, 83, 78
1, 26624, Note_on_c, 0, 52, 62
1, 26778, Note_on_c, 0, 83, 0
1, 26778, Note_on_c, 0, 52, 0
1, 27136, Note_on_c, 0, 78, 50
1, 27136, Note_on_c, 0, 81, 55
1, 27136, Note_on_c, 0, 59, 49
1, 27136, Note_on_c, 0, 64, 47
1, 27213, Note_on_c, 0, 78, 0
1, 27213, Note_on_c, 0, 59, 0
1, 27290, Note_on_c, 0, 81, 0
1, 27290, Note_on_c, 0, 64, 0
1, 27648, Note_on_c, 0, 76, 46
1, 27648, Note_on_c, 0, 79, 50
1, 27648, Note_on_c, 0, 59, 49
1, 27648, Note_on_c, 0, 64, 47
1, 27725, Note_on_c, 0, 76, 0
1, 27725, Note_on_c, 0, 59, 0
1, 27802, Note_on_c, 0, 79, 0
1, 27802, Note_on_c, 0, 64, 0
1, 28160, Note_on_c, 0, 78, 50
1, 28160, Note_on_c, 0, 81, 55
1, 28160, Note_on_c, 0, 59, 49
1, 28160, Note_on_c, 0, 64, 47
1, 28237, Note_on_c, 0, 78, 0
1, 28237, Note_on_c, 0, 59, 0
1, 28314, Note_on_c, 0, 81, 0
1, 28314, Note_on_c, 0, 64, 0
1, 28602, Note_on_c, 0, 79, 64
1, 28637, Note_on_c, 0, 79, 0
1, 28637, Note_on_c, 0, 81, 66
1, 28672, Note_on_c, 0, 81, 0
1, 28672, Note_on_c, 0, 83, 76
1, 28672, Note_on_c, 0, 52, 62
1, 28826, Note_on_c, 0, 83, 0
1, 28826, Note_on_c, 0, 52, 0
1, 29184, Note_on_c, 0, 78, 50
1, 29184, Note_on_c, 0, 81, 56
1, 29184, Note_on_c, 0, 59, 48
1, 29184, Note_on_c, 0, 64, 46
1, 29261, Note_on_c, 0, 78, 0
1, 29261, Note_on_c, 0, 59, 0
1, 29338, Note_on_c, 0, 81, 0
1, 29338, Note_on_c, 0, 64, 0
1, 29696, Note_on_c, 0, 76, 44
1, 29696, Note_on_c, 0, 79, 50
1, 29696, Note_on_c, 0, 59, 48
1, 29696, Note_on_c, 0, 64, 46
1, 29773, Note_on_c, 0, 76, 0
1, 29773, Note_on_c, 0, 59, 0
1, 29850, Note_on_c, 0, 79, 0
1, 29850, Note_on_c, 0, 64, 0
1, 30208, Note_on_c, 0, 78, 50
1, 30208, Note_on_c, 0, 81, 56
1, 30208, Note_on_c, 0, 59, 49
1, 30208, Note_on_c, 0, 64, 47
1, 30285, Note_on_c, 0, 78, 0
1, 30285, Note_on_c, 0, 59, 0
1, 30362, Note_on_c, 0, 81, 0
1, 30362, Note_on_c, 0, 64, 0
1, 30650, Note_on_c, 0, 79, 64
1, 30685, Note_on_c, 0, 79, 0
1, 30685, Note_on_c, 0, 81, 66
1, 30720, Note_on_c, 0, 81, 0
1, 30720, Note_on_c, 0, 83, 76
1, 30720, Note_on_c, 0, 52, 63
1, 30874, Note_on_c, 0, 83, 0
1, 30874, Note_on_c, 0, 52, 0
1, 31232, Note_on_c, 0, 78, 50
1, 31232, Note_on_c, 0, 81, 59
1, 31232, Note_on_c, 0, 59, 49
1, 31232, Note_on_c, 0, 64, 47
1, 31309, Note_on_c, 0, 78, 0
1, 31309, Note_on_c, 0, 59, 0
1, 31386, Note_on_c, 0, 81, 0
1, 31386, Note_on_c, 0, 64, 0
1, 31744, Note_on_c, 0, 76, 50
1, 31744, Note_on_c, 0, 79, 56
1, 31744, Note_on_c, 0, 47, 50
1, 31821, Note_on_c, 0, 76, 0
1, 31898, Note_on_c, 0, 79, 0
1, 31898, Note_on_c, 0, 47, 0
1, 32256, Note_on_c, 0, 75, 50
1, 32256, Note_on_c, 0, 78, 54
1, 32256, Note_on_c, 0, 59, 47
1, 32333, Note_on_c, 0, 75, 0
1, 32410, Note_on_c, 0, 78, 0
1, 32410, Note_on_c, 0, 59, 0
1, 32768, Note_on_c, 0, 76, 56
1, 32768, Note_on_c, 0, 52, 55
1, 33792, Note_on_c, 0, 76, 0
1, 33792, Note_on_c, 0, 72, 64
1, 33792, Note_on_c, 0, 76, 66
1, 33792, Note_on_c, 0, 52, 0
1, 33869, Note_on_c, 0, 72, 0
1, 33946, Note_on_c, 0, 76, 0
1, 34304, Note_on_c, 0, 74, 66
1, 34304, Note_on_c, 0, 77, 68
1, 34381, Note_on_c, 0, 74, 0
1, 34458, Note_on_c, 0, 77, 0
1, 34816, Note_on_c, 0, 76, 69
1, 34816, Note_on_c, 0, 79, 71
1, 34816, Note_on_c, 0, 48, 61
1, 34893, Note_on_c, 0, 76, 0
1, 34970, Note_on_c, 0, 79, 0
1, 34970, Note_on_c, 0, 48, 0
1, 35328, Note_on_c, 0, 76, 69
1, 35328, Note_on_c, 0, 79, 71
1, 35328, Note_on_c, 0, 60, 59
1, 35405, Note_on_c, 0, 76, 0
1, 35482, Note_on_c, 0, 79, 0
1, 35482, Note_on_c, 0, 60, 0
1, 35840, Note_on_c, 0, 81, 74
1, 35840, Note_on_c, 0, 52, 61
1, 35994, Note_on_c, 0, 52, 0
1, 36096, Note_on_c, 0, 81, 0
1, 36096, Note_on_c, 0, 79, 72
1, 36352, Note_on_c, 0, 79, 0
1, 36352, Note_on_c, 0, 77, 70
1, 36352, Note_on_c, 0, 60, 59
1, 36506, Note_on_c, 0, 60, 0
1, 36608, Note_on_c, 0, 77, 0
1, 36608, Note_on_c, 0, 76, 69
1, 36864, Note_on_c, 0, 76, 0
1, 36864, Note_on_c, 0, 74, 79
1, 36864, Note_on_c, 0, 71, 67
1, 36864, Note_on_c, 0, 55, 61
1, 37376, Note_on_c, 0, 71, 0
1, 37376, Note_on_c, 0, 67, 63
1, 37888, Note_on_c, 0, 74, 0
1, 37888, Note_on_c, 0, 72, 54
1, 37888, Note_on_c, 0, 76, 56
1, 37888, Note_on_c, 0, 67, 0
1, 37888, Note_on_c, 0, 55, 0
1, 37965, Note_on_c, 0, 72, 0
1, 38042, Note_on_c, 0, 76, 0
1, 38400, Note_on_c, 0, 74, 56
1, 38400, Note_on_c, 0, 77, 58
1, 38477, Note_on_c, 0, 74, 0
1, 38554, Note_on_c, 0, 77, 0
1, 38912, Note_on_c, 0, 76, 58
1, 38912, Note_on_c, 0, 79, 60
1, 38912, Note_on_c, 0, 48, 54
1, 38989, Note_on_c, 0, 76, 0
1, 39066, Note_on_c, 0, 79, 0
1, 39424, Note_on_c, 0, 76, 58
1, 39424, Note_on_c, 0, 79, 60
1, 39424, Note_on_c, 0, 48, 0
1, 39424, Note_on_c, 0, 60, 52
1, 39501, Note_on_c, 0, 76, 0
1, 39578, Note_on_c, 0, 79, 0
1, 39936, Note_on_c, 0, 81, 60
1, 39936, Note_on_c, 0, 60, 0
1, 39936, Note_on_c, 0, 52, 54
1, 40192, Note_on_c, 0, 81, 0
1, 40192, Note_on_c, 0, 79, 57
1, 40448, Note_on_c, 0, 79, 0
1, 40448, Note_on_c, 0, 77, 57
1, 40448, Note_on_c, 0, 52, 0
1, 40448, Note_on_c, 0, 64, 49
1, 40704, Note_on_c, 0, 77, 0
1, 40704, Note_on_c, 0, 76, 57
1, 40960, Note_on_c, 0, 76, 0
1, 40960, Note_on_c, 0, 64, 0
1, 40960, Note_on_c, 0, 71, 58
1, 40960, Note_on_c, 0, 74, 60
1, 40960, Note_on_c, 0, 55, 50
1, 41984, Note_on_c, 0, 71, 0
1, 41984, Note_on_c, 0, 74, 0
1, 41984, Note_on_c, 0, 69, 47
1, 41984, Note_on_c, 0, 72, 45
1, 41984, Note_on_c, 0, 55, 0
1, 42061, Note_on_c, 0, 69, 0
1, 42138, Note_on_c, 0, 72, 0
1, 42496, Note_on_c, 0, 71, 49
1, 42496, Note_on_c, 0, 74, 47
1, 42573, Note_on_c, 0, 71, 0
1, 42650, Note_on_c, 0, 74, 0
1, 43008, Note_on_c, 0, 72, 51
1, 43008, Note_on_c, 0, 76, 49
1, 43008, Note_on_c, 0, 45, 45
1, 43085, Note_on_c, 0, 72, 0
1, 43162, Note_on_c, 0, 76, 0
1, 43162, Note_on_c, 0, 45, 0
1, 43520, Note_on_c, 0, 72, 51
1, 43520, Note_on_c, 0, 76, 49
1, 43520, Note_on_c, 0, 57, 42
1, 43597, Note_on_c, 0, 72, 0
1, 43674, Note_on_c, 0, 76, 0
1, 43674, Note_on_c, 0, 57, 0
1, 44032, Note_on_c, 0, 77, 51
1, 44032, Note_on_c, 0, 48, 45
1, 44186, Note_on_c, 0, 48, 0
1, 44288, Note_on_c, 0, 77, 0
1, 44288, Note_on_c, 0, 76, 50
1, 44544, Note_on_c, 0, 76, 0
1, 44544, Note_on_c, 0, 74, 48
1, 44544, Note_on_c, 0, 60, 42
1, 44698, Note_on_c, 0, 60, 0
1, 44800, Note_on_c, 0, 74, 0
1, 44800, Note_on_c, 0, 72, 48
1, 45056, Note_on_c, 0, 72, 0
1, 45056, Note_on_c, 0, 71, 59
1, 45056, Note_on_c, 0, 68, 47
1, 45056, Note_on_c, 0, 52, 47
1, 45568, Note_on_c, 0, 68, 0
1, 45568, Note_on_c, 0, 64, 49
1, 46080, Note_on_c, 0, 71, 0
1, 46080, Note_on_c, 0, 69, 37
1, 46080, Note_on_c, 0, 72, 39
1, 46080, Note_on_c, 0, 64, 0
1, 46080, Note_on_c, 0, 52, 0
1, 46157, Note_on_c, 0, 69, 0
1, 46234, Note_on_c, 0, 72, 0
1, 46592, Note_on_c, 0, 71, 40
1, 46592, Note_on_c, 0, 74, 42
1, 46669, Note_on_c, 0, 71, 0
1, 46746, Note_on_c, 0, 74, 0
1, 47104, Note_on_c, 0, 72, 43
1, 47104, Note_on_c, 0, 76, 45
1, 47104, Note_on_c, 0, 45, 40
1, 47181, Note_on_c, 0, 72, 0
1, 47258, Note_on_c, 0, 76, 0
1, 47258, Note_on_c, 0, 45, 0
1, 47616, Note_on_c, 0, 72, 43
1, 47616, Note_on_c, 0, 76, 45
1, 47616, Note_on_c, 0, 57, 38
1, 47693, Note_on_c, 0, 72, 0
1, 47770, Note_on_c, 0, 76, 0
1, 47770, Note_on_c, 0, 57, 0
1, 48128, Note_on_c, 0, 77, 45
1, 48128, Note_on_c, 0, 48, 40
1, 48282, Note_on_c, 0, 48, 0
1, 48384, Note_on_c, 0, 77, 0
1, 48384, Note_on_c, 0, 76, 44
1, 48640, Note_on_c, 0, 76, 0
1, 48640, Note_on_c, 0, 74, 42
1, 48640, Note_on_c, 0, 60, 38
1, 48794, Note_on_c, 0, 60, 0
1, 48896, Note_on_c, 0, 74, 0
1, 48896, Note_on_c, 0, 72, 42
1, 49152, Note_on_c, 0, 72, 0
1, 49152, Note_on_c, 0, 68, 50
1, 49152, Note_on_c, 0, 71, 53
1, 49152, Note_on_c, 0, 52, 43
1, 49459, Note_on_c, 0, 52, 0
1, 50176, Note_on_c, 0, 68, 0
1, 50176, Note_on_c, 0, 71, 0
1, 50176, Note_on_c, 0, 71, 47
1, 50432, Note_on_c, 0, 71, 0
1, 50432, Note_on_c, 0, 69, 45
1, 50688, Note_on_c, 0, 69, 0
1, 50688, Note_on_c, 0, 68, 43
1, 50944, Note_on_c, 0, 68, 0
1, 50944, Note_on_c, 0, 69, 45
1, 51200, Note_on_c, 0, 69, 0
1, 51200, Note_on_c, 0, 72, 47
1, 51200, Note_on_c, 0, 57, 40
1, 51354, Note_on_c, 0, 72, 0
1, 51712, Note_on_c, 0, 57, 0
1, 51712, Note_on_c, 0, 60, 40
1, 51712, Note_on_c, 0, 64, 40
1, 51789, Note_on_c, 0, 60, 0
1, 51866, Note_on_c, 0, 64, 0
1, 52224, Note_on_c, 0, 74, 47
1, 52224, Note_on_c, 0, 60, 40
1, 52224, Note_on_c, 0, 64, 40
1, 52301, Note_on_c, 0, 60, 0
1, 52378, Note_on_c, 0, 64, 0
1, 52480, Note_on_c, 0, 74, 0
1, 52480, Note_on_c, 0, 72, 45
1, 52736, Note_on_c, 0, 72, 0
1, 52736, Note_on_c, 0, 71, 43
1, 52736, Note_on_c, 0, 60, 40
1, 52736, Note_on_c, 0, 64, 40
1, 52813, Note_on_c, 0, 60, 0
1, 52890, Note_on_c, 0, 64, 0
1, 52992, Note_on_c, 0, 71, 0
1, 52992, Note_on_c, 0, 72, 46
1, 53248, Note_on_c, 0, 72, 0
1, 53248, Note_on_c, 0, 76, 48
1, 53248, Note_on_c, 0, 57, 40
1, 53402, Note_on_c, 0, 76, 0
1, 53760, Note_on_c, 0, 57, 0
1, 53760, Note_on_c, 0, 60, 40
1, 53760, Note_on_c, 0, 64, 40
1, 53837, Note_on_c, 0, 60, 0
1, 53914, Note_on_c, 0, 64, 0
1, 54272, Note_on_c, 0, 77, 49
1, 54272, Note_on_c, 0, 60, 40
1, 54272, Note_on_c, 0, 64, 40
1, 54349, Note_on_c, 0, 60, 0
1, 54426, Note_on_c, 0, 64, 0
1, 54528, Note_on_c, 0, 77, 0
1, 54528, Note_on_c, 0, 76, 47
1, 54784, Note_on_c, 0, 76, 0
1, 54784, Note_on_c, 0, 75, 45
1, 54784, Note_on_c, 0, 60, 40
1, 54784, Note_on_c, 0, 64, 40
1, 54861, Note_on_c, 0, 60, 0
1, 54938, Note_on_c, 0, 64, 0
1, 55040, Note_on_c, 0, 75, 0
1, 55040, Note_on_c, 0, 76, 47
1, 55296, Note_on_c, 0, 76, 0
1, 55296, Note_on_c, 0, 83, 48
1, 55296, Note_on_c, 0, 57, 40
1, 55450, Note_on_c, 0, 57, 0
1, 55552, Note_on_c, 0, 83, 0
1, 55552, Note_on_c, 0, 81, 50
1, 55808, Note_on_c, 0, 81, 0
1, 55808, Note_on_c, 0, 80, 51
1, 55808, Note_on_c, 0, 60, 45
1, 55808, Note_on_c, 0, 64, 45
1, 55885, Note_on_c, 0, 60, 0
1, 55962, Note_on_c, 0, 64, 0
1, 56064, Note_on_c, 0, 80, 0
1, 56064, Note_on_c, 0, 81, 53
1, 56320, Note_on_c, 0, 81, 0
1, 56320, Note_on_c, 0, 83, 54
1, 56320, Note_on_c, 0, 57, 49
1, 56474, Note_on_c, 0, 57, 0
1, 56576, Note_on_c, 0, 83, 0
1, 56576, Note_on_c, 0, 81, 55
1, 56832, Note_on_c, 0, 81, 0
1, 56832, Note_on_c, 0, 80, 57
1, 56832, Note_on_c, 0, 60, 54
1, 56832, Note_on_c, 0, 64, 54
1, 56909, Note_on_c, 0, 60, 0
1, 56986, Note_on_c, 0, 64, 0
1, 57088, Note_on_c, 0, 80, 0
1, 57088, Note_on_c, 0, 81, 58
1, 57344, Note_on_c, 0, 81, 0
1, 57344, Note_on_c, 0, 84, 75
1, 57344, Note_on_c, 0, 53, 61
1, 57856, Note_on_c, 0, 53, 0
1, 57856, Note_on_c, 0, 57, 40
1, 57856, Note_on_c, 0, 63, 38
1, 57933, Note_on_c, 0, 57, 0
1, 58010, Note_on_c, 0, 63, 0
1, 58368, Note_on_c, 0, 84, 0
1, 58368, Note_on_c, 0, 81, 43
1, 58368, Note_on_c, 0, 57, 39
1, 58368, Note_on_c, 0, 63, 37
1, 58445, Note_on_c, 0, 57, 0
1, 58522, Note_on_c, 0, 81, 0
1, 58522, Note_on_c, 0, 63, 0
1, 58880, Note_on_c, 0, 83, 48
1, 58880, Note_on_c, 0, 57, 39
1, 58880, Note_on_c, 0, 63, 37
1, 58957, Note_on_c, 0, 57, 0
1, 59034, Note_on_c, 0, 83, 0
1, 59034, Note_on_c, 0, 63, 0
1, 59392, Note_on_c, 0, 84, 62
1, 59392, Note_on_c, 0, 52, 49
1, 59546, Note_on_c, 0, 84, 0
1, 59546, Note_on_c, 0, 52, 0
1, 59904, Note_on_c, 0, 83, 47
1, 59904, Note_on_c, 0, 57, 42
1, 59904, Note_on_c, 0, 64, 40
1, 59981, Note_on_c, 0, 57, 0
1, 60058, Note_on_c, 0, 83, 0
1, 60058, Note_on_c, 0, 64, 0
1, 60416, Note_on_c, 0, 81, 55
1, 60416, Note_on_c, 0, 50, 50
1, 60570, Note_on_c, 0, 81, 0
1, 60570, Note_on_c, 0, 50, 0
1, 60928, Note_on_c, 0, 80, 43
1, 60928, Note_on_c, 0, 53, 40
1, 60928, Note_on_c, 0, 59, 38
1, 61005, Note_on_c, 0, 53, 0
1, 61082, Note_on_c, 0, 80, 0
1, 61082, Note_on_c, 0, 59, 0
1, 61440, Note_on_c, 0, 81, 52
1, 61440, Note_on_c, 0, 48, 48
1, 61594, Note_on_c, 0, 81, 0
1, 61594, Note_on_c, 0, 48, 0
1, 61952, Note_on_c, 0, 76, 43
1, 61952, Note_on_c, 0, 52, 40
1, 61952, Note_on_c, 0, 57, 38
1, 62029, Note_on_c, 0, 52, 0
1, 62106, Note_on_c, 0, 76, 0
1, 62106, Note_on_c, 0, 57, 0
1, 62464, Note_on_c, 0, 77, 49
1, 62464, Note_on_c, 0, 50, 46
1, 62618, Note_on_c, 0, 77, 0
1, 62618, Note_on_c, 0, 50, 0
1, 62976, Note_on_c, 0, 74, 43
1, 62976, Note_on_c, 0, 53, 38
1, 62976, Note_on_c, 0, 59, 36
1, 63053, Note_on_c, 0, 53, 0
1, 63130, Note_on_c, 0, 74, 0
1, 63130, Note_on_c, 0, 59, 0
1, 63488, Note_on_c, 0, 72, 48
1, 63488, Note_on_c, 0, 52, 33
1, 63488, Note_on_c, 0, 57, 35
1, 63565, Note_on_c, 0, 52, 0
1, 63642, Note_on_c, 0, 57, 0
1, 64000, Note_on_c, 0, 52, 33
1, 64000, Note_on_c, 0, 57, 35
1, 64077, Note_on_c, 0, 52, 0
1, 64154, Note_on_c, 0, 57, 0
1, 64512, Note_on_c, 0, 72, 0
1, 64512, Note_on_c, 0, 71, 53
1, 64512, Note_on_c, 0, 52, 32
1, 64512, Note_on_c, 0, 56, 34
1, 64589, Note_on_c, 0, 52, 0
1, 64622, Note_on_c, 0, 71, 0
1, 64622, Note_on_c, 0, 72, 51
1, 64666, Note_on_c, 0, 56, 0
1, 64731, Note_on_c, 0, 72, 0
1, 64731, Note_on_c, 0, 71, 51
1, 64841, Note_on_c, 0, 71, 0
1, 64841, Note_on_c, 0, 72, 50
1, 64951, Note_on_c, 0, 72, 0
1, 64951, Note_on_c, 0, 71, 49
1, 65024, Note_on_c, 0, 52, 32
1, 65024, Note_on_c, 0, 56, 34
1, 65061, Note_on_c, 0, 71, 0
1, 65061, Note_on_c, 0, 72, 47
1, 65101, Note_on_c, 0, 52, 0
1, 65170, Note_on_c, 0, 72, 0
1, 65170, Note_on_c, 0, 71, 46
1, 65178, Note_on_c, 0, 56, 0
1, 65280, Note_on_c, 0, 71, 0
1, 65280, Note_on_c, 0, 69, 47
1, 65408, Note_on_c, 0, 69, 0
1, 65408, Note_on_c, 0, 71, 48
1, 65536, Note_on_c, 0, 71, 0
1, 65536, Note_on_c, 0, 69, 52
1, 65536, Note_on_c, 0, 45, 42
1, 65536, Note_on_c, 0, 57, 45
1, 66560, Note_on_c, 0, 69, 0
1, 66560, Note_on_c, 0, 72, 64
1, 66560, Note_on_c, 0, 76, 66
1, 66560, Note_on_c, 0, 45, 0
1, 66560, Note_on_c, 0, 57, 0
1, 66637, Note_on_c, 0, 72, 0
1, 66714, Note_on_c, 0, 76, 0
1, 67072, Note_on_c, 0, 74, 65
1, 67072, Note_on_c, 0, 77, 68
1, 67149, Note_on_c, 0, 74, 0
1, 67226, Note_on_c, 0, 77, 0
1, 67584, Note_on_c, 0, 76, 69
1, 67584, Note_on_c, 0, 79, 71
1, 67584, Note_on_c, 0, 48, 61
1, 67661, Note_on_c, 0, 76, 0
1, 67738, Note_on_c, 0, 79, 0
1, 67738, Note_on_c, 0, 48, 0
1, 68096, Note_on_c, 0, 76, 69
1, 68096, Note_on_c, 0, 79, 71
1, 68096, Note_on_c, 0, 60, 59
1, 68173, Note_on_c, 0, 76, 0
1, 68250, Note_on_c, 0, 79, 0
1, 68250, Note_on_c, 0, 60, 0
1, 68608, Note_on_c, 0, 81, 74
1, 68608, Note_on_c, 0, 52, 61
1, 68762, Note_on_c, 0, 52, 0
1, 68864, Note_on_c, 0, 81, 0
1, 68864, Note_on_c, 0, 79, 72
1, 69120, Note_on_c, 0, 79, 0
1, 69120, Note_on_c, 0, 77, 70
1, 69120, Note_on_c, 0, 60, 59
1, 69274, Note_on_c, 0, 60, 0
1, 69376, Note_on_c, 0, 77, 0
1, 69376, Note_on_c, 0, 76, 69
1, 69632, Note_on_c, 0, 76, 0
1, 69632, Note_on_c, 0, 74, 79
1, 69632, Note_on_c, 0, 71, 67
1, 69632, Note_on_c, 0, 55, 61
1, 70144, Note_on_c, 0, 71, 0
1, 70144, Note_on_c, 0, 67, 63
1, 70656, Note_on_c, 0, 74, 0
1, 70656, Note_on_c, 0, 72, 54
1, 70656, Note_on_c, 0, 76, 56
1, 70656, Note_on_c, 0, 67, 0
1, 70656, Note_on_c, 0, 55, 0
1, 70733, Note_on_c, 0, 72, 0
1, 70810, Note_on_c, 0, 76, 0
1, 71168, Note_on_c, 0, 74, 56
1, 71168, Note_on_c, 0, 77, 58
1, 71245, Note_on_c, 0, 74, 0
1, 71322, Note_on_c, 0, 77, 0
1, 71680, Note_on_c, 0, 76, 58
1, 71680, Note_on_c, 0, 79, 60
1, 71680, Note_on_c, 0, 48, 54
1, 71757, Note_on_c, 0, 76, 0
1, 71834, Note_on_c, 0, 79, 0
1, 72192, Note_on_c, 0, 76, 58
1, 72192, Note_on_c, 0, 79, 60
1, 72192, Note_on_c, 0, 48, 0
1, 72192, Note_on_c, 0, 60, 52
1, 72269, Note_on_c, 0, 76, 0
1, 72346, Note_on_c, 0, 79, 0
1, 72704, Note_on_c, 0, 81, 60
1, 72704, Note_on_c, 0, 60, 0
1, 72704, Note_on_c, 0, 52, 54
1, 72960, Note_on_c, 0, 81, 0
1, 72960, Note_on_c, 0, 79, 57
1, 73216, Note_on_c, 0, 79, 0
1, 73216, Note_on_c, 0, 77, 57
1, 73216, Note_on_c, 0, 52, 0
1, 73216, Note_on_c, 0, 64, 49
1, 73472, Note_on_c, 0, 77, 0
1, 73472, Note_on_c, 0, 76, 57
1, 73728, Note_on_c, 0, 76, 0
1, 73728, Note_on_c, 0, 64, 0
1, 73728, Note_on_c, 0, 71, 58
1, 73728, Note_on_c, 0, 74, 60
1, 73728, Note_on_c, 0, 55, 50
1, 74752, Note_on_c, 0, 71, 0
1, 74752, Note_on_c, 0, 74, 0
1, 74752, Note_on_c, 0, 69, 47
1, 74752, Note_on_c, 0, 72, 45
1, 74752, Note_on_c, 0, 55, 0
1, 74829, Note_on_c, 0, 69, 0
1, 74906, Note_on_c, 0, 72, 0
1, 75264, Note_on_c, 0, 71, 49
1, 75264, Note_on_c, 0, 74, 47
1, 75341, Note_on_c, 0, 71, 0
1, 75418, Note_on_c, 0, 74, 0
1, 75776, Note_on_c, 0, 72, 51
1, 75776, Note_on_c, 0, 76, 49
1, 75776, Note_on_c, 0, 45, 45
1, 75853, Note_on_c, 0, 72, 0
1, 75930, Note_on_c, 0, 76, 0
1, 75930, Note_on_c, 0, 45, 0
1, 76288, Note_on_c, 0, 72, 51
1, 76288, Note_on_c, 0, 76, 49
1, 76288, Note_on_c, 0, 57, 42
1, 76365, Note_on_c, 0, 72, 0
1, 76442, Note_on_c, 0, 76, 0
1, 76442, Note_on_c, 0, 57, 0
1, 76800, Note_on_c, 0, 77, 51
1, 76800, Note_on_c, 0, 48, 45
1, 76954, Note_on_c, 0, 48, 0
1, 77056, Note_on_c, 0, 77, 0
1, 77056, Note_on_c, 0, 76, 50
1, 77312, Note_on_c, 0, 76, 0
1, 77312, Note_on_c, 0, 74, 48
1, 77312, Note_on_c, 0, 60, 42
1, 77466, Note_on_c, 0, 60, 0
1, 77568, Note_on_c, 0, 74, 0
1, 77568, Note_on_c, 0, 72, 48
1, 77824, Note_on_c, 0, 72, 0
1, 77824, Note_on_c, 0, 71, 59
1, 77824, Note_on_c, 0, 68, 47
1, 77824, Note_on_c, 0, 52, 47
1, 78336, Note_on_c, 0, 68, 0
1, 78336, Note_on_c, 0, 64, 49
1, 78848, Note_on_c, 0, 71, 0
1, 78848, Note_on_c, 0, 69, 37
1, 78848, Note_on_c, 0, 72, 39
1, 78848, Note_on_c, 0, 64, 0
1, 78848, Note_on_c, 0, 52, 0
1, 78925, Note_on_c, 0, 69, 0
1, 79002, Note_on_c, 0, 72, 0
1, 79360, Note_on_c, 0, 71, 40
1, 79360, Note_on_c, 0, 74, 42
1, 79437, Note_on_c, 0, 71, 0
1, 79514, Note_on_c, 0, 74, 0
1, 79872, Note_on_c, 0, 72, 43
1, 79872, Note_on_c, 0, 76, 45
1, 79872, Note_on_c, 0, 45, 40
1, 79949, Note_on_c, 0, 72, 0
1, 80026, Note_on_c, 0, 76, 0
1, 80026, Note_on_c, 0, 45, 0
1, 80384, Note_on_c, 0, 72, 43
1, 80384, Note_on_c, 0, 76, 45
1, 80384, Note_on_c, 0, 57, 38
1, 80461, Note_on_c, 0, 72, 0
1, 80538, Note_on_c, 0, 76, 0
1, 80538, Note_on_c, 0, 57, 0
1, 80896, Note_on_c, 0, 77, 45
1, 80896, Note_on_c, 0, 48, 40
1, 81050, Note_on_c, 0, 48, 0
1, 81152, Note_on_c, 0, 77, 0
1, 81152, Note_on_c, 0, 76, 44
1, 81408, Note_on_c, 0, 76, 0
1, 81408, Note_on_c, 0, 74, 42
1, 81408, Note_on_c, 0, 60, 38
1, 81562, Note_on_c, 0, 60, 0
1, 81664, Note_on_c, 0, 74, 0
1, 81664, Note_on_c, 0, 72, 42
1, 81920, Note_on_c, 0, 72, 0
1, 81920, Note_on_c, 0, 68, 50
1, 81920, Note_on_c, 0, 71, 53
1, 81920, Note_on_c, 0, 52, 43
1, 82227, Note_on_c, 0, 52, 0
1, 82944, Note_on_c, 0, 68, 0
1, 82944, Note_on_c, 0, 71, 0
1, 82944, Note_on_c, 0, 71, 47
1, 83200, Note_on_c, 0, 71, 0
1, 83200, Note_on_c, 0, 69, 45
1, 83456, Note_on_c, 0, 69, 0
1, 83456, Note_on_c, 0, 68, 43
1, 83712, Note_on_c, 0, 68, 0
1, 83712, Note_on_c, 0, 69, 45
1, 83968, Note_on_c, 0, 69, 0
1, 83968, Note_on_c, 0, 72, 47
1, 83968, Note_on_c, 0, 57, 40
1, 84122, Note_on_c, 0, 72, 0
1, 84480, Note_on_c, 0, 57, 0
1, 84480, Note_on_c, 0, 60, 40
1, 84480, Note_on_c, 0, 64, 40
1, 84557, Note_on_c, 0, 60, 0
1, 84634, Note_on_c, 0, 64, 0
1, 84992, Note_on_c, 0, 74, 47
1, 84992, Note_on_c, 0, 60, 40
1, 84992, Note_on_c, 0, 64, 40
1, 85069, Note_on_c, 0, 60, 0
1, 85146, Note_on_c, 0, 64, 0
1, 85248, Note_on_c, 0, 74, 0
1, 85248, Note_on_c, 0, 72, 45
1, 85504, Note_on_c, 0, 72, 0
1, 85504, Note_on_c, 0, 71, 43
1, 85504, Note_on_c, 0, 60, 40
1, 85504, Note_on_c, 0, 64, 40
1, 85581, Note_on_c, 0, 60, 0
1, 85658, Note_on_c, 0, 64, 0
1, 85760, Note_on_c, 0, 71, 0
1, 85760, Note_on_c, 0, 72, 46
1, 86016, Note_on_c, 0, 72, 0
1, 86016, Note_on_c, 0, 76, 48
1, 86016, Note_on_c, 0, 57, 40
1, 86170, Note_on_c, 0, 76, 0
1, 86528, Note_on_c, 0, 57, 0
1, 86528, Note_on_c, 0, 60, 40
1, 86528, Note_on_c, 0, 64, 40
1, 86605, Note_on_c, 0, 60, 0
1, 86682, Note_on_c, 0, 64, 0
1, 87040, Note_on_c, 0, 77, 49
1, 87040, Note_on_c, 0, 60, 40
1, 87040, Note_on_c, 0, 64, 40
1, 87117, Note_on_c, 0, 60, 0
1, 87194, Note_on_c, 0, 64, 0
1, 87296, Note_on_c, 0, 77, 0
1, 87296, Note_on_c, 0, 76, 47
1, 87552, Note_on_c, 0, 76, 0
1, 87552, Note_on_c, 0, 75, 45
1, 87552, Note_on_c, 0, 60, 40
1, 87552, Note_on_c, 0, 64, 40
1, 87629, Note_on_c, 0, 60, 0
1, 87706, Note_on_c, 0, 64, 0
1, 87808, Note_on_c, 0, 75, 0
1, 87808, Note_on_c, 0, 76, 47
1, 88064, Note_on_c, 0, 76, 0
1, 88064, Note_on_c, 0, 83, 48
1, 88064, Note_on_c, 0, 57, 40
1, 88218, Note_on_c, 0, 57, 0
1, 88320, Note_on_c, 0, 83, 0
1, 88320, Note_on_c, 0, 81, 50
1, 88576, Note_on_c, 0, 81, 0
1, 88576, Note_on_c, 0, 80, 51
1, 88576, Note_on_c, 0, 60, 45
1, 88576, Note_on_c, 0, 64, 45
1, 88653, Note_on_c, 0, 60, 0
1, 88730, Note_on_c, 0, 64, 0
1, 88832, Note_on_c, 0, 80, 0
1, 88832, Note_on_c, 0, 81, 53
1, 89088, Note_on_c, 0, 81, 0
1, 89088, Note_on_c, 0, 83, 54
1, 89088, Note_on_c, 0, 57, 49
1, 89242, Note_on_c, 0, 57, 0
1, 89344, Note_on_c, 0, 83, 0
1, 89344, Note_on_c, 0, 81, 55
1, 89600, Note_on_c, 0, 81, 0
1, 89600, Note_on_c, 0, 80, 57
1, 89600, Note_on_c, 0, 60, 54
1, 89600, Note_on_c, 0, 64, 54
1, 89677, Note_on_c, 0, 60, 0
1, 89754, Note_on_c, 0, 64, 0
1, 89856, Note_on_c, 0, 80, 0
1, 89856, Note_on_c, 0, 81, 58
1, 90112, Note_on_c, 0, 81, 0
1, 90112, Note_on_c, 0, 84, 75
1, 90112, Note_on_c, 0, 53, 61
1, 90624, Note_on_c, 0, 53, 0
1, 90624, Note_on_c, 0, 57, 40
1, 90624, Note_on_c, 0, 63, 38
1, 90701, Note_on_c, 0, 57, 0
1, 90778, Note_on_c, 0, 63, 0
1, 91136, Note_on_c, 0, 84, 0
1, 91136, Note_on_c, 0, 81, 43
1, 91136, Note_on_c, 0, 57, 39
1, 91136, Note_on_c, 0, 63, 37
1, 91213, Note_on_c, 0, 57, 0
1, 91290, Note_on_c, 0, 81, 0
1, 91290, Note_on_c, 0, 63, 0
1, 91648, Note_on_c, 0, 83, 48
1, 91648, Note_on_c, 0, 57, 39
1, 91648, Note_on_c, 0, 63, 37
1, 91725, Note_on_c, 0, 57, 0
1, 91802, Note_on_c, 0, 83, 0
1, 91802, Note_on_c, 0, 63, 0
1, 92160, Note_on_c, 0, 84, 62
1, 92160, Note_on_c, 0, 52, 49
1, 92314, Note_on_c, 0, 84, 0
1, 92314, Note_on_c, 0, 52, 0
1, 92672, Note_on_c, 0, 83, 47
1, 92672, Note_on_c, 0, 57, 42
1, 92672, Note_on_c, 0, 64, 40
1, 92749, Note_on_c, 0, 57, 0
1, 92826, Note_on_c, 0, 83, 0
1, 92826, Note_on_c, 0, 64, 0
1, 93184, Note_on_c, 0, 81, 55
1, 93184, Note_on_c, 0, 50, 50
1, 93338, Note_on_c, 0, 81, 0
1, 93338, Note_on_c, 0, 50, 0
1, 93696, Note_on_c, 0, 80, 43
1, 93696, Note_on_c, 0, 53, 40
1, 93696, Note_on_c, 0, 59, 38
1, 93773, Note_on_c, 0, 53, 0
1, 93850, Note_on_c, 0, 80, 0
1, 93850, Note_on_c, 0, 59, 0
1, 94208, Note_on_c, 0, 81, 52
1, 94208, Note_on_c, 0, 48, 48
1, 94362, Note_on_c, 0, 81, 0
1, 94362, Note_on_c, 0, 48, 0
1, 94720, Note_on_c, 0, 76, 43
1, 94720, Note_on_c, 0, 52, 40
1, 94720, Note_on_c, 0, 57, 38
1, 94797, Note_on_c, 0, 52, 0
1, 94874, Note_on_c, 0, 76, 0
1, 94874, Note_on_c, 0, 57, 0
1, 95232, Note_on_c, 0, 77, 49
1, 95232, Note_on_c, 0, 50, 46
1, 95386, Note_on_c, 0, 77, 0
1, 95386, Note_on_c, 0, 50, 0
1, 95744, Note_on_c, 0, 74, 43
1, 95744, Note_on_c, 0, 53, 38
1, 95744, Note_on_c, 0, 59, 36
1, 95821, Note_on_c, 0, 53, 0
1, 95898, Note_on_c, 0, 74, 0
1, 95898, Note_on_c, 0, 59, 0
1, 96256, Note_on_c, 0, 72, 48
1, 96256, Note_on_c, 0, 52, 33
1, 96256, Note_on_c, 0, 57, 35
1, 96333, Note_on_c, 0, 52, 0
1, 96410, Note_on_c, 0, 57, 0
1, 96768, Note_on_c, 0, 52, 33
1, 96768, Note_on_c, 0, 57, 35
1, 96845, Note_on_c, 0, 52, 0
1, 96922, Note_on_c, 0, 57, 0
1, 97280, Note_on_c, 0, 72, 0
1, 97280, Note_on_c, 0, 71, 53
1, 97280, Note_on_c, 0, 52, 32
1, 97280, Note_on_c, 0, 56, 34
1, 97357, Note_on_c, 0, 52, 0
1, 97390, Note_on_c, 0, 71, 0
1, 97390, Note_on_c, 0, 72, 51
1, 97434, Note_on_c, 0, 56, 0
1, 97499, Note_on_c, 0, 72, 0
1, 97499, Note_on_c, 0, 71, 51
1, 97609, Note_on_c, 0, 71, 0
1, 97609, Note_on_c, 0, 72, 50
1, 97719, Note_on_c, 0, 72, 0
1, 97719, Note_on_c, 0, 71, 49
1, 97792, Note_on_c, 0, 52, 32
1, 97792, Note_on_c, 0, 56, 34
1, 97829, Note_on_c, 0, 71, 0
1, 97829, Note_on_c, 0, 72, 47
1, 97869, Note_on_c, 0, 52, 0
1, 97938, Note_on_c, 0, 72, 0
1, 97938, Note_on_c, 0, 71, 46
1, 97946, Note_on_c, 0, 56, 0
1, 98048, Note_on_c, 0, 71, 0
1, 98048, Note_on_c, 0, 69, 47
1, 98176, Note_on_c, 0, 69, 0
1, 98176, Note_on_c, 0, 71, 48
1, 98304, Note_on_c, 0, 71, 0
1, 98304, Note_on_c, 0, 69, 60
1, 98304, Note_on_c, 0, 45, 50
1, 98304, Note_on_c, 0, 57, 53
1, 99328, Note_on_c, 0, 69, 0
1, 99328, Note_on_c, 0, 69, 84
1, 99328, Note_on_c, 0, 81, 87
1, 99328, Note_on_c, 0, 45, 0
1, 99328, Note_on_c, 0, 57, 0
1, 99405, Note_on_c, 0, 69, 0
1, 99482, Note_on_c, 0, 81, 0
1, 99840, Note_on_c, 0, 71, 87
1, 99840, Note_on_c, 0, 83, 88
1, 99917, Note_on_c, 0, 71, 0
1, 99994, Note_on_c, 0, 83, 0
1, 100112, Note_on_c, 0, 45, 78
1, 100192, Note_on_c, 0, 49, 75
1, 100272, Note_on_c, 0, 52, 78
1, 100351, Note_on_c, 0, 45, 0
1, 100351, Note_on_c, 0, 49, 0
1, 100352, Note_on_c, 0, 73, 101
1, 100352, Note_on_c, 0, 85, 104
1, 100352, Note_on_c, 0, 52, 0
1, 100352, Note_on_c, 0, 57, 98
1, 100506, Note_on_c, 0, 57, 0
1, 100864, Note_on_c, 0, 57, 82
1, 101018, Note_on_c, 0, 57, 0
1, 101376, Note_on_c, 0, 73, 0
1, 101376, Note_on_c, 0, 85, 0
1, 101376, Note_on_c, 0, 69, 90
1, 101376, Note_on_c, 0, 81, 91
1, 101376, Note_on_c, 0, 57, 84
1, 101453, Note_on_c, 0, 69, 0
1, 101530, Note_on_c, 0, 81, 0
1, 101530, Note_on_c, 0, 57, 0
1, 101888, Note_on_c, 0, 71, 88
1, 101888, Note_on_c, 0, 83, 90
1, 101888, Note_on_c, 0, 57, 85
1, 101965, Note_on_c, 0, 71, 0
1, 102042, Note_on_c, 0, 83, 0
1, 102042, Note_on_c, 0, 57, 0
1, 102160, Note_on_c, 0, 45, 78
1, 102240, Note_on_c, 0, 49, 75
1, 102320, Note_on_c, 0, 52, 78
1, 102399, Note_on_c, 0, 45, 0
1, 102399, Note_on_c, 0, 49, 0
1, 102400, Note_on_c, 0, 73, 99
1, 102400, Note_on_c, 0, 85, 101
1, 102400, Note_on_c, 0, 52, 0
1, 102400, Note_on_c, 0, 57, 98
1, 102477, Note_on_c, 0, 73, 0
1, 102554, Note_on_c, 0, 85, 0
1, 102554, Note_on_c, 0, 57, 0
1, 102912, Note_on_c, 0, 71, 85
1, 102912, Note_on_c, 0, 83, 88
1, 102912, Note_on_c, 0, 57, 81
1, 102989, Note_on_c, 0, 71, 0
1, 103066, Note_on_c, 0, 83, 0
1, 103066, Note_on_c, 0, 57, 0
1, 103424, Note_on_c, 0, 69, 85
1, 103424, Note_on_c, 0, 81, 89
1, 103424, Note_on_c, 0, 57, 83
1, 103501, Note_on_c, 0, 69, 0
1, 103578, Note_on_c, 0, 81, 0
1, 103578, Note_on_c, 0, 57, 0
1, 103936, Note_on_c, 0, 68, 85
1, 103936, Note_on_c, 0, 80, 87
1, 103936, Note_on_c, 0, 57, 85
1, 104013, Note_on_c, 0, 68, 0
1, 104090, Note_on_c, 0, 80, 0
1, 104090, Note_on_c, 0, 57, 0
1, 104208, Note_on_c, 0, 38, 74
1, 104288, Note_on_c, 0, 42, 72
1, 104368, Note_on_c, 0, 45, 75
1, 104447, Note_on_c, 0, 38, 0
1, 104447, Note_on_c, 0, 42, 0
1, 104448, Note_on_c, 0, 66, 85
1, 104448, Note_on_c, 0, 78, 86
1, 104448, Note_on_c, 0, 45, 0
1, 104448, Note_on_c, 0, 50, 94
1, 104525, Note_on_c, 0, 66, 0
1, 104602, Note_on_c, 0, 78, 0
1, 104602, Note_on_c, 0, 50, 0
1, 104960, Note_on_c, 0, 68, 88
1, 104960, Note_on_c, 0, 80, 91
1, 104960, Note_on_c, 0, 50, 81
1, 105037, Note_on_c, 0, 68, 0
1, 105114, Note_on_c, 0, 80, 0
1, 105114, Note_on_c, 0, 50, 0
1, 105232, Note_on_c, 0, 39, 74
1, 105312, Note_on_c, 0, 42, 72
1, 105392, Note_on_c, 0, 45, 75
1, 105471, Note_on_c, 0, 39, 0
1, 105471, Note_on_c, 0, 42, 0
1, 105472, Note_on_c, 0, 69, 88
1, 105472, Note_on_c, 0, 81, 92
1, 105472, Note_on_c, 0, 45, 0
1, 105472, Note_on_c, 0, 51, 94
1, 105549, Note_on_c, 0, 69, 0
1, 105626, Note_on_c, 0, 81, 0
1, 105626, Note_on_c, 0, 51, 0
1, 105984, Note_on_c, 0, 71, 88
1, 105984, Note_on_c, 0, 83, 92
1, 105984, Note_on_c, 0, 51, 81
1, 106061, Note_on_c, 0, 71, 0
1, 106138, Note_on_c, 0, 83, 0
1, 106138, Note_on_c, 0, 51, 0
1, 106316, Note_on_c, 0, 40, 78
1, 106376, Note_on_c, 0, 44, 75
1, 106436, Note_on_c, 0, 47, 78
1, 106495, Note_on_c, 0, 40, 0
1, 106495, Note_on_c, 0, 44, 0
1, 106496, Note_on_c, 0, 68, 89
1, 106496, Note_on_c, 0, 80, 91
1, 106496, Note_on_c, 0, 47, 0
1, 106496, Note_on_c, 0, 52, 76
1, 106573, Note_on_c, 0, 68, 0
1, 106650, Note_on_c, 0, 80, 0
1, 106650, Note_on_c, 0, 52, 0
1, 107008, Note_on_c, 0, 64, 86
1, 107008, Note_on_c, 0, 76, 88
1, 107008, Note_on_c, 0, 52, 82
1, 107085, Note_on_c, 0, 64, 0
1, 107162, Note_on_c, 0, 76, 0
1, 107162, Note_on_c, 0, 52, 0
1, 107520, Note_on_c, 0, 69, 86
1, 107520, Note_on_c, 0, 81, 89
1, 107520, Note_on_c, 0, 52, 83
1, 107597, Note_on_c, 0, 69, 0
1, 107674, Note_on_c, 0, 81, 0
1, 107674, Note_on_c, 0, 52, 0
1, 108032, Note_on_c, 0, 71, 88
1, 108032, Note_on_c, 0, 83, 91
1, 108032, Note_on_c, 0, 52, 84
1, 108109, Note_on_c, 0, 71, 0
1, 108186, Note_on_c, 0, 83, 0
1, 108186, Note_on_c, 0, 52, 0
1, 108304, Note_on_c, 0, 45, 78
1, 108384, Note_on_c, 0, 49, 75
1, 108464, Note_on_c, 0, 52, 78
1, 108543, Note_on_c, 0, 45, 0
1, 108543, Note_on_c, 0, 49, 0
1, 108544, Note_on_c, 0, 73, 100
1, 108544, Note_on_c, 0, 85, 103
1, 108544, Note_on_c, 0, 52, 0
1, 108544, Note_on_c, 0, 57, 96
1, 108698, Note_on_c, 0, 57, 0
1, 109056, Note_on_c, 0, 57, 84
1, 109210, Note_on_c, 0, 57, 0
1, 109568, Note_on_c, 0, 73, 0
1, 109568, Note_on_c, 0, 85, 0
1, 109568, Note_on_c, 0, 69, 89
1, 109568, Note_on_c, 0, 81, 91
1, 109568, Note_on_c, 0, 57, 85
1, 109645, Note_on_c, 0, 69, 0
1, 109722, Note_on_c, 0, 81, 0
1, 109722, Note_on_c, 0, 57, 0
1, 110080, Note_on_c, 0, 71, 86
1, 110080, Note_on_c, 0, 83, 88
1, 110080, Note_on_c, 0, 57, 86
1, 110157, Note_on_c, 0, 71, 0
1, 110234, Note_on_c, 0, 83, 0
1, 110234, Note_on_c, 0, 57, 0
1, 110352, Note_on_c, 0, 45, 78
1, 110432, Note_on_c, 0, 49, 75
1, 110512, Note_on_c, 0, 52, 78
1, 110591, Note_on_c, 0, 45, 0
1, 110591, Note_on_c, 0, 49, 0
1, 110592, Note_on_c, 0, 73, 99
1, 110592, Note_on_c, 0, 85, 102
1, 110592, Note_on_c, 0, 52, 0
1, 110592, Note_on_c, 0, 57, 95
1, 110669, Note_on_c, 0, 73, 0
1, 110746, Note_on_c, 0, 85, 0
1, 111104, Note_on_c, 0, 71, 85
1, 111104, Note_on_c, 0, 83, 90
1, 111104, Note_on_c, 0, 57, 0
1, 111104, Note_on_c, 0, 57, 83
1, 111181, Note_on_c, 0, 71, 0
1, 111258, Note_on_c, 0, 83, 0
1, 111258, Note_on_c, 0, 57, 0
1, 111616, Note_on_c, 0, 69, 85
1, 111616, Note_on_c, 0, 81, 88
1, 111616, Note_on_c, 0, 57, 84
1, 111693, Note_on_c, 0, 69, 0
1, 111770, Note_on_c, 0, 81, 0
1, 111770, Note_on_c, 0, 57, 0
1, 112128, Note_on_c, 0, 68, 85
1, 112128, Note_on_c, 0, 80, 87
1, 112128, Note_on_c, 0, 57, 85
1, 112205, Note_on_c, 0, 68, 0
1, 112282, Note_on_c, 0, 80, 0
1, 112282, Note_on_c, 0, 57, 0
1, 112400, Note_on_c, 0, 38, 74
1, 112480, Note_on_c, 0, 42, 72
1, 112560, Note_on_c, 0, 45, 75
1, 112639, Note_on_c, 0, 38, 0
1, 112639, Note_on_c, 0, 42, 0
1, 112640, Note_on_c, 0, 66, 85
1, 112640, Note_on_c, 0, 78, 86
1, 112640, Note_on_c, 0, 45, 0
1, 112640, Note_on_c, 0, 50, 97
1, 112717, Note_on_c, 0, 66, 0
1, 112794, Note_on_c, 0, 78, 0
1, 112794, Note_on_c, 0, 50, 0
1, 113152, Note_on_c, 0, 71, 88
1, 113152, Note_on_c, 0, 83, 91
1, 113152, Note_on_c, 0, 50, 83
1, 113229, Note_on_c, 0, 71, 0
1, 113306, Note_on_c, 0, 83, 0
1, 113306, Note_on_c, 0, 50, 0
1, 113424, Note_on_c, 0, 40, 74
1, 113504, Note_on_c, 0, 44, 72
1, 113584, Note_on_c, 0, 47, 75
1, 113663, Note_on_c, 0, 40, 0
1, 113663, Note_on_c, 0, 44, 0
1, 113664, Note_on_c, 0, 68, 86
1, 113664, Note_on_c, 0, 80, 89
1, 113664, Note_on_c, 0, 47, 0
1, 113664, Note_on_c, 0, 52, 97
1, 113741, Note_on_c, 0, 68, 0
1, 113818, Note_on_c, 0, 80, 0
1, 113818, Note_on_c, 0, 52, 0
1, 114176, Note_on_c, 0, 64, 86
1, 114176, Note_on_c, 0, 76, 88
1, 114176, Note_on_c, 0, 52, 83
1, 114253, Note_on_c, 0, 64, 0
1, 114330, Note_on_c, 0, 76, 0
1, 114330, Note_on_c, 0, 52, 0
1, 114688, Note_on_c, 0, 69, 92
1, 114688, Note_on_c, 0, 81, 94
1, 114688, Note_on_c, 0, 45, 91
1, 115712, Note_on_c, 0, 69, 0
1, 115712, Note_on_c, 0, 81, 0
1, 115712, Note_on_c, 0, 69, 88
1, 115712, Note_on_c, 0, 81, 90
1, 115712, Note_on_c, 0, 45, 0
1, 115789, Note_on_c, 0, 69, 0
1, 115866, Note_on_c, 0, 81, 0
1, 116224, Note_on_c, 0, 71, 90
1, 116224, Note_on_c, 0, 83, 92
1, 116301, Note_on_c, 0, 71, 0
1, 116378, Note_on_c, 0, 83, 0
1, 116496, Note_on_c, 0, 45, 78
1, 116576, Note_on_c, 0, 49, 75
1, 116656, Note_on_c, 0, 52, 78
1, 116735, Note_on_c, 0, 45, 0
1, 116735, Note_on_c, 0, 49, 0
1, 116736, Note_on_c, 0, 73, 101
1, 116736, Note_on_c, 0, 85, 104
1, 116736, Note_on_c, 0, 52, 0
1, 116736, Note_on_c, 0, 57, 98
1, 116890, Note_on_c, 0, 57, 0
1, 117248, Note_on_c, 0, 57, 82
1, 117402, Note_on_c, 0, 57, 0
1, 117760, Note_on_c, 0, 73, 0
1, 117760, Note_on_c, 0, 85, 0
1, 117760, Note_on_c, 0, 69, 90
1, 117760, Note_on_c, 0, 81, 91
1, 117760, Note_on_c, 0, 57, 84
1, 117837, Note_on_c, 0, 69, 0
1, 117914, Note_on_c, 0, 81, 0
1, 117914, Note_on_c, 0, 57, 0
1, 118272, Note_on_c, 0, 71, 88
1, 118272, Note_on_c, 0, 83, 90
1, 118272, Note_on_c, 0, 57, 85
1, 118349, Note_on_c, 0, 71, 0
1, 118426, Note_on_c, 0, 83, 0
1, 118426, Note_on_c, 0, 57, 0
1, 118544, Note_on_c, 0, 45, 78
1, 118624, Note_on_c, 0, 49, 75
1, 118704, Note_on_c, 0, 52, 78
1, 118783, Note_on_c, 0, 45, 0
1, 118783, Note_on_c, 0, 49, 0
1, 118784, Note_on_c, 0, 73, 99
1, 118784, Note_on_c, 0, 85, 101
1, 118784, Note_on_c, 0, 52, 0
1, 118784, Note_on_c, 0, 57, 98
1, 118861, Note_on_c, 0, 73, 0
1, 118938, Note_on_c, 0, 85, 0
1, 118938, Note_on_c, 0, 57, 0
1, 119296, Note_on_c, 0, 71, 85
1, 119296, Note_on_c, 0, 83, 88
1, 119296, Note_on_c, 0, 57, 81
1, 119373, Note_on_c, 0, 71, 0
1, 119450, Note_on_c, 0, 83, 0
1, 119450, Note_on_c, 0, 57, 0
1, 119808, Note_on_c, 0, 69, 85
1, 119808, Note_on_c, 0, 81, 89
1, 119808, Note_on_c, 0, 57, 83
1, 119885, Note_on_c, 0, 69, 0
1, 119962, Note_on_c, 0, 81, 0
1, 119962, Note_on_c, 0, 57, 0
1, 120320, Note_on_c, 0, 68, 85
1, 120320, Note_on_c, 0, 80, 87
1, 120320, Note_on_c, 0, 57, 85
1, 120397, Note_on_c, 0, 68, 0
1, 120474, Note_on_c, 0, 80, 0
1, 120474, Note_on_c, 0, 57, 0
1, 120592, Note_on_c, 0, 38, 74
1, 120672, Note_on_c, 0, 42, 72
1, 120752, Note_on_c, 0, 45, 75
1, 120831, Note_on_c, 0, 38, 0
1, 120831, Note_on_c, 0, 42, 0
1, 120832, Note_on_c, 0, 66, 85
1, 120832, Note_on_c, 0, 78, 86
1, 120832, Note_on_c, 0, 45, 0
1, 120832, Note_on_c, 0, 50, 94
1, 120909, Note_on_c, 0, 66, 0
1, 120986, Note_on_c, 0, 78, 0
1, 120986, Note_on_c, 0, 50, 0
1, 121344, Note_on_c, 0, 68, 88
1, 121344, Note_on_c, 0, 80, 91
1, 121344, Note_on_c, 0, 50, 81
1, 121421, Note_on_c, 0, 68, 0
1, 121498, Note_on_c, 0, 80, 0
1, 121498, Note_on_c, 0, 50, 0
1, 121616, Note_on_c, 0, 39, 74
1, 121696, Note_on_c, 0, 42, 72
1, 121776, Note_on_c, 0, 45, 75
1, 121855, Note_on_c, 0, 39, 0
1, 121855, Note_on_c, 0, 42, 0
1, 121856, Note_on_c, 0, 69, 88
1, 121856, Note_on_c, 0, 81, 92
1, 121856, Note_on_c, 0, 45, 0
1, 121856, Note_on_c, 0, 51, 94
1, 121933, Note_on_c, 0, 69, 0
1, 122010, Note_on_c, 0, 81, 0
1, 122010, Note_on_c, 0, 51, 0
1, 122368, Note_on_c, 0, 71, 88
1, 122368, Note_on_c, 0, 83, 92
1, 122368, Note_on_c, 0, 51, 81
1, 122445, Note_on_c, 0, 71, 0
1, 122522, Note_on_c, 0, 83, 0
1, 122522, Note_on_c, 0, 51, 0
1, 122700, Note_on_c, 0, 40, 78
1, 122760, Note_on_c, 0, 44, 75
1, 122820, Note_on_c, 0, 47, 78
1, 122879, Note_on_c, 0, 40, 0
1, 122879, Note_on_c, 0, 44, 0
1, 122880, Note_on_c, 0, 68, 89
1, 122880, Note_on_c, 0, 80, 91
1, 122880, Note_on_c, 0, 47, 0
1, 122880, Note_on_c, 0, 52, 76
1, 122957, Note_on_c, 0, 68, 0
1, 123034, Note_on_c, 0, 80, 0
1, 123034, Note_on_c, 0, 52, 0
1, 123392, Note_on_c, 0, 64, 86
1, 123392, Note_on_c, 0, 76, 88
1, 123392, Note_on_c, 0, 52, 82
1, 123469, Note_on_c, 0, 64, 0
1, 123546, Note_on_c, 0, 76, 0
1, 123546, Note_on_c, 0, 52, 0
1, 123904, Note_on_c, 0, 69, 86
1, 123904, Note_on_c, 0, 81, 89
1, 123904, Note_on_c, 0, 52, 83
1, 123981, Note_on_c, 0, 69, 0
1, 124058, Note_on_c, 0, 81, 0
1, 124058, Note_on_c, 0, 52, 0
1, 124416, Note_on_c, 0, 71, 88
1, 124416, Note_on_c, 0, 83, 91
1, 124416, Note_on_c, 0, 52, 84
1, 124493, Note_on_c, 0, 71, 0
1, 124570, Note_on_c, 0, 83, 0
1, 124570, Note_on_c, 0, 52, 0
1, 124688, Note_on_c, 0, 45, 78
1, 124768, Note_on_c, 0, 49, 75
1, 124848, Note_on_c, 0, 52, 78
1, 124927, Note_on_c, 0, 45, 0
1, 124927, Note_on_c, 0, 49, 0
1, 124928, Note_on_c, 0, 73, 100
1, 124928, Note_on_c, 0, 85, 103
1, 124928, Note_on_c, 0, 52, 0
1, 124928, Note_on_c, 0, 57, 96
1, 125082, Note_on_c, 0, 57, 0
1, 125440, Note_on_c, 0, 57, 84
1, 125594, Note_on_c, 0, 57, 0
1, 125952, Note_on_c, 0, 73, 0
1, 125952, Note_on_c, 0, 85, 0
1, 125952, Note_on_c, 0, 69, 89
1, 125952, Note_on_c, 0, 81, 91
1, 125952, Note_on_c, 0, 57, 85
1, 126029, Note_on_c, 0, 69, 0
1, 126106, Note_on_c, 0, 81, 0
1, 126106, Note_on_c, 0, 57, 0
1, 126464, Note_on_c, 0, 71, 86
1, 126464, Note_on_c, 0, 83, 88
1, 126464, Note_on_c, 0, 57, 86
1, 126541, Note_on_c, 0, 71, 0
1, 126618, Note_on_c, 0, 83, 0
1, 126618, Note_on_c, 0, 57, 0
1, 126736, Note_on_c, 0, 45, 78
1, 126816, Note_on_c, 0, 49, 75
1, 126896, Note_on_c, 0, 52, 78
1, 126975, Note_on_c, 0, 45, 0
1, 126975, Note_on_c, 0, 49, 0
1, 126976, Note_on_c, 0, 73, 99
1, 126976, Note_on_c, 0, 85, 102
1, 126976, Note_on_c, 0, 52, 0
1, 126976, Note_on_c, 0, 57, 95
1, 127053, Note_on_c, 0, 73, 0
1, 127130, Note_on_c, 0, 85, 0
1, 127488, Note_on_c, 0, 71, 85
1, 127488, Note_on_c, 0, 83, 90
1, 127488, Note_on_c, 0, 57, 0
1, 127488, Note_on_c, 0, 57, 83
1, 127565, Note_on_c, 0, 71, 0
1, 127642, Note_on_c, 0, 83, 0
1, 127642, Note_on_c, 0, 57, 0
1, 128000, Note_on_c, 0, 69, 85
1, 128000, Note_on_c, 0, 81, 88
1, 128000, Note_on_c, 0, 57, 84
1, 128077, Note_on_c, 0, 69, 0
1, 128154, Note_on_c, 0, 81, 0
1, 128154, Note_on_c, 0, 57, 0
1, 128512, Note_on_c, 0, 68, 85
1, 128512, Note_on_c, 0, 80, 87
1, 128512, Note_on_c, 0, 57, 85
1, 128589, Note_on_c, 0, 68, 0
1, 128666, Note_on_c, 0, 80, 0
1, 128666, Note_on_c, 0, 57, 0
1, 128784, Note_on_c, 0, 38, 74
1, 128864, Note_on_c, 0, 42, 72
1, 128944, Note_on_c, 0, 45, 75
1, 129023, Note_on_c, 0, 38, 0
1, 129023, Note_on_c, 0, 42, 0
1, 129024, Note_on_c, 0, 66, 85
1, 129024, Note_on_c, 0, 78, 86
1, 129024, Note_on_c, 0, 45, 0
1, 129024, Note_on_c, 0, 50, 97
1, 129101, Note_on_c, 0, 66, 0
1, 129178, Note_on_c, 0, 78, 0
1, 129178, Note_on_c, 0, 50, 0
1, 129536, Note_on_c, 0, 71, 88
1, 129536, Note_on_c, 0, 83, 91
1, 129536, Note_on_c, 0, 50, 83
1, 129613, Note_on_c, 0, 71, 0
1, 129690, Note_on_c, 0, 83, 0
1, 129690, Note_on_c, 0, 50, 0
1, 129808, Note_on_c, 0, 40, 74
1, 129888, Note_on_c, 0, 44, 72
1, 129968, Note_on_c, 0, 47, 75
1, 130047, Note_on_c, 0, 40, 0
1, 130047, Note_on_c, 0, 44, 0
1, 130048, Note_on_c, 0, 68, 86
1, 130048, Note_on_c, 0, 80, 89
1, 130048, Note_on_c, 0, 47, 0
1, 130048, Note_on_c, 0, 52, 97
1, 130125, Note_on_c, 0, 68, 0
1, 130202, Note_on_c, 0, 80, 0
1, 130202, Note_on_c, 0, 52, 0
1, 130560, Note_on_c, 0, 64, 86
1, 130560, Note_on_c, 0, 76, 88
1, 130560, Note_on_c, 0, 52, 83
1, 130637, Note_on_c, 0, 64, 0
1, 130714, Note_on_c, 0, 76, 0
1, 130714, Note_on_c, 0, 52, 0
1, 131072, Note_on_c, 0, 69, 92
1, 131072, Note_on_c, 0, 81, 94
1, 131072, Note_on_c, 0, 45, 91
1, 131891, Note_on_c, 0, 69, 0
1, 131891, Note_on_c, 0, 81, 0
1, 131891, Note_on_c, 0, 45, 0
1, 132096, Note_on_c, 0, 85, 50
1, 132352, Note_on_c, 0, 85, 0
1, 132352, Note_on_c, 0, 86, 53
1, 132608, Note_on_c, 0, 86, 0
1, 132608, Note_on_c, 0, 85, 51
1, 132864, Note_on_c, 0, 85, 0
1, 132864, Note_on_c, 0, 83, 49
1, 133120, Note_on_c, 0, 83, 0
1, 133120, Note_on_c, 0, 81, 49
1, 133120, Note_on_c, 0, 54, 46
1, 133376, Note_on_c, 0, 81, 0
1, 133376, Note_on_c, 0, 83, 49
1, 133632, Note_on_c, 0, 83, 0
1, 133632, Note_on_c, 0, 81, 49
1, 133632, Note_on_c, 0, 54, 0
1, 133632, Note_on_c, 0, 57, 45
1, 133632, Note_on_c, 0, 61, 43
1, 133709, Note_on_c, 0, 57, 0
1, 133786, Note_on_c, 0, 61, 0
1, 133888, Note_on_c, 0, 81, 0
1, 133888, Note_on_c, 0, 80, 49
1, 134144, Note_on_c, 0, 80, 0
1, 134144, Note_on_c, 0, 78, 49
1, 134144, Note_on_c, 0, 57, 45
1, 134144, Note_on_c, 0, 61, 43
1, 134221, Note_on_c, 0, 57, 0
1, 134298, Note_on_c, 0, 61, 0
1, 134400, Note_on_c, 0, 78, 0
1, 134400, Note_on_c, 0, 81, 49
1, 134656, Note_on_c, 0, 81, 0
1, 134656, Note_on_c, 0, 80, 49
1, 134656, Note_on_c, 0, 57, 45
1, 134656, Note_on_c, 0, 61, 43
1, 134733, Note_on_c, 0, 57, 0
1, 134810, Note_on_c, 0, 61, 0
1, 134912, Note_on_c, 0, 80, 0
1, 134912, Note_on_c, 0, 78, 49
1, 135168, Note_on_c, 0, 78, 0
1, 135168, Note_on_c, 0, 77, 49
1, 135168, Note_on_c, 0, 56, 46
1, 135424, Note_on_c, 0, 77, 0
1, 135424, Note_on_c, 0, 78, 49
1, 135680, Note_on_c, 0, 78, 0
1, 135680, Note_on_c, 0, 80, 49
1, 135680, Note_on_c, 0, 56, 0
1, 135680, Note_on_c, 0, 59, 45
1, 135680, Note_on_c, 0, 61, 45
1, 135757, Note_on_c, 0, 59, 0
1, 135834, Note_on_c, 0, 61, 0
1, 135936, Note_on_c, 0, 80, 0
1, 135936, Note_on_c, 0, 77, 49
1, 136192, Note_on_c, 0, 77, 0
1, 136192, Note_on_c, 0, 73, 49
1, 136192, Note_on_c, 0, 59, 45
1, 136192, Note_on_c, 0, 61, 43
1, 136269, Note_on_c, 0, 59, 0
1, 136346, Note_on_c, 0, 61, 0
1, 136448, Note_on_c, 0, 73, 0
1, 136448, Note_on_c, 0, 75, 49
1, 136704, Note_on_c, 0, 75, 0
1, 136704, Note_on_c, 0, 77, 49
1, 136704, Note_on_c, 0, 59, 45
1, 136704, Note_on_c, 0, 61, 43
1, 136781, Note_on_c, 0, 59, 0
1, 136858, Note_on_c, 0, 61, 0
1, 136960, Note_on_c, 0, 77, 0
1, 136960, Note_on_c, 0, 73, 49
1, 137216, Note_on_c, 0, 73, 0
1, 137216, Note_on_c, 0, 78, 49
1, 137216, Note_on_c, 0, 54, 46
1, 137472, Note_on_c, 0, 78, 0
1, 137472, Note_on_c, 0, 77, 51
1, 137728, Note_on_c, 0, 77, 0
1, 137728, Note_on_c, 0, 78, 52
1, 137728, Note_on_c, 0, 54, 0
1, 137728, Note_on_c, 0, 57, 49
1, 137728, Note_on_c, 0, 61, 47
1, 137805, Note_on_c, 0, 57, 0
1, 137882, Note_on_c, 0, 61, 0
1, 137984, Note_on_c, 0, 78, 0
1, 137984, Note_on_c, 0, 80, 54
1, 138240, Note_on_c, 0, 80, 0
1, 138240, Note_on_c, 0, 81, 55
1, 138240, Note_on_c, 0, 57, 52
1, 138240, Note_on_c, 0, 61, 50
1, 138317, Note_on_c, 0, 57, 0
1, 138394, Note_on_c, 0, 61, 0
1, 138496, Note_on_c, 0, 81, 0
1, 138496, Note_on_c, 0, 80, 57
1, 138752, Note_on_c, 0, 80, 0
1, 138752, Note_on_c, 0, 81, 59
1, 138752, Note_on_c, 0, 57, 55
1, 138752, Note_on_c, 0, 61, 53
1, 138829, Note_on_c, 0, 57, 0
1, 138906, Note_on_c, 0, 61, 0
1, 139008, Note_on_c, 0, 81, 0
1, 139008, Note_on_c, 0, 83, 61
1, 139264, Note_on_c, 0, 83, 0
1, 139264, Note_on_c, 0, 85, 62
1, 139264, Note_on_c, 0, 53, 58
1, 139520, Note_on_c, 0, 85, 0
1, 139520, Note_on_c, 0, 84, 60
1, 139776, Note_on_c, 0, 84, 0
1, 139776, Note_on_c, 0, 85, 59
1, 139776, Note_on_c, 0, 53, 0
1, 139776, Note_on_c, 0, 56, 55
1, 139776, Note_on_c, 0, 61, 53
1, 139853, Note_on_c, 0, 56, 0
1, 139930, Note_on_c, 0, 61, 0
1, 140032, Note_on_c, 0, 85, 0
1, 140032, Note_on_c, 0, 84, 57
1, 140288, Note_on_c, 0, 84, 0
1, 140288, Note_on_c, 0, 85, 55
1, 140288, Note_on_c, 0, 56, 52
1, 140288, Note_on_c, 0, 61, 50
1, 140365, Note_on_c, 0, 56, 0
1, 140442, Note_on_c, 0, 61, 0
1, 140544, Note_on_c, 0, 85, 0
1, 140544, Note_on_c, 0, 86, 53
1, 140800, Note_on_c, 0, 86, 0
1, 140800, Note_on_c, 0, 85, 52
1, 140800, Note_on_c, 0, 56, 49
1, 140800, Note_on_c, 0, 61, 47
1, 140877, Note_on_c, 0, 56, 0
1, 140954, Note_on_c, 0, 61, 0
1, 141056, Note_on_c, 0, 85, 0
1, 141056, Note_on_c, 0, 83, 50
1, 141312, Note_on_c, 0, 83, 0
1, 141312, Note_on_c, 0, 81, 49
1, 141312, Note_on_c, 0, 54, 46
1, 141568, Note_on_c, 0, 81, 0
1, 141568, Note_on_c, 0, 83, 49
1, 141824, Note_on_c, 0, 83, 0
1, 141824, Note_on_c, 0, 81, 49
1, 141824, Note_on_c, 0, 54, 0
1, 141824, Note_on_c, 0, 57, 45
1, 141824, Note_on_c, 0, 61, 43
1, 142080, Note_on_c, 0, 81, 0
1, 142080, Note_on_c, 0, 80, 49
1, 142336, Note_on_c, 0, 80, 0
1, 142336, Note_on_c, 0, 78, 49
1, 142336, Note_on_c, 0, 57, 0
1, 142336, Note_on_c, 0, 61, 0
1, 142336, Note_on_c, 0, 57, 45
1, 142336, Note_on_c, 0, 61, 43
1, 142413, Note_on_c, 0, 57, 0
1, 142490, Note_on_c, 0, 61, 0
1, 142592, Note_on_c, 0, 78, 0
1, 142592, Note_on_c, 0, 81, 49
1, 142848, Note_on_c, 0, 81, 0
1, 142848, Note_on_c, 0, 80, 49
1, 142848, Note_on_c, 0, 57, 45
1, 142848, Note_on_c, 0, 61, 43
1, 142925, Note_on_c, 0, 57, 0
1, 143002, Note_on_c, 0, 61, 0
1, 143104, Note_on_c, 0, 80, 0
1, 143104, Note_on_c, 0, 78, 49
1, 143360, Note_on_c, 0, 78, 0
1, 143360, Note_on_c, 0, 76, 49
1, 143360, Note_on_c, 0, 56, 46
1, 143616, Note_on_c, 0, 76, 0
1, 143616, Note_on_c, 0, 78, 49
1, 143872, Note_on_c, 0, 78, 0
1, 143872, Note_on_c, 0, 80, 49
1, 143872, Note_on_c, 0, 56, 0
1, 143872, Note_on_c, 0, 61, 46
1, 143872, Note_on_c, 0, 64, 44
1, 143949, Note_on_c, 0, 61, 0
1, 144026, Note_on_c, 0, 64, 0
1, 144128, Note_on_c, 0, 80, 0
1, 144128, Note_on_c, 0, 76, 49
1, 144384, Note_on_c, 0, 76, 0
1, 144384, Note_on_c, 0, 73, 49
1, 144384, Note_on_c, 0, 61, 46
1, 144384, Note_on_c, 0, 64, 44
1, 144461, Note_on_c, 0, 61, 0
1, 144538, Note_on_c, 0, 64, 0
1, 144640, Note_on_c, 0, 73, 0
1, 144640, Note_on_c, 0, 75, 49
1, 144896, Note_on_c, 0, 75, 0
1, 144896, Note_on_c, 0, 76, 49
1, 144896, Note_on_c, 0, 61, 46
1, 144896, Note_on_c, 0, 64, 44
1, 144973, Note_on_c, 0, 61, 0
1, 145050, Note_on_c, 0, 64, 0
1, 145152, Note_on_c, 0, 76, 0
1, 145152, Note_on_c, 0, 73, 49
1, 145408, Note_on_c, 0, 73, 0
1, 145408, Note_on_c, 0, 75, 49
1, 145408, Note_on_c, 0, 56, 46
1, 145664, Note_on_c, 0, 75, 0
1, 145664, Note_on_c, 0, 76, 49
1, 145920, Note_on_c, 0, 76, 0
1, 145920, Note_on_c, 0, 78, 49
1, 145920, Note_on_c, 0, 56, 0
1, 145920, Note_on_c, 0, 63, 46
1, 145920, Note_on_c, 0, 66, 44
1, 145997, Note_on_c, 0, 63, 0
1, 146074, Note_on_c, 0, 66, 0
1, 146176, Note_on_c, 0, 78, 0
1, 146176, Note_on_c, 0, 75, 49
1, 146432, Note_on_c, 0, 75, 0
1, 146432, Note_on_c, 0, 72, 49
1, 146432, Note_on_c, 0, 63, 46
1, 146432, Note_on_c, 0, 66, 44
1, 146509, Note_on_c, 0, 63, 0
1, 146586, Note_on_c, 0, 66, 0
1, 146688, Note_on_c, 0, 72, 0
1, 146688, Note_on_c, 0, 73, 49
1, 146944, Note_on_c, 0, 73, 0
1, 146944, Note_on_c, 0, 75, 49
1, 146944, Note_on_c, 0, 63, 46
1, 146944, Note_on_c, 0, 66, 44
1, 147021, Note_on_c, 0, 63, 0
1, 147098, Note_on_c, 0, 66, 0
1, 147200, Note_on_c, 0, 75, 0
1, 147200, Note_on_c, 0, 72, 49
1, 147456, Note_on_c, 0, 72, 0
1, 147456, Note_on_c, 0, 73, 54
1, 147456, Note_on_c, 0, 61, 53
1, 147456, Note_on_c, 0, 64, 51
1, 148480, Note_on_c, 0, 73, 0
1, 148480, Note_on_c, 0, 85, 49
1, 148480, Note_on_c, 0, 61, 0
1, 148480, Note_on_c, 0, 64, 0
1, 148736, Note_on_c, 0, 85, 0
1, 148736, Note_on_c, 0, 86, 49
1, 148992, Note_on_c, 0, 86, 0
1, 148992, Note_on_c, 0, 85, 49
1, 149248, Note_on_c, 0, 85, 0
1, 149248, Note_on_c, 0, 83, 49
1, 149504, Note_on_c, 0, 83, 0
1, 149504, Note_on_c, 0, 81, 49
1, 149504, Note_on_c, 0, 54, 46
1, 149760, Note_on_c, 0, 81, 0
1, 149760, Note_on_c, 0, 83, 49
1, 150016, Note_on_c, 0, 83, 0
1, 150016, Note_on_c, 0, 81, 49
1, 150016, Note_on_c, 0, 54, 0
1, 150016, Note_on_c, 0, 57, 45
1, 150016, Note_on_c, 0, 61, 43
1, 150093, Note_on_c, 0, 57, 0
1, 150170, Note_on_c, 0, 61, 0
1, 150272, Note_on_c, 0, 81, 0
1, 150272, Note_on_c, 0, 80, 49
1, 150528, Note_on_c, 0, 80, 0
1, 150528, Note_on_c, 0, 78, 49
1, 150528, Note_on_c, 0, 57, 45
1, 150528, Note_on_c, 0, 61, 43
1, 150605, Note_on_c, 0, 57, 0
1, 150682, Note_on_c, 0, 61, 0
1, 150784, Note_on_c, 0, 78, 0
1, 150784, Note_on_c, 0, 81, 49
1, 151040, Note_on_c, 0, 81, 0
1, 151040, Note_on_c, 0, 80, 49
1, 151040, Note_on_c, 0, 57, 45
1, 151040, Note_on_c, 0, 61, 43
1, 151117, Note_on_c, 0, 57, 0
1, 151194, Note_on_c, 0, 61, 0
1, 151296, Note_on_c, 0, 80, 0
1, 151296, Note_on_c, 0, 78, 49
1, 151552, Note_on_c, 0, 78, 0
1, 151552, Note_on_c, 0, 77, 49
1, 151552, Note_on_c, 0, 56, 46
1, 151808, Note_on_c, 0, 77, 0
1, 151808, Note_on_c, 0, 78, 49
1, 152064, Note_on_c, 0, 78, 0
1, 152064, Note_on_c, 0, 80, 49
1, 152064, Note_on_c, 0, 56, 0
1, 152064, Note_on_c, 0, 59, 45
1, 152064, Note_on_c, 0, 61, 45
1, 152141, Note_on_c, 0, 59, 0
1, 152218, Note_on_c, 0, 61, 0
1, 152320, Note_on_c, 0, 80, 0
1, 152320, Note_on_c, 0, 77, 49
1, 152576, Note_on_c, 0, 77, 0
1, 152576, Note_on_c, 0, 73, 49
1, 152576, Note_on_c, 0, 59, 45
1, 152576, Note_on_c, 0, 61, 43
1, 152653, Note_on_c, 0, 59, 0
1, 152730, Note_on_c, 0, 61, 0
1, 152832, Note_on_c, 0, 73, 0
1, 152832, Note_on_c, 0, 75, 49
1, 153088, Note_on_c, 0, 75, 0
1, 153088, Note_on_c, 0, 77, 49
1, 153088, Note_on_c, 0, 59, 45
1, 153088, Note_on_c, 0, 61, 43
1, 153165, Note_on_c, 0, 59, 0
1, 153242, Note_on_c, 0, 61, 0
1, 153344, Note_on_c, 0, 77, 0
1, 153344, Note_on_c, 0, 73, 49
1, 153600, Note_on_c, 0, 73, 0
1, 153600, Note_on_c, 0, 78, 49
1, 153600, Note_on_c, 0, 54, 46
1, 153856, Note_on_c, 0, 78, 0
1, 153856, Note_on_c, 0, 77, 51
1, 154112, Note_on_c, 0, 77, 0
1, 154112, Note_on_c, 0, 78, 52
1, 154112, Note_on_c, 0, 54, 0
1, 154112, Note_on_c, 0, 57, 49
1, 154112, Note_on_c, 0, 61, 47
1, 154189, Note_on_c, 0, 57, 0
1, 154266, Note_on_c, 0, 61, 0
1, 154368, Note_on_c, 0, 78, 0
1, 154368, Note_on_c, 0, 80, 54
1, 154624, Note_on_c, 0, 80, 0
1, 154624, Note_on_c, 0, 81, 55
1, 154624, Note_on_c, 0, 57, 52
1, 154624, Note_on_c, 0, 61, 50
1, 154701, Note_on_c, 0, 57, 0
1, 154778, Note_on_c, 0, 61, 0
1, 154880, Note_on_c, 0, 81, 0
1, 154880, Note_on_c, 0, 80, 57
1, 155136, Note_on_c, 0, 80, 0
1, 155136, Note_on_c, 0, 81, 59
1, 155136, Note_on_c, 0, 57, 55
1, 155136, Note_on_c, 0, 61, 53
1, 155213, Note_on_c, 0, 57, 0
1, 155290, Note_on_c, 0, 61, 0
1, 155392, Note_on_c, 0, 81, 0
1, 155392, Note_on_c, 0, 83, 61
1, 155648, Note_on_c, 0, 83, 0
1, 155648, Note_on_c, 0, 85, 62
1, 155648, Note_on_c, 0, 53, 58
1, 155904, Note_on_c, 0, 85, 0
1, 155904, Note_on_c, 0, 84, 60
1, 156160, Note_on_c, 0, 84, 0
1, 156160, Note_on_c, 0, 85, 59
1, 156160, Note_on_c, 0, 53, 0
1, 156160, Note_on_c, 0, 56, 55
1, 156160, Note_on_c, 0, 61, 53
1, 156237, Note_on_c, 0, 56, 0
1, 156314, Note_on_c, 0, 61, 0
1, 156416, Note_on_c, 0, 85, 0
1, 156416, Note_on_c, 0, 84, 57
1, 156672, Note_on_c, 0, 84, 0
1, 156672, Note_on_c, 0, 85, 55
1, 156672, Note_on_c, 0, 56, 52
1, 156672, Note_on_c, 0, 61, 50
1, 156749, Note_on_c, 0, 56, 0
1, 156826, Note_on_c, 0, 61, 0
1, 156928, Note_on_c, 0, 85, 0
1, 156928, Note_on_c, 0, 86, 53
1, 157184, Note_on_c, 0, 86, 0
1, 157184, Note_on_c, 0, 85, 52
1, 157184, Note_on_c, 0, 56, 49
1, 157184, Note_on_c, 0, 61, 47
1, 157261, Note_on_c, 0, 56, 0
1, 157338, Note_on_c, 0, 61, 0
1, 157440, Note_on_c, 0, 85, 0
1, 157440, Note_on_c, 0, 83, 50
1, 157696, Note_on_c, 0, 83, 0
1, 157696, Note_on_c, 0, 81, 49
1, 157696, Note_on_c, 0, 54, 46
1, 157952, Note_on_c, 0, 81, 0
1, 157952, Note_on_c, 0, 83, 49
1, 158208, Note_on_c, 0, 83, 0
1, 158208, Note_on_c, 0, 81, 49
1, 158208, Note_on_c, 0, 54, 0
1, 158208, Note_on_c, 0, 57, 45
1, 158208, Note_on_c, 0, 61, 43
1, 158464, Note_on_c, 0, 81, 0
1, 158464, Note_on_c, 0, 80, 49
1, 158720, Note_on_c, 0, 80, 0
1, 158720, Note_on_c, 0, 78, 49
1, 158720, Note_on_c, 0, 57, 0
1, 158720, Note_on_c, 0, 61, 0
1, 158720, Note_on_c, 0, 57, 45
1, 158720, Note_on_c, 0, 61, 43
1, 158797, Note_on_c, 0, 57, 0
1, 158874, Note_on_c, 0, 61, 0
1, 158976, Note_on_c, 0, 78, 0
1, 158976, Note_on_c, 0, 81, 49
1, 159232, Note_on_c, 0, 81, 0
1, 159232, Note_on_c, 0, 80, 49
1, 159232, Note_on_c, 0, 57, 45
1, 159232, Note_on_c, 0, 61, 43
1, 159309, Note_on_c, 0, 57, 0
1, 159386, Note_on_c, 0, 61, 0
1, 159488, Note_on_c, 0, 80, 0
1, 159488, Note_on_c, 0, 78, 49
1, 159744, Note_on_c, 0, 78, 0
1, 159744, Note_on_c, 0, 76, 49
1, 159744, Note_on_c, 0, 56, 46
1, 160000, Note_on_c, 0, 76, 0
1, 160000, Note_on_c, 0, 78, 49
1, 160256, Note_on_c, 0, 78, 0
1, 160256, Note_on_c, 0, 80, 49
1, 160256, Note_on_c, 0, 56, 0
1, 160256, Note_on_c, 0, 61, 46
1, 160256, Note_on_c, 0, 64, 44
1, 160333, Note_on_c, 0, 61, 0
1, 160410, Note_on_c, 0, 64, 0
1, 160512, Note_on_c, 0, 80, 0
1, 160512, Note_on_c, 0, 76, 49
1, 160768, Note_on_c, 0, 76, 0
1, 160768, Note_on_c, 0, 73, 49
1, 160768, Note_on_c, 0, 61, 46
1, 160768, Note_on_c, 0, 64, 44
1, 160845, Note_on_c, 0, 61, 0
1, 160922, Note_on_c, 0, 64, 0
1, 161024, Note_on_c, 0, 73, 0
1, 161024, Note_on_c, 0, 75, 49
1, 161280, Note_on_c, 0, 75, 0
1, 161280, Note_on_c, 0, 76, 49
1, 161280, Note_on_c, 0, 61, 46
1, 161280, Note_on_c, 0, 64, 44
1, 161357, Note_on_c, 0, 61, 0
1, 161434, Note_on_c, 0, 64, 0
1, 161536, Note_on_c, 0, 76, 0
1, 161536, Note_on_c, 0, 73, 49
1, 161792, Note_on_c, 0, 73, 0
1, 161792, Note_on_c, 0, 75, 49
1, 161792, Note_on_c, 0, 56, 46
1, 162048, Note_on_c, 0, 75, 0
1, 162048, Note_on_c, 0, 76, 49
1, 162304, Note_on_c, 0, 76, 0
1, 162304, Note_on_c, 0, 78, 49
1, 162304, Note_on_c, 0, 56, 0
1, 162304, Note_on_c, 0, 63, 46
1, 162304, Note_on_c, 0, 66, 44
1, 162381, Note_on_c, 0, 63, 0
1, 162458, Note_on_c, 0, 66, 0
1, 162560, Note_on_c, 0, 78, 0
1, 162560, Note_on_c, 0, 75, 49
1, 162816, Note_on_c, 0, 75, 0
1, 162816, Note_on_c, 0, 72, 49
1, 162816, Note_on_c, 0, 63, 46
1, 162816, Note_on_c, 0, 66, 44
1, 162893, Note_on_c, 0, 63, 0
1, 162970, Note_on_c, 0, 66, 0
1, 163072, Note_on_c, 0, 72, 0
1, 163072, Note_on_c, 0, 73, 49
1, 163328, Note_on_c, 0, 73, 0
1, 163328, Note_on_c, 0, 75, 49
1, 163328, Note_on_c, 0, 63, 46
1, 163328, Note_on_c, 0, 66, 44
1, 163405, Note_on_c, 0, 63, 0
1, 163482, Note_on_c, 0, 66, 0
1, 163584, Note_on_c, 0, 75, 0
1, 163584, Note_on_c, 0, 72, 49
1, 163840, Note_on_c, 0, 72, 0
1, 163840, Note_on_c, 0, 73, 54
1, 163840, Note_on_c, 0, 61, 51
1, 163840, Note_on_c, 0, 64, 50
1, 164864, Note_on_c, 0, 73, 0
1, 164864, Note_on_c, 0, 76, 86
1, 164864, Note_on_c, 0, 61, 0
1, 164864, Note_on_c, 0, 64, 0
1, 165120, Note_on_c, 0, 76, 0
1, 165120, Note_on_c, 0, 74, 85
1, 165376, Note_on_c, 0, 74, 0
1, 165376, Note_on_c, 0, 73, 84
1, 165632, Note_on_c, 0, 73, 0
1, 165632, Note_on_c, 0, 71, 83
1, 165888, Note_on_c, 0, 71, 0
1, 165888, Note_on_c, 0, 69, 81
1, 165888, Note_on_c, 0, 57, 77
1, 166144, Note_on_c, 0, 69, 0
1, 166144, Note_on_c, 0, 71, 81
1, 166400, Note_on_c, 0, 71, 0
1, 166400, Note_on_c, 0, 73, 81
1, 166400, Note_on_c, 0, 57, 0
1, 166400, Note_on_c, 0, 61, 77
1, 166400, Note_on_c, 0, 64, 75
1, 166477, Note_on_c, 0, 61, 0
1, 166554, Note_on_c, 0, 64, 0
1, 166656, Note_on_c, 0, 73, 0
1, 166656, Note_on_c, 0, 74, 82
1, 166912, Note_on_c, 0, 74, 0
1, 166912, Note_on_c, 0, 76, 83
1, 166912, Note_on_c, 0, 61, 78
1, 166912, Note_on_c, 0, 64, 76
1, 166989, Note_on_c, 0, 61, 0
1, 167066, Note_on_c, 0, 64, 0
1, 167168, Note_on_c, 0, 76, 0
1, 167168, Note_on_c, 0, 78, 83
1, 167424, Note_on_c, 0, 78, 0
1, 167424, Note_on_c, 0, 80, 83
1, 167424, Note_on_c, 0, 61, 79
1, 167424, Note_on_c, 0, 64, 77
1, 167501, Note_on_c, 0, 61, 0
1, 167578, Note_on_c, 0, 64, 0
1, 167680, Note_on_c, 0, 80, 0
1, 167680, Note_on_c, 0, 81, 84
1, 167936, Note_on_c, 0, 81, 0
1, 167936, Note_on_c, 0, 81, 102
1, 167936, Note_on_c, 0, 59, 80
1, 168090, Note_on_c, 0, 59, 0
1, 168192, Note_on_c, 0, 81, 0
1, 168192, Note_on_c, 0, 80, 83
1, 168448, Note_on_c, 0, 80, 0
1, 168448, Note_on_c, 0, 78, 83
1, 168448, Note_on_c, 0, 62, 78
1, 168448, Note_on_c, 0, 64, 76
1, 168525, Note_on_c, 0, 62, 0
1, 168602, Note_on_c, 0, 64, 0
1, 168704, Note_on_c, 0, 78, 0
1, 168704, Note_on_c, 0, 76, 83
1, 168960, Note_on_c, 0, 76, 0
1, 168960, Note_on_c, 0, 76, 82
1, 168960, Note_on_c, 0, 56, 75
1, 169216, Note_on_c, 0, 76, 0
1, 169216, Note_on_c, 0, 74, 81
1, 169472, Note_on_c, 0, 74, 0
1, 169472, Note_on_c, 0, 73, 81
1, 169472, Note_on_c, 0, 56, 0
1, 169472, Note_on_c, 0, 62, 76
1, 169472, Note_on_c, 0, 64, 74
1, 169728, Note_on_c, 0, 73, 0
1, 169728, Note_on_c, 0, 71, 81
1, 169984, Note_on_c, 0, 71, 0
1, 169984, Note_on_c, 0, 62, 0
1, 169984, Note_on_c, 0, 64, 0
1, 169984, Note_on_c, 0, 69, 81
1, 169984, Note_on_c, 0, 57, 77
1, 170240, Note_on_c, 0, 69, 0
1, 170240, Note_on_c, 0, 71, 81
1, 170496, Note_on_c, 0, 71, 0
1, 170496, Note_on_c, 0, 73, 81
1, 170496, Note_on_c, 0, 57, 0
1, 170496, Note_on_c, 0, 61, 77
1, 170496, Note_on_c, 0, 64, 75
1, 170573, Note_on_c, 0, 61, 0
1, 170650, Note_on_c, 0, 64, 0
1, 170752, Note_on_c, 0, 73, 0
1, 170752, Note_on_c, 0, 74, 82
1, 171008, Note_on_c, 0, 74, 0
1, 171008, Note_on_c, 0, 76, 83
1, 171008, Note_on_c, 0, 61, 78
1, 171008, Note_on_c, 0, 64, 76
1, 171085, Note_on_c, 0, 61, 0
1, 171162, Note_on_c, 0, 64, 0
1, 171264, Note_on_c, 0, 76, 0
1, 171264, Note_on_c, 0, 78, 83
1, 171520, Note_on_c, 0, 78, 0
1, 171520, Note_on_c, 0, 80, 83
1, 171520, Note_on_c, 0, 61, 79
1, 171520, Note_on_c, 0, 64, 77
1, 171597, Note_on_c, 0, 61, 0
1, 171674, Note_on_c, 0, 64, 0
1, 171776, Note_on_c, 0, 80, 0
1, 171776, Note_on_c, 0, 81, 83
1, 172032, Note_on_c, 0, 81, 0
1, 172032, Note_on_c, 0, 82, 98
1, 172032, Note_on_c, 0, 52, 80
1, 172544, Note_on_c, 0, 82, 0
1, 172544, Note_on_c, 0, 83, 84
1, 172544, Note_on_c, 0, 52, 0
1, 172544, Note_on_c, 0, 56, 78
1, 172544, Note_on_c, 0, 62, 76
1, 172621, Note_on_c, 0, 56, 0
1, 172698, Note_on_c, 0, 62, 0
1, 173056, Note_on_c, 0, 83, 0
1, 173056, Note_on_c, 0, 76, 84
1, 173056, Note_on_c, 0, 56, 77
1, 173056, Note_on_c, 0, 62, 75
1, 173133, Note_on_c, 0, 56, 0
1, 173210, Note_on_c, 0, 62, 0
1, 173312, Note_on_c, 0, 76, 0
1, 173312, Note_on_c, 0, 74, 83
1, 173568, Note_on_c, 0, 74, 0
1, 173568, Note_on_c, 0, 73, 82
1, 173568, Note_on_c, 0, 56, 76
1, 173568, Note_on_c, 0, 62, 74
1, 173645, Note_on_c, 0, 56, 0
1, 173722, Note_on_c, 0, 62, 0
1, 173824, Note_on_c, 0, 73, 0
1, 173824, Note_on_c, 0, 71, 81
1, 174080, Note_on_c, 0, 71, 0
1, 174080, Note_on_c, 0, 69, 81
1, 174080, Note_on_c, 0, 57, 77
1, 174336, Note_on_c, 0, 69, 0
1, 174336, Note_on_c, 0, 71, 81
1, 174592, Note_on_c, 0, 71, 0
1, 174592, Note_on_c, 0, 73, 81
1, 174592, Note_on_c, 0, 57, 0
1, 174592, Note_on_c, 0, 61, 77
1, 174592, Note_on_c, 0, 64, 75
1, 174669, Note_on_c, 0, 61, 0
1, 174746, Note_on_c, 0, 64, 0
1, 174848, Note_on_c, 0, 73, 0
1, 174848, Note_on_c, 0, 74, 82
1, 175104, Note_on_c, 0, 74, 0
1, 175104, Note_on_c, 0, 76, 83
1, 175104, Note_on_c, 0, 61, 81
1, 175104, Note_on_c, 0, 64, 78
1, 175181, Note_on_c, 0, 61, 0
1, 175258, Note_on_c, 0, 64, 0
1, 175360, Note_on_c, 0, 76, 0
1, 175360, Note_on_c, 0, 78, 83
1, 175616, Note_on_c, 0, 78, 0
1, 175616, Note_on_c, 0, 80, 83
1, 175616, Note_on_c, 0, 61, 79
1, 175616, Note_on_c, 0, 64, 77
1, 175693, Note_on_c, 0, 61, 0
1, 175770, Note_on_c, 0, 64, 0
1, 175872, Note_on_c, 0, 80, 0
1, 175872, Note_on_c, 0, 81, 84
1, 176128, Note_on_c, 0, 81, 0
1, 176128, Note_on_c, 0, 81, 102
1, 176128, Note_on_c, 0, 59, 80
1, 176282, Note_on_c, 0, 59, 0
1, 176384, Note_on_c, 0, 81, 0
1, 176384, Note_on_c, 0, 80, 83
1, 176640, Note_on_c, 0, 80, 0
1, 176640, Note_on_c, 0, 78, 83
1, 176640, Note_on_c, 0, 62, 78
1, 176640, Note_on_c, 0, 64, 76
1, 176717, Note_on_c, 0, 62, 0
1, 176794, Note_on_c, 0, 64, 0
1, 176896, Note_on_c, 0, 78, 0
1, 176896, Note_on_c, 0, 76, 83
1, 177152, Note_on_c, 0, 76, 0
1, 177152, Note_on_c, 0, 76, 82
1, 177152, Note_on_c, 0, 56, 78
1, 177306, Note_on_c, 0, 56, 0
1, 177408, Note_on_c, 0, 76, 0
1, 177408, Note_on_c, 0, 74, 81
1, 177664, Note_on_c, 0, 74, 0
1, 177664, Note_on_c, 0, 73, 81
1, 177664, Note_on_c, 0, 62, 76
1, 177664, Note_on_c, 0, 64, 74
1, 177741, Note_on_c, 0, 62, 0
1, 177818, Note_on_c, 0, 64, 0
1, 177920, Note_on_c, 0, 73, 0
1, 177920, Note_on_c, 0, 71, 81
1, 178176, Note_on_c, 0, 71, 0
1, 178176, Note_on_c, 0, 73, 81
1, 178176, Note_on_c, 0, 57, 77
1, 178330, Note_on_c, 0, 57, 0
1, 178432, Note_on_c, 0, 73, 0
1, 178432, Note_on_c, 0, 76, 80
1, 178688, Note_on_c, 0, 76, 0
1, 178688, Note_on_c, 0, 69, 80
1, 178688, Note_on_c, 0, 54, 76
1, 178842, Note_on_c, 0, 54, 0
1, 178944, Note_on_c, 0, 69, 0
1, 178944, Note_on_c, 0, 73, 80
1, 179200, Note_on_c, 0, 73, 0
1, 179200, Note_on_c, 0, 71, 79
1, 179200, Note_on_c, 0, 50, 75
1, 179354, Note_on_c, 0, 50, 0
1, 179456, Note_on_c, 0, 71, 0
1, 179456, Note_on_c, 0, 74, 78
1, 179712, Note_on_c, 0, 74, 0
1, 179712, Note_on_c, 0, 68, 78
1, 179712, Note_on_c, 0, 52, 74
1, 179968, Note_on_c, 0, 68, 0
1, 179968, Note_on_c, 0, 71, 78
1, 180224, Note_on_c, 0, 71, 0
1, 180224, Note_on_c, 0, 52, 0
1, 180224, Note_on_c, 0, 69, 90
1, 180224, Note_on_c, 0, 45, 71
1, 180378, Note_on_c, 0, 45, 0
1, 180736, Note_on_c, 0, 57, 75
1, 180890, Note_on_c, 0, 57, 0
1, 181248, Note_on_c, 0, 69, 0
1, 181248, Note_on_c, 0, 85, 53
1, 181504, Note_on_c, 0, 85, 0
1, 181504, Note_on_c, 0, 86, 52
1, 181760, Note_on_c, 0, 86, 0
1, 181760, Note_on_c, 0, 85, 50
1, 182016, Note_on_c, 0, 85, 0
1, 182016, Note_on_c, 0, 83, 49
1, 182272, Note_on_c, 0, 83, 0
1, 182272, Note_on_c, 0, 81, 47
1, 182272, Note_on_c, 0, 54, 46
1, 182528, Note_on_c, 0, 81, 0
1, 182528, Note_on_c, 0, 83, 49
1, 182784, Note_on_c, 0, 83, 0
1, 182784, Note_on_c, 0, 81, 48
1, 182784, Note_on_c, 0, 54, 0
1, 182784, Note_on_c, 0, 57, 44
1, 182784, Note_on_c, 0, 61, 42
1, 182861, Note_on_c, 0, 57, 0
1, 182938, Note_on_c, 0, 61, 0
1, 183040, Note_on_c, 0, 81, 0
1, 183040, Note_on_c, 0, 80, 47
1, 183296, Note_on_c, 0, 80, 0
1, 183296, Note_on_c, 0, 78, 46
1, 183296, Note_on_c, 0, 57, 44
1, 183296, Note_on_c, 0, 61, 42
1, 183373, Note_on_c, 0, 57, 0
1, 183450, Note_on_c, 0, 61, 0
1, 183552, Note_on_c, 0, 78, 0
1, 183552, Note_on_c, 0, 81, 51
1, 183808, Note_on_c, 0, 81, 0
1, 183808, Note_on_c, 0, 80, 50
1, 183808, Note_on_c, 0, 57, 44
1, 183808, Note_on_c, 0, 61, 42
1, 183885, Note_on_c, 0, 57, 0
1, 183962, Note_on_c, 0, 61, 0
1, 184064, Note_on_c, 0, 80, 0
1, 184064, Note_on_c, 0, 78, 49
1, 184320, Note_on_c, 0, 78, 0
1, 184320, Note_on_c, 0, 77, 48
1, 184320, Note_on_c, 0, 56, 46
1, 184576, Note_on_c, 0, 77, 0
1, 184576, Note_on_c, 0, 78, 49
1, 184832, Note_on_c, 0, 78, 0
1, 184832, Note_on_c, 0, 80, 49
1, 184832, Note_on_c, 0, 56, 0
1, 184832, Note_on_c, 0, 59, 45
1, 184832, Note_on_c, 0, 61, 43
1, 184909, Note_on_c, 0, 59, 0
1, 184986, Note_on_c, 0, 61, 0
1, 185088, Note_on_c, 0, 80, 0
1, 185088, Note_on_c, 0, 77, 50
1, 185344, Note_on_c, 0, 77, 0
1, 185344, Note_on_c, 0, 73, 48
1, 185344, Note_on_c, 0, 59, 45
1, 185344, Note_on_c, 0, 61, 43
1, 185421, Note_on_c, 0, 59, 0
1, 185498, Note_on_c, 0, 61, 0
1, 185600, Note_on_c, 0, 73, 0
1, 185600, Note_on_c, 0, 75, 50
1, 185856, Note_on_c, 0, 75, 0
1, 185856, Note_on_c, 0, 77, 51
1, 185856, Note_on_c, 0, 59, 45
1, 185856, Note_on_c, 0, 61, 43
1, 185933, Note_on_c, 0, 59, 0
1, 186010, Note_on_c, 0, 61, 0
1, 186112, Note_on_c, 0, 77, 0
1, 186112, Note_on_c, 0, 73, 49
1, 186368, Note_on_c, 0, 73, 0
1, 186368, Note_on_c, 0, 78, 49
1, 186368, Note_on_c, 0, 54, 46
1, 186624, Note_on_c, 0, 78, 0
1, 186624, Note_on_c, 0, 77, 51
1, 186880, Note_on_c, 0, 77, 0
1, 186880, Note_on_c, 0, 78, 52
1, 186880, Note_on_c, 0, 54, 0
1, 186880, Note_on_c, 0, 57, 48
1, 186880, Note_on_c, 0, 61, 46
1, 186957, Note_on_c, 0, 57, 0
1, 187034, Note_on_c, 0, 61, 0
1, 187136, Note_on_c, 0, 78, 0
1, 187136, Note_on_c, 0, 80, 54
1, 187392, Note_on_c, 0, 80, 0
1, 187392, Note_on_c, 0, 81, 55
1, 187392, Note_on_c, 0, 57, 51
1, 187392, Note_on_c, 0, 61, 49
1, 187469, Note_on_c, 0, 57, 0
1, 187546, Note_on_c, 0, 61, 0
1, 187648, Note_on_c, 0, 81, 0
1, 187648, Note_on_c, 0, 80, 57
1, 187904, Note_on_c, 0, 80, 0
1, 187904, Note_on_c, 0, 81, 59
1, 187904, Note_on_c, 0, 57, 54
1, 187904, Note_on_c, 0, 61, 52
1, 187981, Note_on_c, 0, 57, 0
1, 188058, Note_on_c, 0, 61, 0
1, 188160, Note_on_c, 0, 81, 0
1, 188160, Note_on_c, 0, 83, 61
1, 188416, Note_on_c, 0, 83, 0
1, 188416, Note_on_c, 0, 85, 62
1, 188416, Note_on_c, 0, 49, 58
1, 188672, Note_on_c, 0, 85, 0
1, 188672, Note_on_c, 0, 84, 62
1, 188928, Note_on_c, 0, 84, 0
1, 188928, Note_on_c, 0, 85, 62
1, 188928, Note_on_c, 0, 49, 0
1, 188928, Note_on_c, 0, 56, 57
1, 188928, Note_on_c, 0, 61, 55
1, 189005, Note_on_c, 0, 56, 0
1, 189082, Note_on_c, 0, 61, 0
1, 189184, Note_on_c, 0, 85, 0
1, 189184, Note_on_c, 0, 84, 62
1, 189440, Note_on_c, 0, 84, 0
1, 189440, Note_on_c, 0, 85, 62
1, 189440, Note_on_c, 0, 55, 57
1, 189440, Note_on_c, 0, 61, 55
1, 189517, Note_on_c, 0, 55, 0
1, 189594, Note_on_c, 0, 61, 0
1, 189696, Note_on_c, 0, 85, 0
1, 189696, Note_on_c, 0, 84, 64
1, 189952, Note_on_c, 0, 84, 0
1, 189952, Note_on_c, 0, 85, 67
1, 189952, Note_on_c, 0, 54, 64
1, 189952, Note_on_c, 0, 61, 62
1, 190029, Note_on_c, 0, 54, 0
1, 190106, Note_on_c, 0, 61, 0
1, 190208, Note_on_c, 0, 85, 0
1, 190208, Note_on_c, 0, 82, 70
1, 190464, Note_on_c, 0, 82, 0
1, 190464, Note_on_c, 0, 86, 80
1, 190464, Note_on_c, 0, 47, 76
1, 190720, Note_on_c, 0, 86, 0
1, 190720, Note_on_c, 0, 85, 69
1, 190976, Note_on_c, 0, 85, 0
1, 190976, Note_on_c, 0, 86, 68
1, 190976, Note_on_c, 0, 47, 0
1, 190976, Note_on_c, 0, 54, 65
1, 190976, Note_on_c, 0, 59, 63
1, 191053, Note_on_c, 0, 54, 0
1, 191130, Note_on_c, 0, 59, 0
1, 191232, Note_on_c, 0, 86, 0
1, 191232, Note_on_c, 0, 85, 66
1, 191488, Note_on_c, 0, 85, 0
1, 191488, Note_on_c, 0, 86, 68
1, 191488, Note_on_c, 0, 54, 61
1, 191488, Note_on_c, 0, 59, 59
1, 191565, Note_on_c, 0, 54, 0
1, 191642, Note_on_c, 0, 59, 0
1, 191744, Note_on_c, 0, 86, 0
1, 191744, Note_on_c, 0, 85, 63
1, 192000, Note_on_c, 0, 85, 0
1, 192000, Note_on_c, 0, 86, 68
1, 192000, Note_on_c, 0, 54, 58
1, 192000, Note_on_c, 0, 59, 56
1, 192077, Note_on_c, 0, 54, 0
1, 192154, Note_on_c, 0, 59, 0
1, 192256, Note_on_c, 0, 86, 0
1, 192256, Note_on_c, 0, 85, 60
1, 192512, Note_on_c, 0, 85, 0
1, 192512, Note_on_c, 0, 86, 59
1, 192512, Note_on_c, 0, 47, 55
1, 192768, Note_on_c, 0, 86, 0
1, 192768, Note_on_c, 0, 85, 58
1, 193024, Note_on_c, 0, 85, 0
1, 193024, Note_on_c, 0, 83, 56
1, 193024, Note_on_c, 0, 47, 0
1, 193024, Note_on_c, 0, 56, 52
1, 193024, Note_on_c, 0, 59, 50
1, 193101, Note_on_c, 0, 56, 0
1, 193178, Note_on_c, 0, 59, 0
1, 193280, Note_on_c, 0, 83, 0
1, 193280, Note_on_c, 0, 81, 55
1, 193536, Note_on_c, 0, 81, 0
1, 193536, Note_on_c, 0, 80, 53
1, 193536, Note_on_c, 0, 56, 48
1, 193536, Note_on_c, 0, 59, 46
1, 193613, Note_on_c, 0, 56, 0
1, 193690, Note_on_c, 0, 59, 0
1, 193792, Note_on_c, 0, 80, 0
1, 193792, Note_on_c, 0, 81, 52
1, 194048, Note_on_c, 0, 81, 0
1, 194048, Note_on_c, 0, 83, 50
1, 194048, Note_on_c, 0, 56, 46
1, 194048, Note_on_c, 0, 59, 44
1, 194125, Note_on_c, 0, 56, 0
1, 194202, Note_on_c, 0, 59, 0
1, 194304, Note_on_c, 0, 83, 0
1, 194304, Note_on_c, 0, 80, 49
1, 194560, Note_on_c, 0, 80, 0
1, 194560, Note_on_c, 0, 81, 49
1, 194560, Note_on_c, 0, 49, 49
1, 194714, Note_on_c, 0, 49, 0
1, 194816, Note_on_c, 0, 81, 0
1, 194816, Note_on_c, 0, 83, 49
1, 195072, Note_on_c, 0, 83, 0
1, 195072, Note_on_c, 0, 85, 49
1, 195072, Note_on_c, 0, 54, 46
1, 195072, Note_on_c, 0, 57, 44
1, 195328, Note_on_c, 0, 85, 0
1, 195328, Note_on_c, 0, 78, 49
1, 195584, Note_on_c, 0, 78, 0
1, 195584, Note_on_c, 0, 77, 49
1, 195584, Note_on_c, 0, 54, 0
1, 195584, Note_on_c, 0, 57, 0
1, 195584, Note_on_c, 0, 49, 51
1, 195738, Note_on_c, 0, 49, 0
1, 195840, Note_on_c, 0, 77, 0
1, 195840, Note_on_c, 0, 78, 49
1, 196096, Note_on_c, 0, 78, 0
1, 196096, Note_on_c, 0, 80, 49
1, 196096, Note_on_c, 0, 56, 46
1, 196096, Note_on_c, 0, 59, 44
1, 196173, Note_on_c, 0, 56, 0
1, 196250, Note_on_c, 0, 59, 0
1, 196352, Note_on_c, 0, 80, 0
1, 196352, Note_on_c, 0, 77, 49
1, 196608, Note_on_c, 0, 77, 0
1, 196608, Note_on_c, 0, 78, 54
1, 196608, Note_on_c, 0, 54, 54
1, 196608, Note_on_c, 0, 57, 50
1, 197632, Note_on_c, 0, 78, 0
1, 197632, Note_on_c, 0, 76, 88
1, 197632, Note_on_c, 0, 54, 0
1, 197632, Note_on_c, 0, 57, 0
1, 197888, Note_on_c, 0, 76, 0
1, 197888, Note_on_c, 0, 74, 88
1, 198144, Note_on_c, 0, 74, 0
1, 198144, Note_on_c, 0, 73, 88
1, 198400, Note_on_c, 0, 73, 0
1, 198400, Note_on_c, 0, 71, 88
1, 198656, Note_on_c, 0, 71, 0
1, 198656, Note_on_c, 0, 69, 81
1, 198656, Note_on_c, 0, 57, 77
1, 198912, Note_on_c, 0, 69, 0
1, 198912, Note_on_c, 0, 71, 81
1, 199168, Note_on_c, 0, 71, 0
1, 199168, Note_on_c, 0, 73, 81
1, 199168, Note_on_c, 0, 57, 0
1, 199168, Note_on_c, 0, 61, 77
1, 199168, Note_on_c, 0, 64, 75
1, 199245, Note_on_c, 0, 61, 0
1, 199322, Note_on_c, 0, 64, 0
1, 199424, Note_on_c, 0, 73, 0
1, 199424, Note_on_c, 0, 74, 82
1, 199680, Note_on_c, 0, 74, 0
1, 199680, Note_on_c, 0, 76, 83
1, 199680, Note_on_c, 0, 61, 78
1, 199680, Note_on_c, 0, 64, 76
1, 199757, Note_on_c, 0, 61, 0
1, 199834, Note_on_c, 0, 64, 0
1, 199936, Note_on_c, 0, 76, 0
1, 199936, Note_on_c, 0, 78, 83
1, 200192, Note_on_c, 0, 78, 0
1, 200192, Note_on_c, 0, 80, 83
1, 200192, Note_on_c, 0, 61, 79
1, 200192, Note_on_c, 0, 64, 77
1, 200269, Note_on_c, 0, 61, 0
1, 200346, Note_on_c, 0, 64, 0
1, 200448, Note_on_c, 0, 80, 0
1, 200448, Note_on_c, 0, 81, 84
1, 200704, Note_on_c, 0, 81, 0
1, 200704, Note_on_c, 0, 81, 102
1, 200704, Note_on_c, 0, 59, 80
1, 200858, Note_on_c, 0, 59, 0
1, 200960, Note_on_c, 0, 81, 0
1, 200960, Note_on_c, 0, 80, 83
1, 201216, Note_on_c, 0, 80, 0
1, 201216, Note_on_c, 0, 78, 83
1, 201216, Note_on_c, 0, 62, 78
1, 201216, Note_on_c, 0, 64, 76
1, 201293, Note_on_c, 0, 62, 0
1, 201370, Note_on_c, 0, 64, 0
1, 201472, Note_on_c, 0, 78, 0
1, 201472, Note_on_c, 0, 76, 83
1, 201728, Note_on_c, 0, 76, 0
1, 201728, Note_on_c, 0, 76, 82
1, 201728, Note_on_c, 0, 56, 75
1, 201984, Note_on_c, 0, 76, 0
1, 201984, Note_on_c, 0, 74, 81
1, 202240, Note_on_c, 0, 74, 0
1, 202240, Note_on_c, 0, 73, 81
1, 202240, Note_on_c, 0, 56, 0
1, 202240, Note_on_c, 0, 62, 76
1, 202240, Note_on_c, 0, 64, 74
1, 202496, Note_on_c, 0, 73, 0
1, 202496, Note_on_c, 0, 71, 81
1, 202752, Note_on_c, 0, 71, 0
1, 202752, Note_on_c, 0, 62, 0
1, 202752, Note_on_c, 0, 64, 0
1, 202752, Note_on_c, 0, 69, 81
1, 202752, Note_on_c, 0, 57, 77
1, 203008, Note_on_c, 0, 69, 0
1, 203008, Note_on_c, 0, 71, 81
1, 203264, Note_on_c, 0, 71, 0
1, 203264, Note_on_c, 0, 73, 81
1, 203264, Note_on_c, 0, 57, 0
1, 203264, Note_on_c, 0, 61, 77
1, 203264, Note_on_c, 0, 64, 75
1, 203341, Note_on_c, 0, 61, 0
1, 203418, Note_on_c, 0, 64, 0
1, 203520, Note_on_c, 0, 73, 0
1, 203520, Note_on_c, 0, 74, 82
1, 203776, Note_on_c, 0, 74, 0
1, 203776, Note_on_c, 0, 76, 83
1, 203776, Note_on_c, 0, 61, 78
1, 203776, Note_on_c, 0, 64, 76
1, 203853, Note_on_c, 0, 61, 0
1, 203930, Note_on_c, 0, 64, 0
1, 204032, Note_on_c, 0, 76, 0
1, 204032, Note_on_c, 0, 78, 83
1, 204288, Note_on_c, 0, 78, 0
1, 204288, Note_on_c, 0, 80, 83
1, 204288, Note_on_c, 0, 61, 79
1, 204288, Note_on_c, 0, 64, 77
1, 204365, Note_on_c, 0, 61, 0
1, 204442, Note_on_c, 0, 64, 0
1, 204544, Note_on_c, 0, 80, 0
1, 204544, Note_on_c, 0, 81, 83
1, 204800, Note_on_c, 0, 81, 0
1, 204800, Note_on_c, 0, 82, 98
1, 204800, Note_on_c, 0, 52, 80
1, 205312, Note_on_c, 0, 82, 0
1, 205312, Note_on_c, 0, 83, 84
1, 205312, Note_on_c, 0, 52, 0
1, 205312, Note_on_c, 0, 56, 78
1, 205312, Note_on_c, 0, 62, 76
1, 205389, Note_on_c, 0, 56, 0
1, 205466, Note_on_c, 0, 62, 0
1, 205824, Note_on_c, 0, 83, 0
1, 205824, Note_on_c, 0, 76, 84
1, 205824, Note_on_c, 0, 56, 77
1, 205824, Note_on_c, 0, 62, 75
1, 205901, Note_on_c, 0, 56, 0
1, 205978, Note_on_c, 0, 62, 0
1, 206080, Note_on_c, 0, 76, 0
1, 206080, Note_on_c, 0, 74, 83
1, 206336, Note_on_c, 0, 74, 0
1, 206336, Note_on_c, 0, 73, 82
1, 206336, Note_on_c, 0, 56, 76
1, 206336, Note_on_c, 0, 62, 74
1, 206413, Note_on_c, 0, 56, 0
1, 206490, Note_on_c, 0, 62, 0
1, 206592, Note_on_c, 0, 73, 0
1, 206592, Note_on_c, 0, 71, 81
1, 206848, Note_on_c, 0, 71, 0
1, 206848, Note_on_c, 0, 69, 81
1, 206848, Note_on_c, 0, 57, 77
1, 207104, Note_on_c, 0, 69, 0
1, 207104, Note_on_c, 0, 71, 81
1, 207360, Note_on_c, 0, 71, 0
1, 207360, Note_on_c, 0, 73, 81
1, 207360, Note_on_c, 0, 57, 0
1, 207360, Note_on_c, 0, 61, 77
1, 207360, Note_on_c, 0, 64, 75
1, 207437, Note_on_c, 0, 61, 0
1, 207514, Note_on_c, 0, 64, 0
1, 207616, Note_on_c, 0, 73, 0
1, 207616, Note_on_c, 0, 74, 82
1, 207872, Note_on_c, 0, 74, 0
1, 207872, Note_on_c, 0, 76, 83
1, 207872, Note_on_c, 0, 61, 81
1, 207872, Note_on_c, 0, 64, 78
1, 207949, Note_on_c, 0, 61, 0
1, 208026, Note_on_c, 0, 64, 0
1, 208128, Note_on_c, 0, 76, 0
1, 208128, Note_on_c, 0, 78, 83
1, 208384, Note_on_c, 0, 78, 0
1, 208384, Note_on_c, 0, 80, 83
1, 208384, Note_on_c, 0, 61, 79
1, 208384, Note_on_c, 0, 64, 77
1, 208461, Note_on_c, 0, 61, 0
1, 208538, Note_on_c, 0, 64, 0
1, 208640, Note_on_c, 0, 80, 0
1, 208640, Note_on_c, 0, 81, 84
1, 208896, Note_on_c, 0, 81, 0
1, 208896, Note_on_c, 0, 81, 102
1, 208896, Note_on_c, 0, 59, 80
1, 209050, Note_on_c, 0, 59, 0
1, 209152, Note_on_c, 0, 81, 0
1, 209152, Note_on_c, 0, 80, 83
1, 209408, Note_on_c, 0, 80, 0
1, 209408, Note_on_c, 0, 78, 83
1, 209408, Note_on_c, 0, 62, 78
1, 209408, Note_on_c, 0, 64, 76
1, 209485, Note_on_c, 0, 62, 0
1, 209562, Note_on_c, 0, 64, 0
1, 209664, Note_on_c, 0, 78, 0
1, 209664, Note_on_c, 0, 76, 83
1, 209920, Note_on_c, 0, 76, 0
1, 209920, Note_on_c, 0, 76, 82
1, 209920, Note_on_c, 0, 56, 78
1, 210074, Note_on_c, 0, 56, 0
1, 210176, Note_on_c, 0, 76, 0
1, 210176, Note_on_c, 0, 74, 81
1, 210432, Note_on_c, 0, 74, 0
1, 210432, Note_on_c, 0, 73, 81
1, 210432, Note_on_c, 0, 62, 76
1, 210432, Note_on_c, 0, 64, 74
1, 210509, Note_on_c, 0, 62, 0
1, 210586, Note_on_c, 0, 64, 0
1, 210688, Note_on_c, 0, 73, 0
1, 210688, Note_on_c, 0, 71, 81
1, 210944, Note_on_c, 0, 71, 0
1, 210944, Note_on_c, 0, 73, 81
1, 210944, Note_on_c, 0, 57, 77
1, 211098, Note_on_c, 0, 57, 0
1, 211200, Note_on_c, 0, 73, 0
1, 211200, Note_on_c, 0, 76, 80
1, 211456, Note_on_c, 0, 76, 0
1, 211456, Note_on_c, 0, 69, 80
1, 211456, Note_on_c, 0, 54, 76
1, 211610, Note_on_c, 0, 54, 0
1, 211712, Note_on_c, 0, 69, 0
1, 211712, Note_on_c, 0, 73, 80
1, 211968, Note_on_c, 0, 73, 0
1, 211968, Note_on_c, 0, 71, 79
1, 211968, Note_on_c, 0, 50, 75
1, 212122, Note_on_c, 0, 50, 0
1, 212224, Note_on_c, 0, 71, 0
1, 212224, Note_on_c, 0, 74, 78
1, 212480, Note_on_c, 0, 74, 0
1, 212480, Note_on_c, 0, 68, 78
1, 212480, Note_on_c, 0, 52, 74
1, 212736, Note_on_c, 0, 68, 0
1, 212736, Note_on_c, 0, 71, 78
1, 212992, Note_on_c, 0, 71, 0
1, 212992, Note_on_c, 0, 52, 0
1, 212992, Note_on_c, 0, 69, 90
1, 212992, Note_on_c, 0, 45, 71
1, 213146, Note_on_c, 0, 45, 0
1, 213504, Note_on_c, 0, 57, 75
1, 213658, Note_on_c, 0, 57, 0
1, 214016, Note_on_c, 0, 69, 0
1, 214016, Note_on_c, 0, 85, 53
1, 214272, Note_on_c, 0, 85, 0
1, 214272, Note_on_c, 0, 86, 52
1, 214528, Note_on_c, 0, 86, 0
1, 214528, Note_on_c, 0, 85, 50
1, 214784, Note_on_c, 0, 85, 0
1, 214784, Note_on_c, 0, 83, 49
1, 215040, Note_on_c, 0, 83, 0
1, 215040, Note_on_c, 0, 81, 47
1, 215040, Note_on_c, 0, 54, 46
1, 215296, Note_on_c, 0, 81, 0
1, 215296, Note_on_c, 0, 83, 49
1, 215552, Note_on_c, 0, 83, 0
1, 215552, Note_on_c, 0, 81, 48
1, 215552, Note_on_c, 0, 54, 0
1, 215552, Note_on_c, 0, 57, 44
1, 215552, Note_on_c, 0, 61, 42
1, 215629, Note_on_c, 0, 57, 0
1, 215706, Note_on_c, 0, 61, 0
1, 215808, Note_on_c, 0, 81, 0
1, 215808, Note_on_c, 0, 80, 47
1, 216064, Note_on_c, 0, 80, 0
1, 216064, Note_on_c, 0, 78, 46
1, 216064, Note_on_c, 0, 57, 44
1, 216064, Note_on_c, 0, 61, 42
1, 216141, Note_on_c, 0, 57, 0
1, 216218, Note_on_c, 0, 61, 0
1, 216320, Note_on_c, 0, 78, 0
1, 216320, Note_on_c, 0, 81, 51
1, 216576, Note_on_c, 0, 81, 0
1, 216576, Note_on_c, 0, 80, 50
1, 216576, Note_on_c, 0, 57, 44
1, 216576, Note_on_c, 0, 61, 42
1, 216653, Note_on_c, 0, 57, 0
1, 216730, Note_on_c, 0, 61, 0
1, 216832, Note_on_c, 0, 80, 0
1, 216832, Note_on_c, 0, 78, 49
1, 217088, Note_on_c, 0, 78, 0
1, 217088, Note_on_c, 0, 77, 48
1, 217088, Note_on_c, 0, 56, 46
1, 217344, Note_on_c, 0, 77, 0
1, 217344, Note_on_c, 0, 78, 49
1, 217600, Note_on_c, 0, 78, 0
1, 217600, Note_on_c, 0, 80, 49
1, 217600, Note_on_c, 0, 56, 0
1, 217600, Note_on_c, 0, 59, 45
1, 217600, Note_on_c, 0, 61, 43
1, 217677, Note_on_c, 0, 59, 0
1, 217754, Note_on_c, 0, 61, 0
1, 217856, Note_on_c, 0, 80, 0
1, 217856, Note_on_c, 0, 77, 50
1, 218112, Note_on_c, 0, 77, 0
1, 218112, Note_on_c, 0, 73, 48
1, 218112, Note_on_c, 0, 59, 45
1, 218112, Note_on_c, 0, 61, 43
1, 218189, Note_on_c, 0, 59, 0
1, 218266, Note_on_c, 0, 61, 0
1, 218368, Note_on_c, 0, 73, 0
1, 218368, Note_on_c, 0, 75, 50
1, 218624, Note_on_c, 0, 75, 0
1, 218624, Note_on_c, 0, 77, 51
1, 218624, Note_on_c, 0, 59, 45
1, 218624, Note_on_c, 0, 61, 43
1, 218701, Note_on_c, 0, 59, 0
1, 218778, Note_on_c, 0, 61, 0
1, 218880, Note_on_c, 0, 77, 0
1, 218880, Note_on_c, 0, 73, 49
1, 219136, Note_on_c, 0, 73, 0
1, 219136, Note_on_c, 0, 78, 49
1, 219136, Note_on_c, 0, 54, 46
1, 219392, Note_on_c, 0, 78, 0
1, 219392, Note_on_c, 0, 77, 51
1, 219648, Note_on_c, 0, 77, 0
1, 219648, Note_on_c, 0, 78, 52
1, 219648, Note_on_c, 0, 54, 0
1, 219648, Note_on_c, 0, 57, 48
1, 219648, Note_on_c, 0, 61, 46
1, 219725, Note_on_c, 0, 57, 0
1, 219802, Note_on_c, 0, 61, 0
1, 219904, Note_on_c, 0, 78, 0
1, 219904, Note_on_c, 0, 80, 54
1, 220160, Note_on_c, 0, 80, 0
1, 220160, Note_on_c, 0, 81, 55
1, 220160, Note_on_c, 0, 57, 51
1, 220160, Note_on_c, 0, 61, 49
1, 220237, Note_on_c, 0, 57, 0
1, 220314, Note_on_c, 0, 61, 0
1, 220416, Note_on_c, 0, 81, 0
1, 220416, Note_on_c, 0, 80, 57
1, 220672, Note_on_c, 0, 80, 0
1, 220672, Note_on_c, 0, 81, 59
1, 220672, Note_on_c, 0, 57, 54
1, 220672, Note_on_c, 0, 61, 52
1, 220749, Note_on_c, 0, 57, 0
1, 220826, Note_on_c, 0, 61, 0
1, 220928, Note_on_c, 0, 81, 0
1, 220928, Note_on_c, 0, 83, 61
1, 221184, Note_on_c, 0, 83, 0
1, 221184, Note_on_c, 0, 85, 62
1, 221184, Note_on_c, 0, 49, 58
1, 221440, Note_on_c, 0, 85, 0
1, 221440, Note_on_c, 0, 84, 62
1, 221696, Note_on_c, 0, 84, 0
1, 221696, Note_on_c, 0, 85, 62
1, 221696, Note_on_c, 0, 49, 0
1, 221696, Note_on_c, 0, 56, 57
1, 221696, Note_on_c, 0, 61, 55
1, 221773, Note_on_c, 0, 56, 0
1, 221850, Note_on_c, 0, 61, 0
1, 221952, Note_on_c, 0, 85, 0
1, 221952, Note_on_c, 0, 84, 62
1, 222208, Note_on_c, 0, 84, 0
1, 222208, Note_on_c, 0, 85, 62
1, 222208, Note_on_c, 0, 55, 57
1, 222208, Note_on_c, 0, 61, 55
1, 222285, Note_on_c, 0, 55, 0
1, 222362, Note_on_c, 0, 61, 0
1, 222464, Note_on_c, 0, 85, 0
1, 222464, Note_on_c, 0, 84, 64
1, 222720, Note_on_c, 0, 84, 0
1, 222720, Note_on_c, 0, 85, 67
1, 222720, Note_on_c, 0, 54, 64
1, 222720, Note_on_c, 0, 61, 62
1, 222797, Note_on_c, 0, 54, 0
1, 222874, Note_on_c, 0, 61, 0
1, 222976, Note_on_c, 0, 85, 0
1, 222976, Note_on_c, 0, 82, 70
1, 223232, Note_on_c, 0, 82, 0
1, 223232, Note_on_c, 0, 86, 80
1, 223232, Note_on_c, 0, 47, 76
1, 223488, Note_on_c, 0, 86, 0
1, 223488, Note_on_c, 0, 85, 69
1, 223744, Note_on_c, 0, 85, 0
1, 223744, Note_on_c, 0, 86, 68
1, 223744, Note_on_c, 0, 47, 0
1, 223744, Note_on_c, 0, 54, 65
1, 223744, Note_on_c, 0, 59, 63
1, 223821, Note_on_c, 0, 54, 0
1, 223898, Note_on_c, 0, 59, 0
1, 224000, Note_on_c, 0, 86, 0
1, 224000, Note_on_c, 0, 85, 66
1, 224256, Note_on_c, 0, 85, 0
1, 224256, Note_on_c, 0, 86, 68
1, 224256, Note_on_c, 0, 54, 61
1, 224256, Note_on_c, 0, 59, 59
1, 224333, Note_on_c, 0, 54, 0
1, 224410, Note_on_c, 0, 59, 0
1, 224512, Note_on_c, 0, 86, 0
1, 224512, Note_on_c, 0, 85, 63
1, 224768, Note_on_c, 0, 85, 0
1, 224768, Note_on_c, 0, 86, 68
1, 224768, Note_on_c, 0, 54, 58
1, 224768, Note_on_c, 0, 59, 56
1, 224845, Note_on_c, 0, 54, 0
1, 224922, Note_on_c, 0, 59, 0
1, 225024, Note_on_c, 0, 86, 0
1, 225024, Note_on_c, 0, 85, 60
1, 225280, Note_on_c, 0, 85, 0
1, 225280, Note_on_c, 0, 86, 59
1, 225280, Note_on_c, 0, 47, 55
1, 225536, Note_on_c, 0, 86, 0
1, 225536, Note_on_c, 0, 85, 58
1, 225792, Note_on_c, 0, 85, 0
1, 225792, Note_on_c, 0, 83, 56
1, 225792, Note_on_c, 0, 47, 0
1, 225792, Note_on_c, 0, 56, 52
1, 225792, Note_on_c, 0, 59, 50
1, 225869, Note_on_c, 0, 56, 0
1, 225946, Note_on_c, 0, 59, 0
1, 226048, Note_on_c, 0, 83, 0
1, 226048, Note_on_c, 0, 81, 55
1, 226304, Note_on_c, 0, 81, 0
1, 226304, Note_on_c, 0, 80, 53
1, 226304, Note_on_c, 0, 56, 48
1, 226304, Note_on_c, 0, 59, 46
1, 226381, Note_on_c, 0, 56, 0
1, 226458, Note_on_c, 0, 59, 0
1, 226560, Note_on_c, 0, 80, 0
1, 226560, Note_on_c, 0, 81, 52
1, 226816, Note_on_c, 0, 81, 0
1, 226816, Note_on_c, 0, 83, 50
1, 226816, Note_on_c, 0, 56, 46
1, 226816, Note_on_c, 0, 59, 44
1, 226893, Note_on_c, 0, 56, 0
1, 226970, Note_on_c, 0, 59, 0
1, 227072, Note_on_c, 0, 83, 0
1, 227072, Note_on_c, 0, 80, 49
1, 227328, Note_on_c, 0, 80, 0
1, 227328, Note_on_c, 0, 81, 49
1, 227328, Note_on_c, 0, 49, 49
1, 227482, Note_on_c, 0, 49, 0
1, 227584, Note_on_c, 0, 81, 0
1, 227584, Note_on_c, 0, 83, 49
1, 227840, Note_on_c, 0, 83, 0
1, 227840, Note_on_c, 0, 85, 49
1, 227840, Note_on_c, 0, 54, 46
1, 227840, Note_on_c, 0, 57, 44
1, 228096, Note_on_c, 0, 85, 0
1, 228096, Note_on_c, 0, 78, 49
1, 228352, Note_on_c, 0, 78, 0
1, 228352, Note_on_c, 0, 77, 49
1, 228352, Note_on_c, 0, 54, 0
1, 228352, Note_on_c, 0, 57, 0
1, 228352, Note_on_c, 0, 49, 51
1, 228506, Note_on_c, 0, 49, 0
1, 228608, Note_on_c, 0, 77, 0
1, 228608, Note_on_c, 0, 78, 49
1, 228864, Note_on_c, 0, 78, 0
1, 228864, Note_on_c, 0, 80, 49
1, 228864, Note_on_c, 0, 56, 46
1, 228864, Note_on_c, 0, 59, 44
1, 228941, Note_on_c, 0, 56, 0
1, 229018, Note_on_c, 0, 59, 0
1, 229120, Note_on_c, 0, 80, 0
1, 229120, Note_on_c, 0, 77, 49
1, 229376, Note_on_c, 0, 77, 0
1, 229376, Note_on_c, 0, 78, 54
1, 229376, Note_on_c, 0, 54, 51
1, 229376, Note_on_c, 0, 57, 51
1, 230400, Note_on_c, 0, 78, 0
1, 230400, Note_on_c, 0, 69, 84
1, 230400, Note_on_c, 0, 81, 87
1, 230400, Note_on_c, 0, 54, 0
1, 230400, Note_on_c, 0, 57, 0
1, 230477, Note_on_c, 0, 69, 0
1, 230554, Note_on_c, 0, 81, 0
1, 230912, Note_on_c, 0, 71, 87
1, 230912, Note_on_c, 0, 83, 89
1, 230989, Note_on_c, 0, 71, 0
1, 231066, Note_on_c, 0, 83, 0
1, 231184, Note_on_c, 0, 45, 78
1, 231264, Note_on_c, 0, 49, 75
1, 231344, Note_on_c, 0, 52, 78
1, 231423, Note_on_c, 0, 45, 0
1, 231423, Note_on_c, 0, 49, 0
1, 231424, Note_on_c, 0, 73, 103
1, 231424, Note_on_c, 0, 85, 106
1, 231424, Note_on_c, 0, 52, 0
1, 231424, Note_on_c, 0, 57, 97
1, 231629, Note_on_c, 0, 73, 0
1, 231629, Note_on_c, 0, 57, 0
1, 231834, Note_on_c, 0, 85, 0
1, 231936, Note_on_c, 0, 57, 82
1, 232090, Note_on_c, 0, 57, 0
1, 232448, Note_on_c, 0, 69, 89
1, 232448, Note_on_c, 0, 81, 92
1, 232448, Note_on_c, 0, 57, 84
1, 232525, Note_on_c, 0, 69, 0
1, 232602, Note_on_c, 0, 81, 0
1, 232602, Note_on_c, 0, 57, 0
1, 232960, Note_on_c, 0, 71, 88
1, 232960, Note_on_c, 0, 83, 90
1, 232960, Note_on_c, 0, 57, 85
1, 233037, Note_on_c, 0, 71, 0
1, 233114, Note_on_c, 0, 83, 0
1, 233114, Note_on_c, 0, 57, 0
1, 233232, Note_on_c, 0, 45, 78
1, 233312, Note_on_c, 0, 49, 75
1, 233392, Note_on_c, 0, 52, 78
1, 233471, Note_on_c, 0, 45, 0
1, 233471, Note_on_c, 0, 49, 0
1, 233472, Note_on_c, 0, 73, 101
1, 233472, Note_on_c, 0, 85, 104
1, 233472, Note_on_c, 0, 52, 0
1, 233472, Note_on_c, 0, 57, 97
1, 233574, Note_on_c, 0, 73, 0
1, 233677, Note_on_c, 0, 85, 0
1, 233677, Note_on_c, 0, 57, 0
1, 233984, Note_on_c, 0, 71, 85
1, 233984, Note_on_c, 0, 83, 85
1, 233984, Note_on_c, 0, 57, 81
1, 234061, Note_on_c, 0, 71, 0
1, 234138, Note_on_c, 0, 83, 0
1, 234138, Note_on_c, 0, 57, 0
1, 234496, Note_on_c, 0, 69, 85
1, 234496, Note_on_c, 0, 81, 89
1, 234496, Note_on_c, 0, 57, 83
1, 234573, Note_on_c, 0, 69, 0
1, 234650, Note_on_c, 0, 81, 0
1, 234650, Note_on_c, 0, 57, 0
1, 235008, Note_on_c, 0, 68, 85
1, 235008, Note_on_c, 0, 80, 87
1, 235008, Note_on_c, 0, 57, 85
1, 235085, Note_on_c, 0, 68, 0
1, 235162, Note_on_c, 0, 80, 0
1, 235162, Note_on_c, 0, 57, 0
1, 235280, Note_on_c, 0, 38, 74
1, 235360, Note_on_c, 0, 42, 72
1, 235440, Note_on_c, 0, 45, 75
1, 235519, Note_on_c, 0, 38, 0
1, 235519, Note_on_c, 0, 42, 0
1, 235520, Note_on_c, 0, 66, 85
1, 235520, Note_on_c, 0, 78, 86
1, 235520, Note_on_c, 0, 45, 0
1, 235520, Note_on_c, 0, 50, 96
1, 235597, Note_on_c, 0, 66, 0
1, 235674, Note_on_c, 0, 78, 0
1, 235674, Note_on_c, 0, 50, 0
1, 236032, Note_on_c, 0, 68, 88
1, 236032, Note_on_c, 0, 80, 91
1, 236032, Note_on_c, 0, 50, 81
1, 236109, Note_on_c, 0, 68, 0
1, 236186, Note_on_c, 0, 80, 0
1, 236186, Note_on_c, 0, 50, 0
1, 236304, Note_on_c, 0, 39, 74
1, 236384, Note_on_c, 0, 42, 72
1, 236464, Note_on_c, 0, 45, 75
1, 236543, Note_on_c, 0, 39, 0
1, 236543, Note_on_c, 0, 42, 0
1, 236544, Note_on_c, 0, 69, 88
1, 236544, Note_on_c, 0, 81, 92
1, 236544, Note_on_c, 0, 45, 0
1, 236544, Note_on_c, 0, 51, 99
1, 236621, Note_on_c, 0, 69, 0
1, 236698, Note_on_c, 0, 81, 0
1, 236698, Note_on_c, 0, 51, 0
1, 237056, Note_on_c, 0, 71, 88
1, 237056, Note_on_c, 0, 83, 92
1, 237056, Note_on_c, 0, 51, 81
1, 237133, Note_on_c, 0, 71, 0
1, 237210, Note_on_c, 0, 83, 0
1, 237210, Note_on_c, 0, 51, 0
1, 237328, Note_on_c, 0, 40, 78
1, 237408, Note_on_c, 0, 44, 75
1, 237488, Note_on_c, 0, 47, 78
1, 237567, Note_on_c, 0, 40, 0
1, 237567, Note_on_c, 0, 44, 0
1, 237568, Note_on_c, 0, 68, 89
1, 237568, Note_on_c, 0, 80, 91
1, 237568, Note_on_c, 0, 47, 0
1, 237568, Note_on_c, 0, 52, 78
1, 237645, Note_on_c, 0, 68, 0
1, 237722, Note_on_c, 0, 80, 0
1, 237722, Note_on_c, 0, 52, 0
1, 238080, Note_on_c, 0, 64, 88
1, 238080, Note_on_c, 0, 76, 90
1, 238080, Note_on_c, 0, 52, 82
1, 238157, Note_on_c, 0, 64, 0
1, 238234, Note_on_c, 0, 76, 0
1, 238234, Note_on_c, 0, 52, 0
1, 238592, Note_on_c, 0, 69, 88
1, 238592, Note_on_c, 0, 81, 91
1, 238592, Note_on_c, 0, 52, 83
1, 238669, Note_on_c, 0, 69, 0
1, 238746, Note_on_c, 0, 81, 0
1, 238746, Note_on_c, 0, 52, 0
1, 239104, Note_on_c, 0, 71, 88
1, 239104, Note_on_c, 0, 83, 91
1, 239104, Note_on_c, 0, 52, 84
1, 239181, Note_on_c, 0, 71, 0
1, 239258, Note_on_c, 0, 83, 0
1, 239258, Note_on_c, 0, 52, 0
1, 239376, Note_on_c, 0, 45, 78
1, 239456, Note_on_c, 0, 49, 75
1, 239536, Note_on_c, 0, 52, 78
1, 239615, Note_on_c, 0, 45, 0
1, 239615, Note_on_c, 0, 49, 0
1, 239616, Note_on_c, 0, 73, 102
1, 239616, Note_on_c, 0, 85, 104
1, 239616, Note_on_c, 0, 52, 0
1, 239616, Note_on_c, 0, 57, 97
1, 239821, Note_on_c, 0, 73, 0
1, 239821, Note_on_c, 0, 57, 0
1, 240026, Note_on_c, 0, 85, 0
1, 240128, Note_on_c, 0, 57, 84
1, 240282, Note_on_c, 0, 57, 0
1, 240640, Note_on_c, 0, 69, 89
1, 240640, Note_on_c, 0, 81, 91
1, 240640, Note_on_c, 0, 57, 85
1, 240717, Note_on_c, 0, 69, 0
1, 240794, Note_on_c, 0, 81, 0
1, 240794, Note_on_c, 0, 57, 0
1, 241152, Note_on_c, 0, 71, 86
1, 241152, Note_on_c, 0, 83, 88
1, 241152, Note_on_c, 0, 57, 86
1, 241229, Note_on_c, 0, 71, 0
1, 241306, Note_on_c, 0, 83, 0
1, 241306, Note_on_c, 0, 57, 0
1, 241424, Note_on_c, 0, 45, 78
1, 241504, Note_on_c, 0, 49, 75
1, 241584, Note_on_c, 0, 52, 78
1, 241663, Note_on_c, 0, 45, 0
1, 241663, Note_on_c, 0, 49, 0
1, 241664, Note_on_c, 0, 73, 100
1, 241664, Note_on_c, 0, 85, 104
1, 241664, Note_on_c, 0, 52, 0
1, 241664, Note_on_c, 0, 57, 96
1, 241766, Note_on_c, 0, 73, 0
1, 241869, Note_on_c, 0, 85, 0
1, 241869, Note_on_c, 0, 57, 0
1, 242176, Note_on_c, 0, 71, 85
1, 242176, Note_on_c, 0, 83, 90
1, 242176, Note_on_c, 0, 57, 83
1, 242253, Note_on_c, 0, 71, 0
1, 242330, Note_on_c, 0, 83, 0
1, 242330, Note_on_c, 0, 57, 0
1, 242688, Note_on_c, 0, 69, 83
1, 242688, Note_on_c, 0, 81, 85
1, 242688, Note_on_c, 0, 57, 84
1, 242765, Note_on_c, 0, 69, 0
1, 242842, Note_on_c, 0, 81, 0
1, 242842, Note_on_c, 0, 57, 0
1, 243200, Note_on_c, 0, 68, 85
1, 243200, Note_on_c, 0, 80, 87
1, 243200, Note_on_c, 0, 57, 85
1, 243277, Note_on_c, 0, 68, 0
1, 243354, Note_on_c, 0, 80, 0
1, 243354, Note_on_c, 0, 57, 0
1, 243472, Note_on_c, 0, 38, 74
1, 243552, Note_on_c, 0, 42, 72
1, 243632, Note_on_c, 0, 45, 75
1, 243711, Note_on_c, 0, 38, 0
1, 243711, Note_on_c, 0, 42, 0
1, 243712, Note_on_c, 0, 66, 85
1, 243712, Note_on_c, 0, 78, 86
1, 243712, Note_on_c, 0, 45, 0
1, 243712, Note_on_c, 0, 50, 95
1, 243789, Note_on_c, 0, 66, 0
1, 243866, Note_on_c, 0, 78, 0
1, 243866, Note_on_c, 0, 50, 0
1, 244224, Note_on_c, 0, 71, 88
1, 244224, Note_on_c, 0, 83, 91
1, 244224, Note_on_c, 0, 50, 83
1, 244301, Note_on_c, 0, 71, 0
1, 244378, Note_on_c, 0, 83, 0
1, 244378, Note_on_c, 0, 50, 0
1, 244496, Note_on_c, 0, 40, 74
1, 244576, Note_on_c, 0, 44, 72
1, 244656, Note_on_c, 0, 47, 75
1, 244735, Note_on_c, 0, 40, 0
1, 244735, Note_on_c, 0, 44, 0
1, 244736, Note_on_c, 0, 68, 88
1, 244736, Note_on_c, 0, 80, 89
1, 244736, Note_on_c, 0, 47, 0
1, 244736, Note_on_c, 0, 52, 95
1, 244813, Note_on_c, 0, 68, 0
1, 244890, Note_on_c, 0, 80, 0
1, 244890, Note_on_c, 0, 52, 0
1, 245248, Note_on_c, 0, 64, 85
1, 245248, Note_on_c, 0, 76, 87
1, 245248, Note_on_c, 0, 52, 83
1, 245325, Note_on_c, 0, 64, 0
1, 245402, Note_on_c, 0, 76, 0
1, 245402, Note_on_c, 0, 52, 0
1, 245760, Note_on_c, 0, 69, 93
1, 245760, Note_on_c, 0, 81, 95
1, 245760, Note_on_c, 0, 45, 91
1, 246784, Note_on_c, 0, 69, 0
1, 246784, Note_on_c, 0, 81, 0
1, 246784, Note_on_c, 0, 69, 85
1, 246784, Note_on_c, 0, 81, 88
1, 246784, Note_on_c, 0, 45, 0
1, 246861, Note_on_c, 0, 69, 0
1, 246938, Note_on_c, 0, 81, 0
1, 247296, Note_on_c, 0, 71, 88
1, 247296, Note_on_c, 0, 83, 91
1, 247373, Note_on_c, 0, 71, 0
1, 247450, Note_on_c, 0, 83, 0
1, 247568, Note_on_c, 0, 45, 78
1, 247648, Note_on_c, 0, 49, 75
1, 247728, Note_on_c, 0, 52, 78
1, 247807, Note_on_c, 0, 45, 0
1, 247807, Note_on_c, 0, 49, 0
1, 247808, Note_on_c, 0, 73, 103
1, 247808, Note_on_c, 0, 85, 106
1, 247808, Note_on_c, 0, 52, 0
1, 247808, Note_on_c, 0, 57, 97
1, 248013, Note_on_c, 0, 73, 0
1, 248013, Note_on_c, 0, 57, 0
1, 248218, Note_on_c, 0, 85, 0
1, 248320, Note_on_c, 0, 57, 82
1, 248474, Note_on_c, 0, 57, 0
1, 248832, Note_on_c, 0, 69, 89
1, 248832, Note_on_c, 0, 81, 92
1, 248832, Note_on_c, 0, 57, 84
1, 248909, Note_on_c, 0, 69, 0
1, 248986, Note_on_c, 0, 81, 0
1, 248986, Note_on_c, 0, 57, 0
1, 249344, Note_on_c, 0, 71, 88
1, 249344, Note_on_c, 0, 83, 90
1, 249344, Note_on_c, 0, 57, 85
1, 249421, Note_on_c, 0, 71, 0
1, 249498, Note_on_c, 0, 83, 0
1, 249498, Note_on_c, 0, 57, 0
1, 249616, Note_on_c, 0, 45, 78
1, 249696, Note_on_c, 0, 49, 75
1, 249776, Note_on_c, 0, 52, 78
1, 249855, Note_on_c, 0, 45, 0
1, 249855, Note_on_c, 0, 49, 0
1, 249856, Note_on_c, 0, 73, 101
1, 249856, Note_on_c, 0, 85, 104
1, 249856, Note_on_c, 0, 52, 0
1, 249856, Note_on_c, 0, 57, 97
1, 249958, Note_on_c, 0, 73, 0
1, 250061, Note_on_c, 0, 85, 0
1, 250061, Note_on_c, 0, 57, 0
1, 250368, Note_on_c, 0, 71, 85
1, 250368, Note_on_c, 0, 83, 85
1, 250368, Note_on_c, 0, 57, 81
1, 250445, Note_on_c, 0, 71, 0
1, 250522, Note_on_c, 0, 83, 0
1, 250522, Note_on_c, 0, 57, 0
1, 250880, Note_on_c, 0, 69, 85
1, 250880, Note_on_c, 0, 81, 89
1, 250880, Note_on_c, 0, 57, 83
1, 250957, Note_on_c, 0, 69, 0
1, 251034, Note_on_c, 0, 81, 0
1, 251034, Note_on_c, 0, 57, 0
1, 251392, Note_on_c, 0, 68, 85
1, 251392, Note_on_c, 0, 80, 87
1, 251392, Note_on_c, 0, 57, 85
1, 251469, Note_on_c, 0, 68, 0
1, 251546, Note_on_c, 0, 80, 0
1, 251546, Note_on_c, 0, 57, 0
1, 251664, Note_on_c, 0, 38, 74
1, 251744, Note_on_c, 0, 42, 72
1, 251824, Note_on_c, 0, 45, 75
1, 251903, Note_on_c, 0, 38, 0
1, 251903, Note_on_c, 0, 42, 0
1, 251904, Note_on_c, 0, 66, 85
1, 251904, Note_on_c, 0, 78, 86
1, 251904, Note_on_c, 0, 45, 0
1, 251904, Note_on_c, 0, 50, 96
1, 251981, Note_on_c, 0, 66, 0
1, 252058, Note_on_c, 0, 78, 0
1, 252058, Note_on_c, 0, 50, 0
1, 252416, Note_on_c, 0, 68, 88
1, 252416, Note_on_c, 0, 80, 91
1, 252416, Note_on_c, 0, 50, 81
1, 252493, Note_on_c, 0, 68, 0
1, 252570, Note_on_c, 0, 80, 0
1, 252570, Note_on_c, 0, 50, 0
1, 252688, Note_on_c, 0, 39, 74
1, 252768, Note_on_c, 0, 42, 72
1, 252848, Note_on_c, 0, 45, 75
1, 252927, Note_on_c, 0, 39, 0
1, 252927, Note_on_c, 0, 42, 0
1, 252928, Note_on_c, 0, 69, 88
1, 252928, Note_on_c, 0, 81, 92
1, 252928, Note_on_c, 0, 45, 0
1, 252928, Note_on_c, 0, 51, 99
1, 253005, Note_on_c, 0, 69, 0
1, 253082, Note_on_c, 0, 81, 0
1, 253082, Note_on_c, 0, 51, 0
1, 253440, Note_on_c, 0, 71, 88
1, 253440, Note_on_c, 0, 83, 92
1, 253440, Note_on_c, 0, 51, 81
1, 253517, Note_on_c, 0, 71, 0
1, 253594, Note_on_c, 0, 83, 0
1, 253594, Note_on_c, 0, 51, 0
1, 253712, Note_on_c, 0, 40, 78
1, 253792, Note_on_c, 0, 44, 75
1, 253872, Note_on_c, 0, 47, 78
1, 253951, Note_on_c, 0, 40, 0
1, 253951, Note_on_c, 0, 44, 0
1, 253952, Note_on_c, 0, 68, 89
1, 253952, Note_on_c, 0, 80, 91
1, 253952, Note_on_c, 0, 47, 0
1, 253952, Note_on_c, 0, 52, 78
1, 254029, Note_on_c, 0, 68, 0
1, 254106, Note_on_c, 0, 80, 0
1, 254106, Note_on_c, 0, 52, 0
1, 254464, Note_on_c, 0, 64, 88
1, 254464, Note_on_c, 0, 76, 90
1, 254464, Note_on_c, 0, 52, 82
1, 254541, Note_on_c, 0, 64, 0
1, 254618, Note_on_c, 0, 76, 0
1, 254618, Note_on_c, 0, 52, 0
1, 254976, Note_on_c, 0, 69, 88
1, 254976, Note_on_c, 0, 81, 91
1, 254976, Note_on_c, 0, 52, 83
1, 255053, Note_on_c, 0, 69, 0
1, 255130, Note_on_c, 0, 81, 0
1, 255130, Note_on_c, 0, 52, 0
1, 255488, Note_on_c, 0, 71, 88
1, 255488, Note_on_c, 0, 83, 91
1, 255488, Note_on_c, 0, 52, 84
1, 255565, Note_on_c, 0, 71, 0
1, 255642, Note_on_c, 0, 83, 0
1, 255642, Note_on_c, 0, 52, 0
1, 255760, Note_on_c, 0, 45, 78
1, 255840, Note_on_c, 0, 49, 75
1, 255920, Note_on_c, 0, 52, 78
1, 255999, Note_on_c, 0, 45, 0
1, 255999, Note_on_c, 0, 49, 0
1, 256000, Note_on_c, 0, 73, 102
1, 256000, Note_on_c, 0, 85, 104
1, 256000, Note_on_c, 0, 52, 0
1, 256000, Note_on_c, 0, 57, 97
1, 256205, Note_on_c, 0, 73, 0
1, 256205, Note_on_c, 0, 57, 0
1, 256410, Note_on_c, 0, 85, 0
1, 256512, Note_on_c, 0, 57, 84
1, 256666, Note_on_c, 0, 57, 0
1, 257024, Note_on_c, 0, 69, 89
1, 257024, Note_on_c, 0, 81, 91
1, 257024, Note_on_c, 0, 57, 85
1, 257101, Note_on_c, 0, 69, 0
1, 257178, Note_on_c, 0, 81, 0
1, 257178, Note_on_c, 0, 57, 0
1, 257536, Note_on_c, 0, 71, 86
1, 257536, Note_on_c, 0, 83, 88
1, 257536, Note_on_c, 0, 57, 86
1, 257613, Note_on_c, 0, 71, 0
1, 257690, Note_on_c, 0, 83, 0
1, 257690, Note_on_c, 0, 57, 0
1, 257808, Note_on_c, 0, 45, 78
1, 257888, Note_on_c, 0, 49, 75
1, 257968, Note_on_c, 0, 52, 78
1, 258047, Note_on_c, 0, 45, 0
1, 258047, Note_on_c, 0, 49, 0
1, 258048, Note_on_c, 0, 73, 100
1, 258048, Note_on_c, 0, 85, 104
1, 258048, Note_on_c, 0, 52, 0
1, 258048, Note_on_c, 0, 57, 96
1, 258150, Note_on_c, 0, 73, 0
1, 258253, Note_on_c, 0, 85, 0
1, 258253, Note_on_c, 0, 57, 0
1, 258560, Note_on_c, 0, 71, 85
1, 258560, Note_on_c, 0, 83, 90
1, 258560, Note_on_c, 0, 57, 83
1, 258637, Note_on_c, 0, 71, 0
1, 258714, Note_on_c, 0, 83, 0
1, 258714, Note_on_c, 0, 57, 0
1, 259072, Note_on_c, 0, 69, 83
1, 259072, Note_on_c, 0, 81, 85
1, 259072, Note_on_c, 0, 57, 84
1, 259149, Note_on_c, 0, 69, 0
1, 259226, Note_on_c, 0, 81, 0
1, 259226, Note_on_c, 0, 57, 0
1, 259584, Note_on_c, 0, 68, 85
1, 259584, Note_on_c, 0, 80, 87
1, 259584, Note_on_c, 0, 57, 85
1, 259661, Note_on_c, 0, 68, 0
1, 259738, Note_on_c, 0, 80, 0
1, 259738, Note_on_c, 0, 57, 0
1, 259856, Note_on_c, 0, 38, 74
1, 259936, Note_on_c, 0, 42, 72
1, 260016, Note_on_c, 0, 45, 75
1, 260095, Note_on_c, 0, 38, 0
1, 260095, Note_on_c, 0, 42, 0
1, 260096, Note_on_c, 0, 66, 85
1, 260096, Note_on_c, 0, 78, 86
1, 260096, Note_on_c, 0, 45, 0
1, 260096, Note_on_c, 0, 50, 95
1, 260173, Note_on_c, 0, 66, 0
1, 260250, Note_on_c, 0, 78, 0
1, 260250, Note_on_c, 0, 50, 0
1, 260608, Note_on_c, 0, 71, 88
1, 260608, Note_on_c, 0, 83, 91
1, 260608, Note_on_c, 0, 50, 83
1, 260685, Note_on_c, 0, 71, 0
1, 260762, Note_on_c, 0, 83, 0
1, 260762, Note_on_c, 0, 50, 0
1, 260880, Note_on_c, 0, 40, 74
1, 260960, Note_on_c, 0, 44, 72
1, 261040, Note_on_c, 0, 47, 75
1, 261119, Note_on_c, 0, 40, 0
1, 261119, Note_on_c, 0, 44, 0
1, 261120, Note_on_c, 0, 68, 88
1, 261120, Note_on_c, 0, 80, 89
1, 261120, Note_on_c, 0, 47, 0
1, 261120, Note_on_c, 0, 52, 95
1, 261197, Note_on_c, 0, 68, 0
1, 261274, Note_on_c, 0, 80, 0
1, 261274, Note_on_c, 0, 52, 0
1, 261632, Note_on_c, 0, 64, 85
1, 261632, Note_on_c, 0, 76, 87
1, 261632, Note_on_c, 0, 52, 83
1, 261709, Note_on_c, 0, 64, 0
1, 261786, Note_on_c, 0, 76, 0
1, 261786, Note_on_c, 0, 52, 0
1, 262144, Note_on_c, 0, 69, 92
1, 262144, Note_on_c, 0, 81, 94
1, 262144, Note_on_c, 0, 45, 90
1, 262963, Note_on_c, 0, 69, 0
1, 262963, Note_on_c, 0, 81, 0
1, 262963, Note_on_c, 0, 45, 0
1, 263168, Note_on_c, 0, 71, 65
1, 263424, Note_on_c, 0, 71, 0
1, 263424, Note_on_c, 0, 69, 58
1, 263680, Note_on_c, 0, 69, 0
1, 263680, Note_on_c, 0, 68, 50
1, 263936, Note_on_c, 0, 68, 0
1, 263936, Note_on_c, 0, 69, 46
1, 264192, Note_on_c, 0, 69, 0
1, 264192, Note_on_c, 0, 72, 47
1, 264192, Note_on_c, 0, 57, 44
1, 264346, Note_on_c, 0, 72, 0
1, 264704, Note_on_c, 0, 57, 0
1, 264704, Note_on_c, 0, 60, 42
1, 264704, Note_on_c, 0, 64, 40
1, 264781, Note_on_c, 0, 60, 0
1, 264858, Note_on_c, 0, 64, 0
1, 265216, Note_on_c, 0, 74, 50
1, 265216, Note_on_c, 0, 60, 42
1, 265216, Note_on_c, 0, 64, 40
1, 265293, Note_on_c, 0, 60, 0
1, 265370, Note_on_c, 0, 64, 0
1, 265472, Note_on_c, 0, 74, 0
1, 265472, Note_on_c, 0, 72, 47
1, 265728, Note_on_c, 0, 72, 0
1, 265728, Note_on_c, 0, 71, 45
1, 265728, Note_on_c, 0, 60, 42
1, 265728, Note_on_c, 0, 64, 40
1, 265805, Note_on_c, 0, 60, 0
1, 265882, Note_on_c, 0, 64, 0
1, 265984, Note_on_c, 0, 71, 0
1, 265984, Note_on_c, 0, 72, 47
1, 266240, Note_on_c, 0, 72, 0
1, 266240, Note_on_c, 0, 76, 53
1, 266240, Note_on_c, 0, 57, 45
1, 266394, Note_on_c, 0, 76, 0
1, 266752, Note_on_c, 0, 57, 0
1, 266752, Note_on_c, 0, 60, 43
1, 266752, Note_on_c, 0, 64, 41
1, 266829, Note_on_c, 0, 60, 0
1, 266906, Note_on_c, 0, 64, 0
1, 267264, Note_on_c, 0, 77, 57
1, 267264, Note_on_c, 0, 60, 43
1, 267264, Note_on_c, 0, 64, 41
1, 267341, Note_on_c, 0, 60, 0
1, 267418, Note_on_c, 0, 64, 0
1, 267520, Note_on_c, 0, 77, 0
1, 267520, Note_on_c, 0, 76, 54
1, 267776, Note_on_c, 0, 76, 0
1, 267776, Note_on_c, 0, 75, 52
1, 267776, Note_on_c, 0, 60, 43
1, 267776, Note_on_c, 0, 64, 41
1, 267853, Note_on_c, 0, 60, 0
1, 267930, Note_on_c, 0, 64, 0
1, 268032, Note_on_c, 0, 75, 0
1, 268032, Note_on_c, 0, 76, 52
1, 268288, Note_on_c, 0, 76, 0
1, 268288, Note_on_c, 0, 83, 59
1, 268288, Note_on_c, 0, 57, 45
1, 268442, Note_on_c, 0, 57, 0
1, 268544, Note_on_c, 0, 83, 0
1, 268544, Note_on_c, 0, 81, 55
1, 268800, Note_on_c, 0, 81, 0
1, 268800, Note_on_c, 0, 80, 55
1, 268800, Note_on_c, 0, 60, 46
1, 268800, Note_on_c, 0, 64, 44
1, 268877, Note_on_c, 0, 60, 0
1, 268954, Note_on_c, 0, 64, 0
1, 269056, Note_on_c, 0, 80, 0
1, 269056, Note_on_c, 0, 81, 60
1, 269312, Note_on_c, 0, 81, 0
1, 269312, Note_on_c, 0, 83, 60
1, 269312, Note_on_c, 0, 57, 45
1, 269466, Note_on_c, 0, 57, 0
1, 269568, Note_on_c, 0, 83, 0
1, 269568, Note_on_c, 0, 81, 60
1, 269824, Note_on_c, 0, 81, 0
1, 269824, Note_on_c, 0, 80, 60
1, 269824, Note_on_c, 0, 60, 46
1, 269824, Note_on_c, 0, 64, 44
1, 269901, Note_on_c, 0, 60, 0
1, 269978, Note_on_c, 0, 64, 0
1, 270080, Note_on_c, 0, 80, 0
1, 270080, Note_on_c, 0, 81, 60
1, 270336, Note_on_c, 0, 81, 0
1, 270336, Note_on_c, 0, 84, 76
1, 270336, Note_on_c, 0, 57, 49
1, 270848, Note_on_c, 0, 57, 0
1, 270848, Note_on_c, 0, 60, 47
1, 270848, Note_on_c, 0, 64, 45
1, 270925, Note_on_c, 0, 60, 0
1, 271002, Note_on_c, 0, 64, 0
1, 271360, Note_on_c, 0, 84, 0
1, 271360, Note_on_c, 0, 81, 60
1, 271360, Note_on_c, 0, 60, 47
1, 271360, Note_on_c, 0, 64, 45
1, 271437, Note_on_c, 0, 60, 0
1, 271514, Note_on_c, 0, 81, 0
1, 271514, Note_on_c, 0, 64, 0
1, 271872, Note_on_c, 0, 84, 65
1, 271872, Note_on_c, 0, 60, 47
1, 271872, Note_on_c, 0, 64, 45
1, 271949, Note_on_c, 0, 60, 0
1, 272026, Note_on_c, 0, 84, 0
1, 272026, Note_on_c, 0, 64, 0
1, 272314, Note_on_c, 0, 79, 66
1, 272349, Note_on_c, 0, 79, 0
1, 272349, Note_on_c, 0, 81, 68
1, 272384, Note_on_c, 0, 81, 0
1, 272384, Note_on_c, 0, 83, 78
1, 272384, Note_on_c, 0, 52, 50
1, 272538, Note_on_c, 0, 83, 0
1, 272538, Note_on_c, 0, 52, 0
1, 272896, Note_on_c, 0, 78, 50
1, 272896, Note_on_c, 0, 81, 55
1, 272896, Note_on_c, 0, 59, 49
1, 272896, Note_on_c, 0, 64, 47
1, 272973, Note_on_c, 0, 78, 0
1, 272973, Note_on_c, 0, 59, 0
1, 273050, Note_on_c, 0, 81, 0
1, 273050, Note_on_c, 0, 64, 0
1, 273408, Note_on_c, 0, 76, 46
1, 273408, Note_on_c, 0, 79, 50
1, 273408, Note_on_c, 0, 59, 49
1, 273408, Note_on_c, 0, 64, 47
1, 273485, Note_on_c, 0, 76, 0
1, 273485, Note_on_c, 0, 59, 0
1, 273562, Note_on_c, 0, 79, 0
1, 273562, Note_on_c, 0, 64, 0
1, 273920, Note_on_c, 0, 78, 50
1, 273920, Note_on_c, 0, 81, 55
1, 273920, Note_on_c, 0, 59, 49
1, 273920, Note_on_c, 0, 64, 47
1, 273997, Note_on_c, 0, 78, 0
1, 273997, Note_on_c, 0, 59, 0
1, 274074, Note_on_c, 0, 81, 0
1, 274074, Note_on_c, 0, 64, 0
1, 274362, Note_on_c, 0, 79, 64
1, 274397, Note_on_c, 0, 79, 0
1, 274397, Note_on_c, 0, 81, 66
1, 274432, Note_on_c, 0, 81, 0
1, 274432, Note_on_c, 0, 83, 76
1, 274432, Note_on_c, 0, 52, 53
1, 274586, Note_on_c, 0, 83, 0
1, 274586, Note_on_c, 0, 52, 0
1, 274944, Note_on_c, 0, 78, 50
1, 274944, Note_on_c, 0, 81, 56
1, 274944, Note_on_c, 0, 59, 50
1, 274944, Note_on_c, 0, 64, 48
1, 275021, Note_on_c, 0, 78, 0
1, 275021, Note_on_c, 0, 59, 0
1, 275098, Note_on_c, 0, 81, 0
1, 275098, Note_on_c, 0, 64, 0
1, 275456, Note_on_c, 0, 76, 44
1, 275456, Note_on_c, 0, 79, 50
1, 275456, Note_on_c, 0, 59, 50
1, 275456, Note_on_c, 0, 64, 48
1, 275533, Note_on_c, 0, 76, 0
1, 275533, Note_on_c, 0, 59, 0
1, 275610, Note_on_c, 0, 79, 0
1, 275610, Note_on_c, 0, 64, 0
1, 275968, Note_on_c, 0, 78, 50
1, 275968, Note_on_c, 0, 81, 56
1, 275968, Note_on_c, 0, 59, 51
1, 275968, Note_on_c, 0, 64, 49
1, 276045, Note_on_c, 0, 78, 0
1, 276045, Note_on_c, 0, 59, 0
1, 276122, Note_on_c, 0, 81, 0
1, 276122, Note_on_c, 0, 64, 0
1, 276410, Note_on_c, 0, 79, 64
1, 276445, Note_on_c, 0, 79, 0
1, 276445, Note_on_c, 0, 81, 66
1, 276480, Note_on_c, 0, 81, 0
1, 276480, Note_on_c, 0, 83, 76
1, 276480, Note_on_c, 0, 52, 55
1, 276634, Note_on_c, 0, 83, 0
1, 276634, Note_on_c, 0, 52, 0
1, 276992, Note_on_c, 0, 78, 50
1, 276992, Note_on_c, 0, 81, 59
1, 276992, Note_on_c, 0, 59, 51
1, 276992, Note_on_c, 0, 64, 49
1, 277069, Note_on_c, 0, 78, 0
1, 277069, Note_on_c, 0, 59, 0
1, 277146, Note_on_c, 0, 81, 0
1, 277146, Note_on_c, 0, 64, 0
1, 277504, Note_on_c, 0, 76, 50
1, 277504, Note_on_c, 0, 79, 56
1, 277504, Note_on_c, 0, 47, 52
1, 277581, Note_on_c, 0, 76, 0
1, 277658, Note_on_c, 0, 79, 0
1, 277658, Note_on_c, 0, 47, 0
1, 278016, Note_on_c, 0, 75, 50
1, 278016, Note_on_c, 0, 78, 54
1, 278016, Note_on_c, 0, 59, 47
1, 278093, Note_on_c, 0, 75, 0
1, 278170, Note_on_c, 0, 78, 0
1, 278170, Note_on_c, 0, 59, 0
1, 278528, Note_on_c, 0, 76, 59
1, 278528, Note_on_c, 0, 52, 56
1, 279552, Note_on_c, 0, 76, 0
1, 279552, Note_on_c, 0, 71, 47
1, 279552, Note_on_c, 0, 52, 0
1, 279808, Note_on_c, 0, 71, 0
1, 279808, Note_on_c, 0, 69, 45
1, 280064, Note_on_c, 0, 69, 0
1, 280064, Note_on_c, 0, 68, 43
1, 280320, Note_on_c, 0, 68, 0
1, 280320, Note_on_c, 0, 69, 46
1, 280576, Note_on_c, 0, 69, 0
1, 280576, Note_on_c, 0, 72, 47
1, 280576, Note_on_c, 0, 57, 44
1, 280730, Note_on_c, 0, 72, 0
1, 281088, Note_on_c, 0, 57, 0
1, 281088, Note_on_c, 0, 60, 42
1, 281088, Note_on_c, 0, 64, 40
1, 281165, Note_on_c, 0, 60, 0
1, 281242, Note_on_c, 0, 64, 0
1, 281600, Note_on_c, 0, 74, 50
1, 281600, Note_on_c, 0, 60, 42
1, 281600, Note_on_c, 0, 64, 40
1, 281677, Note_on_c, 0, 60, 0
1, 281754, Note_on_c, 0, 64, 0
1, 281856, Note_on_c, 0, 74, 0
1, 281856, Note_on_c, 0, 72, 47
1, 282112, Note_on_c, 0, 72, 0
1, 282112, Note_on_c, 0, 71, 45
1, 282112, Note_on_c, 0, 60, 42
1, 282112, Note_on_c, 0, 64, 40
1, 282189, Note_on_c, 0, 60, 0
1, 282266, Note_on_c, 0, 64, 0
1, 282368, Note_on_c, 0, 71, 0
1, 282368, Note_on_c, 0, 72, 47
1, 282624, Note_on_c, 0, 72, 0
1, 282624, Note_on_c, 0, 76, 53
1, 282624, Note_on_c, 0, 57, 45
1, 282778, Note_on_c, 0, 76, 0
1, 283136, Note_on_c, 0, 57, 0
1, 283136, Note_on_c, 0, 60, 43
1, 283136, Note_on_c, 0, 64, 41
1, 283213, Note_on_c, 0, 60, 0
1, 283290, Note_on_c, 0, 64, 0
1, 283648, Note_on_c, 0, 77, 57
1, 283648, Note_on_c, 0, 60, 43
1, 283648, Note_on_c, 0, 64, 41
1, 283725, Note_on_c, 0, 60, 0
1, 283802, Note_on_c, 0, 64, 0
1, 283904, Note_on_c, 0, 77, 0
1, 283904, Note_on_c, 0, 76, 54
1, 284160, Note_on_c, 0, 76, 0
1, 284160, Note_on_c, 0, 75, 52
1, 284160, Note_on_c, 0, 60, 43
1, 284160, Note_on_c, 0, 64, 41
1, 284237, Note_on_c, 0, 60, 0
1, 284314, Note_on_c, 0, 64, 0
1, 284416, Note_on_c, 0, 75, 0
1, 284416, Note_on_c, 0, 76, 52
1, 284672, Note_on_c, 0, 76, 0
1, 284672, Note_on_c, 0, 83, 59
1, 284672, Note_on_c, 0, 57, 45
1, 284826, Note_on_c, 0, 57, 0
1, 284928, Note_on_c, 0, 83, 0
1, 284928, Note_on_c, 0, 81, 55
1, 285184, Note_on_c, 0, 81, 0
1, 285184, Note_on_c, 0, 80, 55
1, 285184, Note_on_c, 0, 60, 46
1, 285184, Note_on_c, 0, 64, 44
1, 285261, Note_on_c, 0, 60, 0
1, 285338, Note_on_c, 0, 64, 0
1, 285440, Note_on_c, 0, 80, 0
1, 285440, Note_on_c, 0, 81, 60
1, 285696, Note_on_c, 0, 81, 0
1, 285696, Note_on_c, 0, 83, 60
1, 285696, Note_on_c, 0, 57, 45
1, 285850, Note_on_c, 0, 57, 0
1, 285952, Note_on_c, 0, 83, 0
1, 285952, Note_on_c, 0, 81, 60
1, 286208, Note_on_c, 0, 81, 0
1, 286208, Note_on_c, 0, 80, 60
1, 286208, Note_on_c, 0, 60, 46
1, 286208, Note_on_c, 0, 64, 44
1, 286285, Note_on_c, 0, 60, 0
1, 286362, Note_on_c, 0, 64, 0
1, 286464, Note_on_c, 0, 80, 0
1, 286464, Note_on_c, 0, 81, 60
1, 286720, Note_on_c, 0, 81, 0
1, 286720, Note_on_c, 0, 84, 76
1, 286720, Note_on_c, 0, 57, 49
1, 287232, Note_on_c, 0, 57, 0
1, 287232, Note_on_c, 0, 60, 47
1, 287232, Note_on_c, 0, 64, 45
1, 287309, Note_on_c, 0, 60, 0
1, 287386, Note_on_c, 0, 64, 0
1, 287744, Note_on_c, 0, 84, 0
1, 287744, Note_on_c, 0, 81, 60
1, 287744, Note_on_c, 0, 60, 47
1, 287744, Note_on_c, 0, 64, 45
1, 287821, Note_on_c, 0, 60, 0
1, 287898, Note_on_c, 0, 81, 0
1, 287898, Note_on_c, 0, 64, 0
1, 288256, Note_on_c, 0, 84, 65
1, 288256, Note_on_c, 0, 60, 47
1, 288256, Note_on_c, 0, 64, 45
1, 288333, Note_on_c, 0, 60, 0
1, 288410, Note_on_c, 0, 84, 0
1, 288410, Note_on_c, 0, 64, 0
1, 288698, Note_on_c, 0, 79, 66
1, 288733, Note_on_c, 0, 79, 0
1, 288733, Note_on_c, 0, 81, 68
1, 288768, Note_on_c, 0, 81, 0
1, 288768, Note_on_c, 0, 83, 78
1, 288768, Note_on_c, 0, 52, 50
1, 288922, Note_on_c, 0, 83, 0
1, 288922, Note_on_c, 0, 52, 0
1, 289280, Note_on_c, 0, 78, 50
1, 289280, Note_on_c, 0, 81, 55
1, 289280, Note_on_c, 0, 59, 49
1, 289280, Note_on_c, 0, 64, 47
1, 289357, Note_on_c, 0, 78, 0
1, 289357, Note_on_c, 0, 59, 0
1, 289434, Note_on_c, 0, 81, 0
1, 289434, Note_on_c, 0, 64, 0
1, 289792, Note_on_c, 0, 76, 46
1, 289792, Note_on_c, 0, 79, 50
1, 289792, Note_on_c, 0, 59, 49
1, 289792, Note_on_c, 0, 64, 47
1, 289869, Note_on_c, 0, 76, 0
1, 289869, Note_on_c, 0, 59, 0
1, 289946, Note_on_c, 0, 79, 0
1, 289946, Note_on_c, 0, 64, 0
1, 290304, Note_on_c, 0, 78, 50
1, 290304, Note_on_c, 0, 81, 55
1, 290304, Note_on_c, 0, 59, 49
1, 290304, Note_on_c, 0, 64, 47
1, 290381, Note_on_c, 0, 78, 0
1, 290381, Note_on_c, 0, 59, 0
1, 290458, Note_on_c, 0, 81, 0
1, 290458, Note_on_c, 0, 64, 0
1, 290746, Note_on_c, 0, 79, 64
1, 290781, Note_on_c, 0, 79, 0
1, 290781, Note_on_c, 0, 81, 66
1, 290816, Note_on_c, 0, 81, 0
1, 290816, Note_on_c, 0, 83, 76
1, 290816, Note_on_c, 0, 52, 53
1, 290970, Note_on_c, 0, 83, 0
1, 290970, Note_on_c, 0, 52, 0
1, 291328, Note_on_c, 0, 78, 50
1, 291328, Note_on_c, 0, 81, 56
1, 291328, Note_on_c, 0, 59, 50
1, 291328, Note_on_c, 0, 64, 48
1, 291405, Note_on_c, 0, 78, 0
1, 291405, Note_on_c, 0, 59, 0
1, 291482, Note_on_c, 0, 81, 0
1, 291482, Note_on_c, 0, 64, 0
1, 291840, Note_on_c, 0, 76, 44
1, 291840, Note_on_c, 0, 79, 50
1, 291840, Note_on_c, 0, 59, 50
1, 291840, Note_on_c, 0, 64, 48
1, 291917, Note_on_c, 0, 76, 0
1, 291917, Note_on_c, 0, 59, 0
1, 291994, Note_on_c, 0, 79, 0
1, 291994, Note_on_c, 0, 64, 0
1, 292352, Note_on_c, 0, 78, 50
1, 292352, Note_on_c, 0, 81, 56
1, 292352, Note_on_c, 0, 59, 51
1, 292352, Note_on_c, 0, 64, 49
1, 292429, Note_on_c, 0, 78, 0
1, 292429, Note_on_c, 0, 59, 0
1, 292506, Note_on_c, 0, 81, 0
1, 292506, Note_on_c, 0, 64, 0
1, 292794, Note_on_c, 0, 79, 64
1, 292829, Note_on_c, 0, 79, 0
1, 292829, Note_on_c, 0, 81, 66
1, 292864, Note_on_c, 0, 81, 0
1, 292864, Note_on_c, 0, 83, 76
1, 292864, Note_on_c, 0, 52, 55
1, 293018, Note_on_c, 0, 83, 0
1, 293018, Note_on_c, 0, 52, 0
1, 293376, Note_on_c, 0, 78, 50
1, 293376, Note_on_c, 0, 81, 59
1, 293376, Note_on_c, 0, 59, 51
1, 293376, Note_on_c, 0, 64, 49
1, 293453, Note_on_c, 0, 78, 0
1, 293453, Note_on_c, 0, 59, 0
1, 293530, Note_on_c, 0, 81, 0
1, 293530, Note_on_c, 0, 64, 0
1, 293888, Note_on_c, 0, 76, 50
1, 293888, Note_on_c, 0, 79, 56
1, 293888, Note_on_c, 0, 47, 52
1, 293965, Note_on_c, 0, 76, 0
1, 294042, Note_on_c, 0, 79, 0
1, 294042, Note_on_c, 0, 47, 0
1, 294400, Note_on_c, 0, 75, 50
1, 294400, Note_on_c, 0, 78, 54
1, 294400, Note_on_c, 0, 59, 47
1, 294477, Note_on_c, 0, 75, 0
1, 294554, Note_on_c, 0, 78, 0
1, 294554, Note_on_c, 0, 59, 0
1, 294912, Note_on_c, 0, 76, 57
1, 294912, Note_on_c, 0, 52, 55
1, 295936, Note_on_c, 0, 76, 0
1, 295936, Note_on_c, 0, 72, 64
1, 295936, Note_on_c, 0, 76, 66
1, 295936, Note_on_c, 0, 52, 0
1, 296448, Note_on_c, 0, 72, 0
1, 296448, Note_on_c, 0, 76, 0
1, 296448, Note_on_c, 0, 74, 66
1, 296448, Note_on_c, 0, 77, 68
1, 296960, Note_on_c, 0, 74, 0
1, 296960, Note_on_c, 0, 77, 0
1, 296960, Note_on_c, 0, 76, 69
1, 296960, Note_on_c, 0, 79, 71
1, 296960, Note_on_c, 0, 48, 61
1, 297037, Note_on_c, 0, 76, 0
1, 297114, Note_on_c, 0, 79, 0
1, 297114, Note_on_c, 0, 48, 0
1, 297472, Note_on_c, 0, 76, 69
1, 297472, Note_on_c, 0, 79, 71
1, 297472, Note_on_c, 0, 60, 59
1, 297549, Note_on_c, 0, 76, 0
1, 297626, Note_on_c, 0, 79, 0
1, 297626, Note_on_c, 0, 60, 0
1, 297984, Note_on_c, 0, 81, 74
1, 297984, Note_on_c, 0, 52, 61
1, 298138, Note_on_c, 0, 52, 0
1, 298240, Note_on_c, 0, 81, 0
1, 298240, Note_on_c, 0, 79, 72
1, 298496, Note_on_c, 0, 79, 0
1, 298496, Note_on_c, 0, 77, 70
1, 298496, Note_on_c, 0, 64, 59
1, 298650, Note_on_c, 0, 64, 0
1, 298752, Note_on_c, 0, 77, 0
1, 298752, Note_on_c, 0, 76, 69
1, 299008, Note_on_c, 0, 76, 0
1, 299008, Note_on_c, 0, 74, 79
1, 299008, Note_on_c, 0, 71, 67
1, 299008, Note_on_c, 0, 55, 61
1, 299520, Note_on_c, 0, 71, 0
1, 299520, Note_on_c, 0, 67, 64
1, 300032, Note_on_c, 0, 74, 0
1, 300032, Note_on_c, 0, 72, 54
1, 300032, Note_on_c, 0, 76, 56
1, 300032, Note_on_c, 0, 67, 0
1, 300032, Note_on_c, 0, 55, 0
1, 300109, Note_on_c, 0, 72, 0
1, 300186, Note_on_c, 0, 76, 0
1, 300544, Note_on_c, 0, 74, 56
1, 300544, Note_on_c, 0, 77, 58
1, 300621, Note_on_c, 0, 74, 0
1, 300698, Note_on_c, 0, 77, 0
1, 301056, Note_on_c, 0, 76, 58
1, 301056, Note_on_c, 0, 79, 58
1, 301056, Note_on_c, 0, 48, 54
1, 301133, Note_on_c, 0, 76, 0
1, 301210, Note_on_c, 0, 79, 0
1, 301210, Note_on_c, 0, 48, 0
1, 301568, Note_on_c, 0, 76, 58
1, 301568, Note_on_c, 0, 79, 58
1, 301568, Note_on_c, 0, 60, 52
1, 301645, Note_on_c, 0, 76, 0
1, 301722, Note_on_c, 0, 79, 0
1, 301722, Note_on_c, 0, 60, 0
1, 302080, Note_on_c, 0, 81, 60
1, 302080, Note_on_c, 0, 52, 54
1, 302234, Note_on_c, 0, 52, 0
1, 302336, Note_on_c, 0, 81, 0
1, 302336, Note_on_c, 0, 79, 57
1, 302592, Note_on_c, 0, 79, 0
1, 302592, Note_on_c, 0, 77, 57
1, 302592, Note_on_c, 0, 64, 49
1, 302746, Note_on_c, 0, 64, 0
1, 302848, Note_on_c, 0, 77, 0
1, 302848, Note_on_c, 0, 76, 57
1, 303104, Note_on_c, 0, 76, 0
1, 303104, Note_on_c, 0, 71, 58
1, 303104, Note_on_c, 0, 74, 60
1, 303104, Note_on_c, 0, 55, 50
1, 304128, Note_on_c, 0, 71, 0
1, 304128, Note_on_c, 0, 74, 0
1, 304128, Note_on_c, 0, 69, 47
1, 304128, Note_on_c, 0, 72, 45
1, 304128, Note_on_c, 0, 55, 0
1, 304205, Note_on_c, 0, 69, 0
1, 304282, Note_on_c, 0, 72, 0
1, 304640, Note_on_c, 0, 71, 49
1, 304640, Note_on_c, 0, 74, 47
1, 304717, Note_on_c, 0, 71, 0
1, 304794, Note_on_c, 0, 74, 0
1, 305152, Note_on_c, 0, 72, 51
1, 305152, Note_on_c, 0, 76, 49
1, 305152, Note_on_c, 0, 45, 45
1, 305229, Note_on_c, 0, 72, 0
1, 305306, Note_on_c, 0, 76, 0
1, 305306, Note_on_c, 0, 45, 0
1, 305664, Note_on_c, 0, 72, 51
1, 305664, Note_on_c, 0, 76, 49
1, 305664, Note_on_c, 0, 57, 42
1, 305741, Note_on_c, 0, 72, 0
1, 305818, Note_on_c, 0, 76, 0
1, 305818, Note_on_c, 0, 57, 0
1, 306176, Note_on_c, 0, 77, 51
1, 306176, Note_on_c, 0, 48, 45
1, 306330, Note_on_c, 0, 48, 0
1, 306432, Note_on_c, 0, 77, 0
1, 306432, Note_on_c, 0, 76, 50
1, 306688, Note_on_c, 0, 76, 0
1, 306688, Note_on_c, 0, 74, 48
1, 306688, Note_on_c, 0, 60, 42
1, 306842, Note_on_c, 0, 60, 0
1, 306944, Note_on_c, 0, 74, 0
1, 306944, Note_on_c, 0, 72, 48
1, 307200, Note_on_c, 0, 72, 0
1, 307200, Note_on_c, 0, 71, 59
1, 307200, Note_on_c, 0, 68, 47
1, 307200, Note_on_c, 0, 52, 47
1, 307712, Note_on_c, 0, 68, 0
1, 307712, Note_on_c, 0, 64, 49
1, 308224, Note_on_c, 0, 71, 0
1, 308224, Note_on_c, 0, 69, 37
1, 308224, Note_on_c, 0, 72, 39
1, 308224, Note_on_c, 0, 64, 0
1, 308224, Note_on_c, 0, 52, 0
1, 308301, Note_on_c, 0, 69, 0
1, 308378, Note_on_c, 0, 72, 0
1, 308736, Note_on_c, 0, 71, 40
1, 308736, Note_on_c, 0, 74, 42
1, 308813, Note_on_c, 0, 71, 0
1, 308890, Note_on_c, 0, 74, 0
1, 309248, Note_on_c, 0, 72, 43
1, 309248, Note_on_c, 0, 76, 45
1, 309248, Note_on_c, 0, 45, 40
1, 309325, Note_on_c, 0, 72, 0
1, 309402, Note_on_c, 0, 76, 0
1, 309402, Note_on_c, 0, 45, 0
1, 309760, Note_on_c, 0, 72, 43
1, 309760, Note_on_c, 0, 76, 45
1, 309760, Note_on_c, 0, 57, 38
1, 309837, Note_on_c, 0, 72, 0
1, 309914, Note_on_c, 0, 76, 0
1, 309914, Note_on_c, 0, 57, 0
1, 310272, Note_on_c, 0, 77, 45
1, 310272, Note_on_c, 0, 48, 40
1, 310426, Note_on_c, 0, 48, 0
1, 310528, Note_on_c, 0, 77, 0
1, 310528, Note_on_c, 0, 76, 44
1, 310784, Note_on_c, 0, 76, 0
1, 310784, Note_on_c, 0, 74, 42
1, 310784, Note_on_c, 0, 60, 38
1, 310938, Note_on_c, 0, 60, 0
1, 311040, Note_on_c, 0, 74, 0
1, 311040, Note_on_c, 0, 72, 42
1, 311296, Note_on_c, 0, 72, 0
1, 311296, Note_on_c, 0, 68, 49
1, 311296, Note_on_c, 0, 71, 49
1, 311296, Note_on_c, 0, 52, 45
1, 312320, Note_on_c, 0, 68, 0
1, 312320, Note_on_c, 0, 71, 0
1, 312320, Note_on_c, 0, 71, 47
1, 312320, Note_on_c, 0, 52, 0
1, 312576, Note_on_c, 0, 71, 0
1, 312576, Note_on_c, 0, 69, 45
1, 312832, Note_on_c, 0, 69, 0
1, 312832, Note_on_c, 0, 68, 43
1, 313088, Note_on_c, 0, 68, 0
1, 313088, Note_on_c, 0, 69, 45
1, 313344, Note_on_c, 0, 69, 0
1, 313344, Note_on_c, 0, 72, 47
1, 313344, Note_on_c, 0, 57, 40
1, 313498, Note_on_c, 0, 72, 0
1, 313856, Note_on_c, 0, 57, 0
1, 313856, Note_on_c, 0, 60, 40
1, 313856, Note_on_c, 0, 64, 40
1, 313933, Note_on_c, 0, 60, 0
1, 314010, Note_on_c, 0, 64, 0
1, 314368, Note_on_c, 0, 74, 47
1, 314368, Note_on_c, 0, 60, 40
1, 314368, Note_on_c, 0, 64, 40
1, 314445, Note_on_c, 0, 60, 0
1, 314522, Note_on_c, 0, 64, 0
1, 314624, Note_on_c, 0, 74, 0
1, 314624, Note_on_c, 0, 72, 45
1, 314880, Note_on_c, 0, 72, 0
1, 314880, Note_on_c, 0, 71, 43
1, 314880, Note_on_c, 0, 60, 40
1, 314880, Note_on_c, 0, 64, 40
1, 314957, Note_on_c, 0, 60, 0
1, 315034, Note_on_c, 0, 64, 0
1, 315136, Note_on_c, 0, 71, 0
1, 315136, Note_on_c, 0, 72, 46
1, 315392, Note_on_c, 0, 72, 0
1, 315392, Note_on_c, 0, 76, 48
1, 315392, Note_on_c, 0, 57, 40
1, 315546, Note_on_c, 0, 76, 0
1, 315904, Note_on_c, 0, 57, 0
1, 315904, Note_on_c, 0, 60, 40
1, 315904, Note_on_c, 0, 64, 40
1, 315981, Note_on_c, 0, 60, 0
1, 316058, Note_on_c, 0, 64, 0
1, 316416, Note_on_c, 0, 77, 49
1, 316416, Note_on_c, 0, 60, 40
1, 316416, Note_on_c, 0, 64, 40
1, 316493, Note_on_c, 0, 60, 0
1, 316570, Note_on_c, 0, 64, 0
1, 316672, Note_on_c, 0, 77, 0
1, 316672, Note_on_c, 0, 76, 47
1, 316928, Note_on_c, 0, 76, 0
1, 316928, Note_on_c, 0, 75, 45
1, 316928, Note_on_c, 0, 60, 40
1, 316928, Note_on_c, 0, 64, 40
1, 317005, Note_on_c, 0, 60, 0
1, 317082, Note_on_c, 0, 64, 0
1, 317184, Note_on_c, 0, 75, 0
1, 317184, Note_on_c, 0, 76, 47
1, 317440, Note_on_c, 0, 76, 0
1, 317440, Note_on_c, 0, 83, 48
1, 317440, Note_on_c, 0, 57, 40
1, 317696, Note_on_c, 0, 83, 0
1, 317696, Note_on_c, 0, 81, 50
1, 317952, Note_on_c, 0, 81, 0
1, 317952, Note_on_c, 0, 80, 51
1, 317952, Note_on_c, 0, 57, 0
1, 317952, Note_on_c, 0, 60, 45
1, 317952, Note_on_c, 0, 64, 45
1, 318029, Note_on_c, 0, 60, 0
1, 318106, Note_on_c, 0, 64, 0
1, 318208, Note_on_c, 0, 80, 0
1, 318208, Note_on_c, 0, 81, 53
1, 318464, Note_on_c, 0, 81, 0
1, 318464, Note_on_c, 0, 83, 54
1, 318464, Note_on_c, 0, 57, 49
1, 318618, Note_on_c, 0, 57, 0
1, 318720, Note_on_c, 0, 83, 0
1, 318720, Note_on_c, 0, 81, 55
1, 318976, Note_on_c, 0, 81, 0
1, 318976, Note_on_c, 0, 80, 57
1, 318976, Note_on_c, 0, 64, 54
1, 319130, Note_on_c, 0, 64, 0
1, 319232, Note_on_c, 0, 80, 0
1, 319232, Note_on_c, 0, 81, 58
1, 319488, Note_on_c, 0, 81, 0
1, 319488, Note_on_c, 0, 84, 91
1, 319488, Note_on_c, 0, 53, 86
1, 320000, Note_on_c, 0, 53, 0
1, 320000, Note_on_c, 0, 57, 40
1, 320000, Note_on_c, 0, 63, 38
1, 320077, Note_on_c, 0, 57, 0
1, 320154, Note_on_c, 0, 63, 0
1, 320512, Note_on_c, 0, 84, 0
1, 320512, Note_on_c, 0, 81, 43
1, 320512, Note_on_c, 0, 57, 39
1, 320512, Note_on_c, 0, 63, 37
1, 320589, Note_on_c, 0, 57, 0
1, 320666, Note_on_c, 0, 81, 0
1, 320666, Note_on_c, 0, 63, 0
1, 321024, Note_on_c, 0, 83, 48
1, 321024, Note_on_c, 0, 57, 37
1, 321024, Note_on_c, 0, 63, 39
1, 321101, Note_on_c, 0, 57, 0
1, 321178, Note_on_c, 0, 83, 0
1, 321178, Note_on_c, 0, 63, 0
1, 321536, Note_on_c, 0, 84, 63
1, 321536, Note_on_c, 0, 52, 49
1, 321690, Note_on_c, 0, 84, 0
1, 321690, Note_on_c, 0, 52, 0
1, 322048, Note_on_c, 0, 83, 47
1, 322048, Note_on_c, 0, 57, 42
1, 322048, Note_on_c, 0, 64, 40
1, 322125, Note_on_c, 0, 57, 0
1, 322202, Note_on_c, 0, 83, 0
1, 322202, Note_on_c, 0, 64, 0
1, 322560, Note_on_c, 0, 81, 56
1, 322560, Note_on_c, 0, 50, 50
1, 322714, Note_on_c, 0, 81, 0
1, 322714, Note_on_c, 0, 50, 0
1, 323072, Note_on_c, 0, 80, 43
1, 323072, Note_on_c, 0, 53, 40
1, 323072, Note_on_c, 0, 59, 38
1, 323149, Note_on_c, 0, 53, 0
1, 323226, Note_on_c, 0, 80, 0
1, 323226, Note_on_c, 0, 59, 0
1, 323584, Note_on_c, 0, 81, 53
1, 323584, Note_on_c, 0, 48, 48
1, 323738, Note_on_c, 0, 81, 0
1, 323738, Note_on_c, 0, 48, 0
1, 324096, Note_on_c, 0, 76, 43
1, 324096, Note_on_c, 0, 52, 40
1, 324096, Note_on_c, 0, 57, 38
1, 324173, Note_on_c, 0, 52, 0
1, 324250, Note_on_c, 0, 76, 0
1, 324250, Note_on_c, 0, 57, 0
1, 324608, Note_on_c, 0, 77, 50
1, 324608, Note_on_c, 0, 50, 46
1, 324762, Note_on_c, 0, 77, 0
1, 324762, Note_on_c, 0, 50, 0
1, 325120, Note_on_c, 0, 74, 43
1, 325120, Note_on_c, 0, 53, 38
1, 325120, Note_on_c, 0, 59, 36
1, 325197, Note_on_c, 0, 53, 0
1, 325274, Note_on_c, 0, 74, 0
1, 325274, Note_on_c, 0, 59, 0
1, 325632, Note_on_c, 0, 72, 57
1, 325632, Note_on_c, 0, 52, 33
1, 325632, Note_on_c, 0, 57, 35
1, 325888, Note_on_c, 0, 52, 0
1, 325888, Note_on_c, 0, 57, 0
1, 326144, Note_on_c, 0, 72, 0
1, 326144, Note_on_c, 0, 52, 33
1, 326144, Note_on_c, 0, 57, 35
1, 326221, Note_on_c, 0, 52, 0
1, 326298, Note_on_c, 0, 57, 0
1, 326656, Note_on_c, 0, 71, 53
1, 326656, Note_on_c, 0, 52, 32
1, 326656, Note_on_c, 0, 56, 34
1, 326733, Note_on_c, 0, 52, 0
1, 326766, Note_on_c, 0, 71, 0
1, 326766, Note_on_c, 0, 72, 51
1, 326810, Note_on_c, 0, 56, 0
1, 326875, Note_on_c, 0, 72, 0
1, 326875, Note_on_c, 0, 71, 51
1, 326985, Note_on_c, 0, 71, 0
1, 326985, Note_on_c, 0, 72, 50
1, 327095, Note_on_c, 0, 72, 0
1, 327095, Note_on_c, 0, 71, 49
1, 327168, Note_on_c, 0, 52, 32
1, 327168, Note_on_c, 0, 56, 34
1, 327205, Note_on_c, 0, 71, 0
1, 327205, Note_on_c, 0, 72, 47
1, 327245, Note_on_c, 0, 52, 0
1, 327314, Note_on_c, 0, 72, 0
1, 327314, Note_on_c, 0, 71, 46
1, 327322, Note_on_c, 0, 56, 0
1, 327424, Note_on_c, 0, 71, 0
1, 327424, Note_on_c, 0, 69, 47
1, 327552, Note_on_c, 0, 69, 0
1, 327552, Note_on_c, 0, 71, 53
1, 327680, Note_on_c, 0, 71, 0
1, 327680, Note_on_c, 0, 69, 65
1, 327680, Note_on_c, 0, 45, 40
1, 327680, Note_on_c, 0, 57, 43
1, 328192, Note_on_c, 0, 69, 0
1, 328192, Note_on_c, 0, 45, 0
1, 328192, Note_on_c, 0, 57, 0
1, 328704, Note_on_c, 0, 72, 64
1, 328704, Note_on_c, 0, 76, 66
1, 329216, Note_on_c, 0, 72, 0
1, 329216, Note_on_c, 0, 76, 0
1, 329216, Note_on_c, 0, 74, 65
1, 329216, Note_on_c, 0, 77, 68
1, 329728, Note_on_c, 0, 74, 0
1, 329728, Note_on_c, 0, 77, 0
1, 329728, Note_on_c, 0, 76, 69
1, 329728, Note_on_c, 0, 79, 71
1, 329728, Note_on_c, 0, 48, 61
1, 329805, Note_on_c, 0, 76, 0
1, 329882, Note_on_c, 0, 79, 0
1, 329882, Note_on_c, 0, 48, 0
1, 330240, Note_on_c, 0, 76, 69
1, 330240, Note_on_c, 0, 79, 71
1, 330240, Note_on_c, 0, 60, 59
1, 330317, Note_on_c, 0, 76, 0
1, 330394, Note_on_c, 0, 79, 0
1, 330394, Note_on_c, 0, 60, 0
1, 330752, Note_on_c, 0, 81, 74
1, 330752, Note_on_c, 0, 52, 61
1, 330906, Note_on_c, 0, 52, 0
1, 331008, Note_on_c, 0, 81, 0
1, 331008, Note_on_c, 0, 79, 72
1, 331264, Note_on_c, 0, 79, 0
1, 331264, Note_on_c, 0, 77, 70
1, 331264, Note_on_c, 0, 64, 59
1, 331418, Note_on_c, 0, 64, 0
1, 331520, Note_on_c, 0, 77, 0
1, 331520, Note_on_c, 0, 76, 69
1, 331776, Note_on_c, 0, 76, 0
1, 331776, Note_on_c, 0, 74, 79
1, 331776, Note_on_c, 0, 71, 67
1, 331776, Note_on_c, 0, 55, 61
1, 332288, Note_on_c, 0, 71, 0
1, 332288, Note_on_c, 0, 67, 64
1, 332800, Note_on_c, 0, 74, 0
1, 332800, Note_on_c, 0, 72, 54
1, 332800, Note_on_c, 0, 76, 56
1, 332800, Note_on_c, 0, 67, 0
1, 332800, Note_on_c, 0, 55, 0
1, 332877, Note_on_c, 0, 72, 0
1, 332954, Note_on_c, 0, 76, 0
1, 333312, Note_on_c, 0, 74, 56
1, 333312, Note_on_c, 0, 77, 58
1, 333389, Note_on_c, 0, 74, 0
1, 333466, Note_on_c, 0, 77, 0
1, 333824, Note_on_c, 0, 76, 58
1, 333824, Note_on_c, 0, 79, 58
1, 333824, Note_on_c, 0, 48, 54
1, 333901, Note_on_c, 0, 76, 0
1, 333978, Note_on_c, 0, 79, 0
1, 333978, Note_on_c, 0, 48, 0
1, 334336, Note_on_c, 0, 76, 58
1, 334336, Note_on_c, 0, 79, 58
1, 334336, Note_on_c, 0, 60, 52
1, 334413, Note_on_c, 0, 76, 0
1, 334490, Note_on_c, 0, 79, 0
1, 334490, Note_on_c, 0, 60, 0
1, 334848, Note_on_c, 0, 81, 60
1, 334848, Note_on_c, 0, 52, 54
1, 335002, Note_on_c, 0, 52, 0
1, 335104, Note_on_c, 0, 81, 0
1, 335104, Note_on_c, 0, 79, 57
1, 335360, Note_on_c, 0, 79, 0
1, 335360, Note_on_c, 0, 77, 57
1, 335360, Note_on_c, 0, 64, 49
1, 335514, Note_on_c, 0, 64, 0
1, 335616, Note_on_c, 0, 77, 0
1, 335616, Note_on_c, 0, 76, 57
1, 335872, Note_on_c, 0, 76, 0
1, 335872, Note_on_c, 0, 71, 58
1, 335872, Note_on_c, 0, 74, 60
1, 335872, Note_on_c, 0, 55, 50
1, 336896, Note_on_c, 0, 71, 0
1, 336896, Note_on_c, 0, 74, 0
1, 336896, Note_on_c, 0, 69, 47
1, 336896, Note_on_c, 0, 72, 45
1, 336896, Note_on_c, 0, 55, 0
1, 336973, Note_on_c, 0, 69, 0
1, 337050, Note_on_c, 0, 72, 0
1, 337408, Note_on_c, 0, 71, 49
1, 337408, Note_on_c, 0, 74, 47
1, 337485, Note_on_c, 0, 71, 0
1, 337562, Note_on_c, 0, 74, 0
1, 337920, Note_on_c, 0, 72, 51
1, 337920, Note_on_c, 0, 76, 49
1, 337920, Note_on_c, 0, 45, 45
1, 337997, Note_on_c, 0, 72, 0
1, 338074, Note_on_c, 0, 76, 0
1, 338074, Note_on_c, 0, 45, 0
1, 338432, Note_on_c, 0, 72, 51
1, 338432, Note_on_c, 0, 76, 49
1, 338432, Note_on_c, 0, 57, 42
1, 338509, Note_on_c, 0, 72, 0
1, 338586, Note_on_c, 0, 76, 0
1, 338586, Note_on_c, 0, 57, 0
1, 338944, Note_on_c, 0, 77, 51
1, 338944, Note_on_c, 0, 48, 45
1, 339098, Note_on_c, 0, 48, 0
1, 339200, Note_on_c, 0, 77, 0
1, 339200, Note_on_c, 0, 76, 50
1, 339456, Note_on_c, 0, 76, 0
1, 339456, Note_on_c, 0, 74, 48
1, 339456, Note_on_c, 0, 60, 42
1, 339610, Note_on_c, 0, 60, 0
1, 339712, Note_on_c, 0, 74, 0
1, 339712, Note_on_c, 0, 72, 48
1, 339968, Note_on_c, 0, 72, 0
1, 339968, Note_on_c, 0, 71, 59
1, 339968, Note_on_c, 0, 68, 47
1, 339968, Note_on_c, 0, 52, 47
1, 340480, Note_on_c, 0, 68, 0
1, 340480, Note_on_c, 0, 64, 49
1, 340992, Note_on_c, 0, 71, 0
1, 340992, Note_on_c, 0, 69, 37
1, 340992, Note_on_c, 0, 72, 39
1, 340992, Note_on_c, 0, 64, 0
1, 340992, Note_on_c, 0, 52, 0
1, 341069, Note_on_c, 0, 69, 0
1, 341146, Note_on_c, 0, 72, 0
1, 341504, Note_on_c, 0, 71, 40
1, 341504, Note_on_c, 0, 74, 42
1, 341581, Note_on_c, 0, 71, 0
1, 341658, Note_on_c, 0, 74, 0
1, 342016, Note_on_c, 0, 72, 43
1, 342016, Note_on_c, 0, 76, 45
1, 342016, Note_on_c, 0, 45, 40
1, 342093, Note_on_c, 0, 72, 0
1, 342170, Note_on_c, 0, 76, 0
1, 342170, Note_on_c, 0, 45, 0
1, 342528, Note_on_c, 0, 72, 43
1, 342528, Note_on_c, 0, 76, 45
1, 342528, Note_on_c, 0, 57, 38
1, 342605, Note_on_c, 0, 72, 0
1, 342682, Note_on_c, 0, 76, 0
1, 342682, Note_on_c, 0, 57, 0
1, 343040, Note_on_c, 0, 77, 45
1, 343040, Note_on_c, 0, 48, 40
1, 343194, Note_on_c, 0, 48, 0
1, 343296, Note_on_c, 0, 77, 0
1, 343296, Note_on_c, 0, 76, 44
1, 343552, Note_on_c, 0, 76, 0
1, 343552, Note_on_c, 0, 74, 42
1, 343552, Note_on_c, 0, 60, 38
1, 343706, Note_on_c, 0, 60, 0
1, 343808, Note_on_c, 0, 74, 0
1, 343808, Note_on_c, 0, 72, 42
1, 344064, Note_on_c, 0, 72, 0
1, 344064, Note_on_c, 0, 68, 49
1, 344064, Note_on_c, 0, 71, 49
1, 344064, Note_on_c, 0, 52, 45
1, 345088, Note_on_c, 0, 68, 0
1, 345088, Note_on_c, 0, 71, 0
1, 345088, Note_on_c, 0, 71, 47
1, 345088, Note_on_c, 0, 52, 0
1, 345344, Note_on_c, 0, 71, 0
1, 345344, Note_on_c, 0, 69, 45
1, 345600, Note_on_c, 0, 69, 0
1, 345600, Note_on_c, 0, 68, 43
1, 345856, Note_on_c, 0, 68, 0
1, 345856, Note_on_c, 0, 69, 45
1, 346112, Note_on_c, 0, 69, 0
1, 346112, Note_on_c, 0, 72, 47
1, 346112, Note_on_c, 0, 57, 40
1, 346266, Note_on_c, 0, 72, 0
1, 346624, Note_on_c, 0, 57, 0
1, 346624, Note_on_c, 0, 60, 40
1, 346624, Note_on_c, 0, 64, 40
1, 346701, Note_on_c, 0, 60, 0
1, 346778, Note_on_c, 0, 64, 0
1, 347136, Note_on_c, 0, 74, 47
1, 347136, Note_on_c, 0, 60, 40
1, 347136, Note_on_c, 0, 64, 40
1, 347213, Note_on_c, 0, 60, 0
1, 347290, Note_on_c, 0, 64, 0
1, 347392, Note_on_c, 0, 74, 0
1, 347392, Note_on_c, 0, 72, 45
1, 347648, Note_on_c, 0, 72, 0
1, 347648, Note_on_c, 0, 71, 43
1, 347648, Note_on_c, 0, 60, 40
1, 347648, Note_on_c, 0, 64, 40
1, 347725, Note_on_c, 0, 60, 0
1, 347802, Note_on_c, 0, 64, 0
1, 347904, Note_on_c, 0, 71, 0
1, 347904, Note_on_c, 0, 72, 46
1, 348160, Note_on_c, 0, 72, 0
1, 348160, Note_on_c, 0, 76, 48
1, 348160, Note_on_c, 0, 57, 40
1, 348314, Note_on_c, 0, 76, 0
1, 348672, Note_on_c, 0, 57, 0
1, 348672, Note_on_c, 0, 60, 40
1, 348672, Note_on_c, 0, 64, 40
1, 348749, Note_on_c, 0, 60, 0
1, 348826, Note_on_c, 0, 64, 0
1, 349184, Note_on_c, 0, 77, 49
1, 349184, Note_on_c, 0, 60, 40
1, 349184, Note_on_c, 0, 64, 40
1, 349261, Note_on_c, 0, 60, 0
1, 349338, Note_on_c, 0, 64, 0
1, 349440, Note_on_c, 0, 77, 0
1, 349440, Note_on_c, 0, 76, 47
1, 349696, Note_on_c, 0, 76, 0
1, 349696, Note_on_c, 0, 75, 45
1, 349696, Note_on_c, 0, 60, 40
1, 349696, Note_on_c, 0, 64, 40
1, 349773, Note_on_c, 0, 60, 0
1, 349850, Note_on_c, 0, 64, 0
1, 349952, Note_on_c, 0, 75, 0
1, 349952, Note_on_c, 0, 76, 47
1, 350208, Note_on_c, 0, 76, 0
1, 350208, Note_on_c, 0, 83, 48
1, 350208, Note_on_c, 0, 57, 40
1, 350464, Note_on_c, 0, 83, 0
1, 350464, Note_on_c, 0, 81, 50
1, 350720, Note_on_c, 0, 81, 0
1, 350720, Note_on_c, 0, 80, 51
1, 350720, Note_on_c, 0, 57, 0
1, 350720, Note_on_c, 0, 60, 45
1, 350720, Note_on_c, 0, 64, 45
1, 350797, Note_on_c, 0, 60, 0
1, 350874, Note_on_c, 0, 64, 0
1, 350976, Note_on_c, 0, 80, 0
1, 350976, Note_on_c, 0, 81, 53
1, 351232, Note_on_c, 0, 81, 0
1, 351232, Note_on_c, 0, 83, 54
1, 351232, Note_on_c, 0, 57, 49
1, 351386, Note_on_c, 0, 57, 0
1, 351488, Note_on_c, 0, 83, 0
1, 351488, Note_on_c, 0, 81, 55
1, 351744, Note_on_c, 0, 81, 0
1, 351744, Note_on_c, 0, 80, 57
1, 351744, Note_on_c, 0, 64, 54
1, 351898, Note_on_c, 0, 64, 0
1, 352000, Note_on_c, 0, 80, 0
1, 352000, Note_on_c, 0, 81, 58
1, 352256, Note_on_c, 0, 81, 0
1, 352256, Note_on_c, 0, 84, 91
1, 352256, Note_on_c, 0, 53, 86
1, 352768, Note_on_c, 0, 53, 0
1, 352768, Note_on_c, 0, 57, 40
1, 352768, Note_on_c, 0, 63, 38
1, 352845, Note_on_c, 0, 57, 0
1, 352922, Note_on_c, 0, 63, 0
1, 353280, Note_on_c, 0, 84, 0
1, 353280, Note_on_c, 0, 81, 43
1, 353280, Note_on_c, 0, 57, 39
1, 353280, Note_on_c, 0, 63, 37
1, 353357, Note_on_c, 0, 57, 0
1, 353434, Note_on_c, 0, 81, 0
1, 353434, Note_on_c, 0, 63, 0
1, 353792, Note_on_c, 0, 83, 48
1, 353792, Note_on_c, 0, 57, 37
1, 353792, Note_on_c, 0, 63, 39
1, 353869, Note_on_c, 0, 57, 0
1, 353946, Note_on_c, 0, 83, 0
1, 353946, Note_on_c, 0, 63, 0
1, 354304, Note_on_c, 0, 84, 63
1, 354304, Note_on_c, 0, 52, 49
1, 354458, Note_on_c, 0, 84, 0
1, 354458, Note_on_c, 0, 52, 0
1, 354816, Note_on_c, 0, 83, 47
1, 354816, Note_on_c, 0, 57, 42
1, 354816, Note_on_c, 0, 64, 40
1, 354893, Note_on_c, 0, 57, 0
1, 354970, Note_on_c, 0, 83, 0
1, 354970, Note_on_c, 0, 64, 0
1, 355328, Note_on_c, 0, 81, 56
1, 355328, Note_on_c, 0, 50, 50
1, 355482, Note_on_c, 0, 81, 0
1, 355482, Note_on_c, 0, 50, 0
1, 355840, Note_on_c, 0, 80, 43
1, 355840, Note_on_c, 0, 53, 40
1, 355840, Note_on_c, 0, 59, 38
1, 355917, Note_on_c, 0, 53, 0
1, 355994, Note_on_c, 0, 80, 0
1, 355994, Note_on_c, 0, 59, 0
1, 356352, Note_on_c, 0, 81, 53
1, 356352, Note_on_c, 0, 48, 48
1, 356506, Note_on_c, 0, 81, 0
1, 356506, Note_on_c, 0, 48, 0
1, 356864, Note_on_c, 0, 76, 43
1, 356864, Note_on_c, 0, 52, 40
1, 356864, Note_on_c, 0, 57, 38
1, 356941, Note_on_c, 0, 52, 0
1, 357018, Note_on_c, 0, 76, 0
1, 357018, Note_on_c, 0, 57, 0
1, 357376, Note_on_c, 0, 77, 50
1, 357376, Note_on_c, 0, 50, 46
1, 357530, Note_on_c, 0, 77, 0
1, 357530, Note_on_c, 0, 50, 0
1, 357888, Note_on_c, 0, 74, 43
1, 357888, Note_on_c, 0, 53, 38
1, 357888, Note_on_c, 0, 59, 36
1, 357965, Note_on_c, 0, 53, 0
1, 358042, Note_on_c, 0, 74, 0
1, 358042, Note_on_c, 0, 59, 0
1, 358400, Note_on_c, 0, 72, 57
1, 358400, Note_on_c, 0, 52, 33
1, 358400, Note_on_c, 0, 57, 35
1, 358656, Note_on_c, 0, 52, 0
1, 358656, Note_on_c, 0, 57, 0
1, 358912, Note_on_c, 0, 72, 0
1, 358912, Note_on_c, 0, 52, 33
1, 358912, Note_on_c, 0, 57, 35
1, 358989, Note_on_c, 0, 52, 0
1, 359066, Note_on_c, 0, 57, 0
1, 359424, Note_on_c, 0, 71, 53
1, 359424, Note_on_c, 0, 52, 32
1, 359424, Note_on_c, 0, 56, 34
1, 359501, Note_on_c, 0, 52, 0
1, 359534, Note_on_c, 0, 71, 0
1, 359534, Note_on_c, 0, 72, 51
1, 359578, Note_on_c, 0, 56, 0
1, 359643, Note_on_c, 0, 72, 0
1, 359643, Note_on_c, 0, 71, 51
1, 359753, Note_on_c, 0, 71, 0
1, 359753, Note_on_c, 0, 72, 50
1, 359863, Note_on_c, 0, 72, 0
1, 359863, Note_on_c, 0, 71, 49
1, 359936, Note_on_c, 0, 52, 32
1, 359936, Note_on_c, 0, 56, 34
1, 359973, Note_on_c, 0, 71, 0
1, 359973, Note_on_c, 0, 72, 47
1, 360013, Note_on_c, 0, 52, 0
1, 360082, Note_on_c, 0, 72, 0
1, 360082, Note_on_c, 0, 71, 46
1, 360090, Note_on_c, 0, 56, 0
1, 360192, Note_on_c, 0, 71, 0
1, 360192, Note_on_c, 0, 69, 47
1, 360320, Note_on_c, 0, 69, 0
1, 360320, Note_on_c, 0, 71, 53
1, 360448, Note_on_c, 0, 71, 0
1, 360448, Note_on_c, 0, 69, 65
1, 360448, Note_on_c, 0, 45, 40
1, 360448, Note_on_c, 0, 57, 43
1, 360960, Note_on_c, 0, 69, 0
1, 360960, Note_on_c, 0, 45, 0
1, 360960, Note_on_c, 0, 57, 0
1, 361472, Note_on_c, 0, 69, 87
1, 361728, Note_on_c, 0, 69, 0
1, 361728, Note_on_c, 0, 81, 88
1, 361984, Note_on_c, 0, 81, 0
1, 361984, Note_on_c, 0, 71, 88
1, 362240, Note_on_c, 0, 71, 0
1, 362240, Note_on_c, 0, 83, 89
1, 362256, Note_on_c, 0, 45, 78
1, 362336, Note_on_c, 0, 49, 75
1, 362416, Note_on_c, 0, 52, 78
1, 362495, Note_on_c, 0, 45, 0
1, 362495, Note_on_c, 0, 49, 0
1, 362496, Note_on_c, 0, 83, 0
1, 362496, Note_on_c, 0, 73, 107
1, 362496, Note_on_c, 0, 52, 0
1, 362496, Note_on_c, 0, 57, 97
1, 362650, Note_on_c, 0, 57, 0
1, 362752, Note_on_c, 0, 73, 0
1, 362752, Note_on_c, 0, 85, 90
1, 363008, Note_on_c, 0, 85, 0
1, 363008, Note_on_c, 0, 57, 79
1, 363162, Note_on_c, 0, 57, 0
1, 363520, Note_on_c, 0, 69, 87
1, 363520, Note_on_c, 0, 57, 81
1, 363674, Note_on_c, 0, 57, 0
1, 363776, Note_on_c, 0, 69, 0
1, 363776, Note_on_c, 0, 81, 88
1, 364032, Note_on_c, 0, 81, 0
1, 364032, Note_on_c, 0, 71, 89
1, 364032, Note_on_c, 0, 57, 82
1, 364186, Note_on_c, 0, 57, 0
1, 364288, Note_on_c, 0, 71, 0
1, 364288, Note_on_c, 0, 83, 90
1, 364304, Note_on_c, 0, 45, 78
1, 364384, Note_on_c, 0, 49, 75
1, 364464, Note_on_c, 0, 52, 78
1, 364543, Note_on_c, 0, 45, 0
1, 364543, Note_on_c, 0, 49, 0
1, 364544, Note_on_c, 0, 83, 0
1, 364544, Note_on_c, 0, 73, 109
1, 364544, Note_on_c, 0, 52, 0
1, 364544, Note_on_c, 0, 57, 97
1, 364698, Note_on_c, 0, 57, 0
1, 364800, Note_on_c, 0, 73, 0
1, 364800, Note_on_c, 0, 85, 91
1, 365056, Note_on_c, 0, 85, 0
1, 365056, Note_on_c, 0, 71, 91
1, 365056, Note_on_c, 0, 57, 77
1, 365210, Note_on_c, 0, 57, 0
1, 365312, Note_on_c, 0, 71, 0
1, 365312, Note_on_c, 0, 83, 91
1, 365568, Note_on_c, 0, 83, 0
1, 365568, Note_on_c, 0, 69, 89
1, 365568, Note_on_c, 0, 57, 79
1, 365722, Note_on_c, 0, 57, 0
1, 365824, Note_on_c, 0, 69, 0
1, 365824, Note_on_c, 0, 81, 89
1, 366080, Note_on_c, 0, 81, 0
1, 366080, Note_on_c, 0, 68, 87
1, 366080, Note_on_c, 0, 57, 81
1, 366234, Note_on_c, 0, 57, 0
1, 366336, Note_on_c, 0, 68, 0
1, 366336, Note_on_c, 0, 80, 87
1, 366352, Note_on_c, 0, 38, 74
1, 366432, Note_on_c, 0, 42, 72
1, 366512, Note_on_c, 0, 45, 75
1, 366591, Note_on_c, 0, 38, 0
1, 366591, Note_on_c, 0, 42, 0
1, 366592, Note_on_c, 0, 80, 0
1, 366592, Note_on_c, 0, 66, 105
1, 366592, Note_on_c, 0, 45, 0
1, 366592, Note_on_c, 0, 50, 95
1, 366746, Note_on_c, 0, 50, 0
1, 366848, Note_on_c, 0, 66, 0
1, 366848, Note_on_c, 0, 78, 87
1, 367104, Note_on_c, 0, 78, 0
1, 367104, Note_on_c, 0, 68, 88
1, 367104, Note_on_c, 0, 50, 78
1, 367258, Note_on_c, 0, 50, 0
1, 367360, Note_on_c, 0, 68, 0
1, 367360, Note_on_c, 0, 80, 89
1, 367376, Note_on_c, 0, 39, 74
1, 367456, Note_on_c, 0, 42, 72
1, 367536, Note_on_c, 0, 45, 75
1, 367615, Note_on_c, 0, 39, 0
1, 367615, Note_on_c, 0, 42, 0
1, 367616, Note_on_c, 0, 80, 0
1, 367616, Note_on_c, 0, 69, 107
1, 367616, Note_on_c, 0, 45, 0
1, 367616, Note_on_c, 0, 51, 95
1, 367770, Note_on_c, 0, 51, 0
1, 367872, Note_on_c, 0, 69, 0
1, 367872, Note_on_c, 0, 81, 90
1, 368128, Note_on_c, 0, 81, 0
1, 368128, Note_on_c, 0, 71, 91
1, 368128, Note_on_c, 0, 51, 78
1, 368282, Note_on_c, 0, 51, 0
1, 368384, Note_on_c, 0, 71, 0
1, 368384, Note_on_c, 0, 83, 91
1, 368400, Note_on_c, 0, 40, 78
1, 368480, Note_on_c, 0, 44, 75
1, 368560, Note_on_c, 0, 47, 78
1, 368639, Note_on_c, 0, 40, 0
1, 368639, Note_on_c, 0, 44, 0
1, 368640, Note_on_c, 0, 83, 0
1, 368640, Note_on_c, 0, 68, 106
1, 368640, Note_on_c, 0, 47, 0
1, 368640, Note_on_c, 0, 52, 78
1, 368794, Note_on_c, 0, 52, 0
1, 368896, Note_on_c, 0, 68, 0
1, 368896, Note_on_c, 0, 80, 89
1, 369152, Note_on_c, 0, 80, 0
1, 369152, Note_on_c, 0, 64, 89
1, 369152, Note_on_c, 0, 52, 80
1, 369306, Note_on_c, 0, 52, 0
1, 369408, Note_on_c, 0, 64, 0
1, 369408, Note_on_c, 0, 76, 89
1, 369664, Note_on_c, 0, 76, 0
1, 369664, Note_on_c, 0, 69, 89
1, 369664, Note_on_c, 0, 52, 81
1, 369818, Note_on_c, 0, 52, 0
1, 369920, Note_on_c, 0, 69, 0
1, 369920, Note_on_c, 0, 81, 90
1, 370176, Note_on_c, 0, 81, 0
1, 370176, Note_on_c, 0, 71, 90
1, 370176, Note_on_c, 0, 52, 82
1, 370330, Note_on_c, 0, 52, 0
1, 370432, Note_on_c, 0, 71, 0
1, 370432, Note_on_c, 0, 83, 91
1, 370448, Note_on_c, 0, 45, 78
1, 370528, Note_on_c, 0, 49, 75
1, 370608, Note_on_c, 0, 52, 78
1, 370687, Note_on_c, 0, 45, 0
1, 370687, Note_on_c, 0, 49, 0
1, 370688, Note_on_c, 0, 83, 0
1, 370688, Note_on_c, 0, 73, 109
1, 370688, Note_on_c, 0, 52, 0
1, 370688, Note_on_c, 0, 57, 98
1, 370842, Note_on_c, 0, 57, 0
1, 370944, Note_on_c, 0, 73, 0
1, 370944, Note_on_c, 0, 85, 91
1, 371200, Note_on_c, 0, 85, 0
1, 371200, Note_on_c, 0, 57, 84
1, 371354, Note_on_c, 0, 57, 0
1, 371712, Note_on_c, 0, 69, 87
1, 371712, Note_on_c, 0, 57, 85
1, 371866, Note_on_c, 0, 57, 0
1, 371968, Note_on_c, 0, 69, 0
1, 371968, Note_on_c, 0, 81, 87
1, 372224, Note_on_c, 0, 81, 0
1, 372224, Note_on_c, 0, 71, 88
1, 372224, Note_on_c, 0, 57, 86
1, 372378, Note_on_c, 0, 57, 0
1, 372480, Note_on_c, 0, 71, 0
1, 372480, Note_on_c, 0, 83, 89
1, 372496, Note_on_c, 0, 45, 78
1, 372576, Note_on_c, 0, 49, 75
1, 372656, Note_on_c, 0, 52, 78
1, 372735, Note_on_c, 0, 45, 0
1, 372735, Note_on_c, 0, 49, 0
1, 372736, Note_on_c, 0, 83, 0
1, 372736, Note_on_c, 0, 73, 107
1, 372736, Note_on_c, 0, 52, 0
1, 372736, Note_on_c, 0, 57, 100
1, 372992, Note_on_c, 0, 73, 0
1, 372992, Note_on_c, 0, 85, 90
1, 373248, Note_on_c, 0, 85, 0
1, 373248, Note_on_c, 0, 71, 91
1, 373248, Note_on_c, 0, 57, 0
1, 373248, Note_on_c, 0, 57, 80
1, 373402, Note_on_c, 0, 57, 0
1, 373504, Note_on_c, 0, 71, 0
1, 373504, Note_on_c, 0, 83, 90
1, 373760, Note_on_c, 0, 83, 0
1, 373760, Note_on_c, 0, 69, 89
1, 373760, Note_on_c, 0, 57, 81
1, 373914, Note_on_c, 0, 57, 0
1, 374016, Note_on_c, 0, 69, 0
1, 374016, Note_on_c, 0, 81, 88
1, 374272, Note_on_c, 0, 81, 0
1, 374272, Note_on_c, 0, 68, 87
1, 374272, Note_on_c, 0, 57, 82
1, 374426, Note_on_c, 0, 57, 0
1, 374528, Note_on_c, 0, 68, 0
1, 374528, Note_on_c, 0, 80, 87
1, 374544, Note_on_c, 0, 38, 74
1, 374624, Note_on_c, 0, 42, 72
1, 374704, Note_on_c, 0, 45, 75
1, 374783, Note_on_c, 0, 38, 0
1, 374783, Note_on_c, 0, 42, 0
1, 374784, Note_on_c, 0, 80, 0
1, 374784, Note_on_c, 0, 66, 106
1, 374784, Note_on_c, 0, 45, 0
1, 374784, Note_on_c, 0, 50, 95
1, 374938, Note_on_c, 0, 50, 0
1, 375040, Note_on_c, 0, 66, 0
1, 375040, Note_on_c, 0, 78, 89
1, 375296, Note_on_c, 0, 78, 0
1, 375296, Note_on_c, 0, 71, 89
1, 375296, Note_on_c, 0, 50, 75
1, 375450, Note_on_c, 0, 50, 0
1, 375552, Note_on_c, 0, 71, 0
1, 375552, Note_on_c, 0, 83, 89
1, 375568, Note_on_c, 0, 40, 74
1, 375648, Note_on_c, 0, 44, 72
1, 375728, Note_on_c, 0, 47, 75
1, 375807, Note_on_c, 0, 40, 0
1, 375807, Note_on_c, 0, 44, 0
1, 375808, Note_on_c, 0, 83, 0
1, 375808, Note_on_c, 0, 68, 108
1, 375808, Note_on_c, 0, 47, 0
1, 375808, Note_on_c, 0, 52, 95
1, 375962, Note_on_c, 0, 52, 0
1, 376064, Note_on_c, 0, 68, 0
1, 376064, Note_on_c, 0, 80, 91
1, 376320, Note_on_c, 0, 80, 0
1, 376320, Note_on_c, 0, 64, 91
1, 376320, Note_on_c, 0, 52, 75
1, 376474, Note_on_c, 0, 52, 0
1, 376576, Note_on_c, 0, 64, 0
1, 376576, Note_on_c, 0, 76, 91
1, 376832, Note_on_c, 0, 76, 0
1, 376832, Note_on_c, 0, 69, 94
1, 376832, Note_on_c, 0, 81, 97
1, 376832, Note_on_c, 0, 45, 82
1, 377856, Note_on_c, 0, 69, 0
1, 377856, Note_on_c, 0, 81, 0
1, 377856, Note_on_c, 0, 69, 87
1, 377856, Note_on_c, 0, 45, 0
1, 378112, Note_on_c, 0, 69, 0
1, 378112, Note_on_c, 0, 81, 88
1, 378368, Note_on_c, 0, 81, 0
1, 378368, Note_on_c, 0, 71, 89
1, 378624, Note_on_c, 0, 71, 0
1, 378624, Note_on_c, 0, 83, 90
1, 378640, Note_on_c, 0, 45, 78
1, 378720, Note_on_c, 0, 49, 75
1, 378800, Note_on_c, 0, 52, 78
1, 378879, Note_on_c, 0, 45, 0
1, 378879, Note_on_c, 0, 49, 0
1, 378880, Note_on_c, 0, 83, 0
1, 378880, Note_on_c, 0, 73, 107
1, 378880, Note_on_c, 0, 52, 0
1, 378880, Note_on_c, 0, 57, 97
1, 379034, Note_on_c, 0, 57, 0
1, 379136, Note_on_c, 0, 73, 0
1, 379136, Note_on_c, 0, 85, 90
1, 379392, Note_on_c, 0, 85, 0
1, 379392, Note_on_c, 0, 57, 79
1, 379546, Note_on_c, 0, 57, 0
1, 379904, Note_on_c, 0, 69, 87
1, 379904, Note_on_c, 0, 57, 81
1, 380058, Note_on_c, 0, 57, 0
1, 380160, Note_on_c, 0, 69, 0
1, 380160, Note_on_c, 0, 81, 88
1, 380416, Note_on_c, 0, 81, 0
1, 380416, Note_on_c, 0, 71, 89
1, 380416, Note_on_c, 0, 57, 82
1, 380570, Note_on_c, 0, 57, 0
1, 380672, Note_on_c, 0, 71, 0
1, 380672, Note_on_c, 0, 83, 90
1, 380688, Note_on_c, 0, 45, 78
1, 380768, Note_on_c, 0, 49, 75
1, 380848, Note_on_c, 0, 52, 78
1, 380927, Note_on_c, 0, 45, 0
1, 380927, Note_on_c, 0, 49, 0
1, 380928, Note_on_c, 0, 83, 0
1, 380928, Note_on_c, 0, 73, 109
1, 380928, Note_on_c, 0, 52, 0
1, 380928, Note_on_c, 0, 57, 97
1, 381082, Note_on_c, 0, 57, 0
1, 381184, Note_on_c, 0, 73, 0
1, 381184, Note_on_c, 0, 85, 91
1, 381440, Note_on_c, 0, 85, 0
1, 381440, Note_on_c, 0, 71, 91
1, 381440, Note_on_c, 0, 57, 77
1, 381594, Note_on_c, 0, 57, 0
1, 381696, Note_on_c, 0, 71, 0
1, 381696, Note_on_c, 0, 83, 91
1, 381952, Note_on_c, 0, 83, 0
1, 381952, Note_on_c, 0, 69, 89
1, 381952, Note_on_c, 0, 57, 79
1, 382106, Note_on_c, 0, 57, 0
1, 382208, Note_on_c, 0, 69, 0
1, 382208, Note_on_c, 0, 81, 89
1, 382464, Note_on_c, 0, 81, 0
1, 382464, Note_on_c, 0, 68, 87
1, 382464, Note_on_c, 0, 57, 81
1, 382618, Note_on_c, 0, 57, 0
1, 382720, Note_on_c, 0, 68, 0
1, 382720, Note_on_c, 0, 80, 87
1, 382736, Note_on_c, 0, 38, 74
1, 382816, Note_on_c, 0, 42, 72
1, 382896, Note_on_c, 0, 45, 75
1, 382975, Note_on_c, 0, 38, 0
1, 382975, Note_on_c, 0, 42, 0
1, 382976, Note_on_c, 0, 80, 0
1, 382976, Note_on_c, 0, 66, 105
1, 382976, Note_on_c, 0, 45, 0
1, 382976, Note_on_c, 0, 50, 95
1, 383130, Note_on_c, 0, 50, 0
1, 383232, Note_on_c, 0, 66, 0
1, 383232, Note_on_c, 0, 78, 87
1, 383488, Note_on_c, 0, 78, 0
1, 383488, Note_on_c, 0, 68, 88
1, 383488, Note_on_c, 0, 50, 78
1, 383642, Note_on_c, 0, 50, 0
1, 383744, Note_on_c, 0, 68, 0
1, 383744, Note_on_c, 0, 80, 89
1, 383760, Note_on_c, 0, 39, 74
1, 383840, Note_on_c, 0, 42, 72
1, 383920, Note_on_c, 0, 45, 75
1, 383999, Note_on_c, 0, 39, 0
1, 383999, Note_on_c, 0, 42, 0
1, 384000, Note_on_c, 0, 80, 0
1, 384000, Note_on_c, 0, 69, 107
1, 384000, Note_on_c, 0, 45, 0
1, 384000, Note_on_c, 0, 51, 95
1, 384154, Note_on_c, 0, 51, 0
1, 384256, Note_on_c, 0, 69, 0
1, 384256, Note_on_c, 0, 81, 90
1, 384512, Note_on_c, 0, 81, 0
1, 384512, Note_on_c, 0, 71, 91
1, 384512, Note_on_c, 0, 51, 78
1, 384666, Note_on_c, 0, 51, 0
1, 384768, Note_on_c, 0, 71, 0
1, 384768, Note_on_c, 0, 83, 91
1, 384784, Note_on_c, 0, 40, 78
1, 384864, Note_on_c, 0, 44, 75
1, 384944, Note_on_c, 0, 47, 78
1, 385023, Note_on_c, 0, 40, 0
1, 385023, Note_on_c, 0, 44, 0
1, 385024, Note_on_c, 0, 83, 0
1, 385024, Note_on_c, 0, 68, 106
1, 385024, Note_on_c, 0, 47, 0
1, 385024, Note_on_c, 0, 52, 78
1, 385178, Note_on_c, 0, 52, 0
1, 385280, Note_on_c, 0, 68, 0
1, 385280, Note_on_c, 0, 80, 89
1, 385536, Note_on_c, 0, 80, 0
1, 385536, Note_on_c, 0, 64, 89
1, 385536, Note_on_c, 0, 52, 80
1, 385690, Note_on_c, 0, 52, 0
1, 385792, Note_on_c, 0, 64, 0
1, 385792, Note_on_c, 0, 76, 89
1, 386048, Note_on_c, 0, 76, 0
1, 386048, Note_on_c, 0, 69, 89
1, 386048, Note_on_c, 0, 52, 81
1, 386202, Note_on_c, 0, 52, 0
1, 386304, Note_on_c, 0, 69, 0
1, 386304, Note_on_c, 0, 81, 90
1, 386560, Note_on_c, 0, 81, 0
1, 386560, Note_on_c, 0, 71, 90
1, 386560, Note_on_c, 0, 52, 82
1, 386714, Note_on_c, 0, 52, 0
1, 386816, Note_on_c, 0, 71, 0
1, 386816, Note_on_c, 0, 83, 91
1, 386832, Note_on_c, 0, 45, 78
1, 386912, Note_on_c, 0, 49, 75
1, 386992, Note_on_c, 0, 52, 78
1, 387071, Note_on_c, 0, 45, 0
1, 387071, Note_on_c, 0, 49, 0
1, 387072, Note_on_c, 0, 83, 0
1, 387072, Note_on_c, 0, 73, 109
1, 387072, Note_on_c, 0, 52, 0
1, 387072, Note_on_c, 0, 57, 98
1, 387226, Note_on_c, 0, 57, 0
1, 387328, Note_on_c, 0, 73, 0
1, 387328, Note_on_c, 0, 85, 91
1, 387584, Note_on_c, 0, 85, 0
1, 387584, Note_on_c, 0, 57, 84
1, 387738, Note_on_c, 0, 57, 0
1, 388096, Note_on_c, 0, 69, 87
1, 388096, Note_on_c, 0, 57, 85
1, 388250, Note_on_c, 0, 57, 0
1, 388352, Note_on_c, 0, 69, 0
1, 388352, Note_on_c, 0, 81, 87
1, 388608, Note_on_c, 0, 81, 0
1, 388608, Note_on_c, 0, 71, 88
1, 388608, Note_on_c, 0, 57, 86
1, 388762, Note_on_c, 0, 57, 0
1, 388864, Note_on_c, 0, 71, 0
1, 388864, Note_on_c, 0, 83, 89
1, 388880, Note_on_c, 0, 45, 78
1, 388960, Note_on_c, 0, 49, 75
1, 389040, Note_on_c, 0, 52, 78
1, 389119, Note_on_c, 0, 45, 0
1, 389119, Note_on_c, 0, 49, 0
1, 389120, Note_on_c, 0, 83, 0
1, 389120, Note_on_c, 0, 73, 107
1, 389120, Note_on_c, 0, 52, 0
1, 389120, Note_on_c, 0, 57, 100
1, 389376, Note_on_c, 0, 73, 0
1, 389376, Note_on_c, 0, 85, 90
1, 389632, Note_on_c, 0, 85, 0
1, 389632, Note_on_c, 0, 71, 91
1, 389632, Note_on_c, 0, 57, 0
1, 389632, Note_on_c, 0, 57, 80
1, 389786, Note_on_c, 0, 57, 0
1, 389888, Note_on_c, 0, 71, 0
1, 389888, Note_on_c, 0, 83, 90
1, 390144, Note_on_c, 0, 83, 0
1, 390144, Note_on_c, 0, 69, 89
1, 390144, Note_on_c, 0, 57, 81
1, 390298, Note_on_c, 0, 57, 0
1, 390400, Note_on_c, 0, 69, 0
1, 390400, Note_on_c, 0, 81, 88
1, 390656, Note_on_c, 0, 81, 0
1, 390656, Note_on_c, 0, 68, 87
1, 390656, Note_on_c, 0, 57, 82
1, 390810, Note_on_c, 0, 57, 0
1, 390912, Note_on_c, 0, 68, 0
1, 390912, Note_on_c, 0, 80, 87
1, 390928, Note_on_c, 0, 38, 74
1, 391008, Note_on_c, 0, 42, 72
1, 391088, Note_on_c, 0, 45, 75
1, 391167, Note_on_c, 0, 38, 0
1, 391167, Note_on_c, 0, 42, 0
1, 391168, Note_on_c, 0, 80, 0
1, 391168, Note_on_c, 0, 66, 106
1, 391168, Note_on_c, 0, 45, 0
1, 391168, Note_on_c, 0, 50, 95
1, 391322, Note_on_c, 0, 50, 0
1, 391424, Note_on_c, 0, 66, 0
1, 391424, Note_on_c, 0, 78, 89
1, 391680, Note_on_c, 0, 78, 0
1, 391680, Note_on_c, 0, 71, 89
1, 391680, Note_on_c, 0, 50, 75
1, 391834, Note_on_c, 0, 50, 0
1, 391936, Note_on_c, 0, 71, 0
1, 391936, Note_on_c, 0, 83, 89
1, 391952, Note_on_c, 0, 40, 74
1, 392032, Note_on_c, 0, 44, 72
1, 392112, Note_on_c, 0, 47, 75
1, 392191, Note_on_c, 0, 40, 0
1, 392191, Note_on_c, 0, 44, 0
1, 392192, Note_on_c, 0, 83, 0
1, 392192, Note_on_c, 0, 68, 108
1, 392192, Note_on_c, 0, 47, 0
1, 392192, Note_on_c, 0, 52, 95
1, 392346, Note_on_c, 0, 52, 0
1, 392448, Note_on_c, 0, 68, 0
1, 392448, Note_on_c, 0, 80, 91
1, 392704, Note_on_c, 0, 80, 0
1, 392704, Note_on_c, 0, 64, 91
1, 392704, Note_on_c, 0, 52, 75
1, 392858, Note_on_c, 0, 52, 0
1, 392960, Note_on_c, 0, 64, 0
1, 392960, Note_on_c, 0, 76, 91
1, 392976, Note_on_c, 0, 45, 71
1, 393056, Note_on_c, 0, 49, 72
1, 393136, Note_on_c, 0, 52, 75
1, 393215, Note_on_c, 0, 45, 0
1, 393215, Note_on_c, 0, 49, 0
1, 393216, Note_on_c, 0, 76, 0
1, 393216, Note_on_c, 0, 69, 96
1, 393216, Note_on_c, 0, 81, 98
1, 393216, Note_on_c, 0, 52, 0
1, 393216, Note_on_c, 0, 57, 77
1, 393370, Note_on_c, 0, 57, 0
1, 393728, Note_on_c, 0, 57, 72
1, 393882, Note_on_c, 0, 57, 0
1, 394240, Note_on_c, 0, 69, 0
1, 394240, Note_on_c, 0, 81, 0
1, 394240, Note_on_c, 0, 85, 101
1, 394240, Note_on_c, 0, 73, 101
1, 394240, Note_on_c, 0, 57, 87
1, 394394, Note_on_c, 0, 57, 0
1, 394470, Note_on_c, 0, 85, 0
1, 394752, Note_on_c, 0, 57, 88
1, 394906, Note_on_c, 0, 57, 0
1, 395008, Note_on_c, 0, 85, 101
1, 395024, Note_on_c, 0, 45, 85
1, 395085, Note_on_c, 0, 85, 0
1, 395104, Note_on_c, 0, 49, 86
1, 395184, Note_on_c, 0, 52, 89
1, 395198, Note_on_c, 0, 73, 101
1, 395231, Note_on_c, 0, 76, 99
1, 395263, Note_on_c, 0, 45, 0
1, 395263, Note_on_c, 0, 49, 0
1, 395264, Note_on_c, 0, 73, 0
1, 395264, Note_on_c, 0, 81, 85
1, 395264, Note_on_c, 0, 52, 0
1, 395264, Note_on_c, 0, 57, 95
1, 395297, Note_on_c, 0, 85, 106
1, 395418, Note_on_c, 0, 57, 0
1, 395776, Note_on_c, 0, 57, 71
1, 395930, Note_on_c, 0, 57, 0
1, 396288, Note_on_c, 0, 73, 0
1, 396288, Note_on_c, 0, 76, 0
1, 396288, Note_on_c, 0, 81, 0
1, 396288, Note_on_c, 0, 57, 73
1, 396442, Note_on_c, 0, 57, 0
1, 396800, Note_on_c, 0, 57, 74
1, 396954, Note_on_c, 0, 57, 0
1, 397072, Note_on_c, 0, 45, 72
1, 397152, Note_on_c, 0, 49, 72
1, 397232, Note_on_c, 0, 52, 75
1, 397246, Note_on_c, 0, 73, 88
1, 397279, Note_on_c, 0, 76, 86
1, 397311, Note_on_c, 0, 45, 0
1, 397311, Note_on_c, 0, 49, 0
1, 397312, Note_on_c, 0, 85, 0
1, 397312, Note_on_c, 0, 81, 85
1, 397312, Note_on_c, 0, 52, 0
1, 397312, Note_on_c, 0, 57, 96
1, 397345, Note_on_c, 0, 85, 106
1, 397466, Note_on_c, 0, 57, 0
1, 397824, Note_on_c, 0, 57, 71
1, 397978, Note_on_c, 0, 57, 0
1, 398336, Note_on_c, 0, 73, 0
1, 398336, Note_on_c, 0, 76, 0
1, 398336, Note_on_c, 0, 81, 0
1, 398336, Note_on_c, 0, 57, 73
1, 398490, Note_on_c, 0, 57, 0
1, 398848, Note_on_c, 0, 57, 75
1, 399002, Note_on_c, 0, 57, 0
1, 399120, Note_on_c, 0, 45, 72
1, 399200, Note_on_c, 0, 49, 70
1, 399280, Note_on_c, 0, 52, 73
1, 399359, Note_on_c, 0, 45, 0
1, 399359, Note_on_c, 0, 49, 0
1, 399360, Note_on_c, 0, 85, 0
1, 399360, Note_on_c, 0, 86, 94
1, 399360, Note_on_c, 0, 52, 0
1, 399360, Note_on_c, 0, 57, 95
1, 399514, Note_on_c, 0, 57, 0
1, 399616, Note_on_c, 0, 86, 0
1, 399616, Note_on_c, 0, 85, 91
1, 399693, Note_on_c, 0, 85, 0
1, 399872, Note_on_c, 0, 83, 88
1, 399872, Note_on_c, 0, 57, 69
1, 399949, Note_on_c, 0, 83, 0
1, 400026, Note_on_c, 0, 57, 0
1, 400128, Note_on_c, 0, 85, 91
1, 400205, Note_on_c, 0, 85, 0
1, 400384, Note_on_c, 0, 86, 92
1, 400384, Note_on_c, 0, 57, 69
1, 400461, Note_on_c, 0, 86, 0
1, 400538, Note_on_c, 0, 57, 0
1, 400640, Note_on_c, 0, 85, 90
1, 400717, Note_on_c, 0, 85, 0
1, 400896, Note_on_c, 0, 83, 88
1, 400896, Note_on_c, 0, 57, 69
1, 400973, Note_on_c, 0, 83, 0
1, 401050, Note_on_c, 0, 57, 0
1, 401152, Note_on_c, 0, 85, 89
1, 401168, Note_on_c, 0, 38, 70
1, 401229, Note_on_c, 0, 85, 0
1, 401248, Note_on_c, 0, 42, 70
1, 401328, Note_on_c, 0, 45, 72
1, 401407, Note_on_c, 0, 38, 0
1, 401407, Note_on_c, 0, 42, 0
1, 401408, Note_on_c, 0, 78, 106
1, 401408, Note_on_c, 0, 81, 106
1, 401408, Note_on_c, 0, 86, 106
1, 401408, Note_on_c, 0, 45, 0
1, 401408, Note_on_c, 0, 50, 92
1, 401562, Note_on_c, 0, 50, 0
1, 401920, Note_on_c, 0, 50, 72
1, 402074, Note_on_c, 0, 50, 0
1, 402432, Note_on_c, 0, 50, 75
1, 402586, Note_on_c, 0, 50, 0
1, 402944, Note_on_c, 0, 50, 77
1, 403098, Note_on_c, 0, 50, 0
1, 403216, Note_on_c, 0, 45, 73
1, 403296, Note_on_c, 0, 49, 72
1, 403376, Note_on_c, 0, 86, 88
1, 403376, Note_on_c, 0, 52, 75
1, 403455, Note_on_c, 0, 45, 0
1, 403455, Note_on_c, 0, 49, 0
1, 403456, Note_on_c, 0, 78, 0
1, 403456, Note_on_c, 0, 81, 0
1, 403456, Note_on_c, 0, 86, 0
1, 403456, Note_on_c, 0, 86, 0
1, 403456, Note_on_c, 0, 76, 90
1, 403456, Note_on_c, 0, 81, 88
1, 403456, Note_on_c, 0, 85, 90
1, 403456, Note_on_c, 0, 52, 0
1, 403456, Note_on_c, 0, 57, 95
1, 403507, Note_on_c, 0, 76, 0
1, 403558, Note_on_c, 0, 81, 0
1, 403610, Note_on_c, 0, 85, 0
1, 403610, Note_on_c, 0, 57, 0
1, 403888, Note_on_c, 0, 86, 89
1, 403968, Note_on_c, 0, 86, 0
1, 403968, Note_on_c, 0, 76, 91
1, 403968, Note_on_c, 0, 81, 89
1, 403968, Note_on_c, 0, 85, 91
1, 403968, Note_on_c, 0, 57, 76
1, 404019, Note_on_c, 0, 76, 0
1, 404070, Note_on_c, 0, 81, 0
1, 404122, Note_on_c, 0, 85, 0
1, 404122, Note_on_c, 0, 57, 0
1, 404400, Note_on_c, 0, 86, 89
1, 404480, Note_on_c, 0, 86, 0
1, 404480, Note_on_c, 0, 76, 91
1, 404480, Note_on_c, 0, 81, 89
1, 404480, Note_on_c, 0, 85, 91
1, 404480, Note_on_c, 0, 57, 78
1, 404531, Note_on_c, 0, 76, 0
1, 404582, Note_on_c, 0, 81, 0
1, 404634, Note_on_c, 0, 85, 0
1, 404634, Note_on_c, 0, 57, 0
1, 404912, Note_on_c, 0, 86, 89
1, 404992, Note_on_c, 0, 86, 0
1, 404992, Note_on_c, 0, 76, 91
1, 404992, Note_on_c, 0, 81, 89
1, 404992, Note_on_c, 0, 85, 91
1, 404992, Note_on_c, 0, 57, 79
1, 405043, Note_on_c, 0, 76, 0
1, 405094, Note_on_c, 0, 81, 0
1, 405146, Note_on_c, 0, 85, 0
1, 405146, Note_on_c, 0, 57, 0
1, 405264, Note_on_c, 0, 40, 70
1, 405344, Note_on_c, 0, 44, 68
1, 405424, Note_on_c, 0, 47, 70
1, 405503, Note_on_c, 0, 40, 0
1, 405503, Note_on_c, 0, 44, 0
1, 405504, Note_on_c, 0, 83, 97
1, 405504, Note_on_c, 0, 76, 88
1, 405504, Note_on_c, 0, 80, 92
1, 405504, Note_on_c, 0, 47, 0
1, 405504, Note_on_c, 0, 52, 91
1, 405658, Note_on_c, 0, 52, 0
1, 406016, Note_on_c, 0, 52, 71
1, 406170, Note_on_c, 0, 52, 0
1, 406528, Note_on_c, 0, 52, 73
1, 406682, Note_on_c, 0, 52, 0
1, 407040, Note_on_c, 0, 83, 0
1, 407040, Note_on_c, 0, 88, 88
1, 407040, Note_on_c, 0, 52, 74
1, 407194, Note_on_c, 0, 52, 0
1, 407312, Note_on_c, 0, 45, 73
1, 407392, Note_on_c, 0, 49, 72
1, 407472, Note_on_c, 0, 52, 75
1, 407486, Note_on_c, 0, 73, 88
1, 407519, Note_on_c, 0, 76, 86
1, 407551, Note_on_c, 0, 45, 0
1, 407551, Note_on_c, 0, 49, 0
1, 407552, Note_on_c, 0, 88, 0
1, 407552, Note_on_c, 0, 76, 0
1, 407552, Note_on_c, 0, 80, 0
1, 407552, Note_on_c, 0, 81, 85
1, 407552, Note_on_c, 0, 52, 0
1, 407552, Note_on_c, 0, 57, 95
1, 407585, Note_on_c, 0, 85, 106
1, 407706, Note_on_c, 0, 57, 0
1, 408064, Note_on_c, 0, 57, 73
1, 408218, Note_on_c, 0, 57, 0
1, 408576, Note_on_c, 0, 73, 0
1, 408576, Note_on_c, 0, 76, 0
1, 408576, Note_on_c, 0, 81, 0
1, 408576, Note_on_c, 0, 57, 75
1, 408730, Note_on_c, 0, 57, 0
1, 409088, Note_on_c, 0, 57, 76
1, 409242, Note_on_c, 0, 57, 0
1, 409360, Note_on_c, 0, 45, 71
1, 409440, Note_on_c, 0, 49, 71
1, 409520, Note_on_c, 0, 52, 74
1, 409534, Note_on_c, 0, 73, 88
1, 409567, Note_on_c, 0, 76, 86
1, 409599, Note_on_c, 0, 45, 0
1, 409599, Note_on_c, 0, 49, 0
1, 409600, Note_on_c, 0, 85, 0
1, 409600, Note_on_c, 0, 81, 85
1, 409600, Note_on_c, 0, 52, 0
1, 409600, Note_on_c, 0, 57, 93
1, 409633, Note_on_c, 0, 85, 106
1, 409754, Note_on_c, 0, 57, 0
1, 410112, Note_on_c, 0, 57, 72
1, 410266, Note_on_c, 0, 57, 0
1, 410624, Note_on_c, 0, 73, 0
1, 410624, Note_on_c, 0, 76, 0
1, 410624, Note_on_c, 0, 81, 0
1, 410624, Note_on_c, 0, 57, 70
1, 410778, Note_on_c, 0, 57, 0
1, 411136, Note_on_c, 0, 57, 68
1, 411290, Note_on_c, 0, 57, 0
1, 411408, Note_on_c, 0, 45, 71
1, 411488, Note_on_c, 0, 49, 72
1, 411568, Note_on_c, 0, 52, 75
1, 411647, Note_on_c, 0, 45, 0
1, 411647, Note_on_c, 0, 49, 0
1, 411648, Note_on_c, 0, 85, 0
1, 411648, Note_on_c, 0, 86, 96
1, 411648, Note_on_c, 0, 52, 0
1, 411648, Note_on_c, 0, 57, 95
1, 411802, Note_on_c, 0, 57, 0
1, 411904, Note_on_c, 0, 86, 0
1, 411904, Note_on_c, 0, 85, 91
1, 411981, Note_on_c, 0, 85, 0
1, 412160, Note_on_c, 0, 83, 88
1, 412160, Note_on_c, 0, 57, 68
1, 412237, Note_on_c, 0, 83, 0
1, 412314, Note_on_c, 0, 57, 0
1, 412416, Note_on_c, 0, 85, 88
1, 412493, Note_on_c, 0, 85, 0
1, 412672, Note_on_c, 0, 86, 92
1, 412672, Note_on_c, 0, 57, 70
1, 412749, Note_on_c, 0, 86, 0
1, 412826, Note_on_c, 0, 57, 0
1, 412928, Note_on_c, 0, 85, 90
1, 413005, Note_on_c, 0, 85, 0
1, 413184, Note_on_c, 0, 83, 88
1, 413184, Note_on_c, 0, 57, 71
1, 413261, Note_on_c, 0, 83, 0
1, 413338, Note_on_c, 0, 57, 0
1, 413440, Note_on_c, 0, 85, 90
1, 413456, Note_on_c, 0, 38, 70
1, 413517, Note_on_c, 0, 85, 0
1, 413536, Note_on_c, 0, 42, 70
1, 413616, Note_on_c, 0, 45, 72
1, 413695, Note_on_c, 0, 38, 0
1, 413695, Note_on_c, 0, 42, 0
1, 413696, Note_on_c, 0, 78, 106
1, 413696, Note_on_c, 0, 81, 106
1, 413696, Note_on_c, 0, 86, 106
1, 413696, Note_on_c, 0, 45, 0
1, 413696, Note_on_c, 0, 50, 95
1, 413850, Note_on_c, 0, 50, 0
1, 414208, Note_on_c, 0, 50, 69
1, 414362, Note_on_c, 0, 50, 0
1, 414720, Note_on_c, 0, 50, 71
1, 414874, Note_on_c, 0, 50, 0
1, 415232, Note_on_c, 0, 50, 72
1, 415386, Note_on_c, 0, 50, 0
1, 415504, Note_on_c, 0, 45, 71
1, 415584, Note_on_c, 0, 49, 70
1, 415664, Note_on_c, 0, 86, 88
1, 415664, Note_on_c, 0, 52, 73
1, 415743, Note_on_c, 0, 45, 0
1, 415743, Note_on_c, 0, 49, 0
1, 415744, Note_on_c, 0, 78, 0
1, 415744, Note_on_c, 0, 81, 0
1, 415744, Note_on_c, 0, 86, 0
1, 415744, Note_on_c, 0, 86, 0
1, 415744, Note_on_c, 0, 76, 106
1, 415744, Note_on_c, 0, 81, 106
1, 415744, Note_on_c, 0, 85, 106
1, 415744, Note_on_c, 0, 52, 0
1, 415744, Note_on_c, 0, 57, 95
1, 415898, Note_on_c, 0, 57, 0
1, 416256, Note_on_c, 0, 57, 72
1, 416410, Note_on_c, 0, 57, 0
1, 416768, Note_on_c, 0, 57, 72
1, 416922, Note_on_c, 0, 57, 0
1, 417280, Note_on_c, 0, 57, 72
1, 417434, Note_on_c, 0, 57, 0
1, 417552, Note_on_c, 0, 40, 67
1, 417632, Note_on_c, 0, 44, 70
1, 417712, Note_on_c, 0, 85, 88
1, 417712, Note_on_c, 0, 47, 72
1, 417791, Note_on_c, 0, 40, 0
1, 417791, Note_on_c, 0, 44, 0
1, 417792, Note_on_c, 0, 76, 0
1, 417792, Note_on_c, 0, 81, 0
1, 417792, Note_on_c, 0, 85, 0
1, 417792, Note_on_c, 0, 85, 0
1, 417792, Note_on_c, 0, 76, 90
1, 417792, Note_on_c, 0, 80, 90
1, 417792, Note_on_c, 0, 83, 90
1, 417792, Note_on_c, 0, 47, 0
1, 417792, Note_on_c, 0, 52, 95
1, 417843, Note_on_c, 0, 76, 0
1, 417894, Note_on_c, 0, 80, 0
1, 417946, Note_on_c, 0, 83, 0
1, 417946, Note_on_c, 0, 52, 0
1, 418224, Note_on_c, 0, 85, 89
1, 418304, Note_on_c, 0, 85, 0
1, 418304, Note_on_c, 0, 76, 91
1, 418304, Note_on_c, 0, 80, 89
1, 418304, Note_on_c, 0, 83, 91
1, 418304, Note_on_c, 0, 52, 72
1, 418355, Note_on_c, 0, 76, 0
1, 418406, Note_on_c, 0, 80, 0
1, 418458, Note_on_c, 0, 83, 0
1, 418458, Note_on_c, 0, 52, 0
1, 418736, Note_on_c, 0, 85, 89
1, 418816, Note_on_c, 0, 85, 0
1, 418816, Note_on_c, 0, 76, 91
1, 418816, Note_on_c, 0, 80, 89
1, 418816, Note_on_c, 0, 83, 91
1, 418816, Note_on_c, 0, 52, 72
1, 418867, Note_on_c, 0, 76, 0
1, 418918, Note_on_c, 0, 80, 0
1, 418970, Note_on_c, 0, 83, 0
1, 418970, Note_on_c, 0, 52, 0
1, 419248, Note_on_c, 0, 85, 89
1, 419328, Note_on_c, 0, 85, 0
1, 419328, Note_on_c, 0, 76, 91
1, 419328, Note_on_c, 0, 80, 89
1, 419328, Note_on_c, 0, 83, 91
1, 419328, Note_on_c, 0, 52, 72
1, 419379, Note_on_c, 0, 76, 0
1, 419430, Note_on_c, 0, 80, 0
1, 419482, Note_on_c, 0, 83, 0
1, 419482, Note_on_c, 0, 52, 0
1, 419840, Note_on_c, 0, 81, 70
1, 419840, Note_on_c, 0, 57, 46
1, 420096, Note_on_c, 0, 57, 0
1, 420096, Note_on_c, 0, 64, 44
1, 420352, Note_on_c, 0, 64, 0
1, 420352, Note_on_c, 0, 61, 46
1, 420608, Note_on_c, 0, 61, 0
1, 420608, Note_on_c, 0, 64, 44
1, 420736, Note_on_c, 0, 81, 49
1, 420794, Note_on_c, 0, 76, 49
1, 420829, Note_on_c, 0, 76, 0
1, 420864, Note_on_c, 0, 81, 0
1, 420864, Note_on_c, 0, 81, 0
1, 420864, Note_on_c, 0, 85, 49
1, 420864, Note_on_c, 0, 64, 0
1, 420864, Note_on_c, 0, 57, 46
1, 421094, Note_on_c, 0, 85, 0
1, 421120, Note_on_c, 0, 57, 0
1, 421120, Note_on_c, 0, 64, 44
1, 421376, Note_on_c, 0, 64, 0
1, 421376, Note_on_c, 0, 61, 46
1, 421632, Note_on_c, 0, 85, 49
1, 421632, Note_on_c, 0, 61, 0
1, 421632, Note_on_c, 0, 64, 44
1, 421709, Note_on_c, 0, 85, 0
1, 421760, Note_on_c, 0, 81, 49
1, 421818, Note_on_c, 0, 76, 49
1, 421853, Note_on_c, 0, 76, 0
1, 421888, Note_on_c, 0, 64, 0
1, 421888, Note_on_c, 0, 81, 0
1, 421888, Note_on_c, 0, 85, 64
1, 421888, Note_on_c, 0, 57, 46
1, 422144, Note_on_c, 0, 57, 0
1, 422144, Note_on_c, 0, 64, 44
1, 422400, Note_on_c, 0, 64, 0
1, 422400, Note_on_c, 0, 61, 46
1, 422656, Note_on_c, 0, 61, 0
1, 422656, Note_on_c, 0, 64, 44
1, 422912, Note_on_c, 0, 64, 0
1, 422912, Note_on_c, 0, 57, 46
1, 423168, Note_on_c, 0, 57, 0
1, 423168, Note_on_c, 0, 64, 44
1, 423424, Note_on_c, 0, 64, 0
1, 423424, Note_on_c, 0, 61, 46
1, 423680, Note_on_c, 0, 61, 0
1, 423680, Note_on_c, 0, 64, 44
1, 423808, Note_on_c, 0, 81, 49
1, 423866, Note_on_c, 0, 76, 49
1, 423901, Note_on_c, 0, 76, 0
1, 423936, Note_on_c, 0, 85, 0
1, 423936, Note_on_c, 0, 64, 0
1, 423936, Note_on_c, 0, 81, 0
1, 423936, Note_on_c, 0, 85, 64
1, 423936, Note_on_c, 0, 57, 46
1, 424192, Note_on_c, 0, 57, 0
1, 424192, Note_on_c, 0, 64, 44
1, 424448, Note_on_c, 0, 64, 0
1, 424448, Note_on_c, 0, 61, 46
1, 424704, Note_on_c, 0, 61, 0
1, 424704, Note_on_c, 0, 64, 44
1, 424960, Note_on_c, 0, 64, 0
1, 424960, Note_on_c, 0, 57, 46
1, 425216, Note_on_c, 0, 57, 0
1, 425216, Note_on_c, 0, 64, 44
1, 425472, Note_on_c, 0, 64, 0
1, 425472, Note_on_c, 0, 61, 46
1, 425728, Note_on_c, 0, 61, 0
1, 425728, Note_on_c, 0, 64, 44
1, 425984, Note_on_c, 0, 85, 0
1, 425984, Note_on_c, 0, 64, 0
1, 425984, Note_on_c, 0, 86, 57
1, 425984, Note_on_c, 0, 57, 46
1, 426240, Note_on_c, 0, 86, 0
1, 426240, Note_on_c, 0, 85, 53
1, 426240, Note_on_c, 0, 57, 0
1, 426240, Note_on_c, 0, 64, 44
1, 426317, Note_on_c, 0, 85, 0
1, 426496, Note_on_c, 0, 83, 51
1, 426496, Note_on_c, 0, 64, 0
1, 426496, Note_on_c, 0, 61, 46
1, 426573, Note_on_c, 0, 83, 0
1, 426752, Note_on_c, 0, 85, 49
1, 426752, Note_on_c, 0, 61, 0
1, 426752, Note_on_c, 0, 64, 44
1, 426829, Note_on_c, 0, 85, 0
1, 427008, Note_on_c, 0, 86, 53
1, 427008, Note_on_c, 0, 64, 0
1, 427008, Note_on_c, 0, 57, 46
1, 427085, Note_on_c, 0, 86, 0
1, 427264, Note_on_c, 0, 85, 51
1, 427264, Note_on_c, 0, 57, 0
1, 427264, Note_on_c, 0, 64, 44
1, 427341, Note_on_c, 0, 85, 0
1, 427520, Note_on_c, 0, 83, 49
1, 427520, Note_on_c, 0, 64, 0
1, 427520, Note_on_c, 0, 61, 46
1, 427597, Note_on_c, 0, 83, 0
1, 427776, Note_on_c, 0, 85, 51
1, 427776, Note_on_c, 0, 61, 0
1, 427776, Note_on_c, 0, 64, 44
1, 427853, Note_on_c, 0, 85, 0
1, 428032, Note_on_c, 0, 64, 0
1, 428032, Note_on_c, 0, 86, 76
1, 428032, Note_on_c, 0, 57, 47
1, 428288, Note_on_c, 0, 57, 0
1, 428288, Note_on_c, 0, 66, 46
1, 428544, Note_on_c, 0, 66, 0
1, 428544, Note_on_c, 0, 62, 47
1, 428800, Note_on_c, 0, 62, 0
1, 428800, Note_on_c, 0, 66, 46
1, 429056, Note_on_c, 0, 66, 0
1, 429056, Note_on_c, 0, 57, 47
1, 429312, Note_on_c, 0, 57, 0
1, 429312, Note_on_c, 0, 66, 46
1, 429568, Note_on_c, 0, 66, 0
1, 429568, Note_on_c, 0, 62, 47
1, 429824, Note_on_c, 0, 62, 0
1, 429824, Note_on_c, 0, 66, 46
1, 430000, Note_on_c, 0, 86, 49
1, 430080, Note_on_c, 0, 86, 0
1, 430080, Note_on_c, 0, 66, 0
1, 430080, Note_on_c, 0, 86, 0
1, 430080, Note_on_c, 0, 85, 51
1, 430080, Note_on_c, 0, 57, 46
1, 430234, Note_on_c, 0, 85, 0
1, 430336, Note_on_c, 0, 57, 0
1, 430336, Note_on_c, 0, 64, 44
1, 430512, Note_on_c, 0, 86, 50
1, 430592, Note_on_c, 0, 86, 0
1, 430592, Note_on_c, 0, 85, 52
1, 430592, Note_on_c, 0, 64, 0
1, 430592, Note_on_c, 0, 61, 46
1, 430746, Note_on_c, 0, 85, 0
1, 430848, Note_on_c, 0, 61, 0
1, 430848, Note_on_c, 0, 64, 44
1, 431024, Note_on_c, 0, 86, 50
1, 431104, Note_on_c, 0, 86, 0
1, 431104, Note_on_c, 0, 85, 52
1, 431104, Note_on_c, 0, 64, 0
1, 431104, Note_on_c, 0, 57, 46
1, 431258, Note_on_c, 0, 85, 0
1, 431360, Note_on_c, 0, 57, 0
1, 431360, Note_on_c, 0, 64, 44
1, 431536, Note_on_c, 0, 86, 51
1, 431616, Note_on_c, 0, 86, 0
1, 431616, Note_on_c, 0, 85, 53
1, 431616, Note_on_c, 0, 64, 0
1, 431616, Note_on_c, 0, 61, 46
1, 431770, Note_on_c, 0, 85, 0
1, 431872, Note_on_c, 0, 61, 0
1, 431872, Note_on_c, 0, 64, 44
1, 432128, Note_on_c, 0, 64, 0
1, 432128, Note_on_c, 0, 83, 60
1, 432128, Note_on_c, 0, 52, 49
1, 432384, Note_on_c, 0, 52, 0
1, 432384, Note_on_c, 0, 64, 46
1, 432640, Note_on_c, 0, 64, 0
1, 432640, Note_on_c, 0, 56, 49
1, 432896, Note_on_c, 0, 56, 0
1, 432896, Note_on_c, 0, 64, 46
1, 433152, Note_on_c, 0, 64, 0
1, 433152, Note_on_c, 0, 52, 49
1, 433408, Note_on_c, 0, 52, 0
1, 433408, Note_on_c, 0, 64, 46
1, 433664, Note_on_c, 0, 83, 0
1, 433664, Note_on_c, 0, 88, 71
1, 433664, Note_on_c, 0, 64, 0
1, 433664, Note_on_c, 0, 56, 49
1, 433920, Note_on_c, 0, 56, 0
1, 433920, Note_on_c, 0, 64, 46
1, 433936, Note_on_c, 0, 45, 35
1, 434016, Note_on_c, 0, 49, 33
1, 434096, Note_on_c, 0, 52, 36
1, 434110, Note_on_c, 0, 73, 49
1, 434143, Note_on_c, 0, 76, 47
1, 434175, Note_on_c, 0, 45, 0
1, 434175, Note_on_c, 0, 49, 0
1, 434176, Note_on_c, 0, 88, 0
1, 434176, Note_on_c, 0, 64, 0
1, 434176, Note_on_c, 0, 81, 85
1, 434176, Note_on_c, 0, 52, 0
1, 434176, Note_on_c, 0, 57, 95
1, 434209, Note_on_c, 0, 85, 110
1, 434330, Note_on_c, 0, 57, 0
1, 434688, Note_on_c, 0, 57, 69
1, 434842, Note_on_c, 0, 57, 0
1, 435200, Note_on_c, 0, 73, 0
1, 435200, Note_on_c, 0, 76, 0
1, 435200, Note_on_c, 0, 81, 0
1, 435200, Note_on_c, 0, 57, 71
1, 435354, Note_on_c, 0, 57, 0
1, 435712, Note_on_c, 0, 57, 72
1, 435866, Note_on_c, 0, 57, 0
1, 435984, Note_on_c, 0, 45, 71
1, 436064, Note_on_c, 0, 49, 70
1, 436144, Note_on_c, 0, 52, 73
1, 436158, Note_on_c, 0, 73, 88
1, 436191, Note_on_c, 0, 76, 86
1, 436223, Note_on_c, 0, 45, 0
1, 436223, Note_on_c, 0, 49, 0
1, 436224, Note_on_c, 0, 85, 0
1, 436224, Note_on_c, 0, 81, 85
1, 436224, Note_on_c, 0, 52, 0
1, 436224, Note_on_c, 0, 57, 95
1, 436257, Note_on_c, 0, 85, 106
1, 436378, Note_on_c, 0, 57, 0
1, 436736, Note_on_c, 0, 57, 70
1, 436890, Note_on_c, 0, 57, 0
1, 437248, Note_on_c, 0, 73, 0
1, 437248, Note_on_c, 0, 76, 0
1, 437248, Note_on_c, 0, 81, 0
1, 437248, Note_on_c, 0, 57, 71
1, 437402, Note_on_c, 0, 57, 0
1, 437760, Note_on_c, 0, 57, 72
1, 437914, Note_on_c, 0, 57, 0
1, 438032, Note_on_c, 0, 45, 71
1, 438112, Note_on_c, 0, 49, 72
1, 438192, Note_on_c, 0, 52, 75
1, 438271, Note_on_c, 0, 45, 0
1, 438271, Note_on_c, 0, 49, 0
1, 438272, Note_on_c, 0, 85, 0
1, 438272, Note_on_c, 0, 86, 98
1, 438272, Note_on_c, 0, 52, 0
1, 438272, Note_on_c, 0, 57, 95
1, 438426, Note_on_c, 0, 57, 0
1, 438528, Note_on_c, 0, 86, 0
1, 438528, Note_on_c, 0, 85, 91
1, 438605, Note_on_c, 0, 85, 0
1, 438784, Note_on_c, 0, 83, 88
1, 438784, Note_on_c, 0, 57, 69
1, 438861, Note_on_c, 0, 83, 0
1, 438938, Note_on_c, 0, 57, 0
1, 439040, Note_on_c, 0, 85, 90
1, 439117, Note_on_c, 0, 85, 0
1, 439296, Note_on_c, 0, 86, 92
1, 439296, Note_on_c, 0, 57, 70
1, 439373, Note_on_c, 0, 86, 0
1, 439450, Note_on_c, 0, 57, 0
1, 439552, Note_on_c, 0, 85, 88
1, 439629, Note_on_c, 0, 85, 0
1, 439808, Note_on_c, 0, 83, 88
1, 439808, Note_on_c, 0, 57, 72
1, 439885, Note_on_c, 0, 83, 0
1, 439962, Note_on_c, 0, 57, 0
1, 440064, Note_on_c, 0, 85, 91
1, 440080, Note_on_c, 0, 38, 70
1, 440141, Note_on_c, 0, 85, 0
1, 440160, Note_on_c, 0, 42, 70
1, 440240, Note_on_c, 0, 45, 72
1, 440319, Note_on_c, 0, 38, 0
1, 440319, Note_on_c, 0, 42, 0
1, 440320, Note_on_c, 0, 78, 106
1, 440320, Note_on_c, 0, 81, 108
1, 440320, Note_on_c, 0, 86, 110
1, 440320, Note_on_c, 0, 45, 0
1, 440320, Note_on_c, 0, 50, 95
1, 440474, Note_on_c, 0, 50, 0
1, 440832, Note_on_c, 0, 50, 70
1, 440986, Note_on_c, 0, 50, 0
1, 441344, Note_on_c, 0, 50, 71
1, 441498, Note_on_c, 0, 50, 0
1, 441856, Note_on_c, 0, 50, 72
1, 442010, Note_on_c, 0, 50, 0
1, 442128, Note_on_c, 0, 45, 71
1, 442208, Note_on_c, 0, 49, 72
1, 442288, Note_on_c, 0, 86, 88
1, 442288, Note_on_c, 0, 52, 75
1, 442367, Note_on_c, 0, 45, 0
1, 442367, Note_on_c, 0, 49, 0
1, 442368, Note_on_c, 0, 78, 0
1, 442368, Note_on_c, 0, 81, 0
1, 442368, Note_on_c, 0, 86, 0
1, 442368, Note_on_c, 0, 86, 0
1, 442368, Note_on_c, 0, 76, 102
1, 442368, Note_on_c, 0, 81, 104
1, 442368, Note_on_c, 0, 85, 104
1, 442368, Note_on_c, 0, 52, 0
1, 442368, Note_on_c, 0, 57, 95
1, 442522, Note_on_c, 0, 57, 0
1, 442880, Note_on_c, 0, 57, 67
1, 443034, Note_on_c, 0, 57, 0
1, 443392, Note_on_c, 0, 57, 69
1, 443546, Note_on_c, 0, 57, 0
1, 443904, Note_on_c, 0, 57, 70
1, 444058, Note_on_c, 0, 57, 0
1, 444176, Note_on_c, 0, 40, 73
1, 444256, Note_on_c, 0, 44, 70
1, 444336, Note_on_c, 0, 85, 88
1, 444336, Note_on_c, 0, 47, 72
1, 444415, Note_on_c, 0, 40, 0
1, 444415, Note_on_c, 0, 44, 0
1, 444416, Note_on_c, 0, 76, 0
1, 444416, Note_on_c, 0, 81, 0
1, 444416, Note_on_c, 0, 85, 0
1, 444416, Note_on_c, 0, 85, 0
1, 444416, Note_on_c, 0, 76, 90
1, 444416, Note_on_c, 0, 80, 90
1, 444416, Note_on_c, 0, 83, 90
1, 444416, Note_on_c, 0, 47, 0
1, 444416, Note_on_c, 0, 52, 95
1, 444467, Note_on_c, 0, 76, 0
1, 444518, Note_on_c, 0, 80, 0
1, 444570, Note_on_c, 0, 83, 0
1, 444570, Note_on_c, 0, 52, 0
1, 444848, Note_on_c, 0, 85, 89
1, 444928, Note_on_c, 0, 85, 0
1, 444928, Note_on_c, 0, 76, 91
1, 444928, Note_on_c, 0, 80, 89
1, 444928, Note_on_c, 0, 83, 91
1, 444928, Note_on_c, 0, 52, 70
1, 444979, Note_on_c, 0, 76, 0
1, 445030, Note_on_c, 0, 80, 0
1, 445082, Note_on_c, 0, 83, 0
1, 445082, Note_on_c, 0, 52, 0
1, 445360, Note_on_c, 0, 85, 89
1, 445440, Note_on_c, 0, 85, 0
1, 445440, Note_on_c, 0, 76, 91
1, 445440, Note_on_c, 0, 80, 89
1, 445440, Note_on_c, 0, 83, 91
1, 445440, Note_on_c, 0, 52, 71
1, 445491, Note_on_c, 0, 76, 0
1, 445542, Note_on_c, 0, 80, 0
1, 445594, Note_on_c, 0, 83, 0
1, 445594, Note_on_c, 0, 52, 0
1, 445872, Note_on_c, 0, 85, 89
1, 445952, Note_on_c, 0, 85, 0
1, 445952, Note_on_c, 0, 76, 91
1, 445952, Note_on_c, 0, 80, 89
1, 445952, Note_on_c, 0, 83, 91
1, 445952, Note_on_c, 0, 52, 73
1, 446003, Note_on_c, 0, 76, 0
1, 446054, Note_on_c, 0, 80, 0
1, 446106, Note_on_c, 0, 83, 0
1, 446106, Note_on_c, 0, 52, 0
1, 446224, Note_on_c, 0, 45, 71
1, 446304, Note_on_c, 0, 49, 72
1, 446384, Note_on_c, 0, 52, 75
1, 446463, Note_on_c, 0, 45, 0
1, 446463, Note_on_c, 0, 49, 0
1, 446464, Note_on_c, 0, 69, 98
1, 446464, Note_on_c, 0, 73, 95
1, 446464, Note_on_c, 0, 76, 95
1, 446464, Note_on_c, 0, 81, 98
1, 446464, Note_on_c, 0, 52, 0
1, 446464, Note_on_c, 0, 57, 100
1, 446618, Note_on_c, 0, 57, 0
1, 446976, Note_on_c, 0, 57, 75
1, 447130, Note_on_c, 0, 57, 0
1, 447488, Note_on_c, 0, 57, 77
1, 447642, Note_on_c, 0, 57, 0
1, 448000, Note_on_c, 0, 69, 0
1, 448000, Note_on_c, 0, 73, 0
1, 448000, Note_on_c, 0, 76, 0
1, 448000, Note_on_c, 0, 81, 0
1, 448000, Note_on_c, 0, 73, 95
1, 448000, Note_on_c, 0, 85, 98
1, 448000, Note_on_c, 0, 57, 78
1, 448077, Note_on_c, 0, 73, 0
1, 448154, Note_on_c, 0, 85, 0
1, 448154, Note_on_c, 0, 57, 0
1, 448272, Note_on_c, 0, 45, 71
1, 448352, Note_on_c, 0, 49, 72
1, 448432, Note_on_c, 0, 52, 75
1, 448511, Note_on_c, 0, 45, 0
1, 448511, Note_on_c, 0, 49, 0
1, 448512, Note_on_c, 0, 69, 97
1, 448512, Note_on_c, 0, 81, 100
1, 448512, Note_on_c, 0, 52, 0
1, 448512, Note_on_c, 0, 57, 100
1, 448666, Note_on_c, 0, 57, 0
1, 449024, Note_on_c, 0, 57, 74
1, 449178, Note_on_c, 0, 57, 0
1, 449536, Note_on_c, 0, 57, 76
1, 449690, Note_on_c, 0, 57, 0
1, 450048, Note_on_c, 0, 69, 0
1, 450048, Note_on_c, 0, 81, 0
1, 450048, Note_on_c, 0, 76, 95
1, 450048, Note_on_c, 0, 88, 98
1, 450048, Note_on_c, 0, 57, 78
1, 450125, Note_on_c, 0, 76, 0
1, 450202, Note_on_c, 0, 88, 0
1, 450202, Note_on_c, 0, 57, 0
1, 450320, Note_on_c, 0, 45, 71
1, 450400, Note_on_c, 0, 49, 72
1, 450480, Note_on_c, 0, 52, 75
1, 450559, Note_on_c, 0, 45, 0
1, 450559, Note_on_c, 0, 49, 0
1, 450560, Note_on_c, 0, 69, 97
1, 450560, Note_on_c, 0, 81, 103
1, 450560, Note_on_c, 0, 52, 0
1, 450560, Note_on_c, 0, 57, 100
1, 450714, Note_on_c, 0, 57, 0
1, 451072, Note_on_c, 0, 57, 75
1, 451226, Note_on_c, 0, 57, 0
1, 451584, Note_on_c, 0, 57, 76
1, 451738, Note_on_c, 0, 57, 0
1, 452096, Note_on_c, 0, 69, 0
1, 452096, Note_on_c, 0, 81, 0
1, 452096, Note_on_c, 0, 73, 95
1, 452096, Note_on_c, 0, 85, 97
1, 452096, Note_on_c, 0, 57, 76
1, 452173, Note_on_c, 0, 73, 0
1, 452250, Note_on_c, 0, 85, 0
1, 452250, Note_on_c, 0, 57, 0
1, 452368, Note_on_c, 0, 45, 73
1, 452448, Note_on_c, 0, 49, 73
1, 452528, Note_on_c, 0, 52, 77
1, 452607, Note_on_c, 0, 45, 0
1, 452607, Note_on_c, 0, 49, 0
1, 452608, Note_on_c, 0, 69, 97
1, 452608, Note_on_c, 0, 81, 99
1, 452608, Note_on_c, 0, 52, 0
1, 452608, Note_on_c, 0, 57, 105
1, 452685, Note_on_c, 0, 69, 0
1, 452762, Note_on_c, 0, 81, 0
1, 452762, Note_on_c, 0, 57, 0
1, 453120, Note_on_c, 0, 73, 100
1, 453120, Note_on_c, 0, 85, 105
1, 453120, Note_on_c, 0, 57, 80
1, 453197, Note_on_c, 0, 73, 0
1, 453274, Note_on_c, 0, 85, 0
1, 453274, Note_on_c, 0, 57, 0
1, 453392, Note_on_c, 0, 45, 73
1, 453472, Note_on_c, 0, 49, 73
1, 453552, Note_on_c, 0, 52, 77
1, 453631, Note_on_c, 0, 45, 0
1, 453631, Note_on_c, 0, 49, 0
1, 453632, Note_on_c, 0, 69, 97
1, 453632, Note_on_c, 0, 81, 99
1, 453632, Note_on_c, 0, 52, 0
1, 453632, Note_on_c, 0, 57, 105
1, 453709, Note_on_c, 0, 69, 0
1, 453786, Note_on_c, 0, 81, 0
1, 453786, Note_on_c, 0, 57, 0
1, 454144, Note_on_c, 0, 76, 104
1, 454144, Note_on_c, 0, 88, 110
1, 454144, Note_on_c, 0, 57, 80
1, 454221, Note_on_c, 0, 76, 0
1, 454298, Note_on_c, 0, 88, 0
1, 454298, Note_on_c, 0, 57, 0
1, 454656, Note_on_c, 0, 69, 97
1, 454656, Note_on_c, 0, 81, 99
1, 454656, Note_on_c, 0, 45, 90
1, 454810, Note_on_c, 0, 69, 0
1, 454963, Note_on_c, 0, 81, 0
1, 454963, Note_on_c, 0, 45, 0
1, 455680, Note_on_c, 0, 69, 103
1, 455680, Note_on_c, 0, 73, 92
1, 455680, Note_on_c, 0, 76, 95
1, 455680, Note_on_c, 0, 81, 115
1, 455680, Note_on_c, 0, 45, 106
1, 455680, Note_on_c, 0, 49, 85
1, 455680, Note_on_c, 0, 52, 89
1, 455680, Note_on_c, 0, 57, 98
1, 455782, Note_on_c, 0, 69, 0
1, 455782, Note_on_c, 0, 45, 0
1, 455885, Note_on_c, 0, 73, 0
1, 455885, Note_on_c, 0, 49, 0
1, 455987, Note_on_c, 0, 76, 0
1, 455987, Note_on_c, 0, 52, 0
1, 456090, Note_on_c, 0, 81, 0
1, 456090, Note_on_c, 0, 57, 0
1, 456704, Note_on_c, 0, 69, 103
1, 456704, Note_on_c, 0, 73, 91
1, 456704, Note_on_c, 0, 76, 96
1, 456704, Note_on_c, 0, 81, 116
1, 456704, Note_on_c, 0, 45, 107
1, 456704, Note_on_c, 0, 49, 86
1, 456704, Note_on_c, 0, 52, 90
1, 456704, Note_on_c, 0, 57, 98
1, 457216, Note_on_c, 0, 69, 0
1, 457216, Note_on_c, 0, 73, 0
1, 457216, Note_on_c, 0, 76, 0
1, 457216, Note_on_c, 0, 81, 0
1, 457216, Note_on_c, 0, 45, 0
1, 457216, Note_on_c, 0, 49, 0
1, 457216, Note_on_c, 0, 52, 0
1, 457216, Note_on_c, 0, 57, 0
1, 457226, End_track
0, 0, End_of_file