0, 0, Header, 0, 1, 96
1, 0, Start_track
1, 0, Tempo, 500000
1, 96, Note_on_c, 0, 69, 77
1, 111, Note_on_c, 0, 69, 0
1, 112, Note_on_c, 0, 71, 77
1, 127, Note_on_c, 0, 71, 0
1, 128, Note_on_c, 0, 73, 77
1, 143, Note_on_c, 0, 73, 0
1, 144, Note_on_c, 0, 57, 77
1, 144, Note_on_c, 0, 61, 77
1, 144, Note_on_c, 0, 69, 77
1, 189, Note_on_c, 0, 69, 0
1, 192, Note_on_c, 0, 73, 77
1, 233, Note_on_c, 0, 57, 0
1, 233, Note_on_c, 0, 61, 0
1, 237, Note_on_c, 0, 73, 0
1, 240, Note_on_c, 0, 76, 77
1, 285, Note_on_c, 0, 76, 0
1, 288, Note_on_c, 0, 57, 77
1, 288, Note_on_c, 0, 61, 77
1, 288, Note_on_c, 0, 76, 77
1, 333, Note_on_c, 0, 76, 0
1, 336, Note_on_c, 0, 81, 77
1, 377, Note_on_c, 0, 57, 0
1, 377, Note_on_c, 0, 61, 0
1, 381, Note_on_c, 0, 81, 0
1, 384, Note_on_c, 0, 76, 77
1, 407, Note_on_c, 0, 76, 0
1, 408, Note_on_c, 0, 73, 77
1, 431, Note_on_c, 0, 73, 0
1, 432, Note_on_c, 0, 52, 77
1, 432, Note_on_c, 0, 62, 77
1, 432, Note_on_c, 0, 76, 77
1, 455, Note_on_c, 0, 76, 0
1, 456, Note_on_c, 0, 74, 77
1, 477, Note_on_c, 0, 62, 0
1, 479, Note_on_c, 0, 74, 0
1, 480, Note_on_c, 0, 56, 77
1, 480, Note_on_c, 0, 74, 77
1, 503, Note_on_c, 0, 74, 0
1, 504, Note_on_c, 0, 71, 77
1, 521, Note_on_c, 0, 52, 0
1, 525, Note_on_c, 0, 56, 0
1, 527, Note_on_c, 0, 71, 0
1, 528, Note_on_c, 0, 57, 77
1, 528, Note_on_c, 0, 57, 77
1, 528, Note_on_c, 0, 73, 77
1, 573, Note_on_c, 0, 57, 0
1, 573, Note_on_c, 0, 57, 0
1, 573, Note_on_c, 0, 73, 0
1, 576, Note_on_c, 0, 57, 77
1, 576, Note_on_c, 0, 61, 77
1, 576, Note_on_c, 0, 76, 77
1, 621, Note_on_c, 0, 76, 0
1, 624, Note_on_c, 0, 81, 77
1, 665, Note_on_c, 0, 57, 0
1, 665, Note_on_c, 0, 61, 0
1, 669, Note_on_c, 0, 81, 0
1, 672, Note_on_c, 0, 73, 77
1, 695, Note_on_c, 0, 73, 0
1, 696, Note_on_c, 0, 69, 77
1, 719, Note_on_c, 0, 69, 0
1, 720, Note_on_c, 0, 62, 77
1, 720, Note_on_c, 0, 73, 77
1, 743, Note_on_c, 0, 73, 0
1, 744, Note_on_c, 0, 71, 77
1, 765, Note_on_c, 0, 62, 0
1, 767, Note_on_c, 0, 71, 0
1, 768, Note_on_c, 0, 59, 77
1, 768, Note_on_c, 0, 71, 77
1, 791, Note_on_c, 0, 71, 0
1, 792, Note_on_c, 0, 68, 77
1, 813, Note_on_c, 0, 59, 0
1, 815, Note_on_c, 0, 68, 0
1, 816, Note_on_c, 0, 61, 77
1, 816, Note_on_c, 0, 69, 77
1, 861, Note_on_c, 0, 61, 0
1, 861, Note_on_c, 0, 69, 0
1, 864, Note_on_c, 0, 64, 77
1, 909, Note_on_c, 0, 64, 0
1, 912, Note_on_c, 0, 56, 77
1, 912, Note_on_c, 0, 71, 77
1, 912, Note_on_c, 0, 74, 77
1, 957, Note_on_c, 0, 56, 0
1, 957, Note_on_c, 0, 71, 0
1, 957, Note_on_c, 0, 74, 0
1, 960, Note_on_c, 0, 57, 77
1, 960, Note_on_c, 0, 69, 77
1, 960, Note_on_c, 0, 73, 77
1, 1005, Note_on_c, 0, 57, 0
1, 1005, Note_on_c, 0, 69, 0
1, 1005, Note_on_c, 0, 73, 0
1, 1008, Note_on_c, 0, 52, 77
1, 1008, Note_on_c, 0, 69, 77
1, 1008, Note_on_c, 0, 74, 77
1, 1020, Note_on_c, 0, 73, 77
1, 1020, Note_on_c, 0, 74, 0
1, 1032, Note_on_c, 0, 73, 0
1, 1032, Note_on_c, 0, 74, 77
1, 1044, Note_on_c, 0, 73, 77
1, 1044, Note_on_c, 0, 74, 0
1, 1056, Note_on_c, 0, 68, 77
1, 1056, Note_on_c, 0, 69, 0
1, 1056, Note_on_c, 0, 71, 77
1, 1056, Note_on_c, 0, 73, 0
1, 1097, Note_on_c, 0, 52, 0
1, 1101, Note_on_c, 0, 68, 0
1, 1101, Note_on_c, 0, 71, 0
1, 1104, Note_on_c, 0, 54, 77
1, 1149, Note_on_c, 0, 54, 0
1, 1152, Note_on_c, 0, 56, 77
1, 1152, Note_on_c, 0, 71, 77
1, 1175, Note_on_c, 0, 56, 0
1, 1176, Note_on_c, 0, 64, 77
1, 1197, Note_on_c, 0, 71, 0
1, 1199, Note_on_c, 0, 64, 0
1, 1200, Note_on_c, 0, 59, 77
1, 1200, Note_on_c, 0, 76, 77
1, 1215, Note_on_c, 0, 76, 0
1, 1216, Note_on_c, 0, 74, 77
1, 1223, Note_on_c, 0, 59, 0
1, 1224, Note_on_c, 0, 64, 77
1, 1231, Note_on_c, 0, 74, 0
1, 1232, Note_on_c, 0, 73, 77
1, 1247, Note_on_c, 0, 64, 0
1, 1247, Note_on_c, 0, 73, 0
1, 1248, Note_on_c, 0, 56, 77
1, 1248, Note_on_c, 0, 74, 77
1, 1263, Note_on_c, 0, 74, 0
1, 1264, Note_on_c, 0, 73, 77
1, 1271, Note_on_c, 0, 56, 0
1, 1272, Note_on_c, 0, 64, 77
1, 1279, Note_on_c, 0, 73, 0
1, 1280, Note_on_c, 0, 71, 77
1, 1295, Note_on_c, 0, 64, 0
1, 1295, Note_on_c, 0, 71, 0
1, 1296, Note_on_c, 0, 57, 77
1, 1296, Note_on_c, 0, 73, 77
1, 1311, Note_on_c, 0, 73, 0
1, 1312, Note_on_c, 0, 69, 77
1, 1319, Note_on_c, 0, 57, 0
1, 1320, Note_on_c, 0, 64, 77
1, 1327, Note_on_c, 0, 69, 0
1, 1328, Note_on_c, 0, 73, 77
1, 1343, Note_on_c, 0, 64, 0
1, 1343, Note_on_c, 0, 73, 0
1, 1344, Note_on_c, 0, 61, 77
1, 1344, Note_on_c, 0, 76, 77
1, 1359, Note_on_c, 0, 76, 0
1, 1360, Note_on_c, 0, 73, 77
1, 1367, Note_on_c, 0, 61, 0
1, 1368, Note_on_c, 0, 64, 77
1, 1375, Note_on_c, 0, 73, 0
1, 1376, Note_on_c, 0, 76, 77
1, 1391, Note_on_c, 0, 64, 0
1, 1391, Note_on_c, 0, 76, 0
1, 1392, Note_on_c, 0, 57, 77
1, 1392, Note_on_c, 0, 81, 77
1, 1415, Note_on_c, 0, 57, 0
1, 1416, Note_on_c, 0, 64, 77
1, 1437, Note_on_c, 0, 81, 0
1, 1439, Note_on_c, 0, 64, 0
1, 1440, Note_on_c, 0, 58, 77
1, 1440, Note_on_c, 0, 73, 77
1, 1463, Note_on_c, 0, 58, 0
1, 1464, Note_on_c, 0, 66, 77
1, 1485, Note_on_c, 0, 73, 0
1, 1487, Note_on_c, 0, 66, 0
1, 1488, Note_on_c, 0, 61, 77
1, 1488, Note_on_c, 0, 78, 77
1, 1503, Note_on_c, 0, 78, 0
1, 1504, Note_on_c, 0, 76, 77
1, 1511, Note_on_c, 0, 61, 0
1, 1512, Note_on_c, 0, 66, 77
1, 1519, Note_on_c, 0, 76, 0
1, 1520, Note_on_c, 0, 75, 77
1, 1535, Note_on_c, 0, 66, 0
1, 1535, Note_on_c, 0, 75, 0
1, 1536, Note_on_c, 0, 58, 77
1, 1536, Note_on_c, 0, 76, 77
1, 1551, Note_on_c, 0, 76, 0
1, 1552, Note_on_c, 0, 75, 77
1, 1559, Note_on_c, 0, 58, 0
1, 1560, Note_on_c, 0, 66, 77
1, 1567, Note_on_c, 0, 75, 0
1, 1568, Note_on_c, 0, 73, 77
1, 1583, Note_on_c, 0, 66, 0
1, 1583, Note_on_c, 0, 73, 0
1, 1584, Note_on_c, 0, 59, 77
1, 1584, Note_on_c, 0, 75, 77
1, 1599, Note_on_c, 0, 75, 0
1, 1600, Note_on_c, 0, 71, 77
1, 1607, Note_on_c, 0, 59, 0
1, 1608, Note_on_c, 0, 66, 77
1, 1615, Note_on_c, 0, 71, 0
1, 1616, Note_on_c, 0, 75, 77
1, 1631, Note_on_c, 0, 66, 0
1, 1631, Note_on_c, 0, 75, 0
1, 1632, Note_on_c, 0, 63, 77
1, 1632, Note_on_c, 0, 78, 77
1, 1647, Note_on_c, 0, 78, 0
1, 1648, Note_on_c, 0, 75, 77
1, 1655, Note_on_c, 0, 63, 0
1, 1656, Note_on_c, 0, 66, 77
1, 1663, Note_on_c, 0, 75, 0
1, 1664, Note_on_c, 0, 78, 77
1, 1679, Note_on_c, 0, 66, 0
1, 1679, Note_on_c, 0, 78, 0
1, 1680, Note_on_c, 0, 59, 77
1, 1680, Note_on_c, 0, 83, 77
1, 1703, Note_on_c, 0, 59, 0
1, 1704, Note_on_c, 0, 66, 77
1, 1725, Note_on_c, 0, 83, 0
1, 1727, Note_on_c, 0, 66, 0
1, 1728, Note_on_c, 0, 63, 77
1, 1728, Note_on_c, 0, 71, 77
1, 1751, Note_on_c, 0, 63, 0
1, 1752, Note_on_c, 0, 71, 77
1, 1773, Note_on_c, 0, 71, 0
1, 1775, Note_on_c, 0, 71, 0
1, 1776, Note_on_c, 0, 66, 77
1, 1776, Note_on_c, 0, 81, 77
1, 1799, Note_on_c, 0, 66, 0
1, 1799, Note_on_c, 0, 81, 0
1, 1800, Note_on_c, 0, 71, 77
1, 1800, Note_on_c, 0, 78, 77
1, 1823, Note_on_c, 0, 71, 0
1, 1823, Note_on_c, 0, 78, 0
1, 1824, Note_on_c, 0, 64, 77
1, 1824, Note_on_c, 0, 80, 77
1, 1847, Note_on_c, 0, 64, 0
1, 1847, Note_on_c, 0, 80, 0
1, 1848, Note_on_c, 0, 71, 77
1, 1848, Note_on_c, 0, 76, 77
1, 1871, Note_on_c, 0, 71, 0
1, 1871, Note_on_c, 0, 76, 0
1, 1872, Note_on_c, 0, 66, 77
1, 1872, Note_on_c, 0, 76, 77
1, 1895, Note_on_c, 0, 66, 0
1, 1895, Note_on_c, 0, 76, 0
1, 1896, Note_on_c, 0, 71, 77
1, 1896, Note_on_c, 0, 75, 77
1, 1919, Note_on_c, 0, 71, 0
1, 1919, Note_on_c, 0, 75, 0
1, 1920, Note_on_c, 0, 69, 77
1, 1920, Note_on_c, 0, 78, 77
1, 1943, Note_on_c, 0, 69, 0
1, 1943, Note_on_c, 0, 78, 0
1, 1944, Note_on_c, 0, 71, 77
1, 1944, Note_on_c, 0, 75, 77
1, 1967, Note_on_c, 0, 71, 0
1, 1967, Note_on_c, 0, 75, 0
1, 1968, Note_on_c, 0, 68, 77
1, 1968, Note_on_c, 0, 76, 77
1, 1991, Note_on_c, 0, 68, 0
1, 1992, Note_on_c, 0, 71, 77
1, 2013, Note_on_c, 0, 76, 0
1, 2015, Note_on_c, 0, 71, 0
1, 2016, Note_on_c, 0, 63, 69
1, 2016, Note_on_c, 0, 71, 69
1, 2039, Note_on_c, 0, 63, 0
1, 2040, Note_on_c, 0, 71, 69
1, 2061, Note_on_c, 0, 71, 0
1, 2063, Note_on_c, 0, 71, 0
1, 2064, Note_on_c, 0, 66, 69
1, 2064, Note_on_c, 0, 81, 69
1, 2087, Note_on_c, 0, 66, 0
1, 2087, Note_on_c, 0, 81, 0
1, 2088, Note_on_c, 0, 71, 69
1, 2088, Note_on_c, 0, 78, 69
1, 2111, Note_on_c, 0, 71, 0
1, 2111, Note_on_c, 0, 78, 0
1, 2112, Note_on_c, 0, 64, 69
1, 2112, Note_on_c, 0, 80, 69
1, 2135, Note_on_c, 0, 64, 0
1, 2135, Note_on_c, 0, 80, 0
1, 2136, Note_on_c, 0, 71, 69
1, 2136, Note_on_c, 0, 76, 69
1, 2159, Note_on_c, 0, 71, 0
1, 2159, Note_on_c, 0, 76, 0
1, 2160, Note_on_c, 0, 66, 69
1, 2160, Note_on_c, 0, 76, 69
1, 2183, Note_on_c, 0, 66, 0
1, 2183, Note_on_c, 0, 76, 0
1, 2184, Note_on_c, 0, 71, 69
1, 2184, Note_on_c, 0, 75, 69
1, 2207, Note_on_c, 0, 71, 0
1, 2207, Note_on_c, 0, 75, 0
1, 2208, Note_on_c, 0, 69, 69
1, 2208, Note_on_c, 0, 78, 69
1, 2231, Note_on_c, 0, 69, 0
1, 2231, Note_on_c, 0, 78, 0
1, 2232, Note_on_c, 0, 71, 69
1, 2232, Note_on_c, 0, 75, 69
1, 2255, Note_on_c, 0, 71, 0
1, 2255, Note_on_c, 0, 75, 0
1, 2256, Note_on_c, 0, 68, 69
1, 2256, Note_on_c, 0, 76, 69
1, 2279, Note_on_c, 0, 68, 0
1, 2280, Note_on_c, 0, 71, 69
1, 2301, Note_on_c, 0, 76, 0
1, 2303, Note_on_c, 0, 71, 0
1, 2304, Note_on_c, 0, 69, 69
1, 2304, Note_on_c, 0, 74, 77
1, 2316, Note_on_c, 0, 73, 77
1, 2316, Note_on_c, 0, 74, 0
1, 2328, Note_on_c, 0, 71, 77
1, 2328, Note_on_c, 0, 73, 0
1, 2340, Note_on_c, 0, 71, 0
1, 2340, Note_on_c, 0, 73, 77
1, 2349, Note_on_c, 0, 69, 0
1, 2352, Note_on_c, 0, 66, 69
1, 2352, Note_on_c, 0, 73, 0
1, 2352, Note_on_c, 0, 81, 77
1, 2397, Note_on_c, 0, 66, 0
1, 2397, Note_on_c, 0, 81, 0
1, 2400, Note_on_c, 0, 63, 69
1, 2445, Note_on_c, 0, 63, 0
1, 2448, Note_on_c, 0, 68, 69
1, 2448, Note_on_c, 0, 73, 77
1, 2460, Note_on_c, 0, 71, 77
1, 2460, Note_on_c, 0, 73, 0
1, 2472, Note_on_c, 0, 69, 77
1, 2472, Note_on_c, 0, 71, 0
1, 2484, Note_on_c, 0, 69, 0
1, 2484, Note_on_c, 0, 71, 77
1, 2493, Note_on_c, 0, 68, 0
1, 2496, Note_on_c, 0, 64, 69
1, 2496, Note_on_c, 0, 71, 0
1, 2496, Note_on_c, 0, 80, 77
1, 2541, Note_on_c, 0, 64, 0
1, 2541, Note_on_c, 0, 80, 0
1, 2544, Note_on_c, 0, 61, 69
1, 2589, Note_on_c, 0, 61, 0
1, 2592, Note_on_c, 0, 66, 69
1, 2592, Note_on_c, 0, 71, 77
1, 2604, Note_on_c, 0, 69, 77
1, 2604, Note_on_c, 0, 71, 0
1, 2616, Note_on_c, 0, 68, 77
1, 2616, Note_on_c, 0, 69, 0
1, 2628, Note_on_c, 0, 68, 0
1, 2628, Note_on_c, 0, 69, 77
1, 2637, Note_on_c, 0, 66, 0
1, 2640, Note_on_c, 0, 63, 69
1, 2640, Note_on_c, 0, 69, 0
1, 2640, Note_on_c, 0, 78, 77
1, 2685, Note_on_c, 0, 63, 0
1, 2685, Note_on_c, 0, 78, 0
1, 2688, Note_on_c, 0, 59, 69
1, 2733, Note_on_c, 0, 59, 0
1, 2736, Note_on_c, 0, 64, 69
1, 2736, Note_on_c, 0, 69, 77
1, 2748, Note_on_c, 0, 68, 77
1, 2748, Note_on_c, 0, 69, 0
1, 2760, Note_on_c, 0, 66, 77
1, 2760, Note_on_c, 0, 68, 0
1, 2772, Note_on_c, 0, 66, 0
1, 2772, Note_on_c, 0, 68, 77
1, 2784, Note_on_c, 0, 68, 0
1, 2784, Note_on_c, 0, 76, 77
1, 2825, Note_on_c, 0, 64, 0
1, 2829, Note_on_c, 0, 76, 0
1, 2832, Note_on_c, 0, 63, 69
1, 2877, Note_on_c, 0, 63, 0
1, 2880, Note_on_c, 0, 61, 77
1, 2880, Note_on_c, 0, 69, 77
1, 2892, Note_on_c, 0, 68, 77
1, 2892, Note_on_c, 0, 69, 0
1, 2904, Note_on_c, 0, 66, 77
1, 2904, Note_on_c, 0, 68, 0
1, 2916, Note_on_c, 0, 66, 0
1, 2916, Note_on_c, 0, 68, 77
1, 2928, Note_on_c, 0, 68, 0
1, 2928, Note_on_c, 0, 76, 77
1, 2969, Note_on_c, 0, 61, 0
1, 2973, Note_on_c, 0, 76, 0
1, 2976, Note_on_c, 0, 56, 77
1, 3021, Note_on_c, 0, 56, 0
1, 3024, Note_on_c, 0, 57, 77
1, 3024, Note_on_c, 0, 68, 77
1, 3036, Note_on_c, 0, 66, 77
1, 3036, Note_on_c, 0, 68, 0
1, 3048, Note_on_c, 0, 64, 77
1, 3048, Note_on_c, 0, 66, 0
1, 3060, Note_on_c, 0, 64, 0
1, 3060, Note_on_c, 0, 66, 77
1, 3069, Note_on_c, 0, 57, 0
1, 3072, Note_on_c, 0, 54, 77
1, 3072, Note_on_c, 0, 66, 0
1, 3096, Note_on_c, 0, 69, 77
1, 3117, Note_on_c, 0, 54, 0
1, 3119, Note_on_c, 0, 69, 0
1, 3120, Note_on_c, 0, 59, 77
1, 3120, Note_on_c, 0, 68, 77
1, 3132, Note_on_c, 0, 68, 0
1, 3132, Note_on_c, 0, 71, 77
1, 3144, Note_on_c, 0, 63, 77
1, 3144, Note_on_c, 0, 71, 0
1, 3156, Note_on_c, 0, 63, 0
1, 3156, Note_on_c, 0, 66, 77
1, 3165, Note_on_c, 0, 59, 0
1, 3168, Note_on_c, 0, 52, 77
1, 3168, Note_on_c, 0, 64, 77
1, 3168, Note_on_c, 0, 66, 0
1, 3257, Note_on_c, 0, 52, 0
1, 3257, Note_on_c, 0, 64, 0
1, 3312, Note_on_c, 0, 67, 61
1, 3312, Note_on_c, 0, 71, 61
1, 3312, Note_on_c, 0, 76, 61
1, 3357, Note_on_c, 0, 67, 0
1, 3357, Note_on_c, 0, 71, 0
1, 3357, Note_on_c, 0, 76, 0
1, 3360, Note_on_c, 0, 69, 61
1, 3360, Note_on_c, 0, 72, 61
1, 3360, Note_on_c, 0, 78, 61
1, 3405, Note_on_c, 0, 69, 0
1, 3405, Note_on_c, 0, 72, 0
1, 3405, Note_on_c, 0, 78, 0
1, 3408, Note_on_c, 0, 66, 61
1, 3408, Note_on_c, 0, 69, 61
1, 3408, Note_on_c, 0, 75, 61
1, 3453, Note_on_c, 0, 66, 0
1, 3453, Note_on_c, 0, 69, 0
1, 3453, Note_on_c, 0, 75, 0
1, 3456, Note_on_c, 0, 67, 61
1, 3456, Note_on_c, 0, 71, 61
1, 3456, Note_on_c, 0, 76, 61
1, 3479, Note_on_c, 0, 76, 0
1, 3480, Note_on_c, 0, 84, 61
1, 3503, Note_on_c, 0, 84, 0
1, 3504, Note_on_c, 0, 83, 61
1, 3527, Note_on_c, 0, 83, 0
1, 3528, Note_on_c, 0, 81, 61
1, 3545, Note_on_c, 0, 67, 0
1, 3545, Note_on_c, 0, 71, 0
1, 3551, Note_on_c, 0, 81, 0
1, 3552, Note_on_c, 0, 79, 61
1, 3575, Note_on_c, 0, 79, 0
1, 3576, Note_on_c, 0, 78, 61
1, 3599, Note_on_c, 0, 78, 0
1, 3600, Note_on_c, 0, 67, 61
1, 3600, Note_on_c, 0, 71, 61
1, 3600, Note_on_c, 0, 76, 61
1, 3645, Note_on_c, 0, 67, 0
1, 3645, Note_on_c, 0, 71, 0
1, 3645, Note_on_c, 0, 76, 0
1, 3648, Note_on_c, 0, 69, 61
1, 3648, Note_on_c, 0, 72, 61
1, 3648, Note_on_c, 0, 78, 61
1, 3693, Note_on_c, 0, 69, 0
1, 3693, Note_on_c, 0, 72, 0
1, 3693, Note_on_c, 0, 78, 0
1, 3696, Note_on_c, 0, 66, 61
1, 3696, Note_on_c, 0, 69, 61
1, 3696, Note_on_c, 0, 75, 61
1, 3741, Note_on_c, 0, 66, 0
1, 3741, Note_on_c, 0, 69, 0
1, 3741, Note_on_c, 0, 75, 0
1, 3744, Note_on_c, 0, 67, 61
1, 3744, Note_on_c, 0, 71, 61
1, 3744, Note_on_c, 0, 76, 61
1, 3767, Note_on_c, 0, 76, 0
1, 3768, Note_on_c, 0, 78, 61
1, 3791, Note_on_c, 0, 78, 0
1, 3792, Note_on_c, 0, 79, 61
1, 3815, Note_on_c, 0, 79, 0
1, 3816, Note_on_c, 0, 81, 61
1, 3833, Note_on_c, 0, 67, 0
1, 3833, Note_on_c, 0, 71, 0
1, 3839, Note_on_c, 0, 81, 0
1, 3840, Note_on_c, 0, 83, 61
1, 3885, Note_on_c, 0, 83, 0
1, 3888, Note_on_c, 0, 69, 61
1, 3888, Note_on_c, 0, 83, 61
1, 3912, Note_on_c, 0, 83, 0
1, 3912, Note_on_c, 0, 84, 61
1, 3933, Note_on_c, 0, 69, 0
1, 3935, Note_on_c, 0, 84, 0
1, 3936, Note_on_c, 0, 66, 61
1, 3936, Note_on_c, 0, 81, 61
1, 3981, Note_on_c, 0, 66, 0
1, 3981, Note_on_c, 0, 81, 0
1, 3984, Note_on_c, 0, 62, 61
1, 3984, Note_on_c, 0, 78, 61
1, 4029, Note_on_c, 0, 62, 0
1, 4029, Note_on_c, 0, 78, 0
1, 4032, Note_on_c, 0, 67, 61
1, 4032, Note_on_c, 0, 82, 61
1, 4056, Note_on_c, 0, 82, 0
1, 4056, Note_on_c, 0, 83, 61
1, 4077, Note_on_c, 0, 67, 0
1, 4079, Note_on_c, 0, 83, 0
1, 4080, Note_on_c, 0, 64, 61
1, 4080, Note_on_c, 0, 79, 61
1, 4125, Note_on_c, 0, 64, 0
1, 4125, Note_on_c, 0, 79, 0
1, 4128, Note_on_c, 0, 60, 61
1, 4173, Note_on_c, 0, 60, 0
1, 4176, Note_on_c, 0, 66, 61
1, 4176, Note_on_c, 0, 80, 61
1, 4200, Note_on_c, 0, 80, 0
1, 4200, Note_on_c, 0, 81, 61
1, 4221, Note_on_c, 0, 66, 0
1, 4223, Note_on_c, 0, 81, 0
1, 4224, Note_on_c, 0, 63, 61
1, 4224, Note_on_c, 0, 78, 61
1, 4269, Note_on_c, 0, 63, 0
1, 4269, Note_on_c, 0, 78, 0
1, 4272, Note_on_c, 0, 59, 61
1, 4272, Note_on_c, 0, 75, 61
1, 4317, Note_on_c, 0, 59, 0
1, 4317, Note_on_c, 0, 75, 0
1, 4320, Note_on_c, 0, 64, 61
1, 4320, Note_on_c, 0, 78, 61
1, 4344, Note_on_c, 0, 78, 0
1, 4344, Note_on_c, 0, 79, 61
1, 4365, Note_on_c, 0, 64, 0
1, 4367, Note_on_c, 0, 79, 0
1, 4368, Note_on_c, 0, 67, 61
1, 4368, Note_on_c, 0, 76, 61
1, 4413, Note_on_c, 0, 67, 0
1, 4413, Note_on_c, 0, 76, 0
1, 4416, Note_on_c, 0, 64, 61
1, 4461, Note_on_c, 0, 64, 0
1, 4464, Note_on_c, 0, 75, 61
1, 4487, Note_on_c, 0, 75, 0
1, 4488, Note_on_c, 0, 76, 61
1, 4511, Note_on_c, 0, 76, 0
1, 4512, Note_on_c, 0, 63, 61
1, 4512, Note_on_c, 0, 78, 61
1, 4535, Note_on_c, 0, 63, 0
1, 4535, Note_on_c, 0, 78, 0
1, 4536, Note_on_c, 0, 64, 61
1, 4536, Note_on_c, 0, 79, 61
1, 4559, Note_on_c, 0, 64, 0
1, 4559, Note_on_c, 0, 79, 0
1, 4560, Note_on_c, 0, 66, 61
1, 4560, Note_on_c, 0, 81, 61
1, 4583, Note_on_c, 0, 66, 0
1, 4583, Note_on_c, 0, 81, 0
1, 4584, Note_on_c, 0, 64, 61
1, 4584, Note_on_c, 0, 79, 61
1, 4607, Note_on_c, 0, 64, 0
1, 4607, Note_on_c, 0, 79, 0
1, 4608, Note_on_c, 0, 47, 77
1, 4608, Note_on_c, 0, 59, 77
1, 4608, Note_on_c, 0, 64, 61
1, 4608, Note_on_c, 0, 79, 61
1, 4620, Note_on_c, 0, 79, 0
1, 4620, Note_on_c, 0, 81, 61
1, 4632, Note_on_c, 0, 79, 61
1, 4632, Note_on_c, 0, 81, 0
1, 4653, Note_on_c, 0, 64, 0
1, 4653, Note_on_c, 0, 79, 0
1, 4656, Note_on_c, 0, 63, 61
1, 4656, Note_on_c, 0, 78, 61
1, 4697, Note_on_c, 0, 47, 0
1, 4697, Note_on_c, 0, 59, 0
1, 4701, Note_on_c, 0, 63, 0
1, 4701, Note_on_c, 0, 78, 0
1, 4704, Note_on_c, 0, 76, 61
1, 4719, Note_on_c, 0, 76, 0
1, 4720, Note_on_c, 0, 78, 65
1, 4735, Note_on_c, 0, 78, 0
1, 4736, Note_on_c, 0, 80, 69
1, 4751, Note_on_c, 0, 80, 0
1, 4752, Note_on_c, 0, 40, 85
1, 4752, Note_on_c, 0, 52, 85
1, 4752, Note_on_c, 0, 76, 85
1, 4797, Note_on_c, 0, 76, 0
1, 4800, Note_on_c, 0, 76, 85
1, 4800, Note_on_c, 0, 80, 85
1, 4841, Note_on_c, 0, 40, 0
1, 4841, Note_on_c, 0, 52, 0
1, 4845, Note_on_c, 0, 76, 0
1, 4845, Note_on_c, 0, 80, 0
1, 4848, Note_on_c, 0, 80, 85
1, 4848, Note_on_c, 0, 83, 85
1, 4893, Note_on_c, 0, 80, 0
1, 4893, Note_on_c, 0, 83, 0
1, 4896, Note_on_c, 0, 47, 85
1, 4896, Note_on_c, 0, 59, 85
1, 4896, Note_on_c, 0, 80, 85
1, 4896, Note_on_c, 0, 83, 85
1, 4941, Note_on_c, 0, 80, 0
1, 4941, Note_on_c, 0, 83, 0
1, 4944, Note_on_c, 0, 78, 85
1, 4944, Note_on_c, 0, 81, 85
1, 4985, Note_on_c, 0, 47, 0
1, 4985, Note_on_c, 0, 59, 0
1, 4989, Note_on_c, 0, 78, 0
1, 4989, Note_on_c, 0, 81, 0
1, 4992, Note_on_c, 0, 75, 85
1, 5007, Note_on_c, 0, 75, 0
1, 5008, Note_on_c, 0, 76, 85
1, 5023, Note_on_c, 0, 76, 0
1, 5024, Note_on_c, 0, 78, 85
1, 5039, Note_on_c, 0, 78, 0
1, 5040, Note_on_c, 0, 35, 85
1, 5040, Note_on_c, 0, 47, 85
1, 5040, Note_on_c, 0, 71, 85
1, 5085, Note_on_c, 0, 71, 0
1, 5088, Note_on_c, 0, 75, 85
1, 5088, Note_on_c, 0, 78, 85
1, 5129, Note_on_c, 0, 35, 0
1, 5129, Note_on_c, 0, 47, 0
1, 5133, Note_on_c, 0, 75, 0
1, 5133, Note_on_c, 0, 78, 0
1, 5136, Note_on_c, 0, 78, 85
1, 5136, Note_on_c, 0, 81, 85
1, 5181, Note_on_c, 0, 78, 0
1, 5181, Note_on_c, 0, 81, 0
1, 5184, Note_on_c, 0, 40, 85
1, 5184, Note_on_c, 0, 52, 85
1, 5184, Note_on_c, 0, 78, 85
1, 5184, Note_on_c, 0, 81, 85
1, 5229, Note_on_c, 0, 78, 0
1, 5229, Note_on_c, 0, 81, 0
1, 5232, Note_on_c, 0, 76, 85
1, 5232, Note_on_c, 0, 80, 85
1, 5273, Note_on_c, 0, 40, 0
1, 5273, Note_on_c, 0, 52, 0
1, 5277, Note_on_c, 0, 76, 0
1, 5277, Note_on_c, 0, 80, 0
1, 5280, Note_on_c, 0, 76, 85
1, 5295, Note_on_c, 0, 76, 0
1, 5296, Note_on_c, 0, 78, 85
1, 5311, Note_on_c, 0, 78, 0
1, 5312, Note_on_c, 0, 80, 85
1, 5327, Note_on_c, 0, 80, 0
1, 5328, Note_on_c, 0, 40, 85
1, 5328, Note_on_c, 0, 52, 85
1, 5328, Note_on_c, 0, 76, 85
1, 5373, Note_on_c, 0, 76, 0
1, 5376, Note_on_c, 0, 76, 85
1, 5376, Note_on_c, 0, 80, 85
1, 5417, Note_on_c, 0, 40, 0
1, 5417, Note_on_c, 0, 52, 0
1, 5421, Note_on_c, 0, 76, 0
1, 5421, Note_on_c, 0, 80, 0
1, 5424, Note_on_c, 0, 80, 85
1, 5424, Note_on_c, 0, 83, 85
1, 5469, Note_on_c, 0, 80, 0
1, 5469, Note_on_c, 0, 83, 0
1, 5472, Note_on_c, 0, 47, 85
1, 5472, Note_on_c, 0, 59, 85
1, 5472, Note_on_c, 0, 80, 85
1, 5472, Note_on_c, 0, 83, 85
1, 5517, Note_on_c, 0, 80, 0
1, 5517, Note_on_c, 0, 83, 0
1, 5520, Note_on_c, 0, 78, 85
1, 5520, Note_on_c, 0, 81, 85
1, 5561, Note_on_c, 0, 47, 0
1, 5561, Note_on_c, 0, 59, 0
1, 5565, Note_on_c, 0, 78, 0
1, 5565, Note_on_c, 0, 81, 0
1, 5568, Note_on_c, 0, 75, 85
1, 5583, Note_on_c, 0, 75, 0
1, 5584, Note_on_c, 0, 76, 85
1, 5599, Note_on_c, 0, 76, 0
1, 5600, Note_on_c, 0, 78, 85
1, 5615, Note_on_c, 0, 78, 0
1, 5616, Note_on_c, 0, 35, 85
1, 5616, Note_on_c, 0, 47, 85
1, 5616, Note_on_c, 0, 71, 85
1, 5661, Note_on_c, 0, 71, 0
1, 5664, Note_on_c, 0, 75, 85
1, 5664, Note_on_c, 0, 78, 85
1, 5705, Note_on_c, 0, 35, 0
1, 5705, Note_on_c, 0, 47, 0
1, 5709, Note_on_c, 0, 75, 0
1, 5709, Note_on_c, 0, 78, 0
1, 5712, Note_on_c, 0, 78, 85
1, 5712, Note_on_c, 0, 81, 85
1, 5757, Note_on_c, 0, 78, 0
1, 5757, Note_on_c, 0, 81, 0
1, 5760, Note_on_c, 0, 40, 85
1, 5760, Note_on_c, 0, 52, 85
1, 5760, Note_on_c, 0, 78, 85
1, 5760, Note_on_c, 0, 81, 85
1, 5805, Note_on_c, 0, 78, 0
1, 5805, Note_on_c, 0, 81, 0
1, 5808, Note_on_c, 0, 76, 85
1, 5808, Note_on_c, 0, 80, 85
1, 5849, Note_on_c, 0, 40, 0
1, 5849, Note_on_c, 0, 52, 0
1, 5853, Note_on_c, 0, 76, 0
1, 5853, Note_on_c, 0, 80, 0
1, 5856, Note_on_c, 0, 76, 77
1, 5871, Note_on_c, 0, 76, 0
1, 5872, Note_on_c, 0, 78, 77
1, 5887, Note_on_c, 0, 78, 0
1, 5888, Note_on_c, 0, 80, 77
1, 5903, Note_on_c, 0, 80, 0
1, 5904, Note_on_c, 0, 56, 77
1, 5904, Note_on_c, 0, 71, 77
1, 5949, Note_on_c, 0, 71, 0
1, 5952, Note_on_c, 0, 76, 77
1, 5993, Note_on_c, 0, 56, 0
1, 5997, Note_on_c, 0, 76, 0
1, 6000, Note_on_c, 0, 74, 77
1, 6045, Note_on_c, 0, 74, 0
1, 6048, Note_on_c, 0, 57, 77
1, 6048, Note_on_c, 0, 76, 77
1, 6060, Note_on_c, 0, 74, 77
1, 6060, Note_on_c, 0, 76, 0
1, 6072, Note_on_c, 0, 74, 0
1, 6072, Note_on_c, 0, 76, 77
1, 6084, Note_on_c, 0, 74, 77
1, 6084, Note_on_c, 0, 76, 0
1, 6096, Note_on_c, 0, 73, 77
1, 6096, Note_on_c, 0, 74, 0
1, 6137, Note_on_c, 0, 57, 0
1, 6141, Note_on_c, 0, 73, 0
1, 6144, Note_on_c, 0, 54, 77
1, 6144, Note_on_c, 0, 75, 77
1, 6159, Note_on_c, 0, 75, 0
1, 6160, Note_on_c, 0, 78, 77
1, 6175, Note_on_c, 0, 78, 0
1, 6176, Note_on_c, 0, 81, 77
1, 6189, Note_on_c, 0, 54, 0
1, 6191, Note_on_c, 0, 81, 0
1, 6192, Note_on_c, 0, 52, 77
1, 6192, Note_on_c, 0, 80, 77
1, 6207, Note_on_c, 0, 80, 0
1, 6208, Note_on_c, 0, 81, 77
1, 6223, Note_on_c, 0, 81, 0
1, 6224, Note_on_c, 0, 83, 77
1, 6237, Note_on_c, 0, 52, 0
1, 6239, Note_on_c, 0, 83, 0
1, 6240, Note_on_c, 0, 56, 77
1, 6240, Note_on_c, 0, 76, 77
1, 6285, Note_on_c, 0, 56, 0
1, 6285, Note_on_c, 0, 76, 0
1, 6288, Note_on_c, 0, 59, 77
1, 6288, Note_on_c, 0, 76, 77
1, 6300, Note_on_c, 0, 75, 77
1, 6300, Note_on_c, 0, 76, 0
1, 6312, Note_on_c, 0, 75, 0
1, 6312, Note_on_c, 0, 76, 77
1, 6324, Note_on_c, 0, 75, 77
1, 6324, Note_on_c, 0, 76, 0
1, 6333, Note_on_c, 0, 59, 0
1, 6336, Note_on_c, 0, 52, 77
1, 6336, Note_on_c, 0, 75, 0
1, 6336, Note_on_c, 0, 75, 77
1, 6381, Note_on_c, 0, 75, 0
1, 6384, Note_on_c, 0, 76, 77
1, 6425, Note_on_c, 0, 52, 0
1, 6429, Note_on_c, 0, 76, 0
1, 6432, Note_on_c, 0, 69, 77
1, 6447, Note_on_c, 0, 69, 0
1, 6448, Note_on_c, 0, 71, 77
1, 6463, Note_on_c, 0, 71, 0
1, 6464, Note_on_c, 0, 73, 77
1, 6479, Note_on_c, 0, 73, 0
1, 6480, Note_on_c, 0, 57, 77
1, 6480, Note_on_c, 0, 61, 77
1, 6480, Note_on_c, 0, 69, 77
1, 6525, Note_on_c, 0, 69, 0
1, 6528, Note_on_c, 0, 73, 77
1, 6569, Note_on_c, 0, 57, 0
1, 6569, Note_on_c, 0, 61, 0
1, 6573, Note_on_c, 0, 73, 0
1, 6576, Note_on_c, 0, 76, 77
1, 6621, Note_on_c, 0, 76, 0
1, 6624, Note_on_c, 0, 57, 77
1, 6624, Note_on_c, 0, 61, 77
1, 6624, Note_on_c, 0, 76, 77
1, 6669, Note_on_c, 0, 76, 0
1, 6672, Note_on_c, 0, 81, 77
1, 6713, Note_on_c, 0, 57, 0
1, 6713, Note_on_c, 0, 61, 0
1, 6717, Note_on_c, 0, 81, 0
1, 6720, Note_on_c, 0, 76, 77
1, 6743, Note_on_c, 0, 76, 0
1, 6744, Note_on_c, 0, 73, 77
1, 6767, Note_on_c, 0, 73, 0
1, 6768, Note_on_c, 0, 52, 77
1, 6768, Note_on_c, 0, 62, 77
1, 6768, Note_on_c, 0, 76, 77
1, 6791, Note_on_c, 0, 76, 0
1, 6792, Note_on_c, 0, 74, 77
1, 6813, Note_on_c, 0, 62, 0
1, 6815, Note_on_c, 0, 74, 0
1, 6816, Note_on_c, 0, 56, 77
1, 6816, Note_on_c, 0, 74, 77
1, 6839, Note_on_c, 0, 74, 0
1, 6840, Note_on_c, 0, 71, 77
1, 6857, Note_on_c, 0, 52, 0
1, 6861, Note_on_c, 0, 56, 0
1, 6863, Note_on_c, 0, 71, 0
1, 6864, Note_on_c, 0, 57, 77
1, 6864, Note_on_c, 0, 57, 77
1, 6864, Note_on_c, 0, 73, 77
1, 6909, Note_on_c, 0, 57, 0
1, 6909, Note_on_c, 0, 57, 0
1, 6909, Note_on_c, 0, 73, 0
1, 6912, Note_on_c, 0, 57, 77
1, 6912, Note_on_c, 0, 61, 77
1, 6912, Note_on_c, 0, 76, 77
1, 6957, Note_on_c, 0, 76, 0
1, 6960, Note_on_c, 0, 81, 77
1, 7001, Note_on_c, 0, 57, 0
1, 7001, Note_on_c, 0, 61, 0
1, 7005, Note_on_c, 0, 81, 0
1, 7008, Note_on_c, 0, 73, 77
1, 7031, Note_on_c, 0, 73, 0
1, 7032, Note_on_c, 0, 69, 77
1, 7055, Note_on_c, 0, 69, 0
1, 7056, Note_on_c, 0, 62, 77
1, 7056, Note_on_c, 0, 73, 77
1, 7079, Note_on_c, 0, 73, 0
1, 7080, Note_on_c, 0, 71, 77
1, 7101, Note_on_c, 0, 62, 0
1, 7103, Note_on_c, 0, 71, 0
1, 7104, Note_on_c, 0, 59, 77
1, 7104, Note_on_c, 0, 71, 77
1, 7127, Note_on_c, 0, 71, 0
1, 7128, Note_on_c, 0, 68, 77
1, 7149, Note_on_c, 0, 59, 0
1, 7151, Note_on_c, 0, 68, 0
1, 7152, Note_on_c, 0, 61, 77
1, 7152, Note_on_c, 0, 69, 77
1, 7197, Note_on_c, 0, 61, 0
1, 7197, Note_on_c, 0, 69, 0
1, 7200, Note_on_c, 0, 64, 77
1, 7245, Note_on_c, 0, 64, 0
1, 7248, Note_on_c, 0, 56, 77
1, 7248, Note_on_c, 0, 71, 77
1, 7248, Note_on_c, 0, 74, 77
1, 7293, Note_on_c, 0, 56, 0
1, 7293, Note_on_c, 0, 71, 0
1, 7293, Note_on_c, 0, 74, 0
1, 7296, Note_on_c, 0, 57, 77
1, 7296, Note_on_c, 0, 69, 77
1, 7296, Note_on_c, 0, 73, 77
1, 7341, Note_on_c, 0, 57, 0
1, 7341, Note_on_c, 0, 69, 0
1, 7341, Note_on_c, 0, 73, 0
1, 7344, Note_on_c, 0, 52, 77
1, 7344, Note_on_c, 0, 69, 77
1, 7344, Note_on_c, 0, 74, 77
1, 7356, Note_on_c, 0, 73, 77
1, 7356, Note_on_c, 0, 74, 0
1, 7368, Note_on_c, 0, 73, 0
1, 7368, Note_on_c, 0, 74, 77
1, 7380, Note_on_c, 0, 73, 77
1, 7380, Note_on_c, 0, 74, 0
1, 7392, Note_on_c, 0, 68, 77
1, 7392, Note_on_c, 0, 69, 0
1, 7392, Note_on_c, 0, 71, 77
1, 7392, Note_on_c, 0, 73, 0
1, 7433, Note_on_c, 0, 52, 0
1, 7437, Note_on_c, 0, 68, 0
1, 7437, Note_on_c, 0, 71, 0
1, 7440, Note_on_c, 0, 54, 77
1, 7485, Note_on_c, 0, 54, 0
1, 7488, Note_on_c, 0, 56, 77
1, 7488, Note_on_c, 0, 71, 77
1, 7511, Note_on_c, 0, 56, 0
1, 7512, Note_on_c, 0, 64, 77
1, 7533, Note_on_c, 0, 71, 0
1, 7535, Note_on_c, 0, 64, 0
1, 7536, Note_on_c, 0, 59, 77
1, 7536, Note_on_c, 0, 76, 77
1, 7551, Note_on_c, 0, 76, 0
1, 7552, Note_on_c, 0, 74, 77
1, 7559, Note_on_c, 0, 59, 0
1, 7560, Note_on_c, 0, 64, 77
1, 7567, Note_on_c, 0, 74, 0
1, 7568, Note_on_c, 0, 73, 77
1, 7583, Note_on_c, 0, 64, 0
1, 7583, Note_on_c, 0, 73, 0
1, 7584, Note_on_c, 0, 56, 77
1, 7584, Note_on_c, 0, 74, 77
1, 7599, Note_on_c, 0, 74, 0
1, 7600, Note_on_c, 0, 73, 77
1, 7607, Note_on_c, 0, 56, 0
1, 7608, Note_on_c, 0, 64, 77
1, 7615, Note_on_c, 0, 73, 0
1, 7616, Note_on_c, 0, 71, 77
1, 7631, Note_on_c, 0, 64, 0
1, 7631, Note_on_c, 0, 71, 0
1, 7632, Note_on_c, 0, 57, 77
1, 7632, Note_on_c, 0, 73, 77
1, 7647, Note_on_c, 0, 73, 0
1, 7648, Note_on_c, 0, 69, 77
1, 7655, Note_on_c, 0, 57, 0
1, 7656, Note_on_c, 0, 64, 77
1, 7663, Note_on_c, 0, 69, 0
1, 7664, Note_on_c, 0, 73, 77
1, 7679, Note_on_c, 0, 64, 0
1, 7679, Note_on_c, 0, 73, 0
1, 7680, Note_on_c, 0, 61, 77
1, 7680, Note_on_c, 0, 76, 77
1, 7695, Note_on_c, 0, 76, 0
1, 7696, Note_on_c, 0, 73, 77
1, 7703, Note_on_c, 0, 61, 0
1, 7704, Note_on_c, 0, 64, 77
1, 7711, Note_on_c, 0, 73, 0
1, 7712, Note_on_c, 0, 76, 77
1, 7727, Note_on_c, 0, 64, 0
1, 7727, Note_on_c, 0, 76, 0
1, 7728, Note_on_c, 0, 57, 77
1, 7728, Note_on_c, 0, 81, 77
1, 7751, Note_on_c, 0, 57, 0
1, 7752, Note_on_c, 0, 64, 77
1, 7773, Note_on_c, 0, 81, 0
1, 7775, Note_on_c, 0, 64, 0
1, 7776, Note_on_c, 0, 58, 77
1, 7776, Note_on_c, 0, 73, 77
1, 7799, Note_on_c, 0, 58, 0
1, 7800, Note_on_c, 0, 66, 77
1, 7821, Note_on_c, 0, 73, 0
1, 7823, Note_on_c, 0, 66, 0
1, 7824, Note_on_c, 0, 61, 77
1, 7824, Note_on_c, 0, 78, 77
1, 7839, Note_on_c, 0, 78, 0
1, 7840, Note_on_c, 0, 76, 77
1, 7847, Note_on_c, 0, 61, 0
1, 7848, Note_on_c, 0, 66, 77
1, 7855, Note_on_c, 0, 76, 0
1, 7856, Note_on_c, 0, 75, 77
1, 7871, Note_on_c, 0, 66, 0
1, 7871, Note_on_c, 0, 75, 0
1, 7872, Note_on_c, 0, 58, 77
1, 7872, Note_on_c, 0, 76, 77
1, 7887, Note_on_c, 0, 76, 0
1, 7888, Note_on_c, 0, 75, 77
1, 7895, Note_on_c, 0, 58, 0
1, 7896, Note_on_c, 0, 66, 77
1, 7903, Note_on_c, 0, 75, 0
1, 7904, Note_on_c, 0, 73, 77
1, 7919, Note_on_c, 0, 66, 0
1, 7919, Note_on_c, 0, 73, 0
1, 7920, Note_on_c, 0, 59, 77
1, 7920, Note_on_c, 0, 75, 77
1, 7935, Note_on_c, 0, 75, 0
1, 7936, Note_on_c, 0, 71, 77
1, 7943, Note_on_c, 0, 59, 0
1, 7944, Note_on_c, 0, 66, 77
1, 7951, Note_on_c, 0, 71, 0
1, 7952, Note_on_c, 0, 75, 77
1, 7967, Note_on_c, 0, 66, 0
1, 7967, Note_on_c, 0, 75, 0
1, 7968, Note_on_c, 0, 63, 77
1, 7968, Note_on_c, 0, 78, 77
1, 7983, Note_on_c, 0, 78, 0
1, 7984, Note_on_c, 0, 75, 77
1, 7991, Note_on_c, 0, 63, 0
1, 7992, Note_on_c, 0, 66, 77
1, 7999, Note_on_c, 0, 75, 0
1, 8000, Note_on_c, 0, 78, 77
1, 8015, Note_on_c, 0, 66, 0
1, 8015, Note_on_c, 0, 78, 0
1, 8016, Note_on_c, 0, 59, 77
1, 8016, Note_on_c, 0, 83, 77
1, 8039, Note_on_c, 0, 59, 0
1, 8040, Note_on_c, 0, 66, 77
1, 8061, Note_on_c, 0, 83, 0
1, 8063, Note_on_c, 0, 66, 0
1, 8064, Note_on_c, 0, 63, 77
1, 8064, Note_on_c, 0, 71, 77
1, 8087, Note_on_c, 0, 63, 0
1, 8088, Note_on_c, 0, 71, 77
1, 8109, Note_on_c, 0, 71, 0
1, 8111, Note_on_c, 0, 71, 0
1, 8112, Note_on_c, 0, 66, 77
1, 8112, Note_on_c, 0, 81, 77
1, 8135, Note_on_c, 0, 66, 0
1, 8135, Note_on_c, 0, 81, 0
1, 8136, Note_on_c, 0, 71, 77
1, 8136, Note_on_c, 0, 78, 77
1, 8159, Note_on_c, 0, 71, 0
1, 8159, Note_on_c, 0, 78, 0
1, 8160, Note_on_c, 0, 64, 77
1, 8160, Note_on_c, 0, 80, 77
1, 8183, Note_on_c, 0, 64, 0
1, 8183, Note_on_c, 0, 80, 0
1, 8184, Note_on_c, 0, 71, 77
1, 8184, Note_on_c, 0, 76, 77
1, 8207, Note_on_c, 0, 71, 0
1, 8207, Note_on_c, 0, 76, 0
1, 8208, Note_on_c, 0, 66, 77
1, 8208, Note_on_c, 0, 76, 77
1, 8231, Note_on_c, 0, 66, 0
1, 8231, Note_on_c, 0, 76, 0
1, 8232, Note_on_c, 0, 71, 77
1, 8232, Note_on_c, 0, 75, 77
1, 8255, Note_on_c, 0, 71, 0
1, 8255, Note_on_c, 0, 75, 0
1, 8256, Note_on_c, 0, 69, 77
1, 8256, Note_on_c, 0, 78, 77
1, 8279, Note_on_c, 0, 69, 0
1, 8279, Note_on_c, 0, 78, 0
1, 8280, Note_on_c, 0, 71, 77
1, 8280, Note_on_c, 0, 75, 77
1, 8303, Note_on_c, 0, 71, 0
1, 8303, Note_on_c, 0, 75, 0
1, 8304, Note_on_c, 0, 68, 77
1, 8304, Note_on_c, 0, 76, 77
1, 8327, Note_on_c, 0, 68, 0
1, 8328, Note_on_c, 0, 71, 77
1, 8349, Note_on_c, 0, 76, 0
1, 8351, Note_on_c, 0, 71, 0
1, 8352, Note_on_c, 0, 63, 69
1, 8352, Note_on_c, 0, 71, 69
1, 8375, Note_on_c, 0, 63, 0
1, 8376, Note_on_c, 0, 71, 69
1, 8397, Note_on_c, 0, 71, 0
1, 8399, Note_on_c, 0, 71, 0
1, 8400, Note_on_c, 0, 66, 69
1, 8400, Note_on_c, 0, 81, 69
1, 8423, Note_on_c, 0, 66, 0
1, 8423, Note_on_c, 0, 81, 0
1, 8424, Note_on_c, 0, 71, 69
1, 8424, Note_on_c, 0, 78, 69
1, 8447, Note_on_c, 0, 71, 0
1, 8447, Note_on_c, 0, 78, 0
1, 8448, Note_on_c, 0, 64, 69
1, 8448, Note_on_c, 0, 80, 69
1, 8471, Note_on_c, 0, 64, 0
1, 8471, Note_on_c, 0, 80, 0
1, 8472, Note_on_c, 0, 71, 69
1, 8472, Note_on_c, 0, 76, 69
1, 8495, Note_on_c, 0, 71, 0
1, 8495, Note_on_c, 0, 76, 0
1, 8496, Note_on_c, 0, 66, 69
1, 8496, Note_on_c, 0, 76, 69
1, 8519, Note_on_c, 0, 66, 0
1, 8519, Note_on_c, 0, 76, 0
1, 8520, Note_on_c, 0, 71, 69
1, 8520, Note_on_c, 0, 75, 69
1, 8543, Note_on_c, 0, 71, 0
1, 8543, Note_on_c, 0, 75, 0
1, 8544, Note_on_c, 0, 69, 69
1, 8544, Note_on_c, 0, 78, 69
1, 8567, Note_on_c, 0, 69, 0
1, 8567, Note_on_c, 0, 78, 0
1, 8568, Note_on_c, 0, 71, 69
1, 8568, Note_on_c, 0, 75, 69
1, 8591, Note_on_c, 0, 71, 0
1, 8591, Note_on_c, 0, 75, 0
1, 8592, Note_on_c, 0, 68, 69
1, 8592, Note_on_c, 0, 76, 69
1, 8615, Note_on_c, 0, 68, 0
1, 8616, Note_on_c, 0, 71, 69
1, 8637, Note_on_c, 0, 76, 0
1, 8639, Note_on_c, 0, 71, 0
1, 8640, Note_on_c, 0, 69, 69
1, 8640, Note_on_c, 0, 74, 77
1, 8652, Note_on_c, 0, 73, 77
1, 8652, Note_on_c, 0, 74, 0
1, 8664, Note_on_c, 0, 71, 77
1, 8664, Note_on_c, 0, 73, 0
1, 8676, Note_on_c, 0, 71, 0
1, 8676, Note_on_c, 0, 73, 77
1, 8685, Note_on_c, 0, 69, 0
1, 8688, Note_on_c, 0, 66, 69
1, 8688, Note_on_c, 0, 73, 0
1, 8688, Note_on_c, 0, 81, 77
1, 8733, Note_on_c, 0, 66, 0
1, 8733, Note_on_c, 0, 81, 0
1, 8736, Note_on_c, 0, 63, 69
1, 8781, Note_on_c, 0, 63, 0
1, 8784, Note_on_c, 0, 68, 69
1, 8784, Note_on_c, 0, 73, 77
1, 8796, Note_on_c, 0, 71, 77
1, 8796, Note_on_c, 0, 73, 0
1, 8808, Note_on_c, 0, 69, 77
1, 8808, Note_on_c, 0, 71, 0
1, 8820, Note_on_c, 0, 69, 0
1, 8820, Note_on_c, 0, 71, 77
1, 8829, Note_on_c, 0, 68, 0
1, 8832, Note_on_c, 0, 64, 69
1, 8832, Note_on_c, 0, 71, 0
1, 8832, Note_on_c, 0, 80, 77
1, 8877, Note_on_c, 0, 64, 0
1, 8877, Note_on_c, 0, 80, 0
1, 8880, Note_on_c, 0, 61, 69
1, 8925, Note_on_c, 0, 61, 0
1, 8928, Note_on_c, 0, 66, 69
1, 8928, Note_on_c, 0, 71, 77
1, 8940, Note_on_c, 0, 69, 77
1, 8940, Note_on_c, 0, 71, 0
1, 8952, Note_on_c, 0, 68, 77
1, 8952, Note_on_c, 0, 69, 0
1, 8964, Note_on_c, 0, 68, 0
1, 8964, Note_on_c, 0, 69, 77
1, 8973, Note_on_c, 0, 66, 0
1, 8976, Note_on_c, 0, 63, 69
1, 8976, Note_on_c, 0, 69, 0
1, 8976, Note_on_c, 0, 78, 77
1, 9021, Note_on_c, 0, 63, 0
1, 9021, Note_on_c, 0, 78, 0
1, 9024, Note_on_c, 0, 59, 69
1, 9069, Note_on_c, 0, 59, 0
1, 9072, Note_on_c, 0, 64, 69
1, 9072, Note_on_c, 0, 69, 77
1, 9084, Note_on_c, 0, 68, 77
1, 9084, Note_on_c, 0, 69, 0
1, 9096, Note_on_c, 0, 66, 77
1, 9096, Note_on_c, 0, 68, 0
1, 9108, Note_on_c, 0, 66, 0
1, 9108, Note_on_c, 0, 68, 77
1, 9120, Note_on_c, 0, 68, 0
1, 9120, Note_on_c, 0, 76, 77
1, 9161, Note_on_c, 0, 64, 0
1, 9165, Note_on_c, 0, 76, 0
1, 9168, Note_on_c, 0, 63, 69
1, 9213, Note_on_c, 0, 63, 0
1, 9216, Note_on_c, 0, 61, 77
1, 9216, Note_on_c, 0, 69, 77
1, 9228, Note_on_c, 0, 68, 77
1, 9228, Note_on_c, 0, 69, 0
1, 9240, Note_on_c, 0, 66, 77
1, 9240, Note_on_c, 0, 68, 0
1, 9252, Note_on_c, 0, 66, 0
1, 9252, Note_on_c, 0, 68, 77
1, 9264, Note_on_c, 0, 68, 0
1, 9264, Note_on_c, 0, 76, 77
1, 9305, Note_on_c, 0, 61, 0
1, 9309, Note_on_c, 0, 76, 0
1, 9312, Note_on_c, 0, 56, 77
1, 9357, Note_on_c, 0, 56, 0
1, 9360, Note_on_c, 0, 57, 77
1, 9360, Note_on_c, 0, 68, 77
1, 9372, Note_on_c, 0, 66, 77
1, 9372, Note_on_c, 0, 68, 0
1, 9384, Note_on_c, 0, 64, 77
1, 9384, Note_on_c, 0, 66, 0
1, 9396, Note_on_c, 0, 64, 0
1, 9396, Note_on_c, 0, 66, 77
1, 9405, Note_on_c, 0, 57, 0
1, 9408, Note_on_c, 0, 54, 77
1, 9408, Note_on_c, 0, 66, 0
1, 9432, Note_on_c, 0, 69, 77
1, 9453, Note_on_c, 0, 54, 0
1, 9455, Note_on_c, 0, 69, 0
1, 9456, Note_on_c, 0, 59, 77
1, 9456, Note_on_c, 0, 68, 77
1, 9468, Note_on_c, 0, 68, 0
1, 9468, Note_on_c, 0, 71, 77
1, 9480, Note_on_c, 0, 63, 77
1, 9480, Note_on_c, 0, 71, 0
1, 9492, Note_on_c, 0, 63, 0
1, 9492, Note_on_c, 0, 66, 77
1, 9501, Note_on_c, 0, 59, 0
1, 9504, Note_on_c, 0, 52, 77
1, 9504, Note_on_c, 0, 64, 77
1, 9504, Note_on_c, 0, 66, 0
1, 9593, Note_on_c, 0, 52, 0
1, 9593, Note_on_c, 0, 64, 0
1, 9648, Note_on_c, 0, 67, 61
1, 9648, Note_on_c, 0, 71, 61
1, 9648, Note_on_c, 0, 76, 61
1, 9693, Note_on_c, 0, 67, 0
1, 9693, Note_on_c, 0, 71, 0
1, 9693, Note_on_c, 0, 76, 0
1, 9696, Note_on_c, 0, 69, 61
1, 9696, Note_on_c, 0, 72, 61
1, 9696, Note_on_c, 0, 78, 61
1, 9741, Note_on_c, 0, 69, 0
1, 9741, Note_on_c, 0, 72, 0
1, 9741, Note_on_c, 0, 78, 0
1, 9744, Note_on_c, 0, 66, 61
1, 9744, Note_on_c, 0, 69, 61
1, 9744, Note_on_c, 0, 75, 61
1, 9789, Note_on_c, 0, 66, 0
1, 9789, Note_on_c, 0, 69, 0
1, 9789, Note_on_c, 0, 75, 0
1, 9792, Note_on_c, 0, 67, 61
1, 9792, Note_on_c, 0, 71, 61
1, 9792, Note_on_c, 0, 76, 61
1, 9815, Note_on_c, 0, 76, 0
1, 9816, Note_on_c, 0, 84, 61
1, 9839, Note_on_c, 0, 84, 0
1, 9840, Note_on_c, 0, 83, 61
1, 9863, Note_on_c, 0, 83, 0
1, 9864, Note_on_c, 0, 81, 61
1, 9881, Note_on_c, 0, 67, 0
1, 9881, Note_on_c, 0, 71, 0
1, 9887, Note_on_c, 0, 81, 0
1, 9888, Note_on_c, 0, 79, 61
1, 9911, Note_on_c, 0, 79, 0
1, 9912, Note_on_c, 0, 78, 61
1, 9935, Note_on_c, 0, 78, 0
1, 9936, Note_on_c, 0, 67, 61
1, 9936, Note_on_c, 0, 71, 61
1, 9936, Note_on_c, 0, 76, 61
1, 9981, Note_on_c, 0, 67, 0
1, 9981, Note_on_c, 0, 71, 0
1, 9981, Note_on_c, 0, 76, 0
1, 9984, Note_on_c, 0, 69, 61
1, 9984, Note_on_c, 0, 72, 61
1, 9984, Note_on_c, 0, 78, 61
1, 10029, Note_on_c, 0, 69, 0
1, 10029, Note_on_c, 0, 72, 0
1, 10029, Note_on_c, 0, 78, 0
1, 10032, Note_on_c, 0, 66, 61
1, 10032, Note_on_c, 0, 69, 61
1, 10032, Note_on_c, 0, 75, 61
1, 10077, Note_on_c, 0, 66, 0
1, 10077, Note_on_c, 0, 69, 0
1, 10077, Note_on_c, 0, 75, 0
1, 10080, Note_on_c, 0, 67, 61
1, 10080, Note_on_c, 0, 71, 61
1, 10080, Note_on_c, 0, 76, 61
1, 10103, Note_on_c, 0, 76, 0
1, 10104, Note_on_c, 0, 78, 61
1, 10127, Note_on_c, 0, 78, 0
1, 10128, Note_on_c, 0, 79, 61
1, 10151, Note_on_c, 0, 79, 0
1, 10152, Note_on_c, 0, 81, 61
1, 10169, Note_on_c, 0, 67, 0
1, 10169, Note_on_c, 0, 71, 0
1, 10175, Note_on_c, 0, 81, 0
1, 10176, Note_on_c, 0, 83, 61
1, 10221, Note_on_c, 0, 83, 0
1, 10224, Note_on_c, 0, 69, 61
1, 10224, Note_on_c, 0, 83, 61
1, 10248, Note_on_c, 0, 83, 0
1, 10248, Note_on_c, 0, 84, 61
1, 10269, Note_on_c, 0, 69, 0
1, 10271, Note_on_c, 0, 84, 0
1, 10272, Note_on_c, 0, 66, 61
1, 10272, Note_on_c, 0, 81, 61
1, 10317, Note_on_c, 0, 66, 0
1, 10317, Note_on_c, 0, 81, 0
1, 10320, Note_on_c, 0, 62, 61
1, 10320, Note_on_c, 0, 78, 61
1, 10365, Note_on_c, 0, 62, 0
1, 10365, Note_on_c, 0, 78, 0
1, 10368, Note_on_c, 0, 67, 61
1, 10368, Note_on_c, 0, 82, 61
1, 10392, Note_on_c, 0, 82, 0
1, 10392, Note_on_c, 0, 83, 61
1, 10413, Note_on_c, 0, 67, 0
1, 10415, Note_on_c, 0, 83, 0
1, 10416, Note_on_c, 0, 64, 61
1, 10416, Note_on_c, 0, 79, 61
1, 10461, Note_on_c, 0, 64, 0
1, 10461, Note_on_c, 0, 79, 0
1, 10464, Note_on_c, 0, 60, 61
1, 10509, Note_on_c, 0, 60, 0
1, 10512, Note_on_c, 0, 66, 61
1, 10512, Note_on_c, 0, 80, 61
1, 10536, Note_on_c, 0, 80, 0
1, 10536, Note_on_c, 0, 81, 61
1, 10557, Note_on_c, 0, 66, 0
1, 10559, Note_on_c, 0, 81, 0
1, 10560, Note_on_c, 0, 63, 61
1, 10560, Note_on_c, 0, 78, 61
1, 10605, Note_on_c, 0, 63, 0
1, 10605, Note_on_c, 0, 78, 0
1, 10608, Note_on_c, 0, 59, 61
1, 10608, Note_on_c, 0, 75, 61
1, 10653, Note_on_c, 0, 59, 0
1, 10653, Note_on_c, 0, 75, 0
1, 10656, Note_on_c, 0, 64, 61
1, 10656, Note_on_c, 0, 78, 61
1, 10680, Note_on_c, 0, 78, 0
1, 10680, Note_on_c, 0, 79, 61
1, 10701, Note_on_c, 0, 64, 0
1, 10703, Note_on_c, 0, 79, 0
1, 10704, Note_on_c, 0, 67, 61
1, 10704, Note_on_c, 0, 76, 61
1, 10749, Note_on_c, 0, 67, 0
1, 10749, Note_on_c, 0, 76, 0
1, 10752, Note_on_c, 0, 64, 61
1, 10797, Note_on_c, 0, 64, 0
1, 10800, Note_on_c, 0, 75, 61
1, 10823, Note_on_c, 0, 75, 0
1, 10824, Note_on_c, 0, 76, 61
1, 10847, Note_on_c, 0, 76, 0
1, 10848, Note_on_c, 0, 63, 61
1, 10848, Note_on_c, 0, 78, 61
1, 10871, Note_on_c, 0, 63, 0
1, 10871, Note_on_c, 0, 78, 0
1, 10872, Note_on_c, 0, 64, 61
1, 10872, Note_on_c, 0, 79, 61
1, 10895, Note_on_c, 0, 64, 0
1, 10895, Note_on_c, 0, 79, 0
1, 10896, Note_on_c, 0, 66, 61
1, 10896, Note_on_c, 0, 81, 61
1, 10919, Note_on_c, 0, 66, 0
1, 10919, Note_on_c, 0, 81, 0
1, 10920, Note_on_c, 0, 64, 61
1, 10920, Note_on_c, 0, 79, 61
1, 10943, Note_on_c, 0, 64, 0
1, 10943, Note_on_c, 0, 79, 0
1, 10944, Note_on_c, 0, 47, 77
1, 10944, Note_on_c, 0, 59, 77
1, 10944, Note_on_c, 0, 64, 61
1, 10944, Note_on_c, 0, 79, 61
1, 10956, Note_on_c, 0, 79, 0
1, 10956, Note_on_c, 0, 81, 61
1, 10968, Note_on_c, 0, 79, 61
1, 10968, Note_on_c, 0, 81, 0
1, 10989, Note_on_c, 0, 64, 0
1, 10989, Note_on_c, 0, 79, 0
1, 10992, Note_on_c, 0, 63, 61
1, 10992, Note_on_c, 0, 78, 61
1, 11033, Note_on_c, 0, 47, 0
1, 11033, Note_on_c, 0, 59, 0
1, 11037, Note_on_c, 0, 63, 0
1, 11037, Note_on_c, 0, 78, 0
1, 11040, Note_on_c, 0, 76, 61
1, 11055, Note_on_c, 0, 76, 0
1, 11056, Note_on_c, 0, 78, 65
1, 11071, Note_on_c, 0, 78, 0
1, 11072, Note_on_c, 0, 80, 69
1, 11087, Note_on_c, 0, 80, 0
1, 11088, Note_on_c, 0, 40, 85
1, 11088, Note_on_c, 0, 52, 85
1, 11088, Note_on_c, 0, 76, 85
1, 11133, Note_on_c, 0, 76, 0
1, 11136, Note_on_c, 0, 76, 85
1, 11136, Note_on_c, 0, 80, 85
1, 11177, Note_on_c, 0, 40, 0
1, 11177, Note_on_c, 0, 52, 0
1, 11181, Note_on_c, 0, 76, 0
1, 11181, Note_on_c, 0, 80, 0
1, 11184, Note_on_c, 0, 80, 85
1, 11184, Note_on_c, 0, 83, 85
1, 11229, Note_on_c, 0, 80, 0
1, 11229, Note_on_c, 0, 83, 0
1, 11232, Note_on_c, 0, 47, 85
1, 11232, Note_on_c, 0, 59, 85
1, 11232, Note_on_c, 0, 80, 85
1, 11232, Note_on_c, 0, 83, 85
1, 11277, Note_on_c, 0, 80, 0
1, 11277, Note_on_c, 0, 83, 0
1, 11280, Note_on_c, 0, 78, 85
1, 11280, Note_on_c, 0, 81, 85
1, 11321, Note_on_c, 0, 47, 0
1, 11321, Note_on_c, 0, 59, 0
1, 11325, Note_on_c, 0, 78, 0
1, 11325, Note_on_c, 0, 81, 0
1, 11328, Note_on_c, 0, 75, 85
1, 11343, Note_on_c, 0, 75, 0
1, 11344, Note_on_c, 0, 76, 85
1, 11359, Note_on_c, 0, 76, 0
1, 11360, Note_on_c, 0, 78, 85
1, 11375, Note_on_c, 0, 78, 0
1, 11376, Note_on_c, 0, 35, 85
1, 11376, Note_on_c, 0, 47, 85
1, 11376, Note_on_c, 0, 71, 85
1, 11421, Note_on_c, 0, 71, 0
1, 11424, Note_on_c, 0, 75, 85
1, 11424, Note_on_c, 0, 78, 85
1, 11465, Note_on_c, 0, 35, 0
1, 11465, Note_on_c, 0, 47, 0
1, 11469, Note_on_c, 0, 75, 0
1, 11469, Note_on_c, 0, 78, 0
1, 11472, Note_on_c, 0, 78, 85
1, 11472, Note_on_c, 0, 81, 85
1, 11517, Note_on_c, 0, 78, 0
1, 11517, Note_on_c, 0, 81, 0
1, 11520, Note_on_c, 0, 40, 85
1, 11520, Note_on_c, 0, 52, 85
1, 11520, Note_on_c, 0, 78, 85
1, 11520, Note_on_c, 0, 81, 85
1, 11565, Note_on_c, 0, 78, 0
1, 11565, Note_on_c, 0, 81, 0
1, 11568, Note_on_c, 0, 76, 85
1, 11568, Note_on_c, 0, 80, 85
1, 11609, Note_on_c, 0, 40, 0
1, 11609, Note_on_c, 0, 52, 0
1, 11613, Note_on_c, 0, 76, 0
1, 11613, Note_on_c, 0, 80, 0
1, 11616, Note_on_c, 0, 76, 85
1, 11631, Note_on_c, 0, 76, 0
1, 11632, Note_on_c, 0, 78, 85
1, 11647, Note_on_c, 0, 78, 0
1, 11648, Note_on_c, 0, 80, 85
1, 11663, Note_on_c, 0, 80, 0
1, 11664, Note_on_c, 0, 40, 85
1, 11664, Note_on_c, 0, 52, 85
1, 11664, Note_on_c, 0, 76, 85
1, 11709, Note_on_c, 0, 76, 0
1, 11712, Note_on_c, 0, 76, 85
1, 11712, Note_on_c, 0, 80, 85
1, 11753, Note_on_c, 0, 40, 0
1, 11753, Note_on_c, 0, 52, 0
1, 11757, Note_on_c, 0, 76, 0
1, 11757, Note_on_c, 0, 80, 0
1, 11760, Note_on_c, 0, 80, 85
1, 11760, Note_on_c, 0, 83, 85
1, 11805, Note_on_c, 0, 80, 0
1, 11805, Note_on_c, 0, 83, 0
1, 11808, Note_on_c, 0, 47, 85
1, 11808, Note_on_c, 0, 59, 85
1, 11808, Note_on_c, 0, 80, 85
1, 11808, Note_on_c, 0, 83, 85
1, 11853, Note_on_c, 0, 80, 0
1, 11853, Note_on_c, 0, 83, 0
1, 11856, Note_on_c, 0, 78, 85
1, 11856, Note_on_c, 0, 81, 85
1, 11897, Note_on_c, 0, 47, 0
1, 11897, Note_on_c, 0, 59, 0
1, 11901, Note_on_c, 0, 78, 0
1, 11901, Note_on_c, 0, 81, 0
1, 11904, Note_on_c, 0, 75, 85
1, 11919, Note_on_c, 0, 75, 0
1, 11920, Note_on_c, 0, 76, 85
1, 11935, Note_on_c, 0, 76, 0
1, 11936, Note_on_c, 0, 78, 85
1, 11951, Note_on_c, 0, 78, 0
1, 11952, Note_on_c, 0, 35, 85
1, 11952, Note_on_c, 0, 47, 85
1, 11952, Note_on_c, 0, 71, 85
1, 11997, Note_on_c, 0, 71, 0
1, 12000, Note_on_c, 0, 75, 85
1, 12000, Note_on_c, 0, 78, 85
1, 12041, Note_on_c, 0, 35, 0
1, 12041, Note_on_c, 0, 47, 0
1, 12045, Note_on_c, 0, 75, 0
1, 12045, Note_on_c, 0, 78, 0
1, 12048, Note_on_c, 0, 78, 85
1, 12048, Note_on_c, 0, 81, 85
1, 12093, Note_on_c, 0, 78, 0
1, 12093, Note_on_c, 0, 81, 0
1, 12096, Note_on_c, 0, 40, 85
1, 12096, Note_on_c, 0, 52, 85
1, 12096, Note_on_c, 0, 78, 85
1, 12096, Note_on_c, 0, 81, 85
1, 12141, Note_on_c, 0, 78, 0
1, 12141, Note_on_c, 0, 81, 0
1, 12144, Note_on_c, 0, 76, 85
1, 12144, Note_on_c, 0, 80, 85
1, 12185, Note_on_c, 0, 40, 0
1, 12185, Note_on_c, 0, 52, 0
1, 12189, Note_on_c, 0, 76, 0
1, 12189, Note_on_c, 0, 80, 0
1, 12192, Note_on_c, 0, 76, 77
1, 12207, Note_on_c, 0, 76, 0
1, 12208, Note_on_c, 0, 78, 77
1, 12223, Note_on_c, 0, 78, 0
1, 12224, Note_on_c, 0, 80, 77
1, 12239, Note_on_c, 0, 80, 0
1, 12240, Note_on_c, 0, 56, 77
1, 12240, Note_on_c, 0, 71, 77
1, 12285, Note_on_c, 0, 71, 0
1, 12288, Note_on_c, 0, 76, 77
1, 12329, Note_on_c, 0, 56, 0
1, 12333, Note_on_c, 0, 76, 0
1, 12336, Note_on_c, 0, 74, 77
1, 12381, Note_on_c, 0, 74, 0
1, 12384, Note_on_c, 0, 57, 77
1, 12384, Note_on_c, 0, 76, 77
1, 12396, Note_on_c, 0, 74, 77
1, 12396, Note_on_c, 0, 76, 0
1, 12408, Note_on_c, 0, 74, 0
1, 12408, Note_on_c, 0, 76, 77
1, 12420, Note_on_c, 0, 74, 77
1, 12420, Note_on_c, 0, 76, 0
1, 12432, Note_on_c, 0, 73, 77
1, 12432, Note_on_c, 0, 74, 0
1, 12473, Note_on_c, 0, 57, 0
1, 12477, Note_on_c, 0, 73, 0
1, 12480, Note_on_c, 0, 54, 77
1, 12480, Note_on_c, 0, 75, 77
1, 12495, Note_on_c, 0, 75, 0
1, 12496, Note_on_c, 0, 78, 77
1, 12511, Note_on_c, 0, 78, 0
1, 12512, Note_on_c, 0, 81, 77
1, 12525, Note_on_c, 0, 54, 0
1, 12527, Note_on_c, 0, 81, 0
1, 12528, Note_on_c, 0, 52, 77
1, 12528, Note_on_c, 0, 80, 77
1, 12543, Note_on_c, 0, 80, 0
1, 12544, Note_on_c, 0, 81, 77
1, 12559, Note_on_c, 0, 81, 0
1, 12560, Note_on_c, 0, 83, 77
1, 12573, Note_on_c, 0, 52, 0
1, 12575, Note_on_c, 0, 83, 0
1, 12576, Note_on_c, 0, 56, 77
1, 12576, Note_on_c, 0, 76, 77
1, 12621, Note_on_c, 0, 56, 0
1, 12621, Note_on_c, 0, 76, 0
1, 12624, Note_on_c, 0, 59, 77
1, 12624, Note_on_c, 0, 76, 77
1, 12636, Note_on_c, 0, 75, 77
1, 12636, Note_on_c, 0, 76, 0
1, 12648, Note_on_c, 0, 75, 0
1, 12648, Note_on_c, 0, 76, 77
1, 12660, Note_on_c, 0, 75, 77
1, 12660, Note_on_c, 0, 76, 0
1, 12669, Note_on_c, 0, 59, 0
1, 12672, Note_on_c, 0, 52, 77
1, 12672, Note_on_c, 0, 75, 0
1, 12672, Note_on_c, 0, 75, 77
1, 12717, Note_on_c, 0, 75, 0
1, 12720, Note_on_c, 0, 76, 77
1, 12761, Note_on_c, 0, 52, 0
1, 12765, Note_on_c, 0, 76, 0
1, 12768, Note_on_c, 0, 64, 77
1, 12783, Note_on_c, 0, 64, 0
1, 12784, Note_on_c, 0, 66, 77
1, 12799, Note_on_c, 0, 66, 0
1, 12800, Note_on_c, 0, 68, 77
1, 12815, Note_on_c, 0, 68, 0
1, 12816, Note_on_c, 0, 52, 77
1, 12816, Note_on_c, 0, 56, 77
1, 12816, Note_on_c, 0, 64, 77
1, 12861, Note_on_c, 0, 64, 0
1, 12864, Note_on_c, 0, 68, 77
1, 12905, Note_on_c, 0, 52, 0
1, 12905, Note_on_c, 0, 56, 0
1, 12909, Note_on_c, 0, 68, 0
1, 12912, Note_on_c, 0, 71, 77
1, 12957, Note_on_c, 0, 71, 0
1, 12960, Note_on_c, 0, 52, 77
1, 12960, Note_on_c, 0, 56, 77
1, 12960, Note_on_c, 0, 71, 77
1, 13005, Note_on_c, 0, 71, 0
1, 13008, Note_on_c, 0, 76, 77
1, 13049, Note_on_c, 0, 52, 0
1, 13049, Note_on_c, 0, 56, 0
1, 13053, Note_on_c, 0, 76, 0
1, 13056, Note_on_c, 0, 71, 77
1, 13079, Note_on_c, 0, 71, 0
1, 13080, Note_on_c, 0, 68, 77
1, 13103, Note_on_c, 0, 68, 0
1, 13104, Note_on_c, 0, 47, 77
1, 13104, Note_on_c, 0, 54, 61
1, 13104, Note_on_c, 0, 71, 77
1, 13127, Note_on_c, 0, 71, 0
1, 13128, Note_on_c, 0, 69, 77
1, 13149, Note_on_c, 0, 54, 0
1, 13151, Note_on_c, 0, 69, 0
1, 13152, Note_on_c, 0, 51, 61
1, 13152, Note_on_c, 0, 69, 77
1, 13175, Note_on_c, 0, 69, 0
1, 13176, Note_on_c, 0, 66, 77
1, 13193, Note_on_c, 0, 47, 0
1, 13197, Note_on_c, 0, 51, 0
1, 13199, Note_on_c, 0, 66, 0
1, 13200, Note_on_c, 0, 52, 61
1, 13200, Note_on_c, 0, 52, 77
1, 13200, Note_on_c, 0, 68, 77
1, 13245, Note_on_c, 0, 52, 0
1, 13245, Note_on_c, 0, 52, 0
1, 13245, Note_on_c, 0, 68, 0
1, 13248, Note_on_c, 0, 52, 77
1, 13248, Note_on_c, 0, 56, 77
1, 13248, Note_on_c, 0, 71, 77
1, 13293, Note_on_c, 0, 71, 0
1, 13296, Note_on_c, 0, 76, 77
1, 13337, Note_on_c, 0, 52, 0
1, 13337, Note_on_c, 0, 56, 0
1, 13341, Note_on_c, 0, 76, 0
1, 13344, Note_on_c, 0, 68, 77
1, 13367, Note_on_c, 0, 68, 0
1, 13368, Note_on_c, 0, 64, 77
1, 13391, Note_on_c, 0, 64, 0
1, 13392, Note_on_c, 0, 57, 77
1, 13392, Note_on_c, 0, 68, 77
1, 13415, Note_on_c, 0, 68, 0
1, 13416, Note_on_c, 0, 66, 77
1, 13437, Note_on_c, 0, 57, 0
1, 13439, Note_on_c, 0, 66, 0
1, 13440, Note_on_c, 0, 54, 77
1, 13440, Note_on_c, 0, 66, 77
1, 13463, Note_on_c, 0, 66, 0
1, 13464, Note_on_c, 0, 63, 77
1, 13485, Note_on_c, 0, 54, 0
1, 13487, Note_on_c, 0, 63, 0
1, 13488, Note_on_c, 0, 56, 77
1, 13488, Note_on_c, 0, 64, 77
1, 13533, Note_on_c, 0, 56, 0
1, 13533, Note_on_c, 0, 64, 0
1, 13536, Note_on_c, 0, 59, 77
1, 13581, Note_on_c, 0, 59, 0
1, 13584, Note_on_c, 0, 51, 77
1, 13584, Note_on_c, 0, 66, 77
1, 13584, Note_on_c, 0, 69, 77
1, 13629, Note_on_c, 0, 51, 0
1, 13629, Note_on_c, 0, 66, 0
1, 13629, Note_on_c, 0, 69, 0
1, 13632, Note_on_c, 0, 52, 77
1, 13632, Note_on_c, 0, 64, 77
1, 13632, Note_on_c, 0, 68, 77
1, 13677, Note_on_c, 0, 52, 0
1, 13677, Note_on_c, 0, 64, 0
1, 13677, Note_on_c, 0, 68, 0
1, 13680, Note_on_c, 0, 59, 77
1, 13680, Note_on_c, 0, 66, 61
1, 13680, Note_on_c, 0, 69, 77
1, 13692, Note_on_c, 0, 68, 77
1, 13692, Note_on_c, 0, 69, 0
1, 13704, Note_on_c, 0, 68, 0
1, 13704, Note_on_c, 0, 69, 77
1, 13716, Note_on_c, 0, 68, 77
1, 13716, Note_on_c, 0, 69, 0
1, 13725, Note_on_c, 0, 59, 0
1, 13725, Note_on_c, 0, 66, 0
1, 13728, Note_on_c, 0, 54, 77
1, 13728, Note_on_c, 0, 63, 61
1, 13728, Note_on_c, 0, 66, 77
1, 13728, Note_on_c, 0, 68, 0
1, 13773, Note_on_c, 0, 54, 0
1, 13773, Note_on_c, 0, 63, 0
1, 13773, Note_on_c, 0, 66, 0
1, 13776, Note_on_c, 0, 47, 77
1, 13821, Note_on_c, 0, 47, 0
1, 13824, Note_on_c, 0, 61, 61
1, 13824, Note_on_c, 0, 68, 61
1, 13824, Note_on_c, 0, 77, 77
1, 13847, Note_on_c, 0, 77, 0
1, 13848, Note_on_c, 0, 71, 77
1, 13869, Note_on_c, 0, 61, 0
1, 13869, Note_on_c, 0, 68, 0
1, 13871, Note_on_c, 0, 71, 0
1, 13872, Note_on_c, 0, 61, 61
1, 13872, Note_on_c, 0, 68, 61
1, 13872, Note_on_c, 0, 80, 77
1, 13895, Note_on_c, 0, 80, 0
1, 13896, Note_on_c, 0, 77, 77
1, 13917, Note_on_c, 0, 61, 0
1, 13917, Note_on_c, 0, 68, 0
1, 13919, Note_on_c, 0, 77, 0
1, 13920, Note_on_c, 0, 61, 61
1, 13920, Note_on_c, 0, 68, 61
1, 13920, Note_on_c, 0, 83, 77
1, 13943, Note_on_c, 0, 83, 0
1, 13944, Note_on_c, 0, 80, 77
1, 13965, Note_on_c, 0, 61, 0
1, 13965, Note_on_c, 0, 68, 0
1, 13967, Note_on_c, 0, 80, 0
1, 13968, Note_on_c, 0, 61, 61
1, 13968, Note_on_c, 0, 66, 61
1, 13968, Note_on_c, 0, 81, 77
1, 13991, Note_on_c, 0, 81, 0
1, 13992, Note_on_c, 0, 85, 77
1, 14013, Note_on_c, 0, 61, 0
1, 14013, Note_on_c, 0, 66, 0
1, 14015, Note_on_c, 0, 85, 0
1, 14016, Note_on_c, 0, 61, 61
1, 14016, Note_on_c, 0, 66, 61
1, 14016, Note_on_c, 0, 83, 77
1, 14039, Note_on_c, 0, 83, 0
1, 14040, Note_on_c, 0, 81, 77
1, 14061, Note_on_c, 0, 61, 0
1, 14061, Note_on_c, 0, 66, 0
1, 14063, Note_on_c, 0, 81, 0
1, 14064, Note_on_c, 0, 61, 61
1, 14064, Note_on_c, 0, 66, 61
1, 14064, Note_on_c, 0, 80, 77
1, 14087, Note_on_c, 0, 80, 0
1, 14088, Note_on_c, 0, 78, 77
1, 14109, Note_on_c, 0, 61, 0
1, 14109, Note_on_c, 0, 66, 0
1, 14111, Note_on_c, 0, 78, 0
1, 14112, Note_on_c, 0, 61, 61
1, 14112, Note_on_c, 0, 68, 61
1, 14112, Note_on_c, 0, 77, 77
1, 14135, Note_on_c, 0, 77, 0
1, 14136, Note_on_c, 0, 71, 77
1, 14157, Note_on_c, 0, 61, 0
1, 14157, Note_on_c, 0, 68, 0
1, 14159, Note_on_c, 0, 71, 0
1, 14160, Note_on_c, 0, 61, 61
1, 14160, Note_on_c, 0, 68, 61
1, 14160, Note_on_c, 0, 80, 77
1, 14183, Note_on_c, 0, 80, 0
1, 14184, Note_on_c, 0, 77, 77
1, 14205, Note_on_c, 0, 61, 0
1, 14205, Note_on_c, 0, 68, 0
1, 14207, Note_on_c, 0, 77, 0
1, 14208, Note_on_c, 0, 61, 61
1, 14208, Note_on_c, 0, 68, 61
1, 14208, Note_on_c, 0, 83, 77
1, 14231, Note_on_c, 0, 83, 0
1, 14232, Note_on_c, 0, 80, 77
1, 14253, Note_on_c, 0, 61, 0
1, 14253, Note_on_c, 0, 68, 0
1, 14255, Note_on_c, 0, 80, 0
1, 14256, Note_on_c, 0, 54, 61
1, 14256, Note_on_c, 0, 78, 77
1, 14256, Note_on_c, 0, 81, 77
1, 14279, Note_on_c, 0, 54, 0
1, 14280, Note_on_c, 0, 66, 61
1, 14303, Note_on_c, 0, 66, 0
1, 14304, Note_on_c, 0, 65, 61
1, 14327, Note_on_c, 0, 65, 0
1, 14328, Note_on_c, 0, 66, 61
1, 14345, Note_on_c, 0, 78, 0
1, 14345, Note_on_c, 0, 81, 0
1, 14351, Note_on_c, 0, 66, 0
1, 14352, Note_on_c, 0, 54, 61
1, 14397, Note_on_c, 0, 54, 0
1, 14400, Note_on_c, 0, 59, 77
1, 14400, Note_on_c, 0, 66, 61
1, 14400, Note_on_c, 0, 75, 77
1, 14423, Note_on_c, 0, 75, 0
1, 14424, Note_on_c, 0, 71, 77
1, 14445, Note_on_c, 0, 59, 0
1, 14445, Note_on_c, 0, 66, 0
1, 14447, Note_on_c, 0, 71, 0
1, 14448, Note_on_c, 0, 59, 77
1, 14448, Note_on_c, 0, 66, 61
1, 14448, Note_on_c, 0, 78, 77
1, 14471, Note_on_c, 0, 78, 0
1, 14472, Note_on_c, 0, 75, 77
1, 14493, Note_on_c, 0, 59, 0
1, 14493, Note_on_c, 0, 66, 0
1, 14495, Note_on_c, 0, 75, 0
1, 14496, Note_on_c, 0, 59, 77
1, 14496, Note_on_c, 0, 66, 61
1, 14496, Note_on_c, 0, 81, 77
1, 14519, Note_on_c, 0, 81, 0
1, 14520, Note_on_c, 0, 78, 77
1, 14541, Note_on_c, 0, 59, 0
1, 14541, Note_on_c, 0, 66, 0
1, 14543, Note_on_c, 0, 78, 0
1, 14544, Note_on_c, 0, 59, 77
1, 14544, Note_on_c, 0, 64, 61
1, 14544, Note_on_c, 0, 80, 77
1, 14567, Note_on_c, 0, 80, 0
1, 14568, Note_on_c, 0, 83, 77
1, 14589, Note_on_c, 0, 59, 0
1, 14589, Note_on_c, 0, 64, 0
1, 14591, Note_on_c, 0, 83, 0
1, 14592, Note_on_c, 0, 59, 77
1, 14592, Note_on_c, 0, 64, 61
1, 14592, Note_on_c, 0, 81, 77
1, 14615, Note_on_c, 0, 81, 0
1, 14616, Note_on_c, 0, 80, 77
1, 14637, Note_on_c, 0, 59, 0
1, 14637, Note_on_c, 0, 64, 0
1, 14639, Note_on_c, 0, 80, 0
1, 14640, Note_on_c, 0, 59, 77
1, 14640, Note_on_c, 0, 64, 61
1, 14640, Note_on_c, 0, 78, 77
1, 14663, Note_on_c, 0, 78, 0
1, 14664, Note_on_c, 0, 76, 77
1, 14685, Note_on_c, 0, 59, 0
1, 14685, Note_on_c, 0, 64, 0
1, 14687, Note_on_c, 0, 76, 0
1, 14688, Note_on_c, 0, 59, 77
1, 14688, Note_on_c, 0, 66, 61
1, 14688, Note_on_c, 0, 75, 77
1, 14711, Note_on_c, 0, 75, 0
1, 14712, Note_on_c, 0, 71, 77
1, 14733, Note_on_c, 0, 59, 0
1, 14733, Note_on_c, 0, 66, 0
1, 14735, Note_on_c, 0, 71, 0
1, 14736, Note_on_c, 0, 59, 77
1, 14736, Note_on_c, 0, 66, 61
1, 14736, Note_on_c, 0, 78, 77
1, 14759, Note_on_c, 0, 78, 0
1, 14760, Note_on_c, 0, 75, 77
1, 14781, Note_on_c, 0, 59, 0
1, 14781, Note_on_c, 0, 66, 0
1, 14783, Note_on_c, 0, 75, 0
1, 14784, Note_on_c, 0, 59, 77
1, 14784, Note_on_c, 0, 66, 61
1, 14784, Note_on_c, 0, 81, 77
1, 14807, Note_on_c, 0, 81, 0
1, 14808, Note_on_c, 0, 78, 77
1, 14829, Note_on_c, 0, 59, 0
1, 14829, Note_on_c, 0, 66, 0
1, 14831, Note_on_c, 0, 78, 0
1, 14832, Note_on_c, 0, 52, 77
1, 14832, Note_on_c, 0, 76, 77
1, 14832, Note_on_c, 0, 80, 77
1, 14855, Note_on_c, 0, 52, 0
1, 14856, Note_on_c, 0, 64, 77
1, 14879, Note_on_c, 0, 64, 0
1, 14880, Note_on_c, 0, 63, 77
1, 14903, Note_on_c, 0, 63, 0
1, 14904, Note_on_c, 0, 64, 77
1, 14921, Note_on_c, 0, 76, 0
1, 14921, Note_on_c, 0, 80, 0
1, 14927, Note_on_c, 0, 64, 0
1, 14928, Note_on_c, 0, 52, 77
1, 14973, Note_on_c, 0, 52, 0
1, 14976, Note_on_c, 0, 68, 77
1, 14999, Note_on_c, 0, 68, 0
1, 15000, Note_on_c, 0, 71, 77
1, 15023, Note_on_c, 0, 71, 0
1, 15024, Note_on_c, 0, 69, 77
1, 15047, Note_on_c, 0, 69, 0
1, 15048, Note_on_c, 0, 68, 77
1, 15071, Note_on_c, 0, 68, 0
1, 15072, Note_on_c, 0, 66, 77
1, 15095, Note_on_c, 0, 66, 0
1, 15096, Note_on_c, 0, 64, 77
1, 15119, Note_on_c, 0, 64, 0
1, 15120, Note_on_c, 0, 71, 77
1, 15120, Note_on_c, 0, 74, 77
1, 15168, Note_on_c, 0, 56, 77
1, 15216, Note_on_c, 0, 56, 0
1, 15216, Note_on_c, 0, 57, 77
1, 15216, Note_on_c, 0, 69, 77
1, 15216, Note_on_c, 0, 71, 0
1, 15216, Note_on_c, 0, 73, 77
1, 15216, Note_on_c, 0, 74, 0
1, 15261, Note_on_c, 0, 57, 0
1, 15261, Note_on_c, 0, 69, 0
1, 15261, Note_on_c, 0, 73, 0
1, 15264, Note_on_c, 0, 70, 77
1, 15287, Note_on_c, 0, 70, 0
1, 15288, Note_on_c, 0, 73, 77
1, 15311, Note_on_c, 0, 73, 0
1, 15312, Note_on_c, 0, 71, 77
1, 15335, Note_on_c, 0, 71, 0
1, 15336, Note_on_c, 0, 70, 77
1, 15359, Note_on_c, 0, 70, 0
1, 15360, Note_on_c, 0, 68, 77
1, 15383, Note_on_c, 0, 68, 0
1, 15384, Note_on_c, 0, 66, 77
1, 15407, Note_on_c, 0, 66, 0
1, 15408, Note_on_c, 0, 73, 77
1, 15408, Note_on_c, 0, 76, 77
1, 15456, Note_on_c, 0, 58, 77
1, 15504, Note_on_c, 0, 58, 0
1, 15504, Note_on_c, 0, 59, 77
1, 15504, Note_on_c, 0, 71, 77
1, 15504, Note_on_c, 0, 73, 0
1, 15504, Note_on_c, 0, 75, 77
1, 15504, Note_on_c, 0, 76, 0
1, 15549, Note_on_c, 0, 59, 0
1, 15549, Note_on_c, 0, 71, 0
1, 15549, Note_on_c, 0, 75, 0
1, 15552, Note_on_c, 0, 75, 77
1, 15575, Note_on_c, 0, 75, 0
1, 15576, Note_on_c, 0, 78, 77
1, 15599, Note_on_c, 0, 78, 0
1, 15600, Note_on_c, 0, 76, 77
1, 15623, Note_on_c, 0, 76, 0
1, 15624, Note_on_c, 0, 75, 77
1, 15647, Note_on_c, 0, 75, 0
1, 15648, Note_on_c, 0, 73, 77
1, 15671, Note_on_c, 0, 73, 0
1, 15672, Note_on_c, 0, 71, 77
1, 15695, Note_on_c, 0, 71, 0
1, 15696, Note_on_c, 0, 78, 77
1, 15696, Note_on_c, 0, 81, 77
1, 15744, Note_on_c, 0, 51, 77
1, 15792, Note_on_c, 0, 51, 0
1, 15792, Note_on_c, 0, 52, 77
1, 15792, Note_on_c, 0, 76, 77
1, 15792, Note_on_c, 0, 78, 0
1, 15792, Note_on_c, 0, 80, 77
1, 15792, Note_on_c, 0, 81, 0
1, 15837, Note_on_c, 0, 52, 0
1, 15837, Note_on_c, 0, 76, 0
1, 15837, Note_on_c, 0, 80, 0
1, 15840, Note_on_c, 0, 59, 77
1, 15840, Note_on_c, 0, 76, 77
1, 15840, Note_on_c, 0, 80, 77
1, 15885, Note_on_c, 0, 59, 0
1, 15888, Note_on_c, 0, 54, 77
1, 15888, Note_on_c, 0, 75, 77
1, 15888, Note_on_c, 0, 76, 0
1, 15888, Note_on_c, 0, 78, 77
1, 15888, Note_on_c, 0, 80, 0
1, 15933, Note_on_c, 0, 54, 0
1, 15933, Note_on_c, 0, 75, 0
1, 15933, Note_on_c, 0, 78, 0
1, 15936, Note_on_c, 0, 47, 77
1, 15981, Note_on_c, 0, 47, 0
1, 15984, Note_on_c, 0, 47, 77
1, 15984, Note_on_c, 0, 71, 77
1, 16007, Note_on_c, 0, 47, 0
1, 16008, Note_on_c, 0, 59, 77
1, 16031, Note_on_c, 0, 59, 0
1, 16032, Note_on_c, 0, 47, 77
1, 16055, Note_on_c, 0, 47, 0
1, 16056, Note_on_c, 0, 59, 78
1, 16073, Note_on_c, 0, 71, 0
1, 16079, Note_on_c, 0, 59, 0
1, 16080, Note_on_c, 0, 47, 78
1, 16080, Note_on_c, 0, 70, 78
1, 16080, Note_on_c, 0, 73, 78
1, 16103, Note_on_c, 0, 47, 0
1, 16104, Note_on_c, 0, 59, 79
1, 16125, Note_on_c, 0, 70, 0
1, 16125, Note_on_c, 0, 73, 0
1, 16127, Note_on_c, 0, 59, 0
1, 16128, Note_on_c, 0, 47, 79
1, 16128, Note_on_c, 0, 71, 79
1, 16128, Note_on_c, 0, 75, 79
1, 16151, Note_on_c, 0, 47, 0
1, 16152, Note_on_c, 0, 59, 79
1, 16175, Note_on_c, 0, 59, 0
1, 16176, Note_on_c, 0, 47, 80
1, 16199, Note_on_c, 0, 47, 0
1, 16200, Note_on_c, 0, 59, 80
1, 16217, Note_on_c, 0, 71, 0
1, 16217, Note_on_c, 0, 75, 0
1, 16223, Note_on_c, 0, 59, 0
1, 16224, Note_on_c, 0, 47, 81
1, 16224, Note_on_c, 0, 73, 80
1, 16224, Note_on_c, 0, 76, 80
1, 16247, Note_on_c, 0, 47, 0
1, 16248, Note_on_c, 0, 59, 81
1, 16269, Note_on_c, 0, 73, 0
1, 16269, Note_on_c, 0, 76, 0
1, 16271, Note_on_c, 0, 59, 0
1, 16272, Note_on_c, 0, 47, 82
1, 16272, Note_on_c, 0, 75, 81
1, 16272, Note_on_c, 0, 78, 81
1, 16295, Note_on_c, 0, 47, 0
1, 16296, Note_on_c, 0, 59, 82
1, 16317, Note_on_c, 0, 75, 0
1, 16317, Note_on_c, 0, 78, 0
1, 16319, Note_on_c, 0, 59, 0
1, 16320, Note_on_c, 0, 47, 82
1, 16320, Note_on_c, 0, 78, 82
1, 16320, Note_on_c, 0, 81, 82
1, 16343, Note_on_c, 0, 47, 0
1, 16344, Note_on_c, 0, 59, 83
1, 16365, Note_on_c, 0, 78, 0
1, 16365, Note_on_c, 0, 81, 0
1, 16367, Note_on_c, 0, 59, 0
1, 16368, Note_on_c, 0, 47, 83
1, 16368, Note_on_c, 0, 76, 82
1, 16368, Note_on_c, 0, 80, 82
1, 16391, Note_on_c, 0, 47, 0
1, 16392, Note_on_c, 0, 59, 84
1, 16413, Note_on_c, 0, 76, 0
1, 16413, Note_on_c, 0, 80, 0
1, 16415, Note_on_c, 0, 59, 0
1, 16416, Note_on_c, 0, 47, 84
1, 16416, Note_on_c, 0, 75, 83
1, 16416, Note_on_c, 0, 78, 83
1, 16439, Note_on_c, 0, 47, 0
1, 16440, Note_on_c, 0, 59, 85
1, 16463, Note_on_c, 0, 59, 0
1, 16464, Note_on_c, 0, 54, 85
1, 16487, Note_on_c, 0, 54, 0
1, 16488, Note_on_c, 0, 51, 85
1, 16505, Note_on_c, 0, 75, 0
1, 16505, Note_on_c, 0, 78, 0
1, 16511, Note_on_c, 0, 51, 0
1, 16512, Note_on_c, 0, 47, 85
1, 16557, Note_on_c, 0, 47, 0
1, 16560, Note_on_c, 0, 47, 77
1, 16560, Note_on_c, 0, 71, 85
1, 16583, Note_on_c, 0, 47, 0
1, 16584, Note_on_c, 0, 59, 77
1, 16607, Note_on_c, 0, 59, 0
1, 16608, Note_on_c, 0, 47, 77
1, 16631, Note_on_c, 0, 47, 0
1, 16632, Note_on_c, 0, 59, 78
1, 16649, Note_on_c, 0, 71, 0
1, 16655, Note_on_c, 0, 59, 0
1, 16656, Note_on_c, 0, 47, 78
1, 16656, Note_on_c, 0, 70, 77
1, 16656, Note_on_c, 0, 73, 77
1, 16679, Note_on_c, 0, 47, 0
1, 16680, Note_on_c, 0, 59, 79
1, 16701, Note_on_c, 0, 70, 0
1, 16701, Note_on_c, 0, 73, 0
1, 16703, Note_on_c, 0, 59, 0
1, 16704, Note_on_c, 0, 47, 79
1, 16704, Note_on_c, 0, 71, 77
1, 16704, Note_on_c, 0, 75, 77
1, 16727, Note_on_c, 0, 47, 0
1, 16728, Note_on_c, 0, 59, 79
1, 16751, Note_on_c, 0, 59, 0
1, 16752, Note_on_c, 0, 47, 80
1, 16775, Note_on_c, 0, 47, 0
1, 16776, Note_on_c, 0, 59, 80
1, 16793, Note_on_c, 0, 71, 0
1, 16793, Note_on_c, 0, 75, 0
1, 16799, Note_on_c, 0, 59, 0
1, 16800, Note_on_c, 0, 47, 81
1, 16800, Note_on_c, 0, 73, 79
1, 16800, Note_on_c, 0, 76, 79
1, 16823, Note_on_c, 0, 47, 0
1, 16824, Note_on_c, 0, 59, 81
1, 16845, Note_on_c, 0, 73, 0
1, 16845, Note_on_c, 0, 76, 0
1, 16847, Note_on_c, 0, 59, 0
1, 16848, Note_on_c, 0, 47, 82
1, 16848, Note_on_c, 0, 75, 80
1, 16848, Note_on_c, 0, 78, 80
1, 16871, Note_on_c, 0, 47, 0
1, 16872, Note_on_c, 0, 59, 82
1, 16893, Note_on_c, 0, 75, 0
1, 16893, Note_on_c, 0, 78, 0
1, 16895, Note_on_c, 0, 59, 0
1, 16896, Note_on_c, 0, 47, 82
1, 16896, Note_on_c, 0, 78, 81
1, 16896, Note_on_c, 0, 81, 81
1, 16919, Note_on_c, 0, 47, 0
1, 16920, Note_on_c, 0, 59, 83
1, 16941, Note_on_c, 0, 78, 0
1, 16941, Note_on_c, 0, 81, 0
1, 16943, Note_on_c, 0, 59, 0
1, 16944, Note_on_c, 0, 47, 83
1, 16944, Note_on_c, 0, 76, 82
1, 16944, Note_on_c, 0, 80, 82
1, 16967, Note_on_c, 0, 47, 0
1, 16968, Note_on_c, 0, 59, 84
1, 16989, Note_on_c, 0, 76, 0
1, 16989, Note_on_c, 0, 80, 0
1, 16991, Note_on_c, 0, 59, 0
1, 16992, Note_on_c, 0, 47, 84
1, 16992, Note_on_c, 0, 75, 83
1, 16992, Note_on_c, 0, 78, 83
1, 17015, Note_on_c, 0, 47, 0
1, 17016, Note_on_c, 0, 59, 85
1, 17039, Note_on_c, 0, 59, 0
1, 17040, Note_on_c, 0, 54, 85
1, 17063, Note_on_c, 0, 54, 0
1, 17064, Note_on_c, 0, 51, 85
1, 17081, Note_on_c, 0, 75, 0
1, 17081, Note_on_c, 0, 78, 0
1, 17087, Note_on_c, 0, 51, 0
1, 17088, Note_on_c, 0, 47, 85
1, 17133, Note_on_c, 0, 47, 0
1, 17136, Note_on_c, 0, 52, 85
1, 17136, Note_on_c, 0, 68, 85
1, 17136, Note_on_c, 0, 71, 85
1, 17159, Note_on_c, 0, 52, 0
1, 17160, Note_on_c, 0, 64, 85
1, 17183, Note_on_c, 0, 64, 0
1, 17184, Note_on_c, 0, 52, 85
1, 17207, Note_on_c, 0, 52, 0
1, 17208, Note_on_c, 0, 64, 85
1, 17225, Note_on_c, 0, 68, 0
1, 17225, Note_on_c, 0, 71, 0
1, 17231, Note_on_c, 0, 64, 0
1, 17232, Note_on_c, 0, 52, 85
1, 17232, Note_on_c, 0, 76, 85
1, 17255, Note_on_c, 0, 52, 0
1, 17256, Note_on_c, 0, 64, 85
1, 17256, Note_on_c, 0, 71, 85
1, 17256, Note_on_c, 0, 76, 0
1, 17279, Note_on_c, 0, 64, 0
1, 17279, Note_on_c, 0, 71, 0
1, 17280, Note_on_c, 0, 52, 85
1, 17280, Note_on_c, 0, 69, 61
1, 17280, Note_on_c, 0, 74, 85
1, 17292, Note_on_c, 0, 73, 85
1, 17292, Note_on_c, 0, 74, 0
1, 17303, Note_on_c, 0, 52, 0
1, 17304, Note_on_c, 0, 64, 85
1, 17304, Note_on_c, 0, 73, 0
1, 17304, Note_on_c, 0, 74, 85
1, 17316, Note_on_c, 0, 73, 85
1, 17316, Note_on_c, 0, 74, 0
1, 17325, Note_on_c, 0, 69, 0
1, 17327, Note_on_c, 0, 64, 0
1, 17328, Note_on_c, 0, 52, 85
1, 17328, Note_on_c, 0, 68, 61
1, 17328, Note_on_c, 0, 71, 85
1, 17328, Note_on_c, 0, 73, 0
1, 17351, Note_on_c, 0, 52, 0
1, 17352, Note_on_c, 0, 64, 85
1, 17373, Note_on_c, 0, 68, 0
1, 17373, Note_on_c, 0, 71, 0
1, 17375, Note_on_c, 0, 64, 0
1, 17376, Note_on_c, 0, 52, 85
1, 17399, Note_on_c, 0, 52, 0
1, 17400, Note_on_c, 0, 64, 85
1, 17423, Note_on_c, 0, 64, 0
1, 17424, Note_on_c, 0, 52, 85
1, 17424, Note_on_c, 0, 75, 85
1, 17424, Note_on_c, 0, 81, 85
1, 17447, Note_on_c, 0, 52, 0
1, 17448, Note_on_c, 0, 64, 85
1, 17471, Note_on_c, 0, 64, 0
1, 17472, Note_on_c, 0, 52, 85
1, 17472, Note_on_c, 0, 75, 0
1, 17472, Note_on_c, 0, 76, 85
1, 17472, Note_on_c, 0, 80, 85
1, 17472, Note_on_c, 0, 81, 0
1, 17495, Note_on_c, 0, 52, 0
1, 17496, Note_on_c, 0, 64, 85
1, 17517, Note_on_c, 0, 76, 0
1, 17517, Note_on_c, 0, 80, 0
1, 17519, Note_on_c, 0, 64, 0
1, 17520, Note_on_c, 0, 52, 85
1, 17543, Note_on_c, 0, 52, 0
1, 17544, Note_on_c, 0, 64, 85
1, 17567, Note_on_c, 0, 64, 0
1, 17568, Note_on_c, 0, 52, 85
1, 17568, Note_on_c, 0, 69, 61
1, 17568, Note_on_c, 0, 74, 85
1, 17580, Note_on_c, 0, 73, 85
1, 17580, Note_on_c, 0, 74, 0
1, 17591, Note_on_c, 0, 52, 0
1, 17592, Note_on_c, 0, 64, 85
1, 17592, Note_on_c, 0, 73, 0
1, 17592, Note_on_c, 0, 74, 85
1, 17604, Note_on_c, 0, 73, 85
1, 17604, Note_on_c, 0, 74, 0
1, 17615, Note_on_c, 0, 64, 0
1, 17616, Note_on_c, 0, 52, 85
1, 17616, Note_on_c, 0, 68, 61
1, 17616, Note_on_c, 0, 69, 0
1, 17616, Note_on_c, 0, 71, 85
1, 17616, Note_on_c, 0, 73, 0
1, 17639, Note_on_c, 0, 52, 0
1, 17640, Note_on_c, 0, 64, 85
1, 17661, Note_on_c, 0, 68, 0
1, 17661, Note_on_c, 0, 71, 0
1, 17663, Note_on_c, 0, 64, 0
1, 17664, Note_on_c, 0, 52, 85
1, 17687, Note_on_c, 0, 52, 0
1, 17688, Note_on_c, 0, 64, 85
1, 17711, Note_on_c, 0, 64, 0
1, 17712, Note_on_c, 0, 52, 85
1, 17712, Note_on_c, 0, 75, 85
1, 17712, Note_on_c, 0, 81, 85
1, 17735, Note_on_c, 0, 52, 0
1, 17736, Note_on_c, 0, 64, 85
1, 17759, Note_on_c, 0, 64, 0
1, 17760, Note_on_c, 0, 52, 85
1, 17760, Note_on_c, 0, 75, 0
1, 17760, Note_on_c, 0, 76, 85
1, 17760, Note_on_c, 0, 80, 85
1, 17760, Note_on_c, 0, 81, 0
1, 17783, Note_on_c, 0, 52, 0
1, 17784, Note_on_c, 0, 64, 85
1, 17805, Note_on_c, 0, 76, 0
1, 17805, Note_on_c, 0, 80, 0
1, 17807, Note_on_c, 0, 64, 0
1, 17808, Note_on_c, 0, 52, 85
1, 17831, Note_on_c, 0, 52, 0
1, 17832, Note_on_c, 0, 64, 85
1, 17855, Note_on_c, 0, 64, 0
1, 17856, Note_on_c, 0, 66, 85
1, 17856, Note_on_c, 0, 81, 85
1, 17879, Note_on_c, 0, 81, 0
1, 17880, Note_on_c, 0, 78, 84
1, 17903, Note_on_c, 0, 78, 0
1, 17904, Note_on_c, 0, 85, 84
1, 17927, Note_on_c, 0, 85, 0
1, 17928, Note_on_c, 0, 81, 83
1, 17945, Note_on_c, 0, 66, 0
1, 17951, Note_on_c, 0, 81, 0
1, 17952, Note_on_c, 0, 63, 82
1, 17952, Note_on_c, 0, 80, 83
1, 17975, Note_on_c, 0, 80, 0
1, 17976, Note_on_c, 0, 78, 82
1, 17997, Note_on_c, 0, 63, 0
1, 17999, Note_on_c, 0, 78, 0
1, 18000, Note_on_c, 0, 64, 81
1, 18000, Note_on_c, 0, 80, 82
1, 18023, Note_on_c, 0, 80, 0
1, 18024, Note_on_c, 0, 76, 81
1, 18047, Note_on_c, 0, 76, 0
1, 18048, Note_on_c, 0, 83, 81
1, 18071, Note_on_c, 0, 83, 0
1, 18072, Note_on_c, 0, 80, 80
1, 18089, Note_on_c, 0, 64, 0
1, 18095, Note_on_c, 0, 80, 0
1, 18096, Note_on_c, 0, 61, 79
1, 18096, Note_on_c, 0, 78, 80
1, 18119, Note_on_c, 0, 78, 0
1, 18120, Note_on_c, 0, 76, 79
1, 18141, Note_on_c, 0, 61, 0
1, 18143, Note_on_c, 0, 76, 0
1, 18144, Note_on_c, 0, 63, 78
1, 18144, Note_on_c, 0, 78, 79
1, 18167, Note_on_c, 0, 78, 0
1, 18168, Note_on_c, 0, 75, 78
1, 18191, Note_on_c, 0, 75, 0
1, 18192, Note_on_c, 0, 81, 78
1, 18215, Note_on_c, 0, 81, 0
1, 18216, Note_on_c, 0, 78, 77
1, 18233, Note_on_c, 0, 63, 0
1, 18239, Note_on_c, 0, 78, 0
1, 18240, Note_on_c, 0, 60, 76
1, 18240, Note_on_c, 0, 76, 77
1, 18263, Note_on_c, 0, 76, 0
1, 18264, Note_on_c, 0, 75, 77
1, 18285, Note_on_c, 0, 60, 0
1, 18287, Note_on_c, 0, 75, 0
1, 18288, Note_on_c, 0, 61, 75
1, 18288, Note_on_c, 0, 76, 76
1, 18311, Note_on_c, 0, 76, 0
1, 18312, Note_on_c, 0, 73, 76
1, 18335, Note_on_c, 0, 73, 0
1, 18336, Note_on_c, 0, 80, 75
1, 18359, Note_on_c, 0, 80, 0
1, 18360, Note_on_c, 0, 76, 75
1, 18377, Note_on_c, 0, 61, 0
1, 18383, Note_on_c, 0, 76, 0
1, 18384, Note_on_c, 0, 57, 73
1, 18384, Note_on_c, 0, 75, 74
1, 18407, Note_on_c, 0, 75, 0
1, 18408, Note_on_c, 0, 73, 74
1, 18429, Note_on_c, 0, 57, 0
1, 18431, Note_on_c, 0, 73, 0
1, 18432, Note_on_c, 0, 54, 72
1, 18432, Note_on_c, 0, 75, 73
1, 18447, Note_on_c, 0, 75, 0
1, 18448, Note_on_c, 0, 76, 73
1, 18463, Note_on_c, 0, 76, 0
1, 18464, Note_on_c, 0, 78, 73
1, 18477, Note_on_c, 0, 54, 0
1, 18479, Note_on_c, 0, 78, 0
1, 18480, Note_on_c, 0, 56, 71
1, 18480, Note_on_c, 0, 76, 73
1, 18525, Note_on_c, 0, 56, 0
1, 18525, Note_on_c, 0, 76, 0
1, 18528, Note_on_c, 0, 44, 70
1, 18528, Note_on_c, 0, 76, 72
1, 18540, Note_on_c, 0, 75, 71
1, 18540, Note_on_c, 0, 76, 0
1, 18552, Note_on_c, 0, 75, 0
1, 18552, Note_on_c, 0, 76, 71
1, 18564, Note_on_c, 0, 75, 71
1, 18564, Note_on_c, 0, 76, 0
1, 18573, Note_on_c, 0, 44, 0
1, 18576, Note_on_c, 0, 49, 69
1, 18576, Note_on_c, 0, 73, 71
1, 18576, Note_on_c, 0, 75, 0
1, 18665, Note_on_c, 0, 49, 0
1, 18665, Note_on_c, 0, 73, 0
1, 18672, Note_on_c, 0, 69, 77
1, 18687, Note_on_c, 0, 69, 0
1, 18688, Note_on_c, 0, 71, 77
1, 18703, Note_on_c, 0, 71, 0
1, 18704, Note_on_c, 0, 73, 77
1, 18719, Note_on_c, 0, 73, 0
1, 18720, Note_on_c, 0, 57, 77
1, 18720, Note_on_c, 0, 61, 77
1, 18720, Note_on_c, 0, 69, 77
1, 18765, Note_on_c, 0, 69, 0
1, 18768, Note_on_c, 0, 73, 77
1, 18809, Note_on_c, 0, 57, 0
1, 18809, Note_on_c, 0, 61, 0
1, 18813, Note_on_c, 0, 73, 0
1, 18816, Note_on_c, 0, 76, 77
1, 18861, Note_on_c, 0, 76, 0
1, 18864, Note_on_c, 0, 57, 77
1, 18864, Note_on_c, 0, 61, 77
1, 18864, Note_on_c, 0, 76, 77
1, 18909, Note_on_c, 0, 76, 0
1, 18912, Note_on_c, 0, 81, 77
1, 18953, Note_on_c, 0, 57, 0
1, 18953, Note_on_c, 0, 61, 0
1, 18957, Note_on_c, 0, 81, 0
1, 18960, Note_on_c, 0, 76, 77
1, 18983, Note_on_c, 0, 76, 0
1, 18984, Note_on_c, 0, 73, 77
1, 19007, Note_on_c, 0, 73, 0
1, 19008, Note_on_c, 0, 52, 77
1, 19008, Note_on_c, 0, 62, 61
1, 19008, Note_on_c, 0, 76, 77
1, 19031, Note_on_c, 0, 76, 0
1, 19032, Note_on_c, 0, 74, 77
1, 19053, Note_on_c, 0, 62, 0
1, 19055, Note_on_c, 0, 74, 0
1, 19056, Note_on_c, 0, 56, 61
1, 19056, Note_on_c, 0, 74, 77
1, 19079, Note_on_c, 0, 74, 0
1, 19080, Note_on_c, 0, 71, 77
1, 19097, Note_on_c, 0, 52, 0
1, 19101, Note_on_c, 0, 56, 0
1, 19103, Note_on_c, 0, 71, 0
1, 19104, Note_on_c, 0, 57, 61
1, 19104, Note_on_c, 0, 57, 77
1, 19104, Note_on_c, 0, 73, 77
1, 19149, Note_on_c, 0, 57, 0
1, 19149, Note_on_c, 0, 57, 0
1, 19149, Note_on_c, 0, 73, 0
1, 19152, Note_on_c, 0, 57, 77
1, 19152, Note_on_c, 0, 61, 77
1, 19152, Note_on_c, 0, 76, 77
1, 19197, Note_on_c, 0, 76, 0
1, 19200, Note_on_c, 0, 81, 77
1, 19241, Note_on_c, 0, 57, 0
1, 19241, Note_on_c, 0, 61, 0
1, 19245, Note_on_c, 0, 81, 0
1, 19248, Note_on_c, 0, 73, 77
1, 19271, Note_on_c, 0, 73, 0
1, 19272, Note_on_c, 0, 69, 77
1, 19295, Note_on_c, 0, 69, 0
1, 19296, Note_on_c, 0, 62, 77
1, 19296, Note_on_c, 0, 73, 77
1, 19319, Note_on_c, 0, 73, 0
1, 19320, Note_on_c, 0, 71, 77
1, 19341, Note_on_c, 0, 62, 0
1, 19343, Note_on_c, 0, 71, 0
1, 19344, Note_on_c, 0, 59, 77
1, 19344, Note_on_c, 0, 71, 77
1, 19367, Note_on_c, 0, 71, 0
1, 19368, Note_on_c, 0, 68, 77
1, 19389, Note_on_c, 0, 59, 0
1, 19391, Note_on_c, 0, 68, 0
1, 19392, Note_on_c, 0, 61, 77
1, 19392, Note_on_c, 0, 69, 77
1, 19437, Note_on_c, 0, 61, 0
1, 19437, Note_on_c, 0, 69, 0
1, 19440, Note_on_c, 0, 64, 77
1, 19485, Note_on_c, 0, 64, 0
1, 19488, Note_on_c, 0, 56, 77
1, 19488, Note_on_c, 0, 71, 77
1, 19488, Note_on_c, 0, 74, 77
1, 19533, Note_on_c, 0, 56, 0
1, 19533, Note_on_c, 0, 71, 0
1, 19533, Note_on_c, 0, 74, 0
1, 19536, Note_on_c, 0, 57, 77
1, 19536, Note_on_c, 0, 69, 77
1, 19536, Note_on_c, 0, 73, 77
1, 19581, Note_on_c, 0, 57, 0
1, 19581, Note_on_c, 0, 69, 0
1, 19581, Note_on_c, 0, 73, 0
1, 19584, Note_on_c, 0, 52, 77
1, 19584, Note_on_c, 0, 69, 61
1, 19584, Note_on_c, 0, 74, 77
1, 19596, Note_on_c, 0, 73, 77
1, 19596, Note_on_c, 0, 74, 0
1, 19608, Note_on_c, 0, 73, 0
1, 19608, Note_on_c, 0, 74, 77
1, 19620, Note_on_c, 0, 73, 77
1, 19620, Note_on_c, 0, 74, 0
1, 19629, Note_on_c, 0, 69, 0
1, 19632, Note_on_c, 0, 68, 61
1, 19632, Note_on_c, 0, 71, 77
1, 19632, Note_on_c, 0, 73, 0
1, 19673, Note_on_c, 0, 52, 0
1, 19677, Note_on_c, 0, 68, 0
1, 19677, Note_on_c, 0, 71, 0
1, 19680, Note_on_c, 0, 54, 77
1, 19725, Note_on_c, 0, 54, 0
1, 19728, Note_on_c, 0, 49, 77
1, 19728, Note_on_c, 0, 64, 77
1, 19751, Note_on_c, 0, 49, 0
1, 19752, Note_on_c, 0, 57, 77
1, 19773, Note_on_c, 0, 64, 0
1, 19775, Note_on_c, 0, 57, 0
1, 19776, Note_on_c, 0, 52, 77
1, 19776, Note_on_c, 0, 69, 77
1, 19791, Note_on_c, 0, 69, 0
1, 19792, Note_on_c, 0, 67, 77
1, 19799, Note_on_c, 0, 52, 0
1, 19800, Note_on_c, 0, 57, 77
1, 19807, Note_on_c, 0, 67, 0
1, 19808, Note_on_c, 0, 66, 77
1, 19823, Note_on_c, 0, 57, 0
1, 19823, Note_on_c, 0, 66, 0
1, 19824, Note_on_c, 0, 49, 77
1, 19824, Note_on_c, 0, 67, 77
1, 19839, Note_on_c, 0, 67, 0
1, 19840, Note_on_c, 0, 66, 77
1, 19847, Note_on_c, 0, 49, 0
1, 19848, Note_on_c, 0, 57, 77
1, 19855, Note_on_c, 0, 66, 0
1, 19856, Note_on_c, 0, 64, 77
1, 19871, Note_on_c, 0, 57, 0
1, 19871, Note_on_c, 0, 64, 0
1, 19872, Note_on_c, 0, 50, 77
1, 19872, Note_on_c, 0, 66, 77
1, 19887, Note_on_c, 0, 66, 0
1, 19888, Note_on_c, 0, 62, 77
1, 19895, Note_on_c, 0, 50, 0
1, 19896, Note_on_c, 0, 57, 77
1, 19903, Note_on_c, 0, 62, 0
1, 19904, Note_on_c, 0, 66, 77
1, 19919, Note_on_c, 0, 57, 0
1, 19919, Note_on_c, 0, 66, 0
1, 19920, Note_on_c, 0, 54, 77
1, 19920, Note_on_c, 0, 69, 77
1, 19935, Note_on_c, 0, 69, 0
1, 19936, Note_on_c, 0, 66, 77
1, 19943, Note_on_c, 0, 54, 0
1, 19944, Note_on_c, 0, 57, 77
1, 19951, Note_on_c, 0, 66, 0
1, 19952, Note_on_c, 0, 69, 77
1, 19967, Note_on_c, 0, 57, 0
1, 19967, Note_on_c, 0, 69, 0
1, 19968, Note_on_c, 0, 50, 77
1, 19968, Note_on_c, 0, 74, 77
1, 19991, Note_on_c, 0, 50, 0
1, 19992, Note_on_c, 0, 57, 77
1, 20013, Note_on_c, 0, 74, 0
1, 20015, Note_on_c, 0, 57, 0
1, 20016, Note_on_c, 0, 51, 77
1, 20016, Note_on_c, 0, 66, 77
1, 20039, Note_on_c, 0, 51, 0
1, 20040, Note_on_c, 0, 59, 77
1, 20061, Note_on_c, 0, 66, 0
1, 20063, Note_on_c, 0, 59, 0
1, 20064, Note_on_c, 0, 54, 77
1, 20064, Note_on_c, 0, 71, 77
1, 20079, Note_on_c, 0, 71, 0
1, 20080, Note_on_c, 0, 69, 77
1, 20087, Note_on_c, 0, 54, 0
1, 20088, Note_on_c, 0, 59, 77
1, 20095, Note_on_c, 0, 69, 0
1, 20096, Note_on_c, 0, 68, 77
1, 20111, Note_on_c, 0, 59, 0
1, 20111, Note_on_c, 0, 68, 0
1, 20112, Note_on_c, 0, 51, 77
1, 20112, Note_on_c, 0, 69, 77
1, 20127, Note_on_c, 0, 69, 0
1, 20128, Note_on_c, 0, 68, 77
1, 20135, Note_on_c, 0, 51, 0
1, 20136, Note_on_c, 0, 59, 77
1, 20143, Note_on_c, 0, 68, 0
1, 20144, Note_on_c, 0, 66, 77
1, 20159, Note_on_c, 0, 59, 0
1, 20159, Note_on_c, 0, 66, 0
1, 20160, Note_on_c, 0, 52, 77
1, 20160, Note_on_c, 0, 68, 77
1, 20175, Note_on_c, 0, 68, 0
1, 20176, Note_on_c, 0, 64, 77
1, 20183, Note_on_c, 0, 52, 0
1, 20184, Note_on_c, 0, 59, 77
1, 20191, Note_on_c, 0, 64, 0
1, 20192, Note_on_c, 0, 68, 77
1, 20207, Note_on_c, 0, 59, 0
1, 20207, Note_on_c, 0, 68, 0
1, 20208, Note_on_c, 0, 56, 77
1, 20208, Note_on_c, 0, 71, 77
1, 20223, Note_on_c, 0, 71, 0
1, 20224, Note_on_c, 0, 68, 77
1, 20231, Note_on_c, 0, 56, 0
1, 20232, Note_on_c, 0, 59, 77
1, 20239, Note_on_c, 0, 68, 0
1, 20240, Note_on_c, 0, 71, 77
1, 20255, Note_on_c, 0, 59, 0
1, 20255, Note_on_c, 0, 71, 0
1, 20256, Note_on_c, 0, 52, 77
1, 20256, Note_on_c, 0, 76, 77
1, 20279, Note_on_c, 0, 52, 0
1, 20280, Note_on_c, 0, 59, 77
1, 20301, Note_on_c, 0, 76, 0
1, 20303, Note_on_c, 0, 59, 0
1, 20304, Note_on_c, 0, 56, 77
1, 20304, Note_on_c, 0, 64, 77
1, 20327, Note_on_c, 0, 56, 0
1, 20328, Note_on_c, 0, 64, 77
1, 20349, Note_on_c, 0, 64, 0
1, 20351, Note_on_c, 0, 64, 0
1, 20352, Note_on_c, 0, 59, 77
1, 20352, Note_on_c, 0, 74, 77
1, 20375, Note_on_c, 0, 59, 0
1, 20375, Note_on_c, 0, 74, 0
1, 20376, Note_on_c, 0, 64, 77
1, 20376, Note_on_c, 0, 71, 77
1, 20399, Note_on_c, 0, 64, 0
1, 20399, Note_on_c, 0, 71, 0
1, 20400, Note_on_c, 0, 57, 77
1, 20400, Note_on_c, 0, 73, 77
1, 20423, Note_on_c, 0, 57, 0
1, 20423, Note_on_c, 0, 73, 0
1, 20424, Note_on_c, 0, 64, 77
1, 20424, Note_on_c, 0, 69, 77
1, 20447, Note_on_c, 0, 64, 0
1, 20447, Note_on_c, 0, 69, 0
1, 20448, Note_on_c, 0, 59, 77
1, 20448, Note_on_c, 0, 69, 77
1, 20471, Note_on_c, 0, 59, 0
1, 20471, Note_on_c, 0, 69, 0
1, 20472, Note_on_c, 0, 64, 77
1, 20472, Note_on_c, 0, 68, 77
1, 20495, Note_on_c, 0, 64, 0
1, 20495, Note_on_c, 0, 68, 0
1, 20496, Note_on_c, 0, 62, 77
1, 20496, Note_on_c, 0, 71, 77
1, 20519, Note_on_c, 0, 62, 0
1, 20519, Note_on_c, 0, 71, 0
1, 20520, Note_on_c, 0, 64, 77
1, 20520, Note_on_c, 0, 68, 77
1, 20543, Note_on_c, 0, 64, 0
1, 20543, Note_on_c, 0, 68, 0
1, 20544, Note_on_c, 0, 61, 77
1, 20544, Note_on_c, 0, 69, 77
1, 20567, Note_on_c, 0, 61, 0
1, 20568, Note_on_c, 0, 64, 77
1, 20589, Note_on_c, 0, 69, 0
1, 20591, Note_on_c, 0, 64, 0
1, 20592, Note_on_c, 0, 56, 69
1, 20592, Note_on_c, 0, 64, 69
1, 20615, Note_on_c, 0, 56, 0
1, 20616, Note_on_c, 0, 64, 69
1, 20637, Note_on_c, 0, 64, 0
1, 20639, Note_on_c, 0, 64, 0
1, 20640, Note_on_c, 0, 59, 69
1, 20640, Note_on_c, 0, 74, 69
1, 20663, Note_on_c, 0, 59, 0
1, 20663, Note_on_c, 0, 74, 0
1, 20664, Note_on_c, 0, 64, 69
1, 20664, Note_on_c, 0, 71, 69
1, 20687, Note_on_c, 0, 64, 0
1, 20687, Note_on_c, 0, 71, 0
1, 20688, Note_on_c, 0, 57, 69
1, 20688, Note_on_c, 0, 73, 69
1, 20711, Note_on_c, 0, 57, 0
1, 20711, Note_on_c, 0, 73, 0
1, 20712, Note_on_c, 0, 64, 69
1, 20712, Note_on_c, 0, 69, 69
1, 20735, Note_on_c, 0, 64, 0
1, 20735, Note_on_c, 0, 69, 0
1, 20736, Note_on_c, 0, 59, 69
1, 20736, Note_on_c, 0, 69, 69
1, 20759, Note_on_c, 0, 59, 0
1, 20759, Note_on_c, 0, 69, 0
1, 20760, Note_on_c, 0, 64, 69
1, 20760, Note_on_c, 0, 68, 69
1, 20783, Note_on_c, 0, 64, 0
1, 20783, Note_on_c, 0, 68, 0
1, 20784, Note_on_c, 0, 62, 69
1, 20784, Note_on_c, 0, 71, 69
1, 20807, Note_on_c, 0, 62, 0
1, 20807, Note_on_c, 0, 71, 0
1, 20808, Note_on_c, 0, 64, 69
1, 20808, Note_on_c, 0, 68, 69
1, 20831, Note_on_c, 0, 64, 0
1, 20831, Note_on_c, 0, 68, 0
1, 20832, Note_on_c, 0, 61, 69
1, 20832, Note_on_c, 0, 69, 69
1, 20855, Note_on_c, 0, 61, 0
1, 20856, Note_on_c, 0, 64, 69
1, 20877, Note_on_c, 0, 69, 0
1, 20879, Note_on_c, 0, 64, 0
1, 20880, Note_on_c, 0, 62, 69
1, 20880, Note_on_c, 0, 68, 77
1, 20892, Note_on_c, 0, 66, 77
1, 20892, Note_on_c, 0, 68, 0
1, 20904, Note_on_c, 0, 64, 77
1, 20904, Note_on_c, 0, 66, 0
1, 20916, Note_on_c, 0, 64, 0
1, 20916, Note_on_c, 0, 66, 77
1, 20925, Note_on_c, 0, 62, 0
1, 20928, Note_on_c, 0, 59, 69
1, 20928, Note_on_c, 0, 66, 0
1, 20928, Note_on_c, 0, 74, 77
1, 20973, Note_on_c, 0, 59, 0
1, 20973, Note_on_c, 0, 74, 0
1, 20976, Note_on_c, 0, 56, 69
1, 21021, Note_on_c, 0, 56, 0
1, 21024, Note_on_c, 0, 61, 69
1, 21024, Note_on_c, 0, 66, 77
1, 21036, Note_on_c, 0, 64, 77
1, 21036, Note_on_c, 0, 66, 0
1, 21048, Note_on_c, 0, 62, 77
1, 21048, Note_on_c, 0, 64, 0
1, 21060, Note_on_c, 0, 62, 0
1, 21060, Note_on_c, 0, 64, 77
1, 21069, Note_on_c, 0, 61, 0
1, 21072, Note_on_c, 0, 57, 69
1, 21072, Note_on_c, 0, 64, 0
1, 21072, Note_on_c, 0, 73, 77
1, 21117, Note_on_c, 0, 57, 0
1, 21117, Note_on_c, 0, 73, 0
1, 21120, Note_on_c, 0, 54, 69
1, 21165, Note_on_c, 0, 54, 0
1, 21168, Note_on_c, 0, 59, 69
1, 21168, Note_on_c, 0, 64, 77
1, 21180, Note_on_c, 0, 62, 77
1, 21180, Note_on_c, 0, 64, 0
1, 21192, Note_on_c, 0, 61, 77
1, 21192, Note_on_c, 0, 62, 0
1, 21204, Note_on_c, 0, 61, 0
1, 21204, Note_on_c, 0, 62, 77
1, 21213, Note_on_c, 0, 59, 0
1, 21216, Note_on_c, 0, 56, 69
1, 21216, Note_on_c, 0, 62, 0
1, 21216, Note_on_c, 0, 71, 77
1, 21261, Note_on_c, 0, 56, 0
1, 21261, Note_on_c, 0, 71, 0
1, 21264, Note_on_c, 0, 52, 69
1, 21309, Note_on_c, 0, 52, 0
1, 21312, Note_on_c, 0, 57, 69
1, 21312, Note_on_c, 0, 62, 77
1, 21324, Note_on_c, 0, 61, 77
1, 21324, Note_on_c, 0, 62, 0
1, 21336, Note_on_c, 0, 59, 77
1, 21336, Note_on_c, 0, 61, 0
1, 21348, Note_on_c, 0, 59, 0
1, 21348, Note_on_c, 0, 61, 77
1, 21360, Note_on_c, 0, 61, 0
1, 21360, Note_on_c, 0, 69, 77
1, 21401, Note_on_c, 0, 57, 0
1, 21405, Note_on_c, 0, 69, 0
1, 21408, Note_on_c, 0, 56, 69
1, 21453, Note_on_c, 0, 56, 0
1, 21456, Note_on_c, 0, 54, 69
1, 21456, Note_on_c, 0, 74, 77
1, 21468, Note_on_c, 0, 73, 77
1, 21468, Note_on_c, 0, 74, 0
1, 21480, Note_on_c, 0, 71, 77
1, 21480, Note_on_c, 0, 73, 0
1, 21492, Note_on_c, 0, 71, 0
1, 21492, Note_on_c, 0, 73, 77
1, 21504, Note_on_c, 0, 73, 0
1, 21504, Note_on_c, 0, 81, 77
1, 21545, Note_on_c, 0, 54, 0
1, 21549, Note_on_c, 0, 81, 0
1, 21552, Note_on_c, 0, 49, 69
1, 21597, Note_on_c, 0, 49, 0
1, 21600, Note_on_c, 0, 50, 69
1, 21600, Note_on_c, 0, 73, 77
1, 21612, Note_on_c, 0, 71, 77
1, 21612, Note_on_c, 0, 73, 0
1, 21624, Note_on_c, 0, 69, 77
1, 21624, Note_on_c, 0, 71, 0
1, 21636, Note_on_c, 0, 69, 0
1, 21636, Note_on_c, 0, 71, 77
1, 21645, Note_on_c, 0, 50, 0
1, 21648, Note_on_c, 0, 47, 69
1, 21648, Note_on_c, 0, 71, 0
1, 21672, Note_on_c, 0, 74, 77
1, 21693, Note_on_c, 0, 47, 0
1, 21695, Note_on_c, 0, 74, 0
1, 21696, Note_on_c, 0, 52, 69
1, 21696, Note_on_c, 0, 73, 77
1, 21708, Note_on_c, 0, 73, 0
1, 21708, Note_on_c, 0, 76, 77
1, 21720, Note_on_c, 0, 68, 77
1, 21720, Note_on_c, 0, 76, 0
1, 21732, Note_on_c, 0, 68, 0
1, 21732, Note_on_c, 0, 71, 77
1, 21741, Note_on_c, 0, 52, 0
1, 21744, Note_on_c, 0, 45, 69
1, 21744, Note_on_c, 0, 69, 77
1, 21744, Note_on_c, 0, 71, 0
1, 21833, Note_on_c, 0, 45, 0
1, 21833, Note_on_c, 0, 69, 0
1, 21888, Note_on_c, 0, 60, 61
1, 21888, Note_on_c, 0, 64, 61
1, 21888, Note_on_c, 0, 69, 61
1, 21933, Note_on_c, 0, 60, 0
1, 21933, Note_on_c, 0, 64, 0
1, 21933, Note_on_c, 0, 69, 0
1, 21936, Note_on_c, 0, 62, 61
1, 21936, Note_on_c, 0, 65, 61
1, 21936, Note_on_c, 0, 71, 61
1, 21981, Note_on_c, 0, 62, 0
1, 21981, Note_on_c, 0, 65, 0
1, 21981, Note_on_c, 0, 71, 0
1, 21984, Note_on_c, 0, 59, 61
1, 21984, Note_on_c, 0, 62, 61
1, 21984, Note_on_c, 0, 68, 61
1, 22029, Note_on_c, 0, 59, 0
1, 22029, Note_on_c, 0, 62, 0
1, 22029, Note_on_c, 0, 68, 0
1, 22032, Note_on_c, 0, 60, 61
1, 22032, Note_on_c, 0, 64, 61
1, 22032, Note_on_c, 0, 69, 61
1, 22055, Note_on_c, 0, 69, 0
1, 22056, Note_on_c, 0, 77, 61
1, 22079, Note_on_c, 0, 77, 0
1, 22080, Note_on_c, 0, 76, 61
1, 22103, Note_on_c, 0, 76, 0
1, 22104, Note_on_c, 0, 74, 61
1, 22121, Note_on_c, 0, 60, 0
1, 22121, Note_on_c, 0, 64, 0
1, 22127, Note_on_c, 0, 74, 0
1, 22128, Note_on_c, 0, 72, 61
1, 22151, Note_on_c, 0, 72, 0
1, 22152, Note_on_c, 0, 71, 61
1, 22175, Note_on_c, 0, 71, 0
1, 22176, Note_on_c, 0, 60, 61
1, 22176, Note_on_c, 0, 64, 61
1, 22176, Note_on_c, 0, 69, 61
1, 22221, Note_on_c, 0, 60, 0
1, 22221, Note_on_c, 0, 64, 0
1, 22221, Note_on_c, 0, 69, 0
1, 22224, Note_on_c, 0, 62, 61
1, 22224, Note_on_c, 0, 65, 61
1, 22224, Note_on_c, 0, 71, 61
1, 22269, Note_on_c, 0, 62, 0
1, 22269, Note_on_c, 0, 65, 0
1, 22269, Note_on_c, 0, 71, 0
1, 22272, Note_on_c, 0, 59, 61
1, 22272, Note_on_c, 0, 62, 61
1, 22272, Note_on_c, 0, 68, 61
1, 22317, Note_on_c, 0, 59, 0
1, 22317, Note_on_c, 0, 62, 0
1, 22317, Note_on_c, 0, 68, 0
1, 22320, Note_on_c, 0, 60, 61
1, 22320, Note_on_c, 0, 64, 61
1, 22320, Note_on_c, 0, 69, 61
1, 22343, Note_on_c, 0, 69, 0
1, 22344, Note_on_c, 0, 71, 61
1, 22367, Note_on_c, 0, 71, 0
1, 22368, Note_on_c, 0, 72, 61
1, 22391, Note_on_c, 0, 72, 0
1, 22392, Note_on_c, 0, 74, 61
1, 22409, Note_on_c, 0, 60, 0
1, 22409, Note_on_c, 0, 64, 0
1, 22415, Note_on_c, 0, 74, 0
1, 22416, Note_on_c, 0, 76, 61
1, 22461, Note_on_c, 0, 76, 0
1, 22464, Note_on_c, 0, 62, 61
1, 22464, Note_on_c, 0, 76, 61
1, 22487, Note_on_c, 0, 76, 0
1, 22488, Note_on_c, 0, 77, 61
1, 22509, Note_on_c, 0, 62, 0
1, 22511, Note_on_c, 0, 77, 0
1, 22512, Note_on_c, 0, 59, 61
1, 22512, Note_on_c, 0, 74, 61
1, 22557, Note_on_c, 0, 59, 0
1, 22557, Note_on_c, 0, 74, 0
1, 22560, Note_on_c, 0, 55, 61
1, 22560, Note_on_c, 0, 71, 61
1, 22605, Note_on_c, 0, 55, 0
1, 22605, Note_on_c, 0, 71, 0
1, 22608, Note_on_c, 0, 60, 61
1, 22608, Note_on_c, 0, 75, 61
1, 22631, Note_on_c, 0, 75, 0
1, 22632, Note_on_c, 0, 76, 61
1, 22653, Note_on_c, 0, 60, 0
1, 22655, Note_on_c, 0, 76, 0
1, 22656, Note_on_c, 0, 57, 61
1, 22656, Note_on_c, 0, 72, 61
1, 22701, Note_on_c, 0, 57, 0
1, 22701, Note_on_c, 0, 72, 0
1, 22704, Note_on_c, 0, 53, 61
1, 22749, Note_on_c, 0, 53, 0
1, 22752, Note_on_c, 0, 59, 61
1, 22752, Note_on_c, 0, 73, 61
1, 22775, Note_on_c, 0, 73, 0
1, 22776, Note_on_c, 0, 74, 61
1, 22797, Note_on_c, 0, 59, 0
1, 22799, Note_on_c, 0, 74, 0
1, 22800, Note_on_c, 0, 56, 61
1, 22800, Note_on_c, 0, 71, 61
1, 22845, Note_on_c, 0, 56, 0
1, 22845, Note_on_c, 0, 71, 0
1, 22848, Note_on_c, 0, 52, 61
1, 22848, Note_on_c, 0, 68, 61
1, 22893, Note_on_c, 0, 52, 0
1, 22893, Note_on_c, 0, 68, 0
1, 22896, Note_on_c, 0, 57, 61
1, 22896, Note_on_c, 0, 71, 61
1, 22919, Note_on_c, 0, 71, 0
1, 22920, Note_on_c, 0, 72, 61
1, 22941, Note_on_c, 0, 57, 0
1, 22943, Note_on_c, 0, 72, 0
1, 22944, Note_on_c, 0, 60, 61
1, 22944, Note_on_c, 0, 69, 61
1, 22989, Note_on_c, 0, 60, 0
1, 22989, Note_on_c, 0, 69, 0
1, 22992, Note_on_c, 0, 57, 61
1, 23037, Note_on_c, 0, 57, 0
1, 23040, Note_on_c, 0, 68, 61
1, 23063, Note_on_c, 0, 68, 0
1, 23064, Note_on_c, 0, 69, 61
1, 23087, Note_on_c, 0, 69, 0
1, 23088, Note_on_c, 0, 56, 61
1, 23088, Note_on_c, 0, 71, 61
1, 23111, Note_on_c, 0, 56, 0
1, 23111, Note_on_c, 0, 71, 0
1, 23112, Note_on_c, 0, 57, 61
1, 23112, Note_on_c, 0, 72, 61
1, 23135, Note_on_c, 0, 57, 0
1, 23135, Note_on_c, 0, 72, 0
1, 23136, Note_on_c, 0, 59, 61
1, 23136, Note_on_c, 0, 74, 61
1, 23159, Note_on_c, 0, 59, 0
1, 23159, Note_on_c, 0, 74, 0
1, 23160, Note_on_c, 0, 57, 61
1, 23160, Note_on_c, 0, 72, 61
1, 23183, Note_on_c, 0, 57, 0
1, 23183, Note_on_c, 0, 72, 0
1, 23184, Note_on_c, 0, 52, 61
1, 23184, Note_on_c, 0, 57, 61
1, 23184, Note_on_c, 0, 74, 61
1, 23196, Note_on_c, 0, 72, 61
1, 23196, Note_on_c, 0, 74, 0
1, 23208, Note_on_c, 0, 72, 0
1, 23208, Note_on_c, 0, 74, 61
1, 23220, Note_on_c, 0, 72, 61
1, 23220, Note_on_c, 0, 74, 0
1, 23229, Note_on_c, 0, 57, 0
1, 23232, Note_on_c, 0, 56, 61
1, 23232, Note_on_c, 0, 71, 61
1, 23232, Note_on_c, 0, 72, 0
1, 23273, Note_on_c, 0, 52, 0
1, 23277, Note_on_c, 0, 56, 0
1, 23277, Note_on_c, 0, 71, 0
1, 23280, Note_on_c, 0, 69, 73
1, 23295, Note_on_c, 0, 69, 0
1, 23296, Note_on_c, 0, 71, 76
1, 23311, Note_on_c, 0, 71, 0
1, 23312, Note_on_c, 0, 73, 79
1, 23327, Note_on_c, 0, 73, 0
1, 23328, Note_on_c, 0, 45, 85
1, 23328, Note_on_c, 0, 57, 85
1, 23328, Note_on_c, 0, 69, 85
1, 23373, Note_on_c, 0, 69, 0
1, 23376, Note_on_c, 0, 69, 85
1, 23376, Note_on_c, 0, 73, 85
1, 23417, Note_on_c, 0, 45, 0
1, 23417, Note_on_c, 0, 57, 0
1, 23421, Note_on_c, 0, 69, 0
1, 23421, Note_on_c, 0, 73, 0
1, 23424, Note_on_c, 0, 73, 85
1, 23424, Note_on_c, 0, 76, 85
1, 23469, Note_on_c, 0, 73, 0
1, 23469, Note_on_c, 0, 76, 0
1, 23472, Note_on_c, 0, 40, 85
1, 23472, Note_on_c, 0, 52, 85
1, 23472, Note_on_c, 0, 73, 85
1, 23472, Note_on_c, 0, 76, 85
1, 23517, Note_on_c, 0, 73, 0
1, 23517, Note_on_c, 0, 76, 0
1, 23520, Note_on_c, 0, 71, 85
1, 23520, Note_on_c, 0, 74, 85
1, 23561, Note_on_c, 0, 40, 0
1, 23561, Note_on_c, 0, 52, 0
1, 23565, Note_on_c, 0, 71, 0
1, 23565, Note_on_c, 0, 74, 0
1, 23568, Note_on_c, 0, 68, 85
1, 23583, Note_on_c, 0, 68, 0
1, 23584, Note_on_c, 0, 69, 85
1, 23599, Note_on_c, 0, 69, 0
1, 23600, Note_on_c, 0, 71, 85
1, 23615, Note_on_c, 0, 71, 0
1, 23616, Note_on_c, 0, 40, 85
1, 23616, Note_on_c, 0, 52, 85
1, 23616, Note_on_c, 0, 64, 85
1, 23661, Note_on_c, 0, 64, 0
1, 23664, Note_on_c, 0, 68, 85
1, 23664, Note_on_c, 0, 71, 85
1, 23705, Note_on_c, 0, 40, 0
1, 23705, Note_on_c, 0, 52, 0
1, 23709, Note_on_c, 0, 68, 0
1, 23709, Note_on_c, 0, 71, 0
1, 23712, Note_on_c, 0, 71, 85
1, 23712, Note_on_c, 0, 74, 85
1, 23757, Note_on_c, 0, 71, 0
1, 23757, Note_on_c, 0, 74, 0
1, 23760, Note_on_c, 0, 45, 85
1, 23760, Note_on_c, 0, 57, 85
1, 23760, Note_on_c, 0, 71, 85
1, 23760, Note_on_c, 0, 74, 85
1, 23805, Note_on_c, 0, 71, 0
1, 23805, Note_on_c, 0, 74, 0
1, 23808, Note_on_c, 0, 69, 85
1, 23808, Note_on_c, 0, 73, 85
1, 23849, Note_on_c, 0, 45, 0
1, 23849, Note_on_c, 0, 57, 0
1, 23853, Note_on_c, 0, 69, 0
1, 23853, Note_on_c, 0, 73, 0
1, 23856, Note_on_c, 0, 69, 85
1, 23871, Note_on_c, 0, 69, 0
1, 23872, Note_on_c, 0, 71, 85
1, 23887, Note_on_c, 0, 71, 0
1, 23888, Note_on_c, 0, 73, 85
1, 23903, Note_on_c, 0, 73, 0
1, 23904, Note_on_c, 0, 45, 77
1, 23904, Note_on_c, 0, 57, 77
1, 23904, Note_on_c, 0, 69, 85
1, 23949, Note_on_c, 0, 69, 0
1, 23952, Note_on_c, 0, 69, 85
1, 23952, Note_on_c, 0, 73, 85
1, 23993, Note_on_c, 0, 45, 0
1, 23993, Note_on_c, 0, 57, 0
1, 23997, Note_on_c, 0, 69, 0
1, 23997, Note_on_c, 0, 73, 0
1, 24000, Note_on_c, 0, 73, 85
1, 24000, Note_on_c, 0, 76, 85
1, 24045, Note_on_c, 0, 73, 0
1, 24045, Note_on_c, 0, 76, 0
1, 24048, Note_on_c, 0, 40, 77
1, 24048, Note_on_c, 0, 52, 77
1, 24048, Note_on_c, 0, 73, 85
1, 24048, Note_on_c, 0, 76, 85
1, 24093, Note_on_c, 0, 73, 0
1, 24093, Note_on_c, 0, 76, 0
1, 24096, Note_on_c, 0, 71, 85
1, 24096, Note_on_c, 0, 74, 85
1, 24137, Note_on_c, 0, 40, 0
1, 24137, Note_on_c, 0, 52, 0
1, 24141, Note_on_c, 0, 71, 0
1, 24141, Note_on_c, 0, 74, 0
1, 24144, Note_on_c, 0, 68, 85
1, 24159, Note_on_c, 0, 68, 0
1, 24160, Note_on_c, 0, 69, 85
1, 24175, Note_on_c, 0, 69, 0
1, 24176, Note_on_c, 0, 71, 85
1, 24191, Note_on_c, 0, 71, 0
1, 24192, Note_on_c, 0, 40, 77
1, 24192, Note_on_c, 0, 52, 77
1, 24192, Note_on_c, 0, 64, 85
1, 24237, Note_on_c, 0, 64, 0
1, 24240, Note_on_c, 0, 68, 85
1, 24240, Note_on_c, 0, 71, 85
1, 24281, Note_on_c, 0, 40, 0
1, 24281, Note_on_c, 0, 52, 0
1, 24285, Note_on_c, 0, 68, 0
1, 24285, Note_on_c, 0, 71, 0
1, 24288, Note_on_c, 0, 71, 85
1, 24288, Note_on_c, 0, 74, 85
1, 24333, Note_on_c, 0, 71, 0
1, 24333, Note_on_c, 0, 74, 0
1, 24336, Note_on_c, 0, 45, 77
1, 24336, Note_on_c, 0, 57, 77
1, 24336, Note_on_c, 0, 71, 85
1, 24336, Note_on_c, 0, 74, 85
1, 24381, Note_on_c, 0, 71, 0
1, 24381, Note_on_c, 0, 74, 0
1, 24384, Note_on_c, 0, 69, 85
1, 24384, Note_on_c, 0, 73, 85
1, 24425, Note_on_c, 0, 45, 0
1, 24425, Note_on_c, 0, 57, 0
1, 24429, Note_on_c, 0, 69, 0
1, 24429, Note_on_c, 0, 73, 0
1, 24432, Note_on_c, 0, 69, 77
1, 24447, Note_on_c, 0, 69, 0
1, 24448, Note_on_c, 0, 71, 77
1, 24463, Note_on_c, 0, 71, 0
1, 24464, Note_on_c, 0, 73, 77
1, 24479, Note_on_c, 0, 73, 0
1, 24480, Note_on_c, 0, 49, 77
1, 24480, Note_on_c, 0, 64, 77
1, 24525, Note_on_c, 0, 64, 0
1, 24528, Note_on_c, 0, 69, 77
1, 24573, Note_on_c, 0, 69, 0
1, 24576, Note_on_c, 0, 67, 77
1, 24613, Note_on_c, 0, 49, 0
1, 24621, Note_on_c, 0, 67, 0
1, 24624, Note_on_c, 0, 50, 77
1, 24624, Note_on_c, 0, 67, 77
1, 24669, Note_on_c, 0, 67, 0
1, 24672, Note_on_c, 0, 66, 77
1, 24713, Note_on_c, 0, 50, 0
1, 24717, Note_on_c, 0, 66, 0
1, 24720, Note_on_c, 0, 47, 77
1, 24720, Note_on_c, 0, 68, 77
1, 24735, Note_on_c, 0, 68, 0
1, 24736, Note_on_c, 0, 71, 77
1, 24751, Note_on_c, 0, 71, 0
1, 24752, Note_on_c, 0, 74, 77
1, 24765, Note_on_c, 0, 47, 0
1, 24767, Note_on_c, 0, 74, 0
1, 24768, Note_on_c, 0, 45, 77
1, 24768, Note_on_c, 0, 73, 77
1, 24783, Note_on_c, 0, 73, 0
1, 24784, Note_on_c, 0, 74, 77
1, 24799, Note_on_c, 0, 74, 0
1, 24800, Note_on_c, 0, 76, 77
1, 24813, Note_on_c, 0, 45, 0
1, 24815, Note_on_c, 0, 76, 0
1, 24816, Note_on_c, 0, 49, 77
1, 24816, Note_on_c, 0, 69, 77
1, 24861, Note_on_c, 0, 49, 0
1, 24861, Note_on_c, 0, 69, 0
1, 24864, Note_on_c, 0, 52, 77
1, 24864, Note_on_c, 0, 69, 77
1, 24876, Note_on_c, 0, 68, 77
1, 24876, Note_on_c, 0, 69, 0
1, 24888, Note_on_c, 0, 68, 0
1, 24888, Note_on_c, 0, 69, 77
1, 24900, Note_on_c, 0, 68, 77
1, 24900, Note_on_c, 0, 69, 0
1, 24909, Note_on_c, 0, 52, 0
1, 24912, Note_on_c, 0, 45, 77
1, 24912, Note_on_c, 0, 68, 0
1, 24912, Note_on_c, 0, 69, 77
1, 25001, Note_on_c, 0, 45, 0
1, 25001, Note_on_c, 0, 69, 0
1, 25008, Note_on_c, 0, 64, 77
1, 25023, Note_on_c, 0, 64, 0
1, 25024, Note_on_c, 0, 66, 77
1, 25039, Note_on_c, 0, 66, 0
1, 25040, Note_on_c, 0, 68, 77
1, 25055, Note_on_c, 0, 68, 0
1, 25056, Note_on_c, 0, 52, 77
1, 25056, Note_on_c, 0, 56, 77
1, 25056, Note_on_c, 0, 64, 77
1, 25101, Note_on_c, 0, 64, 0
1, 25104, Note_on_c, 0, 68, 77
1, 25145, Note_on_c, 0, 52, 0
1, 25145, Note_on_c, 0, 56, 0
1, 25149, Note_on_c, 0, 68, 0
1, 25152, Note_on_c, 0, 71, 77
1, 25197, Note_on_c, 0, 71, 0
1, 25200, Note_on_c, 0, 52, 77
1, 25200, Note_on_c, 0, 56, 77
1, 25200, Note_on_c, 0, 71, 77
1, 25245, Note_on_c, 0, 71, 0
1, 25248, Note_on_c, 0, 76, 77
1, 25289, Note_on_c, 0, 52, 0
1, 25289, Note_on_c, 0, 56, 0
1, 25293, Note_on_c, 0, 76, 0
1, 25296, Note_on_c, 0, 71, 77
1, 25319, Note_on_c, 0, 71, 0
1, 25320, Note_on_c, 0, 68, 77
1, 25343, Note_on_c, 0, 68, 0
1, 25344, Note_on_c, 0, 47, 77
1, 25344, Note_on_c, 0, 54, 61
1, 25344, Note_on_c, 0, 71, 77
1, 25367, Note_on_c, 0, 71, 0
1, 25368, Note_on_c, 0, 69, 77
1, 25389, Note_on_c, 0, 54, 0
1, 25391, Note_on_c, 0, 69, 0
1, 25392, Note_on_c, 0, 51, 61
1, 25392, Note_on_c, 0, 69, 77
1, 25415, Note_on_c, 0, 69, 0
1, 25416, Note_on_c, 0, 66, 77
1, 25433, Note_on_c, 0, 47, 0
1, 25437, Note_on_c, 0, 51, 0
1, 25439, Note_on_c, 0, 66, 0
1, 25440, Note_on_c, 0, 52, 61
1, 25440, Note_on_c, 0, 52, 77
1, 25440, Note_on_c, 0, 68, 77
1, 25485, Note_on_c, 0, 52, 0
1, 25485, Note_on_c, 0, 52, 0
1, 25485, Note_on_c, 0, 68, 0
1, 25488, Note_on_c, 0, 52, 77
1, 25488, Note_on_c, 0, 56, 77
1, 25488, Note_on_c, 0, 71, 77
1, 25533, Note_on_c, 0, 71, 0
1, 25536, Note_on_c, 0, 76, 77
1, 25577, Note_on_c, 0, 52, 0
1, 25577, Note_on_c, 0, 56, 0
1, 25581, Note_on_c, 0, 76, 0
1, 25584, Note_on_c, 0, 68, 77
1, 25607, Note_on_c, 0, 68, 0
1, 25608, Note_on_c, 0, 64, 77
1, 25631, Note_on_c, 0, 64, 0
1, 25632, Note_on_c, 0, 57, 77
1, 25632, Note_on_c, 0, 68, 77
1, 25655, Note_on_c, 0, 68, 0
1, 25656, Note_on_c, 0, 66, 77
1, 25677, Note_on_c, 0, 57, 0
1, 25679, Note_on_c, 0, 66, 0
1, 25680, Note_on_c, 0, 54, 77
1, 25680, Note_on_c, 0, 66, 77
1, 25703, Note_on_c, 0, 66, 0
1, 25704, Note_on_c, 0, 63, 77
1, 25725, Note_on_c, 0, 54, 0
1, 25727, Note_on_c, 0, 63, 0
1, 25728, Note_on_c, 0, 56, 77
1, 25728, Note_on_c, 0, 64, 77
1, 25773, Note_on_c, 0, 56, 0
1, 25773, Note_on_c, 0, 64, 0
1, 25776, Note_on_c, 0, 59, 77
1, 25821, Note_on_c, 0, 59, 0
1, 25824, Note_on_c, 0, 51, 77
1, 25824, Note_on_c, 0, 66, 77
1, 25824, Note_on_c, 0, 69, 77
1, 25869, Note_on_c, 0, 51, 0
1, 25869, Note_on_c, 0, 66, 0
1, 25869, Note_on_c, 0, 69, 0
1, 25872, Note_on_c, 0, 52, 77
1, 25872, Note_on_c, 0, 64, 77
1, 25872, Note_on_c, 0, 68, 77
1, 25917, Note_on_c, 0, 52, 0
1, 25917, Note_on_c, 0, 64, 0
1, 25917, Note_on_c, 0, 68, 0
1, 25920, Note_on_c, 0, 59, 77
1, 25920, Note_on_c, 0, 66, 61
1, 25920, Note_on_c, 0, 69, 77
1, 25932, Note_on_c, 0, 68, 77
1, 25932, Note_on_c, 0, 69, 0
1, 25944, Note_on_c, 0, 68, 0
1, 25944, Note_on_c, 0, 69, 77
1, 25956, Note_on_c, 0, 68, 77
1, 25956, Note_on_c, 0, 69, 0
1, 25965, Note_on_c, 0, 59, 0
1, 25965, Note_on_c, 0, 66, 0
1, 25968, Note_on_c, 0, 54, 77
1, 25968, Note_on_c, 0, 63, 61
1, 25968, Note_on_c, 0, 66, 77
1, 25968, Note_on_c, 0, 68, 0
1, 26013, Note_on_c, 0, 54, 0
1, 26013, Note_on_c, 0, 63, 0
1, 26013, Note_on_c, 0, 66, 0
1, 26016, Note_on_c, 0, 47, 77
1, 26061, Note_on_c, 0, 47, 0
1, 26064, Note_on_c, 0, 61, 61
1, 26064, Note_on_c, 0, 68, 61
1, 26064, Note_on_c, 0, 77, 77
1, 26087, Note_on_c, 0, 77, 0
1, 26088, Note_on_c, 0, 71, 77
1, 26109, Note_on_c, 0, 61, 0
1, 26109, Note_on_c, 0, 68, 0
1, 26111, Note_on_c, 0, 71, 0
1, 26112, Note_on_c, 0, 61, 61
1, 26112, Note_on_c, 0, 68, 61
1, 26112, Note_on_c, 0, 80, 77
1, 26135, Note_on_c, 0, 80, 0
1, 26136, Note_on_c, 0, 77, 77
1, 26157, Note_on_c, 0, 61, 0
1, 26157, Note_on_c, 0, 68, 0
1, 26159, Note_on_c, 0, 77, 0
1, 26160, Note_on_c, 0, 61, 61
1, 26160, Note_on_c, 0, 68, 61
1, 26160, Note_on_c, 0, 83, 77
1, 26183, Note_on_c, 0, 83, 0
1, 26184, Note_on_c, 0, 80, 77
1, 26205, Note_on_c, 0, 61, 0
1, 26205, Note_on_c, 0, 68, 0
1, 26207, Note_on_c, 0, 80, 0
1, 26208, Note_on_c, 0, 61, 61
1, 26208, Note_on_c, 0, 66, 61
1, 26208, Note_on_c, 0, 81, 77
1, 26231, Note_on_c, 0, 81, 0
1, 26232, Note_on_c, 0, 85, 77
1, 26253, Note_on_c, 0, 61, 0
1, 26253, Note_on_c, 0, 66, 0
1, 26255, Note_on_c, 0, 85, 0
1, 26256, Note_on_c, 0, 61, 61
1, 26256, Note_on_c, 0, 66, 61
1, 26256, Note_on_c, 0, 83, 77
1, 26279, Note_on_c, 0, 83, 0
1, 26280, Note_on_c, 0, 81, 77
1, 26301, Note_on_c, 0, 61, 0
1, 26301, Note_on_c, 0, 66, 0
1, 26303, Note_on_c, 0, 81, 0
1, 26304, Note_on_c, 0, 61, 61
1, 26304, Note_on_c, 0, 66, 61
1, 26304, Note_on_c, 0, 80, 77
1, 26327, Note_on_c, 0, 80, 0
1, 26328, Note_on_c, 0, 78, 77
1, 26349, Note_on_c, 0, 61, 0
1, 26349, Note_on_c, 0, 66, 0
1, 26351, Note_on_c, 0, 78, 0
1, 26352, Note_on_c, 0, 61, 61
1, 26352, Note_on_c, 0, 68, 61
1, 26352, Note_on_c, 0, 77, 77
1, 26375, Note_on_c, 0, 77, 0
1, 26376, Note_on_c, 0, 71, 77
1, 26397, Note_on_c, 0, 61, 0
1, 26397, Note_on_c, 0, 68, 0
1, 26399, Note_on_c, 0, 71, 0
1, 26400, Note_on_c, 0, 61, 61
1, 26400, Note_on_c, 0, 68, 61
1, 26400, Note_on_c, 0, 80, 77
1, 26423, Note_on_c, 0, 80, 0
1, 26424, Note_on_c, 0, 77, 77
1, 26445, Note_on_c, 0, 61, 0
1, 26445, Note_on_c, 0, 68, 0
1, 26447, Note_on_c, 0, 77, 0
1, 26448, Note_on_c, 0, 61, 61
1, 26448, Note_on_c, 0, 68, 61
1, 26448, Note_on_c, 0, 83, 77
1, 26471, Note_on_c, 0, 83, 0
1, 26472, Note_on_c, 0, 80, 77
1, 26493, Note_on_c, 0, 61, 0
1, 26493, Note_on_c, 0, 68, 0
1, 26495, Note_on_c, 0, 80, 0
1, 26496, Note_on_c, 0, 54, 61
1, 26496, Note_on_c, 0, 78, 77
1, 26496, Note_on_c, 0, 81, 77
1, 26519, Note_on_c, 0, 54, 0
1, 26520, Note_on_c, 0, 66, 61
1, 26543, Note_on_c, 0, 66, 0
1, 26544, Note_on_c, 0, 65, 61
1, 26567, Note_on_c, 0, 65, 0
1, 26568, Note_on_c, 0, 66, 61
1, 26585, Note_on_c, 0, 78, 0
1, 26585, Note_on_c, 0, 81, 0
1, 26591, Note_on_c, 0, 66, 0
1, 26592, Note_on_c, 0, 54, 61
1, 26637, Note_on_c, 0, 54, 0
1, 26640, Note_on_c, 0, 59, 77
1, 26640, Note_on_c, 0, 66, 61
1, 26640, Note_on_c, 0, 75, 77
1, 26663, Note_on_c, 0, 75, 0
1, 26664, Note_on_c, 0, 71, 77
1, 26685, Note_on_c, 0, 59, 0
1, 26685, Note_on_c, 0, 66, 0
1, 26687, Note_on_c, 0, 71, 0
1, 26688, Note_on_c, 0, 59, 77
1, 26688, Note_on_c, 0, 66, 61
1, 26688, Note_on_c, 0, 78, 77
1, 26711, Note_on_c, 0, 78, 0
1, 26712, Note_on_c, 0, 75, 77
1, 26733, Note_on_c, 0, 59, 0
1, 26733, Note_on_c, 0, 66, 0
1, 26735, Note_on_c, 0, 75, 0
1, 26736, Note_on_c, 0, 59, 77
1, 26736, Note_on_c, 0, 66, 61
1, 26736, Note_on_c, 0, 81, 77
1, 26759, Note_on_c, 0, 81, 0
1, 26760, Note_on_c, 0, 78, 77
1, 26781, Note_on_c, 0, 59, 0
1, 26781, Note_on_c, 0, 66, 0
1, 26783, Note_on_c, 0, 78, 0
1, 26784, Note_on_c, 0, 59, 77
1, 26784, Note_on_c, 0, 64, 61
1, 26784, Note_on_c, 0, 80, 77
1, 26807, Note_on_c, 0, 80, 0
1, 26808, Note_on_c, 0, 83, 77
1, 26829, Note_on_c, 0, 59, 0
1, 26829, Note_on_c, 0, 64, 0
1, 26831, Note_on_c, 0, 83, 0
1, 26832, Note_on_c, 0, 59, 77
1, 26832, Note_on_c, 0, 64, 61
1, 26832, Note_on_c, 0, 81, 77
1, 26855, Note_on_c, 0, 81, 0
1, 26856, Note_on_c, 0, 80, 77
1, 26877, Note_on_c, 0, 59, 0
1, 26877, Note_on_c, 0, 64, 0
1, 26879, Note_on_c, 0, 80, 0
1, 26880, Note_on_c, 0, 59, 77
1, 26880, Note_on_c, 0, 64, 61
1, 26880, Note_on_c, 0, 78, 77
1, 26903, Note_on_c, 0, 78, 0
1, 26904, Note_on_c, 0, 76, 77
1, 26925, Note_on_c, 0, 59, 0
1, 26925, Note_on_c, 0, 64, 0
1, 26927, Note_on_c, 0, 76, 0
1, 26928, Note_on_c, 0, 59, 77
1, 26928, Note_on_c, 0, 66, 61
1, 26928, Note_on_c, 0, 75, 77
1, 26951, Note_on_c, 0, 75, 0
1, 26952, Note_on_c, 0, 71, 77
1, 26973, Note_on_c, 0, 59, 0
1, 26973, Note_on_c, 0, 66, 0
1, 26975, Note_on_c, 0, 71, 0
1, 26976, Note_on_c, 0, 59, 77
1, 26976, Note_on_c, 0, 66, 61
1, 26976, Note_on_c, 0, 78, 77
1, 26999, Note_on_c, 0, 78, 0
1, 27000, Note_on_c, 0, 75, 77
1, 27021, Note_on_c, 0, 59, 0
1, 27021, Note_on_c, 0, 66, 0
1, 27023, Note_on_c, 0, 75, 0
1, 27024, Note_on_c, 0, 59, 77
1, 27024, Note_on_c, 0, 66, 61
1, 27024, Note_on_c, 0, 81, 77
1, 27047, Note_on_c, 0, 81, 0
1, 27048, Note_on_c, 0, 78, 77
1, 27069, Note_on_c, 0, 59, 0
1, 27069, Note_on_c, 0, 66, 0
1, 27071, Note_on_c, 0, 78, 0
1, 27072, Note_on_c, 0, 52, 77
1, 27072, Note_on_c, 0, 76, 77
1, 27072, Note_on_c, 0, 80, 77
1, 27095, Note_on_c, 0, 52, 0
1, 27096, Note_on_c, 0, 64, 77
1, 27119, Note_on_c, 0, 64, 0
1, 27120, Note_on_c, 0, 63, 77
1, 27143, Note_on_c, 0, 63, 0
1, 27144, Note_on_c, 0, 64, 77
1, 27161, Note_on_c, 0, 76, 0
1, 27161, Note_on_c, 0, 80, 0
1, 27167, Note_on_c, 0, 64, 0
1, 27168, Note_on_c, 0, 52, 77
1, 27213, Note_on_c, 0, 52, 0
1, 27216, Note_on_c, 0, 68, 77
1, 27239, Note_on_c, 0, 68, 0
1, 27240, Note_on_c, 0, 71, 77
1, 27263, Note_on_c, 0, 71, 0
1, 27264, Note_on_c, 0, 69, 77
1, 27287, Note_on_c, 0, 69, 0
1, 27288, Note_on_c, 0, 68, 77
1, 27311, Note_on_c, 0, 68, 0
1, 27312, Note_on_c, 0, 66, 77
1, 27335, Note_on_c, 0, 66, 0
1, 27336, Note_on_c, 0, 64, 77
1, 27359, Note_on_c, 0, 64, 0
1, 27360, Note_on_c, 0, 71, 77
1, 27360, Note_on_c, 0, 74, 77
1, 27408, Note_on_c, 0, 56, 77
1, 27456, Note_on_c, 0, 56, 0
1, 27456, Note_on_c, 0, 57, 77
1, 27456, Note_on_c, 0, 69, 77
1, 27456, Note_on_c, 0, 71, 0
1, 27456, Note_on_c, 0, 73, 77
1, 27456, Note_on_c, 0, 74, 0
1, 27501, Note_on_c, 0, 57, 0
1, 27501, Note_on_c, 0, 69, 0
1, 27501, Note_on_c, 0, 73, 0
1, 27504, Note_on_c, 0, 70, 77
1, 27527, Note_on_c, 0, 70, 0
1, 27528, Note_on_c, 0, 73, 77
1, 27551, Note_on_c, 0, 73, 0
1, 27552, Note_on_c, 0, 71, 77
1, 27575, Note_on_c, 0, 71, 0
1, 27576, Note_on_c, 0, 70, 77
1, 27599, Note_on_c, 0, 70, 0
1, 27600, Note_on_c, 0, 68, 77
1, 27623, Note_on_c, 0, 68, 0
1, 27624, Note_on_c, 0, 66, 77
1, 27647, Note_on_c, 0, 66, 0
1, 27648, Note_on_c, 0, 73, 77
1, 27648, Note_on_c, 0, 76, 77
1, 27696, Note_on_c, 0, 58, 77
1, 27744, Note_on_c, 0, 58, 0
1, 27744, Note_on_c, 0, 59, 77
1, 27744, Note_on_c, 0, 71, 77
1, 27744, Note_on_c, 0, 73, 0
1, 27744, Note_on_c, 0, 75, 77
1, 27744, Note_on_c, 0, 76, 0
1, 27789, Note_on_c, 0, 59, 0
1, 27789, Note_on_c, 0, 71, 0
1, 27789, Note_on_c, 0, 75, 0
1, 27792, Note_on_c, 0, 75, 77
1, 27815, Note_on_c, 0, 75, 0
1, 27816, Note_on_c, 0, 78, 77
1, 27839, Note_on_c, 0, 78, 0
1, 27840, Note_on_c, 0, 76, 77
1, 27863, Note_on_c, 0, 76, 0
1, 27864, Note_on_c, 0, 75, 77
1, 27887, Note_on_c, 0, 75, 0
1, 27888, Note_on_c, 0, 73, 77
1, 27911, Note_on_c, 0, 73, 0
1, 27912, Note_on_c, 0, 71, 77
1, 27935, Note_on_c, 0, 71, 0
1, 27936, Note_on_c, 0, 78, 77
1, 27936, Note_on_c, 0, 81, 77
1, 27984, Note_on_c, 0, 51, 77
1, 28032, Note_on_c, 0, 51, 0
1, 28032, Note_on_c, 0, 52, 77
1, 28032, Note_on_c, 0, 76, 77
1, 28032, Note_on_c, 0, 78, 0
1, 28032, Note_on_c, 0, 80, 77
1, 28032, Note_on_c, 0, 81, 0
1, 28077, Note_on_c, 0, 52, 0
1, 28077, Note_on_c, 0, 76, 0
1, 28077, Note_on_c, 0, 80, 0
1, 28080, Note_on_c, 0, 59, 77
1, 28080, Note_on_c, 0, 76, 77
1, 28080, Note_on_c, 0, 80, 77
1, 28125, Note_on_c, 0, 59, 0
1, 28128, Note_on_c, 0, 54, 77
1, 28128, Note_on_c, 0, 75, 77
1, 28128, Note_on_c, 0, 76, 0
1, 28128, Note_on_c, 0, 78, 77
1, 28128, Note_on_c, 0, 80, 0
1, 28173, Note_on_c, 0, 54, 0
1, 28173, Note_on_c, 0, 75, 0
1, 28173, Note_on_c, 0, 78, 0
1, 28176, Note_on_c, 0, 47, 77
1, 28221, Note_on_c, 0, 47, 0
1, 28224, Note_on_c, 0, 47, 77
1, 28224, Note_on_c, 0, 71, 77
1, 28247, Note_on_c, 0, 47, 0
1, 28248, Note_on_c, 0, 59, 77
1, 28271, Note_on_c, 0, 59, 0
1, 28272, Note_on_c, 0, 47, 77
1, 28295, Note_on_c, 0, 47, 0
1, 28296, Note_on_c, 0, 59, 78
1, 28313, Note_on_c, 0, 71, 0
1, 28319, Note_on_c, 0, 59, 0
1, 28320, Note_on_c, 0, 47, 78
1, 28320, Note_on_c, 0, 70, 78
1, 28320, Note_on_c, 0, 73, 78
1, 28343, Note_on_c, 0, 47, 0
1, 28344, Note_on_c, 0, 59, 79
1, 28365, Note_on_c, 0, 70, 0
1, 28365, Note_on_c, 0, 73, 0
1, 28367, Note_on_c, 0, 59, 0
1, 28368, Note_on_c, 0, 47, 79
1, 28368, Note_on_c, 0, 71, 79
1, 28368, Note_on_c, 0, 75, 79
1, 28391, Note_on_c, 0, 47, 0
1, 28392, Note_on_c, 0, 59, 79
1, 28415, Note_on_c, 0, 59, 0
1, 28416, Note_on_c, 0, 47, 80
1, 28439, Note_on_c, 0, 47, 0
1, 28440, Note_on_c, 0, 59, 80
1, 28457, Note_on_c, 0, 71, 0
1, 28457, Note_on_c, 0, 75, 0
1, 28463, Note_on_c, 0, 59, 0
1, 28464, Note_on_c, 0, 47, 81
1, 28464, Note_on_c, 0, 73, 80
1, 28464, Note_on_c, 0, 76, 80
1, 28487, Note_on_c, 0, 47, 0
1, 28488, Note_on_c, 0, 59, 81
1, 28509, Note_on_c, 0, 73, 0
1, 28509, Note_on_c, 0, 76, 0
1, 28511, Note_on_c, 0, 59, 0
1, 28512, Note_on_c, 0, 47, 82
1, 28512, Note_on_c, 0, 75, 81
1, 28512, Note_on_c, 0, 78, 81
1, 28535, Note_on_c, 0, 47, 0
1, 28536, Note_on_c, 0, 59, 82
1, 28557, Note_on_c, 0, 75, 0
1, 28557, Note_on_c, 0, 78, 0
1, 28559, Note_on_c, 0, 59, 0
1, 28560, Note_on_c, 0, 47, 82
1, 28560, Note_on_c, 0, 78, 82
1, 28560, Note_on_c, 0, 81, 82
1, 28583, Note_on_c, 0, 47, 0
1, 28584, Note_on_c, 0, 59, 83
1, 28605, Note_on_c, 0, 78, 0
1, 28605, Note_on_c, 0, 81, 0
1, 28607, Note_on_c, 0, 59, 0
1, 28608, Note_on_c, 0, 47, 83
1, 28608, Note_on_c, 0, 76, 82
1, 28608, Note_on_c, 0, 80, 82
1, 28631, Note_on_c, 0, 47, 0
1, 28632, Note_on_c, 0, 59, 84
1, 28653, Note_on_c, 0, 76, 0
1, 28653, Note_on_c, 0, 80, 0
1, 28655, Note_on_c, 0, 59, 0
1, 28656, Note_on_c, 0, 47, 84
1, 28656, Note_on_c, 0, 75, 83
1, 28656, Note_on_c, 0, 78, 83
1, 28679, Note_on_c, 0, 47, 0
1, 28680, Note_on_c, 0, 59, 85
1, 28703, Note_on_c, 0, 59, 0
1, 28704, Note_on_c, 0, 54, 85
1, 28727, Note_on_c, 0, 54, 0
1, 28728, Note_on_c, 0, 51, 85
1, 28745, Note_on_c, 0, 75, 0
1, 28745, Note_on_c, 0, 78, 0
1, 28751, Note_on_c, 0, 51, 0
1, 28752, Note_on_c, 0, 47, 85
1, 28797, Note_on_c, 0, 47, 0
1, 28800, Note_on_c, 0, 47, 77
1, 28800, Note_on_c, 0, 71, 85
1, 28823, Note_on_c, 0, 47, 0
1, 28824, Note_on_c, 0, 59, 77
1, 28847, Note_on_c, 0, 59, 0
1, 28848, Note_on_c, 0, 47, 77
1, 28871, Note_on_c, 0, 47, 0
1, 28872, Note_on_c, 0, 59, 78
1, 28889, Note_on_c, 0, 71, 0
1, 28895, Note_on_c, 0, 59, 0
1, 28896, Note_on_c, 0, 47, 78
1, 28896, Note_on_c, 0, 70, 77
1, 28896, Note_on_c, 0, 73, 77
1, 28919, Note_on_c, 0, 47, 0
1, 28920, Note_on_c, 0, 59, 79
1, 28941, Note_on_c, 0, 70, 0
1, 28941, Note_on_c, 0, 73, 0
1, 28943, Note_on_c, 0, 59, 0
1, 28944, Note_on_c, 0, 47, 79
1, 28944, Note_on_c, 0, 71, 77
1, 28944, Note_on_c, 0, 75, 77
1, 28967, Note_on_c, 0, 47, 0
1, 28968, Note_on_c, 0, 59, 79
1, 28991, Note_on_c, 0, 59, 0
1, 28992, Note_on_c, 0, 47, 80
1, 29015, Note_on_c, 0, 47, 0
1, 29016, Note_on_c, 0, 59, 80
1, 29033, Note_on_c, 0, 71, 0
1, 29033, Note_on_c, 0, 75, 0
1, 29039, Note_on_c, 0, 59, 0
1, 29040, Note_on_c, 0, 47, 81
1, 29040, Note_on_c, 0, 73, 79
1, 29040, Note_on_c, 0, 76, 79
1, 29063, Note_on_c, 0, 47, 0
1, 29064, Note_on_c, 0, 59, 81
1, 29085, Note_on_c, 0, 73, 0
1, 29085, Note_on_c, 0, 76, 0
1, 29087, Note_on_c, 0, 59, 0
1, 29088, Note_on_c, 0, 47, 82
1, 29088, Note_on_c, 0, 75, 80
1, 29088, Note_on_c, 0, 78, 80
1, 29111, Note_on_c, 0, 47, 0
1, 29112, Note_on_c, 0, 59, 82
1, 29133, Note_on_c, 0, 75, 0
1, 29133, Note_on_c, 0, 78, 0
1, 29135, Note_on_c, 0, 59, 0
1, 29136, Note_on_c, 0, 47, 82
1, 29136, Note_on_c, 0, 78, 81
1, 29136, Note_on_c, 0, 81, 81
1, 29159, Note_on_c, 0, 47, 0
1, 29160, Note_on_c, 0, 59, 83
1, 29181, Note_on_c, 0, 78, 0
1, 29181, Note_on_c, 0, 81, 0
1, 29183, Note_on_c, 0, 59, 0
1, 29184, Note_on_c, 0, 47, 83
1, 29184, Note_on_c, 0, 76, 82
1, 29184, Note_on_c, 0, 80, 82
1, 29207, Note_on_c, 0, 47, 0
1, 29208, Note_on_c, 0, 59, 84
1, 29229, Note_on_c, 0, 76, 0
1, 29229, Note_on_c, 0, 80, 0
1, 29231, Note_on_c, 0, 59, 0
1, 29232, Note_on_c, 0, 47, 84
1, 29232, Note_on_c, 0, 75, 83
1, 29232, Note_on_c, 0, 78, 83
1, 29255, Note_on_c, 0, 47, 0
1, 29256, Note_on_c, 0, 59, 85
1, 29279, Note_on_c, 0, 59, 0
1, 29280, Note_on_c, 0, 54, 85
1, 29303, Note_on_c, 0, 54, 0
1, 29304, Note_on_c, 0, 51, 85
1, 29321, Note_on_c, 0, 75, 0
1, 29321, Note_on_c, 0, 78, 0
1, 29327, Note_on_c, 0, 51, 0
1, 29328, Note_on_c, 0, 47, 85
1, 29373, Note_on_c, 0, 47, 0
1, 29376, Note_on_c, 0, 52, 85
1, 29376, Note_on_c, 0, 68, 85
1, 29376, Note_on_c, 0, 71, 85
1, 29399, Note_on_c, 0, 52, 0
1, 29400, Note_on_c, 0, 64, 85
1, 29423, Note_on_c, 0, 64, 0
1, 29424, Note_on_c, 0, 52, 85
1, 29447, Note_on_c, 0, 52, 0
1, 29448, Note_on_c, 0, 64, 85
1, 29465, Note_on_c, 0, 68, 0
1, 29465, Note_on_c, 0, 71, 0
1, 29471, Note_on_c, 0, 64, 0
1, 29472, Note_on_c, 0, 52, 85
1, 29472, Note_on_c, 0, 76, 85
1, 29495, Note_on_c, 0, 52, 0
1, 29496, Note_on_c, 0, 64, 85
1, 29496, Note_on_c, 0, 71, 85
1, 29496, Note_on_c, 0, 76, 0
1, 29519, Note_on_c, 0, 64, 0
1, 29519, Note_on_c, 0, 71, 0
1, 29520, Note_on_c, 0, 52, 85
1, 29520, Note_on_c, 0, 69, 61
1, 29520, Note_on_c, 0, 74, 85
1, 29532, Note_on_c, 0, 73, 85
1, 29532, Note_on_c, 0, 74, 0
1, 29543, Note_on_c, 0, 52, 0
1, 29544, Note_on_c, 0, 64, 85
1, 29544, Note_on_c, 0, 73, 0
1, 29544, Note_on_c, 0, 74, 85
1, 29556, Note_on_c, 0, 73, 85
1, 29556, Note_on_c, 0, 74, 0
1, 29565, Note_on_c, 0, 69, 0
1, 29567, Note_on_c, 0, 64, 0
1, 29568, Note_on_c, 0, 52, 85
1, 29568, Note_on_c, 0, 68, 61
1, 29568, Note_on_c, 0, 71, 85
1, 29568, Note_on_c, 0, 73, 0
1, 29591, Note_on_c, 0, 52, 0
1, 29592, Note_on_c, 0, 64, 85
1, 29613, Note_on_c, 0, 68, 0
1, 29613, Note_on_c, 0, 71, 0
1, 29615, Note_on_c, 0, 64, 0
1, 29616, Note_on_c, 0, 52, 85
1, 29639, Note_on_c, 0, 52, 0
1, 29640, Note_on_c, 0, 64, 85
1, 29663, Note_on_c, 0, 64, 0
1, 29664, Note_on_c, 0, 52, 85
1, 29664, Note_on_c, 0, 75, 85
1, 29664, Note_on_c, 0, 81, 85
1, 29687, Note_on_c, 0, 52, 0
1, 29688, Note_on_c, 0, 64, 85
1, 29711, Note_on_c, 0, 64, 0
1, 29712, Note_on_c, 0, 52, 85
1, 29712, Note_on_c, 0, 75, 0
1, 29712, Note_on_c, 0, 76, 85
1, 29712, Note_on_c, 0, 80, 85
1, 29712, Note_on_c, 0, 81, 0
1, 29735, Note_on_c, 0, 52, 0
1, 29736, Note_on_c, 0, 64, 85
1, 29757, Note_on_c, 0, 76, 0
1, 29757, Note_on_c, 0, 80, 0
1, 29759, Note_on_c, 0, 64, 0
1, 29760, Note_on_c, 0, 52, 85
1, 29783, Note_on_c, 0, 52, 0
1, 29784, Note_on_c, 0, 64, 85
1, 29807, Note_on_c, 0, 64, 0
1, 29808, Note_on_c, 0, 52, 85
1, 29808, Note_on_c, 0, 69, 61
1, 29808, Note_on_c, 0, 74, 85
1, 29820, Note_on_c, 0, 73, 85
1, 29820, Note_on_c, 0, 74, 0
1, 29831, Note_on_c, 0, 52, 0
1, 29832, Note_on_c, 0, 64, 85
1, 29832, Note_on_c, 0, 73, 0
1, 29832, Note_on_c, 0, 74, 85
1, 29844, Note_on_c, 0, 73, 85
1, 29844, Note_on_c, 0, 74, 0
1, 29855, Note_on_c, 0, 64, 0
1, 29856, Note_on_c, 0, 52, 85
1, 29856, Note_on_c, 0, 68, 61
1, 29856, Note_on_c, 0, 69, 0
1, 29856, Note_on_c, 0, 71, 85
1, 29856, Note_on_c, 0, 73, 0
1, 29879, Note_on_c, 0, 52, 0
1, 29880, Note_on_c, 0, 64, 85
1, 29901, Note_on_c, 0, 68, 0
1, 29901, Note_on_c, 0, 71, 0
1, 29903, Note_on_c, 0, 64, 0
1, 29904, Note_on_c, 0, 52, 85
1, 29927, Note_on_c, 0, 52, 0
1, 29928, Note_on_c, 0, 64, 85
1, 29951, Note_on_c, 0, 64, 0
1, 29952, Note_on_c, 0, 52, 85
1, 29952, Note_on_c, 0, 75, 85
1, 29952, Note_on_c, 0, 81, 85
1, 29975, Note_on_c, 0, 52, 0
1, 29976, Note_on_c, 0, 64, 85
1, 29999, Note_on_c, 0, 64, 0
1, 30000, Note_on_c, 0, 52, 85
1, 30000, Note_on_c, 0, 75, 0
1, 30000, Note_on_c, 0, 76, 85
1, 30000, Note_on_c, 0, 80, 85
1, 30000, Note_on_c, 0, 81, 0
1, 30023, Note_on_c, 0, 52, 0
1, 30024, Note_on_c, 0, 64, 85
1, 30045, Note_on_c, 0, 76, 0
1, 30045, Note_on_c, 0, 80, 0
1, 30047, Note_on_c, 0, 64, 0
1, 30048, Note_on_c, 0, 52, 85
1, 30071, Note_on_c, 0, 52, 0
1, 30072, Note_on_c, 0, 64, 85
1, 30095, Note_on_c, 0, 64, 0
1, 30096, Note_on_c, 0, 66, 85
1, 30096, Note_on_c, 0, 81, 85
1, 30119, Note_on_c, 0, 81, 0
1, 30120, Note_on_c, 0, 78, 84
1, 30143, Note_on_c, 0, 78, 0with
1, 30144, Note_on_c, 0, 85, 84
1, 30167, Note_on_c, 0, 85, 0
1, 30168, Note_on_c, 0, 81, 83
1, 30185, Note_on_c, 0, 66, 0
1, 30191, Note_on_c, 0, 81, 0
1, 30192, Note_on_c, 0, 63, 82
1, 30192, Note_on_c, 0, 80, 83
1, 30215, Note_on_c, 0, 80, 0
1, 30216, Note_on_c, 0, 78, 82
1, 30237, Note_on_c, 0, 63, 0
1, 30239, Note_on_c, 0, 78, 0
1, 30240, Note_on_c, 0, 64, 81
1, 30240, Note_on_c, 0, 80, 82
1, 30263, Note_on_c, 0, 80, 0
1, 30264, Note_on_c, 0, 76, 81
1, 30287, Note_on_c, 0, 76, 0
1, 30288, Note_on_c, 0, 83, 81
1, 30311, Note_on_c, 0, 83, 0
1, 30312, Note_on_c, 0, 80, 80
1, 30329, Note_on_c, 0, 64, 0
1, 30335, Note_on_c, 0, 80, 0
1, 30336, Note_on_c, 0, 61, 79
1, 30336, Note_on_c, 0, 78, 80
1, 30359, Note_on_c, 0, 78, 0
1, 30360, Note_on_c, 0, 76, 79
1, 30381, Note_on_c, 0, 61, 0
1, 30383, Note_on_c, 0, 76, 0
1, 30384, Note_on_c, 0, 63, 78
1, 30384, Note_on_c, 0, 78, 79
1, 30407, Note_on_c, 0, 78, 0
1, 30408, Note_on_c, 0, 75, 78
1, 30431, Note_on_c, 0, 75, 0
1, 30432, Note_on_c, 0, 81, 78
1, 30455, Note_on_c, 0, 81, 0
1, 30456, Note_on_c, 0, 78, 77
1, 30473, Note_on_c, 0, 63, 0
1, 30479, Note_on_c, 0, 78, 0
1, 30480, Note_on_c, 0, 60, 76
1, 30480, Note_on_c, 0, 76, 77
1, 30503, Note_on_c, 0, 76, 0
1, 30504, Note_on_c, 0, 75, 77
1, 30525, Note_on_c, 0, 60, 0
1, 30527, Note_on_c, 0, 75, 0
1, 30528, Note_on_c, 0, 61, 75
1, 30528, Note_on_c, 0, 76, 76
1, 30551, Note_on_c, 0, 76, 0
1, 30552, Note_on_c, 0, 73, 76
1, 30575, Note_on_c, 0, 73, 0
1, 30576, Note_on_c, 0, 80, 75
1, 30599, Note_on_c, 0, 80, 0
1, 30600, Note_on_c, 0, 76, 75
1, 30617, Note_on_c, 0, 61, 0
1, 30623, Note_on_c, 0, 76, 0
1, 30624, Note_on_c, 0, 57, 73
1, 30624, Note_on_c, 0, 75, 74
1, 30647, Note_on_c, 0, 75, 0
1, 30648, Note_on_c, 0, 73, 74
1, 30669, Note_on_c, 0, 57, 0
1, 30671, Note_on_c, 0, 73, 0
1, 30672, Note_on_c, 0, 54, 72
1, 30672, Note_on_c, 0, 75, 73
1, 30687, Note_on_c, 0, 75, 0
1, 30688, Note_on_c, 0, 76, 73
1, 30703, Note_on_c, 0, 76, 0
1, 30704, Note_on_c, 0, 78, 73
1, 30717, Note_on_c, 0, 54, 0
1, 30719, Note_on_c, 0, 78, 0
1, 30720, Note_on_c, 0, 56, 71
1, 30720, Note_on_c, 0, 76, 73
1, 30765, Note_on_c, 0, 56, 0
1, 30765, Note_on_c, 0, 76, 0
1, 30768, Note_on_c, 0, 44, 70
1, 30768, Note_on_c, 0, 76, 72
1, 30780, Note_on_c, 0, 75, 71
1, 30780, Note_on_c, 0, 76, 0
1, 30792, Note_on_c, 0, 75, 0
1, 30792, Note_on_c, 0, 76, 71
1, 30804, Note_on_c, 0, 75, 71
1, 30804, Note_on_c, 0, 76, 0
1, 30813, Note_on_c, 0, 44, 0
1, 30816, Note_on_c, 0, 49, 69
1, 30816, Note_on_c, 0, 73, 71
1, 30816, Note_on_c, 0, 75, 0
1, 30905, Note_on_c, 0, 49, 0
1, 30905, Note_on_c, 0, 73, 0
1, 30912, Note_on_c, 0, 69, 77
1, 30927, Note_on_c, 0, 69, 0
1, 30928, Note_on_c, 0, 71, 77
1, 30943, Note_on_c, 0, 71, 0
1, 30944, Note_on_c, 0, 73, 77
1, 30959, Note_on_c, 0, 73, 0
1, 30960, Note_on_c, 0, 57, 77
1, 30960, Note_on_c, 0, 61, 77
1, 30960, Note_on_c, 0, 69, 77
1, 31005, Note_on_c, 0, 69, 0
1, 31008, Note_on_c, 0, 73, 77
1, 31049, Note_on_c, 0, 57, 0
1, 31049, Note_on_c, 0, 61, 0
1, 31053, Note_on_c, 0, 73, 0
1, 31056, Note_on_c, 0, 76, 77
1, 31101, Note_on_c, 0, 76, 0
1, 31104, Note_on_c, 0, 57, 77
1, 31104, Note_on_c, 0, 61, 77
1, 31104, Note_on_c, 0, 76, 77
1, 31149, Note_on_c, 0, 76, 0
1, 31152, Note_on_c, 0, 81, 77
1, 31193, Note_on_c, 0, 57, 0
1, 31193, Note_on_c, 0, 61, 0
1, 31197, Note_on_c, 0, 81, 0
1, 31200, Note_on_c, 0, 76, 77
1, 31223, Note_on_c, 0, 76, 0
1, 31224, Note_on_c, 0, 73, 77
1, 31247, Note_on_c, 0, 73, 0
1, 31248, Note_on_c, 0, 52, 77
1, 31248, Note_on_c, 0, 62, 61
1, 31248, Note_on_c, 0, 76, 77
1, 31271, Note_on_c, 0, 76, 0
1, 31272, Note_on_c, 0, 74, 77
1, 31293, Note_on_c, 0, 62, 0
1, 31295, Note_on_c, 0, 74, 0
1, 31296, Note_on_c, 0, 56, 61
1, 31296, Note_on_c, 0, 74, 77
1, 31319, Note_on_c, 0, 74, 0
1, 31320, Note_on_c, 0, 71, 77
1, 31337, Note_on_c, 0, 52, 0
1, 31341, Note_on_c, 0, 56, 0
1, 31343, Note_on_c, 0, 71, 0
1, 31344, Note_on_c, 0, 57, 61
1, 31344, Note_on_c, 0, 57, 77
1, 31344, Note_on_c, 0, 73, 77
1, 31389, Note_on_c, 0, 57, 0
1, 31389, Note_on_c, 0, 57, 0
1, 31389, Note_on_c, 0, 73, 0
1, 31392, Note_on_c, 0, 57, 77
1, 31392, Note_on_c, 0, 61, 77
1, 31392, Note_on_c, 0, 76, 77
1, 31437, Note_on_c, 0, 76, 0
1, 31440, Note_on_c, 0, 81, 77
1, 31481, Note_on_c, 0, 57, 0
1, 31481, Note_on_c, 0, 61, 0
1, 31485, Note_on_c, 0, 81, 0
1, 31488, Note_on_c, 0, 73, 77
1, 31511, Note_on_c, 0, 73, 0
1, 31512, Note_on_c, 0, 69, 77
1, 31535, Note_on_c, 0, 69, 0
1, 31536, Note_on_c, 0, 62, 77
1, 31536, Note_on_c, 0, 73, 77
1, 31559, Note_on_c, 0, 73, 0
1, 31560, Note_on_c, 0, 71, 77
1, 31581, Note_on_c, 0, 62, 0
1, 31583, Note_on_c, 0, 71, 0
1, 31584, Note_on_c, 0, 59, 77
1, 31584, Note_on_c, 0, 71, 77
1, 31607, Note_on_c, 0, 71, 0
1, 31608, Note_on_c, 0, 68, 77
1, 31629, Note_on_c, 0, 59, 0
1, 31631, Note_on_c, 0, 68, 0
1, 31632, Note_on_c, 0, 61, 77
1, 31632, Note_on_c, 0, 69, 77
1, 31677, Note_on_c, 0, 61, 0
1, 31677, Note_on_c, 0, 69, 0
1, 31680, Note_on_c, 0, 64, 77
1, 31725, Note_on_c, 0, 64, 0
1, 31728, Note_on_c, 0, 56, 77
1, 31728, Note_on_c, 0, 71, 77
1, 31728, Note_on_c, 0, 74, 77
1, 31773, Note_on_c, 0, 56, 0
1, 31773, Note_on_c, 0, 71, 0
1, 31773, Note_on_c, 0, 74, 0
1, 31776, Note_on_c, 0, 57, 77
1, 31776, Note_on_c, 0, 69, 77
1, 31776, Note_on_c, 0, 73, 77
1, 31821, Note_on_c, 0, 57, 0
1, 31821, Note_on_c, 0, 69, 0
1, 31821, Note_on_c, 0, 73, 0
1, 31824, Note_on_c, 0, 52, 77
1, 31824, Note_on_c, 0, 69, 61
1, 31824, Note_on_c, 0, 74, 77
1, 31836, Note_on_c, 0, 73, 77
1, 31836, Note_on_c, 0, 74, 0
1, 31848, Note_on_c, 0, 73, 0
1, 31848, Note_on_c, 0, 74, 77
1, 31860, Note_on_c, 0, 73, 77
1, 31860, Note_on_c, 0, 74, 0
1, 31869, Note_on_c, 0, 69, 0
1, 31872, Note_on_c, 0, 68, 61
1, 31872, Note_on_c, 0, 71, 77
1, 31872, Note_on_c, 0, 73, 0
1, 31913, Note_on_c, 0, 52, 0
1, 31917, Note_on_c, 0, 68, 0
1, 31917, Note_on_c, 0, 71, 0
1, 31920, Note_on_c, 0, 54, 77
1, 31965, Note_on_c, 0, 54, 0
1, 31968, Note_on_c, 0, 49, 77
1, 31968, Note_on_c, 0, 64, 77
1, 31991, Note_on_c, 0, 49, 0
1, 31992, Note_on_c, 0, 57, 77
1, 32013, Note_on_c, 0, 64, 0
1, 32015, Note_on_c, 0, 57, 0
1, 32016, Note_on_c, 0, 52, 77
1, 32016, Note_on_c, 0, 69, 77
1, 32031, Note_on_c, 0, 69, 0
1, 32032, Note_on_c, 0, 67, 77
1, 32039, Note_on_c, 0, 52, 0
1, 32040, Note_on_c, 0, 57, 77
1, 32047, Note_on_c, 0, 67, 0
1, 32048, Note_on_c, 0, 66, 77
1, 32063, Note_on_c, 0, 57, 0
1, 32063, Note_on_c, 0, 66, 0
1, 32064, Note_on_c, 0, 49, 77
1, 32064, Note_on_c, 0, 67, 77
1, 32079, Note_on_c, 0, 67, 0
1, 32080, Note_on_c, 0, 66, 77
1, 32087, Note_on_c, 0, 49, 0
1, 32088, Note_on_c, 0, 57, 77
1, 32095, Note_on_c, 0, 66, 0
1, 32096, Note_on_c, 0, 64, 77
1, 32111, Note_on_c, 0, 57, 0
1, 32111, Note_on_c, 0, 64, 0
1, 32112, Note_on_c, 0, 50, 77
1, 32112, Note_on_c, 0, 66, 77
1, 32127, Note_on_c, 0, 66, 0
1, 32128, Note_on_c, 0, 62, 77
1, 32135, Note_on_c, 0, 50, 0
1, 32136, Note_on_c, 0, 57, 77
1, 32143, Note_on_c, 0, 62, 0
1, 32144, Note_on_c, 0, 66, 77
1, 32159, Note_on_c, 0, 57, 0
1, 32159, Note_on_c, 0, 66, 0
1, 32160, Note_on_c, 0, 54, 77
1, 32160, Note_on_c, 0, 69, 77
1, 32175, Note_on_c, 0, 69, 0
1, 32176, Note_on_c, 0, 66, 77
1, 32183, Note_on_c, 0, 54, 0
1, 32184, Note_on_c, 0, 57, 77
1, 32191, Note_on_c, 0, 66, 0
1, 32192, Note_on_c, 0, 69, 77
1, 32207, Note_on_c, 0, 57, 0
1, 32207, Note_on_c, 0, 69, 0
1, 32208, Note_on_c, 0, 50, 77
1, 32208, Note_on_c, 0, 74, 77
1, 32231, Note_on_c, 0, 50, 0
1, 32232, Note_on_c, 0, 57, 77
1, 32253, Note_on_c, 0, 74, 0
1, 32255, Note_on_c, 0, 57, 0
1, 32256, Note_on_c, 0, 51, 77
1, 32256, Note_on_c, 0, 66, 77
1, 32279, Note_on_c, 0, 51, 0
1, 32280, Note_on_c, 0, 59, 77
1, 32301, Note_on_c, 0, 66, 0
1, 32303, Note_on_c, 0, 59, 0
1, 32304, Note_on_c, 0, 54, 77
1, 32304, Note_on_c, 0, 71, 77
1, 32319, Note_on_c, 0, 71, 0
1, 32320, Note_on_c, 0, 69, 77
1, 32327, Note_on_c, 0, 54, 0
1, 32328, Note_on_c, 0, 59, 77
1, 32335, Note_on_c, 0, 69, 0
1, 32336, Note_on_c, 0, 68, 77
1, 32351, Note_on_c, 0, 59, 0
1, 32351, Note_on_c, 0, 68, 0
1, 32352, Note_on_c, 0, 51, 77
1, 32352, Note_on_c, 0, 69, 77
1, 32367, Note_on_c, 0, 69, 0
1, 32368, Note_on_c, 0, 68, 77
1, 32375, Note_on_c, 0, 51, 0
1, 32376, Note_on_c, 0, 59, 77
1, 32383, Note_on_c, 0, 68, 0
1, 32384, Note_on_c, 0, 66, 77
1, 32399, Note_on_c, 0, 59, 0
1, 32399, Note_on_c, 0, 66, 0
1, 32400, Note_on_c, 0, 52, 77
1, 32400, Note_on_c, 0, 68, 77
1, 32415, Note_on_c, 0, 68, 0
1, 32416, Note_on_c, 0, 64, 77
1, 32423, Note_on_c, 0, 52, 0
1, 32424, Note_on_c, 0, 59, 77
1, 32431, Note_on_c, 0, 64, 0
1, 32432, Note_on_c, 0, 68, 77
1, 32447, Note_on_c, 0, 59, 0
1, 32447, Note_on_c, 0, 68, 0
1, 32448, Note_on_c, 0, 56, 77
1, 32448, Note_on_c, 0, 71, 77
1, 32463, Note_on_c, 0, 71, 0
1, 32464, Note_on_c, 0, 68, 77
1, 32471, Note_on_c, 0, 56, 0
1, 32472, Note_on_c, 0, 59, 77
1, 32479, Note_on_c, 0, 68, 0
1, 32480, Note_on_c, 0, 71, 77
1, 32495, Note_on_c, 0, 59, 0
1, 32495, Note_on_c, 0, 71, 0
1, 32496, Note_on_c, 0, 52, 77
1, 32496, Note_on_c, 0, 76, 77
1, 32519, Note_on_c, 0, 52, 0
1, 32520, Note_on_c, 0, 59, 77
1, 32541, Note_on_c, 0, 76, 0
1, 32543, Note_on_c, 0, 59, 0
1, 32544, Note_on_c, 0, 56, 77
1, 32544, Note_on_c, 0, 64, 77
1, 32567, Note_on_c, 0, 56, 0
1, 32568, Note_on_c, 0, 64, 77
1, 32589, Note_on_c, 0, 64, 0
1, 32591, Note_on_c, 0, 64, 0
1, 32592, Note_on_c, 0, 59, 77
1, 32592, Note_on_c, 0, 74, 77
1, 32615, Note_on_c, 0, 59, 0
1, 32615, Note_on_c, 0, 74, 0
1, 32616, Note_on_c, 0, 64, 77
1, 32616, Note_on_c, 0, 71, 77
1, 32639, Note_on_c, 0, 64, 0
1, 32639, Note_on_c, 0, 71, 0
1, 32640, Note_on_c, 0, 57, 77
1, 32640, Note_on_c, 0, 73, 77
1, 32663, Note_on_c, 0, 57, 0
1, 32663, Note_on_c, 0, 73, 0
1, 32664, Note_on_c, 0, 64, 77
1, 32664, Note_on_c, 0, 69, 77
1, 32687, Note_on_c, 0, 64, 0
1, 32687, Note_on_c, 0, 69, 0
1, 32688, Note_on_c, 0, 59, 77
1, 32688, Note_on_c, 0, 69, 77
1, 32711, Note_on_c, 0, 59, 0
1, 32711, Note_on_c, 0, 69, 0
1, 32712, Note_on_c, 0, 64, 77
1, 32712, Note_on_c, 0, 68, 77
1, 32735, Note_on_c, 0, 64, 0
1, 32735, Note_on_c, 0, 68, 0
1, 32736, Note_on_c, 0, 62, 77
1, 32736, Note_on_c, 0, 71, 77
1, 32759, Note_on_c, 0, 62, 0
1, 32759, Note_on_c, 0, 71, 0
1, 32760, Note_on_c, 0, 64, 77
1, 32760, Note_on_c, 0, 68, 77
1, 32783, Note_on_c, 0, 64, 0
1, 32783, Note_on_c, 0, 68, 0
1, 32784, Note_on_c, 0, 61, 77
1, 32784, Note_on_c, 0, 69, 77
1, 32807, Note_on_c, 0, 61, 0
1, 32808, Note_on_c, 0, 64, 77
1, 32829, Note_on_c, 0, 69, 0
1, 32831, Note_on_c, 0, 64, 0
1, 32832, Note_on_c, 0, 56, 69
1, 32832, Note_on_c, 0, 64, 69
1, 32855, Note_on_c, 0, 56, 0
1, 32856, Note_on_c, 0, 64, 69
1, 32877, Note_on_c, 0, 64, 0
1, 32879, Note_on_c, 0, 64, 0
1, 32880, Note_on_c, 0, 59, 69
1, 32880, Note_on_c, 0, 74, 69
1, 32903, Note_on_c, 0, 59, 0
1, 32903, Note_on_c, 0, 74, 0
1, 32904, Note_on_c, 0, 64, 69
1, 32904, Note_on_c, 0, 71, 69
1, 32927, Note_on_c, 0, 64, 0
1, 32927, Note_on_c, 0, 71, 0
1, 32928, Note_on_c, 0, 57, 69
1, 32928, Note_on_c, 0, 73, 69
1, 32951, Note_on_c, 0, 57, 0
1, 32951, Note_on_c, 0, 73, 0
1, 32952, Note_on_c, 0, 64, 69
1, 32952, Note_on_c, 0, 69, 69
1, 32975, Note_on_c, 0, 64, 0
1, 32975, Note_on_c, 0, 69, 0
1, 32976, Note_on_c, 0, 59, 69
1, 32976, Note_on_c, 0, 69, 69
1, 32999, Note_on_c, 0, 59, 0
1, 32999, Note_on_c, 0, 69, 0
1, 33000, Note_on_c, 0, 64, 69
1, 33000, Note_on_c, 0, 68, 69
1, 33023, Note_on_c, 0, 64, 0
1, 33023, Note_on_c, 0, 68, 0
1, 33024, Note_on_c, 0, 62, 69
1, 33024, Note_on_c, 0, 71, 69
1, 33047, Note_on_c, 0, 62, 0
1, 33047, Note_on_c, 0, 71, 0
1, 33048, Note_on_c, 0, 64, 69
1, 33048, Note_on_c, 0, 68, 69
1, 33071, Note_on_c, 0, 64, 0
1, 33071, Note_on_c, 0, 68, 0
1, 33072, Note_on_c, 0, 61, 69
1, 33072, Note_on_c, 0, 69, 69
1, 33095, Note_on_c, 0, 61, 0
1, 33096, Note_on_c, 0, 64, 69
1, 33117, Note_on_c, 0, 69, 0
1, 33119, Note_on_c, 0, 64, 0
1, 33120, Note_on_c, 0, 62, 69
1, 33120, Note_on_c, 0, 68, 77
1, 33132, Note_on_c, 0, 66, 77
1, 33132, Note_on_c, 0, 68, 0
1, 33144, Note_on_c, 0, 64, 77
1, 33144, Note_on_c, 0, 66, 0
1, 33156, Note_on_c, 0, 64, 0
1, 33156, Note_on_c, 0, 66, 77
1, 33165, Note_on_c, 0, 62, 0
1, 33168, Note_on_c, 0, 59, 69
1, 33168, Note_on_c, 0, 66, 0
1, 33168, Note_on_c, 0, 74, 77
1, 33213, Note_on_c, 0, 59, 0
1, 33213, Note_on_c, 0, 74, 0
1, 33216, Note_on_c, 0, 56, 69
1, 33261, Note_on_c, 0, 56, 0
1, 33264, Note_on_c, 0, 61, 69
1, 33264, Note_on_c, 0, 66, 77
1, 33276, Note_on_c, 0, 64, 77
1, 33276, Note_on_c, 0, 66, 0
1, 33288, Note_on_c, 0, 62, 77
1, 33288, Note_on_c, 0, 64, 0
1, 33300, Note_on_c, 0, 62, 0
1, 33300, Note_on_c, 0, 64, 77
1, 33309, Note_on_c, 0, 61, 0
1, 33312, Note_on_c, 0, 57, 69
1, 33312, Note_on_c, 0, 64, 0
1, 33312, Note_on_c, 0, 73, 77
1, 33357, Note_on_c, 0, 57, 0
1, 33357, Note_on_c, 0, 73, 0
1, 33360, Note_on_c, 0, 54, 69
1, 33405, Note_on_c, 0, 54, 0
1, 33408, Note_on_c, 0, 59, 69
1, 33408, Note_on_c, 0, 64, 77
1, 33420, Note_on_c, 0, 62, 77
1, 33420, Note_on_c, 0, 64, 0
1, 33432, Note_on_c, 0, 61, 77
1, 33432, Note_on_c, 0, 62, 0
1, 33444, Note_on_c, 0, 61, 0
1, 33444, Note_on_c, 0, 62, 77
1, 33453, Note_on_c, 0, 59, 0
1, 33456, Note_on_c, 0, 56, 69
1, 33456, Note_on_c, 0, 62, 0
1, 33456, Note_on_c, 0, 71, 77
1, 33501, Note_on_c, 0, 56, 0
1, 33501, Note_on_c, 0, 71, 0
1, 33504, Note_on_c, 0, 52, 69
1, 33549, Note_on_c, 0, 52, 0
1, 33552, Note_on_c, 0, 57, 69
1, 33552, Note_on_c, 0, 62, 77
1, 33564, Note_on_c, 0, 61, 77
1, 33564, Note_on_c, 0, 62, 0
1, 33576, Note_on_c, 0, 59, 77
1, 33576, Note_on_c, 0, 61, 0
1, 33588, Note_on_c, 0, 59, 0
1, 33588, Note_on_c, 0, 61, 77
1, 33600, Note_on_c, 0, 61, 0
1, 33600, Note_on_c, 0, 69, 77
1, 33641, Note_on_c, 0, 57, 0
1, 33645, Note_on_c, 0, 69, 0
1, 33648, Note_on_c, 0, 56, 69
1, 33693, Note_on_c, 0, 56, 0
1, 33696, Note_on_c, 0, 54, 69
1, 33696, Note_on_c, 0, 74, 77
1, 33708, Note_on_c, 0, 73, 77
1, 33708, Note_on_c, 0, 74, 0
1, 33720, Note_on_c, 0, 71, 77
1, 33720, Note_on_c, 0, 73, 0
1, 33732, Note_on_c, 0, 71, 0
1, 33732, Note_on_c, 0, 73, 77
1, 33744, Note_on_c, 0, 73, 0
1, 33744, Note_on_c, 0, 81, 77
1, 33785, Note_on_c, 0, 54, 0
1, 33789, Note_on_c, 0, 81, 0
1, 33792, Note_on_c, 0, 49, 69
1, 33837, Note_on_c, 0, 49, 0
1, 33840, Note_on_c, 0, 50, 69
1, 33840, Note_on_c, 0, 73, 77
1, 33852, Note_on_c, 0, 71, 77
1, 33852, Note_on_c, 0, 73, 0
1, 33864, Note_on_c, 0, 69, 77
1, 33864, Note_on_c, 0, 71, 0
1, 33876, Note_on_c, 0, 69, 0
1, 33876, Note_on_c, 0, 71, 77
1, 33885, Note_on_c, 0, 50, 0
1, 33888, Note_on_c, 0, 47, 69
1, 33888, Note_on_c, 0, 71, 0
1, 33912, Note_on_c, 0, 74, 77
1, 33933, Note_on_c, 0, 47, 0
1, 33935, Note_on_c, 0, 74, 0
1, 33936, Note_on_c, 0, 52, 69
1, 33936, Note_on_c, 0, 73, 77
1, 33948, Note_on_c, 0, 73, 0
1, 33948, Note_on_c, 0, 76, 77
1, 33960, Note_on_c, 0, 68, 77
1, 33960, Note_on_c, 0, 76, 0
1, 33972, Note_on_c, 0, 68, 0
1, 33972, Note_on_c, 0, 71, 77
1, 33981, Note_on_c, 0, 52, 0
1, 33984, Note_on_c, 0, 45, 69
1, 33984, Note_on_c, 0, 69, 77
1, 33984, Note_on_c, 0, 71, 0
1, 34073, Note_on_c, 0, 45, 0
1, 34073, Note_on_c, 0, 69, 0
1, 34128, Note_on_c, 0, 60, 61
1, 34128, Note_on_c, 0, 64, 61
1, 34128, Note_on_c, 0, 69, 61
1, 34173, Note_on_c, 0, 60, 0
1, 34173, Note_on_c, 0, 64, 0
1, 34173, Note_on_c, 0, 69, 0
1, 34176, Note_on_c, 0, 62, 61
1, 34176, Note_on_c, 0, 65, 61
1, 34176, Note_on_c, 0, 71, 61
1, 34221, Note_on_c, 0, 62, 0
1, 34221, Note_on_c, 0, 65, 0
1, 34221, Note_on_c, 0, 71, 0
1, 34224, Note_on_c, 0, 59, 61
1, 34224, Note_on_c, 0, 62, 61
1, 34224, Note_on_c, 0, 68, 61
1, 34269, Note_on_c, 0, 59, 0
1, 34269, Note_on_c, 0, 62, 0
1, 34269, Note_on_c, 0, 68, 0
1, 34272, Note_on_c, 0, 60, 61
1, 34272, Note_on_c, 0, 64, 61
1, 34272, Note_on_c, 0, 69, 61
1, 34295, Note_on_c, 0, 69, 0
1, 34296, Note_on_c, 0, 77, 61
1, 34319, Note_on_c, 0, 77, 0
1, 34320, Note_on_c, 0, 76, 61
1, 34343, Note_on_c, 0, 76, 0
1, 34344, Note_on_c, 0, 74, 61
1, 34361, Note_on_c, 0, 60, 0
1, 34361, Note_on_c, 0, 64, 0
1, 34367, Note_on_c, 0, 74, 0
1, 34368, Note_on_c, 0, 72, 61
1, 34391, Note_on_c, 0, 72, 0
1, 34392, Note_on_c, 0, 71, 61
1, 34415, Note_on_c, 0, 71, 0
1, 34416, Note_on_c, 0, 60, 61
1, 34416, Note_on_c, 0, 64, 61
1, 34416, Note_on_c, 0, 69, 61
1, 34461, Note_on_c, 0, 60, 0
1, 34461, Note_on_c, 0, 64, 0
1, 34461, Note_on_c, 0, 69, 0
1, 34464, Note_on_c, 0, 62, 61
1, 34464, Note_on_c, 0, 65, 61
1, 34464, Note_on_c, 0, 71, 61
1, 34509, Note_on_c, 0, 62, 0
1, 34509, Note_on_c, 0, 65, 0
1, 34509, Note_on_c, 0, 71, 0
1, 34512, Note_on_c, 0, 59, 61
1, 34512, Note_on_c, 0, 62, 61
1, 34512, Note_on_c, 0, 68, 61
1, 34557, Note_on_c, 0, 59, 0
1, 34557, Note_on_c, 0, 62, 0
1, 34557, Note_on_c, 0, 68, 0
1, 34560, Note_on_c, 0, 60, 61
1, 34560, Note_on_c, 0, 64, 61
1, 34560, Note_on_c, 0, 69, 61
1, 34583, Note_on_c, 0, 69, 0
1, 34584, Note_on_c, 0, 71, 61
1, 34607, Note_on_c, 0, 71, 0
1, 34608, Note_on_c, 0, 72, 61
1, 34631, Note_on_c, 0, 72, 0
1, 34632, Note_on_c, 0, 74, 61
1, 34649, Note_on_c, 0, 60, 0
1, 34649, Note_on_c, 0, 64, 0
1, 34655, Note_on_c, 0, 74, 0
1, 34656, Note_on_c, 0, 76, 61
1, 34701, Note_on_c, 0, 76, 0
1, 34704, Note_on_c, 0, 62, 61
1, 34704, Note_on_c, 0, 76, 61
1, 34727, Note_on_c, 0, 76, 0
1, 34728, Note_on_c, 0, 77, 61
1, 34749, Note_on_c, 0, 62, 0
1, 34751, Note_on_c, 0, 77, 0
1, 34752, Note_on_c, 0, 59, 61
1, 34752, Note_on_c, 0, 74, 61
1, 34797, Note_on_c, 0, 59, 0
1, 34797, Note_on_c, 0, 74, 0
1, 34800, Note_on_c, 0, 55, 61
1, 34800, Note_on_c, 0, 71, 61
1, 34845, Note_on_c, 0, 55, 0
1, 34845, Note_on_c, 0, 71, 0
1, 34848, Note_on_c, 0, 60, 61
1, 34848, Note_on_c, 0, 75, 61
1, 34871, Note_on_c, 0, 75, 0
1, 34872, Note_on_c, 0, 76, 61
1, 34893, Note_on_c, 0, 60, 0
1, 34895, Note_on_c, 0, 76, 0
1, 34896, Note_on_c, 0, 57, 61
1, 34896, Note_on_c, 0, 72, 61
1, 34941, Note_on_c, 0, 57, 0
1, 34941, Note_on_c, 0, 72, 0
1, 34944, Note_on_c, 0, 53, 61
1, 34989, Note_on_c, 0, 53, 0
1, 34992, Note_on_c, 0, 59, 61
1, 34992, Note_on_c, 0, 73, 61
1, 35015, Note_on_c, 0, 73, 0
1, 35016, Note_on_c, 0, 74, 61
1, 35037, Note_on_c, 0, 59, 0
1, 35039, Note_on_c, 0, 74, 0
1, 35040, Note_on_c, 0, 56, 61
1, 35040, Note_on_c, 0, 71, 61
1, 35085, Note_on_c, 0, 56, 0
1, 35085, Note_on_c, 0, 71, 0
1, 35088, Note_on_c, 0, 52, 61
1, 35088, Note_on_c, 0, 68, 61
1, 35133, Note_on_c, 0, 52, 0
1, 35133, Note_on_c, 0, 68, 0
1, 35136, Note_on_c, 0, 57, 61
1, 35136, Note_on_c, 0, 71, 61
1, 35159, Note_on_c, 0, 71, 0
1, 35160, Note_on_c, 0, 72, 61
1, 35181, Note_on_c, 0, 57, 0
1, 35183, Note_on_c, 0, 72, 0
1, 35184, Note_on_c, 0, 60, 61
1, 35184, Note_on_c, 0, 69, 61
1, 35229, Note_on_c, 0, 60, 0
1, 35229, Note_on_c, 0, 69, 0
1, 35232, Note_on_c, 0, 57, 61
1, 35277, Note_on_c, 0, 57, 0
1, 35280, Note_on_c, 0, 68, 61
1, 35303, Note_on_c, 0, 68, 0
1, 35304, Note_on_c, 0, 69, 61
1, 35327, Note_on_c, 0, 69, 0
1, 35328, Note_on_c, 0, 56, 61
1, 35328, Note_on_c, 0, 71, 61
1, 35351, Note_on_c, 0, 56, 0
1, 35351, Note_on_c, 0, 71, 0
1, 35352, Note_on_c, 0, 57, 61
1, 35352, Note_on_c, 0, 72, 61
1, 35375, Note_on_c, 0, 57, 0
1, 35375, Note_on_c, 0, 72, 0
1, 35376, Note_on_c, 0, 59, 61
1, 35376, Note_on_c, 0, 74, 61
1, 35399, Note_on_c, 0, 59, 0
1, 35399, Note_on_c, 0, 74, 0
1, 35400, Note_on_c, 0, 57, 61
1, 35400, Note_on_c, 0, 72, 61
1, 35423, Note_on_c, 0, 57, 0
1, 35423, Note_on_c, 0, 72, 0
1, 35424, Note_on_c, 0, 52, 61
1, 35424, Note_on_c, 0, 57, 61
1, 35424, Note_on_c, 0, 74, 61
1, 35436, Note_on_c, 0, 72, 61
1, 35436, Note_on_c, 0, 74, 0
1, 35448, Note_on_c, 0, 72, 0
1, 35448, Note_on_c, 0, 74, 61
1, 35460, Note_on_c, 0, 72, 61
1, 35460, Note_on_c, 0, 74, 0
1, 35469, Note_on_c, 0, 57, 0
1, 35472, Note_on_c, 0, 56, 61
1, 35472, Note_on_c, 0, 71, 61
1, 35472, Note_on_c, 0, 72, 0
1, 35513, Note_on_c, 0, 52, 0
1, 35517, Note_on_c, 0, 56, 0
1, 35517, Note_on_c, 0, 71, 0
1, 35520, Note_on_c, 0, 69, 73
1, 35535, Note_on_c, 0, 69, 0
1, 35536, Note_on_c, 0, 71, 76
1, 35551, Note_on_c, 0, 71, 0
1, 35552, Note_on_c, 0, 73, 79
1, 35567, Note_on_c, 0, 73, 0
1, 35568, Note_on_c, 0, 45, 85
1, 35568, Note_on_c, 0, 57, 85
1, 35568, Note_on_c, 0, 69, 85
1, 35613, Note_on_c, 0, 69, 0
1, 35616, Note_on_c, 0, 69, 85
1, 35616, Note_on_c, 0, 73, 85
1, 35657, Note_on_c, 0, 45, 0
1, 35657, Note_on_c, 0, 57, 0
1, 35661, Note_on_c, 0, 69, 0
1, 35661, Note_on_c, 0, 73, 0
1, 35664, Note_on_c, 0, 73, 85
1, 35664, Note_on_c, 0, 76, 85
1, 35709, Note_on_c, 0, 73, 0
1, 35709, Note_on_c, 0, 76, 0
1, 35712, Note_on_c, 0, 40, 85
1, 35712, Note_on_c, 0, 52, 85
1, 35712, Note_on_c, 0, 73, 85
1, 35712, Note_on_c, 0, 76, 85
1, 35757, Note_on_c, 0, 73, 0
1, 35757, Note_on_c, 0, 76, 0
1, 35760, Note_on_c, 0, 71, 85
1, 35760, Note_on_c, 0, 74, 85
1, 35801, Note_on_c, 0, 40, 0
1, 35801, Note_on_c, 0, 52, 0
1, 35805, Note_on_c, 0, 71, 0
1, 35805, Note_on_c, 0, 74, 0
1, 35808, Note_on_c, 0, 68, 85
1, 35823, Note_on_c, 0, 68, 0
1, 35824, Note_on_c, 0, 69, 85
1, 35839, Note_on_c, 0, 69, 0
1, 35840, Note_on_c, 0, 71, 85
1, 35855, Note_on_c, 0, 71, 0
1, 35856, Note_on_c, 0, 40, 85
1, 35856, Note_on_c, 0, 52, 85
1, 35856, Note_on_c, 0, 64, 85
1, 35901, Note_on_c, 0, 64, 0
1, 35904, Note_on_c, 0, 68, 85
1, 35904, Note_on_c, 0, 71, 85
1, 35945, Note_on_c, 0, 40, 0
1, 35945, Note_on_c, 0, 52, 0
1, 35949, Note_on_c, 0, 68, 0
1, 35949, Note_on_c, 0, 71, 0
1, 35952, Note_on_c, 0, 71, 85
1, 35952, Note_on_c, 0, 74, 85
1, 35997, Note_on_c, 0, 71, 0
1, 35997, Note_on_c, 0, 74, 0
1, 36000, Note_on_c, 0, 45, 85
1, 36000, Note_on_c, 0, 57, 85
1, 36000, Note_on_c, 0, 71, 85
1, 36000, Note_on_c, 0, 74, 85
1, 36045, Note_on_c, 0, 71, 0
1, 36045, Note_on_c, 0, 74, 0
1, 36048, Note_on_c, 0, 69, 85
1, 36048, Note_on_c, 0, 73, 85
1, 36089, Note_on_c, 0, 45, 0
1, 36089, Note_on_c, 0, 57, 0
1, 36093, Note_on_c, 0, 69, 0
1, 36093, Note_on_c, 0, 73, 0
1, 36096, Note_on_c, 0, 69, 85
1, 36111, Note_on_c, 0, 69, 0
1, 36112, Note_on_c, 0, 71, 85
1, 36127, Note_on_c, 0, 71, 0
1, 36128, Note_on_c, 0, 73, 85
1, 36143, Note_on_c, 0, 73, 0
1, 36144, Note_on_c, 0, 45, 77
1, 36144, Note_on_c, 0, 57, 77
1, 36144, Note_on_c, 0, 69, 85
1, 36189, Note_on_c, 0, 69, 0
1, 36192, Note_on_c, 0, 69, 85
1, 36192, Note_on_c, 0, 73, 85
1, 36233, Note_on_c, 0, 45, 0
1, 36233, Note_on_c, 0, 57, 0
1, 36237, Note_on_c, 0, 69, 0
1, 36237, Note_on_c, 0, 73, 0
1, 36240, Note_on_c, 0, 73, 85
1, 36240, Note_on_c, 0, 76, 85
1, 36285, Note_on_c, 0, 73, 0
1, 36285, Note_on_c, 0, 76, 0
1, 36288, Note_on_c, 0, 40, 77
1, 36288, Note_on_c, 0, 52, 77
1, 36288, Note_on_c, 0, 73, 85
1, 36288, Note_on_c, 0, 76, 85
1, 36333, Note_on_c, 0, 73, 0
1, 36333, Note_on_c, 0, 76, 0
1, 36336, Note_on_c, 0, 71, 85
1, 36336, Note_on_c, 0, 74, 85
1, 36377, Note_on_c, 0, 40, 0
1, 36377, Note_on_c, 0, 52, 0
1, 36381, Note_on_c, 0, 71, 0
1, 36381, Note_on_c, 0, 74, 0
1, 36384, Note_on_c, 0, 68, 85
1, 36399, Note_on_c, 0, 68, 0
1, 36400, Note_on_c, 0, 69, 85
1, 36415, Note_on_c, 0, 69, 0
1, 36416, Note_on_c, 0, 71, 85
1, 36431, Note_on_c, 0, 71, 0
1, 36432, Note_on_c, 0, 40, 77
1, 36432, Note_on_c, 0, 52, 77
1, 36432, Note_on_c, 0, 64, 85
1, 36477, Note_on_c, 0, 64, 0
1, 36480, Note_on_c, 0, 68, 85
1, 36480, Note_on_c, 0, 71, 85
1, 36521, Note_on_c, 0, 40, 0
1, 36521, Note_on_c, 0, 52, 0
1, 36525, Note_on_c, 0, 68, 0
1, 36525, Note_on_c, 0, 71, 0
1, 36528, Note_on_c, 0, 71, 85
1, 36528, Note_on_c, 0, 74, 85
1, 36573, Note_on_c, 0, 71, 0
1, 36573, Note_on_c, 0, 74, 0
1, 36576, Note_on_c, 0, 45, 77
1, 36576, Note_on_c, 0, 57, 77
1, 36576, Note_on_c, 0, 71, 85
1, 36576, Note_on_c, 0, 74, 85
1, 36621, Note_on_c, 0, 71, 0
1, 36621, Note_on_c, 0, 74, 0
1, 36624, Note_on_c, 0, 69, 85
1, 36624, Note_on_c, 0, 73, 85
1, 36665, Note_on_c, 0, 45, 0
1, 36665, Note_on_c, 0, 57, 0
1, 36669, Note_on_c, 0, 69, 0
1, 36669, Note_on_c, 0, 73, 0
1, 36672, Note_on_c, 0, 69, 77
1, 36687, Note_on_c, 0, 69, 0
1, 36688, Note_on_c, 0, 71, 77
1, 36703, Note_on_c, 0, 71, 0
1, 36704, Note_on_c, 0, 73, 77
1, 36719, Note_on_c, 0, 73, 0
1, 36720, Note_on_c, 0, 49, 77
1, 36720, Note_on_c, 0, 64, 77
1, 36765, Note_on_c, 0, 64, 0
1, 36768, Note_on_c, 0, 69, 77
1, 36813, Note_on_c, 0, 69, 0
1, 36816, Note_on_c, 0, 67, 77
1, 36853, Note_on_c, 0, 49, 0
1, 36861, Note_on_c, 0, 67, 0
1, 36864, Note_on_c, 0, 50, 77
1, 36864, Note_on_c, 0, 67, 77
1, 36909, Note_on_c, 0, 67, 0
1, 36912, Note_on_c, 0, 66, 77
1, 36953, Note_on_c, 0, 50, 0
1, 36957, Note_on_c, 0, 66, 0
1, 36960, Note_on_c, 0, 47, 77
1, 36960, Note_on_c, 0, 68, 77
1, 36975, Note_on_c, 0, 68, 0
1, 36976, Note_on_c, 0, 71, 77
1, 36991, Note_on_c, 0, 71, 0
1, 36992, Note_on_c, 0, 74, 77
1, 37005, Note_on_c, 0, 47, 0
1, 37007, Note_on_c, 0, 74, 0
1, 37008, Note_on_c, 0, 45, 77
1, 37008, Note_on_c, 0, 73, 77
1, 37023, Note_on_c, 0, 73, 0
1, 37024, Note_on_c, 0, 74, 77
1, 37039, Note_on_c, 0, 74, 0
1, 37040, Note_on_c, 0, 76, 77
1, 37053, Note_on_c, 0, 45, 0
1, 37055, Note_on_c, 0, 76, 0
1, 37056, Note_on_c, 0, 49, 77
1, 37056, Note_on_c, 0, 69, 77
1, 37101, Note_on_c, 0, 49, 0
1, 37101, Note_on_c, 0, 69, 0
1, 37104, Note_on_c, 0, 52, 77
1, 37104, Note_on_c, 0, 69, 77
1, 37116, Note_on_c, 0, 68, 77
1, 37116, Note_on_c, 0, 69, 0
1, 37128, Note_on_c, 0, 68, 0
1, 37128, Note_on_c, 0, 69, 77
1, 37140, Note_on_c, 0, 68, 77
1, 37140, Note_on_c, 0, 69, 0
1, 37149, Note_on_c, 0, 52, 0
1, 37152, Note_on_c, 0, 45, 77
1, 37152, Note_on_c, 0, 68, 0
1, 37152, Note_on_c, 0, 69, 77
1, 37241, Note_on_c, 0, 45, 0
1, 37241, Note_on_c, 0, 69, 0
1, 37296, Note_on_c, 0, 45, 0
1, 37385, Note_on_c, 0, 45, 0
1, 37395, End_track
0, 0, End_of_file